<svg viewBox="0 0 1041 673" fill="none" xmlns="http://www.w3.org/2000/svg">
    <path d="M930.275 31.5285H109.538C60.3791 31.5285 20.5282 71.3795 20.5282 120.538V559.113C20.5282 608.271 60.3791 648.122 109.538 648.122H930.275C979.434 648.122 1019.29 608.271 1019.29 559.113V120.538C1019.29 71.3795 979.434 31.5285 930.275 31.5285Z" fill="#B6CEE1" stroke="#116619" stroke-width="6"/>
    <path d="M10.3469 40.3962C14.0803 43.5191 30.3873 57.8544 33.3678 82.5644C35.0452 97.2366 31.7442 112.047 23.9945 124.618C23.9917 129.075 23.989 133.532 23.9862 137.989C25.0232 137.01 49.8969 112.69 42.0007 79.7975C35.744 53.7353 13.6633 42.0771 10.3469 40.3962Z" fill="#48964E"/>
    <path d="M17.0569 128.701C8.9823 135.637 6.59974 141.986 5.91973 146.508C3.13445 165.034 25.505 175.593 28.6391 200.181C30.0691 211.399 26.9366 221.162 23.9805 227.768L23.9875 239.712C41.4527 218.375 42.4272 204.688 40.0084 196.092C35.2337 179.124 13.756 169.631 15.3641 150.788C15.5785 148.344 16.1464 145.945 17.05 143.665C17.0523 138.677 17.0547 133.689 17.0569 128.701Z" fill="#48964E"/>
    <path d="M17.0604 232.674C5.48571 244.641 4.28572 252.946 5.18191 258.219C6.62856 266.731 13.6659 268.101 22.5952 285.077C28.1058 295.553 28.5785 301.026 28.6456 303.67C28.7256 309.923 27.1173 316.082 23.9902 321.497L23.991 330.539C41.6305 318.739 42.9887 308.886 42.9599 304.851C42.9091 297.746 38.4361 291.725 29.6048 279.838C21.4098 268.807 15.4084 264.258 14.9216 255.415C14.7655 251.724 15.4991 248.049 17.0604 244.7V232.674Z" fill="#48964E"/>
    <path d="M17.0604 325.22V335.103C13.8048 340.271 12.0902 346.261 12.1177 352.369C12.5845 369.455 28.9968 376.064 34.1056 392.065C36.8704 400.725 36.9913 414.222 23.998 434.822C23.9945 430.933 23.991 427.045 23.9876 423.156C26.0384 415.924 26.4201 408.32 25.1039 400.919C20.7622 377.867 0.685835 370.851 0.0169104 353.992C-0.233507 347.682 2.15076 337.868 17.0604 325.22Z" fill="#48964E"/>
    <path d="M17.05 427.831C4.9767 444.271 4.77019 454.633 6.80512 461.054C10.6863 473.3 24.3095 476.221 27.465 490.052C29.351 498.318 26.4773 506.012 23.9944 510.935C23.9956 514.078 23.9968 517.22 23.9979 520.363C37.3567 504.069 38.2159 493.78 36.1716 487.248C32.6197 475.899 19.2638 472.709 15.9545 458.324C14.7897 452.761 15.1722 446.984 17.0604 441.623L17.05 427.831Z" fill="#48964E"/>
    <path d="M17.0612 515.065C8.99151 525.759 9.0124 531.824 10.4206 535.356C13.1376 542.17 22.1154 542.287 25.5465 550.039C28.053 555.702 26.0884 562.023 24.2826 566.146C24.3981 567.501 24.5498 568.909 24.7375 570.368C24.9274 571.825 25.1416 573.223 25.3799 574.563C36.23 556.687 35.4077 548.633 32.7037 544.579C28.6327 538.476 17.7069 537.555 16.3971 530.191C16.1254 528.432 16.3546 526.631 17.0587 524.996L17.0612 515.065Z" fill="#48964E"/>
    <path d="M18.0222 572.507C13.0892 583.935 14.5023 589.32 16.4895 592.115C20.584 597.873 29.2555 595.641 37.1308 602.851C40.4592 606 42.9026 609.968 44.2168 614.358C44.942 615.213 45.7119 616.085 46.5267 616.972C47.3524 617.869 48.1675 618.718 48.972 619.52C49.211 604.959 45.11 599.01 41.3366 596.265C34.4535 591.258 24.7423 594.061 20.6399 587.632C19.2122 585.118 18.7262 582.177 19.2688 579.337C19.0586 578.382 18.8583 577.399 18.6681 576.389C18.4184 575.057 18.2031 573.763 18.0222 572.507Z" fill="#48964E"/>
    <path d="M42.0031 622.283C46.7911 638.508 53.2136 643.192 57.9382 644.631C66.9854 647.388 73.8136 639.441 88.7123 639.365C96.1929 639.413 103.556 641.227 110.203 644.66L119.037 644.657C102.87 630.479 91.01 628.438 82.73 629.801C72.3763 631.505 63.8322 639.154 54.9499 635.224C51.4655 633.513 48.6522 630.688 46.9564 627.196C46.2082 626.514 45.4495 625.795 44.6803 625.04C43.7328 624.108 42.8404 623.189 42.0031 622.283Z" fill="#48964E"/>
    <path d="M115.106 651.591C127.369 659.207 134.715 658.829 139.176 657.027C145.937 654.296 147.67 647.647 156.146 644.779C160.852 643.316 165.884 643.273 170.614 644.655H177.173C165.138 636.785 157.597 636.827 152.826 638.581C144.69 641.572 140.989 650.87 130.321 652.01C128.053 652.244 125.761 652.1 123.54 651.584L115.106 651.591Z" fill="#48964E"/>
    <path d="M176.174 651.59C191.651 661.554 201.029 661.231 206.763 659.02C215.799 655.534 218.489 646.308 229.636 643.525C235.059 642.31 240.718 642.705 245.919 644.66L253.388 644.657C239.944 633.895 230.994 633.305 225.357 634.671C213.782 637.475 209.318 650.187 194.515 652.342C190.476 652.902 186.366 652.647 182.428 651.591L176.174 651.59Z" fill="#48964E"/>
    <path d="M249.258 651.582C265.838 664.48 276.984 665.311 284.237 663.447C296.849 660.205 300.696 648.04 316.407 643.82C324.23 641.89 332.436 642.182 340.102 644.66L351.961 644.655C333.752 633.539 321.409 633.567 313.345 635.888C299.746 639.802 293.8 651.537 277.043 653.596C270.737 654.311 264.351 653.625 258.341 651.587L249.258 651.582Z" fill="#48964E"/>
    <path d="M345.465 651.591C365.599 662.904 377.705 661.874 385.027 658.872C394.833 654.852 399.56 645.86 412.771 643.525C418.459 642.583 424.289 642.969 429.804 644.655L443.017 644.658C425.156 629.441 413.953 628.334 406.868 630.539C395.057 634.214 392.044 647.915 376.764 652.231C370.046 653.964 362.974 653.737 356.381 651.577L345.465 651.591Z" fill="#48964E"/>
    <path d="M436.307 651.584C442.658 655.453 452.538 660.082 464.273 659.315C481.079 658.216 487.83 646.955 505.592 642.197C514.149 639.904 527.156 638.613 545.113 644.65L557.538 644.652C526.411 625.02 509.136 625.608 498.952 630.686C488.018 636.138 480.788 648.994 462.926 651.881C457.708 652.701 452.387 652.6 447.203 651.584H436.307Z" fill="#48964E"/>
    <path d="M562.702 651.585C568.452 653.494 574.507 654.314 580.558 654.002C600.049 652.891 608.674 639.807 623.353 634.671C633.854 630.996 650.008 630.496 674.713 644.655L660.42 644.66C650.354 641.913 639.791 641.525 629.551 643.525C608.509 647.856 601.319 660.833 583.509 662.119C576.428 662.63 565.421 661.455 551.171 651.587L562.702 651.585Z" fill="#48964E"/>
    <path d="M678.232 651.584C690.721 656.031 703.969 657.957 717.208 657.249C748.6 655.366 762.648 638.53 787.599 631.572C805.047 626.706 831.514 625.641 869.511 644.671L852.521 644.66C835.629 641.292 818.247 641.207 801.323 644.41C765.319 651.434 753.078 670.21 724.734 672.301C710.686 673.337 690.342 670.448 664.51 651.591L678.232 651.584Z" fill="#48964E"/>
    <path d="M863.063 651.567C886.607 667.621 902.874 668.248 913.514 665.66C932.602 661.019 935.367 645.599 956.862 642.787C972.959 640.681 980.122 648.188 995.268 643.23C1005.77 639.793 1012.88 632.731 1017.11 627.587C1009.96 632.466 1001.87 635.785 993.35 637.327C976.852 640.181 972.486 633.405 958.485 634.671C935.888 636.714 931.904 655.755 909.678 658.725C898.771 660.182 888.074 657.154 877.949 651.549L863.063 651.567Z" fill="#48964E"/>
    <path d="M999.208 69.8698C997.078 77.8959 996.929 86.3192 998.772 94.4161C1003.46 113.868 1018.27 119.09 1024.6 136.621C1027.5 144.66 1029.28 157.114 1022.75 175.443L1022.76 186.227C1042.99 157.86 1042.88 141.801 1038.91 132.342C1033.64 119.792 1018.97 112.695 1008.05 87.2683C1006.39 83.4222 1005.27 80.1954 1004.61 78.1808C1004.06 77.2256 1003.48 76.2551 1002.86 75.2693C1001.65 73.3353 1000.43 71.5367 999.208 69.8698Z" fill="#48964E"/>
    <path d="M1015.82 180.961C1011.89 187.507 1007.1 197.909 1008.95 209.578C1011.34 224.602 1022.78 229.453 1027.25 244.773C1029.47 252.361 1030.52 264.371 1022.75 281.839V294.295C1042.18 265.974 1041.87 250.456 1037.66 241.453C1032.33 230.076 1018.31 223.862 1015.52 206.479C1014.82 201.997 1014.92 197.427 1015.82 192.98V180.961Z" fill="#48964E"/>
    <path d="M1015.82 288.046C1006.9 300.577 1006.59 308.452 1008.44 313.504C1011.7 322.443 1022.43 324.583 1024.6 334.976C1025.36 339.343 1024.71 343.839 1022.75 347.816L1022.76 356.235C1032.27 345.732 1033.16 338.662 1032.12 334.09C1029.58 322.9 1013.72 319.142 1013.31 307.528C1013.28 304.468 1014.15 301.468 1015.81 298.9L1015.82 288.046Z" fill="#48964E"/>
    <path d="M1015.82 351.992C1005.73 364.487 1004.91 372.978 1006.3 378.586C1009.03 389.572 1021.11 392.861 1024.01 406.33C1025.05 411.659 1024.61 417.171 1022.75 422.272V434.384C1035.55 419.748 1036.56 410.288 1034.93 404.264C1031.75 392.556 1017.13 388.512 1014.86 373.569C1014.29 369.557 1014.62 365.469 1015.82 361.6L1015.82 351.992Z" fill="#48964E"/>
    <path d="M1015.82 426.515C1004.79 443.25 1004.97 453.074 1007.55 459.062C1011.73 468.749 1023.75 471.98 1025.04 483.19C1025.39 487.06 1024.59 490.946 1022.75 494.368L1022.75 503.382C1032.03 494.909 1033.54 488.412 1033.23 484.075C1032.34 471.543 1015.58 466.621 1013.75 451.093C1013.29 446.597 1014.01 442.06 1015.82 437.921L1015.82 426.515Z" fill="#48964E"/>
    <path d="M1015.82 499.014C1007.02 507.596 1005.4 514.24 1005.86 518.975C1006.87 529.57 1018.51 532.74 1023.27 545.39C1026.88 554.982 1024.61 564.882 1021.83 572.165C1021.6 573.851 1021.3 575.628 1020.93 577.483C1020.57 579.278 1020.17 580.978 1019.75 582.576C1036.03 561.403 1036.46 549.678 1033.45 542.808C1028.98 532.623 1014.59 527.777 1014.27 515.286C1014.22 512.647 1014.75 510.03 1015.82 507.617L1015.82 499.014Z" fill="#48964E"/>
    <path d="M1014.2 575.757C1009.84 580.03 1006.56 585.276 1004.62 591.064C1001.29 601.346 1004.9 606.523 1000.52 615.745C999.569 617.76 996.178 624.913 989.124 628.141C977.107 633.64 963.034 623.823 962.617 624.765C962.192 625.726 975.865 638.171 990.342 634.283C997.405 632.386 1005.59 626.476 1007.66 618.456C1009.61 610.929 1007.55 596.224 1009.29 592.035C1009.35 591.892 1009.8 590.836 1010.36 589.358C1010.98 587.685 1011.45 586.25 1011.78 585.179C1012.3 583.51 1012.81 581.738 1013.27 579.868C1013.63 578.455 1013.94 577.085 1014.2 575.757Z" fill="#48964E"/>
    <path d="M1001.47 61.5114C1001.37 56.6351 1000.25 51.8343 998.181 47.4151C991.658 33.5863 977.938 28.8425 974.865 27.862C988.36 26.1976 1001.09 32.6254 1006.59 43.5783C1012.43 55.2029 1007.59 66.8654 1006.81 68.643C1005.94 67.3385 1004.98 65.9914 1003.94 64.6156C1003.11 63.5224 1002.29 62.4876 1001.47 61.5114Z" fill="#48964E"/>
    <path d="M43.1074 75.3058C44.178 75.238 38.4338 54.3328 49.1947 41.4384C57.8654 31.0486 73.9217 29.8507 87.2125 30.7765C89.4119 30.2335 91.3744 29.8335 93.0296 29.5356C94.0802 29.3464 95.6591 29.081 97.592 28.8307C98.9585 28.6539 100.173 28.5271 101.193 28.4349C76.8268 18.8415 53.2042 23.3874 43.6608 37.2327C33.201 52.4074 41.9815 75.377 43.1074 75.3058Z" fill="#48964E"/>
    <path d="M93.9102 36.4152C102.92 41.8453 116.869 48.1998 132.092 45.3122C149.99 41.9171 155.559 28.4282 174.15 22.9922C183.451 20.2727 198.036 18.9772 219.103 28.0634H236.353C199.711 5.44149 178.684 6.07507 165.96 12.2196C151.449 19.2267 139.936 37.1661 118.258 37.0115C114.152 36.9709 110.076 36.3133 106.166 35.0608C103.849 35.1485 101.363 35.337 98.7344 35.6677C97.0497 35.8796 95.4402 36.1331 93.9102 36.4152Z" fill="#48964E"/>
    <path d="M228.079 34.994C228.944 35.3655 230.199 35.8987 231.72 36.5247C233.329 37.2753 234.978 37.935 236.661 38.5009C240.168 39.6001 245.142 41.035 251.186 42.359C257.024 43.638 276.468 46.4508 289.033 46.3082C320.503 45.951 334.661 25.56 366.507 19.7456C380.473 17.1958 400.921 16.8869 427.844 28.053C437.861 28.0582 447.878 28.0634 457.896 28.0685C399.445 -5.47043 365.669 -2.9533 345.479 6.02161C327.021 14.2264 308.788 32.7752 274.516 36.1947C264.406 37.1846 254.208 36.7811 244.207 34.9957L228.079 34.994Z" fill="#48964E"/>
    <path d="M437.286 34.9914C465.596 51.2299 483.707 50.326 495.115 46.3082C510.947 40.7325 518.143 27.6528 538.058 24.6155C547.925 23.263 557.975 24.4497 567.256 28.0634H586.506C555.693 5.68429 537.191 4.95595 525.662 9.56331C510.09 15.7864 504.033 33.0253 483.162 37.0114C474.91 38.4536 466.427 37.7578 458.521 34.9905C451.443 34.9908 444.364 34.9911 437.286 34.9914Z" fill="#48964E"/>
    <path d="M571.485 34.9957C596.982 49.3601 614.019 48.7852 625.05 45.3121C642.733 39.7448 651.283 24.7466 672.199 23.5087C680.314 23.1283 688.403 24.6898 695.793 28.0634H718.178C696.641 9.28632 680.986 6.98964 670.428 8.67782C649.18 12.0756 638.772 33.1835 609.666 35.9045C603.46 36.4718 597.205 36.1641 591.084 34.9904C584.551 34.9922 578.018 34.994 571.485 34.9957Z" fill="#48964E"/>
    <path d="M703.477 34.994C726.783 49.3467 740.366 48.8083 748.64 44.9801C759.428 39.9895 761.813 29.122 774.613 24.9106C784.974 21.5015 795.456 24.6605 802.943 28.0599C808.95 28.0605 814.957 28.0611 820.964 28.0617C789.526 7.85254 773.908 8.26014 765.463 13.4001C755.427 19.5093 753.178 33.732 739.786 37.3065C732.496 39.2524 725.543 37.0715 720.901 34.9957L703.477 34.994Z" fill="#48964E"/>
    <path d="M809.739 34.9931C815.789 39.6486 825.205 45.3045 836.74 45.2753C856.236 45.2261 864.499 28.9799 885.881 23.2874C895.544 20.7147 910.126 19.7014 930.432 28.0634C933.816 28.0668 937.197 28.2546 940.56 28.6259C943.741 28.9771 946.679 29.4677 949.349 30.0244C907.174 3.31472 886.881 4.66513 876.141 11.039C865.409 17.408 857.069 33.0336 838.068 35.5357C833.569 36.1109 829.005 35.9275 824.567 34.9931H809.739Z" fill="#48964E"/>
    <path d="M934.578 35.0669C941.184 39.498 948.551 42.6711 956.309 44.4268C966.959 46.7913 978.032 46.4488 988.516 43.4307C979.796 43.5594 971.096 42.5926 962.617 40.553C959.399 39.7762 956.384 38.8836 953.578 37.9281C947.375 36.2526 941 35.2927 934.578 35.0669V35.0669Z" fill="#48964E"/>
    <path d="M101.41 35.4048C107.838 38.3593 117.565 41.6527 128.908 40.4694C152.537 38.0046 160.464 18.485 181.344 14.101C191.498 11.9689 206.67 13.0066 227.939 28.0634C226.906 28.0455 225.873 28.0275 224.84 28.0096C205.872 15.3877 191.931 14.5196 182.672 16.0932C160.602 19.8442 152.631 39.5941 129.016 42.2109C116.358 43.6134 105.462 39.3998 98.4162 35.7754L101.41 35.4048Z" fill="#76B779"/>
    <path d="M95.3166 29.1536C85.4727 25.4876 74.7352 24.9592 64.5788 27.6407C59.6373 29.0252 51.9161 31.1809 46.4277 38.2288C39.199 47.5115 40.6058 58.6408 41.0045 61.2498C40.6717 58.7011 39.5176 47.6986 46.8534 38.7216C52.3326 32.0165 60.2123 29.9397 64.8739 28.7106C73.9135 26.4302 83.4148 26.7632 92.2725 29.6711C93.2873 29.4985 94.302 29.3261 95.3166 29.1536Z" fill="#76B779"/>
    <path d="M237.66 34.9823C252 39.4528 273.205 43.7283 297.002 38.7822C330.164 31.8895 340.922 12.7916 368.942 7.64491C385.526 4.59893 410.17 6.06971 443.834 28.0613L439.167 28.0649C408.29 9.14934 385.263 7.93983 369.975 10.3012C340.724 14.8193 329.915 33.9371 297.666 40.8482C271.862 46.3781 248.691 40.5865 233.399 34.9946C234.82 34.9906 236.24 34.9864 237.66 34.9823Z" fill="#76B779"/>
    <path d="M444.941 34.9912C452.929 40.0391 465.38 46.0804 479.841 44.6481C504.225 42.2332 513.083 20.6748 537.726 17.8641C546.079 16.9114 558.71 17.8318 575.226 28.0738L578.428 28.0634C560.424 15.2718 546.765 13.831 537.394 15.0972C514.3 18.2174 505.779 39.3249 480.948 41.9918C467.882 43.3952 456.562 39.0194 448.925 35.0007C447.597 34.9976 446.269 34.9944 444.941 34.9912Z" fill="#76B779"/>
    <path d="M578.18 34.9873C595.154 43.6952 608.029 44.0214 616.417 42.8772C642.702 39.292 652.867 17.4572 676.737 17.5321C689.165 17.5711 699.182 23.5302 705.282 28.0599C706.237 28.0611 707.192 28.0623 708.147 28.0634C694.849 16.8455 684.006 14.7085 676.847 14.6545C653.408 14.4776 643.263 36.4358 616.085 40.3317C601.595 42.4089 589.063 38.3766 581.209 34.9905L578.18 34.9873Z" fill="#76B779"/>
    <path d="M710.788 34.9947C718.061 40.2465 728.459 45.7932 739.491 43.7627C755.801 40.7608 759.939 23.6929 776.605 19.5981C783.78 17.8351 794.554 18.163 809.898 28.0606L812.55 28.0609C794.731 15.2624 782.829 14.6367 774.982 16.9418C759.326 21.5405 755.487 39.0733 739.159 41.8811C729.507 43.5409 720.566 39.1829 714.296 34.9957C713.126 34.9953 711.957 34.995 710.788 34.9947Z" fill="#76B779"/>
    <path d="M814.955 34.9931C819.827 38.1992 827.321 42.0445 836.555 42.2132C858.284 42.6099 867.535 22.245 889.127 16.9787C899.451 14.4606 914.822 14.852 936.534 28.2863C937.876 28.3995 939.218 28.5127 940.56 28.6259C915.515 11.7737 898.952 11.6916 888.574 14.5438C868.697 20.0065 859.238 39.606 836.887 39.6676C830.25 39.6106 823.717 38.0112 817.804 34.9957C816.854 34.9949 815.905 34.994 814.955 34.9931Z" fill="#76B779"/>
    <path d="M942.44 35.713C946.569 38.605 951.123 40.8354 955.94 42.3239C963.469 44.634 970.024 44.5734 970.051 44.3714C965.338 43.7267 960.69 42.6713 956.161 41.2171C952.257 39.881 948.499 38.1504 944.946 36.0521C944.11 35.9391 943.275 35.826 942.44 35.713Z" fill="#76B779"/>
    <path d="M988.516 31.625C991.866 32.7214 994.959 34.4872 997.607 36.8153C1000.25 39.1435 1002.4 41.9854 1003.92 45.1685C1005.43 48.3515 1006.28 51.8094 1006.42 55.3321C1006.56 58.8548 1005.98 62.3689 1004.72 65.6609L1003.26 63.7362C1005.12 57.5055 1004.64 50.8135 1001.93 44.9062C999.217 38.999 994.45 34.279 988.516 31.625V31.625Z" fill="#76B779"/>
    <path d="M1000.89 72.2494C1000.26 82.8465 1002.22 93.4377 1006.61 103.106C1014.89 120.768 1027.3 124.15 1031.79 138.06C1034.42 146.21 1034.63 158.89 1022.75 178.194L1022.75 180.961C1037.32 159.553 1037.47 145.875 1034.56 137.175C1030.09 123.821 1017.69 120.015 1008.88 100.872C1005.12 92.5862 1002.93 83.6725 1002.43 74.5864C1001.92 73.8075 1001.4 73.0284 1000.89 72.2494Z" fill="#76B779"/>
    <path d="M1015.82 184.986C1013.41 189.821 1010.25 197.931 1011.24 207.509C1013.17 226.011 1028.77 232.242 1032.34 249.345C1033.89 256.745 1033.67 268.5 1022.75 285.279V288.046C1036.28 269.414 1036.85 256.783 1034.85 248.681C1030.95 232.842 1015.36 226.727 1013.09 207.878C1012.36 201.084 1013.32 194.216 1015.89 187.882L1015.82 184.986Z" fill="#76B779"/>
    <path d="M1015.82 292.088C1009.52 300.359 1009.12 306.243 1009.77 309.963C1011.78 321.513 1026.15 324.672 1027.58 336.083C1028.33 342.038 1025.19 347.306 1022.75 350.54L1022.75 351.993C1029 345.097 1029.85 339.901 1029.47 336.415C1028.21 325.102 1012.73 321.778 1010.98 309.852C1010.1 303.818 1013.13 298.335 1015.81 294.662L1015.82 292.088Z" fill="#76B779"/>
    <path d="M1015.82 354.877C1009.05 365.795 1009 373.435 1010.13 378.341C1013.12 391.204 1026.44 394.586 1028.43 407.117C1029.67 414.86 1025.9 421.893 1022.75 426.431V429.612C1031.05 419.546 1031.86 412.226 1031.16 407.486C1029.35 395.193 1016.11 391.535 1012.94 377.603C1011.09 369.49 1013.6 362.01 1015.82 357.202L1015.82 354.877Z" fill="#76B779"/>
    <path d="M1015.82 431.54C1008.4 442.61 1008.31 450.201 1009.4 454.93C1012.39 467.941 1027.27 472.146 1027.7 484.296C1027.89 489.927 1024.89 494.552 1022.75 497.237L1022.75 499.561C1026.34 495.827 1030.01 490.629 1029.76 484.592C1029.27 472.672 1013.94 468.563 1011.09 454.856C1010.08 449.965 1010.53 443.248 1015.82 434.381V431.54Z" fill="#76B779"/>
    <path d="M1015.82 501.71C1012.2 505.779 1008.04 511.875 1008.73 518.754C1009.91 530.546 1024.14 533.781 1028.14 546.46C1029.93 552.144 1030.12 561.166 1021.39 575.016L1020.97 577.285C1032.6 561.775 1032.9 552.126 1030.91 546.128C1027.02 534.456 1012.63 531.24 1011.32 519.049C1010.67 513.035 1013.52 507.801 1015.82 504.514V501.71Z" fill="#76B779"/>
    <path d="M1013.28 579.796C1009.56 584.263 1006.96 589.556 1005.71 595.232C1003.78 604.436 1007.17 608.128 1004.05 616.335C1002.26 621.337 998.873 625.614 994.418 628.509C990.52 630.91 986.009 632.127 981.432 632.014C986.042 632.394 990.662 631.406 994.714 629.174C999.559 626.322 1003.26 621.875 1005.19 616.593C1008.15 608.792 1005.06 604.977 1007.15 595.343C1008.18 590.641 1010.06 586.164 1012.68 582.125L1013.28 579.796Z" fill="#76B779"/>
    <path d="M997.001 639.983C997.064 640.333 990.231 642.707 981.801 642.934C972.39 643.188 966.73 640.613 962.47 639.688C942.876 635.435 931.042 661.361 907.498 664.948C898.802 666.273 885.711 664.976 867.933 651.561L872.47 651.556C887.78 663.167 899.182 664.259 906.393 663.447C930.198 660.764 941.56 633.571 961.584 637.474C966.077 638.35 970.601 640.712 979.883 641.164C989.645 641.638 996.936 639.623 997.001 639.983Z" fill="#76B779"/>
    <path d="M859.281 644.664C846.215 639.293 824.975 632.842 800.917 637.437C768.848 643.563 757.616 664.379 727.649 667.652C715.114 669.021 695.5 667.736 669.584 651.59L674.313 651.588C685.418 658.133 703.568 666.516 724.992 664.553C755.92 661.72 767.454 639.729 798.925 633.453C812.761 630.694 834.433 630.178 864.262 644.667L859.281 644.664Z" fill="#76B779"/>
    <path d="M664.037 644.687C651.154 638.458 640.62 637.651 632.355 638.876C610.917 642.054 603.216 659.13 583.214 660.348C572.328 661.011 562.681 656.679 555.065 651.586L558.275 651.567C563.675 654.63 572.348 658.476 582.771 657.913C602.953 656.821 610.581 640.23 630.473 636.441C638.605 634.893 651.06 635.05 668.132 644.663L664.037 644.687Z" fill="#76B779"/>
    <path d="M549.273 644.651C527.307 632.848 512.883 633.741 503.748 636.773C488.389 641.872 482.538 654.827 465.564 656.917C455.012 658.215 445.881 654.611 440.071 651.584H443.613C450.165 654.716 457.453 655.987 464.678 655.256C482.171 653.136 488.125 638.533 502.641 633.066C511.819 629.609 527.077 628.802 552.323 644.651L549.273 644.651Z" fill="#76B779"/>
    <path d="M436.493 644.699C425.159 635.342 416.761 634.257 411.147 635.039C396.579 637.07 392.128 652.885 376.026 656.068C366.737 657.905 358.204 654.622 352.47 651.582L349.186 651.586C361.832 658.828 370.85 658.786 376.542 657.618C392.27 654.389 397.166 639.573 412.18 637.991C421.167 637.044 428.928 641.349 433.652 644.656L436.493 644.699Z" fill="#76B779"/>
    <path d="M343.431 644.659C338.235 642.101 329.583 638.814 319.691 640.37C302.42 643.088 297.038 658.105 281.064 660.569C274.988 661.506 265.331 660.943 252.012 651.579L255.498 651.583C261.237 655.047 270.054 659.071 280.068 657.747C296.509 655.573 301.906 640.871 318.473 638.046C324.612 637 333.915 637.306 346.475 644.657L343.431 644.659Z" fill="#76B779"/>
    <path d="M247.944 644.659C242.921 641.619 235.444 638.27 227.644 640.094C217.346 642.502 214.939 651.951 204.641 655.533C199.415 657.351 191.182 657.998 178.634 651.591L180.69 651.591C186.805 654.03 195.311 656.168 203.756 653.264C214.324 649.631 216.651 640.901 226.316 638.323C231.472 636.947 239.267 637.176 250.6 644.659H247.944Z" fill="#76B779"/>
    <path d="M175.127 644.655C166.239 639.155 160.08 639.112 156.054 640.149C146.567 642.594 143.858 652.346 133.808 653.984C129.396 654.556 124.916 653.717 121.011 651.586L118.41 651.588C125.345 655.862 130.57 656.207 134.25 655.533C144.054 653.738 146.739 644.014 156.829 641.754C162.921 640.389 168.708 642.419 172.988 644.655H175.127Z" fill="#76B779"/>
    <path d="M113.48 644.655C100.881 635.725 91.2151 634.611 84.6116 635.335C72.9819 636.61 67.4533 643.96 59.0089 641.91C50.9138 639.944 46.2258 630.817 43.6255 623.984L45.2295 625.576C47.9039 631.28 52.4118 638.401 59.5984 640.094C68.0881 642.094 73.6296 634.944 84.0212 633.269C91.1384 632.121 101.672 633.358 116.069 644.659L113.48 644.655Z" fill="#76B779"/>
    <path d="M45.3947 615.708C45.0881 611.126 43.8752 604.984 39.3444 600.729C31.9806 593.815 21.6087 597.29 17.4301 591.064C15.7766 588.6 14.7742 584.141 18.4904 575.414C18.6191 576.098 18.7477 576.782 18.8762 577.465C17.2405 581.599 15.9684 586.871 18.4262 590.621C22.4531 596.765 32.7686 593.143 40.156 599.475C43.5126 602.352 46.5172 607.5 46.7931 617.26C46.3269 616.743 45.8608 616.225 45.3947 615.708Z" fill="#76B779"/>
    <path d="M24.5267 568.625C30.1619 559.396 29.8582 553.748 28.498 550.279C25.3031 542.13 14.6376 541.809 12.2284 534.009C10.5306 528.513 13.9362 522.549 17.0604 518.385L17.0598 520.986C15.0042 524.117 12.5214 529.002 13.8886 533.788C16.1852 541.828 27.2138 542.118 30.4902 549.892C32.026 553.536 32.245 559.742 24.7701 570.615L24.5267 568.625Z" fill="#76B779"/>
    <path d="M23.9954 513.617C27.8757 508.27 32.3657 500.169 30.8776 491.398C28.5162 477.48 13.1498 473.942 9.8488 459.745C8.55186 454.166 8.79209 445.544 17.0541 433.163L17.0568 436.816C13.8066 442.419 10.3751 450.579 12.2284 459.246C15.3589 473.887 30.8828 477.417 33.3125 490.9C34.2915 496.333 33.3424 504.481 23.9963 515.83L23.9954 513.617Z" fill="#76B779"/>
    <path d="M23.9879 426.901C27.3632 419.487 31.1935 407.891 28.0553 395.533C22.9748 375.526 3.68727 369.495 3.33725 353.254C3.2183 347.736 5.24806 339.291 17.0604 328.665V331.654C12.0455 336.702 6.43255 344.146 6.53753 353.096C6.72924 369.433 25.7937 375.553 30.7853 394.5C32.8483 402.331 32.9074 413.871 24.0156 430.083C24.0063 429.022 23.9971 427.962 23.9879 426.901Z" fill="#76B779"/>
    <path d="M23.9904 324.704C33.2302 315.786 34.4585 308.487 34.4745 304.519C34.4838 302.232 34.1043 297.556 21.7466 278.953C12.536 265.087 9.34725 262.567 8.90797 256.485C8.33726 248.583 12.9182 241.727 17.0604 237.043V240.621C14.4345 244.232 11.4841 249.593 11.7856 255.932C12.1125 262.803 16.0476 266.351 23.4068 276.85C32.9914 290.523 37.7837 297.36 37.7948 304.519C37.8022 309.238 35.9793 317.228 23.9906 327.001L23.9904 324.704Z" fill="#76B779"/>
    <path d="M23.9829 231.693C32.8396 219.498 34.1486 209.883 33.7367 203.397C32.2585 180.113 6.81397 168.925 9.46146 148.722C10.3856 142.973 13.0399 137.642 17.0705 133.439C17.0637 134.7 17.0568 135.96 17.0501 137.22C14.3671 140.553 12.5691 144.509 11.8226 148.722C8.58694 168.77 34.9488 180.476 36.9095 202.806C37.5483 210.082 35.8002 220.798 23.9846 234.682L23.9829 231.693Z" fill="#76B779"/>
    <path d="M23.9916 129.261C32.5178 118.862 37.3702 105.938 37.7949 92.4977C38.0244 81.6521 35.3223 70.9457 29.9737 61.5079C36.3822 70.5913 39.9282 81.3835 40.1561 92.4977C40.4759 114.728 26.8922 129.321 23.9897 132.305L23.9916 129.261Z" fill="#76B779"/>
    <path d="M290.324 547.647C291.493 548.26 293.282 549.203 295.48 550.384C298.442 551.976 299.533 552.597 299.74 553.739C299.801 554.077 299.788 554.479 298.902 556.431C297.636 559.223 296.817 560.477 296.816 560.477C296.034 561.685 291.112 569.284 290.133 568.747C289.991 568.669 289.755 568.324 292.38 560.007C293.06 557.852 293.645 556.072 294.055 554.842C293.05 554.391 291.986 553.861 290.882 553.238C289.169 552.272 287.683 551.261 286.416 550.296L290.324 547.647V547.647Z" fill="#B23030"/>
    <path d="M240.656 547.82C239.486 548.433 237.697 549.375 235.5 550.557C232.538 552.149 231.446 552.77 231.24 553.911C231.178 554.25 231.192 554.652 232.077 556.604C233.343 559.396 234.163 560.65 234.163 560.65C234.945 561.858 239.867 569.457 240.847 568.919C240.989 568.842 241.224 568.497 238.599 560.179C237.919 558.025 237.334 556.245 236.925 555.015C237.929 554.564 238.994 554.034 240.098 553.411C241.811 552.444 243.296 551.434 244.563 550.468L240.656 547.82V547.82Z" fill="#B23030"/>
    <path d="M299.299 541.465C302.394 541.976 304.665 542.342 305.848 542.532C309.971 543.195 311.254 543.453 311.909 544.554C312.288 545.191 312.323 545.898 311.787 548.592C311.143 551.823 310.821 553.439 309.995 555.574C308.625 559.113 306.023 564.276 305.174 563.979C304.479 563.735 305.194 559.904 306.322 553.86C306.861 550.974 307.38 548.611 307.746 547.021C306.068 546.945 304.307 546.82 302.471 546.631C300.2 546.397 298.057 546.092 296.052 545.742L299.299 541.465H299.299Z" fill="#B23030"/>
    <path d="M230.165 541.328C227.071 541.839 224.799 542.206 223.617 542.396C219.493 543.059 218.21 543.317 217.556 544.417C217.176 545.055 217.141 545.761 217.678 548.456C218.321 551.687 218.643 553.302 219.469 555.438C220.839 558.977 223.442 564.14 224.29 563.842C224.985 563.599 224.27 559.768 223.142 553.724C222.603 550.838 222.084 548.475 221.718 546.884C223.396 546.809 225.158 546.683 226.993 546.495C229.264 546.261 231.407 545.956 233.412 545.606L230.165 541.328H230.165Z" fill="#B23030"/>
    <path d="M303.298 533.377C306.16 532.09 308.255 531.139 309.346 530.643C313.148 528.914 314.36 528.419 315.513 528.974C316.181 529.296 316.6 529.865 317.638 532.408C318.778 535.197 319.471 536.705 319.996 539.219C320.495 541.607 321.234 546.58 320.344 546.848C319.469 547.113 317.372 542.719 315.99 539.823C314.818 537.369 313.997 535.285 313.477 533.877C311.946 534.519 310.382 535.201 308.792 535.928C306.763 536.855 304.816 537.795 302.952 538.739C303.067 536.952 303.183 535.164 303.298 533.377V533.377Z" fill="#B23030"/>
    <path d="M226.114 533.469C223.253 532.182 221.157 531.231 220.067 530.735C216.264 529.006 215.052 528.511 213.899 529.066C213.232 529.388 212.813 529.957 211.774 532.5C210.634 535.289 209.942 536.797 209.416 539.311C208.918 541.698 208.178 546.672 209.068 546.94C209.943 547.205 212.04 542.811 213.423 539.915C214.594 537.461 215.415 535.377 215.935 533.969C217.467 534.61 219.03 535.293 220.62 536.02C222.649 536.947 224.596 537.887 226.461 538.831C226.345 537.044 226.23 535.256 226.114 533.469V533.469Z" fill="#B23030"/>
    <path d="M311.016 496.014C310.503 497.824 309.446 500.511 307.181 502.955C305.216 505.076 303.021 506.281 301.855 506.909C300.956 507.394 300.167 507.741 299.583 507.978L302.442 511.429C303.25 511.219 304.358 510.865 305.589 510.245C308.623 508.718 310.36 506.613 311.135 505.653C313.444 502.792 314.377 499.861 314.78 498.114L311.016 496.014V496.014Z" fill="#B23030"/>
    <path d="M218.418 494.423C218.931 496.233 219.988 498.92 222.252 501.363C224.218 503.485 226.413 504.69 227.578 505.318C228.478 505.802 229.266 506.15 229.851 506.387L226.992 509.838C226.183 509.628 225.076 509.273 223.844 508.654C220.81 507.127 219.074 505.021 218.299 504.061C215.989 501.2 215.057 498.269 214.653 496.523L218.418 494.423V494.423Z" fill="#C13838"/>
    <path d="M218.418 494.423C218.931 496.233 219.988 498.92 222.252 501.363C224.218 503.485 226.413 504.69 227.578 505.318C228.478 505.802 229.266 506.15 229.851 506.387L226.992 509.838C226.183 509.628 225.076 509.273 223.844 508.654C220.81 507.127 219.074 505.021 218.299 504.061C215.989 501.2 215.057 498.269 214.653 496.523L218.418 494.423V494.423Z" fill="#B23030"/>
    <path d="M190.417 486.639C191.149 488.235 194.696 495.976 202.982 498.209C209.121 499.863 214.302 497.535 216.656 496.476C219.177 495.343 224.622 492.896 227.249 487.027C230.568 479.614 226.94 472.215 225.836 469.962C222.005 462.149 215.065 458.892 212.885 457.974C212.526 461.142 211.897 464.792 210.809 468.765C209.913 472.034 208.865 474.942 207.808 477.465C205.184 476.725 202.156 475.675 198.907 474.162C195.311 472.487 192.311 470.649 189.904 468.96C189.286 470.634 186.631 478.377 190.417 486.639Z" fill="#C13838"/>
    <path d="M339.017 488.23C338.285 489.826 334.738 497.568 326.451 499.8C320.312 501.454 315.132 499.126 312.777 498.068C310.257 496.935 304.812 494.488 302.184 488.618C298.866 481.205 302.493 473.807 303.598 471.554C307.429 463.74 314.369 460.484 316.549 459.565C316.908 462.733 317.537 466.383 318.625 470.356C319.52 473.625 320.568 476.534 321.626 479.056C324.25 478.316 327.277 477.266 330.527 475.753C334.123 474.079 337.123 472.24 339.529 470.552C340.148 472.226 342.803 479.968 339.017 488.23L339.017 488.23Z" fill="#C13838"/>
    <path d="M339.016 488.23C339.016 488.23 338.692 488.955 338.313 489.667C336.361 493.328 333.882 495.602 333.882 495.602C333.351 496.089 330.391 498.748 326.451 499.8C324.807 500.24 323.22 500.339 323.059 500.348C322.732 500.367 321.723 500.415 320.404 500.292C320.078 500.261 318.687 500.122 316.786 499.588C316.297 499.45 314.854 499.027 312.777 498.068C310.708 497.112 308.005 495.863 305.577 493.47C304.452 492.361 303.765 491.38 303.539 491.047C302.907 490.12 302.475 489.27 302.184 488.618C303.781 490.305 307.361 493.62 312.986 495.235C320.067 497.269 325.928 495.327 328.207 494.536C334.021 492.518 337.726 488.99 339.523 487.006C339.396 487.339 339.229 487.756 339.016 488.23V488.23Z" fill="#B23030"/>
    <path d="M262.552 474.721C262.524 476.226 262.385 480.368 259.27 484.022C255.145 488.862 249.198 488.861 248.448 488.848C244.174 488.775 241.149 486.727 239.86 485.701C239.143 485.129 234.474 481.278 234.344 474.721C234.321 473.578 234.361 468.545 238.324 464.58C242.178 460.724 246.999 460.624 248.448 460.594C250.012 460.562 254.905 460.46 258.712 464.161C262.676 468.015 262.58 473.193 262.552 474.721V474.721Z" fill="#C13838"/>
    <path d="M268.23 474.326C268.258 475.831 268.397 479.973 271.512 483.628C275.637 488.467 281.584 488.466 282.334 488.453C286.608 488.38 289.633 486.333 290.922 485.306C291.639 484.735 296.308 480.883 296.438 474.326C296.46 473.183 296.421 468.15 292.458 464.186C288.604 460.329 283.783 460.229 282.334 460.199C280.77 460.167 275.877 460.065 272.07 463.766C268.106 467.62 268.202 472.798 268.23 474.326V474.326Z" fill="#C13838"/>
    <path d="M308.333 524.971C308.296 526.185 307.943 534.268 302.352 541.412C291.598 555.154 270.059 554.448 263.206 554.223C256.805 554.013 236.034 553.332 225.862 539.414C224.758 537.904 220.981 532.59 220.606 524.971C220.092 514.514 226.349 507.052 228.304 504.925C238.422 493.912 254.472 493.914 263.559 493.915C271.339 493.916 293.153 493.918 303.221 508.047C308.508 515.466 308.371 523.713 308.333 524.971V524.971Z" fill="#C13838"/>
    <path d="M246.623 488.281C246.769 489.607 246.844 491.198 246.725 492.988C246.586 495.072 246.221 496.867 245.828 498.3L251.609 498.276C251.21 496.83 250.839 495.126 250.607 493.199C250.383 491.352 250.332 489.676 250.365 488.225L246.623 488.281L246.623 488.281Z" fill="#C13838"/>
    <path d="M284.29 487.98C284.144 489.306 284.069 490.897 284.188 492.687C284.327 494.771 284.692 496.566 285.085 498L279.304 497.975C279.703 496.53 280.073 494.825 280.306 492.898C280.529 491.052 280.581 489.376 280.548 487.925L284.29 487.98L284.29 487.98Z" fill="#C13838"/>
    <path d="M308.333 524.971C308.292 526.386 307.955 534.204 302.352 541.412C295.365 550.401 284.906 552.374 279.244 553.442C273.862 554.458 269.011 554.351 263.206 554.223C262.709 554.212 257.063 554.072 251.709 553.191C248.877 552.725 246.243 552.071 244.923 551.682C244.177 551.462 243.285 551.182 243.285 551.182C242.228 550.85 241.143 550.492 240.634 550.313C238.325 549.499 237.149 548.823 236.544 548.425C236.516 548.407 236.242 548.215 236.241 548.213C238.754 548.993 242.394 549.892 246.865 550.204C249.729 550.404 251.906 550.291 253.475 550.204C254.026 550.174 260.746 549.775 266.834 548.106C281.677 544.037 290.852 534.259 290.853 534.259C300.278 524.214 302.562 512.717 303.221 508.047C304.636 510.064 308.587 516.247 308.333 524.971L308.333 524.971Z" fill="#B23030"/>
    <path d="M286.558 464.541C285.449 464.083 282.377 462.867 278.715 463.989C273.865 465.474 271.974 469.836 271.745 470.39C270.439 473.547 270.973 476.417 271.313 477.689C271.503 478.397 272.833 483.046 277.584 485.227C278.412 485.607 282.104 487.179 286.263 485.535C290.307 483.935 291.914 480.431 292.397 479.378C292.918 478.242 294.549 474.685 293.055 470.717C291.499 466.584 287.684 465.007 286.558 464.541Z" fill="white"/>
    <path d="M259.848 476.276C259.95 475.078 260.181 471.778 258.009 468.619C255.132 464.436 250.41 463.946 249.813 463.894C246.414 463.599 243.843 464.974 242.735 465.683C242.119 466.077 238.095 468.75 237.452 473.945C237.339 474.851 236.957 478.85 239.777 482.326C242.519 485.706 246.339 486.184 247.487 486.327C248.726 486.482 252.603 486.967 255.93 484.343C259.395 481.61 259.745 477.491 259.848 476.276Z" fill="white"/>
    <path d="M284.336 469.487C283.734 469.238 282.064 468.577 280.074 469.186C277.438 469.994 276.41 472.364 276.286 472.665C275.576 474.381 275.866 475.941 276.051 476.632C276.154 477.017 276.877 479.544 279.459 480.729C279.909 480.936 281.916 481.79 284.176 480.896C286.374 480.027 287.247 478.123 287.51 477.55C287.793 476.933 288.679 475 287.867 472.843C287.022 470.597 284.948 469.74 284.336 469.487V469.487Z" fill="#5E1111"/>
    <path d="M250.796 469.77C250.194 469.521 248.524 468.86 246.534 469.47C243.898 470.277 242.87 472.648 242.746 472.949C242.036 474.665 242.326 476.225 242.511 476.916C242.614 477.3 243.337 479.827 245.919 481.012C246.369 481.219 248.376 482.074 250.636 481.18C252.834 480.31 253.707 478.406 253.97 477.834C254.253 477.216 255.139 475.283 254.327 473.126C253.482 470.88 251.408 470.023 250.796 469.77V469.77Z" fill="#5E1111"/>
    <path d="M281.1 471.734C281.11 471.508 281.127 470.886 280.693 470.309C280.119 469.546 279.227 469.491 279.115 469.486C278.473 469.458 278 469.737 277.798 469.879C277.685 469.958 276.95 470.493 276.87 471.475C276.856 471.646 276.816 472.401 277.374 473.033C277.917 473.646 278.639 473.706 278.856 473.723C279.09 473.743 279.823 473.803 280.428 473.283C281.058 472.741 281.091 471.964 281.1 471.734H281.1Z" fill="white"/>
    <path d="M247.376 472.211C247.386 471.985 247.403 471.363 246.969 470.786C246.395 470.022 245.503 469.968 245.39 469.963C244.749 469.934 244.276 470.214 244.074 470.356C243.961 470.435 243.225 470.97 243.146 471.952C243.132 472.123 243.092 472.878 243.65 473.509C244.193 474.123 244.915 474.182 245.132 474.2C245.366 474.219 246.099 474.28 246.704 473.76C247.333 473.218 247.366 472.441 247.376 472.211H247.376Z" fill="white"/>
    <path d="M225.113 481.6L225.422 481.477C225.602 481.378 226.009 481.124 226.299 480.619C226.621 480.058 226.607 479.521 226.592 479.319C226.524 477.621 226.188 474.918 224.759 471.992C223.942 470.319 222.985 469.019 222.158 468.067C221.978 467.851 221.571 467.42 220.96 467.203C220.767 467.135 220.469 467.032 220.09 467.089C219.97 467.106 219.851 467.138 219.734 467.185L219.425 467.308C219.388 467.318 218.739 467.509 218.548 468.166C218.418 468.612 218.55 469.098 218.888 469.424C219.782 470.494 220.966 472.158 221.864 474.425C222.856 476.932 223.097 479.161 223.141 480.623C223.158 480.7 223.299 481.287 223.887 481.582C224.483 481.881 225.043 481.632 225.113 481.6L225.113 481.6Z" fill="#DB8282"/>
    <path d="M216.135 466.36C216.794 467.067 217.9 467.105 218.605 466.445C219.31 465.785 219.348 464.677 218.689 463.97L218.373 463.631C217.714 462.925 216.608 462.887 215.903 463.547C215.197 464.207 215.16 465.315 215.818 466.021L216.135 466.36Z" fill="#DB8282"/>
    <path d="M304.376 482.801L304.065 482.683C303.882 482.588 303.471 482.342 303.172 481.842C302.839 481.287 302.843 480.75 302.854 480.548C302.89 478.849 303.175 476.14 304.549 473.187C305.334 471.499 306.266 470.182 307.075 469.214C307.251 468.995 307.65 468.556 308.257 468.328C308.448 468.256 308.744 468.147 309.125 468.197C309.245 468.212 309.364 468.242 309.482 468.286L309.793 468.404C309.831 468.413 310.483 468.591 310.686 469.245C310.825 469.688 310.702 470.177 310.37 470.509C309.496 471.596 308.344 473.282 307.489 475.566C306.544 478.091 306.345 480.324 306.329 481.787C306.313 481.864 306.184 482.453 305.601 482.759C305.011 483.069 304.446 482.832 304.376 482.801V482.801Z" fill="#DB8282"/>
    <path d="M313.375 467.049C314.02 466.33 313.962 465.223 313.244 464.576C312.527 463.93 311.421 463.989 310.776 464.707L310.466 465.052C309.821 465.771 309.879 466.878 310.597 467.525C311.314 468.171 312.42 468.113 313.065 467.394L313.375 467.049Z" fill="#DB8282"/>
    <path d="M190.425 486.673C190.425 486.674 190.749 487.398 191.129 488.11C193.08 491.771 195.559 494.045 195.559 494.045C196.09 494.532 199.05 497.191 202.99 498.244C204.635 498.683 206.221 498.782 206.383 498.791C206.71 498.81 207.719 498.859 209.037 498.735C209.363 498.705 210.754 498.565 212.655 498.031C213.144 497.893 214.587 497.47 216.664 496.511C218.733 495.555 221.437 494.306 223.865 491.913C224.981 490.812 225.647 489.869 225.903 489.49C226.531 488.56 226.953 487.707 227.232 487.062C225.64 488.747 222.069 492.062 216.456 493.678C209.384 495.715 203.526 493.774 201.235 492.979C195.42 490.961 191.715 487.433 189.918 485.449C190.045 485.782 190.213 486.199 190.425 486.673L190.425 486.673Z" fill="#B23030"/>
    <path d="M252.588 503.489C252.721 503.35 257.649 510.967 264.469 510.863C271.123 510.762 275.722 503.368 275.841 503.489C275.962 503.614 271.665 511.798 264.367 511.88C256.958 511.963 252.454 503.63 252.588 503.489Z" fill="#5E1111"/>
    <path d="M416.324 328.013C417.494 328.626 419.283 329.568 421.48 330.75C424.442 332.342 425.534 332.963 425.74 334.105C425.802 334.443 425.788 334.845 424.903 336.797C423.637 339.589 422.817 340.843 422.817 340.843C422.035 342.051 417.113 349.65 416.133 349.113C415.991 349.035 415.756 348.69 418.381 340.373C419.061 338.218 419.646 336.438 420.055 335.208C419.051 334.757 417.986 334.227 416.882 333.604C415.169 332.638 413.684 331.627 412.417 330.662L416.324 328.013V328.013Z" fill="#B23030"/>
    <path d="M366.656 328.186C365.487 328.799 363.698 329.741 361.5 330.923C358.538 332.515 357.447 333.136 357.24 334.277C357.179 334.616 357.192 335.018 358.078 336.97C359.344 339.762 360.163 341.016 360.164 341.016C360.946 342.224 365.868 349.822 366.847 349.285C366.989 349.208 367.225 348.863 364.6 340.545C363.92 338.391 363.335 336.611 362.925 335.381C363.93 334.93 364.994 334.4 366.098 333.777C367.811 332.81 369.297 331.8 370.564 330.834L366.656 328.186V328.186Z" fill="#B23030"/>
    <path d="M425.299 321.831C428.394 322.342 430.665 322.708 431.848 322.898C435.972 323.561 437.255 323.819 437.909 324.92C438.288 325.557 438.324 326.264 437.787 328.958C437.144 332.189 436.822 333.805 435.996 335.94C434.626 339.479 432.023 344.642 431.175 344.345C430.48 344.101 431.195 340.27 432.323 334.226C432.862 331.34 433.381 328.977 433.747 327.387C432.069 327.311 430.307 327.186 428.472 326.997C426.201 326.763 424.058 326.458 422.053 326.108L425.299 321.831H425.299Z" fill="#B23030"/>
    <path d="M356.166 321.694C353.071 322.205 350.8 322.572 349.617 322.762C345.494 323.425 344.211 323.683 343.556 324.783C343.177 325.421 343.142 326.127 343.678 328.822C344.322 332.053 344.643 333.668 345.47 335.804C346.84 339.343 349.442 344.506 350.29 344.208C350.986 343.964 350.271 340.134 349.142 334.09C348.604 331.204 348.084 328.841 347.718 327.25C349.397 327.175 351.158 327.049 352.994 326.861C355.265 326.627 357.408 326.322 359.412 325.972L356.166 321.694H356.166Z" fill="#B23030"/>
    <path d="M429.299 313.743C432.16 312.456 434.256 311.505 435.346 311.009C439.149 309.28 440.361 308.785 441.513 309.34C442.181 309.662 442.6 310.231 443.639 312.774C444.779 315.563 445.471 317.071 445.996 319.585C446.495 321.973 447.235 326.946 446.345 327.214C445.469 327.479 443.373 323.085 441.99 320.189C440.819 317.735 439.998 315.651 439.478 314.243C437.946 314.885 436.383 315.567 434.792 316.294C432.764 317.221 430.817 318.161 428.952 319.105C429.068 317.318 429.183 315.53 429.299 313.743V313.743Z" fill="#B23030"/>
    <path d="M352.115 313.835C349.253 312.548 347.158 311.597 346.067 311.101C342.265 309.372 341.053 308.877 339.9 309.432C339.232 309.754 338.813 310.323 337.774 312.866C336.635 315.655 335.942 317.163 335.417 319.677C334.918 322.064 334.179 327.037 335.069 327.306C335.944 327.571 338.041 323.177 339.423 320.281C340.595 317.827 341.415 315.743 341.935 314.335C343.467 314.976 345.03 315.659 346.621 316.386C348.65 317.313 350.597 318.253 352.461 319.197C352.346 317.41 352.23 315.622 352.115 313.835V313.835Z" fill="#B23030"/>
    <path d="M437.016 276.38C436.503 278.19 435.446 280.877 433.182 283.321C431.216 285.442 429.021 286.647 427.856 287.275C426.957 287.76 426.168 288.107 425.584 288.344L428.442 291.795C429.251 291.585 430.358 291.231 431.59 290.611C434.624 289.084 436.36 286.979 437.135 286.019C439.445 283.158 440.377 280.227 440.781 278.48L437.016 276.38V276.38Z" fill="#B23030"/>
    <path d="M344.419 274.789C344.931 276.599 345.989 279.286 348.253 281.729C350.218 283.851 352.414 285.056 353.579 285.683C354.478 286.168 355.267 286.516 355.851 286.753L352.993 290.204C352.184 289.994 351.076 289.639 349.845 289.02C346.811 287.493 345.074 285.387 344.3 284.427C341.99 281.566 341.058 278.635 340.654 276.889L344.419 274.789V274.789Z" fill="#C13838"/>
    <path d="M344.419 274.789C344.931 276.599 345.989 279.286 348.253 281.729C350.218 283.851 352.414 285.056 353.579 285.683C354.478 286.168 355.267 286.516 355.851 286.753L352.993 290.204C352.184 289.994 351.076 289.639 349.845 289.02C346.811 287.493 345.074 285.387 344.3 284.427C341.99 281.566 341.058 278.635 340.654 276.889L344.419 274.789V274.789Z" fill="#B23030"/>
    <path d="M316.418 267.005C317.149 268.601 320.697 276.342 328.983 278.575C335.122 280.229 340.302 277.901 342.657 276.842C345.177 275.709 350.623 273.262 353.25 267.393C356.568 259.98 352.941 252.581 351.836 250.328C348.005 242.515 341.065 239.258 338.885 238.34C338.526 241.508 337.897 245.158 336.809 249.131C335.914 252.4 334.866 255.308 333.809 257.831C331.185 257.091 328.157 256.041 324.907 254.528C321.311 252.853 318.311 251.015 315.905 249.326C315.287 251 312.632 258.743 316.418 267.005Z" fill="#C13838"/>
    <path d="M465.017 268.596C464.286 270.192 460.738 277.934 452.452 280.166C446.313 281.82 441.133 279.492 438.778 278.434C436.257 277.301 430.812 274.854 428.185 268.984C424.867 261.571 428.494 254.173 429.599 251.92C433.429 244.106 440.369 240.85 442.55 239.931C442.909 243.099 443.537 246.749 444.626 250.722C445.521 253.991 446.569 256.9 447.626 259.422C450.25 258.682 453.278 257.632 456.527 256.119C460.123 254.445 463.124 252.606 465.53 250.918C466.148 252.592 468.803 260.334 465.017 268.596L465.017 268.596Z" fill="#C13838"/>
    <path d="M465.017 268.596C465.017 268.596 464.693 269.321 464.313 270.033C462.362 273.694 459.883 275.968 459.882 275.968C459.351 276.455 456.392 279.114 452.452 280.166C450.807 280.606 449.221 280.704 449.059 280.714C448.732 280.733 447.723 280.781 446.405 280.658C446.079 280.627 444.688 280.488 442.787 279.954C442.298 279.816 440.855 279.393 438.778 278.434C436.709 277.478 434.005 276.229 431.577 273.836C430.452 272.727 429.766 271.746 429.539 271.413C428.908 270.486 428.475 269.636 428.185 268.984C429.781 270.671 433.361 273.986 438.986 275.601C446.067 277.635 451.928 275.693 454.207 274.902C460.022 272.884 463.727 269.356 465.523 267.372C465.397 267.705 465.229 268.122 465.017 268.596V268.596Z" fill="#B23030"/>
    <path d="M388.552 255.087C388.524 256.592 388.386 260.734 385.271 264.388C381.146 269.228 375.199 269.226 374.449 269.214C370.175 269.141 367.149 267.093 365.861 266.067C365.144 265.495 360.475 261.644 360.345 255.087C360.322 253.944 360.362 248.911 364.325 244.946C368.179 241.09 373 240.99 374.449 240.96C376.012 240.928 380.906 240.826 384.712 244.527C388.677 248.381 388.581 253.559 388.552 255.087V255.087Z" fill="#C13838"/>
    <path d="M394.231 254.692C394.259 256.197 394.398 260.339 397.512 263.994C401.637 268.833 407.584 268.832 408.335 268.819C412.608 268.746 415.634 266.699 416.923 265.672C417.639 265.101 422.308 261.249 422.438 254.692C422.461 253.549 422.421 248.516 418.459 244.552C414.604 240.695 409.783 240.595 408.335 240.565C406.771 240.533 401.877 240.431 398.071 244.132C394.107 247.986 394.202 253.164 394.231 254.692V254.692Z" fill="#C13838"/>
    <path d="M434.334 305.337C434.297 306.551 433.943 314.634 428.353 321.778C417.599 335.52 396.06 334.814 389.207 334.589C382.806 334.379 362.035 333.698 351.863 319.78C350.759 318.27 346.981 312.956 346.607 305.337C346.093 294.88 352.35 287.418 354.304 285.291C364.422 274.278 380.473 274.28 389.559 274.281C397.339 274.282 419.153 274.284 429.222 288.413C434.508 295.832 434.372 304.078 434.334 305.337V305.337Z" fill="#C13838"/>
    <path d="M372.624 268.647C372.77 269.973 372.844 271.564 372.725 273.354C372.586 275.438 372.222 277.232 371.828 278.666L377.609 278.641C377.21 277.196 376.84 275.492 376.607 273.565C376.384 271.718 376.332 270.042 376.366 268.591L372.624 268.647L372.624 268.647Z" fill="#C13838"/>
    <path d="M410.29 268.346C410.144 269.672 410.07 271.263 410.189 273.053C410.328 275.137 410.692 276.932 411.086 278.366L405.305 278.341C405.704 276.896 406.074 275.191 406.307 273.264C406.53 271.418 406.582 269.742 406.548 268.291L410.29 268.346L410.29 268.346Z" fill="#C13838"/>
    <path d="M434.334 305.337C434.293 306.752 433.955 314.57 428.353 321.778C421.366 330.767 410.907 332.74 405.245 333.808C399.862 334.824 395.012 334.717 389.207 334.589C388.709 334.578 383.064 334.438 377.71 333.557C374.877 333.091 372.243 332.437 370.924 332.048C370.178 331.828 369.285 331.548 369.285 331.547C368.229 331.216 367.144 330.858 366.635 330.679C364.326 329.865 363.15 329.189 362.544 328.791C362.516 328.773 362.243 328.581 362.241 328.579C364.754 329.359 368.394 330.258 372.866 330.57C375.73 330.77 377.907 330.657 379.476 330.57C380.027 330.54 386.746 330.141 392.835 328.472C407.677 324.403 416.853 314.625 416.853 314.625C426.279 304.58 428.563 293.083 429.222 288.413C430.637 290.43 434.587 296.613 434.334 305.337L434.334 305.337Z" fill="#B23030"/>
    <path d="M412.558 244.907C411.45 244.449 408.378 243.233 404.716 244.355C399.866 245.84 397.975 250.202 397.746 250.756C396.439 253.913 396.973 256.783 397.314 258.055C397.503 258.763 398.833 263.412 403.585 265.593C404.413 265.973 408.104 267.545 412.263 265.901C416.308 264.301 417.915 260.797 418.398 259.744C418.919 258.608 420.55 255.051 419.056 251.083C417.5 246.95 413.684 245.373 412.558 244.907Z" fill="white"/>
    <path d="M385.849 256.642C385.951 255.444 386.182 252.144 384.009 248.985C381.133 244.802 376.41 244.312 375.814 244.26C372.414 243.965 369.844 245.34 368.736 246.049C368.119 246.443 364.095 249.116 363.452 254.311C363.34 255.217 362.957 259.216 365.777 262.692C368.52 266.072 372.34 266.55 373.487 266.693C374.727 266.848 378.604 267.333 381.93 264.709C385.395 261.976 385.746 257.857 385.849 256.642Z" fill="white"/>
    <path d="M410.337 249.853C409.734 249.604 408.065 248.943 406.074 249.552C403.439 250.36 402.411 252.73 402.286 253.031C401.576 254.747 401.867 256.307 402.052 256.998C402.155 257.383 402.878 259.91 405.46 261.095C405.91 261.302 407.916 262.156 410.176 261.262C412.375 260.393 413.248 258.489 413.51 257.916C413.794 257.299 414.68 255.366 413.868 253.209C413.022 250.963 410.949 250.106 410.337 249.853V249.853Z" fill="#5E1111"/>
    <path d="M376.797 250.136C376.194 249.887 374.525 249.226 372.534 249.836C369.899 250.643 368.871 253.014 368.746 253.315C368.036 255.031 368.327 256.591 368.512 257.282C368.615 257.666 369.338 260.193 371.92 261.378C372.37 261.585 374.376 262.439 376.636 261.546C378.835 260.676 379.708 258.772 379.97 258.2C380.254 257.582 381.14 255.649 380.328 253.492C379.482 251.246 377.409 250.389 376.797 250.136V250.136Z" fill="#5E1111"/>
    <path d="M407.101 252.1C407.111 251.874 407.128 251.252 406.694 250.675C406.12 249.912 405.228 249.857 405.115 249.852C404.474 249.824 404.001 250.103 403.798 250.245C403.686 250.324 402.95 250.859 402.871 251.841C402.857 252.012 402.817 252.767 403.375 253.398C403.917 254.012 404.639 254.072 404.856 254.089C405.091 254.109 405.824 254.169 406.428 253.649C407.058 253.107 407.091 252.33 407.101 252.1H407.101Z" fill="white"/>
    <path d="M373.377 252.577C373.386 252.351 373.404 251.729 372.97 251.152C372.396 250.388 371.504 250.334 371.391 250.329C370.749 250.3 370.277 250.58 370.074 250.722C369.962 250.801 369.226 251.336 369.146 252.318C369.133 252.489 369.092 253.244 369.65 253.875C370.193 254.489 370.915 254.548 371.132 254.566C371.366 254.585 372.099 254.645 372.704 254.125C373.334 253.584 373.367 252.806 373.377 252.577H373.377Z" fill="white"/>
    <path d="M351.113 261.966L351.422 261.843C351.603 261.744 352.009 261.49 352.299 260.985C352.621 260.424 352.608 259.887 352.592 259.685C352.524 257.987 352.189 255.284 350.759 252.358C349.942 250.685 348.985 249.385 348.159 248.433C347.979 248.217 347.571 247.786 346.96 247.569C346.768 247.501 346.469 247.398 346.09 247.455C345.971 247.472 345.851 247.504 345.734 247.551L345.426 247.674C345.388 247.684 344.74 247.875 344.549 248.532C344.419 248.978 344.55 249.464 344.889 249.79C345.783 250.86 346.967 252.524 347.864 254.791C348.857 257.298 349.098 259.527 349.142 260.989C349.159 261.066 349.299 261.653 349.888 261.948C350.483 262.247 351.044 261.998 351.113 261.966L351.113 261.966Z" fill="#DB8282"/>
    <path d="M342.135 246.726C342.794 247.433 343.9 247.471 344.606 246.811C345.311 246.151 345.349 245.043 344.69 244.336L344.373 243.997C343.715 243.291 342.609 243.253 341.903 243.913C341.198 244.573 341.16 245.681 341.819 246.387L342.135 246.726Z" fill="#DB8282"/>
    <path d="M430.376 263.167L430.065 263.049C429.883 262.954 429.472 262.708 429.172 262.208C428.84 261.653 428.843 261.116 428.855 260.914C428.891 259.215 429.175 256.506 430.549 253.553C431.335 251.865 432.267 250.547 433.075 249.58C433.252 249.361 433.651 248.922 434.258 248.694C434.448 248.622 434.745 248.513 435.125 248.563C435.245 248.578 435.365 248.608 435.483 248.652L435.794 248.77C435.831 248.779 436.483 248.957 436.687 249.611C436.825 250.054 436.703 250.543 436.371 250.875C435.497 251.962 434.344 253.648 433.49 255.932C432.545 258.457 432.346 260.69 432.329 262.153C432.314 262.23 432.184 262.819 431.601 263.125C431.012 263.435 430.447 263.198 430.376 263.167V263.167Z" fill="#DB8282"/>
    <path d="M439.376 247.415C440.021 246.696 439.963 245.589 439.245 244.942C438.527 244.296 437.422 244.354 436.776 245.073L436.467 245.418C435.821 246.137 435.88 247.244 436.597 247.891C437.315 248.537 438.42 248.479 439.066 247.76L439.376 247.415Z" fill="#DB8282"/>
    <path d="M316.425 267.039C316.426 267.04 316.75 267.764 317.129 268.476C319.081 272.137 321.56 274.411 321.56 274.411C322.091 274.898 325.051 277.557 328.991 278.61C330.635 279.049 332.222 279.148 332.383 279.157C332.71 279.176 333.719 279.225 335.038 279.101C335.364 279.07 336.755 278.931 338.656 278.397C339.145 278.259 340.588 277.836 342.665 276.877C344.734 275.921 347.437 274.672 349.865 272.279C350.982 271.178 351.648 270.235 351.903 269.856C352.531 268.926 352.954 268.073 353.232 267.427C351.641 269.113 348.07 272.428 342.456 274.044C335.384 276.081 329.526 274.14 327.235 273.345C321.421 271.327 317.715 267.799 315.919 265.815C316.046 266.148 316.213 266.565 316.425 267.039L316.425 267.039Z" fill="#B23030"/>
    <path d="M378.589 283.855C378.721 283.716 383.649 291.333 390.469 291.229C397.124 291.128 401.723 283.733 401.842 283.855C401.963 283.98 397.666 292.164 390.368 292.246C382.959 292.329 378.455 283.996 378.589 283.855Z" fill="#5E1111"/>
    <path d="M874.088 492.161C875.258 492.773 877.046 493.716 879.244 494.897C882.206 496.49 883.297 497.111 883.504 498.252C883.565 498.59 883.552 498.993 882.667 500.945C881.401 503.736 880.581 504.991 880.581 504.991C879.798 506.199 874.876 513.797 873.897 513.26C873.755 513.182 873.519 512.837 876.144 504.52C876.824 502.366 877.409 500.585 877.819 499.356C876.814 498.904 875.75 498.375 874.646 497.752C872.933 496.785 871.447 495.775 870.18 494.809L874.088 492.161V492.161Z" fill="#B23030"/>
    <path d="M824.42 492.333C823.25 492.946 821.462 493.889 819.264 495.07C816.302 496.662 815.21 497.283 815.004 498.425C814.943 498.763 814.956 499.165 815.841 501.117C817.107 503.909 817.927 505.164 817.927 505.164C818.709 506.371 823.631 513.97 824.611 513.433C824.753 513.355 824.989 513.01 822.363 504.693C821.683 502.538 821.098 500.758 820.689 499.528C821.693 499.077 822.758 498.548 823.862 497.925C825.575 496.958 827.061 495.948 828.327 494.982L824.42 492.333V492.333Z" fill="#B23030"/>
    <path d="M883.063 485.978C886.158 486.489 888.429 486.856 889.612 487.046C893.735 487.708 895.018 487.966 895.673 489.067C896.052 489.705 896.087 490.411 895.551 493.106C894.907 496.337 894.586 497.952 893.759 500.087C892.389 503.627 889.787 508.79 888.939 508.492C888.243 508.248 888.958 504.418 890.087 498.374C890.625 495.488 891.144 493.125 891.51 491.534C889.832 491.458 888.071 491.333 886.235 491.144C883.964 490.911 881.821 490.605 879.817 490.256L883.063 485.978H883.063Z" fill="#B23030"/>
    <path d="M813.93 485.842C810.835 486.353 808.564 486.719 807.381 486.909C803.257 487.572 801.974 487.83 801.32 488.931C800.941 489.569 800.905 490.275 801.442 492.969C802.085 496.2 802.407 497.816 803.233 499.951C804.603 503.491 807.206 508.653 808.054 508.356C808.749 508.112 808.034 504.281 806.906 498.238C806.367 495.352 805.848 492.988 805.482 491.398C807.16 491.322 808.922 491.197 810.757 491.008C813.028 490.775 815.171 490.469 817.176 490.12L813.93 485.842H813.93Z" fill="#B23030"/>
    <path d="M887.062 477.89C889.924 476.604 892.019 475.653 893.11 475.157C896.912 473.427 898.124 472.932 899.277 473.488C899.945 473.809 900.364 474.378 901.403 476.921C902.542 479.711 903.235 481.219 903.76 483.732C904.259 486.12 904.998 491.093 904.108 491.362C903.233 491.626 901.136 487.233 899.754 484.336C898.582 481.882 897.762 479.798 897.242 478.39C895.71 479.032 894.147 479.715 892.556 480.441C890.527 481.368 888.58 482.308 886.716 483.252C886.831 481.465 886.947 479.678 887.062 477.89V477.89Z" fill="#B23030"/>
    <path d="M809.878 477.982C807.017 476.696 804.921 475.745 803.831 475.248C800.028 473.519 798.816 473.024 797.664 473.58C796.996 473.901 796.577 474.47 795.538 477.013C794.398 479.803 793.706 481.311 793.181 483.824C792.682 486.212 791.942 491.185 792.832 491.454C793.708 491.718 795.804 487.325 797.187 484.428C798.358 481.974 799.179 479.89 799.699 478.482C801.231 479.124 802.794 479.807 804.385 480.533C806.413 481.46 808.36 482.4 810.225 483.344C810.109 481.557 809.994 479.77 809.878 477.982V477.982Z" fill="#B23030"/>
    <path d="M894.78 440.528C894.267 442.338 893.21 445.024 890.945 447.468C888.98 449.589 886.785 450.794 885.62 451.422C884.72 451.907 883.932 452.255 883.347 452.492L886.206 455.943C887.014 455.733 888.122 455.378 889.354 454.759C892.387 453.232 894.124 451.126 894.899 450.166C897.209 447.305 898.141 444.374 898.545 442.628L894.78 440.528V440.528Z" fill="#B23030"/>
    <path d="M802.182 438.936C802.695 440.746 803.752 443.433 806.017 445.877C807.982 447.998 810.177 449.203 811.342 449.831C812.242 450.316 813.031 450.663 813.615 450.9L810.756 454.351C809.948 454.141 808.84 453.787 807.609 453.167C804.575 451.64 802.838 449.535 802.063 448.575C799.754 445.714 798.821 442.783 798.417 441.036L802.182 438.936V438.936Z" fill="#C13838"/>
    <path d="M802.182 438.936C802.695 440.746 803.752 443.433 806.017 445.877C807.982 447.998 810.177 449.203 811.342 449.831C812.242 450.316 813.031 450.663 813.615 450.9L810.756 454.351C809.948 454.141 808.84 453.787 807.609 453.167C804.575 451.64 802.838 449.535 802.063 448.575C799.754 445.714 798.821 442.783 798.417 441.036L802.182 438.936V438.936Z" fill="#B23030"/>
    <path d="M774.181 431.152C774.913 432.748 778.46 440.49 786.747 442.722C792.885 444.376 798.066 442.048 800.421 440.99C802.941 439.857 808.386 437.41 811.013 431.54C814.332 424.127 810.705 416.729 809.6 414.476C805.769 406.662 798.829 403.406 796.649 402.487C796.29 405.655 795.661 409.305 794.573 413.278C793.677 416.547 792.629 419.456 791.572 421.978C788.948 421.238 785.92 420.188 782.671 418.675C779.075 417.001 776.075 415.162 773.669 413.474C773.05 415.148 770.395 422.89 774.181 431.152Z" fill="#C13838"/>
    <path d="M922.781 432.744C922.049 434.34 918.502 442.081 910.215 444.314C904.076 445.968 898.896 443.64 896.541 442.581C894.021 441.448 888.576 439.001 885.949 433.132C882.63 425.718 886.257 418.32 887.362 416.067C891.193 408.254 898.133 404.997 900.313 404.078C900.672 407.246 901.301 410.897 902.389 414.87C903.285 418.139 904.333 421.047 905.39 423.57C908.014 422.83 911.042 421.78 914.291 420.267C917.887 418.592 920.887 416.754 923.293 415.065C923.912 416.739 926.567 424.481 922.781 432.744L922.781 432.744Z" fill="#C13838"/>
    <path d="M922.781 432.744C922.781 432.744 922.456 433.468 922.077 434.18C920.125 437.841 917.646 440.115 917.646 440.116C917.115 440.603 914.155 443.261 910.215 444.314C908.571 444.753 906.985 444.852 906.823 444.861C906.496 444.88 905.487 444.929 904.168 444.805C903.842 444.775 902.451 444.636 900.551 444.101C900.061 443.963 898.618 443.541 896.541 442.581C894.472 441.625 891.769 440.376 889.341 437.983C888.216 436.874 887.529 435.894 887.303 435.561C886.671 434.634 886.239 433.783 885.949 433.132C887.545 434.818 891.125 438.133 896.75 439.749C903.831 441.782 909.692 439.84 911.971 439.049C917.785 437.032 921.491 433.503 923.287 431.519C923.16 431.852 922.993 432.27 922.781 432.744V432.744Z" fill="#B23030"/>
    <path d="M846.316 419.234C846.288 420.739 846.149 424.881 843.034 428.536C838.909 433.375 832.962 433.374 832.212 433.361C827.938 433.288 824.913 431.241 823.624 430.214C822.907 429.643 818.238 425.791 818.108 419.234C818.086 418.091 818.125 413.059 822.088 409.094C825.942 405.237 830.763 405.137 832.212 405.107C833.776 405.075 838.67 404.974 842.476 408.674C846.44 412.528 846.344 417.706 846.316 419.234V419.234Z" fill="#C13838"/>
    <path d="M851.994 418.84C852.022 420.344 852.161 424.487 855.276 428.141C859.401 432.981 865.348 432.979 866.098 432.966C870.372 432.894 873.397 430.846 874.686 429.819C875.403 429.248 880.072 425.396 880.202 418.84C880.225 417.697 880.185 412.664 876.222 408.699C872.368 404.843 867.547 404.743 866.098 404.713C864.534 404.68 859.641 404.579 855.835 408.279C851.87 412.134 851.966 417.312 851.994 418.84V418.84Z" fill="#C13838"/>
    <path d="M892.097 469.484C892.061 470.699 891.707 478.781 886.116 485.925C875.363 499.667 853.823 498.961 846.971 498.737C840.569 498.527 819.799 497.846 809.626 483.928C808.522 482.418 804.745 477.104 804.37 469.484C803.857 459.027 810.113 451.565 812.068 449.438C822.186 438.426 838.237 438.427 847.323 438.428C855.103 438.429 876.917 438.431 886.985 452.561C892.272 459.979 892.135 468.226 892.097 469.484V469.484Z" fill="#C13838"/>
    <path d="M830.388 432.794C830.533 434.12 830.608 435.711 830.489 437.501C830.35 439.585 829.985 441.38 829.592 442.814L835.373 442.789C834.974 441.344 834.604 439.639 834.371 437.712C834.148 435.866 834.096 434.19 834.13 432.739L830.388 432.794L830.388 432.794Z" fill="#C13838"/>
    <path d="M868.054 432.493C867.908 433.82 867.833 435.411 867.953 437.201C868.091 439.285 868.456 441.079 868.85 442.513L863.068 442.488C863.468 441.043 863.838 439.339 864.071 437.412C864.294 435.565 864.346 433.889 864.312 432.438L868.054 432.493L868.054 432.493Z" fill="#C13838"/>
    <path d="M892.097 469.484C892.056 470.9 891.719 478.717 886.116 485.925C879.129 494.914 868.671 496.888 863.008 497.956C857.626 498.972 852.775 498.865 846.971 498.737C846.473 498.726 840.827 498.585 835.473 497.705C832.641 497.239 830.007 496.585 828.687 496.195C827.942 495.975 827.049 495.695 827.049 495.695C825.992 495.363 824.907 495.005 824.398 494.826C822.089 494.012 820.913 493.337 820.308 492.938C820.28 492.92 820.006 492.729 820.005 492.727C822.518 493.506 826.158 494.406 830.63 494.718C833.494 494.917 835.67 494.804 837.239 494.718C837.79 494.687 844.51 494.288 850.598 492.619C865.441 488.551 874.617 478.772 874.617 478.772C884.043 468.728 886.326 457.231 886.985 452.561C888.4 454.577 892.351 460.761 892.097 469.484L892.097 469.484Z" fill="#B23030"/>
    <path d="M870.322 409.055C869.213 408.596 866.141 407.381 862.479 408.502C857.629 409.988 855.738 414.349 855.509 414.903C854.203 418.061 854.737 420.931 855.077 422.203C855.267 422.91 856.597 427.559 861.348 429.741C862.177 430.121 865.868 431.693 870.027 430.048C874.072 428.448 875.678 424.945 876.161 423.892C876.682 422.755 878.313 419.199 876.819 415.23C875.263 411.097 871.448 409.52 870.322 409.055Z" fill="white"/>
    <path d="M843.613 420.789C843.714 419.592 843.945 416.292 841.773 413.133C838.896 408.949 834.174 408.459 833.577 408.407C830.178 408.112 827.607 409.488 826.499 410.197C825.883 410.591 821.859 413.264 821.216 418.459C821.104 419.365 820.721 423.364 823.541 426.839C826.284 430.22 830.103 430.697 831.251 430.841C832.49 430.996 836.367 431.48 839.694 428.857C843.159 426.124 843.509 422.005 843.613 420.789Z" fill="white"/>
    <path d="M868.1 414C867.498 413.751 865.828 413.09 863.838 413.7C861.202 414.507 860.175 416.878 860.05 417.179C859.34 418.895 859.63 420.455 859.815 421.146C859.918 421.53 860.641 424.057 863.223 425.243C863.674 425.449 865.68 426.304 867.94 425.41C870.138 424.54 871.012 422.636 871.274 422.064C871.557 421.446 872.444 419.513 871.632 417.357C870.786 415.11 868.712 414.253 868.1 414V414Z" fill="#5E1111"/>
    <path d="M834.56 414.284C833.958 414.034 832.288 413.374 830.298 413.983C827.662 414.791 826.635 417.161 826.51 417.462C825.8 419.178 826.09 420.738 826.275 421.429C826.378 421.814 827.101 424.34 829.683 425.526C830.134 425.733 832.14 426.587 834.4 425.693C836.598 424.824 837.472 422.919 837.734 422.347C838.017 421.73 838.904 419.797 838.092 417.64C837.246 415.393 835.172 414.536 834.56 414.284V414.284Z" fill="#5E1111"/>
    <path d="M864.865 416.248C864.874 416.022 864.891 415.399 864.458 414.823C863.883 414.059 862.991 414.005 862.879 414C862.237 413.971 861.765 414.25 861.562 414.393C861.449 414.472 860.714 415.006 860.634 415.989C860.62 416.16 860.58 416.915 861.138 417.546C861.681 418.16 862.403 418.219 862.62 418.237C862.854 418.256 863.587 418.316 864.192 417.796C864.822 417.255 864.855 416.477 864.865 416.248H864.865Z" fill="white"/>
    <path d="M831.14 416.725C831.15 416.499 831.167 415.876 830.733 415.299C830.159 414.536 829.267 414.481 829.155 414.476C828.513 414.448 828.041 414.727 827.838 414.869C827.725 414.948 826.99 415.483 826.91 416.465C826.896 416.636 826.856 417.392 827.414 418.023C827.957 418.636 828.679 418.696 828.896 418.714C829.13 418.733 829.863 418.793 830.468 418.273C831.098 417.731 831.131 416.954 831.14 416.725H831.14Z" fill="white"/>
    <path d="M808.877 426.114L809.186 425.99C809.366 425.892 809.773 425.638 810.063 425.133C810.385 424.571 810.371 424.034 810.356 423.832C810.288 422.135 809.952 419.432 808.523 416.505C807.706 414.832 806.749 413.532 805.923 412.58C805.742 412.365 805.335 411.933 804.724 411.716C804.532 411.648 804.233 411.546 803.854 411.602C803.734 411.62 803.615 411.652 803.498 411.698L803.189 411.822C803.152 411.832 802.504 412.022 802.312 412.679C802.182 413.125 802.314 413.611 802.652 413.938C803.547 415.008 804.73 416.671 805.628 418.939C806.62 421.445 806.862 423.675 806.905 425.137C806.922 425.214 807.063 425.8 807.651 426.095C808.247 426.394 808.807 426.146 808.877 426.114L808.877 426.114Z" fill="#DB8282"/>
    <path d="M799.899 410.874C800.558 411.58 801.664 411.618 802.369 410.958C803.075 410.298 803.112 409.19 802.453 408.484L802.137 408.145C801.478 407.438 800.372 407.4 799.667 408.06C798.961 408.72 798.924 409.828 799.583 410.535L799.899 410.874Z" fill="#DB8282"/>
    <path d="M888.14 427.314L887.829 427.197C887.647 427.102 887.235 426.855 886.936 426.356C886.603 425.801 886.607 425.264 886.618 425.061C886.654 423.363 886.939 420.654 888.313 417.701C889.099 416.013 890.031 414.695 890.839 413.727C891.015 413.508 891.414 413.069 892.021 412.841C892.212 412.769 892.509 412.661 892.889 412.71C893.009 412.726 893.129 412.755 893.246 412.8L893.557 412.917C893.595 412.927 894.247 413.105 894.45 413.758C894.589 414.202 894.466 414.69 894.134 415.023C893.26 416.109 892.108 417.795 891.253 420.079C890.308 422.604 890.109 424.838 890.093 426.3C890.077 426.377 889.948 426.967 889.365 427.273C888.775 427.583 888.21 427.345 888.14 427.314V427.314Z" fill="#DB8282"/>
    <path d="M897.139 411.562C897.785 410.843 897.726 409.737 897.008 409.09C896.291 408.443 895.186 408.502 894.54 409.221L894.23 409.566C893.585 410.285 893.643 411.392 894.361 412.038C895.079 412.685 896.184 412.626 896.829 411.907L897.139 411.562Z" fill="#DB8282"/>
    <path d="M774.189 431.187C774.189 431.187 774.513 431.912 774.893 432.623C776.845 436.285 779.324 438.559 779.324 438.559C779.855 439.046 782.814 441.704 786.754 442.757C788.399 443.196 789.985 443.295 790.147 443.304C790.474 443.323 791.483 443.372 792.802 443.248C793.128 443.218 794.518 443.079 796.419 442.544C796.909 442.407 798.351 441.984 800.428 441.024C802.498 440.068 805.201 438.819 807.629 436.426C808.745 435.325 809.411 434.383 809.667 434.004C810.295 433.073 810.717 432.22 810.996 431.575C809.404 433.26 805.833 436.575 800.22 438.192C793.148 440.229 787.29 438.287 784.999 437.492C779.184 435.475 775.479 431.946 773.683 429.962C773.809 430.295 773.977 430.713 774.189 431.187L774.189 431.187Z" fill="#B23030"/>
    <path d="M836.352 448.003C836.485 447.864 841.413 455.48 848.233 455.377C854.888 455.275 859.486 447.881 859.605 448.003C859.727 448.127 855.43 456.312 848.131 456.394C840.723 456.477 836.219 448.144 836.352 448.003Z" fill="#5E1111"/>
    <path d="M739.995 217.04C741.165 217.653 742.954 218.595 745.151 219.777C748.113 221.369 749.205 221.99 749.412 223.132C749.473 223.47 749.459 223.872 748.574 225.824C747.308 228.616 746.488 229.87 746.488 229.87C745.706 231.078 740.784 238.677 739.804 238.14C739.663 238.062 739.427 237.717 742.052 229.4C742.732 227.245 743.317 225.465 743.727 224.235C742.722 223.784 741.657 223.254 740.554 222.631C738.841 221.665 737.355 220.654 736.088 219.689L739.995 217.04V217.04Z" fill="#B23030"/>
    <path d="M690.328 217.213C689.158 217.826 687.369 218.768 685.172 219.95C682.21 221.542 681.118 222.163 680.911 223.304C680.85 223.643 680.864 224.045 681.749 225.997C683.015 228.789 683.835 230.043 683.835 230.043C684.617 231.251 689.539 238.849 690.519 238.312C690.66 238.235 690.896 237.89 688.271 229.572C687.591 227.418 687.006 225.638 686.596 224.408C687.601 223.957 688.666 223.427 689.769 222.804C691.482 221.837 692.968 220.827 694.235 219.861L690.328 217.213V217.213Z" fill="#B23030"/>
    <path d="M748.971 210.858C752.065 211.369 754.337 211.735 755.519 211.925C759.643 212.588 760.926 212.846 761.58 213.947C761.96 214.584 761.995 215.291 761.458 217.985C760.815 221.216 760.493 222.832 759.667 224.967C758.297 228.506 755.694 233.669 754.846 233.372C754.151 233.128 754.866 229.297 755.994 223.253C756.533 220.367 757.052 218.004 757.418 216.414C755.74 216.338 753.978 216.213 752.143 216.024C749.872 215.79 747.729 215.485 745.724 215.135L748.971 210.858H748.971Z" fill="#B23030"/>
    <path d="M679.837 210.721C676.742 211.232 674.471 211.599 673.288 211.789C669.165 212.452 667.882 212.71 667.227 213.81C666.848 214.448 666.813 215.154 667.349 217.849C667.993 221.08 668.315 222.695 669.141 224.831C670.511 228.37 673.113 233.533 673.962 233.235C674.657 232.991 673.942 229.161 672.814 223.117C672.275 220.231 671.756 217.868 671.39 216.277C673.068 216.202 674.829 216.076 676.665 215.888C678.936 215.654 681.079 215.349 683.083 214.999L679.837 210.721H679.837Z" fill="#B23030"/>
    <path d="M752.97 202.77C755.831 201.483 757.927 200.532 759.017 200.036C762.82 198.307 764.032 197.812 765.185 198.367C765.852 198.689 766.271 199.258 767.31 201.801C768.45 204.59 769.142 206.098 769.668 208.612C770.166 211 770.906 215.973 770.016 216.241C769.141 216.506 767.044 212.112 765.661 209.216C764.49 206.762 763.669 204.678 763.149 203.27C761.617 203.911 760.054 204.594 758.464 205.321C756.435 206.248 754.488 207.188 752.623 208.132C752.739 206.345 752.854 204.557 752.97 202.77V202.77Z" fill="#B23030"/>
    <path d="M675.786 202.862C672.924 201.575 670.829 200.624 669.738 200.128C665.936 198.399 664.724 197.904 663.571 198.459C662.903 198.781 662.484 199.35 661.446 201.893C660.306 204.682 659.613 206.19 659.088 208.704C658.589 211.091 657.85 216.065 658.74 216.333C659.615 216.598 661.712 212.204 663.095 209.308C664.266 206.854 665.087 204.77 665.607 203.362C667.139 204.003 668.702 204.686 670.292 205.413C672.321 206.34 674.268 207.28 676.132 208.224C676.017 206.437 675.901 204.649 675.786 202.862V202.862Z" fill="#B23030"/>
    <path d="M760.687 165.407C760.175 167.217 759.117 169.904 756.853 172.348C754.888 174.469 752.692 175.674 751.527 176.302C750.628 176.787 749.839 177.134 749.255 177.371L752.114 180.822C752.922 180.612 754.03 180.258 755.261 179.638C758.295 178.111 760.032 176.006 760.806 175.046C763.116 172.185 764.048 169.254 764.452 167.507L760.687 165.407V165.407Z" fill="#B23030"/>
    <path d="M668.09 163.816C668.603 165.626 669.66 168.313 671.924 170.756C673.89 172.878 676.085 174.082 677.25 174.71C678.149 175.195 678.938 175.543 679.522 175.78L676.664 179.231C675.855 179.021 674.748 178.666 673.516 178.047C670.482 176.52 668.746 174.414 667.971 173.454C665.661 170.593 664.729 167.662 664.325 165.916L668.09 163.816V163.816Z" fill="#C13838"/>
    <path d="M668.09 163.816C668.603 165.626 669.66 168.313 671.924 170.756C673.89 172.878 676.085 174.082 677.25 174.71C678.149 175.195 678.938 175.543 679.522 175.78L676.664 179.231C675.855 179.021 674.748 178.666 673.516 178.047C670.482 176.52 668.746 174.414 667.971 173.454C665.661 170.593 664.729 167.662 664.325 165.916L668.09 163.816V163.816Z" fill="#B23030"/>
    <path d="M640.089 156.032C640.82 157.628 644.368 165.369 652.654 167.602C658.793 169.256 663.973 166.928 666.328 165.869C668.849 164.736 674.294 162.289 676.921 156.42C680.239 149.007 676.612 141.608 675.507 139.355C671.677 131.542 664.737 128.285 662.556 127.367C662.197 130.535 661.569 134.185 660.48 138.158C659.585 141.427 658.537 144.335 657.48 146.858C654.856 146.118 651.828 145.068 648.579 143.555C644.983 141.88 641.982 140.042 639.576 138.353C638.958 140.027 636.303 147.77 640.089 156.032Z" fill="#C13838"/>
    <path d="M788.688 157.623C787.957 159.219 784.409 166.961 776.123 169.193C769.984 170.847 764.804 168.519 762.449 167.461C759.929 166.328 754.483 163.88 751.856 158.011C748.538 150.598 752.165 143.2 753.27 140.947C757.101 133.133 764.041 129.877 766.221 128.958C766.58 132.126 767.208 135.776 768.297 139.749C769.192 143.018 770.24 145.927 771.297 148.449C773.921 147.709 776.949 146.659 780.198 145.146C783.795 143.472 786.795 141.633 789.201 139.945C789.819 141.619 792.474 149.361 788.688 157.623L788.688 157.623Z" fill="#C13838"/>
    <path d="M788.688 157.623C788.688 157.623 788.364 158.348 787.984 159.06C786.033 162.721 783.554 164.995 783.554 164.995C783.023 165.482 780.063 168.14 776.123 169.193C774.479 169.633 772.892 169.731 772.731 169.741C772.403 169.76 771.394 169.808 770.076 169.685C769.75 169.654 768.359 169.515 766.458 168.981C765.969 168.843 764.526 168.42 762.449 167.461C760.38 166.505 757.677 165.256 755.249 162.862C754.124 161.754 753.437 160.773 753.21 160.44C752.579 159.513 752.147 158.663 751.856 158.011C753.452 159.698 757.033 163.013 762.657 164.628C769.739 166.661 775.599 164.72 777.878 163.929C783.693 161.911 787.398 158.383 789.195 156.398C789.068 156.732 788.901 157.149 788.688 157.623V157.623Z" fill="#B23030"/>
    <path d="M712.224 144.114C712.196 145.619 712.057 149.761 708.942 153.415C704.817 158.255 698.87 158.254 698.12 158.241C693.846 158.168 690.82 156.12 689.532 155.094C688.815 154.522 684.146 150.671 684.016 144.114C683.993 142.971 684.033 137.938 687.996 133.973C691.85 130.117 696.671 130.017 698.12 129.987C699.684 129.955 704.577 129.853 708.383 133.554C712.348 137.408 712.252 142.586 712.224 144.114V144.114Z" fill="#C13838"/>
    <path d="M717.902 143.719C717.93 145.224 718.069 149.366 721.184 153.02C725.309 157.86 731.256 157.859 732.006 157.846C736.28 157.773 739.305 155.726 740.594 154.699C741.311 154.128 745.979 150.276 746.11 143.719C746.132 142.576 746.093 137.543 742.13 133.579C738.275 129.722 733.455 129.622 732.006 129.592C730.442 129.56 725.548 129.458 721.742 133.159C717.778 137.013 717.874 142.191 717.902 143.719V143.719Z" fill="#C13838"/>
    <path d="M758.005 194.364C757.968 195.578 757.614 203.661 752.024 210.805C741.27 224.547 719.731 223.841 712.878 223.616C706.477 223.406 685.706 222.725 675.534 208.807C674.43 207.297 670.652 201.983 670.278 194.364C669.764 183.907 676.021 176.445 677.975 174.318C688.094 163.305 704.144 163.307 713.231 163.308C721.01 163.309 742.824 163.311 752.893 177.44C758.18 184.859 758.043 193.105 758.005 194.364V194.364Z" fill="#C13838"/>
    <path d="M696.295 157.674C696.441 159 696.516 160.591 696.396 162.381C696.257 164.465 695.893 166.26 695.499 167.693L701.281 167.669C700.881 166.223 700.511 164.519 700.278 162.592C700.055 160.745 700.003 159.069 700.037 157.618L696.295 157.674L696.295 157.674Z" fill="#C13838"/>
    <path d="M733.961 157.373C733.816 158.699 733.741 160.29 733.86 162.08C733.999 164.164 734.364 165.959 734.757 167.393L728.976 167.368C729.375 165.923 729.745 164.218 729.978 162.291C730.201 160.445 730.253 158.769 730.219 157.318L733.961 157.373L733.961 157.373Z" fill="#C13838"/>
    <path d="M758.005 194.364C757.964 195.779 757.627 203.597 752.024 210.805C745.037 219.793 734.578 221.767 728.916 222.835C723.533 223.851 718.683 223.744 712.878 223.616C712.381 223.605 706.735 223.465 701.381 222.584C698.549 222.118 695.915 221.464 694.595 221.075C693.849 220.855 692.956 220.574 692.956 220.574C691.9 220.243 690.815 219.885 690.306 219.706C687.997 218.892 686.821 218.216 686.215 217.818C686.188 217.799 685.914 217.608 685.912 217.606C688.426 218.386 692.065 219.285 696.537 219.597C699.401 219.797 701.578 219.684 703.147 219.597C703.698 219.567 710.418 219.168 716.506 217.499C731.348 213.43 740.524 203.652 740.524 203.652C749.95 193.607 752.234 182.11 752.893 177.44C754.308 179.457 758.258 185.64 758.005 194.364L758.005 194.364Z" fill="#B23030"/>
    <path d="M736.23 133.934C735.121 133.476 732.049 132.26 728.387 133.382C723.537 134.867 721.646 139.229 721.417 139.783C720.11 142.94 720.644 145.81 720.985 147.082C721.175 147.79 722.505 152.439 727.256 154.62C728.084 155 731.776 156.572 735.934 154.928C739.979 153.328 741.586 149.824 742.069 148.771C742.59 147.635 744.221 144.078 742.727 140.11C741.171 135.977 737.356 134.4 736.23 133.934Z" fill="white"/>
    <path d="M709.52 145.669C709.622 144.471 709.853 141.171 707.681 138.012C704.804 133.829 700.082 133.339 699.485 133.287C696.085 132.992 693.515 134.367 692.407 135.076C691.791 135.47 687.767 138.143 687.123 143.338C687.011 144.244 686.628 148.243 689.448 151.719C692.191 155.099 696.011 155.577 697.159 155.72C698.398 155.875 702.275 156.36 705.602 153.736C709.067 151.003 709.417 146.884 709.52 145.669Z" fill="white"/>
    <path d="M734.008 138.88C733.405 138.631 731.736 137.97 729.746 138.579C727.11 139.387 726.082 141.757 725.957 142.058C725.248 143.774 725.538 145.334 725.723 146.025C725.826 146.41 726.549 148.937 729.131 150.122C729.581 150.329 731.587 151.183 733.848 150.289C736.046 149.42 736.919 147.516 737.182 146.943C737.465 146.326 738.351 144.393 737.539 142.236C736.694 139.99 734.62 139.133 734.008 138.88V138.88Z" fill="#5E1111"/>
    <path d="M700.468 139.163C699.865 138.914 698.196 138.253 696.206 138.863C693.57 139.67 692.542 142.041 692.418 142.342C691.708 144.058 691.998 145.618 692.183 146.309C692.286 146.693 693.009 149.22 695.591 150.406C696.041 150.612 698.047 151.467 700.308 150.573C702.506 149.703 703.379 147.799 703.642 147.227C703.925 146.609 704.811 144.676 703.999 142.519C703.154 140.273 701.08 139.416 700.468 139.163V139.163Z" fill="#5E1111"/>
    <path d="M730.772 141.127C730.782 140.901 730.799 140.279 730.365 139.702C729.791 138.938 728.899 138.884 728.786 138.879C728.145 138.851 727.672 139.13 727.47 139.272C727.357 139.351 726.621 139.886 726.542 140.868C726.528 141.039 726.488 141.794 727.046 142.425C727.588 143.039 728.311 143.098 728.528 143.116C728.762 143.136 729.495 143.196 730.099 142.676C730.729 142.134 730.762 141.357 730.772 141.127H730.772Z" fill="white"/>
    <path d="M697.048 141.604C697.058 141.378 697.075 140.756 696.641 140.179C696.067 139.415 695.175 139.361 695.062 139.356C694.421 139.327 693.948 139.607 693.746 139.749C693.633 139.828 692.897 140.363 692.818 141.345C692.804 141.516 692.764 142.271 693.322 142.902C693.864 143.516 694.586 143.575 694.803 143.593C695.038 143.612 695.771 143.672 696.375 143.152C697.005 142.611 697.038 141.833 697.048 141.604H697.048Z" fill="white"/>
    <path d="M674.785 150.993L675.093 150.87C675.274 150.771 675.681 150.517 675.971 150.012C676.293 149.451 676.279 148.914 676.264 148.712C676.196 147.014 675.86 144.311 674.43 141.385C673.613 139.712 672.657 138.412 671.83 137.46C671.65 137.244 671.242 136.812 670.631 136.596C670.439 136.528 670.141 136.425 669.761 136.481C669.642 136.499 669.523 136.531 669.406 136.578L669.097 136.701C669.059 136.711 668.411 136.902 668.22 137.559C668.09 138.005 668.222 138.491 668.56 138.817C669.454 139.887 670.638 141.551 671.536 143.818C672.528 146.325 672.769 148.554 672.813 150.016C672.83 150.093 672.971 150.68 673.559 150.975C674.155 151.274 674.715 151.025 674.785 150.993L674.785 150.993Z" fill="#DB8282"/>
    <path d="M665.807 135.753C666.465 136.46 667.572 136.498 668.277 135.838C668.982 135.178 669.02 134.07 668.361 133.363L668.045 133.024C667.386 132.318 666.28 132.28 665.574 132.94C664.869 133.6 664.831 134.708 665.49 135.414L665.807 135.753Z" fill="#DB8282"/>
    <path d="M754.048 152.194L753.736 152.076C753.554 151.981 753.143 151.735 752.843 151.235C752.511 150.68 752.515 150.143 752.526 149.941C752.562 148.242 752.847 145.533 754.221 142.58C755.006 140.892 755.938 139.574 756.747 138.607C756.923 138.388 757.322 137.949 757.929 137.721C758.12 137.649 758.416 137.54 758.796 137.59C758.916 137.605 759.036 137.635 759.154 137.679L759.465 137.797C759.503 137.806 760.154 137.984 760.358 138.638C760.496 139.081 760.374 139.57 760.042 139.902C759.168 140.989 758.016 142.675 757.161 144.959C756.216 147.484 756.017 149.717 756 151.18C755.985 151.257 755.855 151.846 755.273 152.152C754.683 152.462 754.118 152.225 754.048 152.194V152.194Z" fill="#DB8282"/>
    <path d="M763.047 136.442C763.692 135.723 763.634 134.616 762.916 133.97C762.198 133.323 761.093 133.382 760.448 134.1L760.138 134.445C759.492 135.164 759.551 136.271 760.269 136.918C760.986 137.564 762.091 137.506 762.737 136.787L763.047 136.442Z" fill="#DB8282"/>
    <path d="M640.097 156.066C640.097 156.066 640.421 156.791 640.8 157.503C642.752 161.164 645.231 163.438 645.231 163.438C645.762 163.925 648.722 166.584 652.662 167.637C654.306 168.076 655.893 168.175 656.054 168.184C656.381 168.203 657.391 168.251 658.709 168.128C659.035 168.097 660.426 167.958 662.327 167.424C662.816 167.286 664.259 166.863 666.336 165.904C668.405 164.948 671.108 163.699 673.536 161.306C674.653 160.205 675.319 159.262 675.575 158.883C676.202 157.953 676.625 157.1 676.904 156.454C675.312 158.14 671.741 161.454 666.127 163.071C659.055 165.108 653.197 163.167 650.906 162.372C645.092 160.354 641.387 156.826 639.59 154.842C639.717 155.175 639.884 155.592 640.097 156.066L640.097 156.066Z" fill="#B23030"/>
    <path d="M702.26 172.882C702.392 172.743 707.321 180.36 714.14 180.256C720.795 180.155 725.394 172.76 725.513 172.882C725.634 173.007 721.337 181.191 714.039 181.273C706.63 181.356 702.126 173.023 702.26 172.882Z" fill="#5E1111"/>
</svg>
