<svg viewBox="0 0 1032 647" fill="none" xmlns="http://www.w3.org/2000/svg">
    <path d="M924.774 17.2201H104.036C54.8774 17.2201 15.0264 57.071 15.0264 106.23V544.805C15.0264 593.963 54.8774 633.814 104.036 633.814H924.774C973.932 633.814 1013.79 593.963 1013.79 544.805V106.23C1013.79 57.071 973.932 17.2201 924.774 17.2201Z" fill="#CBEAEE"/>
    <path d="M1031.06 508.657C1030.21 481.065 1021.98 473.871 1024.39 446.434C1025.49 433.858 1027.26 434.984 1028.83 421.101C1031.72 395.667 1026.95 381.77 1024.39 359.323C1022.8 345.416 1023.92 325.904 1026.17 286.879C1028.73 242.246 1031.06 243.022 1030.61 219.323C1030.28 201.726 1029.06 205.174 1026.17 157.99C1024.39 129.005 1023.5 114.512 1023.5 110.879C1023.51 93.6956 1024.74 85.3111 1021.28 73.101C1018.11 61.9159 1012.68 53.2935 1007.99 47.2729C1005.16 43.2766 1001.82 39.1913 998.437 35.0709C991.638 26.7997 985.922 19.8462 975.919 13.4412C966.133 7.17563 954.829 3.09036 937.993 0.996789C909.126 -2.59263 903.444 4.57821 868.956 5.73751C862.306 5.96102 840.424 4.50381 796.659 1.58938C783.135 0.688749 774.602 0.0545892 761.993 0.700529C745.807 1.52963 739.44 3.6207 722.289 5.14493C706.38 6.55875 695.14 6.24527 683.178 6.03385C628.609 5.06937 582.029 4.21604 538.881 6.33011C490.225 8.71408 496.614 12.3676 463.326 12.2561C412.351 12.0852 409.203 3.55746 363.474 5.14492C324.644 6.49288 317.229 12.9779 280.807 10.182C261.428 8.6943 256.411 6.31204 231.919 5.14492C203.023 3.76803 203.472 6.77248 172.363 5.73751C147.8 4.92031 138.177 2.73629 111.03 3.36715C107.654 3.44558 96.1831 3.78146 81.4 6.3301C59.8689 10.0421 51.0923 15.0549 46.2307 19.5527C40.1836 24.8211 32.2682 32.7638 24.9556 43.8159C14.3007 59.9195 10.4142 74.4994 6.73337 88.7048C3.61368 100.744 -0.580042 116.929 0.066688 138.038C0.912028 165.629 9.14451 172.824 6.73338 200.26C5.62822 212.837 3.86461 211.711 2.28892 225.594C-0.597862 251.028 4.1732 264.925 6.73338 287.371C8.31956 301.278 7.19822 320.791 4.95561 359.816C2.39066 404.449 0.058198 403.673 0.511148 427.371C0.847448 444.969 2.05949 441.521 4.95561 488.705C6.73472 517.69 7.62425 532.182 7.62224 535.816C7.6126 553.226 6.48027 561.459 9.84447 573.594C13.5773 587.058 20.5189 596.935 25.7233 603.114C27.836 605.867 30.1149 608.652 32.4179 611.454C39.2171 619.725 44.9331 626.678 54.9364 633.083C64.7222 639.349 76.0256 643.434 92.8624 645.528C121.729 649.117 127.411 641.946 161.899 640.787C168.549 640.563 190.431 642.021 234.196 644.935C247.72 645.836 256.253 646.47 268.862 645.824C285.048 644.995 291.415 642.904 308.566 641.38C324.475 639.966 335.715 640.279 347.677 640.491C402.246 641.455 448.825 642.308 491.973 640.194C540.63 637.81 534.241 634.157 567.529 634.268C618.504 634.439 621.652 642.967 667.381 641.38C706.211 640.032 713.626 633.547 750.048 636.342C769.427 637.83 774.444 640.212 798.936 641.38C827.832 642.756 827.383 639.752 858.492 640.787C883.055 641.604 892.678 643.788 919.825 643.157C923.201 643.079 934.672 642.743 949.455 640.194C968.665 636.883 977.722 632.535 982.904 628.442L982.904 628.442L982.906 628.44C983.236 628.18 983.546 627.921 983.846 627.663C990.131 622.426 998.518 614.348 1006.17 602.879C1016.76 586.992 1020.61 572.573 1024.39 557.99C1027.51 545.95 1031.7 529.765 1031.06 508.657ZM1003.95 562.879C1000.57 573.512 998.066 581.274 991.945 590.434C984.322 601.843 975.33 609.109 969.137 613.34C964.826 615.766 956.986 619.62 945.307 623.305C936.599 626.053 929.761 626.201 919.233 626.268C889.01 626.462 863.508 625.769 859.973 625.676C824.273 624.736 825.278 627.222 800.122 625.676C775.93 624.189 770.705 621.67 751.233 619.75C716.074 616.284 708.516 622.074 665.603 623.305C621.806 624.562 620.036 618.808 567.529 618.565C536.692 618.422 541.951 620.428 492.27 622.12C437.928 623.971 374.785 623.507 347.381 623.305C331.11 623.186 320.282 623.184 304.063 624.218C279.847 625.76 270.877 628.457 237.751 626.861C187.408 624.436 180.983 618.306 149.455 622.713C136.703 624.495 118.972 628.123 95.529 623.898C73.595 619.945 63.47 612.148 58.7882 607.898C54.6057 604.102 47.6691 591.773 42.7882 584.194C42.3872 583.572 41.086 580.834 38.6401 577.676C36.8412 575.353 34.5615 572.415 31.959 570.366L31.9519 570.356C24.2143 558.788 26.0488 545.276 26.7334 538.927C28.6401 521.242 25.4243 503.375 24.9556 485.594C24.117 453.775 20.352 455.257 19.1778 426.038C18.4084 406.894 20.0437 406.733 22.7334 357.149C25.0015 315.337 25.6833 294.492 24.9556 287.371C22.476 263.109 17.3465 250.289 20.0667 224.26C21.6226 209.372 23.5518 211.166 24.5111 198.038C25.1793 188.894 24.4448 180.8 24.3808 180.119C22.7995 163.285 18.9044 150.571 17.8593 137.149C16.3614 117.913 21.153 102.808 27.1777 83.8159C30.4995 73.3445 33.0503 65.5207 39.1777 56.2603C46.7214 44.8597 55.596 37.4922 61.8291 33.1219C66.1632 30.6934 73.9674 26.873 85.5482 23.219C94.2562 20.4715 101.094 20.3236 111.622 20.2561C141.845 20.0622 167.347 20.7556 170.882 20.8487C206.581 21.7883 205.577 19.3029 230.733 20.8487C254.925 22.3351 260.15 24.8549 279.622 26.7746C314.781 30.2406 322.339 24.4504 365.252 23.219C409.048 21.9623 410.819 27.7166 463.326 27.9597C494.163 28.1026 488.904 26.0963 538.585 24.4042C592.927 22.5534 656.07 23.0176 683.474 23.219C699.744 23.3387 710.573 23.34 726.792 22.3067C751.008 20.764 759.977 18.0678 793.104 19.6635C843.447 22.0885 849.872 28.2181 881.4 23.8116C894.152 22.0294 911.883 18.4017 935.326 22.6264C957.26 26.5792 967.385 34.3769 972.067 38.6264C976.249 42.4228 983.186 54.751 988.067 62.3301C988.468 62.9529 989.769 65.6905 992.215 68.8487C994.083 71.2611 996.472 74.3329 999.2 76.3869C1006.9 87.9442 1005.07 101.428 1004.39 107.768C1002.48 125.453 1005.7 143.319 1006.17 161.101C1007.01 192.919 1010.77 191.438 1011.95 220.657C1012.71 239.8 1011.08 239.962 1008.39 289.545C1006.12 331.357 1005.44 352.203 1006.17 359.323C1008.65 383.585 1013.78 396.406 1011.06 422.434C1009.5 437.323 1007.57 435.528 1006.61 448.657C1005.94 457.801 1006.68 465.894 1006.74 466.576C1008.32 483.41 1012.22 496.124 1013.26 509.546C1014.76 528.782 1009.97 543.886 1003.95 562.879H1003.95Z" fill="#D75047"/>
    <path d="M268.841 15.6632C268.722 18.348 268.295 20.2509 267.844 21.5936C268.536 20.2536 269.348 18.2487 269.548 15.7418C269.777 12.8697 269.119 10.4161 268.554 8.94586C268.426 8.92975 268.299 8.91363 268.172 8.89746C268.507 10.3726 268.958 12.8491 268.844 15.5936L268.841 15.6632H268.841Z" fill="#9D413B"/>
    <path d="M264.351 24.8214C264.497 24.4163 264.635 23.9979 264.751 23.5523C265.937 18.9962 264.595 15.1142 264.511 15.1226C264.428 15.1309 265.027 18.9966 264.083 23.284L264.068 23.3519C263.96 23.8402 263.844 24.2908 263.725 24.7237C263.933 24.7563 264.141 24.7889 264.351 24.8214V24.8214Z" fill="#9D413B"/>
    <path d="M225.302 17.254C225.942 15.8884 226.676 13.8538 226.78 11.3411C226.891 8.66144 226.246 6.37238 225.656 4.90064C225.514 4.89637 225.37 4.89179 225.229 4.88776C225.609 6.37342 226.079 8.66901 226.071 11.22L226.071 11.2897C226.055 13.9771 225.701 15.8949 225.302 17.254V17.254Z" fill="#9D413B"/>
    <path d="M199.819 14.5545C199.939 16.3416 199.951 18.462 199.723 20.8235C199.912 20.8167 200.106 20.8099 200.293 20.8029C200.507 18.2021 200.17 16.0345 199.819 14.5545Z" fill="#9D413B"/>
    <path d="M205.625 10.7195C205.992 9.41784 206.39 7.47461 206.37 5.11407C206.186 5.1242 206.001 5.13391 205.818 5.14428C205.894 7.23724 205.8 9.12348 205.625 10.7195Z" fill="#9D413B"/>
    <path d="M195.667 10.4456C195.66 13.1238 195.372 15.4731 195.011 17.4006C195.58 15.8469 196.277 13.3509 196.23 10.2313C196.205 8.48962 195.952 6.96991 195.641 5.71875C195.557 5.72247 195.47 5.72565 195.385 5.72937C195.557 7.14783 195.672 8.72272 195.667 10.4456V10.4456Z" fill="#9D413B"/>
    <path d="M175.122 20.9465C175.192 20.2371 175.23 19.483 175.218 18.687C175.179 16.0681 174.63 13.9366 174.135 12.4943C174.435 14.3015 174.662 16.462 174.655 18.9013C174.653 19.6038 174.63 20.2806 174.593 20.9362C174.773 20.94 174.944 20.9429 175.122 20.9465Z" fill="#9D413B"/>
    <path d="M162.203 16.7094C162.113 14.0917 161.522 11.9714 160.999 10.5391C161.335 12.34 161.604 14.4956 161.644 16.9346C161.666 18.2482 161.618 19.4816 161.526 20.6282L161.944 20.637C162.135 19.481 162.253 18.165 162.203 16.7094Z" fill="#9D413B"/>
    <path d="M284.019 11.6616C284.051 12.1269 284.15 13.7333 284.094 15.8919C284.06 17.2069 283.974 18.4216 283.863 19.5201C284.092 18.6197 284.335 17.452 284.487 16.0734C284.576 15.2748 284.726 13.5502 284.566 11.361C284.538 10.9761 284.506 10.6575 284.482 10.4392C284.387 10.4321 284.291 10.4254 284.194 10.4193C284.102 10.4133 284.009 10.4078 283.916 10.4029C283.946 10.7142 283.985 11.1461 284.019 11.6616H284.019Z" fill="#9D413B"/>
    <path d="M432.309 12.5243C432.498 14.65 432.592 17.1817 432.435 20.0213C432.292 22.6241 431.965 24.9258 431.583 26.9126L431.756 26.9042C432.321 25.1486 432.894 22.7388 433.01 19.812C433.132 16.76 432.715 14.2391 432.309 12.5243Z" fill="#9D413B"/>
    <path d="M1019.78 154.98C1016.22 154.972 1013.11 154.684 1010.55 154.323C1012.61 154.892 1015.92 155.589 1020.06 155.543C1022.37 155.517 1024.38 155.264 1026.04 154.953C1026.04 154.87 1026.03 154.782 1026.03 154.698C1024.15 154.87 1022.06 154.985 1019.78 154.98Z" fill="#9D413B"/>
    <path d="M1024.43 212.161C1021.06 212.153 1018.11 211.866 1015.69 211.505C1017.64 212.073 1020.78 212.771 1024.7 212.724C1026.88 212.699 1028.79 212.446 1030.36 212.135C1030.36 212.051 1030.36 211.963 1030.35 211.879C1028.57 212.051 1026.59 212.166 1024.43 212.161Z" fill="#9D413B"/>
    <path d="M1023.33 300.52C1021.04 300.71 1018.31 300.804 1015.26 300.647C1012.45 300.504 1009.97 300.177 1007.84 299.795L1007.84 299.968C1009.73 300.533 1012.33 301.106 1015.48 301.222C1018.77 301.344 1021.48 300.927 1023.33 300.52Z" fill="#9D413B"/>
    <path d="M1019.26 534.785C1018.11 534.846 1016.88 534.877 1015.6 534.867C1014.24 534.857 1012.95 534.801 1011.74 534.715C1011.73 534.805 1011.71 534.897 1011.69 534.99C1011.67 535.09 1011.65 535.189 1011.63 535.286C1012.89 535.353 1014.31 535.356 1015.87 535.234C1017.1 535.137 1018.24 534.976 1019.26 534.785Z" fill="#9D413B"/>
    <path d="M1024.08 540.592C1025 540.809 1026.01 540.993 1027.1 541.109C1027.52 541.153 1027.93 541.185 1028.32 541.206C1028.33 541.159 1028.35 541.11 1028.36 541.059C1028.37 540.971 1028.39 540.886 1028.4 540.805C1028.05 540.801 1027.7 540.793 1027.35 540.782C1026.22 540.747 1025.13 540.682 1024.08 540.592Z" fill="#9D413B"/>
    <path d="M1024.43 530.633C1022.37 530.628 1020.71 530.519 1019.7 530.438C1018.24 530.32 1016.9 530.157 1015.69 529.977C1017.64 530.546 1020.78 531.243 1024.7 531.196C1026.35 531.177 1027.82 531.001 1027.82 531.001C1028.71 530.888 1029.45 530.742 1030.02 530.613L1030.04 530.478L1030.04 530.391C1027.92 530.581 1026.02 530.638 1024.43 530.633Z" fill="#9D413B"/>
    <path d="M926.287 637.43C926.254 634.338 926.505 631.622 926.837 629.392C926.292 631.193 925.633 634.084 925.727 637.684C925.78 639.695 926.056 641.446 926.386 642.886C926.47 642.88 926.557 642.876 926.641 642.87C926.448 641.235 926.308 639.418 926.287 637.43Z" fill="#9D413B"/>
    <path d="M651.244 635.04C650.897 636.548 650.53 638.796 650.586 641.521C650.769 641.507 650.954 641.493 651.137 641.479C651.029 639.064 651.094 636.885 651.244 635.04Z" fill="#9D413B"/>
    <path d="M987.918 619.2C986.124 617.599 984.082 615.601 981.981 613.18C980.081 610.99 978.542 608.917 977.278 607.054C977.233 607.092 977.188 607.134 977.143 607.173C978.104 608.984 979.558 611.313 981.729 613.748C984.02 616.318 986.287 618.084 987.918 619.2Z" fill="#9D413B"/>
    <path d="M995.716 616.276C994.348 615.08 992.891 613.713 991.387 612.134C988.956 609.584 987.027 607.152 985.535 605.07C986.537 606.94 988.304 609.794 991.175 612.727C992.711 614.297 994.208 615.521 995.531 616.479C995.593 616.411 995.654 616.345 995.716 616.276Z" fill="#9D413B"/>
    <path d="M402.064 636.492C402.112 638.346 402.354 639.968 402.65 641.341L402.942 641.344C402.768 639.795 402.643 638.094 402.623 636.237C402.59 633.145 402.842 630.43 403.174 628.2C402.629 630.001 401.97 632.891 402.064 636.492H402.064Z" fill="#9D413B"/>
    <path d="M397.503 623.507C397.366 626.389 397.72 628.791 398.082 630.443C397.941 628.459 397.899 626.111 398.067 623.506C397.879 623.507 397.691 623.507 397.503 623.507Z" fill="#9D413B"/>
    <path d="M486.434 622.308L486.253 622.314C485.718 624.054 485.188 626.422 485.111 629.287C485.029 632.309 485.479 634.799 485.908 636.49C485.691 634.389 485.564 631.885 485.683 629.073C485.791 626.523 486.083 624.265 486.434 622.308Z" fill="#9D413B"/>
    <path d="M493.267 634.943C493.234 631.851 493.485 629.135 493.817 626.905C493.272 628.706 492.613 631.597 492.707 635.197C492.757 637.088 493.006 638.738 493.31 640.127L493.592 640.113C493.415 638.547 493.287 636.825 493.267 634.943Z" fill="#9D413B"/>
    <path d="M550.786 634.659C550.944 634.649 551.102 634.64 551.262 634.63C551.243 632.921 551.307 631.357 551.419 629.98C551.152 631.14 550.875 632.742 550.786 634.659Z" fill="#9D413B"/>
    <path d="M554.512 618.666L554.305 618.671C553.791 620.39 553.298 622.68 553.224 625.434C553.142 628.456 553.593 630.945 554.022 632.637C553.804 630.536 553.677 628.032 553.796 625.219C553.901 622.758 554.178 620.575 554.512 618.666Z" fill="#9D413B"/>
    <path d="M556.584 618.622C556.458 621.468 556.808 623.84 557.167 625.476C557.026 623.511 556.985 621.188 557.148 618.613C556.958 618.616 556.77 618.619 556.584 618.622Z" fill="#9D413B"/>
    <path d="M656.417 623.475C656.264 626.414 656.624 628.86 656.992 630.536C656.848 628.519 656.805 626.128 656.984 623.47C656.795 623.471 656.604 623.473 656.417 623.475Z" fill="#9D413B"/>
    <path d="M740.655 618.934C740.565 621.749 740.904 624.1 741.251 625.737C741.116 623.789 741.075 621.495 741.212 618.964C741.025 618.954 740.841 618.944 740.655 618.934Z" fill="#9D413B"/>
    <path d="M847.447 640.57C847.45 639.138 847.505 637.806 847.602 636.623C847.37 637.631 847.131 638.977 847.014 640.568C847.158 640.569 847.301 640.569 847.447 640.57Z" fill="#9D413B"/>
    <path d="M857.004 637.062C857.039 638.42 857.181 639.648 857.368 640.753C857.502 640.757 857.631 640.761 857.765 640.765C857.655 639.533 857.579 638.215 857.563 636.807C857.53 633.715 857.782 630.999 858.114 628.77C857.569 630.571 856.91 633.461 857.004 637.062Z" fill="#9D413B"/>
    <path d="M922.035 626.245C921.849 626.247 921.666 626.249 921.477 626.251C921.395 628.934 921.729 631.176 922.073 632.741C921.94 630.872 921.9 628.672 922.035 626.245Z" fill="#9D413B"/>
    <path d="M23.4016 344.545C23.4113 344.357 23.4209 344.17 23.4305 343.983C20.6086 343.85 18.2524 344.185 16.625 344.534C18.5677 344.405 20.8624 344.376 23.4016 344.545Z" fill="#9D413B"/>
    <path d="M18.176 349.893C16.3776 349.339 13.4903 348.666 9.88916 348.742C8.26678 348.776 6.82239 348.96 5.56366 349.198L5.54395 349.545C6.95624 349.407 8.48542 349.313 10.1412 349.303C13.2333 349.285 15.9478 349.55 18.176 349.893H18.176Z" fill="#9D413B"/>
    <path d="M14.2764 445.079C16.7234 445.195 18.8936 445.481 20.7934 445.822L20.764 445.602C19.054 445.086 16.7872 444.593 14.0646 444.506C11.0432 444.409 8.5517 444.847 6.85791 445.267C8.96014 445.06 11.4648 444.946 14.2764 445.079Z" fill="#9D413B"/>
    <path d="M1.22266 441.207C1.23877 441.386 1.25507 441.565 1.27173 441.746C3.48847 441.679 5.50324 441.748 7.2193 441.897C5.80414 441.564 3.7287 441.214 1.22266 441.207Z" fill="#9D413B"/>
    <path d="M30.2737 567.506C28.5322 567.717 26.3365 568.162 23.905 569.114C21.0902 570.217 18.9733 571.602 17.5825 572.656C19.4328 571.637 21.6895 570.544 24.3258 569.558C26.5315 568.733 28.5604 568.156 30.3854 567.725C30.3463 567.652 30.3123 567.578 30.2738 567.506H30.2737Z" fill="#9D413B"/>
    <path d="M13.1494 582.971C13.1862 583.056 13.2244 583.139 13.2613 583.224C14.6517 582.437 16.2125 581.634 17.9675 580.869C20.802 579.634 23.4011 578.807 25.584 578.244C23.7129 578.444 20.7941 578.963 17.5147 580.453C15.7643 581.248 14.3202 582.138 13.1494 582.971H13.1494Z" fill="#9D413B"/>
    <path d="M136.732 624.535C136.432 626.312 136.221 628.671 136.496 631.447C136.793 634.456 137.551 636.869 138.188 638.494C137.71 636.436 137.27 633.968 137.037 631.163C136.83 628.682 136.834 626.459 136.929 624.509C136.863 624.517 136.799 624.526 136.732 624.535L136.732 624.535Z" fill="#9D413B"/>
    <path d="M145.381 637.197C144.961 634.133 144.87 631.408 144.921 629.154C144.605 631.009 144.313 633.959 144.857 637.52C145.112 639.186 145.501 640.639 145.919 641.887C146.028 641.875 146.139 641.864 146.249 641.853C145.917 640.435 145.613 638.889 145.381 637.197V637.197Z" fill="#9D413B"/>
    <path d="M213.484 643.559C213.592 641.336 213.821 639.326 214.106 637.622C213.663 639.002 213.152 641.036 212.946 643.524C213.124 643.536 213.305 643.548 213.484 643.559Z" fill="#9D413B"/>
    <path d="M220.179 625.757C219.851 628.482 219.997 630.794 220.212 632.409C220.236 630.5 220.385 628.26 220.738 625.801C220.549 625.786 220.366 625.771 220.179 625.757Z" fill="#9D413B"/>
    <path d="M312.169 623.769C312.005 626.742 312.371 629.216 312.742 630.906C312.596 628.863 312.552 626.44 312.738 623.741C312.551 623.75 312.357 623.76 312.169 623.769Z" fill="#9D413B"/>
    <path d="M306.316 641.595C306.497 641.577 306.676 641.56 306.859 641.542C306.77 639.252 306.832 637.175 306.975 635.41C306.641 636.862 306.292 639.005 306.316 641.595Z" fill="#9D413B"/>
    <path d="M316.322 635.849C316.371 637.732 316.619 639.377 316.921 640.763L317.205 640.747C317.028 639.185 316.901 637.469 316.881 635.594C316.848 632.502 317.1 629.787 317.431 627.557C316.886 629.358 316.228 632.248 316.322 635.849Z" fill="#9D413B"/>
    <path d="M19.0567 174.281C17.1818 174.121 14.2174 174.076 10.7143 174.914C8.90258 175.348 7.36035 175.923 6.07568 176.5C6.09124 176.596 6.10662 176.692 6.12194 176.788C7.60863 176.294 9.25567 175.816 11.0796 175.409C14.0975 174.735 16.8065 174.418 19.0567 174.281H19.0567Z" fill="#9D413B"/>
    <path d="M1.42896 237.951C1.42475 238.131 1.41895 238.315 1.41553 238.495C3.71778 238.416 5.80371 238.487 7.57508 238.641C6.13172 238.301 4.00257 237.943 1.42896 237.951Z" fill="#9D413B"/>
    <path d="M13.3516 241.128C15.5757 241.234 17.5646 241.481 19.3375 241.781C19.3351 241.689 19.3333 241.596 19.3311 241.503C17.6887 241.045 15.5997 240.634 13.1398 240.555C10.1183 240.458 7.62684 240.896 5.93311 241.316C8.03528 241.11 10.54 240.995 13.3516 241.128Z" fill="#9D413B"/>
    <path d="M6.20508 248.619C4.48779 248.655 2.97254 248.859 1.66455 249.118C1.67151 249.225 1.67914 249.332 1.68634 249.439C3.1463 249.292 4.73297 249.19 6.45715 249.18C9.54919 249.162 12.2637 249.427 14.4919 249.77C12.6935 249.216 9.80627 248.543 6.20508 248.619Z" fill="#9D413B"/>
    <path d="M6.62988 286.497C6.65088 286.676 6.67242 286.852 6.69317 287.032C8.84948 286.973 10.8132 287.042 12.4897 287.187C11.1003 286.86 9.07464 286.516 6.62988 286.497Z" fill="#9D413B"/>
    <path d="M18.7662 289.533C21.1547 289.646 23.2765 289.922 25.1439 290.252C25.1408 290.174 25.1378 290.096 25.1344 290.02C23.4386 289.517 21.2138 289.044 18.5543 288.959C15.5329 288.862 13.0414 289.3 11.3477 289.721C13.4499 289.514 15.9546 289.399 18.7662 289.533Z" fill="#9D413B"/>
    <path d="M18.4702 292.815C20.4044 292.687 22.688 292.658 25.2139 292.824C25.2109 292.63 25.2066 292.448 25.2028 292.261C22.4134 292.137 20.0836 292.469 18.4702 292.815Z" fill="#9D413B"/>
    <path d="M22.3838 165.43C22.3705 165.352 22.3571 165.277 22.3438 165.2C20.585 165.071 18.3234 165.084 15.7247 165.562C12.7515 166.109 10.4097 167.066 8.84375 167.836C10.8542 167.187 13.2776 166.544 16.0534 166.078C18.3892 165.685 20.5022 165.505 22.3838 165.43Z" fill="#9D413B"/>
    <path d="M528.96 14.8802C528.882 18.5062 528.531 21.7004 528.118 24.3273C528.424 23.2618 528.768 21.8758 529.04 20.2286C529.429 17.8786 529.52 15.9035 529.531 14.5626C529.547 12.6029 529.408 9.89607 528.735 6.76877L528.695 6.76705L528.654 6.76532C528.876 9.06359 528.951 11.0173 528.97 12.5131C528.978 13.127 528.98 13.9337 528.96 14.8802V14.8802Z" fill="#9D413B"/>
    <path d="M842.384 24.0412C842.53 23.5482 842.668 23.0389 842.784 22.4965C843.97 16.9508 842.628 12.2257 842.544 12.2359C842.461 12.246 843.06 16.9513 842.117 22.1698L842.102 22.2526C841.993 22.8468 841.877 23.3954 841.758 23.9223C841.966 23.962 842.174 24.0016 842.384 24.0412Z" fill="#9D413B"/>
    <path d="M70.2201 28.9626C70.3933 28.8858 70.5637 28.8095 70.7407 28.732C69.9992 25.9984 68.9523 23.8546 68.1182 22.4106C68.8488 24.2445 69.5938 26.4519 70.2201 28.9626Z" fill="#9D413B"/>
    <path d="M71.3296 14.8034C71.2075 13.3105 70.8884 11.1467 70.0712 8.66901C69.8927 8.71308 69.7156 8.75727 69.5396 8.80152C70.3416 11.0052 70.9244 13.0448 71.3296 14.8034Z" fill="#9D413B"/>
    <path d="M112.52 8.71033C112.554 11.8022 112.302 14.518 111.97 16.7479C112.515 14.9468 113.174 12.0562 113.08 8.45545C113.029 6.48249 112.761 4.76319 112.439 3.33832L112.174 3.34369C112.363 4.96008 112.499 6.75061 112.52 8.71033H112.52Z" fill="#9D413B"/>
    <path d="M123.142 3.26691C122.964 3.26545 122.792 3.263 122.612 3.26184C122.674 5.35242 122.615 7.26031 122.482 8.89465C122.792 7.54803 123.116 5.6073 123.142 3.2669V3.26691Z" fill="#9D413B"/>
    <path d="M142.316 5.12605L142.315 5.19996C142.299 8.05287 141.946 10.0887 141.547 11.5315C142.186 10.0818 142.921 7.92194 143.025 5.25452C143.041 4.83625 143.036 4.43116 143.022 4.03266C142.778 4.01685 142.533 4.00129 142.289 3.98572C142.306 4.35987 142.317 4.73871 142.316 5.12604V5.12605Z" fill="#9D413B"/>
    <path d="M309.825 13.6338C310.145 15.7364 310.395 18.2487 310.415 21.0828C310.431 23.4954 310.27 25.6477 310.041 27.5458C310.117 27.5411 310.193 27.5369 310.268 27.5322C310.681 25.7975 311.035 23.528 310.976 20.839C310.909 17.7958 310.336 15.3142 309.825 13.6338H309.825Z" fill="#9D413B"/>
    <path d="M312.555 16.1794C312.81 14.7463 313.045 12.6556 312.921 10.1537C312.743 10.1703 312.563 10.1859 312.384 10.2021C312.571 12.423 312.61 14.4489 312.555 16.1794V16.1794Z" fill="#9D413B"/>
    <path d="M339.49 13.1306L339.49 13.2045C339.474 16.0574 339.12 18.0932 338.721 19.536C339.361 18.0864 340.095 15.9264 340.199 13.259C340.299 10.6815 339.779 8.45941 339.242 6.90027C339.082 6.91815 338.93 6.93671 338.772 6.95471C339.123 8.52093 339.497 10.709 339.49 13.1305V13.1306Z" fill="#9D413B"/>
    <path d="M364.89 23.2309C364.958 22.9721 365.033 22.7255 365.091 22.452C366.278 16.9064 364.935 12.1812 364.852 12.1914C364.769 12.2016 365.367 16.9068 364.424 22.1253L364.409 22.2081C364.342 22.5732 364.272 22.9173 364.201 23.2534C364.433 23.2463 364.655 23.2378 364.89 23.2309Z" fill="#9D413B"/>
    <path d="M435.528 11.1141C435.38 11.1012 435.233 11.0879 435.086 11.0749C435.068 12.5925 434.993 13.9993 434.876 15.2436C435.129 14.1965 435.393 12.7871 435.528 11.1141V11.1141Z" fill="#9D413B"/>
    <path d="M404.683 13.0419C404.797 15.2523 404.8 17.8845 404.541 20.8361C404.433 22.0696 404.282 23.2203 404.114 24.3261C404.277 24.3416 404.438 24.3574 404.6 24.373C404.835 23.237 405.025 21.9859 405.125 20.6204C405.356 17.4479 405.029 14.8258 404.683 13.0419V13.0419Z" fill="#9D413B"/>
    <path d="M409.599 8.64721C409.626 9.16137 409.708 10.9366 409.629 13.3241C409.58 14.7785 409.482 16.1226 409.359 17.3385C409.597 16.3404 409.853 15.0466 410.021 13.5206C410.118 12.6365 410.287 10.7279 410.15 8.30901C410.141 8.13738 410.13 7.9876 410.12 7.84234C409.928 7.81347 409.737 7.78478 409.545 7.7561C409.564 8.01977 409.582 8.3106 409.599 8.64721Z" fill="#9D413B"/>
    <path d="M387.134 9.98274L387.133 10.0566C387.117 12.9096 386.764 14.9454 386.365 16.3882C387.004 14.9385 387.739 12.7786 387.843 10.1112C387.913 8.29615 387.674 6.66163 387.34 5.30475C387.129 5.29273 386.92 5.28021 386.707 5.26868C386.946 6.6258 387.139 8.24274 387.134 9.98273V9.98274Z" fill="#9D413B"/>
    <path d="M2.8457 388.887C4.90832 388.995 6.4729 389.285 7.64032 389.608C6.48199 389.097 4.86414 388.531 2.90228 388.269C2.8833 388.478 2.8645 388.681 2.8457 388.887Z" fill="#9D413B"/>
    <path d="M11.2683 366.695C14.8322 366.808 17.3586 367.23 19.1418 367.678C17.3619 366.99 14.6992 366.182 11.3713 365.988C8.75061 365.835 6.40564 366.103 4.55426 366.469C4.54205 366.662 4.52978 366.855 4.51758 367.047C6.36554 366.81 8.68115 366.618 11.176 366.692L11.2683 366.695Z" fill="#9D413B"/>
    <path d="M21.3918 371.435L21.4821 371.45C21.6275 371.474 21.7624 371.5 21.9032 371.525C21.9175 371.291 21.9321 371.051 21.9466 370.814C21.8775 370.8 21.817 370.781 21.7468 370.767C15.6973 369.591 10.5468 370.942 10.5581 371.026C10.5693 371.109 15.6994 370.502 21.3918 371.435Z" fill="#9D413B"/>
    <path d="M17.2216 312.42C16.1815 312.287 14.8389 312.168 13.2696 312.161C12.3605 312.157 10.4022 312.188 7.95758 312.576C7.71863 312.614 7.51044 312.65 7.32416 312.684C7.31873 312.875 7.31287 313.069 7.30713 313.262C7.60767 313.21 7.94837 313.152 8.36017 313.089C8.88013 313.009 10.6761 312.742 13.1117 312.571C14.5955 312.467 15.9723 312.425 17.2216 312.42Z" fill="#9D413B"/>
    <path d="M24.6917 316.898C24.6981 316.733 24.705 316.564 24.7114 316.401C23.5775 316.297 22.3413 316.246 21.0093 316.288C17.7594 316.389 15.1287 316.989 13.3521 317.519C15.587 317.175 18.2626 316.897 21.2909 316.846C22.4855 316.826 23.607 316.853 24.6917 316.898Z" fill="#9D413B"/>
    <path d="M9.7005 269.407C7.60107 269.325 5.74042 269.656 4.27734 270.072L4.36535 270.632C5.81335 270.353 7.61761 270.11 9.57202 270.116L9.64593 270.116C12.4988 270.132 14.5347 270.486 15.9775 270.885C14.5278 270.245 12.3679 269.511 9.70049 269.407H9.7005Z" fill="#9D413B"/>
    <path d="M8.21875 220.728C6.13916 220.647 4.29321 220.971 2.83643 221.381C2.80713 221.578 2.77784 221.774 2.74854 221.98C4.219 221.69 6.07318 221.431 8.09027 221.437L8.16418 221.437C11.0171 221.453 13.0529 221.806 14.4957 222.206C13.0461 221.566 10.8862 220.832 8.21875 220.728Z" fill="#9D413B"/>
    <path d="M23.7546 199.839L23.8449 199.854C24.021 199.883 24.1855 199.914 24.3548 199.945C24.3758 199.714 24.3968 199.486 24.417 199.244C24.3114 199.222 24.2175 199.192 24.1096 199.171C18.0601 197.995 12.9096 199.347 12.9209 199.43C12.9321 199.513 18.0622 198.906 23.7546 199.839Z" fill="#9D413B"/>
    <path d="M6.9646 144.824C6.00226 144.82 3.92908 144.851 1.34119 145.24C1.00202 145.291 0.727356 145.338 0.492676 145.379C0.509276 145.571 0.528996 145.754 0.546326 145.944C0.883486 145.888 1.28168 145.823 1.76722 145.753C2.31764 145.673 4.21894 145.405 6.79737 145.234C8.36811 145.13 9.82563 145.087 11.1481 145.082C10.0471 144.95 8.62586 144.83 6.96461 144.824L6.9646 144.824Z" fill="#9D413B"/>
    <path d="M19.5005 149.576C19.4728 149.415 19.4476 149.256 19.4203 149.096C18.1263 148.971 16.7051 148.904 15.1572 148.949C11.7167 149.051 8.93176 149.652 7.05078 150.182C9.41687 149.838 12.2494 149.559 15.4551 149.507C16.8836 149.484 18.221 149.518 19.5005 149.576H19.5005Z" fill="#9D413B"/>
    <path d="M4.77295 125.95C3.03613 125.987 1.5061 126.195 0.188358 126.458C0.182868 126.565 0.176208 126.671 0.170898 126.778C1.65338 126.627 3.26795 126.521 5.02496 126.511C8.11706 126.493 10.8315 126.758 13.0597 127.101C11.2614 126.547 8.37414 125.874 4.77295 125.95V125.95Z" fill="#9D413B"/>
    <path d="M6.47772 115.972C5.20147 115.671 3.38891 115.356 1.20807 115.292C1.18561 115.465 1.16107 115.633 1.13916 115.807C3.11432 115.769 4.92072 115.837 6.47772 115.972Z" fill="#9D413B"/>
    <path d="M17.9857 121.767C18.0032 121.579 18.0197 121.391 18.0383 121.203C15.0903 121.032 12.6342 121.382 10.9526 121.742C12.9617 121.609 15.3419 121.578 17.9857 121.767Z" fill="#9D413B"/>
    <path d="M7.77008 86.2099C7.65253 86.1579 7.53668 86.1156 7.41968 86.067C7.35877 86.3 7.29895 86.5318 7.23828 86.7644C7.28882 86.7842 7.33862 86.8011 7.38922 86.8214L7.45782 86.849C10.1037 87.916 11.8657 88.9952 13.0597 89.8982C11.9481 88.7692 10.2112 87.29 7.77008 86.2099V86.2099Z" fill="#9D413B"/>
    <path d="M20.0281 63.6927C22.7412 65.176 24.9869 66.7237 26.7696 68.1038C25.4653 66.7474 23.2663 64.759 20.0796 63.0798C18.4288 62.2099 16.8874 61.6252 15.5398 61.2118C15.5017 61.3 15.4636 61.3881 15.4258 61.4762C16.8601 62.0818 18.4014 62.8033 20.0281 63.6927L20.0281 63.6927Z" fill="#9D413B"/>
    <path d="M33.8854 65.6153C33.9664 65.4447 34.0474 65.274 34.13 65.1033C31.6866 63.5782 29.4221 62.7135 27.8066 62.2226C29.6118 63.0717 31.6874 64.1877 33.8854 65.6153H33.8854Z" fill="#9D413B"/>
    <path d="M20.4341 51.2797C22.3969 52.2919 24.1187 53.3257 25.5425 54.2841C24.4766 53.3162 22.8522 52.0201 20.6954 50.8096C20.6072 50.9666 20.5211 51.123 20.4341 51.2797V51.2797Z" fill="#9D413B"/>
    <path d="M47.3445 40.7869C48.2151 41.6312 49.0102 42.455 49.7725 43.2665C49.8932 43.145 50.0131 43.0284 50.1336 42.9086C49.3613 42.0192 48.499 41.0992 47.5138 40.1676C44.8422 37.6414 42.3133 35.9623 40.5171 34.9166C42.5484 36.4602 44.8856 38.4024 47.3445 40.7869V40.7869Z" fill="#9D413B"/>
    <path d="M198.528 623.617C198.44 624.823 198.396 626.122 198.435 627.521C198.538 631.196 199.139 634.172 199.67 636.181C199.325 633.653 199.046 630.627 198.993 627.203C198.974 625.969 198.995 624.806 199.031 623.675C198.864 623.656 198.695 623.636 198.528 623.617Z" fill="#9D413B"/>
    <path d="M167.658 639.325L167.658 639.251C167.674 636.398 168.028 634.362 168.427 632.919C167.787 634.369 167.053 636.529 166.949 639.196C166.927 639.759 166.94 640.301 166.971 640.828C167.209 640.835 167.455 640.843 167.706 640.851C167.676 640.354 167.656 639.847 167.658 639.325V639.325Z" fill="#9D413B"/>
    <path d="M119.977 637.117L119.979 637.025C120.06 633.46 120.46 630.93 120.892 629.143C120.219 630.929 119.436 633.599 119.271 636.928C119.09 640.58 119.717 643.7 120.285 645.668C120.416 645.651 120.546 645.632 120.677 645.615C120.33 643.631 119.906 640.541 119.977 637.117Z" fill="#9D413B"/>
    <path d="M87.3403 644.733C87.5669 644.77 87.8002 644.804 88.0289 644.84C88.1639 643.846 88.3594 642.778 88.6527 641.678L88.6719 641.607C89.415 638.853 90.2759 636.974 91.0297 635.681C90.0416 636.92 88.7807 638.821 88.0001 641.373C87.6395 642.553 87.4409 643.687 87.3403 644.733H87.3403Z" fill="#9D413B"/>
    <path d="M57.7187 634.019C57.6293 634.244 57.552 634.444 57.48 634.632C57.6459 634.729 57.8123 634.826 57.9792 634.922C58.1042 634.598 58.2482 634.23 58.4146 633.817C58.6638 633.198 59.5322 631.062 60.8781 628.258C61.6981 626.55 62.5059 624.991 63.2688 623.593C62.5142 624.691 61.5853 626.133 60.6157 627.883C60.0539 628.897 58.8789 631.1 57.7187 634.019Z" fill="#9D413B"/>
    <path d="M71.7574 616.539C70.8428 617.909 69.8975 619.46 68.9812 621.229C67.0749 624.909 65.9851 628.138 65.3584 630.379C66.4294 627.716 67.8283 624.592 69.6425 621.184C70.4933 619.586 71.3416 618.118 72.1747 616.737C72.036 616.671 71.894 616.605 71.7574 616.539L71.7574 616.539Z" fill="#9D413B"/>
    <path d="M45.0862 612.095C42.4758 615.031 40.7637 618.008 39.7607 620.095C39.862 620.207 39.9639 620.318 40.0656 620.429C41.2321 618.46 43.0765 615.574 45.4966 612.708L45.5645 612.628C48.1871 609.535 50.3134 607.556 51.9308 606.253C50.128 607.403 47.6046 609.262 45.0862 612.095H45.0862Z" fill="#9D413B"/>
    <path d="M26.6325 599.538L26.6851 599.486C28.7175 597.483 30.4091 596.297 31.7128 595.561C30.2345 596.131 28.1861 597.136 26.2232 598.945C25.4202 599.685 24.7462 600.458 24.1738 601.218C24.3272 601.41 24.4821 601.607 24.6334 601.794C25.2235 601.051 25.8767 600.286 26.6325 599.538Z" fill="#9D413B"/>
    <path d="M14.5304 552.782C18.0916 552.603 20.6442 552.816 22.458 553.116C20.6277 552.576 17.9077 551.99 14.5751 552.069C11.7646 552.136 9.29938 552.658 7.43458 553.218C7.43458 553.403 7.43446 553.588 7.43495 553.771C9.31306 553.357 11.7645 552.928 14.4381 552.787L14.5304 552.782H14.5304Z" fill="#9D413B"/>
    <path d="M7.62012 536.298C7.90094 536.256 8.21637 536.21 8.56562 536.162C9.15369 536.082 11.1849 535.814 13.9395 535.643C15.6176 535.538 17.1746 535.495 18.5875 535.49C17.4113 535.357 15.8929 535.238 14.1183 535.232C13.0901 535.228 10.8754 535.26 8.1106 535.65C7.93061 535.676 7.77619 535.699 7.62159 535.723L7.6222 535.816C7.62208 535.982 7.62043 536.134 7.62012 536.298Z" fill="#9D413B"/>
    <path d="M26.6771 539.443C25.4975 539.359 24.2316 539.318 22.8699 539.356C19.1944 539.459 16.2191 540.06 14.2095 540.59C16.7373 540.246 19.7633 539.966 23.1881 539.914C24.3873 539.895 25.5202 539.915 26.6218 539.949C26.641 539.774 26.6589 539.609 26.6771 539.443L26.6771 539.443Z" fill="#9D413B"/>
    <path d="M11.6094 504.19C14.4623 504.206 16.4981 504.559 17.9409 504.958C16.4913 504.319 14.3314 503.584 11.6639 503.481C9.40277 503.392 7.41528 503.782 5.90771 504.242L5.94068 504.783C7.44788 504.474 9.40088 504.183 11.5355 504.189L11.6094 504.19H11.6094Z" fill="#9D413B"/>
    <path d="M22.3571 470.356L22.4474 470.371C23.0719 470.475 23.6488 470.586 24.2042 470.699C24.1855 470.468 24.1656 470.252 24.1464 470.026C23.6837 469.905 23.2158 469.786 22.7122 469.688C16.6626 468.512 11.5122 469.863 11.5235 469.947C11.5346 470.03 16.6647 469.423 22.3571 470.356Z" fill="#9D413B"/>
    <path d="M19.0654 412.982C19.0714 412.803 19.0779 412.623 19.0847 412.443C18.2034 412.404 17.278 412.391 16.3049 412.418C12.6295 412.521 9.65411 413.122 7.64453 413.653C10.1724 413.308 13.1984 413.028 16.6231 412.976C17.4632 412.963 18.2729 412.968 19.0654 412.982Z" fill="#9D413B"/>
    <path d="M7.55378 408.294C6.5257 408.291 4.31092 408.322 1.54615 408.712C1.31763 408.745 1.11195 408.776 0.925296 408.805C0.910466 408.999 0.895996 409.193 0.881836 409.387C1.20313 409.338 1.57642 409.283 2.00116 409.225C2.58923 409.145 4.62042 408.876 7.375 408.705C9.05304 408.6 10.6102 408.557 12.023 408.552C10.8468 408.42 9.32849 408.301 7.55377 408.294L7.55378 408.294Z" fill="#9D413B"/>
    <path d="M511.698 637.834L511.699 637.761C511.715 634.908 512.068 632.872 512.467 631.429C511.828 632.879 511.093 635.039 510.99 637.706C510.972 638.154 510.979 638.587 510.996 639.012C511.243 638.993 511.482 638.973 511.724 638.954C511.708 638.586 511.697 638.214 511.698 637.835V637.834Z" fill="#9D413B"/>
    <path d="M450.68 628.903C450.041 630.352 449.306 632.512 449.202 635.18C449.105 637.681 449.592 639.845 450.112 641.396C450.278 641.395 450.444 641.393 450.609 641.391C450.264 639.831 449.904 637.682 449.911 635.308L449.912 635.234C449.928 632.381 450.281 630.345 450.68 628.903V628.903Z" fill="#9D413B"/>
    <path d="M422.735 623.415C422.729 623.445 422.721 623.471 422.715 623.501C421.593 629.56 422.991 634.699 423.074 634.687C423.157 634.675 422.504 629.55 423.386 623.85L423.4 623.759C423.419 623.639 423.44 623.528 423.459 623.411C423.217 623.412 422.977 623.414 422.735 623.415Z" fill="#9D413B"/>
    <path d="M360.282 635.846L360.282 635.772C360.298 632.919 360.652 630.883 361.051 629.44C360.411 630.89 359.677 633.05 359.573 635.717C359.499 637.615 359.763 639.318 360.121 640.709C360.327 640.713 360.531 640.716 360.737 640.72C360.485 639.331 360.277 637.655 360.282 635.846V635.846Z" fill="#9D413B"/>
    <path d="M332.765 639.459C332.685 638.955 332.418 637.215 332.248 634.854C332.144 633.416 332.101 632.081 332.097 630.871C331.964 631.879 331.845 633.18 331.837 634.701C331.833 635.582 331.864 637.48 332.252 639.849C332.28 640.018 332.306 640.165 332.332 640.307C332.525 640.307 332.715 640.307 332.907 640.307C332.863 640.055 332.815 639.778 332.765 639.459H332.765Z" fill="#9D413B"/>
    <path d="M337.196 634.62C336.852 632.454 336.574 629.861 336.523 626.926C336.501 625.63 336.534 624.416 336.592 623.253C336.435 623.253 336.274 623.252 336.118 623.252C335.99 624.449 335.919 625.764 335.965 627.199C336.066 630.349 336.666 632.898 337.196 634.62Z" fill="#9D413B"/>
    <path d="M283.835 626.86L283.849 626.769C283.897 626.467 283.946 626.177 283.996 625.894C283.76 625.916 283.524 625.938 283.289 625.96C283.249 626.146 283.2 626.317 283.164 626.51C282.042 632.57 283.439 637.709 283.523 637.696C283.606 637.685 282.953 632.56 283.835 626.86Z" fill="#9D413B"/>
    <path d="M250.456 644.908L250.456 644.834C250.472 641.981 250.826 639.945 251.225 638.502C250.585 639.952 249.851 642.112 249.747 644.779C249.733 645.153 249.734 645.517 249.744 645.875C249.988 645.885 250.231 645.894 250.475 645.904C250.462 645.577 250.455 645.245 250.456 644.908V644.908Z" fill="#9D413B"/>
    <path d="M191.243 637.412C191.171 636.748 191.085 635.874 191.006 634.846C190.704 630.907 190.718 627.406 190.854 624.512C190.661 625.701 190.464 627.242 190.366 629.059C190.225 631.649 190.341 633.8 190.471 635.255C190.632 637.06 190.964 639.441 191.67 642.146L191.905 642.161C191.594 640.315 191.383 638.703 191.243 637.412Z" fill="#9D413B"/>
    <path d="M828.837 638.584L828.837 638.51C828.853 635.657 829.207 633.622 829.606 632.179C828.966 633.628 828.232 635.788 828.128 638.456C828.09 639.422 828.142 640.338 828.247 641.189C828.486 641.175 828.726 641.16 828.966 641.146C828.886 640.335 828.834 639.476 828.837 638.584V638.584Z" fill="#9D413B"/>
    <path d="M808.348 635.429C808.43 631.864 808.829 629.334 809.261 627.547C808.589 629.333 807.805 632.003 807.64 635.332C807.521 637.742 807.755 639.925 808.09 641.697C808.292 641.701 808.498 641.706 808.697 641.709C808.473 639.947 808.299 637.806 808.346 635.521L808.348 635.429Z" fill="#9D413B"/>
    <path d="M794.808 625.31C794.744 626.162 794.714 627.066 794.747 628.032C794.847 630.998 795.446 633.398 795.976 635.019C795.632 632.98 795.355 630.538 795.305 627.775C795.289 626.934 795.301 626.131 795.326 625.349C795.151 625.336 794.98 625.323 794.808 625.31Z" fill="#9D413B"/>
    <path d="M766.021 638.068C766.096 635.672 766.415 633.905 766.771 632.616C766.207 633.896 765.57 635.731 765.356 637.978C765.579 638.008 765.8 638.038 766.021 638.068Z" fill="#9D413B"/>
    <path d="M744.908 630.86C744.959 632.849 745.216 634.585 745.527 636.038C745.62 636.044 745.712 636.049 745.806 636.054C745.622 634.406 745.489 632.586 745.468 630.596C745.433 627.393 745.683 624.579 746.014 622.269C745.47 624.135 744.812 627.129 744.908 630.86H744.908Z" fill="#9D413B"/>
    <path d="M721.632 629.254L721.634 629.162C721.715 625.597 722.115 623.067 722.547 621.28C721.874 623.066 721.091 625.736 720.926 629.065C720.792 631.781 721.106 634.2 721.509 636.077C721.694 636.063 721.877 636.049 722.064 636.036C721.803 634.171 721.579 631.807 721.632 629.254Z" fill="#9D413B"/>
    <path d="M679.643 639.74C679.563 639.2 679.295 637.336 679.125 634.808C679.021 633.268 678.978 631.839 678.973 630.543C678.841 631.622 678.721 633.016 678.714 634.644C678.71 635.588 678.741 637.621 679.131 640.158C679.164 640.378 679.197 640.579 679.228 640.757C679.417 640.744 679.609 640.731 679.797 640.717C679.749 640.43 679.698 640.113 679.643 639.74Z" fill="#9D413B"/>
    <path d="M699.52 638.651C699.703 638.627 699.884 638.603 700.066 638.579C700.205 637.013 700.449 635.773 700.716 634.807C700.285 635.784 699.815 637.091 699.52 638.651Z" fill="#9D413B"/>
    <path d="M684.073 634.559C683.728 632.24 683.45 629.463 683.398 626.32C683.376 624.951 683.408 623.669 683.464 622.44C683.306 622.451 683.142 622.461 682.983 622.472C682.861 623.73 682.795 625.11 682.841 626.612C682.942 629.985 683.542 632.715 684.073 634.559Z" fill="#9D413B"/>
    <path d="M615.211 632.625L615.211 632.551C615.228 629.698 615.581 627.662 615.98 626.219C615.34 627.669 614.606 629.829 614.502 632.496C614.422 634.555 614.738 636.385 615.142 637.835C615.343 637.865 615.545 637.895 615.746 637.925C615.46 636.462 615.205 634.623 615.211 632.625V632.625Z" fill="#9D413B"/>
    <path d="M582.146 628.966L582.148 628.874C582.229 625.309 582.629 622.779 583.061 620.992C582.388 622.778 581.605 625.447 581.44 628.777C581.333 630.936 581.513 632.903 581.791 634.566C582.004 634.574 582.22 634.582 582.431 634.591C582.241 632.942 582.103 631.017 582.146 628.966Z" fill="#9D413B"/>
    <path d="M586.034 618.927C585.098 624.735 586.404 629.557 586.485 629.545C586.566 629.533 585.937 624.554 586.763 618.953C586.523 618.944 586.277 618.936 586.034 618.927L586.034 618.927Z" fill="#9D413B"/>
    <path d="M538.596 619.526C538.476 620.727 538.413 622.043 538.457 623.473C538.559 626.721 539.158 629.349 539.688 631.125C539.344 628.891 539.066 626.218 539.015 623.192C538.993 621.886 539.025 620.662 539.08 619.488C538.919 619.501 538.758 619.513 538.596 619.526Z" fill="#9D413B"/>
    <path d="M1024.04 460.149C1022.1 460.447 1019.48 460.733 1016.62 460.674L1016.53 460.672C1012.96 460.591 1010.43 460.191 1008.65 459.759C1010.43 460.431 1013.1 461.215 1016.43 461.38C1019.46 461.53 1022.13 461.121 1024.07 460.654C1024.06 460.485 1024.05 460.32 1024.04 460.149Z" fill="#9D413B"/>
    <path d="M1012.44 476.759C1010.86 476.752 1009.39 476.687 1007.99 476.597C1008.01 476.756 1008.04 476.913 1008.06 477.071C1009.48 477.232 1011.04 477.336 1012.74 477.323C1016.42 477.293 1019.41 476.752 1021.43 476.262C1018.89 476.556 1015.86 476.775 1012.44 476.759L1012.44 476.759Z" fill="#9D413B"/>
    <path d="M1028.69 507.277L1028.62 507.277C1025.77 507.261 1023.73 506.908 1022.29 506.509C1023.74 507.148 1025.9 507.883 1028.56 507.986C1029.43 508.02 1030.25 507.979 1031.03 507.895C1031.02 507.652 1031.01 507.412 1031 507.171C1030.26 507.237 1029.49 507.28 1028.69 507.277Z" fill="#9D413B"/>
    <path d="M1020.88 552.195C1018.39 551.652 1015.45 550.876 1012.22 549.751C1010.87 549.281 1009.61 548.792 1008.42 548.301C1008.37 548.46 1008.33 548.617 1008.28 548.775C1009.49 549.336 1010.84 549.887 1012.33 550.384C1015.81 551.548 1018.82 552.004 1020.88 552.195V552.195Z" fill="#9D413B"/>
    <path d="M1012.44 576.493C1012.46 576.414 1007.63 574.603 1002.99 571.165L1002.92 571.11C1002.45 570.759 1002.02 570.422 1001.61 570.09C1001.53 570.314 1001.45 570.536 1001.38 570.757C1001.69 571.037 1002.02 571.317 1002.37 571.596C1007.21 575.413 1012.41 576.572 1012.44 576.493H1012.44Z" fill="#9D413B"/>
    <path d="M1008.09 599.898C1007 599.524 1005.82 599.046 1004.62 598.428L1004.55 598.394C1002.02 597.078 1000.37 595.835 999.269 594.821C1000.27 596.052 1001.85 597.691 1004.18 599C1005.4 599.684 1006.6 600.156 1007.71 600.486C1007.83 600.29 1007.97 600.093 1008.09 599.898Z" fill="#9D413B"/>
    <path d="M967.35 630.798L967.315 630.733C965.963 628.221 965.298 626.265 964.958 624.807C965.09 626.386 965.48 628.634 966.666 631.025C967.541 632.788 968.635 634.198 969.645 635.261C969.845 635.192 970.043 635.122 970.238 635.052C969.314 633.925 968.261 632.48 967.35 630.798Z" fill="#9D413B"/>
    <path d="M947.296 626.267C947.064 625.078 946.883 623.949 946.722 622.848C946.559 622.901 946.394 622.955 946.229 623.008C946.354 624.157 946.533 625.379 946.802 626.678C947.55 630.279 948.664 633.102 949.54 634.987C948.756 632.559 947.949 629.629 947.296 626.267Z" fill="#9D413B"/>
    <path d="M944.717 636.122C944.319 634.489 944.003 632.964 943.749 631.574C943.826 632.755 943.976 634.27 944.281 636.018C944.435 636.899 944.774 638.657 945.431 640.844C945.619 640.815 945.805 640.787 945.995 640.758C945.719 639.869 945.229 638.226 944.717 636.122V636.122Z" fill="#9D413B"/>
    <path d="M893.779 636.695L893.781 636.602C893.863 633.037 894.263 630.507 894.695 628.72C894.022 630.506 893.238 633.176 893.074 636.505C892.955 638.895 893.183 641.062 893.514 642.827C893.717 642.837 893.922 642.847 894.126 642.858C893.904 641.1 893.733 638.968 893.779 636.695Z" fill="#9D413B"/>
    <path d="M875.188 640.866C875.108 640.388 874.841 638.74 874.671 636.504C874.568 635.142 874.526 633.878 874.522 632.732C874.389 633.686 874.269 634.919 874.261 636.359C874.257 637.194 874.287 638.992 874.675 641.235C874.698 641.369 874.72 641.482 874.742 641.599C874.938 641.612 875.13 641.624 875.324 641.637C875.281 641.407 875.236 641.153 875.188 640.866V640.866Z" fill="#9D413B"/>
    <path d="M878.488 626.062C878.398 627.047 878.352 628.11 878.391 629.253C878.491 632.237 879.09 634.651 879.62 636.282C879.276 634.23 878.999 631.774 878.949 628.995C878.93 627.971 878.953 627.006 878.992 626.07L878.488 626.062V626.062Z" fill="#9D413B"/>
    <path d="M1015.69 317.228C1016.86 317.384 1018.37 317.533 1020.15 317.575C1020.96 317.594 1022.51 317.603 1024.48 317.444C1024.49 317.259 1024.5 317.07 1024.51 316.883C1023.52 316.977 1022.07 317.095 1020.34 317.168C1018.66 317.239 1017.1 317.251 1015.69 317.228V317.228Z" fill="#9D413B"/>
    <path d="M1019.09 335.49C1016.24 335.474 1014.21 335.12 1012.76 334.721C1014.21 335.361 1016.37 336.095 1019.04 336.199C1020.81 336.268 1022.41 336.041 1023.75 335.72C1023.76 335.508 1023.76 335.298 1023.77 335.084C1022.44 335.313 1020.86 335.495 1019.17 335.49L1019.09 335.49Z" fill="#9D413B"/>
    <path d="M1007.13 363.734L1007.04 363.72C1006.91 363.699 1006.78 363.676 1006.65 363.654C1006.68 363.904 1006.71 364.148 1006.74 364.395C1006.76 364.398 1006.77 364.402 1006.79 364.405C1012.85 365.527 1017.98 364.13 1017.97 364.047C1017.96 363.964 1012.84 364.617 1007.13 363.734Z" fill="#9D413B"/>
    <path d="M1017.39 368.386L1017.3 368.384C1013.74 368.303 1011.2 367.903 1009.42 367.471C1011.2 368.143 1013.87 368.927 1017.2 369.092C1020.62 369.261 1023.57 368.723 1025.55 368.188C1025.53 368.044 1025.51 367.901 1025.49 367.756C1023.5 368.086 1020.59 368.452 1017.39 368.386Z" fill="#9D413B"/>
    <path d="M1011.05 394.315C1011.07 394.47 1011.09 394.625 1011.1 394.779C1012.55 394.949 1014.16 395.062 1015.92 395.048C1019.6 395.018 1022.59 394.477 1024.61 393.987C1022.07 394.281 1019.04 394.5 1015.62 394.484C1014 394.476 1012.49 394.41 1011.05 394.315H1011.05Z" fill="#9D413B"/>
    <path d="M1024.59 399.346C1025.48 399.367 1027.28 399.378 1029.55 399.161C1029.54 398.973 1029.53 398.784 1029.52 398.597C1028.58 398.695 1026.9 398.849 1024.78 398.939C1023.1 399.01 1021.54 399.022 1020.13 398.999C1021.3 399.155 1022.82 399.304 1024.59 399.346Z" fill="#9D413B"/>
    <path d="M1011.37 419.073C1011.35 419.261 1011.34 419.446 1011.32 419.635C1014.44 419.807 1017.05 419.486 1018.85 419.146C1016.71 419.261 1014.17 419.271 1011.37 419.073Z" fill="#9D413B"/>
    <path d="M1023.67 424.953C1024.82 425.212 1026.38 425.483 1028.24 425.615C1028.26 425.47 1028.29 425.315 1028.31 425.165C1026.61 425.151 1025.05 425.074 1023.67 424.953Z" fill="#9D413B"/>
    <path d="M1022.63 444.591C1023.3 444.618 1023.95 444.601 1024.57 444.553C1024.6 444.3 1024.62 444.054 1024.65 443.813C1024.04 443.858 1023.41 443.884 1022.76 443.883L1022.69 443.882C1019.83 443.866 1017.8 443.513 1016.35 443.114C1017.8 443.753 1019.96 444.488 1022.63 444.591Z" fill="#9D413B"/>
    <path d="M1006.36 456.022L1006.34 456.018C1006.34 456.26 1006.33 456.508 1006.33 456.745C1012.25 457.76 1017.21 456.417 1017.2 456.334C1017.19 456.252 1012.06 456.905 1006.36 456.022Z" fill="#9D413B"/>
    <path d="M1006.11 159.608C1009.53 159.813 1012.38 159.48 1014.33 159.131C1011.98 159.25 1009.19 159.262 1006.09 159.039C1006.1 159.229 1006.11 159.419 1006.11 159.608Z" fill="#9D413B"/>
    <path d="M1026.65 165.681L1026.62 165.133C1023.92 165.2 1021.48 165.109 1019.41 164.938C1021.1 165.297 1023.61 165.683 1026.65 165.681Z" fill="#9D413B"/>
    <path d="M1006.91 175.834C1007.23 175.908 1007.54 175.988 1007.89 176.05C1014.12 177.17 1019.41 175.771 1019.39 175.688C1019.38 175.605 1014.11 176.259 1008.25 175.379L1008.15 175.365C1007.7 175.295 1007.27 175.221 1006.85 175.146C1006.87 175.373 1006.89 175.612 1006.91 175.834Z" fill="#9D413B"/>
    <path d="M1027.63 179.707C1027.62 179.579 1027.61 179.445 1027.6 179.315C1025.56 179.663 1022.35 180.098 1018.8 180.027L1018.7 180.025C1015.04 179.945 1012.43 179.546 1010.59 179.115C1012.43 179.787 1015.18 180.569 1018.6 180.733C1022.38 180.914 1025.61 180.278 1027.63 179.707Z" fill="#9D413B"/>
    <path d="M1021.08 199.073C1023.14 198.931 1025.95 198.581 1029.15 197.715L1029.14 197.602C1026.81 197.981 1024.8 198.207 1023.25 198.344C1022.58 198.403 1021.71 198.472 1020.68 198.531C1016.73 198.754 1013.23 198.67 1010.34 198.476C1011.53 198.692 1013.06 198.92 1014.88 199.055C1017.47 199.247 1019.62 199.174 1021.07 199.073H1021.08Z" fill="#9D413B"/>
    <path d="M1024.08 222.12C1025.63 222.467 1027.91 222.837 1030.66 222.859C1030.66 222.68 1030.66 222.501 1030.66 222.318C1028.2 222.372 1025.97 222.285 1024.08 222.12Z" fill="#9D413B"/>
    <path d="M1023.94 240.676C1026.38 240.771 1028.5 240.31 1030.04 239.805C1030.06 239.631 1030.07 239.458 1030.09 239.285C1028.53 239.625 1026.41 239.974 1024.07 239.967L1024 239.967C1021.14 239.951 1019.11 239.597 1017.66 239.198C1019.11 239.838 1021.27 240.572 1023.94 240.676Z" fill="#9D413B"/>
    <path d="M1013.2 253.143C1012.35 253.139 1011.54 253.118 1010.74 253.088C1010.73 253.264 1010.71 253.446 1010.7 253.626C1011.59 253.683 1012.52 253.715 1013.5 253.707C1017.18 253.678 1020.17 253.137 1022.19 252.646C1019.65 252.941 1016.62 253.159 1013.2 253.143Z" fill="#9D413B"/>
    <path d="M1017.71 257.659C1018.88 257.814 1020.4 257.963 1022.17 258.005C1023.2 258.03 1025.41 258.042 1028.18 257.707C1028.22 257.703 1028.25 257.699 1028.29 257.694C1028.31 257.499 1028.32 257.305 1028.34 257.113C1028.15 257.137 1027.95 257.161 1027.74 257.186C1027.15 257.255 1025.11 257.482 1022.36 257.599C1020.68 257.669 1019.12 257.682 1017.71 257.659L1017.71 257.659Z" fill="#9D413B"/>
    <path d="M1020.5 275.701C1020.48 275.618 1015.36 276.271 1009.66 275.388L1009.57 275.374C1009.45 275.355 1009.33 275.334 1009.21 275.314C1009.2 275.549 1009.18 275.789 1009.17 276.027C1009.22 276.036 1009.26 276.05 1009.31 276.059C1015.37 277.181 1020.51 275.784 1020.5 275.701Z" fill="#9D413B"/>
    <path d="M1019.92 280.04L1019.83 280.038C1016.26 279.957 1013.73 279.557 1011.94 279.125C1013.73 279.798 1016.4 280.581 1019.73 280.746C1022.36 280.876 1024.72 280.583 1026.57 280.198C1026.58 280.005 1026.59 279.812 1026.61 279.621C1024.76 279.876 1022.43 280.092 1019.92 280.04H1019.92Z" fill="#9D413B"/>
    <path d="M1011.17 312.713C1009.77 312.707 1008.46 312.652 1007.2 312.578L1007.17 313.07C1008.49 313.206 1009.93 313.289 1011.48 313.277C1015.16 313.248 1018.14 312.706 1020.16 312.216C1017.63 312.51 1014.6 312.729 1011.17 312.713V312.713Z" fill="#9D413B"/>
    <path d="M657.647 6.82197L657.647 6.89588C657.631 9.74879 657.278 11.7846 656.878 13.2274C657.518 11.7778 658.252 9.61786 658.356 6.95044C658.374 6.48853 658.366 6.04266 658.348 5.60504C658.104 5.60101 657.859 5.59692 657.616 5.59296C657.635 5.99561 657.649 6.40375 657.647 6.82196V6.82197Z" fill="#9D413B"/>
    <path d="M612.004 10.4838C611.979 8.39319 611.737 6.56775 611.436 5.05005L611.169 5.04877C611.335 6.76764 611.446 8.66883 611.441 10.7475C611.433 14.0436 611.146 16.9348 610.785 19.3069C611.354 17.3949 612.051 14.3232 612.004 10.4838Z" fill="#9D413B"/>
    <path d="M622.134 5.12335C621.957 5.12176 621.782 5.12054 621.605 5.11902C621.637 7.33386 621.553 9.35419 621.399 11.0848C621.726 9.65906 622.075 7.60529 622.134 5.12335Z" fill="#9D413B"/>
    <path d="M587.07 17.7382C587.71 16.2885 588.444 14.1286 588.548 11.4612C588.649 8.8645 588.121 6.62744 587.579 5.06671C587.419 5.06787 587.261 5.06976 587.102 5.07098C587.458 6.64215 587.846 8.86737 587.839 11.3327L587.839 11.4066C587.823 14.2595 587.469 16.2953 587.07 17.7382V17.7382Z" fill="#9D413B"/>
    <path d="M598.459 23.1876C598.583 21.95 598.654 20.5948 598.627 19.1299C598.563 15.6744 597.994 12.8714 597.485 10.9769C597.803 13.3564 598.05 16.2035 598.066 19.4229C598.072 20.75 598.029 21.9936 597.966 23.1923C598.131 23.1907 598.295 23.1892 598.459 23.1876V23.1876Z" fill="#9D413B"/>
    <path d="M514.389 14.0797C514.735 12.6263 515.104 10.4911 515.129 7.90887C514.946 7.92523 514.769 7.94158 514.589 7.95794C514.639 10.2415 514.552 12.3151 514.389 14.0797Z" fill="#9D413B"/>
    <path d="M550.746 24.0327C550.817 23.7634 550.896 23.5057 550.956 23.2205C552.143 17.6749 550.801 12.9497 550.717 12.9599C550.634 12.97 551.232 17.6753 550.289 22.8939L550.274 22.9766C550.205 23.3525 550.133 23.7059 550.06 24.0513C550.288 24.0449 550.518 24.039 550.746 24.0327Z" fill="#9D413B"/>
    <path d="M540.523 17.3943C541.163 15.9446 541.897 13.7847 542.001 11.1173C542.074 9.25922 541.821 7.58966 541.475 6.21454C541.27 6.224 541.064 6.23236 540.86 6.24194C541.101 7.60565 541.297 9.23474 541.292 10.9888L541.292 11.0627C541.276 13.9156 540.923 15.9515 540.523 17.3943V17.3943Z" fill="#9D413B"/>
    <path d="M509.068 25.7636C509.247 22.7985 508.924 20.3216 508.582 18.6186C508.699 20.6718 508.709 23.1025 508.501 25.7994C508.69 25.7875 508.877 25.7756 509.068 25.7636Z" fill="#9D413B"/>
    <path d="M504.431 13.7554C504.423 16.9252 504.136 19.7056 503.774 21.9869C504.343 20.1481 505.04 17.194 504.994 13.5018C504.973 11.8151 504.797 10.3157 504.564 9.01099C504.452 9.02448 504.34 9.03797 504.229 9.05146C504.354 10.4974 504.435 12.0623 504.431 13.7554V13.7554Z" fill="#9D413B"/>
    <path d="M478.249 17.548C478.166 17.5581 478.765 22.2633 477.822 27.4819L477.806 27.5646C477.79 27.6532 477.773 27.7343 477.756 27.8209C478.003 27.8137 478.249 27.8065 478.491 27.7988C479.673 22.2574 478.333 17.5377 478.249 17.548Z" fill="#9D413B"/>
    <path d="M465.575 12.2572C465.354 12.2576 465.138 12.2583 464.913 12.2584C465.106 13.4899 465.249 14.8992 465.245 16.4002L465.245 16.4741C465.229 19.327 464.875 21.3628 464.476 22.8056C465.116 21.356 465.85 19.196 465.954 16.5286C466.015 14.947 465.841 13.5018 465.575 12.2571V12.2572Z" fill="#9D413B"/>
    <path d="M898.013 16.7947C897.685 13.5252 896.903 10.9145 896.25 9.15985C896.749 11.3894 897.214 14.0676 897.477 17.1171C897.612 18.6913 897.674 20.1721 897.69 21.5623C897.833 21.5465 897.978 21.5314 898.122 21.516C898.195 20.1067 898.187 18.5273 898.013 16.7947H898.013Z" fill="#9D413B"/>
    <path d="M873.959 14.3431C874.599 12.8934 875.333 10.7335 875.437 8.0661C875.473 7.13879 875.425 6.26044 875.329 5.43848C875.092 5.45276 874.848 5.46582 874.608 5.47956C874.683 6.26032 874.73 7.08289 874.728 7.93763L874.727 8.01154C874.711 10.8644 874.358 12.9003 873.959 14.3431Z" fill="#9D413B"/>
    <path d="M846.874 12.8939C846.755 16.1619 846.328 18.478 845.877 20.1124C846.569 18.4813 847.381 16.0409 847.581 12.9896C847.806 9.56366 847.178 6.63441 846.622 4.83393C846.495 4.82642 846.36 4.81818 846.232 4.81049C846.564 6.62043 846.988 9.55555 846.877 12.8092L846.874 12.8939V12.8939Z" fill="#9D413B"/>
    <path d="M808.444 19.0214C808.745 18.0038 809.083 16.68 809.348 15.1061C809.726 12.8607 809.808 10.9724 809.813 9.69018C809.82 7.85412 809.672 5.32879 809.021 2.41192L808.919 2.40515C809.137 4.52539 809.219 6.33685 809.244 7.72778C809.254 8.31488 809.26 9.0863 809.244 9.99133C809.182 13.4583 808.845 16.5113 808.444 19.0214L808.444 19.0214Z" fill="#9D413B"/>
    <path d="M800.065 20.0375C800.215 20.0463 800.359 20.0555 800.508 20.0644C800.808 18.745 801.06 17.261 801.181 15.6085C801.417 12.3917 801.093 9.73383 800.75 7.92566C800.86 10.1666 800.86 12.8352 800.597 15.8281C800.465 17.3271 800.279 18.725 800.065 20.0375Z" fill="#9D413B"/>
    <path d="M782.653 6.82197L782.652 6.89588C782.636 9.74879 782.283 11.7846 781.884 13.2274C782.523 11.7778 783.258 9.61786 783.362 6.95044C783.459 4.43756 782.967 2.26502 782.445 0.712463C782.277 0.704343 782.111 0.696593 781.944 0.688843C782.292 2.25207 782.66 4.4223 782.653 6.82196V6.82197Z" fill="#9D413B"/>
    <path d="M740.272 2.98065C740.091 3.00665 739.908 3.0329 739.725 3.05896C739.789 5.53003 739.699 7.76483 739.529 9.6601C739.889 8.10132 740.274 5.78663 740.272 2.98066V2.98065Z" fill="#9D413B"/>
    <path d="M733.638 21.8141C733.83 21.7989 734.017 21.7834 734.207 21.768C734.391 18.6877 734.065 16.1154 733.722 14.3487C733.839 16.482 733.85 19.0088 733.638 21.8141H733.638Z" fill="#9D413B"/>
    <path d="M715.18 12.7044C715.06 15.9723 714.634 18.2885 714.183 19.9228C714.874 18.2918 715.686 15.8514 715.886 12.8C716.072 9.96575 715.674 7.47887 715.215 5.68066C715.051 5.69104 714.886 5.70178 714.722 5.71179C715.004 7.50842 715.274 9.95434 715.183 12.6197L715.18 12.7044V12.7044Z" fill="#9D413B"/>
    <path d="M710.894 23.0609C710.959 22.81 711.032 22.5717 711.089 22.307C712.275 16.7613 710.933 12.0362 710.849 12.0464C710.767 12.0565 711.365 16.7618 710.422 21.9803L710.407 22.0631C710.342 22.4185 710.273 22.7542 710.204 23.0821C710.433 23.0757 710.665 23.0677 710.894 23.0609V23.0609Z" fill="#9D413B"/>
    <path d="M687.476 6.6985C687.503 7.21272 687.585 8.98799 687.506 11.3754C687.457 12.8298 687.359 14.1738 687.236 15.3898C687.474 14.3917 687.73 13.0979 687.898 11.5719C687.995 10.6878 688.164 8.77925 688.027 6.3603C688.022 6.2721 688.017 6.20204 688.011 6.12049C687.822 6.11719 687.632 6.11408 687.442 6.11072C687.453 6.29688 687.465 6.48389 687.476 6.69849V6.6985Z" fill="#9D413B"/>
    <path d="M682.418 18.8875C682.283 20.4283 682.091 21.8666 681.868 23.2072L682.303 23.2104C682.616 21.8748 682.879 20.361 683.002 18.6717C683.233 15.4991 682.906 12.8771 682.56 11.0932C682.674 13.3037 682.677 15.9358 682.418 18.8875L682.418 18.8875Z" fill="#9D413B"/>
    <path d="M1008.35 80.9915C1010.99 80.1189 1013.1 79.1775 1014.51 78.4932C1016.41 77.5739 1018.9 76.2053 1021.59 74.273L1021.54 74.1073C1019.55 75.2843 1017.78 76.2315 1016.39 76.9372C1015.76 77.2618 1014.91 77.6812 1013.91 78.1529C1010.08 79.9599 1006.57 81.3031 1003.62 82.297C1004.88 82.016 1006.49 81.6032 1008.35 80.9915V80.9915Z" fill="#9D413B"/>
    <path d="M1004.15 52.7252C1006.39 51.5284 1008.03 49.9867 1009.11 48.7445C1009.01 48.6152 1008.91 48.483 1008.82 48.3558C1007.64 49.4447 1005.97 50.846 1003.9 52.0485L1003.84 52.0855C1001.37 53.5119 999.431 54.2345 997.984 54.6184C999.559 54.4386 1001.79 53.9822 1004.15 52.7253V52.7252Z" fill="#9D413B"/>
    <path d="M991.194 40.8548C994.163 38.5779 996.357 36.1201 997.778 34.2705L997.477 33.9037C995.93 35.6151 993.665 37.9477 990.91 40.1721L990.827 40.239C987.62 42.8176 985.125 44.3849 983.268 45.3769C985.278 44.5706 988.142 43.1949 991.194 40.8548H991.194Z" fill="#9D413B"/>
    <path d="M974.324 13.699C974.49 13.2947 974.619 12.9656 974.722 12.6993C974.558 12.5988 974.397 12.4951 974.232 12.3958C974.081 12.7802 973.882 13.2788 973.636 13.8671C973.391 14.4543 972.537 16.4787 971.212 19.1281C970.405 20.742 969.61 22.2129 968.859 23.5305C969.603 22.5016 970.518 21.1478 971.473 19.4991C972.026 18.5441 973.183 16.4668 974.324 13.699V13.699Z" fill="#9D413B"/>
    <path d="M960.132 30.4984C961.14 29.1014 962.198 27.4736 963.217 25.588C965.094 22.1158 966.165 19.0468 966.78 16.9117C965.727 19.4365 964.35 22.3922 962.564 25.6061C961.618 27.3085 960.671 28.8724 959.75 30.3086C959.876 30.3719 960.007 30.4351 960.132 30.4985L960.132 30.4984Z" fill="#9D413B"/>
    <path d="M952.41 8.93756C953.3 7.17419 953.773 5.44733 954.018 3.99744C953.828 3.94745 953.636 3.89862 953.444 3.84943C953.096 5.22828 952.585 6.8617 951.818 8.52613L951.787 8.59321C950.587 11.1815 949.42 12.8863 948.457 14.0328C949.641 12.98 951.207 11.3206 952.41 8.93758V8.93756Z" fill="#9D413B"/>
    <path d="M922.456 0.00774316C922.168 2.88634 921.754 5.46611 921.31 7.63958C921.895 5.88622 922.617 3.25665 923.01 0.00549316C922.825 0.00592316 922.64 0.00622316 922.456 0.00775316V0.00774316Z" fill="#9D413B"/>
    <path d="M914.882 12.2714C914.697 14.6919 914.353 17.5403 913.757 20.6719C913.949 20.6725 914.136 20.6696 914.329 20.6711C914.928 17.2341 914.97 14.3046 914.882 12.2714Z" fill="#9D413B"/>
    <path d="M900.321 3.82086C900.437 4.33954 900.829 6.13171 901.169 8.57544C901.377 10.0642 901.515 11.4493 901.607 12.7084C901.667 11.6507 901.692 10.2889 901.59 8.7063C901.53 7.78949 901.362 5.81726 900.804 3.37964C900.712 2.9787 900.629 2.65265 900.567 2.41339C900.381 2.4444 900.196 2.4751 900.009 2.50622C900.093 2.84472 900.201 3.28601 900.321 3.82086H900.321Z" fill="#9D413B"/>
    <path d="M1024.28 126.888C1024.27 126.722 1024.26 126.55 1024.25 126.387C1022.7 126.723 1020.6 127.065 1018.29 127.058L1018.21 127.057C1015.36 127.041 1013.32 126.688 1011.88 126.289C1013.33 126.928 1015.49 127.663 1018.16 127.767C1020.61 127.862 1022.74 127.396 1024.28 126.888Z" fill="#9D413B"/>
    <path d="M1004.94 141.58C1006.46 141.769 1008.16 141.897 1010.04 141.882C1013.72 141.853 1016.71 141.311 1018.73 140.821C1016.19 141.115 1013.16 141.334 1009.74 141.318C1008.02 141.31 1006.41 141.239 1004.9 141.134L1004.94 141.58H1004.94Z" fill="#9D413B"/>
    <path d="M1005.15 112.542C1004.75 112.481 1004.38 112.415 1004.02 112.349C1004 112.573 1003.99 112.797 1003.98 113.022C1004.28 113.092 1004.57 113.168 1004.89 113.228C1010.95 114.349 1016.09 112.952 1016.07 112.869C1016.06 112.786 1010.94 113.439 1005.24 112.557L1005.15 112.542V112.542Z" fill="#9D413B"/>
    <path d="M1017.7 97.3067C1019.15 97.5493 1021.21 97.7816 1023.67 97.7344C1023.67 97.5622 1023.68 97.385 1023.68 97.2145C1021.47 97.3488 1019.45 97.3676 1017.7 97.3067V97.3067Z" fill="#9D413B"/>
    <path d="M1004.76 92.2317C1004.78 92.4215 1004.8 92.6075 1004.82 92.7961C1008.02 92.8102 1010.68 92.3539 1012.5 91.9211C1010.29 92.1483 1007.68 92.2907 1004.76 92.2317Z" fill="#9D413B"/>
    <path d="M618.954 219.922C619.327 219.119 619.808 217.816 619.904 216.15C620.028 213.999 619.446 212.319 619.066 211.436C619.738 211.724 622.114 212.647 624.876 211.768C628.978 210.464 630.246 206.363 630.351 206C630.565 206.415 632.362 209.77 636.385 210.548C640.828 211.408 643.967 208.35 644.207 208.108C644.444 209.268 645.217 212.265 647.894 214.875C650.932 217.836 654.474 218.401 655.604 218.535C655.286 219.153 653.861 222.078 654.934 225.635C655.884 228.787 658.186 230.415 658.845 230.849C658.396 231.583 657.339 233.537 657.504 236.173C657.726 239.718 659.996 241.905 660.521 242.386C659.908 243.054 658.148 245.146 657.839 248.376C657.488 252.05 659.254 254.687 659.739 255.365C659.123 255.734 656.932 257.147 655.94 260.024C654.837 263.221 656.006 265.929 656.275 266.513C655.973 266.752 653.323 268.923 653.419 272.561C653.509 275.965 655.931 277.945 656.275 278.217C655.899 278.506 652.952 280.859 652.923 284.873C652.897 288.352 655.082 290.571 655.493 290.974C655.232 291.13 652.25 292.983 652.029 296.631C651.817 300.133 654.33 302.289 654.599 302.511C654.358 302.78 651.407 306.195 652.587 310.498C653.4 313.46 655.663 314.992 656.275 315.379C655.924 315.93 653.833 319.342 655.046 323.477C655.869 326.282 657.765 327.898 658.51 328.469C658.189 328.959 656.383 331.821 657.28 335.458C658.001 338.379 660.02 339.995 660.633 340.45C660.225 340.791 658.144 342.601 657.867 345.719C657.603 348.691 659.163 350.764 659.515 351.21C658.961 351.604 657.141 353.001 656.442 355.578C655.572 358.79 657.114 361.368 657.39 361.812C657.084 361.797 654.596 361.714 652.881 363.69C651.575 365.194 651.211 367.322 651.917 369.236C651.507 369.242 649.398 369.31 647.727 371.011C646.223 372.542 646.075 374.375 646.051 374.838C645.696 374.632 643.616 373.471 641.064 374.214C638.15 375.063 637.068 377.684 636.944 378C636.343 377.459 634.708 376.134 632.181 375.754C629.555 375.358 627.532 376.22 626.809 376.569C626.746 375.752 626.546 374.477 625.882 373.064C625.188 371.588 624.282 370.588 623.675 370.013C628.454 370.866 635.72 371.319 640.967 367.184C643.499 365.188 649.128 359.384 645.883 331.464C642.604 303.25 636.828 304.855 636.944 288.422C637.04 274.82 641.014 271.36 643.425 242.275C644.253 232.282 643.952 225.538 639.179 221.42C632.639 215.777 621.568 219.079 618.954 219.922L618.954 219.922Z" fill="#155C8D"/>
    <path d="M631.469 249.152C627.832 252.449 622.97 257.415 618.305 264.233C614.052 270.45 611.13 274.718 609.847 280.269C606.365 295.339 617.15 310.366 620.926 315.626C620.926 315.626 633.384 332.984 637 338.952C637.027 338.996 637.08 339.084 637.147 339.198C637.81 340.322 639.701 343.759 640.575 348.492C641.164 351.676 641.646 354.503 640.24 357.478C640.069 357.839 637.449 363.246 632.53 363.246C629.98 363.246 627.01 361.911 625.986 359.618C625.537 358.614 625.492 357.657 625.483 357.257C625.435 354.965 626.617 353.318 627.069 352.749C626.923 352.655 626.711 352.531 626.44 352.416C626.44 352.416 625.925 352.197 625.393 352.125C624.819 352.047 623.794 352.345 622.502 353.498C620.682 355.121 619.91 357.029 619.778 357.367C618.53 360.552 619.265 363.389 619.485 364.189C619.813 365.386 620.268 366.229 620.407 366.477C620.683 366.973 621.559 368.446 623.675 370.013C627.824 373.086 632.6 373.549 632.6 373.549C637.946 374.056 641.975 371.897 643.536 370.928C646.915 368.831 648.578 366.194 650.157 363.69C653.778 357.949 654.579 352.498 654.934 349.962C655.763 344.031 654.955 339.426 654.263 335.485C653.546 331.395 652.854 329.905 651.498 324.919C650.989 323.047 649.031 315.7 647.943 307.999C646.282 296.251 647.078 286.78 647.524 281.885C648.155 274.947 649.284 269.165 649.423 268.458C650.841 261.29 652.012 258.758 653.027 251.53C653.516 248.046 653.921 245.165 653.837 241.316C653.703 235.183 652.41 230.245 651.323 227.022C646.935 231.622 642.506 236.445 638.061 241.498C635.804 244.064 633.607 246.617 631.469 249.153L631.469 249.152Z" fill="#217DBE"/>
    <path d="M666.583 282.404C665.988 282.099 662.225 280.088 661.114 275.614C660.261 272.178 661.493 269.391 661.888 268.58C658.709 270.736 654.752 273.112 650.002 275.361C645.341 277.568 640.992 279.144 637.257 280.281C634.557 280.627 632.709 283.531 633.13 286.766C633.539 289.914 635.947 292.196 638.564 292C640.221 292.125 642.405 292.321 644.955 292.632C649.285 293.16 652.495 293.757 654.856 294.201C658.145 294.818 662.269 295.683 667 296.895C665.403 296.019 664.204 294.768 663.497 293.335C662.539 291.396 662.812 289.603 662.944 288.69C663.446 285.229 665.781 283.08 666.583 282.404L666.583 282.404Z" fill="#4899CB"/>
    <path d="M639.235 239.418C638.495 242.044 637.352 245.973 635.827 250.706C631.857 263.021 629.903 266.497 628.117 273.169C625.862 281.589 625.51 289.215 625.603 294.967C625.737 303.26 627.085 309.439 628.117 314.048C629.489 320.179 631.884 328.456 636.291 337.797C634.129 334.475 632.325 331.837 631.147 330.138C627.737 325.22 625.366 322.117 620.328 314.853C618.834 312.698 617.976 311.434 616.923 309.696C615.555 307.44 613.983 304.848 612.48 301.228C612.48 301.228 610.015 295.293 609.376 289.956C609.143 288.009 609.159 286.194 609.159 286.193C609.17 284.947 609.262 283.943 609.328 283.346C609.447 282.271 609.603 281.432 609.69 281C609.798 280.459 610.113 278.966 610.742 277.202C611.03 276.396 611.63 274.842 613.359 271.806C615.435 268.162 617.379 265.47 619.334 262.763C620.219 261.537 620.842 260.717 621.309 260.114C622.013 259.204 623.221 257.65 624.873 255.799C625.897 254.653 626.864 253.647 627.214 253.284C627.432 253.058 627.635 252.85 628.042 252.435C629.4 251.047 630.022 250.44 630.39 250.116C630.48 250.036 630.771 249.783 631.006 249.566C631.117 249.464 631.169 249.413 631.28 249.318C631.377 249.236 631.407 249.214 631.469 249.152C631.542 249.078 631.572 249.035 631.667 248.918L631.879 248.666C631.88 248.666 632.063 248.449 632.239 248.241C632.511 247.92 632.647 247.76 633.17 247.146C633.17 247.146 633.877 246.316 634.849 245.131C636.474 243.149 639.101 239.599 639.235 239.418V239.418Z" fill="#6BA8CF"/>
    <path d="M651.957 229.665C651.362 226.598 650.553 222.687 647.364 219.046C646.521 218.083 644.718 216.069 641.598 214.689C641.218 214.521 639.453 213.759 636.923 213.413C636.28 213.325 633.163 212.932 628.973 213.962C626.383 214.598 622.404 215.576 619.185 218.783C613.473 224.47 614.887 232.452 615.017 233.118C615.074 233.41 615.15 233.758 615.252 234.149C614.482 234.951 613.383 235.911 611.901 236.728C608.73 238.476 605.663 238.548 604.149 238.475C604.034 239.044 603.927 239.904 604.065 240.93C604.142 241.506 604.432 243.451 606.076 245.09C607.277 246.286 608.62 246.741 609.303 246.92C609.848 245.817 611.326 243.224 614.415 241.595C615.885 240.82 617.269 240.501 618.277 240.363C619.414 241.819 620.917 243.213 622.928 244.29C623.627 244.665 627.762 246.809 632.786 246.039C635.873 245.566 636.75 244.383 640.013 243.201C642.577 242.272 646.426 241.412 651.796 241.985C652.487 238.765 652.893 234.494 651.957 229.665H651.957Z" fill="#217DBE"/>
    <path d="M626.6 235.161C629.007 235.161 630.958 232.901 630.958 230.114C630.958 227.326 629.007 225.066 626.6 225.066C624.193 225.066 622.242 227.326 622.242 230.114C622.242 232.901 624.193 235.161 626.6 235.161Z" fill="white"/>
    <path d="M626.6 233.65C628.286 233.65 629.653 232.067 629.653 230.114C629.653 228.161 628.286 226.578 626.6 226.578C624.914 226.578 623.547 228.161 623.547 230.114C623.547 232.067 624.914 233.65 626.6 233.65Z" fill="black"/>
    <path d="M625.573 230.474C626.502 230.474 627.255 229.602 627.255 228.526C627.255 227.45 626.502 226.578 625.573 226.578C624.644 226.578 623.891 227.45 623.891 228.526C623.891 229.602 624.644 230.474 625.573 230.474Z" fill="white"/>
    <path d="M639.141 215.778C638.229 215.234 636.691 214.84 636.15 215.46C635.408 216.309 636.395 219.219 638.322 219.703C639.262 219.938 640.554 219.629 640.922 218.819C641.389 217.791 640.174 216.394 639.141 215.778Z" fill="#155C8D"/>
    <path d="M644.563 219.449C643.903 219.514 642.842 219.858 642.782 220.404C642.687 221.268 645.089 222.779 646.094 222.065C646.643 221.675 646.834 220.579 646.343 219.944C645.862 219.321 644.935 219.412 644.563 219.449H644.563Z" fill="#155C8D"/>
    <path d="M648.067 242.332C647.793 242.805 648.298 243.865 648.993 243.887C649.671 243.909 650.25 242.937 650.026 242.438C649.767 241.861 648.377 241.797 648.067 242.332Z" fill="#155C8D"/>
    <path d="M642.121 225.782C642.408 227.041 643.648 228.196 644.329 227.939C644.845 227.744 645.037 226.736 644.827 225.995C644.469 224.727 642.858 223.958 642.299 224.333C641.857 224.628 642.085 225.626 642.121 225.782Z" fill="#155C8D"/>
    <path d="M648.122 223.392C647.499 223.565 647.413 224.79 647.41 224.841C647.367 225.556 647.636 226.628 648.265 226.751C648.895 226.873 649.744 226.011 649.76 225.124C649.779 224.127 648.743 223.219 648.122 223.392H648.122Z" fill="#155C8D"/>
    <path d="M630.673 216.331C630.162 216.655 629.799 217.408 630.044 217.787C630.507 218.501 633.194 217.968 633.27 217.329C633.333 216.806 631.713 215.669 630.673 216.331Z" fill="#155C8D"/>
    <path d="M649.495 235.573C649.014 235.941 648.597 236.659 648.824 237.237C649.138 238.035 650.611 238.391 651.38 237.695C652.012 237.123 652.077 235.928 651.422 235.407C650.859 234.957 649.992 235.193 649.495 235.573Z" fill="#155C8D"/>
    <path d="M646.903 228.532C645.984 228.634 645.407 230.027 645.394 231.07C645.373 232.736 646.781 234.433 647.699 234.273C648.74 234.092 649.561 231.454 648.621 229.78C648.333 229.268 647.656 228.448 646.903 228.532Z" fill="#155C8D"/>
    <path d="M644.57 264.364C644.077 265.259 644.331 266.567 644.989 266.86C645.795 267.219 647.374 266.132 647.378 264.905C647.38 264.309 647.011 263.54 646.33 263.366C645.567 263.17 644.861 263.837 644.57 264.364H644.57Z" fill="#155C8D"/>
    <path d="M645.883 269.648C645.715 270.255 646.129 271.031 646.595 271.104C647.373 271.228 648.468 269.424 648.104 268.941C647.796 268.534 646.151 268.679 645.883 269.648Z" fill="#155C8D"/>
    <path d="M644.752 272.462C643.599 272.25 641.464 275.086 642.238 276.456C642.549 277.006 643.303 277.274 643.914 277.204C645.034 277.077 645.723 275.811 645.799 274.792C645.87 273.843 645.447 272.59 644.752 272.462V272.462Z" fill="#155C8D"/>
    <path d="M651.791 354.205C652.348 354.256 653.146 352.609 653.048 351.085C652.928 349.212 651.46 347.642 650.911 347.84C649.967 348.182 650.764 354.112 651.791 354.205Z" fill="#155C8D"/>
    <path d="M652.797 344.304C652.158 344.534 651.943 345.952 652.504 346.8C652.558 346.883 652.99 347.519 653.551 347.466C654.175 347.407 654.639 346.525 654.557 345.802C654.448 344.854 653.387 344.092 652.797 344.304Z" fill="#155C8D"/>
    <path d="M650.869 341.684C650.605 342.341 651.181 343.016 651.54 343.015C652.066 343.013 652.667 341.549 652.294 341.184C652.038 340.934 651.137 341.019 650.869 341.684Z" fill="#155C8D"/>
    <path d="M652.629 336.193C652.158 336.328 652.043 337.781 652.462 338.897C652.753 339.674 653.419 340.593 653.844 340.477C654.284 340.358 654.405 339.153 654.18 338.231C653.917 337.154 653.085 336.061 652.629 336.193Z" fill="#155C8D"/>
    <path d="M643.928 294.03C642.975 293.97 642.047 295.329 641.972 296.526C641.866 298.238 643.487 299.963 644.486 299.743C645.391 299.543 645.862 297.73 645.604 296.359C645.447 295.526 644.875 294.089 643.928 294.03V294.03Z" fill="#155C8D"/>
    <path d="M646.166 301.679C645.445 301.554 644.417 303.144 644.769 303.676C645.052 304.102 646.439 304.172 646.836 303.343C647.159 302.669 646.656 301.764 646.166 301.679Z" fill="#155C8D"/>
    <path d="M640.918 304.747C639.951 305.154 640.083 307.373 641.029 308.903C641.58 309.793 642.798 311.082 643.655 310.861C644.669 310.6 645.169 308.229 644.102 306.562C643.365 305.409 641.752 304.396 640.918 304.747Z" fill="#155C8D"/>
    <path d="M646.665 313.216C646.061 313.359 645.761 314.018 645.827 314.547C645.912 315.229 646.621 315.827 647.28 315.656C647.937 315.486 648.259 314.627 648.006 313.992C647.815 313.512 647.26 313.075 646.665 313.216L646.665 313.216Z" fill="#155C8D"/>
    <path d="M623.675 368.183C623.516 369.208 624.619 370.219 625.728 370.346C626.628 370.448 627.715 369.988 627.907 369.264C628.191 368.195 626.529 366.523 625.1 366.81C624.453 366.939 623.783 367.483 623.675 368.183Z" fill="#155C8D"/>
    <path d="M620.951 364.73C620.836 365.24 620.861 366.088 621.328 366.311C621.833 366.551 622.691 365.984 622.963 365.271C623.272 364.458 622.854 363.375 622.292 363.274C621.751 363.176 621.117 363.994 620.951 364.73V364.73Z" fill="#155C8D"/>
    <path d="M610.313 294.678C610.551 295.582 610.803 296.441 611.052 297.227C612.854 297.456 614.889 297.613 617.187 297.583C620.425 297.541 623.299 297.159 625.662 296.693C625.641 296.121 625.612 295.561 625.602 294.967C625.6 294.816 625.602 294.65 625.6 294.496C623.401 294.915 620.764 295.251 617.799 295.282C614.868 295.312 612.364 295.034 610.313 294.678H610.313Z" fill="#4899CB"/>
    <path d="M625.749 288.055C625.791 287.346 625.85 286.615 625.914 285.876C623.502 286.097 620.5 286.181 617.118 285.815C613.95 285.473 611.325 284.829 609.251 284.179C609.206 284.731 609.166 285.406 609.159 286.193C609.159 286.193 609.158 286.387 609.164 286.693C611.141 287.237 613.502 287.74 616.235 288.029C619.914 288.417 623.17 288.307 625.749 288.055H625.749Z" fill="#4899CB"/>
    <path d="M611.948 274.436C611.458 275.418 611.152 276.132 610.949 276.653C612.818 277.502 615.074 278.369 617.731 279.083C621.055 279.975 624.078 280.381 626.568 280.558C626.679 279.854 626.801 279.143 626.936 278.422C624.653 278.236 621.925 277.84 618.955 277.035C616.142 276.273 613.818 275.331 611.948 274.436V274.436Z" fill="#4899CB"/>
    <path d="M616.859 266.252C616.428 266.878 615.996 267.521 615.56 268.194C617.222 269.127 619.28 270.103 621.751 270.892C624.201 271.675 626.44 272.073 628.363 272.281C628.569 271.551 628.779 270.852 628.994 270.173C627.172 269.973 625.056 269.592 622.741 268.845C620.384 268.085 618.432 267.146 616.859 266.252L616.859 266.252Z" fill="#4899CB"/>
    <path d="M625.142 263.185C627.234 264.024 629.172 264.537 630.852 264.864C631.07 264.277 631.296 263.67 631.533 263.032C629.921 262.782 628.037 262.359 625.98 261.605C624.317 260.995 622.895 260.298 621.694 259.62C621.561 259.79 621.418 259.973 621.309 260.114C621.124 260.353 620.905 260.64 620.664 260.959C621.921 261.713 623.405 262.49 625.142 263.185Z" fill="#4899CB"/>
    <path d="M628.619 255.115C630.506 255.871 632.265 256.359 633.825 256.689C634.027 256.108 634.235 255.504 634.45 254.871C632.967 254.611 631.278 254.202 629.457 253.534C628.828 253.303 628.242 253.058 627.678 252.807C627.5 252.989 627.35 253.143 627.214 253.284C627.058 253.446 626.767 253.75 626.415 254.123C627.106 254.463 627.83 254.799 628.619 255.115V255.115Z" fill="#4899CB"/>
    <path d="M629.947 321.107C629.055 321.497 628.114 321.875 627.117 322.23C626.672 322.388 626.255 322.509 625.825 322.646C626.314 323.329 626.783 323.982 627.242 324.621L627.297 324.604C628.472 324.182 629.571 323.73 630.608 323.265C630.377 322.532 630.153 321.809 629.947 321.107H629.947Z" fill="#4899CB"/>
    <path d="M628.116 314.048C628.06 313.794 627.999 313.518 627.941 313.255C626.375 313.735 624.636 314.177 622.735 314.512C621.904 314.659 621.106 314.772 620.334 314.863C620.857 315.616 621.345 316.316 621.814 316.986C622.052 316.948 622.271 316.926 622.513 316.883C624.695 316.492 626.678 315.971 628.437 315.41C628.329 314.954 628.214 314.483 628.116 314.048Z" fill="#4899CB"/>
    <path d="M626.585 306.264C626.476 305.569 626.374 304.845 626.277 304.104C624.193 304.577 621.737 304.983 618.982 305.136C617.286 305.23 615.727 305.212 614.307 305.133C614.756 305.994 615.2 306.789 615.634 307.536C616.539 307.54 617.484 307.52 618.475 307.463C621.568 307.283 624.305 306.806 626.585 306.264V306.264Z" fill="#4899CB"/>
    <path d="M658.286 289.643C658.312 291.863 660.379 294.514 663.756 296.096C664.804 296.345 665.882 296.608 667 296.895C665.403 296.019 664.204 294.768 663.497 293.335C662.539 291.396 662.811 289.603 662.944 288.69C663.446 285.229 665.781 283.08 666.582 282.404C666.487 282.355 666.287 282.244 666.051 282.102C661.259 283.489 658.254 286.922 658.286 289.643L658.286 289.643Z" fill="#217DBE"/>
    <path d="M661.114 275.614C660.26 272.179 661.493 269.391 661.888 268.58C661.082 269.127 660.224 269.688 659.318 270.257C656.743 273.036 655.96 276.629 657.057 278.938C658.245 281.44 662.009 283.213 666.283 282.668C666.394 282.568 666.501 282.474 666.583 282.404C665.988 282.099 662.225 280.088 661.114 275.614Z" fill="#217DBE"/>
    <path d="M446.954 344.922C447.327 344.119 447.808 342.816 447.904 341.15C448.028 338.999 447.446 337.319 447.066 336.436C447.738 336.724 450.114 337.647 452.876 336.768C456.978 335.464 458.246 331.363 458.351 331C458.565 331.415 460.362 334.77 464.385 335.548C468.828 336.408 471.967 333.35 472.207 333.108C472.444 334.268 473.217 337.265 475.894 339.875C478.932 342.836 482.474 343.401 483.604 343.535C483.286 344.153 481.861 347.078 482.934 350.635C483.884 353.787 486.186 355.415 486.845 355.849C486.396 356.583 485.339 358.537 485.504 361.173C485.726 364.718 487.996 366.905 488.521 367.386C487.908 368.054 486.148 370.146 485.839 373.376C485.488 377.05 487.254 379.687 487.739 380.365C487.123 380.734 484.932 382.147 483.94 385.024C482.837 388.221 484.006 390.929 484.275 391.513C483.973 391.752 481.323 393.923 481.419 397.561C481.509 400.965 483.931 402.945 484.275 403.217C483.899 403.506 480.952 405.859 480.923 409.873C480.897 413.352 483.082 415.571 483.493 415.974C483.232 416.13 480.25 417.983 480.029 421.631C479.817 425.133 482.33 427.289 482.599 427.511C482.358 427.78 479.407 431.195 480.587 435.498C481.4 438.46 483.663 439.992 484.275 440.379C483.924 440.93 481.833 444.342 483.046 448.477C483.869 451.282 485.765 452.898 486.51 453.469C486.189 453.959 484.383 456.821 485.28 460.458C486.001 463.379 488.02 464.995 488.633 465.45C488.225 465.791 486.144 467.601 485.867 470.719C485.603 473.691 487.163 475.764 487.515 476.21C486.961 476.604 485.141 478.001 484.442 480.578C483.572 483.79 485.114 486.368 485.39 486.812C485.084 486.797 482.596 486.714 480.881 488.69C479.575 490.194 479.211 492.322 479.917 494.236C479.507 494.242 477.398 494.31 475.727 496.011C474.223 497.542 474.075 499.375 474.051 499.838C473.696 499.632 471.616 498.471 469.064 499.214C466.15 500.063 465.068 502.684 464.944 503C464.343 502.459 462.708 501.134 460.181 500.754C457.555 500.358 455.532 501.22 454.809 501.569C454.746 500.752 454.546 499.477 453.882 498.064C453.188 496.588 452.282 495.588 451.675 495.013C456.454 495.866 463.72 496.319 468.967 492.184C471.499 490.188 477.128 484.384 473.883 456.464C470.604 428.25 464.828 429.855 464.944 413.422C465.04 399.82 469.014 396.36 471.425 367.275C472.253 357.282 471.952 350.538 467.179 346.42C460.639 340.777 449.568 344.079 446.954 344.922L446.954 344.922Z" fill="#155C8D"/>
    <path d="M459.469 374.152C455.832 377.449 450.97 382.415 446.305 389.233C442.052 395.45 439.13 399.718 437.847 405.269C434.365 420.339 445.15 435.366 448.926 440.626C448.926 440.626 461.384 457.984 465 463.952C465.027 463.996 465.08 464.084 465.147 464.198C465.81 465.322 467.701 468.759 468.575 473.492C469.164 476.676 469.646 479.503 468.24 482.478C468.069 482.839 465.449 488.246 460.53 488.246C457.98 488.246 455.01 486.911 453.986 484.618C453.537 483.614 453.492 482.657 453.483 482.257C453.435 479.965 454.617 478.318 455.069 477.749C454.923 477.655 454.711 477.531 454.44 477.416C454.44 477.416 453.925 477.197 453.393 477.125C452.819 477.047 451.794 477.345 450.502 478.498C448.682 480.121 447.91 482.029 447.778 482.367C446.53 485.552 447.265 488.389 447.485 489.189C447.813 490.386 448.268 491.229 448.407 491.477C448.683 491.973 449.559 493.446 451.675 495.013C455.824 498.086 460.6 498.549 460.6 498.549C465.946 499.056 469.975 496.897 471.536 495.928C474.915 493.831 476.578 491.194 478.157 488.69C481.778 482.949 482.579 477.498 482.934 474.962C483.763 469.031 482.955 464.426 482.263 460.485C481.546 456.395 480.854 454.905 479.498 449.919C478.989 448.047 477.031 440.7 475.943 432.999C474.282 421.251 475.078 411.78 475.524 406.885C476.155 399.947 477.284 394.165 477.423 393.458C478.841 386.29 480.012 383.758 481.027 376.53C481.516 373.046 481.921 370.165 481.837 366.316C481.703 360.183 480.41 355.245 479.323 352.022C474.935 356.622 470.506 361.445 466.061 366.498C463.804 369.064 461.607 371.617 459.469 374.153L459.469 374.152Z" fill="#217DBE"/>
    <path d="M494.583 407.404C493.988 407.099 490.225 405.088 489.114 400.614C488.261 397.178 489.493 394.391 489.888 393.58C486.709 395.736 482.752 398.112 478.002 400.361C473.341 402.568 468.992 404.144 465.257 405.281C462.557 405.627 460.709 408.531 461.13 411.766C461.539 414.914 463.947 417.196 466.564 417C468.221 417.125 470.405 417.321 472.955 417.632C477.285 418.16 480.495 418.757 482.856 419.201C486.145 419.818 490.269 420.683 495 421.895C493.403 421.019 492.204 419.768 491.497 418.335C490.539 416.396 490.812 414.603 490.944 413.69C491.446 410.229 493.781 408.08 494.583 407.404L494.583 407.404Z" fill="#4899CB"/>
    <path d="M467.235 364.418C466.495 367.044 465.352 370.973 463.827 375.706C459.857 388.021 457.903 391.497 456.117 398.169C453.862 406.589 453.51 414.215 453.603 419.967C453.737 428.26 455.085 434.439 456.117 439.048C457.489 445.179 459.884 453.456 464.291 462.797C462.129 459.475 460.325 456.837 459.147 455.138C455.737 450.22 453.366 447.117 448.328 439.853C446.834 437.698 445.976 436.434 444.923 434.696C443.555 432.44 441.983 429.848 440.48 426.228C440.48 426.228 438.015 420.293 437.376 414.956C437.143 413.009 437.159 411.194 437.159 411.193C437.17 409.947 437.262 408.943 437.328 408.346C437.447 407.271 437.603 406.432 437.69 406C437.798 405.459 438.113 403.966 438.742 402.202C439.03 401.396 439.63 399.842 441.359 396.806C443.435 393.162 445.379 390.47 447.334 387.763C448.219 386.537 448.842 385.717 449.309 385.114C450.013 384.204 451.221 382.65 452.873 380.799C453.897 379.653 454.864 378.647 455.214 378.284C455.432 378.058 455.635 377.85 456.042 377.435C457.4 376.047 458.022 375.44 458.39 375.116C458.48 375.036 458.771 374.783 459.006 374.566C459.117 374.464 459.169 374.413 459.28 374.318C459.377 374.236 459.407 374.214 459.469 374.152C459.542 374.078 459.572 374.035 459.667 373.918L459.879 373.666C459.88 373.666 460.063 373.449 460.239 373.241C460.511 372.92 460.647 372.76 461.17 372.146C461.17 372.146 461.877 371.316 462.849 370.131C464.474 368.149 467.101 364.599 467.235 364.418V364.418Z" fill="#6BA8CF"/>
    <path d="M479.957 354.665C479.362 351.598 478.553 347.687 475.364 344.046C474.521 343.083 472.718 341.069 469.598 339.689C469.218 339.521 467.453 338.759 464.923 338.413C464.28 338.325 461.163 337.932 456.973 338.962C454.383 339.598 450.404 340.576 447.185 343.783C441.473 349.47 442.887 357.452 443.017 358.118C443.074 358.41 443.15 358.758 443.252 359.149C442.482 359.951 441.383 360.911 439.901 361.728C436.73 363.476 433.663 363.548 432.149 363.475C432.034 364.044 431.927 364.904 432.065 365.93C432.142 366.506 432.432 368.451 434.076 370.09C435.277 371.286 436.62 371.741 437.303 371.92C437.848 370.817 439.326 368.224 442.415 366.595C443.885 365.82 445.269 365.501 446.277 365.363C447.414 366.819 448.917 368.213 450.928 369.29C451.627 369.665 455.762 371.809 460.786 371.039C463.873 370.566 464.75 369.383 468.013 368.201C470.577 367.272 474.426 366.412 479.796 366.985C480.487 363.765 480.893 359.494 479.957 354.665H479.957Z" fill="#217DBE"/>
    <path d="M454.6 360.161C457.007 360.161 458.958 357.901 458.958 355.114C458.958 352.326 457.007 350.066 454.6 350.066C452.193 350.066 450.242 352.326 450.242 355.114C450.242 357.901 452.193 360.161 454.6 360.161Z" fill="white"/>
    <path d="M454.6 358.65C456.286 358.65 457.653 357.067 457.653 355.114C457.653 353.161 456.286 351.578 454.6 351.578C452.914 351.578 451.547 353.161 451.547 355.114C451.547 357.067 452.914 358.65 454.6 358.65Z" fill="black"/>
    <path d="M453.573 355.474C454.502 355.474 455.255 354.602 455.255 353.526C455.255 352.45 454.502 351.578 453.573 351.578C452.644 351.578 451.891 352.45 451.891 353.526C451.891 354.602 452.644 355.474 453.573 355.474Z" fill="white"/>
    <path d="M467.141 340.778C466.229 340.234 464.691 339.84 464.15 340.46C463.408 341.309 464.395 344.219 466.322 344.703C467.262 344.938 468.554 344.629 468.922 343.819C469.389 342.791 468.174 341.394 467.141 340.778Z" fill="#155C8D"/>
    <path d="M472.563 344.449C471.903 344.514 470.842 344.858 470.782 345.404C470.687 346.268 473.089 347.779 474.094 347.065C474.643 346.675 474.834 345.579 474.343 344.944C473.862 344.321 472.935 344.412 472.563 344.449H472.563Z" fill="#155C8D"/>
    <path d="M476.067 367.332C475.793 367.805 476.298 368.865 476.993 368.887C477.671 368.909 478.25 367.937 478.026 367.438C477.767 366.861 476.377 366.797 476.067 367.332Z" fill="#155C8D"/>
    <path d="M470.121 350.782C470.408 352.041 471.648 353.196 472.329 352.939C472.845 352.744 473.037 351.736 472.827 350.995C472.469 349.727 470.858 348.958 470.299 349.333C469.857 349.628 470.085 350.626 470.121 350.782Z" fill="#155C8D"/>
    <path d="M476.122 348.392C475.499 348.565 475.413 349.79 475.41 349.841C475.367 350.556 475.636 351.628 476.265 351.751C476.895 351.873 477.744 351.011 477.76 350.124C477.779 349.127 476.743 348.219 476.122 348.392H476.122Z" fill="#155C8D"/>
    <path d="M458.673 341.331C458.162 341.655 457.799 342.408 458.044 342.787C458.507 343.501 461.194 342.968 461.27 342.329C461.333 341.806 459.713 340.669 458.673 341.331Z" fill="#155C8D"/>
    <path d="M477.495 360.573C477.014 360.941 476.597 361.659 476.824 362.237C477.138 363.035 478.611 363.391 479.38 362.695C480.012 362.123 480.077 360.928 479.422 360.407C478.859 359.957 477.992 360.193 477.495 360.573Z" fill="#155C8D"/>
    <path d="M474.903 353.532C473.984 353.634 473.407 355.027 473.394 356.07C473.373 357.736 474.781 359.433 475.699 359.273C476.74 359.092 477.561 356.454 476.621 354.78C476.333 354.268 475.656 353.448 474.903 353.532Z" fill="#155C8D"/>
    <path d="M472.57 389.364C472.077 390.259 472.331 391.567 472.989 391.86C473.795 392.219 475.374 391.132 475.378 389.905C475.38 389.309 475.011 388.54 474.33 388.366C473.567 388.17 472.861 388.837 472.57 389.364H472.57Z" fill="#155C8D"/>
    <path d="M473.883 394.648C473.715 395.255 474.129 396.031 474.595 396.104C475.373 396.228 476.468 394.424 476.104 393.941C475.796 393.534 474.151 393.679 473.883 394.648Z" fill="#155C8D"/>
    <path d="M472.752 397.462C471.599 397.25 469.464 400.086 470.238 401.456C470.549 402.006 471.303 402.274 471.914 402.204C473.034 402.077 473.723 400.811 473.799 399.792C473.87 398.843 473.447 397.59 472.752 397.462V397.462Z" fill="#155C8D"/>
    <path d="M479.791 479.205C480.348 479.256 481.146 477.609 481.048 476.085C480.928 474.212 479.46 472.642 478.911 472.84C477.967 473.182 478.764 479.112 479.791 479.205Z" fill="#155C8D"/>
    <path d="M480.797 469.304C480.158 469.534 479.943 470.952 480.504 471.8C480.558 471.883 480.99 472.519 481.551 472.466C482.175 472.407 482.639 471.525 482.557 470.802C482.448 469.854 481.387 469.092 480.797 469.304Z" fill="#155C8D"/>
    <path d="M478.869 466.684C478.605 467.341 479.181 468.016 479.54 468.015C480.066 468.013 480.667 466.549 480.294 466.184C480.038 465.934 479.137 466.019 478.869 466.684Z" fill="#155C8D"/>
    <path d="M480.629 461.193C480.158 461.328 480.043 462.781 480.462 463.897C480.753 464.674 481.419 465.593 481.844 465.477C482.284 465.358 482.405 464.153 482.18 463.231C481.917 462.154 481.085 461.061 480.629 461.193Z" fill="#155C8D"/>
    <path d="M471.928 419.03C470.975 418.97 470.047 420.329 469.972 421.526C469.866 423.238 471.487 424.963 472.486 424.743C473.391 424.543 473.862 422.73 473.604 421.359C473.447 420.526 472.875 419.089 471.928 419.03V419.03Z" fill="#155C8D"/>
    <path d="M474.166 426.679C473.445 426.554 472.417 428.144 472.769 428.676C473.052 429.102 474.439 429.172 474.836 428.343C475.159 427.669 474.656 426.764 474.166 426.679Z" fill="#155C8D"/>
    <path d="M468.918 429.747C467.951 430.154 468.083 432.373 469.029 433.903C469.58 434.793 470.798 436.082 471.655 435.861C472.669 435.6 473.169 433.229 472.102 431.562C471.365 430.409 469.752 429.396 468.918 429.747Z" fill="#155C8D"/>
    <path d="M474.665 438.216C474.061 438.359 473.761 439.018 473.827 439.547C473.912 440.229 474.621 440.827 475.28 440.656C475.937 440.486 476.259 439.627 476.006 438.992C475.815 438.512 475.26 438.075 474.665 438.216L474.665 438.216Z" fill="#155C8D"/>
    <path d="M451.675 493.183C451.516 494.208 452.619 495.219 453.728 495.346C454.628 495.448 455.715 494.988 455.907 494.264C456.191 493.195 454.529 491.523 453.1 491.81C452.453 491.939 451.783 492.483 451.675 493.183Z" fill="#155C8D"/>
    <path d="M448.951 489.73C448.836 490.24 448.861 491.088 449.328 491.311C449.833 491.551 450.691 490.984 450.963 490.271C451.272 489.458 450.854 488.375 450.292 488.274C449.751 488.176 449.117 488.994 448.951 489.73V489.73Z" fill="#155C8D"/>
    <path d="M438.313 419.678C438.551 420.582 438.803 421.441 439.052 422.227C440.854 422.456 442.889 422.613 445.187 422.583C448.425 422.541 451.299 422.159 453.662 421.693C453.641 421.121 453.612 420.561 453.602 419.967C453.6 419.816 453.602 419.65 453.6 419.496C451.401 419.915 448.764 420.251 445.799 420.282C442.868 420.312 440.364 420.034 438.313 419.678H438.313Z" fill="#4899CB"/>
    <path d="M453.749 413.055C453.791 412.346 453.85 411.615 453.914 410.876C451.502 411.097 448.5 411.181 445.118 410.815C441.95 410.473 439.325 409.829 437.251 409.179C437.206 409.731 437.166 410.406 437.159 411.193C437.159 411.193 437.158 411.387 437.164 411.693C439.141 412.237 441.502 412.74 444.235 413.029C447.914 413.417 451.17 413.307 453.749 413.055H453.749Z" fill="#4899CB"/>
    <path d="M439.948 399.436C439.458 400.418 439.152 401.132 438.949 401.653C440.818 402.502 443.074 403.369 445.731 404.083C449.055 404.975 452.078 405.381 454.568 405.558C454.679 404.854 454.801 404.143 454.936 403.422C452.653 403.236 449.925 402.84 446.955 402.035C444.142 401.273 441.818 400.331 439.948 399.436V399.436Z" fill="#4899CB"/>
    <path d="M444.859 391.252C444.428 391.878 443.996 392.521 443.56 393.194C445.222 394.127 447.28 395.103 449.751 395.892C452.201 396.675 454.44 397.073 456.363 397.281C456.569 396.551 456.779 395.852 456.994 395.173C455.172 394.973 453.056 394.592 450.741 393.845C448.384 393.085 446.432 392.146 444.859 391.252L444.859 391.252Z" fill="#4899CB"/>
    <path d="M453.142 388.185C455.234 389.024 457.172 389.537 458.852 389.864C459.07 389.277 459.296 388.67 459.533 388.032C457.921 387.782 456.037 387.359 453.98 386.605C452.317 385.995 450.895 385.298 449.694 384.62C449.561 384.79 449.418 384.973 449.309 385.114C449.124 385.353 448.905 385.64 448.664 385.959C449.921 386.713 451.405 387.49 453.142 388.185Z" fill="#4899CB"/>
    <path d="M456.619 380.115C458.506 380.871 460.265 381.359 461.825 381.689C462.027 381.108 462.235 380.504 462.45 379.871C460.967 379.611 459.278 379.202 457.457 378.534C456.828 378.303 456.242 378.058 455.678 377.807C455.5 377.989 455.35 378.143 455.214 378.284C455.058 378.446 454.767 378.75 454.415 379.123C455.106 379.463 455.83 379.799 456.619 380.115V380.115Z" fill="#4899CB"/>
    <path d="M457.947 446.107C457.055 446.497 456.114 446.875 455.117 447.23C454.672 447.388 454.255 447.509 453.825 447.646C454.314 448.329 454.783 448.982 455.242 449.621L455.297 449.604C456.472 449.182 457.571 448.73 458.608 448.265C458.377 447.532 458.153 446.809 457.947 446.107H457.947Z" fill="#4899CB"/>
    <path d="M456.116 439.048C456.06 438.794 455.999 438.518 455.941 438.255C454.375 438.735 452.636 439.177 450.735 439.512C449.904 439.659 449.106 439.772 448.334 439.863C448.857 440.616 449.345 441.316 449.814 441.986C450.052 441.948 450.271 441.926 450.513 441.883C452.695 441.492 454.678 440.971 456.437 440.41C456.329 439.954 456.214 439.483 456.116 439.048Z" fill="#4899CB"/>
    <path d="M454.585 431.264C454.476 430.569 454.374 429.845 454.277 429.104C452.193 429.577 449.737 429.983 446.982 430.136C445.286 430.23 443.727 430.212 442.307 430.133C442.756 430.994 443.2 431.789 443.634 432.536C444.539 432.54 445.484 432.52 446.475 432.463C449.568 432.283 452.305 431.806 454.585 431.264V431.264Z" fill="#4899CB"/>
    <path d="M486.286 414.643C486.312 416.863 488.379 419.514 491.756 421.096C492.804 421.345 493.882 421.608 495 421.895C493.403 421.019 492.204 419.768 491.497 418.335C490.539 416.396 490.811 414.603 490.944 413.69C491.446 410.229 493.781 408.08 494.582 407.404C494.487 407.355 494.287 407.244 494.051 407.102C489.259 408.489 486.254 411.922 486.286 414.643L486.286 414.643Z" fill="#217DBE"/>
    <path d="M489.114 400.614C488.26 397.179 489.493 394.391 489.888 393.58C489.082 394.127 488.224 394.688 487.318 395.257C484.743 398.036 483.96 401.629 485.057 403.938C486.245 406.44 490.009 408.213 494.283 407.668C494.394 407.568 494.501 407.474 494.583 407.404C493.988 407.099 490.225 405.088 489.114 400.614Z" fill="#217DBE"/>
</svg>
