<svg width="211" height="198" viewBox="0 0 211 198" fill="none" xmlns="http://www.w3.org/2000/svg">
<g filter="url(#filter0_dd_1107_1713)">
<path d="M171 6H44C27.4315 6 14 19.4315 14 36V128C14 144.569 27.4315 158 44 158H171C187.569 158 201 144.569 201 128V36C201 19.4315 187.569 6 171 6Z" fill="white" stroke="#844EA5" stroke-width="4"/>
<path d="M111.784 29.4259C112.246 27.2223 112.966 23.7927 111.093 20.1129C110.076 17.9234 108.337 16.1486 106.167 15.0848C103.863 14.0762 101.266 13.9597 98.8814 14.7581C100.059 14.4483 101.288 14.3815 102.493 14.5616C103.698 14.7417 104.853 15.1651 105.889 15.8057C107.55 16.9599 108.785 18.6271 109.404 20.5506C109.451 20.7007 109.484 20.8179 109.505 20.8941C110.106 23.1369 109.871 25.521 108.844 27.6042C109.153 25.2782 108.634 22.9176 107.378 20.9341C106.583 19.5722 105.396 18.4808 103.97 17.8023C102.633 17.217 101.153 17.0359 99.7141 17.2816C101.037 17.3426 102.32 17.7559 103.43 18.4784C104.674 19.3102 105.641 20.4932 106.208 21.8765C106.921 23.5695 107.061 25.4491 106.605 27.2287C106.096 24.9585 104.859 22.9158 103.082 21.4097C101.732 20.1144 99.9741 19.3259 98.107 19.178C96.8361 19.1389 95.5771 19.4323 94.4551 20.0293C95.619 19.7026 96.8463 19.6707 98.0258 19.9365C99.623 20.3525 101.047 21.2634 102.092 22.5381C105.341 26.114 104.777 31.2882 104.655 32.2614C105.034 32.4268 108.563 33.9116 110.537 32.2117C110.92 31.8826 111.388 31.3096 111.784 29.4259Z" fill="#3A1919"/>
<path d="M53.29 152.915C57.9301 144.534 63.402 131.7 63.2442 116.004C63.0764 99.3094 56.7101 95.5533 57.4442 79.9772C57.6145 76.3641 59.1975 51.2179 79.3486 37.2507C87.6919 31.6246 97.5525 28.6625 107.622 28.7573C117.692 28.8521 127.494 31.9993 135.73 37.7813C155.934 52.2904 156.637 77.4699 156.747 81.4114C157.026 91.4121 154.439 93.6957 153.336 105.249C151.616 123.248 155.912 138.446 160.038 148.8C142.92 152.62 125.496 154.916 107.971 155.658C89.6979 156.431 71.3928 155.512 53.29 152.915Z" fill="#603A33"/>
<path d="M78.7686 155.735C78.9672 152.324 80.0277 138.353 87.6072 128.008C92.3279 121.566 98.0622 118.606 99.6878 118.019C104.536 116.319 109.843 116.466 114.588 118.436C119.636 120.629 122.696 124.47 124.399 126.681C131.939 136.462 132.952 149.397 133.148 153.644C124.621 154.631 115.416 155.382 105.604 155.749C96.0894 156.104 87.1188 156.055 78.7686 155.735Z" fill="#936F6A"/>
<path d="M119.93 63.1091H119.93C118.204 63.1091 116.806 64.5048 116.806 66.2265V67.951C116.806 69.6727 118.204 71.0683 119.93 71.0683H119.93C121.655 71.0683 123.054 69.6727 123.054 67.951V66.2265C123.054 64.5048 121.655 63.1091 119.93 63.1091Z" fill="#3A1919"/>
<path d="M93.2746 63.1091C91.5491 63.1091 90.1504 64.5048 90.1504 66.2265V67.951C90.1504 69.6727 91.5491 71.0683 93.2746 71.0683C95.0001 71.0683 96.3988 69.6727 96.3988 67.951V66.2265C96.3988 64.5048 95.0001 63.1091 93.2746 63.1091Z" fill="#3A1919"/>
<path d="M78.5873 90.8803C81.8526 90.8803 84.4997 89.0402 84.4997 86.7704C84.4997 84.5006 81.8526 82.6606 78.5873 82.6606C75.3218 82.6606 72.6748 84.5006 72.6748 86.7704C72.6748 89.0402 75.3218 90.8803 78.5873 90.8803Z" fill="#893838"/>
<path d="M133.431 90.8804C136.696 90.8804 139.344 89.0402 139.344 86.7705C139.344 84.5007 136.696 82.6606 133.431 82.6606C130.166 82.6606 127.519 84.5007 127.519 86.7705C127.519 89.0402 130.166 90.8804 133.431 90.8804Z" fill="#893838"/>
<path d="M130.448 78.7716C128.003 79.2838 125.692 80.2997 123.664 81.7541C122.632 82.5146 121.691 83.3918 120.861 84.368C120.849 84.3802 120.837 84.393 120.827 84.4064L120.806 84.4303L120.811 84.4343C120.758 84.5111 120.732 84.6036 120.737 84.697C120.743 84.7803 120.774 84.86 120.825 84.9261C120.876 84.9922 120.946 85.0418 121.025 85.0687C121.105 85.0955 121.19 85.0985 121.271 85.0772C121.352 85.0559 121.425 85.0112 121.481 84.9488L121.482 84.9499L121.486 84.945C121.49 84.9399 121.493 84.934 121.497 84.9286C122.281 83.8116 123.224 82.8141 124.295 81.9673C126.112 80.5811 128.217 79.6179 130.455 79.1484C133.921 78.3144 137.509 78.113 141.046 78.5539C137.54 77.8523 133.922 77.9266 130.448 78.7716Z" fill="#3A1919"/>
<path d="M132.382 85.1649C130.052 84.9814 127.709 85.2853 125.503 86.057C124.376 86.4681 123.299 87.0079 122.296 87.6658C122.282 87.6735 122.268 87.6821 122.255 87.6914L122.23 87.7072L122.234 87.7123C122.165 87.7672 122.118 87.8433 122.098 87.9285C122.081 88.005 122.088 88.0847 122.116 88.1574C122.145 88.2303 122.194 88.2932 122.258 88.3382C122.322 88.3832 122.398 88.4083 122.477 88.4106C122.555 88.4127 122.632 88.3918 122.699 88.3504L122.7 88.3516L122.704 88.3483L122.719 88.3366C123.718 87.5402 124.828 86.8927 126.013 86.4145C128.011 85.6483 130.155 85.3376 132.289 85.5053C135.621 85.6686 138.895 86.4322 141.954 87.7592C138.992 86.2065 135.724 85.321 132.382 85.1649Z" fill="#3A1919"/>
<path d="M82.5495 79.2016C84.9942 79.7139 87.3048 80.7297 89.3334 82.1842C90.3657 82.9448 91.3063 83.8219 92.1365 84.7982C92.1486 84.8102 92.16 84.8231 92.1705 84.8366L92.1916 84.8604L92.1863 84.8644C92.2397 84.9413 92.2657 85.0338 92.2603 85.127C92.2541 85.2104 92.2235 85.2902 92.1722 85.3563C92.1209 85.4224 92.0513 85.472 91.972 85.4988C91.8926 85.5257 91.8071 85.5287 91.7262 85.5074C91.6451 85.486 91.5722 85.4414 91.5165 85.379L91.5151 85.3799L91.5116 85.3751C91.5071 85.37 91.5041 85.364 91.4998 85.3586C90.716 84.2417 89.7737 83.2442 88.7026 82.3975C86.8854 81.0111 84.7804 80.0481 82.5419 79.5786C79.0764 78.7445 75.4884 78.5431 71.9512 78.9841C75.4573 78.2825 79.0752 78.3568 82.5495 79.2016Z" fill="#3A1919"/>
<path d="M80.4665 85.165C82.7966 84.9815 85.1393 85.2853 87.345 86.0571C88.4728 86.4682 89.549 87.008 90.5525 87.6659C90.5666 87.6735 90.5801 87.6821 90.5932 87.6914L90.6184 87.7072L90.6147 87.7123C90.6829 87.7673 90.7307 87.8434 90.7505 87.9286C90.767 88.005 90.7606 88.0847 90.7321 88.1575C90.7036 88.2304 90.6541 88.2932 90.59 88.3383C90.5259 88.3833 90.4499 88.4084 90.3715 88.4106C90.2931 88.4127 90.2159 88.3919 90.1493 88.3504L90.1484 88.3517L90.1439 88.3483L90.129 88.3367C89.13 87.5403 88.0205 86.8928 86.835 86.4145C84.8372 85.6483 82.6929 85.3377 80.5592 85.5054C77.2277 85.6687 73.9534 86.4322 70.8945 87.7592C73.8566 86.2066 77.1241 85.321 80.4665 85.165Z" fill="#3A1919"/>
<path d="M116.748 33.4092C120.724 35.1268 124.153 37.8962 126.665 41.4179C125.142 39.9879 123.454 38.5076 121.593 37.0163C119.929 35.6835 118.305 34.4851 116.748 33.4092Z" fill="#965050"/>
<path d="M120.113 39.0354C123.146 40.8105 125.636 43.3791 127.311 46.4637C126.226 45.1618 125.012 43.803 123.66 42.4182C122.451 41.1808 121.261 40.0554 120.113 39.0354Z" fill="#965050"/>
<path d="M125.87 38.2261C128.933 39.9494 131.466 42.4756 133.194 45.5312C132.086 44.2479 130.85 42.9099 129.474 41.5483C128.244 40.3315 127.035 39.2264 125.87 38.2261Z" fill="#965050"/>
<path d="M127.16 156.069C126.531 152.495 126.115 148.887 125.912 145.264C125.594 139.627 125.868 135.289 125.302 135.221C124.532 135.128 124.959 142.653 120.04 148.079C118.423 149.893 116.418 151.321 114.173 152.259C111.929 153.196 109.502 153.618 107.072 153.494C104.642 153.37 102.27 152.703 100.133 151.541C97.9963 150.38 96.1481 148.755 94.725 146.785C91.2576 142.105 91.5618 136.783 90.3214 136.819C89.4251 136.844 89.0205 139.631 87.9768 142.925C86.6753 147.003 84.732 150.849 82.2197 154.318C82.5586 154.56 82.9147 154.833 83.2804 155.142C83.6505 155.453 83.9839 155.761 84.2824 156.058C86.48 156.054 90.0231 156.047 94.4243 156.044C97.8752 156.041 101.21 156.039 105.497 156.043C108.996 156.046 110.853 156.055 116.414 156.062C120.876 156.069 124.572 156.07 127.16 156.069Z" fill="#7F5B58"/>
<path d="M63.3854 123.428C59.1607 132.886 56.187 140.639 54.197 146.164C53.4852 148.005 52.8908 149.888 52.4172 151.804C50.5216 159.726 47.9827 170.336 56.1846 174.85C59.201 176.51 63.561 176.941 73.0063 176.74C78.101 176.632 82.0585 176.014 84.6594 173.51C86.4506 171.785 87.6152 167.752 87.9304 165.04C88.1441 163.201 88.1856 162.325 88.4995 160.673C89.2028 157.618 89.6753 154.515 89.9129 151.391C90.2412 148.267 90.7568 143.287 91.0566 136.588C91.3116 130.891 91.4135 123.889 91.0566 115.847C89.5579 118.257 87.7586 121.096 85.6809 124.268C80.868 131.614 79.2177 133.639 76.373 135.582C75.7715 135.993 69.6413 140.231 66.3478 139.04C63.2113 137.907 61.3546 131.386 63.3854 123.428Z" fill="#603A33"/>
<path d="M151.614 125.557C155.839 135.015 158.812 142.768 160.803 148.293C161.514 150.134 162.108 152.017 162.582 153.933C164.478 161.855 167.017 172.465 158.815 176.979C155.799 178.639 151.438 179.07 141.993 178.87C136.899 178.762 132.941 178.143 130.34 175.639C128.549 173.914 127.384 169.881 127.069 167.169C126.855 165.33 126.814 164.454 126.5 162.802C125.797 159.747 125.324 156.644 125.087 153.52C124.758 150.396 124.243 145.416 123.943 138.717C123.688 133.02 123.586 126.018 123.943 117.976C125.442 120.386 127.241 123.225 129.319 126.397C134.132 133.743 135.782 135.769 138.627 137.711C139.228 138.122 145.358 142.36 148.652 141.169C151.788 140.036 153.645 133.515 151.614 125.557Z" fill="#603A33"/>
<path d="M106.5 101.957C114.377 101.957 120.763 95.8922 120.763 88.4109C120.763 80.9296 114.377 74.8647 106.5 74.8647C98.6223 74.8647 92.2363 80.9296 92.2363 88.4109C92.2363 95.8922 98.6223 101.957 106.5 101.957Z" fill="#C48686"/>
<path d="M106.499 101.957C109.017 101.981 111.496 101.344 113.69 100.111C115.884 98.8788 117.714 97.093 118.999 94.9327C117.225 95.1606 115.424 94.821 113.856 93.9626C112.675 93.3107 111.688 92.3584 110.994 91.2026C110.282 89.8656 109.921 88.3704 109.945 86.8565C109.857 85.3968 109.985 83.9322 110.327 82.5103C108.112 82.7006 105.897 82.8909 103.682 83.0812C103.842 84.4952 103.821 85.9237 103.618 87.3323C103.528 88.7041 103.102 90.033 102.378 91.2026C101.927 91.8722 101.356 92.453 100.693 92.9157C99.6846 93.5452 98.5403 93.9258 97.3548 94.026C96.1521 94.215 94.9405 94.3429 93.7246 94.4093C94.9603 96.7112 96.8041 98.6316 99.0561 99.9622C101.308 101.293 103.882 101.983 106.499 101.957Z" fill="#AF7474"/>
<path d="M111.638 81.4892C112.016 82.3665 111.202 83.3436 110.443 84.2541C109.645 85.2109 108.479 86.6098 106.813 86.5911C105.251 86.5736 104.196 85.321 103.25 84.1971C102.402 83.1892 101.658 82.3049 101.992 81.4892C102.592 80.0237 106.16 80.0339 106.847 80.0358C107.673 80.0383 111.015 80.0478 111.638 81.4892Z" fill="#562929"/>
<path d="M71.7092 48.7312C67.9001 52.3012 65.1419 56.8425 63.7324 61.8638C64.8752 59.62 66.1851 57.2516 67.6876 54.8C69.0303 52.6091 70.3825 50.587 71.7092 48.7312Z" fill="#492A26"/>
<path d="M73.0158 51.8503C69.4678 55.6789 67.0363 60.4025 65.9844 65.5102C66.9661 63.1918 68.1059 60.7374 69.4318 58.1864C70.6168 55.9067 71.8232 53.7947 73.0158 51.8503Z" fill="#492A26"/>
<path d="M65.0999 62.2529C63.207 66.0513 62.3909 70.2937 62.7398 74.5213C62.9751 72.4874 63.3027 70.3112 63.7534 68.0171C64.1563 65.967 64.6142 64.0429 65.0999 62.2529Z" fill="#492A26"/>
<path d="M116.748 33.4092C120.724 35.1268 124.153 37.8962 126.665 41.4179C125.142 39.9879 123.454 38.5076 121.592 37.0163C119.929 35.6835 118.305 34.4851 116.748 33.4092Z" fill="#492A26"/>
<path d="M120.113 39.0354C123.146 40.8105 125.636 43.3791 127.311 46.4637C126.226 45.1618 125.012 43.803 123.66 42.4182C122.451 41.1808 121.261 40.0554 120.113 39.0354Z" fill="#492A26"/>
<path d="M125.87 38.2261C128.933 39.9494 131.466 42.4756 133.194 45.5312C132.086 44.2479 130.85 42.91 129.474 41.5483C128.244 40.3315 127.035 39.2265 125.87 38.2261Z" fill="#492A26"/>
<path d="M65.4591 115.847C65.643 118.104 65.667 120.37 65.5311 122.63C65.3464 125.743 64.8578 128.829 64.0723 131.846C65.4729 129.035 66.247 125.953 66.3412 122.814C66.4309 120.459 66.133 118.106 65.4591 115.847Z" fill="#492A26"/>
<path d="M67.6761 125.518C67.5809 127.37 67.3548 129.215 66.9996 131.035C66.5124 133.543 65.7813 135.997 64.8164 138.362C66.2587 136.23 67.2211 133.811 67.6376 131.272C67.9656 129.37 67.9785 127.425 67.6761 125.518Z" fill="#492A26"/>
<path d="M68.9531 117.976C69.2106 119.368 69.3693 120.776 69.4281 122.192C69.5105 124.139 69.4022 126.09 69.1049 128.016C70.3158 124.768 70.2617 121.186 68.9531 117.976Z" fill="#492A26"/>
<path d="M87.7375 143.208C87.7188 145.063 87.5688 146.914 87.2888 148.748C86.9054 151.273 86.2758 153.756 85.4092 156.159C87.7829 152.285 88.6137 147.664 87.7375 143.208Z" fill="#492A26"/>
<path d="M86.1154 138.312C86.459 141.435 86.2753 144.594 85.5723 147.657C86.9194 144.719 87.1132 141.385 86.1154 138.312Z" fill="#492A26"/>
<path d="M130.412 153.013C130.458 157.429 131.245 161.807 132.741 165.964C130.367 162.09 129.536 157.468 130.412 153.013Z" fill="#492A26"/>
<path d="M127.714 149.069C127.371 152.193 127.554 155.351 128.258 158.414C126.91 155.476 126.717 152.142 127.714 149.069Z" fill="#492A26"/>
<path d="M132.035 145.352C131.691 148.475 131.875 151.634 132.578 154.696C131.231 151.76 131.037 148.424 132.035 145.352Z" fill="#492A26"/>
<path d="M159.62 176.491C166.842 171.738 164.414 161.583 162.583 153.933C162.559 153.83 162.534 153.729 162.509 153.629C162.479 153.508 162.444 153.367 162.401 153.199L162.381 153.123C162.357 153.033 162.332 152.937 162.304 152.836C162.024 151.803 161.634 150.596 160.804 148.293C160.642 147.882 160.426 147.293 160.143 146.479C158.925 143.166 157.397 139.19 155.518 134.641C153.163 125.032 152.426 115.099 153.336 105.248C154.14 96.839 155.724 93.3328 156.422 88.1949C156.51 87.4412 156.565 86.9633 156.579 86.8414V86.8341C156.588 86.7395 156.6 86.6488 156.609 86.5529C156.626 86.3731 156.636 86.2448 156.636 86.2423C156.659 85.9586 156.675 85.6582 156.692 85.3611C156.704 85.1627 156.719 84.9722 156.727 84.7672C156.742 84.4199 156.748 84.0506 156.755 83.6827C156.758 83.5083 156.765 83.3443 156.766 83.1645C156.77 82.6059 156.764 82.0239 156.747 81.4113C156.744 81.307 156.741 81.1801 156.737 81.0467L156.733 80.9138L156.728 80.8072C156.725 80.7204 156.723 80.6325 156.719 80.5365C156.717 80.4895 156.716 80.4437 156.713 80.3943C156.706 80.2226 156.698 80.0357 156.688 79.8383C156.646 78.9822 156.586 78.1392 156.51 77.3093L156.508 77.282L156.506 77.2543C156.5 77.1915 156.494 77.1326 156.489 77.0701C155.764 69.3478 152.916 53.9765 141.179 42.3866C139.533 40.8223 137.801 39.3507 135.991 37.9788L135.964 37.9579C135.884 37.8999 135.811 37.8388 135.73 37.7812C135.106 37.333 134.479 36.9209 133.852 36.5157C130.504 34.4087 126.924 32.6916 123.184 31.3978C123.149 31.3861 123.114 31.374 123.079 31.3625C122.629 31.2099 122.169 31.0639 121.703 30.9223C121.449 30.846 121.199 30.7759 120.949 30.7048C120.573 30.5979 120.2 30.4889 119.816 30.3909L119.815 30.3907C119.372 30.2763 118.938 30.1725 118.507 30.0733C118.236 30.0115 117.965 29.9485 117.698 29.8921C117.489 29.8475 117.287 29.8093 117.081 29.768C115.266 29.4074 113.561 29.1636 112.022 29.0071L111.925 28.9979C111.558 28.9611 111.2 28.9288 110.851 28.901L110.811 28.8983L110.787 28.8967C116.127 30.4806 121.176 32.9099 125.744 36.0917C135.065 42.7358 142.026 52.1668 145.618 63.0202C147.075 67.3876 151.12 80.12 146.284 94.9894C144.342 100.914 141.271 106.409 137.243 111.173C140.443 114.96 143.12 119.159 145.203 123.656C146.987 127.518 155.096 145.065 147.338 158.388C146.066 160.574 143.194 165.505 138.303 166.035C133.606 166.543 128.518 162.832 125.447 156.685C125.68 158.743 126.032 160.785 126.501 162.802C126.815 164.453 126.857 165.33 127.07 167.169C127.306 169.071 127.793 170.932 128.52 172.706C128.865 173.53 129.303 174.312 129.825 175.037C129.983 175.25 130.155 175.451 130.341 175.638C132.614 177.827 135.924 178.575 140.123 178.801L140.173 178.803C140.763 178.835 141.37 178.857 141.994 178.87C151.439 179.07 155.8 178.639 158.817 176.979C159.067 176.789 159.336 176.626 159.62 176.491Z" fill="#492A26"/>
<path d="M80.1418 166.034C77.593 168.55 74.4438 170.377 70.9916 171.341C69.3575 171.76 62.778 173.441 56.9232 169.401C53.8871 167.229 51.6929 164.08 50.7096 160.485L50.707 160.49C50.0394 166.248 50.7773 171.874 56.1849 174.85C59.2012 176.51 63.5613 176.942 73.0066 176.74C78.1012 176.632 82.0587 176.015 84.6596 173.51C86.4509 171.785 87.6155 167.753 87.9306 165.04C88.1444 163.201 88.1858 162.325 88.4998 160.673C88.7106 159.565 88.8986 158.759 88.9573 158.51C89.6192 155.252 90.0331 151.949 90.1953 148.63C89.1866 152.805 86.6909 160.191 80.1418 166.034Z" fill="#492A26"/>
<path d="M58.8845 182.062C58.3904 182.036 58.063 181.221 57.7833 180.524C57.5082 179.81 57.3322 179.062 57.2602 178.299C57.2208 177.124 57.2853 175.947 57.453 174.782C57.4465 174.442 57.5424 174.107 57.7282 173.821C57.9879 173.581 58.2983 173.402 58.6367 173.297C58.975 173.193 59.3326 173.166 59.683 173.217C60.1274 173.223 61.4785 173.24 61.8855 174.041C62.0099 174.347 62.0293 174.685 61.9405 175.003C61.7466 176.173 61.4424 177.323 61.032 178.436C60.805 179.246 60.4911 180.029 60.096 180.772C59.7027 181.456 59.3309 182.086 58.8845 182.062Z" fill="#B78D8D"/>
<path d="M68.6216 183.528C68.1596 183.513 67.8373 182.58 67.5722 181.812C67.2885 180.893 67.1027 179.947 67.0183 178.991C66.6552 176.475 66.4671 175.599 67.0183 175.064C67.1923 174.908 67.3889 174.781 67.6013 174.686C68.104 174.46 68.6554 174.365 69.2047 174.409C69.7148 174.345 70.2314 174.463 70.6622 174.744C70.8292 174.883 70.9635 175.057 71.0558 175.253C71.4653 176.081 71.1104 177.103 70.5986 179.099C70.4128 180.013 70.1513 180.911 69.8168 181.782C69.4546 182.647 69.0794 183.542 68.6216 183.528Z" fill="#B78D8D"/>
<path d="M79.022 182.569C79.5161 182.543 79.8435 181.727 80.1232 181.031C80.3984 180.317 80.5744 179.568 80.6463 178.806C80.6857 177.63 80.6212 176.454 80.4536 175.29C80.46 174.949 80.3642 174.614 80.1783 174.328C79.9186 174.088 79.6082 173.909 79.2698 173.804C78.9315 173.699 78.5739 173.672 78.2236 173.724C77.7791 173.729 76.428 173.747 76.021 174.548C75.8966 174.853 75.8772 175.191 75.966 175.509C76.1599 176.68 76.4642 177.829 76.8745 178.943C77.1016 179.753 77.4154 180.536 77.8106 181.278C78.204 181.963 78.5756 182.594 79.022 182.569Z" fill="#B78D8D"/>
<path d="M135.979 184.698C135.485 184.672 135.158 183.856 134.878 183.16C134.603 182.446 134.427 181.697 134.355 180.935C134.316 179.76 134.38 178.583 134.548 177.418C134.541 177.078 134.637 176.742 134.823 176.457C135.083 176.217 135.393 176.038 135.731 175.933C136.07 175.828 136.427 175.801 136.778 175.852C137.222 175.859 138.573 175.876 138.98 176.677C139.105 176.983 139.124 177.321 139.035 177.639C138.841 178.808 138.537 179.959 138.127 181.073C137.9 181.882 137.586 182.665 137.191 183.408C136.797 184.092 136.426 184.722 135.979 184.698Z" fill="#B78D8D"/>
<path d="M146.379 185.657C146.841 185.642 147.163 184.709 147.427 183.941C147.711 183.022 147.897 182.077 147.982 181.119C148.345 178.604 148.533 177.729 147.982 177.193C147.808 177.038 147.611 176.91 147.399 176.814C146.896 176.589 146.345 176.493 145.796 176.538C145.285 176.473 144.768 176.592 144.338 176.873C144.171 177.012 144.036 177.185 143.944 177.381C143.535 178.211 143.89 179.232 144.402 181.227C144.587 182.142 144.849 183.04 145.183 183.912C145.546 184.777 145.921 185.671 146.379 185.657Z" fill="#B78D8D"/>
<path d="M156.117 184.192C156.611 184.164 156.939 183.349 157.218 182.653C157.493 181.938 157.669 181.19 157.741 180.427C157.78 179.252 157.716 178.075 157.548 176.912C157.554 176.571 157.459 176.236 157.273 175.95C157.013 175.71 156.702 175.53 156.364 175.426C156.026 175.322 155.668 175.294 155.319 175.346C154.874 175.351 153.523 175.369 153.116 176.17C152.991 176.476 152.972 176.813 153.061 177.131C153.255 178.302 153.559 179.452 153.969 180.565C154.197 181.375 154.51 182.158 154.906 182.9C155.299 183.585 155.67 184.215 156.117 184.192Z" fill="#B78D8D"/>
</g>
<defs>
<filter id="filter0_dd_1107_1713" x="0" y="0" width="211" height="197.657" filterUnits="userSpaceOnUse" color-interpolation-filters="sRGB">
<feFlood flood-opacity="0" result="BackgroundImageFix"/>
<feColorMatrix in="SourceAlpha" type="matrix" values="0 0 0 0 0 0 0 0 0 0 0 0 0 0 0 0 0 0 127 0" result="hardAlpha"/>
<feOffset dy="4"/>
<feGaussianBlur stdDeviation="4"/>
<feComposite in2="hardAlpha" operator="out"/>
<feColorMatrix type="matrix" values="0 0 0 0 0 0 0 0 0 0 0 0 0 0 0 0 0 0 0.25 0"/>
<feBlend mode="normal" in2="BackgroundImageFix" result="effect1_dropShadow_1107_1713"/>
<feColorMatrix in="SourceAlpha" type="matrix" values="0 0 0 0 0 0 0 0 0 0 0 0 0 0 0 0 0 0 127 0" result="hardAlpha"/>
<feOffset dx="-4" dy="4"/>
<feGaussianBlur stdDeviation="4"/>
<feComposite in2="hardAlpha" operator="out"/>
<feColorMatrix type="matrix" values="0 0 0 0 0 0 0 0 0 0 0 0 0 0 0 0 0 0 0.25 0"/>
<feBlend mode="normal" in2="effect1_dropShadow_1107_1713" result="effect2_dropShadow_1107_1713"/>
<feBlend mode="normal" in="SourceGraphic" in2="effect2_dropShadow_1107_1713" result="shape"/>
</filter>
</defs>
</svg>
