<svg viewBox="0 0 1041 673" fill="none" xmlns="http://www.w3.org/2000/svg">
    <path d="M930.276 31.5285H109.538C60.3792 31.5285 20.5282 71.3795 20.5282 120.538V559.113C20.5282 608.271 60.3792 648.122 109.538 648.122H930.276C979.434 648.122 1019.29 608.271 1019.29 559.113V120.538C1019.29 71.3795 979.434 31.5285 930.276 31.5285Z" fill="#B6CEE1" stroke="#116619" stroke-width="6"/>
    <path d="M10.3468 40.3962C14.0802 43.5191 30.3872 57.8544 33.3678 82.5644C35.0452 97.2366 31.7441 112.047 23.9944 124.618C23.9917 129.075 23.9889 133.532 23.9861 137.989C25.0232 137.01 49.8968 112.69 42.0006 79.7975C35.744 53.7353 13.6632 42.0771 10.3468 40.3962Z" fill="#48964E"/>
    <path d="M17.0569 128.701C8.9823 135.637 6.59974 141.986 5.91973 146.508C3.13445 165.034 25.505 175.593 28.6391 200.181C30.0691 211.399 26.9366 221.162 23.9805 227.768L23.9875 239.712C41.4527 218.375 42.4272 204.688 40.0084 196.092C35.2337 179.124 13.756 169.631 15.3641 150.788C15.5785 148.344 16.1464 145.945 17.05 143.665C17.0523 138.677 17.0547 133.689 17.0569 128.701Z" fill="#48964E"/>
    <path d="M17.0604 232.674C5.48565 244.641 4.28566 252.946 5.18185 258.219C6.6285 266.731 13.6658 268.101 22.5951 285.077C28.1058 295.553 28.5784 301.026 28.6455 303.67C28.7255 309.923 27.1172 316.082 23.9901 321.497L23.991 330.539C41.6305 318.739 42.9887 308.886 42.9598 304.851C42.909 297.746 38.4361 291.725 29.6047 279.838C21.4098 268.807 15.4083 264.258 14.9215 255.415C14.7654 251.724 15.499 248.049 17.0604 244.7V232.674Z" fill="#48964E"/>
    <path d="M17.0604 325.22V335.103C13.8048 340.271 12.0902 346.261 12.1177 352.369C12.5845 369.455 28.9968 376.064 34.1056 392.065C36.8704 400.725 36.9913 414.222 23.998 434.822C23.9945 430.933 23.991 427.045 23.9876 423.156C26.0384 415.924 26.4201 408.32 25.1039 400.919C20.7622 377.867 0.685835 370.851 0.0169104 353.992C-0.233507 347.682 2.15076 337.868 17.0604 325.22Z" fill="#48964E"/>
    <path d="M17.0501 427.831C4.97676 444.271 4.77025 454.633 6.80518 461.054C10.6864 473.3 24.3096 476.221 27.465 490.052C29.351 498.318 26.4774 506.012 23.9945 510.935C23.9957 514.078 23.9969 517.22 23.998 520.363C37.3567 504.069 38.216 493.78 36.1717 487.248C32.6197 475.899 19.2639 472.709 15.9546 458.324C14.7898 452.761 15.1723 446.984 17.0605 441.623L17.0501 427.831Z" fill="#48964E"/>
    <path d="M17.0612 515.065C8.99151 525.759 9.0124 531.824 10.4206 535.356C13.1376 542.17 22.1154 542.287 25.5465 550.039C28.053 555.702 26.0884 562.023 24.2826 566.146C24.3981 567.501 24.5498 568.909 24.7375 570.368C24.9274 571.825 25.1416 573.223 25.3799 574.563C36.23 556.687 35.4077 548.633 32.7037 544.579C28.6327 538.476 17.7069 537.555 16.3971 530.191C16.1254 528.432 16.3546 526.631 17.0587 524.996L17.0612 515.065Z" fill="#48964E"/>
    <path d="M18.0222 572.507C13.0891 583.935 14.5022 589.32 16.4894 592.115C20.5839 597.873 29.2555 595.641 37.1308 602.851C40.4592 606 42.9026 609.968 44.2167 614.358C44.9419 615.213 45.7119 616.085 46.5267 616.972C47.3524 617.869 48.1675 618.718 48.9719 619.52C49.211 604.959 45.11 599.01 41.3366 596.265C34.4535 591.258 24.7422 594.061 20.6398 587.632C19.2122 585.118 18.7262 582.177 19.2687 579.337C19.0586 578.382 18.8583 577.399 18.668 576.389C18.4183 575.057 18.2031 573.763 18.0222 572.507Z" fill="#48964E"/>
    <path d="M42.0031 622.283C46.7911 638.508 53.2136 643.192 57.9382 644.631C66.9854 647.388 73.8136 639.441 88.7123 639.365C96.1929 639.413 103.556 641.227 110.203 644.66L119.037 644.657C102.87 630.479 91.01 628.438 82.73 629.801C72.3763 631.505 63.8322 639.154 54.9499 635.224C51.4655 633.513 48.6522 630.688 46.9564 627.196C46.2082 626.514 45.4495 625.795 44.6803 625.04C43.7328 624.108 42.8404 623.189 42.0031 622.283Z" fill="#48964E"/>
    <path d="M115.106 651.591C127.369 659.207 134.715 658.829 139.176 657.027C145.937 654.296 147.67 647.647 156.146 644.779C160.852 643.316 165.884 643.273 170.614 644.655H177.173C165.138 636.785 157.597 636.827 152.826 638.581C144.69 641.572 140.989 650.87 130.321 652.01C128.053 652.244 125.761 652.1 123.54 651.584L115.106 651.591Z" fill="#48964E"/>
    <path d="M176.174 651.59C191.651 661.554 201.029 661.231 206.763 659.02C215.799 655.534 218.489 646.308 229.636 643.525C235.059 642.31 240.718 642.705 245.919 644.66L253.388 644.657C239.944 633.895 230.994 633.305 225.357 634.671C213.782 637.475 209.318 650.187 194.515 652.342C190.476 652.902 186.366 652.647 182.428 651.591L176.174 651.59Z" fill="#48964E"/>
    <path d="M249.258 651.582C265.838 664.48 276.984 665.311 284.237 663.447C296.849 660.205 300.696 648.04 316.407 643.82C324.23 641.89 332.436 642.182 340.102 644.66L351.961 644.655C333.752 633.539 321.409 633.567 313.345 635.888C299.746 639.802 293.8 651.537 277.043 653.596C270.737 654.311 264.351 653.625 258.341 651.587L249.258 651.582Z" fill="#48964E"/>
    <path d="M345.465 651.591C365.599 662.904 377.705 661.874 385.027 658.872C394.833 654.852 399.56 645.86 412.771 643.525C418.459 642.583 424.289 642.969 429.804 644.655L443.017 644.658C425.156 629.441 413.953 628.334 406.868 630.539C395.057 634.214 392.044 647.915 376.764 652.231C370.046 653.964 362.974 653.737 356.381 651.577L345.465 651.591Z" fill="#48964E"/>
    <path d="M436.307 651.584C442.658 655.453 452.538 660.082 464.273 659.315C481.079 658.216 487.83 646.955 505.592 642.197C514.149 639.904 527.157 638.613 545.113 644.65L557.538 644.652C526.411 625.02 509.136 625.608 498.952 630.686C488.018 636.138 480.788 648.994 462.926 651.881C457.708 652.701 452.387 652.6 447.203 651.584H436.307Z" fill="#48964E"/>
    <path d="M562.702 651.585C568.452 653.494 574.507 654.314 580.558 654.002C600.049 652.891 608.674 639.807 623.353 634.671C633.854 630.996 650.007 630.496 674.713 644.655L660.42 644.66C650.354 641.913 639.791 641.525 629.551 643.525C608.509 647.856 601.319 660.833 583.509 662.119C576.428 662.63 565.421 661.455 551.171 651.587L562.702 651.585Z" fill="#48964E"/>
    <path d="M678.232 651.584C690.721 656.031 703.969 657.957 717.208 657.249C748.6 655.366 762.648 638.53 787.599 631.572C805.047 626.706 831.514 625.641 869.511 644.671L852.521 644.66C835.629 641.292 818.247 641.207 801.323 644.41C765.319 651.434 753.078 670.21 724.734 672.301C710.686 673.337 690.342 670.448 664.51 651.591L678.232 651.584Z" fill="#48964E"/>
    <path d="M863.063 651.567C886.607 667.621 902.874 668.248 913.515 665.66C932.602 661.019 935.367 645.599 956.862 642.787C972.959 640.681 980.122 648.188 995.268 643.23C1005.77 639.793 1012.88 632.731 1017.11 627.587C1009.96 632.466 1001.87 635.785 993.35 637.327C976.852 640.181 972.486 633.405 958.485 634.671C935.888 636.714 931.904 655.755 909.678 658.725C898.771 660.182 888.074 657.154 877.949 651.549L863.063 651.567Z" fill="#48964E"/>
    <path d="M999.208 69.8698C997.078 77.8959 996.928 86.3192 998.772 94.4161C1003.46 113.868 1018.27 119.09 1024.6 136.621C1027.5 144.66 1029.28 157.114 1022.75 175.443L1022.76 186.227C1042.99 157.86 1042.88 141.801 1038.91 132.342C1033.64 119.792 1018.97 112.695 1008.05 87.2683C1006.39 83.4222 1005.27 80.1954 1004.61 78.1808C1004.06 77.2256 1003.48 76.2551 1002.86 75.2693C1001.65 73.3353 1000.43 71.5367 999.208 69.8698Z" fill="#48964E"/>
    <path d="M1015.82 180.961C1011.89 187.507 1007.1 197.909 1008.95 209.578C1011.34 224.602 1022.78 229.453 1027.25 244.773C1029.47 252.361 1030.52 264.371 1022.75 281.839V294.295C1042.18 265.974 1041.87 250.456 1037.66 241.453C1032.33 230.076 1018.31 223.862 1015.52 206.479C1014.82 201.997 1014.92 197.427 1015.82 192.98V180.961Z" fill="#48964E"/>
    <path d="M1015.82 288.046C1006.9 300.577 1006.59 308.452 1008.44 313.504C1011.7 322.443 1022.43 324.583 1024.6 334.976C1025.36 339.343 1024.71 343.839 1022.75 347.816L1022.76 356.235C1032.27 345.732 1033.16 338.662 1032.12 334.09C1029.58 322.9 1013.72 319.142 1013.31 307.528C1013.28 304.468 1014.15 301.468 1015.81 298.9L1015.82 288.046Z" fill="#48964E"/>
    <path d="M1015.82 351.992C1005.73 364.487 1004.91 372.978 1006.3 378.586C1009.03 389.572 1021.11 392.861 1024.01 406.33C1025.05 411.659 1024.61 417.171 1022.75 422.272V434.384C1035.55 419.748 1036.56 410.288 1034.93 404.264C1031.75 392.556 1017.13 388.512 1014.86 373.569C1014.29 369.557 1014.62 365.469 1015.82 361.6L1015.82 351.992Z" fill="#48964E"/>
    <path d="M1015.82 426.515C1004.79 443.25 1004.97 453.074 1007.55 459.062C1011.73 468.749 1023.75 471.98 1025.04 483.19C1025.39 487.06 1024.59 490.946 1022.75 494.368L1022.75 503.382C1032.03 494.909 1033.54 488.412 1033.23 484.075C1032.34 471.543 1015.58 466.621 1013.75 451.093C1013.29 446.597 1014.01 442.06 1015.82 437.921L1015.82 426.515Z" fill="#48964E"/>
    <path d="M1015.82 499.014C1007.02 507.596 1005.4 514.24 1005.86 518.975C1006.87 529.57 1018.51 532.74 1023.27 545.39C1026.88 554.982 1024.61 564.882 1021.83 572.165C1021.6 573.851 1021.3 575.628 1020.93 577.483C1020.57 579.278 1020.17 580.978 1019.75 582.576C1036.03 561.403 1036.46 549.678 1033.45 542.808C1028.98 532.623 1014.59 527.777 1014.27 515.286C1014.22 512.647 1014.75 510.03 1015.82 507.617L1015.82 499.014Z" fill="#48964E"/>
    <path d="M1014.2 575.757C1009.84 580.03 1006.56 585.276 1004.62 591.064C1001.29 601.346 1004.9 606.523 1000.52 615.745C999.569 617.76 996.178 624.913 989.124 628.141C977.107 633.64 963.034 623.823 962.617 624.765C962.191 625.726 975.865 638.171 990.342 634.283C997.405 632.386 1005.59 626.476 1007.66 618.456C1009.61 610.929 1007.55 596.224 1009.29 592.035C1009.35 591.892 1009.8 590.836 1010.36 589.358C1010.98 587.685 1011.45 586.25 1011.78 585.179C1012.3 583.51 1012.81 581.738 1013.27 579.868C1013.63 578.455 1013.94 577.085 1014.2 575.757Z" fill="#48964E"/>
    <path d="M1001.47 61.5114C1001.37 56.6351 1000.25 51.8343 998.181 47.4151C991.658 33.5863 977.938 28.8425 974.865 27.862C988.36 26.1976 1001.09 32.6254 1006.59 43.5783C1012.43 55.2029 1007.59 66.8654 1006.81 68.643C1005.94 67.3385 1004.98 65.9914 1003.94 64.6156C1003.11 63.5224 1002.29 62.4876 1001.47 61.5114Z" fill="#48964E"/>
    <path d="M43.1074 75.3058C44.178 75.238 38.4338 54.3328 49.1947 41.4384C57.8654 31.0486 73.9217 29.8507 87.2125 30.7765C89.4119 30.2335 91.3744 29.8335 93.0296 29.5356C94.0802 29.3464 95.6591 29.081 97.592 28.8307C98.9585 28.6539 100.173 28.5271 101.193 28.4349C76.8268 18.8415 53.2042 23.3874 43.6608 37.2327C33.201 52.4074 41.9815 75.377 43.1074 75.3058Z" fill="#48964E"/>
    <path d="M93.9102 36.4152C102.92 41.8453 116.869 48.1998 132.092 45.3122C149.99 41.9171 155.559 28.4282 174.15 22.9922C183.451 20.2727 198.036 18.9772 219.103 28.0634H236.353C199.711 5.44149 178.684 6.07507 165.96 12.2196C151.449 19.2267 139.936 37.1661 118.258 37.0115C114.152 36.9709 110.076 36.3133 106.166 35.0608C103.849 35.1485 101.363 35.337 98.7344 35.6677C97.0497 35.8796 95.4401 36.1331 93.9102 36.4152Z" fill="#48964E"/>
    <path d="M228.079 34.994C228.944 35.3655 230.199 35.8987 231.72 36.5247C233.329 37.2753 234.978 37.935 236.661 38.5009C240.168 39.6001 245.142 41.035 251.186 42.359C257.024 43.638 276.468 46.4508 289.033 46.3082C320.503 45.951 334.661 25.56 366.507 19.7456C380.473 17.1958 400.921 16.8869 427.844 28.053C437.861 28.0582 447.878 28.0634 457.896 28.0685C399.445 -5.47043 365.669 -2.9533 345.479 6.02161C327.021 14.2264 308.788 32.7752 274.516 36.1947C264.406 37.1846 254.208 36.7811 244.207 34.9957L228.079 34.994Z" fill="#48964E"/>
    <path d="M437.286 34.9914C465.596 51.2299 483.707 50.326 495.115 46.3082C510.947 40.7325 518.143 27.6528 538.058 24.6155C547.925 23.263 557.975 24.4497 567.256 28.0634H586.506C555.693 5.68429 537.191 4.95595 525.662 9.56331C510.09 15.7864 504.033 33.0253 483.162 37.0114C474.91 38.4536 466.427 37.7578 458.521 34.9905C451.443 34.9908 444.364 34.9911 437.286 34.9914Z" fill="#48964E"/>
    <path d="M571.485 34.9957C596.982 49.3601 614.019 48.7852 625.05 45.3121C642.733 39.7448 651.283 24.7466 672.199 23.5087C680.314 23.1283 688.403 24.6898 695.793 28.0634H718.178C696.641 9.28632 680.986 6.98964 670.428 8.67782C649.18 12.0756 638.772 33.1835 609.666 35.9045C603.46 36.4718 597.205 36.1641 591.084 34.9904C584.551 34.9922 578.018 34.994 571.485 34.9957Z" fill="#48964E"/>
    <path d="M703.477 34.994C726.783 49.3467 740.366 48.8083 748.64 44.9801C759.428 39.9895 761.813 29.122 774.613 24.9106C784.975 21.5015 795.456 24.6605 802.943 28.0599C808.95 28.0605 814.957 28.0611 820.964 28.0617C789.526 7.85254 773.908 8.26014 765.463 13.4001C755.427 19.5093 753.178 33.732 739.786 37.3065C732.496 39.2524 725.544 37.0715 720.901 34.9957L703.477 34.994Z" fill="#48964E"/>
    <path d="M809.739 34.9931C815.789 39.6486 825.205 45.3045 836.74 45.2753C856.236 45.2261 864.499 28.9799 885.881 23.2874C895.544 20.7147 910.126 19.7014 930.432 28.0634C933.816 28.0668 937.197 28.2546 940.56 28.6259C943.741 28.9771 946.679 29.4677 949.349 30.0244C907.174 3.31472 886.881 4.66513 876.141 11.039C865.409 17.408 857.069 33.0336 838.068 35.5357C833.569 36.1109 829.005 35.9275 824.567 34.9931H809.739Z" fill="#48964E"/>
    <path d="M934.578 35.0669C941.184 39.498 948.551 42.6711 956.309 44.4268C966.959 46.7913 978.032 46.4488 988.516 43.4307C979.796 43.5594 971.096 42.5926 962.617 40.553C959.399 39.7762 956.384 38.8836 953.578 37.9281C947.375 36.2526 941 35.2927 934.578 35.0669V35.0669Z" fill="#48964E"/>
    <path d="M101.41 35.4048C107.838 38.3593 117.566 41.6527 128.908 40.4694C152.537 38.0046 160.464 18.485 181.344 14.101C191.498 11.9689 206.67 13.0066 227.939 28.0634C226.906 28.0455 225.873 28.0275 224.84 28.0096C205.872 15.3877 191.931 14.5196 182.672 16.0932C160.602 19.8442 152.632 39.5941 129.016 42.2109C116.358 43.6134 105.462 39.3998 98.4163 35.7754L101.41 35.4048Z" fill="#76B779"/>
    <path d="M95.3166 29.1536C85.4727 25.4876 74.7352 24.9592 64.5788 27.6407C59.6373 29.0252 51.9161 31.1809 46.4277 38.2288C39.199 47.5115 40.6058 58.6408 41.0045 61.2498C40.6717 58.7011 39.5176 47.6986 46.8534 38.7216C52.3326 32.0165 60.2123 29.9397 64.8739 28.7106C73.9135 26.4302 83.4148 26.7632 92.2725 29.6711C93.2873 29.4985 94.302 29.3261 95.3166 29.1536Z" fill="#76B779"/>
    <path d="M237.66 34.9823C252 39.4528 273.205 43.7283 297.002 38.7822C330.164 31.8895 340.922 12.7916 368.942 7.64491C385.526 4.59893 410.17 6.06971 443.834 28.0613L439.167 28.0649C408.29 9.14934 385.263 7.93983 369.975 10.3012C340.724 14.8193 329.915 33.9371 297.666 40.8482C271.862 46.3781 248.691 40.5865 233.399 34.9946C234.82 34.9906 236.24 34.9864 237.66 34.9823Z" fill="#76B779"/>
    <path d="M444.941 34.9912C452.929 40.0391 465.38 46.0804 479.841 44.6481C504.225 42.2332 513.083 20.6748 537.726 17.8641C546.079 16.9114 558.71 17.8318 575.226 28.0738L578.428 28.0634C560.424 15.2718 546.765 13.831 537.394 15.0972C514.299 18.2174 505.779 39.3249 480.948 41.9918C467.881 43.3952 456.562 39.0194 448.925 35.0007C447.597 34.9976 446.269 34.9944 444.941 34.9912Z" fill="#76B779"/>
    <path d="M578.18 34.9873C595.154 43.6952 608.029 44.0214 616.418 42.8772C642.702 39.292 652.867 17.4572 676.737 17.5321C689.165 17.5711 699.182 23.5302 705.283 28.0599C706.237 28.0611 707.192 28.0623 708.147 28.0634C694.849 16.8455 684.006 14.7085 676.848 14.6545C653.408 14.4776 643.263 36.4358 616.085 40.3317C601.595 42.4089 589.063 38.3766 581.209 34.9905L578.18 34.9873Z" fill="#76B779"/>
    <path d="M710.788 34.9947C718.062 40.2465 728.459 45.7932 739.491 43.7627C755.802 40.7608 759.94 23.6929 776.605 19.5981C783.78 17.8351 794.554 18.163 809.898 28.0606L812.55 28.0609C794.731 15.2624 782.829 14.6367 774.982 16.9418C759.326 21.5405 755.488 39.0733 739.159 41.8811C729.507 43.5409 720.566 39.1829 714.296 34.9957C713.126 34.9953 711.957 34.995 710.788 34.9947Z" fill="#76B779"/>
    <path d="M814.955 34.9931C819.827 38.1992 827.321 42.0445 836.555 42.2132C858.284 42.6099 867.535 22.245 889.127 16.9787C899.452 14.4606 914.822 14.852 936.534 28.2863C937.876 28.3995 939.218 28.5127 940.56 28.6259C915.515 11.7737 898.952 11.6916 888.574 14.5438C868.698 20.0065 859.238 39.606 836.888 39.6676C830.25 39.6106 823.717 38.0112 817.804 34.9957C816.854 34.9949 815.905 34.994 814.955 34.9931Z" fill="#76B779"/>
    <path d="M942.44 35.713C946.569 38.605 951.124 40.8354 955.94 42.3239C963.469 44.634 970.024 44.5734 970.051 44.3714C965.338 43.7267 960.69 42.6713 956.161 41.2171C952.257 39.881 948.499 38.1504 944.946 36.0521C944.11 35.9391 943.275 35.826 942.44 35.713Z" fill="#76B779"/>
    <path d="M988.516 31.625C991.866 32.7214 994.959 34.4872 997.606 36.8153C1000.25 39.1435 1002.4 41.9854 1003.92 45.1685C1005.43 48.3515 1006.28 51.8094 1006.42 55.3321C1006.56 58.8548 1005.98 62.3689 1004.72 65.6609L1003.26 63.7362C1005.12 57.5055 1004.64 50.8135 1001.93 44.9062C999.217 38.999 994.45 34.279 988.516 31.625V31.625Z" fill="#76B779"/>
    <path d="M1000.89 72.2494C1000.26 82.8465 1002.22 93.4377 1006.61 103.106C1014.89 120.768 1027.3 124.15 1031.79 138.06C1034.42 146.21 1034.63 158.89 1022.75 178.194L1022.75 180.961C1037.32 159.553 1037.47 145.875 1034.56 137.175C1030.09 123.821 1017.69 120.015 1008.88 100.872C1005.12 92.5862 1002.93 83.6725 1002.43 74.5864C1001.92 73.8075 1001.4 73.0284 1000.89 72.2494Z" fill="#76B779"/>
    <path d="M1015.82 184.986C1013.41 189.821 1010.24 197.931 1011.24 207.509C1013.17 226.011 1028.77 232.242 1032.34 249.345C1033.89 256.745 1033.67 268.5 1022.75 285.279V288.046C1036.28 269.414 1036.85 256.783 1034.85 248.681C1030.95 232.842 1015.36 226.727 1013.09 207.878C1012.36 201.084 1013.32 194.216 1015.89 187.882L1015.82 184.986Z" fill="#76B779"/>
    <path d="M1015.82 292.088C1009.52 300.359 1009.12 306.243 1009.77 309.963C1011.78 321.513 1026.15 324.672 1027.58 336.083C1028.33 342.038 1025.19 347.306 1022.75 350.54L1022.75 351.993C1029 345.097 1029.85 339.901 1029.47 336.415C1028.21 325.102 1012.73 321.778 1010.98 309.852C1010.1 303.818 1013.13 298.335 1015.81 294.662L1015.82 292.088Z" fill="#76B779"/>
    <path d="M1015.82 354.877C1009.05 365.795 1009 373.435 1010.13 378.341C1013.12 391.204 1026.44 394.586 1028.43 407.117C1029.67 414.86 1025.9 421.893 1022.75 426.431V429.612C1031.05 419.546 1031.86 412.226 1031.16 407.486C1029.35 395.193 1016.11 391.535 1012.94 377.603C1011.09 369.49 1013.6 362.01 1015.82 357.202L1015.82 354.877Z" fill="#76B779"/>
    <path d="M1015.82 431.54C1008.4 442.61 1008.31 450.201 1009.4 454.93C1012.39 467.941 1027.27 472.146 1027.7 484.296C1027.89 489.927 1024.89 494.552 1022.75 497.237L1022.75 499.561C1026.34 495.827 1030.01 490.629 1029.76 484.592C1029.27 472.672 1013.94 468.563 1011.09 454.856C1010.08 449.965 1010.53 443.248 1015.82 434.381V431.54Z" fill="#76B779"/>
    <path d="M1015.82 501.71C1012.2 505.779 1008.04 511.875 1008.73 518.754C1009.91 530.546 1024.14 533.781 1028.14 546.46C1029.93 552.144 1030.12 561.166 1021.39 575.016L1020.97 577.285C1032.6 561.775 1032.9 552.126 1030.91 546.128C1027.02 534.456 1012.63 531.24 1011.32 519.049C1010.67 513.035 1013.52 507.801 1015.82 504.514V501.71Z" fill="#76B779"/>
    <path d="M1013.28 579.796C1009.56 584.263 1006.96 589.556 1005.71 595.232C1003.78 604.436 1007.17 608.128 1004.05 616.335C1002.26 621.337 998.873 625.614 994.419 628.509C990.52 630.91 986.009 632.127 981.432 632.014C986.043 632.394 990.662 631.406 994.714 629.174C999.559 626.322 1003.26 621.875 1005.19 616.593C1008.15 608.792 1005.06 604.977 1007.15 595.343C1008.18 590.641 1010.06 586.164 1012.68 582.125L1013.28 579.796Z" fill="#76B779"/>
    <path d="M997.001 639.983C997.064 640.333 990.231 642.707 981.801 642.934C972.39 643.188 966.73 640.613 962.47 639.688C942.876 635.435 931.042 661.361 907.498 664.948C898.802 666.273 885.711 664.976 867.933 651.561L872.47 651.556C887.78 663.167 899.182 664.259 906.393 663.447C930.198 660.764 941.56 633.571 961.584 637.474C966.077 638.35 970.601 640.712 979.883 641.164C989.645 641.638 996.936 639.623 997.001 639.983Z" fill="#76B779"/>
    <path d="M859.281 644.664C846.215 639.293 824.975 632.842 800.917 637.437C768.848 643.563 757.616 664.379 727.649 667.652C715.114 669.021 695.5 667.736 669.584 651.59L674.313 651.588C685.418 658.133 703.568 666.516 724.992 664.553C755.92 661.72 767.454 639.729 798.925 633.453C812.761 630.694 834.433 630.178 864.262 644.667L859.281 644.664Z" fill="#76B779"/>
    <path d="M664.037 644.687C651.154 638.458 640.62 637.651 632.355 638.876C610.917 642.054 603.216 659.13 583.214 660.348C572.328 661.011 562.681 656.679 555.065 651.586L558.275 651.567C563.675 654.63 572.348 658.476 582.771 657.913C602.953 656.821 610.581 640.23 630.473 636.441C638.605 634.893 651.06 635.05 668.132 644.663L664.037 644.687Z" fill="#76B779"/>
    <path d="M549.273 644.651C527.307 632.848 512.883 633.741 503.748 636.773C488.389 641.872 482.538 654.827 465.564 656.917C455.012 658.215 445.882 654.611 440.071 651.584H443.613C450.165 654.716 457.453 655.987 464.679 655.256C482.171 653.136 488.125 638.533 502.641 633.066C511.819 629.609 527.077 628.802 552.323 644.651L549.273 644.651Z" fill="#76B779"/>
    <path d="M436.493 644.699C425.159 635.342 416.761 634.257 411.147 635.039C396.579 637.07 392.128 652.885 376.026 656.068C366.737 657.905 358.204 654.622 352.47 651.582L349.186 651.586C361.832 658.828 370.85 658.786 376.542 657.618C392.27 654.389 397.166 639.573 412.18 637.991C421.167 637.044 428.928 641.349 433.652 644.656L436.493 644.699Z" fill="#76B779"/>
    <path d="M343.431 644.659C338.235 642.101 329.583 638.814 319.691 640.37C302.42 643.088 297.038 658.105 281.064 660.569C274.988 661.506 265.331 660.943 252.012 651.579L255.498 651.583C261.237 655.047 270.054 659.071 280.068 657.747C296.509 655.573 301.906 640.871 318.473 638.046C324.612 637 333.915 637.306 346.475 644.657L343.431 644.659Z" fill="#76B779"/>
    <path d="M247.944 644.659C242.921 641.619 235.444 638.27 227.644 640.094C217.346 642.502 214.939 651.951 204.641 655.533C199.415 657.351 191.183 657.998 178.634 651.591L180.69 651.591C186.805 654.03 195.311 656.168 203.756 653.264C214.324 649.631 216.651 640.901 226.316 638.323C231.473 636.947 239.267 637.176 250.6 644.659H247.944Z" fill="#76B779"/>
    <path d="M175.127 644.655C166.239 639.155 160.08 639.112 156.054 640.149C146.567 642.594 143.858 652.346 133.808 653.984C129.396 654.556 124.916 653.717 121.011 651.586L118.41 651.588C125.345 655.862 130.57 656.207 134.25 655.533C144.054 653.738 146.739 644.014 156.829 641.754C162.921 640.389 168.707 642.419 172.988 644.655H175.127Z" fill="#76B779"/>
    <path d="M113.48 644.655C100.881 635.725 91.215 634.611 84.6115 635.335C72.9818 636.61 67.4532 643.96 59.0088 641.91C50.9137 639.944 46.2258 630.817 43.6255 623.984L45.2295 625.576C47.9039 631.28 52.4117 638.401 59.5984 640.094C68.0881 642.094 73.6296 634.944 84.0212 633.269C91.1383 632.121 101.672 633.358 116.069 644.659L113.48 644.655Z" fill="#76B779"/>
    <path d="M45.3947 615.708C45.0881 611.126 43.8752 604.984 39.3443 600.729C31.9806 593.815 21.6086 597.29 17.4301 591.064C15.7766 588.6 14.7741 584.141 18.4904 575.414C18.619 576.098 18.7476 576.782 18.8762 577.465C17.2405 581.599 15.9684 586.871 18.4262 590.621C22.453 596.765 32.7686 593.143 40.1559 599.475C43.5126 602.352 46.5171 607.5 46.7931 617.26C46.3269 616.743 45.8608 616.225 45.3947 615.708Z" fill="#76B779"/>
    <path d="M24.5267 568.625C30.1619 559.396 29.8582 553.748 28.498 550.279C25.3031 542.13 14.6376 541.809 12.2284 534.009C10.5306 528.513 13.9362 522.549 17.0604 518.385L17.0598 520.986C15.0042 524.117 12.5214 529.002 13.8886 533.788C16.1852 541.828 27.2138 542.118 30.4902 549.892C32.026 553.536 32.245 559.742 24.7701 570.615L24.5267 568.625Z" fill="#76B779"/>
    <path d="M23.9954 513.617C27.8757 508.27 32.3657 500.169 30.8776 491.398C28.5162 477.48 13.1498 473.942 9.8488 459.745C8.55186 454.166 8.79209 445.544 17.0541 433.163L17.0568 436.816C13.8066 442.419 10.3751 450.579 12.2284 459.246C15.3589 473.887 30.8828 477.417 33.3125 490.9C34.2915 496.333 33.3424 504.481 23.9963 515.83L23.9954 513.617Z" fill="#76B779"/>
    <path d="M23.9878 426.901C27.3631 419.487 31.1934 407.891 28.0552 395.533C22.9747 375.526 3.68721 369.495 3.33719 353.254C3.21824 347.736 5.248 339.291 17.0604 328.665V331.654C12.0454 336.702 6.43249 344.146 6.53747 353.096C6.72918 369.433 25.7936 375.553 30.7852 394.5C32.8483 402.331 32.9074 413.871 24.0155 430.083C24.0063 429.022 23.997 427.962 23.9878 426.901Z" fill="#76B779"/>
    <path d="M23.9903 324.704C33.2302 315.786 34.4585 308.487 34.4745 304.519C34.4837 302.232 34.1043 297.556 21.7466 278.953C12.536 265.087 9.34719 262.567 8.90791 256.485C8.3372 248.583 12.9182 241.727 17.0603 237.043V240.621C14.4345 244.232 11.484 249.593 11.7856 255.932C12.1124 262.803 16.0476 266.351 23.4067 276.85C32.9914 290.523 37.7836 297.36 37.7948 304.519C37.8021 309.238 35.9792 317.228 23.9905 327.001L23.9903 324.704Z" fill="#76B779"/>
    <path d="M23.9829 231.693C32.8395 219.498 34.1485 209.883 33.7367 203.397C32.2584 180.113 6.81391 168.925 9.4614 148.722C10.3856 142.973 13.0398 137.642 17.0705 133.439C17.0636 134.7 17.0568 135.96 17.05 137.22C14.3671 140.553 12.569 144.509 11.8225 148.722C8.58688 168.77 34.9487 180.476 36.9095 202.806C37.5483 210.082 35.8001 220.798 23.9846 234.682L23.9829 231.693Z" fill="#76B779"/>
    <path d="M23.9916 129.261C32.5178 118.862 37.3702 105.938 37.7949 92.4977C38.0244 81.6521 35.3223 70.9457 29.9737 61.5079C36.3822 70.5913 39.9282 81.3835 40.1561 92.4977C40.4759 114.728 26.8922 129.321 23.9897 132.305L23.9916 129.261Z" fill="#76B779"/>
    <path d="M601.188 607.468C608.593 608.097 610.786 607.271 612.157 606.501C615.234 604.774 614.609 602.943 618.824 598.77C620.794 596.82 622.788 595.193 627.643 592.65C628.807 592.04 637.29 588.651 638.182 588.354C644.285 586.325 649.911 582.942 651.625 581.912C657.676 578.273 660.722 576.382 661.734 572.892C662.561 570.037 662.34 565.794 659.69 563.872C657.441 562.242 654.433 562.996 653.292 563.282C650.353 564.018 648.703 565.709 645.387 568.919C640.24 573.903 637.671 576.401 636.676 577.08C632.582 579.874 625.365 581.462 623.449 582.127C621.424 582.829 618.299 583.912 615.491 582.592C612.405 581.141 611.468 577.62 611.332 577.08C610.639 574.312 611.637 571.94 613.662 567.308C619.962 552.901 620.716 551.681 622.804 550.128C624.278 549.031 626.188 548.18 630.009 546.477C637.246 543.252 638.212 544.046 641.838 541.753C645.082 539.701 644.133 539.08 650.442 533.592C653.166 531.222 654.9 529.728 657.54 528.116C661.324 525.804 662.209 526.158 666.251 523.928C670.331 521.676 675.414 518.872 675.069 516.089C674.778 513.745 670.715 512.051 667.864 511.902C664.765 511.74 661.573 513.31 660.551 513.834C659.665 514.288 657.636 515.294 654.098 518.452C651.349 520.906 649.066 522.943 646.248 526.29C642.499 530.742 642.934 531.417 640.118 533.914C637.093 536.596 634.523 537.652 632.59 538.424C630.551 539.237 628.191 540.179 627.535 539.39C626.796 538.5 628.795 536.098 630.977 532.196C632.196 530.016 633.295 527.2 635.494 521.566C637.281 516.984 639.097 512.33 640.656 506.211C642.826 497.691 643.999 492.803 641.301 489.567C641.107 489.334 638.835 486.693 635.601 486.883C632.891 487.041 631.178 489.09 630.869 489.46C629.175 491.486 629.05 493.871 628.933 495.58C628.631 500.005 627.746 504.373 627.32 508.788C627.32 508.788 626.712 515.104 624.632 522.317C624.198 523.821 623.247 526.91 616.889 539.605C610.799 551.763 610.078 552.114 608.178 557.322C606.654 561.499 605.106 565.744 604.091 571.711C602.707 579.847 603.522 584.096 601.403 584.918C598.633 585.993 593.981 580.002 593.122 578.905C589.162 573.851 588.184 568.486 587.745 565.912C587.036 561.758 587.917 562.398 587.745 551.846C587.623 544.357 587.158 542.706 588.39 539.605C589.268 537.397 590.732 535.592 593.66 531.981C597.498 527.248 598.435 526.893 600.435 523.928C600.909 523.224 603.278 519.649 604.736 514.479C605.523 511.691 608.501 501.137 603.876 497.62C602.247 496.381 599.808 496.119 597.854 496.761C595.107 497.664 593.915 500.158 593.66 500.734C592.752 502.788 593.274 504.217 593.337 507.177C593.39 509.673 593.014 511.597 592.262 515.445C591.31 520.311 588.563 529.632 585.917 529.511C584.444 529.444 584.174 526.508 581.615 520.599C580.084 517.063 577.137 510.4 571.721 504.922C569.716 502.894 562.967 496.068 558.171 498.05C556.051 498.926 554.766 501.637 554.514 503.848C554.219 506.443 555.388 508.432 555.912 509.324C556.632 510.549 557.491 511.436 559.569 513.083C562.824 515.662 564.548 516.522 566.989 518.237C568.916 519.591 571.35 521.3 573.657 523.928C574.52 524.911 577.383 528.321 579.141 533.699C580.673 538.384 582.033 542.544 580.002 545.403C576.814 549.891 567.664 547.816 566.021 547.444C564.285 547.05 555.535 545.066 552.148 538.102C550.483 534.676 550.863 531.583 547.632 524.894C547.017 523.622 546.231 522.135 544.62 521.458C542.242 520.458 539.008 521.619 537.415 523.713C536.987 524.276 535.733 526.148 536.77 531.337C537.285 533.917 538.788 540.893 545.266 546.584C551.599 552.15 559.011 553.256 560.537 553.457C568.112 554.454 573.543 551.959 576.023 555.175C576.82 556.208 576.784 557.147 576.991 559.255C577.573 565.194 579.213 571.612 581.185 575.899C584.238 582.538 588.279 584.484 587.207 588.14C586.702 589.861 585.388 590.867 584.734 591.361C581.111 594.098 575.577 593.342 572.044 591.146C568.797 589.128 569.622 587.378 565.376 582.126C562.999 579.187 560.398 577.136 555.195 573.035C549.152 568.271 546.092 565.907 544.244 566.789C542.4 567.67 541.765 570.923 542.362 573.322C542.904 575.501 544.35 576.52 547.954 579.335C554.816 584.693 558.246 587.372 560.322 589.75C560.572 590.038 562.787 592.593 565.386 595.433C565.538 595.598 565.572 595.636 565.591 595.656C567.211 597.393 568.443 598.694 570.431 599.844C572.52 601.053 574.195 601.373 576.345 601.884C581.992 603.226 580.958 603.517 586.884 604.998C590.634 605.935 594.104 606.866 601.188 607.468L601.188 607.468Z" fill="#D75047"/>
    <path d="M646.112 573.431C647.359 575.729 649.143 578.53 651.666 581.416C651.758 581.521 651.85 581.617 651.942 581.721C652.281 581.516 652.612 581.317 652.932 581.123C650.659 578.559 648.385 575.995 646.112 573.431Z" fill="#9D413B"/>
    <path d="M612.248 570.653C612.264 570.612 612.279 570.572 612.296 570.53L604.655 568.835C604.647 568.868 604.64 568.901 604.633 568.934C605.634 569.332 606.788 569.721 608.102 570.033C609.635 570.396 611.031 570.573 612.248 570.653V570.653Z" fill="#9D413B"/>
    <path d="M614.727 557.683C615.735 558.105 616.681 558.385 617.539 558.581C617.598 558.453 617.656 558.327 617.713 558.202C615.427 557.279 613.141 556.356 610.855 555.433C611.771 556.138 613.06 556.985 614.727 557.683V557.683Z" fill="#9D413B"/>
    <path d="M627.992 580.794C627.793 580.855 627.592 580.916 627.399 580.973C628.298 582.925 629.424 584.364 630.308 585.313C629.536 583.807 628.764 582.3 627.992 580.794Z" fill="#9D413B"/>
    <path d="M639.406 574.678C639.297 574.781 639.193 574.879 639.09 574.976C640.031 576.525 641.292 578.296 642.97 580.085C644.581 581.801 646.204 583.136 647.666 584.17C647.853 584.07 648.041 583.97 648.219 583.873C645.281 580.808 642.344 577.743 639.406 574.678Z" fill="#9D413B"/>
    <path d="M635.164 495.864C636.438 496.243 638.169 496.62 640.241 496.688C641.138 496.717 641.966 496.681 642.727 496.611C642.744 496.467 642.76 496.323 642.774 496.183C640.237 496.076 637.701 495.97 635.164 495.864L635.164 495.864Z" fill="#9D413B"/>
    <path d="M639.631 534.322C640.122 535.106 640.8 536.021 641.733 536.929C642.803 537.97 643.886 538.689 644.794 539.185C644.858 539.112 644.92 539.042 644.987 538.965C643.261 537.367 641.535 535.77 639.809 534.173C639.749 534.224 639.69 534.272 639.631 534.322Z" fill="#9D413B"/>
    <path d="M647.278 527.803C648.327 528.863 649.38 529.564 650.182 530.013C648.925 528.709 647.668 527.405 646.411 526.1C646.356 526.166 646.304 526.224 646.248 526.29C646.202 526.344 646.165 526.391 646.12 526.444C646.452 526.887 646.823 527.343 647.278 527.803Z" fill="#9D413B"/>
    <path d="M658.631 517.965C659.101 518.97 659.905 520.379 661.249 521.767C662.576 523.136 663.967 524.006 665.067 524.553C665.177 524.497 665.288 524.441 665.404 524.38C663.146 522.242 660.889 520.103 658.631 517.965V517.965Z" fill="#9D413B"/>
    <path d="M660.264 513.982C660.578 514.564 660.975 515.19 661.488 515.826C662.869 517.54 664.418 518.506 665.391 519.011C663.829 517.259 662.267 515.508 660.705 513.756C660.651 513.783 660.596 513.811 660.551 513.834C660.467 513.877 660.369 513.928 660.264 513.982V513.982Z" fill="#9D413B"/>
    <path d="M674.578 517.901C673.372 516.718 672.166 515.536 670.96 514.353C671.289 514.948 671.796 515.719 672.555 516.491C673.236 517.185 673.922 517.676 674.502 518.024C674.529 517.983 674.553 517.942 674.578 517.901Z" fill="#9D413B"/>
    <path d="M580.362 537.669C581.056 537.717 581.804 537.74 582.612 537.713C584.137 537.661 585.47 537.455 586.563 537.214C584.48 537.307 582.397 537.399 580.314 537.492C580.33 537.551 580.347 537.61 580.362 537.669H580.362Z" fill="#9D413B"/>
    <path d="M589.97 523.696C590.523 524.18 591.203 524.701 592.037 525.189C593.284 525.919 594.444 526.329 595.321 526.568C593.56 525.549 591.799 524.53 590.037 523.511C590.015 523.573 589.993 523.635 589.97 523.696H589.97Z" fill="#9D413B"/>
    <path d="M599.606 517.394C601.143 517.659 602.512 517.707 603.659 517.67C603.682 517.611 603.705 517.553 603.728 517.494C600.608 516.906 597.489 516.319 594.369 515.731C595.63 516.332 597.403 517.016 599.606 517.394Z" fill="#9D413B"/>
    <path d="M595.417 503.278C597.072 503.489 599.143 503.611 601.51 503.421C603.332 503.275 604.929 502.973 606.292 502.632C606.288 502.594 606.287 502.554 606.282 502.516C602.66 502.77 599.038 503.024 595.417 503.278Z" fill="#9D413B"/>
    <path d="M593.271 505.773C594.3 505.948 595.496 506.079 596.845 506.083C598.746 506.088 600.379 505.844 601.652 505.56C598.856 505.589 596.059 505.619 593.263 505.648L593.271 505.773L593.271 505.773Z" fill="#9D413B"/>
    <path d="M625.015 520.937C625.777 521.246 626.647 521.542 627.643 521.767C629.483 522.184 631.082 522.222 632.244 522.163C629.866 521.634 627.487 521.104 625.109 520.574C625.077 520.696 625.048 520.814 625.015 520.937H625.015Z" fill="#9D413B"/>
    <path d="M629.287 492.753C630.634 493.263 632.406 493.782 634.529 494.026C637.029 494.314 639.147 494.121 640.654 493.868C636.878 493.439 633.102 493.01 629.326 492.581C629.312 492.639 629.3 492.696 629.287 492.753Z" fill="#9D413B"/>
    <path d="M628.447 500.194C630.205 500.774 632.332 501.332 634.815 501.662C637.445 502.012 639.787 502.02 641.727 501.895L641.77 501.708C637.335 501.16 632.899 500.613 628.463 500.065C628.458 500.108 628.452 500.151 628.447 500.194V500.194Z" fill="#9D413B"/>
    <path d="M583.786 564.084C585.184 564.089 586.43 563.956 587.484 563.774C587.481 563.706 587.478 563.639 587.475 563.573C584.69 563.564 581.906 563.554 579.121 563.545C580.345 563.826 581.93 564.076 583.786 564.084L583.786 564.084Z" fill="#9D413B"/>
    <path d="M557.859 505.465C559.07 504.729 560.639 503.605 562.191 501.948C563.138 500.935 563.869 499.942 564.45 499.038C564.355 498.986 564.259 498.935 564.162 498.885C562.061 501.078 559.96 503.272 557.859 505.465Z" fill="#9D413B"/>
    <path d="M556.924 510.711C557.816 510.214 558.827 509.553 559.858 508.649C561.507 507.205 562.577 505.706 563.238 504.609C561.068 506.567 558.897 508.524 556.727 510.481C556.79 510.557 556.855 510.634 556.924 510.711H556.924Z" fill="#9D413B"/>
    <path d="M578.034 513.335C578.012 513.297 577.988 513.259 577.966 513.221C575.977 515.103 573.987 516.986 571.997 518.868C573.019 518.321 574.362 517.465 575.71 516.159C576.735 515.165 577.482 514.18 578.034 513.335L578.034 513.335Z" fill="#9D413B"/>
    <path d="M536.389 528.363C536.391 528.409 536.393 528.454 536.395 528.501C537.478 528.259 538.665 527.934 539.929 527.487C541.746 526.843 543.295 526.1 544.562 525.395C541.838 526.384 539.113 527.374 536.389 528.363H536.389Z" fill="#9D413B"/>
    <path d="M551.004 572.005C551.341 571.428 551.588 570.878 551.78 570.371C551.723 570.327 551.666 570.284 551.609 570.241C550.535 571.843 549.461 573.445 548.386 575.047C549.128 574.447 550.153 573.464 551.004 572.005Z" fill="#9D413B"/>
    <path d="M548.94 568.308C547.286 570.89 545.632 573.473 543.977 576.055C544.016 576.095 544.058 576.135 544.099 576.175C545.08 575.079 546.139 573.737 547.149 572.1C547.959 570.786 548.583 569.535 549.074 568.399C549.03 568.369 548.984 568.337 548.94 568.308Z" fill="#9D413B"/>
    <path d="M552.453 582.859C553.049 582.412 553.693 581.865 554.337 581.178C555.669 579.758 556.474 578.327 556.955 577.281C555.393 579.092 553.832 580.904 552.271 582.716C552.33 582.763 552.394 582.813 552.453 582.859Z" fill="#9D413B"/>
    <path d="M568.672 587.082C567.86 588.219 567.048 589.356 566.237 590.494C566.664 590.236 567.349 589.749 567.95 588.925C568.384 588.332 568.63 587.757 568.783 587.288C568.747 587.221 568.708 587.15 568.672 587.082H568.672Z" fill="#9D413B"/>
    <path d="M584.743 581.764C585.192 581.689 585.706 581.559 586.261 581.321C587.257 580.892 587.937 580.312 588.324 579.927C587.075 580.462 585.826 580.998 584.577 581.534C584.632 581.61 584.689 581.689 584.743 581.764L584.743 581.764Z" fill="#9D413B"/>
    <path d="M554.622 544.438C555.174 543.835 555.572 543.247 555.864 542.741C555.842 542.722 555.819 542.705 555.796 542.686C554.749 543.819 553.702 544.953 552.655 546.086C553.208 545.735 553.919 545.206 554.622 544.438L554.622 544.438Z" fill="#9D413B"/>
    <path d="M547.235 548.143C548.011 547.621 548.865 546.97 549.735 546.149C550.953 545.002 551.852 543.862 552.496 542.917C550.688 544.62 548.881 546.322 547.073 548.025C547.127 548.064 547.181 548.105 547.235 548.143Z" fill="#9D413B"/>
    <path d="M549.7 530.002C547.585 530.864 545.471 531.726 543.356 532.588C544.248 532.548 545.624 532.379 547.165 531.732C548.27 531.269 549.13 530.698 549.764 530.195C549.744 530.133 549.72 530.066 549.7 530.002Z" fill="#9D413B"/>
    <path d="M639.4 511.644L635.211 510.915C635.732 511.152 636.457 511.419 637.353 511.564C638.161 511.695 638.865 511.688 639.4 511.644Z" fill="#9D413B"/>
    <path d="M627.595 534.948C628.145 535.176 628.651 535.3 629.087 535.374L629.175 535.231C627.966 534.704 626.757 534.177 625.548 533.649C625.965 534.028 626.642 534.555 627.595 534.948V534.948Z" fill="#9D413B"/>
    <path d="M573.306 513.093C573.766 512.914 574.533 512.545 575.257 511.81C575.727 511.333 576.032 510.852 576.233 510.462C576.211 510.43 576.191 510.399 576.169 510.367C575.215 511.276 574.26 512.184 573.306 513.093H573.306Z" fill="#9D413B"/>
    <path d="M567.125 549.603C566.852 550.96 566.578 552.318 566.304 553.675L566.407 553.671C566.612 553.243 566.82 552.71 566.967 552.075C567.199 551.067 567.183 550.199 567.125 549.603Z" fill="#9D413B"/>
    <path d="M585.849 566.397C586.612 566.391 587.264 566.28 587.786 566.15L587.767 566.043L583.215 565.985C583.822 566.184 584.731 566.404 585.849 566.397Z" fill="#9D413B"/>
    <path d="M650.616 564.404C651.209 565.295 651.886 566.23 652.681 567.189C654.304 569.145 655.948 570.664 657.378 571.815C655.197 569.303 653.016 566.791 650.835 564.279C650.762 564.32 650.688 564.36 650.616 564.404Z" fill="#9D413B"/>
    <path d="M337.627 353.155C345.033 353.783 347.225 352.957 348.596 352.188C351.673 350.461 351.048 348.63 355.264 344.457C357.233 342.507 359.228 340.88 364.082 338.336C365.247 337.726 373.729 334.338 374.621 334.041C380.724 332.012 386.35 328.629 388.064 327.599C394.115 323.96 397.161 322.069 398.173 318.579C399.001 315.724 398.78 311.481 396.13 309.559C393.881 307.929 390.873 308.682 389.731 308.969C386.792 309.705 385.142 311.396 381.827 314.606C376.679 319.59 374.11 322.088 373.116 322.767C369.021 325.561 361.804 327.149 359.888 327.813C357.863 328.516 354.738 329.599 351.93 328.279C348.845 326.828 347.907 323.306 347.772 322.767C347.078 319.999 348.077 317.627 350.102 312.995C356.401 298.587 357.155 297.368 359.243 295.815C360.717 294.718 362.628 293.867 366.448 292.164C373.686 288.939 374.651 289.733 378.278 287.439C381.521 285.388 380.572 284.766 386.881 279.279C389.605 276.909 391.339 275.415 393.979 273.802C397.763 271.491 398.648 271.845 402.69 269.615C406.77 267.363 411.853 264.559 411.508 261.776C411.218 259.432 407.154 257.737 404.303 257.588C401.205 257.427 398.012 258.997 396.99 259.521C396.105 259.975 394.075 260.981 390.537 264.138C387.788 266.593 385.505 268.63 382.687 271.977C378.938 276.428 379.373 277.103 376.557 279.601C373.532 282.283 370.962 283.339 369.029 284.111C366.991 284.924 364.631 285.866 363.975 285.077C363.235 284.187 365.234 281.785 367.416 277.883C368.635 275.703 369.735 272.887 371.933 267.252C373.72 262.671 375.536 258.017 377.095 251.897C379.265 243.378 380.438 238.49 377.74 235.254C377.546 235.021 375.274 232.38 372.04 232.569C369.33 232.728 367.618 234.777 367.308 235.146C365.614 237.173 365.489 239.558 365.373 241.267C365.071 245.692 364.185 250.06 363.76 254.474C363.759 254.475 363.151 260.791 361.071 268.004C360.637 269.508 359.686 272.597 353.328 285.292C347.239 297.45 346.517 297.801 344.617 303.009C343.094 307.186 341.545 311.431 340.53 317.398C339.147 325.534 339.961 329.783 337.842 330.605C335.073 331.68 330.42 325.689 329.561 324.592C325.601 319.538 324.623 314.173 324.184 311.599C323.476 307.444 324.356 308.085 324.184 297.533C324.062 290.043 323.597 288.392 324.829 285.292C325.707 283.084 327.171 281.279 330.099 277.668C333.937 272.935 334.875 272.579 336.874 269.615C337.349 268.911 339.717 265.336 341.176 260.165C341.962 257.377 344.94 246.824 340.315 243.307C338.686 242.068 336.247 241.806 334.293 242.448C331.547 243.351 330.354 245.844 330.099 246.421C329.191 248.475 329.713 249.904 329.776 252.864C329.829 255.36 329.453 257.284 328.701 261.132C327.75 265.998 325.002 275.319 322.356 275.198C320.883 275.131 320.613 272.195 318.054 266.286C316.523 262.749 313.576 256.086 308.16 250.609C306.155 248.581 299.406 241.754 294.61 243.737C292.49 244.613 291.205 247.324 290.954 249.535C290.658 252.13 291.827 254.119 292.352 255.011C293.071 256.236 293.93 257.123 296.008 258.77C299.263 261.349 300.988 262.209 303.428 263.924C305.356 265.278 307.789 266.987 310.096 269.615C310.959 270.598 313.822 274.008 315.581 279.386C317.112 284.071 318.472 288.23 316.441 291.09C313.253 295.578 304.103 293.503 302.461 293.13C300.724 292.737 291.974 290.752 288.588 283.789C286.922 280.363 287.302 277.27 284.071 270.581C283.456 269.309 282.67 267.822 281.06 267.145C278.682 266.145 275.447 267.306 273.854 269.4C273.426 269.963 272.172 271.835 273.209 277.024C273.725 279.604 275.227 286.579 281.705 292.271C288.039 297.837 295.45 298.943 296.976 299.144C304.551 300.141 309.982 297.646 312.462 300.862C313.259 301.895 313.223 302.834 313.43 304.942C314.012 310.881 315.653 317.299 317.624 321.585C320.678 328.225 324.718 330.171 323.646 333.827C323.142 335.548 321.827 336.554 321.173 337.048C317.55 339.785 312.016 339.029 308.483 336.833C305.236 334.815 306.062 333.064 301.815 327.813C299.438 324.874 296.837 322.823 291.635 318.722C285.591 313.958 282.531 311.594 280.683 312.476C278.839 313.357 278.204 316.61 278.801 319.008C279.344 321.187 280.79 322.207 284.393 325.022C291.255 330.379 294.686 333.058 296.761 335.437C297.011 335.725 299.226 338.279 301.826 341.12C301.977 341.285 302.012 341.323 302.03 341.343C303.65 343.08 304.883 344.381 306.87 345.531C308.959 346.74 310.635 347.06 312.785 347.571C318.432 348.912 317.397 349.204 323.324 350.685C327.074 351.622 330.543 352.553 337.627 353.155L337.627 353.155Z" fill="#D75047"/>
    <path d="M382.551 319.118C383.798 321.416 385.583 324.217 388.105 327.103C388.197 327.208 388.289 327.304 388.381 327.408C388.72 327.203 389.052 327.003 389.372 326.81C387.098 324.246 384.825 321.682 382.551 319.118Z" fill="#9D413B"/>
    <path d="M348.687 316.34C348.703 316.299 348.719 316.258 348.735 316.217L341.094 314.521C341.087 314.555 341.079 314.588 341.072 314.621C342.073 315.019 343.227 315.408 344.542 315.719C346.075 316.083 347.47 316.259 348.687 316.34V316.34Z" fill="#9D413B"/>
    <path d="M351.166 303.37C352.175 303.792 353.12 304.072 353.978 304.268C354.037 304.14 354.095 304.014 354.152 303.889C351.866 302.966 349.58 302.043 347.295 301.12C348.21 301.825 349.499 302.672 351.166 303.37V303.37Z" fill="#9D413B"/>
    <path d="M364.431 326.481C364.232 326.542 364.031 326.603 363.839 326.66C364.737 328.612 365.864 330.051 366.748 331C365.975 329.494 365.203 327.987 364.431 326.481Z" fill="#9D413B"/>
    <path d="M375.845 320.365C375.736 320.468 375.632 320.566 375.529 320.662C376.471 322.212 377.731 323.983 379.41 325.772C381.02 327.488 382.643 328.823 384.106 329.857C384.292 329.757 384.481 329.657 384.658 329.56C381.72 326.495 378.783 323.43 375.845 320.365Z" fill="#9D413B"/>
    <path d="M371.603 241.551C372.877 241.93 374.608 242.307 376.681 242.375C377.577 242.404 378.406 242.368 379.167 242.298C379.184 242.154 379.199 242.01 379.213 241.87C376.677 241.763 374.14 241.657 371.603 241.551L371.603 241.551Z" fill="#9D413B"/>
    <path d="M376.07 280.009C376.561 280.793 377.239 281.708 378.172 282.616C379.242 283.657 380.325 284.376 381.234 284.872C381.297 284.799 381.359 284.729 381.426 284.652C379.7 283.054 377.974 281.457 376.248 279.86C376.188 279.911 376.13 279.959 376.07 280.009Z" fill="#9D413B"/>
    <path d="M383.718 273.49C384.767 274.55 385.819 275.251 386.621 275.7C385.364 274.396 384.108 273.092 382.851 271.787C382.795 271.853 382.743 271.911 382.687 271.977C382.641 272.031 382.604 272.078 382.56 272.131C382.891 272.574 383.262 273.03 383.718 273.49Z" fill="#9D413B"/>
    <path d="M395.071 263.652C395.54 264.657 396.344 266.066 397.689 267.454C399.015 268.823 400.406 269.693 401.506 270.24C401.616 270.184 401.728 270.127 401.843 270.067C399.586 267.929 397.328 265.79 395.071 263.652V263.652Z" fill="#9D413B"/>
    <path d="M396.703 259.669C397.017 260.25 397.414 260.877 397.927 261.513C399.308 263.227 400.857 264.193 401.83 264.697C400.268 262.946 398.706 261.195 397.144 259.443C397.09 259.47 397.035 259.498 396.99 259.521C396.906 259.564 396.808 259.615 396.703 259.669V259.669Z" fill="#9D413B"/>
    <path d="M411.018 263.588C409.812 262.405 408.605 261.222 407.399 260.04C407.729 260.635 408.235 261.406 408.994 262.178C409.675 262.871 410.361 263.363 410.941 263.711C410.968 263.67 410.992 263.629 411.018 263.588Z" fill="#9D413B"/>
    <path d="M316.801 283.356C317.495 283.404 318.243 283.427 319.051 283.4C320.576 283.348 321.909 283.142 323.002 282.901C320.919 282.994 318.836 283.086 316.753 283.179C316.769 283.238 316.786 283.297 316.801 283.356H316.801Z" fill="#9D413B"/>
    <path d="M326.41 269.383C326.962 269.867 327.642 270.388 328.476 270.876C329.723 271.606 330.883 272.016 331.761 272.254C329.999 271.236 328.238 270.217 326.477 269.198C326.454 269.26 326.432 269.322 326.41 269.383H326.41Z" fill="#9D413B"/>
    <path d="M336.045 263.081C337.582 263.346 338.951 263.394 340.098 263.356C340.121 263.298 340.144 263.24 340.167 263.181C337.047 262.593 333.928 262.006 330.809 261.418C332.069 262.019 333.842 262.703 336.045 263.081Z" fill="#9D413B"/>
    <path d="M331.856 248.965C333.511 249.176 335.582 249.298 337.949 249.108C339.771 248.962 341.369 248.66 342.732 248.319C342.727 248.281 342.726 248.241 342.721 248.203C339.099 248.457 335.477 248.711 331.856 248.965Z" fill="#9D413B"/>
    <path d="M329.71 251.46C330.74 251.635 331.936 251.766 333.284 251.769C335.186 251.775 336.818 251.53 338.092 251.247C335.295 251.276 332.499 251.305 329.702 251.335L329.71 251.46L329.71 251.46Z" fill="#9D413B"/>
    <path d="M361.454 266.624C362.216 266.933 363.086 267.229 364.082 267.454C365.922 267.87 367.521 267.909 368.683 267.85C366.305 267.321 363.927 266.791 361.548 266.261C361.516 266.383 361.487 266.501 361.454 266.624H361.454Z" fill="#9D413B"/>
    <path d="M365.726 238.44C367.073 238.95 368.845 239.469 370.968 239.713C373.468 240.001 375.586 239.808 377.093 239.555C373.317 239.126 369.541 238.697 365.766 238.268C365.751 238.326 365.739 238.382 365.726 238.44Z" fill="#9D413B"/>
    <path d="M364.886 245.881C366.644 246.461 368.771 247.019 371.254 247.349C373.884 247.699 376.227 247.707 378.166 247.581L378.21 247.395C373.774 246.847 369.338 246.299 364.902 245.752C364.897 245.795 364.892 245.838 364.886 245.881V245.881Z" fill="#9D413B"/>
    <path d="M320.225 309.77C321.623 309.776 322.869 309.643 323.924 309.461C323.92 309.393 323.917 309.326 323.914 309.26C321.13 309.251 318.345 309.241 315.56 309.232C316.784 309.513 318.369 309.763 320.225 309.77L320.225 309.77Z" fill="#9D413B"/>
    <path d="M294.298 251.152C295.51 250.416 297.079 249.292 298.63 247.635C299.578 246.622 300.308 245.629 300.89 244.725C300.794 244.673 300.698 244.622 300.602 244.572C298.501 246.765 296.399 248.958 294.298 251.152Z" fill="#9D413B"/>
    <path d="M293.363 256.398C294.255 255.901 295.266 255.24 296.298 254.336C297.947 252.892 299.017 251.393 299.677 250.296C297.507 252.253 295.336 254.211 293.166 256.168C293.229 256.244 293.295 256.321 293.363 256.398H293.363Z" fill="#9D413B"/>
    <path d="M314.473 259.021C314.451 258.984 314.428 258.945 314.406 258.908C312.416 260.79 310.426 262.672 308.436 264.555C309.458 264.008 310.801 263.152 312.149 261.846C313.174 260.852 313.921 259.867 314.473 259.021L314.473 259.021Z" fill="#9D413B"/>
    <path d="M272.828 274.05C272.83 274.095 272.832 274.141 272.835 274.187C273.918 273.946 275.105 273.621 276.368 273.173C278.185 272.53 279.734 271.787 281.001 271.082C278.277 272.071 275.552 273.06 272.828 274.05H272.828Z" fill="#9D413B"/>
    <path d="M287.444 317.692C287.78 317.115 288.027 316.564 288.219 316.058C288.162 316.014 288.105 315.971 288.048 315.928C286.974 317.53 285.9 319.132 284.826 320.734C285.568 320.134 286.593 319.151 287.444 317.692Z" fill="#9D413B"/>
    <path d="M285.379 313.995C283.725 316.577 282.071 319.16 280.416 321.742C280.456 321.782 280.497 321.822 280.538 321.862C281.519 320.766 282.578 319.423 283.588 317.787C284.399 316.473 285.022 315.222 285.513 314.086C285.469 314.056 285.423 314.024 285.379 313.995Z" fill="#9D413B"/>
    <path d="M288.892 328.546C289.488 328.099 290.132 327.552 290.776 326.865C292.108 325.445 292.913 324.014 293.394 322.968C291.833 324.779 290.271 326.591 288.71 328.403C288.77 328.449 288.833 328.5 288.892 328.546Z" fill="#9D413B"/>
    <path d="M305.111 332.769C304.299 333.906 303.488 335.043 302.676 336.181C303.103 335.923 303.788 335.436 304.39 334.612C304.823 334.019 305.069 333.444 305.222 332.974C305.187 332.908 305.148 332.837 305.111 332.769H305.111Z" fill="#9D413B"/>
    <path d="M321.182 327.451C321.631 327.375 322.145 327.246 322.701 327.008C323.697 326.579 324.376 325.999 324.763 325.613C323.514 326.149 322.265 326.685 321.016 327.221C321.071 327.297 321.128 327.376 321.182 327.451L321.182 327.451Z" fill="#9D413B"/>
    <path d="M291.061 290.125C291.614 289.522 292.011 288.934 292.303 288.428C292.281 288.409 292.258 288.391 292.235 288.372C291.188 289.506 290.141 290.639 289.094 291.773C289.647 291.422 290.358 290.893 291.061 290.125L291.061 290.125Z" fill="#9D413B"/>
    <path d="M283.674 293.83C284.45 293.308 285.304 292.656 286.174 291.836C287.393 290.688 288.291 289.549 288.935 288.604C287.128 290.307 285.32 292.009 283.513 293.712C283.566 293.751 283.62 293.791 283.674 293.83Z" fill="#9D413B"/>
    <path d="M286.139 275.689C284.024 276.551 281.91 277.413 279.796 278.275C280.688 278.235 282.064 278.065 283.604 277.419C284.709 276.956 285.569 276.384 286.203 275.882C286.183 275.82 286.159 275.752 286.139 275.689Z" fill="#9D413B"/>
    <path d="M375.84 257.33L371.651 256.602C372.171 256.839 372.897 257.106 373.793 257.251C374.601 257.382 375.304 257.375 375.84 257.33Z" fill="#9D413B"/>
    <path d="M364.034 280.635C364.584 280.863 365.09 280.987 365.526 281.061L365.614 280.918C364.405 280.391 363.196 279.863 361.987 279.336C362.404 279.715 363.081 280.242 364.034 280.635V280.635Z" fill="#9D413B"/>
    <path d="M309.745 258.78C310.205 258.601 310.972 258.232 311.697 257.497C312.166 257.02 312.471 256.539 312.672 256.149C312.651 256.117 312.631 256.086 312.609 256.054C311.654 256.962 310.7 257.871 309.745 258.78H309.745Z" fill="#9D413B"/>
    <path d="M303.565 295.29C303.291 296.647 303.017 298.004 302.743 299.362L302.846 299.358C303.051 298.93 303.26 298.397 303.406 297.762C303.638 296.754 303.623 295.886 303.565 295.29Z" fill="#9D413B"/>
    <path d="M322.288 312.084C323.051 312.078 323.704 311.967 324.225 311.837L324.207 311.73L319.654 311.672C320.261 311.871 321.171 312.091 322.288 312.084Z" fill="#9D413B"/>
    <path d="M387.055 310.091C387.648 310.982 388.325 311.917 389.12 312.876C390.743 314.832 392.387 316.351 393.817 317.502C391.636 314.99 389.455 312.478 387.274 309.966C387.201 310.007 387.127 310.047 387.055 310.091Z" fill="#9D413B"/>
    <path d="M158.452 244.494C165.857 245.122 168.05 244.296 169.421 243.527C172.498 241.8 171.873 239.969 176.089 235.796C178.058 233.846 180.052 232.219 184.907 229.675C186.071 229.065 194.554 225.677 195.446 225.38C201.549 223.351 207.175 219.968 208.889 218.938C214.94 215.299 217.986 213.408 218.998 209.918C219.825 207.063 219.604 202.82 216.954 200.898C214.705 199.267 211.698 200.021 210.556 200.308C207.617 201.044 205.967 202.735 202.651 205.945C197.504 210.929 194.935 213.427 193.94 214.106C189.846 216.9 182.629 218.488 180.713 219.152C178.688 219.855 175.563 220.938 172.755 219.618C169.669 218.167 168.732 214.645 168.596 214.106C167.903 211.338 168.901 208.966 170.926 204.334C177.226 189.926 177.98 188.707 180.068 187.154C181.542 186.057 183.452 185.206 187.273 183.503C194.51 180.278 195.476 181.072 199.103 178.778C202.346 176.727 201.397 176.105 207.706 170.618C210.43 168.248 212.164 166.754 214.804 165.141C218.588 162.83 219.473 163.184 223.515 160.954C227.595 158.702 232.678 155.898 232.333 153.115C232.042 150.771 227.979 149.076 225.128 148.927C222.03 148.765 218.837 150.336 217.815 150.86C216.929 151.314 214.9 152.32 211.362 155.477C208.613 157.932 206.33 159.969 203.512 163.316C199.763 167.767 200.198 168.442 197.382 170.94C194.357 173.622 191.787 174.678 189.854 175.45C187.815 176.263 185.455 177.205 184.799 176.416C184.06 175.526 186.059 173.124 188.241 169.222C189.46 167.042 190.559 164.225 192.758 158.591C194.545 154.01 196.361 149.356 197.92 143.236C200.09 134.717 201.263 129.829 198.565 126.593C198.371 126.36 196.099 123.719 192.865 123.908C190.155 124.067 188.442 126.116 188.133 126.485C186.439 128.512 186.314 130.897 186.197 132.606C185.895 137.031 185.01 141.399 184.584 145.813C184.584 145.814 183.976 152.13 181.896 159.343C181.462 160.847 180.511 163.936 174.153 176.631C168.063 188.789 167.342 189.14 165.442 194.348C163.918 198.525 162.37 202.77 161.355 208.737C159.971 216.873 160.786 221.122 158.667 221.944C155.897 223.019 151.245 217.028 150.386 215.931C146.426 210.877 145.448 205.512 145.009 202.938C144.3 198.783 145.181 199.424 145.009 188.872C144.887 181.382 144.422 179.731 145.654 176.631C146.532 174.423 147.996 172.618 150.924 169.007C154.762 164.274 155.699 163.918 157.699 160.954C158.174 160.25 160.542 156.675 162.001 151.504C162.787 148.716 165.765 138.163 161.14 134.646C159.511 133.407 157.072 133.145 155.118 133.787C152.371 134.69 151.179 137.183 150.924 137.76C150.016 139.814 150.538 141.243 150.601 144.203C150.654 146.699 150.278 148.623 149.526 152.471C148.574 157.337 145.827 166.658 143.181 166.537C141.708 166.47 141.438 163.534 138.879 157.625C137.348 154.088 134.401 147.425 128.985 141.948C126.98 139.92 120.231 133.093 115.435 135.076C113.315 135.952 112.03 138.663 111.778 140.874C111.483 143.469 112.652 145.458 113.176 146.35C113.896 147.575 114.755 148.462 116.833 150.109C120.088 152.688 121.812 153.548 124.253 155.263C126.18 156.616 128.614 158.326 130.921 160.954C131.784 161.937 134.647 165.347 136.406 170.725C137.937 175.41 139.297 179.569 137.266 182.429C134.078 186.917 124.928 184.842 123.285 184.469C121.549 184.076 112.799 182.091 109.412 175.128C107.747 171.702 108.127 168.609 104.896 161.92C104.281 160.648 103.495 159.161 101.885 158.484C99.5064 157.484 96.2721 158.645 94.6792 160.739C94.2513 161.302 92.9971 163.174 94.0339 168.363C94.5494 170.942 96.0522 177.918 102.53 183.61C108.863 189.176 116.275 190.282 117.801 190.483C125.376 191.48 130.807 188.985 133.287 192.201C134.084 193.234 134.048 194.173 134.255 196.281C134.837 202.22 136.477 208.638 138.449 212.924C141.502 219.564 145.543 221.51 144.471 225.166C143.966 226.887 142.652 227.893 141.998 228.387C138.375 231.124 132.841 230.368 129.308 228.172C126.061 226.154 126.886 224.403 122.64 219.152C120.263 216.213 117.662 214.162 112.459 210.061C106.416 205.297 103.356 202.933 101.508 203.815C99.6641 204.696 99.0291 207.949 99.6261 210.347C100.168 212.526 101.614 213.546 105.218 216.361C112.08 221.718 115.51 224.397 117.586 226.776C117.836 227.064 120.051 229.618 122.65 232.459C122.802 232.624 122.836 232.662 122.855 232.682C124.475 234.419 125.707 235.72 127.695 236.87C129.784 238.079 131.459 238.399 133.609 238.91C139.256 240.251 138.222 240.543 144.149 242.024C147.898 242.961 151.368 243.892 158.452 244.493L158.452 244.494Z" fill="#D75047"/>
    <path d="M203.376 210.457C204.623 212.755 206.408 215.556 208.93 218.442C209.022 218.547 209.114 218.643 209.206 218.747C209.545 218.542 209.876 218.342 210.197 218.148C207.923 215.585 205.65 213.021 203.376 210.457Z" fill="#9D413B"/>
    <path d="M169.512 207.679C169.528 207.637 169.543 207.597 169.56 207.556L161.919 205.86C161.912 205.894 161.904 205.926 161.897 205.96C162.898 206.358 164.052 206.746 165.366 207.058C166.899 207.422 168.295 207.598 169.512 207.679V207.679Z" fill="#9D413B"/>
    <path d="M171.991 194.709C172.999 195.131 173.945 195.411 174.803 195.607C174.862 195.479 174.92 195.353 174.977 195.228C172.691 194.305 170.405 193.382 168.119 192.459C169.035 193.164 170.324 194.011 171.991 194.709V194.709Z" fill="#9D413B"/>
    <path d="M185.256 217.82C185.057 217.881 184.856 217.942 184.664 217.999C185.562 219.951 186.689 221.39 187.573 222.339C186.8 220.833 186.028 219.326 185.256 217.82Z" fill="#9D413B"/>
    <path d="M196.67 211.704C196.561 211.807 196.457 211.905 196.354 212.002C197.295 213.551 198.556 215.322 200.235 217.111C201.845 218.827 203.468 220.162 204.93 221.196C205.117 221.096 205.305 220.996 205.483 220.899C202.545 217.834 199.608 214.769 196.67 211.704Z" fill="#9D413B"/>
    <path d="M192.428 132.89C193.702 133.269 195.433 133.646 197.506 133.714C198.402 133.743 199.23 133.707 199.992 133.637C200.009 133.493 200.024 133.349 200.038 133.209C197.501 133.102 194.965 132.996 192.428 132.89L192.428 132.89Z" fill="#9D413B"/>
    <path d="M196.895 171.348C197.386 172.132 198.064 173.047 198.997 173.955C200.067 174.996 201.15 175.715 202.059 176.211C202.122 176.138 202.184 176.067 202.251 175.991C200.525 174.393 198.799 172.796 197.073 171.199C197.013 171.25 196.955 171.297 196.895 171.348Z" fill="#9D413B"/>
    <path d="M204.542 164.829C205.591 165.889 206.644 166.59 207.446 167.039C206.189 165.735 204.932 164.431 203.675 163.126C203.62 163.192 203.568 163.25 203.512 163.316C203.466 163.37 203.429 163.417 203.384 163.47C203.716 163.913 204.087 164.369 204.542 164.829Z" fill="#9D413B"/>
    <path d="M215.895 154.991C216.365 155.996 217.169 157.405 218.513 158.793C219.84 160.162 221.231 161.032 222.331 161.579C222.441 161.523 222.552 161.467 222.668 161.406C220.411 159.268 218.153 157.129 215.895 154.991V154.991Z" fill="#9D413B"/>
    <path d="M217.528 151.008C217.842 151.589 218.239 152.216 218.751 152.852C220.133 154.566 221.682 155.532 222.655 156.036C221.093 154.285 219.531 152.534 217.969 150.782C217.915 150.809 217.86 150.837 217.815 150.86C217.731 150.903 217.633 150.954 217.528 151.008V151.008Z" fill="#9D413B"/>
    <path d="M231.842 154.927C230.636 153.744 229.43 152.561 228.224 151.379C228.553 151.974 229.059 152.745 229.819 153.517C230.5 154.21 231.186 154.702 231.766 155.05C231.793 155.009 231.817 154.968 231.842 154.927Z" fill="#9D413B"/>
    <path d="M137.626 174.695C138.32 174.743 139.068 174.766 139.876 174.739C141.401 174.687 142.734 174.481 143.827 174.24C141.744 174.333 139.661 174.425 137.578 174.518C137.594 174.577 137.611 174.636 137.626 174.695H137.626Z" fill="#9D413B"/>
    <path d="M147.234 160.722C147.787 161.206 148.467 161.727 149.301 162.215C150.548 162.945 151.708 163.355 152.585 163.593C150.824 162.575 149.063 161.556 147.302 160.537C147.279 160.599 147.257 160.661 147.234 160.722H147.234Z" fill="#9D413B"/>
    <path d="M156.87 154.42C158.407 154.685 159.776 154.733 160.923 154.695C160.946 154.637 160.969 154.579 160.992 154.52C157.872 153.932 154.753 153.345 151.633 152.757C152.894 153.358 154.667 154.042 156.87 154.42Z" fill="#9D413B"/>
    <path d="M152.681 140.304C154.336 140.515 156.407 140.637 158.774 140.447C160.596 140.301 162.193 139.999 163.556 139.658C163.552 139.62 163.551 139.58 163.546 139.542C159.924 139.796 156.302 140.05 152.681 140.304Z" fill="#9D413B"/>
    <path d="M150.535 142.799C151.565 142.974 152.761 143.105 154.109 143.109C156.01 143.114 157.643 142.869 158.916 142.586C156.12 142.615 153.323 142.644 150.527 142.674L150.535 142.799L150.535 142.799Z" fill="#9D413B"/>
    <path d="M182.279 157.962C183.041 158.272 183.911 158.568 184.907 158.793C186.747 159.209 188.346 159.248 189.508 159.189C187.13 158.659 184.751 158.13 182.373 157.6C182.341 157.722 182.312 157.84 182.279 157.962H182.279Z" fill="#9D413B"/>
    <path d="M186.551 129.779C187.898 130.289 189.67 130.808 191.793 131.052C194.293 131.34 196.411 131.147 197.918 130.894C194.142 130.465 190.366 130.036 186.59 129.607C186.576 129.665 186.564 129.721 186.551 129.779Z" fill="#9D413B"/>
    <path d="M185.711 137.22C187.469 137.8 189.596 138.358 192.079 138.688C194.709 139.038 197.051 139.046 198.991 138.921L199.034 138.734C194.599 138.186 190.163 137.638 185.727 137.091C185.722 137.134 185.716 137.177 185.711 137.22V137.22Z" fill="#9D413B"/>
    <path d="M141.05 201.109C142.448 201.115 143.694 200.982 144.748 200.8C144.745 200.732 144.742 200.665 144.739 200.599C141.954 200.59 139.17 200.58 136.385 200.571C137.609 200.852 139.194 201.102 141.05 201.109L141.05 201.109Z" fill="#9D413B"/>
    <path d="M115.123 142.491C116.334 141.755 117.903 140.631 119.455 138.974C120.402 137.961 121.133 136.968 121.714 136.064C121.619 136.012 121.523 135.961 121.426 135.911C119.325 138.104 117.224 140.297 115.123 142.491Z" fill="#9D413B"/>
    <path d="M114.188 147.737C115.08 147.24 116.091 146.579 117.122 145.675C118.772 144.231 119.841 142.732 120.502 141.635C118.332 143.593 116.161 145.55 113.991 147.507C114.054 147.583 114.119 147.66 114.188 147.737H114.188Z" fill="#9D413B"/>
    <path d="M135.298 150.361C135.276 150.323 135.252 150.285 135.23 150.247C133.241 152.129 131.251 154.011 129.261 155.894C130.283 155.347 131.626 154.491 132.974 153.185C133.999 152.191 134.746 151.206 135.298 150.361L135.298 150.361Z" fill="#9D413B"/>
    <path d="M93.6528 165.389C93.6549 165.434 93.657 165.48 93.6595 165.526C94.7424 165.285 95.9294 164.96 97.1931 164.512C99.0102 163.869 100.559 163.126 101.826 162.421C99.1018 163.41 96.3773 164.399 93.6528 165.389H93.6528Z" fill="#9D413B"/>
    <path d="M108.268 209.031C108.605 208.454 108.852 207.903 109.044 207.397C108.987 207.353 108.93 207.31 108.873 207.267C107.799 208.869 106.725 210.471 105.65 212.073C106.392 211.473 107.417 210.49 108.268 209.031Z" fill="#9D413B"/>
    <path d="M106.204 205.333C104.55 207.916 102.896 210.499 101.241 213.081C101.28 213.121 101.322 213.161 101.363 213.201C102.344 212.105 103.403 210.762 104.413 209.126C105.223 207.812 105.847 206.561 106.338 205.425C106.294 205.395 106.248 205.363 106.204 205.333Z" fill="#9D413B"/>
    <path d="M109.717 219.885C110.313 219.438 110.957 218.891 111.601 218.204C112.933 216.784 113.738 215.353 114.219 214.307C112.657 216.118 111.096 217.93 109.535 219.742C109.594 219.788 109.658 219.839 109.717 219.885Z" fill="#9D413B"/>
    <path d="M125.936 224.108C125.124 225.245 124.312 226.382 123.501 227.52C123.928 227.262 124.613 226.775 125.215 225.951C125.648 225.358 125.894 224.783 126.047 224.313C126.012 224.247 125.972 224.176 125.936 224.108H125.936Z" fill="#9D413B"/>
    <path d="M142.007 218.79C142.456 218.714 142.97 218.585 143.525 218.347C144.522 217.918 145.201 217.338 145.588 216.952C144.339 217.488 143.09 218.024 141.841 218.56C141.896 218.636 141.953 218.715 142.007 218.79L142.007 218.79Z" fill="#9D413B"/>
    <path d="M111.886 181.464C112.438 180.861 112.836 180.273 113.128 179.767C113.106 179.748 113.083 179.73 113.06 179.711C112.013 180.845 110.966 181.978 109.919 183.112C110.472 182.761 111.183 182.232 111.886 181.464L111.886 181.464Z" fill="#9D413B"/>
    <path d="M104.499 185.169C105.275 184.646 106.129 183.995 106.999 183.175C108.217 182.027 109.116 180.888 109.76 179.943C107.952 181.646 106.145 183.348 104.337 185.051C104.391 185.09 104.445 185.13 104.499 185.169Z" fill="#9D413B"/>
    <path d="M106.964 167.028C104.849 167.89 102.735 168.752 100.62 169.614C101.512 169.573 102.889 169.404 104.429 168.758C105.534 168.295 106.394 167.723 107.028 167.221C107.008 167.159 106.984 167.091 106.964 167.028Z" fill="#9D413B"/>
    <path d="M196.664 148.669L192.475 147.941C192.996 148.178 193.721 148.445 194.618 148.59C195.426 148.721 196.129 148.714 196.664 148.669Z" fill="#9D413B"/>
    <path d="M184.859 171.974C185.409 172.202 185.915 172.326 186.351 172.4L186.439 172.257C185.23 171.73 184.021 171.203 182.812 170.675C183.228 171.054 183.906 171.581 184.859 171.974V171.974Z" fill="#9D413B"/>
    <path d="M130.57 150.119C131.03 149.94 131.797 149.571 132.521 148.836C132.991 148.359 133.296 147.878 133.497 147.488C133.475 147.456 133.455 147.425 133.434 147.393C132.479 148.301 131.524 149.21 130.57 150.119H130.57Z" fill="#9D413B"/>
    <path d="M124.389 186.629C124.116 187.986 123.842 189.343 123.568 190.701L123.671 190.697C123.876 190.269 124.085 189.736 124.231 189.101C124.463 188.093 124.447 187.225 124.389 186.629Z" fill="#9D413B"/>
    <path d="M143.113 203.423C143.876 203.417 144.528 203.306 145.05 203.176L145.031 203.069L140.479 203.011C141.086 203.21 141.995 203.43 143.113 203.423Z" fill="#9D413B"/>
    <path d="M207.88 201.43C208.473 202.321 209.15 203.256 209.945 204.215C211.568 206.171 213.212 207.69 214.642 208.841C212.461 206.329 210.28 203.817 208.099 201.305C208.026 201.346 207.952 201.386 207.88 201.43Z" fill="#9D413B"/>
    <path d="M831.225 572.789C838.631 573.417 840.824 572.592 842.195 571.822C845.272 570.095 844.647 568.264 848.862 564.091C850.832 562.141 852.826 560.514 857.681 557.97C858.845 557.36 867.328 553.972 868.22 553.675C874.323 551.646 879.949 548.263 881.663 547.233C887.714 543.594 890.76 541.703 891.772 538.213C892.599 535.358 892.378 531.115 889.728 529.193C887.479 527.563 884.471 528.316 883.33 528.603C880.391 529.339 878.741 531.03 875.425 534.24C870.278 539.224 867.709 541.722 866.714 542.401C862.62 545.195 855.403 546.783 853.487 547.447C851.462 548.15 848.337 549.233 845.529 547.913C842.443 546.462 841.505 542.94 841.37 542.401C840.677 539.633 841.675 537.261 843.7 532.629C850 518.221 850.754 517.002 852.841 515.449C854.316 514.352 856.226 513.501 860.047 511.798C867.284 508.573 868.249 509.367 871.876 507.073C875.119 505.022 874.171 504.4 880.48 498.913C883.204 496.543 884.938 495.049 887.577 493.436C891.362 491.125 892.247 491.479 896.288 489.249C900.369 486.997 905.452 484.193 905.107 481.41C904.816 479.066 900.753 477.371 897.901 477.222C894.803 477.061 891.61 478.631 890.589 479.155C889.703 479.609 887.674 480.615 884.136 483.772C881.386 486.227 879.104 488.264 876.286 491.611C872.537 496.063 872.972 496.738 870.156 499.235C867.131 501.917 864.561 502.973 862.628 503.745C860.589 504.558 858.229 505.5 857.573 504.711C856.834 503.821 858.833 501.419 861.015 497.517C862.233 495.337 863.333 492.521 865.531 486.886C867.319 482.305 869.134 477.651 870.693 471.531C872.864 463.012 874.037 458.124 871.339 454.888C871.144 454.655 868.873 452.014 865.639 452.203C862.929 452.362 861.216 454.411 860.907 454.781C859.213 456.807 859.088 459.192 858.971 460.901C858.669 465.326 857.784 469.694 857.358 474.108C857.358 474.109 856.749 480.425 854.67 487.638C854.236 489.142 853.284 492.231 846.927 504.926C840.837 517.084 840.115 517.435 838.216 522.643C836.692 526.82 835.144 531.065 834.129 537.032C832.745 545.168 833.56 549.417 831.441 550.239C828.671 551.314 824.019 545.323 823.16 544.226C819.199 539.172 818.221 533.807 817.783 531.233C817.074 527.078 817.955 527.719 817.783 517.167C817.661 509.678 817.195 508.026 818.428 504.926C819.306 502.718 820.77 500.913 823.698 497.302C827.536 492.569 828.473 492.214 830.473 489.249C830.947 488.545 833.316 484.97 834.774 479.8C835.561 477.012 838.539 466.458 833.914 462.941C832.284 461.702 829.846 461.44 827.892 462.082C825.145 462.985 823.952 465.479 823.698 466.055C822.79 468.109 823.312 469.538 823.375 472.498C823.428 474.994 823.052 476.918 822.299 480.766C821.348 485.632 818.601 494.953 815.954 494.832C814.482 494.765 814.211 491.829 811.653 485.92C810.122 482.383 807.174 475.72 801.759 470.243C799.754 468.215 793.005 461.388 788.209 463.371C786.089 464.247 784.804 466.958 784.552 469.169C784.257 471.764 785.426 473.753 785.95 474.645C786.67 475.87 787.528 476.757 789.607 478.404C792.862 480.983 794.586 481.843 797.027 483.558C798.954 484.912 801.388 486.621 803.695 489.249C804.558 490.232 807.421 493.642 809.179 499.02C810.711 503.705 812.071 507.864 810.04 510.724C806.852 515.212 797.701 513.137 796.059 512.764C794.322 512.371 785.573 510.387 782.186 503.423C780.52 499.997 780.901 496.904 777.669 490.215C777.055 488.943 776.269 487.456 774.658 486.779C772.28 485.779 769.046 486.94 767.453 489.034C767.025 489.597 765.771 491.469 766.808 496.658C767.323 499.238 768.826 506.213 775.304 511.905C781.637 517.471 789.049 518.577 790.575 518.778C798.15 519.775 803.581 517.28 806.061 520.496C806.857 521.529 806.822 522.468 807.028 524.576C807.61 530.515 809.251 536.933 811.223 541.22C814.276 547.859 818.317 549.805 817.245 553.461C816.74 555.182 815.426 556.188 814.772 556.682C811.149 559.419 805.615 558.663 802.082 556.467C798.834 554.449 799.66 552.699 795.414 547.447C793.037 544.508 790.436 542.457 785.233 538.356C779.19 533.592 776.13 531.228 774.282 532.11C772.438 532.991 771.803 536.244 772.4 538.642C772.942 540.821 774.388 541.841 777.992 544.656C784.854 550.014 788.284 552.692 790.359 555.071C790.61 555.359 792.825 557.913 795.424 560.754C795.576 560.919 795.61 560.957 795.629 560.977C797.249 562.714 798.481 564.015 800.468 565.165C802.558 566.374 804.233 566.694 806.383 567.205C812.03 568.547 810.996 568.838 816.922 570.319C820.672 571.256 824.141 572.187 831.225 572.789L831.225 572.789Z" fill="#D75047"/>
    <path d="M876.15 538.752C877.397 541.05 879.181 543.851 881.704 546.737C881.796 546.842 881.888 546.938 881.98 547.042C882.319 546.837 882.65 546.637 882.97 546.444C880.697 543.88 878.424 541.316 876.15 538.752Z" fill="#9D413B"/>
    <path d="M842.286 535.974C842.302 535.933 842.317 535.893 842.334 535.851L834.693 534.156C834.685 534.189 834.678 534.222 834.67 534.255C835.671 534.653 836.826 535.042 838.14 535.354C839.673 535.717 841.069 535.893 842.286 535.974V535.974Z" fill="#9D413B"/>
    <path d="M844.765 523.004C845.773 523.426 846.719 523.706 847.577 523.902C847.636 523.774 847.693 523.648 847.751 523.523C845.465 522.6 843.179 521.677 840.893 520.754C841.809 521.459 843.098 522.306 844.765 523.004V523.004Z" fill="#9D413B"/>
    <path d="M858.03 546.115C857.831 546.176 857.63 546.237 857.438 546.294C858.336 548.246 859.462 549.685 860.347 550.634C859.574 549.128 858.802 547.622 858.03 546.115Z" fill="#9D413B"/>
    <path d="M869.444 539.999C869.335 540.102 869.231 540.2 869.128 540.296C870.069 541.846 871.33 543.617 873.009 545.406C874.619 547.122 876.242 548.457 877.705 549.491C877.891 549.391 878.079 549.291 878.257 549.194C875.319 546.129 872.382 543.064 869.444 539.999Z" fill="#9D413B"/>
    <path d="M865.202 461.185C866.476 461.564 868.207 461.941 870.279 462.009C871.176 462.038 872.004 462.002 872.766 461.932C872.782 461.788 872.798 461.644 872.812 461.504C870.275 461.397 867.739 461.291 865.202 461.185L865.202 461.185Z" fill="#9D413B"/>
    <path d="M869.669 499.643C870.16 500.427 870.838 501.342 871.771 502.25C872.841 503.291 873.924 504.01 874.833 504.506C874.896 504.433 874.958 504.363 875.025 504.286C873.299 502.688 871.573 501.091 869.847 499.494C869.787 499.545 869.729 499.593 869.669 499.643Z" fill="#9D413B"/>
    <path d="M877.317 493.124C878.365 494.184 879.418 494.885 880.22 495.334C878.963 494.03 877.706 492.726 876.45 491.421C876.394 491.487 876.342 491.545 876.286 491.611C876.24 491.665 876.203 491.712 876.158 491.765C876.49 492.208 876.861 492.664 877.317 493.124Z" fill="#9D413B"/>
    <path d="M888.669 483.286C889.139 484.291 889.943 485.7 891.288 487.088C892.614 488.457 894.005 489.327 895.105 489.874C895.215 489.818 895.326 489.762 895.442 489.701C893.185 487.563 890.927 485.424 888.669 483.286V483.286Z" fill="#9D413B"/>
    <path d="M890.302 479.303C890.616 479.885 891.013 480.511 891.525 481.147C892.907 482.861 894.456 483.827 895.429 484.331C893.867 482.58 892.305 480.829 890.743 479.077C890.689 479.104 890.634 479.132 890.589 479.155C890.505 479.198 890.407 479.249 890.302 479.303V479.303Z" fill="#9D413B"/>
    <path d="M904.616 483.222C903.41 482.039 902.204 480.856 900.998 479.674C901.327 480.269 901.833 481.04 902.593 481.812C903.274 482.505 903.96 482.997 904.54 483.345C904.567 483.304 904.591 483.263 904.616 483.222Z" fill="#9D413B"/>
    <path d="M810.4 502.99C811.094 503.038 811.842 503.061 812.65 503.034C814.175 502.982 815.508 502.776 816.601 502.535C814.518 502.628 812.435 502.72 810.352 502.813C810.368 502.872 810.385 502.931 810.4 502.99H810.4Z" fill="#9D413B"/>
    <path d="M820.008 489.017C820.561 489.501 821.241 490.022 822.075 490.51C823.322 491.24 824.482 491.65 825.359 491.889C823.598 490.87 821.837 489.851 820.075 488.832C820.053 488.894 820.031 488.956 820.008 489.017H820.008Z" fill="#9D413B"/>
    <path d="M829.643 482.715C831.181 482.98 832.55 483.028 833.697 482.99C833.72 482.932 833.743 482.874 833.765 482.815C830.646 482.227 827.527 481.64 824.407 481.052C825.668 481.653 827.441 482.337 829.643 482.715Z" fill="#9D413B"/>
    <path d="M825.455 468.599C827.11 468.81 829.181 468.932 831.548 468.742C833.37 468.596 834.967 468.294 836.33 467.953C836.326 467.915 836.324 467.875 836.32 467.837C832.698 468.091 829.076 468.345 825.455 468.599Z" fill="#9D413B"/>
    <path d="M823.309 471.094C824.338 471.269 825.534 471.4 826.883 471.404C828.784 471.409 830.417 471.164 831.69 470.881C828.894 470.91 826.097 470.939 823.301 470.969L823.309 471.094L823.309 471.094Z" fill="#9D413B"/>
    <path d="M855.053 486.258C855.815 486.567 856.685 486.863 857.681 487.088C859.521 487.504 861.119 487.543 862.282 487.484C859.904 486.955 857.525 486.425 855.147 485.895C855.115 486.017 855.086 486.135 855.053 486.258H855.053Z" fill="#9D413B"/>
    <path d="M859.325 458.074C860.672 458.584 862.444 459.103 864.567 459.347C867.067 459.635 869.185 459.442 870.692 459.189C866.916 458.76 863.14 458.331 859.365 457.902C859.35 457.96 859.338 458.016 859.325 458.074Z" fill="#9D413B"/>
    <path d="M858.485 465.515C860.243 466.095 862.37 466.653 864.853 466.983C867.483 467.333 869.825 467.341 871.764 467.216L871.808 467.029C867.373 466.481 862.937 465.933 858.501 465.386C858.495 465.429 858.49 465.472 858.485 465.515V465.515Z" fill="#9D413B"/>
    <path d="M813.824 529.404C815.222 529.41 816.468 529.277 817.522 529.095C817.519 529.027 817.516 528.96 817.513 528.894C814.728 528.885 811.944 528.875 809.159 528.866C810.383 529.147 811.968 529.397 813.824 529.405L813.824 529.404Z" fill="#9D413B"/>
    <path d="M787.897 470.786C789.108 470.05 790.677 468.926 792.229 467.269C793.176 466.256 793.907 465.263 794.488 464.359C794.393 464.307 794.297 464.256 794.2 464.206C792.099 466.399 789.998 468.592 787.897 470.786Z" fill="#9D413B"/>
    <path d="M786.961 476.032C787.854 475.535 788.865 474.874 789.896 473.97C791.545 472.526 792.615 471.027 793.276 469.93C791.105 471.888 788.935 473.845 786.765 475.802C786.828 475.878 786.893 475.955 786.961 476.032H786.961Z" fill="#9D413B"/>
    <path d="M808.072 478.656C808.05 478.618 808.027 478.58 808.005 478.542C806.015 480.424 804.025 482.306 802.035 484.189C803.057 483.642 804.4 482.786 805.748 481.48C806.773 480.486 807.52 479.501 808.072 478.656L808.072 478.656Z" fill="#9D413B"/>
    <path d="M766.427 493.684C766.429 493.729 766.431 493.775 766.433 493.821C767.516 493.58 768.703 493.255 769.967 492.807C771.784 492.164 773.333 491.421 774.6 490.716C771.876 491.705 769.151 492.694 766.427 493.684H766.427Z" fill="#9D413B"/>
    <path d="M781.042 537.326C781.379 536.749 781.626 536.199 781.818 535.692C781.76 535.648 781.704 535.605 781.647 535.562C780.573 537.164 779.499 538.766 778.424 540.368C779.166 539.768 780.191 538.785 781.042 537.326Z" fill="#9D413B"/>
    <path d="M778.978 533.629C777.324 536.211 775.669 538.794 774.015 541.376C774.054 541.416 774.096 541.456 774.137 541.496C775.118 540.4 776.177 539.058 777.187 537.421C777.997 536.107 778.621 534.856 779.112 533.72C779.068 533.69 779.022 533.658 778.978 533.629Z" fill="#9D413B"/>
    <path d="M782.491 548.18C783.087 547.733 783.731 547.186 784.375 546.499C785.707 545.079 786.512 543.648 786.993 542.602C785.431 544.413 783.87 546.225 782.309 548.037C782.368 548.084 782.432 548.134 782.491 548.18Z" fill="#9D413B"/>
    <path d="M798.71 552.403C797.898 553.54 797.087 554.677 796.275 555.815C796.702 555.557 797.387 555.07 797.989 554.246C798.422 553.653 798.668 553.078 798.821 552.609C798.786 552.542 798.746 552.471 798.71 552.403H798.71Z" fill="#9D413B"/>
    <path d="M814.781 547.085C815.23 547.009 815.744 546.88 816.299 546.642C817.296 546.213 817.975 545.633 818.362 545.247C817.113 545.783 815.864 546.319 814.615 546.855C814.67 546.931 814.727 547.01 814.781 547.085L814.781 547.085Z" fill="#9D413B"/>
    <path d="M784.66 509.759C785.212 509.156 785.61 508.568 785.902 508.062C785.88 508.043 785.857 508.025 785.834 508.006C784.787 509.14 783.74 510.273 782.693 511.407C783.246 511.056 783.957 510.527 784.66 509.759L784.66 509.759Z" fill="#9D413B"/>
    <path d="M777.273 513.464C778.049 512.942 778.902 512.29 779.773 511.47C780.991 510.323 781.89 509.183 782.534 508.238C780.726 509.941 778.919 511.643 777.111 513.346C777.165 513.385 777.219 513.425 777.273 513.464Z" fill="#9D413B"/>
    <path d="M779.737 495.323C777.623 496.185 775.509 497.047 773.394 497.909C774.286 497.869 775.662 497.699 777.202 497.053C778.307 496.59 779.168 496.018 779.801 495.516C779.782 495.454 779.758 495.387 779.737 495.323Z" fill="#9D413B"/>
    <path d="M869.438 476.964L865.249 476.236C865.77 476.473 866.495 476.74 867.391 476.885C868.199 477.016 868.903 477.009 869.438 476.964Z" fill="#9D413B"/>
    <path d="M857.633 500.269C858.183 500.497 858.689 500.621 859.125 500.695L859.213 500.552C858.004 500.025 856.795 499.498 855.586 498.97C856.002 499.349 856.68 499.876 857.633 500.269V500.269Z" fill="#9D413B"/>
    <path d="M803.344 478.414C803.804 478.235 804.571 477.866 805.295 477.131C805.765 476.654 806.07 476.173 806.271 475.783C806.25 475.751 806.229 475.72 806.208 475.688C805.253 476.596 804.298 477.505 803.344 478.414H803.344Z" fill="#9D413B"/>
    <path d="M797.163 514.924C796.89 516.281 796.616 517.638 796.342 518.996L796.445 518.992C796.65 518.564 796.859 518.031 797.005 517.396C797.237 516.388 797.222 515.52 797.163 514.924Z" fill="#9D413B"/>
    <path d="M815.887 531.718C816.65 531.712 817.302 531.601 817.824 531.471L817.805 531.364L813.253 531.306C813.86 531.505 814.769 531.725 815.887 531.718Z" fill="#9D413B"/>
    <path d="M880.654 529.725C881.247 530.616 881.924 531.551 882.719 532.51C884.342 534.466 885.986 535.985 887.416 537.136C885.235 534.624 883.054 532.112 880.873 529.6C880.8 529.641 880.726 529.681 880.654 529.725Z" fill="#9D413B"/>
    <path d="M900.584 355.467C907.989 356.095 910.182 355.27 911.553 354.5C914.63 352.773 914.005 350.942 918.22 346.769C920.19 344.819 922.184 343.192 927.039 340.648C928.203 340.038 936.686 336.65 937.578 336.353C943.681 334.324 949.307 330.941 951.021 329.911C957.072 326.272 960.118 324.381 961.13 320.891C961.957 318.036 961.736 313.793 959.086 311.871C956.837 310.241 953.829 310.994 952.688 311.281C949.749 312.017 948.099 313.708 944.783 316.918C939.636 321.902 937.067 324.4 936.072 325.079C931.978 327.873 924.761 329.461 922.845 330.125C920.82 330.828 917.695 331.911 914.887 330.591C911.801 329.14 910.864 325.618 910.728 325.079C910.035 322.311 911.033 319.939 913.058 315.307C919.358 300.899 920.112 299.68 922.2 298.127C923.674 297.03 925.584 296.179 929.405 294.476C936.642 291.251 937.608 292.045 941.234 289.751C944.478 287.7 943.529 287.078 949.838 281.591C952.562 279.221 954.296 277.727 956.936 276.114C960.72 273.803 961.605 274.157 965.647 271.927C969.727 269.675 974.81 266.871 974.465 264.088C974.174 261.744 970.111 260.049 967.26 259.9C964.161 259.739 960.969 261.309 959.947 261.833C959.061 262.287 957.032 263.293 953.494 266.45C950.745 268.905 948.462 270.942 945.644 274.289C941.895 278.741 942.33 279.415 939.514 281.913C936.489 284.595 933.919 285.651 931.986 286.423C929.947 287.236 927.587 288.178 926.931 287.389C926.192 286.499 928.191 284.097 930.373 280.195C931.592 278.015 932.691 275.199 934.89 269.564C936.677 264.983 938.493 260.329 940.052 254.209C942.222 245.69 943.395 240.802 940.697 237.566C940.503 237.333 938.231 234.692 934.997 234.881C932.287 235.04 930.574 237.089 930.265 237.458C928.571 239.485 928.446 241.87 928.329 243.579C928.027 248.004 927.142 252.372 926.716 256.786C926.716 256.787 926.108 263.103 924.028 270.316C923.594 271.82 922.643 274.909 916.285 287.604C910.195 299.762 909.474 300.113 907.574 305.321C906.05 309.498 904.502 313.743 903.487 319.71C902.103 327.846 902.918 332.095 900.799 332.917C898.029 333.992 893.377 328.001 892.518 326.904C888.558 321.85 887.58 316.485 887.141 313.911C886.432 309.756 887.313 310.397 887.141 299.845C887.019 292.356 886.553 290.704 887.786 287.604C888.664 285.396 890.128 283.591 893.056 279.98C896.894 275.247 897.831 274.891 899.831 271.927C900.305 271.223 902.674 267.648 904.132 262.477C904.919 259.69 907.897 249.136 903.272 245.619C901.643 244.38 899.204 244.118 897.25 244.76C894.503 245.663 893.311 248.156 893.056 248.733C892.148 250.787 892.67 252.216 892.733 255.176C892.786 257.672 892.41 259.596 891.658 263.444C890.706 268.31 887.959 277.631 885.313 277.51C883.84 277.443 883.569 274.507 881.011 268.598C879.48 265.061 876.533 258.398 871.117 252.921C869.112 250.893 862.363 244.066 857.567 246.049C855.447 246.925 854.162 249.636 853.91 251.847C853.615 254.442 854.784 256.431 855.308 257.323C856.028 258.548 856.887 259.435 858.965 261.082C862.22 263.661 863.944 264.521 866.385 266.236C868.312 267.59 870.746 269.299 873.053 271.927C873.916 272.91 876.779 276.32 878.537 281.698C880.069 286.383 881.429 290.542 879.398 293.402C876.21 297.89 867.06 295.815 865.417 295.442C863.681 295.049 854.931 293.064 851.544 286.101C849.879 282.675 850.259 279.582 847.028 272.893C846.413 271.621 845.627 270.134 844.016 269.457C841.638 268.457 838.404 269.618 836.811 271.712C836.383 272.275 835.129 274.147 836.166 279.336C836.681 281.916 838.184 288.891 844.662 294.583C850.995 300.149 858.407 301.255 859.933 301.456C867.508 302.453 872.939 299.958 875.419 303.174C876.216 304.207 876.18 305.146 876.387 307.254C876.969 313.193 878.609 319.611 880.581 323.897C883.634 330.537 887.675 332.483 886.603 336.139C886.098 337.86 884.784 338.866 884.13 339.36C880.507 342.097 874.973 341.341 871.44 339.145C868.193 337.127 869.018 335.377 864.772 330.125C862.395 327.186 859.794 325.135 854.591 321.034C848.548 316.27 845.488 313.906 843.64 314.788C841.796 315.669 841.161 318.922 841.758 321.32C842.3 323.499 843.746 324.519 847.35 327.334C854.212 332.691 857.642 335.37 859.718 337.749C859.968 338.037 862.183 340.591 864.782 343.432C864.934 343.597 864.968 343.635 864.987 343.655C866.607 345.392 867.839 346.693 869.827 347.843C871.916 349.052 873.591 349.372 875.741 349.883C881.388 351.224 880.354 351.516 886.28 352.997C890.03 353.934 893.5 354.865 900.584 355.467L900.584 355.467Z" fill="#D75047"/>
    <path d="M945.508 321.43C946.755 323.728 948.54 326.529 951.062 329.415C951.154 329.52 951.246 329.616 951.338 329.72C951.677 329.515 952.009 329.315 952.329 329.122C950.055 326.558 947.782 323.994 945.508 321.43Z" fill="#9D413B"/>
    <path d="M911.644 318.652C911.66 318.611 911.675 318.57 911.692 318.529L904.051 316.833C904.043 316.867 904.036 316.9 904.029 316.933C905.03 317.331 906.184 317.72 907.498 318.032C909.031 318.395 910.427 318.571 911.644 318.652V318.652Z" fill="#9D413B"/>
    <path d="M914.123 305.682C915.131 306.104 916.077 306.384 916.935 306.58C916.994 306.452 917.052 306.326 917.109 306.201C914.823 305.278 912.537 304.355 910.251 303.432C911.167 304.137 912.456 304.984 914.123 305.682V305.682Z" fill="#9D413B"/>
    <path d="M927.388 328.793C927.189 328.854 926.988 328.915 926.796 328.972C927.694 330.924 928.821 332.363 929.705 333.312C928.932 331.806 928.16 330.3 927.388 328.793Z" fill="#9D413B"/>
    <path d="M938.802 322.677C938.693 322.78 938.589 322.878 938.486 322.974C939.428 324.524 940.688 326.295 942.367 328.084C943.977 329.8 945.6 331.135 947.063 332.169C947.249 332.069 947.438 331.969 947.615 331.872C944.678 328.807 941.74 325.742 938.802 322.677Z" fill="#9D413B"/>
    <path d="M934.56 243.863C935.834 244.242 937.565 244.619 939.638 244.687C940.534 244.716 941.363 244.68 942.124 244.61C942.141 244.466 942.157 244.322 942.17 244.182C939.634 244.075 937.097 243.969 934.56 243.863L934.56 243.863Z" fill="#9D413B"/>
    <path d="M939.027 282.321C939.518 283.105 940.196 284.02 941.129 284.928C942.199 285.969 943.282 286.688 944.191 287.184C944.254 287.111 944.316 287.041 944.383 286.964C942.657 285.366 940.931 283.769 939.205 282.172C939.145 282.223 939.087 282.271 939.027 282.321Z" fill="#9D413B"/>
    <path d="M946.675 275.802C947.724 276.862 948.777 277.563 949.578 278.012C948.321 276.708 947.065 275.404 945.808 274.099C945.752 274.165 945.7 274.223 945.644 274.289C945.598 274.343 945.561 274.39 945.517 274.443C945.848 274.886 946.219 275.342 946.675 275.802Z" fill="#9D413B"/>
    <path d="M958.028 265.964C958.497 266.969 959.301 268.378 960.646 269.766C961.972 271.135 963.363 272.005 964.463 272.552C964.573 272.496 964.685 272.439 964.8 272.379C962.543 270.241 960.285 268.102 958.028 265.964V265.964Z" fill="#9D413B"/>
    <path d="M959.66 261.981C959.974 262.562 960.371 263.189 960.884 263.825C962.265 265.539 963.814 266.505 964.787 267.009C963.225 265.258 961.663 263.507 960.101 261.755C960.047 261.782 959.992 261.81 959.947 261.833C959.863 261.876 959.765 261.927 959.66 261.981V261.981Z" fill="#9D413B"/>
    <path d="M973.974 265.9C972.768 264.717 971.562 263.534 970.356 262.352C970.685 262.947 971.192 263.718 971.951 264.49C972.632 265.183 973.318 265.675 973.898 266.023C973.925 265.982 973.949 265.941 973.974 265.9Z" fill="#9D413B"/>
    <path d="M879.758 285.668C880.452 285.716 881.2 285.739 882.008 285.712C883.533 285.66 884.866 285.454 885.959 285.213C883.876 285.306 881.793 285.398 879.71 285.491C879.726 285.55 879.743 285.609 879.758 285.668H879.758Z" fill="#9D413B"/>
    <path d="M889.366 271.695C889.919 272.179 890.599 272.7 891.433 273.188C892.68 273.918 893.84 274.328 894.717 274.566C892.956 273.548 891.195 272.529 889.434 271.51C889.411 271.572 889.389 271.634 889.366 271.695H889.366Z" fill="#9D413B"/>
    <path d="M899.002 265.393C900.539 265.658 901.908 265.706 903.055 265.668C903.078 265.61 903.101 265.552 903.124 265.493C900.005 264.905 896.885 264.318 893.766 263.73C895.026 264.331 896.799 265.015 899.002 265.393Z" fill="#9D413B"/>
    <path d="M894.813 251.277C896.468 251.488 898.539 251.61 900.906 251.42C902.728 251.274 904.325 250.972 905.689 250.631C905.684 250.593 905.683 250.553 905.678 250.515C902.056 250.769 898.434 251.023 894.813 251.277Z" fill="#9D413B"/>
    <path d="M892.667 253.772C893.697 253.947 894.893 254.078 896.241 254.082C898.142 254.087 899.775 253.842 901.049 253.559C898.252 253.588 895.455 253.617 892.659 253.647L892.667 253.772L892.667 253.772Z" fill="#9D413B"/>
    <path d="M924.411 268.936C925.173 269.245 926.043 269.541 927.039 269.766C928.879 270.182 930.478 270.221 931.64 270.162C929.262 269.633 926.883 269.103 924.505 268.573C924.473 268.695 924.444 268.813 924.411 268.936H924.411Z" fill="#9D413B"/>
    <path d="M928.683 240.752C930.03 241.262 931.802 241.781 933.925 242.025C936.425 242.313 938.543 242.12 940.05 241.867C936.274 241.438 932.498 241.009 928.723 240.58C928.708 240.638 928.696 240.694 928.683 240.752Z" fill="#9D413B"/>
    <path d="M927.843 248.193C929.601 248.773 931.728 249.331 934.211 249.661C936.841 250.011 939.183 250.019 941.123 249.893L941.166 249.707C936.731 249.159 932.295 248.611 927.859 248.064C927.854 248.107 927.848 248.15 927.843 248.193V248.193Z" fill="#9D413B"/>
    <path d="M883.182 312.082C884.58 312.088 885.826 311.955 886.88 311.773C886.877 311.705 886.874 311.638 886.871 311.572C884.086 311.563 881.302 311.553 878.517 311.544C879.741 311.825 881.326 312.075 883.182 312.082L883.182 312.082Z" fill="#9D413B"/>
    <path d="M857.255 253.464C858.466 252.728 860.035 251.604 861.587 249.947C862.534 248.934 863.265 247.941 863.846 247.037C863.751 246.985 863.655 246.934 863.559 246.884C861.457 249.077 859.356 251.27 857.255 253.464Z" fill="#9D413B"/>
    <path d="M856.32 258.71C857.212 258.213 858.223 257.552 859.254 256.648C860.903 255.204 861.973 253.705 862.634 252.608C860.464 254.565 858.293 256.523 856.123 258.48C856.186 258.556 856.251 258.633 856.32 258.71H856.32Z" fill="#9D413B"/>
    <path d="M877.43 261.334C877.408 261.296 877.385 261.257 877.363 261.22C875.373 263.102 873.383 264.984 871.393 266.867C872.415 266.32 873.758 265.464 875.106 264.158C876.131 263.164 876.878 262.179 877.43 261.334L877.43 261.334Z" fill="#9D413B"/>
    <path d="M835.785 276.362C835.787 276.407 835.789 276.453 835.792 276.499C836.875 276.258 838.061 275.933 839.325 275.485C841.142 274.842 842.691 274.099 843.958 273.394C841.234 274.383 838.509 275.372 835.785 276.362H835.785Z" fill="#9D413B"/>
    <path d="M850.401 320.004C850.737 319.427 850.984 318.876 851.176 318.37C851.119 318.326 851.062 318.283 851.005 318.24C849.931 319.842 848.857 321.444 847.782 323.046C848.525 322.446 849.549 321.463 850.401 320.004Z" fill="#9D413B"/>
    <path d="M848.336 316.307C846.682 318.889 845.028 321.472 843.373 324.054C843.413 324.094 843.454 324.134 843.495 324.174C844.476 323.078 845.535 321.735 846.545 320.099C847.356 318.785 847.979 317.534 848.47 316.398C848.426 316.368 848.38 316.336 848.336 316.307Z" fill="#9D413B"/>
    <path d="M851.849 330.858C852.445 330.411 853.089 329.864 853.733 329.177C855.065 327.757 855.87 326.326 856.351 325.28C854.79 327.091 853.228 328.903 851.667 330.715C851.726 330.762 851.79 330.812 851.849 330.858Z" fill="#9D413B"/>
    <path d="M868.068 335.081C867.256 336.218 866.445 337.355 865.633 338.493C866.06 338.235 866.745 337.748 867.347 336.924C867.78 336.331 868.026 335.756 868.179 335.287C868.144 335.22 868.105 335.149 868.068 335.081H868.068Z" fill="#9D413B"/>
    <path d="M884.139 329.763C884.588 329.687 885.102 329.558 885.658 329.32C886.654 328.891 887.333 328.311 887.72 327.925C886.471 328.461 885.222 328.997 883.973 329.533C884.028 329.609 884.085 329.688 884.139 329.763L884.139 329.763Z" fill="#9D413B"/>
    <path d="M854.018 292.437C854.571 291.834 854.968 291.246 855.26 290.74C855.238 290.721 855.215 290.703 855.192 290.684C854.145 291.818 853.098 292.951 852.051 294.085C852.604 293.734 853.315 293.205 854.018 292.437L854.018 292.437Z" fill="#9D413B"/>
    <path d="M846.631 296.142C847.407 295.62 848.261 294.968 849.131 294.148C850.35 293 851.248 291.861 851.892 290.916C850.085 292.619 848.277 294.321 846.469 296.024C846.523 296.063 846.577 296.103 846.631 296.142Z" fill="#9D413B"/>
    <path d="M849.096 278.001C846.981 278.863 844.867 279.725 842.752 280.587C843.644 280.547 845.02 280.377 846.561 279.731C847.666 279.268 848.526 278.696 849.16 278.194C849.14 278.132 849.116 278.064 849.096 278.001Z" fill="#9D413B"/>
    <path d="M938.796 259.642L934.607 258.914C935.128 259.151 935.853 259.418 936.749 259.563C937.557 259.694 938.261 259.687 938.796 259.642Z" fill="#9D413B"/>
    <path d="M926.991 282.947C927.541 283.175 928.047 283.299 928.483 283.373L928.571 283.23C927.362 282.703 926.153 282.175 924.944 281.648C925.361 282.027 926.038 282.554 926.991 282.947V282.947Z" fill="#9D413B"/>
    <path d="M872.702 261.092C873.162 260.913 873.929 260.544 874.654 259.809C875.123 259.332 875.428 258.851 875.629 258.461C875.608 258.429 875.588 258.398 875.566 258.366C874.611 259.274 873.657 260.183 872.702 261.092H872.702Z" fill="#9D413B"/>
    <path d="M866.522 297.602C866.248 298.959 865.974 300.316 865.7 301.674L865.803 301.67C866.008 301.242 866.217 300.709 866.363 300.074C866.595 299.066 866.58 298.198 866.522 297.602Z" fill="#9D413B"/>
    <path d="M885.245 314.396C886.008 314.39 886.66 314.279 887.182 314.149L887.164 314.042L882.611 313.984C883.218 314.183 884.127 314.403 885.245 314.396Z" fill="#9D413B"/>
    <path d="M950.012 312.403C950.605 313.294 951.282 314.229 952.077 315.188C953.7 317.144 955.344 318.663 956.774 319.814C954.593 317.302 952.412 314.79 950.231 312.278C950.158 312.319 950.084 312.359 950.012 312.403Z" fill="#9D413B"/>
</svg>
