<svg viewBox="0 0 870 540" fill="none" xmlns="http://www.w3.org/2000/svg">
<rect x="3" y="3" width="864" height="533.4" rx="77" fill="white" stroke="#844EA5" stroke-width="6"/>
<path d="M178 126.541C178.001 135.693 175.288 144.641 170.204 152.251C165.12 159.861 157.894 165.793 149.438 169.296C140.983 172.799 131.679 173.717 122.702 171.932C113.726 170.147 105.48 165.74 99.008 159.269C92.536 152.797 88.1284 144.552 86.3426 135.576C84.5568 126.599 85.4729 117.295 88.9752 108.839C92.4775 100.384 98.4087 93.1563 106.019 88.0716C113.628 82.9869 122.575 80.273 131.728 80.2732C136.887 80.2786 142.006 81.1831 146.855 82.946C155.801 86.2792 163.547 92.2108 169.097 99.9791C174.646 107.747 177.747 116.997 178 126.541Z" fill="#9F1827"/>
<path d="M123.049 172.003C122.053 171.808 121.243 171.623 120.677 171.487C120.042 171.334 119.906 171.29 118.66 170.982C117.414 170.675 117.4 170.677 116.893 170.547C116.348 170.408 115.603 170.203 114.743 169.907C114.743 169.907 113.465 169.47 112.147 168.871C107.794 166.767 103.751 164.072 100.134 160.862C95.6936 156.845 92.0681 152.01 89.4559 146.622C86.5687 140.184 85.0524 133.216 85.0033 126.161C84.9381 120.994 85.8448 115.861 87.6761 111.029C90.0478 104.018 94.185 97.7359 99.6892 92.7877C103.522 89.3126 107.876 86.4601 112.593 84.3341C115.067 83.3151 117.591 82.423 120.156 81.6612C120.792 81.4852 121.482 81.3184 122.225 81.1746C122.984 81.0271 123.7 80.9221 124.369 80.8474C123.447 81.6769 122.097 82.9175 120.49 84.4419C117.743 87.0484 113.893 90.6586 112.147 92.784C107.813 98.0618 104.494 104.097 102.359 110.584C100.192 116.717 99.2825 123.224 99.6864 129.716C100.174 137.522 103.162 142.867 106.805 149.738C111.146 157.886 116.615 165.382 123.049 172.003Z" fill="#7B141B"/>
<path d="M131.725 62.4729C133.006 61.4473 134.619 60.9264 136.259 61.0084C137.898 61.0904 139.451 61.7697 140.624 62.9181C141.513 64.6979 139.288 66.4776 137.064 73.1487C134.839 78.9331 134.839 81.6023 133.949 81.6023C133.058 81.6023 132.169 76.263 131.276 71.3717C130.389 64.2509 131.28 62.9163 131.725 62.4729Z" fill="#503A23"/>
<path d="M355 368.541C355.001 377.693 352.288 386.641 347.204 394.251C342.12 401.861 334.894 407.793 326.438 411.296C317.983 414.799 308.679 415.717 299.702 413.932C290.726 412.147 282.48 407.74 276.008 401.269C269.536 394.797 265.128 386.552 263.343 377.576C261.557 368.599 262.473 359.295 265.975 350.839C269.478 342.384 275.409 335.156 283.019 330.072C290.628 324.987 299.575 322.273 308.728 322.273C313.887 322.279 319.006 323.183 323.855 324.946C332.801 328.279 340.547 334.211 346.097 341.979C351.646 349.747 354.747 358.997 355 368.541Z" fill="#9F1827"/>
<path d="M300.049 414.003C299.053 413.808 298.243 413.623 297.677 413.487C297.042 413.334 296.906 413.29 295.66 412.982C294.414 412.675 294.4 412.677 293.893 412.547C293.348 412.408 292.603 412.203 291.743 411.907C291.743 411.907 290.465 411.47 289.147 410.871C284.794 408.767 280.751 406.072 277.134 402.862C272.694 398.845 269.068 394.01 266.456 388.622C263.569 382.184 262.052 375.216 262.003 368.161C261.938 362.994 262.845 357.861 264.676 353.029C267.048 346.018 271.185 339.736 276.689 334.788C280.522 331.313 284.876 328.46 289.593 326.334C292.067 325.315 294.591 324.423 297.156 323.661C297.792 323.485 298.482 323.318 299.225 323.175C299.984 323.027 300.7 322.922 301.369 322.847C300.447 323.677 299.097 324.917 297.49 326.442C294.743 329.048 290.893 332.659 289.147 334.784C284.813 340.062 281.494 346.097 279.359 352.584C277.192 358.717 276.283 365.224 276.686 371.716C277.174 379.522 280.162 384.867 283.805 391.738C288.146 399.886 293.615 407.382 300.049 414.003Z" fill="#7B141B"/>
<path d="M308.725 304.473C310.006 303.447 311.619 302.926 313.259 303.008C314.898 303.09 316.451 303.77 317.624 304.918C318.513 306.698 316.288 308.478 314.064 315.149C311.839 320.933 311.839 323.602 310.949 323.602C310.058 323.602 309.169 318.263 308.276 313.372C307.389 306.251 308.28 304.916 308.725 304.473Z" fill="#503A23"/>
<path d="M721 392.541C721.001 401.693 718.288 410.641 713.204 418.251C708.12 425.861 700.894 431.793 692.438 435.296C683.983 438.799 674.679 439.717 665.702 437.932C656.726 436.147 648.48 431.74 642.008 425.269C635.536 418.797 631.128 410.552 629.343 401.576C627.557 392.599 628.473 383.295 631.975 374.839C635.478 366.384 641.409 359.156 649.019 354.072C656.628 348.987 665.575 346.273 674.728 346.273C679.887 346.279 685.006 347.183 689.855 348.946C698.801 352.279 706.547 358.211 712.097 365.979C717.646 373.747 720.747 382.997 721 392.541Z" fill="#9F1827"/>
<path d="M666.049 438.003C665.053 437.808 664.243 437.623 663.677 437.487C663.042 437.334 662.906 437.29 661.66 436.982C660.414 436.675 660.4 436.677 659.893 436.547C659.348 436.408 658.603 436.203 657.743 435.907C657.743 435.907 656.465 435.47 655.147 434.871C650.794 432.767 646.751 430.072 643.134 426.862C638.694 422.845 635.068 418.01 632.456 412.622C629.569 406.184 628.052 399.216 628.003 392.161C627.938 386.994 628.845 381.861 630.676 377.029C633.048 370.018 637.185 363.736 642.689 358.788C646.522 355.313 650.876 352.46 655.593 350.334C658.067 349.315 660.591 348.423 663.156 347.661C663.792 347.485 664.482 347.318 665.225 347.175C665.984 347.027 666.7 346.922 667.369 346.847C666.447 347.677 665.097 348.917 663.49 350.442C660.743 353.048 656.893 356.659 655.147 358.784C650.813 364.062 647.494 370.097 645.359 376.584C643.192 382.717 642.283 389.224 642.686 395.716C643.174 403.522 646.162 408.867 649.805 415.738C654.146 423.886 659.615 431.382 666.049 438.003Z" fill="#7B141B"/>
<path d="M674.725 328.473C676.006 327.447 677.619 326.926 679.259 327.008C680.898 327.09 682.451 327.77 683.624 328.918C684.513 330.698 682.288 332.478 680.064 339.149C677.839 344.933 677.839 347.602 676.949 347.602C676.058 347.602 675.169 342.263 674.276 337.372C673.389 330.251 674.28 328.916 674.725 328.473Z" fill="#503A23"/>
<path d="M623 165.541C623.001 174.693 620.288 183.641 615.204 191.251C610.12 198.861 602.894 204.793 594.438 208.296C585.983 211.799 576.679 212.717 567.702 210.932C558.726 209.147 550.48 204.74 544.008 198.269C537.536 191.797 533.128 183.552 531.343 174.576C529.557 165.599 530.473 156.295 533.975 147.839C537.478 139.384 543.409 132.156 551.019 127.072C558.628 121.987 567.575 119.273 576.728 119.273C581.887 119.279 587.006 120.183 591.855 121.946C600.801 125.279 608.547 131.211 614.097 138.979C619.646 146.747 622.747 155.997 623 165.541Z" fill="#9F1827"/>
<path d="M568.049 211.003C567.053 210.808 566.243 210.623 565.677 210.487C565.042 210.334 564.906 210.29 563.66 209.982C562.414 209.675 562.4 209.677 561.893 209.547C561.348 209.408 560.603 209.203 559.743 208.907C559.743 208.907 558.465 208.47 557.147 207.871C552.794 205.767 548.751 203.072 545.134 199.862C540.694 195.845 537.068 191.01 534.456 185.622C531.569 179.184 530.052 172.216 530.003 165.161C529.938 159.994 530.845 154.861 532.676 150.029C535.048 143.018 539.185 136.736 544.689 131.788C548.522 128.313 552.876 125.46 557.593 123.334C560.067 122.315 562.591 121.423 565.156 120.661C565.792 120.485 566.482 120.318 567.225 120.175C567.984 120.027 568.7 119.922 569.369 119.847C568.447 120.677 567.097 121.917 565.49 123.442C562.743 126.048 558.893 129.659 557.147 131.784C552.813 137.062 549.494 143.097 547.359 149.584C545.192 155.717 544.283 162.224 544.686 168.716C545.174 176.522 548.162 181.867 551.805 188.738C556.146 196.886 561.615 204.382 568.049 211.003Z" fill="#7B141B"/>
<path d="M576.725 101.473C578.006 100.447 579.619 99.9264 581.259 100.008C582.898 100.09 584.451 100.77 585.624 101.918C586.513 103.698 584.288 105.478 582.064 112.149C579.839 117.933 579.839 120.602 578.949 120.602C578.058 120.602 577.169 115.263 576.276 110.372C575.389 103.251 576.28 101.916 576.725 101.473Z" fill="#503A23"/>
</svg>
