<svg viewBox="0 0 407 410" fill="none" xmlns="http://www.w3.org/2000/svg">
<circle cx="203.5" cy="206.5" r="203.5" fill="#2A6D76"/>
<circle cx="206" cy="201" r="201" fill="url(#paint0_radial_1628_5419)"/>
<path d="M213.443 122.933C214.151 119.561 215.251 114.313 212.387 108.682C211.697 107.325 209.581 103.133 204.855 100.988C199.654 98.6282 194.843 100.108 193.715 100.488C194.516 100.275 199.73 98.9781 204.43 102.091C208.192 104.584 209.543 108.519 209.804 109.352C209.876 109.582 209.927 109.761 209.959 109.878C211.373 114.922 209.472 119.085 208.948 120.146C209.13 118.7 209.506 114.192 206.707 109.939C205.891 108.698 204.435 106.461 201.496 105.147C198.69 103.891 196.101 104.164 194.989 104.35C196.05 104.4 198.345 104.654 200.67 106.181C203.405 107.978 204.51 110.439 204.918 111.381C206.503 115.045 205.822 118.398 205.525 119.571C205.178 118.046 204.013 113.886 200.139 110.667C198.776 109.534 196.282 107.398 192.531 107.252C189.978 107.152 187.98 108.013 186.948 108.554C188.085 108.243 190.085 107.87 192.407 108.412C195.707 109.183 197.644 111.313 198.625 112.393C203.593 117.865 202.73 125.783 202.543 127.272C203.124 127.525 208.519 129.797 211.538 127.196C212.122 126.693 212.839 125.816 213.443 122.933Z" fill="#3A1919"/>
<path d="M124.005 311.897C131.1 299.073 139.467 279.434 139.225 255.416C138.969 229.87 129.235 224.122 130.357 200.287C130.618 194.759 133.038 156.28 163.849 134.907C180.598 123.288 198.099 122.024 205.201 121.916C211.606 121.818 231.425 122.328 250.057 135.719C280.949 157.921 282.024 196.451 282.192 202.482C282.619 217.785 278.664 221.28 276.977 238.958C274.348 266.501 280.916 289.758 287.224 305.6C265.168 310.527 238.315 314.794 207.613 316.095C175.435 317.458 147.139 315.22 124.005 311.897Z" fill="#6D4D48"/>
<path d="M162.763 306.937C164.076 299.221 167.369 286 176.478 273.786C176.478 273.786 185.321 261.979 194.949 258.5C199.374 256.901 202.967 256.751 204.734 256.709C207.089 256.654 211.974 256.633 217.731 259.136C225.449 262.492 230.129 268.371 232.733 271.753C244.262 286.721 245.81 306.515 246.109 313.014C236.071 315.314 221.495 317.508 203.995 316.234C186.479 314.959 172.365 310.671 162.763 306.937Z" fill="#936F6A"/>
<path d="M225.899 174.476H225.899C223.261 174.476 221.122 176.611 221.122 179.246V181.885C221.122 184.519 223.261 186.655 225.899 186.655H225.899C228.537 186.655 230.676 184.519 230.676 181.885V179.246C230.676 176.611 228.537 174.476 225.899 174.476Z" fill="#3A1919"/>
<path d="M185.142 174.476H185.142C182.504 174.476 180.365 176.611 180.365 179.246V181.885C180.365 184.519 182.504 186.655 185.142 186.655H185.142C187.781 186.655 189.919 184.519 189.919 181.885V179.246C189.919 176.611 187.781 174.476 185.142 174.476Z" fill="#3A1919"/>
<path d="M156.588 217.203C163.282 217.203 168.709 213.428 168.709 208.771C168.709 204.114 163.282 200.339 156.588 200.339C149.893 200.339 144.467 204.114 144.467 208.771C144.467 213.428 149.893 217.203 156.588 217.203Z" fill="#914343"/>
<path d="M250.223 217.203C256.917 217.203 262.344 213.428 262.344 208.771C262.344 204.114 256.917 200.339 250.223 200.339C243.529 200.339 238.102 204.114 238.102 208.771C238.102 213.428 243.529 217.203 250.223 217.203Z" fill="#914343"/>
<path d="M241.981 198.442C236.279 199.769 233.019 201.968 231.608 203.006C229.675 204.43 228.274 205.888 227.323 207.006C227.304 207.025 227.287 207.043 227.27 207.065C227.261 207.076 227.248 207.09 227.238 207.101C227.241 207.103 227.244 207.105 227.246 207.107C227.17 207.224 227.122 207.36 227.133 207.509C227.162 207.87 227.477 208.139 227.838 208.11C228.012 208.097 228.162 208.014 228.271 207.895L228.273 207.896C228.274 207.894 228.276 207.891 228.278 207.889C228.285 207.881 228.29 207.872 228.296 207.864C229.163 206.632 230.538 204.938 232.573 203.332C234.882 201.51 237.683 200.079 241.993 199.019C250.947 196.816 258.181 198.193 258.186 198.109C258.192 198.025 250.856 196.376 241.981 198.442Z" fill="#3A1919"/>
<path d="M244.938 208.226C239.469 207.915 235.961 209.03 234.421 209.591C232.309 210.36 230.666 211.3 229.517 212.052C229.495 212.065 229.474 212.077 229.454 212.092C229.443 212.099 229.427 212.108 229.416 212.116C229.418 212.118 229.42 212.121 229.421 212.123C229.322 212.208 229.243 212.317 229.214 212.454C229.144 212.785 229.356 213.11 229.688 213.18C229.847 213.213 230.004 213.179 230.133 213.1L230.134 213.102C230.136 213.1 230.139 213.098 230.141 213.097C230.149 213.091 230.156 213.085 230.164 213.079C231.267 212.201 232.95 211.043 235.201 210.138C237.755 209.11 240.647 208.563 244.796 208.746C253.416 209.127 259.547 212.269 259.574 212.195C259.601 212.121 253.451 208.709 244.938 208.226Z" fill="#3A1919"/>
<path d="M168.744 199.1C174.446 200.428 177.707 202.626 179.117 203.664C181.05 205.088 182.451 206.547 183.403 207.664C183.421 207.683 183.438 207.702 183.455 207.723C183.464 207.734 183.477 207.748 183.487 207.759C183.484 207.762 183.481 207.764 183.479 207.766C183.555 207.882 183.603 208.018 183.592 208.168C183.563 208.528 183.248 208.797 182.887 208.769C182.713 208.755 182.563 208.673 182.455 208.553L182.452 208.555C182.451 208.552 182.449 208.549 182.447 208.547C182.44 208.539 182.436 208.53 182.429 208.522C181.562 207.29 180.187 205.597 178.152 203.991C175.843 202.168 173.042 200.738 168.732 199.677C159.778 197.474 152.544 198.851 152.539 198.767C152.534 198.683 159.869 197.035 168.744 199.1H168.744Z" fill="#3A1919"/>
<path d="M165.558 208.226C171.027 207.915 174.535 209.03 176.075 209.591C178.187 210.36 179.83 211.3 180.979 212.052C181.001 212.065 181.021 212.077 181.042 212.092C181.053 212.099 181.069 212.108 181.08 212.116C181.078 212.118 181.076 212.121 181.074 212.123C181.174 212.208 181.253 212.317 181.282 212.454C181.352 212.785 181.14 213.11 180.808 213.18C180.649 213.213 180.492 213.179 180.363 213.1L180.362 213.102C180.359 213.1 180.357 213.098 180.355 213.097C180.346 213.091 180.34 213.085 180.332 213.079C179.228 212.201 177.546 211.043 175.295 210.138C172.741 209.11 169.849 208.563 165.7 208.746C157.08 209.127 150.949 212.269 150.922 212.195C150.895 212.121 157.045 208.709 165.558 208.226Z" fill="#3A1919"/>
<path d="M235.83 315.845C235.261 312.388 234.526 307.129 234.153 300.665C233.646 291.877 234.071 285.399 233.22 285.297C232.043 285.155 232.696 296.67 225.175 304.973C220.726 309.885 213.317 313.782 205.006 313.239C196.756 312.7 190.133 307.945 186.468 302.993C181.166 295.83 181.632 287.687 179.735 287.742C178.696 287.772 178.397 290.65 176.15 297.085C175.007 300.356 173.919 302.96 173.2 304.605C172.694 305.532 171.79 307.505 171.916 310.082C171.982 311.447 172.317 312.563 172.629 313.346C178.641 315.685 183.866 316.922 187.724 317.619C193.926 318.741 198.709 318.853 204.305 318.984C207.923 319.069 212.888 319.17 219.401 318.569C224.213 318.125 229.757 317.307 235.83 315.845H235.83Z" fill="#7F5B58"/>
<path fill-rule="evenodd" clip-rule="evenodd" d="M323.888 200.591C323.888 168.1 310.717 138.687 289.421 117.368C288.633 116.795 288.121 115.865 288.121 114.817C288.121 113.074 289.535 111.662 291.28 111.662C292.027 111.662 292.714 111.92 293.254 112.353L293.263 112.323C315.946 134.783 330 165.919 330 200.339C330 268.805 274.419 324.307 205.856 324.307C151.766 324.307 105.772 289.756 88.7584 241.556C88.7477 241.526 88.737 241.496 88.7263 241.465C88.5953 241.213 88.4988 240.941 88.443 240.654C84.5692 229.431 83.2127 220.316 82.7569 216.808C82.6394 215.903 80.5502 198.931 83.8663 180.567C89.9909 146.65 112.178 121.144 119.742 113.032C120.286 112.232 121.205 111.706 122.247 111.706C123.918 111.706 125.273 113.059 125.273 114.728C125.273 115.606 124.897 116.397 124.298 116.949C116.355 124.683 96.8323 145.792 90.3408 179.223C88.5394 188.5 85.1164 212.245 94.2374 238.988C94.2644 239.057 94.2888 239.128 94.3106 239.201C95.7503 243.349 97.4155 247.392 99.2915 251.315C99.2934 251.319 99.2954 251.323 99.2974 251.327M99.2975 251.328C118.286 291.027 158.861 318.457 205.856 318.457C271.043 318.457 323.888 265.686 323.888 200.591" fill="#844EA5"/>
<path d="M139.442 266.776C132.982 281.249 128.435 293.114 125.392 301.568C123.665 306.368 123.182 308.06 122.671 310.198C119.773 322.32 115.891 338.556 128.431 345.463C133.044 348.003 139.71 348.663 154.152 348.356C161.942 348.191 167.993 347.245 171.97 343.412C174.709 340.773 176.489 334.602 176.971 330.453C177.298 327.637 177.361 326.297 177.841 323.77C178.392 320.873 178.885 320.2 180.002 309.565C180.504 304.787 181.293 297.165 181.751 286.914C182.141 278.195 182.297 267.481 181.751 255.176C179.459 258.864 176.709 263.208 173.532 268.061C166.173 279.304 163.649 282.402 159.3 285.376C158.38 286.004 149.007 292.488 143.971 290.667C139.175 288.932 136.337 278.953 139.442 266.776Z" fill="#6D4D48"/>
<path d="M274.345 270.034C280.805 284.507 285.352 296.371 288.394 304.825C290.122 309.625 290.605 311.318 291.116 313.455C294.014 325.578 297.896 341.813 285.355 348.72C280.743 351.26 274.077 351.92 259.635 351.614C251.845 351.448 245.794 350.502 241.817 346.67C239.078 344.03 237.298 337.86 236.816 333.71C236.489 330.894 236.425 329.555 235.945 327.027C235.395 324.13 234.902 323.458 233.784 312.822C233.282 308.044 232.494 300.422 232.036 290.172C231.646 281.453 231.49 270.738 232.036 258.433C234.327 262.121 237.078 266.465 240.255 271.318C247.614 282.561 250.137 285.66 254.487 288.633C255.407 289.262 264.78 295.746 269.816 293.924C274.611 292.189 277.45 282.21 274.345 270.034Z" fill="#6D4D48"/>
<path d="M205.363 233.921C217.407 233.921 227.171 224.641 227.171 213.193C227.171 201.745 217.407 192.464 205.363 192.464C193.318 192.464 183.554 201.745 183.554 213.193C183.554 224.641 193.318 233.921 205.363 233.921Z" fill="#C48686"/>
<path d="M205.363 233.921C213.6 233.921 220.765 229.578 224.476 223.172C222.347 223.406 219.438 223.292 216.611 221.688C215.885 221.276 213.737 220.022 212.236 217.465C210.904 215.194 210.772 213.073 210.632 210.814C210.534 209.243 210.558 206.925 211.215 204.163C207.828 204.455 204.442 204.746 201.055 205.037C201.358 207.744 201.184 209.982 200.958 211.542C200.638 213.746 200.355 215.558 199.062 217.465C198.009 219.017 196.804 219.868 196.485 220.086C195.102 221.03 193.728 221.411 191.381 221.785C189.912 222.019 188.034 222.248 185.83 222.371C189.394 229.209 196.79 233.921 205.363 233.921H205.363Z" fill="#AF7474"/>
<path d="M213.219 202.601C213.798 203.944 212.553 205.439 211.392 206.832C210.173 208.296 208.39 210.437 205.842 210.408C203.453 210.381 201.841 208.464 200.395 206.745C199.098 205.202 197.96 203.849 198.471 202.601C199.389 200.359 204.844 200.374 205.894 200.377C207.157 200.381 212.268 200.395 213.219 202.601Z" fill="#562929"/>
<path d="M286.584 347.975C297.627 340.702 293.915 325.162 291.116 313.456C291.078 313.297 291.04 313.144 291.002 312.989C290.956 312.804 290.902 312.59 290.836 312.333C290.826 312.294 290.816 312.255 290.805 312.216C290.77 312.079 290.73 311.931 290.689 311.777C290.259 310.197 289.663 308.351 288.394 304.825C288.147 304.196 287.817 303.295 287.383 302.049C285.521 296.981 283.185 290.896 280.312 283.935C277.206 271.017 275.37 255.794 276.977 238.958C278.205 226.09 280.628 220.725 281.694 212.862C281.829 211.709 281.913 210.978 281.934 210.791C281.934 210.787 281.935 210.784 281.935 210.78C281.949 210.635 281.966 210.497 281.979 210.35C282.006 210.075 282.022 209.878 282.023 209.875C282.058 209.44 282.082 208.981 282.108 208.526C282.126 208.223 282.149 207.931 282.162 207.617C282.185 207.086 282.194 206.521 282.204 205.958C282.208 205.691 282.22 205.44 282.222 205.165C282.227 204.31 282.218 203.419 282.192 202.482C282.187 202.323 282.182 202.128 282.176 201.924C282.174 201.86 282.171 201.789 282.169 201.721C282.167 201.671 282.165 201.61 282.163 201.557C282.159 201.425 282.154 201.29 282.148 201.143C282.146 201.071 282.143 201.001 282.14 200.926C282.129 200.663 282.117 200.377 282.102 200.075C282.037 198.765 281.945 197.475 281.83 196.205C281.83 196.205 281.828 196.18 281.826 196.163C281.825 196.149 281.824 196.136 281.823 196.121C281.815 196.025 281.805 195.935 281.797 195.839C280.688 184.022 276.335 160.501 258.388 142.766C254.796 139.348 251.789 137.038 250.456 136.021C250.44 136.009 250.43 136.001 250.414 135.989C250.292 135.9 250.18 135.807 250.057 135.719C249.103 135.033 248.144 134.402 247.185 133.782C243.928 131.723 238.116 128.429 230.873 125.951C230.82 125.933 230.766 125.914 230.713 125.897C230.025 125.663 229.321 125.44 228.609 125.223C228.221 125.106 227.839 124.999 227.455 124.89C226.881 124.727 226.311 124.56 225.723 124.41C225.723 124.41 225.722 124.41 225.722 124.41C225.045 124.235 224.381 124.076 223.723 123.924C223.308 123.829 222.893 123.733 222.485 123.647C222.166 123.578 221.857 123.52 221.542 123.457C218.767 122.905 216.159 122.532 213.806 122.292C213.756 122.288 213.708 122.283 213.658 122.278C213.097 122.222 212.549 122.173 212.016 122.13C211.995 122.128 211.976 122.128 211.955 122.126C211.943 122.125 211.931 122.125 211.918 122.124C217.663 123.836 226.035 127.015 234.787 133.133C254.902 147.195 262.643 166.735 265.177 174.34C267.403 181.023 273.589 200.506 266.193 223.259C262.43 234.836 256.498 243.118 252.37 248.024C255.852 252.156 260.573 258.531 264.541 267.126C267.269 273.034 279.667 299.886 267.806 320.273C265.86 323.617 261.469 331.165 253.99 331.974C246.809 332.751 239.029 327.074 234.333 317.667C235.081 323.743 235.495 324.656 235.945 327.027C236.425 329.555 236.489 330.894 236.816 333.71C237.106 336.208 237.874 339.431 239.032 342.183C239.816 343.95 240.495 345.043 241.028 345.749C241.283 346.081 241.542 346.404 241.817 346.67C245.293 350.019 250.353 351.163 256.773 351.509C256.798 351.511 256.824 351.512 256.849 351.513C257.752 351.561 258.679 351.593 259.635 351.614C274.077 351.92 280.743 351.26 285.355 348.72C285.434 348.677 285.881 348.297 286.584 347.975H286.584L286.584 347.975Z" fill="#5B3E3B"/>
<path d="M165.062 331.974C162.048 334.665 157.797 338.374 151.071 340.095C148.573 340.734 138.513 343.307 129.561 337.126C122.999 332.595 120.75 325.928 120.06 323.482C120.059 323.484 120.057 323.487 120.056 323.489C119.035 332.301 120.163 340.909 128.432 345.463C133.044 348.003 139.71 348.663 154.152 348.357C161.942 348.191 167.993 347.245 171.97 343.413C174.709 340.773 176.489 334.603 176.971 330.453C177.298 327.637 177.361 326.298 177.841 323.77C178.164 322.073 178.451 320.84 178.541 320.459C179.125 317.979 179.838 313.615 180.434 305.34C178.892 311.731 175.076 323.032 165.062 331.974H165.062Z" fill="#5B3E3B"/>
<path d="M132.56 356.5C131.804 356.459 131.304 355.212 130.876 354.146C130.723 353.764 130.281 352.604 130.076 350.741C129.957 349.658 130.095 348.226 130.371 345.36C130.433 344.719 130.48 344.299 130.792 343.889C131.517 342.935 132.973 342.954 133.781 342.964C134.46 342.973 136.526 343 137.148 344.226C137.367 344.656 137.328 345.077 137.233 345.697C136.894 347.899 136.32 349.552 135.843 350.951C135.197 352.849 134.994 353.511 134.412 354.524C133.811 355.572 133.242 356.537 132.56 356.5H132.56Z" fill="#B78D8D"/>
<path d="M147.448 358.743C146.741 358.72 146.249 357.292 145.843 356.117C145.402 354.836 145.323 354.066 144.996 351.799C144.441 347.95 144.154 346.61 144.996 345.79C145.296 345.499 145.716 345.295 145.888 345.212C146.791 344.774 147.595 344.777 148.339 344.789C149.286 344.804 149.973 344.815 150.568 345.301C150.925 345.592 151.095 345.928 151.17 346.08C151.796 347.348 151.253 348.911 150.471 351.964C149.922 354.106 149.823 354.763 149.275 356.072C148.721 357.395 148.148 358.765 147.448 358.743H147.448Z" fill="#B78D8D"/>
<path d="M163.35 357.276C164.105 357.235 164.606 355.988 165.033 354.922C165.187 354.54 165.628 353.38 165.833 351.517C165.952 350.434 165.814 349.001 165.539 346.136C165.477 345.494 165.429 345.075 165.118 344.665C164.392 343.711 162.936 343.73 162.129 343.74C161.449 343.749 159.384 343.776 158.761 345.001C158.542 345.432 158.582 345.853 158.677 346.473C159.015 348.675 159.59 350.328 160.066 351.727C160.712 353.625 160.916 354.287 161.497 355.3C162.099 356.348 162.667 357.313 163.35 357.276H163.35Z" fill="#B78D8D"/>
<path d="M250.437 360.533C249.682 360.492 249.181 359.245 248.753 358.179C248.6 357.797 248.159 356.637 247.954 354.774C247.834 353.691 247.972 352.259 248.248 349.394C248.31 348.752 248.357 348.333 248.669 347.922C249.395 346.968 250.85 346.987 251.658 346.998C252.338 347.006 254.403 347.033 255.026 348.259C255.244 348.689 255.205 349.111 255.11 349.73C254.772 351.932 254.197 353.585 253.721 354.985C253.075 356.883 252.871 357.544 252.289 358.558C251.688 359.605 251.12 360.57 250.437 360.533Z" fill="#B78D8D"/>
<path d="M266.339 362C267.045 361.978 267.538 360.549 267.944 359.374C268.385 358.094 268.463 357.324 268.79 355.057C269.346 351.208 269.633 349.868 268.79 349.048C268.491 348.756 268.07 348.552 267.899 348.469C266.996 348.031 266.192 348.034 265.447 348.046C264.5 348.061 263.814 348.072 263.219 348.558C262.862 348.849 262.692 349.186 262.617 349.337C261.991 350.606 262.534 352.168 263.316 355.221C263.865 357.363 263.963 358.02 264.511 359.329C265.065 360.652 265.639 362.022 266.339 362Z" fill="#B78D8D"/>
<path d="M281.227 359.758C281.982 359.717 282.483 358.469 282.911 357.403C283.064 357.021 283.505 355.861 283.711 353.999C283.83 352.916 283.692 351.483 283.416 348.618C283.354 347.976 283.307 347.557 282.995 347.147C282.269 346.192 280.814 346.211 280.006 346.222C279.326 346.231 277.261 346.257 276.638 347.483C276.42 347.913 276.459 348.335 276.554 348.954C276.892 351.156 277.467 352.809 277.943 354.209C278.589 356.107 278.793 356.768 279.375 357.782C279.976 358.829 280.544 359.794 281.227 359.758Z" fill="#B78D8D"/>
<path d="M143.963 99.1999C144.161 99.3367 144.335 99.4947 144.486 99.6745C144.637 99.8548 144.791 100.016 144.95 100.161C145.108 100.305 145.29 100.427 145.494 100.527C145.698 100.627 145.939 100.69 146.215 100.717C146.689 100.784 147.163 100.731 147.638 100.559C148.114 100.387 148.562 100.144 148.981 99.83C149.401 99.5165 149.784 99.1539 150.13 98.7405C150.476 98.3282 150.75 97.9027 150.951 97.4651C151.217 96.7986 151.36 96.094 151.379 95.3519C151.399 94.6104 151.191 93.924 150.756 93.2932C150.35 92.7103 149.802 92.3853 149.112 92.3199C148.422 92.2545 147.595 92.335 146.632 92.5596C145.781 92.7811 144.945 93.0408 144.126 93.3386C143.306 93.6364 142.467 93.8907 141.609 94.0995C140.752 94.3096 139.88 94.4476 138.995 94.5142C138.11 94.5819 137.194 94.5002 136.247 94.2702C135.194 94.0087 134.231 93.5584 133.358 92.9191C132.484 92.2811 131.751 91.5027 131.16 90.5844C130.568 89.6674 130.146 88.648 129.895 87.5264C129.645 86.406 129.627 85.2256 129.841 83.9865C130.168 81.6318 131.197 79.5568 132.93 77.7621C133.856 76.7978 134.929 75.9915 136.147 75.3444C137.366 74.698 138.669 74.2307 140.058 73.9425C141.072 73.7519 142.118 73.6762 143.197 73.7155C144.276 73.7555 145.339 73.8766 146.386 74.0787C147 74.1889 147.585 74.3808 148.139 74.6538C148.693 74.9274 149.151 75.3687 149.515 75.977C149.739 76.3517 149.884 76.7657 149.952 77.2173C150.02 77.6695 150.014 78.118 149.933 78.5629C149.852 79.0084 149.693 79.42 149.458 79.799C149.221 80.1779 148.922 80.4757 148.559 80.6912C148.189 80.9436 147.769 81.0992 147.298 81.1573C146.827 81.216 146.355 81.2118 145.881 81.1446C145.16 81.0023 144.373 80.9079 143.521 80.8601C142.668 80.8122 141.836 80.8716 141.025 81.0374C140.212 81.2039 139.463 81.4993 138.778 81.9236C138.092 82.3485 137.555 82.9617 137.168 83.7644C136.945 84.2153 136.815 84.6887 136.781 85.1856C136.745 85.6832 136.816 86.1172 136.995 86.4877C137.173 86.8581 137.477 87.1378 137.908 87.3254C138.338 87.5137 138.919 87.5173 139.649 87.3357C140.273 87.2183 140.875 87.0415 141.457 86.8061C142.039 86.5706 142.642 86.346 143.267 86.1324C144.025 85.9029 144.829 85.6862 145.676 85.4829C146.524 85.2801 147.382 85.1566 148.253 85.1142C149.124 85.0718 150.002 85.1366 150.885 85.3085C151.768 85.4804 152.627 85.8273 153.457 86.3479C155.008 87.2982 156.235 88.6232 157.135 90.3248C158.037 92.0269 158.475 93.8707 158.447 95.8561C158.416 97.304 158.14 98.683 157.623 99.9923C157.104 101.302 156.397 102.477 155.501 103.519C154.605 104.561 153.547 105.438 152.325 106.151C151.103 106.863 149.764 107.335 148.313 107.565C147.597 107.674 146.862 107.715 146.109 107.688C145.355 107.66 144.622 107.557 143.907 107.38C143.195 107.202 142.511 106.942 141.859 106.6C141.206 106.258 140.627 105.809 140.121 105.253C139.587 104.746 139.15 104.125 138.812 103.389C138.474 102.654 138.357 101.938 138.46 101.24C138.556 100.676 138.799 100.174 139.188 99.7356C139.577 99.2973 140.036 98.9675 140.569 98.7453C141.101 98.5232 141.676 98.4433 142.29 98.505C142.906 98.5673 143.464 98.7992 143.963 99.1999Z" fill="#844EA5"/>
<path d="M177.563 62.0741C178.207 61.8895 178.81 61.8955 179.369 62.0898C179.929 62.2848 180.412 62.6001 180.822 63.0366C181.231 63.473 181.534 63.9893 181.73 64.5856C181.927 65.1818 181.997 65.7859 181.94 66.3979C181.883 67.0098 181.676 67.594 181.318 68.1496C180.96 68.7059 180.415 69.1454 179.681 69.468C179.148 69.6781 178.543 69.8863 177.865 70.0933C177.189 70.3015 176.27 70.5854 175.107 70.945C175.972 73.9607 176.871 76.9661 177.807 79.9605C178.742 82.9556 179.684 86.0197 180.634 89.1523C180.86 89.9392 180.891 90.6607 180.731 91.3162C180.57 91.9724 180.288 92.5208 179.885 92.9621C179.483 93.4028 179.004 93.7169 178.451 93.904C177.897 94.0898 177.332 94.1237 176.756 94.0051C176.179 93.8858 175.643 93.5928 175.147 93.1237C174.651 92.6558 174.261 91.9664 173.974 91.0554C173.036 88.1462 172.113 85.1905 171.201 82.1881C170.289 79.187 169.306 75.9364 168.253 72.4359C167.402 72.6223 166.565 72.7688 165.744 72.8753C164.922 72.9825 164.106 73.0666 163.298 73.1278C162.395 73.1302 161.64 72.8427 161.037 72.2634C160.431 71.6847 160.022 71.0001 159.809 70.2095C159.595 69.4196 159.622 68.6109 159.889 67.7828C160.154 66.9554 160.724 66.3034 161.594 65.8277C162.049 65.6128 162.581 65.4887 163.192 65.456C165.564 65.2611 167.93 64.8682 170.293 64.2787C172.655 63.6891 175.078 62.9542 177.563 62.0741V62.0741Z" fill="#844EA5"/>
<path d="M219.511 73.9353C220.062 74.227 220.479 74.6223 220.76 75.1223C221.042 75.6223 221.205 76.1719 221.253 76.7712C221.3 77.3704 221.234 77.9782 221.059 78.595C220.883 79.2118 220.613 79.7681 220.248 80.265C220.313 81.219 220.335 82.153 220.312 83.067C220.29 83.9811 220.261 84.9157 220.227 85.8709C220.165 86.6898 219.952 87.3757 219.587 87.9271C219.221 88.4785 218.784 88.9017 218.278 89.1959C217.771 89.4906 217.224 89.6426 216.637 89.6523C216.05 89.6619 215.506 89.5336 215.002 89.2697C214.499 89.0046 214.08 88.6026 213.747 88.0621C213.414 87.5222 213.24 86.8297 213.226 85.984C213.243 85.5204 213.261 85.0567 213.278 84.5924C213.295 84.1282 213.312 83.6239 213.328 83.0773C211.471 83.4623 209.632 83.7583 207.811 83.9647C205.989 84.1717 204.022 84.2099 201.91 84.0803C201.915 84.435 201.921 84.7698 201.925 85.0827C201.93 85.3963 201.961 85.7165 202.015 86.0428C202.05 86.6699 201.979 87.2237 201.801 87.7031C201.622 88.1838 201.368 88.5899 201.038 88.9229C200.708 89.2552 200.322 89.507 199.877 89.6777C199.433 89.849 198.975 89.924 198.502 89.9047C198.056 89.9119 197.619 89.8169 197.194 89.619C196.768 89.4216 196.398 89.1547 196.082 88.8187C195.766 88.4834 195.512 88.0851 195.318 87.6245C195.124 87.1638 195.024 86.6747 195.015 86.156L194.954 82.4339C194.6 82.058 194.314 81.6397 194.096 81.1797C193.877 80.7196 193.764 80.2027 193.754 79.6301C193.743 79.003 193.883 78.3874 194.171 77.782C194.46 77.1779 194.885 76.6798 195.452 76.2887L195.488 76.2064C195.667 75.0854 195.89 73.8947 196.157 72.6356C196.423 71.3772 196.75 70.1303 197.14 68.8966C197.531 67.663 198.01 66.4754 198.575 65.3343C199.141 64.1933 199.821 63.1728 200.614 62.2733C201.408 61.3744 202.322 60.6365 203.357 60.0608C204.393 59.4852 205.593 59.1444 206.959 59.0409C208.896 58.8732 210.574 59.2213 211.994 60.0845C213.412 60.9482 214.631 62.108 215.649 63.5644C216.668 65.0208 217.485 66.6648 218.098 68.4959C218.713 70.327 219.183 72.1405 219.511 73.9353V73.9353ZM202.458 76.5436C204.222 76.5968 205.927 76.5424 207.576 76.3789C209.225 76.2161 210.914 75.8747 212.644 75.3559C212.393 73.6689 211.969 71.9849 211.37 70.3028C210.957 69.3548 210.448 68.5655 209.842 67.9342C209.236 67.3034 208.596 66.9312 207.924 66.8192C207.251 66.7078 206.589 66.8821 205.94 67.3428C205.289 67.8034 204.701 68.6515 204.174 69.8875C203.768 70.876 203.443 71.9184 203.201 73.0128C202.958 74.1078 202.71 75.2851 202.458 76.5436Z" fill="#844EA5"/>
<path d="M248.072 89.7243C248.544 90.3387 248.813 90.9876 248.88 91.671C248.945 92.355 248.869 92.9924 248.652 93.5832C248.435 94.174 248.105 94.7048 247.664 95.1758C247.222 95.6473 246.728 95.9826 246.182 96.1842C245.635 96.3852 245.069 96.4257 244.485 96.3041C243.9 96.183 243.367 95.8283 242.888 95.2417C241.917 93.9222 240.808 92.6135 239.561 91.3151C238.314 90.0173 237.065 88.6983 235.818 87.3575C235.701 87.863 235.579 88.3672 235.452 88.8696C235.323 89.372 235.185 89.8859 235.038 90.4107C234.825 91.1728 234.478 91.7624 234 92.1807C233.522 92.5989 233 92.8707 232.437 92.9966C231.873 93.1213 231.304 93.1044 230.73 92.944C230.156 92.7836 229.659 92.5093 229.24 92.1232C228.819 91.7364 228.513 91.24 228.323 90.6347C228.131 90.0288 228.147 89.3321 228.368 88.5439C229.347 85.0519 230.235 81.4763 231.03 77.8178C231.824 74.1604 232.737 70.3082 233.769 66.2641C233.883 65.6727 234.036 65.085 234.226 64.5008C234.415 63.9167 234.662 63.3774 234.969 62.8822C235.276 62.3877 235.65 61.947 236.094 61.5614C236.538 61.1752 237.07 60.8859 237.692 60.6916C239.132 60.2449 240.548 60.3223 241.94 60.924C243.331 61.5257 244.727 62.3623 246.128 63.4343C247.102 64.1891 248.033 65.0511 248.922 66.022C249.809 66.9923 250.576 68.0286 251.221 69.1291C251.866 70.2307 252.346 71.3705 252.66 72.5485C252.974 73.727 253.05 74.9026 252.889 76.0751C252.726 77.2476 252.287 78.3995 251.571 79.5302C250.853 80.6609 249.773 81.7317 248.329 82.7438C247.658 83.2075 246.929 83.5985 246.143 83.9163C245.358 84.2353 244.555 84.5204 243.737 84.7728C244.367 85.3739 245.041 86.1221 245.757 87.0161C246.473 87.9108 247.244 88.8133 248.072 89.7243ZM238.184 77.8232C240.278 77.9842 241.899 77.8365 243.047 77.3783C244.194 76.9207 244.87 76.253 245.078 75.3765C245.285 74.4994 245 73.471 244.223 72.2906C243.445 71.1103 242.183 69.8651 240.437 68.5546C240.103 70.0189 239.74 71.4965 239.348 72.9867C238.954 74.4776 238.567 76.0896 238.184 77.8232V77.8232Z" fill="#844EA5"/>
<path d="M284.701 81.5979C285.279 81.9351 285.692 82.3721 285.94 82.9103C286.186 83.4484 286.293 84.015 286.261 84.6118C286.229 85.2087 286.066 85.7849 285.772 86.3394C285.477 86.8938 285.09 87.3624 284.607 87.7455C284.126 88.1281 283.56 88.3835 282.911 88.5106C282.263 88.6384 281.567 88.5506 280.826 88.2449C280.305 88.0058 279.735 87.714 279.117 87.3702C278.498 87.027 277.656 86.5609 276.591 85.9732C275.01 88.6838 273.463 91.4137 271.948 94.1613C270.431 96.9094 268.871 99.7102 267.266 102.564C266.854 103.271 266.354 103.794 265.77 104.132C265.184 104.471 264.593 104.647 263.995 104.663C263.397 104.677 262.84 104.55 262.321 104.282C261.803 104.012 261.389 103.628 261.075 103.131C260.762 102.633 260.602 102.044 260.597 101.362C260.592 100.68 260.819 99.9214 261.278 99.0837C262.732 96.3943 264.227 93.6812 265.764 90.9458C267.3 88.2104 268.968 85.251 270.766 82.0671C270.042 81.5834 269.358 81.0828 268.711 80.5653C268.065 80.0471 267.439 79.5181 266.836 78.9775C266.208 78.3286 265.894 77.5865 265.894 76.75C265.892 75.9134 266.103 75.1441 266.526 74.4431C266.95 73.7422 267.552 73.2016 268.335 72.8197C269.117 72.4389 269.982 72.3972 270.93 72.6944C271.399 72.8735 271.858 73.1714 272.304 73.5884C274.087 75.1616 276.009 76.5944 278.072 77.888C280.134 79.1803 282.343 80.4176 284.701 81.5979V81.5979Z" fill="#844EA5"/>
<path d="M197.083 221.66C197.322 221.234 200.517 223.789 205.69 223.958C210.987 224.13 214.419 221.671 214.633 222.108C214.879 222.611 210.724 226.65 205.577 226.453C200.572 226.261 196.808 222.147 197.083 221.66Z" fill="#7F4C4C"/>
<defs>
<radialGradient id="paint0_radial_1628_5419" cx="0" cy="0" r="1" gradientUnits="userSpaceOnUse" gradientTransform="translate(206 201) rotate(90) scale(201)">
<stop stop-color="#5CC7D6"/>
<stop offset="0.932292" stop-color="#5CC7D6"/>
<stop offset="0.96875" stop-color="#54BAC8"/>
<stop offset="1" stop-color="#32818C"/>
</radialGradient>
</defs>
</svg>
