<svg viewBox="0 0 870 540" fill="none" xmlns="http://www.w3.org/2000/svg">
<rect x="3" y="3" width="864" height="533.4" rx="77" fill="white" stroke="#844EA5" stroke-width="6"/>
<path d="M284.032 247.782C279.998 247.099 276.966 249.935 274.039 251.612C269.309 254.321 267.643 252.037 251.348 251.657C242.791 251.456 235.584 251.534 228.657 251.612C226.422 251.637 220.261 249.213 213.44 251.944C212.584 252.687 211.551 253.198 210.442 253.43C210.076 253.479 209.706 253.485 209.34 253.447C209.639 256.534 210.07 260.623 210.635 265.432C211.101 269.394 211.511 272.607 211.727 274.189C212.805 282.083 213.922 288.363 214.922 294.158C216.325 302.277 218.304 314.1 220.619 329.206C221.758 330.479 223.007 331.649 224.351 332.702C227.564 335.142 231.258 336.873 235.19 337.78C235.969 337.984 237.157 338.287 238.676 338.579C247.091 339.646 255.608 339.646 264.024 338.579C265.543 338.28 266.722 337.98 267.51 337.78C271.441 336.873 275.135 335.142 278.348 332.702C279.693 331.649 280.942 330.479 282.08 329.206C284.388 314.098 286.367 302.277 287.778 294.158C288.778 288.363 289.895 282.086 290.973 274.195C291.531 270.106 291.911 266.774 292.064 265.432C292.643 260.348 293.049 255.913 293.34 252.336C292.552 251.693 291.723 251.102 290.859 250.565C288.768 249.237 286.456 248.295 284.032 247.782Z" fill="#48AB85"/>
<path d="M278.434 240.037C272.488 237.574 266.189 236.072 259.771 235.585C254.022 234.975 248.223 234.999 242.479 235.659C236.271 236.096 230.18 237.576 224.463 240.037C218.629 242.695 208.351 248.977 209.407 253.877C209.516 254.381 209.966 255.903 216.49 258.906C222.457 261.593 228.762 263.452 235.232 264.434C240.89 265.493 246.631 266.045 252.387 266.083C259.079 266.123 265.751 265.376 272.268 263.858C278.061 262.506 283.572 260.153 288.554 256.904C292.808 254.099 293.229 252.843 293.321 252.076C293.965 246.704 281.353 241.29 278.434 240.037Z" fill="#3E705B"/>
<path d="M289.775 266.097C289.877 266.374 273.685 276.715 251.59 277.199C228.89 277.696 211.873 267.529 211.968 267.245C224.361 273.055 237.903 275.999 251.59 275.859C264.877 275.424 277.909 272.093 289.775 266.097Z" fill="#3E705B"/>
<path d="M278.336 252.649C273.19 250.146 267.698 248.427 262.043 247.551C257.513 246.882 252.924 246.713 248.357 247.048C244.276 247.164 240.218 247.71 236.251 248.676C231.609 249.655 227.192 251.495 223.227 254.099C221.048 255.582 219.051 257.315 217.276 259.263C219.144 260.104 221.054 260.85 222.997 261.5C222.997 261.5 225.711 262.387 228.921 263.166C229.842 263.389 230.675 263.561 231.957 263.834C233.239 264.107 233.536 264.16 233.744 264.193C234.539 264.317 234.767 264.358 235.224 264.44C235.278 264.449 241.003 265.472 245.849 265.839C246.238 265.869 246.562 265.89 246.817 265.906C247.535 265.954 249.682 266.083 252.38 266.091C256.308 266.1 259.464 265.845 260.202 265.791C263.992 265.473 266.824 264.987 267.57 264.857C267.57 264.857 270.853 264.281 274.524 263.296C275.807 262.951 276.735 262.636 276.981 262.546C277.41 262.396 277.786 262.261 278.206 262.097C279.348 261.66 280.746 261.126 282.452 260.326C284.02 259.588 285.548 258.768 287.031 257.871C284.292 255.878 281.383 254.131 278.336 252.649Z" fill="#67C7EE"/>
<path d="M279.233 257.242C273.456 254.418 267.348 252.33 261.051 251.028C252.992 249.596 244.741 249.628 236.694 251.124C236.661 250.847 247.882 247.212 261.337 249.88C271.834 251.955 279.337 257.009 279.233 257.242Z" fill="#DEF0F8"/>
<path d="M272.873 257.673C267.957 255.538 262.798 254.012 257.512 253.127C252.951 252.485 248.34 252.279 243.74 252.514C248.326 251.58 253.045 251.512 257.656 252.313C263.05 253.006 268.236 254.833 272.873 257.673Z" fill="#DEF0F8"/>
<path d="M265.931 257.912C263.632 256.994 261.271 256.242 258.865 255.663C255.625 254.985 252.314 254.711 249.008 254.849C252.329 254.223 255.747 254.335 259.019 255.179C261.462 255.69 263.799 256.614 265.931 257.912Z" fill="#DEF0F8"/>
<path d="M299.767 244.731C299.674 241.493 299.226 238.275 298.431 235.135C296.487 227.884 281.361 201.797 252.825 200.965C227.158 200.215 211.344 222.175 207.591 228.223C204.372 234.103 202.47 240.614 202.018 247.302C201.966 248.996 202.027 250.692 202.201 252.378C202.325 253.732 202.533 255.077 202.823 256.405C203.084 258.159 203.673 259.848 204.56 261.384C205.192 262.372 206.026 263.213 207.008 263.854C207.711 264.411 208.52 264.821 209.385 265.058C210.251 265.295 211.155 265.355 212.044 265.233C212.51 265.179 212.957 265.023 213.355 264.775C213.752 264.526 214.089 264.193 214.341 263.798C214.562 263.18 214.58 262.508 214.391 261.879C214.202 261.25 213.817 260.699 213.292 260.305C212.86 260.011 212.375 259.807 211.863 259.705C210.759 259.387 210.311 259.521 209.11 259.15C208.676 259.054 208.28 258.833 207.969 258.516C207.689 258.159 207.517 257.729 207.476 257.278C207.104 255.412 206.876 253.82 206.738 252.616C206.35 249.304 206.383 245.955 206.837 242.651C206.863 242.531 206.881 242.444 206.894 242.385C207.942 238.542 209.515 234.863 211.568 231.45C228.296 205.421 252.93 206.256 252.93 206.256C275.975 207.037 289.836 227.465 293.336 236.065C295.282 241.23 295.789 246.827 294.804 252.258C294.294 255.61 293.921 256.744 293.004 257.534C292.041 258.208 290.95 258.68 289.799 258.921C288.18 259.425 287.428 259.392 286.784 260.141C286.312 260.728 286.081 261.472 286.137 262.222C286.187 262.668 286.332 263.098 286.563 263.483C286.795 263.867 287.107 264.197 287.478 264.449C288.13 264.845 288.892 265.021 289.652 264.953C290.408 264.903 291.151 264.737 291.856 264.461C292.554 264.243 293.236 263.976 293.897 263.662C294.86 263.093 295.713 262.354 296.414 261.482C297.9 259.612 298.174 257.688 298.599 254.402C299.381 248.365 299.767 245.35 299.767 244.731Z" fill="#ECAE44"/>
<path d="M253.11 199.001C248.011 198.962 242.962 200.009 238.299 202.072C237.877 202.276 237.425 202.546 237.425 202.546C237.222 202.653 237.028 202.779 236.847 202.92C236.013 203.782 238.398 209.604 239.958 209.329C240.099 209.305 240.15 209.245 240.832 208.991C240.832 208.991 241.432 208.769 242.192 208.541C243.995 207.974 245.828 207.503 247.681 207.128C250.788 206.656 253.95 206.687 257.047 207.219C260.188 207.715 263.239 208.668 266.105 210.047C266.573 210.302 267.056 210.529 267.552 210.727C267.672 210.784 267.798 210.83 267.926 210.864C269.252 210.976 270.972 204.904 270.168 204.276C270.151 204.262 270.06 204.21 269.879 204.103C269.376 203.803 269.009 203.603 268.997 203.597C264.09 200.948 258.673 199.381 253.11 199.001Z" fill="#D37F39"/>
<path d="M273.377 335.72L273.44 335.693C270.991 335.825 267.651 335.938 263.682 335.861C259.825 335.861 255.973 335.605 252.15 335.097C246.616 334.308 243.097 333.807 239.159 331.627C236.221 329.909 233.619 327.674 231.477 325.03C227.879 320.757 226.08 316.643 222.721 306.654C219.594 297.358 217.411 289.812 215.688 283.829C214.232 278.775 212.482 272.691 210.827 266.921C211.22 270.203 211.556 272.829 211.745 274.21C212.823 282.104 213.94 288.383 214.94 294.179C216.343 302.298 218.322 314.121 220.637 329.227C221.776 330.5 223.025 331.67 224.369 332.723C227.582 335.163 231.276 336.894 235.208 337.801C235.987 338.005 237.175 338.308 238.694 338.601C247.109 339.667 255.626 339.667 264.042 338.601C265.79 338.263 267.528 337.801 267.528 337.801C269.15 337.354 270.745 336.816 272.308 336.191C272.399 336.154 272.946 335.923 273.095 335.849C273.095 335.849 273.233 335.78 273.369 335.722L273.377 335.72Z" fill="#3E705B"/>
<path d="M254.953 287.886C254.784 288.886 254.418 289.834 253.88 290.663C253.327 291.903 252.446 292.932 251.352 293.615C250.355 294.03 249.268 294.112 248.229 293.849C247.189 293.586 246.245 292.99 245.515 292.138C244.583 291.051 244.045 289.629 244 288.138C244.039 286.96 244.341 285.811 244.879 284.791C245.417 283.771 246.175 282.911 247.087 282.286C247.776 281.695 248.583 281.292 249.441 281.11C250.3 280.928 251.186 280.972 252.026 281.239C252.905 281.742 253.614 282.54 254.051 283.517C254.81 284.812 255.129 286.359 254.953 287.886Z" fill="#1D1D1B"/>
<path d="M276.31 295.646C275.583 296.311 274.7 296.825 273.725 297.152C272.502 297.785 271.094 298.075 269.683 297.983C268.516 297.742 267.456 297.197 266.637 296.418C265.818 295.639 265.277 294.66 265.083 293.606C264.836 292.264 265.145 290.889 265.951 289.735C266.659 288.864 267.595 288.161 268.677 287.686C269.76 287.212 270.956 286.982 272.162 287.015C273.142 286.951 274.125 287.096 275.03 287.437C275.935 287.778 276.735 288.306 277.367 288.978C277.898 289.849 278.103 290.848 277.952 291.831C277.922 293.235 277.341 294.585 276.31 295.646Z" fill="#1D1D1B"/>
<path d="M240.621 319.262C241.408 318.746 242.296 318.413 243.224 318.287C244.438 317.904 245.738 317.904 246.953 318.287C247.92 318.771 248.725 319.536 249.265 320.487C249.806 321.437 250.058 322.53 249.989 323.627C249.902 325.026 249.318 326.345 248.347 327.337C247.528 328.063 246.548 328.574 245.491 328.824C244.434 329.075 243.333 329.057 242.285 328.773C241.695 328.633 238.927 327.974 238.17 325.737C237.904 324.753 237.951 323.707 238.306 322.752C238.652 321.348 239.472 320.112 240.621 319.262Z" fill="#1D1D1B"/>
<path d="M269.177 323.885C268.395 323.286 267.757 322.526 267.307 321.659C266.506 320.596 266.051 319.32 266 317.999C266.134 316.887 266.601 315.84 267.343 314.989C268.084 314.138 269.065 313.522 270.163 313.219C271.564 312.833 273.06 312.961 274.372 313.578C275.369 314.137 276.213 314.926 276.828 315.879C277.443 316.831 277.812 317.916 277.901 319.041C278.072 319.943 278.021 320.873 277.754 321.752C277.487 322.632 277.011 323.437 276.366 324.101C275.496 324.694 274.456 325 273.397 324.974C271.904 325.107 270.41 324.722 269.177 323.885Z" fill="#1D1D1B"/>
<path d="M229.039 293.968C228.124 294.063 227.2 293.948 226.333 293.632C225.103 293.41 223.967 292.809 223.072 291.906C222.436 291.028 222.066 289.974 222.008 288.878C221.95 287.781 222.206 286.691 222.745 285.746C223.432 284.54 224.518 283.636 225.802 283.203C226.834 282.935 227.914 282.932 228.947 283.197C229.98 283.461 230.936 283.984 231.73 284.719C232.433 285.246 233.006 285.94 233.4 286.742C233.795 287.544 234 288.431 234 289.332C233.804 290.331 233.306 291.24 232.579 291.925C231.666 293.016 230.413 293.739 229.039 293.968Z" fill="#1D1D1B"/>
<path d="M255.684 299.105C256.6 299.332 257.455 299.751 258.188 300.334C259.301 300.956 260.197 301.891 260.758 303.018C261.077 304.033 261.081 305.118 260.768 306.134C260.456 307.151 259.841 308.054 259.003 308.729C257.934 309.59 256.58 310.041 255.195 309.997C254.107 309.888 253.062 309.52 252.153 308.926C251.244 308.332 250.497 307.529 249.979 306.587C249.477 305.868 249.156 305.043 249.044 304.179C248.933 303.315 249.032 302.437 249.336 301.619C249.863 300.777 250.651 300.121 251.586 299.746C252.834 299.072 254.283 298.845 255.684 299.105Z" fill="#1D1D1B"/>
<path d="M409.03 247.781C404.996 247.097 401.964 249.934 399.037 251.61C394.307 254.319 392.641 252.036 376.347 251.655C367.79 251.454 360.583 251.532 353.656 251.61C351.421 251.636 345.26 249.211 338.44 251.943C337.583 252.686 336.551 253.197 335.441 253.429C335.076 253.478 334.706 253.483 334.339 253.445C334.639 256.532 335.07 260.621 335.635 265.431C336.101 269.392 336.51 272.605 336.726 274.187C337.804 282.081 338.921 288.361 339.921 294.156C341.325 302.275 343.304 314.097 345.619 329.202C346.757 330.475 348.006 331.645 349.35 332.699C352.564 335.139 356.258 336.869 360.189 337.777C360.969 337.981 362.156 338.284 363.675 338.576C372.09 339.642 380.607 339.642 389.022 338.576C390.541 338.276 391.721 337.976 392.508 337.777C396.439 336.869 400.133 335.139 403.346 332.699C404.691 331.645 405.939 330.475 407.078 329.202C409.386 314.095 411.365 302.275 412.775 294.156C413.776 288.361 414.892 282.084 415.97 274.193C416.528 270.104 416.909 266.773 417.062 265.431C417.641 260.347 418.047 255.912 418.338 252.334C417.55 251.692 416.721 251.1 415.857 250.564C413.765 249.236 411.454 248.294 409.03 247.781Z" fill="#48AB85"/>
<path d="M403.432 240.036C397.486 237.573 391.187 236.071 384.77 235.584C379.021 234.974 373.222 234.998 367.479 235.658C361.27 236.095 355.18 237.575 349.463 240.036C343.629 242.694 333.351 248.976 334.407 253.876C334.516 254.379 334.966 255.901 341.49 258.904C347.456 261.591 353.761 263.451 360.231 264.432C365.889 265.491 371.63 266.043 377.386 266.081C384.077 266.121 390.75 265.374 397.267 263.856C403.059 262.504 408.57 260.151 413.552 256.903C417.806 254.097 418.227 252.841 418.319 252.075C418.963 246.703 406.351 241.289 403.432 240.036Z" fill="#3E705B"/>
<path d="M414.773 266.095C414.875 266.372 398.684 276.713 376.588 277.197C353.889 277.694 336.873 267.527 336.968 267.243C349.36 273.053 362.902 275.997 376.588 275.857C389.875 275.422 402.907 272.091 414.773 266.095Z" fill="#3E705B"/>
<path d="M403.334 252.648C398.188 250.144 392.696 248.426 387.041 247.55C382.512 246.88 377.922 246.711 373.356 247.046C369.275 247.163 365.217 247.708 361.25 248.675C356.609 249.654 352.191 251.493 348.226 254.098C346.048 255.581 344.05 257.314 342.275 259.261C344.144 260.102 346.053 260.849 347.996 261.498C347.996 261.498 350.71 262.386 353.92 263.164C354.841 263.387 355.674 263.56 356.956 263.833C358.238 264.105 358.535 264.158 358.744 264.191C359.538 264.315 359.766 264.356 360.223 264.438C360.277 264.447 366.002 265.47 370.847 265.837C371.237 265.867 371.561 265.888 371.816 265.905C372.534 265.953 374.681 266.082 377.378 266.089C381.307 266.098 384.463 265.843 385.2 265.789C388.99 265.471 391.823 264.986 392.568 264.855C392.568 264.855 395.851 264.279 399.522 263.294C400.805 262.949 401.733 262.635 401.979 262.545C402.408 262.395 402.784 262.26 403.204 262.095C404.346 261.659 405.744 261.125 407.45 260.324C409.018 259.586 410.546 258.767 412.029 257.87C409.29 255.877 406.38 254.129 403.334 252.648Z" fill="#67C7EE"/>
<path d="M404.231 257.24C398.454 254.416 392.346 252.329 386.049 251.027C377.99 249.595 369.74 249.627 361.693 251.123C361.66 250.846 372.881 247.211 386.335 249.879C396.832 251.954 404.334 257.008 404.231 257.24Z" fill="#DEF0F8"/>
<path d="M397.871 257.672C392.955 255.537 387.797 254.01 382.511 253.126C377.95 252.483 373.339 252.278 368.74 252.513C373.325 251.579 378.044 251.511 382.655 252.312C388.048 253.005 393.234 254.832 397.871 257.672Z" fill="#DEF0F8"/>
<path d="M390.929 257.91C388.631 256.992 386.269 256.241 383.863 255.661C380.624 254.983 377.313 254.71 374.007 254.847C377.327 254.221 380.745 254.334 384.017 255.177C386.46 255.688 388.798 256.613 390.929 257.91Z" fill="#DEF0F8"/>
<path d="M424.764 244.73C424.672 241.492 424.224 238.274 423.428 235.134C421.485 227.884 406.358 201.797 377.824 200.965C352.157 200.215 336.344 222.174 332.591 228.223C329.372 234.103 327.47 240.613 327.018 247.301C326.966 248.995 327.027 250.691 327.201 252.376C327.325 253.73 327.533 255.075 327.823 256.403C328.084 258.157 328.673 259.847 329.56 261.383C330.191 262.37 331.026 263.212 332.008 263.852C332.711 264.41 333.52 264.819 334.385 265.056C335.251 265.293 336.155 265.353 337.044 265.231C337.509 265.178 337.957 265.021 338.354 264.773C338.752 264.525 339.089 264.191 339.341 263.797C339.562 263.178 339.579 262.506 339.391 261.877C339.202 261.249 338.817 260.697 338.292 260.303C337.86 260.01 337.374 259.806 336.863 259.703C335.759 259.386 335.311 259.519 334.11 259.149C333.676 259.052 333.28 258.832 332.969 258.514C332.689 258.158 332.517 257.728 332.476 257.276C332.104 255.411 331.876 253.819 331.738 252.615C331.35 249.302 331.383 245.954 331.837 242.65C331.863 242.53 331.881 242.443 331.894 242.383C332.942 238.541 334.515 234.862 336.567 231.449C353.295 205.421 377.929 206.256 377.929 206.256C400.973 207.037 414.834 227.464 418.333 236.064C420.279 241.229 420.786 246.825 419.801 252.256C419.291 255.609 418.918 256.742 418.002 257.532C417.039 258.207 415.948 258.679 414.797 258.919C413.177 259.423 412.426 259.39 411.781 260.14C411.31 260.726 411.079 261.47 411.135 262.221C411.184 262.667 411.33 263.097 411.561 263.481C411.792 263.866 412.104 264.195 412.476 264.447C413.128 264.843 413.89 265.02 414.65 264.951C415.405 264.902 416.149 264.736 416.854 264.459C417.552 264.241 418.234 263.974 418.894 263.66C419.858 263.091 420.711 262.353 421.411 261.48C422.897 259.61 423.172 257.687 423.596 254.4C424.379 248.364 424.764 245.349 424.764 244.73Z" fill="#ECAE44"/>
<path d="M378.109 199.001C373.01 198.962 367.961 200.009 363.298 202.072C362.876 202.276 362.424 202.545 362.424 202.545C362.221 202.653 362.027 202.778 361.846 202.92C361.012 203.782 363.397 209.604 364.957 209.328C365.098 209.304 365.149 209.244 365.831 208.991C365.831 208.991 366.43 208.769 367.191 208.541C368.994 207.974 370.826 207.502 372.68 207.127C375.786 206.656 378.949 206.687 382.046 207.219C385.186 207.715 388.238 208.668 391.103 210.046C391.571 210.302 392.054 210.529 392.55 210.727C392.67 210.784 392.796 210.829 392.925 210.864C394.25 210.976 395.97 204.904 395.166 204.276C395.15 204.262 395.058 204.21 394.877 204.103C394.374 203.803 394.007 203.602 393.995 203.596C389.088 200.948 383.671 199.381 378.109 199.001Z" fill="#D37F39"/>
<path d="M398.375 335.717L398.438 335.69C395.989 335.822 392.649 335.934 388.68 335.858C384.824 335.857 380.972 335.602 377.149 335.093C371.615 334.304 368.096 333.804 364.158 331.624C361.22 329.906 358.618 327.671 356.477 325.027C352.878 320.754 351.079 316.64 347.721 306.651C344.593 297.355 342.41 289.809 340.687 283.827C339.232 278.773 337.482 272.689 335.827 266.92C336.219 270.202 336.555 272.827 336.744 274.208C337.822 282.102 338.939 288.381 339.939 294.177C341.343 302.296 343.322 314.118 345.637 329.223C346.775 330.496 348.024 331.666 349.368 332.72C352.582 335.16 356.276 336.89 360.207 337.798C360.986 338.002 362.174 338.304 363.693 338.597C372.108 339.663 380.625 339.663 389.04 338.597C390.788 338.259 392.526 337.798 392.526 337.798C394.148 337.35 395.744 336.813 397.306 336.187C397.397 336.15 397.944 335.919 398.093 335.846C398.093 335.846 398.231 335.777 398.367 335.718L398.375 335.717Z" fill="#3E705B"/>
<path d="M367.546 286.248C368.021 287.137 368.294 288.119 368.347 289.125C368.645 290.46 368.534 291.854 368.028 293.125C367.439 294.122 366.568 294.922 365.524 295.423C364.48 295.925 363.31 296.105 362.164 295.941C360.701 295.731 359.364 294.995 358.404 293.871C357.709 292.933 357.255 291.839 357.08 290.685C356.906 289.531 357.017 288.352 357.403 287.251C357.603 286.628 358.528 283.716 360.95 283.09C362.007 282.888 363.102 283.028 364.074 283.49C365.519 283.974 366.748 284.95 367.546 286.248Z" fill="#1D1D1B"/>
<path d="M160.032 247.782C155.997 247.098 152.965 249.935 150.039 251.611C145.308 254.32 143.642 252.037 127.348 251.656C118.791 251.455 111.584 251.533 104.657 251.611C102.421 251.636 96.2607 249.212 89.4403 251.944C88.5835 252.686 87.5514 253.198 86.4416 253.43C86.0762 253.479 85.7063 253.484 85.3396 253.446C85.6395 256.533 86.0698 260.622 86.635 265.432C87.1013 269.393 87.5106 272.606 87.7265 274.188C88.8045 282.082 89.9215 288.362 90.9216 294.157C92.325 302.276 94.3041 314.098 96.619 329.204C97.7577 330.477 99.0065 331.647 100.351 332.701C103.564 335.141 107.258 336.871 111.19 337.779C111.969 337.983 113.157 338.286 114.675 338.578C123.091 339.644 131.607 339.644 140.023 338.578C141.542 338.278 142.722 337.978 143.509 337.779C147.44 336.871 151.134 335.141 154.348 332.701C155.692 331.647 156.941 330.477 158.079 329.204C160.387 314.097 162.366 302.276 163.777 294.157C164.777 288.362 165.894 282.085 166.972 274.194C167.53 270.105 167.911 266.774 168.063 265.432C168.642 260.348 169.049 255.913 169.339 252.335C168.551 251.692 167.722 251.101 166.858 250.564C164.767 249.237 162.455 248.294 160.032 247.782Z" fill="#48AB85"/>
<path d="M154.433 240.036C148.487 237.574 142.188 236.071 135.771 235.585C130.022 234.974 124.223 234.999 118.479 235.658C112.271 236.096 106.18 237.576 100.463 240.036C94.6293 242.694 84.3514 248.977 85.4069 253.876C85.5164 254.38 85.9662 255.902 92.4898 258.905C98.4564 261.592 104.762 263.452 111.231 264.433C116.889 265.492 122.631 266.044 128.387 266.083C135.078 266.122 141.751 265.375 148.268 263.858C154.06 262.505 159.571 260.152 164.553 256.904C168.807 254.098 169.228 252.842 169.32 252.076C169.965 246.704 157.352 241.29 154.433 240.036Z" fill="#3E705B"/>
<path d="M165.774 266.096C165.876 266.373 149.685 276.714 127.589 277.198C104.889 277.695 87.8735 267.528 87.9679 267.244C100.361 273.054 113.903 275.998 127.589 275.858C140.876 275.424 153.908 272.092 165.774 266.096Z" fill="#3E705B"/>
<path d="M154.335 252.648C149.19 250.145 143.698 248.427 138.042 247.551C133.513 246.881 128.923 246.712 124.356 247.047C120.275 247.163 116.218 247.709 112.251 248.675C107.609 249.655 103.192 251.494 99.2262 254.098C97.0479 255.581 95.0507 257.314 93.2754 259.262C95.1439 260.103 97.0534 260.85 98.9968 261.499C98.9968 261.499 101.711 262.387 104.921 263.165C105.841 263.388 106.675 263.561 107.957 263.833C109.239 264.106 109.536 264.159 109.744 264.192C110.539 264.316 110.767 264.357 111.224 264.439C111.278 264.448 117.002 265.471 121.848 265.838C122.238 265.868 122.562 265.889 122.817 265.906C123.535 265.953 125.682 266.082 128.379 266.09C132.307 266.099 135.463 265.844 136.201 265.79C139.991 265.472 142.824 264.986 143.569 264.856C143.569 264.856 146.852 264.28 150.523 263.295C151.806 262.95 152.734 262.635 152.98 262.546C153.409 262.396 153.785 262.261 154.205 262.096C155.348 261.659 156.745 261.126 158.451 260.325C160.019 259.587 161.547 258.768 163.03 257.871C160.291 255.878 157.382 254.13 154.335 252.648Z" fill="#67C7EE"/>
<path d="M155.232 257.241C149.455 254.417 143.347 252.33 137.05 251.028C128.991 249.595 120.74 249.628 112.693 251.124C112.66 250.846 123.881 247.212 137.336 249.879C147.833 251.954 155.336 257.009 155.232 257.241Z" fill="#DEF0F8"/>
<path d="M148.872 257.673C143.956 255.538 138.798 254.011 133.512 253.127C128.951 252.484 124.34 252.279 119.74 252.514C124.326 251.579 129.045 251.511 133.655 252.313C139.049 253.006 144.235 254.832 148.872 257.673Z" fill="#DEF0F8"/>
<path d="M141.93 257.911C139.632 256.993 137.27 256.242 134.864 255.662C131.625 254.984 128.314 254.71 125.007 254.848C128.328 254.222 131.746 254.335 135.018 255.178C137.461 255.689 139.799 256.614 141.93 257.911Z" fill="#DEF0F8"/>
<path d="M175.765 244.731C175.673 241.493 175.225 238.275 174.43 235.135C172.486 227.884 157.36 201.797 128.824 200.965C103.158 200.215 87.3441 222.175 83.5913 228.223C80.3717 234.103 78.47 240.613 78.0183 247.302C77.9656 248.996 78.0267 250.691 78.2012 252.377C78.325 253.731 78.5328 255.076 78.8234 256.404C79.0843 258.158 79.6733 259.848 80.5596 261.384C81.1915 262.371 82.0261 263.213 83.008 263.853C83.7111 264.411 84.5197 264.82 85.3852 265.057C86.2507 265.294 87.1552 265.354 88.0443 265.232C88.5096 265.179 88.9572 265.022 89.3545 264.774C89.7518 264.526 90.0889 264.192 90.3413 263.797C90.5623 263.179 90.5796 262.507 90.3907 261.878C90.2019 261.25 89.8167 260.698 89.2917 260.304C88.8604 260.011 88.3745 259.807 87.8629 259.704C86.7594 259.386 86.3111 259.52 85.1101 259.15C84.6764 259.053 84.28 258.833 83.9691 258.515C83.6886 258.159 83.5173 257.729 83.4758 257.277C83.104 255.412 82.8761 253.819 82.7382 252.615C82.35 249.303 82.3832 245.955 82.8371 242.651C82.8626 242.531 82.8806 242.444 82.8941 242.384C83.9422 238.542 85.5148 234.862 87.5675 231.449C104.295 205.421 128.929 206.256 128.929 206.256C151.974 207.037 165.835 227.464 169.335 236.064C171.281 241.23 171.788 246.826 170.803 252.257C170.293 255.61 169.92 256.743 169.003 257.533C168.04 258.208 166.949 258.68 165.798 258.92C164.179 259.424 163.427 259.391 162.783 260.141C162.311 260.727 162.08 261.471 162.137 262.222C162.186 262.668 162.331 263.098 162.562 263.482C162.794 263.867 163.106 264.196 163.477 264.448C164.129 264.844 164.891 265.021 165.651 264.952C166.407 264.903 167.15 264.737 167.855 264.46C168.553 264.242 169.235 263.975 169.896 263.661C170.859 263.092 171.712 262.354 172.413 261.481C173.899 259.611 174.173 257.688 174.597 254.401C175.38 248.365 175.765 245.35 175.765 244.731Z" fill="#ECAE44"/>
<path d="M129.11 199.001C124.011 198.962 118.962 200.009 114.299 202.072C113.876 202.276 113.425 202.545 113.425 202.545C113.221 202.653 113.028 202.779 112.846 202.92C112.013 203.782 114.398 209.604 115.957 209.328C116.098 209.304 116.149 209.244 116.832 208.991C116.832 208.991 117.431 208.769 118.191 208.541C119.995 207.974 121.827 207.502 123.68 207.127C126.787 206.656 129.95 206.687 133.047 207.219C136.187 207.715 139.239 208.668 142.104 210.047C142.572 210.302 143.056 210.529 143.551 210.727C143.672 210.784 143.797 210.83 143.926 210.864C145.251 210.976 146.971 204.904 146.167 204.276C146.151 204.262 146.059 204.21 145.878 204.103C145.376 203.803 145.008 203.602 144.996 203.596C140.09 200.948 134.672 199.381 129.11 199.001Z" fill="#D37F39"/>
<path d="M149.376 335.719L149.439 335.692C146.99 335.824 143.65 335.936 139.681 335.86C135.825 335.859 131.973 335.604 128.15 335.095C122.616 334.306 119.097 333.806 115.158 331.626C112.221 329.908 109.619 327.673 107.477 325.029C103.879 320.756 102.08 316.641 98.7211 306.653C95.5935 297.357 93.4104 289.811 91.6877 283.829C90.2319 278.774 88.4822 272.69 86.8269 266.921C87.2197 270.203 87.5556 272.828 87.7445 274.209C88.8225 282.103 89.9395 288.382 90.9396 294.178C92.3429 302.297 94.322 314.119 96.637 329.225C97.7757 330.498 99.0245 331.668 100.369 332.722C103.582 335.162 107.276 336.892 111.207 337.8C111.987 338.004 113.175 338.307 114.693 338.599C123.109 339.665 131.625 339.665 140.041 338.599C141.789 338.262 143.527 337.8 143.527 337.8C145.149 337.353 146.745 336.815 148.307 336.19C148.398 336.152 148.946 335.921 149.094 335.848C149.094 335.848 149.232 335.779 149.368 335.72L149.376 335.719Z" fill="#3E705B"/>
<path d="M147.546 289.248C148.021 290.137 148.294 291.119 148.347 292.125C148.645 293.46 148.534 294.854 148.028 296.125C147.439 297.122 146.568 297.922 145.524 298.423C144.48 298.925 143.31 299.105 142.164 298.941C140.701 298.731 139.364 297.995 138.404 296.871C137.709 295.933 137.255 294.839 137.08 293.685C136.906 292.531 137.017 291.352 137.403 290.251C137.603 289.628 138.528 286.716 140.95 286.09C142.007 285.888 143.102 286.028 144.074 286.49C145.519 286.974 146.748 287.95 147.546 289.248Z" fill="#1D1D1B"/>
<path d="M110.007 288.886C109.822 289.886 109.42 290.834 108.83 291.663C108.225 292.903 107.259 293.932 106.06 294.615C104.967 295.03 103.775 295.112 102.636 294.849C101.496 294.586 100.461 293.99 99.6608 293.138C98.6395 292.051 98.0491 290.629 98 289.138C98.0429 287.96 98.3737 286.811 98.9637 285.791C99.5537 284.771 100.385 283.911 101.384 283.286C102.139 282.695 103.024 282.292 103.965 282.11C104.906 281.928 105.877 281.972 106.798 282.239C107.762 282.742 108.54 283.54 109.018 284.517C109.85 285.812 110.2 287.359 110.007 288.886Z" fill="#1D1D1B"/>
<path d="M133.31 328.699C132.583 329.445 131.7 330.022 130.725 330.388C129.502 331.099 128.094 331.424 126.683 331.321C125.516 331.05 124.456 330.439 123.637 329.565C122.818 328.69 122.277 327.592 122.083 326.41C121.836 324.905 122.145 323.362 122.951 322.068C123.659 321.091 124.595 320.302 125.677 319.77C126.76 319.238 127.956 318.979 129.162 319.016C130.142 318.945 131.125 319.107 132.03 319.49C132.935 319.873 133.735 320.465 134.367 321.218C134.898 322.196 135.103 323.317 134.952 324.419C134.922 325.994 134.341 327.509 133.31 328.699Z" fill="#1D1D1B"/>
<path d="M112.621 305.237C113.408 304.731 114.296 304.405 115.224 304.281C116.438 303.906 117.738 303.906 118.953 304.281C119.92 304.755 120.725 305.505 121.265 306.436C121.806 307.368 122.058 308.438 121.989 309.513C121.902 310.884 121.318 312.176 120.347 313.148C119.528 313.859 118.548 314.36 117.491 314.605C116.434 314.85 115.333 314.833 114.285 314.555C113.695 314.417 110.927 313.772 110.17 311.58C109.904 310.616 109.951 309.591 110.306 308.656C110.652 307.28 111.472 306.069 112.621 305.237Z" fill="#1D1D1B"/>
<path d="M149.177 314.088C148.395 313.479 147.757 312.704 147.307 311.821C146.506 310.738 146.051 309.439 146 308.093C146.134 306.96 146.601 305.893 147.343 305.026C148.084 304.159 149.065 303.532 150.163 303.223C151.564 302.83 153.06 302.96 154.372 303.589C155.369 304.158 156.213 304.963 156.828 305.933C157.443 306.903 157.812 308.009 157.901 309.154C158.072 310.073 158.021 311.02 157.754 311.916C157.487 312.813 157.011 313.633 156.366 314.309C155.496 314.913 154.456 315.225 153.397 315.199C151.904 315.334 150.41 314.941 149.177 314.088Z" fill="#1D1D1B"/>
<path d="M658.032 247.782C653.998 247.099 650.966 249.935 648.039 251.612C643.309 254.321 641.643 252.037 625.348 251.657C616.791 251.456 609.584 251.534 602.657 251.612C600.422 251.637 594.261 249.213 587.44 251.944C586.584 252.687 585.551 253.198 584.442 253.43C584.076 253.479 583.706 253.485 583.34 253.447C583.639 256.534 584.07 260.623 584.635 265.432C585.101 269.394 585.511 272.607 585.727 274.189C586.805 282.083 587.922 288.363 588.922 294.158C590.325 302.277 592.304 314.1 594.619 329.206C595.758 330.479 597.007 331.649 598.351 332.702C601.564 335.142 605.258 336.873 609.19 337.78C609.969 337.984 611.157 338.287 612.676 338.579C621.091 339.646 629.608 339.646 638.024 338.579C639.543 338.28 640.722 337.98 641.51 337.78C645.441 336.873 649.135 335.142 652.348 332.702C653.693 331.649 654.942 330.479 656.08 329.206C658.388 314.098 660.367 302.277 661.778 294.158C662.778 288.363 663.895 282.086 664.973 274.195C665.531 270.106 665.911 266.774 666.064 265.432C666.643 260.348 667.049 255.913 667.34 252.336C666.552 251.693 665.723 251.102 664.859 250.565C662.768 249.237 660.456 248.295 658.032 247.782Z" fill="#48AB85"/>
<path d="M652.434 240.037C646.488 237.574 640.189 236.072 633.771 235.585C628.022 234.975 622.223 234.999 616.479 235.659C610.271 236.096 604.18 237.576 598.463 240.037C592.629 242.695 582.351 248.977 583.407 253.877C583.516 254.381 583.966 255.903 590.49 258.906C596.457 261.593 602.762 263.452 609.232 264.434C614.89 265.493 620.631 266.045 626.387 266.083C633.079 266.123 639.751 265.376 646.268 263.858C652.061 262.506 657.572 260.153 662.554 256.904C666.808 254.099 667.229 252.843 667.321 252.076C667.965 246.704 655.353 241.29 652.434 240.037Z" fill="#3E705B"/>
<path d="M663.775 266.097C663.877 266.374 647.685 276.715 625.59 277.199C602.89 277.696 585.873 267.529 585.968 267.245C598.361 273.055 611.903 275.999 625.59 275.859C638.877 275.424 651.909 272.093 663.775 266.097Z" fill="#3E705B"/>
<path d="M652.336 252.649C647.19 250.146 641.698 248.427 636.043 247.551C631.513 246.882 626.924 246.713 622.357 247.048C618.276 247.164 614.218 247.71 610.251 248.676C605.609 249.655 601.192 251.495 597.227 254.099C595.048 255.582 593.051 257.315 591.276 259.263C593.144 260.104 595.054 260.85 596.997 261.5C596.997 261.5 599.711 262.387 602.921 263.166C603.842 263.389 604.675 263.561 605.957 263.834C607.239 264.107 607.536 264.16 607.744 264.193C608.539 264.317 608.767 264.358 609.224 264.44C609.278 264.449 615.003 265.472 619.849 265.839C620.238 265.869 620.562 265.89 620.817 265.906C621.535 265.954 623.682 266.083 626.38 266.091C630.308 266.1 633.464 265.845 634.202 265.791C637.992 265.473 640.824 264.987 641.57 264.857C641.57 264.857 644.853 264.281 648.524 263.296C649.807 262.951 650.735 262.636 650.981 262.546C651.41 262.396 651.786 262.261 652.206 262.097C653.348 261.66 654.746 261.126 656.452 260.326C658.02 259.588 659.548 258.768 661.031 257.871C658.292 255.878 655.383 254.131 652.336 252.649Z" fill="#67C7EE"/>
<path d="M653.233 257.242C647.456 254.418 641.347 252.33 635.05 251.028C626.992 249.596 618.741 249.628 610.693 251.124C610.66 250.847 621.882 247.212 635.337 249.88C645.834 251.955 653.336 257.009 653.233 257.242Z" fill="#DEF0F8"/>
<path d="M646.873 257.673C641.957 255.538 636.798 254.012 631.512 253.127C626.951 252.485 622.34 252.279 617.74 252.514C622.326 251.58 627.045 251.512 631.656 252.313C637.05 253.006 642.236 254.833 646.873 257.673Z" fill="#DEF0F8"/>
<path d="M639.931 257.912C637.632 256.994 635.271 256.242 632.865 255.663C629.625 254.985 626.314 254.711 623.008 254.849C626.329 254.223 629.747 254.335 633.019 255.179C635.462 255.69 637.799 256.614 639.931 257.912Z" fill="#DEF0F8"/>
<path d="M673.767 244.731C673.674 241.493 673.226 238.275 672.431 235.135C670.487 227.884 655.361 201.797 626.825 200.965C601.158 200.216 585.344 222.175 581.591 228.223C578.372 234.103 576.47 240.614 576.018 247.302C575.966 248.996 576.027 250.692 576.201 252.378C576.325 253.732 576.533 255.077 576.823 256.405C577.084 258.159 577.673 259.848 578.56 261.384C579.192 262.372 580.026 263.213 581.008 263.854C581.711 264.411 582.52 264.821 583.385 265.058C584.251 265.295 585.155 265.355 586.044 265.233C586.51 265.179 586.957 265.023 587.355 264.775C587.752 264.526 588.089 264.193 588.341 263.798C588.562 263.18 588.58 262.508 588.391 261.879C588.202 261.25 587.817 260.699 587.292 260.305C586.86 260.011 586.375 259.807 585.863 259.705C584.759 259.387 584.311 259.521 583.11 259.15C582.676 259.054 582.28 258.833 581.969 258.516C581.689 258.159 581.517 257.729 581.476 257.278C581.104 255.412 580.876 253.82 580.738 252.616C580.35 249.304 580.383 245.955 580.837 242.651C580.863 242.532 580.881 242.445 580.894 242.385C581.942 238.542 583.515 234.863 585.568 231.45C602.296 205.421 626.93 206.256 626.93 206.256C649.975 207.038 663.836 227.465 667.336 236.065C669.282 241.23 669.789 246.827 668.804 252.258C668.294 255.61 667.921 256.744 667.004 257.534C666.041 258.209 664.95 258.68 663.799 258.921C662.18 259.425 661.428 259.392 660.784 260.141C660.312 260.728 660.081 261.472 660.137 262.222C660.187 262.668 660.332 263.098 660.563 263.483C660.795 263.867 661.107 264.197 661.478 264.449C662.13 264.845 662.892 265.021 663.652 264.953C664.408 264.903 665.151 264.737 665.856 264.461C666.554 264.243 667.236 263.976 667.897 263.662C668.86 263.093 669.713 262.354 670.414 261.482C671.9 259.612 672.174 257.688 672.599 254.402C673.381 248.365 673.767 245.35 673.767 244.731Z" fill="#ECAE44"/>
<path d="M627.11 199.001C622.011 198.962 616.962 200.009 612.299 202.072C611.877 202.276 611.425 202.546 611.425 202.546C611.222 202.653 611.028 202.779 610.847 202.92C610.013 203.782 612.398 209.604 613.958 209.329C614.099 209.305 614.15 209.245 614.832 208.991C614.832 208.991 615.432 208.769 616.192 208.541C617.995 207.974 619.828 207.503 621.681 207.128C624.788 206.656 627.95 206.687 631.047 207.219C634.188 207.715 637.239 208.668 640.105 210.047C640.573 210.302 641.056 210.529 641.552 210.727C641.672 210.784 641.798 210.83 641.926 210.864C643.252 210.976 644.972 204.904 644.168 204.276C644.151 204.262 644.06 204.21 643.879 204.103C643.376 203.803 643.009 203.603 642.997 203.597C638.09 200.948 632.673 199.381 627.11 199.001Z" fill="#D37F39"/>
<path d="M647.377 335.72L647.44 335.693C644.991 335.825 641.651 335.938 637.682 335.861C633.825 335.861 629.973 335.605 626.15 335.097C620.616 334.308 617.097 333.807 613.159 331.627C610.221 329.909 607.619 327.674 605.477 325.03C601.879 320.757 600.08 316.643 596.721 306.654C593.594 297.358 591.411 289.812 589.688 283.829C588.232 278.775 586.482 272.691 584.827 266.921C585.22 270.203 585.556 272.829 585.745 274.21C586.823 282.104 587.94 288.383 588.94 294.179C590.343 302.298 592.322 314.121 594.637 329.227C595.776 330.5 597.025 331.67 598.369 332.723C601.582 335.163 605.276 336.894 609.208 337.801C609.987 338.005 611.175 338.308 612.694 338.601C621.109 339.667 629.626 339.667 638.042 338.601C639.79 338.263 641.528 337.801 641.528 337.801C643.15 337.354 644.745 336.816 646.308 336.191C646.399 336.154 646.946 335.923 647.095 335.849C647.095 335.849 647.233 335.78 647.369 335.722L647.377 335.72Z" fill="#3E705B"/>
<path d="M621.546 314.248C622.021 315.137 622.294 316.119 622.347 317.125C622.645 318.46 622.534 319.854 622.028 321.125C621.439 322.122 620.568 322.922 619.524 323.423C618.48 323.925 617.31 324.105 616.164 323.941C614.701 323.731 613.364 322.995 612.404 321.871C611.709 320.933 611.255 319.839 611.08 318.685C610.906 317.531 611.017 316.352 611.403 315.251C611.603 314.628 612.528 311.716 614.95 311.09C616.007 310.888 617.102 311.028 618.074 311.49C619.519 311.974 620.748 312.95 621.546 314.248Z" fill="#1D1D1B"/>
<path d="M656.007 283.886C655.822 284.886 655.42 285.834 654.83 286.663C654.225 287.903 653.259 288.932 652.06 289.615C650.967 290.03 649.775 290.112 648.636 289.849C647.496 289.586 646.461 288.99 645.661 288.138C644.64 287.051 644.049 285.629 644 284.138C644.043 282.96 644.374 281.811 644.964 280.791C645.554 279.771 646.385 278.911 647.384 278.286C648.139 277.695 649.024 277.292 649.965 277.11C650.906 276.928 651.877 276.972 652.798 277.239C653.762 277.742 654.54 278.54 655.018 279.517C655.85 280.812 656.2 282.359 656.007 283.886Z" fill="#1D1D1B"/>
<path d="M619.177 294.088C618.395 293.479 617.757 292.704 617.307 291.821C616.506 290.738 616.051 289.439 616 288.093C616.134 286.96 616.601 285.893 617.343 285.026C618.084 284.159 619.065 283.532 620.163 283.223C621.564 282.83 623.06 282.96 624.372 283.589C625.369 284.158 626.213 284.963 626.828 285.933C627.443 286.903 627.812 288.009 627.901 289.154C628.072 290.073 628.021 291.02 627.754 291.916C627.487 292.813 627.011 293.633 626.366 294.309C625.496 294.913 624.456 295.225 623.397 295.199C621.904 295.334 620.41 294.941 619.177 294.088Z" fill="#1D1D1B"/>
<path d="M782.03 247.781C777.996 247.097 774.964 249.934 772.037 251.61C767.307 254.319 765.641 252.036 749.347 251.655C740.79 251.454 733.583 251.532 726.656 251.61C724.421 251.636 718.26 249.211 711.44 251.943C710.583 252.686 709.551 253.197 708.441 253.429C708.076 253.478 707.706 253.483 707.339 253.445C707.639 256.532 708.07 260.621 708.635 265.431C709.101 269.392 709.51 272.605 709.726 274.187C710.804 282.081 711.921 288.361 712.921 294.156C714.325 302.275 716.304 314.097 718.619 329.202C719.757 330.475 721.006 331.645 722.35 332.699C725.564 335.139 729.258 336.869 733.189 337.777C733.969 337.981 735.156 338.284 736.675 338.576C745.09 339.642 753.607 339.642 762.022 338.576C763.541 338.276 764.721 337.976 765.508 337.777C769.439 336.869 773.133 335.139 776.346 332.699C777.691 331.645 778.939 330.475 780.078 329.202C782.386 314.095 784.365 302.275 785.775 294.156C786.776 288.361 787.892 282.084 788.97 274.193C789.528 270.104 789.909 266.773 790.062 265.431C790.641 260.347 791.047 255.912 791.338 252.334C790.55 251.692 789.721 251.1 788.857 250.564C786.765 249.236 784.454 248.294 782.03 247.781Z" fill="#48AB85"/>
<path d="M776.432 240.036C770.486 237.573 764.187 236.071 757.77 235.584C752.021 234.974 746.222 234.998 740.479 235.658C734.27 236.095 728.18 237.575 722.463 240.036C716.629 242.694 706.351 248.976 707.407 253.876C707.516 254.379 707.966 255.901 714.49 258.904C720.456 261.591 726.761 263.451 733.231 264.432C738.889 265.491 744.63 266.043 750.386 266.081C757.077 266.121 763.75 265.374 770.267 263.856C776.059 262.504 781.57 260.151 786.552 256.903C790.806 254.097 791.227 252.841 791.319 252.075C791.963 246.703 779.351 241.289 776.432 240.036Z" fill="#3E705B"/>
<path d="M787.773 266.095C787.875 266.372 771.684 276.713 749.588 277.197C726.889 277.694 709.873 267.527 709.968 267.243C722.36 273.053 735.902 275.997 749.588 275.857C762.875 275.422 775.907 272.091 787.773 266.095Z" fill="#3E705B"/>
<path d="M776.334 252.648C771.188 250.144 765.696 248.426 760.041 247.55C755.512 246.88 750.922 246.711 746.356 247.046C742.275 247.163 738.217 247.708 734.25 248.675C729.609 249.654 725.191 251.493 721.226 254.098C719.048 255.581 717.05 257.314 715.275 259.261C717.144 260.102 719.053 260.849 720.996 261.498C720.996 261.498 723.71 262.386 726.92 263.164C727.841 263.387 728.674 263.56 729.956 263.833C731.238 264.105 731.535 264.158 731.744 264.191C732.538 264.315 732.766 264.356 733.223 264.438C733.277 264.447 739.002 265.47 743.847 265.837C744.237 265.867 744.561 265.888 744.816 265.905C745.534 265.953 747.681 266.082 750.378 266.089C754.307 266.098 757.463 265.843 758.2 265.789C761.99 265.471 764.823 264.986 765.568 264.855C765.568 264.855 768.851 264.279 772.522 263.294C773.805 262.949 774.733 262.635 774.979 262.545C775.408 262.395 775.784 262.26 776.204 262.095C777.346 261.659 778.744 261.125 780.45 260.324C782.018 259.586 783.546 258.767 785.029 257.87C782.29 255.877 779.38 254.129 776.334 252.648Z" fill="#67C7EE"/>
<path d="M777.231 257.24C771.454 254.416 765.346 252.329 759.049 251.027C750.99 249.595 742.74 249.627 734.693 251.123C734.66 250.846 745.881 247.211 759.335 249.879C769.832 251.954 777.334 257.008 777.231 257.24Z" fill="#DEF0F8"/>
<path d="M770.871 257.672C765.955 255.537 760.797 254.01 755.511 253.126C750.95 252.483 746.339 252.278 741.74 252.513C746.325 251.579 751.044 251.511 755.655 252.312C761.048 253.005 766.234 254.832 770.871 257.672Z" fill="#DEF0F8"/>
<path d="M763.929 257.91C761.63 256.992 759.269 256.241 756.863 255.661C753.624 254.983 750.313 254.71 747.006 254.847C750.327 254.221 753.745 254.334 757.017 255.177C759.46 255.688 761.797 256.613 763.929 257.91Z" fill="#DEF0F8"/>
<path d="M797.764 244.73C797.672 241.492 797.224 238.274 796.428 235.134C794.485 227.884 779.358 201.797 750.824 200.965C725.157 200.215 709.344 222.174 705.591 228.223C702.372 234.103 700.47 240.613 700.018 247.301C699.966 248.995 700.027 250.691 700.201 252.376C700.325 253.73 700.533 255.075 700.823 256.403C701.084 258.157 701.673 259.847 702.56 261.383C703.191 262.37 704.026 263.212 705.008 263.852C705.711 264.41 706.52 264.819 707.385 265.056C708.251 265.293 709.155 265.353 710.044 265.231C710.509 265.178 710.957 265.021 711.354 264.773C711.752 264.525 712.089 264.191 712.341 263.797C712.562 263.178 712.579 262.506 712.391 261.877C712.202 261.249 711.817 260.697 711.292 260.303C710.86 260.01 710.374 259.806 709.863 259.703C708.759 259.386 708.311 259.519 707.11 259.149C706.676 259.052 706.28 258.832 705.969 258.514C705.689 258.158 705.517 257.728 705.476 257.276C705.104 255.411 704.876 253.819 704.738 252.615C704.35 249.302 704.383 245.954 704.837 242.65C704.863 242.53 704.881 242.443 704.894 242.383C705.942 238.541 707.515 234.862 709.567 231.449C726.295 205.421 750.929 206.256 750.929 206.256C773.973 207.037 787.834 227.464 791.333 236.064C793.279 241.229 793.786 246.825 792.801 252.256C792.291 255.609 791.918 256.742 791.002 257.532C790.039 258.207 788.948 258.679 787.797 258.919C786.177 259.423 785.426 259.39 784.781 260.14C784.31 260.726 784.079 261.47 784.135 262.221C784.184 262.667 784.33 263.097 784.561 263.481C784.792 263.866 785.104 264.195 785.476 264.447C786.128 264.843 786.89 265.02 787.65 264.951C788.405 264.902 789.149 264.736 789.854 264.459C790.552 264.241 791.234 263.974 791.894 263.66C792.858 263.091 793.711 262.353 794.411 261.48C795.897 259.61 796.172 257.687 796.596 254.4C797.379 248.364 797.764 245.349 797.764 244.73Z" fill="#ECAE44"/>
<path d="M751.109 199.001C746.01 198.962 740.961 200.009 736.298 202.072C735.876 202.276 735.424 202.545 735.424 202.545C735.221 202.653 735.027 202.778 734.846 202.92C734.012 203.782 736.397 209.604 737.957 209.328C738.098 209.304 738.149 209.244 738.831 208.991C738.831 208.991 739.43 208.769 740.191 208.541C741.994 207.974 743.826 207.502 745.68 207.127C748.786 206.656 751.949 206.687 755.046 207.219C758.186 207.715 761.238 208.668 764.103 210.046C764.571 210.302 765.054 210.529 765.55 210.727C765.67 210.784 765.796 210.829 765.925 210.864C767.25 210.976 768.97 204.904 768.166 204.276C768.15 204.262 768.058 204.21 767.877 204.103C767.374 203.803 767.007 203.602 766.995 203.596C762.088 200.948 756.671 199.381 751.109 199.001Z" fill="#D37F39"/>
<path d="M771.375 335.717L771.438 335.69C768.989 335.822 765.649 335.934 761.68 335.858C757.824 335.857 753.972 335.602 750.149 335.093C744.615 334.304 741.096 333.804 737.158 331.624C734.22 329.906 731.618 327.671 729.477 325.027C725.878 320.754 724.079 316.64 720.721 306.651C717.593 297.355 715.41 289.809 713.687 283.827C712.232 278.773 710.482 272.689 708.827 266.92C709.219 270.202 709.555 272.827 709.744 274.208C710.822 282.102 711.939 288.381 712.939 294.177C714.343 302.296 716.322 314.118 718.637 329.223C719.775 330.496 721.024 331.666 722.368 332.72C725.582 335.16 729.276 336.89 733.207 337.798C733.986 338.002 735.174 338.304 736.693 338.597C745.108 339.663 753.625 339.663 762.04 338.597C763.788 338.259 765.526 337.798 765.526 337.798C767.148 337.35 768.744 336.813 770.306 336.187C770.397 336.15 770.944 335.919 771.093 335.846C771.093 335.846 771.231 335.777 771.367 335.718L771.375 335.717Z" fill="#3E705B"/>
<path d="M771.007 283.886C770.822 284.886 770.42 285.834 769.83 286.663C769.225 287.903 768.259 288.932 767.06 289.615C765.967 290.03 764.775 290.112 763.636 289.849C762.496 289.586 761.461 288.99 760.661 288.138C759.64 287.051 759.049 285.629 759 284.138C759.043 282.96 759.374 281.811 759.964 280.791C760.554 279.771 761.385 278.911 762.384 278.286C763.139 277.695 764.024 277.292 764.965 277.11C765.906 276.928 766.877 276.972 767.798 277.239C768.762 277.742 769.54 278.54 770.018 279.517C770.85 280.812 771.2 282.359 771.007 283.886Z" fill="#1D1D1B"/>
<path d="M754.31 304.699C753.583 305.445 752.7 306.022 751.725 306.388C750.502 307.099 749.094 307.424 747.683 307.321C746.516 307.05 745.456 306.439 744.637 305.565C743.818 304.69 743.277 303.592 743.083 302.41C742.836 300.905 743.145 299.362 743.951 298.068C744.659 297.091 745.595 296.302 746.677 295.77C747.76 295.238 748.956 294.979 750.162 295.016C751.142 294.945 752.125 295.107 753.03 295.49C753.935 295.873 754.735 296.465 755.367 297.218C755.898 298.196 756.103 299.317 755.952 300.419C755.922 301.994 755.341 303.509 754.31 304.699Z" fill="#1D1D1B"/>
<path d="M754.621 314.237C755.408 313.731 756.296 313.405 757.224 313.281C758.438 312.906 759.738 312.906 760.953 313.281C761.92 313.755 762.725 314.505 763.265 315.436C763.806 316.368 764.058 317.438 763.989 318.513C763.902 319.884 763.318 321.176 762.347 322.148C761.528 322.859 760.548 323.36 759.491 323.605C758.434 323.85 757.333 323.833 756.285 323.555C755.695 323.417 752.927 322.772 752.17 320.58C751.904 319.616 751.951 318.591 752.306 317.656C752.652 316.28 753.472 315.069 754.621 314.237Z" fill="#1D1D1B"/>
<path d="M767.177 308.088C766.395 307.479 765.757 306.704 765.307 305.821C764.506 304.738 764.051 303.439 764 302.093C764.134 300.96 764.601 299.893 765.343 299.026C766.084 298.159 767.065 297.532 768.163 297.223C769.564 296.83 771.06 296.96 772.372 297.589C773.369 298.158 774.213 298.963 774.828 299.933C775.443 300.903 775.812 302.009 775.901 303.154C776.072 304.073 776.021 305.02 775.754 305.916C775.487 306.813 775.011 307.633 774.366 308.309C773.496 308.913 772.456 309.225 771.397 309.199C769.904 309.334 768.41 308.941 767.177 308.088Z" fill="#1D1D1B"/>
</svg>
