<svg width="156" height="156" viewBox="0 0 156 156" fill="none" xmlns="http://www.w3.org/2000/svg">
<rect x="2" y="2" width="152" height="152" rx="30" fill="white" stroke="#834EA5" stroke-width="4"/>
<path d="M121.121 105.499C121.121 93.0811 121.28 92.4484 121.201 85.0137C121.201 76.0763 120.882 70.3817 121.121 63.4216C121.121 62.7097 121.121 62.2352 121.201 61.2861C121.44 51.9532 121.121 50.1341 120.882 49.185C120.563 47.7613 119.926 46.4959 118.732 43.9649C116.422 38.9821 113.794 35.0275 112.997 33.9202C109.094 28.7001 99.0592 26.1692 89.7406 26.2483C85.4397 26.2483 81.2982 26.8019 77.8734 27.8301C74.4487 26.8019 70.3071 26.2483 66.0062 26.2483C56.6877 26.1692 46.6523 28.7001 42.7497 33.9202C41.9532 35.0275 39.3249 38.9821 37.0152 43.9649C35.8205 46.4168 35.263 47.6822 34.8648 49.1059C34.6258 50.1341 34.3073 51.9532 34.5462 61.207C34.5462 62.1561 34.5462 62.6307 34.6258 63.3425C34.8648 70.3026 34.6258 76.0763 34.5462 84.9346C34.5462 92.3693 34.7055 93.002 34.6258 105.42C34.6258 107.001 34.6258 108.504 34.6258 110.086C34.5462 115.939 34.148 120.763 34.9444 126.695C35.1037 127.961 35.3427 129.226 36.2188 130.571C36.617 131.124 37.0152 131.599 37.4134 131.994C38.8471 133.735 40.7586 134.921 42.1125 135C42.2718 135 42.7497 135 43.3869 135H43.5462H44.263C44.9001 135 45.378 135 45.5373 135H110.289C110.448 135 110.926 135 111.564 135H112.28H112.44C113.077 135 113.555 135 113.714 135C115.068 134.921 116.979 133.735 118.413 131.994C118.891 131.599 119.289 131.124 119.608 130.571C120.484 129.226 120.723 127.961 120.882 126.695C121.679 120.763 121.28 115.939 121.201 110.086C121.041 108.583 121.121 107.001 121.121 105.499Z" fill="#C890A7"/>
<path d="M114.192 36.7675H41.3957C38.2895 36.7675 35.7409 34.2366 35.7409 31.152V25.6155C35.6612 22.5309 38.2099 20 41.3957 20H114.192C117.298 20 119.847 22.5309 119.847 25.6155V31.152C119.847 34.2366 117.298 36.7675 114.192 36.7675Z" fill="#8A8C95"/>
<path d="M117.218 97.4312C117.218 83.6692 117.378 82.9574 117.298 74.7318C117.298 64.8453 117.059 58.5179 117.218 50.7669C117.218 50.6878 116.263 49.2641 116.024 48.6314C115.546 48.1568 114.749 47.445 113.714 46.8122C110.21 44.7558 106.307 44.9931 101.608 45.3886C99.6167 45.5468 98.9795 45.784 94.599 46.1795C91.7317 46.4168 90.6964 46.4959 89.5017 46.4168C87.7495 46.2586 87.5902 46.0213 84.0061 45.3886C80.8999 44.7558 79.307 44.4395 77.4752 44.4395C75.3247 44.3604 73.6522 44.5977 71.9796 44.914C69.2717 45.3095 68.7938 45.8631 66.0062 46.2586C65.2098 46.3377 63.7761 46.575 61.9443 46.4959C59.4753 46.4168 58.1213 45.9422 56.3691 45.5468C55.493 45.3886 49.9178 44.2022 44.1833 45.784C44.1833 45.784 41.7143 46.4959 39.9621 48.1568C39.6435 48.4732 38.4488 49.5805 38.5285 50.8459C38.6878 58.4388 38.4488 64.8453 38.4488 74.6527C38.4488 82.8783 38.5285 83.5901 38.5285 97.3521C38.5285 99.0922 38.5285 100.753 38.5285 102.493C38.4488 108.979 38.1302 114.357 38.7674 120.843C38.9267 122.187 39.086 123.611 39.8824 125.113C40.201 125.746 40.5993 126.3 40.9975 126.695C42.2718 128.673 44.024 129.938 45.2187 130.017C45.2983 130.017 45.7762 130.017 46.3337 130.017H46.493H47.1302C47.6877 130.017 48.0859 130.017 48.2452 130.017H107.183C107.342 130.017 107.741 130.017 108.298 130.017H108.935H109.094C109.652 130.017 110.13 130.017 110.21 130.017C111.484 129.938 113.156 128.673 114.431 126.695C114.829 126.221 115.227 125.667 115.546 125.113C116.342 123.611 116.502 122.187 116.661 120.843C117.378 114.278 116.979 108.979 116.9 102.493C117.139 100.832 117.218 99.0922 117.218 97.4312Z" fill="#B44276"/>
<path d="M110.847 104.787V69.6699C107.979 69.6699 105.67 67.7717 105.67 65.478H49.9178C49.9178 67.7717 47.6081 69.6699 44.7408 69.6699V104.866C47.6081 104.866 49.9178 106.764 49.9178 109.058H105.67C105.67 106.685 107.979 104.787 110.847 104.787Z" fill="white"/>
<path opacity="0.39" d="M47.4487 120.763V64.608C47.4487 62.1561 49.5195 60.0997 51.9885 60.0997C54.4575 60.0997 56.5283 62.1561 56.5283 64.608V120.843C56.5283 123.294 54.4575 125.351 51.9885 125.351C49.4399 125.272 47.4487 123.294 47.4487 120.763Z" fill="white"/>
<path opacity="0.39" d="M47.4487 51.5578V46.1004C47.4487 43.6486 49.5195 41.5922 51.9885 41.5922C54.4575 41.5922 56.5283 43.6486 56.5283 46.1004V51.5578C56.5283 54.0096 54.4575 56.066 51.9885 56.066C49.4399 56.066 47.4487 54.0096 47.4487 51.5578Z" fill="white"/>
<path d="M86.3293 96.6667C91.9333 96.6667 96.4763 92.1237 96.4763 86.5196C96.4763 80.9155 91.9333 76.3725 86.3293 76.3725C80.7252 76.3725 76.1822 80.9155 76.1822 86.5196C76.1822 92.1237 80.7252 96.6667 86.3293 96.6667Z" fill="#B32646"/>
<path d="M88.6969 88.7181C88.1895 89.2255 87.5131 89.2255 87.0057 88.7181L83.7925 85.674C83.2851 85.1666 83.2851 84.4902 83.7925 83.9828C84.2998 83.4755 84.9763 83.4755 85.4837 83.9828L88.6969 87.0269C89.2042 87.5343 89.2042 88.3799 88.6969 88.7181Z" fill="#6C1626"/>
<path d="M88.5278 83.9829C89.0352 84.4903 89.0352 85.1667 88.5278 85.6741L85.6528 88.8873C85.1455 89.3947 84.469 89.3947 83.9616 88.8873C83.4543 88.38 83.4543 87.7035 83.9616 87.1961L87.0058 83.9829C87.344 83.6447 88.0205 83.6447 88.5278 83.9829Z" fill="#6C1626"/>
<path d="M71.1087 93.2843C77.6468 93.2843 82.9469 87.9842 82.9469 81.4461C82.9469 74.908 77.6468 69.6078 71.1087 69.6078C64.5706 69.6078 59.2704 74.908 59.2704 81.4461C59.2704 87.9842 64.5706 93.2843 71.1087 93.2843Z" fill="#B32646"/>
<path d="M73.8709 84.011C73.279 84.6029 72.4898 84.6029 71.8979 84.011L68.1491 80.4595C67.5572 79.8676 67.5572 79.0784 68.1491 78.4865C68.741 77.8946 69.5302 77.8946 70.1221 78.4865L73.8709 82.0379C74.4628 82.6299 74.4628 83.6164 73.8709 84.011Z" fill="#6C1626"/>
<path d="M73.6737 78.4866C74.2656 79.0785 74.2656 79.8677 73.6737 80.4596L70.3195 84.2084C69.7276 84.8003 68.9383 84.8003 68.3464 84.2084C67.7545 83.6165 67.7545 82.8273 68.3464 82.2354L71.8979 78.4866C72.2925 78.092 73.0817 78.092 73.6737 78.4866Z" fill="#6C1626"/>
<path d="M66.3733 75.9216C66.9652 75.527 67.9517 74.7378 68.7409 74.1459C68.9382 73.9486 69.3328 73.7513 69.3328 73.3567C69.3328 73.3567 69.5301 72.5675 69.1355 72.1728C68.7409 71.7782 67.9517 71.7782 67.7544 71.7782C67.5571 71.7782 67.1625 71.9755 66.7679 72.1728C66.176 72.5675 65.9787 72.7648 65.7814 72.9621C64.9922 73.554 64.5975 73.9486 64.0056 74.3432C63.2164 75.1324 62.8218 75.7243 62.6245 75.9216C62.2299 76.5135 61.8353 77.1054 61.2434 78.2893C60.8488 78.8812 60.6515 79.4731 60.6515 80.2623C60.6515 80.6569 60.8488 80.8542 60.8488 81.0515C61.2434 81.4461 61.638 81.4461 61.8353 81.4461C62.2299 81.4461 62.6245 81.2488 62.6245 81.2488C63.0191 81.0515 63.0191 80.6569 63.4137 80.065C63.611 79.4731 63.611 79.4731 63.8083 78.8812C63.8083 78.6839 64.0056 78.4866 64.4002 77.8947C64.9922 77.1054 65.5841 76.5135 66.3733 75.9216Z" fill="#C8637A"/>
<path d="M76.1822 104.559C81.1636 104.559 85.2018 100.521 85.2018 95.5392C85.2018 90.5578 81.1636 86.5196 76.1822 86.5196C71.2008 86.5196 67.1626 90.5578 67.1626 95.5392C67.1626 100.521 71.2008 104.559 76.1822 104.559Z" fill="#761F36"/>
<path d="M78.4371 97.653C78.0143 98.0758 77.4506 98.0758 77.0278 97.653L74.2092 94.9753C73.7864 94.5525 73.7864 93.9888 74.2092 93.566C74.632 93.1432 75.1957 93.1432 75.6185 93.566L78.4371 96.2437C78.719 96.5256 78.719 97.2302 78.4371 97.653Z" fill="#49131F"/>
<path d="M78.1552 93.4252C78.578 93.848 78.578 94.4117 78.1552 94.8345L75.4775 97.6531C75.0547 98.0759 74.491 98.0759 74.0682 97.6531C73.6454 97.2303 73.6454 96.6666 74.0682 96.2438L76.7459 93.4252C77.1687 93.0024 77.7324 93.0024 78.1552 93.4252Z" fill="#49131F"/>
<path d="M72.5178 91.3112C72.9406 90.8885 73.6453 90.4657 74.3499 89.9019C74.4909 89.761 74.7727 89.6201 74.9137 89.3382C74.9137 89.3382 75.0546 88.7745 74.7727 88.4926C74.4909 88.0698 73.9271 88.2108 73.7862 88.2108C73.6453 88.2108 73.3634 88.3517 73.0815 88.6336C72.6588 88.9154 72.3769 89.0563 72.3769 89.1973C71.8132 89.761 71.3904 89.9019 71.1085 90.3247C70.5448 90.8885 70.122 91.3113 70.122 91.4522C69.8401 91.875 69.5583 92.2978 69.1355 93.1433C68.8536 93.7071 68.7127 94.1299 68.7127 94.5527C68.7127 94.8345 68.8536 94.9754 68.8536 95.1164C69.1355 95.3982 69.4173 95.3982 69.5583 95.3982C69.8401 95.3982 70.122 95.2573 70.122 95.2573C70.4039 95.1164 70.5448 94.8345 70.6857 94.4117C70.8267 93.9889 70.8266 93.848 70.9676 93.5661C70.9676 93.4252 71.1085 93.1434 71.5313 92.8615C71.5313 92.2978 71.9541 91.875 72.5178 91.3112Z" fill="#A05062"/>
</svg>
