<svg width="156" height="156" viewBox="0 0 156 156" fill="none" xmlns="http://www.w3.org/2000/svg">
<rect x="2" y="2" width="152" height="152" rx="30" fill="white" stroke="#834EA5" stroke-width="4"/>
<path d="M117.339 30.1643C112.514 29.3439 108.888 32.7479 105.388 34.7593C99.7303 38.0104 97.7381 35.2703 78.25 34.8133C68.0165 34.5722 59.3967 34.6658 51.1123 34.7593C48.4387 34.7899 41.0707 31.8807 32.9136 35.1588C31.8889 36.0497 30.6545 36.6634 29.3273 36.9417C28.8902 37.0006 28.4478 37.0072 28.0093 36.9615C28.3679 40.666 28.8825 45.5723 29.5586 51.3441C30.1162 56.0974 30.6058 59.9531 30.864 61.8512C32.1533 71.3238 33.4892 78.8605 34.6852 85.8143C36.3636 95.5567 38.7306 109.743 41.4992 127.87C42.8611 129.397 44.3546 130.801 45.9624 132.065C49.8053 134.993 54.2234 137.07 58.9251 138.159C59.8576 138.404 61.2778 138.767 63.0942 139.118C73.1591 140.397 83.3446 140.397 93.4094 139.118C95.2259 138.758 96.6371 138.398 97.5785 138.159C102.28 137.07 106.698 134.993 110.541 132.065C112.149 130.801 113.643 129.397 115.004 127.87C117.764 109.741 120.131 95.5567 121.818 85.8143C123.014 78.8605 124.35 71.3274 125.64 61.8584C126.307 56.9521 126.762 52.9543 126.945 51.3441C127.637 45.2431 128.123 39.9212 128.471 35.6283C127.528 34.8571 126.537 34.1474 125.503 33.5035C123.002 31.9103 120.237 30.7793 117.339 30.1643Z" fill="#48AB85"/>
<path d="M110.644 20.8698C103.533 17.9152 95.9989 16.1122 88.3242 15.528C81.4484 14.7957 74.5131 14.8252 67.6437 15.6162C60.2185 16.1415 52.9345 17.9175 46.0971 20.8698C39.1199 24.0597 26.8278 31.5982 28.0902 37.4778C28.2211 38.0824 28.759 39.9085 36.5611 43.5123C43.697 46.7362 51.2381 48.968 58.9756 50.1458C65.7424 51.4167 72.6087 52.079 79.4929 52.1249C87.4955 52.1724 95.476 51.2763 103.27 49.4549C110.197 47.8324 116.789 45.0084 122.747 41.1104C127.835 37.7441 128.339 36.2364 128.448 35.3171C129.219 28.8706 114.135 22.3739 110.644 20.8698Z" fill="#3E705B"/>
<path d="M124.207 52.1411C124.329 52.4739 104.965 64.8827 78.5389 65.4639C51.3904 66.0594 31.0398 53.8593 31.1528 53.5192C45.9742 60.491 62.1703 64.0238 78.5389 63.8554C94.4302 63.334 110.016 59.336 124.207 52.1411Z" fill="#3E705B"/>
<path d="M110.527 36.0043C104.372 33.0002 97.8041 30.9382 91.0407 29.8872C85.6233 29.0835 80.1343 28.8807 74.6727 29.2827C69.7917 29.4221 64.9389 30.077 60.1947 31.2366C54.6433 32.412 49.36 34.6191 44.6175 37.7441C42.0123 39.5238 39.6237 41.6034 37.5005 43.9405C39.7351 44.9497 42.0189 45.8456 44.3432 46.6248C44.3432 46.6248 47.5888 47.6899 51.428 48.6237C52.529 48.8918 53.526 49.0987 55.0591 49.4261C56.5923 49.7536 56.9473 49.8165 57.1966 49.8561C58.1469 50.0054 58.4195 50.054 58.9664 50.153C59.031 50.1638 65.8772 51.3908 71.6727 51.8316C72.139 51.8676 72.5263 51.8928 72.8311 51.9126C73.69 51.9701 76.2578 52.1249 79.4837 52.1339C84.1818 52.1447 87.9564 51.8388 88.8387 51.774C93.3718 51.3926 96.759 50.8097 97.6502 50.6531C97.6502 50.6531 101.577 49.9623 105.967 48.7802C107.502 48.3664 108.612 47.9886 108.906 47.8806C109.419 47.7007 109.869 47.5388 110.371 47.3409C111.737 46.8173 113.409 46.1768 115.449 45.2161C117.324 44.3302 119.152 43.3471 120.925 42.2708C117.65 39.8793 114.17 37.7823 110.527 36.0043Z" fill="#67C7EE"/>
<path d="M111.6 41.5152C104.691 38.1264 97.3851 35.6216 89.8541 34.0594C80.2162 32.3406 70.3483 32.3796 60.7242 34.1746C60.6848 33.8417 74.1048 29.4805 90.1966 32.6813C102.75 35.1713 111.723 41.2363 111.6 41.5152Z" fill="#DEF0F8"/>
<path d="M103.993 42.0333C98.1135 39.4714 91.9442 37.6395 85.622 36.5782C80.1679 35.8069 74.6527 35.5605 69.1519 35.8424C74.6358 34.7216 80.2803 34.6398 85.7942 35.6013C92.2448 36.4328 98.447 38.6249 103.993 42.0333Z" fill="#DEF0F8"/>
<path d="M95.6906 42.3194C92.9415 41.2181 90.1172 40.3162 87.2394 39.6207C83.3654 38.8068 79.4057 38.4786 75.4512 38.6437C79.4228 37.8927 83.5104 38.0278 87.4241 39.0395C90.3455 39.6531 93.1411 40.7623 95.6906 42.3194Z" fill="#DEF0F8"/>
<path d="M104.596 135.687L104.671 135.655C101.743 135.813 97.7475 135.948 93.001 135.856C88.3888 135.856 83.7817 135.549 79.2099 134.939C72.5913 133.992 68.3828 133.391 63.6721 130.775C60.1595 128.714 57.0473 126.032 54.4858 122.859C50.1822 117.731 48.0304 112.795 44.0137 100.809C40.2732 89.6537 37.6623 80.5985 35.602 73.4198C33.8608 67.3548 31.7682 60.0538 29.7886 53.1306C30.2584 57.069 30.66 60.2193 30.886 61.8764C32.1753 71.349 33.5112 78.8839 34.7072 85.8394C36.3856 95.5819 38.7526 109.768 41.5212 127.895C42.8831 129.422 44.3766 130.826 45.9844 132.091C49.8273 135.019 54.2454 137.096 58.9471 138.184C59.8796 138.429 61.2998 138.792 63.1162 139.143C73.1811 140.423 83.3666 140.423 93.4314 139.143C95.5222 138.739 97.6005 138.184 97.6005 138.184C99.5404 137.648 101.449 137.002 103.317 136.252C103.426 136.207 104.081 135.93 104.259 135.842C104.259 135.842 104.423 135.759 104.587 135.689L104.596 135.687Z" fill="#3E705B"/>
<path d="M65.3215 81.1428C65.0553 82.5833 64.4771 83.948 63.6274 85.1413C62.7554 86.9274 61.365 88.409 59.6377 89.3925C58.0639 89.9909 56.3478 90.1081 54.7072 89.7294C53.0666 89.3507 51.5756 88.4931 50.4232 87.2655C48.9526 85.7001 48.1025 83.6527 48.0317 81.5061C48.0934 79.8101 48.5699 78.1552 49.4195 76.6861C50.269 75.217 51.4657 73.9785 52.9048 73.0791C53.9921 72.2283 55.2659 71.648 56.6213 71.3858C57.9768 71.1236 59.3751 71.1871 60.7012 71.571C62.0891 72.2959 63.2091 73.4454 63.8977 74.8517C65.0957 76.7167 65.5997 78.9437 65.3215 81.1428Z" fill="#1D1D1B"/>
<path d="M92.2067 121.995C91.081 121.116 90.1618 120.002 89.5139 118.729C88.3607 117.17 87.7047 115.299 87.6318 113.361C87.8252 111.73 88.498 110.193 89.5651 108.945C90.6323 107.696 92.0458 106.793 93.6268 106.348C95.6438 105.782 97.798 105.969 99.687 106.875C101.124 107.695 102.338 108.853 103.224 110.25C104.11 111.647 104.641 113.239 104.769 114.888C105.015 116.213 104.942 117.576 104.558 118.867C104.174 120.157 103.488 121.338 102.558 122.312C101.306 123.182 99.8085 123.631 98.2839 123.593C96.1335 123.788 93.9829 123.222 92.2067 121.995Z" fill="#1D1D1B"/>
</svg>
