<svg width="156" height="156" viewBox="0 0 156 156" fill="none" xmlns="http://www.w3.org/2000/svg">
<rect x="2" y="2" width="152" height="152" rx="30" fill="white" stroke="#834EA5" stroke-width="4"/>
<path d="M117.641 30.1646C112.799 29.3442 109.161 32.7483 105.649 34.7598C99.9724 38.011 97.9735 35.2708 78.4196 34.8138C68.1515 34.5727 59.5027 34.6663 51.1903 34.7598C48.5077 34.7904 41.1147 31.8811 32.9301 35.1593C31.902 36.0503 30.6634 36.664 29.3317 36.9423C28.8932 37.0011 28.4493 37.0078 28.0093 36.9621C28.3691 40.6667 28.8855 45.5731 29.5638 51.345C30.1234 56.0985 30.6145 59.9542 30.8736 61.8524C32.1673 71.3252 33.5077 78.8621 34.7077 85.8161C36.3918 95.5588 38.7668 109.746 41.5448 127.873C42.9112 129.4 44.4098 130.804 46.023 132.068C49.8789 134.997 54.3119 137.074 59.0295 138.162C59.9651 138.407 61.3901 138.771 63.2127 139.121C73.3115 140.401 83.5314 140.401 93.6302 139.121C95.4528 138.762 96.8688 138.402 97.8133 138.162C102.531 137.074 106.964 134.997 110.82 132.068C112.433 130.804 113.932 129.4 115.298 127.873C118.067 109.744 120.442 95.5588 122.135 85.8161C123.335 78.8621 124.676 71.3288 125.969 61.8596C126.639 56.9531 127.096 52.9553 127.279 51.345C127.974 45.2438 128.461 39.9218 128.81 35.6289C127.864 34.8576 126.869 34.1478 125.832 33.504C123.323 31.9107 120.549 30.7797 117.641 30.1646Z" fill="#48AB85"/>
<path d="M110.923 20.8699C103.787 17.9152 96.2285 16.1122 88.5278 15.528C81.6288 14.7956 74.6701 14.8252 67.7775 15.6162C60.3273 16.1415 53.0186 17.9176 46.1582 20.8699C39.1574 24.0599 26.8238 31.5986 28.0905 37.4784C28.2218 38.083 28.7616 39.9092 36.59 43.513C43.75 46.737 51.3165 48.9689 59.0801 50.1467C65.8698 51.4177 72.7593 52.08 79.6667 52.1258C87.6964 52.1734 95.7038 51.2772 103.524 49.4558C110.475 47.8333 117.089 45.0092 123.067 41.1111C128.172 37.7447 128.677 36.237 128.787 35.3176C129.561 28.871 114.426 22.3741 110.923 20.8699Z" fill="#3E705B"/>
<path d="M124.532 52.142C124.654 52.4749 105.225 64.8841 78.7096 65.4652C51.4695 66.0607 31.0502 53.8603 31.1636 53.5202C46.035 60.4922 62.2858 64.0251 78.7096 63.8567C94.6545 63.3353 110.293 59.3372 124.532 52.142Z" fill="#3E705B"/>
<path d="M110.806 36.0049C104.63 33.0007 98.0399 30.9387 91.2536 29.8876C85.818 29.0838 80.3104 28.8811 74.8304 29.283C69.9329 29.4225 65.0638 30.0774 60.3036 31.237C54.7334 32.4124 49.4322 34.6197 44.6738 37.7447C42.0598 39.5245 39.6631 41.6041 37.5327 43.9412C39.7749 44.9505 42.0664 45.8464 44.3985 46.6256C44.3985 46.6256 47.6551 47.6908 51.5072 48.6246C52.6119 48.8927 53.6123 49.0996 55.1506 49.427C56.6889 49.7545 57.0452 49.8175 57.2953 49.857C58.2489 50.0064 58.5223 50.055 59.0711 50.1539C59.1359 50.1647 66.0053 51.3918 71.8203 51.8326C72.2881 51.8686 72.6767 51.8937 72.9826 51.9135C73.8444 51.9711 76.4209 52.1258 79.6577 52.1348C84.3716 52.1456 88.159 51.8398 89.0442 51.775C93.5926 51.3936 96.9913 50.8106 97.8855 50.6541C97.8855 50.6541 101.826 49.9632 106.23 48.7811C107.77 48.3673 108.884 47.9895 109.179 47.8815C109.694 47.7016 110.145 47.5397 110.649 47.3417C112.02 46.8182 113.697 46.1776 115.744 45.2169C117.626 44.331 119.46 43.3479 121.239 42.2716C117.952 39.88 114.461 37.7829 110.806 36.0049Z" fill="#67C7EE"/>
<path d="M111.881 41.5159C104.949 38.1271 97.6187 35.6222 90.0623 34.06C80.3918 32.3411 70.4907 32.3801 60.8341 34.1751C60.7945 33.8423 74.2598 29.481 90.4059 32.6818C103.002 35.1719 112.005 41.237 111.881 41.5159Z" fill="#DEF0F8"/>
<path d="M104.249 42.034C98.3499 39.4721 92.1598 37.6401 85.8163 36.5788C80.3437 35.8075 74.81 35.5611 69.2905 35.843C74.793 34.7221 80.4565 34.6403 85.989 35.6019C92.4614 36.4334 98.6846 38.6255 104.249 42.034Z" fill="#DEF0F8"/>
<path d="M95.919 42.3202C93.1607 41.2188 90.3269 40.3169 87.4394 39.6213C83.5523 38.8074 79.5792 38.4793 75.6113 38.6444C79.5963 37.8933 83.6978 38.0284 87.6247 39.0402C90.5559 39.6537 93.361 40.763 95.919 42.3202Z" fill="#DEF0F8"/>
<path d="M104.854 135.69L104.93 135.658C101.991 135.816 97.9828 135.951 93.2203 135.859C88.5925 135.859 83.9698 135.553 79.3825 134.942C72.7416 133.995 68.5189 133.394 63.7924 130.778C60.2678 128.717 57.1451 126.035 54.575 122.862C50.2569 117.734 48.0978 112.797 44.0676 100.811C40.3144 89.6556 37.6948 80.6002 35.6275 73.4213C33.8804 67.3562 31.7808 60.055 29.7944 53.1316C30.2658 57.0701 30.6689 60.2205 30.8956 61.8776C32.1892 71.3504 33.5296 78.8855 34.7297 85.8413C36.4137 95.584 38.7887 109.771 41.5667 127.898C42.9331 129.425 44.4317 130.829 46.0449 132.094C49.9008 135.022 54.3338 137.099 59.0514 138.188C59.987 138.432 61.412 138.796 63.2346 139.147C73.3334 140.426 83.5533 140.426 93.6521 139.147C95.75 138.742 97.8353 138.188 97.8353 138.188C99.7817 137.651 101.697 137.006 103.571 136.255C103.681 136.21 104.338 135.933 104.516 135.845C104.516 135.845 104.681 135.762 104.845 135.692L104.854 135.69Z" fill="#3E705B"/>
<path d="M83.5887 92.7038C84.2714 93.9834 84.6647 95.3973 84.7408 96.8456C85.1711 98.7681 85.0115 100.776 84.2829 102.606C83.4344 104.042 82.1791 105.194 80.6758 105.915C79.1725 106.637 77.4888 106.897 75.8379 106.662C73.7307 106.359 71.8058 105.299 70.423 103.681C69.4226 102.33 68.7683 100.755 68.5173 99.0927C68.2663 97.4308 68.4261 95.7327 68.9828 94.1468C69.2708 93.251 70.6015 89.0573 74.0895 88.1558C75.6123 87.8645 77.1883 88.0663 78.5885 88.7319C80.6695 89.4284 82.4394 90.8343 83.5887 92.7038Z" fill="#1D1D1B"/>
<path d="M61.6916 78.7417C61.4254 80.1821 60.8472 81.5469 59.9975 82.7401C59.1255 84.5263 57.7351 86.0079 56.0078 86.9914C54.434 87.5897 52.7179 87.707 51.0773 87.3283C49.4367 86.9496 47.9457 86.092 46.7934 84.8643C45.3228 83.299 44.4726 81.2516 44.4019 79.1049C44.4636 77.409 44.94 75.7541 45.7896 74.285C46.6391 72.8159 47.8358 71.5774 49.275 70.678C50.3622 69.8272 51.636 69.2468 52.9915 68.9847C54.3469 68.7225 55.7452 68.7859 57.0713 69.1698C58.4592 69.8948 59.5792 71.0443 60.2678 72.4505C61.4658 74.3156 61.9698 76.5425 61.6916 78.7417Z" fill="#1D1D1B"/>
<path d="M95.777 124.393C94.6513 123.515 93.7321 122.4 93.0843 121.128C91.931 119.569 91.275 117.698 91.2021 115.76C91.3955 114.129 92.0683 112.592 93.1355 111.344C94.2026 110.095 95.6161 109.192 97.1971 108.747C99.2141 108.181 101.368 108.368 103.257 109.274C104.694 110.094 105.909 111.252 106.795 112.649C107.681 114.046 108.211 115.638 108.34 117.287C108.585 118.611 108.513 119.975 108.128 121.265C107.744 122.556 107.059 123.737 106.129 124.711C104.876 125.581 103.379 126.029 101.854 125.992C99.7038 126.187 97.5532 125.621 95.777 124.393Z" fill="#1D1D1B"/>
</svg>
