<svg width="156" height="156" viewBox="0 0 156 156" fill="none" xmlns="http://www.w3.org/2000/svg">
<rect x="2" y="2" width="152" height="152" rx="30" fill="white" stroke="#834EA5" stroke-width="4"/>
<path d="M117.64 30.1645C112.798 29.344 109.16 32.7481 105.648 34.7596C99.9716 38.0107 97.9727 35.2706 78.4191 34.8136C68.1511 34.5725 59.5023 34.666 51.1901 34.7596C48.5075 34.7902 41.1146 31.8809 32.9301 35.159C31.902 36.05 30.6634 36.6637 29.3317 36.942C28.8932 37.0009 28.4493 37.0075 28.0093 36.9618C28.3691 40.6663 28.8855 45.5727 29.5638 51.3446C30.1233 56.098 30.6145 59.9537 30.8736 61.8518C32.1672 71.3246 33.5076 78.8614 34.7077 85.8153C36.3917 95.5579 38.7667 109.745 41.5446 127.871C42.911 129.399 44.4096 130.803 46.0228 132.067C49.8786 134.995 54.3116 137.072 59.0292 138.161C59.9647 138.406 61.3897 138.769 63.2123 139.12C73.311 140.399 83.5307 140.399 93.6294 139.12C95.452 138.76 96.868 138.4 97.8126 138.161C102.53 137.072 106.963 134.995 110.819 132.067C112.432 130.803 113.931 129.399 115.297 127.871C118.066 109.743 120.441 95.5579 122.134 85.8153C123.334 78.8614 124.674 71.3282 125.968 61.859C126.637 56.9526 127.094 52.9548 127.278 51.3446C127.972 45.2435 128.46 39.9215 128.809 35.6286C127.863 34.8574 126.868 34.1476 125.831 33.5038C123.322 31.9105 120.548 30.7795 117.64 30.1645Z" fill="#48AB85"/>
<path d="M110.922 20.8698C103.787 17.9152 96.2277 16.1122 88.5272 15.528C81.6282 14.7956 74.6696 14.8252 67.7771 15.6162C60.3269 16.1415 53.0184 17.9175 46.158 20.8698C39.1573 24.0598 26.8239 31.5984 28.0905 37.4782C28.2218 38.0827 28.7616 39.9089 36.5899 43.5127C43.7498 46.7367 51.3163 48.9685 59.0798 50.1463C65.8693 51.4173 72.7588 52.0796 79.6662 52.1254C87.6957 52.173 95.703 51.2768 103.523 49.4554C110.474 47.8329 117.088 45.0089 123.066 41.1108C128.171 37.7445 128.676 36.2367 128.786 35.3174C129.56 28.8709 114.425 22.374 110.922 20.8698Z" fill="#3E705B"/>
<path d="M124.531 52.1416C124.653 52.4745 105.224 64.8835 78.709 65.4646C51.4692 66.0601 31.0502 53.8598 31.1636 53.5198C46.0348 60.4917 62.2854 64.0246 78.709 63.8561C94.6538 63.3347 110.292 59.3367 124.531 52.1416Z" fill="#3E705B"/>
<path d="M110.805 36.0046C104.63 33.0004 98.0393 30.9385 91.253 29.8874C85.8175 29.0837 80.3099 28.8809 74.83 29.2828C69.9326 29.4223 65.0635 30.0772 60.3033 31.2368C54.7332 32.4122 49.4321 34.6194 44.6737 37.7445C42.0597 39.5242 39.6631 41.6038 37.5327 43.9409C39.7749 44.9501 42.0663 45.846 44.3984 46.6253C44.3984 46.6253 47.655 47.6904 51.507 48.6242C52.6118 48.8923 53.6121 49.0992 55.1504 49.4266C56.6887 49.7541 57.045 49.817 57.295 49.8566C58.2486 50.006 58.5221 50.0545 59.0709 50.1535C59.1356 50.1643 66.0049 51.3913 71.8199 51.8321C72.2877 51.8681 72.6763 51.8933 72.9822 51.9131C73.844 51.9707 76.4205 52.1254 79.6572 52.1344C84.3711 52.1452 88.1584 51.8393 89.0436 51.7746C93.592 51.3931 96.9906 50.8102 97.8848 50.6537C97.8848 50.6537 101.825 49.9628 106.229 48.7807C107.77 48.3669 108.883 47.9891 109.178 47.8811C109.693 47.7012 110.145 47.5393 110.648 47.3414C112.019 46.8178 113.696 46.1773 115.744 45.2165C117.625 44.3306 119.459 43.3475 121.238 42.2712C117.952 39.8797 114.46 37.7827 110.805 36.0046Z" fill="#67C7EE"/>
<path d="M111.881 41.5156C104.949 38.1268 97.6183 35.6219 90.062 34.0597C80.3916 32.3409 70.4906 32.3799 60.8341 34.1749C60.7945 33.842 74.2596 29.4808 90.4056 32.6815C103.002 35.1716 112.005 41.2367 111.881 41.5156Z" fill="#DEF0F8"/>
<path d="M104.248 42.0337C98.3491 39.4718 92.159 37.6398 85.8156 36.5786C80.3431 35.8073 74.8094 35.5609 69.29 35.8427C74.7924 34.7219 80.4559 34.6401 85.9884 35.6016C92.4607 36.4331 98.6837 38.6252 104.248 42.0337Z" fill="#DEF0F8"/>
<path d="M95.9183 42.3198C93.16 41.2184 90.3262 40.3165 87.4387 39.621C83.5517 38.8071 79.5787 38.4789 75.6108 38.644C79.5958 37.893 83.6972 38.0281 87.624 39.0399C90.5552 39.6534 93.3603 40.7627 95.9183 42.3198Z" fill="#DEF0F8"/>
<path d="M104.853 135.689L104.929 135.657C101.991 135.815 97.982 135.95 93.2196 135.858C88.5919 135.858 83.9692 135.551 79.382 134.94C72.7412 133.994 68.5185 133.393 63.792 130.777C60.2675 128.715 57.1448 126.034 54.5747 122.861C50.2567 117.733 48.0976 112.796 44.0674 100.81C40.3143 89.6548 37.6947 80.5994 35.6274 73.4207C33.8804 67.3556 31.7807 60.0545 29.7944 53.1312C30.2658 57.0696 30.6688 60.22 30.8955 61.877C32.1892 71.3498 33.5296 78.8848 34.7296 85.8405C36.4137 95.5831 38.7886 109.77 41.5666 127.897C42.933 129.424 44.4315 130.828 46.0447 132.092C49.9006 135.02 54.3336 137.097 59.0511 138.186C59.9867 138.431 61.4117 138.794 63.2342 139.145C73.3329 140.424 83.5527 140.424 93.6514 139.145C95.7492 138.74 97.8345 138.186 97.8345 138.186C99.7809 137.649 101.696 137.004 103.57 136.254C103.68 136.209 104.337 135.932 104.515 135.844C104.515 135.844 104.68 135.761 104.844 135.691L104.853 135.689Z" fill="#3E705B"/>
<path d="M89.8446 92.4642C90.5273 93.7438 90.9206 95.1577 90.9967 96.606C91.4269 98.5286 91.2673 100.536 90.5387 102.367C89.6902 103.802 88.4349 104.954 86.9316 105.676C85.4283 106.398 83.7447 106.657 82.0937 106.422C79.9865 106.119 78.0617 105.059 76.6788 103.441C75.6785 102.09 75.0242 100.515 74.7732 98.8532C74.5221 97.1913 74.6819 95.4931 75.2387 93.9072C75.5267 93.0115 76.8574 88.8178 80.3454 87.9163C81.8682 87.625 83.4441 87.8268 84.8444 88.4923C86.9254 89.1889 88.6953 90.5948 89.8446 92.4642Z" fill="#1D1D1B"/>
<path d="M70.2649 79.6C69.9986 81.0404 69.4204 82.4052 68.5708 83.5984C67.6988 85.3846 66.3083 86.8662 64.581 87.8497C63.0072 88.448 61.2911 88.5653 59.6506 88.1865C58.01 87.8078 56.5189 86.9502 55.3666 85.7226C53.896 84.1572 53.0459 82.1098 52.9751 79.9632C53.0368 78.2673 53.5133 76.6123 54.3628 75.1432C55.2124 73.6741 56.4091 72.4357 57.8482 71.5363C58.9355 70.6855 60.2093 70.1051 61.5647 69.8429C62.9201 69.5807 64.3185 69.6442 65.6446 70.0281C67.0325 70.7531 68.1524 71.9025 68.841 73.3088C70.039 75.1739 70.5431 77.4008 70.2649 79.6Z" fill="#1D1D1B"/>
<path d="M110.225 83.1774C109.178 84.2514 107.908 85.0819 106.504 85.6099C104.743 86.6328 102.714 87.1008 100.683 86.9527C99.0021 86.5631 97.4752 85.6829 96.2957 84.4239C95.1162 83.1649 94.3374 81.5838 94.058 79.8814C93.7032 77.7145 94.1476 75.4925 95.3085 73.6288C96.3273 72.2217 97.6751 71.0855 99.2342 70.3195C100.793 69.5534 102.516 69.1808 104.253 69.2342C105.664 69.1315 107.079 69.3654 108.382 69.9167C109.685 70.468 110.838 71.3209 111.747 72.4051C112.512 73.8124 112.807 75.4273 112.589 77.0142C112.547 79.2819 111.71 81.463 110.225 83.1774Z" fill="#1D1D1B"/>
<path d="M57.125 108.125C58.2582 107.396 59.5378 106.927 60.873 106.749C62.6224 106.208 64.494 106.208 66.2434 106.749C67.6359 107.431 68.7946 108.511 69.5729 109.852C70.3512 111.193 70.7139 112.735 70.6152 114.282C70.4899 116.256 69.6494 118.117 68.2513 119.516C67.0721 120.541 65.6599 121.261 64.1381 121.615C62.6163 121.968 61.0311 121.943 59.521 121.543C58.6724 121.344 54.6861 120.415 53.5965 117.259C53.2122 115.87 53.2806 114.395 53.7919 113.048C54.2904 111.066 55.4703 109.323 57.125 108.125Z" fill="#1D1D1B"/>
<path d="M98.2419 124.407C97.1162 123.528 96.1969 122.414 95.5491 121.141C94.3958 119.582 93.7399 117.711 93.667 115.773C93.8603 114.142 94.5331 112.605 95.6003 111.357C96.6675 110.108 98.081 109.205 99.662 108.76C101.679 108.194 103.833 108.381 105.722 109.287C107.159 110.107 108.374 111.265 109.259 112.662C110.145 114.059 110.676 115.651 110.804 117.301C111.05 118.625 110.978 119.988 110.593 121.279C110.209 122.569 109.523 123.75 108.593 124.724C107.341 125.594 105.844 126.043 104.319 126.005C102.169 126.2 100.018 125.634 98.2419 124.407Z" fill="#1D1D1B"/>
</svg>
