<svg viewBox="0 0 156 156" fill="none" xmlns="http://www.w3.org/2000/svg">
<rect x="2" y="2" width="152" height="152" rx="30" fill="white" stroke="#834EA5" stroke-width="4"/>
<path d="M111.032 56.7822C106.998 56.0985 103.966 58.9353 101.039 60.6115C96.3088 63.3208 94.643 61.0373 78.3481 60.6565C69.7914 60.4556 62.584 60.5336 55.6571 60.6115C53.4215 60.637 47.2607 58.2126 40.4402 60.9444C39.5834 61.6869 38.5513 62.1983 37.4415 62.4302C37.0761 62.4793 36.7062 62.4848 36.3395 62.4467C36.6394 65.5339 37.0697 69.6226 37.6349 74.4325C38.1012 78.3938 38.5106 81.6068 38.7265 83.1887C39.8045 91.0827 40.9215 97.3635 41.9216 103.158C43.325 111.277 45.3041 123.1 47.6191 138.206C48.7578 139.479 50.0066 140.649 51.3509 141.702C54.5642 144.142 58.2584 145.873 62.1897 146.78C62.9694 146.984 64.1568 147.287 65.6757 147.579C74.0914 148.646 82.6079 148.646 91.0236 147.579C92.5424 147.28 93.7224 146.98 94.5096 146.78C98.4409 145.873 102.135 144.142 105.348 141.702C106.693 140.649 107.941 139.479 109.08 138.206C111.388 123.098 113.367 111.277 114.778 103.158C115.778 97.3635 116.895 91.0857 117.973 83.1947C118.531 79.1059 118.911 75.7744 119.064 74.4325C119.643 69.3482 120.049 64.9131 120.34 61.3357C119.552 60.693 118.723 60.1015 117.859 59.565C115.768 58.2372 113.456 57.2948 111.032 56.7822Z" fill="#387C62"/>
<path d="M105.434 49.0366C99.4879 46.5744 93.1887 45.0718 86.7715 44.585C81.0223 43.9747 75.2234 43.9993 69.4796 44.6585C63.271 45.0963 57.1805 46.5763 51.4635 49.0366C45.6295 51.6949 35.3515 57.9772 36.407 62.877C36.5165 63.3808 36.9663 64.9027 43.4899 67.9058C49.4566 70.5925 55.7621 72.4524 62.2317 73.4339C67.8898 74.4931 73.6311 75.045 79.3872 75.0832C86.0786 75.1228 92.7515 74.376 99.2685 72.8582C105.061 71.5061 110.572 69.1527 115.554 65.9042C119.808 63.0989 120.229 61.8425 120.321 61.0763C120.966 55.7042 108.353 50.29 105.434 49.0366Z" fill="#405F52"/>
<path d="M116.775 75.0967C116.877 75.3741 100.685 85.7151 78.5895 86.1994C55.8895 86.6956 38.8734 76.5286 38.9679 76.2452C51.3607 82.0552 64.9031 84.9993 78.5895 84.8589C91.877 84.4244 104.909 81.0927 116.775 75.0967Z" fill="#405F52"/>
<path d="M105.336 61.6491C100.19 59.1456 94.6982 57.4272 89.043 56.5513C84.5133 55.8815 79.9236 55.7126 75.357 56.0475C71.2758 56.1637 67.2181 56.7095 63.2513 57.6758C58.6094 58.6554 54.1918 60.4947 50.2265 63.099C48.0481 64.5821 46.0509 66.3151 44.2756 68.2627C46.1441 69.1037 48.0536 69.8503 49.9971 70.4997C49.9971 70.4997 52.7109 71.3873 55.921 72.1655C56.8416 72.3889 57.6752 72.5613 58.9572 72.8342C60.2391 73.1071 60.536 73.1596 60.7444 73.1925C61.539 73.317 61.7669 73.3575 62.2242 73.4399C62.2782 73.4489 68.0027 74.4715 72.8486 74.8388C73.2384 74.8688 73.5623 74.8898 73.8171 74.9063C74.5353 74.9543 76.6824 75.0832 79.3797 75.0907C83.308 75.0997 86.4641 74.8448 87.2018 74.7908C90.9921 74.473 93.8244 73.9872 94.5696 73.8568C94.5696 73.8568 97.8531 73.281 101.524 72.2959C102.807 71.9511 103.735 71.6362 103.981 71.5463C104.41 71.3963 104.786 71.2614 105.206 71.0965C106.348 70.6602 107.746 70.1264 109.452 69.3257C111.02 68.5875 112.548 67.7682 114.031 66.8713C111.292 64.8783 108.382 63.1308 105.336 61.6491Z" fill="#67C7EE"/>
<path d="M106.233 66.2416C100.456 63.4176 94.3474 61.3301 88.0504 60.0283C79.9917 58.5959 71.7407 58.6284 63.6935 60.1243C63.6606 59.8469 74.8816 56.2125 88.3368 58.8798C98.8337 60.9549 106.336 66.0092 106.233 66.2416Z" fill="#DEF0F8"/>
<path d="M99.8728 66.6734C94.9566 64.5384 89.7982 63.0118 84.512 62.1274C79.9515 61.4846 75.34 61.2793 70.7405 61.5141C75.3259 60.5801 80.0455 60.512 84.6559 61.3132C90.0496 62.0062 95.2355 63.8329 99.8728 66.6734Z" fill="#DEF0F8"/>
<path d="M92.9308 66.9118C90.6322 65.994 88.2706 65.2424 85.8644 64.6628C82.6252 63.9845 79.3143 63.711 76.0077 63.8486C79.3285 63.2227 82.7464 63.3353 86.0188 64.1785C88.4615 64.6898 90.799 65.6141 92.9308 66.9118Z" fill="#DEF0F8"/>
<path d="M126.767 53.7311C126.674 50.4932 126.226 47.2752 125.431 44.1353C123.487 36.8844 108.361 10.7973 79.8251 9.96521C54.1578 9.21554 38.3442 31.1749 34.5913 37.2233C31.3717 43.1035 29.47 49.6138 29.0183 56.3024C28.9656 57.9964 29.0267 59.692 29.2012 61.3777C29.325 62.7317 29.5328 64.0767 29.8234 65.405C30.0843 67.1591 30.6733 68.8483 31.5597 70.3843C32.1916 71.3716 33.0262 72.2134 34.0081 72.8537C34.7111 73.4114 35.5197 73.8211 36.3852 74.0582C37.2508 74.2952 38.1553 74.3547 39.0444 74.2331C39.5098 74.1794 39.9573 74.0228 40.3546 73.7746C40.7519 73.5264 41.089 73.1929 41.3414 72.7982C41.5624 72.1802 41.5797 71.5076 41.3909 70.879C41.202 70.2503 40.8169 69.6987 40.2918 69.3048C39.8605 69.0112 39.3746 68.8073 38.863 68.705C37.7595 68.3871 37.3112 68.5206 36.1102 68.1503C35.6765 68.0537 35.2801 67.8334 34.9692 67.516C34.6887 67.1595 34.5174 66.7293 34.4759 66.2776C34.1041 64.4124 33.8762 62.8201 33.7382 61.6161C33.35 58.3037 33.3833 54.9555 33.8372 51.6515C33.8627 51.5315 33.8807 51.4446 33.8941 51.3846C34.9422 47.5423 36.5148 43.8628 38.5676 40.4499C55.2958 14.4213 79.93 15.2564 79.93 15.2564C102.975 16.0376 116.836 36.4646 120.336 45.0649C122.282 50.2302 122.789 55.8268 121.804 61.2578C121.294 64.6103 120.921 65.7438 120.004 66.534C119.041 67.2086 117.95 67.6804 116.799 67.9209C115.18 68.4246 114.428 68.3917 113.784 69.1413C113.312 69.728 113.081 70.4719 113.137 71.2224C113.187 71.6684 113.332 72.0985 113.563 72.4829C113.795 72.8673 114.107 73.1969 114.478 73.4489C115.13 73.8449 115.892 74.0214 116.652 73.9527C117.408 73.9034 118.151 73.7375 118.856 73.4609C119.554 73.2431 120.236 72.9761 120.897 72.6618C121.86 72.093 122.713 71.3544 123.414 70.4817C124.9 68.6121 125.174 66.6884 125.599 63.4018C126.381 57.3655 126.767 54.3503 126.767 53.7311Z" fill="#ECAE44"/>
<path d="M80.1099 8.00106C75.0111 7.96193 69.9624 9.00869 65.2994 11.0717C64.8766 11.2756 64.4253 11.5455 64.4253 11.5455C64.2217 11.6532 64.028 11.7786 63.8465 11.9203C63.0129 12.7825 65.3983 18.6044 66.9577 18.3285C67.0986 18.3046 67.1496 18.2446 67.8318 17.9912C67.8318 17.9912 68.4315 17.7693 69.1917 17.5414C70.9954 16.9745 72.8276 16.5026 74.6808 16.1275C77.7877 15.6563 80.9501 15.6872 84.0472 16.219C87.188 16.7153 90.2394 17.668 93.1047 19.0467C93.573 19.3022 94.0562 19.5295 94.5516 19.7274C94.6722 19.7841 94.7976 19.8297 94.9264 19.8639C96.2518 19.9763 97.9716 13.904 97.1679 13.2758C97.1514 13.2623 97.06 13.2098 96.8786 13.1033C96.3763 12.8035 96.0089 12.6025 95.9969 12.5965C91.0901 9.94799 85.6729 8.38102 80.1099 8.00106Z" fill="#D37F39"/>
<path d="M100.376 144.72L100.439 144.693C97.991 144.825 94.6505 144.938 90.6817 144.861C86.8253 144.861 82.973 144.605 79.1503 144.096C73.6162 143.308 70.0972 142.807 66.1585 140.627C63.2214 138.909 60.6191 136.674 58.4773 134.03C54.8789 129.757 53.0797 125.643 49.7212 115.654C46.5935 106.358 44.4105 98.8118 42.6877 92.8294C41.2319 87.7751 39.4821 81.6908 37.8269 75.9213C38.2197 79.2034 38.5555 81.8287 38.7445 83.2096C39.8225 91.1037 40.9395 97.3829 41.9396 103.179C43.3429 111.298 45.3221 123.121 47.6371 138.227C48.7758 139.5 50.0246 140.67 51.3689 141.723C54.5822 144.163 58.2764 145.894 62.2077 146.801C62.9874 147.005 64.1748 147.308 65.6937 147.6C74.1093 148.667 82.6259 148.667 91.0416 147.6C92.7898 147.263 94.5276 146.801 94.5276 146.801C96.1496 146.354 97.7454 145.816 99.3075 145.191C99.3989 145.154 99.9462 144.923 100.095 144.849C100.095 144.849 100.233 144.78 100.369 144.722L100.376 144.72Z" fill="#406957"/>
<path d="M66.3638 100.712C66.2265 101.455 65.9281 102.159 65.4897 102.775C65.0398 103.696 64.3224 104.461 63.4311 104.968C62.6191 105.277 61.7336 105.337 60.8871 105.142C60.0406 104.947 59.2713 104.504 58.6767 103.871C57.9179 103.063 57.4793 102.007 57.4427 100.899C57.4746 100.024 57.7204 99.1701 58.1588 98.4121C58.5971 97.654 59.2146 97.015 59.9571 96.551C60.5182 96.112 61.1754 95.8125 61.8748 95.6772C62.5741 95.5419 63.2956 95.5747 63.9799 95.7728C64.696 96.1468 65.2739 96.7399 65.6292 97.4655C66.2473 98.4279 66.5074 99.5769 66.3638 100.712Z" fill="#1D1D1B"/>
<path d="M99.9252 127.133C99.3978 127.674 98.758 128.092 98.051 128.358C97.1642 128.873 96.1426 129.109 95.1198 129.034C94.2734 128.838 93.5045 128.395 92.9105 127.761C92.3166 127.127 91.9244 126.331 91.7837 125.473C91.605 124.382 91.8288 123.263 92.4134 122.325C92.9264 121.616 93.6052 121.044 94.3903 120.658C95.1754 120.272 96.0431 120.085 96.9175 120.112C97.628 120.06 98.3407 120.178 98.9968 120.455C99.6529 120.733 100.234 121.162 100.691 121.708C101.076 122.417 101.225 123.23 101.116 124.029C101.094 125.171 100.673 126.27 99.9252 127.133Z" fill="#1D1D1B"/>
<path d="M83.5885 111.705C83.4517 112.448 83.1538 113.152 82.716 113.768C82.266 114.69 81.5486 115.454 80.6574 115.961C79.8454 116.27 78.9599 116.331 78.1135 116.135C77.267 115.94 76.4977 115.497 75.9031 114.864C75.1443 114.056 74.7057 113 74.6692 111.892C74.701 111.017 74.9469 110.163 75.3852 109.405C75.8235 108.647 76.441 108.008 77.1835 107.544C77.7445 107.105 78.4017 106.806 79.1011 106.671C79.8004 106.535 80.5219 106.568 81.2062 106.766C81.9223 107.14 82.5001 107.733 82.8554 108.459C83.4736 109.421 83.7332 110.57 83.5885 111.705Z" fill="#1D1D1B"/>
</svg>
