<?xml version="1.0" encoding="UTF-8" standalone="no"?>
<svg width="870" height="540" viewBox="0 0 870 540" fill="none" xmlns="http://www.w3.org/2000/svg">
<rect x="3" y="3" width="864" height="533.4" rx="77" fill="white" stroke="#844EA5" stroke-width="6"/>
<path d="M599.782 332L611.857 369.162H650.931L619.319 392.13L631.394 429.292L599.782 406.325L568.17 429.292L580.244 392.13L548.632 369.162H587.707L599.782 332Z" fill="#164E82"/>
<path d="M140.782 237L152.857 274.162H191.931L160.319 297.13L172.394 334.292L140.782 311.325L109.17 334.292L121.244 297.13L89.6323 274.162H128.707L140.782 237Z" fill="#164E82"/>
<path d="M319.782 82L331.857 119.162H370.931L339.319 142.13L351.394 179.292L319.782 156.325L288.17 179.292L300.244 142.13L268.632 119.162H307.707L319.782 82Z" fill="#164E82"/>
</svg>

