<?xml version="1.0" encoding="utf-8"?>
<!-- Generator: Adobe Illustrator 26.0.2, SVG Export Plug-In . SVG Version: 6.00 Build 0)  -->
<svg version="1.1" id="Ebene_1" xmlns="http://www.w3.org/2000/svg" xmlns:xlink="http://www.w3.org/1999/xlink" x="0px" y="0px"
	 viewBox="0 0 870 540" style="enable-background:new 0 0 870 540;" xml:space="preserve">
<style type="text/css">
	.st0{fill:#FFFFFF;stroke:#844EA5;stroke-width:6;}
	.st1{fill:#164E82;}
</style>
<path class="st0" d="M80,3h710c42.5,0,77,34.5,77,77v379.4c0,42.5-34.5,77-77,77H80c-42.5,0-77-34.5-77-77V80C3,37.5,37.5,3,80,3z"
	/>
<path class="st1" d="M180.8,65l12.1,37.2h39.1l-31.6,23l12.1,37.2l-31.6-23l-31.6,23l12.1-37.2l-31.6-23h39.1L180.8,65z"/>
<path class="st1" d="M565.8,270l12.1,37.2h39.1l-31.6,23l12.1,37.2l-31.6-23l-31.6,23l12.1-37.2l-31.6-23h39.1L565.8,270z"/>
<path class="st1" d="M295.8,357l12.1,37.2h39.1l-31.6,23l12.1,37.2l-31.6-23l-31.6,23l12.1-37.2l-31.6-23h39.1L295.8,357z"/>
</svg>
