<?xml version="1.0" encoding="UTF-8" standalone="no"?>
<svg width="870" height="540" viewBox="0 0 870 540" fill="none" xmlns="http://www.w3.org/2000/svg">
<rect x="3" y="3" width="864" height="533.4" rx="77" fill="white" stroke="#844EA5" stroke-width="6"/>
<path d="M276.782 224L288.857 261.162H327.931L296.319 284.13L308.394 321.292L276.782 298.325L245.17 321.292L257.244 284.13L225.632 261.162H264.707L276.782 224Z" fill="#164E82"/>
<path d="M222.782 332L234.857 369.162H273.931L242.319 392.13L254.394 429.292L222.782 406.325L191.17 429.292L203.244 392.13L171.632 369.162H210.707L222.782 332Z" fill="#164E82"/>
<path d="M149.782 124L161.857 161.162H200.931L169.319 184.13L181.394 221.292L149.782 198.325L118.17 221.292L130.244 184.13L98.6323 161.162H137.707L149.782 124Z" fill="#164E82"/>
<path d="M276.782 124L288.857 161.162H327.931L296.319 184.13L308.394 221.292L276.782 198.325L245.17 221.292L257.244 184.13L225.632 161.162H264.707L276.782 124Z" fill="#164E82"/>
<path d="M149.782 224L161.857 261.162H200.931L169.319 284.13L181.394 321.292L149.782 298.325L118.17 321.292L130.244 284.13L98.6323 261.162H137.707L149.782 224Z" fill="#164E82"/>
<circle cx="540.873" cy="277.873" r="45.8727" fill="#F2A74E"/>
<circle cx="534.873" cy="177.873" r="45.8727" fill="#F2A74E"/>
<circle cx="662.873" cy="277.873" r="45.8727" fill="#F2A74E"/>
<circle cx="662.873" cy="177.873" r="45.8727" fill="#F2A74E"/>
</svg>
