<svg viewBox="0 0 870 540" fill="none" xmlns="http://www.w3.org/2000/svg">
    <rect x="3" y="3" width="864" height="533.4" rx="77" fill="white" stroke="#844EA5" stroke-width="6"/>
    <path d="M331.868 294.834C331.868 283.82 332.009 283.259 331.939 276.664C331.939 268.737 331.656 263.686 331.868 257.513C331.868 256.882 331.868 256.461 331.939 255.619C332.151 247.341 331.868 245.728 331.656 244.886C331.374 243.623 330.809 242.501 329.749 240.256C327.7 235.836 325.369 232.329 324.663 231.347C321.201 226.717 312.3 224.472 304.035 224.542C300.22 224.542 296.547 225.033 293.509 225.945C290.472 225.033 286.798 224.542 282.984 224.542C274.719 224.472 265.818 226.717 262.356 231.347C261.65 232.329 259.319 235.836 257.27 240.256C256.21 242.431 255.716 243.553 255.363 244.816C255.151 245.728 254.868 247.341 255.08 255.549C255.08 256.391 255.08 256.812 255.151 257.443C255.363 263.616 255.151 268.737 255.08 276.594C255.08 283.188 255.221 283.75 255.151 294.763C255.151 296.166 255.151 297.499 255.151 298.902C255.08 304.094 254.727 308.373 255.433 313.634C255.575 314.757 255.786 315.879 256.564 317.072C256.917 317.563 257.27 317.983 257.623 318.334C258.895 319.878 260.59 320.93 261.791 321C261.932 321 262.356 321 262.921 321H263.063H263.698C264.264 321 264.687 321 264.829 321H322.261C322.402 321 322.826 321 323.391 321H324.027H324.168C324.733 321 325.157 321 325.298 321C326.499 320.93 328.195 319.878 329.466 318.334C329.89 317.983 330.243 317.563 330.526 317.072C331.303 315.879 331.515 314.757 331.656 313.634C332.363 308.373 332.009 304.094 331.939 298.902C331.797 297.569 331.868 296.166 331.868 294.834Z" fill="#C890A7"/>
    <path d="M325.722 233.872H261.155C258.4 233.872 256.14 231.627 256.14 228.891V223.981C256.069 221.245 258.33 219 261.155 219H325.722C328.477 219 330.738 221.245 330.738 223.981V228.891C330.738 231.627 328.477 233.872 325.722 233.872Z" fill="#8A8C95"/>
    <path d="M328.407 287.678C328.407 275.472 328.548 274.84 328.477 267.545C328.477 258.776 328.265 253.164 328.407 246.289C328.407 246.219 327.559 244.956 327.347 244.395C326.923 243.974 326.217 243.342 325.298 242.781C322.19 240.957 318.729 241.168 314.561 241.519C312.795 241.659 312.23 241.869 308.344 242.22C305.801 242.431 304.883 242.501 303.823 242.431C302.269 242.29 302.128 242.08 298.949 241.519C296.194 240.957 294.781 240.677 293.156 240.677C291.249 240.607 289.765 240.817 288.282 241.098C285.88 241.448 285.456 241.939 282.984 242.29C282.277 242.36 281.006 242.571 279.381 242.501C277.191 242.431 275.99 242.01 274.436 241.659C273.659 241.519 268.714 240.466 263.628 241.869C263.628 241.869 261.438 242.501 259.884 243.974C259.601 244.254 258.542 245.237 258.612 246.359C258.753 253.094 258.542 258.776 258.542 267.475C258.542 274.77 258.612 275.402 258.612 287.608C258.612 289.151 258.612 290.624 258.612 292.168C258.542 297.92 258.259 302.69 258.824 308.443C258.965 309.635 259.107 310.898 259.813 312.231C260.096 312.792 260.449 313.283 260.802 313.634C261.932 315.388 263.486 316.51 264.546 316.58C264.617 316.58 265.041 316.58 265.535 316.58H265.676H266.242C266.736 316.58 267.089 316.58 267.231 316.58H319.506C319.647 316.58 320 316.58 320.495 316.58H321.06H321.201C321.696 316.58 322.12 316.58 322.19 316.58C323.32 316.51 324.804 315.388 325.934 313.634C326.287 313.213 326.641 312.722 326.923 312.231C327.63 310.898 327.771 309.635 327.912 308.443C328.548 302.62 328.195 297.92 328.124 292.168C328.336 290.695 328.407 289.151 328.407 287.678Z" fill="#B44276"/>
    <path d="M322.755 294.202V263.055C320.212 263.055 318.164 261.371 318.164 259.337H268.714C268.714 261.371 266.665 263.055 264.122 263.055V294.272C266.665 294.272 268.714 295.956 268.714 297.99H318.164C318.164 295.886 320.212 294.202 322.755 294.202Z" fill="white"/>
    <path opacity="0.39" d="M266.524 308.373V258.565C266.524 256.391 268.361 254.567 270.551 254.567C272.741 254.567 274.577 256.391 274.577 258.565V308.443C274.577 310.618 272.741 312.442 270.551 312.442C268.29 312.371 266.524 310.618 266.524 308.373Z" fill="white"/>
    <path opacity="0.39" d="M266.524 246.99V242.15C266.524 239.975 268.361 238.151 270.551 238.151C272.741 238.151 274.577 239.975 274.577 242.15V246.99C274.577 249.165 272.741 250.989 270.551 250.989C268.29 250.989 266.524 249.165 266.524 246.99Z" fill="white"/>
    <path d="M301.009 287C305.98 287 310.009 282.971 310.009 278C310.009 273.029 305.98 269 301.009 269C296.039 269 292.009 273.029 292.009 278C292.009 282.971 296.039 287 301.009 287Z" fill="#B32646"/>
    <path d="M303.109 279.95C302.659 280.4 302.059 280.4 301.609 279.95L298.759 277.25C298.309 276.8 298.309 276.2 298.759 275.75C299.209 275.3 299.809 275.3 300.259 275.75L303.109 278.45C303.559 278.9 303.559 279.65 303.109 279.95Z" fill="#6C1626"/>
    <path d="M302.959 275.75C303.409 276.2 303.409 276.8 302.959 277.25L300.409 280.1C299.959 280.55 299.359 280.55 298.909 280.1C298.459 279.65 298.459 279.05 298.909 278.6L301.609 275.75C301.909 275.45 302.509 275.45 302.959 275.75Z" fill="#6C1626"/>
    <path d="M287.509 284C293.308 284 298.009 279.299 298.009 273.5C298.009 267.701 293.308 263 287.509 263C281.71 263 277.009 267.701 277.009 273.5C277.009 279.299 281.71 284 287.509 284Z" fill="#B32646"/>
    <path d="M289.959 275.775C289.434 276.3 288.734 276.3 288.209 275.775L284.884 272.625C284.359 272.1 284.359 271.4 284.884 270.875C285.409 270.35 286.109 270.35 286.634 270.875L289.959 274.025C290.484 274.55 290.484 275.425 289.959 275.775Z" fill="#6C1626"/>
    <path d="M289.784 270.875C290.309 271.4 290.309 272.1 289.784 272.625L286.809 275.95C286.284 276.475 285.584 276.475 285.059 275.95C284.534 275.425 284.534 274.725 285.059 274.2L288.209 270.875C288.559 270.525 289.259 270.525 289.784 270.875Z" fill="#6C1626"/>
    <path d="M283.309 268.6C283.834 268.25 284.709 267.55 285.409 267.025C285.584 266.85 285.934 266.675 285.934 266.325C285.934 266.325 286.109 265.625 285.759 265.275C285.409 264.925 284.709 264.925 284.534 264.925C284.359 264.925 284.009 265.1 283.659 265.275C283.134 265.625 282.959 265.8 282.784 265.975C282.084 266.5 281.734 266.85 281.209 267.2C280.509 267.9 280.159 268.425 279.984 268.6C279.634 269.125 279.284 269.65 278.759 270.7C278.409 271.225 278.234 271.75 278.234 272.45C278.234 272.8 278.409 272.975 278.409 273.15C278.759 273.5 279.109 273.5 279.284 273.5C279.634 273.5 279.984 273.325 279.984 273.325C280.334 273.15 280.334 272.8 280.684 272.275C280.859 271.75 280.859 271.75 281.034 271.225C281.034 271.05 281.209 270.875 281.559 270.35C282.084 269.65 282.609 269.125 283.309 268.6Z" fill="#C8637A"/>
    <path d="M292.009 294C296.428 294 300.009 290.418 300.009 286C300.009 281.582 296.428 278 292.009 278C287.591 278 284.009 281.582 284.009 286C284.009 290.418 287.591 294 292.009 294Z" fill="#761F36"/>
    <path d="M294.009 287.875C293.634 288.25 293.134 288.25 292.759 287.875L290.259 285.5C289.884 285.125 289.884 284.625 290.259 284.25C290.634 283.875 291.134 283.875 291.509 284.25L294.009 286.625C294.259 286.875 294.259 287.5 294.009 287.875Z" fill="#49131F"/>
    <path d="M293.759 284.125C294.134 284.5 294.134 285 293.759 285.375L291.384 287.875C291.009 288.25 290.509 288.25 290.134 287.875C289.759 287.5 289.759 287 290.134 286.625L292.509 284.125C292.884 283.75 293.384 283.75 293.759 284.125Z" fill="#49131F"/>
    <path d="M288.759 282.25C289.134 281.875 289.759 281.5 290.384 281C290.509 280.875 290.759 280.75 290.884 280.5C290.884 280.5 291.009 280 290.759 279.75C290.509 279.375 290.009 279.5 289.884 279.5C289.759 279.5 289.509 279.625 289.259 279.875C288.884 280.125 288.634 280.25 288.634 280.375C288.134 280.875 287.759 281 287.509 281.375C287.009 281.875 286.634 282.25 286.634 282.375C286.384 282.75 286.134 283.125 285.759 283.875C285.509 284.375 285.384 284.75 285.384 285.125C285.384 285.375 285.509 285.5 285.509 285.625C285.759 285.875 286.009 285.875 286.134 285.875C286.384 285.875 286.634 285.75 286.634 285.75C286.884 285.625 287.009 285.375 287.134 285C287.259 284.625 287.259 284.5 287.384 284.25C287.384 284.125 287.509 283.875 287.884 283.625C287.884 283.125 288.259 282.75 288.759 282.25Z" fill="#A05062"/>
</svg>
