<?xml version="1.0" encoding="UTF-8" standalone="no"?>
<svg viewBox="0 0 870 540" fill="none" xmlns="http://www.w3.org/2000/svg">
<rect x="3" y="3" width="864" height="533.4" rx="77" fill="white" stroke="#844EA5" stroke-width="6"/>
<path d="M353.239 276.147C354.055 275.064 351.88 273.033 350.656 269.377C350.044 267.549 349.908 266.195 349.704 263.487C349.432 260.103 348.956 253.197 351.948 245.209C352.491 243.652 354.599 238.371 359.495 232.888C362.555 229.435 370.103 220.905 382.07 219.619C394.786 218.265 404.305 225.983 408.385 229.368C410.425 230.992 421.576 240.47 423.82 255.77C425.384 266.602 421.78 276.215 421.508 276.553C421.508 276.553 421.372 276.756 421.372 276.959C421.372 277.23 421.644 277.433 421.78 277.501C422.256 277.839 424.024 278.381 425.792 277.433C425.928 277.366 426.744 276.892 427.424 275.944C428.172 274.861 428.308 273.778 428.376 273.439C429.124 267.617 430.552 263.961 430.484 259.087C430.348 252.52 427.356 237.017 414.233 225.576C410.697 222.462 401.653 214.542 388.054 214.068C369.627 213.391 357.659 226.727 355.347 229.435C352.831 232.279 345.624 240.538 344.264 253.536C342.972 265.925 348.072 275.809 348.208 276.012C348.208 276.012 348.344 276.215 348.412 276.486C348.48 276.689 348.48 276.756 348.48 276.756C348.684 277.23 350.588 276.959 350.588 276.959C352.151 276.553 353.035 276.418 353.239 276.147Z" fill="#AB6F26"/>
<path d="M347.732 279.058C347.868 280.277 347.46 291.785 350.792 302.82C352.695 309.319 354.667 311.35 355.483 312.162C356.503 313.11 358.203 314.397 362.147 315.886C365.343 317.037 369.083 317.917 381.934 318.594C387.918 318.865 390.978 319.068 395.33 318.865C400.837 318.661 404.237 318.526 408.589 317.375C412.669 316.292 417.361 315.006 420.693 310.944C421.916 309.455 422.46 308.236 423.548 305.799C423.548 305.799 427.968 295.576 427.492 279.261C427.492 278.246 427.356 276.959 427.356 276.959C427.356 276.689 427.288 276.553 427.288 276.485C426.812 275.199 386.354 284.474 359.971 278.923C356.367 278.178 347.664 278.043 347.664 278.516C347.732 278.787 347.732 278.855 347.732 279.058Z" fill="#AB6F26"/>
<path d="M368.471 276.824C364.799 276.282 362.487 275.944 362.487 275.944C357.455 275.199 357.591 275.199 356.639 275.064C354.123 274.793 352.967 274.861 350.52 274.387C349.16 274.116 348.48 273.981 347.936 273.845C345.828 273.236 344.808 272.491 343.176 272.762C342.7 272.83 342.292 272.965 341.952 273.236C341.408 273.642 341.136 274.319 341.136 274.996C341.204 275.741 341.68 276.35 342.292 276.892C345.216 279.261 348.684 279.667 348.684 279.667C355.075 280.412 361.399 281.427 367.791 282.037C372.551 282.511 372.075 282.578 375.61 282.917C383.498 283.594 386.014 283.12 408.589 282.172C413.417 281.969 418.109 280.818 422.936 280.547C422.936 280.547 424.704 280.412 430.144 278.584C430.552 278.449 431.844 277.975 432.524 276.892C432.864 276.282 432.932 275.809 432.932 275.673C432.932 275.538 432.932 274.861 432.524 274.319C432.048 273.71 431.232 273.642 430.688 273.574C427.764 273.371 425.52 274.116 425.52 274.116C423.072 274.928 420.421 274.861 417.905 275.402C411.173 276.824 399.613 277.298 394.99 277.501C384.314 277.839 373.707 277.569 368.471 276.824Z" fill="#CE8F31"/>
<path d="M419.265 284.339C418.109 284.88 416.817 284.948 415.593 285.354C412.397 286.369 406.277 287.046 405.189 287.182C397.03 288.062 388.394 287.656 379.35 287.182C374.999 286.979 372.143 286.708 366.499 286.166C361.807 285.692 360.787 285.489 359.835 285.286C358.611 284.948 357.319 284.948 356.095 284.542C355.687 284.406 354.531 283.932 353.579 284.339C353.035 284.542 352.899 284.812 352.831 284.948C352.831 284.948 352.696 285.354 352.831 285.896C353.307 287.656 357.931 288.062 357.931 288.062C364.323 288.603 370.647 289.89 377.038 289.957C386.49 290.093 391.59 290.634 400.497 290.499C401.857 290.499 404.985 290.431 409.065 289.822C411.105 289.551 412.669 289.28 414.709 288.671C418.245 287.588 421.916 285.828 421.916 285.828C421.916 285.828 422.256 285.354 422.256 284.948C422.256 284.542 421.916 284.068 421.645 283.932C421.033 283.458 420.217 283.932 419.265 284.339Z" fill="#CE8F31"/>
<path d="M396.146 307.491C402.469 307.491 403.421 307.965 409.949 307.491C411.717 307.356 414.029 307.153 416.681 306.814C417.157 306.611 417.429 306.273 417.429 305.867C417.429 305.325 416.817 305.054 416.613 304.919C415.865 304.513 414.981 304.648 414.845 304.648C411.309 305.054 407.637 304.309 404.101 304.58C401.245 304.783 397.166 305.054 391.794 305.122C390.842 305.528 390.774 305.867 390.774 306.002C390.842 306.544 392.27 306.882 393.154 307.085C394.854 307.491 396.146 307.491 396.146 307.491Z" fill="#CE8F31"/>
<path d="M374.387 304.039C373.163 304.039 371.191 303.971 368.607 303.903C368.403 303.971 367.519 304.174 367.451 304.716C367.383 305.325 368.471 305.867 368.811 306.07C370.375 306.882 371.735 306.814 375.679 306.814C376.358 306.814 377.038 306.814 377.786 306.814C379.758 306.814 382.546 306.814 386.218 306.814C386.558 306.611 387.034 306.273 386.966 305.934C386.898 305.46 385.742 305.257 385.13 305.122C378.33 304.106 374.387 304.039 374.387 304.039Z" fill="#CE8F31"/>
<path d="M411.105 297.81C410.629 297.81 409.609 297.81 407.569 297.946C406.481 298.014 404.985 298.081 403.081 298.217C403.013 298.217 402.197 298.352 401.789 297.946C401.517 297.607 401.585 297.066 401.721 296.795C402.129 295.712 404.577 295.712 408.045 295.712C409.405 295.712 411.853 295.712 415.321 295.712C415.389 295.712 415.933 295.576 416.205 295.915C416.477 296.253 416.273 296.863 416.001 297.133C415.661 297.607 415.049 297.607 414.165 297.675C412.397 297.743 411.445 297.81 411.105 297.81Z" fill="#CE8F31"/>
<path d="M384.246 295.915C379.894 296.05 375.542 295.509 371.191 295.373C368.607 295.306 364.731 295.103 359.971 294.899C359.903 294.899 359.291 295.035 359.087 295.509C358.815 295.983 359.019 296.727 359.631 297.133C363.439 297.337 366.499 297.675 368.675 297.878C374.387 298.487 376.222 298.961 380.642 299.029C383.702 299.097 386.082 298.961 387.442 298.826C389.618 298.623 391.59 298.352 393.086 298.149C393.222 298.149 393.698 298.149 393.97 297.81C393.97 297.81 394.174 297.472 393.902 296.863C393.29 295.441 386.694 295.779 384.246 295.915Z" fill="#CE8F31"/>
<path d="M390.502 312.366C390.026 312.366 389.006 312.366 386.966 312.23C385.878 312.162 384.382 312.095 382.478 311.959C382.41 311.959 381.594 311.824 381.186 312.23C380.914 312.569 380.982 313.11 381.118 313.381C381.526 314.464 383.974 314.464 387.442 314.464C388.802 314.464 391.25 314.464 394.718 314.464C394.786 314.464 395.33 314.6 395.602 314.261C395.874 313.923 395.67 313.313 395.398 313.043C395.058 312.569 394.446 312.569 393.562 312.501C391.726 312.433 390.842 312.366 390.502 312.366Z" fill="#CE8F31"/>
<path d="M165.103 276.104C165.919 275.021 163.744 272.99 162.52 269.334C161.908 267.507 161.772 266.153 161.568 263.445C161.296 260.06 160.82 253.154 163.812 245.166C164.355 243.609 166.463 238.329 171.359 232.845C174.419 229.392 181.967 220.862 193.934 219.576C206.65 218.222 216.169 225.94 220.249 229.325C222.289 230.949 233.44 240.427 235.684 255.727C237.248 266.559 233.644 276.172 233.372 276.51C233.372 276.51 233.236 276.713 233.236 276.917C233.236 277.187 233.508 277.39 233.644 277.458C234.12 277.797 235.888 278.338 237.656 277.39C237.792 277.323 238.608 276.849 239.288 275.901C240.036 274.818 240.172 273.735 240.24 273.396C240.988 267.574 242.416 263.919 242.348 259.044C242.212 252.477 239.22 236.975 226.097 225.534C222.561 222.419 213.517 214.499 199.918 214.025C181.491 213.348 169.523 226.684 167.211 229.392C164.695 232.236 157.488 240.495 156.128 253.493C154.836 265.882 159.936 275.766 160.072 275.969C160.072 275.969 160.208 276.172 160.276 276.443C160.344 276.646 160.344 276.713 160.344 276.713C160.548 277.187 162.452 276.917 162.452 276.917C164.016 276.51 164.899 276.375 165.103 276.104Z" fill="#AB6F26"/>
<path d="M159.596 279.015C159.732 280.234 159.324 291.742 162.656 302.777C164.559 309.276 166.531 311.307 167.347 312.12C168.367 313.067 170.067 314.354 174.011 315.843C177.207 316.994 180.947 317.874 193.798 318.551C199.782 318.822 202.842 319.025 207.194 318.822C212.701 318.619 216.101 318.483 220.453 317.332C224.533 316.249 229.225 314.963 232.557 310.901C233.78 309.412 234.324 308.193 235.412 305.756C235.412 305.756 239.832 295.534 239.356 279.218C239.356 278.203 239.22 276.917 239.22 276.917C239.22 276.646 239.152 276.51 239.152 276.443C238.676 275.156 198.218 284.431 171.835 278.88C168.231 278.135 159.528 278 159.528 278.474C159.596 278.744 159.596 278.812 159.596 279.015Z" fill="#AB6F26"/>
<path d="M180.335 276.781C176.663 276.24 174.351 275.901 174.351 275.901C169.319 275.156 169.455 275.156 168.503 275.021C165.987 274.75 164.831 274.818 162.384 274.344C161.024 274.073 160.344 273.938 159.8 273.802C157.692 273.193 156.672 272.448 155.04 272.719C154.564 272.787 154.156 272.922 153.816 273.193C153.272 273.599 153 274.276 153 274.953C153.068 275.698 153.544 276.307 154.156 276.849C157.08 279.218 160.548 279.624 160.548 279.624C166.939 280.369 173.263 281.385 179.655 281.994C184.415 282.468 183.939 282.536 187.475 282.874C195.362 283.551 197.878 283.077 220.453 282.129C225.281 281.926 229.973 280.775 234.8 280.505C234.8 280.505 236.568 280.369 242.008 278.541C242.416 278.406 243.708 277.932 244.388 276.849C244.728 276.24 244.796 275.766 244.796 275.63C244.796 275.495 244.796 274.818 244.388 274.276C243.912 273.667 243.096 273.599 242.552 273.532C239.628 273.329 237.384 274.073 237.384 274.073C234.936 274.886 232.285 274.818 229.769 275.359C223.037 276.781 211.477 277.255 206.854 277.458C196.178 277.797 185.571 277.526 180.335 276.781Z" fill="#CE8F31"/>
<path d="M231.129 284.296C229.973 284.837 228.681 284.905 227.457 285.311C224.261 286.327 218.141 287.004 217.053 287.139C208.894 288.019 200.258 287.613 191.214 287.139C186.863 286.936 184.007 286.665 178.363 286.124C173.671 285.65 172.651 285.447 171.699 285.243C170.475 284.905 169.183 284.905 167.959 284.499C167.551 284.363 166.395 283.889 165.443 284.296C164.9 284.499 164.764 284.77 164.696 284.905C164.696 284.905 164.56 285.311 164.696 285.853C165.171 287.613 169.795 288.019 169.795 288.019C176.187 288.561 182.511 289.847 188.902 289.915C198.354 290.05 203.454 290.592 212.361 290.456C213.721 290.456 216.849 290.389 220.929 289.779C222.969 289.508 224.533 289.238 226.573 288.628C230.109 287.545 233.781 285.785 233.781 285.785C233.781 285.785 234.12 285.311 234.12 284.905C234.12 284.499 233.781 284.025 233.509 283.889C232.897 283.416 232.081 283.889 231.129 284.296Z" fill="#CE8F31"/>
<path d="M208.01 307.448C214.333 307.448 215.285 307.922 221.813 307.448C223.581 307.313 225.893 307.11 228.545 306.772C229.021 306.568 229.293 306.23 229.293 305.824C229.293 305.282 228.681 305.011 228.477 304.876C227.729 304.47 226.845 304.605 226.709 304.605C223.173 305.011 219.501 304.267 215.965 304.537C213.109 304.741 209.03 305.011 203.658 305.079C202.706 305.485 202.638 305.824 202.638 305.959C202.706 306.501 204.134 306.839 205.018 307.042C206.718 307.448 208.01 307.448 208.01 307.448Z" fill="#CE8F31"/>
<path d="M186.251 303.996C185.027 303.996 183.055 303.928 180.471 303.86C180.267 303.928 179.383 304.131 179.315 304.673C179.247 305.282 180.335 305.824 180.675 306.027C182.239 306.839 183.599 306.771 187.543 306.771C188.222 306.771 188.902 306.771 189.65 306.771C191.622 306.771 194.41 306.771 198.082 306.771C198.422 306.568 198.898 306.23 198.83 305.891C198.762 305.418 197.606 305.214 196.994 305.079C190.194 304.064 186.251 303.996 186.251 303.996Z" fill="#CE8F31"/>
<path d="M222.969 297.768C222.493 297.768 221.473 297.768 219.433 297.903C218.345 297.971 216.849 298.038 214.945 298.174C214.877 298.174 214.061 298.309 213.653 297.903C213.381 297.565 213.449 297.023 213.585 296.752C213.993 295.669 216.441 295.669 219.909 295.669C221.269 295.669 223.717 295.669 227.185 295.669C227.253 295.669 227.797 295.534 228.069 295.872C228.341 296.211 228.137 296.82 227.865 297.091C227.525 297.565 226.913 297.565 226.029 297.632C224.261 297.7 223.309 297.768 222.969 297.768Z" fill="#CE8F31"/>
<path d="M196.11 295.872C191.758 296.007 187.406 295.466 183.055 295.33C180.471 295.263 176.595 295.06 171.835 294.857C171.767 294.857 171.155 294.992 170.951 295.466C170.679 295.94 170.883 296.684 171.495 297.091C175.303 297.294 178.363 297.632 180.539 297.835C186.251 298.445 188.086 298.918 192.506 298.986C195.566 299.054 197.946 298.918 199.306 298.783C201.482 298.58 203.454 298.309 204.95 298.106C205.086 298.106 205.562 298.106 205.834 297.768C205.834 297.768 206.038 297.429 205.766 296.82C205.154 295.398 198.558 295.737 196.11 295.872Z" fill="#CE8F31"/>
<path d="M202.366 312.323C201.89 312.323 200.87 312.323 198.83 312.187C197.742 312.12 196.246 312.052 194.342 311.917C194.274 311.917 193.458 311.781 193.05 312.187C192.778 312.526 192.846 313.067 192.982 313.338C193.39 314.421 195.838 314.421 199.306 314.421C200.666 314.421 203.114 314.421 206.582 314.421C206.65 314.421 207.194 314.557 207.466 314.218C207.738 313.88 207.534 313.271 207.262 313C206.922 312.526 206.31 312.526 205.426 312.458C203.59 312.39 202.706 312.323 202.366 312.323Z" fill="#CE8F31"/>
<path d="M648.859 291.834C648.859 280.82 649 280.259 648.929 273.664C648.929 265.737 648.647 260.686 648.859 254.513C648.859 253.882 648.859 253.461 648.929 252.619C649.141 244.341 648.859 242.728 648.647 241.886C648.364 240.623 647.799 239.501 646.739 237.256C644.691 232.836 642.36 229.329 641.653 228.347C638.192 223.717 629.291 221.472 621.026 221.542C617.211 221.542 613.538 222.033 610.5 222.945C607.462 222.033 603.789 221.542 599.974 221.542C591.709 221.472 582.808 223.717 579.347 228.347C578.64 229.329 576.309 232.836 574.261 237.256C573.201 239.431 572.706 240.553 572.353 241.816C572.141 242.728 571.859 244.341 572.071 252.549C572.071 253.391 572.071 253.812 572.141 254.443C572.353 260.616 572.141 265.737 572.071 273.594C572.071 280.188 572.212 280.75 572.141 291.763C572.141 293.166 572.141 294.499 572.141 295.902C572.071 301.094 571.717 305.373 572.424 310.634C572.565 311.757 572.777 312.879 573.554 314.072C573.907 314.563 574.261 314.983 574.614 315.334C575.885 316.878 577.581 317.93 578.782 318C578.923 318 579.347 318 579.912 318H580.053H580.689C581.254 318 581.678 318 581.819 318H639.251C639.393 318 639.817 318 640.382 318H641.017H641.159C641.724 318 642.148 318 642.289 318C643.49 317.93 645.185 316.878 646.457 315.334C646.881 314.983 647.234 314.563 647.517 314.072C648.294 312.879 648.506 311.757 648.647 310.634C649.353 305.373 649 301.094 648.929 295.902C648.788 294.569 648.859 293.166 648.859 291.834Z" fill="#C890A7"/>
<path d="M642.713 230.872H578.146C575.391 230.872 573.13 228.627 573.13 225.891V220.981C573.06 218.245 575.32 216 578.146 216H642.713C645.468 216 647.728 218.245 647.728 220.981V225.891C647.728 228.627 645.468 230.872 642.713 230.872Z" fill="#8A8C95"/>
<path d="M645.397 284.678C645.397 272.472 645.539 271.84 645.468 264.545C645.468 255.776 645.256 250.164 645.397 243.289C645.397 243.219 644.55 241.956 644.338 241.395C643.914 240.974 643.207 240.342 642.289 239.781C639.181 237.957 635.719 238.168 631.551 238.519C629.785 238.659 629.22 238.869 625.335 239.22C622.792 239.431 621.873 239.501 620.814 239.431C619.26 239.29 619.118 239.08 615.939 238.519C613.184 237.957 611.772 237.677 610.147 237.677C608.239 237.607 606.756 237.817 605.273 238.098C602.871 238.448 602.447 238.939 599.974 239.29C599.268 239.36 597.996 239.571 596.372 239.501C594.182 239.431 592.981 239.01 591.427 238.659C590.65 238.519 585.705 237.466 580.618 238.869C580.618 238.869 578.428 239.501 576.874 240.974C576.592 241.254 575.532 242.237 575.603 243.359C575.744 250.094 575.532 255.776 575.532 264.475C575.532 271.77 575.603 272.402 575.603 284.608C575.603 286.151 575.603 287.624 575.603 289.168C575.532 294.92 575.25 299.69 575.815 305.443C575.956 306.635 576.097 307.898 576.804 309.231C577.086 309.792 577.439 310.283 577.793 310.634C578.923 312.388 580.477 313.51 581.537 313.58C581.607 313.58 582.031 313.58 582.526 313.58H582.667H583.232C583.727 313.58 584.08 313.58 584.221 313.58H636.496C636.638 313.58 636.991 313.58 637.485 313.58H638.05H638.192C638.686 313.58 639.11 313.58 639.181 313.58C640.311 313.51 641.795 312.388 642.925 310.634C643.278 310.213 643.631 309.722 643.914 309.231C644.62 307.898 644.761 306.635 644.903 305.443C645.539 299.62 645.185 294.92 645.115 289.168C645.327 287.695 645.397 286.151 645.397 284.678Z" fill="#B44276"/>
<path d="M639.746 291.202V260.055C637.203 260.055 635.154 258.371 635.154 256.337H585.705C585.705 258.371 583.656 260.055 581.113 260.055V291.272C583.656 291.272 585.705 292.956 585.705 294.99H635.154C635.154 292.886 637.203 291.202 639.746 291.202Z" fill="white"/>
<path opacity="0.39" d="M583.515 305.373V255.565C583.515 253.391 585.351 251.567 587.541 251.567C589.731 251.567 591.568 253.391 591.568 255.565V305.443C591.568 307.618 589.731 309.442 587.541 309.442C585.281 309.371 583.515 307.618 583.515 305.373Z" fill="white"/>
<path opacity="0.39" d="M583.515 243.99V239.15C583.515 236.975 585.351 235.151 587.541 235.151C589.731 235.151 591.568 236.975 591.568 239.15V243.99C591.568 246.165 589.731 247.989 587.541 247.989C585.281 247.989 583.515 246.165 583.515 243.99Z" fill="white"/>
</svg>
