<svg viewBox="0 0 870 540" fill="none" xmlns="http://www.w3.org/2000/svg">
    <rect x="3" y="3" width="864" height="533.4" rx="77" fill="white" stroke="#844EA5" stroke-width="6"/>
    <path d="M445.868 254.834C445.868 243.82 446.009 243.259 445.939 236.664C445.939 228.737 445.656 223.686 445.868 217.513C445.868 216.882 445.868 216.461 445.939 215.619C446.151 207.341 445.868 205.728 445.656 204.886C445.374 203.623 444.809 202.501 443.749 200.256C441.7 195.836 439.369 192.329 438.663 191.347C435.201 186.717 426.3 184.472 418.035 184.542C414.22 184.542 410.547 185.033 407.509 185.945C404.472 185.033 400.798 184.542 396.984 184.542C388.719 184.472 379.818 186.717 376.356 191.347C375.65 192.329 373.319 195.836 371.27 200.256C370.21 202.431 369.716 203.553 369.363 204.816C369.151 205.728 368.868 207.341 369.08 215.549C369.08 216.391 369.08 216.812 369.151 217.443C369.363 223.616 369.151 228.737 369.08 236.594C369.08 243.188 369.221 243.75 369.151 254.763C369.151 256.166 369.151 257.499 369.151 258.902C369.08 264.094 368.727 268.373 369.433 273.634C369.575 274.757 369.786 275.879 370.564 277.072C370.917 277.563 371.27 277.983 371.623 278.334C372.895 279.878 374.59 280.93 375.791 281C375.932 281 376.356 281 376.921 281H377.063H377.698C378.264 281 378.687 281 378.829 281H436.261C436.402 281 436.826 281 437.391 281H438.027H438.168C438.733 281 439.157 281 439.298 281C440.499 280.93 442.195 279.878 443.466 278.334C443.89 277.983 444.243 277.563 444.526 277.072C445.303 275.879 445.515 274.757 445.656 273.634C446.363 268.373 446.009 264.094 445.939 258.902C445.797 257.569 445.868 256.166 445.868 254.834Z" fill="#C890A7"/>
    <path d="M439.722 193.872H375.155C372.4 193.872 370.14 191.627 370.14 188.891V183.981C370.069 181.245 372.33 179 375.155 179H439.722C442.477 179 444.738 181.245 444.738 183.981V188.891C444.738 191.627 442.477 193.872 439.722 193.872Z" fill="#8A8C95"/>
    <path d="M442.407 247.678C442.407 235.472 442.548 234.84 442.477 227.545C442.477 218.776 442.265 213.164 442.407 206.289C442.407 206.219 441.559 204.956 441.347 204.395C440.923 203.974 440.217 203.342 439.298 202.781C436.19 200.957 432.729 201.168 428.561 201.519C426.795 201.659 426.23 201.869 422.344 202.22C419.801 202.431 418.883 202.501 417.823 202.431C416.269 202.29 416.128 202.08 412.949 201.519C410.194 200.957 408.781 200.677 407.156 200.677C405.249 200.607 403.765 200.817 402.282 201.098C399.88 201.448 399.456 201.939 396.984 202.29C396.277 202.36 395.006 202.571 393.381 202.501C391.191 202.431 389.99 202.01 388.436 201.659C387.659 201.519 382.714 200.466 377.628 201.869C377.628 201.869 375.438 202.501 373.884 203.974C373.601 204.254 372.542 205.237 372.612 206.359C372.753 213.094 372.542 218.776 372.542 227.475C372.542 234.77 372.612 235.402 372.612 247.608C372.612 249.151 372.612 250.624 372.612 252.168C372.542 257.92 372.259 262.69 372.824 268.443C372.965 269.635 373.107 270.898 373.813 272.231C374.096 272.792 374.449 273.283 374.802 273.634C375.932 275.388 377.486 276.51 378.546 276.58C378.617 276.58 379.041 276.58 379.535 276.58H379.676H380.242C380.736 276.58 381.089 276.58 381.231 276.58H433.506C433.647 276.58 434 276.58 434.495 276.58H435.06H435.201C435.696 276.58 436.12 276.58 436.19 276.58C437.32 276.51 438.804 275.388 439.934 273.634C440.287 273.213 440.641 272.722 440.923 272.231C441.63 270.898 441.771 269.635 441.912 268.443C442.548 262.62 442.195 257.92 442.124 252.168C442.336 250.695 442.407 249.151 442.407 247.678Z" fill="#B44276"/>
    <path d="M436.755 254.202V223.055C434.212 223.055 432.164 221.371 432.164 219.337H382.714C382.714 221.371 380.665 223.055 378.122 223.055V254.272C380.665 254.272 382.714 255.956 382.714 257.99H432.164C432.164 255.886 434.212 254.202 436.755 254.202Z" fill="white"/>
    <path opacity="0.39" d="M380.524 268.373V218.565C380.524 216.391 382.361 214.567 384.551 214.567C386.74 214.567 388.577 216.391 388.577 218.565V268.443C388.577 270.618 386.74 272.442 384.551 272.442C382.29 272.371 380.524 270.618 380.524 268.373Z" fill="white"/>
    <path opacity="0.39" d="M380.524 206.99V202.15C380.524 199.975 382.361 198.151 384.551 198.151C386.74 198.151 388.577 199.975 388.577 202.15V206.99C388.577 209.165 386.74 210.989 384.551 210.989C382.29 210.989 380.524 209.165 380.524 206.99Z" fill="white"/>
    <path d="M415 247C419.971 247 424 242.971 424 238C424 233.029 419.971 229 415 229C410.029 229 406 233.029 406 238C406 242.971 410.029 247 415 247Z" fill="#B32646"/>
    <path d="M417.1 239.95C416.65 240.4 416.05 240.4 415.6 239.95L412.75 237.25C412.3 236.8 412.3 236.2 412.75 235.75C413.2 235.3 413.8 235.3 414.25 235.75L417.1 238.45C417.55 238.9 417.55 239.65 417.1 239.95Z" fill="#6C1626"/>
    <path d="M416.95 235.75C417.4 236.2 417.4 236.8 416.95 237.25L414.4 240.1C413.95 240.55 413.35 240.55 412.9 240.1C412.45 239.65 412.45 239.05 412.9 238.6L415.6 235.75C415.9 235.45 416.5 235.45 416.95 235.75Z" fill="#6C1626"/>
    <path d="M401.5 244C407.299 244 412 239.299 412 233.5C412 227.701 407.299 223 401.5 223C395.701 223 391 227.701 391 233.5C391 239.299 395.701 244 401.5 244Z" fill="#B32646"/>
    <path d="M403.95 235.775C403.425 236.3 402.725 236.3 402.2 235.775L398.875 232.625C398.35 232.1 398.35 231.4 398.875 230.875C399.4 230.35 400.1 230.35 400.625 230.875L403.95 234.025C404.475 234.55 404.475 235.425 403.95 235.775Z" fill="#6C1626"/>
    <path d="M403.775 230.875C404.3 231.4 404.3 232.1 403.775 232.625L400.8 235.95C400.275 236.475 399.575 236.475 399.05 235.95C398.525 235.425 398.525 234.725 399.05 234.2L402.2 230.875C402.55 230.525 403.25 230.525 403.775 230.875Z" fill="#6C1626"/>
    <path d="M397.3 228.6C397.825 228.25 398.7 227.55 399.4 227.025C399.575 226.85 399.925 226.675 399.925 226.325C399.925 226.325 400.1 225.625 399.75 225.275C399.4 224.925 398.7 224.925 398.525 224.925C398.35 224.925 398 225.1 397.65 225.275C397.125 225.625 396.95 225.8 396.775 225.975C396.075 226.5 395.725 226.85 395.2 227.2C394.5 227.9 394.15 228.425 393.975 228.6C393.625 229.125 393.275 229.65 392.75 230.7C392.4 231.225 392.225 231.75 392.225 232.45C392.225 232.8 392.4 232.975 392.4 233.15C392.75 233.5 393.1 233.5 393.275 233.5C393.625 233.5 393.975 233.325 393.975 233.325C394.325 233.15 394.325 232.8 394.675 232.275C394.85 231.75 394.85 231.75 395.025 231.225C395.025 231.05 395.2 230.875 395.55 230.35C396.075 229.65 396.6 229.125 397.3 228.6Z" fill="#C8637A"/>
    <path d="M406 254C410.418 254 414 250.418 414 246C414 241.582 410.418 238 406 238C401.582 238 398 241.582 398 246C398 250.418 401.582 254 406 254Z" fill="#761F36"/>
    <path d="M408 247.875C407.625 248.25 407.125 248.25 406.75 247.875L404.25 245.5C403.875 245.125 403.875 244.625 404.25 244.25C404.625 243.875 405.125 243.875 405.5 244.25L408 246.625C408.25 246.875 408.25 247.5 408 247.875Z" fill="#49131F"/>
    <path d="M407.75 244.125C408.125 244.5 408.125 245 407.75 245.375L405.375 247.875C405 248.25 404.5 248.25 404.125 247.875C403.75 247.5 403.75 247 404.125 246.625L406.5 244.125C406.875 243.75 407.375 243.75 407.75 244.125Z" fill="#49131F"/>
    <path d="M402.75 242.25C403.125 241.875 403.75 241.5 404.375 241C404.5 240.875 404.75 240.75 404.875 240.5C404.875 240.5 405 240 404.75 239.75C404.5 239.375 404 239.5 403.875 239.5C403.75 239.5 403.5 239.625 403.25 239.875C402.875 240.125 402.625 240.25 402.625 240.375C402.125 240.875 401.75 241 401.5 241.375C401 241.875 400.625 242.25 400.625 242.375C400.375 242.75 400.125 243.125 399.75 243.875C399.5 244.375 399.375 244.75 399.375 245.125C399.375 245.375 399.5 245.5 399.5 245.625C399.75 245.875 400 245.875 400.125 245.875C400.375 245.875 400.625 245.75 400.625 245.75C400.875 245.625 401 245.375 401.125 245C401.25 244.625 401.25 244.5 401.375 244.25C401.375 244.125 401.5 243.875 401.875 243.625C401.875 243.125 402.25 242.75 402.75 242.25Z" fill="#A05062"/>
    <path d="M165.868 254.834C165.868 243.82 166.009 243.259 165.939 236.664C165.939 228.737 165.656 223.686 165.868 217.513C165.868 216.882 165.868 216.461 165.939 215.619C166.151 207.341 165.868 205.728 165.656 204.886C165.374 203.623 164.809 202.501 163.749 200.256C161.7 195.836 159.369 192.329 158.663 191.347C155.201 186.717 146.3 184.472 138.035 184.542C134.22 184.542 130.547 185.033 127.509 185.945C124.472 185.033 120.798 184.542 116.984 184.542C108.719 184.472 99.8177 186.717 96.3562 191.347C95.6498 192.329 93.3186 195.836 91.27 200.256C90.2103 202.431 89.7158 203.553 89.3626 204.816C89.1507 205.728 88.8681 207.341 89.0801 215.549C89.0801 216.391 89.0801 216.812 89.1507 217.443C89.3626 223.616 89.1507 228.737 89.0801 236.594C89.0801 243.188 89.2213 243.75 89.1507 254.763C89.1507 256.166 89.1507 257.499 89.1507 258.902C89.0801 264.094 88.7268 268.373 89.4333 273.634C89.5746 274.757 89.7865 275.879 90.5635 277.072C90.9168 277.563 91.27 277.983 91.6232 278.334C92.8947 279.878 94.5902 280.93 95.7911 281C95.9324 281 96.3562 281 96.9213 281H97.0626H97.6984C98.2635 281 98.6874 281 98.8287 281H156.261C156.402 281 156.826 281 157.391 281H158.027H158.168C158.733 281 159.157 281 159.298 281C160.499 280.93 162.195 279.878 163.466 278.334C163.89 277.983 164.243 277.563 164.526 277.072C165.303 275.879 165.515 274.757 165.656 273.634C166.363 268.373 166.009 264.094 165.939 258.902C165.797 257.569 165.868 256.166 165.868 254.834Z" fill="#C890A7"/>
    <path d="M159.722 193.872H95.1554C92.4003 193.872 90.1398 191.627 90.1398 188.891V183.981C90.0692 181.245 92.3297 179 95.1554 179H159.722C162.477 179 164.738 181.245 164.738 183.981V188.891C164.738 191.627 162.477 193.872 159.722 193.872Z" fill="#8A8C95"/>
    <path d="M162.407 247.678C162.407 235.472 162.548 234.84 162.477 227.545C162.477 218.776 162.265 213.164 162.407 206.289C162.407 206.219 161.559 204.956 161.347 204.395C160.923 203.974 160.217 203.342 159.298 202.781C156.19 200.957 152.729 201.168 148.561 201.519C146.795 201.659 146.23 201.869 142.344 202.22C139.801 202.431 138.883 202.501 137.823 202.431C136.269 202.29 136.128 202.08 132.949 201.519C130.194 200.957 128.781 200.677 127.156 200.677C125.249 200.607 123.765 200.817 122.282 201.098C119.88 201.448 119.456 201.939 116.984 202.29C116.277 202.36 115.006 202.571 113.381 202.501C111.191 202.431 109.99 202.01 108.436 201.659C107.659 201.519 102.714 200.466 97.6278 201.869C97.6278 201.869 95.4379 202.501 93.8837 203.974C93.6012 204.254 92.5415 205.237 92.6122 206.359C92.7535 213.094 92.5415 218.776 92.5415 227.475C92.5415 234.77 92.6122 235.402 92.6122 247.608C92.6122 249.151 92.6122 250.624 92.6122 252.168C92.5415 257.92 92.259 262.69 92.8241 268.443C92.9654 269.635 93.1067 270.898 93.8131 272.231C94.0957 272.792 94.4489 273.283 94.8021 273.634C95.9324 275.388 97.4865 276.51 98.5461 276.58C98.6168 276.58 99.0406 276.58 99.5351 276.58H99.6764H100.242C100.736 276.58 101.089 276.58 101.231 276.58H153.506C153.647 276.58 154 276.58 154.495 276.58H155.06H155.201C155.696 276.58 156.12 276.58 156.19 276.58C157.32 276.51 158.804 275.388 159.934 273.634C160.287 273.213 160.641 272.722 160.923 272.231C161.63 270.898 161.771 269.635 161.912 268.443C162.548 262.62 162.195 257.92 162.124 252.168C162.336 250.695 162.407 249.151 162.407 247.678Z" fill="#B44276"/>
    <path d="M156.755 254.202V223.055C154.212 223.055 152.164 221.371 152.164 219.337H102.714C102.714 221.371 100.665 223.055 98.1223 223.055V254.272C100.665 254.272 102.714 255.956 102.714 257.99H152.164C152.164 255.886 154.212 254.202 156.755 254.202Z" fill="white"/>
    <path opacity="0.39" d="M100.524 268.373V218.565C100.524 216.391 102.361 214.567 104.551 214.567C106.74 214.567 108.577 216.391 108.577 218.565V268.443C108.577 270.618 106.74 272.442 104.551 272.442C102.29 272.371 100.524 270.618 100.524 268.373Z" fill="white"/>
    <path opacity="0.39" d="M100.524 206.99V202.15C100.524 199.975 102.361 198.151 104.551 198.151C106.74 198.151 108.577 199.975 108.577 202.15V206.99C108.577 209.165 106.74 210.989 104.551 210.989C102.29 210.989 100.524 209.165 100.524 206.99Z" fill="white"/>
    <path d="M135 247C139.971 247 144 242.971 144 238C144 233.029 139.971 229 135 229C130.029 229 126 233.029 126 238C126 242.971 130.029 247 135 247Z" fill="#B32646"/>
    <path d="M137.1 239.95C136.65 240.4 136.05 240.4 135.6 239.95L132.75 237.25C132.3 236.8 132.3 236.2 132.75 235.75C133.2 235.3 133.8 235.3 134.25 235.75L137.1 238.45C137.55 238.9 137.55 239.65 137.1 239.95Z" fill="#6C1626"/>
    <path d="M136.95 235.75C137.4 236.2 137.4 236.8 136.95 237.25L134.4 240.1C133.95 240.55 133.35 240.55 132.9 240.1C132.45 239.65 132.45 239.05 132.9 238.6L135.6 235.75C135.9 235.45 136.5 235.45 136.95 235.75Z" fill="#6C1626"/>
    <path d="M121.5 244C127.299 244 132 239.299 132 233.5C132 227.701 127.299 223 121.5 223C115.701 223 111 227.701 111 233.5C111 239.299 115.701 244 121.5 244Z" fill="#B32646"/>
    <path d="M123.95 235.775C123.425 236.3 122.725 236.3 122.2 235.775L118.875 232.625C118.35 232.1 118.35 231.4 118.875 230.875C119.4 230.35 120.1 230.35 120.625 230.875L123.95 234.025C124.475 234.55 124.475 235.425 123.95 235.775Z" fill="#6C1626"/>
    <path d="M123.775 230.875C124.3 231.4 124.3 232.1 123.775 232.625L120.8 235.95C120.275 236.475 119.575 236.475 119.05 235.95C118.525 235.425 118.525 234.725 119.05 234.2L122.2 230.875C122.55 230.525 123.25 230.525 123.775 230.875Z" fill="#6C1626"/>
    <path d="M117.3 228.6C117.825 228.25 118.7 227.55 119.4 227.025C119.575 226.85 119.925 226.675 119.925 226.325C119.925 226.325 120.1 225.625 119.75 225.275C119.4 224.925 118.7 224.925 118.525 224.925C118.35 224.925 118 225.1 117.65 225.275C117.125 225.625 116.95 225.8 116.775 225.975C116.075 226.5 115.725 226.85 115.2 227.2C114.5 227.9 114.15 228.425 113.975 228.6C113.625 229.125 113.275 229.65 112.75 230.7C112.4 231.225 112.225 231.75 112.225 232.45C112.225 232.8 112.4 232.975 112.4 233.15C112.75 233.5 113.1 233.5 113.275 233.5C113.625 233.5 113.975 233.325 113.975 233.325C114.325 233.15 114.325 232.8 114.675 232.275C114.85 231.75 114.85 231.75 115.025 231.225C115.025 231.05 115.2 230.875 115.55 230.35C116.075 229.65 116.6 229.125 117.3 228.6Z" fill="#C8637A"/>
    <path d="M126 254C130.418 254 134 250.418 134 246C134 241.582 130.418 238 126 238C121.582 238 118 241.582 118 246C118 250.418 121.582 254 126 254Z" fill="#761F36"/>
    <path d="M128 247.875C127.625 248.25 127.125 248.25 126.75 247.875L124.25 245.5C123.875 245.125 123.875 244.625 124.25 244.25C124.625 243.875 125.125 243.875 125.5 244.25L128 246.625C128.25 246.875 128.25 247.5 128 247.875Z" fill="#49131F"/>
    <path d="M127.75 244.125C128.125 244.5 128.125 245 127.75 245.375L125.375 247.875C125 248.25 124.5 248.25 124.125 247.875C123.75 247.5 123.75 247 124.125 246.625L126.5 244.125C126.875 243.75 127.375 243.75 127.75 244.125Z" fill="#49131F"/>
    <path d="M122.75 242.25C123.125 241.875 123.75 241.5 124.375 241C124.5 240.875 124.75 240.75 124.875 240.5C124.875 240.5 125 240 124.75 239.75C124.5 239.375 124 239.5 123.875 239.5C123.75 239.5 123.5 239.625 123.25 239.875C122.875 240.125 122.625 240.25 122.625 240.375C122.125 240.875 121.75 241 121.5 241.375C121 241.875 120.625 242.25 120.625 242.375C120.375 242.75 120.125 243.125 119.75 243.875C119.5 244.375 119.375 244.75 119.375 245.125C119.375 245.375 119.5 245.5 119.5 245.625C119.75 245.875 120 245.875 120.125 245.875C120.375 245.875 120.625 245.75 120.625 245.75C120.875 245.625 121 245.375 121.125 245C121.25 244.625 121.25 244.5 121.375 244.25C121.375 244.125 121.5 243.875 121.875 243.625C121.875 243.125 122.25 242.75 122.75 242.25Z" fill="#A05062"/>
    <path d="M305.868 254.834C305.868 243.82 306.009 243.259 305.939 236.664C305.939 228.737 305.656 223.686 305.868 217.513C305.868 216.882 305.868 216.461 305.939 215.619C306.151 207.341 305.868 205.728 305.656 204.886C305.374 203.623 304.809 202.501 303.749 200.256C301.7 195.836 299.369 192.329 298.663 191.347C295.201 186.717 286.3 184.472 278.035 184.542C274.22 184.542 270.547 185.033 267.509 185.945C264.472 185.033 260.798 184.542 256.984 184.542C248.719 184.472 239.818 186.717 236.356 191.347C235.65 192.329 233.319 195.836 231.27 200.256C230.21 202.431 229.716 203.553 229.363 204.816C229.151 205.728 228.868 207.341 229.08 215.549C229.08 216.391 229.08 216.812 229.151 217.443C229.363 223.616 229.151 228.737 229.08 236.594C229.08 243.188 229.221 243.75 229.151 254.763C229.151 256.166 229.151 257.499 229.151 258.902C229.08 264.094 228.727 268.373 229.433 273.634C229.575 274.757 229.786 275.879 230.564 277.072C230.917 277.563 231.27 277.983 231.623 278.334C232.895 279.878 234.59 280.93 235.791 281C235.932 281 236.356 281 236.921 281H237.063H237.698C238.264 281 238.687 281 238.829 281H296.261C296.402 281 296.826 281 297.391 281H298.027H298.168C298.733 281 299.157 281 299.298 281C300.499 280.93 302.195 279.878 303.466 278.334C303.89 277.983 304.243 277.563 304.526 277.072C305.303 275.879 305.515 274.757 305.656 273.634C306.363 268.373 306.009 264.094 305.939 258.902C305.797 257.569 305.868 256.166 305.868 254.834Z" fill="#C890A7"/>
    <path d="M299.722 193.872H235.155C232.4 193.872 230.14 191.627 230.14 188.891V183.981C230.069 181.245 232.33 179 235.155 179H299.722C302.477 179 304.738 181.245 304.738 183.981V188.891C304.738 191.627 302.477 193.872 299.722 193.872Z" fill="#8A8C95"/>
    <path d="M302.407 247.678C302.407 235.472 302.548 234.84 302.477 227.545C302.477 218.776 302.265 213.164 302.407 206.289C302.407 206.219 301.559 204.956 301.347 204.395C300.923 203.974 300.217 203.342 299.298 202.781C296.19 200.957 292.729 201.168 288.561 201.519C286.795 201.659 286.23 201.869 282.344 202.22C279.801 202.431 278.883 202.501 277.823 202.431C276.269 202.29 276.128 202.08 272.949 201.519C270.194 200.957 268.781 200.677 267.156 200.677C265.249 200.607 263.765 200.817 262.282 201.098C259.88 201.448 259.456 201.939 256.984 202.29C256.277 202.36 255.006 202.571 253.381 202.501C251.191 202.431 249.99 202.01 248.436 201.659C247.659 201.519 242.714 200.466 237.628 201.869C237.628 201.869 235.438 202.501 233.884 203.974C233.601 204.254 232.542 205.237 232.612 206.359C232.753 213.094 232.542 218.776 232.542 227.475C232.542 234.77 232.612 235.402 232.612 247.608C232.612 249.151 232.612 250.624 232.612 252.168C232.542 257.92 232.259 262.69 232.824 268.443C232.965 269.635 233.107 270.898 233.813 272.231C234.096 272.792 234.449 273.283 234.802 273.634C235.932 275.388 237.486 276.51 238.546 276.58C238.617 276.58 239.041 276.58 239.535 276.58H239.676H240.242C240.736 276.58 241.089 276.58 241.231 276.58H293.506C293.647 276.58 294 276.58 294.495 276.58H295.06H295.201C295.696 276.58 296.12 276.58 296.19 276.58C297.32 276.51 298.804 275.388 299.934 273.634C300.287 273.213 300.641 272.722 300.923 272.231C301.63 270.898 301.771 269.635 301.912 268.443C302.548 262.62 302.195 257.92 302.124 252.168C302.336 250.695 302.407 249.151 302.407 247.678Z" fill="#B44276"/>
    <path d="M296.755 254.202V223.055C294.212 223.055 292.164 221.371 292.164 219.337H242.714C242.714 221.371 240.665 223.055 238.122 223.055V254.272C240.665 254.272 242.714 255.956 242.714 257.99H292.164C292.164 255.886 294.212 254.202 296.755 254.202Z" fill="white"/>
    <path opacity="0.39" d="M240.524 268.373V218.565C240.524 216.391 242.361 214.567 244.551 214.567C246.74 214.567 248.577 216.391 248.577 218.565V268.443C248.577 270.618 246.74 272.442 244.551 272.442C242.29 272.371 240.524 270.618 240.524 268.373Z" fill="white"/>
    <path opacity="0.39" d="M240.524 206.99V202.15C240.524 199.975 242.361 198.151 244.551 198.151C246.74 198.151 248.577 199.975 248.577 202.15V206.99C248.577 209.165 246.74 210.989 244.551 210.989C242.29 210.989 240.524 209.165 240.524 206.99Z" fill="white"/>
    <path d="M275 247C279.971 247 284 242.971 284 238C284 233.029 279.971 229 275 229C270.029 229 266 233.029 266 238C266 242.971 270.029 247 275 247Z" fill="#B32646"/>
    <path d="M277.1 239.95C276.65 240.4 276.05 240.4 275.6 239.95L272.75 237.25C272.3 236.8 272.3 236.2 272.75 235.75C273.2 235.3 273.8 235.3 274.25 235.75L277.1 238.45C277.55 238.9 277.55 239.65 277.1 239.95Z" fill="#6C1626"/>
    <path d="M276.95 235.75C277.4 236.2 277.4 236.8 276.95 237.25L274.4 240.1C273.95 240.55 273.35 240.55 272.9 240.1C272.45 239.65 272.45 239.05 272.9 238.6L275.6 235.75C275.9 235.45 276.5 235.45 276.95 235.75Z" fill="#6C1626"/>
    <path d="M261.5 244C267.299 244 272 239.299 272 233.5C272 227.701 267.299 223 261.5 223C255.701 223 251 227.701 251 233.5C251 239.299 255.701 244 261.5 244Z" fill="#B32646"/>
    <path d="M263.95 235.775C263.425 236.3 262.725 236.3 262.2 235.775L258.875 232.625C258.35 232.1 258.35 231.4 258.875 230.875C259.4 230.35 260.1 230.35 260.625 230.875L263.95 234.025C264.475 234.55 264.475 235.425 263.95 235.775Z" fill="#6C1626"/>
    <path d="M263.775 230.875C264.3 231.4 264.3 232.1 263.775 232.625L260.8 235.95C260.275 236.475 259.575 236.475 259.05 235.95C258.525 235.425 258.525 234.725 259.05 234.2L262.2 230.875C262.55 230.525 263.25 230.525 263.775 230.875Z" fill="#6C1626"/>
    <path d="M257.3 228.6C257.825 228.25 258.7 227.55 259.4 227.025C259.575 226.85 259.925 226.675 259.925 226.325C259.925 226.325 260.1 225.625 259.75 225.275C259.4 224.925 258.7 224.925 258.525 224.925C258.35 224.925 258 225.1 257.65 225.275C257.125 225.625 256.95 225.8 256.775 225.975C256.075 226.5 255.725 226.85 255.2 227.2C254.5 227.9 254.15 228.425 253.975 228.6C253.625 229.125 253.275 229.65 252.75 230.7C252.4 231.225 252.225 231.75 252.225 232.45C252.225 232.8 252.4 232.975 252.4 233.15C252.75 233.5 253.1 233.5 253.275 233.5C253.625 233.5 253.975 233.325 253.975 233.325C254.325 233.15 254.325 232.8 254.675 232.275C254.85 231.75 254.85 231.75 255.025 231.225C255.025 231.05 255.2 230.875 255.55 230.35C256.075 229.65 256.6 229.125 257.3 228.6Z" fill="#C8637A"/>
    <path d="M266 254C270.418 254 274 250.418 274 246C274 241.582 270.418 238 266 238C261.582 238 258 241.582 258 246C258 250.418 261.582 254 266 254Z" fill="#761F36"/>
    <path d="M268 247.875C267.625 248.25 267.125 248.25 266.75 247.875L264.25 245.5C263.875 245.125 263.875 244.625 264.25 244.25C264.625 243.875 265.125 243.875 265.5 244.25L268 246.625C268.25 246.875 268.25 247.5 268 247.875Z" fill="#49131F"/>
    <path d="M267.75 244.125C268.125 244.5 268.125 245 267.75 245.375L265.375 247.875C265 248.25 264.5 248.25 264.125 247.875C263.75 247.5 263.75 247 264.125 246.625L266.5 244.125C266.875 243.75 267.375 243.75 267.75 244.125Z" fill="#49131F"/>
    <path d="M262.75 242.25C263.125 241.875 263.75 241.5 264.375 241C264.5 240.875 264.75 240.75 264.875 240.5C264.875 240.5 265 240 264.75 239.75C264.5 239.375 264 239.5 263.875 239.5C263.75 239.5 263.5 239.625 263.25 239.875C262.875 240.125 262.625 240.25 262.625 240.375C262.125 240.875 261.75 241 261.5 241.375C261 241.875 260.625 242.25 260.625 242.375C260.375 242.75 260.125 243.125 259.75 243.875C259.5 244.375 259.375 244.75 259.375 245.125C259.375 245.375 259.5 245.5 259.5 245.625C259.75 245.875 260 245.875 260.125 245.875C260.375 245.875 260.625 245.75 260.625 245.75C260.875 245.625 261 245.375 261.125 245C261.25 244.625 261.25 244.5 261.375 244.25C261.375 244.125 261.5 243.875 261.875 243.625C261.875 243.125 262.25 242.75 262.75 242.25Z" fill="#A05062"/>
    <path d="M165.868 385.834C165.868 374.82 166.009 374.259 165.939 367.664C165.939 359.737 165.656 354.686 165.868 348.513C165.868 347.882 165.868 347.461 165.939 346.619C166.151 338.341 165.868 336.728 165.656 335.886C165.374 334.623 164.809 333.501 163.749 331.256C161.7 326.836 159.369 323.329 158.663 322.347C155.201 317.717 146.3 315.472 138.035 315.542C134.22 315.542 130.547 316.033 127.509 316.945C124.472 316.033 120.798 315.542 116.984 315.542C108.719 315.472 99.8177 317.717 96.3562 322.347C95.6498 323.329 93.3186 326.836 91.27 331.256C90.2103 333.431 89.7158 334.553 89.3626 335.816C89.1507 336.728 88.8681 338.341 89.0801 346.549C89.0801 347.391 89.0801 347.812 89.1507 348.443C89.3626 354.616 89.1507 359.737 89.0801 367.594C89.0801 374.188 89.2213 374.75 89.1507 385.763C89.1507 387.166 89.1507 388.499 89.1507 389.902C89.0801 395.094 88.7268 399.373 89.4333 404.634C89.5746 405.757 89.7865 406.879 90.5635 408.072C90.9168 408.563 91.27 408.983 91.6232 409.334C92.8947 410.878 94.5902 411.93 95.7911 412C95.9324 412 96.3562 412 96.9213 412H97.0626H97.6984C98.2635 412 98.6874 412 98.8287 412H156.261C156.402 412 156.826 412 157.391 412H158.027H158.168C158.733 412 159.157 412 159.298 412C160.499 411.93 162.195 410.878 163.466 409.334C163.89 408.983 164.243 408.563 164.526 408.072C165.303 406.879 165.515 405.757 165.656 404.634C166.363 399.373 166.009 395.094 165.939 389.902C165.797 388.569 165.868 387.166 165.868 385.834Z" fill="#C890A7"/>
    <path d="M159.722 324.872H95.1554C92.4003 324.872 90.1398 322.627 90.1398 319.891V314.981C90.0692 312.245 92.3297 310 95.1554 310H159.722C162.477 310 164.738 312.245 164.738 314.981V319.891C164.738 322.627 162.477 324.872 159.722 324.872Z" fill="#8A8C95"/>
    <path d="M162.407 378.678C162.407 366.472 162.548 365.84 162.477 358.545C162.477 349.776 162.265 344.164 162.407 337.289C162.407 337.219 161.559 335.956 161.347 335.395C160.923 334.974 160.217 334.342 159.298 333.781C156.19 331.957 152.729 332.168 148.561 332.519C146.795 332.659 146.23 332.869 142.344 333.22C139.801 333.431 138.883 333.501 137.823 333.431C136.269 333.29 136.128 333.08 132.949 332.519C130.194 331.957 128.781 331.677 127.156 331.677C125.249 331.607 123.765 331.817 122.282 332.098C119.88 332.448 119.456 332.939 116.984 333.29C116.277 333.36 115.006 333.571 113.381 333.501C111.191 333.431 109.99 333.01 108.436 332.659C107.659 332.519 102.714 331.466 97.6278 332.869C97.6278 332.869 95.4379 333.501 93.8837 334.974C93.6012 335.254 92.5415 336.237 92.6122 337.359C92.7535 344.094 92.5415 349.776 92.5415 358.475C92.5415 365.77 92.6122 366.402 92.6122 378.608C92.6122 380.151 92.6122 381.624 92.6122 383.168C92.5415 388.92 92.259 393.69 92.8241 399.443C92.9654 400.635 93.1067 401.898 93.8131 403.231C94.0957 403.792 94.4489 404.283 94.8021 404.634C95.9324 406.388 97.4865 407.51 98.5461 407.58C98.6168 407.58 99.0406 407.58 99.5351 407.58H99.6764H100.242C100.736 407.58 101.089 407.58 101.231 407.58H153.506C153.647 407.58 154 407.58 154.495 407.58H155.06H155.201C155.696 407.58 156.12 407.58 156.19 407.58C157.32 407.51 158.804 406.388 159.934 404.634C160.287 404.213 160.641 403.722 160.923 403.231C161.63 401.898 161.771 400.635 161.912 399.443C162.548 393.62 162.195 388.92 162.124 383.168C162.336 381.695 162.407 380.151 162.407 378.678Z" fill="#B44276"/>
    <path d="M156.755 385.202V354.055C154.212 354.055 152.164 352.371 152.164 350.337H102.714C102.714 352.371 100.665 354.055 98.1223 354.055V385.272C100.665 385.272 102.714 386.956 102.714 388.99H152.164C152.164 386.886 154.212 385.202 156.755 385.202Z" fill="white"/>
    <path opacity="0.39" d="M100.524 399.373V349.565C100.524 347.391 102.361 345.567 104.551 345.567C106.74 345.567 108.577 347.391 108.577 349.565V399.443C108.577 401.618 106.74 403.442 104.551 403.442C102.29 403.371 100.524 401.618 100.524 399.373Z" fill="white"/>
    <path opacity="0.39" d="M100.524 337.99V333.15C100.524 330.975 102.361 329.151 104.551 329.151C106.74 329.151 108.577 330.975 108.577 333.15V337.99C108.577 340.165 106.74 341.989 104.551 341.989C102.29 341.989 100.524 340.165 100.524 337.99Z" fill="white"/>
    <path d="M135 378C139.971 378 144 373.971 144 369C144 364.029 139.971 360 135 360C130.029 360 126 364.029 126 369C126 373.971 130.029 378 135 378Z" fill="#B32646"/>
    <path d="M137.1 370.95C136.65 371.4 136.05 371.4 135.6 370.95L132.75 368.25C132.3 367.8 132.3 367.2 132.75 366.75C133.2 366.3 133.8 366.3 134.25 366.75L137.1 369.45C137.55 369.9 137.55 370.65 137.1 370.95Z" fill="#6C1626"/>
    <path d="M136.95 366.75C137.4 367.2 137.4 367.8 136.95 368.25L134.4 371.1C133.95 371.55 133.35 371.55 132.9 371.1C132.45 370.65 132.45 370.05 132.9 369.6L135.6 366.75C135.9 366.45 136.5 366.45 136.95 366.75Z" fill="#6C1626"/>
    <path d="M121.5 375C127.299 375 132 370.299 132 364.5C132 358.701 127.299 354 121.5 354C115.701 354 111 358.701 111 364.5C111 370.299 115.701 375 121.5 375Z" fill="#B32646"/>
    <path d="M123.95 366.775C123.425 367.3 122.725 367.3 122.2 366.775L118.875 363.625C118.35 363.1 118.35 362.4 118.875 361.875C119.4 361.35 120.1 361.35 120.625 361.875L123.95 365.025C124.475 365.55 124.475 366.425 123.95 366.775Z" fill="#6C1626"/>
    <path d="M123.775 361.875C124.3 362.4 124.3 363.1 123.775 363.625L120.8 366.95C120.275 367.475 119.575 367.475 119.05 366.95C118.525 366.425 118.525 365.725 119.05 365.2L122.2 361.875C122.55 361.525 123.25 361.525 123.775 361.875Z" fill="#6C1626"/>
    <path d="M117.3 359.6C117.825 359.25 118.7 358.55 119.4 358.025C119.575 357.85 119.925 357.675 119.925 357.325C119.925 357.325 120.1 356.625 119.75 356.275C119.4 355.925 118.7 355.925 118.525 355.925C118.35 355.925 118 356.1 117.65 356.275C117.125 356.625 116.95 356.8 116.775 356.975C116.075 357.5 115.725 357.85 115.2 358.2C114.5 358.9 114.15 359.425 113.975 359.6C113.625 360.125 113.275 360.65 112.75 361.7C112.4 362.225 112.225 362.75 112.225 363.45C112.225 363.8 112.4 363.975 112.4 364.15C112.75 364.5 113.1 364.5 113.275 364.5C113.625 364.5 113.975 364.325 113.975 364.325C114.325 364.15 114.325 363.8 114.675 363.275C114.85 362.75 114.85 362.75 115.025 362.225C115.025 362.05 115.2 361.875 115.55 361.35C116.075 360.65 116.6 360.125 117.3 359.6Z" fill="#C8637A"/>
    <path d="M126 385C130.418 385 134 381.418 134 377C134 372.582 130.418 369 126 369C121.582 369 118 372.582 118 377C118 381.418 121.582 385 126 385Z" fill="#761F36"/>
    <path d="M128 378.875C127.625 379.25 127.125 379.25 126.75 378.875L124.25 376.5C123.875 376.125 123.875 375.625 124.25 375.25C124.625 374.875 125.125 374.875 125.5 375.25L128 377.625C128.25 377.875 128.25 378.5 128 378.875Z" fill="#49131F"/>
    <path d="M127.75 375.125C128.125 375.5 128.125 376 127.75 376.375L125.375 378.875C125 379.25 124.5 379.25 124.125 378.875C123.75 378.5 123.75 378 124.125 377.625L126.5 375.125C126.875 374.75 127.375 374.75 127.75 375.125Z" fill="#49131F"/>
    <path d="M122.75 373.25C123.125 372.875 123.75 372.5 124.375 372C124.5 371.875 124.75 371.75 124.875 371.5C124.875 371.5 125 371 124.75 370.75C124.5 370.375 124 370.5 123.875 370.5C123.75 370.5 123.5 370.625 123.25 370.875C122.875 371.125 122.625 371.25 122.625 371.375C122.125 371.875 121.75 372 121.5 372.375C121 372.875 120.625 373.25 120.625 373.375C120.375 373.75 120.125 374.125 119.75 374.875C119.5 375.375 119.375 375.75 119.375 376.125C119.375 376.375 119.5 376.5 119.5 376.625C119.75 376.875 120 376.875 120.125 376.875C120.375 376.875 120.625 376.75 120.625 376.75C120.875 376.625 121 376.375 121.125 376C121.25 375.625 121.25 375.5 121.375 375.25C121.375 375.125 121.5 374.875 121.875 374.625C121.875 374.125 122.25 373.75 122.75 373.25Z" fill="#A05062"/>
    <path d="M305.868 385.834C305.868 374.82 306.009 374.259 305.939 367.664C305.939 359.737 305.656 354.686 305.868 348.513C305.868 347.882 305.868 347.461 305.939 346.619C306.151 338.341 305.868 336.728 305.656 335.886C305.374 334.623 304.809 333.501 303.749 331.256C301.7 326.836 299.369 323.329 298.663 322.347C295.201 317.717 286.3 315.472 278.035 315.542C274.22 315.542 270.547 316.033 267.509 316.945C264.472 316.033 260.798 315.542 256.984 315.542C248.719 315.472 239.818 317.717 236.356 322.347C235.65 323.329 233.319 326.836 231.27 331.256C230.21 333.431 229.716 334.553 229.363 335.816C229.151 336.728 228.868 338.341 229.08 346.549C229.08 347.391 229.08 347.812 229.151 348.443C229.363 354.616 229.151 359.737 229.08 367.594C229.08 374.188 229.221 374.75 229.151 385.763C229.151 387.166 229.151 388.499 229.151 389.902C229.08 395.094 228.727 399.373 229.433 404.634C229.575 405.757 229.786 406.879 230.564 408.072C230.917 408.563 231.27 408.983 231.623 409.334C232.895 410.878 234.59 411.93 235.791 412C235.932 412 236.356 412 236.921 412H237.063H237.698C238.264 412 238.687 412 238.829 412H296.261C296.402 412 296.826 412 297.391 412H298.027H298.168C298.733 412 299.157 412 299.298 412C300.499 411.93 302.195 410.878 303.466 409.334C303.89 408.983 304.243 408.563 304.526 408.072C305.303 406.879 305.515 405.757 305.656 404.634C306.363 399.373 306.009 395.094 305.939 389.902C305.797 388.569 305.868 387.166 305.868 385.834Z" fill="#C890A7"/>
    <path d="M299.722 324.872H235.155C232.4 324.872 230.14 322.627 230.14 319.891V314.981C230.069 312.245 232.33 310 235.155 310H299.722C302.477 310 304.738 312.245 304.738 314.981V319.891C304.738 322.627 302.477 324.872 299.722 324.872Z" fill="#8A8C95"/>
    <path d="M302.407 378.678C302.407 366.472 302.548 365.84 302.477 358.545C302.477 349.776 302.265 344.164 302.407 337.289C302.407 337.219 301.559 335.956 301.347 335.395C300.923 334.974 300.217 334.342 299.298 333.781C296.19 331.957 292.729 332.168 288.561 332.519C286.795 332.659 286.23 332.869 282.344 333.22C279.801 333.431 278.883 333.501 277.823 333.431C276.269 333.29 276.128 333.08 272.949 332.519C270.194 331.957 268.781 331.677 267.156 331.677C265.249 331.607 263.765 331.817 262.282 332.098C259.88 332.448 259.456 332.939 256.984 333.29C256.277 333.36 255.006 333.571 253.381 333.501C251.191 333.431 249.99 333.01 248.436 332.659C247.659 332.519 242.714 331.466 237.628 332.869C237.628 332.869 235.438 333.501 233.884 334.974C233.601 335.254 232.542 336.237 232.612 337.359C232.753 344.094 232.542 349.776 232.542 358.475C232.542 365.77 232.612 366.402 232.612 378.608C232.612 380.151 232.612 381.624 232.612 383.168C232.542 388.92 232.259 393.69 232.824 399.443C232.965 400.635 233.107 401.898 233.813 403.231C234.096 403.792 234.449 404.283 234.802 404.634C235.932 406.388 237.486 407.51 238.546 407.58C238.617 407.58 239.041 407.58 239.535 407.58H239.676H240.242C240.736 407.58 241.089 407.58 241.231 407.58H293.506C293.647 407.58 294 407.58 294.495 407.58H295.06H295.201C295.696 407.58 296.12 407.58 296.19 407.58C297.32 407.51 298.804 406.388 299.934 404.634C300.287 404.213 300.641 403.722 300.923 403.231C301.63 401.898 301.771 400.635 301.912 399.443C302.548 393.62 302.195 388.92 302.124 383.168C302.336 381.695 302.407 380.151 302.407 378.678Z" fill="#B44276"/>
    <path d="M296.755 385.202V354.055C294.212 354.055 292.164 352.371 292.164 350.337H242.714C242.714 352.371 240.665 354.055 238.122 354.055V385.272C240.665 385.272 242.714 386.956 242.714 388.99H292.164C292.164 386.886 294.212 385.202 296.755 385.202Z" fill="white"/>
    <path opacity="0.39" d="M240.524 399.373V349.565C240.524 347.391 242.361 345.567 244.551 345.567C246.74 345.567 248.577 347.391 248.577 349.565V399.443C248.577 401.618 246.74 403.442 244.551 403.442C242.29 403.371 240.524 401.618 240.524 399.373Z" fill="white"/>
    <path opacity="0.39" d="M240.524 337.99V333.15C240.524 330.975 242.361 329.151 244.551 329.151C246.74 329.151 248.577 330.975 248.577 333.15V337.99C248.577 340.165 246.74 341.989 244.551 341.989C242.29 341.989 240.524 340.165 240.524 337.99Z" fill="white"/>
    <path d="M275 378C279.971 378 284 373.971 284 369C284 364.029 279.971 360 275 360C270.029 360 266 364.029 266 369C266 373.971 270.029 378 275 378Z" fill="#B32646"/>
    <path d="M277.1 370.95C276.65 371.4 276.05 371.4 275.6 370.95L272.75 368.25C272.3 367.8 272.3 367.2 272.75 366.75C273.2 366.3 273.8 366.3 274.25 366.75L277.1 369.45C277.55 369.9 277.55 370.65 277.1 370.95Z" fill="#6C1626"/>
    <path d="M276.95 366.75C277.4 367.2 277.4 367.8 276.95 368.25L274.4 371.1C273.95 371.55 273.35 371.55 272.9 371.1C272.45 370.65 272.45 370.05 272.9 369.6L275.6 366.75C275.9 366.45 276.5 366.45 276.95 366.75Z" fill="#6C1626"/>
    <path d="M261.5 375C267.299 375 272 370.299 272 364.5C272 358.701 267.299 354 261.5 354C255.701 354 251 358.701 251 364.5C251 370.299 255.701 375 261.5 375Z" fill="#B32646"/>
    <path d="M263.95 366.775C263.425 367.3 262.725 367.3 262.2 366.775L258.875 363.625C258.35 363.1 258.35 362.4 258.875 361.875C259.4 361.35 260.1 361.35 260.625 361.875L263.95 365.025C264.475 365.55 264.475 366.425 263.95 366.775Z" fill="#6C1626"/>
    <path d="M263.775 361.875C264.3 362.4 264.3 363.1 263.775 363.625L260.8 366.95C260.275 367.475 259.575 367.475 259.05 366.95C258.525 366.425 258.525 365.725 259.05 365.2L262.2 361.875C262.55 361.525 263.25 361.525 263.775 361.875Z" fill="#6C1626"/>
    <path d="M257.3 359.6C257.825 359.25 258.7 358.55 259.4 358.025C259.575 357.85 259.925 357.675 259.925 357.325C259.925 357.325 260.1 356.625 259.75 356.275C259.4 355.925 258.7 355.925 258.525 355.925C258.35 355.925 258 356.1 257.65 356.275C257.125 356.625 256.95 356.8 256.775 356.975C256.075 357.5 255.725 357.85 255.2 358.2C254.5 358.9 254.15 359.425 253.975 359.6C253.625 360.125 253.275 360.65 252.75 361.7C252.4 362.225 252.225 362.75 252.225 363.45C252.225 363.8 252.4 363.975 252.4 364.15C252.75 364.5 253.1 364.5 253.275 364.5C253.625 364.5 253.975 364.325 253.975 364.325C254.325 364.15 254.325 363.8 254.675 363.275C254.85 362.75 254.85 362.75 255.025 362.225C255.025 362.05 255.2 361.875 255.55 361.35C256.075 360.65 256.6 360.125 257.3 359.6Z" fill="#C8637A"/>
    <path d="M266 385C270.418 385 274 381.418 274 377C274 372.582 270.418 369 266 369C261.582 369 258 372.582 258 377C258 381.418 261.582 385 266 385Z" fill="#761F36"/>
    <path d="M268 378.875C267.625 379.25 267.125 379.25 266.75 378.875L264.25 376.5C263.875 376.125 263.875 375.625 264.25 375.25C264.625 374.875 265.125 374.875 265.5 375.25L268 377.625C268.25 377.875 268.25 378.5 268 378.875Z" fill="#49131F"/>
    <path d="M267.75 375.125C268.125 375.5 268.125 376 267.75 376.375L265.375 378.875C265 379.25 264.5 379.25 264.125 378.875C263.75 378.5 263.75 378 264.125 377.625L266.5 375.125C266.875 374.75 267.375 374.75 267.75 375.125Z" fill="#49131F"/>
    <path d="M262.75 373.25C263.125 372.875 263.75 372.5 264.375 372C264.5 371.875 264.75 371.75 264.875 371.5C264.875 371.5 265 371 264.75 370.75C264.5 370.375 264 370.5 263.875 370.5C263.75 370.5 263.5 370.625 263.25 370.875C262.875 371.125 262.625 371.25 262.625 371.375C262.125 371.875 261.75 372 261.5 372.375C261 372.875 260.625 373.25 260.625 373.375C260.375 373.75 260.125 374.125 259.75 374.875C259.5 375.375 259.375 375.75 259.375 376.125C259.375 376.375 259.5 376.5 259.5 376.625C259.75 376.875 260 376.875 260.125 376.875C260.375 376.875 260.625 376.75 260.625 376.75C260.875 376.625 261 376.375 261.125 376C261.25 375.625 261.25 375.5 261.375 375.25C261.375 375.125 261.5 374.875 261.875 374.625C261.875 374.125 262.25 373.75 262.75 373.25Z" fill="#A05062"/>
    <path d="M691.104 376.104C691.92 375.021 689.744 372.99 688.52 369.334C687.908 367.507 687.772 366.153 687.568 363.445C687.296 360.06 686.82 353.154 689.812 345.166C690.356 343.609 692.464 338.329 697.359 332.845C700.419 329.392 707.967 320.862 719.934 319.576C732.65 318.222 742.169 325.94 746.249 329.325C748.289 330.949 759.441 340.427 761.685 355.727C763.248 366.559 759.645 376.172 759.373 376.51C759.373 376.51 759.237 376.713 759.237 376.917C759.237 377.187 759.509 377.39 759.645 377.458C760.121 377.797 761.889 378.338 763.656 377.39C763.792 377.323 764.608 376.849 765.288 375.901C766.036 374.818 766.172 373.735 766.24 373.396C766.988 367.574 768.416 363.919 768.348 359.044C768.212 352.477 765.22 336.975 752.097 325.534C748.561 322.419 739.517 314.499 725.918 314.025C707.491 313.348 695.523 326.684 693.211 329.392C690.696 332.236 683.488 340.495 682.128 353.493C680.836 365.882 685.936 375.766 686.072 375.969C686.072 375.969 686.208 376.172 686.276 376.443C686.344 376.646 686.344 376.713 686.344 376.713C686.548 377.187 688.452 376.917 688.452 376.917C690.016 376.51 690.9 376.375 691.104 376.104Z" fill="#AB6F26"/>
    <path d="M685.596 379.015C685.732 380.234 685.324 391.742 688.656 402.777C690.56 409.276 692.532 411.307 693.347 412.12C694.367 413.067 696.067 414.354 700.011 415.843C703.207 416.994 706.947 417.874 719.798 418.551C725.782 418.822 728.842 419.025 733.194 418.822C738.702 418.619 742.101 418.483 746.453 417.332C750.533 416.249 755.225 414.963 758.557 410.901C759.781 409.412 760.325 408.193 761.413 405.756C761.413 405.756 765.832 395.534 765.356 379.218C765.356 378.203 765.22 376.917 765.22 376.917C765.22 376.646 765.152 376.51 765.152 376.443C764.676 375.156 724.218 384.431 697.835 378.88C694.231 378.135 685.528 378 685.528 378.474C685.596 378.744 685.596 378.812 685.596 379.015Z" fill="#AB6F26"/>
    <path d="M706.335 376.781C702.663 376.24 700.351 375.901 700.351 375.901C695.319 375.156 695.455 375.156 694.503 375.021C691.987 374.75 690.831 374.818 688.384 374.344C687.024 374.073 686.344 373.938 685.8 373.802C683.692 373.193 682.672 372.448 681.04 372.719C680.564 372.787 680.156 372.922 679.816 373.193C679.272 373.599 679 374.276 679 374.953C679.068 375.698 679.544 376.307 680.156 376.849C683.08 379.218 686.548 379.624 686.548 379.624C692.939 380.369 699.263 381.385 705.655 381.994C710.415 382.468 709.939 382.536 713.475 382.874C721.362 383.551 723.878 383.077 746.453 382.129C751.281 381.926 755.973 380.775 760.8 380.505C760.8 380.505 762.568 380.369 768.008 378.541C768.416 378.406 769.708 377.932 770.388 376.849C770.728 376.24 770.796 375.766 770.796 375.63C770.796 375.495 770.796 374.818 770.388 374.276C769.912 373.667 769.096 373.599 768.552 373.532C765.628 373.329 763.384 374.073 763.384 374.073C760.936 374.886 758.285 374.818 755.769 375.359C749.037 376.781 737.477 377.255 732.854 377.458C722.178 377.797 711.571 377.526 706.335 376.781Z" fill="#CE8F31"/>
    <path d="M757.129 384.296C755.973 384.837 754.681 384.905 753.457 385.311C750.261 386.327 744.141 387.004 743.053 387.139C734.894 388.019 726.258 387.613 717.214 387.139C712.862 386.936 710.007 386.665 704.363 386.124C699.671 385.65 698.651 385.447 697.699 385.243C696.475 384.905 695.183 384.905 693.959 384.499C693.551 384.363 692.395 383.889 691.443 384.296C690.899 384.499 690.763 384.77 690.695 384.905C690.695 384.905 690.559 385.311 690.695 385.853C691.171 387.613 695.795 388.019 695.795 388.019C702.187 388.561 708.511 389.847 714.902 389.915C724.354 390.05 729.454 390.592 738.361 390.456C739.721 390.456 742.849 390.389 746.929 389.779C748.969 389.508 750.533 389.238 752.573 388.628C756.109 387.545 759.78 385.785 759.78 385.785C759.78 385.785 760.12 385.311 760.12 384.905C760.12 384.499 759.78 384.025 759.508 383.889C758.896 383.416 758.081 383.889 757.129 384.296Z" fill="#CE8F31"/>
    <path d="M734.009 407.448C740.333 407.448 741.285 407.922 747.813 407.448C749.581 407.313 751.893 407.11 754.545 406.772C755.021 406.568 755.293 406.23 755.293 405.824C755.293 405.282 754.681 405.011 754.477 404.876C753.729 404.47 752.845 404.605 752.709 404.605C749.173 405.011 745.501 404.267 741.965 404.537C739.109 404.741 735.029 405.011 729.658 405.079C728.706 405.485 728.638 405.824 728.638 405.959C728.706 406.501 730.134 406.839 731.018 407.042C732.718 407.448 734.009 407.448 734.009 407.448Z" fill="#CE8F31"/>
    <path d="M712.251 403.996C711.027 403.996 709.055 403.928 706.471 403.86C706.267 403.928 705.383 404.131 705.315 404.673C705.247 405.282 706.335 405.824 706.675 406.027C708.239 406.839 709.599 406.771 713.542 406.771C714.222 406.771 714.902 406.771 715.65 406.771C717.622 406.771 720.41 406.771 724.082 406.771C724.422 406.568 724.898 406.23 724.83 405.891C724.762 405.418 723.606 405.214 722.994 405.079C716.194 404.064 712.251 403.996 712.251 403.996Z" fill="#CE8F31"/>
    <path d="M748.969 397.768C748.493 397.768 747.473 397.768 745.433 397.903C744.345 397.971 742.849 398.038 740.945 398.174C740.877 398.174 740.061 398.309 739.653 397.903C739.381 397.565 739.449 397.023 739.585 396.752C739.993 395.669 742.441 395.669 745.909 395.669C747.269 395.669 749.717 395.669 753.185 395.669C753.253 395.669 753.797 395.534 754.069 395.872C754.341 396.211 754.137 396.82 753.865 397.091C753.525 397.565 752.913 397.565 752.029 397.632C750.261 397.7 749.309 397.768 748.969 397.768Z" fill="#CE8F31"/>
    <path d="M722.11 395.872C717.758 396.007 713.406 395.466 709.055 395.33C706.471 395.263 702.595 395.06 697.835 394.857C697.767 394.857 697.155 394.992 696.951 395.466C696.679 395.94 696.883 396.684 697.495 397.091C701.303 397.294 704.363 397.632 706.539 397.835C712.251 398.445 714.086 398.918 718.506 398.986C721.566 399.054 723.946 398.918 725.306 398.783C727.482 398.58 729.454 398.309 730.95 398.106C731.086 398.106 731.562 398.106 731.834 397.768C731.834 397.768 732.038 397.429 731.766 396.82C731.154 395.398 724.558 395.737 722.11 395.872Z" fill="#CE8F31"/>
    <path d="M728.366 412.323C727.89 412.323 726.87 412.323 724.83 412.187C723.742 412.12 722.246 412.052 720.342 411.917C720.274 411.917 719.458 411.781 719.05 412.187C718.778 412.526 718.846 413.067 718.982 413.338C719.39 414.421 721.838 414.421 725.306 414.421C726.666 414.421 729.114 414.421 732.582 414.421C732.65 414.421 733.194 414.557 733.466 414.218C733.738 413.88 733.534 413.271 733.262 413C732.922 412.526 732.31 412.526 731.426 412.458C729.59 412.39 728.706 412.323 728.366 412.323Z" fill="#CE8F31"/>
    <path d="M548.104 376.104C548.92 375.021 546.744 372.99 545.52 369.334C544.908 367.507 544.772 366.153 544.568 363.445C544.296 360.06 543.82 353.154 546.812 345.166C547.356 343.609 549.464 338.329 554.359 332.845C557.419 329.392 564.967 320.862 576.934 319.576C589.65 318.222 599.169 325.94 603.249 329.325C605.289 330.949 616.441 340.427 618.685 355.727C620.248 366.559 616.645 376.172 616.373 376.51C616.373 376.51 616.237 376.713 616.237 376.917C616.237 377.187 616.509 377.39 616.645 377.458C617.121 377.797 618.889 378.338 620.656 377.39C620.792 377.323 621.608 376.849 622.288 375.901C623.036 374.818 623.172 373.735 623.24 373.396C623.988 367.574 625.416 363.919 625.348 359.044C625.212 352.477 622.22 336.975 609.097 325.534C605.561 322.419 596.517 314.499 582.918 314.025C564.491 313.348 552.523 326.684 550.211 329.392C547.696 332.236 540.488 340.495 539.128 353.493C537.836 365.882 542.936 375.766 543.072 375.969C543.072 375.969 543.208 376.172 543.276 376.443C543.344 376.646 543.344 376.713 543.344 376.713C543.548 377.187 545.452 376.917 545.452 376.917C547.016 376.51 547.9 376.375 548.104 376.104Z" fill="#AB6F26"/>
    <path d="M542.596 379.015C542.732 380.234 542.324 391.742 545.656 402.777C547.56 409.276 549.532 411.307 550.347 412.12C551.367 413.067 553.067 414.354 557.011 415.843C560.207 416.994 563.947 417.874 576.798 418.551C582.782 418.822 585.842 419.025 590.194 418.822C595.702 418.619 599.101 418.483 603.453 417.332C607.533 416.249 612.225 414.963 615.557 410.901C616.781 409.412 617.325 408.193 618.413 405.756C618.413 405.756 622.832 395.534 622.356 379.218C622.356 378.203 622.22 376.917 622.22 376.917C622.22 376.646 622.152 376.51 622.152 376.443C621.676 375.156 581.218 384.431 554.835 378.88C551.231 378.135 542.528 378 542.528 378.474C542.596 378.744 542.596 378.812 542.596 379.015Z" fill="#AB6F26"/>
    <path d="M563.335 376.781C559.663 376.24 557.351 375.901 557.351 375.901C552.319 375.156 552.455 375.156 551.503 375.021C548.987 374.75 547.831 374.818 545.384 374.344C544.024 374.073 543.344 373.938 542.8 373.802C540.692 373.193 539.672 372.448 538.04 372.719C537.564 372.787 537.156 372.922 536.816 373.193C536.272 373.599 536 374.276 536 374.953C536.068 375.698 536.544 376.307 537.156 376.849C540.08 379.218 543.548 379.624 543.548 379.624C549.939 380.369 556.263 381.385 562.655 381.994C567.415 382.468 566.939 382.536 570.475 382.874C578.362 383.551 580.878 383.077 603.453 382.129C608.281 381.926 612.973 380.775 617.8 380.505C617.8 380.505 619.568 380.369 625.008 378.541C625.416 378.406 626.708 377.932 627.388 376.849C627.728 376.24 627.796 375.766 627.796 375.63C627.796 375.495 627.796 374.818 627.388 374.276C626.912 373.667 626.096 373.599 625.552 373.532C622.628 373.329 620.384 374.073 620.384 374.073C617.936 374.886 615.285 374.818 612.769 375.359C606.037 376.781 594.477 377.255 589.854 377.458C579.178 377.797 568.571 377.526 563.335 376.781Z" fill="#CE8F31"/>
    <path d="M614.129 384.296C612.973 384.837 611.681 384.905 610.457 385.311C607.261 386.327 601.141 387.004 600.053 387.139C591.894 388.019 583.258 387.613 574.214 387.139C569.862 386.936 567.007 386.665 561.363 386.124C556.671 385.65 555.651 385.447 554.699 385.243C553.475 384.905 552.183 384.905 550.959 384.499C550.551 384.363 549.395 383.889 548.443 384.296C547.899 384.499 547.763 384.77 547.695 384.905C547.695 384.905 547.559 385.311 547.695 385.853C548.171 387.613 552.795 388.019 552.795 388.019C559.187 388.561 565.511 389.847 571.902 389.915C581.354 390.05 586.454 390.592 595.361 390.456C596.721 390.456 599.849 390.389 603.929 389.779C605.969 389.508 607.533 389.238 609.573 388.628C613.109 387.545 616.78 385.785 616.78 385.785C616.78 385.785 617.12 385.311 617.12 384.905C617.12 384.499 616.78 384.025 616.508 383.889C615.896 383.416 615.081 383.889 614.129 384.296Z" fill="#CE8F31"/>
    <path d="M591.009 407.448C597.333 407.448 598.285 407.922 604.813 407.448C606.581 407.313 608.893 407.11 611.545 406.772C612.021 406.568 612.293 406.23 612.293 405.824C612.293 405.282 611.681 405.011 611.477 404.876C610.729 404.47 609.845 404.605 609.709 404.605C606.173 405.011 602.501 404.267 598.965 404.537C596.109 404.741 592.029 405.011 586.658 405.079C585.706 405.485 585.638 405.824 585.638 405.959C585.706 406.501 587.134 406.839 588.018 407.042C589.718 407.448 591.009 407.448 591.009 407.448Z" fill="#CE8F31"/>
    <path d="M569.251 403.996C568.027 403.996 566.055 403.928 563.471 403.86C563.267 403.928 562.383 404.131 562.315 404.673C562.247 405.282 563.335 405.824 563.675 406.027C565.239 406.839 566.599 406.771 570.542 406.771C571.222 406.771 571.902 406.771 572.65 406.771C574.622 406.771 577.41 406.771 581.082 406.771C581.422 406.568 581.898 406.23 581.83 405.891C581.762 405.418 580.606 405.214 579.994 405.079C573.194 404.064 569.251 403.996 569.251 403.996Z" fill="#CE8F31"/>
    <path d="M605.969 397.768C605.493 397.768 604.473 397.768 602.433 397.903C601.345 397.971 599.849 398.038 597.945 398.174C597.877 398.174 597.061 398.309 596.653 397.903C596.381 397.565 596.449 397.023 596.585 396.752C596.993 395.669 599.441 395.669 602.909 395.669C604.269 395.669 606.717 395.669 610.185 395.669C610.253 395.669 610.797 395.534 611.069 395.872C611.341 396.211 611.137 396.82 610.865 397.091C610.525 397.565 609.913 397.565 609.029 397.632C607.261 397.7 606.309 397.768 605.969 397.768Z" fill="#CE8F31"/>
    <path d="M579.11 395.872C574.758 396.007 570.406 395.466 566.055 395.33C563.471 395.263 559.595 395.06 554.835 394.857C554.767 394.857 554.155 394.992 553.951 395.466C553.679 395.94 553.883 396.684 554.495 397.091C558.303 397.294 561.363 397.632 563.539 397.835C569.251 398.445 571.086 398.918 575.506 398.986C578.566 399.054 580.946 398.918 582.306 398.783C584.482 398.58 586.454 398.309 587.95 398.106C588.086 398.106 588.562 398.106 588.834 397.768C588.834 397.768 589.038 397.429 588.766 396.82C588.154 395.398 581.558 395.737 579.11 395.872Z" fill="#CE8F31"/>
    <path d="M585.366 412.323C584.89 412.323 583.87 412.323 581.83 412.187C580.742 412.12 579.246 412.052 577.342 411.917C577.274 411.917 576.458 411.781 576.05 412.187C575.778 412.526 575.846 413.067 575.982 413.338C576.39 414.421 578.838 414.421 582.306 414.421C583.666 414.421 586.114 414.421 589.582 414.421C589.65 414.421 590.194 414.557 590.466 414.218C590.738 413.88 590.534 413.271 590.262 413C589.922 412.526 589.31 412.526 588.426 412.458C586.59 412.39 585.706 412.323 585.366 412.323Z" fill="#CE8F31"/>
    <path d="M548.104 220.104C548.92 219.021 546.744 216.99 545.52 213.334C544.908 211.507 544.772 210.153 544.568 207.445C544.296 204.06 543.82 197.154 546.812 189.166C547.356 187.609 549.464 182.329 554.359 176.845C557.419 173.392 564.967 164.862 576.934 163.576C589.65 162.222 599.169 169.94 603.249 173.325C605.289 174.949 616.441 184.427 618.685 199.727C620.248 210.559 616.645 220.172 616.373 220.51C616.373 220.51 616.237 220.713 616.237 220.917C616.237 221.187 616.509 221.39 616.645 221.458C617.121 221.797 618.889 222.338 620.656 221.39C620.792 221.323 621.608 220.849 622.288 219.901C623.036 218.818 623.172 217.735 623.24 217.396C623.988 211.574 625.416 207.919 625.348 203.044C625.212 196.477 622.22 180.975 609.097 169.534C605.561 166.419 596.517 158.499 582.918 158.025C564.491 157.348 552.523 170.684 550.211 173.392C547.696 176.236 540.488 184.495 539.128 197.493C537.836 209.882 542.936 219.766 543.072 219.969C543.072 219.969 543.208 220.172 543.276 220.443C543.344 220.646 543.344 220.713 543.344 220.713C543.548 221.187 545.452 220.917 545.452 220.917C547.016 220.51 547.9 220.375 548.104 220.104Z" fill="#AB6F26"/>
    <path d="M542.596 223.015C542.732 224.234 542.324 235.742 545.656 246.777C547.56 253.276 549.532 255.307 550.347 256.12C551.367 257.067 553.067 258.354 557.011 259.843C560.207 260.994 563.947 261.874 576.798 262.551C582.782 262.822 585.842 263.025 590.194 262.822C595.702 262.619 599.101 262.483 603.453 261.332C607.533 260.249 612.225 258.963 615.557 254.901C616.781 253.412 617.325 252.193 618.413 249.756C618.413 249.756 622.832 239.534 622.356 223.218C622.356 222.203 622.22 220.917 622.22 220.917C622.22 220.646 622.152 220.51 622.152 220.443C621.676 219.156 581.218 228.431 554.835 222.88C551.231 222.135 542.528 222 542.528 222.474C542.596 222.744 542.596 222.812 542.596 223.015Z" fill="#AB6F26"/>
    <path d="M563.335 220.781C559.663 220.24 557.351 219.901 557.351 219.901C552.319 219.156 552.455 219.156 551.503 219.021C548.987 218.75 547.831 218.818 545.384 218.344C544.024 218.073 543.344 217.938 542.8 217.802C540.692 217.193 539.672 216.448 538.04 216.719C537.564 216.787 537.156 216.922 536.816 217.193C536.272 217.599 536 218.276 536 218.953C536.068 219.698 536.544 220.307 537.156 220.849C540.08 223.218 543.548 223.624 543.548 223.624C549.939 224.369 556.263 225.385 562.655 225.994C567.415 226.468 566.939 226.536 570.475 226.874C578.362 227.551 580.878 227.077 603.453 226.129C608.281 225.926 612.973 224.775 617.8 224.505C617.8 224.505 619.568 224.369 625.008 222.541C625.416 222.406 626.708 221.932 627.388 220.849C627.728 220.24 627.796 219.766 627.796 219.63C627.796 219.495 627.796 218.818 627.388 218.276C626.912 217.667 626.096 217.599 625.552 217.532C622.628 217.329 620.384 218.073 620.384 218.073C617.936 218.886 615.285 218.818 612.769 219.359C606.037 220.781 594.477 221.255 589.854 221.458C579.178 221.797 568.571 221.526 563.335 220.781Z" fill="#CE8F31"/>
    <path d="M614.129 228.296C612.973 228.837 611.681 228.905 610.457 229.311C607.261 230.327 601.141 231.004 600.053 231.139C591.894 232.019 583.258 231.613 574.214 231.139C569.862 230.936 567.007 230.665 561.363 230.124C556.671 229.65 555.651 229.447 554.699 229.243C553.475 228.905 552.183 228.905 550.959 228.499C550.551 228.363 549.395 227.889 548.443 228.296C547.899 228.499 547.763 228.77 547.695 228.905C547.695 228.905 547.559 229.311 547.695 229.853C548.171 231.613 552.795 232.019 552.795 232.019C559.187 232.561 565.511 233.847 571.902 233.915C581.354 234.05 586.454 234.592 595.361 234.456C596.721 234.456 599.849 234.389 603.929 233.779C605.969 233.508 607.533 233.238 609.573 232.628C613.109 231.545 616.78 229.785 616.78 229.785C616.78 229.785 617.12 229.311 617.12 228.905C617.12 228.499 616.78 228.025 616.508 227.889C615.896 227.416 615.081 227.889 614.129 228.296Z" fill="#CE8F31"/>
    <path d="M591.009 251.448C597.333 251.448 598.285 251.922 604.813 251.448C606.581 251.313 608.893 251.11 611.545 250.772C612.021 250.568 612.293 250.23 612.293 249.824C612.293 249.282 611.681 249.011 611.477 248.876C610.729 248.47 609.845 248.605 609.709 248.605C606.173 249.011 602.501 248.267 598.965 248.537C596.109 248.741 592.029 249.011 586.658 249.079C585.706 249.485 585.638 249.824 585.638 249.959C585.706 250.501 587.134 250.839 588.018 251.042C589.718 251.448 591.009 251.448 591.009 251.448Z" fill="#CE8F31"/>
    <path d="M569.251 247.996C568.027 247.996 566.055 247.928 563.471 247.86C563.267 247.928 562.383 248.131 562.315 248.673C562.247 249.282 563.335 249.824 563.675 250.027C565.239 250.839 566.599 250.771 570.542 250.771C571.222 250.771 571.902 250.771 572.65 250.771C574.622 250.771 577.41 250.771 581.082 250.771C581.422 250.568 581.898 250.23 581.83 249.891C581.762 249.418 580.606 249.214 579.994 249.079C573.194 248.064 569.251 247.996 569.251 247.996Z" fill="#CE8F31"/>
    <path d="M605.969 241.768C605.493 241.768 604.473 241.768 602.433 241.903C601.345 241.971 599.849 242.038 597.945 242.174C597.877 242.174 597.061 242.309 596.653 241.903C596.381 241.565 596.449 241.023 596.585 240.752C596.993 239.669 599.441 239.669 602.909 239.669C604.269 239.669 606.717 239.669 610.185 239.669C610.253 239.669 610.797 239.534 611.069 239.872C611.341 240.211 611.137 240.82 610.865 241.091C610.525 241.565 609.913 241.565 609.029 241.632C607.261 241.7 606.309 241.768 605.969 241.768Z" fill="#CE8F31"/>
    <path d="M579.11 239.872C574.758 240.007 570.406 239.466 566.055 239.33C563.471 239.263 559.595 239.06 554.835 238.857C554.767 238.857 554.155 238.992 553.951 239.466C553.679 239.94 553.883 240.684 554.495 241.091C558.303 241.294 561.363 241.632 563.539 241.835C569.251 242.445 571.086 242.918 575.506 242.986C578.566 243.054 580.946 242.918 582.306 242.783C584.482 242.58 586.454 242.309 587.95 242.106C588.086 242.106 588.562 242.106 588.834 241.768C588.834 241.768 589.038 241.429 588.766 240.82C588.154 239.398 581.558 239.737 579.11 239.872Z" fill="#CE8F31"/>
    <path d="M585.366 256.323C584.89 256.323 583.87 256.323 581.83 256.187C580.742 256.12 579.246 256.052 577.342 255.917C577.274 255.917 576.458 255.781 576.05 256.187C575.778 256.526 575.846 257.067 575.982 257.338C576.39 258.421 578.838 258.421 582.306 258.421C583.666 258.421 586.114 258.421 589.582 258.421C589.65 258.421 590.194 258.557 590.466 258.218C590.738 257.88 590.534 257.271 590.262 257C589.922 256.526 589.31 256.526 588.426 256.458C586.59 256.39 585.706 256.323 585.366 256.323Z" fill="#CE8F31"/>
    <path d="M691.104 220.104C691.92 219.021 689.744 216.99 688.52 213.334C687.908 211.507 687.772 210.153 687.568 207.445C687.296 204.06 686.82 197.154 689.812 189.166C690.356 187.609 692.464 182.329 697.359 176.845C700.419 173.392 707.967 164.862 719.934 163.576C732.65 162.222 742.169 169.94 746.249 173.325C748.289 174.949 759.441 184.427 761.685 199.727C763.248 210.559 759.645 220.172 759.373 220.51C759.373 220.51 759.237 220.713 759.237 220.917C759.237 221.187 759.509 221.39 759.645 221.458C760.121 221.797 761.889 222.338 763.656 221.39C763.792 221.323 764.608 220.849 765.288 219.901C766.036 218.818 766.172 217.735 766.24 217.396C766.988 211.574 768.416 207.919 768.348 203.044C768.212 196.477 765.22 180.975 752.097 169.534C748.561 166.419 739.517 158.499 725.918 158.025C707.491 157.348 695.523 170.684 693.211 173.392C690.696 176.236 683.488 184.495 682.128 197.493C680.836 209.882 685.936 219.766 686.072 219.969C686.072 219.969 686.208 220.172 686.276 220.443C686.344 220.646 686.344 220.713 686.344 220.713C686.548 221.187 688.452 220.917 688.452 220.917C690.016 220.51 690.9 220.375 691.104 220.104Z" fill="#AB6F26"/>
    <path d="M685.596 223.015C685.732 224.234 685.324 235.742 688.656 246.777C690.56 253.276 692.532 255.307 693.347 256.12C694.367 257.067 696.067 258.354 700.011 259.843C703.207 260.994 706.947 261.874 719.798 262.551C725.782 262.822 728.842 263.025 733.194 262.822C738.702 262.619 742.101 262.483 746.453 261.332C750.533 260.249 755.225 258.963 758.557 254.901C759.781 253.412 760.325 252.193 761.413 249.756C761.413 249.756 765.832 239.534 765.356 223.218C765.356 222.203 765.22 220.917 765.22 220.917C765.22 220.646 765.152 220.51 765.152 220.443C764.676 219.156 724.218 228.431 697.835 222.88C694.231 222.135 685.528 222 685.528 222.474C685.596 222.744 685.596 222.812 685.596 223.015Z" fill="#AB6F26"/>
    <path d="M706.335 220.781C702.663 220.24 700.351 219.901 700.351 219.901C695.319 219.156 695.455 219.156 694.503 219.021C691.987 218.75 690.831 218.818 688.384 218.344C687.024 218.073 686.344 217.938 685.8 217.802C683.692 217.193 682.672 216.448 681.04 216.719C680.564 216.787 680.156 216.922 679.816 217.193C679.272 217.599 679 218.276 679 218.953C679.068 219.698 679.544 220.307 680.156 220.849C683.08 223.218 686.548 223.624 686.548 223.624C692.939 224.369 699.263 225.385 705.655 225.994C710.415 226.468 709.939 226.536 713.475 226.874C721.362 227.551 723.878 227.077 746.453 226.129C751.281 225.926 755.973 224.775 760.8 224.505C760.8 224.505 762.568 224.369 768.008 222.541C768.416 222.406 769.708 221.932 770.388 220.849C770.728 220.24 770.796 219.766 770.796 219.63C770.796 219.495 770.796 218.818 770.388 218.276C769.912 217.667 769.096 217.599 768.552 217.532C765.628 217.329 763.384 218.073 763.384 218.073C760.936 218.886 758.285 218.818 755.769 219.359C749.037 220.781 737.477 221.255 732.854 221.458C722.178 221.797 711.571 221.526 706.335 220.781Z" fill="#CE8F31"/>
    <path d="M757.129 228.296C755.973 228.837 754.681 228.905 753.457 229.311C750.261 230.327 744.141 231.004 743.053 231.139C734.894 232.019 726.258 231.613 717.214 231.139C712.862 230.936 710.007 230.665 704.363 230.124C699.671 229.65 698.651 229.447 697.699 229.243C696.475 228.905 695.183 228.905 693.959 228.499C693.551 228.363 692.395 227.889 691.443 228.296C690.899 228.499 690.763 228.77 690.695 228.905C690.695 228.905 690.559 229.311 690.695 229.853C691.171 231.613 695.795 232.019 695.795 232.019C702.187 232.561 708.511 233.847 714.902 233.915C724.354 234.05 729.454 234.592 738.361 234.456C739.721 234.456 742.849 234.389 746.929 233.779C748.969 233.508 750.533 233.238 752.573 232.628C756.109 231.545 759.78 229.785 759.78 229.785C759.78 229.785 760.12 229.311 760.12 228.905C760.12 228.499 759.78 228.025 759.508 227.889C758.896 227.416 758.081 227.889 757.129 228.296Z" fill="#CE8F31"/>
    <path d="M734.009 251.448C740.333 251.448 741.285 251.922 747.813 251.448C749.581 251.313 751.893 251.11 754.545 250.772C755.021 250.568 755.293 250.23 755.293 249.824C755.293 249.282 754.681 249.011 754.477 248.876C753.729 248.47 752.845 248.605 752.709 248.605C749.173 249.011 745.501 248.267 741.965 248.537C739.109 248.741 735.029 249.011 729.658 249.079C728.706 249.485 728.638 249.824 728.638 249.959C728.706 250.501 730.134 250.839 731.018 251.042C732.718 251.448 734.009 251.448 734.009 251.448Z" fill="#CE8F31"/>
    <path d="M712.251 247.996C711.027 247.996 709.055 247.928 706.471 247.86C706.267 247.928 705.383 248.131 705.315 248.673C705.247 249.282 706.335 249.824 706.675 250.027C708.239 250.839 709.599 250.771 713.542 250.771C714.222 250.771 714.902 250.771 715.65 250.771C717.622 250.771 720.41 250.771 724.082 250.771C724.422 250.568 724.898 250.23 724.83 249.891C724.762 249.418 723.606 249.214 722.994 249.079C716.194 248.064 712.251 247.996 712.251 247.996Z" fill="#CE8F31"/>
    <path d="M748.969 241.768C748.493 241.768 747.473 241.768 745.433 241.903C744.345 241.971 742.849 242.038 740.945 242.174C740.877 242.174 740.061 242.309 739.653 241.903C739.381 241.565 739.449 241.023 739.585 240.752C739.993 239.669 742.441 239.669 745.909 239.669C747.269 239.669 749.717 239.669 753.185 239.669C753.253 239.669 753.797 239.534 754.069 239.872C754.341 240.211 754.137 240.82 753.865 241.091C753.525 241.565 752.913 241.565 752.029 241.632C750.261 241.7 749.309 241.768 748.969 241.768Z" fill="#CE8F31"/>
    <path d="M722.11 239.872C717.758 240.007 713.406 239.466 709.055 239.33C706.471 239.263 702.595 239.06 697.835 238.857C697.767 238.857 697.155 238.992 696.951 239.466C696.679 239.94 696.883 240.684 697.495 241.091C701.303 241.294 704.363 241.632 706.539 241.835C712.251 242.445 714.086 242.918 718.506 242.986C721.566 243.054 723.946 242.918 725.306 242.783C727.482 242.58 729.454 242.309 730.95 242.106C731.086 242.106 731.562 242.106 731.834 241.768C731.834 241.768 732.038 241.429 731.766 240.82C731.154 239.398 724.558 239.737 722.11 239.872Z" fill="#CE8F31"/>
    <path d="M728.366 256.323C727.89 256.323 726.87 256.323 724.83 256.187C723.742 256.12 722.246 256.052 720.342 255.917C720.274 255.917 719.458 255.781 719.05 256.187C718.778 256.526 718.846 257.067 718.982 257.338C719.39 258.421 721.838 258.421 725.306 258.421C726.666 258.421 729.114 258.421 732.582 258.421C732.65 258.421 733.194 258.557 733.466 258.218C733.738 257.88 733.534 257.271 733.262 257C732.922 256.526 732.31 256.526 731.426 256.458C729.59 256.39 728.706 256.323 728.366 256.323Z" fill="#CE8F31"/>
</svg>
