<svg width="870" height="540" viewBox="0 0 870 540" fill="none" xmlns="http://www.w3.org/2000/svg">
<rect x="2.5" y="2.5" width="865" height="534.4" rx="77.5" fill="#F3F3F3" stroke="#83C1CA" stroke-width="5"/>
<path d="M487.104 366.104C487.92 365.021 485.744 362.99 484.52 359.334C483.908 357.507 483.772 356.153 483.568 353.445C483.296 350.06 482.82 343.154 485.812 335.166C486.356 333.609 488.464 328.329 493.359 322.845C496.419 319.392 503.967 310.862 515.934 309.576C528.65 308.222 538.169 315.94 542.249 319.325C544.289 320.949 555.441 330.427 557.685 345.727C559.248 356.559 555.645 366.172 555.373 366.51C555.373 366.51 555.237 366.713 555.237 366.917C555.237 367.187 555.509 367.39 555.645 367.458C556.121 367.797 557.889 368.338 559.656 367.39C559.792 367.323 560.608 366.849 561.288 365.901C562.036 364.818 562.172 363.735 562.24 363.396C562.988 357.574 564.416 353.919 564.348 349.044C564.212 342.477 561.22 326.975 548.097 315.534C544.561 312.419 535.517 304.499 521.918 304.025C503.491 303.348 491.523 316.684 489.211 319.392C486.696 322.236 479.488 330.495 478.128 343.493C476.836 355.882 481.936 365.766 482.072 365.969C482.072 365.969 482.208 366.172 482.276 366.443C482.344 366.646 482.344 366.713 482.344 366.713C482.548 367.187 484.452 366.917 484.452 366.917C486.016 366.51 486.9 366.375 487.104 366.104Z" fill="#AB6F26"/>
<path d="M481.596 369.015C481.732 370.234 481.324 381.742 484.656 392.777C486.56 399.276 488.532 401.307 489.347 402.12C490.367 403.067 492.067 404.354 496.011 405.843C499.207 406.994 502.947 407.874 515.798 408.551C521.782 408.822 524.842 409.025 529.194 408.822C534.702 408.619 538.101 408.483 542.453 407.332C546.533 406.249 551.225 404.963 554.557 400.901C555.781 399.412 556.325 398.193 557.413 395.756C557.413 395.756 561.832 385.534 561.356 369.218C561.356 368.203 561.22 366.917 561.22 366.917C561.22 366.646 561.152 366.51 561.152 366.443C560.676 365.156 520.218 374.431 493.835 368.88C490.231 368.135 481.528 368 481.528 368.474C481.596 368.744 481.596 368.812 481.596 369.015Z" fill="#AB6F26"/>
<path d="M502.335 366.781C498.663 366.24 496.351 365.901 496.351 365.901C491.319 365.156 491.455 365.156 490.503 365.021C487.987 364.75 486.831 364.818 484.384 364.344C483.024 364.073 482.344 363.938 481.8 363.802C479.692 363.193 478.672 362.448 477.04 362.719C476.564 362.787 476.156 362.922 475.816 363.193C475.272 363.599 475 364.276 475 364.953C475.068 365.698 475.544 366.307 476.156 366.849C479.08 369.218 482.548 369.624 482.548 369.624C488.939 370.369 495.263 371.385 501.655 371.994C506.415 372.468 505.939 372.536 509.475 372.874C517.362 373.551 519.878 373.077 542.453 372.129C547.281 371.926 551.973 370.775 556.8 370.505C556.8 370.505 558.568 370.369 564.008 368.541C564.416 368.406 565.708 367.932 566.388 366.849C566.728 366.24 566.796 365.766 566.796 365.63C566.796 365.495 566.796 364.818 566.388 364.276C565.912 363.667 565.096 363.599 564.552 363.532C561.628 363.329 559.384 364.073 559.384 364.073C556.936 364.886 554.285 364.818 551.769 365.359C545.037 366.781 533.477 367.255 528.854 367.458C518.178 367.797 507.571 367.526 502.335 366.781Z" fill="#CE8F31"/>
<path d="M553.129 374.296C551.973 374.837 550.681 374.905 549.457 375.311C546.261 376.327 540.141 377.004 539.053 377.139C530.894 378.019 522.258 377.613 513.214 377.139C508.862 376.936 506.007 376.665 500.363 376.124C495.671 375.65 494.651 375.447 493.699 375.243C492.475 374.905 491.183 374.905 489.959 374.499C489.551 374.363 488.395 373.889 487.443 374.296C486.899 374.499 486.763 374.77 486.695 374.905C486.695 374.905 486.559 375.311 486.695 375.853C487.171 377.613 491.795 378.019 491.795 378.019C498.187 378.561 504.511 379.847 510.902 379.915C520.354 380.05 525.454 380.592 534.361 380.456C535.721 380.456 538.849 380.389 542.929 379.779C544.969 379.508 546.533 379.238 548.573 378.628C552.109 377.545 555.78 375.785 555.78 375.785C555.78 375.785 556.12 375.311 556.12 374.905C556.12 374.499 555.78 374.025 555.508 373.889C554.896 373.416 554.081 373.889 553.129 374.296Z" fill="#CE8F31"/>
<path d="M530.009 397.448C536.333 397.448 537.285 397.922 543.813 397.448C545.581 397.313 547.893 397.11 550.545 396.772C551.021 396.568 551.293 396.23 551.293 395.824C551.293 395.282 550.681 395.011 550.477 394.876C549.729 394.47 548.845 394.605 548.709 394.605C545.173 395.011 541.501 394.267 537.965 394.537C535.109 394.741 531.029 395.011 525.658 395.079C524.706 395.485 524.638 395.824 524.638 395.959C524.706 396.501 526.134 396.839 527.018 397.042C528.718 397.448 530.009 397.448 530.009 397.448Z" fill="#CE8F31"/>
<path d="M508.251 393.996C507.027 393.996 505.055 393.928 502.471 393.86C502.267 393.928 501.383 394.131 501.315 394.673C501.247 395.282 502.335 395.824 502.675 396.027C504.239 396.839 505.599 396.771 509.542 396.771C510.222 396.771 510.902 396.771 511.65 396.771C513.622 396.771 516.41 396.771 520.082 396.771C520.422 396.568 520.898 396.23 520.83 395.891C520.762 395.418 519.606 395.214 518.994 395.079C512.194 394.064 508.251 393.996 508.251 393.996Z" fill="#CE8F31"/>
<path d="M544.969 387.768C544.493 387.768 543.473 387.768 541.433 387.903C540.345 387.971 538.849 388.038 536.945 388.174C536.877 388.174 536.061 388.309 535.653 387.903C535.381 387.565 535.449 387.023 535.585 386.752C535.993 385.669 538.441 385.669 541.909 385.669C543.269 385.669 545.717 385.669 549.185 385.669C549.253 385.669 549.797 385.534 550.069 385.872C550.341 386.211 550.137 386.82 549.865 387.091C549.525 387.565 548.913 387.565 548.029 387.632C546.261 387.7 545.309 387.768 544.969 387.768Z" fill="#CE8F31"/>
<path d="M518.11 385.872C513.758 386.007 509.406 385.466 505.055 385.33C502.471 385.263 498.595 385.06 493.835 384.857C493.767 384.857 493.155 384.992 492.951 385.466C492.679 385.94 492.883 386.684 493.495 387.091C497.303 387.294 500.363 387.632 502.539 387.835C508.251 388.445 510.086 388.918 514.506 388.986C517.566 389.054 519.946 388.918 521.306 388.783C523.482 388.58 525.454 388.309 526.95 388.106C527.086 388.106 527.562 388.106 527.834 387.768C527.834 387.768 528.038 387.429 527.766 386.82C527.154 385.398 520.558 385.737 518.11 385.872Z" fill="#CE8F31"/>
<path d="M524.366 402.323C523.89 402.323 522.87 402.323 520.83 402.187C519.742 402.12 518.246 402.052 516.342 401.917C516.274 401.917 515.458 401.781 515.05 402.187C514.778 402.526 514.846 403.067 514.982 403.338C515.39 404.421 517.838 404.421 521.306 404.421C522.666 404.421 525.114 404.421 528.582 404.421C528.65 404.421 529.194 404.557 529.466 404.218C529.738 403.88 529.534 403.271 529.262 403C528.922 402.526 528.31 402.526 527.426 402.458C525.59 402.39 524.706 402.323 524.366 402.323Z" fill="#CE8F31"/>
<path d="M630.104 366.104C630.92 365.021 628.744 362.99 627.52 359.334C626.908 357.507 626.772 356.153 626.568 353.445C626.296 350.06 625.82 343.154 628.812 335.166C629.356 333.609 631.464 328.329 636.359 322.845C639.419 319.392 646.967 310.862 658.934 309.576C671.65 308.222 681.169 315.94 685.249 319.325C687.289 320.949 698.441 330.427 700.685 345.727C702.248 356.559 698.645 366.172 698.373 366.51C698.373 366.51 698.237 366.713 698.237 366.917C698.237 367.187 698.509 367.39 698.645 367.458C699.121 367.797 700.889 368.338 702.656 367.39C702.792 367.323 703.608 366.849 704.288 365.901C705.036 364.818 705.172 363.735 705.24 363.396C705.988 357.574 707.416 353.919 707.348 349.044C707.212 342.477 704.22 326.975 691.097 315.534C687.561 312.419 678.517 304.499 664.918 304.025C646.491 303.348 634.523 316.684 632.211 319.392C629.696 322.236 622.488 330.495 621.128 343.493C619.836 355.882 624.936 365.766 625.072 365.969C625.072 365.969 625.208 366.172 625.276 366.443C625.344 366.646 625.344 366.713 625.344 366.713C625.548 367.187 627.452 366.917 627.452 366.917C629.016 366.51 629.9 366.375 630.104 366.104Z" fill="#AB6F26"/>
<path d="M624.596 369.015C624.732 370.234 624.324 381.742 627.656 392.777C629.56 399.276 631.532 401.307 632.347 402.12C633.367 403.067 635.067 404.354 639.011 405.843C642.207 406.994 645.947 407.874 658.798 408.551C664.782 408.822 667.842 409.025 672.194 408.822C677.702 408.619 681.101 408.483 685.453 407.332C689.533 406.249 694.225 404.963 697.557 400.901C698.781 399.412 699.325 398.193 700.413 395.756C700.413 395.756 704.832 385.534 704.356 369.218C704.356 368.203 704.22 366.917 704.22 366.917C704.22 366.646 704.152 366.51 704.152 366.443C703.676 365.156 663.218 374.431 636.835 368.88C633.231 368.135 624.528 368 624.528 368.474C624.596 368.744 624.596 368.812 624.596 369.015Z" fill="#AB6F26"/>
<path d="M645.335 366.781C641.663 366.24 639.351 365.901 639.351 365.901C634.319 365.156 634.455 365.156 633.503 365.021C630.987 364.75 629.831 364.818 627.384 364.344C626.024 364.073 625.344 363.938 624.8 363.802C622.692 363.193 621.672 362.448 620.04 362.719C619.564 362.787 619.156 362.922 618.816 363.193C618.272 363.599 618 364.276 618 364.953C618.068 365.698 618.544 366.307 619.156 366.849C622.08 369.218 625.548 369.624 625.548 369.624C631.939 370.369 638.263 371.385 644.655 371.994C649.415 372.468 648.939 372.536 652.475 372.874C660.362 373.551 662.878 373.077 685.453 372.129C690.281 371.926 694.973 370.775 699.8 370.505C699.8 370.505 701.568 370.369 707.008 368.541C707.416 368.406 708.708 367.932 709.388 366.849C709.728 366.24 709.796 365.766 709.796 365.63C709.796 365.495 709.796 364.818 709.388 364.276C708.912 363.667 708.096 363.599 707.552 363.532C704.628 363.329 702.384 364.073 702.384 364.073C699.936 364.886 697.285 364.818 694.769 365.359C688.037 366.781 676.477 367.255 671.854 367.458C661.178 367.797 650.571 367.526 645.335 366.781Z" fill="#CE8F31"/>
<path d="M696.129 374.296C694.973 374.837 693.681 374.905 692.457 375.311C689.261 376.327 683.141 377.004 682.053 377.139C673.894 378.019 665.258 377.613 656.214 377.139C651.862 376.936 649.007 376.665 643.363 376.124C638.671 375.65 637.651 375.447 636.699 375.243C635.475 374.905 634.183 374.905 632.959 374.499C632.551 374.363 631.395 373.889 630.443 374.296C629.899 374.499 629.763 374.77 629.695 374.905C629.695 374.905 629.559 375.311 629.695 375.853C630.171 377.613 634.795 378.019 634.795 378.019C641.187 378.561 647.511 379.847 653.902 379.915C663.354 380.05 668.454 380.592 677.361 380.456C678.721 380.456 681.849 380.389 685.929 379.779C687.969 379.508 689.533 379.238 691.573 378.628C695.109 377.545 698.78 375.785 698.78 375.785C698.78 375.785 699.12 375.311 699.12 374.905C699.12 374.499 698.78 374.025 698.508 373.889C697.896 373.416 697.081 373.889 696.129 374.296Z" fill="#CE8F31"/>
<path d="M673.009 397.448C679.333 397.448 680.285 397.922 686.813 397.448C688.581 397.313 690.893 397.11 693.545 396.772C694.021 396.568 694.293 396.23 694.293 395.824C694.293 395.282 693.681 395.011 693.477 394.876C692.729 394.47 691.845 394.605 691.709 394.605C688.173 395.011 684.501 394.267 680.965 394.537C678.109 394.741 674.029 395.011 668.658 395.079C667.706 395.485 667.638 395.824 667.638 395.959C667.706 396.501 669.134 396.839 670.018 397.042C671.718 397.448 673.009 397.448 673.009 397.448Z" fill="#CE8F31"/>
<path d="M651.251 393.996C650.027 393.996 648.055 393.928 645.471 393.86C645.267 393.928 644.383 394.131 644.315 394.673C644.247 395.282 645.335 395.824 645.675 396.027C647.239 396.839 648.599 396.771 652.542 396.771C653.222 396.771 653.902 396.771 654.65 396.771C656.622 396.771 659.41 396.771 663.082 396.771C663.422 396.568 663.898 396.23 663.83 395.891C663.762 395.418 662.606 395.214 661.994 395.079C655.194 394.064 651.251 393.996 651.251 393.996Z" fill="#CE8F31"/>
<path d="M687.969 387.768C687.493 387.768 686.473 387.768 684.433 387.903C683.345 387.971 681.849 388.038 679.945 388.174C679.877 388.174 679.061 388.309 678.653 387.903C678.381 387.565 678.449 387.023 678.585 386.752C678.993 385.669 681.441 385.669 684.909 385.669C686.269 385.669 688.717 385.669 692.185 385.669C692.253 385.669 692.797 385.534 693.069 385.872C693.341 386.211 693.137 386.82 692.865 387.091C692.525 387.565 691.913 387.565 691.029 387.632C689.261 387.7 688.309 387.768 687.969 387.768Z" fill="#CE8F31"/>
<path d="M661.11 385.872C656.758 386.007 652.406 385.466 648.055 385.33C645.471 385.263 641.595 385.06 636.835 384.857C636.767 384.857 636.155 384.992 635.951 385.466C635.679 385.94 635.883 386.684 636.495 387.091C640.303 387.294 643.363 387.632 645.539 387.835C651.251 388.445 653.086 388.918 657.506 388.986C660.566 389.054 662.946 388.918 664.306 388.783C666.482 388.58 668.454 388.309 669.95 388.106C670.086 388.106 670.562 388.106 670.834 387.768C670.834 387.768 671.038 387.429 670.766 386.82C670.154 385.398 663.558 385.737 661.11 385.872Z" fill="#CE8F31"/>
<path d="M667.366 402.323C666.89 402.323 665.87 402.323 663.83 402.187C662.742 402.12 661.246 402.052 659.342 401.917C659.274 401.917 658.458 401.781 658.05 402.187C657.778 402.526 657.846 403.067 657.982 403.338C658.39 404.421 660.838 404.421 664.306 404.421C665.666 404.421 668.114 404.421 671.582 404.421C671.65 404.421 672.194 404.557 672.466 404.218C672.738 403.88 672.534 403.271 672.262 403C671.922 402.526 671.31 402.526 670.426 402.458C668.59 402.39 667.706 402.323 667.366 402.323Z" fill="#CE8F31"/>
<path d="M556.104 210.104C556.92 209.021 554.744 206.99 553.52 203.334C552.908 201.507 552.772 200.153 552.568 197.445C552.296 194.06 551.82 187.154 554.812 179.166C555.356 177.609 557.464 172.329 562.359 166.845C565.419 163.392 572.967 154.862 584.934 153.576C597.65 152.222 607.169 159.94 611.249 163.325C613.289 164.949 624.441 174.427 626.685 189.727C628.248 200.559 624.645 210.172 624.373 210.51C624.373 210.51 624.237 210.713 624.237 210.917C624.237 211.187 624.509 211.39 624.645 211.458C625.121 211.797 626.889 212.338 628.656 211.39C628.792 211.323 629.608 210.849 630.288 209.901C631.036 208.818 631.172 207.735 631.24 207.396C631.988 201.574 633.416 197.919 633.348 193.044C633.212 186.477 630.22 170.975 617.097 159.534C613.561 156.419 604.517 148.499 590.918 148.025C572.491 147.348 560.523 160.684 558.211 163.392C555.696 166.236 548.488 174.495 547.128 187.493C545.836 199.882 550.936 209.766 551.072 209.969C551.072 209.969 551.208 210.172 551.276 210.443C551.344 210.646 551.344 210.713 551.344 210.713C551.548 211.187 553.452 210.917 553.452 210.917C555.016 210.51 555.9 210.375 556.104 210.104Z" fill="#AB6F26"/>
<path d="M550.596 213.015C550.732 214.234 550.324 225.742 553.656 236.777C555.56 243.276 557.532 245.307 558.347 246.12C559.367 247.067 561.067 248.354 565.011 249.843C568.207 250.994 571.947 251.874 584.798 252.551C590.782 252.822 593.842 253.025 598.194 252.822C603.702 252.619 607.101 252.483 611.453 251.332C615.533 250.249 620.225 248.963 623.557 244.901C624.781 243.412 625.325 242.193 626.413 239.756C626.413 239.756 630.832 229.534 630.356 213.218C630.356 212.203 630.22 210.917 630.22 210.917C630.22 210.646 630.152 210.51 630.152 210.443C629.676 209.156 589.218 218.431 562.835 212.88C559.231 212.135 550.528 212 550.528 212.474C550.596 212.744 550.596 212.812 550.596 213.015Z" fill="#AB6F26"/>
<path d="M571.335 210.781C567.663 210.24 565.351 209.901 565.351 209.901C560.319 209.156 560.455 209.156 559.503 209.021C556.987 208.75 555.831 208.818 553.384 208.344C552.024 208.073 551.344 207.938 550.8 207.802C548.692 207.193 547.672 206.448 546.04 206.719C545.564 206.787 545.156 206.922 544.816 207.193C544.272 207.599 544 208.276 544 208.953C544.068 209.698 544.544 210.307 545.156 210.849C548.08 213.218 551.548 213.624 551.548 213.624C557.939 214.369 564.263 215.385 570.655 215.994C575.415 216.468 574.939 216.536 578.475 216.874C586.362 217.551 588.878 217.077 611.453 216.129C616.281 215.926 620.973 214.775 625.8 214.505C625.8 214.505 627.568 214.369 633.008 212.541C633.416 212.406 634.708 211.932 635.388 210.849C635.728 210.24 635.796 209.766 635.796 209.63C635.796 209.495 635.796 208.818 635.388 208.276C634.912 207.667 634.096 207.599 633.552 207.532C630.628 207.329 628.384 208.073 628.384 208.073C625.936 208.886 623.285 208.818 620.769 209.359C614.037 210.781 602.477 211.255 597.854 211.458C587.178 211.797 576.571 211.526 571.335 210.781Z" fill="#CE8F31"/>
<path d="M622.129 218.296C620.973 218.837 619.681 218.905 618.457 219.311C615.261 220.327 609.141 221.004 608.053 221.139C599.894 222.019 591.258 221.613 582.214 221.139C577.862 220.936 575.007 220.665 569.363 220.124C564.671 219.65 563.651 219.447 562.699 219.243C561.475 218.905 560.183 218.905 558.959 218.499C558.551 218.363 557.395 217.889 556.443 218.296C555.899 218.499 555.763 218.77 555.695 218.905C555.695 218.905 555.559 219.311 555.695 219.853C556.171 221.613 560.795 222.019 560.795 222.019C567.187 222.561 573.511 223.847 579.902 223.915C589.354 224.05 594.454 224.592 603.361 224.456C604.721 224.456 607.849 224.389 611.929 223.779C613.969 223.508 615.533 223.238 617.573 222.628C621.109 221.545 624.78 219.785 624.78 219.785C624.78 219.785 625.12 219.311 625.12 218.905C625.12 218.499 624.78 218.025 624.508 217.889C623.896 217.416 623.081 217.889 622.129 218.296Z" fill="#CE8F31"/>
<path d="M599.009 241.448C605.333 241.448 606.285 241.922 612.813 241.448C614.581 241.313 616.893 241.11 619.545 240.772C620.021 240.568 620.293 240.23 620.293 239.824C620.293 239.282 619.681 239.011 619.477 238.876C618.729 238.47 617.845 238.605 617.709 238.605C614.173 239.011 610.501 238.267 606.965 238.537C604.109 238.741 600.029 239.011 594.658 239.079C593.706 239.485 593.638 239.824 593.638 239.959C593.706 240.501 595.134 240.839 596.018 241.042C597.718 241.448 599.009 241.448 599.009 241.448Z" fill="#CE8F31"/>
<path d="M577.251 237.996C576.027 237.996 574.055 237.928 571.471 237.86C571.267 237.928 570.383 238.131 570.315 238.673C570.247 239.282 571.335 239.824 571.675 240.027C573.239 240.839 574.599 240.771 578.542 240.771C579.222 240.771 579.902 240.771 580.65 240.771C582.622 240.771 585.41 240.771 589.082 240.771C589.422 240.568 589.898 240.23 589.83 239.891C589.762 239.418 588.606 239.214 587.994 239.079C581.194 238.064 577.251 237.996 577.251 237.996Z" fill="#CE8F31"/>
<path d="M613.969 231.768C613.493 231.768 612.473 231.768 610.433 231.903C609.345 231.971 607.849 232.038 605.945 232.174C605.877 232.174 605.061 232.309 604.653 231.903C604.381 231.565 604.449 231.023 604.585 230.752C604.993 229.669 607.441 229.669 610.909 229.669C612.269 229.669 614.717 229.669 618.185 229.669C618.253 229.669 618.797 229.534 619.069 229.872C619.341 230.211 619.137 230.82 618.865 231.091C618.525 231.565 617.913 231.565 617.029 231.632C615.261 231.7 614.309 231.768 613.969 231.768Z" fill="#CE8F31"/>
<path d="M587.11 229.872C582.758 230.007 578.406 229.466 574.055 229.33C571.471 229.263 567.595 229.06 562.835 228.857C562.767 228.857 562.155 228.992 561.951 229.466C561.679 229.94 561.883 230.684 562.495 231.091C566.303 231.294 569.363 231.632 571.539 231.835C577.251 232.445 579.086 232.918 583.506 232.986C586.566 233.054 588.946 232.918 590.306 232.783C592.482 232.58 594.454 232.309 595.95 232.106C596.086 232.106 596.562 232.106 596.834 231.768C596.834 231.768 597.038 231.429 596.766 230.82C596.154 229.398 589.558 229.737 587.11 229.872Z" fill="#CE8F31"/>
<path d="M593.366 246.323C592.89 246.323 591.87 246.323 589.83 246.187C588.742 246.12 587.246 246.052 585.342 245.917C585.274 245.917 584.458 245.781 584.05 246.187C583.778 246.526 583.846 247.067 583.982 247.338C584.39 248.421 586.838 248.421 590.306 248.421C591.666 248.421 594.114 248.421 597.582 248.421C597.65 248.421 598.194 248.557 598.466 248.218C598.738 247.88 598.534 247.271 598.262 247C597.922 246.526 597.31 246.526 596.426 246.458C594.59 246.39 593.706 246.323 593.366 246.323Z" fill="#CE8F31"/>
<path d="M193.868 319.834C193.868 308.82 194.009 308.259 193.939 301.664C193.939 293.737 193.656 288.686 193.868 282.513C193.868 281.882 193.868 281.461 193.939 280.619C194.151 272.341 193.868 270.728 193.656 269.886C193.374 268.623 192.809 267.501 191.749 265.256C189.7 260.836 187.369 257.329 186.663 256.347C183.201 251.717 174.3 249.472 166.035 249.542C162.22 249.542 158.547 250.033 155.509 250.945C152.472 250.033 148.798 249.542 144.984 249.542C136.719 249.472 127.818 251.717 124.356 256.347C123.65 257.329 121.319 260.836 119.27 265.256C118.21 267.431 117.716 268.553 117.363 269.816C117.151 270.728 116.868 272.341 117.08 280.549C117.08 281.391 117.08 281.812 117.151 282.443C117.363 288.616 117.151 293.737 117.08 301.594C117.08 308.188 117.221 308.75 117.151 319.763C117.151 321.166 117.151 322.499 117.151 323.902C117.08 329.094 116.727 333.373 117.433 338.634C117.575 339.757 117.786 340.879 118.564 342.072C118.917 342.563 119.27 342.983 119.623 343.334C120.895 344.878 122.59 345.93 123.791 346C123.932 346 124.356 346 124.921 346H125.063H125.698C126.264 346 126.687 346 126.829 346H184.261C184.402 346 184.826 346 185.391 346H186.027H186.168C186.733 346 187.157 346 187.298 346C188.499 345.93 190.195 344.878 191.466 343.334C191.89 342.983 192.243 342.563 192.526 342.072C193.303 340.879 193.515 339.757 193.656 338.634C194.363 333.373 194.009 329.094 193.939 323.902C193.797 322.569 193.868 321.166 193.868 319.834Z" fill="#C890A7"/>
<path d="M187.722 258.872H123.155C120.4 258.872 118.14 256.627 118.14 253.891V248.981C118.069 246.245 120.33 244 123.155 244H187.722C190.477 244 192.738 246.245 192.738 248.981V253.891C192.738 256.627 190.477 258.872 187.722 258.872Z" fill="#8A8C95"/>
<path d="M190.407 312.678C190.407 300.472 190.548 299.84 190.477 292.545C190.477 283.776 190.265 278.164 190.407 271.289C190.407 271.219 189.559 269.956 189.347 269.395C188.923 268.974 188.217 268.342 187.298 267.781C184.19 265.957 180.729 266.168 176.561 266.519C174.795 266.659 174.23 266.869 170.344 267.22C167.801 267.431 166.883 267.501 165.823 267.431C164.269 267.29 164.128 267.08 160.949 266.519C158.194 265.957 156.781 265.677 155.156 265.677C153.249 265.607 151.765 265.817 150.282 266.098C147.88 266.448 147.456 266.939 144.984 267.29C144.277 267.36 143.006 267.571 141.381 267.501C139.191 267.431 137.99 267.01 136.436 266.659C135.659 266.519 130.714 265.466 125.628 266.869C125.628 266.869 123.438 267.501 121.884 268.974C121.601 269.254 120.542 270.237 120.612 271.359C120.753 278.094 120.542 283.776 120.542 292.475C120.542 299.77 120.612 300.402 120.612 312.608C120.612 314.151 120.612 315.624 120.612 317.168C120.542 322.92 120.259 327.69 120.824 333.443C120.965 334.635 121.107 335.898 121.813 337.231C122.096 337.792 122.449 338.283 122.802 338.634C123.932 340.388 125.486 341.51 126.546 341.58C126.617 341.58 127.041 341.58 127.535 341.58H127.676H128.242C128.736 341.58 129.089 341.58 129.231 341.58H181.506C181.647 341.58 182 341.58 182.495 341.58H183.06H183.201C183.696 341.58 184.12 341.58 184.19 341.58C185.32 341.51 186.804 340.388 187.934 338.634C188.287 338.213 188.641 337.722 188.923 337.231C189.63 335.898 189.771 334.635 189.912 333.443C190.548 327.62 190.195 322.92 190.124 317.168C190.336 315.695 190.407 314.151 190.407 312.678Z" fill="#B44276"/>
<path d="M184.755 319.202V288.055C182.212 288.055 180.164 286.371 180.164 284.337H130.714C130.714 286.371 128.665 288.055 126.122 288.055V319.272C128.665 319.272 130.714 320.956 130.714 322.99H180.164C180.164 320.886 182.212 319.202 184.755 319.202Z" fill="#F3F3F3"/>
<path opacity="0.39" d="M128.524 333.373V283.565C128.524 281.391 130.361 279.567 132.551 279.567C134.74 279.567 136.577 281.391 136.577 283.565V333.443C136.577 335.618 134.74 337.442 132.551 337.442C130.29 337.371 128.524 335.618 128.524 333.373Z" fill="#F3F3F3"/>
<path opacity="0.39" d="M128.524 271.99V267.15C128.524 264.975 130.361 263.151 132.551 263.151C134.74 263.151 136.577 264.975 136.577 267.15V271.99C136.577 274.165 134.74 275.989 132.551 275.989C130.29 275.989 128.524 274.165 128.524 271.99Z" fill="#F3F3F3"/>
<path d="M163.009 312C167.98 312 172.009 307.971 172.009 303C172.009 298.029 167.98 294 163.009 294C158.039 294 154.009 298.029 154.009 303C154.009 307.971 158.039 312 163.009 312Z" fill="#B32646"/>
<path d="M165.109 304.95C164.659 305.4 164.059 305.4 163.609 304.95L160.759 302.25C160.309 301.8 160.309 301.2 160.759 300.75C161.209 300.3 161.809 300.3 162.259 300.75L165.109 303.45C165.559 303.9 165.559 304.65 165.109 304.95Z" fill="#6C1626"/>
<path d="M164.959 300.75C165.409 301.2 165.409 301.8 164.959 302.25L162.409 305.1C161.959 305.55 161.359 305.55 160.909 305.1C160.459 304.65 160.459 304.05 160.909 303.6L163.609 300.75C163.909 300.45 164.509 300.45 164.959 300.75Z" fill="#6C1626"/>
<path d="M149.509 309C155.308 309 160.009 304.299 160.009 298.5C160.009 292.701 155.308 288 149.509 288C143.71 288 139.009 292.701 139.009 298.5C139.009 304.299 143.71 309 149.509 309Z" fill="#B32646"/>
<path d="M151.959 300.775C151.434 301.3 150.734 301.3 150.209 300.775L146.884 297.625C146.359 297.1 146.359 296.4 146.884 295.875C147.409 295.35 148.109 295.35 148.634 295.875L151.959 299.025C152.484 299.55 152.484 300.425 151.959 300.775Z" fill="#6C1626"/>
<path d="M151.784 295.875C152.309 296.4 152.309 297.1 151.784 297.625L148.809 300.95C148.284 301.475 147.584 301.475 147.059 300.95C146.534 300.425 146.534 299.725 147.059 299.2L150.209 295.875C150.559 295.525 151.259 295.525 151.784 295.875Z" fill="#6C1626"/>
<path d="M145.309 293.6C145.834 293.25 146.709 292.55 147.409 292.025C147.584 291.85 147.934 291.675 147.934 291.325C147.934 291.325 148.109 290.625 147.759 290.275C147.409 289.925 146.709 289.925 146.534 289.925C146.359 289.925 146.009 290.1 145.659 290.275C145.134 290.625 144.959 290.8 144.784 290.975C144.084 291.5 143.734 291.85 143.209 292.2C142.509 292.9 142.159 293.425 141.984 293.6C141.634 294.125 141.284 294.65 140.759 295.7C140.409 296.225 140.234 296.75 140.234 297.45C140.234 297.8 140.409 297.975 140.409 298.15C140.759 298.5 141.109 298.5 141.284 298.5C141.634 298.5 141.984 298.325 141.984 298.325C142.334 298.15 142.334 297.8 142.684 297.275C142.859 296.75 142.859 296.75 143.034 296.225C143.034 296.05 143.209 295.875 143.559 295.35C144.084 294.65 144.609 294.125 145.309 293.6Z" fill="#C8637A"/>
<path d="M154.009 319C158.428 319 162.009 315.418 162.009 311C162.009 306.582 158.428 303 154.009 303C149.591 303 146.009 306.582 146.009 311C146.009 315.418 149.591 319 154.009 319Z" fill="#761F36"/>
<path d="M156.009 312.875C155.634 313.25 155.134 313.25 154.759 312.875L152.259 310.5C151.884 310.125 151.884 309.625 152.259 309.25C152.634 308.875 153.134 308.875 153.509 309.25L156.009 311.625C156.259 311.875 156.259 312.5 156.009 312.875Z" fill="#49131F"/>
<path d="M155.759 309.125C156.134 309.5 156.134 310 155.759 310.375L153.384 312.875C153.009 313.25 152.509 313.25 152.134 312.875C151.759 312.5 151.759 312 152.134 311.625L154.509 309.125C154.884 308.75 155.384 308.75 155.759 309.125Z" fill="#49131F"/>
<path d="M150.759 307.25C151.134 306.875 151.759 306.5 152.384 306C152.509 305.875 152.759 305.75 152.884 305.5C152.884 305.5 153.009 305 152.759 304.75C152.509 304.375 152.009 304.5 151.884 304.5C151.759 304.5 151.509 304.625 151.259 304.875C150.884 305.125 150.634 305.25 150.634 305.375C150.134 305.875 149.759 306 149.509 306.375C149.009 306.875 148.634 307.25 148.634 307.375C148.384 307.75 148.134 308.125 147.759 308.875C147.509 309.375 147.384 309.75 147.384 310.125C147.384 310.375 147.509 310.5 147.509 310.625C147.759 310.875 148.009 310.875 148.134 310.875C148.384 310.875 148.634 310.75 148.634 310.75C148.884 310.625 149.009 310.375 149.134 310C149.259 309.625 149.259 309.5 149.384 309.25C149.384 309.125 149.509 308.875 149.884 308.625C149.884 308.125 150.259 307.75 150.759 307.25Z" fill="#A05062"/>
<path d="M333.868 319.834C333.868 308.82 334.009 308.259 333.939 301.664C333.939 293.737 333.656 288.686 333.868 282.513C333.868 281.882 333.868 281.461 333.939 280.619C334.151 272.341 333.868 270.728 333.656 269.886C333.374 268.623 332.809 267.501 331.749 265.256C329.7 260.836 327.369 257.329 326.663 256.347C323.201 251.717 314.3 249.472 306.035 249.542C302.22 249.542 298.547 250.033 295.509 250.945C292.472 250.033 288.798 249.542 284.984 249.542C276.719 249.472 267.818 251.717 264.356 256.347C263.65 257.329 261.319 260.836 259.27 265.256C258.21 267.431 257.716 268.553 257.363 269.816C257.151 270.728 256.868 272.341 257.08 280.549C257.08 281.391 257.08 281.812 257.151 282.443C257.363 288.616 257.151 293.737 257.08 301.594C257.08 308.188 257.221 308.75 257.151 319.763C257.151 321.166 257.151 322.499 257.151 323.902C257.08 329.094 256.727 333.373 257.433 338.634C257.575 339.757 257.786 340.879 258.564 342.072C258.917 342.563 259.27 342.983 259.623 343.334C260.895 344.878 262.59 345.93 263.791 346C263.932 346 264.356 346 264.921 346H265.063H265.698C266.264 346 266.687 346 266.829 346H324.261C324.402 346 324.826 346 325.391 346H326.027H326.168C326.733 346 327.157 346 327.298 346C328.499 345.93 330.195 344.878 331.466 343.334C331.89 342.983 332.243 342.563 332.526 342.072C333.303 340.879 333.515 339.757 333.656 338.634C334.363 333.373 334.009 329.094 333.939 323.902C333.797 322.569 333.868 321.166 333.868 319.834Z" fill="#C890A7"/>
<path d="M327.722 258.872H263.155C260.4 258.872 258.14 256.627 258.14 253.891V248.981C258.069 246.245 260.33 244 263.155 244H327.722C330.477 244 332.738 246.245 332.738 248.981V253.891C332.738 256.627 330.477 258.872 327.722 258.872Z" fill="#8A8C95"/>
<path d="M330.407 312.678C330.407 300.472 330.548 299.84 330.477 292.545C330.477 283.776 330.265 278.164 330.407 271.289C330.407 271.219 329.559 269.956 329.347 269.395C328.923 268.974 328.217 268.342 327.298 267.781C324.19 265.957 320.729 266.168 316.561 266.519C314.795 266.659 314.23 266.869 310.344 267.22C307.801 267.431 306.883 267.501 305.823 267.431C304.269 267.29 304.128 267.08 300.949 266.519C298.194 265.957 296.781 265.677 295.156 265.677C293.249 265.607 291.765 265.817 290.282 266.098C287.88 266.448 287.456 266.939 284.984 267.29C284.277 267.36 283.006 267.571 281.381 267.501C279.191 267.431 277.99 267.01 276.436 266.659C275.659 266.519 270.714 265.466 265.628 266.869C265.628 266.869 263.438 267.501 261.884 268.974C261.601 269.254 260.542 270.237 260.612 271.359C260.753 278.094 260.542 283.776 260.542 292.475C260.542 299.77 260.612 300.402 260.612 312.608C260.612 314.151 260.612 315.624 260.612 317.168C260.542 322.92 260.259 327.69 260.824 333.443C260.965 334.635 261.107 335.898 261.813 337.231C262.096 337.792 262.449 338.283 262.802 338.634C263.932 340.388 265.486 341.51 266.546 341.58C266.617 341.58 267.041 341.58 267.535 341.58H267.676H268.242C268.736 341.58 269.089 341.58 269.231 341.58H321.506C321.647 341.58 322 341.58 322.495 341.58H323.06H323.201C323.696 341.58 324.12 341.58 324.19 341.58C325.32 341.51 326.804 340.388 327.934 338.634C328.287 338.213 328.641 337.722 328.923 337.231C329.63 335.898 329.771 334.635 329.912 333.443C330.548 327.62 330.195 322.92 330.124 317.168C330.336 315.695 330.407 314.151 330.407 312.678Z" fill="#B44276"/>
<path d="M324.755 319.202V288.055C322.212 288.055 320.164 286.371 320.164 284.337H270.714C270.714 286.371 268.665 288.055 266.122 288.055V319.272C268.665 319.272 270.714 320.956 270.714 322.99H320.164C320.164 320.886 322.212 319.202 324.755 319.202Z" fill="#F3F3F3"/>
<path opacity="0.39" d="M268.524 333.373V283.565C268.524 281.391 270.361 279.567 272.551 279.567C274.74 279.567 276.577 281.391 276.577 283.565V333.443C276.577 335.618 274.74 337.442 272.551 337.442C270.29 337.371 268.524 335.618 268.524 333.373Z" fill="#F3F3F3"/>
<path opacity="0.39" d="M268.524 271.99V267.15C268.524 264.975 270.361 263.151 272.551 263.151C274.74 263.151 276.577 264.975 276.577 267.15V271.99C276.577 274.165 274.74 275.989 272.551 275.989C270.29 275.989 268.524 274.165 268.524 271.99Z" fill="#F3F3F3"/>
<path d="M303.009 312C307.98 312 312.009 307.971 312.009 303C312.009 298.029 307.98 294 303.009 294C298.039 294 294.009 298.029 294.009 303C294.009 307.971 298.039 312 303.009 312Z" fill="#B32646"/>
<path d="M305.109 304.95C304.659 305.4 304.059 305.4 303.609 304.95L300.759 302.25C300.309 301.8 300.309 301.2 300.759 300.75C301.209 300.3 301.809 300.3 302.259 300.75L305.109 303.45C305.559 303.9 305.559 304.65 305.109 304.95Z" fill="#6C1626"/>
<path d="M304.959 300.75C305.409 301.2 305.409 301.8 304.959 302.25L302.409 305.1C301.959 305.55 301.359 305.55 300.909 305.1C300.459 304.65 300.459 304.05 300.909 303.6L303.609 300.75C303.909 300.45 304.509 300.45 304.959 300.75Z" fill="#6C1626"/>
<path d="M289.509 309C295.308 309 300.009 304.299 300.009 298.5C300.009 292.701 295.308 288 289.509 288C283.71 288 279.009 292.701 279.009 298.5C279.009 304.299 283.71 309 289.509 309Z" fill="#B32646"/>
<path d="M291.959 300.775C291.434 301.3 290.734 301.3 290.209 300.775L286.884 297.625C286.359 297.1 286.359 296.4 286.884 295.875C287.409 295.35 288.109 295.35 288.634 295.875L291.959 299.025C292.484 299.55 292.484 300.425 291.959 300.775Z" fill="#6C1626"/>
<path d="M291.784 295.875C292.309 296.4 292.309 297.1 291.784 297.625L288.809 300.95C288.284 301.475 287.584 301.475 287.059 300.95C286.534 300.425 286.534 299.725 287.059 299.2L290.209 295.875C290.559 295.525 291.259 295.525 291.784 295.875Z" fill="#6C1626"/>
<path d="M285.309 293.6C285.834 293.25 286.709 292.55 287.409 292.025C287.584 291.85 287.934 291.675 287.934 291.325C287.934 291.325 288.109 290.625 287.759 290.275C287.409 289.925 286.709 289.925 286.534 289.925C286.359 289.925 286.009 290.1 285.659 290.275C285.134 290.625 284.959 290.8 284.784 290.975C284.084 291.5 283.734 291.85 283.209 292.2C282.509 292.9 282.159 293.425 281.984 293.6C281.634 294.125 281.284 294.65 280.759 295.7C280.409 296.225 280.234 296.75 280.234 297.45C280.234 297.8 280.409 297.975 280.409 298.15C280.759 298.5 281.109 298.5 281.284 298.5C281.634 298.5 281.984 298.325 281.984 298.325C282.334 298.15 282.334 297.8 282.684 297.275C282.859 296.75 282.859 296.75 283.034 296.225C283.034 296.05 283.209 295.875 283.559 295.35C284.084 294.65 284.609 294.125 285.309 293.6Z" fill="#C8637A"/>
<path d="M294.009 319C298.428 319 302.009 315.418 302.009 311C302.009 306.582 298.428 303 294.009 303C289.591 303 286.009 306.582 286.009 311C286.009 315.418 289.591 319 294.009 319Z" fill="#761F36"/>
<path d="M296.009 312.875C295.634 313.25 295.134 313.25 294.759 312.875L292.259 310.5C291.884 310.125 291.884 309.625 292.259 309.25C292.634 308.875 293.134 308.875 293.509 309.25L296.009 311.625C296.259 311.875 296.259 312.5 296.009 312.875Z" fill="#49131F"/>
<path d="M295.759 309.125C296.134 309.5 296.134 310 295.759 310.375L293.384 312.875C293.009 313.25 292.509 313.25 292.134 312.875C291.759 312.5 291.759 312 292.134 311.625L294.509 309.125C294.884 308.75 295.384 308.75 295.759 309.125Z" fill="#49131F"/>
<path d="M290.759 307.25C291.134 306.875 291.759 306.5 292.384 306C292.509 305.875 292.759 305.75 292.884 305.5C292.884 305.5 293.009 305 292.759 304.75C292.509 304.375 292.009 304.5 291.884 304.5C291.759 304.5 291.509 304.625 291.259 304.875C290.884 305.125 290.634 305.25 290.634 305.375C290.134 305.875 289.759 306 289.509 306.375C289.009 306.875 288.634 307.25 288.634 307.375C288.384 307.75 288.134 308.125 287.759 308.875C287.509 309.375 287.384 309.75 287.384 310.125C287.384 310.375 287.509 310.5 287.509 310.625C287.759 310.875 288.009 310.875 288.134 310.875C288.384 310.875 288.634 310.75 288.634 310.75C288.884 310.625 289.009 310.375 289.134 310C289.259 309.625 289.259 309.5 289.384 309.25C289.384 309.125 289.509 308.875 289.884 308.625C289.884 308.125 290.259 307.75 290.759 307.25Z" fill="#A05062"/>
</svg>
