<?xml version="1.0" encoding="UTF-8" standalone="no"?>
<svg width="1100" height="682" viewBox="0 0 1100 682" fill="none" xmlns="http://www.w3.org/2000/svg">
<rect x="3" y="3" width="1094" height="676" rx="77" fill="white" stroke="#844EA5" stroke-width="6"/>
<path d="M964.5 182L989.758 259.736H1071.49L1005.37 307.779L1030.63 385.514L964.5 337.471L898.374 385.514L923.632 307.779L857.506 259.736H939.242L964.5 182Z" fill="#164E82"/>
<path d="M758.5 33L783.758 110.736H865.494L799.368 158.779L824.626 236.514L758.5 188.471L692.374 236.514L717.632 158.779L651.506 110.736H733.242L758.5 33Z" fill="#164E82"/>
<path d="M150.5 33L175.758 110.736H257.494L191.368 158.779L216.626 236.514L150.5 188.471L84.3742 236.514L109.632 158.779L43.5061 110.736H125.242L150.5 33Z" fill="#164E82"/>
<path d="M585.5 209L610.758 286.736H692.494L626.368 334.779L651.626 412.514L585.5 364.471L519.374 412.514L544.632 334.779L478.506 286.736H560.242L585.5 209Z" fill="#164E82"/>
<path d="M174.5 434L199.758 511.736H281.494L215.368 559.779L240.626 637.514L174.5 589.471L108.374 637.514L133.632 559.779L67.5061 511.736H149.242L174.5 434Z" fill="#164E82"/>
<circle cx="93" cy="340" r="58" fill="#F2A74E"/>
<circle cx="492" cy="94" r="58" fill="#F2A74E"/>
<circle cx="420" cy="439" r="58" fill="#F2A74E"/>
<circle cx="346" cy="237" r="58" fill="#F2A74E"/>
<circle cx="770" cy="439" r="58" fill="#F2A74E"/>
<circle cx="1005" cy="482" r="58" fill="#F2A74E"/>
<circle cx="608" cy="605" r="58" fill="#F2A74E"/>
</svg>
