<?xml version="1.0" encoding="UTF-8" standalone="no"?>
<svg viewBox="0 0 870 540" fill="none" xmlns="http://www.w3.org/2000/svg">
<rect x="3" y="3" width="864" height="533.4" rx="77" fill="white" stroke="#844EA5" stroke-width="6"/>
<path d="M706.104 456.104C706.92 455.021 704.744 452.99 703.52 449.334C702.908 447.507 702.772 446.153 702.568 443.445C702.296 440.06 701.82 433.154 704.812 425.166C705.356 423.609 707.464 418.329 712.359 412.845C715.419 409.392 722.967 400.862 734.934 399.576C747.65 398.222 757.169 405.94 761.249 409.325C763.289 410.949 774.441 420.427 776.685 435.727C778.248 446.559 774.645 456.172 774.373 456.51C774.373 456.51 774.237 456.713 774.237 456.917C774.237 457.187 774.509 457.39 774.645 457.458C775.121 457.797 776.889 458.338 778.656 457.39C778.792 457.323 779.608 456.849 780.288 455.901C781.036 454.818 781.172 453.735 781.24 453.396C781.988 447.574 783.416 443.919 783.348 439.044C783.212 432.477 780.22 416.975 767.097 405.534C763.561 402.419 754.517 394.499 740.918 394.025C722.491 393.348 710.523 406.684 708.211 409.392C705.696 412.236 698.488 420.495 697.128 433.493C695.836 445.882 700.936 455.766 701.072 455.969C701.072 455.969 701.208 456.172 701.276 456.443C701.344 456.646 701.344 456.713 701.344 456.713C701.548 457.187 703.452 456.917 703.452 456.917C705.016 456.51 705.9 456.375 706.104 456.104Z" fill="#AB6F26"/>
<path d="M700.596 459.015C700.732 460.234 700.324 471.742 703.656 482.777C705.56 489.276 707.532 491.307 708.347 492.12C709.367 493.067 711.067 494.354 715.011 495.843C718.207 496.994 721.947 497.874 734.798 498.551C740.782 498.822 743.842 499.025 748.194 498.822C753.702 498.619 757.101 498.483 761.453 497.332C765.533 496.249 770.225 494.963 773.557 490.901C774.781 489.412 775.325 488.193 776.413 485.756C776.413 485.756 780.832 475.534 780.356 459.218C780.356 458.203 780.22 456.917 780.22 456.917C780.22 456.646 780.152 456.51 780.152 456.443C779.676 455.156 739.218 464.431 712.835 458.88C709.231 458.135 700.528 458 700.528 458.474C700.596 458.744 700.596 458.812 700.596 459.015Z" fill="#AB6F26"/>
<path d="M721.335 456.781C717.663 456.24 715.351 455.901 715.351 455.901C710.319 455.156 710.455 455.156 709.503 455.021C706.987 454.75 705.831 454.818 703.384 454.344C702.024 454.073 701.344 453.938 700.8 453.802C698.692 453.193 697.672 452.448 696.04 452.719C695.564 452.787 695.156 452.922 694.816 453.193C694.272 453.599 694 454.276 694 454.953C694.068 455.698 694.544 456.307 695.156 456.849C698.08 459.218 701.548 459.624 701.548 459.624C707.939 460.369 714.263 461.385 720.655 461.994C725.415 462.468 724.939 462.535 728.475 462.874C736.362 463.551 738.878 463.077 761.453 462.129C766.281 461.926 770.973 460.775 775.8 460.505C775.8 460.505 777.568 460.369 783.008 458.541C783.416 458.406 784.708 457.932 785.388 456.849C785.728 456.24 785.796 455.766 785.796 455.63C785.796 455.495 785.796 454.818 785.388 454.276C784.912 453.667 784.096 453.599 783.552 453.532C780.628 453.329 778.384 454.073 778.384 454.073C775.936 454.886 773.285 454.818 770.769 455.359C764.037 456.781 752.477 457.255 747.854 457.458C737.178 457.797 726.571 457.526 721.335 456.781Z" fill="#CE8F31"/>
<path d="M772.129 464.296C770.973 464.837 769.681 464.905 768.457 465.311C765.261 466.327 759.141 467.004 758.053 467.139C749.894 468.019 741.258 467.613 732.214 467.139C727.862 466.936 725.007 466.665 719.363 466.123C714.671 465.65 713.651 465.446 712.699 465.243C711.475 464.905 710.183 464.905 708.959 464.499C708.551 464.363 707.395 463.889 706.443 464.296C705.899 464.499 705.763 464.77 705.695 464.905C705.695 464.905 705.559 465.311 705.695 465.853C706.171 467.613 710.795 468.019 710.795 468.019C717.187 468.561 723.511 469.847 729.902 469.915C739.354 470.05 744.454 470.592 753.361 470.456C754.721 470.456 757.849 470.388 761.929 469.779C763.969 469.508 765.533 469.238 767.573 468.628C771.109 467.545 774.78 465.785 774.78 465.785C774.78 465.785 775.12 465.311 775.12 464.905C775.12 464.499 774.78 464.025 774.508 463.889C773.896 463.416 773.081 463.889 772.129 464.296Z" fill="#CE8F31"/>
<path d="M749.009 487.448C755.333 487.448 756.285 487.922 762.813 487.448C764.581 487.313 766.893 487.11 769.545 486.771C770.021 486.568 770.293 486.23 770.293 485.824C770.293 485.282 769.681 485.011 769.477 484.876C768.729 484.47 767.845 484.605 767.709 484.605C764.173 485.011 760.501 484.267 756.965 484.537C754.109 484.741 750.029 485.011 744.658 485.079C743.706 485.485 743.638 485.824 743.638 485.959C743.706 486.501 745.134 486.839 746.018 487.042C747.718 487.448 749.009 487.448 749.009 487.448Z" fill="#CE8F31"/>
<path d="M727.251 483.996C726.027 483.996 724.055 483.928 721.471 483.86C721.267 483.928 720.383 484.131 720.315 484.673C720.247 485.282 721.335 485.824 721.675 486.027C723.239 486.839 724.599 486.771 728.542 486.771C729.222 486.771 729.902 486.771 730.65 486.771C732.622 486.771 735.41 486.771 739.082 486.771C739.422 486.568 739.898 486.23 739.83 485.891C739.762 485.418 738.606 485.214 737.994 485.079C731.194 484.064 727.251 483.996 727.251 483.996Z" fill="#CE8F31"/>
<path d="M763.969 477.768C763.493 477.768 762.473 477.768 760.433 477.903C759.345 477.971 757.849 478.038 755.945 478.174C755.877 478.174 755.061 478.309 754.653 477.903C754.381 477.565 754.449 477.023 754.585 476.752C754.993 475.669 757.441 475.669 760.909 475.669C762.269 475.669 764.717 475.669 768.185 475.669C768.253 475.669 768.797 475.534 769.069 475.872C769.341 476.211 769.137 476.82 768.865 477.091C768.525 477.565 767.913 477.565 767.029 477.632C765.261 477.7 764.309 477.768 763.969 477.768Z" fill="#CE8F31"/>
<path d="M737.11 475.872C732.758 476.007 728.406 475.466 724.055 475.33C721.471 475.263 717.595 475.06 712.835 474.857C712.767 474.857 712.155 474.992 711.951 475.466C711.679 475.94 711.883 476.684 712.495 477.091C716.303 477.294 719.363 477.632 721.539 477.835C727.251 478.445 729.086 478.918 733.506 478.986C736.566 479.054 738.946 478.918 740.306 478.783C742.482 478.58 744.454 478.309 745.95 478.106C746.086 478.106 746.562 478.106 746.834 477.768C746.834 477.768 747.038 477.429 746.766 476.82C746.154 475.398 739.558 475.737 737.11 475.872Z" fill="#CE8F31"/>
<path d="M743.366 492.323C742.89 492.323 741.87 492.323 739.83 492.187C738.742 492.12 737.246 492.052 735.342 491.917C735.274 491.917 734.458 491.781 734.05 492.187C733.778 492.526 733.846 493.067 733.982 493.338C734.39 494.421 736.838 494.421 740.306 494.421C741.666 494.421 744.114 494.421 747.582 494.421C747.65 494.421 748.194 494.557 748.466 494.218C748.738 493.88 748.534 493.271 748.262 493C747.922 492.526 747.31 492.526 746.426 492.458C744.59 492.39 743.706 492.323 743.366 492.323Z" fill="#CE8F31"/>
<path d="M444.104 482.104C444.92 481.021 442.744 478.99 441.52 475.334C440.908 473.507 440.772 472.153 440.568 469.445C440.296 466.06 439.82 459.154 442.812 451.166C443.356 449.609 445.464 444.329 450.359 438.845C453.419 435.392 460.967 426.862 472.934 425.576C485.65 424.222 495.169 431.94 499.249 435.325C501.289 436.949 512.441 446.427 514.685 461.727C516.248 472.559 512.645 482.172 512.373 482.51C512.373 482.51 512.237 482.713 512.237 482.917C512.237 483.187 512.509 483.39 512.645 483.458C513.121 483.797 514.889 484.338 516.656 483.39C516.792 483.323 517.608 482.849 518.288 481.901C519.036 480.818 519.172 479.735 519.24 479.396C519.988 473.574 521.416 469.919 521.348 465.044C521.212 458.477 518.22 442.975 505.097 431.534C501.561 428.419 492.517 420.499 478.918 420.025C460.491 419.348 448.523 432.684 446.211 435.392C443.696 438.236 436.488 446.495 435.128 459.493C433.836 471.882 438.936 481.766 439.072 481.969C439.072 481.969 439.208 482.172 439.276 482.443C439.344 482.646 439.344 482.713 439.344 482.713C439.548 483.187 441.452 482.917 441.452 482.917C443.016 482.51 443.9 482.375 444.104 482.104Z" fill="#AB6F26"/>
<path d="M438.596 485.015C438.732 486.234 438.324 497.742 441.656 508.777C443.56 515.276 445.532 517.307 446.347 518.12C447.367 519.067 449.067 520.354 453.011 521.843C456.207 522.994 459.947 523.874 472.798 524.551C478.782 524.822 481.842 525.025 486.194 524.822C491.702 524.619 495.101 524.483 499.453 523.332C503.533 522.249 508.225 520.963 511.557 516.901C512.781 515.412 513.325 514.193 514.413 511.756C514.413 511.756 518.832 501.534 518.356 485.218C518.356 484.203 518.22 482.917 518.22 482.917C518.22 482.646 518.152 482.51 518.152 482.443C517.676 481.156 477.218 490.431 450.835 484.88C447.231 484.135 438.528 484 438.528 484.474C438.596 484.744 438.596 484.812 438.596 485.015Z" fill="#AB6F26"/>
<path d="M459.335 482.781C455.663 482.24 453.351 481.901 453.351 481.901C448.319 481.156 448.455 481.156 447.503 481.021C444.987 480.75 443.831 480.818 441.384 480.344C440.024 480.073 439.344 479.938 438.8 479.802C436.692 479.193 435.672 478.448 434.04 478.719C433.564 478.787 433.156 478.922 432.816 479.193C432.272 479.599 432 480.276 432 480.953C432.068 481.698 432.544 482.307 433.156 482.849C436.08 485.218 439.548 485.624 439.548 485.624C445.939 486.369 452.263 487.385 458.655 487.994C463.415 488.468 462.939 488.535 466.475 488.874C474.362 489.551 476.878 489.077 499.453 488.129C504.281 487.926 508.973 486.775 513.8 486.505C513.8 486.505 515.568 486.369 521.008 484.541C521.416 484.406 522.708 483.932 523.388 482.849C523.728 482.24 523.796 481.766 523.796 481.63C523.796 481.495 523.796 480.818 523.388 480.276C522.912 479.667 522.096 479.599 521.552 479.532C518.628 479.329 516.384 480.073 516.384 480.073C513.936 480.886 511.285 480.818 508.769 481.359C502.037 482.781 490.477 483.255 485.854 483.458C475.178 483.797 464.571 483.526 459.335 482.781Z" fill="#CE8F31"/>
<path d="M510.129 490.296C508.973 490.837 507.681 490.905 506.457 491.311C503.261 492.327 497.141 493.004 496.053 493.139C487.894 494.019 479.258 493.613 470.214 493.139C465.862 492.936 463.007 492.665 457.363 492.123C452.671 491.65 451.651 491.446 450.699 491.243C449.475 490.905 448.183 490.905 446.959 490.499C446.551 490.363 445.395 489.889 444.443 490.296C443.899 490.499 443.763 490.77 443.695 490.905C443.695 490.905 443.559 491.311 443.695 491.853C444.171 493.613 448.795 494.019 448.795 494.019C455.187 494.561 461.511 495.847 467.902 495.915C477.354 496.05 482.454 496.592 491.361 496.456C492.721 496.456 495.849 496.388 499.929 495.779C501.969 495.508 503.533 495.238 505.573 494.628C509.109 493.545 512.78 491.785 512.78 491.785C512.78 491.785 513.12 491.311 513.12 490.905C513.12 490.499 512.78 490.025 512.508 489.889C511.896 489.416 511.081 489.889 510.129 490.296Z" fill="#CE8F31"/>
<path d="M487.009 513.448C493.333 513.448 494.285 513.922 500.813 513.448C502.581 513.313 504.893 513.11 507.545 512.771C508.021 512.568 508.293 512.23 508.293 511.824C508.293 511.282 507.681 511.011 507.477 510.876C506.729 510.47 505.845 510.605 505.709 510.605C502.173 511.011 498.501 510.267 494.965 510.537C492.109 510.741 488.029 511.011 482.658 511.079C481.706 511.485 481.638 511.824 481.638 511.959C481.706 512.501 483.134 512.839 484.018 513.042C485.718 513.448 487.009 513.448 487.009 513.448Z" fill="#CE8F31"/>
<path d="M465.251 509.996C464.027 509.996 462.055 509.928 459.471 509.86C459.267 509.928 458.383 510.131 458.315 510.673C458.247 511.282 459.335 511.824 459.675 512.027C461.239 512.839 462.599 512.771 466.542 512.771C467.222 512.771 467.902 512.771 468.65 512.771C470.622 512.771 473.41 512.771 477.082 512.771C477.422 512.568 477.898 512.23 477.83 511.891C477.762 511.418 476.606 511.214 475.994 511.079C469.194 510.064 465.251 509.996 465.251 509.996Z" fill="#CE8F31"/>
<path d="M501.969 503.768C501.493 503.768 500.473 503.768 498.433 503.903C497.345 503.971 495.849 504.038 493.945 504.174C493.877 504.174 493.061 504.309 492.653 503.903C492.381 503.565 492.449 503.023 492.585 502.752C492.993 501.669 495.441 501.669 498.909 501.669C500.269 501.669 502.717 501.669 506.185 501.669C506.253 501.669 506.797 501.534 507.069 501.872C507.341 502.211 507.137 502.82 506.865 503.091C506.525 503.565 505.913 503.565 505.029 503.632C503.261 503.7 502.309 503.768 501.969 503.768Z" fill="#CE8F31"/>
<path d="M475.11 501.872C470.758 502.007 466.406 501.466 462.055 501.33C459.471 501.263 455.595 501.06 450.835 500.857C450.767 500.857 450.155 500.992 449.951 501.466C449.679 501.94 449.883 502.684 450.495 503.091C454.303 503.294 457.363 503.632 459.539 503.835C465.251 504.445 467.086 504.918 471.506 504.986C474.566 505.054 476.946 504.918 478.306 504.783C480.482 504.58 482.454 504.309 483.95 504.106C484.086 504.106 484.562 504.106 484.834 503.768C484.834 503.768 485.038 503.429 484.766 502.82C484.154 501.398 477.558 501.737 475.11 501.872Z" fill="#CE8F31"/>
<path d="M481.366 518.323C480.89 518.323 479.87 518.323 477.83 518.187C476.742 518.12 475.246 518.052 473.342 517.917C473.274 517.917 472.458 517.781 472.05 518.187C471.778 518.526 471.846 519.067 471.982 519.338C472.39 520.421 474.838 520.421 478.306 520.421C479.666 520.421 482.114 520.421 485.582 520.421C485.65 520.421 486.194 520.557 486.466 520.218C486.738 519.88 486.534 519.271 486.262 519C485.922 518.526 485.31 518.526 484.426 518.458C482.59 518.39 481.706 518.323 481.366 518.323Z" fill="#CE8F31"/>
<path d="M573.104 354.104C573.92 353.021 571.744 350.99 570.52 347.334C569.908 345.507 569.772 344.153 569.568 341.445C569.296 338.06 568.82 331.154 571.812 323.166C572.356 321.609 574.464 316.329 579.359 310.845C582.419 307.392 589.967 298.862 601.934 297.576C614.65 296.222 624.169 303.94 628.249 307.325C630.289 308.949 641.441 318.427 643.685 333.727C645.248 344.559 641.645 354.172 641.373 354.51C641.373 354.51 641.237 354.713 641.237 354.917C641.237 355.187 641.509 355.39 641.645 355.458C642.121 355.797 643.889 356.338 645.656 355.39C645.792 355.323 646.608 354.849 647.288 353.901C648.036 352.818 648.172 351.735 648.24 351.396C648.988 345.574 650.416 341.919 650.348 337.044C650.212 330.477 647.22 314.975 634.097 303.534C630.561 300.419 621.517 292.499 607.918 292.025C589.491 291.348 577.523 304.684 575.211 307.392C572.696 310.236 565.488 318.495 564.128 331.493C562.836 343.882 567.936 353.766 568.072 353.969C568.072 353.969 568.208 354.172 568.276 354.443C568.344 354.646 568.344 354.713 568.344 354.713C568.548 355.187 570.452 354.917 570.452 354.917C572.016 354.51 572.9 354.375 573.104 354.104Z" fill="#AB6F26"/>
<path d="M567.596 357.015C567.732 358.234 567.324 369.742 570.656 380.777C572.56 387.276 574.532 389.307 575.347 390.12C576.367 391.067 578.067 392.354 582.011 393.843C585.207 394.994 588.947 395.874 601.798 396.551C607.782 396.822 610.842 397.025 615.194 396.822C620.702 396.619 624.101 396.483 628.453 395.332C632.533 394.249 637.225 392.963 640.557 388.901C641.781 387.412 642.325 386.193 643.413 383.756C643.413 383.756 647.832 373.534 647.356 357.218C647.356 356.203 647.22 354.917 647.22 354.917C647.22 354.646 647.152 354.51 647.152 354.443C646.676 353.156 606.218 362.431 579.835 356.88C576.231 356.135 567.528 356 567.528 356.474C567.596 356.744 567.596 356.812 567.596 357.015Z" fill="#AB6F26"/>
<path d="M588.335 354.781C584.663 354.24 582.351 353.901 582.351 353.901C577.319 353.156 577.455 353.156 576.503 353.021C573.987 352.75 572.831 352.818 570.384 352.344C569.024 352.073 568.344 351.938 567.8 351.802C565.692 351.193 564.672 350.448 563.04 350.719C562.564 350.787 562.156 350.922 561.816 351.193C561.272 351.599 561 352.276 561 352.953C561.068 353.698 561.544 354.307 562.156 354.849C565.08 357.218 568.548 357.624 568.548 357.624C574.939 358.369 581.263 359.385 587.655 359.994C592.415 360.468 591.939 360.535 595.475 360.874C603.362 361.551 605.878 361.077 628.453 360.129C633.281 359.926 637.973 358.775 642.8 358.505C642.8 358.505 644.568 358.369 650.008 356.541C650.416 356.406 651.708 355.932 652.388 354.849C652.728 354.24 652.796 353.766 652.796 353.63C652.796 353.495 652.796 352.818 652.388 352.276C651.912 351.667 651.096 351.599 650.552 351.532C647.628 351.329 645.384 352.073 645.384 352.073C642.936 352.886 640.285 352.818 637.769 353.359C631.037 354.781 619.477 355.255 614.854 355.458C604.178 355.797 593.571 355.526 588.335 354.781Z" fill="#CE8F31"/>
<path d="M639.129 362.296C637.973 362.837 636.681 362.905 635.457 363.311C632.261 364.327 626.141 365.004 625.053 365.139C616.894 366.019 608.258 365.613 599.214 365.139C594.862 364.936 592.007 364.665 586.363 364.123C581.671 363.65 580.651 363.446 579.699 363.243C578.475 362.905 577.183 362.905 575.959 362.499C575.551 362.363 574.395 361.889 573.443 362.296C572.899 362.499 572.763 362.77 572.695 362.905C572.695 362.905 572.559 363.311 572.695 363.853C573.171 365.613 577.795 366.019 577.795 366.019C584.187 366.561 590.511 367.847 596.902 367.915C606.354 368.05 611.454 368.592 620.361 368.456C621.721 368.456 624.849 368.388 628.929 367.779C630.969 367.508 632.533 367.238 634.573 366.628C638.109 365.545 641.78 363.785 641.78 363.785C641.78 363.785 642.12 363.311 642.12 362.905C642.12 362.499 641.78 362.025 641.508 361.889C640.896 361.416 640.081 361.889 639.129 362.296Z" fill="#CE8F31"/>
<path d="M616.009 385.448C622.333 385.448 623.285 385.922 629.813 385.448C631.581 385.313 633.893 385.11 636.545 384.771C637.021 384.568 637.293 384.23 637.293 383.824C637.293 383.282 636.681 383.011 636.477 382.876C635.729 382.47 634.845 382.605 634.709 382.605C631.173 383.011 627.501 382.267 623.965 382.537C621.109 382.741 617.029 383.011 611.658 383.079C610.706 383.485 610.638 383.824 610.638 383.959C610.706 384.501 612.134 384.839 613.018 385.042C614.718 385.448 616.009 385.448 616.009 385.448Z" fill="#CE8F31"/>
<path d="M594.251 381.996C593.027 381.996 591.055 381.928 588.471 381.86C588.267 381.928 587.383 382.131 587.315 382.673C587.247 383.282 588.335 383.824 588.675 384.027C590.239 384.839 591.599 384.771 595.542 384.771C596.222 384.771 596.902 384.771 597.65 384.771C599.622 384.771 602.41 384.771 606.082 384.771C606.422 384.568 606.898 384.23 606.83 383.891C606.762 383.418 605.606 383.214 604.994 383.079C598.194 382.064 594.251 381.996 594.251 381.996Z" fill="#CE8F31"/>
<path d="M630.969 375.768C630.493 375.768 629.473 375.768 627.433 375.903C626.345 375.971 624.849 376.038 622.945 376.174C622.877 376.174 622.061 376.309 621.653 375.903C621.381 375.565 621.449 375.023 621.585 374.752C621.993 373.669 624.441 373.669 627.909 373.669C629.269 373.669 631.717 373.669 635.185 373.669C635.253 373.669 635.797 373.534 636.069 373.872C636.341 374.211 636.137 374.82 635.865 375.091C635.525 375.565 634.913 375.565 634.029 375.632C632.261 375.7 631.309 375.768 630.969 375.768Z" fill="#CE8F31"/>
<path d="M604.11 373.872C599.758 374.007 595.406 373.466 591.055 373.33C588.471 373.263 584.595 373.06 579.835 372.857C579.767 372.857 579.155 372.992 578.951 373.466C578.679 373.94 578.883 374.684 579.495 375.091C583.303 375.294 586.363 375.632 588.539 375.835C594.251 376.445 596.086 376.918 600.506 376.986C603.566 377.054 605.946 376.918 607.306 376.783C609.482 376.58 611.454 376.309 612.95 376.106C613.086 376.106 613.562 376.106 613.834 375.768C613.834 375.768 614.038 375.429 613.766 374.82C613.154 373.398 606.558 373.737 604.11 373.872Z" fill="#CE8F31"/>
<path d="M610.366 390.323C609.89 390.323 608.87 390.323 606.83 390.187C605.742 390.12 604.246 390.052 602.342 389.917C602.274 389.917 601.458 389.781 601.05 390.187C600.778 390.526 600.846 391.067 600.982 391.338C601.39 392.421 603.838 392.421 607.306 392.421C608.666 392.421 611.114 392.421 614.582 392.421C614.65 392.421 615.194 392.557 615.466 392.218C615.738 391.88 615.534 391.271 615.262 391C614.922 390.526 614.31 390.526 613.426 390.458C611.59 390.39 610.706 390.323 610.366 390.323Z" fill="#CE8F31"/>
<path d="M298.104 354.104C298.92 353.021 296.744 350.99 295.52 347.334C294.908 345.507 294.772 344.153 294.568 341.445C294.296 338.06 293.82 331.154 296.812 323.166C297.356 321.609 299.464 316.329 304.359 310.845C307.419 307.392 314.967 298.862 326.934 297.576C339.65 296.222 349.169 303.94 353.249 307.325C355.289 308.949 366.441 318.427 368.685 333.727C370.248 344.559 366.645 354.172 366.373 354.51C366.373 354.51 366.237 354.713 366.237 354.917C366.237 355.187 366.509 355.39 366.645 355.458C367.121 355.797 368.889 356.338 370.656 355.39C370.792 355.323 371.608 354.849 372.288 353.901C373.036 352.818 373.172 351.735 373.24 351.396C373.988 345.574 375.416 341.919 375.348 337.044C375.212 330.477 372.22 314.975 359.097 303.534C355.561 300.419 346.517 292.499 332.918 292.025C314.491 291.348 302.523 304.684 300.211 307.392C297.696 310.236 290.488 318.495 289.128 331.493C287.836 343.882 292.936 353.766 293.072 353.969C293.072 353.969 293.208 354.172 293.276 354.443C293.344 354.646 293.344 354.713 293.344 354.713C293.548 355.187 295.452 354.917 295.452 354.917C297.016 354.51 297.9 354.375 298.104 354.104Z" fill="#AB6F26"/>
<path d="M292.596 357.015C292.732 358.234 292.324 369.742 295.656 380.777C297.56 387.276 299.532 389.307 300.347 390.12C301.367 391.067 303.067 392.354 307.011 393.843C310.207 394.994 313.947 395.874 326.798 396.551C332.782 396.822 335.842 397.025 340.194 396.822C345.702 396.619 349.101 396.483 353.453 395.332C357.533 394.249 362.225 392.963 365.557 388.901C366.781 387.412 367.325 386.193 368.413 383.756C368.413 383.756 372.832 373.534 372.356 357.218C372.356 356.203 372.22 354.917 372.22 354.917C372.22 354.646 372.152 354.51 372.152 354.443C371.676 353.156 331.218 362.431 304.835 356.88C301.231 356.135 292.528 356 292.528 356.474C292.596 356.744 292.596 356.812 292.596 357.015Z" fill="#AB6F26"/>
<path d="M313.335 354.781C309.663 354.24 307.351 353.901 307.351 353.901C302.319 353.156 302.455 353.156 301.503 353.021C298.987 352.75 297.831 352.818 295.384 352.344C294.024 352.073 293.344 351.938 292.8 351.802C290.692 351.193 289.672 350.448 288.04 350.719C287.564 350.787 287.156 350.922 286.816 351.193C286.272 351.599 286 352.276 286 352.953C286.068 353.698 286.544 354.307 287.156 354.849C290.08 357.218 293.548 357.624 293.548 357.624C299.939 358.369 306.263 359.385 312.655 359.994C317.415 360.468 316.939 360.535 320.475 360.874C328.362 361.551 330.878 361.077 353.453 360.129C358.281 359.926 362.973 358.775 367.8 358.505C367.8 358.505 369.568 358.369 375.008 356.541C375.416 356.406 376.708 355.932 377.388 354.849C377.728 354.24 377.796 353.766 377.796 353.63C377.796 353.495 377.796 352.818 377.388 352.276C376.912 351.667 376.096 351.599 375.552 351.532C372.628 351.329 370.384 352.073 370.384 352.073C367.936 352.886 365.285 352.818 362.769 353.359C356.037 354.781 344.477 355.255 339.854 355.458C329.178 355.797 318.571 355.526 313.335 354.781Z" fill="#CE8F31"/>
<path d="M364.129 362.296C362.973 362.837 361.681 362.905 360.457 363.311C357.261 364.327 351.141 365.004 350.053 365.139C341.894 366.019 333.258 365.613 324.214 365.139C319.862 364.936 317.007 364.665 311.363 364.123C306.671 363.65 305.651 363.446 304.699 363.243C303.475 362.905 302.183 362.905 300.959 362.499C300.551 362.363 299.395 361.889 298.443 362.296C297.899 362.499 297.763 362.77 297.695 362.905C297.695 362.905 297.559 363.311 297.695 363.853C298.171 365.613 302.795 366.019 302.795 366.019C309.187 366.561 315.511 367.847 321.902 367.915C331.354 368.05 336.454 368.592 345.361 368.456C346.721 368.456 349.849 368.388 353.929 367.779C355.969 367.508 357.533 367.238 359.573 366.628C363.109 365.545 366.78 363.785 366.78 363.785C366.78 363.785 367.12 363.311 367.12 362.905C367.12 362.499 366.78 362.025 366.508 361.889C365.896 361.416 365.081 361.889 364.129 362.296Z" fill="#CE8F31"/>
<path d="M341.009 385.448C347.333 385.448 348.285 385.922 354.813 385.448C356.581 385.313 358.893 385.11 361.545 384.771C362.021 384.568 362.293 384.23 362.293 383.824C362.293 383.282 361.681 383.011 361.477 382.876C360.729 382.47 359.845 382.605 359.709 382.605C356.173 383.011 352.501 382.267 348.965 382.537C346.109 382.741 342.029 383.011 336.658 383.079C335.706 383.485 335.638 383.824 335.638 383.959C335.706 384.501 337.134 384.839 338.018 385.042C339.718 385.448 341.009 385.448 341.009 385.448Z" fill="#CE8F31"/>
<path d="M319.251 381.996C318.027 381.996 316.055 381.928 313.471 381.86C313.267 381.928 312.383 382.131 312.315 382.673C312.247 383.282 313.335 383.824 313.675 384.027C315.239 384.839 316.599 384.771 320.542 384.771C321.222 384.771 321.902 384.771 322.65 384.771C324.622 384.771 327.41 384.771 331.082 384.771C331.422 384.568 331.898 384.23 331.83 383.891C331.762 383.418 330.606 383.214 329.994 383.079C323.194 382.064 319.251 381.996 319.251 381.996Z" fill="#CE8F31"/>
<path d="M355.969 375.768C355.493 375.768 354.473 375.768 352.433 375.903C351.345 375.971 349.849 376.038 347.945 376.174C347.877 376.174 347.061 376.309 346.653 375.903C346.381 375.565 346.449 375.023 346.585 374.752C346.993 373.669 349.441 373.669 352.909 373.669C354.269 373.669 356.717 373.669 360.185 373.669C360.253 373.669 360.797 373.534 361.069 373.872C361.341 374.211 361.137 374.82 360.865 375.091C360.525 375.565 359.913 375.565 359.029 375.632C357.261 375.7 356.309 375.768 355.969 375.768Z" fill="#CE8F31"/>
<path d="M329.11 373.872C324.758 374.007 320.406 373.466 316.055 373.33C313.471 373.263 309.595 373.06 304.835 372.857C304.767 372.857 304.155 372.992 303.951 373.466C303.679 373.94 303.883 374.684 304.495 375.091C308.303 375.294 311.363 375.632 313.539 375.835C319.251 376.445 321.086 376.918 325.506 376.986C328.566 377.054 330.946 376.918 332.306 376.783C334.482 376.58 336.454 376.309 337.95 376.106C338.086 376.106 338.562 376.106 338.834 375.768C338.834 375.768 339.038 375.429 338.766 374.82C338.154 373.398 331.558 373.737 329.11 373.872Z" fill="#CE8F31"/>
<path d="M335.366 390.323C334.89 390.323 333.87 390.323 331.83 390.187C330.742 390.12 329.246 390.052 327.342 389.917C327.274 389.917 326.458 389.781 326.05 390.187C325.778 390.526 325.846 391.067 325.982 391.338C326.39 392.421 328.838 392.421 332.306 392.421C333.666 392.421 336.114 392.421 339.582 392.421C339.65 392.421 340.194 392.557 340.466 392.218C340.738 391.88 340.534 391.271 340.262 391C339.922 390.526 339.31 390.526 338.426 390.458C336.59 390.39 335.706 390.323 335.366 390.323Z" fill="#CE8F31"/>
<path d="M40.1036 279.104C40.9195 278.021 38.7436 275.99 37.5197 272.334C36.9077 270.507 36.7717 269.153 36.5677 266.445C36.2957 263.06 35.8198 256.154 38.8116 248.166C39.3556 246.609 41.4635 241.329 46.3593 235.845C49.4192 232.392 56.9668 223.862 68.9343 222.576C81.6498 221.222 91.1694 228.94 95.2492 232.325C97.2891 233.949 108.441 243.427 110.685 258.727C112.248 269.559 108.645 279.172 108.373 279.51C108.373 279.51 108.237 279.713 108.237 279.917C108.237 280.187 108.509 280.39 108.645 280.458C109.121 280.797 110.889 281.338 112.656 280.39C112.792 280.323 113.608 279.849 114.288 278.901C115.036 277.818 115.172 276.735 115.24 276.396C115.988 270.574 117.416 266.919 117.348 262.044C117.212 255.477 114.22 239.975 101.097 228.534C97.5611 225.419 88.5175 217.499 74.9181 217.025C56.4909 216.348 44.5234 229.684 42.2115 232.392C39.6956 235.236 32.4879 243.495 31.128 256.493C29.836 268.882 34.9358 278.766 35.0718 278.969C35.0718 278.969 35.2078 279.172 35.2758 279.443C35.3438 279.646 35.3438 279.713 35.3438 279.713C35.5478 280.187 37.4517 279.917 37.4517 279.917C39.0156 279.51 39.8996 279.375 40.1036 279.104Z" fill="#AB6F26"/>
<path d="M34.5958 282.015C34.7318 283.234 34.3238 294.742 37.6557 305.777C39.5596 312.276 41.5315 314.307 42.3475 315.12C43.3674 316.067 45.0674 317.354 49.0112 318.843C52.2071 319.994 55.9469 320.874 68.7983 321.551C74.7821 321.822 77.8419 322.025 82.1938 321.822C87.7015 321.619 91.1014 321.483 95.4532 320.332C99.533 319.249 104.225 317.963 107.557 313.901C108.781 312.412 109.325 311.193 110.413 308.756C110.413 308.756 114.832 298.534 114.356 282.218C114.356 281.203 114.22 279.917 114.22 279.917C114.22 279.646 114.152 279.51 114.152 279.443C113.676 278.156 73.2181 287.431 46.8353 281.88C43.2315 281.135 34.5278 281 34.5278 281.474C34.5958 281.744 34.5958 281.812 34.5958 282.015Z" fill="#AB6F26"/>
<path d="M55.3348 279.781C51.663 279.24 49.3511 278.901 49.3511 278.901C44.3193 278.156 44.4553 278.156 43.5033 278.021C40.9874 277.75 39.8315 277.818 37.3836 277.344C36.0237 277.073 35.3437 276.938 34.7997 276.802C32.6918 276.193 31.6718 275.448 30.0399 275.719C29.5639 275.787 29.1559 275.922 28.816 276.193C28.272 276.599 28 277.276 28 277.953C28.068 278.698 28.544 279.307 29.1559 279.849C32.0798 282.218 35.5477 282.624 35.5477 282.624C41.9394 283.369 48.2631 284.385 54.6548 284.994C59.4146 285.468 58.9387 285.535 62.4745 285.874C70.3622 286.551 72.8781 286.077 95.4531 285.129C100.281 284.926 104.973 283.775 109.8 283.505C109.8 283.505 111.568 283.369 117.008 281.541C117.416 281.406 118.708 280.932 119.388 279.849C119.728 279.24 119.796 278.766 119.796 278.63C119.796 278.495 119.796 277.818 119.388 277.276C118.912 276.667 118.096 276.599 117.552 276.532C114.628 276.329 112.384 277.073 112.384 277.073C109.936 277.886 107.285 277.818 104.769 278.359C98.037 279.781 86.4775 280.255 81.8537 280.458C71.1781 280.797 60.5706 280.526 55.3348 279.781Z" fill="#CE8F31"/>
<path d="M106.129 287.296C104.973 287.837 103.681 287.905 102.457 288.311C99.2609 289.327 93.1411 290.004 92.0532 290.139C83.8935 291.019 75.2579 290.613 66.2143 290.139C61.8625 289.936 59.0066 289.665 53.3629 289.123C48.6711 288.65 47.6511 288.446 46.6991 288.243C45.4752 287.905 44.1833 287.905 42.9593 287.499C42.5513 287.363 41.3954 286.889 40.4434 287.296C39.8994 287.499 39.7634 287.77 39.6955 287.905C39.6955 287.905 39.5595 288.311 39.6955 288.853C40.1714 290.613 44.7952 291.019 44.7952 291.019C51.187 291.561 57.5107 292.847 63.9024 292.915C73.354 293.05 78.4538 293.592 87.3614 293.456C88.7213 293.456 91.8492 293.388 95.929 292.779C97.9689 292.508 99.5328 292.238 101.573 291.628C105.109 290.545 108.78 288.785 108.78 288.785C108.78 288.785 109.12 288.311 109.12 287.905C109.12 287.499 108.78 287.025 108.508 286.889C107.896 286.416 107.081 286.889 106.129 287.296Z" fill="#CE8F31"/>
<path d="M83.0095 310.448C89.3332 310.448 90.2851 310.922 96.8129 310.448C98.5808 310.313 100.893 310.11 103.545 309.771C104.021 309.568 104.293 309.23 104.293 308.824C104.293 308.282 103.681 308.011 103.477 307.876C102.729 307.47 101.845 307.605 101.709 307.605C98.1728 308.011 94.501 307.267 90.9651 307.537C88.1092 307.741 84.0294 308.011 78.6577 308.079C77.7057 308.485 77.6377 308.824 77.6377 308.959C77.7057 309.501 79.1336 309.839 80.0176 310.042C81.7175 310.448 83.0095 310.448 83.0095 310.448Z" fill="#CE8F31"/>
<path d="M61.2505 306.996C60.0266 306.996 58.0547 306.928 55.4708 306.86C55.2668 306.928 54.3828 307.131 54.3148 307.673C54.2468 308.282 55.3348 308.824 55.6748 309.027C57.2387 309.839 58.5986 309.771 62.5425 309.771C63.2224 309.771 63.9024 309.771 64.6504 309.771C66.6223 309.771 69.4102 309.771 73.082 309.771C73.422 309.568 73.898 309.23 73.83 308.891C73.762 308.418 72.606 308.214 71.994 308.079C65.1943 307.064 61.2505 306.996 61.2505 306.996Z" fill="#CE8F31"/>
<path d="M97.9689 300.768C97.4929 300.768 96.473 300.768 94.433 300.903C93.3451 300.971 91.8492 301.038 89.9452 301.174C89.8772 301.174 89.0613 301.309 88.6533 300.903C88.3813 300.565 88.4493 300.023 88.5853 299.752C88.9933 298.669 91.4412 298.669 94.909 298.669C96.269 298.669 98.7169 298.669 102.185 298.669C102.253 298.669 102.797 298.534 103.069 298.872C103.341 299.211 103.137 299.82 102.865 300.091C102.525 300.565 101.913 300.565 101.029 300.632C99.2608 300.7 98.3089 300.768 97.9689 300.768Z" fill="#CE8F31"/>
<path d="M71.1101 298.872C66.7583 299.007 62.4065 298.466 58.0547 298.33C55.4708 298.263 51.595 298.06 46.8352 297.857C46.7672 297.857 46.1552 297.992 45.9512 298.466C45.6792 298.94 45.8832 299.684 46.4952 300.091C50.303 300.294 53.3629 300.632 55.5388 300.835C61.2505 301.445 63.0865 301.918 67.5063 301.986C70.5661 302.054 72.946 301.918 74.306 301.783C76.4819 301.58 78.4538 301.309 79.9497 301.106C80.0857 301.106 80.5617 301.106 80.8337 300.768C80.8337 300.768 81.0377 300.429 80.7657 299.82C80.1537 298.398 73.558 298.737 71.1101 298.872Z" fill="#CE8F31"/>
<path d="M77.3659 315.323C76.8899 315.323 75.8699 315.323 73.83 315.187C72.7421 315.12 71.2461 315.052 69.3422 314.917C69.2742 314.917 68.4583 314.781 68.0503 315.187C67.7783 315.526 67.8463 316.067 67.9823 316.338C68.3903 317.421 70.8382 317.421 74.306 317.421C75.6659 317.421 78.1138 317.421 81.5817 317.421C81.6497 317.421 82.1937 317.557 82.4656 317.218C82.7376 316.88 82.5336 316.271 82.2617 316C81.9217 315.526 81.3097 315.526 80.4257 315.458C78.5898 315.39 77.7059 315.323 77.3659 315.323Z" fill="#CE8F31"/>
<path d="M239.104 195.104C239.92 194.021 237.744 191.99 236.52 188.334C235.908 186.507 235.772 185.153 235.568 182.445C235.296 179.06 234.82 172.154 237.812 164.166C238.356 162.609 240.464 157.329 245.359 151.845C248.419 148.392 255.967 139.862 267.934 138.576C280.65 137.222 290.169 144.94 294.249 148.325C296.289 149.949 307.441 159.427 309.685 174.727C311.248 185.559 307.645 195.172 307.373 195.51C307.373 195.51 307.237 195.713 307.237 195.917C307.237 196.187 307.509 196.39 307.645 196.458C308.121 196.797 309.889 197.338 311.656 196.39C311.792 196.323 312.608 195.849 313.288 194.901C314.036 193.818 314.172 192.735 314.24 192.396C314.988 186.574 316.416 182.919 316.348 178.044C316.212 171.477 313.22 155.975 300.097 144.534C296.561 141.419 287.517 133.499 273.918 133.025C255.491 132.348 243.523 145.684 241.211 148.392C238.696 151.236 231.488 159.495 230.128 172.493C228.836 184.882 233.936 194.766 234.072 194.969C234.072 194.969 234.208 195.172 234.276 195.443C234.344 195.646 234.344 195.713 234.344 195.713C234.548 196.187 236.452 195.917 236.452 195.917C238.016 195.51 238.9 195.375 239.104 195.104Z" fill="#AB6F26"/>
<path d="M233.596 198.015C233.732 199.234 233.324 210.742 236.656 221.777C238.56 228.276 240.532 230.307 241.347 231.12C242.367 232.067 244.067 233.354 248.011 234.843C251.207 235.994 254.947 236.874 267.798 237.551C273.782 237.822 276.842 238.025 281.194 237.822C286.702 237.619 290.101 237.483 294.453 236.332C298.533 235.249 303.225 233.963 306.557 229.901C307.781 228.412 308.325 227.193 309.413 224.756C309.413 224.756 313.832 214.534 313.356 198.218C313.356 197.203 313.22 195.917 313.22 195.917C313.22 195.646 313.152 195.51 313.152 195.443C312.676 194.156 272.218 203.431 245.835 197.88C242.231 197.135 233.528 197 233.528 197.474C233.596 197.744 233.596 197.812 233.596 198.015Z" fill="#AB6F26"/>
<path d="M254.335 195.781C250.663 195.24 248.351 194.901 248.351 194.901C243.319 194.156 243.455 194.156 242.503 194.021C239.987 193.75 238.831 193.818 236.384 193.344C235.024 193.073 234.344 192.938 233.8 192.802C231.692 192.193 230.672 191.448 229.04 191.719C228.564 191.787 228.156 191.922 227.816 192.193C227.272 192.599 227 193.276 227 193.953C227.068 194.698 227.544 195.307 228.156 195.849C231.08 198.218 234.548 198.624 234.548 198.624C240.939 199.369 247.263 200.385 253.655 200.994C258.415 201.468 257.939 201.535 261.475 201.874C269.362 202.551 271.878 202.077 294.453 201.129C299.281 200.926 303.973 199.775 308.8 199.505C308.8 199.505 310.568 199.369 316.008 197.541C316.416 197.406 317.708 196.932 318.388 195.849C318.728 195.24 318.796 194.766 318.796 194.63C318.796 194.495 318.796 193.818 318.388 193.276C317.912 192.667 317.096 192.599 316.552 192.532C313.628 192.329 311.384 193.073 311.384 193.073C308.936 193.886 306.285 193.818 303.769 194.359C297.037 195.781 285.477 196.255 280.854 196.458C270.178 196.797 259.571 196.526 254.335 195.781Z" fill="#CE8F31"/>
<path d="M305.129 203.296C303.973 203.837 302.681 203.905 301.457 204.311C298.261 205.327 292.141 206.004 291.053 206.139C282.894 207.019 274.258 206.613 265.214 206.139C260.862 205.936 258.007 205.665 252.363 205.124C247.671 204.65 246.651 204.447 245.699 204.243C244.475 203.905 243.183 203.905 241.959 203.499C241.551 203.363 240.395 202.889 239.443 203.296C238.899 203.499 238.763 203.77 238.695 203.905C238.695 203.905 238.559 204.311 238.695 204.853C239.171 206.613 243.795 207.019 243.795 207.019C250.187 207.561 256.511 208.847 262.902 208.915C272.354 209.05 277.454 209.592 286.361 209.456C287.721 209.456 290.849 209.389 294.929 208.779C296.969 208.508 298.533 208.238 300.573 207.628C304.109 206.545 307.78 204.785 307.78 204.785C307.78 204.785 308.12 204.311 308.12 203.905C308.12 203.499 307.78 203.025 307.508 202.889C306.896 202.416 306.081 202.889 305.129 203.296Z" fill="#CE8F31"/>
<path d="M282.009 226.448C288.333 226.448 289.285 226.922 295.813 226.448C297.581 226.313 299.893 226.11 302.545 225.771C303.021 225.568 303.293 225.23 303.293 224.824C303.293 224.282 302.681 224.011 302.477 223.876C301.729 223.47 300.845 223.605 300.709 223.605C297.173 224.011 293.501 223.267 289.965 223.537C287.109 223.741 283.029 224.011 277.658 224.079C276.706 224.485 276.638 224.824 276.638 224.959C276.706 225.501 278.134 225.839 279.018 226.042C280.718 226.448 282.009 226.448 282.009 226.448Z" fill="#CE8F31"/>
<path d="M260.251 222.996C259.027 222.996 257.055 222.928 254.471 222.86C254.267 222.928 253.383 223.131 253.315 223.673C253.247 224.282 254.335 224.824 254.675 225.027C256.239 225.839 257.599 225.771 261.542 225.771C262.222 225.771 262.902 225.771 263.65 225.771C265.622 225.771 268.41 225.771 272.082 225.771C272.422 225.568 272.898 225.23 272.83 224.891C272.762 224.418 271.606 224.214 270.994 224.079C264.194 223.064 260.251 222.996 260.251 222.996Z" fill="#CE8F31"/>
<path d="M296.969 216.768C296.493 216.768 295.473 216.768 293.433 216.903C292.345 216.971 290.849 217.038 288.945 217.174C288.877 217.174 288.061 217.309 287.653 216.903C287.381 216.565 287.449 216.023 287.585 215.752C287.993 214.669 290.441 214.669 293.909 214.669C295.269 214.669 297.717 214.669 301.185 214.669C301.253 214.669 301.797 214.534 302.069 214.872C302.341 215.211 302.137 215.82 301.865 216.091C301.525 216.565 300.913 216.565 300.029 216.632C298.261 216.7 297.309 216.768 296.969 216.768Z" fill="#CE8F31"/>
<path d="M270.11 214.872C265.758 215.007 261.406 214.466 257.055 214.33C254.471 214.263 250.595 214.06 245.835 213.857C245.767 213.857 245.155 213.992 244.951 214.466C244.679 214.94 244.883 215.684 245.495 216.091C249.303 216.294 252.363 216.632 254.539 216.835C260.251 217.445 262.086 217.918 266.506 217.986C269.566 218.054 271.946 217.918 273.306 217.783C275.482 217.58 277.454 217.309 278.95 217.106C279.086 217.106 279.562 217.106 279.834 216.768C279.834 216.768 280.038 216.429 279.766 215.82C279.154 214.398 272.558 214.737 270.11 214.872Z" fill="#CE8F31"/>
<path d="M276.366 231.323C275.89 231.323 274.87 231.323 272.83 231.187C271.742 231.12 270.246 231.052 268.342 230.917C268.274 230.917 267.458 230.781 267.05 231.187C266.778 231.526 266.846 232.067 266.982 232.338C267.39 233.421 269.838 233.421 273.306 233.421C274.666 233.421 277.114 233.421 280.582 233.421C280.65 233.421 281.194 233.557 281.466 233.218C281.738 232.88 281.534 232.271 281.262 232C280.922 231.526 280.31 231.526 279.426 231.458C277.59 231.39 276.706 231.323 276.366 231.323Z" fill="#CE8F31"/>
<path d="M187.661 158.078C187.661 141.219 187.877 140.36 187.769 130.266C187.769 118.132 187.337 110.401 187.661 100.951C187.661 99.9851 187.661 99.3408 187.769 98.0522C188.094 85.3814 187.661 82.9117 187.337 81.6231C186.904 79.6903 186.039 77.9722 184.417 74.5361C181.281 67.7711 177.713 62.4021 176.632 60.8988C171.333 53.8117 157.709 50.3756 145.057 50.483C139.218 50.483 133.596 51.2346 128.946 52.6306C124.296 51.2346 118.673 50.483 112.834 50.483C100.183 50.3756 86.5585 53.8117 81.2601 60.8988C80.1788 62.4021 76.6104 67.7711 73.4746 74.5361C71.8526 77.8648 71.0957 79.5829 70.5551 81.5157C70.2307 82.9117 69.7982 85.3814 70.1225 97.9449C70.1225 99.2334 70.1225 99.8777 70.2307 100.844C70.5551 110.294 70.2307 118.132 70.1225 130.159C70.1225 140.253 70.3388 141.112 70.2307 157.97C70.2307 160.118 70.2307 162.158 70.2307 164.306C70.1225 172.252 69.5819 178.802 70.6632 186.855C70.8795 188.573 71.2039 190.292 72.3933 192.117C72.934 192.869 73.4746 193.513 74.0153 194.05C75.9616 196.412 78.5568 198.023 80.395 198.13C80.6113 198.13 81.2601 198.13 82.1251 198.13H82.3414H83.3146C84.1796 198.13 84.8284 198.13 85.0447 198.13H172.955C173.172 198.13 173.82 198.13 174.685 198.13H175.659H175.875C176.74 198.13 177.389 198.13 177.605 198.13C179.443 198.023 182.038 196.412 183.985 194.05C184.634 193.513 185.174 192.869 185.607 192.117C186.796 190.292 187.121 188.573 187.337 186.855C188.418 178.802 187.877 172.252 187.769 164.306C187.553 162.265 187.661 160.118 187.661 158.078Z" fill="#C890A7"/>
<path d="M178.254 64.7645H79.4217C75.2046 64.7645 71.7444 61.3284 71.7444 57.1406V49.624C71.6363 45.4362 75.0965 42 79.4217 42H178.254C182.471 42 185.931 45.4362 185.931 49.624V57.1406C185.931 61.3284 182.471 64.7645 178.254 64.7645Z" fill="#8A8C95"/>
<path d="M182.363 147.125C182.363 128.441 182.579 127.474 182.471 116.307C182.471 102.884 182.146 94.294 182.363 83.7707C182.363 83.6634 181.065 81.7305 180.741 80.8715C180.092 80.2272 179.011 79.2608 177.605 78.4018C172.847 75.6099 167.549 75.932 161.169 76.4689C158.466 76.6837 157.601 77.0058 151.653 77.5427C147.761 77.8649 146.355 77.9722 144.733 77.8649C142.354 77.6501 142.138 77.328 137.272 76.4689C133.055 75.6099 130.892 75.1804 128.405 75.1804C125.486 75.073 123.215 75.3951 120.944 75.8246C117.268 76.3615 116.619 77.1132 112.834 77.6501C111.753 77.7575 109.807 78.0796 107.32 77.9722C103.968 77.8649 102.129 77.2206 99.7504 76.6837C98.561 76.4689 90.9918 74.8582 83.2064 77.0058C83.2064 77.0058 79.8543 77.9722 77.4754 80.2272C77.0429 80.6567 75.4209 82.16 75.529 83.8781C75.7453 94.1866 75.4209 102.884 75.4209 116.199C75.4209 127.367 75.529 128.333 75.529 147.017C75.529 149.38 75.529 151.635 75.529 153.997C75.4209 162.802 74.9884 170.104 75.8534 178.909C76.0697 180.735 76.286 182.668 77.3673 184.708C77.7998 185.567 78.3404 186.318 78.8811 186.855C80.6112 189.54 82.9901 191.258 84.6121 191.365C84.7202 191.365 85.369 191.365 86.1259 191.365H86.3422H87.2072C87.9641 191.365 88.5048 191.365 88.721 191.365H168.738C168.954 191.365 169.495 191.365 170.252 191.365H171.117H171.333C172.09 191.365 172.739 191.365 172.847 191.365C174.577 191.258 176.848 189.54 178.578 186.855C179.119 186.211 179.659 185.459 180.092 184.708C181.173 182.668 181.39 180.735 181.606 178.909C182.579 169.997 182.038 162.802 181.93 153.997C182.255 151.742 182.363 149.38 182.363 147.125Z" fill="#B44276"/>
<path d="M173.712 157.111V109.435C169.82 109.435 166.684 106.857 166.684 103.743H90.9919C90.9919 106.857 87.8561 109.435 83.9634 109.435V157.219C87.8561 157.219 90.9919 159.796 90.9919 162.91H166.684C166.684 159.688 169.82 157.111 173.712 157.111Z" fill="white"/>
<path opacity="0.39" d="M87.6396 178.802V102.562C87.6396 99.2335 90.4511 96.4416 93.8031 96.4416C97.1552 96.4416 99.9666 99.2335 99.9666 102.562V178.909C99.9666 182.238 97.1552 185.03 93.8031 185.03C90.3429 184.923 87.6396 182.238 87.6396 178.802Z" fill="white"/>
<path opacity="0.39" d="M87.6396 84.8446V77.4353C87.6396 74.1066 90.4511 71.3147 93.8031 71.3147C97.1552 71.3147 99.9666 74.1066 99.9666 77.4353V84.8446C99.9666 88.1733 97.1552 90.9652 93.8031 90.9652C90.3429 90.9652 87.6396 88.1733 87.6396 84.8446Z" fill="white"/>
<path d="M201.661 471.078C201.661 454.219 201.877 453.36 201.769 443.266C201.769 431.132 201.337 423.401 201.661 413.952C201.661 412.985 201.661 412.341 201.769 411.052C202.094 398.381 201.661 395.912 201.337 394.623C200.904 392.69 200.039 390.972 198.417 387.536C195.281 380.771 191.713 375.402 190.632 373.899C185.333 366.812 171.709 363.376 159.057 363.483C153.218 363.483 147.596 364.235 142.946 365.631C138.296 364.235 132.673 363.483 126.834 363.483C114.183 363.376 100.558 366.812 95.2601 373.899C94.1788 375.402 90.6104 380.771 87.4746 387.536C85.8526 390.865 85.0957 392.583 84.5551 394.516C84.2307 395.912 83.7982 398.381 84.1225 410.945C84.1225 412.233 84.1225 412.878 84.2307 413.844C84.5551 423.294 84.2307 431.132 84.1225 443.159C84.1225 453.253 84.3388 454.112 84.2307 470.97C84.2307 473.118 84.2307 475.158 84.2307 477.306C84.1225 485.252 83.5819 491.802 84.6632 499.855C84.8795 501.573 85.2039 503.292 86.3933 505.117C86.934 505.869 87.4746 506.513 88.0153 507.05C89.9616 509.412 92.5568 511.023 94.395 511.13C94.6113 511.13 95.2601 511.13 96.1251 511.13H96.3414H97.3146C98.1796 511.13 98.8284 511.13 99.0447 511.13H186.955C187.172 511.13 187.82 511.13 188.685 511.13H189.659H189.875C190.74 511.13 191.389 511.13 191.605 511.13C193.443 511.023 196.038 509.412 197.985 507.05C198.634 506.513 199.174 505.869 199.607 505.117C200.796 503.292 201.121 501.573 201.337 499.855C202.418 491.802 201.877 485.252 201.769 477.306C201.553 475.265 201.661 473.118 201.661 471.078Z" fill="#C890A7"/>
<path d="M192.254 377.765H93.4217C89.2046 377.765 85.7444 374.328 85.7444 370.141V362.624C85.6363 358.436 89.0965 355 93.4217 355H192.254C196.471 355 199.931 358.436 199.931 362.624V370.141C199.931 374.328 196.471 377.765 192.254 377.765Z" fill="#8A8C95"/>
<path d="M196.363 460.125C196.363 441.441 196.579 440.474 196.471 429.307C196.471 415.884 196.146 407.294 196.363 396.771C196.363 396.663 195.065 394.731 194.741 393.871C194.092 393.227 193.011 392.261 191.605 391.402C186.847 388.61 181.549 388.932 175.169 389.469C172.466 389.684 171.601 390.006 165.653 390.543C161.761 390.865 160.355 390.972 158.733 390.865C156.354 390.65 156.138 390.328 151.272 389.469C147.055 388.61 144.892 388.18 142.405 388.18C139.486 388.073 137.215 388.395 134.944 388.825C131.268 389.362 130.619 390.113 126.834 390.65C125.753 390.757 123.807 391.08 121.32 390.972C117.968 390.865 116.129 390.221 113.75 389.684C112.561 389.469 104.992 387.858 97.2064 390.006C97.2064 390.006 93.8543 390.972 91.4754 393.227C91.0429 393.657 89.4209 395.16 89.529 396.878C89.7453 407.187 89.4209 415.884 89.4209 429.199C89.4209 440.367 89.529 441.333 89.529 460.017C89.529 462.38 89.529 464.635 89.529 466.997C89.4209 475.802 88.9884 483.104 89.8534 491.909C90.0697 493.735 90.286 495.668 91.3673 497.708C91.7998 498.567 92.3404 499.318 92.8811 499.855C94.6112 502.54 96.9901 504.258 98.6121 504.365C98.7202 504.365 99.369 504.365 100.126 504.365H100.342H101.207C101.964 504.365 102.505 504.365 102.721 504.365H182.738C182.954 504.365 183.495 504.365 184.252 504.365H185.117H185.333C186.09 504.365 186.739 504.365 186.847 504.365C188.577 504.258 190.848 502.54 192.578 499.855C193.119 499.211 193.659 498.459 194.092 497.708C195.173 495.668 195.39 493.735 195.606 491.909C196.579 482.997 196.038 475.802 195.93 466.997C196.255 464.742 196.363 462.38 196.363 460.125Z" fill="#B44276"/>
<path d="M187.712 470.111V422.435C183.82 422.435 180.684 419.858 180.684 416.744H104.992C104.992 419.858 101.856 422.435 97.9634 422.435V470.219C101.856 470.219 104.992 472.796 104.992 475.91H180.684C180.684 472.688 183.82 470.111 187.712 470.111Z" fill="white"/>
<path opacity="0.39" d="M101.64 491.802V415.562C101.64 412.234 104.451 409.442 107.803 409.442C111.155 409.442 113.967 412.234 113.967 415.562V491.909C113.967 495.238 111.155 498.03 107.803 498.03C104.343 497.923 101.64 495.238 101.64 491.802Z" fill="white"/>
<path opacity="0.39" d="M101.64 397.845V390.435C101.64 387.107 104.451 384.315 107.803 384.315C111.155 384.315 113.967 387.107 113.967 390.435V397.845C113.967 401.173 111.155 403.965 107.803 403.965C104.343 403.965 101.64 401.173 101.64 397.845Z" fill="white"/>
<path d="M841.661 306.078C841.661 289.219 841.877 288.36 841.769 278.266C841.769 266.132 841.337 258.401 841.661 248.951C841.661 247.985 841.661 247.341 841.769 246.052C842.094 233.381 841.661 230.912 841.337 229.623C840.904 227.69 840.039 225.972 838.417 222.536C835.281 215.771 831.713 210.402 830.632 208.899C825.333 201.812 811.709 198.376 799.057 198.483C793.218 198.483 787.596 199.235 782.946 200.631C778.296 199.235 772.673 198.483 766.834 198.483C754.183 198.376 740.558 201.812 735.26 208.899C734.179 210.402 730.61 215.771 727.475 222.536C725.853 225.865 725.096 227.583 724.555 229.516C724.231 230.912 723.798 233.381 724.123 245.945C724.123 247.233 724.123 247.878 724.231 248.844C724.555 258.294 724.231 266.132 724.123 278.159C724.123 288.253 724.339 289.112 724.231 305.97C724.231 308.118 724.231 310.158 724.231 312.306C724.123 320.252 723.582 326.802 724.663 334.855C724.879 336.573 725.204 338.292 726.393 340.117C726.934 340.869 727.475 341.513 728.015 342.05C729.962 344.412 732.557 346.023 734.395 346.13C734.611 346.13 735.26 346.13 736.125 346.13H736.341H737.315C738.18 346.13 738.828 346.13 739.045 346.13H826.955C827.172 346.13 827.82 346.13 828.685 346.13H829.659H829.875C830.74 346.13 831.389 346.13 831.605 346.13C833.443 346.023 836.038 344.412 837.985 342.05C838.634 341.513 839.174 340.869 839.607 340.117C840.796 338.292 841.121 336.573 841.337 334.855C842.418 326.802 841.877 320.252 841.769 312.306C841.553 310.265 841.661 308.118 841.661 306.078Z" fill="#C890A7"/>
<path d="M832.254 212.765H733.422C729.205 212.765 725.744 209.328 725.744 205.141V197.624C725.636 193.436 729.096 190 733.422 190H832.254C836.471 190 839.931 193.436 839.931 197.624V205.141C839.931 209.328 836.471 212.765 832.254 212.765Z" fill="#8A8C95"/>
<path d="M836.363 295.125C836.363 276.441 836.579 275.474 836.471 264.307C836.471 250.884 836.146 242.294 836.363 231.771C836.363 231.663 835.065 229.731 834.741 228.871C834.092 228.227 833.011 227.261 831.605 226.402C826.847 223.61 821.549 223.932 815.169 224.469C812.466 224.684 811.601 225.006 805.653 225.543C801.761 225.865 800.355 225.972 798.733 225.865C796.354 225.65 796.138 225.328 791.272 224.469C787.055 223.61 784.892 223.18 782.405 223.18C779.486 223.073 777.215 223.395 774.944 223.825C771.268 224.362 770.619 225.113 766.834 225.65C765.753 225.757 763.807 226.08 761.32 225.972C757.968 225.865 756.129 225.221 753.75 224.684C752.561 224.469 744.992 222.858 737.206 225.006C737.206 225.006 733.854 225.972 731.475 228.227C731.043 228.657 729.421 230.16 729.529 231.878C729.745 242.187 729.421 250.884 729.421 264.199C729.421 275.367 729.529 276.333 729.529 295.017C729.529 297.38 729.529 299.635 729.529 301.997C729.421 310.802 728.988 318.104 729.853 326.909C730.07 328.735 730.286 330.668 731.367 332.708C731.8 333.567 732.34 334.318 732.881 334.855C734.611 337.54 736.99 339.258 738.612 339.365C738.72 339.365 739.369 339.365 740.126 339.365H740.342H741.207C741.964 339.365 742.505 339.365 742.721 339.365H822.738C822.954 339.365 823.495 339.365 824.252 339.365H825.117H825.333C826.09 339.365 826.739 339.365 826.847 339.365C828.577 339.258 830.848 337.54 832.578 334.855C833.119 334.211 833.659 333.459 834.092 332.708C835.173 330.668 835.39 328.735 835.606 326.909C836.579 317.997 836.038 310.802 835.93 301.997C836.255 299.742 836.363 297.38 836.363 295.125Z" fill="#B44276"/>
<path d="M827.712 305.111V257.435C823.82 257.435 820.684 254.857 820.684 251.743H744.992C744.992 254.857 741.856 257.435 737.963 257.435V305.219C741.856 305.219 744.992 307.796 744.992 310.91H820.684C820.684 307.688 823.82 305.111 827.712 305.111Z" fill="white"/>
<path opacity="0.39" d="M741.64 326.802V250.562C741.64 247.233 744.451 244.442 747.803 244.442C751.155 244.442 753.967 247.233 753.967 250.562V326.909C753.967 330.238 751.155 333.03 747.803 333.03C744.343 332.923 741.64 330.238 741.64 326.802Z" fill="white"/>
<path opacity="0.39" d="M741.64 232.845V225.435C741.64 222.107 744.451 219.315 747.803 219.315C751.155 219.315 753.967 222.107 753.967 225.435V232.845C753.967 236.173 751.155 238.965 747.803 238.965C744.343 238.965 741.64 236.173 741.64 232.845Z" fill="white"/>
<path d="M528.661 256.078C528.661 239.219 528.877 238.36 528.769 228.266C528.769 216.132 528.337 208.401 528.661 198.951C528.661 197.985 528.661 197.341 528.769 196.052C529.094 183.381 528.661 180.912 528.337 179.623C527.904 177.69 527.039 175.972 525.417 172.536C522.281 165.771 518.713 160.402 517.632 158.899C512.333 151.812 498.709 148.376 486.057 148.483C480.218 148.483 474.596 149.235 469.946 150.631C465.296 149.235 459.673 148.483 453.834 148.483C441.183 148.376 427.558 151.812 422.26 158.899C421.179 160.402 417.61 165.771 414.475 172.536C412.853 175.865 412.096 177.583 411.555 179.516C411.231 180.912 410.798 183.381 411.123 195.945C411.123 197.233 411.123 197.878 411.231 198.844C411.555 208.294 411.231 216.132 411.123 228.159C411.123 238.253 411.339 239.112 411.231 255.97C411.231 258.118 411.231 260.158 411.231 262.306C411.123 270.252 410.582 276.802 411.663 284.855C411.879 286.573 412.204 288.292 413.393 290.117C413.934 290.869 414.475 291.513 415.015 292.05C416.962 294.412 419.557 296.023 421.395 296.13C421.611 296.13 422.26 296.13 423.125 296.13H423.341H424.315C425.18 296.13 425.828 296.13 426.045 296.13H513.955C514.172 296.13 514.82 296.13 515.685 296.13H516.659H516.875C517.74 296.13 518.389 296.13 518.605 296.13C520.443 296.023 523.038 294.412 524.985 292.05C525.634 291.513 526.174 290.869 526.607 290.117C527.796 288.292 528.121 286.573 528.337 284.855C529.418 276.802 528.877 270.252 528.769 262.306C528.553 260.265 528.661 258.118 528.661 256.078Z" fill="#C890A7"/>
<path d="M519.254 162.765H420.422C416.205 162.765 412.744 159.328 412.744 155.141V147.624C412.636 143.436 416.096 140 420.422 140H519.254C523.471 140 526.931 143.436 526.931 147.624V155.141C526.931 159.328 523.471 162.765 519.254 162.765Z" fill="#8A8C95"/>
<path d="M523.363 245.125C523.363 226.441 523.579 225.474 523.471 214.307C523.471 200.884 523.146 192.294 523.363 181.771C523.363 181.663 522.065 179.731 521.741 178.871C521.092 178.227 520.011 177.261 518.605 176.402C513.847 173.61 508.549 173.932 502.169 174.469C499.466 174.684 498.601 175.006 492.653 175.543C488.761 175.865 487.355 175.972 485.733 175.865C483.354 175.65 483.138 175.328 478.272 174.469C474.055 173.61 471.892 173.18 469.405 173.18C466.486 173.073 464.215 173.395 461.944 173.825C458.268 174.362 457.619 175.113 453.834 175.65C452.753 175.757 450.807 176.08 448.32 175.972C444.968 175.865 443.129 175.221 440.75 174.684C439.561 174.469 431.992 172.858 424.206 175.006C424.206 175.006 420.854 175.972 418.475 178.227C418.043 178.657 416.421 180.16 416.529 181.878C416.745 192.187 416.421 200.884 416.421 214.199C416.421 225.367 416.529 226.333 416.529 245.017C416.529 247.38 416.529 249.635 416.529 251.997C416.421 260.802 415.988 268.104 416.853 276.909C417.07 278.735 417.286 280.668 418.367 282.708C418.8 283.567 419.34 284.318 419.881 284.855C421.611 287.54 423.99 289.258 425.612 289.365C425.72 289.365 426.369 289.365 427.126 289.365H427.342H428.207C428.964 289.365 429.505 289.365 429.721 289.365H509.738C509.954 289.365 510.495 289.365 511.252 289.365H512.117H512.333C513.09 289.365 513.739 289.365 513.847 289.365C515.577 289.258 517.848 287.54 519.578 284.855C520.119 284.211 520.659 283.459 521.092 282.708C522.173 280.668 522.39 278.735 522.606 276.909C523.579 267.997 523.038 260.802 522.93 251.997C523.255 249.742 523.363 247.38 523.363 245.125Z" fill="#B44276"/>
<path d="M514.712 255.111V207.435C510.82 207.435 507.684 204.857 507.684 201.743H431.992C431.992 204.857 428.856 207.435 424.963 207.435V255.219C428.856 255.219 431.992 257.796 431.992 260.91H507.684C507.684 257.688 510.82 255.111 514.712 255.111Z" fill="white"/>
<path opacity="0.39" d="M428.64 276.802V200.562C428.64 197.233 431.451 194.442 434.803 194.442C438.155 194.442 440.967 197.233 440.967 200.562V276.909C440.967 280.238 438.155 283.03 434.803 283.03C431.343 282.923 428.64 280.238 428.64 276.802Z" fill="white"/>
<path opacity="0.39" d="M428.64 182.845V175.435C428.64 172.107 431.451 169.315 434.803 169.315C438.155 169.315 440.967 172.107 440.967 175.435V182.845C440.967 186.173 438.155 188.965 434.803 188.965C431.343 188.965 428.64 186.173 428.64 182.845Z" fill="white"/>
<path d="M705.661 138.078C705.661 121.219 705.877 120.36 705.769 110.266C705.769 98.1323 705.337 90.4009 705.661 80.9515C705.661 79.9851 705.661 79.3408 705.769 78.0522C706.094 65.3814 705.661 62.9117 705.337 61.6231C704.904 59.6903 704.039 57.9722 702.417 54.5361C699.281 47.7711 695.713 42.4021 694.632 40.8988C689.333 33.8117 675.709 30.3756 663.057 30.483C657.218 30.483 651.596 31.2346 646.946 32.6306C642.296 31.2346 636.673 30.483 630.834 30.483C618.183 30.3756 604.558 33.8117 599.26 40.8988C598.179 42.4021 594.61 47.7711 591.475 54.5361C589.853 57.8648 589.096 59.5829 588.555 61.5157C588.231 62.9117 587.798 65.3814 588.123 77.9449C588.123 79.2334 588.123 79.8777 588.231 80.8441C588.555 90.2935 588.231 98.1323 588.123 110.159C588.123 120.253 588.339 121.112 588.231 137.97C588.231 140.118 588.231 142.158 588.231 144.306C588.123 152.252 587.582 158.802 588.663 166.855C588.879 168.573 589.204 170.292 590.393 172.117C590.934 172.869 591.475 173.513 592.015 174.05C593.962 176.412 596.557 178.023 598.395 178.13C598.611 178.13 599.26 178.13 600.125 178.13H600.341H601.315C602.18 178.13 602.828 178.13 603.045 178.13H690.955C691.172 178.13 691.82 178.13 692.685 178.13H693.659H693.875C694.74 178.13 695.389 178.13 695.605 178.13C697.443 178.023 700.038 176.412 701.985 174.05C702.634 173.513 703.174 172.869 703.607 172.117C704.796 170.292 705.121 168.573 705.337 166.855C706.418 158.802 705.877 152.252 705.769 144.306C705.553 142.265 705.661 140.118 705.661 138.078Z" fill="#C890A7"/>
<path d="M696.254 44.7645H597.422C593.205 44.7645 589.744 41.3284 589.744 37.1406V29.624C589.636 25.4362 593.096 22 597.422 22H696.254C700.471 22 703.931 25.4362 703.931 29.624V37.1406C703.931 41.3284 700.471 44.7645 696.254 44.7645Z" fill="#8A8C95"/>
<path d="M700.363 127.125C700.363 108.441 700.579 107.474 700.471 96.3068C700.471 82.8843 700.146 74.294 700.363 63.7707C700.363 63.6634 699.065 61.7305 698.741 60.8715C698.092 60.2272 697.011 59.2608 695.605 58.4018C690.847 55.6099 685.549 55.932 679.169 56.4689C676.466 56.6837 675.601 57.0058 669.653 57.5427C665.761 57.8649 664.355 57.9722 662.733 57.8649C660.354 57.6501 660.138 57.328 655.272 56.4689C651.055 55.6099 648.892 55.1804 646.405 55.1804C643.486 55.073 641.215 55.3951 638.944 55.8246C635.268 56.3615 634.619 57.1132 630.834 57.6501C629.753 57.7575 627.807 58.0796 625.32 57.9722C621.968 57.8649 620.129 57.2206 617.75 56.6837C616.561 56.4689 608.992 54.8582 601.206 57.0058C601.206 57.0058 597.854 57.9722 595.475 60.2272C595.043 60.6567 593.421 62.16 593.529 63.8781C593.745 74.1866 593.421 82.8843 593.421 96.1994C593.421 107.367 593.529 108.333 593.529 127.017C593.529 129.38 593.529 131.635 593.529 133.997C593.421 142.802 592.988 150.104 593.853 158.909C594.07 160.735 594.286 162.668 595.367 164.708C595.8 165.567 596.34 166.318 596.881 166.855C598.611 169.54 600.99 171.258 602.612 171.365C602.72 171.365 603.369 171.365 604.126 171.365H604.342H605.207C605.964 171.365 606.505 171.365 606.721 171.365H686.738C686.954 171.365 687.495 171.365 688.252 171.365H689.117H689.333C690.09 171.365 690.739 171.365 690.847 171.365C692.577 171.258 694.848 169.54 696.578 166.855C697.119 166.211 697.659 165.459 698.092 164.708C699.173 162.668 699.39 160.735 699.606 158.909C700.579 149.997 700.038 142.802 699.93 133.997C700.255 131.742 700.363 129.38 700.363 127.125Z" fill="#B44276"/>
<path d="M691.712 137.111V89.4346C687.82 89.4346 684.684 86.8575 684.684 83.7435H608.992C608.992 86.8575 605.856 89.4346 601.963 89.4346V137.219C605.856 137.219 608.992 139.796 608.992 142.91H684.684C684.684 139.688 687.82 137.111 691.712 137.111Z" fill="white"/>
<path opacity="0.39" d="M605.64 158.802V82.5622C605.64 79.2335 608.451 76.4416 611.803 76.4416C615.155 76.4416 617.967 79.2335 617.967 82.5622V158.909C617.967 162.238 615.155 165.03 611.803 165.03C608.343 164.923 605.64 162.238 605.64 158.802Z" fill="white"/>
<path opacity="0.39" d="M605.64 64.8446V57.4353C605.64 54.1066 608.451 51.3147 611.803 51.3147C615.155 51.3147 617.967 54.1066 617.967 57.4353V64.8446C617.967 68.1733 615.155 70.9652 611.803 70.9652C608.343 70.9652 605.64 68.1733 605.64 64.8446Z" fill="white"/>
<path d="M355.104 82.1042C355.92 81.021 353.744 78.9901 352.52 75.3344C351.908 73.5065 351.772 72.1525 351.568 69.4446C351.296 66.0597 350.82 59.1545 353.812 51.1661C354.356 49.609 356.464 44.3286 361.359 38.845C364.419 35.3924 371.967 26.8624 383.934 25.5761C396.65 24.2222 406.169 31.9398 410.249 35.3247C412.289 36.9495 423.441 46.4272 425.685 61.727C427.248 72.5587 423.645 82.1719 423.373 82.5104C423.373 82.5104 423.237 82.7135 423.237 82.9166C423.237 83.1874 423.509 83.3905 423.645 83.4582C424.121 83.7967 425.889 84.3382 427.656 83.3905C427.792 83.3228 428.608 82.8489 429.288 81.9011C430.036 80.8179 430.172 79.7348 430.24 79.3963C430.988 73.5742 432.416 69.9185 432.348 65.0442C432.212 58.4775 429.22 42.9746 416.097 31.5336C412.561 28.4195 403.517 20.4988 389.918 20.0249C371.491 19.3479 359.523 32.6845 357.211 35.3924C354.696 38.2357 347.488 46.4949 346.128 59.493C344.836 71.8818 349.936 81.7657 350.072 81.9688C350.072 81.9688 350.208 82.1719 350.276 82.4427C350.344 82.6458 350.344 82.7135 350.344 82.7135C350.548 83.1874 352.452 82.9166 352.452 82.9166C354.016 82.5104 354.9 82.375 355.104 82.1042Z" fill="#AB6F26"/>
<path d="M349.596 85.0152C349.732 86.2338 349.324 97.7425 352.656 108.777C354.56 115.276 356.532 117.307 357.347 118.12C358.367 119.067 360.067 120.354 364.011 121.843C367.207 122.994 370.947 123.874 383.798 124.551C389.782 124.822 392.842 125.025 397.194 124.822C402.702 124.619 406.101 124.483 410.453 123.332C414.533 122.249 419.225 120.963 422.557 116.901C423.781 115.412 424.325 114.193 425.413 111.756C425.413 111.756 429.832 101.534 429.356 85.2183C429.356 84.2028 429.22 82.9166 429.22 82.9166C429.22 82.6458 429.152 82.5104 429.152 82.4427C428.676 81.1564 388.218 90.4311 361.835 84.8798C358.231 84.1352 349.528 83.9998 349.528 84.4736C349.596 84.7444 349.596 84.8121 349.596 85.0152Z" fill="#AB6F26"/>
<path d="M370.335 82.7811C366.663 82.2395 364.351 81.9011 364.351 81.9011C359.319 81.1564 359.455 81.1564 358.503 81.021C355.987 80.7502 354.831 80.8179 352.384 80.344C351.024 80.0732 350.344 79.9378 349.8 79.8024C347.692 79.1931 346.672 78.4484 345.04 78.7192C344.564 78.7869 344.156 78.9223 343.816 79.1931C343.272 79.5993 343 80.2763 343 80.9533C343.068 81.698 343.544 82.3072 344.156 82.8488C347.08 85.2183 350.548 85.6245 350.548 85.6245C356.939 86.3691 363.263 87.3846 369.655 87.9939C374.415 88.4678 373.939 88.5355 377.475 88.874C385.362 89.551 387.878 89.0771 410.453 88.1293C415.281 87.9262 419.973 86.7753 424.8 86.5045C424.8 86.5045 426.568 86.3691 432.008 84.5413C432.416 84.4059 433.708 83.932 434.388 82.8488C434.728 82.2395 434.796 81.7657 434.796 81.6303C434.796 81.4949 434.796 80.8179 434.388 80.2763C433.912 79.667 433.096 79.5993 432.552 79.5316C429.628 79.3285 427.384 80.0732 427.384 80.0732C424.936 80.8856 422.285 80.8179 419.769 81.3595C413.037 82.7811 401.477 83.255 396.854 83.4581C386.178 83.7966 375.571 83.5258 370.335 82.7811Z" fill="#CE8F31"/>
<path d="M421.129 90.2957C419.973 90.8373 418.681 90.905 417.457 91.3112C414.261 92.3266 408.141 93.0036 407.053 93.139C398.894 94.0191 390.258 93.6129 381.214 93.139C376.862 92.9359 374.007 92.6651 368.363 92.1235C363.671 91.6496 362.651 91.4466 361.699 91.2435C360.475 90.905 359.183 90.905 357.959 90.4988C357.551 90.3634 356.395 89.8895 355.443 90.2957C354.899 90.4988 354.763 90.7696 354.695 90.905C354.695 90.905 354.559 91.3112 354.695 91.8527C355.171 93.6129 359.795 94.0191 359.795 94.0191C366.187 94.5607 372.511 95.8469 378.902 95.9146C388.354 96.05 393.454 96.5916 402.361 96.4562C403.721 96.4562 406.849 96.3885 410.929 95.7792C412.969 95.5084 414.533 95.2377 416.573 94.6284C420.109 93.5452 423.78 91.785 423.78 91.785C423.78 91.785 424.12 91.3112 424.12 90.905C424.12 90.4988 423.78 90.0249 423.508 89.8895C422.896 89.4156 422.081 89.8895 421.129 90.2957Z" fill="#CE8F31"/>
<path d="M398.009 113.448C404.333 113.448 405.285 113.922 411.813 113.448C413.581 113.313 415.893 113.11 418.545 112.771C419.021 112.568 419.293 112.23 419.293 111.824C419.293 111.282 418.681 111.011 418.477 110.876C417.729 110.47 416.845 110.605 416.709 110.605C413.173 111.011 409.501 110.267 405.965 110.537C403.109 110.741 399.029 111.011 393.658 111.079C392.706 111.485 392.638 111.824 392.638 111.959C392.706 112.501 394.134 112.839 395.018 113.042C396.718 113.448 398.009 113.448 398.009 113.448Z" fill="#CE8F31"/>
<path d="M376.251 109.996C375.027 109.996 373.055 109.928 370.471 109.86C370.267 109.928 369.383 110.131 369.315 110.673C369.247 111.282 370.335 111.824 370.675 112.027C372.239 112.839 373.599 112.771 377.542 112.771C378.222 112.771 378.902 112.771 379.65 112.771C381.622 112.771 384.41 112.771 388.082 112.771C388.422 112.568 388.898 112.23 388.83 111.891C388.762 111.418 387.606 111.214 386.994 111.079C380.194 110.064 376.251 109.996 376.251 109.996Z" fill="#CE8F31"/>
<path d="M412.969 103.768C412.493 103.768 411.473 103.768 409.433 103.903C408.345 103.971 406.849 104.038 404.945 104.174C404.877 104.174 404.061 104.309 403.653 103.903C403.381 103.565 403.449 103.023 403.585 102.752C403.993 101.669 406.441 101.669 409.909 101.669C411.269 101.669 413.717 101.669 417.185 101.669C417.253 101.669 417.797 101.534 418.069 101.872C418.341 102.211 418.137 102.82 417.865 103.091C417.525 103.565 416.913 103.565 416.029 103.632C414.261 103.7 413.309 103.768 412.969 103.768Z" fill="#CE8F31"/>
<path d="M386.11 101.872C381.758 102.007 377.406 101.466 373.055 101.33C370.471 101.263 366.595 101.06 361.835 100.857C361.767 100.857 361.155 100.992 360.951 101.466C360.679 101.94 360.883 102.684 361.495 103.091C365.303 103.294 368.363 103.632 370.539 103.835C376.251 104.445 378.086 104.918 382.506 104.986C385.566 105.054 387.946 104.918 389.306 104.783C391.482 104.58 393.454 104.309 394.95 104.106C395.086 104.106 395.562 104.106 395.834 103.768C395.834 103.768 396.038 103.429 395.766 102.82C395.154 101.398 388.558 101.737 386.11 101.872Z" fill="#CE8F31"/>
<path d="M392.366 118.323C391.89 118.323 390.87 118.323 388.83 118.187C387.742 118.12 386.246 118.052 384.342 117.917C384.274 117.917 383.458 117.781 383.05 118.187C382.778 118.526 382.846 119.067 382.982 119.338C383.39 120.421 385.838 120.421 389.306 120.421C390.666 120.421 393.114 120.421 396.582 120.421C396.65 120.421 397.194 120.557 397.466 120.218C397.738 119.88 397.534 119.271 397.262 119C396.922 118.526 396.31 118.526 395.426 118.458C393.59 118.39 392.706 118.323 392.366 118.323Z" fill="#CE8F31"/>
</svg>
