<svg width="870" height="540" viewBox="0 0 870 540" fill="none" xmlns="http://www.w3.org/2000/svg">
<rect x="2.5" y="2.5" width="865" height="534.4" rx="77.5" fill="#F3F3F3" stroke="#83C1CA" stroke-width="5"/>
<path d="M707.103 292.104C707.919 291.021 705.744 288.99 704.52 285.334C703.908 283.507 703.772 282.153 703.568 279.445C703.296 276.06 702.82 269.154 705.812 261.166C706.355 259.609 708.463 254.329 713.359 248.845C716.419 245.392 723.967 236.862 735.934 235.576C748.65 234.222 758.169 241.94 762.249 245.325C764.289 246.949 775.44 256.427 777.684 271.727C779.248 282.559 775.644 292.172 775.372 292.51C775.372 292.51 775.236 292.713 775.236 292.917C775.236 293.187 775.508 293.39 775.644 293.458C776.12 293.797 777.888 294.338 779.656 293.39C779.792 293.323 780.608 292.849 781.288 291.901C782.036 290.818 782.172 289.735 782.24 289.396C782.988 283.574 784.416 279.919 784.348 275.044C784.212 268.477 781.22 252.975 768.097 241.534C764.561 238.419 755.517 230.499 741.918 230.025C723.491 229.348 711.523 242.684 709.211 245.392C706.695 248.236 699.488 256.495 698.128 269.493C696.836 281.882 701.936 291.766 702.072 291.969C702.072 291.969 702.208 292.172 702.276 292.443C702.344 292.646 702.344 292.713 702.344 292.713C702.548 293.187 704.452 292.917 704.452 292.917C706.016 292.51 706.899 292.375 707.103 292.104Z" fill="#AB6F26"/>
<path d="M701.596 295.015C701.732 296.234 701.324 307.742 704.656 318.777C706.559 325.276 708.531 327.307 709.347 328.12C710.367 329.067 712.067 330.354 716.011 331.843C719.207 332.994 722.947 333.874 735.798 334.551C741.782 334.822 744.842 335.025 749.194 334.822C754.701 334.619 758.101 334.483 762.453 333.332C766.533 332.249 771.225 330.963 774.557 326.901C775.78 325.412 776.324 324.193 777.412 321.756C777.412 321.756 781.832 311.534 781.356 295.218C781.356 294.203 781.22 292.917 781.22 292.917C781.22 292.646 781.152 292.51 781.152 292.443C780.676 291.156 740.218 300.431 713.835 294.88C710.231 294.135 701.528 294 701.528 294.474C701.596 294.744 701.596 294.812 701.596 295.015Z" fill="#AB6F26"/>
<path d="M722.335 292.781C718.663 292.24 716.351 291.901 716.351 291.901C711.319 291.156 711.455 291.156 710.503 291.021C707.987 290.75 706.831 290.818 704.384 290.344C703.024 290.073 702.344 289.938 701.8 289.802C699.692 289.193 698.672 288.448 697.04 288.719C696.564 288.787 696.156 288.922 695.816 289.193C695.272 289.599 695 290.276 695 290.953C695.068 291.698 695.544 292.307 696.156 292.849C699.08 295.218 702.548 295.624 702.548 295.624C708.939 296.369 715.263 297.385 721.655 297.994C726.415 298.468 725.939 298.535 729.475 298.874C737.362 299.551 739.878 299.077 762.453 298.129C767.281 297.926 771.973 296.775 776.8 296.505C776.8 296.505 778.568 296.369 784.008 294.541C784.416 294.406 785.708 293.932 786.388 292.849C786.728 292.24 786.796 291.766 786.796 291.63C786.796 291.495 786.796 290.818 786.388 290.276C785.912 289.667 785.096 289.599 784.552 289.532C781.628 289.329 779.384 290.073 779.384 290.073C776.936 290.886 774.285 290.818 771.769 291.359C765.037 292.781 753.477 293.255 748.854 293.458C738.178 293.797 727.571 293.526 722.335 292.781Z" fill="#CE8F31"/>
<path d="M773.129 300.296C771.973 300.837 770.681 300.905 769.457 301.311C766.261 302.327 760.141 303.004 759.053 303.139C750.894 304.019 742.258 303.613 733.214 303.139C728.862 302.936 726.007 302.665 720.363 302.123C715.671 301.65 714.651 301.446 713.699 301.243C712.475 300.905 711.183 300.905 709.959 300.499C709.551 300.363 708.395 299.889 707.443 300.296C706.899 300.499 706.763 300.77 706.695 300.905C706.695 300.905 706.559 301.311 706.695 301.853C707.171 303.613 711.795 304.019 711.795 304.019C718.187 304.561 724.511 305.847 730.902 305.915C740.354 306.05 745.454 306.592 754.361 306.456C755.721 306.456 758.849 306.388 762.929 305.779C764.969 305.508 766.533 305.238 768.573 304.628C772.109 303.545 775.78 301.785 775.78 301.785C775.78 301.785 776.12 301.311 776.12 300.905C776.12 300.499 775.78 300.025 775.508 299.889C774.896 299.416 774.081 299.889 773.129 300.296Z" fill="#CE8F31"/>
<path d="M750.01 323.448C756.333 323.448 757.285 323.922 763.813 323.448C765.581 323.313 767.893 323.11 770.545 322.771C771.021 322.568 771.293 322.23 771.293 321.824C771.293 321.282 770.681 321.011 770.477 320.876C769.729 320.47 768.845 320.605 768.709 320.605C765.173 321.011 761.501 320.267 757.965 320.537C755.109 320.741 751.03 321.011 745.658 321.079C744.706 321.485 744.638 321.824 744.638 321.959C744.706 322.501 746.134 322.839 747.018 323.042C748.718 323.448 750.01 323.448 750.01 323.448Z" fill="#CE8F31"/>
<path d="M728.251 319.996C727.027 319.996 725.055 319.928 722.471 319.86C722.267 319.928 721.383 320.131 721.315 320.673C721.247 321.282 722.335 321.824 722.675 322.027C724.239 322.839 725.599 322.771 729.542 322.771C730.222 322.771 730.902 322.771 731.65 322.771C733.622 322.771 736.41 322.771 740.082 322.771C740.422 322.568 740.898 322.23 740.83 321.891C740.762 321.418 739.606 321.214 738.994 321.079C732.194 320.064 728.251 319.996 728.251 319.996Z" fill="#CE8F31"/>
<path d="M764.969 313.768C764.493 313.768 763.473 313.768 761.433 313.903C760.345 313.971 758.849 314.038 756.945 314.174C756.877 314.174 756.061 314.309 755.653 313.903C755.381 313.565 755.449 313.023 755.585 312.752C755.993 311.669 758.441 311.669 761.909 311.669C763.269 311.669 765.717 311.669 769.185 311.669C769.253 311.669 769.797 311.534 770.069 311.872C770.341 312.211 770.137 312.82 769.865 313.091C769.525 313.565 768.913 313.565 768.029 313.632C766.261 313.7 765.309 313.768 764.969 313.768Z" fill="#CE8F31"/>
<path d="M738.11 311.872C733.758 312.007 729.406 311.466 725.055 311.33C722.471 311.263 718.595 311.06 713.835 310.857C713.767 310.857 713.155 310.992 712.951 311.466C712.679 311.94 712.883 312.684 713.495 313.091C717.303 313.294 720.363 313.632 722.539 313.835C728.251 314.445 730.086 314.918 734.506 314.986C737.566 315.054 739.946 314.918 741.306 314.783C743.482 314.58 745.454 314.309 746.95 314.106C747.086 314.106 747.562 314.106 747.834 313.768C747.834 313.768 748.038 313.429 747.766 312.82C747.154 311.398 740.558 311.737 738.11 311.872Z" fill="#CE8F31"/>
<path d="M744.366 328.323C743.89 328.323 742.87 328.323 740.83 328.187C739.742 328.12 738.246 328.052 736.342 327.917C736.274 327.917 735.458 327.781 735.05 328.187C734.778 328.526 734.846 329.067 734.982 329.338C735.39 330.421 737.838 330.421 741.306 330.421C742.666 330.421 745.114 330.421 748.582 330.421C748.65 330.421 749.194 330.557 749.466 330.218C749.738 329.88 749.534 329.271 749.262 329C748.922 328.526 748.31 328.526 747.426 328.458C745.59 328.39 744.706 328.323 744.366 328.323Z" fill="#CE8F31"/>
<path d="M434.103 292.104C434.919 291.021 432.744 288.99 431.52 285.334C430.908 283.507 430.772 282.153 430.568 279.445C430.296 276.06 429.82 269.154 432.812 261.166C433.355 259.609 435.463 254.329 440.359 248.845C443.419 245.392 450.967 236.862 462.934 235.576C475.65 234.222 485.169 241.94 489.249 245.325C491.289 246.949 502.44 256.427 504.684 271.727C506.248 282.559 502.644 292.172 502.372 292.51C502.372 292.51 502.236 292.713 502.236 292.917C502.236 293.187 502.508 293.39 502.644 293.458C503.12 293.797 504.888 294.338 506.656 293.39C506.792 293.323 507.608 292.849 508.288 291.901C509.036 290.818 509.172 289.735 509.24 289.396C509.988 283.574 511.416 279.919 511.348 275.044C511.212 268.477 508.22 252.975 495.097 241.534C491.561 238.419 482.517 230.499 468.918 230.025C450.491 229.348 438.523 242.684 436.211 245.392C433.695 248.236 426.488 256.495 425.128 269.493C423.836 281.882 428.936 291.766 429.072 291.969C429.072 291.969 429.208 292.172 429.276 292.443C429.344 292.646 429.344 292.713 429.344 292.713C429.548 293.187 431.452 292.917 431.452 292.917C433.016 292.51 433.899 292.375 434.103 292.104Z" fill="#AB6F26"/>
<path d="M428.596 295.015C428.732 296.234 428.324 307.742 431.656 318.777C433.559 325.276 435.531 327.307 436.347 328.12C437.367 329.067 439.067 330.354 443.011 331.843C446.207 332.994 449.947 333.874 462.798 334.551C468.782 334.822 471.842 335.025 476.194 334.822C481.701 334.619 485.101 334.483 489.453 333.332C493.533 332.249 498.225 330.963 501.557 326.901C502.78 325.412 503.324 324.193 504.412 321.756C504.412 321.756 508.832 311.534 508.356 295.218C508.356 294.203 508.22 292.917 508.22 292.917C508.22 292.646 508.152 292.51 508.152 292.443C507.676 291.156 467.218 300.431 440.835 294.88C437.231 294.135 428.528 294 428.528 294.474C428.596 294.744 428.596 294.812 428.596 295.015Z" fill="#AB6F26"/>
<path d="M449.335 292.781C445.663 292.24 443.351 291.901 443.351 291.901C438.319 291.156 438.455 291.156 437.503 291.021C434.987 290.75 433.831 290.818 431.384 290.344C430.024 290.073 429.344 289.938 428.8 289.802C426.692 289.193 425.672 288.448 424.04 288.719C423.564 288.787 423.156 288.922 422.816 289.193C422.272 289.599 422 290.276 422 290.953C422.068 291.698 422.544 292.307 423.156 292.849C426.08 295.218 429.548 295.624 429.548 295.624C435.939 296.369 442.263 297.385 448.655 297.994C453.415 298.468 452.939 298.535 456.475 298.874C464.362 299.551 466.878 299.077 489.453 298.129C494.281 297.926 498.973 296.775 503.8 296.505C503.8 296.505 505.568 296.369 511.008 294.541C511.416 294.406 512.708 293.932 513.388 292.849C513.728 292.24 513.796 291.766 513.796 291.63C513.796 291.495 513.796 290.818 513.388 290.276C512.912 289.667 512.096 289.599 511.552 289.532C508.628 289.329 506.384 290.073 506.384 290.073C503.936 290.886 501.285 290.818 498.769 291.359C492.037 292.781 480.477 293.255 475.854 293.458C465.178 293.797 454.571 293.526 449.335 292.781Z" fill="#CE8F31"/>
<path d="M500.129 300.296C498.973 300.837 497.681 300.905 496.457 301.311C493.261 302.327 487.141 303.004 486.053 303.139C477.894 304.019 469.258 303.613 460.214 303.139C455.862 302.936 453.007 302.665 447.363 302.123C442.671 301.65 441.651 301.446 440.699 301.243C439.475 300.905 438.183 300.905 436.959 300.499C436.551 300.363 435.395 299.889 434.443 300.296C433.899 300.499 433.763 300.77 433.695 300.905C433.695 300.905 433.559 301.311 433.695 301.853C434.171 303.613 438.795 304.019 438.795 304.019C445.187 304.561 451.511 305.847 457.902 305.915C467.354 306.05 472.454 306.592 481.361 306.456C482.721 306.456 485.849 306.388 489.929 305.779C491.969 305.508 493.533 305.238 495.573 304.628C499.109 303.545 502.78 301.785 502.78 301.785C502.78 301.785 503.12 301.311 503.12 300.905C503.12 300.499 502.78 300.025 502.508 299.889C501.896 299.416 501.081 299.889 500.129 300.296Z" fill="#CE8F31"/>
<path d="M477.01 323.448C483.333 323.448 484.285 323.922 490.813 323.448C492.581 323.313 494.893 323.11 497.545 322.771C498.021 322.568 498.293 322.23 498.293 321.824C498.293 321.282 497.681 321.011 497.477 320.876C496.729 320.47 495.845 320.605 495.709 320.605C492.173 321.011 488.501 320.267 484.965 320.537C482.109 320.741 478.03 321.011 472.658 321.079C471.706 321.485 471.638 321.824 471.638 321.959C471.706 322.501 473.134 322.839 474.018 323.042C475.718 323.448 477.01 323.448 477.01 323.448Z" fill="#CE8F31"/>
<path d="M455.251 319.996C454.027 319.996 452.055 319.928 449.471 319.86C449.267 319.928 448.383 320.131 448.315 320.673C448.247 321.282 449.335 321.824 449.675 322.027C451.239 322.839 452.599 322.771 456.542 322.771C457.222 322.771 457.902 322.771 458.65 322.771C460.622 322.771 463.41 322.771 467.082 322.771C467.422 322.568 467.898 322.23 467.83 321.891C467.762 321.418 466.606 321.214 465.994 321.079C459.194 320.064 455.251 319.996 455.251 319.996Z" fill="#CE8F31"/>
<path d="M491.969 313.768C491.493 313.768 490.473 313.768 488.433 313.903C487.345 313.971 485.849 314.038 483.945 314.174C483.877 314.174 483.061 314.309 482.653 313.903C482.381 313.565 482.449 313.023 482.585 312.752C482.993 311.669 485.441 311.669 488.909 311.669C490.269 311.669 492.717 311.669 496.185 311.669C496.253 311.669 496.797 311.534 497.069 311.872C497.341 312.211 497.137 312.82 496.865 313.091C496.525 313.565 495.913 313.565 495.029 313.632C493.261 313.7 492.309 313.768 491.969 313.768Z" fill="#CE8F31"/>
<path d="M465.11 311.872C460.758 312.007 456.406 311.466 452.055 311.33C449.471 311.263 445.595 311.06 440.835 310.857C440.767 310.857 440.155 310.992 439.951 311.466C439.679 311.94 439.883 312.684 440.495 313.091C444.303 313.294 447.363 313.632 449.539 313.835C455.251 314.445 457.086 314.918 461.506 314.986C464.566 315.054 466.946 314.918 468.306 314.783C470.482 314.58 472.454 314.309 473.95 314.106C474.086 314.106 474.562 314.106 474.834 313.768C474.834 313.768 475.038 313.429 474.766 312.82C474.154 311.398 467.558 311.737 465.11 311.872Z" fill="#CE8F31"/>
<path d="M471.366 328.323C470.89 328.323 469.87 328.323 467.83 328.187C466.742 328.12 465.246 328.052 463.342 327.917C463.274 327.917 462.458 327.781 462.05 328.187C461.778 328.526 461.846 329.067 461.982 329.338C462.39 330.421 464.838 330.421 468.306 330.421C469.666 330.421 472.114 330.421 475.582 330.421C475.65 330.421 476.194 330.557 476.466 330.218C476.738 329.88 476.534 329.271 476.262 329C475.922 328.526 475.31 328.526 474.426 328.458C472.59 328.39 471.706 328.323 471.366 328.323Z" fill="#CE8F31"/>
<path d="M434.103 136.104C434.919 135.021 432.744 132.99 431.52 129.334C430.908 127.507 430.772 126.153 430.568 123.445C430.296 120.06 429.82 113.154 432.812 105.166C433.355 103.609 435.463 98.3286 440.359 92.845C443.419 89.3924 450.967 80.8624 462.934 79.5761C475.65 78.2222 485.169 85.9398 489.249 89.3247C491.289 90.9495 502.44 100.427 504.684 115.727C506.248 126.559 502.644 136.172 502.372 136.51C502.372 136.51 502.236 136.713 502.236 136.917C502.236 137.187 502.508 137.39 502.644 137.458C503.12 137.797 504.888 138.338 506.656 137.39C506.792 137.323 507.608 136.849 508.288 135.901C509.036 134.818 509.172 133.735 509.24 133.396C509.988 127.574 511.416 123.919 511.348 119.044C511.212 112.477 508.22 96.9746 495.097 85.5336C491.561 82.4195 482.517 74.4988 468.918 74.0249C450.491 73.3479 438.523 86.6845 436.211 89.3924C433.695 92.2357 426.488 100.495 425.128 113.493C423.836 125.882 428.936 135.766 429.072 135.969C429.072 135.969 429.208 136.172 429.276 136.443C429.344 136.646 429.344 136.713 429.344 136.713C429.548 137.187 431.452 136.917 431.452 136.917C433.016 136.51 433.899 136.375 434.103 136.104Z" fill="#AB6F26"/>
<path d="M428.596 139.015C428.732 140.234 428.324 151.742 431.656 162.777C433.559 169.276 435.531 171.307 436.347 172.12C437.367 173.067 439.067 174.354 443.011 175.843C446.207 176.994 449.947 177.874 462.798 178.551C468.782 178.822 471.842 179.025 476.194 178.822C481.701 178.619 485.101 178.483 489.453 177.332C493.533 176.249 498.225 174.963 501.557 170.901C502.78 169.412 503.324 168.193 504.412 165.756C504.412 165.756 508.832 155.534 508.356 139.218C508.356 138.203 508.22 136.917 508.22 136.917C508.22 136.646 508.152 136.51 508.152 136.443C507.676 135.156 467.218 144.431 440.835 138.88C437.231 138.135 428.528 138 428.528 138.474C428.596 138.744 428.596 138.812 428.596 139.015Z" fill="#AB6F26"/>
<path d="M449.335 136.781C445.663 136.24 443.351 135.901 443.351 135.901C438.319 135.156 438.455 135.156 437.503 135.021C434.987 134.75 433.831 134.818 431.384 134.344C430.024 134.073 429.344 133.938 428.8 133.802C426.692 133.193 425.672 132.448 424.04 132.719C423.564 132.787 423.156 132.922 422.816 133.193C422.272 133.599 422 134.276 422 134.953C422.068 135.698 422.544 136.307 423.156 136.849C426.08 139.218 429.548 139.624 429.548 139.624C435.939 140.369 442.263 141.385 448.655 141.994C453.415 142.468 452.939 142.535 456.475 142.874C464.362 143.551 466.878 143.077 489.453 142.129C494.281 141.926 498.973 140.775 503.8 140.505C503.8 140.505 505.568 140.369 511.008 138.541C511.416 138.406 512.708 137.932 513.388 136.849C513.728 136.24 513.796 135.766 513.796 135.63C513.796 135.495 513.796 134.818 513.388 134.276C512.912 133.667 512.096 133.599 511.552 133.532C508.628 133.329 506.384 134.073 506.384 134.073C503.936 134.886 501.285 134.818 498.769 135.359C492.037 136.781 480.477 137.255 475.854 137.458C465.178 137.797 454.571 137.526 449.335 136.781Z" fill="#CE8F31"/>
<path d="M500.129 144.296C498.973 144.837 497.681 144.905 496.457 145.311C493.261 146.327 487.141 147.004 486.053 147.139C477.894 148.019 469.258 147.613 460.214 147.139C455.862 146.936 453.007 146.665 447.363 146.124C442.671 145.65 441.651 145.447 440.699 145.243C439.475 144.905 438.183 144.905 436.959 144.499C436.551 144.363 435.395 143.889 434.443 144.296C433.899 144.499 433.763 144.77 433.695 144.905C433.695 144.905 433.559 145.311 433.695 145.853C434.171 147.613 438.795 148.019 438.795 148.019C445.187 148.561 451.511 149.847 457.902 149.915C467.354 150.05 472.454 150.592 481.361 150.456C482.721 150.456 485.849 150.389 489.929 149.779C491.969 149.508 493.533 149.238 495.573 148.628C499.109 147.545 502.78 145.785 502.78 145.785C502.78 145.785 503.12 145.311 503.12 144.905C503.12 144.499 502.78 144.025 502.508 143.889C501.896 143.416 501.081 143.889 500.129 144.296Z" fill="#CE8F31"/>
<path d="M477.01 167.448C483.333 167.448 484.285 167.922 490.813 167.448C492.581 167.313 494.893 167.11 497.545 166.771C498.021 166.568 498.293 166.23 498.293 165.824C498.293 165.282 497.681 165.011 497.477 164.876C496.729 164.47 495.845 164.605 495.709 164.605C492.173 165.011 488.501 164.267 484.965 164.537C482.109 164.741 478.03 165.011 472.658 165.079C471.706 165.485 471.638 165.824 471.638 165.959C471.706 166.501 473.134 166.839 474.018 167.042C475.718 167.448 477.01 167.448 477.01 167.448Z" fill="#CE8F31"/>
<path d="M455.251 163.996C454.027 163.996 452.055 163.928 449.471 163.86C449.267 163.928 448.383 164.131 448.315 164.673C448.247 165.282 449.335 165.824 449.675 166.027C451.239 166.839 452.599 166.771 456.542 166.771C457.222 166.771 457.902 166.771 458.65 166.771C460.622 166.771 463.41 166.771 467.082 166.771C467.422 166.568 467.898 166.23 467.83 165.891C467.762 165.418 466.606 165.214 465.994 165.079C459.194 164.064 455.251 163.996 455.251 163.996Z" fill="#CE8F31"/>
<path d="M491.969 157.768C491.493 157.768 490.473 157.768 488.433 157.903C487.345 157.971 485.849 158.038 483.945 158.174C483.877 158.174 483.061 158.309 482.653 157.903C482.381 157.565 482.449 157.023 482.585 156.752C482.993 155.669 485.441 155.669 488.909 155.669C490.269 155.669 492.717 155.669 496.185 155.669C496.253 155.669 496.797 155.534 497.069 155.872C497.341 156.211 497.137 156.82 496.865 157.091C496.525 157.565 495.913 157.565 495.029 157.632C493.261 157.7 492.309 157.768 491.969 157.768Z" fill="#CE8F31"/>
<path d="M465.11 155.872C460.758 156.007 456.406 155.466 452.055 155.33C449.471 155.263 445.595 155.06 440.835 154.857C440.767 154.857 440.155 154.992 439.951 155.466C439.679 155.94 439.883 156.684 440.495 157.091C444.303 157.294 447.363 157.632 449.539 157.835C455.251 158.445 457.086 158.918 461.506 158.986C464.566 159.054 466.946 158.918 468.306 158.783C470.482 158.58 472.454 158.309 473.95 158.106C474.086 158.106 474.562 158.106 474.834 157.768C474.834 157.768 475.038 157.429 474.766 156.82C474.154 155.398 467.558 155.737 465.11 155.872Z" fill="#CE8F31"/>
<path d="M471.366 172.323C470.89 172.323 469.87 172.323 467.83 172.187C466.742 172.12 465.246 172.052 463.342 171.917C463.274 171.917 462.458 171.781 462.05 172.187C461.778 172.526 461.846 173.067 461.982 173.338C462.39 174.421 464.838 174.421 468.306 174.421C469.666 174.421 472.114 174.421 475.582 174.421C475.65 174.421 476.194 174.557 476.466 174.218C476.738 173.88 476.534 173.271 476.262 173C475.922 172.526 475.31 172.526 474.426 172.458C472.59 172.39 471.706 172.323 471.366 172.323Z" fill="#CE8F31"/>
<path d="M570.103 292.104C570.919 291.021 568.744 288.99 567.52 285.334C566.908 283.507 566.772 282.153 566.568 279.445C566.296 276.06 565.82 269.154 568.812 261.166C569.355 259.609 571.463 254.329 576.359 248.845C579.419 245.392 586.967 236.862 598.934 235.576C611.65 234.222 621.169 241.94 625.249 245.325C627.289 246.949 638.44 256.427 640.684 271.727C642.248 282.559 638.644 292.172 638.372 292.51C638.372 292.51 638.236 292.713 638.236 292.917C638.236 293.187 638.508 293.39 638.644 293.458C639.12 293.797 640.888 294.338 642.656 293.39C642.792 293.323 643.608 292.849 644.288 291.901C645.036 290.818 645.172 289.735 645.24 289.396C645.988 283.574 647.416 279.919 647.348 275.044C647.212 268.477 644.22 252.975 631.097 241.534C627.561 238.419 618.517 230.499 604.918 230.025C586.491 229.348 574.523 242.684 572.211 245.392C569.695 248.236 562.488 256.495 561.128 269.493C559.836 281.882 564.936 291.766 565.072 291.969C565.072 291.969 565.208 292.172 565.276 292.443C565.344 292.646 565.344 292.713 565.344 292.713C565.548 293.187 567.452 292.917 567.452 292.917C569.016 292.51 569.899 292.375 570.103 292.104Z" fill="#AB6F26"/>
<path d="M564.596 295.015C564.732 296.234 564.324 307.742 567.656 318.777C569.559 325.276 571.531 327.307 572.347 328.12C573.367 329.067 575.067 330.354 579.011 331.843C582.207 332.994 585.947 333.874 598.798 334.551C604.782 334.822 607.842 335.025 612.194 334.822C617.701 334.619 621.101 334.483 625.453 333.332C629.533 332.249 634.225 330.963 637.557 326.901C638.78 325.412 639.324 324.193 640.412 321.756C640.412 321.756 644.832 311.534 644.356 295.218C644.356 294.203 644.22 292.917 644.22 292.917C644.22 292.646 644.152 292.51 644.152 292.443C643.676 291.156 603.218 300.431 576.835 294.88C573.231 294.135 564.528 294 564.528 294.474C564.596 294.744 564.596 294.812 564.596 295.015Z" fill="#AB6F26"/>
<path d="M585.335 292.781C581.663 292.24 579.351 291.901 579.351 291.901C574.319 291.156 574.455 291.156 573.503 291.021C570.987 290.75 569.831 290.818 567.384 290.344C566.024 290.073 565.344 289.938 564.8 289.802C562.692 289.193 561.672 288.448 560.04 288.719C559.564 288.787 559.156 288.922 558.816 289.193C558.272 289.599 558 290.276 558 290.953C558.068 291.698 558.544 292.307 559.156 292.849C562.08 295.218 565.548 295.624 565.548 295.624C571.939 296.369 578.263 297.385 584.655 297.994C589.415 298.468 588.939 298.535 592.475 298.874C600.362 299.551 602.878 299.077 625.453 298.129C630.281 297.926 634.973 296.775 639.8 296.505C639.8 296.505 641.568 296.369 647.008 294.541C647.416 294.406 648.708 293.932 649.388 292.849C649.728 292.24 649.796 291.766 649.796 291.63C649.796 291.495 649.796 290.818 649.388 290.276C648.912 289.667 648.096 289.599 647.552 289.532C644.628 289.329 642.384 290.073 642.384 290.073C639.936 290.886 637.285 290.818 634.769 291.359C628.037 292.781 616.477 293.255 611.854 293.458C601.178 293.797 590.571 293.526 585.335 292.781Z" fill="#CE8F31"/>
<path d="M636.129 300.296C634.973 300.837 633.681 300.905 632.457 301.311C629.261 302.327 623.141 303.004 622.053 303.139C613.894 304.019 605.258 303.613 596.214 303.139C591.862 302.936 589.007 302.665 583.363 302.123C578.671 301.65 577.651 301.446 576.699 301.243C575.475 300.905 574.183 300.905 572.959 300.499C572.551 300.363 571.395 299.889 570.443 300.296C569.899 300.499 569.763 300.77 569.695 300.905C569.695 300.905 569.559 301.311 569.695 301.853C570.171 303.613 574.795 304.019 574.795 304.019C581.187 304.561 587.511 305.847 593.902 305.915C603.354 306.05 608.454 306.592 617.361 306.456C618.721 306.456 621.849 306.388 625.929 305.779C627.969 305.508 629.533 305.238 631.573 304.628C635.109 303.545 638.78 301.785 638.78 301.785C638.78 301.785 639.12 301.311 639.12 300.905C639.12 300.499 638.78 300.025 638.508 299.889C637.896 299.416 637.081 299.889 636.129 300.296Z" fill="#CE8F31"/>
<path d="M613.01 323.448C619.333 323.448 620.285 323.922 626.813 323.448C628.581 323.313 630.893 323.11 633.545 322.771C634.021 322.568 634.293 322.23 634.293 321.824C634.293 321.282 633.681 321.011 633.477 320.876C632.729 320.47 631.845 320.605 631.709 320.605C628.173 321.011 624.501 320.267 620.965 320.537C618.109 320.741 614.03 321.011 608.658 321.079C607.706 321.485 607.638 321.824 607.638 321.959C607.706 322.501 609.134 322.839 610.018 323.042C611.718 323.448 613.01 323.448 613.01 323.448Z" fill="#CE8F31"/>
<path d="M591.251 319.996C590.027 319.996 588.055 319.928 585.471 319.86C585.267 319.928 584.383 320.131 584.315 320.673C584.247 321.282 585.335 321.824 585.675 322.027C587.239 322.839 588.599 322.771 592.542 322.771C593.222 322.771 593.902 322.771 594.65 322.771C596.622 322.771 599.41 322.771 603.082 322.771C603.422 322.568 603.898 322.23 603.83 321.891C603.762 321.418 602.606 321.214 601.994 321.079C595.194 320.064 591.251 319.996 591.251 319.996Z" fill="#CE8F31"/>
<path d="M627.969 313.768C627.493 313.768 626.473 313.768 624.433 313.903C623.345 313.971 621.849 314.038 619.945 314.174C619.877 314.174 619.061 314.309 618.653 313.903C618.381 313.565 618.449 313.023 618.585 312.752C618.993 311.669 621.441 311.669 624.909 311.669C626.269 311.669 628.717 311.669 632.185 311.669C632.253 311.669 632.797 311.534 633.069 311.872C633.341 312.211 633.137 312.82 632.865 313.091C632.525 313.565 631.913 313.565 631.029 313.632C629.261 313.7 628.309 313.768 627.969 313.768Z" fill="#CE8F31"/>
<path d="M601.11 311.872C596.758 312.007 592.406 311.466 588.055 311.33C585.471 311.263 581.595 311.06 576.835 310.857C576.767 310.857 576.155 310.992 575.951 311.466C575.679 311.94 575.883 312.684 576.495 313.091C580.303 313.294 583.363 313.632 585.539 313.835C591.251 314.445 593.086 314.918 597.506 314.986C600.566 315.054 602.946 314.918 604.306 314.783C606.482 314.58 608.454 314.309 609.95 314.106C610.086 314.106 610.562 314.106 610.834 313.768C610.834 313.768 611.038 313.429 610.766 312.82C610.154 311.398 603.558 311.737 601.11 311.872Z" fill="#CE8F31"/>
<path d="M607.366 328.323C606.89 328.323 605.87 328.323 603.83 328.187C602.742 328.12 601.246 328.052 599.342 327.917C599.274 327.917 598.458 327.781 598.05 328.187C597.778 328.526 597.846 329.067 597.982 329.338C598.39 330.421 600.838 330.421 604.306 330.421C605.666 330.421 608.114 330.421 611.582 330.421C611.65 330.421 612.194 330.557 612.466 330.218C612.738 329.88 612.534 329.271 612.262 329C611.922 328.526 611.31 328.526 610.426 328.458C608.59 328.39 607.706 328.323 607.366 328.323Z" fill="#CE8F31"/>
<path d="M570.103 136.104C570.919 135.021 568.744 132.99 567.52 129.334C566.908 127.507 566.772 126.153 566.568 123.445C566.296 120.06 565.82 113.154 568.812 105.166C569.355 103.609 571.463 98.3286 576.359 92.845C579.419 89.3924 586.967 80.8624 598.934 79.5761C611.65 78.2222 621.169 85.9398 625.249 89.3247C627.289 90.9495 638.44 100.427 640.684 115.727C642.248 126.559 638.644 136.172 638.372 136.51C638.372 136.51 638.236 136.713 638.236 136.917C638.236 137.187 638.508 137.39 638.644 137.458C639.12 137.797 640.888 138.338 642.656 137.39C642.792 137.323 643.608 136.849 644.288 135.901C645.036 134.818 645.172 133.735 645.24 133.396C645.988 127.574 647.416 123.919 647.348 119.044C647.212 112.477 644.22 96.9746 631.097 85.5336C627.561 82.4195 618.517 74.4988 604.918 74.0249C586.491 73.3479 574.523 86.6845 572.211 89.3924C569.695 92.2357 562.488 100.495 561.128 113.493C559.836 125.882 564.936 135.766 565.072 135.969C565.072 135.969 565.208 136.172 565.276 136.443C565.344 136.646 565.344 136.713 565.344 136.713C565.548 137.187 567.452 136.917 567.452 136.917C569.016 136.51 569.899 136.375 570.103 136.104Z" fill="#AB6F26"/>
<path d="M564.596 139.015C564.732 140.234 564.324 151.742 567.656 162.777C569.559 169.276 571.531 171.307 572.347 172.12C573.367 173.067 575.067 174.354 579.011 175.843C582.207 176.994 585.947 177.874 598.798 178.551C604.782 178.822 607.842 179.025 612.194 178.822C617.701 178.619 621.101 178.483 625.453 177.332C629.533 176.249 634.225 174.963 637.557 170.901C638.78 169.412 639.324 168.193 640.412 165.756C640.412 165.756 644.832 155.534 644.356 139.218C644.356 138.203 644.22 136.917 644.22 136.917C644.22 136.646 644.152 136.51 644.152 136.443C643.676 135.156 603.218 144.431 576.835 138.88C573.231 138.135 564.528 138 564.528 138.474C564.596 138.744 564.596 138.812 564.596 139.015Z" fill="#AB6F26"/>
<path d="M585.335 136.781C581.663 136.24 579.351 135.901 579.351 135.901C574.319 135.156 574.455 135.156 573.503 135.021C570.987 134.75 569.831 134.818 567.384 134.344C566.024 134.073 565.344 133.938 564.8 133.802C562.692 133.193 561.672 132.448 560.04 132.719C559.564 132.787 559.156 132.922 558.816 133.193C558.272 133.599 558 134.276 558 134.953C558.068 135.698 558.544 136.307 559.156 136.849C562.08 139.218 565.548 139.624 565.548 139.624C571.939 140.369 578.263 141.385 584.655 141.994C589.415 142.468 588.939 142.535 592.475 142.874C600.362 143.551 602.878 143.077 625.453 142.129C630.281 141.926 634.973 140.775 639.8 140.505C639.8 140.505 641.568 140.369 647.008 138.541C647.416 138.406 648.708 137.932 649.388 136.849C649.728 136.24 649.796 135.766 649.796 135.63C649.796 135.495 649.796 134.818 649.388 134.276C648.912 133.667 648.096 133.599 647.552 133.532C644.628 133.329 642.384 134.073 642.384 134.073C639.936 134.886 637.285 134.818 634.769 135.359C628.037 136.781 616.477 137.255 611.854 137.458C601.178 137.797 590.571 137.526 585.335 136.781Z" fill="#CE8F31"/>
<path d="M636.129 144.296C634.973 144.837 633.681 144.905 632.457 145.311C629.261 146.327 623.141 147.004 622.053 147.139C613.894 148.019 605.258 147.613 596.214 147.139C591.862 146.936 589.007 146.665 583.363 146.124C578.671 145.65 577.651 145.447 576.699 145.243C575.475 144.905 574.183 144.905 572.959 144.499C572.551 144.363 571.395 143.889 570.443 144.296C569.899 144.499 569.763 144.77 569.695 144.905C569.695 144.905 569.559 145.311 569.695 145.853C570.171 147.613 574.795 148.019 574.795 148.019C581.187 148.561 587.511 149.847 593.902 149.915C603.354 150.05 608.454 150.592 617.361 150.456C618.721 150.456 621.849 150.389 625.929 149.779C627.969 149.508 629.533 149.238 631.573 148.628C635.109 147.545 638.78 145.785 638.78 145.785C638.78 145.785 639.12 145.311 639.12 144.905C639.12 144.499 638.78 144.025 638.508 143.889C637.896 143.416 637.081 143.889 636.129 144.296Z" fill="#CE8F31"/>
<path d="M613.01 167.448C619.333 167.448 620.285 167.922 626.813 167.448C628.581 167.313 630.893 167.11 633.545 166.771C634.021 166.568 634.293 166.23 634.293 165.824C634.293 165.282 633.681 165.011 633.477 164.876C632.729 164.47 631.845 164.605 631.709 164.605C628.173 165.011 624.501 164.267 620.965 164.537C618.109 164.741 614.03 165.011 608.658 165.079C607.706 165.485 607.638 165.824 607.638 165.959C607.706 166.501 609.134 166.839 610.018 167.042C611.718 167.448 613.01 167.448 613.01 167.448Z" fill="#CE8F31"/>
<path d="M591.251 163.996C590.027 163.996 588.055 163.928 585.471 163.86C585.267 163.928 584.383 164.131 584.315 164.673C584.247 165.282 585.335 165.824 585.675 166.027C587.239 166.839 588.599 166.771 592.542 166.771C593.222 166.771 593.902 166.771 594.65 166.771C596.622 166.771 599.41 166.771 603.082 166.771C603.422 166.568 603.898 166.23 603.83 165.891C603.762 165.418 602.606 165.214 601.994 165.079C595.194 164.064 591.251 163.996 591.251 163.996Z" fill="#CE8F31"/>
<path d="M627.969 157.768C627.493 157.768 626.473 157.768 624.433 157.903C623.345 157.971 621.849 158.038 619.945 158.174C619.877 158.174 619.061 158.309 618.653 157.903C618.381 157.565 618.449 157.023 618.585 156.752C618.993 155.669 621.441 155.669 624.909 155.669C626.269 155.669 628.717 155.669 632.185 155.669C632.253 155.669 632.797 155.534 633.069 155.872C633.341 156.211 633.137 156.82 632.865 157.091C632.525 157.565 631.913 157.565 631.029 157.632C629.261 157.7 628.309 157.768 627.969 157.768Z" fill="#CE8F31"/>
<path d="M601.11 155.872C596.758 156.007 592.406 155.466 588.055 155.33C585.471 155.263 581.595 155.06 576.835 154.857C576.767 154.857 576.155 154.992 575.951 155.466C575.679 155.94 575.883 156.684 576.495 157.091C580.303 157.294 583.363 157.632 585.539 157.835C591.251 158.445 593.086 158.918 597.506 158.986C600.566 159.054 602.946 158.918 604.306 158.783C606.482 158.58 608.454 158.309 609.95 158.106C610.086 158.106 610.562 158.106 610.834 157.768C610.834 157.768 611.038 157.429 610.766 156.82C610.154 155.398 603.558 155.737 601.11 155.872Z" fill="#CE8F31"/>
<path d="M607.366 172.323C606.89 172.323 605.87 172.323 603.83 172.187C602.742 172.12 601.246 172.052 599.342 171.917C599.274 171.917 598.458 171.781 598.05 172.187C597.778 172.526 597.846 173.067 597.982 173.338C598.39 174.421 600.838 174.421 604.306 174.421C605.666 174.421 608.114 174.421 611.582 174.421C611.65 174.421 612.194 174.557 612.466 174.218C612.738 173.88 612.534 173.271 612.262 173C611.922 172.526 611.31 172.526 610.426 172.458C608.59 172.39 607.706 172.323 607.366 172.323Z" fill="#CE8F31"/>
<path d="M707.103 136.104C707.919 135.021 705.744 132.99 704.52 129.334C703.908 127.507 703.772 126.153 703.568 123.445C703.296 120.06 702.82 113.154 705.812 105.166C706.355 103.609 708.463 98.3286 713.359 92.845C716.419 89.3924 723.967 80.8624 735.934 79.5761C748.65 78.2222 758.169 85.9398 762.249 89.3247C764.289 90.9495 775.44 100.427 777.684 115.727C779.248 126.559 775.644 136.172 775.372 136.51C775.372 136.51 775.236 136.713 775.236 136.917C775.236 137.187 775.508 137.39 775.644 137.458C776.12 137.797 777.888 138.338 779.656 137.39C779.792 137.323 780.608 136.849 781.288 135.901C782.036 134.818 782.172 133.735 782.24 133.396C782.988 127.574 784.416 123.919 784.348 119.044C784.212 112.477 781.22 96.9746 768.097 85.5336C764.561 82.4195 755.517 74.4988 741.918 74.0249C723.491 73.3479 711.523 86.6845 709.211 89.3924C706.695 92.2357 699.488 100.495 698.128 113.493C696.836 125.882 701.936 135.766 702.072 135.969C702.072 135.969 702.208 136.172 702.276 136.443C702.344 136.646 702.344 136.713 702.344 136.713C702.548 137.187 704.452 136.917 704.452 136.917C706.016 136.51 706.899 136.375 707.103 136.104Z" fill="#AB6F26"/>
<path d="M701.596 139.015C701.732 140.234 701.324 151.742 704.656 162.777C706.559 169.276 708.531 171.307 709.347 172.12C710.367 173.067 712.067 174.354 716.011 175.843C719.207 176.994 722.947 177.874 735.798 178.551C741.782 178.822 744.842 179.025 749.194 178.822C754.701 178.619 758.101 178.483 762.453 177.332C766.533 176.249 771.225 174.963 774.557 170.901C775.78 169.412 776.324 168.193 777.412 165.756C777.412 165.756 781.832 155.534 781.356 139.218C781.356 138.203 781.22 136.917 781.22 136.917C781.22 136.646 781.152 136.51 781.152 136.443C780.676 135.156 740.218 144.431 713.835 138.88C710.231 138.135 701.528 138 701.528 138.474C701.596 138.744 701.596 138.812 701.596 139.015Z" fill="#AB6F26"/>
<path d="M722.335 136.781C718.663 136.24 716.351 135.901 716.351 135.901C711.319 135.156 711.455 135.156 710.503 135.021C707.987 134.75 706.831 134.818 704.384 134.344C703.024 134.073 702.344 133.938 701.8 133.802C699.692 133.193 698.672 132.448 697.04 132.719C696.564 132.787 696.156 132.922 695.816 133.193C695.272 133.599 695 134.276 695 134.953C695.068 135.698 695.544 136.307 696.156 136.849C699.08 139.218 702.548 139.624 702.548 139.624C708.939 140.369 715.263 141.385 721.655 141.994C726.415 142.468 725.939 142.535 729.475 142.874C737.362 143.551 739.878 143.077 762.453 142.129C767.281 141.926 771.973 140.775 776.8 140.505C776.8 140.505 778.568 140.369 784.008 138.541C784.416 138.406 785.708 137.932 786.388 136.849C786.728 136.24 786.796 135.766 786.796 135.63C786.796 135.495 786.796 134.818 786.388 134.276C785.912 133.667 785.096 133.599 784.552 133.532C781.628 133.329 779.384 134.073 779.384 134.073C776.936 134.886 774.285 134.818 771.769 135.359C765.037 136.781 753.477 137.255 748.854 137.458C738.178 137.797 727.571 137.526 722.335 136.781Z" fill="#CE8F31"/>
<path d="M773.129 144.296C771.973 144.837 770.681 144.905 769.457 145.311C766.261 146.327 760.141 147.004 759.053 147.139C750.894 148.019 742.258 147.613 733.214 147.139C728.862 146.936 726.007 146.665 720.363 146.124C715.671 145.65 714.651 145.447 713.699 145.243C712.475 144.905 711.183 144.905 709.959 144.499C709.551 144.363 708.395 143.889 707.443 144.296C706.899 144.499 706.763 144.77 706.695 144.905C706.695 144.905 706.559 145.311 706.695 145.853C707.171 147.613 711.795 148.019 711.795 148.019C718.187 148.561 724.511 149.847 730.902 149.915C740.354 150.05 745.454 150.592 754.361 150.456C755.721 150.456 758.849 150.389 762.929 149.779C764.969 149.508 766.533 149.238 768.573 148.628C772.109 147.545 775.78 145.785 775.78 145.785C775.78 145.785 776.12 145.311 776.12 144.905C776.12 144.499 775.78 144.025 775.508 143.889C774.896 143.416 774.081 143.889 773.129 144.296Z" fill="#CE8F31"/>
<path d="M750.01 167.448C756.333 167.448 757.285 167.922 763.813 167.448C765.581 167.313 767.893 167.11 770.545 166.771C771.021 166.568 771.293 166.23 771.293 165.824C771.293 165.282 770.681 165.011 770.477 164.876C769.729 164.47 768.845 164.605 768.709 164.605C765.173 165.011 761.501 164.267 757.965 164.537C755.109 164.741 751.03 165.011 745.658 165.079C744.706 165.485 744.638 165.824 744.638 165.959C744.706 166.501 746.134 166.839 747.018 167.042C748.718 167.448 750.01 167.448 750.01 167.448Z" fill="#CE8F31"/>
<path d="M728.251 163.996C727.027 163.996 725.055 163.928 722.471 163.86C722.267 163.928 721.383 164.131 721.315 164.673C721.247 165.282 722.335 165.824 722.675 166.027C724.239 166.839 725.599 166.771 729.542 166.771C730.222 166.771 730.902 166.771 731.65 166.771C733.622 166.771 736.41 166.771 740.082 166.771C740.422 166.568 740.898 166.23 740.83 165.891C740.762 165.418 739.606 165.214 738.994 165.079C732.194 164.064 728.251 163.996 728.251 163.996Z" fill="#CE8F31"/>
<path d="M764.969 157.768C764.493 157.768 763.473 157.768 761.433 157.903C760.345 157.971 758.849 158.038 756.945 158.174C756.877 158.174 756.061 158.309 755.653 157.903C755.381 157.565 755.449 157.023 755.585 156.752C755.993 155.669 758.441 155.669 761.909 155.669C763.269 155.669 765.717 155.669 769.185 155.669C769.253 155.669 769.797 155.534 770.069 155.872C770.341 156.211 770.137 156.82 769.865 157.091C769.525 157.565 768.913 157.565 768.029 157.632C766.261 157.7 765.309 157.768 764.969 157.768Z" fill="#CE8F31"/>
<path d="M738.11 155.872C733.758 156.007 729.406 155.466 725.055 155.33C722.471 155.263 718.595 155.06 713.835 154.857C713.767 154.857 713.155 154.992 712.951 155.466C712.679 155.94 712.883 156.684 713.495 157.091C717.303 157.294 720.363 157.632 722.539 157.835C728.251 158.445 730.086 158.918 734.506 158.986C737.566 159.054 739.946 158.918 741.306 158.783C743.482 158.58 745.454 158.309 746.95 158.106C747.086 158.106 747.562 158.106 747.834 157.768C747.834 157.768 748.038 157.429 747.766 156.82C747.154 155.398 740.558 155.737 738.11 155.872Z" fill="#CE8F31"/>
<path d="M744.366 172.323C743.89 172.323 742.87 172.323 740.83 172.187C739.742 172.12 738.246 172.052 736.342 171.917C736.274 171.917 735.458 171.781 735.05 172.187C734.778 172.526 734.846 173.067 734.982 173.338C735.39 174.421 737.838 174.421 741.306 174.421C742.666 174.421 745.114 174.421 748.582 174.421C748.65 174.421 749.194 174.557 749.466 174.218C749.738 173.88 749.534 173.271 749.262 173C748.922 172.526 748.31 172.526 747.426 172.458C745.59 172.39 744.706 172.323 744.366 172.323Z" fill="#CE8F31"/>
<path d="M193.868 285.834C193.868 274.82 194.009 274.259 193.939 267.664C193.939 259.737 193.656 254.686 193.868 248.513C193.868 247.882 193.868 247.461 193.939 246.619C194.151 238.341 193.868 236.728 193.656 235.886C193.374 234.623 192.809 233.501 191.749 231.256C189.7 226.836 187.369 223.329 186.663 222.347C183.201 217.717 174.3 215.472 166.035 215.542C162.22 215.542 158.547 216.033 155.509 216.945C152.472 216.033 148.798 215.542 144.984 215.542C136.719 215.472 127.818 217.717 124.356 222.347C123.65 223.329 121.319 226.836 119.27 231.256C118.21 233.431 117.716 234.553 117.363 235.816C117.151 236.728 116.868 238.341 117.08 246.549C117.08 247.391 117.08 247.812 117.151 248.443C117.363 254.616 117.151 259.737 117.08 267.594C117.08 274.188 117.221 274.75 117.151 285.763C117.151 287.166 117.151 288.499 117.151 289.902C117.08 295.094 116.727 299.373 117.433 304.634C117.575 305.757 117.786 306.879 118.564 308.072C118.917 308.563 119.27 308.983 119.623 309.334C120.895 310.878 122.59 311.93 123.791 312C123.932 312 124.356 312 124.921 312H125.063H125.698C126.264 312 126.687 312 126.829 312H184.261C184.402 312 184.826 312 185.391 312H186.027H186.168C186.733 312 187.157 312 187.298 312C188.499 311.93 190.195 310.878 191.466 309.334C191.89 308.983 192.243 308.563 192.526 308.072C193.303 306.879 193.515 305.757 193.656 304.634C194.363 299.373 194.009 295.094 193.939 289.902C193.797 288.569 193.868 287.166 193.868 285.834Z" fill="#C890A7"/>
<path d="M187.722 224.872H123.155C120.4 224.872 118.14 222.627 118.14 219.891V214.981C118.069 212.245 120.33 210 123.155 210H187.722C190.477 210 192.738 212.245 192.738 214.981V219.891C192.738 222.627 190.477 224.872 187.722 224.872Z" fill="#8A8C95"/>
<path d="M190.407 278.678C190.407 266.472 190.548 265.84 190.477 258.545C190.477 249.776 190.265 244.164 190.407 237.289C190.407 237.219 189.559 235.956 189.347 235.395C188.923 234.974 188.217 234.342 187.298 233.781C184.19 231.957 180.729 232.168 176.561 232.519C174.795 232.659 174.23 232.869 170.344 233.22C167.801 233.431 166.883 233.501 165.823 233.431C164.269 233.29 164.128 233.08 160.949 232.519C158.194 231.957 156.781 231.677 155.156 231.677C153.249 231.607 151.765 231.817 150.282 232.098C147.88 232.448 147.456 232.939 144.984 233.29C144.277 233.36 143.006 233.571 141.381 233.501C139.191 233.431 137.99 233.01 136.436 232.659C135.659 232.519 130.714 231.466 125.628 232.869C125.628 232.869 123.438 233.501 121.884 234.974C121.601 235.254 120.542 236.237 120.612 237.359C120.753 244.094 120.542 249.776 120.542 258.475C120.542 265.77 120.612 266.402 120.612 278.608C120.612 280.151 120.612 281.624 120.612 283.168C120.542 288.92 120.259 293.69 120.824 299.443C120.965 300.635 121.107 301.898 121.813 303.231C122.096 303.792 122.449 304.283 122.802 304.634C123.932 306.388 125.486 307.51 126.546 307.58C126.617 307.58 127.041 307.58 127.535 307.58H127.676H128.242C128.736 307.58 129.089 307.58 129.231 307.58H181.506C181.647 307.58 182 307.58 182.495 307.58H183.06H183.201C183.696 307.58 184.12 307.58 184.19 307.58C185.32 307.51 186.804 306.388 187.934 304.634C188.287 304.213 188.641 303.722 188.923 303.231C189.63 301.898 189.771 300.635 189.912 299.443C190.548 293.62 190.195 288.92 190.124 283.168C190.336 281.695 190.407 280.151 190.407 278.678Z" fill="#B44276"/>
<path d="M184.755 285.202V254.055C182.212 254.055 180.164 252.371 180.164 250.337H130.714C130.714 252.371 128.665 254.055 126.122 254.055V285.272C128.665 285.272 130.714 286.956 130.714 288.99H180.164C180.164 286.886 182.212 285.202 184.755 285.202Z" fill="#F3F3F3"/>
<path opacity="0.39" d="M128.524 299.373V249.565C128.524 247.391 130.361 245.567 132.551 245.567C134.741 245.567 136.577 247.391 136.577 249.565V299.443C136.577 301.618 134.741 303.441 132.551 303.441C130.29 303.371 128.524 301.618 128.524 299.373Z" fill="#F3F3F3"/>
<path opacity="0.39" d="M128.524 237.99V233.15C128.524 230.975 130.361 229.151 132.551 229.151C134.741 229.151 136.577 230.975 136.577 233.15V237.99C136.577 240.165 134.741 241.989 132.551 241.989C130.29 241.989 128.524 240.165 128.524 237.99Z" fill="#F3F3F3"/>
<path d="M163 278C167.971 278 172 273.971 172 269C172 264.029 167.971 260 163 260C158.029 260 154 264.029 154 269C154 273.971 158.029 278 163 278Z" fill="#B32646"/>
<path d="M165.1 270.95C164.65 271.4 164.05 271.4 163.6 270.95L160.75 268.25C160.3 267.8 160.3 267.2 160.75 266.75C161.2 266.3 161.8 266.3 162.25 266.75L165.1 269.45C165.55 269.9 165.55 270.65 165.1 270.95Z" fill="#6C1626"/>
<path d="M164.95 266.75C165.4 267.2 165.4 267.8 164.95 268.25L162.4 271.1C161.95 271.55 161.35 271.55 160.9 271.1C160.45 270.65 160.45 270.05 160.9 269.6L163.6 266.75C163.9 266.45 164.5 266.45 164.95 266.75Z" fill="#6C1626"/>
<path d="M149.5 275C155.299 275 160 270.299 160 264.5C160 258.701 155.299 254 149.5 254C143.701 254 139 258.701 139 264.5C139 270.299 143.701 275 149.5 275Z" fill="#B32646"/>
<path d="M151.95 266.775C151.425 267.3 150.725 267.3 150.2 266.775L146.875 263.625C146.35 263.1 146.35 262.4 146.875 261.875C147.4 261.35 148.1 261.35 148.625 261.875L151.95 265.025C152.475 265.55 152.475 266.425 151.95 266.775Z" fill="#6C1626"/>
<path d="M151.775 261.875C152.3 262.4 152.3 263.1 151.775 263.625L148.8 266.95C148.275 267.475 147.575 267.475 147.05 266.95C146.525 266.425 146.525 265.725 147.05 265.2L150.2 261.875C150.55 261.525 151.25 261.525 151.775 261.875Z" fill="#6C1626"/>
<path d="M145.3 259.6C145.825 259.25 146.7 258.55 147.4 258.025C147.575 257.85 147.925 257.675 147.925 257.325C147.925 257.325 148.1 256.625 147.75 256.275C147.4 255.925 146.7 255.925 146.525 255.925C146.35 255.925 146 256.1 145.65 256.275C145.125 256.625 144.95 256.8 144.775 256.975C144.075 257.5 143.725 257.85 143.2 258.2C142.5 258.9 142.15 259.425 141.975 259.6C141.625 260.125 141.275 260.65 140.75 261.7C140.4 262.225 140.225 262.75 140.225 263.45C140.225 263.8 140.4 263.975 140.4 264.15C140.75 264.5 141.1 264.5 141.275 264.5C141.625 264.5 141.975 264.325 141.975 264.325C142.325 264.15 142.325 263.8 142.675 263.275C142.85 262.75 142.85 262.75 143.025 262.225C143.025 262.05 143.2 261.875 143.55 261.35C144.075 260.65 144.6 260.125 145.3 259.6Z" fill="#C8637A"/>
<path d="M154 285C158.418 285 162 281.418 162 277C162 272.582 158.418 269 154 269C149.582 269 146 272.582 146 277C146 281.418 149.582 285 154 285Z" fill="#761F36"/>
<path d="M156 278.875C155.625 279.25 155.125 279.25 154.75 278.875L152.25 276.5C151.875 276.125 151.875 275.625 152.25 275.25C152.625 274.875 153.125 274.875 153.5 275.25L156 277.625C156.25 277.875 156.25 278.5 156 278.875Z" fill="#49131F"/>
<path d="M155.75 275.125C156.125 275.5 156.125 276 155.75 276.375L153.375 278.875C153 279.25 152.5 279.25 152.125 278.875C151.75 278.5 151.75 278 152.125 277.625L154.5 275.125C154.875 274.75 155.375 274.75 155.75 275.125Z" fill="#49131F"/>
<path d="M150.75 273.25C151.125 272.875 151.75 272.5 152.375 272C152.5 271.875 152.75 271.75 152.875 271.5C152.875 271.5 153 271 152.75 270.75C152.5 270.375 152 270.5 151.875 270.5C151.75 270.5 151.5 270.625 151.25 270.875C150.875 271.125 150.625 271.25 150.625 271.375C150.125 271.875 149.75 272 149.5 272.375C149 272.875 148.625 273.25 148.625 273.375C148.375 273.75 148.125 274.125 147.75 274.875C147.5 275.375 147.375 275.75 147.375 276.125C147.375 276.375 147.5 276.5 147.5 276.625C147.75 276.875 148 276.875 148.125 276.875C148.375 276.875 148.625 276.75 148.625 276.75C148.875 276.625 149 276.375 149.125 276C149.25 275.625 149.25 275.5 149.375 275.25C149.375 275.125 149.5 274.875 149.875 274.625C149.875 274.125 150.25 273.75 150.75 273.25Z" fill="#A05062"/>
<path d="M193.868 416.833C193.868 405.82 194.009 405.259 193.939 398.664C193.939 390.737 193.656 385.686 193.868 379.513C193.868 378.882 193.868 378.461 193.939 377.619C194.151 369.341 193.868 367.728 193.656 366.886C193.374 365.623 192.809 364.501 191.749 362.256C189.7 357.836 187.369 354.329 186.663 353.347C183.201 348.717 174.3 346.472 166.035 346.542C162.22 346.542 158.547 347.033 155.509 347.945C152.472 347.033 148.798 346.542 144.984 346.542C136.719 346.472 127.818 348.717 124.356 353.347C123.65 354.329 121.319 357.836 119.27 362.256C118.21 364.43 117.716 365.553 117.363 366.816C117.151 367.728 116.868 369.341 117.08 377.549C117.08 378.391 117.08 378.811 117.151 379.443C117.363 385.616 117.151 390.737 117.08 398.594C117.08 405.188 117.221 405.75 117.151 416.763C117.151 418.166 117.151 419.499 117.151 420.902C117.08 426.093 116.727 430.373 117.433 435.634C117.575 436.756 117.786 437.879 118.564 439.071C118.917 439.563 119.27 439.983 119.623 440.334C120.895 441.878 122.59 442.93 123.791 443C123.932 443 124.356 443 124.921 443H125.063H125.698C126.264 443 126.687 443 126.829 443H184.261C184.402 443 184.826 443 185.391 443H186.027H186.168C186.733 443 187.157 443 187.298 443C188.499 442.93 190.195 441.878 191.466 440.334C191.89 439.983 192.243 439.563 192.526 439.071C193.303 437.879 193.515 436.756 193.656 435.634C194.363 430.373 194.009 426.093 193.939 420.902C193.797 419.569 193.868 418.166 193.868 416.833Z" fill="#C890A7"/>
<path d="M187.722 355.872H123.155C120.4 355.872 118.14 353.627 118.14 350.891V345.981C118.069 343.245 120.33 341 123.155 341H187.722C190.477 341 192.738 343.245 192.738 345.981V350.891C192.738 353.627 190.477 355.872 187.722 355.872Z" fill="#8A8C95"/>
<path d="M190.407 409.678C190.407 397.472 190.548 396.84 190.477 389.545C190.477 380.776 190.265 375.164 190.407 368.289C190.407 368.219 189.559 366.956 189.347 366.395C188.923 365.974 188.217 365.342 187.298 364.781C184.19 362.957 180.729 363.168 176.561 363.518C174.795 363.659 174.23 363.869 170.344 364.22C167.801 364.43 166.883 364.501 165.823 364.43C164.269 364.29 164.128 364.08 160.949 363.518C158.194 362.957 156.781 362.677 155.156 362.677C153.249 362.607 151.765 362.817 150.282 363.098C147.88 363.448 147.456 363.939 144.984 364.29C144.277 364.36 143.006 364.571 141.381 364.501C139.191 364.43 137.99 364.01 136.436 363.659C135.659 363.518 130.714 362.466 125.628 363.869C125.628 363.869 123.438 364.501 121.884 365.974C121.601 366.254 120.542 367.237 120.612 368.359C120.753 375.093 120.542 380.776 120.542 389.474C120.542 396.77 120.612 397.402 120.612 409.608C120.612 411.151 120.612 412.624 120.612 414.168C120.542 419.92 120.259 424.69 120.824 430.443C120.965 431.635 121.107 432.898 121.813 434.231C122.096 434.792 122.449 435.283 122.802 435.634C123.932 437.388 125.486 438.51 126.546 438.58C126.617 438.58 127.041 438.58 127.535 438.58H127.676H128.242C128.736 438.58 129.089 438.58 129.231 438.58H181.506C181.647 438.58 182 438.58 182.495 438.58H183.06H183.201C183.696 438.58 184.12 438.58 184.19 438.58C185.32 438.51 186.804 437.388 187.934 435.634C188.287 435.213 188.641 434.722 188.923 434.231C189.63 432.898 189.771 431.635 189.912 430.443C190.548 424.62 190.195 419.92 190.124 414.168C190.336 412.695 190.407 411.151 190.407 409.678Z" fill="#B44276"/>
<path d="M184.755 416.202V385.055C182.212 385.055 180.164 383.371 180.164 381.337H130.714C130.714 383.371 128.665 385.055 126.122 385.055V416.272C128.665 416.272 130.714 417.956 130.714 419.99H180.164C180.164 417.886 182.212 416.202 184.755 416.202Z" fill="#F3F3F3"/>
<path opacity="0.39" d="M128.524 430.373V380.565C128.524 378.391 130.361 376.567 132.551 376.567C134.741 376.567 136.577 378.391 136.577 380.565V430.443C136.577 432.618 134.741 434.441 132.551 434.441C130.29 434.371 128.524 432.618 128.524 430.373Z" fill="#F3F3F3"/>
<path opacity="0.39" d="M128.524 368.99V364.15C128.524 361.975 130.361 360.151 132.551 360.151C134.741 360.151 136.577 361.975 136.577 364.15V368.99C136.577 371.165 134.741 372.989 132.551 372.989C130.29 372.989 128.524 371.165 128.524 368.99Z" fill="#F3F3F3"/>
<path d="M163 409C167.971 409 172 404.971 172 400C172 395.029 167.971 391 163 391C158.029 391 154 395.029 154 400C154 404.971 158.029 409 163 409Z" fill="#B32646"/>
<path d="M165.1 401.95C164.65 402.4 164.05 402.4 163.6 401.95L160.75 399.25C160.3 398.8 160.3 398.2 160.75 397.75C161.2 397.3 161.8 397.3 162.25 397.75L165.1 400.45C165.55 400.9 165.55 401.65 165.1 401.95Z" fill="#6C1626"/>
<path d="M164.95 397.75C165.4 398.2 165.4 398.8 164.95 399.25L162.4 402.1C161.95 402.55 161.35 402.55 160.9 402.1C160.45 401.65 160.45 401.05 160.9 400.6L163.6 397.75C163.9 397.45 164.5 397.45 164.95 397.75Z" fill="#6C1626"/>
<path d="M149.5 406C155.299 406 160 401.299 160 395.5C160 389.701 155.299 385 149.5 385C143.701 385 139 389.701 139 395.5C139 401.299 143.701 406 149.5 406Z" fill="#B32646"/>
<path d="M151.95 397.775C151.425 398.3 150.725 398.3 150.2 397.775L146.875 394.625C146.35 394.1 146.35 393.4 146.875 392.875C147.4 392.35 148.1 392.35 148.625 392.875L151.95 396.025C152.475 396.55 152.475 397.425 151.95 397.775Z" fill="#6C1626"/>
<path d="M151.775 392.875C152.3 393.4 152.3 394.1 151.775 394.625L148.8 397.95C148.275 398.475 147.575 398.475 147.05 397.95C146.525 397.425 146.525 396.725 147.05 396.2L150.2 392.875C150.55 392.525 151.25 392.525 151.775 392.875Z" fill="#6C1626"/>
<path d="M145.3 390.6C145.825 390.25 146.7 389.55 147.4 389.025C147.575 388.85 147.925 388.675 147.925 388.325C147.925 388.325 148.1 387.625 147.75 387.275C147.4 386.925 146.7 386.925 146.525 386.925C146.35 386.925 146 387.1 145.65 387.275C145.125 387.625 144.95 387.8 144.775 387.975C144.075 388.5 143.725 388.85 143.2 389.2C142.5 389.9 142.15 390.425 141.975 390.6C141.625 391.125 141.275 391.65 140.75 392.7C140.4 393.225 140.225 393.75 140.225 394.45C140.225 394.8 140.4 394.975 140.4 395.15C140.75 395.5 141.1 395.5 141.275 395.5C141.625 395.5 141.975 395.325 141.975 395.325C142.325 395.15 142.325 394.8 142.675 394.275C142.85 393.75 142.85 393.75 143.025 393.225C143.025 393.05 143.2 392.875 143.55 392.35C144.075 391.65 144.6 391.125 145.3 390.6Z" fill="#C8637A"/>
<path d="M154 416C158.418 416 162 412.418 162 408C162 403.582 158.418 400 154 400C149.582 400 146 403.582 146 408C146 412.418 149.582 416 154 416Z" fill="#761F36"/>
<path d="M156 409.875C155.625 410.25 155.125 410.25 154.75 409.875L152.25 407.5C151.875 407.125 151.875 406.625 152.25 406.25C152.625 405.875 153.125 405.875 153.5 406.25L156 408.625C156.25 408.875 156.25 409.5 156 409.875Z" fill="#49131F"/>
<path d="M155.75 406.125C156.125 406.5 156.125 407 155.75 407.375L153.375 409.875C153 410.25 152.5 410.25 152.125 409.875C151.75 409.5 151.75 409 152.125 408.625L154.5 406.125C154.875 405.75 155.375 405.75 155.75 406.125Z" fill="#49131F"/>
<path d="M150.75 404.25C151.125 403.875 151.75 403.5 152.375 403C152.5 402.875 152.75 402.75 152.875 402.5C152.875 402.5 153 402 152.75 401.75C152.5 401.375 152 401.5 151.875 401.5C151.75 401.5 151.5 401.625 151.25 401.875C150.875 402.125 150.625 402.25 150.625 402.375C150.125 402.875 149.75 403 149.5 403.375C149 403.875 148.625 404.25 148.625 404.375C148.375 404.75 148.125 405.125 147.75 405.875C147.5 406.375 147.375 406.75 147.375 407.125C147.375 407.375 147.5 407.5 147.5 407.625C147.75 407.875 148 407.875 148.125 407.875C148.375 407.875 148.625 407.75 148.625 407.75C148.875 407.625 149 407.375 149.125 407C149.25 406.625 149.25 406.5 149.375 406.25C149.375 406.125 149.5 405.875 149.875 405.625C149.875 405.125 150.25 404.75 150.75 404.25Z" fill="#A05062"/>
<path d="M333.868 416.833C333.868 405.82 334.009 405.259 333.939 398.664C333.939 390.737 333.656 385.686 333.868 379.513C333.868 378.882 333.868 378.461 333.939 377.619C334.151 369.341 333.868 367.728 333.656 366.886C333.374 365.623 332.809 364.501 331.749 362.256C329.7 357.836 327.369 354.329 326.663 353.347C323.201 348.717 314.3 346.472 306.035 346.542C302.22 346.542 298.547 347.033 295.509 347.945C292.472 347.033 288.798 346.542 284.984 346.542C276.719 346.472 267.818 348.717 264.356 353.347C263.65 354.329 261.319 357.836 259.27 362.256C258.21 364.43 257.716 365.553 257.363 366.816C257.151 367.728 256.868 369.341 257.08 377.549C257.08 378.391 257.08 378.811 257.151 379.443C257.363 385.616 257.151 390.737 257.08 398.594C257.08 405.188 257.221 405.75 257.151 416.763C257.151 418.166 257.151 419.499 257.151 420.902C257.08 426.093 256.727 430.373 257.433 435.634C257.575 436.756 257.786 437.879 258.564 439.071C258.917 439.563 259.27 439.983 259.623 440.334C260.895 441.878 262.59 442.93 263.791 443C263.932 443 264.356 443 264.921 443H265.063H265.698C266.264 443 266.687 443 266.829 443H324.261C324.402 443 324.826 443 325.391 443H326.027H326.168C326.733 443 327.157 443 327.298 443C328.499 442.93 330.195 441.878 331.466 440.334C331.89 439.983 332.243 439.563 332.526 439.071C333.303 437.879 333.515 436.756 333.656 435.634C334.363 430.373 334.009 426.093 333.939 420.902C333.797 419.569 333.868 418.166 333.868 416.833Z" fill="#C890A7"/>
<path d="M327.722 355.872H263.155C260.4 355.872 258.14 353.627 258.14 350.891V345.981C258.069 343.245 260.33 341 263.155 341H327.722C330.477 341 332.738 343.245 332.738 345.981V350.891C332.738 353.627 330.477 355.872 327.722 355.872Z" fill="#8A8C95"/>
<path d="M330.407 409.678C330.407 397.472 330.548 396.84 330.477 389.545C330.477 380.776 330.265 375.164 330.407 368.289C330.407 368.219 329.559 366.956 329.347 366.395C328.923 365.974 328.217 365.342 327.298 364.781C324.19 362.957 320.729 363.168 316.561 363.518C314.795 363.659 314.23 363.869 310.344 364.22C307.801 364.43 306.883 364.501 305.823 364.43C304.269 364.29 304.128 364.08 300.949 363.518C298.194 362.957 296.781 362.677 295.156 362.677C293.249 362.607 291.765 362.817 290.282 363.098C287.88 363.448 287.456 363.939 284.984 364.29C284.277 364.36 283.006 364.571 281.381 364.501C279.191 364.43 277.99 364.01 276.436 363.659C275.659 363.518 270.714 362.466 265.628 363.869C265.628 363.869 263.438 364.501 261.884 365.974C261.601 366.254 260.542 367.237 260.612 368.359C260.753 375.093 260.542 380.776 260.542 389.474C260.542 396.77 260.612 397.402 260.612 409.608C260.612 411.151 260.612 412.624 260.612 414.168C260.542 419.92 260.259 424.69 260.824 430.443C260.965 431.635 261.107 432.898 261.813 434.231C262.096 434.792 262.449 435.283 262.802 435.634C263.932 437.388 265.486 438.51 266.546 438.58C266.617 438.58 267.041 438.58 267.535 438.58H267.676H268.242C268.736 438.58 269.089 438.58 269.231 438.58H321.506C321.647 438.58 322 438.58 322.495 438.58H323.06H323.201C323.696 438.58 324.12 438.58 324.19 438.58C325.32 438.51 326.804 437.388 327.934 435.634C328.287 435.213 328.641 434.722 328.923 434.231C329.63 432.898 329.771 431.635 329.912 430.443C330.548 424.62 330.195 419.92 330.124 414.168C330.336 412.695 330.407 411.151 330.407 409.678Z" fill="#B44276"/>
<path d="M324.755 416.202V385.055C322.212 385.055 320.164 383.371 320.164 381.337H270.714C270.714 383.371 268.665 385.055 266.122 385.055V416.272C268.665 416.272 270.714 417.956 270.714 419.99H320.164C320.164 417.886 322.212 416.202 324.755 416.202Z" fill="#F3F3F3"/>
<path opacity="0.39" d="M268.524 430.373V380.565C268.524 378.391 270.361 376.567 272.551 376.567C274.741 376.567 276.577 378.391 276.577 380.565V430.443C276.577 432.618 274.741 434.441 272.551 434.441C270.29 434.371 268.524 432.618 268.524 430.373Z" fill="#F3F3F3"/>
<path opacity="0.39" d="M268.524 368.99V364.15C268.524 361.975 270.361 360.151 272.551 360.151C274.741 360.151 276.577 361.975 276.577 364.15V368.99C276.577 371.165 274.741 372.989 272.551 372.989C270.29 372.989 268.524 371.165 268.524 368.99Z" fill="#F3F3F3"/>
<path d="M303 409C307.971 409 312 404.971 312 400C312 395.029 307.971 391 303 391C298.029 391 294 395.029 294 400C294 404.971 298.029 409 303 409Z" fill="#B32646"/>
<path d="M305.1 401.95C304.65 402.4 304.05 402.4 303.6 401.95L300.75 399.25C300.3 398.8 300.3 398.2 300.75 397.75C301.2 397.3 301.8 397.3 302.25 397.75L305.1 400.45C305.55 400.9 305.55 401.65 305.1 401.95Z" fill="#6C1626"/>
<path d="M304.95 397.75C305.4 398.2 305.4 398.8 304.95 399.25L302.4 402.1C301.95 402.55 301.35 402.55 300.9 402.1C300.45 401.65 300.45 401.05 300.9 400.6L303.6 397.75C303.9 397.45 304.5 397.45 304.95 397.75Z" fill="#6C1626"/>
<path d="M289.5 406C295.299 406 300 401.299 300 395.5C300 389.701 295.299 385 289.5 385C283.701 385 279 389.701 279 395.5C279 401.299 283.701 406 289.5 406Z" fill="#B32646"/>
<path d="M291.95 397.775C291.425 398.3 290.725 398.3 290.2 397.775L286.875 394.625C286.35 394.1 286.35 393.4 286.875 392.875C287.4 392.35 288.1 392.35 288.625 392.875L291.95 396.025C292.475 396.55 292.475 397.425 291.95 397.775Z" fill="#6C1626"/>
<path d="M291.775 392.875C292.3 393.4 292.3 394.1 291.775 394.625L288.8 397.95C288.275 398.475 287.575 398.475 287.05 397.95C286.525 397.425 286.525 396.725 287.05 396.2L290.2 392.875C290.55 392.525 291.25 392.525 291.775 392.875Z" fill="#6C1626"/>
<path d="M285.3 390.6C285.825 390.25 286.7 389.55 287.4 389.025C287.575 388.85 287.925 388.675 287.925 388.325C287.925 388.325 288.1 387.625 287.75 387.275C287.4 386.925 286.7 386.925 286.525 386.925C286.35 386.925 286 387.1 285.65 387.275C285.125 387.625 284.95 387.8 284.775 387.975C284.075 388.5 283.725 388.85 283.2 389.2C282.5 389.9 282.15 390.425 281.975 390.6C281.625 391.125 281.275 391.65 280.75 392.7C280.4 393.225 280.225 393.75 280.225 394.45C280.225 394.8 280.4 394.975 280.4 395.15C280.75 395.5 281.1 395.5 281.275 395.5C281.625 395.5 281.975 395.325 281.975 395.325C282.325 395.15 282.325 394.8 282.675 394.275C282.85 393.75 282.85 393.75 283.025 393.225C283.025 393.05 283.2 392.875 283.55 392.35C284.075 391.65 284.6 391.125 285.3 390.6Z" fill="#C8637A"/>
<path d="M294 416C298.418 416 302 412.418 302 408C302 403.582 298.418 400 294 400C289.582 400 286 403.582 286 408C286 412.418 289.582 416 294 416Z" fill="#761F36"/>
<path d="M296 409.875C295.625 410.25 295.125 410.25 294.75 409.875L292.25 407.5C291.875 407.125 291.875 406.625 292.25 406.25C292.625 405.875 293.125 405.875 293.5 406.25L296 408.625C296.25 408.875 296.25 409.5 296 409.875Z" fill="#49131F"/>
<path d="M295.75 406.125C296.125 406.5 296.125 407 295.75 407.375L293.375 409.875C293 410.25 292.5 410.25 292.125 409.875C291.75 409.5 291.75 409 292.125 408.625L294.5 406.125C294.875 405.75 295.375 405.75 295.75 406.125Z" fill="#49131F"/>
<path d="M290.75 404.25C291.125 403.875 291.75 403.5 292.375 403C292.5 402.875 292.75 402.75 292.875 402.5C292.875 402.5 293 402 292.75 401.75C292.5 401.375 292 401.5 291.875 401.5C291.75 401.5 291.5 401.625 291.25 401.875C290.875 402.125 290.625 402.25 290.625 402.375C290.125 402.875 289.75 403 289.5 403.375C289 403.875 288.625 404.25 288.625 404.375C288.375 404.75 288.125 405.125 287.75 405.875C287.5 406.375 287.375 406.75 287.375 407.125C287.375 407.375 287.5 407.5 287.5 407.625C287.75 407.875 288 407.875 288.125 407.875C288.375 407.875 288.625 407.75 288.625 407.75C288.875 407.625 289 407.375 289.125 407C289.25 406.625 289.25 406.5 289.375 406.25C289.375 406.125 289.5 405.875 289.875 405.625C289.875 405.125 290.25 404.75 290.75 404.25Z" fill="#A05062"/>
</svg>
