<svg viewBox="0 0 870 540" fill="none" xmlns="http://www.w3.org/2000/svg">
    <rect x="3" y="3" width="864" height="533.4" rx="77" fill="white" stroke="#116619" stroke-width="6"/>
    <path d="M274 339.272C273.554 340.751 273.188 342.254 272.905 343.773C272.426 345.876 272.196 348.027 272.221 350.184C272.266 351.724 272.472 353.255 272.837 354.753C273.121 354.975 273.418 355.18 273.727 355.367C275.28 356.231 277.015 356.721 278.793 356.799C280.43 356.973 282.076 357.041 283.722 357.004C285.622 356.975 287.519 356.838 289.404 356.594C290.707 356.428 291.021 356.338 292.074 356.185C294.343 355.883 296.631 355.746 298.92 355.776C305.588 355.681 305.94 355.311 311.859 355.367C315.076 355.397 316.303 355.519 316.788 355.571C320.146 355.931 320.961 356.476 324.045 356.935C326.589 357.231 329.152 357.345 331.712 357.276C333.766 357.29 336.52 357.258 339.791 357.072C340.014 356.813 340.22 356.539 340.407 356.253C341.336 354.66 341.809 352.844 341.776 351.002C341.825 349.445 341.687 347.888 341.365 346.364C340.922 344.311 340.233 342.319 339.311 340.431C335.92 333.884 311.481 333.132 308.847 333.065C303.229 332.923 276.384 332.408 274 339.272Z" fill="#994516"/>
    <path d="M352.975 324.89C354.269 324.107 354.881 323.659 355.888 323.673C359.253 323.719 362.942 328.861 361.782 331.852C361.612 332.258 361.365 332.627 361.056 332.941C359.31 334.882 357.232 336.5 354.919 337.717C346.702 341.151 338.486 344.586 330.27 348.021L307 358.091C307.932 357.247 324.994 341.85 335.309 334.626C337.874 332.793 340.541 331.105 343.296 329.571C348.942 326.445 348.607 327.533 352.975 324.89Z" fill="#AA4F1C"/>
    <path d="M261.025 324.89C259.731 324.107 259.119 323.659 258.112 323.673C254.747 323.719 251.058 328.861 252.218 331.852C252.388 332.258 252.635 332.627 252.944 332.941C254.69 334.882 256.768 336.5 259.081 337.717C267.298 341.151 275.514 344.586 283.73 348.021L307 358.091C306.068 357.247 289.006 341.85 278.691 334.626C276.126 332.793 273.459 331.105 270.704 329.571C265.058 326.445 265.393 327.533 261.025 324.89Z" fill="#AA4F1C"/>
    <path d="M349.491 310.492C350.461 309.923 351.577 309.655 352.7 309.721C354.927 309.914 356.425 311.64 357.635 313.036C358.976 314.357 359.822 316.097 360.031 317.964C360.052 318.484 360.018 319.004 359.931 319.517C359.246 323.325 353.82 326.983 353.04 327.498L339.238 336.426L323.356 346.793C317.904 350.559 312.452 354.325 307 358.091C311.17 354.041 315.057 349.711 318.633 345.132C323.696 338.651 325.121 335.553 333.397 324.364C333.397 324.364 340.592 315.315 349.491 310.492Z" fill="#B6551E"/>
    <path d="M264.509 310.492C263.54 309.923 262.423 309.655 261.3 309.721C259.073 309.914 257.575 311.64 256.365 313.036C255.024 314.357 254.178 316.097 253.969 317.964C253.948 318.484 253.982 319.004 254.069 319.517C254.754 323.325 260.18 326.983 260.96 327.498L274.762 336.426L290.644 346.793L307 358.091C302.83 354.041 298.943 349.711 295.367 345.132C290.304 338.651 288.879 335.553 280.603 324.364C280.603 324.364 273.408 315.315 264.509 310.492Z" fill="#B6551E"/>
    <path d="M337.38 291.746C338.43 291.31 339.537 291.025 340.668 290.901C344.299 290.644 347.112 292.395 349.27 293.771C351.821 295.397 355.219 297.564 355.554 301.017C355.614 301.732 355.55 302.452 355.366 303.145C354.353 306.978 352.572 310.566 350.13 313.694C346.661 318.087 342.956 322.291 339.032 326.287L331.262 334.129L326.973 338.395C326.033 339.374 325.092 340.353 324.152 341.332C320.777 344.833 317.402 348.335 314.026 351.836C311.684 353.921 309.342 356.006 307 358.091C310.261 350.034 312.651 343.413 314.168 339.064C317.639 329.108 328.952 295.396 337.38 291.746Z" fill="#C76933"/>
    <path d="M319.648 278.757C320.844 277.976 322.133 277.347 323.485 276.885H323.485C327.705 275.819 332.641 277.774 332.641 277.774C335.288 278.823 339.424 280.461 340.881 284.561C341.276 285.655 341.454 286.816 341.404 287.978C341.381 291.378 340.908 294.76 339.998 298.038C339.147 301.332 338.095 304.572 336.848 307.739C335.775 310.335 334.702 312.93 333.628 315.526C332.207 318.44 330.786 321.355 329.364 324.269C326.418 329.184 323.472 334.1 320.526 339.015L311.848 352.085C310.232 354.087 308.616 356.089 307 358.091C307.214 356.379 307.521 353.744 307.798 350.51C308.114 346.823 308.243 344.096 308.314 342.62C309.374 320.845 310.788 312.016 311.233 308.619C311.233 308.619 314.189 282.429 319.648 278.757Z" fill="#D77D4A"/>
    <path d="M276.62 291.746C275.57 291.31 274.463 291.025 273.332 290.901C269.701 290.644 266.888 292.395 264.73 293.771C262.179 295.397 258.781 297.564 258.446 301.017C258.386 301.732 258.45 302.452 258.634 303.145C259.647 306.978 261.428 310.566 263.87 313.694C267.339 318.087 271.044 322.291 274.968 326.287L282.738 334.129L287.027 338.395C287.967 339.374 288.908 340.353 289.848 341.332L299.974 351.836C302.316 353.921 304.658 356.006 307 358.091C303.739 350.034 301.349 343.413 299.832 339.064C296.361 329.108 285.048 295.396 276.62 291.746Z" fill="#C76933"/>
    <path d="M294.352 278.757C293.156 277.976 291.867 277.347 290.515 276.885H290.515C286.295 275.819 281.359 277.774 281.359 277.774C278.712 278.823 274.576 280.461 273.119 284.561C272.724 285.655 272.546 286.816 272.596 287.978C272.619 291.378 273.092 294.76 274.002 298.038C274.853 301.332 275.905 304.572 277.152 307.739L280.371 315.526C281.793 318.44 283.214 321.355 284.636 324.269C287.582 329.184 290.528 334.099 293.474 339.015L302.152 352.085C303.768 354.087 305.384 356.089 307 358.091C306.786 356.379 306.479 353.744 306.202 350.51C305.886 346.823 305.757 344.096 305.686 342.62C304.626 320.845 303.212 312.016 302.767 308.619C302.767 308.619 299.811 282.429 294.352 278.757Z" fill="#D77D4A"/>
    <path d="M321.205 279.797C321.056 278.079 320.64 276.395 319.973 274.804C317.211 269.308 308.725 269.027 307.007 269C307.005 269.825 306.995 269.825 306.993 269C305.274 269.027 296.789 269.308 294.027 274.804C293.36 276.395 292.944 278.079 292.795 279.797C292.316 283.145 292.265 286.541 292.641 289.903C292.831 292.169 293.105 293.866 293.198 294.438C294.803 304.245 297.203 313.221 297.203 313.221C299.006 321.081 300.783 329.016 302.535 337.025C303.901 343.271 305.233 349.482 306.532 355.659L307 358.091L307.439 355.676C308.752 349.489 310.094 343.271 311.465 337.025C313.22 329.027 314.997 321.092 316.797 313.221C316.797 313.221 319.197 304.245 320.802 294.438C320.895 293.866 321.169 292.169 321.359 289.903C321.735 286.541 321.684 283.145 321.205 279.797Z" fill="#EA8D59"/>
</svg>
