<svg viewBox="0 0 870 540" fill="none" xmlns="http://www.w3.org/2000/svg">
    <rect x="3" y="3" width="864" height="533.4" rx="77" fill="white" stroke="#116619" stroke-width="6"/>
    <path d="M137 324.272C136.554 325.751 136.188 327.254 135.905 328.773C135.426 330.876 135.196 333.027 135.221 335.184C135.266 336.724 135.472 338.255 135.837 339.753C136.121 339.975 136.418 340.18 136.727 340.367C138.28 341.231 140.015 341.721 141.793 341.799C143.43 341.973 145.076 342.041 146.722 342.004C148.622 341.975 150.519 341.838 152.404 341.594C153.707 341.428 154.021 341.338 155.074 341.185C157.343 340.883 159.631 340.746 161.92 340.776C168.588 340.681 168.94 340.311 174.859 340.367C178.076 340.397 179.303 340.519 179.788 340.571C183.146 340.931 183.961 341.476 187.045 341.935C189.589 342.231 192.152 342.345 194.712 342.276C196.766 342.29 199.52 342.258 202.791 342.072C203.014 341.813 203.22 341.539 203.407 341.253C204.336 339.66 204.809 337.844 204.776 336.002C204.825 334.445 204.687 332.888 204.365 331.364C203.922 329.311 203.233 327.319 202.311 325.431C198.92 318.884 174.481 318.132 171.847 318.065C166.229 317.923 139.384 317.408 137 324.272Z" fill="#994516"/>
    <path d="M215.975 309.89C217.269 309.107 217.881 308.659 218.888 308.673C222.253 308.719 225.942 313.861 224.782 316.852C224.612 317.258 224.365 317.627 224.056 317.941C222.31 319.882 220.232 321.5 217.919 322.717C209.702 326.151 201.486 329.586 193.27 333.021L170 343.091C170.932 342.247 187.994 326.85 198.309 319.626C200.874 317.793 203.541 316.105 206.296 314.571C211.942 311.445 211.607 312.533 215.975 309.89Z" fill="#AA4F1C"/>
    <path d="M124.025 309.89C122.731 309.107 122.119 308.659 121.112 308.673C117.747 308.719 114.058 313.861 115.218 316.852C115.388 317.258 115.635 317.627 115.944 317.941C117.69 319.882 119.768 321.5 122.081 322.717C130.298 326.151 138.514 329.586 146.73 333.021L170 343.091C169.068 342.247 152.006 326.85 141.691 319.626C139.126 317.793 136.459 316.105 133.704 314.571C128.058 311.445 128.393 312.533 124.025 309.89Z" fill="#AA4F1C"/>
    <path d="M212.491 295.492C213.461 294.923 214.577 294.655 215.7 294.721C217.927 294.914 219.425 296.64 220.635 298.036C221.976 299.357 222.822 301.097 223.031 302.964C223.052 303.484 223.018 304.004 222.931 304.517C222.246 308.325 216.82 311.983 216.04 312.498L202.238 321.426L186.356 331.793C180.904 335.559 175.452 339.325 170 343.091C174.17 339.041 178.057 334.711 181.633 330.132C186.696 323.651 188.121 320.553 196.397 309.364C196.397 309.364 203.592 300.315 212.491 295.492Z" fill="#B6551E"/>
    <path d="M127.509 295.492C126.539 294.923 125.422 294.655 124.3 294.721C122.073 294.914 120.575 296.64 119.365 298.036C118.024 299.357 117.178 301.097 116.969 302.964C116.948 303.484 116.982 304.004 117.069 304.517C117.754 308.325 123.18 311.983 123.96 312.498L137.762 321.426L153.644 331.793L170 343.091C165.83 339.041 161.943 334.711 158.367 330.132C153.304 323.651 151.879 320.553 143.603 309.364C143.603 309.364 136.408 300.315 127.509 295.492Z" fill="#B6551E"/>
    <path d="M200.38 276.746C201.43 276.31 202.537 276.025 203.668 275.901C207.299 275.644 210.112 277.395 212.27 278.771C214.821 280.397 218.219 282.564 218.554 286.017C218.614 286.732 218.55 287.452 218.366 288.145C217.353 291.978 215.572 295.566 213.13 298.694C209.661 303.087 205.956 307.291 202.032 311.287L194.262 319.129L189.973 323.395C189.032 324.374 188.092 325.353 187.152 326.332C183.777 329.833 180.402 333.335 177.026 336.836C174.684 338.921 172.342 341.006 170 343.091C173.261 335.034 175.651 328.413 177.168 324.064C180.639 314.108 191.952 280.396 200.38 276.746Z" fill="#C76933"/>
    <path d="M182.648 263.757C183.844 262.976 185.133 262.347 186.485 261.885H186.485C190.705 260.819 195.641 262.774 195.641 262.774C198.288 263.823 202.424 265.461 203.881 269.561C204.276 270.655 204.454 271.816 204.404 272.978C204.381 276.378 203.908 279.76 202.998 283.038C202.147 286.332 201.095 289.572 199.848 292.739C198.775 295.335 197.702 297.93 196.628 300.526C195.207 303.44 193.786 306.355 192.364 309.269C189.418 314.184 186.472 319.1 183.526 324.015L174.848 337.085C173.232 339.087 171.616 341.089 170 343.091C170.214 341.379 170.521 338.744 170.798 335.51C171.114 331.823 171.243 329.096 171.314 327.62C172.374 305.845 173.788 297.016 174.233 293.619C174.233 293.619 177.189 267.429 182.648 263.757Z" fill="#D77D4A"/>
    <path d="M139.62 276.746C138.57 276.31 137.463 276.025 136.332 275.901C132.701 275.644 129.888 277.395 127.73 278.771C125.179 280.397 121.781 282.564 121.446 286.017C121.386 286.732 121.45 287.452 121.634 288.145C122.647 291.978 124.428 295.566 126.87 298.694C130.339 303.087 134.044 307.291 137.968 311.287L145.738 319.129L150.027 323.395C150.967 324.374 151.908 325.353 152.848 326.332L162.974 336.836C165.316 338.921 167.658 341.006 170 343.091C166.739 335.034 164.349 328.413 162.832 324.064C159.361 314.108 148.048 280.396 139.62 276.746Z" fill="#C76933"/>
    <path d="M157.352 263.757C156.156 262.976 154.867 262.347 153.515 261.885H153.515C149.295 260.819 144.359 262.774 144.359 262.774C141.712 263.823 137.576 265.461 136.119 269.561C135.724 270.655 135.546 271.816 135.595 272.978C135.619 276.378 136.092 279.76 137.002 283.038C137.853 286.332 138.905 289.572 140.152 292.739L143.371 300.526C144.793 303.44 146.214 306.355 147.635 309.269C150.582 314.184 153.528 319.099 156.474 324.015L165.152 337.085C166.768 339.087 168.384 341.089 170 343.091C169.785 341.379 169.479 338.744 169.202 335.51C168.886 331.823 168.757 329.096 168.685 327.62C167.626 305.845 166.211 297.016 165.767 293.619C165.767 293.619 162.811 267.429 157.352 263.757Z" fill="#D77D4A"/>
    <path d="M184.205 264.797C184.056 263.079 183.64 261.395 182.973 259.804C180.211 254.308 171.726 254.027 170.007 254C170.005 254.825 169.995 254.825 169.993 254C168.275 254.027 159.789 254.308 157.027 259.804C156.36 261.395 155.945 263.079 155.795 264.797C155.317 268.145 155.265 271.541 155.641 274.903C155.831 277.169 156.105 278.866 156.198 279.438C157.803 289.245 160.203 298.221 160.203 298.221C162.006 306.081 163.783 314.016 165.535 322.025C166.901 328.271 168.233 334.482 169.532 340.659L170 343.091L170.439 340.676C171.752 334.489 173.094 328.271 174.465 322.025C176.22 314.027 177.997 306.092 179.797 298.221C179.797 298.221 182.198 289.245 183.802 279.438C183.895 278.866 184.169 277.169 184.359 274.903C184.736 271.541 184.684 268.145 184.205 264.797Z" fill="#EA8D59"/>
    <path d="M309 150.272C308.554 151.751 308.188 153.254 307.905 154.773C307.426 156.876 307.196 159.027 307.221 161.184C307.266 162.724 307.472 164.255 307.837 165.753C308.121 165.975 308.418 166.18 308.727 166.367C310.28 167.231 312.015 167.721 313.793 167.799C315.43 167.973 317.076 168.041 318.722 168.004C320.622 167.975 322.519 167.838 324.404 167.594C325.707 167.428 326.021 167.338 327.074 167.185C329.343 166.883 331.631 166.746 333.92 166.776C340.588 166.681 340.94 166.311 346.859 166.367C350.076 166.397 351.303 166.519 351.788 166.571C355.146 166.931 355.961 167.476 359.045 167.935C361.589 168.231 364.152 168.345 366.712 168.276C368.766 168.29 371.52 168.258 374.791 168.072C375.014 167.813 375.22 167.539 375.407 167.253C376.336 165.66 376.809 163.844 376.776 162.002C376.825 160.445 376.687 158.888 376.365 157.364C375.922 155.311 375.233 153.319 374.311 151.431C370.92 144.884 346.481 144.132 343.847 144.065C338.229 143.923 311.384 143.408 309 150.272Z" fill="#994516"/>
    <path d="M387.975 135.89C389.269 135.107 389.881 134.659 390.888 134.673C394.253 134.719 397.942 139.861 396.782 142.852C396.612 143.258 396.365 143.627 396.056 143.941C394.31 145.882 392.232 147.5 389.919 148.717C381.702 152.151 373.486 155.586 365.27 159.021L342 169.091C342.932 168.247 359.994 152.85 370.309 145.626C372.874 143.793 375.541 142.105 378.296 140.571C383.942 137.445 383.607 138.533 387.975 135.89Z" fill="#AA4F1C"/>
    <path d="M296.025 135.89C294.731 135.107 294.119 134.659 293.112 134.673C289.747 134.719 286.058 139.861 287.218 142.852C287.388 143.258 287.635 143.627 287.944 143.941C289.69 145.882 291.768 147.5 294.081 148.717C302.298 152.151 310.514 155.586 318.73 159.021L342 169.091C341.068 168.247 324.006 152.85 313.691 145.626C311.126 143.793 308.459 142.105 305.704 140.571C300.058 137.445 300.393 138.533 296.025 135.89Z" fill="#AA4F1C"/>
    <path d="M384.491 121.492C385.461 120.923 386.577 120.655 387.7 120.721C389.927 120.914 391.425 122.64 392.635 124.036C393.976 125.357 394.822 127.097 395.031 128.964C395.052 129.484 395.018 130.004 394.931 130.517C394.246 134.325 388.82 137.983 388.04 138.498L374.238 147.426L358.356 157.793C352.904 161.559 347.452 165.325 342 169.091C346.17 165.041 350.057 160.711 353.633 156.132C358.696 149.651 360.121 146.553 368.397 135.364C368.397 135.364 375.592 126.315 384.491 121.492Z" fill="#B6551E"/>
    <path d="M299.509 121.492C298.539 120.923 297.422 120.655 296.3 120.721C294.073 120.914 292.575 122.64 291.365 124.036C290.024 125.357 289.178 127.097 288.969 128.964C288.948 129.484 288.982 130.004 289.069 130.517C289.754 134.325 295.18 137.983 295.96 138.498L309.762 147.426L325.644 157.793L342 169.091C337.83 165.041 333.943 160.711 330.367 156.132C325.304 149.651 323.879 146.553 315.603 135.364C315.603 135.364 308.408 126.315 299.509 121.492Z" fill="#B6551E"/>
    <path d="M372.38 102.746C373.43 102.31 374.537 102.025 375.668 101.901C379.299 101.644 382.112 103.395 384.27 104.771C386.821 106.397 390.219 108.564 390.554 112.017C390.614 112.732 390.55 113.452 390.366 114.145C389.353 117.978 387.572 121.566 385.13 124.694C381.661 129.087 377.956 133.291 374.032 137.287L366.262 145.129L361.973 149.395C361.032 150.374 360.092 151.353 359.152 152.332C355.777 155.833 352.402 159.335 349.026 162.836C346.684 164.921 344.342 167.006 342 169.091C345.261 161.034 347.651 154.413 349.168 150.064C352.639 140.108 363.952 106.396 372.38 102.746Z" fill="#C76933"/>
    <path d="M354.648 89.7568C355.844 88.9759 357.133 88.3469 358.485 87.8845H358.485C362.705 86.8185 367.641 88.7738 367.641 88.7738C370.288 89.8225 374.424 91.4611 375.881 95.5607C376.276 96.6552 376.454 97.8157 376.404 98.9776C376.381 102.378 375.908 105.76 374.998 109.038C374.147 112.332 373.095 115.572 371.848 118.739C370.775 121.335 369.702 123.93 368.628 126.526C367.207 129.44 365.786 132.355 364.364 135.269C361.418 140.184 358.472 145.1 355.526 150.015L346.848 163.085C345.232 165.087 343.616 167.089 342 169.091C342.214 167.379 342.521 164.744 342.798 161.51C343.114 157.823 343.243 155.096 343.314 153.62C344.374 131.845 345.788 123.016 346.233 119.619C346.233 119.619 349.189 93.4295 354.648 89.7568Z" fill="#D77D4A"/>
    <path d="M311.62 102.746C310.57 102.31 309.463 102.025 308.332 101.901C304.701 101.644 301.888 103.395 299.73 104.771C297.179 106.397 293.781 108.564 293.446 112.017C293.386 112.732 293.45 113.452 293.634 114.145C294.647 117.978 296.428 121.566 298.87 124.694C302.339 129.087 306.044 133.291 309.968 137.287L317.738 145.129L322.027 149.395C322.967 150.374 323.908 151.353 324.848 152.332L334.974 162.836C337.316 164.921 339.658 167.006 342 169.091C338.739 161.034 336.349 154.413 334.832 150.064C331.361 140.108 320.048 106.396 311.62 102.746Z" fill="#C76933"/>
    <path d="M329.352 89.7568C328.156 88.9759 326.867 88.3469 325.515 87.8845H325.515C321.295 86.8185 316.359 88.7738 316.359 88.7738C313.712 89.8225 309.576 91.4611 308.119 95.5607C307.724 96.6552 307.546 97.8157 307.595 98.9776C307.619 102.378 308.092 105.76 309.002 109.038C309.853 112.332 310.905 115.572 312.152 118.739L315.371 126.526C316.793 129.44 318.214 132.355 319.635 135.269C322.582 140.184 325.528 145.099 328.474 150.015L337.152 163.085C338.768 165.087 340.384 167.089 342 169.091C341.785 167.379 341.479 164.744 341.202 161.51C340.886 157.823 340.757 155.096 340.685 153.62C339.626 131.845 338.211 123.016 337.767 119.619C337.767 119.619 334.811 93.4295 329.352 89.7568Z" fill="#D77D4A"/>
    <path d="M356.205 90.7966C356.056 89.079 355.64 87.3948 354.973 85.804C352.211 80.3081 343.726 80.0267 342.007 80C342.005 80.8249 341.995 80.8249 341.993 80C340.275 80.0267 331.789 80.3081 329.027 85.804C328.36 87.3948 327.945 89.079 327.795 90.7966C327.317 94.1454 327.265 97.5409 327.641 100.903C327.831 103.169 328.105 104.866 328.198 105.438C329.803 115.245 332.203 124.221 332.203 124.221C334.006 132.081 335.783 140.016 337.535 148.025C338.901 154.271 340.233 160.482 341.532 166.659L342 169.091L342.439 166.676C343.752 160.489 345.094 154.271 346.465 148.025C348.22 140.027 349.997 132.092 351.797 124.221C351.797 124.221 354.198 115.245 355.802 105.438C355.895 104.866 356.169 103.169 356.359 100.903C356.736 97.5409 356.684 94.1454 356.205 90.7966Z" fill="#EA8D59"/>
    <path d="M623 175.272C622.554 176.751 622.188 178.254 621.905 179.773C621.426 181.876 621.196 184.027 621.221 186.184C621.266 187.724 621.472 189.255 621.837 190.753C622.121 190.975 622.418 191.18 622.727 191.367C624.28 192.231 626.015 192.721 627.793 192.799C629.43 192.973 631.076 193.041 632.722 193.004C634.622 192.975 636.519 192.838 638.404 192.594C639.707 192.428 640.021 192.338 641.074 192.185C643.343 191.883 645.631 191.746 647.92 191.776C654.588 191.681 654.94 191.311 660.859 191.367C664.076 191.397 665.303 191.519 665.788 191.571C669.146 191.931 669.961 192.476 673.045 192.935C675.589 193.231 678.152 193.345 680.712 193.276C682.766 193.29 685.52 193.258 688.791 193.072C689.014 192.813 689.22 192.539 689.407 192.253C690.336 190.66 690.809 188.844 690.776 187.002C690.825 185.445 690.687 183.888 690.365 182.364C689.922 180.311 689.233 178.319 688.311 176.431C684.92 169.884 660.481 169.132 657.847 169.065C652.229 168.923 625.384 168.408 623 175.272Z" fill="#994516"/>
    <path d="M701.975 160.89C703.269 160.107 703.881 159.659 704.888 159.673C708.253 159.719 711.942 164.861 710.782 167.852C710.612 168.258 710.365 168.627 710.056 168.941C708.31 170.882 706.232 172.5 703.919 173.717C695.702 177.151 687.486 180.586 679.27 184.021L656 194.091C656.932 193.247 673.994 177.85 684.309 170.626C686.874 168.793 689.541 167.105 692.296 165.571C697.942 162.445 697.607 163.533 701.975 160.89Z" fill="#AA4F1C"/>
    <path d="M610.025 160.89C608.731 160.107 608.119 159.659 607.112 159.673C603.747 159.719 600.058 164.861 601.218 167.852C601.388 168.258 601.635 168.627 601.944 168.941C603.69 170.882 605.768 172.5 608.081 173.717C616.298 177.151 624.514 180.586 632.73 184.021L656 194.091C655.068 193.247 638.006 177.85 627.691 170.626C625.126 168.793 622.459 167.105 619.704 165.571C614.058 162.445 614.393 163.533 610.025 160.89Z" fill="#AA4F1C"/>
    <path d="M698.491 146.492C699.461 145.923 700.577 145.655 701.7 145.721C703.927 145.914 705.425 147.64 706.635 149.036C707.976 150.357 708.822 152.097 709.031 153.964C709.052 154.484 709.018 155.004 708.931 155.517C708.246 159.325 702.82 162.983 702.04 163.498L688.238 172.426L672.356 182.793C666.904 186.559 661.452 190.325 656 194.091C660.17 190.041 664.057 185.711 667.633 181.132C672.696 174.651 674.121 171.553 682.397 160.364C682.397 160.364 689.592 151.315 698.491 146.492Z" fill="#B6551E"/>
    <path d="M613.509 146.492C612.539 145.923 611.422 145.655 610.3 145.721C608.073 145.914 606.575 147.64 605.365 149.036C604.024 150.357 603.178 152.097 602.969 153.964C602.948 154.484 602.982 155.004 603.069 155.517C603.754 159.325 609.18 162.983 609.96 163.498L623.762 172.426L639.644 182.793L656 194.091C651.83 190.041 647.943 185.711 644.367 181.132C639.304 174.651 637.879 171.553 629.603 160.364C629.603 160.364 622.408 151.315 613.509 146.492Z" fill="#B6551E"/>
    <path d="M686.38 127.746C687.43 127.31 688.537 127.025 689.668 126.901C693.299 126.644 696.112 128.395 698.27 129.771C700.821 131.397 704.219 133.564 704.554 137.017C704.614 137.732 704.55 138.452 704.366 139.145C703.353 142.978 701.572 146.566 699.13 149.694C695.661 154.087 691.956 158.291 688.032 162.287L680.262 170.129L675.973 174.395C675.032 175.374 674.092 176.353 673.152 177.332C669.777 180.833 666.402 184.335 663.026 187.836C660.684 189.921 658.342 192.006 656 194.091C659.261 186.034 661.651 179.413 663.168 175.064C666.639 165.108 677.952 131.396 686.38 127.746Z" fill="#C76933"/>
    <path d="M668.648 114.757C669.844 113.976 671.133 113.347 672.485 112.885H672.485C676.705 111.819 681.641 113.774 681.641 113.774C684.288 114.823 688.424 116.461 689.881 120.561C690.276 121.655 690.454 122.816 690.404 123.978C690.381 127.378 689.908 130.76 688.998 134.038C688.147 137.332 687.095 140.572 685.848 143.739C684.775 146.335 683.702 148.93 682.628 151.526C681.207 154.44 679.786 157.355 678.364 160.269C675.418 165.184 672.472 170.1 669.526 175.015L660.848 188.085C659.232 190.087 657.616 192.089 656 194.091C656.214 192.379 656.521 189.744 656.798 186.51C657.114 182.823 657.243 180.096 657.314 178.62C658.374 156.845 659.788 148.016 660.233 144.619C660.233 144.619 663.189 118.429 668.648 114.757Z" fill="#D77D4A"/>
    <path d="M625.62 127.746C624.57 127.31 623.463 127.025 622.332 126.901C618.701 126.644 615.888 128.395 613.73 129.771C611.179 131.397 607.781 133.564 607.446 137.017C607.386 137.732 607.45 138.452 607.634 139.145C608.647 142.978 610.428 146.566 612.87 149.694C616.339 154.087 620.044 158.291 623.968 162.287L631.738 170.129L636.027 174.395C636.967 175.374 637.908 176.353 638.848 177.332L648.974 187.836C651.316 189.921 653.658 192.006 656 194.091C652.739 186.034 650.349 179.413 648.832 175.064C645.361 165.108 634.048 131.396 625.62 127.746Z" fill="#C76933"/>
    <path d="M643.352 114.757C642.156 113.976 640.867 113.347 639.515 112.885H639.515C635.295 111.819 630.359 113.774 630.359 113.774C627.712 114.823 623.576 116.461 622.119 120.561C621.724 121.655 621.546 122.816 621.595 123.978C621.619 127.378 622.092 130.76 623.002 134.038C623.853 137.332 624.905 140.572 626.152 143.739L629.371 151.526C630.793 154.44 632.214 157.355 633.635 160.269C636.582 165.184 639.528 170.099 642.474 175.015L651.152 188.085C652.768 190.087 654.384 192.089 656 194.091C655.785 192.379 655.479 189.744 655.202 186.51C654.886 182.823 654.757 180.096 654.685 178.62C653.626 156.845 652.211 148.016 651.767 144.619C651.767 144.619 648.811 118.429 643.352 114.757Z" fill="#D77D4A"/>
    <path d="M670.205 115.797C670.056 114.079 669.64 112.395 668.973 110.804C666.211 105.308 657.726 105.027 656.007 105C656.005 105.825 655.995 105.825 655.993 105C654.275 105.027 645.789 105.308 643.027 110.804C642.36 112.395 641.945 114.079 641.795 115.797C641.317 119.145 641.265 122.541 641.641 125.903C641.831 128.169 642.105 129.866 642.198 130.438C643.803 140.245 646.203 149.221 646.203 149.221C648.006 157.081 649.783 165.016 651.535 173.025C652.901 179.271 654.233 185.482 655.532 191.659L656 194.091L656.439 191.676C657.752 185.489 659.094 179.271 660.465 173.025C662.22 165.027 663.997 157.092 665.797 149.221C665.797 149.221 668.198 140.245 669.802 130.438C669.895 129.866 670.169 128.169 670.359 125.903C670.736 122.541 670.684 119.145 670.205 115.797Z" fill="#EA8D59"/>
    <path d="M267 426.272C266.554 427.751 266.188 429.254 265.905 430.773C265.426 432.876 265.196 435.027 265.221 437.184C265.266 438.724 265.472 440.255 265.837 441.753C266.121 441.975 266.418 442.18 266.727 442.367C268.28 443.231 270.015 443.721 271.793 443.799C273.43 443.973 275.076 444.041 276.722 444.004C278.622 443.975 280.519 443.838 282.404 443.594C283.707 443.428 284.021 443.338 285.074 443.185C287.343 442.883 289.631 442.746 291.92 442.776C298.588 442.681 298.94 442.311 304.859 442.367C308.076 442.397 309.303 442.519 309.788 442.571C313.146 442.931 313.961 443.476 317.045 443.935C319.589 444.231 322.152 444.345 324.712 444.276C326.766 444.29 329.52 444.258 332.791 444.072C333.014 443.813 333.22 443.539 333.407 443.253C334.336 441.66 334.809 439.844 334.776 438.002C334.825 436.445 334.687 434.888 334.365 433.364C333.922 431.311 333.233 429.319 332.311 427.431C328.92 420.884 304.481 420.132 301.847 420.065C296.229 419.923 269.384 419.408 267 426.272Z" fill="#994516"/>
    <path d="M345.975 411.89C347.269 411.107 347.881 410.659 348.888 410.673C352.253 410.719 355.942 415.861 354.782 418.852C354.612 419.258 354.365 419.627 354.056 419.941C352.31 421.882 350.232 423.5 347.919 424.717C339.702 428.151 331.486 431.586 323.27 435.021L300 445.091C300.932 444.247 317.994 428.85 328.309 421.626C330.874 419.793 333.541 418.105 336.296 416.571C341.942 413.445 341.607 414.533 345.975 411.89Z" fill="#AA4F1C"/>
    <path d="M254.025 411.89C252.731 411.107 252.119 410.659 251.112 410.673C247.747 410.719 244.058 415.861 245.218 418.852C245.388 419.258 245.635 419.627 245.944 419.941C247.69 421.882 249.768 423.5 252.081 424.717C260.298 428.151 268.514 431.586 276.73 435.021L300 445.091C299.068 444.247 282.006 428.85 271.691 421.626C269.126 419.793 266.459 418.105 263.704 416.571C258.058 413.445 258.393 414.533 254.025 411.89Z" fill="#AA4F1C"/>
    <path d="M342.491 397.492C343.461 396.923 344.577 396.655 345.7 396.721C347.927 396.914 349.425 398.64 350.635 400.036C351.976 401.357 352.822 403.097 353.031 404.964C353.052 405.484 353.018 406.004 352.931 406.517C352.246 410.325 346.82 413.983 346.04 414.498L332.238 423.426L316.356 433.793C310.904 437.559 305.452 441.325 300 445.091C304.17 441.041 308.057 436.711 311.633 432.132C316.696 425.651 318.121 422.553 326.397 411.364C326.397 411.364 333.592 402.315 342.491 397.492Z" fill="#B6551E"/>
    <path d="M257.509 397.492C256.539 396.923 255.422 396.655 254.3 396.721C252.073 396.914 250.575 398.64 249.365 400.036C248.024 401.357 247.178 403.097 246.969 404.964C246.948 405.484 246.982 406.004 247.069 406.517C247.754 410.325 253.18 413.983 253.96 414.498L267.762 423.426L283.644 433.793L300 445.091C295.83 441.041 291.943 436.711 288.367 432.132C283.304 425.651 281.879 422.553 273.603 411.364C273.603 411.364 266.408 402.315 257.509 397.492Z" fill="#B6551E"/>
    <path d="M330.38 378.746C331.43 378.31 332.537 378.025 333.668 377.901C337.299 377.644 340.112 379.395 342.27 380.771C344.821 382.397 348.219 384.564 348.554 388.017C348.614 388.732 348.55 389.452 348.366 390.145C347.353 393.978 345.572 397.566 343.13 400.694C339.661 405.087 335.956 409.291 332.032 413.287L324.262 421.129L319.973 425.395C319.032 426.374 318.092 427.353 317.152 428.332C313.777 431.833 310.402 435.335 307.026 438.836C304.684 440.921 302.342 443.006 300 445.091C303.261 437.034 305.651 430.413 307.168 426.064C310.639 416.108 321.952 382.396 330.38 378.746Z" fill="#C76933"/>
    <path d="M312.648 365.757C313.844 364.976 315.133 364.347 316.485 363.885H316.485C320.705 362.819 325.641 364.774 325.641 364.774C328.288 365.823 332.424 367.461 333.881 371.561C334.276 372.655 334.454 373.816 334.404 374.978C334.381 378.378 333.908 381.76 332.998 385.038C332.147 388.332 331.095 391.572 329.848 394.739C328.775 397.335 327.702 399.931 326.628 402.526C325.207 405.44 323.786 408.355 322.364 411.269C319.418 416.184 316.472 421.1 313.526 426.015L304.848 439.085C303.232 441.087 301.616 443.089 300 445.091C300.214 443.379 300.521 440.744 300.798 437.51C301.114 433.823 301.243 431.096 301.314 429.62C302.374 407.845 303.788 399.016 304.233 395.619C304.233 395.619 307.189 369.43 312.648 365.757Z" fill="#D77D4A"/>
    <path d="M269.62 378.746C268.57 378.31 267.463 378.025 266.332 377.901C262.701 377.644 259.888 379.395 257.73 380.771C255.179 382.397 251.781 384.564 251.446 388.017C251.386 388.732 251.45 389.452 251.634 390.145C252.647 393.978 254.428 397.566 256.87 400.694C260.339 405.087 264.044 409.291 267.968 413.287L275.738 421.129L280.027 425.395C280.967 426.374 281.908 427.353 282.848 428.332L292.974 438.836C295.316 440.921 297.658 443.006 300 445.091C296.739 437.034 294.349 430.413 292.832 426.064C289.361 416.108 278.048 382.396 269.62 378.746Z" fill="#C76933"/>
    <path d="M287.352 365.757C286.156 364.976 284.867 364.347 283.515 363.885H283.515C279.295 362.819 274.359 364.774 274.359 364.774C271.712 365.823 267.576 367.461 266.119 371.561C265.724 372.655 265.546 373.816 265.595 374.978C265.619 378.378 266.092 381.76 267.002 385.038C267.853 388.332 268.905 391.572 270.152 394.739L273.371 402.526C274.793 405.44 276.214 408.355 277.635 411.269C280.582 416.184 283.528 421.1 286.474 426.015L295.152 439.085C296.768 441.087 298.384 443.089 300 445.091C299.785 443.379 299.479 440.744 299.202 437.51C298.886 433.823 298.757 431.096 298.685 429.62C297.626 407.845 296.211 399.016 295.767 395.619C295.767 395.619 292.811 369.43 287.352 365.757Z" fill="#D77D4A"/>
    <path d="M314.205 366.797C314.056 365.079 313.64 363.395 312.973 361.804C310.211 356.308 301.726 356.027 300.007 356C300.005 356.825 299.995 356.825 299.993 356C298.275 356.027 289.789 356.308 287.027 361.804C286.36 363.395 285.945 365.079 285.795 366.797C285.317 370.145 285.265 373.541 285.641 376.903C285.831 379.169 286.105 380.866 286.198 381.438C287.803 391.245 290.203 400.221 290.203 400.221C292.006 408.081 293.783 416.016 295.535 424.025C296.901 430.271 298.233 436.482 299.532 442.659L300 445.091L300.439 442.676C301.752 436.489 303.094 430.271 304.465 424.025C306.22 416.027 307.997 408.092 309.797 400.221C309.797 400.221 312.198 391.245 313.802 381.438C313.895 380.866 314.169 379.169 314.359 376.903C314.736 373.541 314.684 370.145 314.205 366.797Z" fill="#EA8D59"/>
    <path d="M685 353.272C684.554 354.751 684.188 356.254 683.905 357.773C683.426 359.876 683.196 362.027 683.221 364.184C683.266 365.724 683.472 367.255 683.837 368.753C684.121 368.975 684.418 369.18 684.727 369.367C686.28 370.231 688.015 370.721 689.793 370.799C691.43 370.973 693.076 371.041 694.722 371.004C696.622 370.975 698.519 370.838 700.404 370.594C701.707 370.428 702.021 370.338 703.074 370.185C705.343 369.883 707.631 369.746 709.92 369.776C716.588 369.681 716.94 369.311 722.859 369.367C726.076 369.397 727.303 369.519 727.788 369.571C731.146 369.931 731.961 370.476 735.045 370.935C737.589 371.231 740.152 371.345 742.712 371.276C744.766 371.29 747.52 371.258 750.791 371.072C751.014 370.813 751.22 370.539 751.407 370.253C752.336 368.66 752.809 366.844 752.776 365.002C752.825 363.445 752.687 361.888 752.365 360.364C751.922 358.311 751.233 356.319 750.311 354.431C746.92 347.884 722.481 347.132 719.847 347.065C714.229 346.923 687.384 346.408 685 353.272Z" fill="#994516"/>
    <path d="M763.975 338.89C765.269 338.107 765.881 337.659 766.888 337.673C770.253 337.719 773.942 342.861 772.782 345.852C772.612 346.258 772.365 346.627 772.056 346.941C770.31 348.882 768.232 350.5 765.919 351.717C757.702 355.151 749.486 358.586 741.27 362.021L718 372.091C718.932 371.247 735.994 355.85 746.309 348.626C748.874 346.793 751.541 345.105 754.296 343.571C759.942 340.445 759.607 341.533 763.975 338.89Z" fill="#AA4F1C"/>
    <path d="M672.025 338.89C670.731 338.107 670.119 337.659 669.112 337.673C665.747 337.719 662.058 342.861 663.218 345.852C663.388 346.258 663.635 346.627 663.944 346.941C665.69 348.882 667.768 350.5 670.081 351.717C678.298 355.151 686.514 358.586 694.73 362.021L718 372.091C717.068 371.247 700.006 355.85 689.691 348.626C687.126 346.793 684.459 345.105 681.704 343.571C676.058 340.445 676.393 341.533 672.025 338.89Z" fill="#AA4F1C"/>
    <path d="M760.491 324.492C761.461 323.923 762.577 323.655 763.7 323.721C765.927 323.914 767.425 325.64 768.635 327.036C769.976 328.357 770.822 330.097 771.031 331.964C771.052 332.484 771.018 333.004 770.931 333.517C770.246 337.325 764.82 340.983 764.04 341.498L750.238 350.426L734.356 360.793C728.904 364.559 723.452 368.325 718 372.091C722.17 368.041 726.057 363.711 729.633 359.132C734.696 352.651 736.121 349.553 744.397 338.364C744.397 338.364 751.592 329.315 760.491 324.492Z" fill="#B6551E"/>
    <path d="M675.509 324.492C674.539 323.923 673.422 323.655 672.3 323.721C670.073 323.914 668.575 325.64 667.365 327.036C666.024 328.357 665.178 330.097 664.969 331.964C664.948 332.484 664.982 333.004 665.069 333.517C665.754 337.325 671.18 340.983 671.96 341.498L685.762 350.426L701.644 360.793L718 372.091C713.83 368.041 709.943 363.711 706.367 359.132C701.304 352.651 699.879 349.553 691.603 338.364C691.603 338.364 684.408 329.315 675.509 324.492Z" fill="#B6551E"/>
    <path d="M748.38 305.746C749.43 305.31 750.537 305.025 751.668 304.901C755.299 304.644 758.112 306.395 760.27 307.771C762.821 309.397 766.219 311.564 766.554 315.017C766.614 315.732 766.55 316.452 766.366 317.145C765.353 320.978 763.572 324.566 761.13 327.694C757.661 332.087 753.956 336.291 750.032 340.287L742.262 348.129L737.973 352.395C737.032 353.374 736.092 354.353 735.152 355.332C731.777 358.833 728.402 362.335 725.026 365.836C722.684 367.921 720.342 370.006 718 372.091C721.261 364.034 723.651 357.413 725.168 353.064C728.639 343.108 739.952 309.396 748.38 305.746Z" fill="#C76933"/>
    <path d="M730.648 292.757C731.844 291.976 733.133 291.347 734.485 290.885H734.485C738.705 289.819 743.641 291.774 743.641 291.774C746.288 292.823 750.424 294.461 751.881 298.561C752.276 299.655 752.454 300.816 752.404 301.978C752.381 305.378 751.908 308.76 750.998 312.038C750.147 315.332 749.095 318.572 747.848 321.739C746.775 324.335 745.702 326.93 744.628 329.526C743.207 332.44 741.786 335.355 740.364 338.269C737.418 343.184 734.472 348.1 731.526 353.015L722.848 366.085C721.232 368.087 719.616 370.089 718 372.091C718.214 370.379 718.521 367.744 718.798 364.51C719.114 360.823 719.243 358.096 719.314 356.62C720.374 334.845 721.788 326.016 722.233 322.619C722.233 322.619 725.189 296.429 730.648 292.757Z" fill="#D77D4A"/>
    <path d="M687.62 305.746C686.57 305.31 685.463 305.025 684.332 304.901C680.701 304.644 677.888 306.395 675.73 307.771C673.179 309.397 669.781 311.564 669.446 315.017C669.386 315.732 669.45 316.452 669.634 317.145C670.647 320.978 672.428 324.566 674.87 327.694C678.339 332.087 682.044 336.291 685.968 340.287L693.738 348.129L698.027 352.395C698.967 353.374 699.908 354.353 700.848 355.332L710.974 365.836C713.316 367.921 715.658 370.006 718 372.091C714.739 364.034 712.349 357.413 710.832 353.064C707.361 343.108 696.048 309.396 687.62 305.746Z" fill="#C76933"/>
    <path d="M705.352 292.757C704.156 291.976 702.867 291.347 701.515 290.885H701.515C697.295 289.819 692.359 291.774 692.359 291.774C689.712 292.823 685.576 294.461 684.119 298.561C683.724 299.655 683.546 300.816 683.595 301.978C683.619 305.378 684.092 308.76 685.002 312.038C685.853 315.332 686.905 318.572 688.152 321.739L691.371 329.526C692.793 332.44 694.214 335.355 695.635 338.269C698.582 343.184 701.528 348.099 704.474 353.015L713.152 366.085C714.768 368.087 716.384 370.089 718 372.091C717.785 370.379 717.479 367.744 717.202 364.51C716.886 360.823 716.757 358.096 716.685 356.62C715.626 334.845 714.211 326.016 713.767 322.619C713.767 322.619 710.811 296.429 705.352 292.757Z" fill="#D77D4A"/>
    <path d="M732.205 293.797C732.056 292.079 731.64 290.395 730.973 288.804C728.211 283.308 719.726 283.027 718.007 283C718.005 283.825 717.995 283.825 717.993 283C716.275 283.027 707.789 283.308 705.027 288.804C704.36 290.395 703.945 292.079 703.795 293.797C703.317 297.145 703.265 300.541 703.641 303.903C703.831 306.169 704.105 307.866 704.198 308.438C705.803 318.245 708.203 327.221 708.203 327.221C710.006 335.081 711.783 343.016 713.535 351.025C714.901 357.271 716.233 363.482 717.532 369.659L718 372.091L718.439 369.676C719.752 363.489 721.094 357.271 722.465 351.025C724.22 343.027 725.997 335.092 727.797 327.221C727.797 327.221 730.198 318.245 731.802 308.438C731.895 307.866 732.169 306.169 732.359 303.903C732.736 300.541 732.684 297.145 732.205 293.797Z" fill="#EA8D59"/>
    <path d="M527 279.272C526.554 280.751 526.188 282.254 525.905 283.773C525.426 285.876 525.196 288.027 525.221 290.184C525.266 291.724 525.472 293.255 525.837 294.753C526.121 294.975 526.418 295.18 526.727 295.367C528.28 296.231 530.015 296.721 531.793 296.799C533.43 296.973 535.076 297.041 536.722 297.004C538.622 296.975 540.519 296.838 542.404 296.594C543.707 296.428 544.021 296.338 545.074 296.185C547.343 295.883 549.631 295.746 551.92 295.776C558.588 295.681 558.94 295.311 564.859 295.367C568.076 295.397 569.303 295.519 569.788 295.571C573.146 295.931 573.961 296.476 577.045 296.935C579.589 297.231 582.152 297.345 584.712 297.276C586.766 297.29 589.52 297.258 592.791 297.072C593.014 296.813 593.22 296.539 593.407 296.253C594.336 294.66 594.809 292.844 594.776 291.002C594.825 289.445 594.687 287.888 594.365 286.364C593.922 284.311 593.233 282.319 592.311 280.431C588.92 273.884 564.481 273.132 561.847 273.065C556.229 272.923 529.384 272.408 527 279.272Z" fill="#994516"/>
    <path d="M605.975 264.89C607.269 264.107 607.881 263.659 608.888 263.673C612.253 263.719 615.942 268.861 614.782 271.852C614.612 272.258 614.365 272.627 614.056 272.941C612.31 274.882 610.232 276.5 607.919 277.717C599.702 281.151 591.486 284.586 583.27 288.021L560 298.091C560.932 297.247 577.994 281.85 588.309 274.626C590.874 272.793 593.541 271.105 596.296 269.571C601.942 266.445 601.607 267.533 605.975 264.89Z" fill="#AA4F1C"/>
    <path d="M514.025 264.89C512.731 264.107 512.119 263.659 511.112 263.673C507.747 263.719 504.058 268.861 505.218 271.852C505.388 272.258 505.635 272.627 505.944 272.941C507.69 274.882 509.768 276.5 512.081 277.717C520.298 281.151 528.514 284.586 536.73 288.021L560 298.091C559.068 297.247 542.006 281.85 531.691 274.626C529.126 272.793 526.459 271.105 523.704 269.571C518.058 266.445 518.393 267.533 514.025 264.89Z" fill="#AA4F1C"/>
    <path d="M602.491 250.492C603.461 249.923 604.577 249.655 605.7 249.721C607.927 249.914 609.425 251.64 610.635 253.036C611.976 254.357 612.822 256.097 613.031 257.964C613.052 258.484 613.018 259.004 612.931 259.517C612.246 263.325 606.82 266.983 606.04 267.498L592.238 276.426L576.356 286.793C570.904 290.559 565.452 294.325 560 298.091C564.17 294.041 568.057 289.711 571.633 285.132C576.696 278.651 578.121 275.553 586.397 264.364C586.397 264.364 593.592 255.315 602.491 250.492Z" fill="#B6551E"/>
    <path d="M517.509 250.492C516.539 249.923 515.422 249.655 514.3 249.721C512.073 249.914 510.575 251.64 509.365 253.036C508.024 254.357 507.178 256.097 506.969 257.964C506.948 258.484 506.982 259.004 507.069 259.517C507.754 263.325 513.18 266.983 513.96 267.498L527.762 276.426L543.644 286.793L560 298.091C555.83 294.041 551.943 289.711 548.367 285.132C543.304 278.651 541.879 275.553 533.603 264.364C533.603 264.364 526.408 255.315 517.509 250.492Z" fill="#B6551E"/>
    <path d="M590.38 231.746C591.43 231.31 592.537 231.025 593.668 230.901C597.299 230.644 600.112 232.395 602.27 233.771C604.821 235.397 608.219 237.564 608.554 241.017C608.614 241.732 608.55 242.452 608.366 243.145C607.353 246.978 605.572 250.566 603.13 253.694C599.661 258.087 595.956 262.291 592.032 266.287L584.262 274.129L579.973 278.395C579.032 279.374 578.092 280.353 577.152 281.332C573.777 284.833 570.402 288.335 567.026 291.836C564.684 293.921 562.342 296.006 560 298.091C563.261 290.034 565.651 283.413 567.168 279.064C570.639 269.108 581.952 235.396 590.38 231.746Z" fill="#C76933"/>
    <path d="M572.648 218.757C573.844 217.976 575.133 217.347 576.485 216.885H576.485C580.705 215.819 585.641 217.774 585.641 217.774C588.288 218.823 592.424 220.461 593.881 224.561C594.276 225.655 594.454 226.816 594.404 227.978C594.381 231.378 593.908 234.76 592.998 238.038C592.147 241.332 591.095 244.572 589.848 247.739C588.775 250.335 587.702 252.93 586.628 255.526C585.207 258.44 583.786 261.355 582.364 264.269C579.418 269.184 576.472 274.1 573.526 279.015L564.848 292.085C563.232 294.087 561.616 296.089 560 298.091C560.214 296.379 560.521 293.744 560.798 290.51C561.114 286.823 561.243 284.096 561.314 282.62C562.374 260.845 563.788 252.016 564.233 248.619C564.233 248.619 567.189 222.429 572.648 218.757Z" fill="#D77D4A"/>
    <path d="M529.62 231.746C528.57 231.31 527.463 231.025 526.332 230.901C522.701 230.644 519.888 232.395 517.73 233.771C515.179 235.397 511.781 237.564 511.446 241.017C511.386 241.732 511.45 242.452 511.634 243.145C512.647 246.978 514.428 250.566 516.87 253.694C520.339 258.087 524.044 262.291 527.968 266.287L535.738 274.129L540.027 278.395C540.967 279.374 541.908 280.353 542.848 281.332L552.974 291.836C555.316 293.921 557.658 296.006 560 298.091C556.739 290.034 554.349 283.413 552.832 279.064C549.361 269.108 538.048 235.396 529.62 231.746Z" fill="#C76933"/>
    <path d="M547.352 218.757C546.156 217.976 544.867 217.347 543.515 216.885H543.515C539.295 215.819 534.359 217.774 534.359 217.774C531.712 218.823 527.576 220.461 526.119 224.561C525.724 225.655 525.546 226.816 525.595 227.978C525.619 231.378 526.092 234.76 527.002 238.038C527.853 241.332 528.905 244.572 530.152 247.739L533.371 255.526C534.793 258.44 536.214 261.355 537.635 264.269C540.582 269.184 543.528 274.099 546.474 279.015L555.152 292.085C556.768 294.087 558.384 296.089 560 298.091C559.785 296.379 559.479 293.744 559.202 290.51C558.886 286.823 558.757 284.096 558.685 282.62C557.626 260.845 556.211 252.016 555.767 248.619C555.767 248.619 552.811 222.429 547.352 218.757Z" fill="#D77D4A"/>
    <path d="M574.205 219.797C574.056 218.079 573.64 216.395 572.973 214.804C570.211 209.308 561.726 209.027 560.007 209C560.005 209.825 559.995 209.825 559.993 209C558.275 209.027 549.789 209.308 547.027 214.804C546.36 216.395 545.945 218.079 545.795 219.797C545.317 223.145 545.265 226.541 545.641 229.903C545.831 232.169 546.105 233.866 546.198 234.438C547.803 244.245 550.203 253.221 550.203 253.221C552.006 261.081 553.783 269.016 555.535 277.025C556.901 283.271 558.233 289.482 559.532 295.659L560 298.091L560.439 295.676C561.752 289.489 563.094 283.271 564.465 277.025C566.22 269.027 567.997 261.092 569.797 253.221C569.797 253.221 572.198 244.245 573.802 234.438C573.895 233.866 574.169 232.169 574.359 229.903C574.736 226.541 574.684 223.145 574.205 219.797Z" fill="#EA8D59"/>
</svg>
