<svg viewBox="0 0 156 156" fill="none" xmlns="http://www.w3.org/2000/svg">
<rect x="2" y="2" width="152" height="152" rx="30" fill="white" stroke="#834EA5" stroke-width="4"/>
<path d="M41.5 60.2921C37.6641 56.399 33.8901 54.2578 31.3368 53.0742C28.2203 51.6291 25.8365 50.585 23.0561 51.2928C19.9381 52.0873 18.2251 54.6881 17.1283 56.3549C13.1567 62.3892 14.5395 69.3222 14.8698 70.9773C15.3341 73.3034 16.058 74.8718 17.5042 78.0072C20 83.4173 22.8969 87.3516 24.6556 89.5368C25.4325 90.5016 25.8365 90.9583 30.8665 96.3802C33.0896 98.7769 35.6238 101.505 37.8292 103.879C37.5477 106.128 37.2646 108.378 36.983 110.628C36.1722 109.735 34.9634 108.403 33.5009 106.785C27.4198 100.053 26.4969 98.9237 21.8325 93.7559C15.1646 86.3676 15.3238 86.7774 14.3051 85.3191C12.7793 83.1354 10.0107 79.0969 8.37731 73.1331C7.56649 70.171 6.41955 65.9886 7.34241 60.6666C7.74782 58.3316 8.40384 54.5486 11.4835 51.0124C14.5926 47.4423 18.3843 46.1735 19.8585 45.7638C20.1165 45.6918 22.8571 44.9531 26.0694 45.2013C34.9147 45.8857 41.217 53.5867 42.4421 55.1375C42.1266 56.8542 41.8126 58.5724 41.5 60.2921Z" fill="#9B2F1C"/>
<path opacity="0.5" d="M41.5 60.2921C37.6641 56.399 33.8901 54.2578 31.3368 53.0742C28.2203 51.6291 25.8365 50.585 23.0561 51.2928C19.9381 52.0873 18.2251 54.6881 17.1283 56.3549C13.1567 62.3892 14.5395 69.3222 14.8698 70.9773C15.3341 73.3034 16.058 74.8718 17.5042 78.0072C20 83.4173 22.8969 87.3516 24.6556 89.5368C25.4325 90.5016 25.8365 90.9583 30.8665 96.3802C33.0896 98.7769 35.6238 101.505 37.8292 103.879C37.5477 106.128 37.2646 108.378 36.983 110.628C36.1722 109.735 34.9634 108.403 33.5009 106.785C27.4198 100.053 26.4969 98.9237 21.8325 93.7559C15.1646 86.3676 15.3238 86.7774 14.3051 85.3191C12.7793 83.1354 10.0107 79.0969 8.37731 73.1331C7.56649 70.171 6.41955 65.9886 7.34241 60.6666C7.74782 58.3316 8.40384 54.5486 11.4835 51.0124C14.5926 47.4423 18.3843 46.1735 19.8585 45.7638C20.1165 45.6918 22.8571 44.9531 26.0694 45.2013C34.9147 45.8857 41.217 53.5867 42.4421 55.1375C42.1266 56.8542 41.8126 58.5724 41.5 60.2921Z" fill="#32322F"/>
<path d="M129.287 49.5585C113.614 63.5024 97.9434 77.4462 82.271 91.3901C82.33 97.768 82.3904 104.146 82.4494 110.522C99.4914 91.5531 116.535 72.5839 133.577 53.6146C138.561 53.1447 143.547 52.6748 148.531 52.2063C142.633 45.965 136.733 39.7222 130.835 33.4809C130.319 38.8396 129.803 44.1998 129.287 49.5585Z" fill="#9B2F1C"/>
<path d="M132.767 54.3533L128.638 50.2399C128.545 50.1474 128.545 49.9961 128.638 49.9036L129.1 49.4439C129.192 49.3514 129.344 49.3514 129.437 49.4439L133.566 53.5573C133.659 53.6499 133.659 53.8011 133.566 53.8936L133.105 54.3533C133.012 54.4458 132.86 54.4458 132.767 54.3533Z" fill="#6E2B1C"/>
<path d="M131.24 55.9746L127.017 51.7672C126.924 51.6747 126.924 51.5234 127.017 51.4309L127.478 50.9712C127.571 50.8787 127.723 50.8787 127.816 50.9712L132.039 55.1786C132.132 55.2711 132.132 55.4224 132.039 55.5149L131.578 55.9746C131.485 56.0671 131.333 56.0671 131.24 55.9746Z" fill="#6E2B1C"/>
<path d="M115.51 73.4473L109.469 67.4292C109.376 67.3367 109.376 67.1855 109.469 67.0929L110.42 66.1457C110.513 66.0532 110.664 66.0532 110.757 66.1457L116.799 72.1638C116.892 72.2564 116.892 72.4076 116.799 72.5001L115.848 73.4473C115.755 73.5399 115.603 73.5399 115.51 73.4473Z" fill="#6E2B1C"/>
<path d="M117.169 71.6367L111.229 65.7199C111.136 65.6274 111.136 65.4761 111.229 65.3836L111.621 64.9929C111.714 64.9004 111.866 64.9004 111.959 64.9929L117.898 70.9097C117.991 71.0022 117.991 71.1535 117.898 71.246L117.506 71.6367C117.413 71.7292 117.263 71.7292 117.169 71.6367Z" fill="#6E2B1C"/>
<path d="M146.939 52.1064L130.762 34.8995C130.335 34.4442 130.359 33.7305 130.816 33.3046C131.273 32.8787 131.989 32.9022 132.417 33.3575L148.593 50.5644C149.021 51.0197 148.997 51.7334 148.54 52.1593C148.083 52.5837 147.367 52.5602 146.939 52.1064Z" fill="#6E2B1C"/>
<path d="M95.3163 122.064H35.6651C37.8926 96.8487 40.1187 71.6337 42.3462 46.4173C57.4968 46.4173 72.6458 46.4173 87.7964 46.4173C88.361 51.8538 88.9256 57.2904 89.4902 62.727C98.9636 62.5713 108.435 62.4142 117.909 62.2585C117.063 62.9458 116.215 63.6331 115.369 64.3203C106.868 64.758 98.368 65.1956 89.8676 65.6332C91.6824 84.4438 93.5001 103.254 95.3163 122.064Z" fill="#9B2F1C"/>
<path d="M90.8671 80.539H39.9123C39.3978 80.539 38.982 80.1234 38.982 79.6123V78.4669C38.982 77.9543 39.3992 77.5402 39.9123 77.5402H90.8671C91.3817 77.5402 91.7974 77.9558 91.7974 78.4669V79.6123C91.7974 80.1234 91.3817 80.539 90.8671 80.539Z" fill="#6E2B1C"/>
<path d="M90.531 76.4138H40.3531C39.8386 76.4138 39.4228 75.9982 39.4228 75.4872V75.4696C39.4228 74.957 39.84 74.5429 40.3531 74.5429H90.531C91.0455 74.5429 91.4613 74.9585 91.4613 75.4696V75.4872C91.4613 75.9997 91.0441 76.4138 90.531 76.4138Z" fill="#6E2B1C"/>
<path d="M94.9581 122.813H36.066C35.5515 122.813 35.1358 122.397 35.1358 121.886V120.74C35.1358 120.228 35.553 119.814 36.066 119.814H94.9581C95.4726 119.814 95.8883 120.229 95.8883 120.74V121.886C95.8883 122.397 95.4726 122.813 94.9581 122.813Z" fill="#6E2B1C"/>
<path d="M94.5704 118.687H36.5717C36.0572 118.687 35.6415 118.272 35.6415 117.761V117.743C35.6415 117.231 36.0587 116.816 36.5717 116.816H94.5704C95.0849 116.816 95.5006 117.232 95.5006 117.743V117.761C95.5021 118.273 95.0849 118.687 94.5704 118.687Z" fill="#6E2B1C"/>
<path d="M87.1816 48.5643H42.8578C42.159 48.5643 41.5929 48.0004 41.5929 47.3043C41.5929 46.6082 42.159 46.0443 42.8578 46.0443H87.1831C87.8819 46.0443 88.448 46.6082 88.448 47.3043C88.4465 48.0004 87.8804 48.5643 87.1816 48.5643Z" fill="#6E2B1C"/>
<path d="M90.1463 73.2623H40.4769C39.9624 73.2623 39.5467 72.8467 39.5467 72.3357V71.1902C39.5467 70.6777 39.9639 70.2635 40.4769 70.2635H90.1477C90.6622 70.2635 91.078 70.6791 91.078 71.1902V72.3357C91.0765 72.8482 90.6608 73.2623 90.1463 73.2623Z" fill="#6E2B1C"/>
<g opacity="0.5">
<path opacity="0.5" d="M55.0938 46.4188H42.3285C40.101 71.6337 37.8749 96.8487 35.6474 122.065H68.0094C57.2402 98.9179 52.6186 71.7629 55.0938 46.4188Z" fill="#32322F"/>
<path opacity="0.3" d="M55.5007 77.5388H39.8961C39.3816 77.5388 38.9659 77.9544 38.9659 78.4654V79.6109C38.9659 80.1234 39.3831 80.5375 39.8961 80.5375H55.856C55.7159 79.5404 55.6201 78.5388 55.5007 77.5388Z" fill="#32322F"/>
<path opacity="0.3" d="M55.1439 74.5429H40.3354C39.8224 74.5429 39.4052 74.957 39.4052 75.4696V75.4872C39.4052 75.9997 39.8224 76.4138 40.3354 76.4138H55.3665C55.2972 75.7897 55.2073 75.1685 55.1439 74.5429Z" fill="#32322F"/>
<path opacity="0.3" d="M67.0011 119.812H36.0484C35.5353 119.812 35.1181 120.228 35.1181 120.739V121.886C35.1181 122.398 35.5353 122.813 36.0484 122.813H68.3455C67.8782 121.824 67.4463 120.815 67.0011 119.812Z" fill="#32322F"/>
<path opacity="0.3" d="M65.6919 116.817H36.5555C36.041 116.817 35.6253 117.232 35.6253 117.743V117.761C35.6253 118.273 36.0425 118.687 36.5555 118.687H66.4983C66.2286 118.065 65.9529 117.445 65.6919 116.817Z" fill="#32322F"/>
<path opacity="0.3" d="M55.1321 46.0457H42.8401C42.1413 46.0457 41.5752 46.6097 41.5752 47.3058C41.5752 48.0018 42.1413 48.5658 42.8401 48.5658H54.8727C54.942 47.7199 55.0481 46.8858 55.1321 46.0457Z" fill="#32322F"/>
<path opacity="0.3" d="M54.8063 70.2635H40.4592C39.9447 70.2635 39.529 70.6791 39.529 71.1902V72.3357C39.529 72.8482 39.9462 73.2623 40.4592 73.2623H55.0333C54.9434 72.2622 54.8771 71.2636 54.8063 70.2635Z" fill="#32322F"/>
</g>
</svg>
