<svg viewBox="0 0 156 156" fill="none" xmlns="http://www.w3.org/2000/svg">
<rect x="2" y="2" width="152" height="152" rx="30" fill="white" stroke="#834EA5" stroke-width="4"/>
<path d="M34.7498 105.583C34.7498 93.1529 34.5904 92.5196 34.6701 85.0776C34.6701 76.1314 34.989 70.4312 34.7498 63.4642C34.7498 62.7517 34.7498 62.2767 34.6701 61.3267C34.4309 51.9846 34.7498 50.1637 34.989 49.2137C35.3079 47.7886 35.9457 46.5219 37.1415 43.9885C39.4535 39.0008 42.0844 35.0423 42.8816 33.9339C46.7881 28.7087 56.8333 26.1752 66.161 26.2544C70.4661 26.2544 74.6117 26.8086 78.0399 27.8378C81.468 26.8086 85.6136 26.2544 89.9187 26.2544C99.2464 26.1752 109.292 28.7087 113.198 33.9339C113.995 35.0423 116.626 39.0008 118.938 43.9885C120.134 46.4427 120.692 47.7094 121.091 49.1345C121.33 50.1637 121.649 51.9846 121.41 61.2475C121.41 62.1975 121.41 62.6725 121.33 63.3851C121.091 70.352 121.33 76.1314 121.41 84.9985C121.41 92.4404 121.25 93.0738 121.33 105.503C121.33 107.087 121.33 108.591 121.33 110.174C121.41 116.033 121.808 120.862 121.011 126.8C120.852 128.067 120.612 129.334 119.735 130.679C119.337 131.234 118.938 131.709 118.54 132.105C117.105 133.846 115.191 135.034 113.836 135.113C113.676 135.113 113.198 135.113 112.56 135.113H112.401H111.683C111.046 135.113 110.567 135.113 110.408 135.113H45.5923C45.4328 135.113 44.9545 135.113 44.3167 135.113H43.5992H43.4397C42.8019 135.113 42.3236 135.113 42.1641 135.113C40.8088 135.034 38.8954 133.846 37.4604 132.105C36.9821 131.709 36.5835 131.234 36.2646 130.679C35.3876 129.334 35.1484 128.067 34.989 126.8C34.1917 120.862 34.5904 116.033 34.6701 110.174C34.8295 108.67 34.7498 107.087 34.7498 105.583Z" fill="#C890A7"/>
<path d="M41.6858 36.784H114.553C117.663 36.784 120.214 34.2506 120.214 31.163V25.6211C120.294 22.5334 117.742 20 114.553 20H41.6858C38.5766 20 36.0254 22.5334 36.0254 25.6211V31.163C36.0254 34.2506 38.5766 36.784 41.6858 36.784Z" fill="#8A8C95"/>
<path d="M38.6562 97.5073C38.6562 83.7317 38.4968 83.0192 38.5765 74.7855C38.5765 64.8893 38.8157 58.5557 38.6562 50.7971C38.6562 50.7179 39.6129 49.2928 39.8521 48.6595C40.3305 48.1845 41.1277 47.4719 42.1641 46.8386C45.672 44.7802 49.5784 45.0177 54.2821 45.4135C56.2752 45.5719 56.913 45.8094 61.2978 46.2052C64.1679 46.4427 65.2043 46.5219 66.4002 46.4427C68.1541 46.2844 68.3135 46.0469 71.9011 45.4135C75.0103 44.7802 76.6048 44.4635 78.4385 44.4635C80.591 44.3843 82.2652 44.6218 83.9394 44.9385C86.65 45.3343 87.1284 45.8885 89.9187 46.2844C90.7159 46.3636 92.151 46.6011 93.9846 46.5219C96.4561 46.4427 97.8114 45.9677 99.5653 45.5719C100.442 45.4135 106.023 44.226 111.763 45.8094C111.763 45.8094 114.234 46.5219 115.988 48.1845C116.307 48.5011 117.503 49.6095 117.423 50.8762C117.264 58.4765 117.503 64.8893 117.503 74.7064C117.503 82.94 117.423 83.6526 117.423 97.4281C117.423 99.1699 117.423 100.832 117.423 102.574C117.503 109.066 117.822 114.45 117.184 120.942C117.025 122.287 116.865 123.713 116.068 125.217C115.749 125.85 115.351 126.404 114.952 126.8C113.676 128.779 111.922 130.046 110.727 130.125C110.647 130.125 110.169 130.125 109.611 130.125H109.451H108.813C108.255 130.125 107.857 130.125 107.697 130.125H48.7015C48.542 130.125 48.1434 130.125 47.5853 130.125H46.9475H46.7881C46.23 130.125 45.7517 130.125 45.672 130.125C44.3964 130.046 42.7222 128.779 41.4466 126.8C41.048 126.325 40.6493 125.771 40.3305 125.217C39.5332 123.713 39.3738 122.287 39.2143 120.942C38.4968 114.37 38.8954 109.066 38.9752 102.574C38.736 100.912 38.6562 99.1699 38.6562 97.5073Z" fill="#B44276"/>
<path d="M45.0342 104.87V69.7187C47.9043 69.7187 50.2163 67.8186 50.2163 65.5227H106.023C106.023 67.8186 108.335 69.7187 111.205 69.7187V104.949C108.335 104.949 106.023 106.849 106.023 109.145H50.2163C50.2163 106.77 47.9043 104.87 45.0342 104.87Z" fill="white"/>
<path opacity="0.39" d="M108.494 120.862V64.6518C108.494 62.1975 106.422 60.1391 103.95 60.1391C101.479 60.1391 99.4059 62.1975 99.4059 64.6518V120.942C99.4059 123.396 101.479 125.454 103.95 125.454C106.501 125.375 108.494 123.396 108.494 120.862Z" fill="white"/>
<path opacity="0.39" d="M108.494 51.5888V46.1261C108.494 43.6718 106.422 41.6134 103.95 41.6134C101.479 41.6134 99.4059 43.6718 99.4059 46.1261V51.5888C99.4059 54.043 101.479 56.1015 103.95 56.1015C106.501 56.1015 108.494 54.043 108.494 51.5888Z" fill="white"/>
<path d="M69.6708 96.6667C64.0667 96.6667 59.5237 92.1237 59.5237 86.5196C59.5237 80.9155 64.0667 76.3725 69.6708 76.3725C75.2748 76.3725 79.8178 80.9155 79.8178 86.5196C79.8178 92.1237 75.2748 96.6667 69.6708 96.6667Z" fill="#B32646"/>
<path d="M67.3031 88.7181C67.8105 89.2255 68.487 89.2255 68.9943 88.7181L72.2076 85.674C72.7149 85.1666 72.7149 84.4902 72.2076 83.9828C71.7002 83.4755 71.0237 83.4755 70.5164 83.9828L67.3031 87.0269C66.7958 87.5343 66.7958 88.3799 67.3031 88.7181Z" fill="#6C1626"/>
<path d="M67.4722 83.9829C66.9648 84.4903 66.9648 85.1667 67.4722 85.6741L70.3472 88.8873C70.8545 89.3947 71.531 89.3947 72.0384 88.8873C72.5457 88.38 72.5457 87.7035 72.0384 87.1961L68.9942 83.9829C68.656 83.6447 67.9795 83.6447 67.4722 83.9829Z" fill="#6C1626"/>
<path d="M84.8913 93.2843C78.3532 93.2843 73.0531 87.9842 73.0531 81.4461C73.0531 74.908 78.3532 69.6078 84.8913 69.6078C91.4294 69.6078 96.7296 74.908 96.7296 81.4461C96.7296 87.9842 91.4294 93.2843 84.8913 93.2843Z" fill="#B32646"/>
<path d="M82.1291 84.011C82.721 84.6029 83.5102 84.6029 84.1021 84.011L87.8509 80.4595C88.4428 79.8676 88.4428 79.0784 87.8509 78.4865C87.259 77.8946 86.4698 77.8946 85.8779 78.4865L82.1291 82.0379C81.5372 82.6299 81.5372 83.6164 82.1291 84.011Z" fill="#6C1626"/>
<path d="M82.3263 78.4866C81.7344 79.0785 81.7344 79.8677 82.3263 80.4596L85.6805 84.2084C86.2724 84.8003 87.0616 84.8003 87.6535 84.2084C88.2455 83.6165 88.2455 82.8273 87.6535 82.2354L84.1021 78.4866C83.7074 78.092 82.9182 78.092 82.3263 78.4866Z" fill="#6C1626"/>
<path d="M89.6267 75.9216C89.0348 75.527 88.0483 74.7378 87.259 74.1459C87.0617 73.9486 86.6671 73.7513 86.6671 73.3567C86.6671 73.3567 86.4698 72.5675 86.8644 72.1728C87.259 71.7782 88.0483 71.7782 88.2456 71.7782C88.4429 71.7782 88.8375 71.9755 89.2321 72.1728C89.824 72.5675 90.0213 72.7648 90.2186 72.9621C91.0078 73.554 91.4024 73.9486 91.9943 74.3432C92.7836 75.1324 93.1782 75.7243 93.3755 75.9216C93.7701 76.5135 94.1647 77.1054 94.7566 78.2893C95.1512 78.8812 95.3485 79.4731 95.3485 80.2623C95.3485 80.6569 95.1512 80.8542 95.1512 81.0515C94.7566 81.4461 94.362 81.4461 94.1647 81.4461C93.7701 81.4461 93.3755 81.2488 93.3755 81.2488C92.9809 81.0515 92.9809 80.6569 92.5863 80.065C92.3889 79.4731 92.3889 79.4731 92.1916 78.8812C92.1916 78.6839 91.9943 78.4866 91.5997 77.8947C91.0078 77.1054 90.4159 76.5135 89.6267 75.9216Z" fill="#C8637A"/>
<path d="M79.8178 104.559C74.8364 104.559 70.7982 100.521 70.7982 95.5392C70.7982 90.5578 74.8364 86.5196 79.8178 86.5196C84.7992 86.5196 88.8374 90.5578 88.8374 95.5392C88.8374 100.521 84.7992 104.559 79.8178 104.559Z" fill="#761F36"/>
<path d="M77.5629 97.653C77.9857 98.0758 78.5494 98.0758 78.9722 97.653L81.7908 94.9753C82.2136 94.5525 82.2136 93.9888 81.7908 93.566C81.368 93.1432 80.8043 93.1432 80.3815 93.566L77.5629 96.2437C77.281 96.5256 77.281 97.2302 77.5629 97.653Z" fill="#49131F"/>
<path d="M77.8447 93.4252C77.4219 93.848 77.4219 94.4117 77.8447 94.8345L80.5224 97.6531C80.9452 98.0759 81.5089 98.0759 81.9317 97.6531C82.3545 97.2303 82.3545 96.6666 81.9317 96.2438L79.2541 93.4252C78.8313 93.0024 78.2675 93.0024 77.8447 93.4252Z" fill="#49131F"/>
<path d="M83.4821 91.3112C83.0594 90.8885 82.3547 90.4657 81.65 89.9019C81.5091 89.761 81.2272 89.6201 81.0863 89.3382C81.0863 89.3382 80.9454 88.7745 81.2272 88.4926C81.5091 88.0698 82.0728 88.2108 82.2138 88.2108C82.3547 88.2108 82.6366 88.3517 82.9184 88.6336C83.3412 88.9154 83.6231 89.0563 83.6231 89.1973C84.1868 89.761 84.6096 89.9019 84.8915 90.3247C85.4552 90.8885 85.878 91.3113 85.878 91.4522C86.1598 91.875 86.4417 92.2978 86.8645 93.1433C87.1464 93.7071 87.2873 94.1299 87.2873 94.5527C87.2873 94.8345 87.1464 94.9754 87.1464 95.1164C86.8645 95.3982 86.5826 95.3982 86.4417 95.3982C86.1598 95.3982 85.878 95.2573 85.878 95.2573C85.5961 95.1164 85.4552 94.8345 85.3143 94.4117C85.1733 93.9889 85.1733 93.848 85.0324 93.5661C85.0324 93.4252 84.8915 93.1434 84.4687 92.8615C84.4687 92.2978 84.0459 91.875 83.4821 91.3112Z" fill="#A05062"/>
</svg>
