<svg viewBox="0 0 156 156" fill="none" xmlns="http://www.w3.org/2000/svg">
<rect x="2" y="2" width="152" height="152" rx="30" fill="white" stroke="#834EA5" stroke-width="4"/>
<path d="M118.19 29.4769C115.038 29.7818 114.802 29.1175 108.038 28.7863C105.741 28.6734 104.22 28.6753 102.946 28.6602C95.0503 28.5718 85.8379 27.7796 77.8059 27.3787C63.9573 26.69 53.1769 27.1416 49.4931 27.3242C41.9401 27.6968 35.6631 28.3384 31.2215 28.8766C29.8819 29.2041 28.3889 29.4694 26.7631 29.6067C26.3234 29.6444 25.8931 29.6707 25.4721 29.6877C25.8351 33.7372 26.3327 38.8161 27.0044 44.6703C27.083 45.3515 27.6536 50.4096 28.3664 55.6598C29.7116 65.5672 31.1055 73.4499 32.3534 80.7229C34.1046 90.9127 36.5742 105.75 39.463 124.709C40.883 126.307 42.4415 127.775 44.1197 129.097C48.1291 132.159 52.7391 134.332 57.6447 135.471C58.6176 135.727 60.0994 136.107 61.9946 136.474C72.4962 137.812 83.1231 137.812 93.6247 136.474C95.52 136.098 96.9924 135.721 97.9746 135.471C102.88 134.332 107.49 132.159 111.5 129.097C113.178 127.775 114.736 126.307 116.156 124.709C119.036 105.749 121.505 90.9127 123.266 80.7229C124.514 73.4499 125.908 65.571 127.253 55.6673C127.9 50.897 128.329 47.252 128.615 44.6703C129.369 37.8752 129.852 32.0455 130.172 27.5312C129.186 27.6158 127.734 27.7589 125.984 28.0073C121.118 28.696 120.871 29.2172 118.19 29.4769Z" fill="#339153"/>
<path d="M105.296 132.885L105.374 132.852C102.319 133.017 98.1505 133.158 93.1981 133.062C88.3861 133.062 83.5797 132.741 78.8088 132.103C71.9031 131.113 67.5121 130.484 62.5971 127.748C58.9319 125.592 55.684 122.786 53.0123 119.468C48.5221 114.105 46.2769 108.942 42.086 96.4056C38.1833 84.7386 35.4592 75.2677 33.3095 67.7595C31.4928 61.4161 29.3094 53.7799 27.2439 46.5388C27.7341 50.658 28.1532 53.953 28.3889 55.6861C29.7341 65.5936 31.128 73.4744 32.3759 80.7493C34.1271 90.939 36.5967 105.777 39.4854 124.736C40.9055 126.333 42.464 127.801 44.1422 129.124C48.1516 132.185 52.7616 134.359 57.6672 135.497C58.6401 135.753 60.1219 136.133 62.0171 136.5C72.5187 137.838 83.1456 137.838 93.6472 136.5C95.8287 136.077 97.9971 135.497 97.9971 135.497C100.021 134.937 102.012 134.261 103.962 133.476C104.076 133.429 104.759 133.139 104.944 133.047C104.944 133.047 105.116 132.961 105.286 132.887L105.296 132.885Z" fill="#337048"/>
<path d="M78.1259 18.0076C63.2314 18.1619 52.2471 20.659 46.2395 22.0609C30.2636 25.7905 25.459 29.618 25.4721 29.6858C25.4815 29.7328 25.4927 29.7799 25.4927 29.7799C25.4927 29.7799 25.5077 29.8382 25.5264 29.8947C26.8922 34.0778 42.8363 36.5636 42.8363 36.5636C49.5979 37.6174 52.9786 38.1443 56.6288 38.4548C59.7121 38.7164 67.701 39.1661 78.3934 38.8142C81.5871 38.7088 86.9717 38.1142 97.7389 36.923C97.7389 36.923 104.3 36.1967 115.921 34.1305C115.921 34.1305 128.982 31.8084 130.104 27.8417C130.147 27.6911 130.17 27.5293 130.17 27.5293C130.17 27.5293 130.177 27.4766 130.181 27.4258C130.19 27.3298 127.781 24.1666 107.859 20.8885C97.7127 19.2194 89.6134 17.8871 78.1259 18.0076Z" fill="#337048"/>
<path d="M125.758 45.0222C116.473 49.3427 99.5537 55.7595 77.4972 56.1114C55.2986 56.4652 38.0916 50.5131 28.6677 46.4636C39.6875 50.0276 56.5371 54.0753 77.3195 53.7686C98.1131 53.4637 114.845 48.9136 125.758 45.0222Z" fill="#337048"/>
<path d="M119.558 102.664C119.621 102.314 119.691 101.966 119.749 101.616C119.756 101.575 119.764 101.522 119.773 101.469C119.816 101.225 119.838 100.971 119.87 100.724C119.977 99.9282 120.095 99.1322 120.203 98.3362C120.216 98.244 120.295 97.7548 120.226 98.1801C120.252 98.0163 120.269 97.8508 120.287 97.687C120.334 97.3032 120.373 96.9174 120.409 96.5316C120.435 96.2512 120.508 95.9934 120.615 95.7601C120.619 95.1843 120.624 94.6085 120.624 94.0327C115.03 100.463 107.342 107.068 97.7557 111.127C97.4227 110.583 97.0672 110.233 96.7174 110.246C96.5546 110.28 96.3956 110.331 96.2422 110.395C95.6135 110.611 94.9961 110.867 94.3974 111.159C90.7416 112.709 86.88 113.714 82.9342 114.141C79.0408 114.615 75.0987 114.457 71.2558 113.674C68.9695 113.089 66.715 112.384 64.5017 111.561C63.5681 111.228 62.8347 110.914 62.8347 110.914C62.0003 110.555 61.9404 110.475 61.7664 110.436C61.4091 110.353 61.0012 110.536 60.584 110.889C53.7158 108.029 45.6633 103.225 38.1328 95.1429C38.3853 98.3494 38.6454 101.754 38.9129 105.336C43.957 109.962 50.103 114.343 57.3304 117.412C57.3061 117.797 57.3473 118.108 57.4932 118.275C57.7102 118.464 57.9441 118.633 58.1911 118.782C58.1911 118.782 58.7374 119.149 59.2519 119.429C64.9358 122.304 71.1641 123.93 77.5216 124.197C84.4777 124.066 91.3272 122.438 97.6061 119.423C97.621 119.416 98.0925 119.188 98.7361 118.842C98.9681 118.719 99.086 118.659 99.1066 118.644C99.2824 118.52 99.3722 118.183 99.4022 117.73C107.213 114.638 113.816 110.06 119.217 105.137C119.247 104.907 119.286 104.678 119.324 104.45C119.369 103.848 119.449 103.251 119.558 102.664Z" fill="#337048"/>
<path d="M137.259 47.9652C136.594 43.8592 136.174 41.4581 134.245 39.1736C133.335 38.1086 132.241 37.2166 131.015 36.5429C130.179 36.176 129.317 35.8693 128.437 35.6246C127.547 35.3066 126.613 35.1297 125.668 35.0977C124.718 35.0432 123.775 35.2953 122.978 35.8184C122.061 36.4884 121.485 37.5309 121.397 38.6674C121.358 39.6121 121.676 40.5341 122.287 41.2511C123.122 42.1656 124.057 42.0922 126.099 42.6587C127.545 42.9127 128.924 43.4603 130.153 44.2657C131.328 45.2197 131.84 46.6254 132.613 50.8104C134.063 57.5829 133.661 64.6245 131.446 71.1824C127.432 82.1136 110.981 108.308 82.2718 110.237C82.2718 110.237 51.5829 112.297 29.6555 80.3353C26.9557 76.139 24.8435 71.587 23.3804 66.8111C23.3617 66.7358 23.3355 66.6285 23.2981 66.478C22.5965 62.3513 22.4187 58.1531 22.7667 53.9831C22.8902 52.4664 23.1091 50.4604 23.4964 48.1064C23.5301 47.5381 23.7265 46.9905 24.0614 46.5332C24.4356 46.123 24.922 45.8294 25.459 45.6902C26.9408 45.1765 27.5058 45.3251 28.8697 44.881C29.504 44.7324 30.1008 44.4557 30.6265 44.07C31.938 43.0105 32.4095 41.2172 31.7921 39.6441C31.1223 38.6618 30.0484 38.037 28.8678 37.9392C26.6171 37.704 24.3682 38.404 22.6432 39.8774C21.444 40.7204 20.4393 41.8119 19.6909 43.0764C18.6488 45.0391 17.9827 47.1824 17.7283 49.3935C17.4196 51.072 17.2157 52.7675 17.1165 54.4705C16.9687 56.5931 16.9612 58.7214 17.0959 60.844C17.9322 69.216 20.5702 77.3038 24.8266 84.5467C29.7547 91.9797 50.3743 118.874 82.356 116.877C117.911 114.659 135.71 81.3138 137.837 72.1383C138.701 68.1678 139.128 64.1126 139.111 60.0461C139.087 59.2727 138.482 55.5054 137.259 47.9652Z" fill="#ECAE44"/>
<path d="M102.42 112.912C102.435 112.905 102.884 112.638 103.5 112.241C103.722 112.099 103.833 112.03 103.853 112.013C104.83 111.192 102.437 103.645 100.789 103.84C100.629 103.889 100.474 103.951 100.326 104.027C99.7165 104.296 99.1234 104.601 98.549 104.939C95.0316 106.787 91.2655 108.106 87.3683 108.859C83.5273 109.653 79.5852 109.823 75.6899 109.36C73.3625 108.966 71.0593 108.449 68.7862 107.813C67.8282 107.559 67.0724 107.305 67.0724 107.305C66.2117 107.015 66.1444 106.942 65.9685 106.917C64.0134 106.635 61.2762 114.036 62.3501 115.084C62.5821 115.255 62.8291 115.404 63.0873 115.53C63.0873 115.53 63.6617 115.85 64.1967 116.089C70.0958 118.484 76.4364 119.591 82.7939 119.331C89.7163 118.625 96.4087 116.437 102.42 112.912Z" fill="#D37F39"/>
</svg>
