<svg viewBox="0 0 137 137" fill="none" xmlns="http://www.w3.org/2000/svg">
    <rect x="2.38098" y="2.02002" width="132.618" height="132.618" rx="30" fill="white" stroke="#116619" stroke-width="4"/>
    <path d="M102.848 68.6704C104.698 64.277 107.879 61.9271 110.785 59.8372C116.966 55.3923 123.494 53.8649 127.982 53.3208C128.031 54.2007 128.008 55.554 127.541 57.0858C126.825 59.436 125.6 60.4409 124.161 62.5885C122.223 65.4794 122.754 66.1779 121.074 69.2497C120.595 70.1253 118.581 73.8079 115.195 76.3453C110.34 79.9827 104.509 79.886 101.966 79.6759C101.531 77.6979 100.877 73.3496 102.848 68.6704H102.848Z" fill="#CD5E0D"/>
    <path d="M100.082 80.4068C99.7503 83.0957 101.127 85.1629 102.415 87.097C104.349 90.0019 106.72 91.5813 107.566 92.1068C112.424 95.1274 117.493 94.7975 119.31 94.591C119.288 92.5792 118.962 89.8988 117.693 87.061C113.841 78.4408 104.603 75.7695 102.995 75.3315C102.256 75.9646 100.413 77.7224 100.082 80.4068Z" fill="#CD5E0D"/>
    <path d="M104.354 64.1186C105.038 68.4076 107.381 83.0869 97.6436 95.2196C89.0931 105.874 76.643 107.817 69.7553 108.892C68.68 109.06 50.0507 111.701 32.7877 101.361C25.4435 96.9617 22.161 92.4978 21.3483 91.3522C17.0424 85.2832 16.0633 79.3395 15.575 76.1502C15.0993 73.0439 12.5857 56.6289 24.0095 42.801C34.2549 30.3994 48.6962 28.5696 54.5502 27.8279C59.4825 27.2029 70.1528 25.8509 81.4024 31.4764C100.299 40.9258 103.956 61.6248 104.354 64.1186Z" fill="#DF791A"/>
    <path d="M51.9277 83.9329C37.0442 79.1778 24.1533 82.6684 17.9059 85.0536C18.723 87.0607 19.8182 89.1955 21.3484 91.3522C22.1612 92.4978 25.4437 96.9618 32.7879 101.361C50.0508 111.701 68.6802 109.06 69.7555 108.892C72.5179 108.461 76.1801 107.879 80.1216 106.662C76.7066 100.872 68.1265 89.1081 51.9277 83.9329V83.9329Z" fill="#ECAB70"/>
    <path d="M60.3747 78.8041C54.2268 79.3977 47.3328 81.3263 38.7377 78.163C32.7245 75.9499 30.2769 72.8632 20.5172 67.585C18.638 66.5687 16.8575 65.6746 15.1883 64.877C14.7033 70.4244 15.3427 74.7153 15.5624 76.1502C16.0508 79.3396 17.0299 85.2832 21.3357 91.3522C22.1485 92.4978 25.431 96.9618 32.7752 101.361C50.0382 111.701 68.6675 109.06 69.7428 108.892C76.6304 107.817 89.0805 105.874 97.631 95.2196C98.8693 93.6766 99.9082 92.0922 100.784 90.4935C83.0491 79.5424 69.7154 77.9023 60.3747 78.8041L60.3747 78.8041Z" fill="#ECAB70"/>
    <path d="M11.7029 69.9031C12.1357 69.9695 12.5713 69.9026 13.2547 69.6092C13.9534 69.3092 15.1391 68.8001 16.0983 67.5592C17.6182 65.5928 17.3631 63.3297 17.2862 62.6438C17.252 62.3387 16.9986 60.3156 15.5139 58.7166C14.8878 58.0423 14.4285 57.8589 14.0551 57.7987C13.3681 57.6879 12.6098 57.9339 12.1307 58.4541C11.5678 59.065 11.5705 59.8371 11.5718 60.2417C11.5794 62.4637 13.6407 64.0766 14.1026 64.4227C13.6803 64.5909 13.0558 64.8663 12.3445 65.2887C11.247 65.9406 10.5675 66.3566 10.2255 67.1637C10.1266 67.3972 9.79711 68.1748 10.1824 68.9168C10.5917 69.7047 11.506 69.8728 11.7029 69.9031H11.7029Z" fill="#CD5E0D"/>
    <path d="M36.9363 56.5916C36.9144 57.18 36.8352 59.3034 35.0947 60.9131C33.5076 62.3808 31.5891 62.4506 30.9761 62.4636C30.3993 62.4757 27.9985 62.5264 26.3552 60.7152C25.0107 59.2332 25.0142 57.4317 25.0159 56.5916C25.0175 55.741 25.0214 53.7752 26.5227 52.2702C28.0698 50.7192 30.148 50.7196 30.9761 50.7197C31.8093 50.7199 34.0684 50.7203 35.6304 52.4351C37.0339 53.9758 36.9622 55.8985 36.9363 56.5916L36.9363 56.5916Z" fill="white"/>
    <path d="M34.1846 58.5779C33.9773 58.8886 33.2291 60.0096 31.7545 60.3175C30.41 60.5983 29.3509 60.0173 29.0156 59.8267C28.7001 59.6472 27.387 58.9005 27.1014 57.3927C26.8678 56.159 27.4682 55.1874 27.7481 54.7343C28.0316 54.2755 28.6867 53.2153 29.9974 52.8868C31.348 52.5482 32.47 53.2185 32.9171 53.4856C33.3669 53.7543 34.5865 54.4829 34.8603 55.9126C35.1062 57.197 34.4288 58.212 34.1846 58.5779V58.5779Z" fill="#2E3C42"/>
    <path d="M29.5569 56.3855C29.4064 56.4166 28.8631 56.5289 28.347 56.2004C27.8764 55.901 27.7396 55.4331 27.6983 55.2831C27.6594 55.1419 27.4976 54.5543 27.8549 54.0375C28.1472 53.6147 28.6042 53.5038 28.8173 53.452C29.0331 53.3997 29.5318 53.2787 30.0065 53.5547C30.4957 53.8393 30.6246 54.3507 30.6759 54.5545C30.7276 54.7595 30.8676 55.3155 30.5298 55.8063C30.2262 56.2472 29.7343 56.3489 29.5569 56.3855V56.3855Z" fill="white"/>
    <path d="M66.3777 58.7112C63.2913 58.832 56.8333 59.3064 51.7501 61.6063C50.4138 62.2109 49.5279 62.781 48.8085 63.3413C46.0508 65.4894 44.787 68.2386 44.2068 69.853L44.2433 69.9052C44.4902 70.7817 44.9074 71.9631 45.6449 73.2542C47.094 75.7916 48.9142 77.2386 49.701 77.8516C53.1705 80.5548 56.928 81.2145 58.7326 81.4096C58.9924 79.8007 59.1025 77.6174 58.4824 75.1822C58.2019 74.0806 57.7982 73.0789 57.3266 72.1519C57.7628 71.633 58.2038 71.0777 58.6624 70.4994C60.428 68.2729 60.1006 67.6441 62.0466 65.5963C63.4923 64.0751 64.6088 63.4372 65.5054 61.6574C66.0899 60.4972 66.2946 59.42 66.3777 58.7112Z" fill="#CD5E0D"/>
    <path d="M60.4481 28.9597L67.9126 30.0917C68.7715 26.7178 68.8454 23.711 67.6708 23.1146C66.3563 22.4473 63.3472 24.7321 60.4481 28.9597Z" fill="#CD5E0D"/>
    <path d="M86.0913 37.0263L89.6161 40.0715C91.5311 37.7771 92.3965 35.5901 91.7852 34.9428C91.1555 34.2759 88.7415 35.0134 86.0913 37.0263Z" fill="#CD5E0D"/>
    <path d="M74.4866 35.5839L78.0656 37.24C79.0465 35.1217 79.1934 33.2583 78.5537 32.8592C77.8879 32.4439 76.1049 33.4491 74.4866 35.5839L74.4866 35.5839Z" fill="#CD5E0D"/>
    <path d="M37.666 35.0497L43.143 33.2333C41.8643 29.9141 39.8456 27.917 38.7506 28.2114C37.6345 28.5114 36.8958 31.3481 37.666 35.0497H37.666Z" fill="#CD5E0D"/>
    <path d="M95.6084 51.3974L98.0487 56.1255C98.3344 55.9724 104.664 52.5472 104.149 51.157C103.794 50.1988 100.25 50.3767 95.6084 51.3974H95.6084Z" fill="#CD5E0D"/>
    <path d="M90.4027 98.0103L86.8779 101.269C89.1706 103.495 91.4074 104.657 92.138 104.101C92.8886 103.529 92.2762 100.972 90.4027 98.0103Z" fill="#DF791A"/>
    <path d="M60.4961 106.157L65.8647 105.997C64.725 110.222 63.26 113.128 62.2314 112.996C61.2433 112.869 60.6147 109.933 60.4961 106.157Z" fill="#DF791A"/>
    <path d="M33.5448 97.2356L37.5577 100.334C34.4978 103.29 31.7607 104.997 30.9961 104.394C30.2333 103.793 31.3168 100.8 33.5448 97.2356V97.2356Z" fill="#DF791A"/>
    <path d="M22.3736 86.4973L24.9765 90.2904C22.2874 91.9721 19.911 92.7601 19.3369 92.1069C18.7441 91.4324 19.9568 89.0902 22.3736 86.4973Z" fill="#DF791A"/>
    <path d="M48.132 98.5712L52.9583 99.2657C51.6997 102.641 50.0333 104.783 49.1081 104.555C48.208 104.333 47.7814 101.811 48.132 98.5712H48.132Z" fill="#DF791A"/>
    <path d="M72.9685 101.296L77.3067 99.7999C78.1538 102.267 77.7719 104.36 76.9271 104.715C76.0606 105.079 74.1654 103.843 72.9685 101.296Z" fill="#DF791A"/>
    <path d="M33.5988 85.6959L37.1236 88.5808C34.934 90.8167 32.7287 91.8506 32.0262 91.3055C31.3185 90.7563 31.8298 88.3667 33.5988 85.6959Z" fill="#DF791A"/>
    <path d="M46.1525 84.574L50.2739 86.4973C48.5008 89.2325 46.5139 90.7446 45.7187 90.3438C44.9302 89.9464 45.0104 87.5153 46.1525 84.574L46.1525 84.574Z" fill="#DF791A"/>
    <path d="M61.0924 93.2821L66.1898 93.015C65.9426 96.3925 64.6586 98.6795 63.6411 98.678C62.641 98.6766 61.4085 96.4635 61.0924 93.2821L61.0924 93.2821Z" fill="#DF791A"/>
    <path d="M78.4998 89.6493L82.2415 87.0315C83.7539 89.1733 84.1134 91.2591 83.4345 91.8397C82.7317 92.4407 80.5372 91.7529 78.4998 89.6493H78.4998Z" fill="#DF791A"/>
    <path d="M98.9978 89.863L97.1541 93.6027C99.9216 94.8452 102.252 95.3768 102.685 94.7247C103.133 94.0511 101.605 92.0434 98.9978 89.863H98.9978Z" fill="#DF791A"/>
    <path d="M80.1262 48.8331L82.0242 51.718C84.2826 50.1232 85.7971 48.6064 85.4948 48.0317C85.1857 47.4439 82.9603 47.8114 80.1262 48.8331H80.1262Z" fill="#CD5E0D"/>
    <path d="M50.3554 36.6523L55.3443 35.5839C54.2028 32.2591 52.4172 30.2184 51.4399 30.4551C50.4704 30.69 49.8589 33.2727 50.3554 36.6523Z" fill="#CD5E0D"/>
    <path d="M36.7441 44.9866L40.1062 42.4756C38.0245 40.035 36.0652 38.482 35.3884 38.8962C34.6964 39.3198 35.2742 41.8442 36.7441 44.9866Z" fill="#CD5E0D"/>
    <path d="M60.8756 41.1934L65.8646 41.9413C66.1539 38.5956 65.4218 36.0848 64.4547 35.9043C63.4772 35.722 61.8296 37.8392 60.8756 41.1934H60.8756Z" fill="#CD5E0D"/>
    <path d="M47.427 49.581L52.2533 47.1769C50.5741 44.1645 48.556 42.3189 47.5897 42.6893C46.5955 43.0704 46.3645 45.9316 47.427 49.581Z" fill="#CD5E0D"/>
    <path d="M67.4911 47.6043L72.1004 49.581C73.4831 45.9802 74.0147 43.0344 73.185 42.5824C72.3364 42.1201 69.993 44.2277 67.4911 47.6043Z" fill="#CD5E0D"/>
    <path d="M84.1394 58.77L87.3117 63.2576C90.4504 60.6904 92.2049 58.1321 91.6228 57.2474C91.0358 56.3551 87.8965 56.8994 84.1394 58.77Z" fill="#CD5E0D"/>
    <path d="M92.3142 70.6302L91.8262 74.8775C95.3296 74.8708 97.9116 74.2516 98.0081 73.435C98.1047 72.6178 95.7325 71.4293 92.3142 70.6302Z" fill="#CD5E0D"/>
</svg>
