<svg viewBox="0 0 1041 673" fill="none" xmlns="http://www.w3.org/2000/svg">
    <path d="M930.275 31.5285H109.538C60.3791 31.5285 20.5282 71.3795 20.5282 120.538V559.113C20.5282 608.271 60.3791 648.122 109.538 648.122H930.275C979.434 648.122 1019.29 608.271 1019.29 559.113V120.538C1019.29 71.3795 979.434 31.5285 930.275 31.5285Z" fill="#B6CEE1" stroke="#116619" stroke-width="6"/>
    <path d="M10.3469 40.3962C14.0803 43.5191 30.3873 57.8544 33.3678 82.5644C35.0452 97.2366 31.7442 112.047 23.9945 124.618C23.9917 129.075 23.989 133.532 23.9862 137.989C25.0232 137.01 49.8969 112.69 42.0007 79.7975C35.744 53.7353 13.6633 42.0771 10.3469 40.3962Z" fill="#48964E"/>
    <path d="M17.0569 128.701C8.9823 135.637 6.59974 141.986 5.91973 146.508C3.13445 165.034 25.505 175.593 28.6391 200.181C30.0691 211.399 26.9366 221.161 23.9805 227.767L23.9875 239.712C41.4527 218.375 42.4272 204.688 40.0084 196.092C35.2337 179.124 13.756 169.631 15.3641 150.788C15.5785 148.344 16.1464 145.945 17.05 143.665C17.0523 138.677 17.0547 133.689 17.0569 128.701Z" fill="#48964E"/>
    <path d="M17.0604 232.674C5.48571 244.641 4.28572 252.946 5.18191 258.219C6.62856 266.731 13.6659 268.101 22.5952 285.077C28.1058 295.553 28.5785 301.026 28.6456 303.671C28.7256 309.923 27.1173 316.082 23.9902 321.497L23.991 330.539C41.6305 318.739 42.9887 308.886 42.9599 304.851C42.9091 297.746 38.4361 291.725 29.6048 279.838C21.4098 268.807 15.4084 264.258 14.9216 255.415C14.7655 251.724 15.4991 248.049 17.0604 244.7V232.674Z" fill="#48964E"/>
    <path d="M17.0604 325.22V335.103C13.8048 340.271 12.0902 346.261 12.1177 352.369C12.5845 369.455 28.9968 376.064 34.1056 392.065C36.8704 400.725 36.9913 414.222 23.998 434.822C23.9945 430.933 23.991 427.045 23.9876 423.156C26.0384 415.924 26.4201 408.32 25.1039 400.919C20.7622 377.867 0.685835 370.851 0.0169104 353.992C-0.233507 347.682 2.15076 337.868 17.0604 325.22Z" fill="#48964E"/>
    <path d="M17.05 427.831C4.9767 444.271 4.77019 454.633 6.80512 461.054C10.6863 473.3 24.3095 476.221 27.465 490.052C29.351 498.318 26.4773 506.012 23.9944 510.935C23.9956 514.078 23.9968 517.22 23.9979 520.363C37.3567 504.069 38.2159 493.78 36.1716 487.248C32.6197 475.899 19.2638 472.709 15.9545 458.324C14.7897 452.761 15.1722 446.984 17.0604 441.623L17.05 427.831Z" fill="#48964E"/>
    <path d="M17.0612 515.065C8.99151 525.759 9.0124 531.824 10.4206 535.356C13.1376 542.17 22.1154 542.287 25.5465 550.039C28.053 555.702 26.0884 562.023 24.2826 566.146C24.3981 567.501 24.5498 568.909 24.7375 570.368C24.9274 571.825 25.1416 573.223 25.3799 574.563C36.23 556.687 35.4077 548.633 32.7037 544.579C28.6327 538.476 17.7069 537.555 16.3971 530.191C16.1254 528.432 16.3546 526.631 17.0587 524.996L17.0612 515.065Z" fill="#48964E"/>
    <path d="M18.0222 572.507C13.0892 583.935 14.5023 589.32 16.4895 592.115C20.584 597.873 29.2555 595.641 37.1308 602.851C40.4592 606 42.9026 609.968 44.2168 614.358C44.942 615.213 45.7119 616.085 46.5267 616.972C47.3524 617.869 48.1675 618.718 48.972 619.52C49.211 604.959 45.11 599.01 41.3366 596.265C34.4535 591.258 24.7423 594.061 20.6399 587.632C19.2122 585.118 18.7262 582.177 19.2688 579.337C19.0586 578.382 18.8583 577.4 18.6681 576.389C18.4184 575.057 18.2031 573.763 18.0222 572.507Z" fill="#48964E"/>
    <path d="M42.0031 622.283C46.7911 638.508 53.2136 643.192 57.9382 644.631C66.9854 647.388 73.8136 639.441 88.7123 639.365C96.1929 639.413 103.556 641.227 110.203 644.66L119.037 644.657C102.87 630.479 91.01 628.438 82.73 629.801C72.3763 631.505 63.8322 639.154 54.9499 635.224C51.4655 633.513 48.6522 630.688 46.9564 627.196C46.2082 626.514 45.4495 625.795 44.6803 625.04C43.7328 624.108 42.8404 623.189 42.0031 622.283Z" fill="#48964E"/>
    <path d="M115.106 651.591C127.369 659.207 134.715 658.829 139.176 657.027C145.937 654.296 147.67 647.647 156.146 644.779C160.852 643.316 165.884 643.273 170.614 644.655H177.173C165.138 636.785 157.597 636.827 152.826 638.581C144.69 641.572 140.989 650.87 130.321 652.01C128.053 652.244 125.761 652.1 123.54 651.584L115.106 651.591Z" fill="#48964E"/>
    <path d="M176.174 651.59C191.651 661.554 201.029 661.231 206.763 659.02C215.799 655.534 218.489 646.308 229.636 643.525C235.059 642.31 240.718 642.705 245.919 644.66L253.388 644.657C239.944 633.895 230.994 633.305 225.357 634.671C213.782 637.475 209.318 650.187 194.515 652.342C190.476 652.902 186.366 652.647 182.428 651.591L176.174 651.59Z" fill="#48964E"/>
    <path d="M249.258 651.582C265.838 664.48 276.984 665.311 284.237 663.447C296.849 660.205 300.696 648.04 316.407 643.82C324.23 641.89 332.436 642.182 340.102 644.66L351.961 644.655C333.752 633.539 321.409 633.567 313.345 635.888C299.746 639.802 293.8 651.537 277.043 653.596C270.737 654.311 264.351 653.625 258.341 651.587L249.258 651.582Z" fill="#48964E"/>
    <path d="M345.465 651.591C365.599 662.904 377.705 661.874 385.027 658.872C394.833 654.852 399.56 645.86 412.771 643.525C418.459 642.583 424.289 642.969 429.804 644.655L443.017 644.658C425.156 629.441 413.953 628.334 406.868 630.539C395.057 634.214 392.044 647.915 376.764 652.231C370.046 653.964 362.974 653.737 356.381 651.577L345.465 651.591Z" fill="#48964E"/>
    <path d="M436.307 651.584C442.658 655.453 452.538 660.082 464.273 659.315C481.079 658.216 487.83 646.955 505.592 642.197C514.149 639.904 527.156 638.613 545.113 644.65L557.538 644.652C526.411 625.02 509.136 625.608 498.952 630.686C488.018 636.138 480.788 648.994 462.926 651.881C457.708 652.701 452.387 652.6 447.203 651.584H436.307Z" fill="#48964E"/>
    <path d="M562.702 651.585C568.452 653.494 574.507 654.314 580.558 654.002C600.049 652.891 608.674 639.807 623.353 634.67C633.854 630.996 650.008 630.496 674.713 644.655L660.42 644.66C650.354 641.913 639.791 641.525 629.551 643.525C608.509 647.856 601.319 660.833 583.509 662.118C576.428 662.63 565.421 661.455 551.171 651.587L562.702 651.585Z" fill="#48964E"/>
    <path d="M678.232 651.584C690.721 656.031 703.969 657.957 717.208 657.249C748.6 655.366 762.648 638.53 787.599 631.572C805.047 626.705 831.514 625.641 869.511 644.67L852.521 644.66C835.629 641.292 818.247 641.207 801.323 644.41C765.319 651.434 753.078 670.21 724.734 672.301C710.686 673.337 690.342 670.448 664.51 651.591L678.232 651.584Z" fill="#48964E"/>
    <path d="M863.063 651.567C886.607 667.621 902.874 668.248 913.514 665.66C932.602 661.019 935.367 645.599 956.862 642.787C972.959 640.681 980.122 648.188 995.268 643.23C1005.77 639.793 1012.88 632.731 1017.11 627.587C1009.96 632.466 1001.87 635.785 993.35 637.327C976.852 640.181 972.486 633.405 958.485 634.671C935.888 636.714 931.904 655.755 909.678 658.725C898.771 660.182 888.074 657.154 877.949 651.549L863.063 651.567Z" fill="#48964E"/>
    <path d="M999.208 69.8698C997.078 77.8959 996.929 86.3192 998.772 94.4161C1003.46 113.868 1018.27 119.09 1024.6 136.621C1027.5 144.66 1029.28 157.114 1022.75 175.443L1022.76 186.227C1042.99 157.86 1042.88 141.801 1038.91 132.342C1033.64 119.792 1018.97 112.695 1008.05 87.2683C1006.39 83.4222 1005.27 80.1954 1004.61 78.1808C1004.06 77.2256 1003.48 76.2551 1002.86 75.2693C1001.65 73.3353 1000.43 71.5367 999.208 69.8698Z" fill="#48964E"/>
    <path d="M1015.82 180.961C1011.89 187.507 1007.1 197.909 1008.95 209.578C1011.34 224.602 1022.78 229.453 1027.25 244.773C1029.47 252.361 1030.52 264.371 1022.75 281.839V294.295C1042.18 265.974 1041.87 250.456 1037.66 241.453C1032.33 230.076 1018.31 223.862 1015.52 206.479C1014.82 201.997 1014.92 197.427 1015.82 192.98V180.961Z" fill="#48964E"/>
    <path d="M1015.82 288.046C1006.9 300.577 1006.59 308.452 1008.44 313.504C1011.7 322.443 1022.43 324.583 1024.6 334.976C1025.36 339.343 1024.71 343.839 1022.75 347.816L1022.76 356.235C1032.27 345.732 1033.16 338.662 1032.12 334.09C1029.58 322.9 1013.72 319.142 1013.31 307.528C1013.28 304.468 1014.15 301.468 1015.81 298.9L1015.82 288.046Z" fill="#48964E"/>
    <path d="M1015.82 351.992C1005.73 364.487 1004.91 372.978 1006.3 378.586C1009.03 389.572 1021.11 392.861 1024.01 406.33C1025.05 411.659 1024.61 417.171 1022.75 422.272V434.384C1035.55 419.748 1036.56 410.288 1034.93 404.264C1031.75 392.556 1017.13 388.512 1014.86 373.569C1014.29 369.557 1014.62 365.469 1015.82 361.6L1015.82 351.992Z" fill="#48964E"/>
    <path d="M1015.82 426.515C1004.79 443.25 1004.97 453.074 1007.55 459.062C1011.73 468.749 1023.75 471.98 1025.04 483.19C1025.39 487.06 1024.59 490.946 1022.75 494.368L1022.75 503.383C1032.03 494.91 1033.54 488.412 1033.23 484.075C1032.34 471.543 1015.58 466.621 1013.75 451.093C1013.29 446.598 1014.01 442.06 1015.82 437.921L1015.82 426.515Z" fill="#48964E"/>
    <path d="M1015.82 499.014C1007.02 507.596 1005.4 514.24 1005.86 518.975C1006.87 529.57 1018.51 532.74 1023.27 545.391C1026.88 554.982 1024.61 564.882 1021.83 572.165C1021.6 573.851 1021.3 575.628 1020.93 577.483C1020.57 579.278 1020.17 580.978 1019.75 582.576C1036.03 561.403 1036.46 549.678 1033.45 542.808C1028.98 532.623 1014.59 527.777 1014.27 515.286C1014.22 512.647 1014.75 510.03 1015.82 507.617L1015.82 499.014Z" fill="#48964E"/>
    <path d="M1014.2 575.757C1009.84 580.03 1006.56 585.276 1004.62 591.064C1001.29 601.346 1004.9 606.523 1000.52 615.745C999.569 617.76 996.178 624.913 989.124 628.141C977.107 633.64 963.034 623.823 962.617 624.765C962.192 625.726 975.865 638.171 990.342 634.283C997.405 632.386 1005.59 626.476 1007.66 618.456C1009.61 610.929 1007.55 596.224 1009.29 592.035C1009.35 591.892 1009.8 590.836 1010.36 589.358C1010.98 587.685 1011.45 586.25 1011.78 585.179C1012.3 583.51 1012.81 581.738 1013.27 579.868C1013.63 578.455 1013.94 577.085 1014.2 575.757Z" fill="#48964E"/>
    <path d="M1001.47 61.5114C1001.37 56.6351 1000.25 51.8343 998.181 47.4151C991.658 33.5863 977.938 28.8425 974.865 27.862C988.36 26.1976 1001.09 32.6254 1006.59 43.5783C1012.43 55.2029 1007.59 66.8654 1006.81 68.643C1005.94 67.3385 1004.98 65.9914 1003.94 64.6156C1003.11 63.5224 1002.29 62.4876 1001.47 61.5114Z" fill="#48964E"/>
    <path d="M43.1074 75.3058C44.178 75.238 38.4338 54.3328 49.1947 41.4385C57.8654 31.0486 73.9217 29.8508 87.2125 30.7765C89.4119 30.2335 91.3744 29.8336 93.0296 29.5356C94.0802 29.3464 95.6591 29.081 97.592 28.8308C98.9585 28.6539 100.173 28.5272 101.193 28.4349C76.8268 18.8415 53.2042 23.3875 43.6608 37.2327C33.201 52.4075 41.9815 75.3771 43.1074 75.3058Z" fill="#48964E"/>
    <path d="M93.9102 36.4151C102.92 41.8452 116.869 48.1997 132.092 45.3121C149.99 41.9171 155.559 28.4282 174.15 22.9922C183.451 20.2726 198.036 18.9772 219.103 28.0634H236.353C199.711 5.44145 178.684 6.07504 165.96 12.2196C151.449 19.2267 139.936 37.1661 118.258 37.0114C114.152 36.9709 110.076 36.3133 106.166 35.0607C103.849 35.1485 101.363 35.337 98.7344 35.6676C97.0497 35.8795 95.4402 36.133 93.9102 36.4151Z" fill="#48964E"/>
    <path d="M228.079 34.994C228.944 35.3655 230.199 35.8987 231.72 36.5247C233.329 37.2753 234.978 37.935 236.661 38.5009C240.168 39.6001 245.142 41.035 251.186 42.359C257.024 43.638 276.468 46.4508 289.033 46.3082C320.503 45.951 334.661 25.56 366.507 19.7456C380.473 17.1958 400.921 16.8869 427.844 28.053C437.861 28.0582 447.878 28.0634 457.896 28.0685C399.445 -5.47043 365.669 -2.9533 345.479 6.02161C327.021 14.2264 308.788 32.7752 274.516 36.1947C264.406 37.1846 254.208 36.7811 244.207 34.9957L228.079 34.994Z" fill="#48964E"/>
    <path d="M437.286 34.9914C465.596 51.2299 483.707 50.326 495.115 46.3082C510.947 40.7325 518.143 27.6528 538.058 24.6155C547.925 23.263 557.975 24.4497 567.256 28.0634H586.506C555.693 5.68429 537.191 4.95595 525.662 9.56331C510.09 15.7864 504.033 33.0253 483.162 37.0114C474.91 38.4536 466.427 37.7578 458.521 34.9905C451.443 34.9908 444.364 34.9911 437.286 34.9914Z" fill="#48964E"/>
    <path d="M571.485 34.9957C596.982 49.3601 614.019 48.7852 625.05 45.3121C642.733 39.7448 651.283 24.7466 672.199 23.5087C680.314 23.1283 688.403 24.6898 695.793 28.0634H718.178C696.641 9.28632 680.986 6.98964 670.428 8.67782C649.18 12.0756 638.772 33.1835 609.666 35.9045C603.46 36.4718 597.205 36.1641 591.084 34.9904C584.551 34.9922 578.018 34.994 571.485 34.9957Z" fill="#48964E"/>
    <path d="M703.477 34.994C726.783 49.3467 740.366 48.8083 748.64 44.9801C759.428 39.9895 761.813 29.122 774.613 24.9106C784.974 21.5015 795.456 24.6605 802.943 28.0599C808.95 28.0605 814.957 28.0611 820.964 28.0617C789.526 7.85254 773.908 8.26014 765.463 13.4001C755.427 19.5093 753.178 33.732 739.786 37.3065C732.496 39.2524 725.543 37.0715 720.901 34.9957L703.477 34.994Z" fill="#48964E"/>
    <path d="M809.739 34.9931C815.789 39.6486 825.205 45.3044 836.74 45.2753C856.236 45.2261 864.499 28.9799 885.881 23.2873C895.544 20.7146 910.126 19.7014 930.432 28.0634C933.816 28.0668 937.197 28.2545 940.56 28.6259C943.741 28.9771 946.679 29.4677 949.349 30.0243C907.174 3.31469 886.881 4.6651 876.141 11.039C865.409 17.4079 857.069 33.0336 838.068 35.5356C833.569 36.1108 829.005 35.9274 824.567 34.9931H809.739Z" fill="#48964E"/>
    <path d="M934.578 35.0669C941.184 39.498 948.551 42.6711 956.309 44.4268C966.959 46.7913 978.032 46.4488 988.516 43.4307C979.796 43.5594 971.096 42.5926 962.617 40.553C959.399 39.7762 956.384 38.8836 953.578 37.9281C947.375 36.2526 941 35.2927 934.578 35.0669V35.0669Z" fill="#48964E"/>
    <path d="M101.41 35.4049C107.838 38.3593 117.565 41.6527 128.908 40.4695C152.537 38.0046 160.464 18.4851 181.344 14.1011C191.498 11.969 206.67 13.0066 227.939 28.0634C226.906 28.0455 225.873 28.0276 224.84 28.0096C205.872 15.3877 191.931 14.5197 182.672 16.0932C160.602 19.8442 152.631 39.5941 129.016 42.2109C116.358 43.6135 105.462 39.3998 98.4162 35.7755L101.41 35.4049Z" fill="#76B779"/>
    <path d="M95.3166 29.1536C85.4727 25.4876 74.7352 24.9591 64.5788 27.6407C59.6373 29.0252 51.9161 31.1809 46.4277 38.2288C39.199 47.5115 40.6058 58.6408 41.0045 61.2498C40.6717 58.7011 39.5176 47.6986 46.8534 38.7216C52.3326 32.0165 60.2123 29.9397 64.8739 28.7106C73.9135 26.4301 83.4148 26.7632 92.2725 29.671C93.2873 29.4985 94.302 29.326 95.3166 29.1536Z" fill="#76B779"/>
    <path d="M237.66 34.9822C252 39.4528 273.205 43.7283 297.002 38.7822C330.164 31.8895 340.922 12.7916 368.942 7.64488C385.526 4.5989 410.17 6.06968 443.834 28.0613L439.167 28.0649C408.29 9.14931 385.263 7.9398 369.975 10.3011C340.724 14.8192 329.915 33.9371 297.666 40.8482C271.862 46.3781 248.691 40.5865 233.399 34.9946C234.82 34.9905 236.24 34.9864 237.66 34.9822Z" fill="#76B779"/>
    <path d="M444.941 34.9911C452.929 40.0391 465.38 46.0803 479.841 44.6481C504.225 42.2331 513.083 20.6748 537.726 17.8641C546.079 16.9113 558.71 17.8317 575.226 28.0738L578.428 28.0634C560.424 15.2718 546.765 13.8309 537.394 15.0971C514.3 18.2174 505.779 39.3249 480.948 41.9918C467.882 43.3952 456.562 39.0193 448.925 35.0007C447.597 34.9975 446.269 34.9943 444.941 34.9911Z" fill="#76B779"/>
    <path d="M578.18 34.9873C595.154 43.6952 608.029 44.0214 616.417 42.8772C642.702 39.292 652.867 17.4572 676.737 17.5321C689.165 17.5711 699.182 23.5302 705.282 28.0599C706.237 28.0611 707.192 28.0623 708.147 28.0634C694.849 16.8455 684.006 14.7085 676.847 14.6545C653.408 14.4776 643.263 36.4358 616.085 40.3317C601.595 42.4089 589.063 38.3766 581.209 34.9905L578.18 34.9873Z" fill="#76B779"/>
    <path d="M710.788 34.9947C718.061 40.2465 728.459 45.7932 739.491 43.7627C755.801 40.7608 759.939 23.6929 776.605 19.5981C783.78 17.8351 794.554 18.163 809.898 28.0606L812.55 28.0609C794.731 15.2624 782.829 14.6367 774.982 16.9418C759.326 21.5405 755.487 39.0733 739.159 41.8811C729.507 43.5409 720.566 39.1829 714.296 34.9957C713.126 34.9953 711.957 34.995 710.788 34.9947Z" fill="#76B779"/>
    <path d="M814.955 34.9931C819.827 38.1992 827.321 42.0445 836.555 42.2132C858.284 42.6099 867.535 22.245 889.127 16.9787C899.451 14.4606 914.822 14.852 936.534 28.2863C937.876 28.3995 939.218 28.5127 940.56 28.6259C915.515 11.7737 898.952 11.6916 888.574 14.5438C868.697 20.0065 859.238 39.606 836.887 39.6676C830.25 39.6106 823.717 38.0112 817.804 34.9957C816.854 34.9949 815.905 34.994 814.955 34.9931Z" fill="#76B779"/>
    <path d="M942.44 35.713C946.569 38.605 951.123 40.8354 955.94 42.3239C963.469 44.634 970.024 44.5734 970.051 44.3714C965.338 43.7267 960.69 42.6713 956.161 41.2171C952.257 39.881 948.499 38.1504 944.946 36.0521C944.11 35.9391 943.275 35.826 942.44 35.713Z" fill="#76B779"/>
    <path d="M988.516 31.625C991.866 32.7213 994.959 34.4872 997.607 36.8153C1000.25 39.1435 1002.4 41.9854 1003.92 45.1684C1005.43 48.3515 1006.28 51.8094 1006.42 55.3321C1006.56 58.8548 1005.98 62.3688 1004.72 65.6609L1003.26 63.7362C1005.12 57.5054 1004.64 50.8135 1001.93 44.9062C999.217 38.9989 994.45 34.2789 988.516 31.625V31.625Z" fill="#76B779"/>
    <path d="M1000.89 72.2494C1000.26 82.8465 1002.22 93.4377 1006.61 103.106C1014.89 120.768 1027.3 124.15 1031.79 138.06C1034.42 146.21 1034.63 158.89 1022.75 178.194L1022.75 180.961C1037.32 159.553 1037.47 145.875 1034.56 137.175C1030.09 123.821 1017.69 120.015 1008.88 100.872C1005.12 92.5861 1002.93 83.6724 1002.43 74.5864C1001.92 73.8074 1001.4 73.0284 1000.89 72.2494Z" fill="#76B779"/>
    <path d="M1015.82 184.986C1013.41 189.821 1010.25 197.931 1011.24 207.509C1013.17 226.011 1028.77 232.242 1032.34 249.345C1033.89 256.745 1033.67 268.5 1022.75 285.279V288.046C1036.28 269.414 1036.85 256.783 1034.85 248.681C1030.95 232.842 1015.36 226.727 1013.09 207.878C1012.36 201.084 1013.32 194.215 1015.89 187.882L1015.82 184.986Z" fill="#76B779"/>
    <path d="M1015.82 292.088C1009.52 300.359 1009.12 306.243 1009.77 309.963C1011.78 321.512 1026.15 324.672 1027.58 336.083C1028.33 342.038 1025.19 347.305 1022.75 350.54L1022.75 351.993C1029 345.097 1029.85 339.901 1029.47 336.415C1028.21 325.102 1012.73 321.778 1010.98 309.852C1010.1 303.818 1013.13 298.335 1015.81 294.662L1015.82 292.088Z" fill="#76B779"/>
    <path d="M1015.82 354.877C1009.05 365.795 1009 373.435 1010.13 378.341C1013.12 391.204 1026.44 394.586 1028.43 407.117C1029.67 414.86 1025.9 421.893 1022.75 426.431V429.613C1031.05 419.546 1031.86 412.226 1031.16 407.486C1029.35 395.193 1016.11 391.535 1012.94 377.603C1011.09 369.49 1013.6 362.01 1015.82 357.202L1015.82 354.877Z" fill="#76B779"/>
    <path d="M1015.82 431.54C1008.4 442.61 1008.31 450.201 1009.4 454.93C1012.39 467.942 1027.27 472.146 1027.7 484.296C1027.89 489.927 1024.89 494.552 1022.75 497.237L1022.75 499.561C1026.34 495.827 1030.01 490.629 1029.76 484.592C1029.27 472.672 1013.94 468.563 1011.09 454.856C1010.08 449.965 1010.53 443.248 1015.82 434.381V431.54Z" fill="#76B779"/>
    <path d="M1015.82 501.71C1012.2 505.779 1008.04 511.875 1008.73 518.754C1009.91 530.546 1024.14 533.781 1028.14 546.46C1029.93 552.144 1030.12 561.166 1021.39 575.016L1020.97 577.285C1032.6 561.775 1032.9 552.126 1030.91 546.128C1027.02 534.456 1012.63 531.24 1011.32 519.049C1010.67 513.035 1013.52 507.801 1015.82 504.514V501.71Z" fill="#76B779"/>
    <path d="M1013.28 579.796C1009.56 584.263 1006.96 589.556 1005.71 595.232C1003.78 604.436 1007.17 608.128 1004.05 616.335C1002.26 621.337 998.873 625.614 994.418 628.509C990.52 630.91 986.009 632.127 981.432 632.014C986.042 632.394 990.662 631.406 994.714 629.173C999.559 626.322 1003.26 621.875 1005.19 616.593C1008.15 608.792 1005.06 604.977 1007.15 595.343C1008.18 590.641 1010.06 586.164 1012.68 582.125L1013.28 579.796Z" fill="#76B779"/>
    <path d="M997.001 639.983C997.064 640.333 990.231 642.707 981.801 642.934C972.39 643.188 966.73 640.613 962.47 639.688C942.876 635.435 931.042 661.361 907.498 664.948C898.802 666.273 885.711 664.976 867.933 651.561L872.47 651.556C887.78 663.167 899.182 664.259 906.393 663.447C930.198 660.764 941.56 633.571 961.584 637.474C966.077 638.35 970.601 640.712 979.883 641.164C989.645 641.638 996.936 639.623 997.001 639.983Z" fill="#76B779"/>
    <path d="M859.281 644.664C846.215 639.293 824.975 632.842 800.917 637.437C768.848 643.563 757.616 664.379 727.649 667.652C715.114 669.021 695.5 667.736 669.584 651.59L674.313 651.588C685.418 658.133 703.568 666.516 724.992 664.553C755.92 661.72 767.454 639.729 798.925 633.453C812.761 630.694 834.433 630.178 864.262 644.667L859.281 644.664Z" fill="#76B779"/>
    <path d="M664.037 644.687C651.154 638.458 640.62 637.651 632.355 638.876C610.917 642.054 603.216 659.13 583.214 660.348C572.328 661.011 562.681 656.679 555.065 651.586L558.275 651.567C563.675 654.63 572.348 658.476 582.771 657.913C602.953 656.821 610.581 640.23 630.473 636.441C638.605 634.893 651.06 635.05 668.132 644.663L664.037 644.687Z" fill="#76B779"/>
    <path d="M549.273 644.651C527.307 632.848 512.883 633.741 503.748 636.773C488.389 641.872 482.538 654.828 465.564 656.917C455.012 658.215 445.881 654.611 440.071 651.584H443.613C450.165 654.716 457.453 655.987 464.678 655.257C482.171 653.136 488.125 638.533 502.641 633.066C511.819 629.609 527.077 628.802 552.323 644.651L549.273 644.651Z" fill="#76B779"/>
    <path d="M436.493 644.699C425.159 635.342 416.761 634.257 411.147 635.039C396.579 637.07 392.128 652.885 376.026 656.068C366.737 657.905 358.204 654.622 352.47 651.582L349.186 651.586C361.832 658.828 370.85 658.786 376.542 657.618C392.27 654.389 397.166 639.573 412.18 637.991C421.167 637.044 428.928 641.349 433.652 644.656L436.493 644.699Z" fill="#76B779"/>
    <path d="M343.431 644.659C338.235 642.102 329.583 638.814 319.691 640.37C302.42 643.088 297.038 658.106 281.064 660.569C274.988 661.506 265.331 660.943 252.012 651.579L255.498 651.583C261.237 655.047 270.054 659.071 280.068 657.747C296.509 655.573 301.906 640.871 318.473 638.046C324.612 637 333.915 637.306 346.475 644.657L343.431 644.659Z" fill="#76B779"/>
    <path d="M247.944 644.659C242.921 641.619 235.444 638.27 227.644 640.094C217.346 642.502 214.939 651.951 204.641 655.533C199.415 657.351 191.182 657.998 178.634 651.591L180.69 651.591C186.805 654.03 195.311 656.168 203.756 653.264C214.324 649.631 216.651 640.901 226.316 638.323C231.472 636.947 239.267 637.176 250.6 644.659H247.944Z" fill="#76B779"/>
    <path d="M175.127 644.655C166.239 639.155 160.08 639.111 156.054 640.149C146.567 642.594 143.858 652.346 133.808 653.984C129.396 654.556 124.916 653.716 121.011 651.586L118.41 651.588C125.345 655.862 130.57 656.207 134.25 655.533C144.054 653.738 146.739 644.014 156.829 641.754C162.921 640.389 168.708 642.419 172.988 644.655H175.127Z" fill="#76B779"/>
    <path d="M113.48 644.655C100.881 635.725 91.2151 634.611 84.6116 635.335C72.9819 636.61 67.4533 643.96 59.0089 641.91C50.9138 639.944 46.2258 630.817 43.6255 623.984L45.2295 625.576C47.9039 631.28 52.4118 638.401 59.5984 640.094C68.0881 642.094 73.6296 634.944 84.0212 633.269C91.1384 632.121 101.672 633.358 116.069 644.659L113.48 644.655Z" fill="#76B779"/>
    <path d="M45.3947 615.708C45.0881 611.126 43.8752 604.984 39.3444 600.729C31.9806 593.815 21.6087 597.29 17.4301 591.064C15.7766 588.6 14.7742 584.141 18.4904 575.414C18.6191 576.098 18.7477 576.782 18.8762 577.465C17.2405 581.599 15.9684 586.871 18.4262 590.621C22.4531 596.765 32.7686 593.143 40.156 599.475C43.5126 602.352 46.5172 607.5 46.7931 617.26C46.3269 616.743 45.8608 616.225 45.3947 615.708Z" fill="#76B779"/>
    <path d="M24.5267 568.625C30.1619 559.396 29.8582 553.748 28.498 550.279C25.3031 542.13 14.6376 541.809 12.2284 534.009C10.5306 528.513 13.9362 522.549 17.0604 518.385L17.0598 520.986C15.0042 524.117 12.5214 529.002 13.8886 533.788C16.1852 541.828 27.2138 542.118 30.4902 549.892C32.026 553.536 32.245 559.742 24.7701 570.615L24.5267 568.625Z" fill="#76B779"/>
    <path d="M23.9954 513.617C27.8757 508.27 32.3657 500.169 30.8776 491.398C28.5162 477.48 13.1498 473.942 9.8488 459.745C8.55186 454.166 8.79209 445.544 17.0541 433.163L17.0568 436.816C13.8066 442.419 10.3751 450.579 12.2284 459.246C15.3589 473.887 30.8828 477.417 33.3125 490.9C34.2915 496.333 33.3424 504.481 23.9963 515.83L23.9954 513.617Z" fill="#76B779"/>
    <path d="M23.9879 426.901C27.3632 419.487 31.1935 407.891 28.0553 395.533C22.9748 375.526 3.68727 369.495 3.33725 353.254C3.2183 347.736 5.24806 339.291 17.0604 328.665V331.654C12.0455 336.702 6.43255 344.146 6.53753 353.096C6.72924 369.433 25.7937 375.553 30.7853 394.5C32.8483 402.331 32.9074 413.871 24.0156 430.083C24.0063 429.022 23.9971 427.962 23.9879 426.901Z" fill="#76B779"/>
    <path d="M23.9904 324.704C33.2302 315.786 34.4585 308.487 34.4745 304.519C34.4838 302.232 34.1043 297.556 21.7466 278.953C12.536 265.087 9.34725 262.567 8.90797 256.485C8.33726 248.583 12.9182 241.727 17.0604 237.043V240.621C14.4345 244.232 11.4841 249.592 11.7856 255.932C12.1125 262.803 16.0476 266.351 23.4068 276.85C32.9914 290.523 37.7837 297.36 37.7948 304.519C37.8022 309.238 35.9793 317.228 23.9906 327.001L23.9904 324.704Z" fill="#76B779"/>
    <path d="M23.9829 231.693C32.8396 219.498 34.1486 209.883 33.7367 203.397C32.2585 180.113 6.81397 168.925 9.46146 148.722C10.3856 142.973 13.0399 137.642 17.0705 133.439C17.0637 134.7 17.0568 135.96 17.0501 137.22C14.3671 140.553 12.5691 144.509 11.8226 148.722C8.58694 168.77 34.9488 180.476 36.9095 202.806C37.5483 210.082 35.8002 220.798 23.9846 234.682L23.9829 231.693Z" fill="#76B779"/>
    <path d="M23.9916 129.261C32.5178 118.862 37.3702 105.938 37.7949 92.4977C38.0244 81.6522 35.3223 70.9457 29.9737 61.508C36.3822 70.5914 39.9282 81.3835 40.1561 92.4977C40.4759 114.728 26.8922 129.321 23.9897 132.305L23.9916 129.261Z" fill="#76B779"/>
    <path d="M663.539 203.856C665.343 209.657 665.606 214.329 665.526 217.476C665.239 228.881 660.059 236.017 661.071 247.469C661.325 250.345 661.916 253.298 661.916 253.298C662.959 257.385 664.64 259.672 665.635 265.031C667.225 273.593 666.405 286.454 654.125 304.009C667.174 286.459 668.289 273.523 666.84 264.901C665.963 259.683 664.377 257.416 663.418 253.386C663.418 253.386 662.874 250.448 662.66 247.593C662.36 243.596 667.435 227.75 667.851 217.35C667.976 214.222 667.773 209.606 666.046 203.866C665.526 203.872 664.998 203.873 664.461 203.869C664.151 203.866 663.843 203.862 663.539 203.856V203.856Z" fill="#BD632F"/>
    <path d="M684.439 202.144C684.432 205.744 684.719 211.451 686.477 218.114C691.471 237.047 702.778 242.918 707.794 253.929C712.656 264.602 712.166 282.93 686.706 316.326C713.847 282.396 714.8 263.985 709.972 253.338C705.111 242.619 694.263 236.862 689.084 218.114C687.165 211.167 686.808 205.196 686.781 201.413L684.439 202.144V202.144Z" fill="#BD632F"/>
    <path d="M633.285 199.055C638.869 224.285 633.779 239.315 627.573 248.556C620.635 258.888 609.741 265.766 606.567 281.106C605.01 288.631 605.91 295.2 606.929 299.605C606.434 295.416 606.164 288.929 608.136 281.5C612.243 266.033 622.846 259.298 629.746 249.401C635.923 240.541 641.464 225.855 636.783 200.766L633.285 199.055Z" fill="#F38F56"/>
    <path d="M642.34 202.592C642.722 207.986 642.993 215.957 642.196 225.582C640.625 244.556 639.597 257.527 630.752 269.069C624.07 277.79 618.384 278.629 615.134 287.622C612.39 295.215 613.582 302.53 615.048 307.574C613.926 302.627 613.17 295.455 616.128 288.081C619.82 278.878 625.756 278.19 632.674 269.611C641.549 258.606 642.709 246.008 644.696 225.745C645.621 216.317 645.559 208.499 645.34 203.213L642.34 202.592H642.34Z" fill="#BD632F"/>
    <path d="M693.017 198.51C693.136 202.142 693.693 207.812 696.095 214.119C702.834 231.816 715.793 232.422 721.891 246.218C728.789 261.823 722.796 283.965 710.165 293.522C701.298 300.231 689.989 300.146 689.941 299.951C689.892 299.759 700.843 299.597 709.16 292.804C720.471 283.566 726.254 262.502 719.63 246.894C713.648 232.801 700.283 232.066 693.526 213.894C691.429 208.253 690.808 203.272 690.593 200.165C690.862 200.04 691.148 199.891 691.443 199.713C692.09 199.323 692.611 198.898 693.017 198.51V198.51Z" fill="#F38F56"/>
    <path d="M676.717 203.766C679.755 212.895 680.261 220.542 679.947 226.393C679.404 236.514 676.473 239.647 678.328 246.329C680.735 254.996 687.237 255.794 690.955 263.392C693.624 268.846 694.828 277.739 688.203 292.788C695.901 277.728 695.08 268.782 692.655 263.307C689.332 255.805 683.009 254.85 680.594 245.991C678.808 239.438 681.385 236.468 681.97 226.224C682.278 220.85 682.072 212.99 679.4 203.203C678.964 203.308 678.515 203.41 678.054 203.507C677.598 203.602 677.152 203.688 676.717 203.766H676.717Z" fill="#F38F56"/>
    <path d="M630.897 303.814C642.195 297.033 646.161 290.207 647.696 285.231C651.027 274.43 643.883 269.183 646.741 255.497C648.747 245.897 653.141 245.026 656.668 234.886C659.098 227.899 660.721 217.772 657.117 204.05L660.582 204.271C664.52 218.861 662.448 229.098 659.85 235.731C655.965 245.647 651.275 246.341 648.905 255.891C645.537 269.461 652.958 275.018 649.287 285.681C647.607 290.559 643.313 297.36 630.897 303.814Z" fill="#F38F56"/>
    <path d="M667.336 204.772C667.276 205.083 667.227 205.573 667.401 206.118C667.854 207.54 669.347 207.653 670.053 208.785C671.056 210.395 669.278 211.345 669.784 213.781C670.308 216.304 672.463 216.459 672.459 218.61C672.456 220.46 670.861 221.098 671.389 222.506C671.881 223.818 673.601 224.154 673.444 225.04C673.321 225.74 672.203 225.777 672.069 226.533C671.918 227.39 673.276 227.771 673.262 228.674C673.246 229.778 671.208 229.858 670.814 231.123C670.315 232.721 673.118 234.025 672.523 235.629C672.195 236.515 671.22 236.439 671.052 237.315C670.822 238.514 672.566 239.098 672.376 240.339C672.234 241.27 671.207 241.261 670.851 242.383C670.51 243.457 671.319 243.878 671.403 245.261C671.516 247.127 670.099 247.294 670.083 249.04C670.065 251.064 671.963 251.42 671.771 253.464C671.657 254.686 670.927 255.101 671.24 256.129C671.537 257.107 672.308 257.096 672.809 258.02C673.692 259.651 671.841 260.701 672.436 262.43C673.063 264.25 675.418 263.962 676.1 265.974C676.554 267.315 675.699 268.001 676.462 269.064C677.178 270.061 678.164 269.783 678.707 270.731C679.355 271.862 678.191 272.677 678.873 273.818C679.407 274.712 680.354 274.599 680.62 275.455C680.844 276.174 680.24 276.456 680.186 277.364C680.106 278.717 681.392 279.021 681.832 280.496C682.306 282.083 681.014 282.39 681.11 284.5C681.209 286.665 682.598 286.959 682.226 288.607C681.933 289.907 680.933 290.326 681.158 291.468C681.319 292.285 681.888 292.359 682.036 293.153C682.254 294.312 681.208 295.054 680.807 295.96C680.363 296.962 680.486 298.664 683.278 301.698C682.563 300.099 682.677 299.001 683.062 298.231C683.425 297.507 683.812 297.504 684.183 296.703C684.76 295.457 684.044 294.989 684.383 293.325C684.668 291.922 685.251 291.894 685.247 290.809C685.243 289.635 684.561 289.459 684.341 288.263C684.024 286.54 685.319 286.243 685.256 284.436C685.189 282.501 683.683 282.279 683.757 280.364C683.816 278.861 684.76 278.581 684.457 277.405C684.133 276.145 682.959 276.117 682.66 274.824C682.375 273.593 683.348 273.228 682.995 272.155C682.605 270.971 681.317 271.108 680.708 269.76C680.245 268.737 680.87 268.396 680.423 267.348C679.872 266.054 678.768 266.217 677.961 265.032C676.882 263.45 678.405 262.505 677.478 260.537C676.676 258.835 675.151 258.722 675.127 257.331C675.111 256.4 675.79 256.17 675.719 255.087C675.648 253.997 674.935 253.859 674.644 252.836C674.131 251.028 676.04 250.357 675.721 248.499C675.435 246.834 673.738 246.433 674.032 245.203C674.255 244.27 675.288 244.255 675.522 243.209C675.759 242.147 674.768 241.819 674.916 240.689C675.076 239.463 676.304 239.375 676.51 238.154C676.713 236.946 675.569 236.679 675.596 235.393C675.632 233.71 677.61 233.457 677.663 231.852C677.713 230.353 676.009 229.926 676.278 228.407C676.439 227.498 677.123 227.239 677.017 226.35C676.922 225.553 676.337 225.459 676.045 224.684C675.536 223.332 676.95 222.646 676.91 221.041C676.871 219.461 675.484 219.398 674.971 217.535C674.422 215.543 675.879 215.141 675.626 212.895C675.334 210.31 673.316 210.055 673.523 207.819C673.595 207.042 674.388 206.015 674.009 204.6C673.967 204.445 673.923 204.32 673.891 204.238L667.336 204.772L667.336 204.772Z" fill="#BD632F"/>
    <path d="M647.441 203.64C647.276 204.006 647.071 204.579 647.061 205.283C647.035 206.969 648.171 207.75 648.693 209.054C649.694 211.55 647.365 212.33 647.916 215.106C648.538 218.243 651.915 219.28 651.273 221.241C650.878 222.448 649.455 222.52 649.368 223.709C649.262 225.154 651.354 225.843 651.058 226.948C650.782 227.978 648.845 227.808 648.376 228.938C647.881 230.134 649.818 230.882 649.904 232.556C650.026 234.941 646.199 235.394 645.597 238.345C645.154 240.515 647.064 241.055 646.547 243.757C646.18 245.674 645.112 245.953 645.246 247.546C645.407 249.459 647.007 249.776 646.879 251.316C646.734 253.062 644.615 253.427 644.639 255.008C644.659 256.32 646.123 256.406 646.845 257.969C648.107 260.701 644.682 262.709 645.808 265.287C646.669 267.258 649.071 267.001 649.602 269.08C650.006 270.663 648.729 271.268 649.26 272.79C649.851 274.484 651.61 274.248 652.434 275.958C653.383 277.93 651.46 279.113 652.42 280.93C653.354 282.697 655.643 282.436 656.028 284.009C656.338 285.277 654.94 285.78 655.189 287.315C655.431 288.804 656.841 288.907 657.129 290.257C657.502 292.001 655.286 292.478 654.832 294.798C654.31 297.466 656.893 298.599 656.052 300.935C655.487 302.503 654.256 302.203 653.579 303.981C652.767 306.112 654.121 307.685 653.017 308.603C652.196 309.285 651.01 308.781 650.512 309.517C650.059 310.187 650.891 310.827 650.62 311.691C650.238 312.906 648.164 313.002 646.965 313.706C645.593 314.512 644.422 316.671 645.522 322.725C645.602 321.834 645.884 320.518 646.965 319.485C648.453 318.061 649.951 318.612 651.259 317.166C652.487 315.809 651.852 314.622 653.342 313.622C654.206 313.042 654.691 313.259 655.261 312.653C656.139 311.72 655.381 310.785 655.804 309.466C656.469 307.39 658.985 307.703 659.96 305.673C660.75 304.028 659.291 303.425 659.635 300.842C660.012 298.012 661.867 297.949 661.957 295.645C662.065 292.913 659.486 292.195 659.953 289.567C660.237 287.968 661.285 287.705 661.139 286.277C660.981 284.735 659.718 284.657 658.986 282.829C658.071 280.546 659.628 279.633 658.613 277.878C657.663 276.234 656.023 276.595 655.311 274.968C654.635 273.426 655.94 272.721 655.285 271.101C654.598 269.402 652.916 269.574 652.326 268.005C651.698 266.337 653.441 265.715 653.269 263.595C653.055 260.946 650.21 260.398 650.379 258.001C650.487 256.457 651.693 256.3 651.574 254.81C651.429 252.992 649.59 252.658 649.617 251.048C649.641 249.592 651.152 249.401 651.308 247.757C651.467 246.081 650.089 245.741 650.133 244.24C650.202 241.847 653.854 241.544 654.416 238.861C654.866 236.712 652.748 235.832 653.533 233.956C654.272 232.188 656.481 232.188 656.678 230.672C656.853 229.331 655.168 229.008 655.064 227.288C654.962 225.599 656.543 225.184 656.413 223.431C656.312 222.08 655.346 221.957 655.022 220.594C654.525 218.496 656.578 217.8 656.844 215.542C657.256 212.046 652.556 209.72 653.736 207.854C654.17 207.167 655.352 206.745 655.62 205.427C655.682 205.121 655.676 204.864 655.664 204.708L647.441 203.64L647.441 203.64Z" fill="#BD632F"/>
    <path d="M628.544 199.71C628.061 198.793 627.394 197.383 626.853 195.588C623.77 185.37 628.709 175.849 630.694 172.021C632.647 168.258 635.798 162.182 642.846 157.717C650.105 153.118 657.235 152.93 661.687 152.813C671.82 152.546 679.12 155.893 680.664 156.627C683.071 157.772 688.15 160.486 692.952 165.755C696.249 169.372 701.913 175.587 701.963 184.418C701.985 188.316 700.906 191.461 700.052 193.409C700.583 193.989 701.567 195.243 701.791 197.053C701.831 197.383 702.153 199.984 700.759 201.012C700.404 201.273 699.976 201.375 699.976 201.375C698.95 201.618 698.071 201.015 697.862 200.864C697.939 201.21 698.014 201.741 697.92 202.371C697.85 202.842 697.517 204.496 695.971 205.308C694.798 205.924 693.609 205.624 692.82 205.428C691.856 205.189 691.147 204.757 690.725 204.454C690.416 204.973 689.962 205.66 689.329 206.402C688.644 207.204 688.137 207.799 687.257 208.304C686.913 208.501 686.07 208.973 684.926 209.059C684.289 209.107 683.663 209.027 681.774 208.33C680.872 207.998 679.669 207.52 678.27 206.862C677.705 207.548 676.78 208.523 675.425 209.394C674.182 210.193 672.982 210.964 671.409 211C669.995 211.033 668.66 210.264 665.991 208.728C664.961 208.135 664.138 207.604 663.59 207.239C663.098 207.808 662.345 208.579 661.293 209.317C660.192 210.09 659.203 210.784 657.872 210.958C656.295 211.165 655.062 210.534 652.978 209.467C651.501 208.712 650.367 207.917 649.599 207.322C649.03 207.763 648.176 208.374 647.064 208.982C645.502 209.837 644.633 210.312 643.455 210.285C642.383 210.26 641.622 209.832 640.538 209.222C639.706 208.755 638.556 207.978 637.413 206.709C637.012 207.072 636.41 207.566 635.609 208.047C634.851 208.501 634.476 208.745 634.004 208.835C631.935 209.229 630.139 207.353 629.636 206.828C629.195 206.367 628.405 205.522 628.026 204.144C627.432 201.991 628.295 200.189 628.544 199.71H628.544Z" fill="#F38F56"/>
    <path d="M667.326 157.357C667.326 157.356 667.203 156.779 666.561 156.32C663.903 154.419 651.41 157.892 651.41 157.892C651.41 157.892 639.639 163.347 638.703 166.568C638.477 167.345 638.727 167.876 638.727 167.876C638.727 167.876 638.976 168.403 639.685 168.692C641.348 169.371 646.111 164.05 652.261 162.011C652.589 161.902 652.936 161.751 653.255 161.623C659.274 159.196 666.177 160.235 667.068 158.619C667.448 157.93 667.326 157.357 667.326 157.357H667.326Z" fill="#FCE4D6"/>
    <path d="M637.273 173.323C638.194 172.257 638.315 170.856 637.544 170.193C636.773 169.53 635.402 169.857 634.481 170.924C633.561 171.99 633.44 173.391 634.211 174.054C634.982 174.717 636.353 174.39 637.273 173.323Z" fill="#FCE4D6"/>
    <path d="M688.271 167.219C687.547 167.253 686.505 167.594 686.086 168.445C685.353 169.937 687.127 171.788 687.383 172.055C688.143 172.848 689.966 174.253 691.138 173.554C692.168 172.939 692.111 171.046 691.684 169.876C691.21 168.579 689.904 167.144 688.271 167.219H688.271Z" fill="#BD632F"/>
    <path d="M688.407 175.461C687.57 176.317 688.407 178.585 689.431 178.731C690.107 178.827 690.967 178.014 691.138 177.096C691.168 176.934 691.301 176.1 690.728 175.529C690.084 174.887 688.913 174.945 688.407 175.461V175.461Z" fill="#BD632F"/>
    <path d="M693.049 174.167C692.806 174.827 693.075 175.761 693.8 176.21C694.395 176.579 695.131 176.518 695.643 176.21C696.607 175.633 696.837 174.152 696.258 173.486C695.537 172.657 693.481 172.995 693.049 174.167Z" fill="#BD632F"/>
    <path d="M691.752 179.548C691.274 179.809 691.309 180.724 691.343 181.591C691.374 182.391 691.408 183.272 691.957 184.18C692.414 184.935 693.624 186.364 694.756 186.019C695.666 185.742 696.105 184.446 696.053 183.499C695.981 182.177 694.943 181.354 693.868 180.502C693.187 179.961 692.294 179.253 691.752 179.548H691.752Z" fill="#BD632F"/>
    <path d="M696.531 178.526C696.392 178.842 696.384 179.331 696.667 179.616C697.045 179.996 697.717 179.787 697.828 179.752C698.738 179.468 699.394 178.338 699.125 177.913C698.801 177.401 696.937 177.601 696.531 178.526Z" fill="#BD632F"/>
    <path d="M698.169 183.567C697.81 184.377 697.518 185.036 697.452 185.985C697.405 186.67 697.43 188.171 697.93 188.301C698.415 188.427 699.107 187.198 699.637 186.257C700.429 184.85 701.145 183.579 700.627 182.579C700.402 182.147 699.921 181.714 699.466 181.762C698.945 181.816 698.651 182.48 698.169 183.567H698.169Z" fill="#BD632F"/>
    <path d="M694.039 188.216C693.292 188.482 692.506 189.229 692.657 189.799C692.818 190.409 694.003 190.641 694.858 190.463C695.778 190.272 696.757 189.516 696.65 188.931C696.534 188.291 695.115 187.832 694.039 188.216Z" fill="#BD632F"/>
    <path d="M686.359 164.001C686.113 164.462 686.233 165.197 686.666 165.482C687.244 165.862 688.104 165.263 688.458 164.92C688.544 164.838 689.207 164.197 689.022 163.797C688.764 163.24 686.846 163.09 686.359 164.001H686.359Z" fill="#BD632F"/>
    <path d="M684.516 166.555C685.392 165.661 684.387 163.643 684.158 163.183C684.057 162.981 682.883 160.669 681.905 160.885C681.044 161.074 680.566 163.172 681.086 164.767C681.18 165.057 681.705 166.668 683.031 166.913C683.126 166.93 684.003 167.079 684.516 166.555L684.516 166.555Z" fill="#BD632F"/>
    <path d="M682.127 168.786C681.937 169.078 681.991 169.517 682.195 169.808C682.52 170.269 683.215 170.343 683.697 170.08C684.139 169.84 684.456 169.288 684.311 168.922C684.073 168.319 682.545 168.146 682.127 168.786H682.127Z" fill="#BD632F"/>
    <path d="M695.421 193.648C695.278 194.305 695.604 195.009 696.138 195.283C697.053 195.751 698.481 194.904 698.493 193.886C698.501 193.253 697.959 192.591 697.23 192.456C696.417 192.305 695.595 192.853 695.421 193.648Z" fill="#BD632F"/>
    <path d="M688.595 182.017C688.321 182.398 688.167 183.086 688.527 183.38C688.879 183.667 689.597 183.471 689.858 183.005C690.168 182.45 689.758 181.641 689.312 181.574C688.952 181.521 688.637 181.959 688.595 182.017L688.595 182.017Z" fill="#BD632F"/>
    <path d="M692.503 192.558C691.844 192.312 690.955 193.153 690.557 193.682C690.049 194.358 689.962 195.035 689.841 196.083C689.684 197.438 689.561 198.502 690.148 198.893C690.695 199.256 691.622 198.88 692.145 198.484C693.413 197.524 693.317 195.681 693.271 194.806C693.23 194.016 693.167 192.805 692.503 192.558Z" fill="#BD632F"/>
    <path d="M630.792 182.068C629.875 183.023 628.68 184.915 629.358 185.815C629.881 186.509 631.385 186.435 632.362 185.883C634.413 184.722 634.662 181.153 633.727 180.57C633.011 180.123 631.479 181.352 630.792 182.068L630.792 182.068Z" fill="#BD632F"/>
    <path d="M630.109 177.3C629.172 177.985 629.093 179.7 629.699 180.093C630.3 180.483 631.775 179.705 632.089 178.594C632.105 178.535 632.351 177.615 631.816 177.164C631.341 176.765 630.549 176.979 630.109 177.3H630.109Z" fill="#BD632F"/>
    <path d="M627.924 189.425C627.978 191.12 628.004 191.968 628.402 192.967C629.075 194.656 630.749 196.639 631.816 196.304C632.784 196.001 633.107 193.834 632.771 192.286C632.496 191.016 631.792 190.232 630.518 188.812C629.702 187.901 628.784 186.879 628.266 187.109C627.865 187.286 627.884 188.13 627.924 189.425Z" fill="#BD632F"/>
    <path d="M634.41 187.994C634.299 188.695 634.367 189.723 634.751 189.833C635.188 189.959 636 188.884 636.253 187.79C636.447 186.949 636.381 185.795 635.98 185.678C635.523 185.545 634.606 186.747 634.41 187.994V187.994Z" fill="#BD632F"/>
    <path d="M631.065 199.369C630.907 200.157 630.752 202.228 631.952 202.843C633.067 203.416 634.86 202.478 635.434 201.072C635.982 199.728 635.201 198.479 635.161 198.416C634.695 197.698 633.701 196.883 632.771 197.122C632.192 197.27 631.823 197.781 631.611 198.075C631.509 198.216 631.207 198.66 631.065 199.369Z" fill="#BD632F"/>
    <path d="M635.331 193.852C634.956 194.152 634.07 194.861 634.273 195.555C634.442 196.131 635.271 196.384 635.843 196.372C636.754 196.354 637.566 195.654 637.789 194.806C637.916 194.322 637.929 193.491 637.447 193.171C636.756 192.712 635.575 193.657 635.331 193.852L635.331 193.852Z" fill="#BD632F"/>
    <path d="M636.594 203.218C636.825 203.556 637.291 203.734 637.686 203.661C638.422 203.524 638.949 202.507 638.608 201.788C638.296 201.129 637.324 200.865 636.901 201.175C636.738 201.295 636.69 201.482 636.594 201.856C636.454 202.404 636.341 202.847 636.594 203.218V203.218Z" fill="#BD632F"/>
</svg>
