<svg viewBox="0 0 1041 673" fill="none" xmlns="http://www.w3.org/2000/svg">
    <path d="M930.275 31.5285H109.538C60.3791 31.5285 20.5282 71.3795 20.5282 120.538V559.113C20.5282 608.271 60.3791 648.122 109.538 648.122H930.275C979.434 648.122 1019.29 608.271 1019.29 559.113V120.538C1019.29 71.3795 979.434 31.5285 930.275 31.5285Z" fill="#B6CEE1" stroke="#116619" stroke-width="6"/>
    <path d="M10.3469 40.3962C14.0803 43.5191 30.3873 57.8544 33.3678 82.5644C35.0452 97.2366 31.7442 112.047 23.9945 124.618C23.9917 129.075 23.989 133.532 23.9862 137.989C25.0232 137.01 49.8969 112.69 42.0007 79.7975C35.744 53.7353 13.6633 42.0771 10.3469 40.3962Z" fill="#48964E"/>
    <path d="M17.0569 128.701C8.9823 135.637 6.59974 141.986 5.91973 146.508C3.13445 165.034 25.505 175.593 28.6391 200.181C30.0691 211.399 26.9366 221.161 23.9805 227.767L23.9875 239.712C41.4527 218.375 42.4272 204.688 40.0084 196.092C35.2337 179.124 13.756 169.631 15.3641 150.788C15.5785 148.344 16.1464 145.945 17.05 143.665C17.0523 138.677 17.0547 133.689 17.0569 128.701Z" fill="#48964E"/>
    <path d="M17.0604 232.674C5.48571 244.641 4.28572 252.946 5.18191 258.219C6.62856 266.731 13.6659 268.101 22.5952 285.077C28.1058 295.553 28.5785 301.026 28.6456 303.671C28.7256 309.923 27.1173 316.082 23.9902 321.497L23.991 330.539C41.6305 318.739 42.9887 308.886 42.9599 304.851C42.9091 297.746 38.4361 291.725 29.6048 279.838C21.4098 268.807 15.4084 264.258 14.9216 255.415C14.7655 251.724 15.4991 248.049 17.0604 244.7V232.674Z" fill="#48964E"/>
    <path d="M17.0604 325.22V335.103C13.8048 340.271 12.0902 346.261 12.1177 352.369C12.5845 369.455 28.9968 376.064 34.1056 392.065C36.8704 400.725 36.9913 414.222 23.998 434.822C23.9945 430.933 23.991 427.045 23.9876 423.156C26.0384 415.924 26.4201 408.32 25.1039 400.919C20.7622 377.867 0.685835 370.851 0.0169104 353.992C-0.233507 347.682 2.15076 337.868 17.0604 325.22Z" fill="#48964E"/>
    <path d="M17.05 427.831C4.9767 444.271 4.77019 454.633 6.80512 461.054C10.6863 473.3 24.3095 476.221 27.465 490.052C29.351 498.318 26.4773 506.012 23.9944 510.935C23.9956 514.078 23.9968 517.22 23.9979 520.363C37.3567 504.069 38.2159 493.78 36.1716 487.248C32.6197 475.899 19.2638 472.709 15.9545 458.324C14.7897 452.761 15.1722 446.984 17.0604 441.623L17.05 427.831Z" fill="#48964E"/>
    <path d="M17.0612 515.065C8.99151 525.759 9.0124 531.824 10.4206 535.356C13.1376 542.17 22.1154 542.287 25.5465 550.039C28.053 555.702 26.0884 562.023 24.2826 566.146C24.3981 567.501 24.5498 568.909 24.7375 570.368C24.9274 571.825 25.1416 573.223 25.3799 574.563C36.23 556.687 35.4077 548.633 32.7037 544.579C28.6327 538.476 17.7069 537.555 16.3971 530.191C16.1254 528.432 16.3546 526.631 17.0587 524.996L17.0612 515.065Z" fill="#48964E"/>
    <path d="M18.0222 572.507C13.0892 583.935 14.5023 589.32 16.4895 592.115C20.584 597.873 29.2555 595.641 37.1308 602.851C40.4592 606 42.9026 609.968 44.2168 614.358C44.9419 615.213 45.7119 616.085 46.5267 616.972C47.3524 617.869 48.1675 618.718 48.972 619.52C49.211 604.959 45.11 599.01 41.3366 596.265C34.4535 591.258 24.7423 594.061 20.6399 587.632C19.2122 585.118 18.7262 582.177 19.2688 579.337C19.0586 578.382 18.8583 577.4 18.6681 576.389C18.4184 575.057 18.2031 573.763 18.0222 572.507Z" fill="#48964E"/>
    <path d="M42.0031 622.283C46.7911 638.508 53.2136 643.192 57.9382 644.631C66.9854 647.388 73.8136 639.441 88.7123 639.365C96.1929 639.413 103.556 641.227 110.203 644.66L119.037 644.657C102.87 630.479 91.01 628.438 82.73 629.801C72.3763 631.505 63.8322 639.154 54.9499 635.224C51.4655 633.513 48.6522 630.688 46.9564 627.196C46.2082 626.514 45.4495 625.795 44.6803 625.04C43.7328 624.108 42.8404 623.189 42.0031 622.283Z" fill="#48964E"/>
    <path d="M115.106 651.591C127.369 659.207 134.715 658.829 139.176 657.027C145.937 654.296 147.67 647.647 156.146 644.779C160.852 643.316 165.884 643.273 170.614 644.655H177.173C165.138 636.785 157.597 636.827 152.826 638.581C144.69 641.572 140.989 650.87 130.321 652.01C128.053 652.244 125.761 652.1 123.54 651.584L115.106 651.591Z" fill="#48964E"/>
    <path d="M176.174 651.59C191.651 661.554 201.029 661.231 206.763 659.02C215.799 655.534 218.489 646.308 229.636 643.525C235.059 642.31 240.718 642.705 245.919 644.66L253.388 644.657C239.944 633.895 230.994 633.305 225.357 634.671C213.782 637.475 209.318 650.187 194.515 652.342C190.476 652.902 186.366 652.647 182.428 651.591L176.174 651.59Z" fill="#48964E"/>
    <path d="M249.258 651.582C265.838 664.48 276.984 665.311 284.237 663.447C296.849 660.205 300.696 648.04 316.407 643.82C324.23 641.89 332.436 642.182 340.102 644.66L351.961 644.655C333.752 633.539 321.409 633.567 313.345 635.888C299.746 639.802 293.8 651.537 277.043 653.596C270.737 654.311 264.351 653.625 258.341 651.587L249.258 651.582Z" fill="#48964E"/>
    <path d="M345.465 651.591C365.599 662.904 377.705 661.874 385.027 658.872C394.833 654.852 399.56 645.86 412.771 643.525C418.459 642.583 424.289 642.969 429.804 644.655L443.017 644.658C425.156 629.441 413.953 628.334 406.868 630.539C395.057 634.214 392.044 647.915 376.764 652.231C370.046 653.964 362.974 653.737 356.381 651.577L345.465 651.591Z" fill="#48964E"/>
    <path d="M436.307 651.584C442.658 655.453 452.538 660.082 464.273 659.315C481.079 658.216 487.83 646.955 505.592 642.197C514.149 639.904 527.156 638.613 545.113 644.65L557.538 644.652C526.411 625.02 509.136 625.608 498.952 630.686C488.018 636.138 480.788 648.994 462.926 651.881C457.708 652.701 452.387 652.6 447.203 651.584H436.307Z" fill="#48964E"/>
    <path d="M562.702 651.585C568.452 653.494 574.507 654.314 580.558 654.002C600.049 652.891 608.674 639.807 623.353 634.67C633.854 630.996 650.008 630.496 674.713 644.655L660.42 644.66C650.354 641.913 639.791 641.525 629.551 643.525C608.509 647.856 601.319 660.833 583.509 662.118C576.428 662.63 565.421 661.455 551.171 651.587L562.702 651.585Z" fill="#48964E"/>
    <path d="M678.232 651.584C690.721 656.031 703.969 657.957 717.208 657.249C748.6 655.366 762.648 638.53 787.599 631.572C805.047 626.705 831.514 625.641 869.511 644.67L852.521 644.66C835.629 641.292 818.247 641.207 801.323 644.41C765.319 651.434 753.078 670.21 724.734 672.301C710.686 673.337 690.342 670.448 664.51 651.591L678.232 651.584Z" fill="#48964E"/>
    <path d="M863.063 651.567C886.607 667.621 902.874 668.248 913.514 665.66C932.602 661.019 935.367 645.599 956.862 642.787C972.959 640.681 980.122 648.188 995.268 643.23C1005.77 639.793 1012.88 632.731 1017.11 627.587C1009.96 632.466 1001.87 635.785 993.35 637.327C976.852 640.181 972.486 633.405 958.485 634.671C935.888 636.714 931.904 655.755 909.678 658.725C898.771 660.182 888.074 657.154 877.949 651.549L863.063 651.567Z" fill="#48964E"/>
    <path d="M999.208 69.8698C997.078 77.8959 996.929 86.3192 998.772 94.4161C1003.46 113.868 1018.27 119.09 1024.6 136.621C1027.5 144.66 1029.28 157.114 1022.75 175.443L1022.76 186.227C1042.99 157.86 1042.88 141.801 1038.91 132.342C1033.64 119.792 1018.97 112.695 1008.05 87.2683C1006.39 83.4222 1005.27 80.1954 1004.61 78.1808C1004.06 77.2256 1003.48 76.2551 1002.86 75.2693C1001.65 73.3353 1000.43 71.5367 999.208 69.8698Z" fill="#48964E"/>
    <path d="M1015.82 180.961C1011.89 187.507 1007.1 197.909 1008.95 209.578C1011.34 224.602 1022.78 229.453 1027.25 244.773C1029.47 252.361 1030.52 264.371 1022.75 281.839V294.295C1042.18 265.974 1041.87 250.456 1037.66 241.453C1032.33 230.076 1018.31 223.862 1015.52 206.479C1014.82 201.997 1014.92 197.427 1015.82 192.98V180.961Z" fill="#48964E"/>
    <path d="M1015.82 288.046C1006.9 300.577 1006.59 308.452 1008.44 313.504C1011.7 322.443 1022.43 324.583 1024.6 334.976C1025.36 339.343 1024.71 343.839 1022.75 347.816L1022.76 356.235C1032.27 345.732 1033.16 338.662 1032.12 334.09C1029.58 322.9 1013.72 319.142 1013.31 307.528C1013.28 304.468 1014.15 301.468 1015.81 298.9L1015.82 288.046Z" fill="#48964E"/>
    <path d="M1015.82 351.992C1005.73 364.487 1004.91 372.978 1006.3 378.586C1009.03 389.572 1021.11 392.861 1024.01 406.33C1025.05 411.659 1024.61 417.171 1022.75 422.272V434.384C1035.55 419.748 1036.56 410.288 1034.93 404.264C1031.75 392.556 1017.13 388.512 1014.86 373.569C1014.29 369.557 1014.62 365.469 1015.82 361.6L1015.82 351.992Z" fill="#48964E"/>
    <path d="M1015.82 426.515C1004.79 443.25 1004.97 453.074 1007.55 459.062C1011.73 468.749 1023.75 471.98 1025.04 483.19C1025.39 487.06 1024.59 490.946 1022.75 494.368L1022.75 503.382C1032.03 494.91 1033.54 488.412 1033.23 484.075C1032.34 471.543 1015.58 466.621 1013.75 451.093C1013.29 446.598 1014.01 442.06 1015.82 437.921L1015.82 426.515Z" fill="#48964E"/>
    <path d="M1015.82 499.014C1007.02 507.596 1005.4 514.24 1005.86 518.975C1006.87 529.57 1018.51 532.74 1023.27 545.391C1026.88 554.982 1024.61 564.882 1021.83 572.165C1021.6 573.851 1021.3 575.628 1020.93 577.483C1020.57 579.278 1020.17 580.978 1019.75 582.576C1036.03 561.403 1036.46 549.678 1033.45 542.808C1028.98 532.623 1014.59 527.777 1014.27 515.286C1014.22 512.647 1014.75 510.03 1015.82 507.617L1015.82 499.014Z" fill="#48964E"/>
    <path d="M1014.2 575.757C1009.84 580.03 1006.56 585.276 1004.62 591.064C1001.29 601.346 1004.9 606.523 1000.52 615.745C999.569 617.76 996.178 624.913 989.124 628.141C977.107 633.64 963.034 623.823 962.617 624.765C962.192 625.726 975.865 638.171 990.342 634.283C997.405 632.386 1005.59 626.476 1007.66 618.456C1009.61 610.929 1007.55 596.224 1009.29 592.035C1009.35 591.892 1009.8 590.836 1010.36 589.358C1010.98 587.685 1011.45 586.25 1011.78 585.179C1012.3 583.51 1012.81 581.738 1013.27 579.868C1013.63 578.455 1013.94 577.085 1014.2 575.757Z" fill="#48964E"/>
    <path d="M1001.47 61.5114C1001.37 56.6351 1000.25 51.8343 998.181 47.4151C991.658 33.5863 977.938 28.8425 974.865 27.862C988.36 26.1976 1001.09 32.6254 1006.59 43.5783C1012.43 55.2029 1007.59 66.8654 1006.81 68.643C1005.94 67.3385 1004.98 65.9914 1003.94 64.6156C1003.11 63.5224 1002.29 62.4876 1001.47 61.5114Z" fill="#48964E"/>
    <path d="M43.1074 75.3058C44.178 75.238 38.4338 54.3328 49.1947 41.4385C57.8654 31.0486 73.9217 29.8508 87.2125 30.7765C89.4119 30.2335 91.3744 29.8336 93.0296 29.5356C94.0802 29.3464 95.6591 29.081 97.592 28.8308C98.9585 28.6539 100.173 28.5272 101.193 28.4349C76.8268 18.8415 53.2042 23.3875 43.6608 37.2327C33.201 52.4075 41.9815 75.3771 43.1074 75.3058Z" fill="#48964E"/>
    <path d="M93.9102 36.4151C102.92 41.8452 116.869 48.1997 132.092 45.3121C149.99 41.9171 155.559 28.4282 174.15 22.9922C183.451 20.2726 198.036 18.9772 219.103 28.0634H236.353C199.711 5.44145 178.684 6.07504 165.96 12.2196C151.449 19.2267 139.936 37.1661 118.258 37.0114C114.152 36.9709 110.076 36.3133 106.166 35.0607C103.849 35.1485 101.363 35.337 98.7344 35.6676C97.0497 35.8795 95.4402 36.133 93.9102 36.4151Z" fill="#48964E"/>
    <path d="M228.079 34.994C228.944 35.3655 230.199 35.8987 231.72 36.5247C233.329 37.2753 234.978 37.935 236.661 38.5009C240.168 39.6001 245.142 41.035 251.186 42.359C257.024 43.638 276.468 46.4508 289.033 46.3082C320.503 45.951 334.661 25.56 366.507 19.7456C380.473 17.1958 400.921 16.8869 427.844 28.053C437.861 28.0582 447.878 28.0634 457.896 28.0685C399.445 -5.47043 365.669 -2.9533 345.479 6.02161C327.021 14.2264 308.788 32.7752 274.516 36.1947C264.406 37.1846 254.208 36.7811 244.207 34.9957L228.079 34.994Z" fill="#48964E"/>
    <path d="M437.286 34.9914C465.596 51.2299 483.707 50.326 495.115 46.3082C510.947 40.7325 518.143 27.6528 538.058 24.6155C547.925 23.263 557.975 24.4497 567.256 28.0634H586.506C555.693 5.68429 537.191 4.95595 525.662 9.56331C510.09 15.7864 504.033 33.0253 483.162 37.0114C474.91 38.4536 466.427 37.7578 458.521 34.9905C451.443 34.9908 444.364 34.9911 437.286 34.9914Z" fill="#48964E"/>
    <path d="M571.485 34.9957C596.982 49.3601 614.019 48.7852 625.05 45.3121C642.733 39.7448 651.283 24.7466 672.199 23.5087C680.314 23.1283 688.403 24.6898 695.793 28.0634H718.178C696.641 9.28632 680.986 6.98964 670.428 8.67782C649.18 12.0756 638.772 33.1835 609.666 35.9045C603.46 36.4718 597.205 36.1641 591.084 34.9904C584.551 34.9922 578.018 34.994 571.485 34.9957Z" fill="#48964E"/>
    <path d="M703.477 34.994C726.783 49.3467 740.366 48.8083 748.64 44.9801C759.428 39.9895 761.813 29.122 774.613 24.9106C784.974 21.5015 795.456 24.6605 802.943 28.0599C808.95 28.0605 814.957 28.0611 820.964 28.0617C789.526 7.85254 773.908 8.26014 765.463 13.4001C755.427 19.5093 753.178 33.732 739.786 37.3065C732.496 39.2524 725.543 37.0715 720.901 34.9957L703.477 34.994Z" fill="#48964E"/>
    <path d="M809.739 34.9931C815.789 39.6486 825.205 45.3044 836.74 45.2753C856.236 45.2261 864.499 28.9799 885.881 23.2873C895.544 20.7146 910.126 19.7014 930.432 28.0634C933.816 28.0668 937.197 28.2545 940.56 28.6259C943.741 28.9771 946.679 29.4677 949.349 30.0243C907.174 3.31469 886.881 4.6651 876.141 11.039C865.409 17.4079 857.069 33.0336 838.068 35.5356C833.569 36.1108 829.005 35.9274 824.567 34.9931H809.739Z" fill="#48964E"/>
    <path d="M934.578 35.0669C941.184 39.498 948.551 42.6711 956.309 44.4268C966.959 46.7913 978.032 46.4488 988.516 43.4307C979.796 43.5594 971.096 42.5926 962.617 40.553C959.399 39.7762 956.384 38.8836 953.578 37.9281C947.375 36.2526 941 35.2927 934.578 35.0669V35.0669Z" fill="#48964E"/>
    <path d="M101.41 35.4049C107.838 38.3593 117.565 41.6527 128.908 40.4695C152.537 38.0046 160.464 18.4851 181.344 14.1011C191.498 11.969 206.67 13.0066 227.939 28.0634C226.906 28.0455 225.873 28.0276 224.84 28.0096C205.872 15.3877 191.931 14.5197 182.672 16.0932C160.602 19.8442 152.631 39.5941 129.016 42.2109C116.358 43.6135 105.462 39.3998 98.4162 35.7755L101.41 35.4049Z" fill="#76B779"/>
    <path d="M95.3166 29.1536C85.4727 25.4876 74.7352 24.9591 64.5788 27.6407C59.6373 29.0252 51.9161 31.1809 46.4277 38.2288C39.199 47.5115 40.6058 58.6408 41.0045 61.2498C40.6717 58.7011 39.5176 47.6986 46.8534 38.7216C52.3326 32.0165 60.2123 29.9397 64.8739 28.7106C73.9135 26.4301 83.4148 26.7632 92.2725 29.671C93.2873 29.4985 94.302 29.326 95.3166 29.1536Z" fill="#76B779"/>
    <path d="M237.66 34.9822C252 39.4528 273.205 43.7283 297.002 38.7822C330.164 31.8895 340.922 12.7916 368.942 7.64488C385.526 4.5989 410.17 6.06968 443.834 28.0613L439.167 28.0649C408.29 9.14931 385.263 7.9398 369.975 10.3011C340.724 14.8192 329.915 33.9371 297.666 40.8482C271.862 46.3781 248.691 40.5865 233.399 34.9946C234.82 34.9905 236.24 34.9864 237.66 34.9822Z" fill="#76B779"/>
    <path d="M444.941 34.9911C452.929 40.0391 465.38 46.0803 479.841 44.6481C504.225 42.2331 513.083 20.6748 537.726 17.8641C546.079 16.9113 558.71 17.8317 575.226 28.0738L578.428 28.0634C560.424 15.2718 546.765 13.8309 537.394 15.0971C514.3 18.2174 505.779 39.3249 480.948 41.9918C467.882 43.3952 456.562 39.0193 448.925 35.0007C447.597 34.9975 446.269 34.9943 444.941 34.9911Z" fill="#76B779"/>
    <path d="M578.18 34.9873C595.154 43.6952 608.029 44.0214 616.417 42.8772C642.702 39.292 652.867 17.4572 676.737 17.5321C689.165 17.5711 699.182 23.5302 705.282 28.0599C706.237 28.0611 707.192 28.0623 708.147 28.0634C694.849 16.8455 684.006 14.7085 676.847 14.6545C653.408 14.4776 643.263 36.4358 616.085 40.3317C601.595 42.4089 589.063 38.3766 581.209 34.9905L578.18 34.9873Z" fill="#76B779"/>
    <path d="M710.788 34.9947C718.061 40.2465 728.459 45.7932 739.491 43.7627C755.801 40.7608 759.939 23.6929 776.605 19.5981C783.78 17.8351 794.554 18.163 809.898 28.0606L812.55 28.0609C794.731 15.2624 782.829 14.6367 774.982 16.9418C759.326 21.5405 755.487 39.0733 739.159 41.8811C729.507 43.5409 720.566 39.1829 714.296 34.9957C713.126 34.9953 711.957 34.995 710.788 34.9947Z" fill="#76B779"/>
    <path d="M814.955 34.9931C819.827 38.1992 827.321 42.0445 836.555 42.2132C858.284 42.6099 867.535 22.245 889.127 16.9787C899.451 14.4606 914.822 14.852 936.534 28.2863C937.876 28.3995 939.218 28.5127 940.56 28.6259C915.515 11.7737 898.952 11.6916 888.574 14.5438C868.697 20.0065 859.238 39.606 836.887 39.6676C830.25 39.6106 823.717 38.0112 817.804 34.9957C816.854 34.9949 815.905 34.994 814.955 34.9931Z" fill="#76B779"/>
    <path d="M942.44 35.713C946.569 38.605 951.123 40.8354 955.94 42.3239C963.469 44.634 970.024 44.5734 970.051 44.3714C965.338 43.7267 960.69 42.6713 956.161 41.2171C952.257 39.881 948.499 38.1504 944.946 36.0521C944.11 35.9391 943.275 35.826 942.44 35.713Z" fill="#76B779"/>
    <path d="M988.516 31.625C991.866 32.7213 994.959 34.4872 997.607 36.8153C1000.25 39.1435 1002.4 41.9854 1003.92 45.1684C1005.43 48.3515 1006.28 51.8094 1006.42 55.3321C1006.56 58.8548 1005.98 62.3688 1004.72 65.6609L1003.26 63.7362C1005.12 57.5054 1004.64 50.8135 1001.93 44.9062C999.217 38.9989 994.45 34.2789 988.516 31.625V31.625Z" fill="#76B779"/>
    <path d="M1000.89 72.2494C1000.26 82.8465 1002.22 93.4377 1006.61 103.106C1014.89 120.768 1027.3 124.15 1031.79 138.06C1034.42 146.21 1034.63 158.89 1022.75 178.194L1022.75 180.961C1037.32 159.553 1037.47 145.875 1034.56 137.175C1030.09 123.821 1017.69 120.015 1008.88 100.872C1005.12 92.5861 1002.93 83.6724 1002.43 74.5864C1001.92 73.8074 1001.4 73.0284 1000.89 72.2494Z" fill="#76B779"/>
    <path d="M1015.82 184.986C1013.41 189.821 1010.25 197.931 1011.24 207.509C1013.17 226.011 1028.77 232.242 1032.34 249.345C1033.89 256.745 1033.67 268.5 1022.75 285.279V288.046C1036.28 269.414 1036.85 256.783 1034.85 248.681C1030.95 232.842 1015.36 226.727 1013.09 207.878C1012.36 201.084 1013.32 194.215 1015.89 187.882L1015.82 184.986Z" fill="#76B779"/>
    <path d="M1015.82 292.088C1009.52 300.359 1009.12 306.243 1009.77 309.963C1011.78 321.512 1026.15 324.672 1027.58 336.083C1028.33 342.038 1025.19 347.305 1022.75 350.54L1022.75 351.993C1029 345.097 1029.85 339.901 1029.47 336.415C1028.21 325.102 1012.73 321.778 1010.98 309.852C1010.1 303.818 1013.13 298.335 1015.81 294.662L1015.82 292.088Z" fill="#76B779"/>
    <path d="M1015.82 354.877C1009.05 365.795 1009 373.435 1010.13 378.341C1013.12 391.204 1026.44 394.586 1028.43 407.117C1029.67 414.86 1025.9 421.893 1022.75 426.431V429.613C1031.05 419.546 1031.86 412.226 1031.16 407.486C1029.35 395.193 1016.11 391.535 1012.94 377.603C1011.09 369.49 1013.6 362.01 1015.82 357.202L1015.82 354.877Z" fill="#76B779"/>
    <path d="M1015.82 431.54C1008.4 442.61 1008.31 450.201 1009.4 454.93C1012.39 467.942 1027.27 472.146 1027.7 484.296C1027.89 489.927 1024.89 494.552 1022.75 497.237L1022.75 499.561C1026.34 495.827 1030.01 490.629 1029.76 484.592C1029.27 472.672 1013.94 468.563 1011.09 454.856C1010.08 449.965 1010.53 443.248 1015.82 434.381V431.54Z" fill="#76B779"/>
    <path d="M1015.82 501.71C1012.2 505.779 1008.04 511.875 1008.73 518.754C1009.91 530.546 1024.14 533.781 1028.14 546.46C1029.93 552.144 1030.12 561.166 1021.39 575.016L1020.97 577.285C1032.6 561.775 1032.9 552.126 1030.91 546.128C1027.02 534.456 1012.63 531.24 1011.32 519.049C1010.67 513.035 1013.52 507.801 1015.82 504.514V501.71Z" fill="#76B779"/>
    <path d="M1013.28 579.796C1009.56 584.263 1006.96 589.556 1005.71 595.232C1003.78 604.436 1007.17 608.128 1004.05 616.335C1002.26 621.337 998.873 625.614 994.418 628.509C990.52 630.91 986.009 632.127 981.432 632.014C986.042 632.394 990.662 631.406 994.714 629.173C999.559 626.322 1003.26 621.875 1005.19 616.593C1008.15 608.792 1005.06 604.977 1007.15 595.343C1008.18 590.641 1010.06 586.164 1012.68 582.125L1013.28 579.796Z" fill="#76B779"/>
    <path d="M997.001 639.983C997.064 640.333 990.231 642.707 981.801 642.934C972.39 643.188 966.73 640.613 962.47 639.688C942.876 635.435 931.042 661.361 907.498 664.948C898.802 666.273 885.711 664.976 867.933 651.561L872.47 651.556C887.78 663.167 899.182 664.259 906.393 663.447C930.198 660.764 941.56 633.571 961.584 637.474C966.077 638.35 970.601 640.712 979.883 641.164C989.645 641.638 996.936 639.623 997.001 639.983Z" fill="#76B779"/>
    <path d="M859.281 644.664C846.215 639.293 824.975 632.842 800.917 637.437C768.848 643.563 757.616 664.379 727.649 667.652C715.114 669.021 695.5 667.736 669.584 651.59L674.313 651.588C685.418 658.133 703.568 666.516 724.992 664.553C755.92 661.72 767.454 639.729 798.925 633.453C812.761 630.694 834.433 630.178 864.262 644.667L859.281 644.664Z" fill="#76B779"/>
    <path d="M664.037 644.687C651.154 638.458 640.62 637.651 632.355 638.876C610.917 642.054 603.216 659.13 583.214 660.348C572.328 661.011 562.681 656.679 555.065 651.586L558.275 651.567C563.675 654.63 572.348 658.476 582.771 657.913C602.953 656.821 610.581 640.23 630.473 636.441C638.605 634.893 651.06 635.05 668.132 644.663L664.037 644.687Z" fill="#76B779"/>
    <path d="M549.273 644.651C527.307 632.848 512.883 633.741 503.748 636.773C488.389 641.872 482.538 654.828 465.564 656.917C455.012 658.215 445.881 654.611 440.071 651.584H443.613C450.165 654.716 457.453 655.987 464.678 655.257C482.171 653.136 488.125 638.533 502.641 633.066C511.819 629.609 527.077 628.802 552.323 644.651L549.273 644.651Z" fill="#76B779"/>
    <path d="M436.493 644.699C425.159 635.342 416.761 634.257 411.147 635.039C396.579 637.07 392.128 652.885 376.026 656.068C366.737 657.905 358.204 654.622 352.47 651.582L349.186 651.586C361.832 658.828 370.85 658.786 376.542 657.618C392.27 654.389 397.166 639.573 412.18 637.991C421.167 637.044 428.928 641.349 433.652 644.656L436.493 644.699Z" fill="#76B779"/>
    <path d="M343.431 644.659C338.235 642.102 329.583 638.814 319.691 640.37C302.42 643.088 297.038 658.106 281.064 660.569C274.988 661.506 265.331 660.943 252.012 651.579L255.498 651.583C261.237 655.047 270.054 659.071 280.068 657.747C296.509 655.573 301.906 640.871 318.473 638.046C324.612 637 333.915 637.306 346.475 644.657L343.431 644.659Z" fill="#76B779"/>
    <path d="M247.944 644.659C242.921 641.619 235.444 638.27 227.644 640.094C217.346 642.502 214.939 651.951 204.641 655.533C199.415 657.351 191.182 657.998 178.634 651.591L180.69 651.591C186.805 654.03 195.311 656.168 203.756 653.264C214.324 649.631 216.651 640.901 226.316 638.323C231.472 636.947 239.267 637.176 250.6 644.659H247.944Z" fill="#76B779"/>
    <path d="M175.127 644.655C166.239 639.155 160.08 639.111 156.054 640.149C146.567 642.594 143.858 652.346 133.808 653.984C129.396 654.556 124.916 653.716 121.011 651.586L118.41 651.588C125.345 655.862 130.57 656.207 134.25 655.533C144.054 653.738 146.739 644.014 156.829 641.754C162.921 640.389 168.708 642.419 172.988 644.655H175.127Z" fill="#76B779"/>
    <path d="M113.48 644.655C100.881 635.725 91.2151 634.611 84.6116 635.335C72.9819 636.61 67.4533 643.96 59.0089 641.91C50.9138 639.944 46.2258 630.817 43.6255 623.984L45.2295 625.576C47.9039 631.28 52.4118 638.401 59.5984 640.094C68.0881 642.094 73.6296 634.944 84.0212 633.269C91.1384 632.121 101.672 633.358 116.069 644.659L113.48 644.655Z" fill="#76B779"/>
    <path d="M45.3947 615.708C45.0881 611.126 43.8752 604.984 39.3444 600.729C31.9806 593.815 21.6087 597.29 17.4301 591.064C15.7766 588.6 14.7742 584.141 18.4904 575.414C18.6191 576.098 18.7477 576.782 18.8762 577.465C17.2405 581.599 15.9684 586.871 18.4262 590.621C22.4531 596.765 32.7686 593.143 40.156 599.475C43.5126 602.352 46.5172 607.5 46.7931 617.26C46.3269 616.743 45.8608 616.225 45.3947 615.708Z" fill="#76B779"/>
    <path d="M24.5267 568.625C30.1619 559.396 29.8582 553.748 28.498 550.279C25.3031 542.13 14.6376 541.809 12.2284 534.009C10.5306 528.513 13.9362 522.549 17.0604 518.385L17.0598 520.986C15.0042 524.117 12.5214 529.002 13.8886 533.788C16.1852 541.828 27.2138 542.118 30.4902 549.892C32.026 553.536 32.245 559.742 24.7701 570.615L24.5267 568.625Z" fill="#76B779"/>
    <path d="M23.9954 513.617C27.8757 508.27 32.3657 500.169 30.8776 491.398C28.5162 477.48 13.1498 473.942 9.8488 459.745C8.55186 454.166 8.79209 445.544 17.0541 433.163L17.0568 436.816C13.8066 442.419 10.3751 450.579 12.2284 459.246C15.3589 473.887 30.8829 477.417 33.3125 490.9C34.2915 496.333 33.3424 504.481 23.9963 515.83L23.9954 513.617Z" fill="#76B779"/>
    <path d="M23.9879 426.901C27.3632 419.487 31.1935 407.891 28.0553 395.533C22.9748 375.526 3.68727 369.495 3.33725 353.254C3.2183 347.736 5.24806 339.291 17.0604 328.665V331.654C12.0455 336.702 6.43255 344.146 6.53753 353.096C6.72924 369.433 25.7937 375.553 30.7853 394.5C32.8483 402.331 32.9074 413.871 24.0156 430.083C24.0063 429.022 23.9971 427.962 23.9879 426.901Z" fill="#76B779"/>
    <path d="M23.9904 324.704C33.2302 315.786 34.4585 308.487 34.4745 304.519C34.4838 302.232 34.1043 297.556 21.7466 278.953C12.536 265.087 9.34725 262.567 8.90797 256.485C8.33726 248.583 12.9182 241.727 17.0604 237.043V240.621C14.4345 244.232 11.4841 249.592 11.7856 255.932C12.1125 262.803 16.0476 266.351 23.4068 276.85C32.9914 290.523 37.7837 297.36 37.7948 304.519C37.8022 309.238 35.9793 317.228 23.9906 327.001L23.9904 324.704Z" fill="#76B779"/>
    <path d="M23.9829 231.693C32.8396 219.498 34.1486 209.883 33.7367 203.397C32.2585 180.113 6.81397 168.925 9.46146 148.722C10.3856 142.973 13.0399 137.642 17.0705 133.439C17.0637 134.7 17.0568 135.96 17.0501 137.22C14.3671 140.553 12.5691 144.509 11.8226 148.722C8.58694 168.77 34.9488 180.476 36.9095 202.806C37.5483 210.082 35.8002 220.798 23.9846 234.682L23.9829 231.693Z" fill="#76B779"/>
    <path d="M23.9916 129.261C32.5178 118.862 37.3702 105.938 37.7949 92.4977C38.0244 81.6522 35.3223 70.9457 29.9737 61.508C36.3822 70.5914 39.9282 81.3835 40.1561 92.4977C40.4759 114.728 26.8922 129.321 23.9897 132.305L23.9916 129.261Z" fill="#76B779"/>
    <path d="M511.212 298.559C512.786 303.38 513.015 307.262 512.946 309.877C512.695 319.355 508.177 325.285 509.059 334.802C509.281 337.192 509.797 339.645 509.797 339.646C510.706 343.042 512.173 344.942 513.041 349.396C514.428 356.511 513.712 367.198 503 381.787C514.383 367.203 515.356 356.452 514.092 349.288C513.327 344.952 511.943 343.067 511.106 339.719C511.106 339.719 510.632 337.277 510.445 334.905C510.183 331.583 514.611 318.415 514.974 309.772C515.083 307.173 514.906 303.337 513.399 298.567C512.946 298.572 512.485 298.573 512.017 298.569C511.746 298.567 511.478 298.564 511.212 298.559V298.559Z" fill="#BD632F"/>
    <path d="M529 297.009C528.995 300.022 529.242 304.8 530.76 310.378C535.075 326.227 544.843 331.143 549.177 340.361C553.377 349.295 552.953 364.638 530.959 392.596C554.406 364.191 555.229 348.779 551.058 339.866C546.859 330.892 537.487 326.073 533.013 310.378C531.355 304.562 531.046 299.563 531.024 296.397L529 297.009V297.009Z" fill="#BD632F"/>
    <path d="M484.524 294.235C489.29 315.39 484.945 327.993 479.648 335.741C473.725 344.404 464.426 350.171 461.716 363.033C460.387 369.343 461.156 374.851 462.026 378.544C461.603 375.032 461.372 369.592 463.056 363.363C466.562 350.395 475.613 344.747 481.503 336.449C486.775 329.02 491.505 316.706 487.509 295.67L484.524 294.235Z" fill="#F38F56"/>
    <path d="M492.353 297.478C492.675 301.976 492.904 308.624 492.231 316.651C490.905 332.474 490.038 343.292 482.573 352.918C476.933 360.19 472.134 360.89 469.391 368.39C467.075 374.722 468.081 380.823 469.318 385.029C468.372 380.904 467.733 374.922 470.23 368.773C473.346 361.098 478.355 360.525 484.195 353.369C491.685 344.192 492.664 333.686 494.342 316.787C495.122 308.924 495.069 302.404 494.885 297.995L492.353 297.478H492.353Z" fill="#BD632F"/>
    <path d="M536.648 294.235C536.751 297.252 537.23 301.962 539.297 307.201C545.098 321.9 556.253 322.404 561.502 333.863C567.44 346.825 562.281 365.218 551.409 373.156C543.776 378.729 534.042 378.658 534 378.496C533.959 378.336 543.385 378.202 550.544 372.559C560.28 364.886 565.258 347.39 559.556 334.425C554.407 322.719 542.903 322.108 537.087 307.014C535.281 302.328 534.747 298.191 534.562 295.61C534.794 295.506 535.039 295.382 535.293 295.235C535.851 294.911 536.299 294.557 536.648 294.235V294.235Z" fill="#F38F56"/>
    <path d="M522 297.954C524.756 305.664 525.215 312.122 524.93 317.064C524.437 325.612 521.778 328.258 523.462 333.901C525.645 341.222 531.544 341.895 534.918 348.312C537.339 352.919 538.431 360.43 532.421 373.14C539.405 360.42 538.66 352.865 536.46 348.241C533.445 341.905 527.709 341.098 525.518 333.616C523.897 328.082 526.235 325.573 526.766 316.922C527.045 312.382 526.858 305.744 524.434 297.478C524.039 297.567 523.632 297.653 523.213 297.735C522.8 297.816 522.395 297.888 522 297.954H522Z" fill="#F38F56"/>
    <path d="M483 381.787C492.57 376.13 495.929 370.435 497.229 366.283C500.051 357.273 493.999 352.896 496.421 341.478C498.119 333.469 501.842 332.743 504.829 324.283C506.887 318.455 508.262 310.006 505.209 298.559L508.143 298.743C511.479 310.915 509.724 319.455 507.523 324.988C504.233 333.261 500.261 333.84 498.253 341.807C495.4 353.128 501.686 357.763 498.576 366.659C497.154 370.728 493.517 376.402 483 381.787Z" fill="#F38F56"/>
    <path d="M514.049 299.009C513.996 299.271 513.952 299.684 514.107 300.143C514.511 301.341 515.839 301.437 516.467 302.391C517.361 303.748 515.777 304.549 516.228 306.602C516.695 308.729 518.612 308.859 518.609 310.672C518.606 312.232 517.186 312.769 517.656 313.956C518.094 315.063 519.625 315.346 519.486 316.092C519.376 316.682 518.381 316.713 518.262 317.351C518.127 318.073 519.336 318.394 519.324 319.155C519.309 320.086 517.496 320.153 517.145 321.219C516.701 322.566 519.196 323.666 518.666 325.017C518.374 325.764 517.506 325.701 517.356 326.439C517.152 327.45 518.704 327.941 518.535 328.988C518.409 329.772 517.494 329.765 517.177 330.711C516.874 331.615 517.594 331.971 517.669 333.136C517.769 334.709 516.508 334.85 516.494 336.322C516.478 338.028 518.168 338.328 517.997 340.05C517.895 341.08 517.246 341.43 517.524 342.297C517.788 343.121 518.474 343.111 518.92 343.891C519.706 345.265 518.059 346.151 518.589 347.607C519.147 349.141 521.243 348.899 521.849 350.595C522.253 351.725 521.492 352.304 522.172 353.2C522.809 354.04 523.687 353.805 524.17 354.604C524.746 355.558 523.71 356.244 524.317 357.206C524.793 357.96 525.635 357.865 525.872 358.587C526.071 359.193 525.534 359.43 525.486 360.195C525.415 361.336 526.56 361.592 526.951 362.835C527.372 364.173 526.222 364.432 526.308 366.21C526.396 368.035 527.632 368.283 527.302 369.672C527.041 370.768 526.15 371.121 526.351 372.083C526.494 372.772 527 372.834 527.133 373.503C527.326 374.481 526.396 375.106 526.039 375.869C525.643 376.714 525.753 378.149 528.237 380.706C527.601 379.358 527.703 378.433 528.046 377.784C528.368 377.174 528.713 377.171 529.043 376.496C529.556 375.446 528.92 375.051 529.221 373.649C529.475 372.466 529.993 372.443 529.99 371.528C529.986 370.538 529.379 370.39 529.183 369.382C528.901 367.929 530.054 367.679 529.998 366.157C529.938 364.526 528.598 364.338 528.664 362.724C528.716 361.457 529.556 361.221 529.287 360.23C528.998 359.168 527.954 359.145 527.688 358.054C527.434 357.016 528.3 356.709 527.986 355.805C527.638 354.806 526.492 354.922 525.95 353.786C525.538 352.924 526.094 352.637 525.697 351.753C525.207 350.662 524.224 350.799 523.505 349.801C522.545 348.467 523.901 347.671 523.076 346.012C522.362 344.577 521.005 344.482 520.983 343.31C520.969 342.525 521.573 342.331 521.51 341.419C521.447 340.5 520.813 340.384 520.554 339.521C520.096 337.997 521.796 337.431 521.512 335.866C521.257 334.462 519.747 334.124 520.009 333.087C520.207 332.301 521.127 332.288 521.335 331.407C521.546 330.511 520.664 330.235 520.795 329.283C520.938 328.249 522.031 328.175 522.214 327.146C522.395 326.127 521.376 325.902 521.401 324.819C521.433 323.4 523.193 323.187 523.24 321.834C523.285 320.571 521.769 320.21 522.008 318.93C522.151 318.164 522.76 317.946 522.665 317.196C522.58 316.525 522.06 316.445 521.801 315.792C521.347 314.652 522.606 314.075 522.57 312.721C522.536 311.39 521.301 311.337 520.844 309.767C520.356 308.087 521.653 307.748 521.427 305.855C521.168 303.677 519.371 303.462 519.556 301.577C519.62 300.922 520.325 300.056 519.988 298.863C519.951 298.733 519.912 298.628 519.884 298.559L514.049 299.009L514.049 299.009Z" fill="#BD632F"/>
    <path d="M497.426 298.559C497.283 298.864 497.107 299.343 497.097 299.931C497.075 301.338 498.059 301.991 498.511 303.079C499.378 305.164 497.361 305.815 497.838 308.133C498.376 310.753 501.301 311.618 500.745 313.256C500.403 314.264 499.171 314.324 499.095 315.317C499.003 316.523 500.815 317.099 500.559 318.022C500.32 318.882 498.642 318.74 498.237 319.684C497.807 320.682 499.485 321.307 499.56 322.705C499.665 324.696 496.352 325.075 495.83 327.539C495.447 329.351 497.1 329.802 496.652 332.058C496.334 333.659 495.41 333.892 495.526 335.222C495.666 336.82 497.051 337.084 496.94 338.371C496.814 339.828 494.979 340.133 495 341.453C495.017 342.549 496.285 342.62 496.91 343.925C498.004 346.207 495.038 347.884 496.013 350.037C496.758 351.682 498.838 351.468 499.298 353.204C499.648 354.526 498.542 355.031 499.002 356.302C499.513 357.716 501.037 357.519 501.75 358.947C502.573 360.594 500.907 361.582 501.738 363.099C502.547 364.575 504.529 364.357 504.863 365.671C505.131 366.729 503.921 367.149 504.136 368.431C504.346 369.674 505.567 369.761 505.816 370.888C506.139 372.344 504.221 372.742 503.827 374.68C503.375 376.907 505.612 377.854 504.883 379.804C504.394 381.114 503.328 380.863 502.742 382.348C502.038 384.127 503.211 385.44 502.255 386.207C501.544 386.777 500.517 386.356 500.086 386.971C499.694 387.53 500.415 388.064 500.179 388.786C499.849 389.8 498.052 389.881 497.014 390.469C495.826 391.142 494.812 392.944 495.765 398C495.834 397.255 496.079 396.157 497.014 395.294C498.303 394.105 499.6 394.565 500.733 393.358C501.796 392.225 501.246 391.233 502.536 390.398C503.285 389.914 503.705 390.095 504.198 389.589C504.959 388.81 504.302 388.029 504.668 386.928C505.244 385.194 507.423 385.456 508.268 383.76C508.952 382.387 507.688 381.884 507.986 379.726C508.313 377.363 509.919 377.311 509.997 375.387C510.09 373.105 507.858 372.506 508.262 370.311C508.508 368.976 509.415 368.756 509.288 367.564C509.151 366.277 508.058 366.211 507.424 364.685C506.632 362.778 507.98 362.016 507.101 360.551C506.278 359.178 504.859 359.479 504.241 358.12C503.656 356.833 504.786 356.244 504.219 354.892C503.624 353.472 502.168 353.616 501.657 352.307C501.113 350.913 502.622 350.394 502.474 348.624C502.288 346.412 499.825 345.954 499.971 343.952C500.065 342.663 501.108 342.532 501.006 341.288C500.88 339.77 499.288 339.491 499.311 338.147C499.332 336.931 500.641 336.771 500.775 335.398C500.913 333.999 499.72 333.715 499.758 332.462C499.818 330.463 502.98 330.21 503.466 327.97C503.856 326.175 502.022 325.44 502.702 323.874C503.342 322.397 505.255 322.398 505.426 321.132C505.577 320.012 504.118 319.742 504.028 318.306C503.94 316.896 505.309 316.549 505.196 315.085C505.109 313.957 504.272 313.854 503.992 312.716C503.561 310.964 505.339 310.383 505.569 308.498C505.926 305.578 501.856 303.636 502.878 302.077C503.254 301.503 504.277 301.152 504.509 300.051C504.563 299.795 504.558 299.58 504.548 299.451L497.426 298.559L497.426 298.559Z" fill="#BD632F"/>
    <path d="M480.738 294.865C480.32 294.007 479.743 292.689 479.275 291.011C476.608 281.456 480.881 272.553 482.598 268.975C484.287 265.455 487.014 259.774 493.11 255.6C499.39 251.3 505.557 251.124 509.409 251.014C518.175 250.764 524.49 253.894 525.826 254.581C527.908 255.651 532.302 258.189 536.456 263.115C539.308 266.498 544.208 272.309 544.251 280.566C544.27 284.211 543.336 287.152 542.597 288.974C543.057 289.515 543.908 290.688 544.102 292.381C544.137 292.689 544.415 295.121 543.21 296.082C542.903 296.327 542.532 296.422 542.532 296.422C541.645 296.649 540.884 296.085 540.703 295.944C540.77 296.267 540.835 296.764 540.754 297.353C540.693 297.793 540.405 299.34 539.067 300.099C538.052 300.676 537.024 300.395 536.341 300.212C535.507 299.988 534.894 299.584 534.529 299.301C534.262 299.786 533.869 300.429 533.321 301.123C532.729 301.873 532.29 302.429 531.529 302.9C531.232 303.085 530.502 303.526 529.512 303.606C528.961 303.651 528.42 303.576 526.785 302.925C526.005 302.614 524.965 302.168 523.755 301.552C523.266 302.194 522.466 303.106 521.294 303.92C520.218 304.667 519.18 305.388 517.82 305.422C516.596 305.452 515.441 304.734 513.132 303.297C512.241 302.743 511.529 302.247 511.055 301.905C510.63 302.437 509.978 303.158 509.068 303.848C508.116 304.571 507.26 305.22 506.108 305.383C504.744 305.575 503.678 304.986 501.875 303.989C500.598 303.282 499.617 302.539 498.952 301.982C498.46 302.395 497.721 302.966 496.759 303.535C495.408 304.334 494.656 304.779 493.637 304.753C492.71 304.729 492.051 304.329 491.113 303.759C490.394 303.323 489.399 302.596 488.411 301.409C488.064 301.748 487.543 302.211 486.849 302.66C486.194 303.085 485.87 303.313 485.461 303.397C483.671 303.766 482.118 302.011 481.683 301.521C481.301 301.09 480.618 300.299 480.289 299.011C479.776 296.998 480.523 295.313 480.738 294.865H480.738Z" fill="#F38F56"/>
    <path d="M514.287 255.263C514.287 255.262 514.181 254.722 513.626 254.293C511.326 252.515 500.519 255.763 500.519 255.763C500.519 255.763 490.336 260.864 489.526 263.875C489.331 264.603 489.547 265.099 489.547 265.099C489.547 265.099 489.762 265.591 490.376 265.862C491.814 266.496 495.935 261.521 501.255 259.614C501.538 259.513 501.839 259.372 502.115 259.252C507.322 256.982 513.293 257.954 514.064 256.443C514.393 255.798 514.287 255.263 514.287 255.263H514.287Z" fill="#FCE4D6"/>
    <path d="M488.289 270.192C489.086 269.195 489.19 267.885 488.523 267.265C487.856 266.646 486.67 266.951 485.874 267.948C485.078 268.945 484.973 270.256 485.64 270.875C486.307 271.495 487.493 271.189 488.289 270.192Z" fill="#FCE4D6"/>
    <path d="M532.406 264.485C531.78 264.516 530.878 264.835 530.516 265.631C529.882 267.026 531.417 268.757 531.638 269.007C532.295 269.748 533.873 271.062 534.886 270.408C535.777 269.833 535.729 268.062 535.359 266.969C534.949 265.756 533.819 264.414 532.406 264.485H532.406Z" fill="#BD632F"/>
    <path d="M532.524 272.191C531.8 272.991 532.524 275.112 533.41 275.248C533.994 275.338 534.739 274.579 534.886 273.72C534.912 273.569 535.027 272.788 534.532 272.255C533.975 271.654 532.961 271.708 532.524 272.191V272.191Z" fill="#BD632F"/>
    <path d="M536.54 270.981C536.33 271.598 536.562 272.472 537.189 272.892C537.704 273.236 538.341 273.179 538.784 272.892C539.617 272.352 539.816 270.967 539.315 270.344C538.692 269.569 536.913 269.886 536.54 270.981Z" fill="#BD632F"/>
    <path d="M535.418 276.013C535.004 276.257 535.034 277.112 535.063 277.923C535.09 278.671 535.12 279.495 535.595 280.344C535.99 281.05 537.037 282.385 538.016 282.063C538.803 281.804 539.183 280.592 539.138 279.707C539.076 278.471 538.178 277.701 537.248 276.904C536.659 276.399 535.886 275.736 535.418 276.013H535.418Z" fill="#BD632F"/>
    <path d="M539.552 275.057C539.432 275.352 539.425 275.81 539.67 276.076C539.997 276.432 540.578 276.236 540.674 276.204C541.461 275.938 542.028 274.881 541.796 274.484C541.515 274.005 539.903 274.192 539.552 275.057Z" fill="#BD632F"/>
    <path d="M540.969 279.77C540.658 280.528 540.405 281.145 540.349 282.031C540.308 282.672 540.33 284.075 540.762 284.197C541.182 284.315 541.78 283.166 542.239 282.286C542.924 280.97 543.543 279.781 543.095 278.847C542.901 278.443 542.484 278.038 542.091 278.083C541.64 278.133 541.385 278.755 540.969 279.77H540.969Z" fill="#BD632F"/>
    <path d="M537.396 284.117C536.75 284.367 536.07 285.064 536.2 285.598C536.34 286.169 537.365 286.385 538.105 286.219C538.901 286.04 539.747 285.333 539.655 284.786C539.554 284.187 538.326 283.758 537.396 284.117Z" fill="#BD632F"/>
    <path d="M530.752 261.475C530.539 261.907 530.643 262.594 531.018 262.861C531.518 263.216 532.262 262.655 532.568 262.335C532.642 262.258 533.216 261.659 533.056 261.284C532.833 260.764 531.173 260.623 530.752 261.475H530.752Z" fill="#BD632F"/>
    <path d="M529.158 263.864C529.916 263.027 529.046 261.141 528.848 260.711C528.761 260.522 527.745 258.36 526.899 258.561C526.154 258.739 525.741 260.7 526.19 262.192C526.272 262.463 526.726 263.97 527.874 264.198C527.955 264.214 528.714 264.354 529.158 263.864L529.158 263.864Z" fill="#BD632F"/>
    <path d="M527.091 265.95C526.926 266.222 526.973 266.633 527.15 266.905C527.431 267.336 528.032 267.405 528.449 267.16C528.831 266.935 529.106 266.419 528.981 266.077C528.774 265.513 527.452 265.351 527.091 265.95H527.091Z" fill="#BD632F"/>
    <path d="M538.592 289.197C538.468 289.811 538.75 290.469 539.212 290.725C540.004 291.163 541.239 290.371 541.249 289.419C541.256 288.827 540.787 288.208 540.157 288.082C539.453 287.941 538.742 288.453 538.592 289.197Z" fill="#BD632F"/>
    <path d="M532.686 278.321C532.449 278.677 532.316 279.321 532.627 279.595C532.932 279.864 533.554 279.681 533.779 279.245C534.047 278.726 533.693 277.969 533.307 277.907C532.996 277.858 532.723 278.267 532.686 278.321L532.686 278.321Z" fill="#BD632F"/>
    <path d="M536.067 288.177C535.497 287.948 534.728 288.734 534.384 289.228C533.944 289.861 533.869 290.493 533.764 291.473C533.628 292.741 533.522 293.735 534.03 294.101C534.503 294.441 535.305 294.089 535.757 293.719C536.854 292.821 536.771 291.097 536.732 290.279C536.696 289.541 536.642 288.409 536.067 288.177Z" fill="#BD632F"/>
    <path d="M482.682 278.369C481.889 279.262 480.856 281.031 481.442 281.872C481.894 282.521 483.195 282.453 484.04 281.936C485.815 280.85 486.03 277.514 485.222 276.968C484.602 276.55 483.277 277.7 482.682 278.369L482.682 278.369Z" fill="#BD632F"/>
    <path d="M482.092 273.911C481.281 274.551 481.213 276.154 481.737 276.522C482.257 276.886 483.533 276.16 483.804 275.121C483.819 275.065 484.032 274.206 483.568 273.783C483.158 273.41 482.472 273.61 482.092 273.911H482.092Z" fill="#BD632F"/>
    <path d="M480.202 285.248C480.248 286.833 480.271 287.626 480.615 288.56C481.197 290.139 482.645 291.993 483.568 291.68C484.406 291.397 484.685 289.37 484.395 287.923C484.157 286.735 483.548 286.002 482.446 284.674C481.739 283.823 480.946 282.867 480.497 283.082C480.151 283.248 480.167 284.037 480.202 285.248Z" fill="#BD632F"/>
    <path d="M485.812 283.91C485.717 284.566 485.775 285.527 486.107 285.63C486.485 285.747 487.188 284.742 487.407 283.719C487.575 282.932 487.517 281.854 487.17 281.745C486.775 281.62 485.982 282.744 485.812 283.91V283.91Z" fill="#BD632F"/>
    <path d="M482.918 294.546C482.782 295.282 482.648 297.219 483.686 297.795C484.651 298.33 486.202 297.453 486.698 296.139C487.172 294.881 486.497 293.714 486.462 293.655C486.059 292.983 485.199 292.221 484.395 292.445C483.893 292.584 483.575 293.061 483.391 293.336C483.303 293.468 483.042 293.883 482.918 294.546Z" fill="#BD632F"/>
    <path d="M486.609 289.388C486.285 289.668 485.518 290.331 485.694 290.98C485.84 291.519 486.557 291.755 487.052 291.744C487.84 291.727 488.543 291.072 488.735 290.279C488.845 289.827 488.857 289.05 488.44 288.751C487.842 288.322 486.82 289.205 486.609 289.388L486.609 289.388Z" fill="#BD632F"/>
    <path d="M487.702 298.145C487.901 298.461 488.305 298.628 488.647 298.559C489.283 298.431 489.739 297.48 489.444 296.808C489.174 296.191 488.333 295.945 487.968 296.234C487.826 296.347 487.785 296.521 487.702 296.871C487.581 297.384 487.483 297.798 487.702 298.145V298.145Z" fill="#BD632F"/>
</svg>
