<svg viewBox="0 0 870 540" fill="none" xmlns="http://www.w3.org/2000/svg">
    <rect x="3" y="3" width="864" height="533.4" rx="77" fill="white" stroke="#116619" stroke-width="6"/>
    <path d="M473.073 494.324C479.479 494.868 481.376 494.153 482.562 493.488C485.224 491.994 484.683 490.409 488.33 486.8C490.034 485.113 491.759 483.705 495.958 481.505C496.966 480.977 504.304 478.046 505.076 477.789C510.355 476.034 515.222 473.107 516.705 472.216C521.939 469.068 524.574 467.433 525.45 464.413C526.166 461.943 525.974 458.273 523.682 456.61C521.736 455.2 519.134 455.852 518.147 456.099C515.604 456.737 514.177 458.199 511.309 460.976C506.856 465.288 504.633 467.449 503.773 468.036C500.231 470.453 493.988 471.827 492.33 472.402C490.578 473.009 487.875 473.946 485.446 472.804C482.777 471.549 481.966 468.503 481.849 468.036C481.249 465.642 482.113 463.59 483.864 459.583C489.314 447.119 489.966 446.064 491.772 444.72C493.048 443.771 494.7 443.035 498.005 441.562C504.266 438.772 505.101 439.46 508.239 437.475C511.044 435.701 510.223 435.163 515.681 430.415C518.038 428.366 519.538 427.073 521.821 425.678C525.095 423.678 525.861 423.985 529.357 422.055C532.887 420.108 537.284 417.681 536.986 415.274C536.734 413.247 533.219 411.781 530.752 411.652C528.072 411.512 525.31 412.87 524.426 413.324C523.66 413.717 521.905 414.586 518.844 417.318C516.466 419.441 514.491 421.204 512.053 424.099C508.81 427.95 509.186 428.534 506.75 430.694C504.134 433.015 501.91 433.928 500.238 434.596C498.475 435.299 496.433 436.114 495.865 435.432C495.226 434.662 496.955 432.583 498.842 429.208C499.897 427.322 500.848 424.886 502.75 420.012C504.296 416.049 505.867 412.023 507.215 406.729C509.093 399.359 510.108 395.13 507.774 392.331C507.606 392.129 505.64 389.844 502.843 390.008C500.499 390.146 499.017 391.918 498.749 392.238C497.284 393.99 497.176 396.054 497.075 397.532C496.814 401.36 496.047 405.139 495.679 408.958C495.679 408.958 495.153 414.422 493.354 420.662C492.978 421.963 492.155 424.635 486.655 435.617C481.388 446.135 480.763 446.438 479.12 450.944C477.802 454.557 476.462 458.23 475.584 463.391C474.387 470.43 475.092 474.105 473.259 474.817C470.863 475.747 466.839 470.564 466.095 469.615C462.669 465.243 461.823 460.601 461.444 458.375C460.831 454.781 461.592 455.335 461.444 446.207C461.338 439.728 460.936 438.3 462.002 435.617C462.761 433.707 464.028 432.146 466.56 429.022C469.881 424.927 470.692 424.62 472.421 422.055C472.832 421.447 474.881 418.354 476.143 413.881C476.823 411.469 479.399 402.339 475.398 399.297C473.989 398.226 471.879 397.998 470.189 398.554C467.813 399.335 466.781 401.492 466.56 401.991C465.775 403.768 466.227 405.004 466.281 407.565C466.327 409.724 466.002 411.388 465.351 414.717C464.528 418.927 462.152 426.99 459.862 426.886C458.588 426.828 458.354 424.288 456.141 419.176C454.816 416.116 452.267 410.352 447.582 405.614C445.847 403.859 440.009 397.954 435.86 399.669C434.026 400.427 432.915 402.772 432.697 404.685C432.441 406.93 433.452 408.65 433.906 409.422C434.529 410.482 435.271 411.249 437.069 412.674C439.885 414.905 441.377 415.649 443.488 417.132C445.156 418.303 447.261 419.783 449.256 422.055C450.003 422.906 452.48 425.856 454.001 430.508C455.326 434.561 456.503 438.159 454.745 440.633C451.988 444.515 444.072 442.72 442.651 442.398C441.149 442.058 433.579 440.341 430.65 434.317C429.209 431.353 429.538 428.678 426.743 422.891C426.211 421.791 425.531 420.505 424.138 419.919C422.081 419.054 419.283 420.058 417.905 421.87C417.535 422.356 416.45 423.976 417.346 428.465C417.792 430.696 419.092 436.731 424.696 441.655C430.175 446.47 436.587 447.426 437.907 447.6C444.459 448.463 449.158 446.304 451.303 449.086C451.992 449.98 451.962 450.793 452.14 452.616C452.644 457.754 454.063 463.306 455.769 467.014C458.41 472.757 461.906 474.441 460.978 477.603C460.542 479.092 459.405 479.963 458.839 480.39C455.705 482.758 450.917 482.104 447.861 480.204C445.052 478.458 445.766 476.944 442.093 472.402C440.037 469.859 437.786 468.085 433.286 464.537C428.058 460.415 425.411 458.37 423.812 459.134C422.217 459.896 421.668 462.71 422.184 464.785C422.653 466.67 423.904 467.552 427.022 469.986C432.957 474.621 435.925 476.939 437.72 478.997C437.937 479.245 439.853 481.456 442.102 483.913C442.233 484.056 442.263 484.088 442.279 484.106C443.68 485.608 444.746 486.733 446.465 487.728C448.273 488.774 449.722 489.051 451.582 489.493C456.467 490.654 455.572 490.906 460.699 492.187C463.943 492.998 466.944 493.803 473.073 494.324L473.073 494.324Z" fill="#D75047"/>
    <path d="M511.936 464.879C513.014 466.867 514.558 469.291 516.74 471.787C516.82 471.878 516.899 471.961 516.979 472.051C517.272 471.874 517.559 471.701 517.836 471.533C515.869 469.315 513.902 467.097 511.936 464.879Z" fill="#9D413B"/>
    <path d="M482.641 462.476C482.655 462.44 482.668 462.406 482.682 462.37L476.072 460.903C476.066 460.932 476.059 460.96 476.053 460.989C476.919 461.333 477.917 461.67 479.054 461.94C480.381 462.254 481.588 462.407 482.641 462.476V462.476Z" fill="#9D413B"/>
    <path d="M484.785 451.256C485.658 451.622 486.476 451.863 487.218 452.033C487.269 451.922 487.319 451.813 487.368 451.705C485.391 450.907 483.413 450.109 481.436 449.31C482.228 449.92 483.343 450.653 484.785 451.256V451.256Z" fill="#9D413B"/>
    <path d="M496.26 471.249C496.088 471.302 495.914 471.355 495.748 471.404C496.525 473.093 497.5 474.337 498.264 475.158C497.596 473.855 496.928 472.552 496.26 471.249Z" fill="#9D413B"/>
    <path d="M506.135 465.958C506.04 466.047 505.95 466.132 505.861 466.216C506.675 467.556 507.766 469.088 509.218 470.636C510.611 472.12 512.015 473.275 513.28 474.17C513.442 474.083 513.605 473.996 513.758 473.912C511.217 471.261 508.676 468.61 506.135 465.958Z" fill="#9D413B"/>
    <path d="M502.465 397.778C503.567 398.106 505.065 398.432 506.857 398.491C507.633 398.516 508.349 398.485 509.008 398.424C509.022 398.3 509.036 398.176 509.048 398.054C506.854 397.962 504.659 397.87 502.465 397.778L502.465 397.778Z" fill="#9D413B"/>
    <path d="M506.329 431.047C506.754 431.726 507.34 432.517 508.147 433.302C509.073 434.203 510.01 434.825 510.796 435.254C510.851 435.191 510.905 435.13 510.962 435.064C509.469 433.682 507.976 432.3 506.483 430.918C506.431 430.963 506.381 431.004 506.329 431.047Z" fill="#9D413B"/>
    <path d="M512.945 425.408C513.852 426.325 514.763 426.931 515.457 427.32C514.369 426.192 513.282 425.063 512.195 423.935C512.147 423.991 512.101 424.042 512.053 424.099C512.014 424.146 511.981 424.186 511.943 424.232C512.23 424.615 512.551 425.01 512.945 425.408Z" fill="#9D413B"/>
    <path d="M522.766 416.897C523.172 417.767 523.867 418.986 525.031 420.186C526.178 421.371 527.382 422.123 528.333 422.596C528.428 422.548 528.525 422.499 528.625 422.447C526.672 420.597 524.719 418.747 522.766 416.897V416.897Z" fill="#9D413B"/>
    <path d="M524.178 413.452C524.45 413.955 524.793 414.497 525.237 415.047C526.431 416.529 527.772 417.365 528.613 417.802C527.262 416.286 525.911 414.771 524.559 413.256C524.513 413.28 524.466 413.304 524.426 413.324C524.353 413.361 524.269 413.405 524.178 413.452V413.452Z" fill="#9D413B"/>
    <path d="M536.561 416.842C535.518 415.819 534.475 414.795 533.431 413.772C533.716 414.288 534.154 414.954 534.811 415.622C535.4 416.222 535.993 416.647 536.495 416.949C536.518 416.913 536.539 416.878 536.561 416.842Z" fill="#9D413B"/>
    <path d="M455.057 433.942C455.657 433.984 456.304 434.004 457.003 433.981C458.322 433.936 459.476 433.758 460.421 433.549C458.619 433.629 456.817 433.709 455.015 433.79C455.029 433.841 455.044 433.892 455.057 433.942H455.057Z" fill="#9D413B"/>
    <path d="M463.369 421.855C463.847 422.274 464.435 422.725 465.157 423.147C466.236 423.778 467.239 424.133 467.998 424.339C466.474 423.458 464.951 422.576 463.427 421.695C463.408 421.748 463.388 421.802 463.369 421.855H463.369Z" fill="#9D413B"/>
    <path d="M471.704 416.404C473.034 416.632 474.218 416.674 475.211 416.642C475.231 416.591 475.25 416.541 475.27 416.49C472.572 415.981 469.873 415.473 467.174 414.965C468.265 415.484 469.799 416.076 471.704 416.404Z" fill="#9D413B"/>
    <path d="M468.08 404.192C469.512 404.375 471.304 404.48 473.351 404.316C474.928 404.189 476.31 403.928 477.489 403.633C477.485 403.6 477.484 403.566 477.479 403.533C474.346 403.753 471.213 403.972 468.08 404.192Z" fill="#9D413B"/>
    <path d="M466.224 406.351C467.115 406.501 468.149 406.615 469.316 406.618C470.961 406.623 472.373 406.411 473.475 406.166C471.056 406.191 468.636 406.217 466.217 406.242L466.224 406.351L466.224 406.351Z" fill="#9D413B"/>
    <path d="M493.685 419.468C494.344 419.736 495.097 419.991 495.958 420.186C497.55 420.546 498.933 420.58 499.939 420.529C497.881 420.071 495.824 419.613 493.766 419.154C493.739 419.259 493.713 419.362 493.685 419.468H493.685Z" fill="#9D413B"/>
    <path d="M497.38 395.087C498.546 395.528 500.079 395.977 501.916 396.188C504.078 396.437 505.91 396.27 507.214 396.051C503.948 395.68 500.681 395.309 497.415 394.938C497.402 394.988 497.392 395.037 497.38 395.087Z" fill="#9D413B"/>
    <path d="M496.654 401.524C498.175 402.026 500.015 402.508 502.163 402.794C504.438 403.097 506.464 403.104 508.142 402.995L508.18 402.834C504.343 402.36 500.505 401.886 496.668 401.412C496.663 401.449 496.659 401.487 496.654 401.524V401.524Z" fill="#9D413B"/>
    <path d="M458.019 456.793C459.228 456.798 460.306 456.683 461.218 456.525C461.215 456.467 461.213 456.409 461.21 456.352C458.801 456.344 456.392 456.335 453.983 456.327C455.042 456.571 456.414 456.787 458.019 456.793L458.019 456.793Z" fill="#9D413B"/>
    <path d="M435.59 406.084C436.638 405.447 437.995 404.475 439.337 403.041C440.157 402.165 440.789 401.306 441.292 400.524C441.209 400.479 441.126 400.435 441.043 400.391C439.225 402.289 437.408 404.186 435.59 406.084Z" fill="#9D413B"/>
    <path d="M434.781 410.622C435.553 410.192 436.427 409.62 437.32 408.838C438.746 407.589 439.672 406.292 440.243 405.344C438.366 407.037 436.488 408.73 434.611 410.423C434.665 410.489 434.722 410.556 434.781 410.622H434.781Z" fill="#9D413B"/>
    <path d="M453.043 412.892C453.024 412.859 453.004 412.826 452.985 412.793C451.263 414.421 449.542 416.05 447.82 417.678C448.705 417.205 449.866 416.465 451.032 415.335C451.919 414.475 452.565 413.623 453.043 412.892L453.043 412.892Z" fill="#9D413B"/>
    <path d="M417.017 425.892C417.019 425.932 417.02 425.971 417.023 426.011C417.959 425.802 418.986 425.521 420.079 425.134C421.651 424.577 422.991 423.935 424.088 423.325C421.731 424.181 419.374 425.036 417.017 425.892H417.017Z" fill="#9D413B"/>
    <path d="M429.66 463.646C429.952 463.147 430.165 462.67 430.331 462.232C430.282 462.194 430.233 462.157 430.184 462.12C429.254 463.506 428.325 464.891 427.396 466.277C428.037 465.758 428.924 464.908 429.66 463.646Z" fill="#9D413B"/>
    <path d="M427.875 460.447C426.444 462.681 425.012 464.916 423.581 467.15C423.615 467.184 423.651 467.219 423.687 467.253C424.535 466.305 425.451 465.144 426.325 463.728C427.026 462.592 427.566 461.509 427.99 460.526C427.952 460.501 427.912 460.472 427.875 460.447Z" fill="#9D413B"/>
    <path d="M430.913 473.035C431.429 472.649 431.986 472.175 432.543 471.581C433.695 470.353 434.392 469.114 434.808 468.21C433.457 469.777 432.107 471.344 430.756 472.911C430.807 472.952 430.863 472.995 430.913 473.035Z" fill="#9D413B"/>
    <path d="M444.944 476.688C444.242 477.672 443.54 478.656 442.838 479.64C443.207 479.417 443.8 478.996 444.32 478.283C444.695 477.77 444.908 477.273 445.04 476.866C445.01 476.809 444.976 476.747 444.944 476.688H444.944Z" fill="#9D413B"/>
    <path d="M458.847 472.088C459.235 472.023 459.68 471.911 460.16 471.705C461.022 471.334 461.61 470.832 461.945 470.499C460.864 470.962 459.784 471.425 458.703 471.889C458.751 471.955 458.8 472.024 458.847 472.088L458.847 472.088Z" fill="#9D413B"/>
    <path d="M432.79 439.799C433.268 439.277 433.612 438.768 433.864 438.33C433.845 438.314 433.825 438.299 433.806 438.282C432.9 439.263 431.994 440.243 431.088 441.224C431.566 440.921 432.182 440.463 432.79 439.799L432.79 439.799Z" fill="#9D413B"/>
    <path d="M426.399 443.004C427.071 442.551 427.809 441.988 428.562 441.279C429.616 440.286 430.393 439.3 430.951 438.483C429.387 439.956 427.823 441.428 426.26 442.901C426.306 442.935 426.353 442.97 426.399 443.004Z" fill="#9D413B"/>
    <path d="M428.532 427.31C426.703 428.056 424.873 428.801 423.044 429.547C423.816 429.512 425.006 429.366 426.339 428.807C427.295 428.406 428.039 427.912 428.587 427.477C428.57 427.423 428.549 427.365 428.532 427.31Z" fill="#9D413B"/>
    <path d="M506.13 411.429L502.506 410.798C502.956 411.004 503.584 411.234 504.359 411.36C505.058 411.474 505.666 411.467 506.13 411.429Z" fill="#9D413B"/>
    <path d="M495.917 431.589C496.393 431.786 496.831 431.893 497.208 431.958L497.284 431.834C496.238 431.378 495.192 430.921 494.146 430.465C494.507 430.793 495.093 431.249 495.917 431.589V431.589Z" fill="#9D413B"/>
    <path d="M448.953 412.683C449.351 412.527 450.015 412.208 450.641 411.572C451.047 411.16 451.311 410.744 451.485 410.407C451.466 410.379 451.449 410.352 451.43 410.324C450.604 411.11 449.779 411.896 448.953 412.683H448.953Z" fill="#9D413B"/>
    <path d="M443.606 444.267C443.369 445.441 443.133 446.615 442.896 447.789L442.985 447.786C443.162 447.416 443.343 446.955 443.469 446.405C443.67 445.533 443.657 444.782 443.606 444.267Z" fill="#9D413B"/>
    <path d="M459.803 458.794C460.463 458.79 461.028 458.693 461.479 458.581L461.463 458.488L457.525 458.438C458.05 458.61 458.837 458.801 459.803 458.794Z" fill="#9D413B"/>
    <path d="M515.832 457.07C516.345 457.842 516.93 458.65 517.619 459.479C519.022 461.172 520.444 462.486 521.682 463.481C519.795 461.308 517.908 459.135 516.021 456.962C515.958 456.998 515.894 457.032 515.832 457.07Z" fill="#9D413B"/>
    <path d="M142.073 204.324C148.479 204.868 150.376 204.153 151.562 203.488C154.224 201.994 153.683 200.409 157.33 196.8C159.034 195.113 160.759 193.705 164.958 191.505C165.966 190.977 173.304 188.046 174.076 187.789C179.355 186.034 184.222 183.107 185.705 182.216C190.939 179.068 193.574 177.433 194.45 174.413C195.166 171.943 194.974 168.273 192.682 166.61C190.736 165.2 188.134 165.852 187.147 166.099C184.604 166.737 183.177 168.199 180.309 170.976C175.856 175.288 173.633 177.449 172.773 178.036C169.231 180.453 162.988 181.827 161.33 182.402C159.578 183.009 156.875 183.946 154.446 182.804C151.777 181.549 150.966 178.503 150.849 178.036C150.249 175.642 151.113 173.59 152.864 169.583C158.314 157.119 158.966 156.064 160.772 154.72C162.048 153.771 163.7 153.035 167.005 151.562C173.266 148.772 174.101 149.46 177.239 147.475C180.044 145.701 179.223 145.163 184.681 140.415C187.038 138.366 188.538 137.073 190.821 135.678C194.095 133.678 194.861 133.985 198.357 132.055C201.887 130.108 206.284 127.681 205.986 125.274C205.734 123.247 202.219 121.781 199.752 121.652C197.072 121.512 194.31 122.87 193.426 123.324C192.66 123.717 190.905 124.586 187.844 127.318C185.466 129.441 183.491 131.204 181.053 134.099C177.81 137.95 178.186 138.534 175.75 140.694C173.134 143.015 170.91 143.928 169.238 144.596C167.475 145.299 165.433 146.114 164.865 145.432C164.226 144.662 165.955 142.583 167.842 139.208C168.897 137.322 169.848 134.886 171.75 130.012C173.296 126.049 174.867 122.023 176.215 116.729C178.093 109.359 179.108 105.13 176.774 102.331C176.606 102.129 174.64 99.8444 171.843 100.008C169.499 100.146 168.017 101.918 167.749 102.238C166.284 103.99 166.176 106.054 166.075 107.532C165.814 111.36 165.047 115.139 164.679 118.958C164.679 118.958 164.153 124.422 162.354 130.662C161.978 131.963 161.155 134.635 155.655 145.617C150.388 156.135 149.763 156.438 148.12 160.944C146.802 164.557 145.462 168.23 144.584 173.391C143.387 180.43 144.092 184.105 142.259 184.817C139.863 185.747 135.839 180.564 135.095 179.615C131.669 175.243 130.823 170.601 130.444 168.375C129.831 164.781 130.592 165.335 130.444 156.207C130.338 149.728 129.936 148.3 131.002 145.617C131.761 143.707 133.028 142.146 135.56 139.022C138.881 134.927 139.692 134.62 141.421 132.055C141.832 131.447 143.881 128.354 145.143 123.881C145.823 121.469 148.399 112.339 144.398 109.297C142.989 108.226 140.879 107.998 139.189 108.554C136.813 109.335 135.781 111.492 135.56 111.991C134.775 113.768 135.227 115.004 135.281 117.565C135.327 119.724 135.002 121.388 134.351 124.717C133.528 128.927 131.152 136.99 128.862 136.886C127.588 136.828 127.354 134.288 125.141 129.176C123.816 126.116 121.267 120.352 116.582 115.614C114.847 113.859 109.009 107.954 104.86 109.669C103.026 110.427 101.915 112.772 101.697 114.685C101.441 116.93 102.452 118.65 102.906 119.422C103.529 120.482 104.271 121.249 106.069 122.674C108.885 124.905 110.377 125.649 112.488 127.132C114.156 128.303 116.261 129.783 118.256 132.055C119.003 132.906 121.48 135.856 123.001 140.508C124.326 144.561 125.503 148.159 123.745 150.633C120.988 154.515 113.072 152.72 111.651 152.398C110.149 152.058 102.579 150.341 99.6501 144.317C98.2089 141.353 98.5379 138.678 95.7427 132.891C95.211 131.791 94.5311 130.505 93.1378 129.919C91.0806 129.054 88.2826 130.058 86.9047 131.87C86.5345 132.356 85.4495 133.976 86.3465 138.465C86.7924 140.696 88.0924 146.731 93.696 151.655C99.1751 156.47 105.587 157.426 106.907 157.6C113.459 158.463 118.158 156.304 120.303 159.086C120.992 159.98 120.962 160.793 121.14 162.616C121.644 167.754 123.063 173.306 124.769 177.014C127.41 182.757 130.906 184.441 129.978 187.603C129.542 189.092 128.405 189.963 127.839 190.39C124.705 192.758 119.917 192.104 116.861 190.204C114.052 188.458 114.766 186.944 111.093 182.402C109.037 179.859 106.786 178.085 102.286 174.537C97.0578 170.415 94.411 168.37 92.8122 169.134C91.217 169.896 90.6677 172.71 91.1841 174.785C91.6533 176.67 92.9042 177.552 96.0218 179.986C101.957 184.621 104.925 186.939 106.72 188.997C106.937 189.245 108.853 191.456 111.102 193.913C111.233 194.056 111.263 194.088 111.279 194.106C112.68 195.608 113.746 196.733 115.465 197.728C117.273 198.774 118.722 199.051 120.582 199.493C125.467 200.654 124.572 200.906 129.699 202.187C132.943 202.998 135.944 203.803 142.073 204.324L142.073 204.324Z" fill="#D75047"/>
    <path d="M180.936 174.879C182.014 176.867 183.558 179.291 185.74 181.787C185.82 181.878 185.899 181.961 185.979 182.051C186.272 181.874 186.559 181.701 186.836 181.533C184.869 179.315 182.902 177.097 180.936 174.879Z" fill="#9D413B"/>
    <path d="M151.641 172.476C151.655 172.44 151.668 172.406 151.682 172.37L145.072 170.903C145.066 170.932 145.059 170.96 145.053 170.989C145.919 171.333 146.917 171.67 148.054 171.939C149.381 172.254 150.588 172.407 151.641 172.476V172.476Z" fill="#9D413B"/>
    <path d="M153.785 161.256C154.658 161.621 155.476 161.863 156.218 162.033C156.269 161.922 156.319 161.813 156.368 161.705C154.391 160.907 152.413 160.108 150.436 159.31C151.228 159.92 152.343 160.652 153.785 161.256V161.256Z" fill="#9D413B"/>
    <path d="M165.26 181.249C165.088 181.302 164.914 181.355 164.748 181.404C165.525 183.093 166.5 184.337 167.264 185.158C166.596 183.855 165.928 182.552 165.26 181.249Z" fill="#9D413B"/>
    <path d="M175.134 175.958C175.04 176.047 174.95 176.132 174.861 176.216C175.675 177.556 176.766 179.088 178.218 180.636C179.611 182.12 181.015 183.275 182.28 184.17C182.442 184.083 182.605 183.996 182.758 183.912C180.217 181.261 177.676 178.61 175.134 175.958Z" fill="#9D413B"/>
    <path d="M171.465 107.778C172.567 108.106 174.064 108.432 175.857 108.491C176.633 108.516 177.349 108.485 178.008 108.424C178.022 108.3 178.036 108.175 178.048 108.054C175.854 107.962 173.659 107.87 171.465 107.778L171.465 107.778Z" fill="#9D413B"/>
    <path d="M175.329 141.047C175.754 141.726 176.34 142.517 177.147 143.302C178.073 144.203 179.01 144.825 179.796 145.254C179.851 145.191 179.904 145.13 179.962 145.064C178.469 143.682 176.976 142.3 175.483 140.918C175.431 140.963 175.381 141.004 175.329 141.047Z" fill="#9D413B"/>
    <path d="M181.945 135.408C182.852 136.325 183.763 136.931 184.457 137.32C183.369 136.191 182.282 135.063 181.195 133.935C181.147 133.991 181.101 134.042 181.053 134.099C181.014 134.146 180.981 134.186 180.943 134.232C181.229 134.615 181.551 135.01 181.945 135.408Z" fill="#9D413B"/>
    <path d="M191.766 126.897C192.172 127.767 192.867 128.986 194.031 130.186C195.178 131.37 196.382 132.123 197.333 132.596C197.428 132.548 197.525 132.499 197.625 132.447C195.672 130.597 193.719 128.747 191.766 126.897V126.897Z" fill="#9D413B"/>
    <path d="M193.178 123.452C193.45 123.955 193.793 124.497 194.237 125.047C195.431 126.529 196.772 127.365 197.613 127.802C196.262 126.286 194.911 124.771 193.559 123.256C193.513 123.28 193.466 123.304 193.426 123.324C193.353 123.361 193.269 123.404 193.178 123.452V123.452Z" fill="#9D413B"/>
    <path d="M205.561 126.842C204.518 125.819 203.474 124.795 202.431 123.772C202.716 124.288 203.154 124.954 203.811 125.622C204.4 126.222 204.993 126.647 205.495 126.949C205.518 126.913 205.539 126.877 205.561 126.842Z" fill="#9D413B"/>
    <path d="M124.057 143.942C124.657 143.984 125.304 144.004 126.003 143.981C127.322 143.936 128.476 143.758 129.421 143.549C127.619 143.629 125.817 143.709 124.015 143.79C124.029 143.841 124.044 143.892 124.057 143.942H124.057Z" fill="#9D413B"/>
    <path d="M132.369 131.855C132.847 132.274 133.435 132.724 134.157 133.147C135.236 133.778 136.239 134.133 136.998 134.339C135.474 133.458 133.951 132.576 132.427 131.695C132.408 131.748 132.388 131.802 132.369 131.855H132.369Z" fill="#9D413B"/>
    <path d="M140.704 126.404C142.034 126.632 143.218 126.674 144.211 126.642C144.231 126.591 144.25 126.541 144.27 126.49C141.571 125.981 138.873 125.473 136.174 124.964C137.265 125.484 138.799 126.076 140.704 126.404Z" fill="#9D413B"/>
    <path d="M137.08 114.192C138.512 114.375 140.304 114.48 142.351 114.316C143.928 114.189 145.309 113.928 146.489 113.633C146.485 113.6 146.484 113.566 146.479 113.533C143.346 113.753 140.213 113.972 137.08 114.192Z" fill="#9D413B"/>
    <path d="M135.224 116.351C136.115 116.501 137.149 116.615 138.316 116.618C139.961 116.623 141.373 116.411 142.475 116.166C140.056 116.191 137.636 116.217 135.217 116.242L135.224 116.351L135.224 116.351Z" fill="#9D413B"/>
    <path d="M162.685 129.468C163.344 129.736 164.097 129.991 164.958 130.186C166.55 130.546 167.933 130.58 168.939 130.529C166.881 130.071 164.824 129.612 162.766 129.154C162.739 129.259 162.713 129.362 162.685 129.468H162.685Z" fill="#9D413B"/>
    <path d="M166.38 105.087C167.546 105.528 169.079 105.977 170.916 106.188C173.078 106.437 174.91 106.27 176.214 106.051C172.948 105.68 169.681 105.309 166.415 104.938C166.402 104.988 166.392 105.037 166.38 105.087Z" fill="#9D413B"/>
    <path d="M165.654 111.524C167.175 112.026 169.015 112.508 171.163 112.794C173.438 113.097 175.464 113.104 177.142 112.995L177.18 112.834C173.343 112.36 169.505 111.886 165.668 111.412C165.663 111.449 165.659 111.486 165.654 111.524V111.524Z" fill="#9D413B"/>
    <path d="M127.019 166.793C128.228 166.798 129.306 166.683 130.218 166.525C130.215 166.467 130.213 166.409 130.21 166.352C127.801 166.343 125.392 166.335 122.983 166.327C124.042 166.57 125.414 166.787 127.019 166.793L127.019 166.793Z" fill="#9D413B"/>
    <path d="M104.59 116.083C105.638 115.447 106.995 114.475 108.337 113.041C109.157 112.165 109.789 111.306 110.292 110.524C110.209 110.479 110.126 110.435 110.043 110.391C108.225 112.289 106.408 114.186 104.59 116.083Z" fill="#9D413B"/>
    <path d="M103.781 120.622C104.553 120.192 105.427 119.62 106.32 118.838C107.746 117.589 108.672 116.292 109.243 115.343C107.366 117.037 105.488 118.73 103.611 120.423C103.665 120.489 103.722 120.556 103.781 120.622H103.781Z" fill="#9D413B"/>
    <path d="M122.043 122.892C122.024 122.859 122.004 122.826 121.985 122.793C120.263 124.421 118.542 126.05 116.82 127.678C117.705 127.205 118.866 126.465 120.032 125.335C120.919 124.475 121.565 123.623 122.043 122.892L122.043 122.892Z" fill="#9D413B"/>
    <path d="M86.0168 135.892C86.0186 135.932 86.0204 135.971 86.0225 136.011C86.9594 135.802 87.9862 135.521 89.0794 135.134C90.6513 134.577 91.9909 133.935 93.0875 133.325C90.7306 134.18 88.3737 135.036 86.0168 135.892H86.0168Z" fill="#9D413B"/>
    <path d="M98.6604 173.646C98.9516 173.147 99.1651 172.67 99.3314 172.232C99.2816 172.194 99.2326 172.157 99.1835 172.12C98.2542 173.506 97.3249 174.891 96.3956 176.277C97.0375 175.758 97.9242 174.908 98.6604 173.646Z" fill="#9D413B"/>
    <path d="M96.8747 170.447C95.4435 172.681 94.0124 174.915 92.5813 177.15C92.6152 177.184 92.6514 177.219 92.6867 177.253C93.5355 176.305 94.4512 175.144 95.3249 173.728C96.0263 172.592 96.5657 171.509 96.9904 170.526C96.9523 170.501 96.9123 170.472 96.8747 170.447Z" fill="#9D413B"/>
    <path d="M99.9133 183.035C100.429 182.649 100.986 182.175 101.543 181.581C102.695 180.353 103.392 179.114 103.808 178.21C102.457 179.777 101.107 181.344 99.7559 182.911C99.8074 182.952 99.8625 182.995 99.9133 183.035Z" fill="#9D413B"/>
    <path d="M113.944 186.688C113.242 187.672 112.54 188.656 111.838 189.64C112.207 189.417 112.8 188.996 113.32 188.283C113.695 187.77 113.908 187.273 114.04 186.866C114.01 186.809 113.976 186.747 113.944 186.688H113.944Z" fill="#9D413B"/>
    <path d="M127.847 182.088C128.235 182.023 128.68 181.911 129.16 181.704C130.022 181.334 130.61 180.832 130.945 180.498C129.864 180.962 128.784 181.425 127.703 181.889C127.751 181.955 127.8 182.023 127.847 182.088L127.847 182.088Z" fill="#9D413B"/>
    <path d="M101.79 149.799C102.268 149.277 102.612 148.768 102.864 148.33C102.845 148.314 102.825 148.299 102.806 148.282C101.9 149.263 100.994 150.243 100.088 151.224C100.566 150.921 101.182 150.463 101.79 149.799L101.79 149.799Z" fill="#9D413B"/>
    <path d="M95.3993 153.004C96.071 152.551 96.8092 151.988 97.5623 151.279C98.6163 150.286 99.3933 149.3 99.9507 148.483C98.3871 149.956 96.8234 151.428 95.2598 152.901C95.3063 152.935 95.3527 152.97 95.3993 153.004Z" fill="#9D413B"/>
    <path d="M97.5316 137.31C95.7025 138.056 93.8734 138.801 92.0443 139.547C92.8159 139.512 94.0063 139.366 95.3386 138.807C96.2945 138.406 97.0386 137.912 97.587 137.477C97.5698 137.423 97.5494 137.365 97.5316 137.31Z" fill="#9D413B"/>
    <path d="M175.13 121.429L171.506 120.798C171.956 121.003 172.584 121.234 173.359 121.36C174.058 121.473 174.666 121.467 175.13 121.429Z" fill="#9D413B"/>
    <path d="M164.917 141.589C165.393 141.786 165.831 141.893 166.208 141.958L166.284 141.834C165.238 141.377 164.192 140.921 163.146 140.465C163.507 140.793 164.093 141.249 164.917 141.589V141.589Z" fill="#9D413B"/>
    <path d="M117.953 122.683C118.351 122.527 119.015 122.208 119.641 121.572C120.047 121.16 120.311 120.744 120.485 120.407C120.466 120.379 120.449 120.352 120.43 120.324C119.604 121.11 118.779 121.896 117.953 122.683H117.953Z" fill="#9D413B"/>
    <path d="M112.606 154.266C112.369 155.441 112.133 156.615 111.896 157.789L111.985 157.785C112.162 157.416 112.343 156.954 112.469 156.405C112.67 155.533 112.656 154.782 112.606 154.266Z" fill="#9D413B"/>
    <path d="M128.803 168.794C129.463 168.789 130.028 168.693 130.479 168.581L130.463 168.488L126.525 168.438C127.05 168.61 127.837 168.801 128.803 168.794Z" fill="#9D413B"/>
    <path d="M184.832 167.07C185.345 167.842 185.93 168.65 186.618 169.479C188.022 171.172 189.444 172.486 190.681 173.481C188.795 171.308 186.908 169.135 185.021 166.962C184.958 166.998 184.894 167.032 184.832 167.07Z" fill="#9D413B"/>
    <path d="M298.073 439.324C304.479 439.868 306.376 439.153 307.562 438.488C310.224 436.994 309.683 435.409 313.33 431.8C315.034 430.113 316.759 428.705 320.958 426.505C321.966 425.977 329.304 423.046 330.076 422.789C335.355 421.034 340.222 418.107 341.705 417.216C346.939 414.068 349.574 412.433 350.45 409.413C351.166 406.943 350.974 403.273 348.682 401.61C346.736 400.2 344.134 400.852 343.147 401.099C340.604 401.737 339.177 403.199 336.309 405.976C331.856 410.288 329.633 412.449 328.773 413.036C325.231 415.453 318.988 416.827 317.33 417.402C315.578 418.009 312.875 418.946 310.446 417.804C307.777 416.549 306.966 413.503 306.849 413.036C306.249 410.642 307.113 408.59 308.864 404.583C314.314 392.119 314.966 391.064 316.772 389.72C318.048 388.771 319.7 388.035 323.005 386.562C329.266 383.772 330.101 384.46 333.239 382.475C336.044 380.701 335.223 380.163 340.681 375.415C343.038 373.366 344.538 372.073 346.821 370.678C350.095 368.678 350.861 368.985 354.357 367.055C357.887 365.108 362.284 362.681 361.986 360.274C361.734 358.247 358.219 356.781 355.752 356.652C353.072 356.512 350.31 357.87 349.426 358.324C348.66 358.717 346.905 359.586 343.844 362.318C341.466 364.441 339.491 366.204 337.053 369.099C333.81 372.95 334.186 373.534 331.75 375.694C329.134 378.015 326.91 378.928 325.238 379.596C323.475 380.299 321.433 381.114 320.865 380.432C320.226 379.662 321.955 377.583 323.842 374.208C324.897 372.322 325.848 369.886 327.75 365.012C329.296 361.049 330.867 357.023 332.215 351.729C334.093 344.359 335.108 340.13 332.774 337.331C332.606 337.129 330.64 334.844 327.843 335.008C325.499 335.146 324.017 336.918 323.749 337.238C322.284 338.99 322.176 341.054 322.075 342.532C321.814 346.36 321.047 350.139 320.679 353.958C320.679 353.958 320.153 359.422 318.354 365.662C317.978 366.963 317.155 369.635 311.655 380.617C306.388 391.135 305.763 391.438 304.12 395.944C302.802 399.557 301.462 403.23 300.584 408.391C299.387 415.43 300.092 419.105 298.259 419.817C295.863 420.747 291.839 415.564 291.095 414.615C287.669 410.243 286.823 405.601 286.444 403.375C285.831 399.781 286.592 400.335 286.444 391.207C286.338 384.728 285.936 383.3 287.002 380.617C287.761 378.707 289.028 377.146 291.56 374.022C294.881 369.927 295.692 369.62 297.421 367.055C297.832 366.447 299.881 363.354 301.143 358.881C301.823 356.469 304.399 347.339 300.398 344.297C298.989 343.226 296.879 342.998 295.189 343.554C292.813 344.335 291.781 346.492 291.56 346.991C290.775 348.768 291.227 350.004 291.281 352.565C291.327 354.724 291.002 356.388 290.351 359.717C289.528 363.927 287.152 371.99 284.862 371.886C283.588 371.828 283.354 369.288 281.141 364.176C279.816 361.116 277.267 355.352 272.582 350.614C270.847 348.859 265.009 342.954 260.86 344.669C259.026 345.427 257.915 347.772 257.697 349.685C257.441 351.93 258.452 353.65 258.906 354.422C259.529 355.482 260.271 356.249 262.069 357.674C264.885 359.905 266.377 360.649 268.488 362.132C270.156 363.303 272.261 364.783 274.256 367.055C275.003 367.906 277.48 370.856 279.001 375.508C280.326 379.561 281.503 383.159 279.745 385.633C276.988 389.515 269.072 387.72 267.651 387.398C266.149 387.058 258.579 385.341 255.65 379.317C254.209 376.353 254.538 373.678 251.743 367.891C251.211 366.791 250.531 365.505 249.138 364.919C247.081 364.054 244.283 365.058 242.905 366.87C242.535 367.356 241.45 368.976 242.346 373.465C242.792 375.696 244.092 381.731 249.696 386.655C255.175 391.47 261.587 392.426 262.907 392.6C269.459 393.463 274.158 391.304 276.303 394.086C276.992 394.98 276.962 395.793 277.14 397.616C277.644 402.754 279.063 408.306 280.769 412.014C283.41 417.757 286.906 419.441 285.978 422.603C285.542 424.092 284.405 424.963 283.839 425.39C280.705 427.758 275.917 427.104 272.861 425.204C270.052 423.458 270.766 421.944 267.093 417.402C265.037 414.859 262.786 413.085 258.286 409.537C253.058 405.415 250.411 403.37 248.812 404.134C247.217 404.896 246.668 407.71 247.184 409.785C247.653 411.67 248.904 412.552 252.022 414.986C257.957 419.621 260.925 421.939 262.72 423.997C262.937 424.245 264.853 426.456 267.102 428.913C267.233 429.056 267.263 429.088 267.279 429.106C268.68 430.608 269.746 431.733 271.465 432.728C273.273 433.774 274.722 434.051 276.582 434.493C281.467 435.654 280.572 435.906 285.699 437.187C288.943 437.998 291.944 438.803 298.073 439.324L298.073 439.324Z" fill="#D75047"/>
    <path d="M336.936 409.879C338.014 411.867 339.558 414.291 341.74 416.787C341.82 416.878 341.899 416.961 341.979 417.051C342.272 416.874 342.559 416.701 342.836 416.533C340.869 414.315 338.902 412.097 336.936 409.879Z" fill="#9D413B"/>
    <path d="M307.641 407.476C307.655 407.44 307.668 407.406 307.682 407.37L301.072 405.903C301.066 405.932 301.059 405.96 301.053 405.989C301.919 406.333 302.917 406.67 304.054 406.94C305.381 407.254 306.588 407.407 307.641 407.476V407.476Z" fill="#9D413B"/>
    <path d="M309.785 396.256C310.658 396.622 311.476 396.863 312.218 397.033C312.269 396.922 312.319 396.813 312.368 396.705C310.391 395.907 308.413 395.109 306.436 394.31C307.228 394.92 308.343 395.653 309.785 396.256V396.256Z" fill="#9D413B"/>
    <path d="M321.26 416.249C321.088 416.302 320.914 416.355 320.748 416.404C321.525 418.093 322.5 419.337 323.264 420.158C322.596 418.855 321.928 417.552 321.26 416.249Z" fill="#9D413B"/>
    <path d="M331.135 410.958C331.04 411.047 330.95 411.132 330.861 411.216C331.675 412.556 332.766 414.088 334.218 415.636C335.611 417.12 337.015 418.275 338.28 419.17C338.442 419.083 338.605 418.996 338.758 418.912C336.217 416.261 333.676 413.61 331.135 410.958Z" fill="#9D413B"/>
    <path d="M327.465 342.778C328.567 343.106 330.065 343.432 331.857 343.491C332.633 343.516 333.349 343.485 334.008 343.424C334.022 343.3 334.036 343.176 334.048 343.054C331.854 342.962 329.659 342.87 327.465 342.778L327.465 342.778Z" fill="#9D413B"/>
    <path d="M331.329 376.047C331.754 376.726 332.34 377.517 333.147 378.302C334.073 379.203 335.01 379.825 335.796 380.254C335.851 380.191 335.905 380.13 335.962 380.064C334.469 378.682 332.976 377.3 331.483 375.918C331.431 375.963 331.381 376.004 331.329 376.047Z" fill="#9D413B"/>
    <path d="M337.945 370.408C338.852 371.325 339.763 371.931 340.457 372.32C339.369 371.192 338.282 370.063 337.195 368.935C337.147 368.991 337.101 369.042 337.053 369.099C337.014 369.146 336.981 369.186 336.943 369.232C337.23 369.615 337.551 370.01 337.945 370.408Z" fill="#9D413B"/>
    <path d="M347.766 361.897C348.172 362.767 348.867 363.986 350.031 365.186C351.178 366.371 352.382 367.123 353.333 367.596C353.428 367.548 353.525 367.499 353.625 367.447C351.672 365.597 349.719 363.747 347.766 361.897V361.897Z" fill="#9D413B"/>
    <path d="M349.178 358.452C349.45 358.955 349.793 359.497 350.237 360.047C351.431 361.529 352.772 362.365 353.613 362.802C352.262 361.286 350.911 359.771 349.559 358.256C349.513 358.28 349.466 358.304 349.426 358.324C349.353 358.361 349.269 358.405 349.178 358.452V358.452Z" fill="#9D413B"/>
    <path d="M361.561 361.842C360.518 360.819 359.475 359.795 358.431 358.772C358.716 359.288 359.154 359.954 359.811 360.622C360.4 361.222 360.993 361.647 361.495 361.949C361.518 361.913 361.539 361.878 361.561 361.842Z" fill="#9D413B"/>
    <path d="M280.057 378.942C280.657 378.984 281.304 379.004 282.003 378.981C283.322 378.936 284.476 378.758 285.421 378.549C283.619 378.629 281.817 378.709 280.015 378.79C280.029 378.841 280.044 378.892 280.057 378.942H280.057Z" fill="#9D413B"/>
    <path d="M288.369 366.855C288.847 367.274 289.435 367.725 290.157 368.147C291.236 368.778 292.239 369.133 292.998 369.339C291.474 368.458 289.951 367.576 288.427 366.695C288.408 366.748 288.388 366.802 288.369 366.855H288.369Z" fill="#9D413B"/>
    <path d="M296.704 361.404C298.034 361.632 299.218 361.674 300.211 361.642C300.231 361.591 300.25 361.541 300.27 361.49C297.572 360.981 294.873 360.473 292.174 359.965C293.265 360.484 294.799 361.076 296.704 361.404Z" fill="#9D413B"/>
    <path d="M293.08 349.192C294.512 349.375 296.304 349.48 298.351 349.316C299.928 349.189 301.31 348.928 302.489 348.633C302.485 348.6 302.484 348.566 302.479 348.533C299.346 348.753 296.213 348.972 293.08 349.192Z" fill="#9D413B"/>
    <path d="M291.224 351.351C292.115 351.501 293.149 351.615 294.316 351.618C295.961 351.623 297.373 351.411 298.475 351.166C296.056 351.191 293.636 351.217 291.217 351.242L291.224 351.351L291.224 351.351Z" fill="#9D413B"/>
    <path d="M318.685 364.468C319.344 364.736 320.097 364.991 320.958 365.186C322.55 365.546 323.933 365.58 324.939 365.529C322.881 365.071 320.824 364.613 318.766 364.154C318.739 364.259 318.713 364.362 318.685 364.468H318.685Z" fill="#9D413B"/>
    <path d="M322.38 340.087C323.546 340.528 325.079 340.977 326.916 341.188C329.078 341.437 330.91 341.27 332.214 341.051C328.948 340.68 325.681 340.309 322.415 339.938C322.402 339.988 322.392 340.037 322.38 340.087Z" fill="#9D413B"/>
    <path d="M321.654 346.524C323.175 347.026 325.015 347.508 327.163 347.794C329.438 348.097 331.464 348.104 333.142 347.995L333.18 347.834C329.343 347.36 325.505 346.886 321.668 346.412C321.663 346.449 321.659 346.487 321.654 346.524V346.524Z" fill="#9D413B"/>
    <path d="M283.019 401.793C284.228 401.798 285.306 401.683 286.218 401.525C286.215 401.467 286.213 401.409 286.21 401.352C283.801 401.344 281.392 401.335 278.983 401.327C280.042 401.571 281.414 401.787 283.019 401.793L283.019 401.793Z" fill="#9D413B"/>
    <path d="M260.59 351.084C261.638 350.447 262.995 349.475 264.337 348.041C265.157 347.165 265.789 346.306 266.292 345.524C266.209 345.479 266.126 345.435 266.043 345.391C264.225 347.289 262.408 349.186 260.59 351.084Z" fill="#9D413B"/>
    <path d="M259.781 355.622C260.553 355.192 261.427 354.62 262.32 353.838C263.746 352.589 264.672 351.292 265.243 350.344C263.366 352.037 261.488 353.73 259.611 355.423C259.665 355.489 259.722 355.556 259.781 355.622H259.781Z" fill="#9D413B"/>
    <path d="M278.043 357.892C278.024 357.859 278.004 357.826 277.985 357.793C276.263 359.421 274.542 361.05 272.82 362.678C273.705 362.205 274.866 361.465 276.032 360.335C276.919 359.475 277.565 358.623 278.043 357.892L278.043 357.892Z" fill="#9D413B"/>
    <path d="M242.017 370.892C242.019 370.932 242.02 370.971 242.023 371.011C242.959 370.802 243.986 370.521 245.079 370.134C246.651 369.577 247.991 368.935 249.088 368.325C246.731 369.181 244.374 370.036 242.017 370.892H242.017Z" fill="#9D413B"/>
    <path d="M254.66 408.646C254.952 408.147 255.165 407.67 255.331 407.232C255.282 407.194 255.233 407.157 255.184 407.12C254.254 408.506 253.325 409.891 252.396 411.277C253.037 410.758 253.924 409.908 254.66 408.646Z" fill="#9D413B"/>
    <path d="M252.875 405.447C251.444 407.681 250.012 409.916 248.581 412.15C248.615 412.184 248.651 412.219 248.687 412.253C249.535 411.305 250.451 410.144 251.325 408.728C252.026 407.592 252.566 406.509 252.99 405.526C252.952 405.501 252.912 405.472 252.875 405.447Z" fill="#9D413B"/>
    <path d="M255.913 418.035C256.429 417.649 256.986 417.175 257.543 416.581C258.695 415.353 259.392 414.114 259.808 413.21C258.457 414.777 257.107 416.344 255.756 417.911C255.807 417.952 255.863 417.995 255.913 418.035Z" fill="#9D413B"/>
    <path d="M269.944 421.688C269.242 422.672 268.54 423.656 267.838 424.64C268.207 424.417 268.8 423.996 269.32 423.283C269.695 422.77 269.908 422.273 270.04 421.866C270.01 421.809 269.976 421.747 269.944 421.688H269.944Z" fill="#9D413B"/>
    <path d="M283.847 417.088C284.235 417.023 284.68 416.911 285.16 416.705C286.022 416.334 286.61 415.832 286.945 415.499C285.864 415.962 284.784 416.425 283.703 416.889C283.751 416.955 283.8 417.024 283.847 417.088L283.847 417.088Z" fill="#9D413B"/>
    <path d="M257.79 384.799C258.268 384.277 258.612 383.768 258.864 383.33C258.845 383.314 258.825 383.299 258.806 383.282C257.9 384.263 256.994 385.243 256.088 386.224C256.566 385.921 257.182 385.463 257.79 384.799L257.79 384.799Z" fill="#9D413B"/>
    <path d="M251.399 388.004C252.071 387.551 252.809 386.988 253.562 386.279C254.616 385.286 255.393 384.3 255.951 383.483C254.387 384.956 252.823 386.428 251.26 387.901C251.306 387.935 251.353 387.97 251.399 388.004Z" fill="#9D413B"/>
    <path d="M253.532 372.31C251.703 373.056 249.873 373.801 248.044 374.547C248.816 374.512 250.006 374.366 251.339 373.807C252.295 373.406 253.039 372.912 253.587 372.477C253.57 372.423 253.549 372.365 253.532 372.31Z" fill="#9D413B"/>
    <path d="M331.13 356.429L327.506 355.798C327.956 356.004 328.584 356.234 329.359 356.36C330.058 356.474 330.666 356.467 331.13 356.429Z" fill="#9D413B"/>
    <path d="M320.917 376.589C321.393 376.786 321.831 376.893 322.208 376.958L322.284 376.834C321.238 376.378 320.192 375.921 319.146 375.465C319.507 375.793 320.093 376.249 320.917 376.589V376.589Z" fill="#9D413B"/>
    <path d="M273.953 357.683C274.351 357.527 275.015 357.208 275.641 356.572C276.047 356.16 276.311 355.744 276.485 355.407C276.466 355.379 276.449 355.352 276.43 355.324C275.604 356.11 274.779 356.896 273.953 357.683H273.953Z" fill="#9D413B"/>
    <path d="M268.606 389.267C268.369 390.441 268.133 391.615 267.896 392.789L267.985 392.786C268.162 392.416 268.343 391.955 268.469 391.405C268.67 390.533 268.657 389.782 268.606 389.267Z" fill="#9D413B"/>
    <path d="M284.803 403.794C285.463 403.79 286.028 403.693 286.479 403.581L286.463 403.488L282.525 403.438C283.05 403.61 283.837 403.801 284.803 403.794Z" fill="#9D413B"/>
    <path d="M340.832 402.07C341.345 402.842 341.93 403.65 342.619 404.479C344.022 406.172 345.444 407.486 346.682 408.481C344.795 406.308 342.908 404.135 341.021 401.962C340.958 401.998 340.894 402.032 340.832 402.07Z" fill="#9D413B"/>
    <path d="M719.073 409.324C725.479 409.868 727.376 409.153 728.562 408.488C731.224 406.994 730.683 405.409 734.33 401.8C736.034 400.113 737.759 398.705 741.958 396.505C742.966 395.977 750.304 393.046 751.076 392.789C756.355 391.034 761.222 388.107 762.705 387.216C767.939 384.068 770.574 382.433 771.45 379.413C772.166 376.943 771.974 373.273 769.682 371.61C767.736 370.2 765.134 370.852 764.147 371.099C761.604 371.737 760.177 373.199 757.309 375.976C752.856 380.288 750.633 382.449 749.773 383.036C746.231 385.453 739.988 386.827 738.33 387.402C736.578 388.009 733.875 388.946 731.446 387.804C728.777 386.549 727.966 383.503 727.849 383.036C727.249 380.642 728.113 378.59 729.864 374.583C735.314 362.119 735.966 361.064 737.772 359.72C739.048 358.771 740.7 358.035 744.005 356.562C750.266 353.772 751.101 354.46 754.239 352.475C757.044 350.701 756.223 350.163 761.681 345.415C764.038 343.366 765.538 342.073 767.821 340.678C771.095 338.678 771.861 338.985 775.357 337.055C778.887 335.108 783.284 332.681 782.986 330.274C782.734 328.247 779.219 326.781 776.752 326.652C774.072 326.512 771.31 327.87 770.426 328.324C769.66 328.717 767.905 329.586 764.844 332.318C762.466 334.441 760.491 336.204 758.053 339.099C754.81 342.95 755.186 343.534 752.75 345.694C750.134 348.015 747.91 348.928 746.238 349.596C744.475 350.299 742.433 351.114 741.865 350.432C741.226 349.662 742.955 347.583 744.842 344.208C745.897 342.322 746.848 339.886 748.75 335.012C750.296 331.049 751.867 327.023 753.215 321.729C755.093 314.359 756.108 310.13 753.774 307.331C753.606 307.129 751.64 304.844 748.843 305.008C746.499 305.146 745.017 306.918 744.749 307.238C743.284 308.99 743.176 311.054 743.075 312.532C742.814 316.36 742.047 320.139 741.679 323.958C741.679 323.958 741.153 329.422 739.354 335.662C738.978 336.963 738.155 339.635 732.655 350.617C727.388 361.135 726.763 361.438 725.12 365.944C723.802 369.557 722.462 373.23 721.584 378.391C720.387 385.43 721.092 389.105 719.259 389.817C716.863 390.747 712.839 385.564 712.095 384.615C708.669 380.243 707.823 375.601 707.444 373.375C706.831 369.781 707.592 370.335 707.444 361.207C707.338 354.728 706.936 353.3 708.002 350.617C708.761 348.707 710.028 347.146 712.56 344.022C715.881 339.927 716.692 339.62 718.421 337.055C718.832 336.447 720.881 333.354 722.143 328.881C722.823 326.469 725.399 317.339 721.398 314.297C719.989 313.226 717.879 312.998 716.189 313.554C713.813 314.335 712.781 316.492 712.56 316.991C711.775 318.768 712.227 320.004 712.281 322.565C712.327 324.724 712.002 326.388 711.351 329.717C710.528 333.927 708.152 341.99 705.862 341.886C704.588 341.828 704.354 339.288 702.141 334.176C700.816 331.116 698.267 325.352 693.582 320.614C691.847 318.859 686.009 312.954 681.86 314.669C680.026 315.427 678.915 317.772 678.697 319.685C678.441 321.93 679.452 323.65 679.906 324.422C680.529 325.482 681.271 326.249 683.069 327.674C685.885 329.905 687.377 330.649 689.488 332.132C691.156 333.303 693.261 334.783 695.256 337.055C696.003 337.906 698.48 340.856 700.001 345.508C701.326 349.561 702.503 353.159 700.745 355.633C697.988 359.515 690.072 357.72 688.651 357.398C687.149 357.058 679.579 355.341 676.65 349.317C675.209 346.353 675.538 343.678 672.743 337.891C672.211 336.791 671.531 335.505 670.138 334.919C668.081 334.054 665.283 335.058 663.905 336.87C663.535 337.356 662.45 338.976 663.346 343.465C663.792 345.696 665.092 351.731 670.696 356.655C676.175 361.47 682.587 362.426 683.907 362.6C690.459 363.463 695.158 361.304 697.303 364.086C697.992 364.98 697.962 365.793 698.14 367.616C698.644 372.754 700.063 378.306 701.769 382.014C704.41 387.757 707.906 389.441 706.978 392.603C706.542 394.092 705.405 394.963 704.839 395.39C701.705 397.758 696.917 397.104 693.861 395.204C691.052 393.458 691.766 391.944 688.093 387.402C686.037 384.859 683.786 383.085 679.286 379.537C674.058 375.415 671.411 373.37 669.812 374.134C668.217 374.896 667.668 377.71 668.184 379.785C668.653 381.67 669.904 382.552 673.022 384.986C678.957 389.621 681.925 391.939 683.72 393.997C683.937 394.245 685.853 396.456 688.102 398.913C688.233 399.056 688.263 399.088 688.279 399.106C689.68 400.608 690.746 401.733 692.465 402.728C694.273 403.774 695.722 404.051 697.582 404.493C702.467 405.654 701.572 405.906 706.699 407.187C709.943 407.998 712.944 408.803 719.073 409.324L719.073 409.324Z" fill="#D75047"/>
    <path d="M757.936 379.879C759.014 381.867 760.558 384.291 762.74 386.787C762.82 386.878 762.899 386.961 762.979 387.051C763.272 386.874 763.559 386.701 763.836 386.533C761.869 384.315 759.902 382.097 757.936 379.879Z" fill="#9D413B"/>
    <path d="M728.641 377.476C728.655 377.44 728.668 377.406 728.682 377.37L722.072 375.903C722.066 375.932 722.059 375.96 722.053 375.989C722.919 376.333 723.917 376.67 725.054 376.94C726.381 377.254 727.588 377.407 728.641 377.476V377.476Z" fill="#9D413B"/>
    <path d="M730.785 366.256C731.658 366.622 732.476 366.863 733.218 367.033C733.269 366.922 733.319 366.813 733.368 366.705C731.391 365.907 729.413 365.109 727.436 364.31C728.228 364.92 729.343 365.653 730.785 366.256V366.256Z" fill="#9D413B"/>
    <path d="M742.26 386.249C742.088 386.302 741.914 386.355 741.748 386.404C742.525 388.093 743.5 389.337 744.264 390.158C743.596 388.855 742.928 387.552 742.26 386.249Z" fill="#9D413B"/>
    <path d="M752.135 380.958C752.04 381.047 751.95 381.132 751.861 381.216C752.675 382.556 753.766 384.088 755.218 385.636C756.611 387.12 758.015 388.275 759.28 389.17C759.442 389.083 759.605 388.996 759.758 388.912C757.217 386.261 754.676 383.61 752.135 380.958Z" fill="#9D413B"/>
    <path d="M748.465 312.778C749.567 313.106 751.065 313.432 752.857 313.491C753.633 313.516 754.349 313.485 755.008 313.424C755.022 313.3 755.036 313.176 755.048 313.054C752.854 312.962 750.659 312.87 748.465 312.778L748.465 312.778Z" fill="#9D413B"/>
    <path d="M752.329 346.047C752.754 346.726 753.34 347.517 754.147 348.302C755.073 349.203 756.01 349.825 756.796 350.254C756.851 350.191 756.905 350.13 756.962 350.064C755.469 348.682 753.976 347.3 752.483 345.918C752.431 345.963 752.381 346.004 752.329 346.047Z" fill="#9D413B"/>
    <path d="M758.945 340.408C759.852 341.325 760.763 341.931 761.457 342.32C760.369 341.192 759.282 340.063 758.195 338.935C758.147 338.991 758.101 339.042 758.053 339.099C758.014 339.146 757.981 339.186 757.943 339.232C758.229 339.615 758.551 340.01 758.945 340.408Z" fill="#9D413B"/>
    <path d="M768.766 331.897C769.172 332.767 769.867 333.986 771.031 335.186C772.178 336.371 773.382 337.123 774.333 337.596C774.428 337.548 774.525 337.499 774.625 337.447C772.672 335.597 770.719 333.747 768.766 331.897V331.897Z" fill="#9D413B"/>
    <path d="M770.178 328.452C770.45 328.955 770.793 329.497 771.237 330.047C772.431 331.529 773.772 332.365 774.613 332.802C773.262 331.286 771.911 329.771 770.559 328.256C770.513 328.28 770.466 328.304 770.426 328.324C770.353 328.361 770.269 328.405 770.178 328.452V328.452Z" fill="#9D413B"/>
    <path d="M782.561 331.842C781.518 330.819 780.475 329.795 779.431 328.772C779.716 329.288 780.154 329.954 780.811 330.622C781.4 331.222 781.993 331.647 782.495 331.949C782.518 331.913 782.539 331.878 782.561 331.842Z" fill="#9D413B"/>
    <path d="M701.057 348.942C701.657 348.984 702.304 349.004 703.003 348.981C704.322 348.936 705.476 348.758 706.421 348.549C704.619 348.629 702.817 348.709 701.015 348.79C701.029 348.841 701.044 348.892 701.057 348.942H701.057Z" fill="#9D413B"/>
    <path d="M709.369 336.855C709.847 337.274 710.435 337.725 711.157 338.147C712.236 338.778 713.239 339.133 713.998 339.339C712.474 338.458 710.951 337.576 709.427 336.695C709.408 336.748 709.388 336.802 709.369 336.855H709.369Z" fill="#9D413B"/>
    <path d="M717.704 331.404C719.034 331.632 720.218 331.674 721.211 331.642C721.231 331.591 721.25 331.541 721.27 331.49C718.571 330.981 715.873 330.473 713.174 329.965C714.265 330.484 715.799 331.076 717.704 331.404Z" fill="#9D413B"/>
    <path d="M714.08 319.192C715.512 319.375 717.304 319.48 719.351 319.316C720.928 319.189 722.309 318.928 723.489 318.633C723.485 318.6 723.484 318.566 723.479 318.533C720.346 318.753 717.213 318.972 714.08 319.192Z" fill="#9D413B"/>
    <path d="M712.224 321.351C713.115 321.501 714.149 321.615 715.316 321.618C716.961 321.623 718.373 321.411 719.475 321.166C717.056 321.191 714.636 321.217 712.217 321.242L712.224 321.351L712.224 321.351Z" fill="#9D413B"/>
    <path d="M739.685 334.468C740.344 334.736 741.097 334.991 741.958 335.186C743.55 335.546 744.933 335.58 745.939 335.529C743.881 335.071 741.824 334.613 739.766 334.154C739.739 334.259 739.713 334.362 739.685 334.468H739.685Z" fill="#9D413B"/>
    <path d="M743.38 310.087C744.546 310.528 746.079 310.977 747.916 311.188C750.078 311.437 751.91 311.27 753.214 311.051C749.948 310.68 746.681 310.309 743.415 309.938C743.402 309.988 743.392 310.037 743.38 310.087Z" fill="#9D413B"/>
    <path d="M742.654 316.524C744.175 317.026 746.015 317.508 748.163 317.794C750.438 318.097 752.464 318.104 754.142 317.995L754.18 317.834C750.343 317.36 746.505 316.886 742.668 316.412C742.663 316.449 742.659 316.487 742.654 316.524V316.524Z" fill="#9D413B"/>
    <path d="M704.019 371.793C705.228 371.798 706.306 371.683 707.218 371.525C707.215 371.467 707.213 371.409 707.21 371.352C704.801 371.344 702.392 371.335 699.983 371.327C701.042 371.571 702.414 371.787 704.019 371.793L704.019 371.793Z" fill="#9D413B"/>
    <path d="M681.59 321.084C682.638 320.447 683.995 319.475 685.337 318.041C686.157 317.165 686.789 316.306 687.292 315.524C687.209 315.479 687.126 315.435 687.043 315.391C685.225 317.289 683.408 319.186 681.59 321.084Z" fill="#9D413B"/>
    <path d="M680.781 325.622C681.553 325.192 682.427 324.62 683.32 323.838C684.746 322.589 685.672 321.292 686.243 320.344C684.366 322.037 682.488 323.73 680.611 325.423C680.665 325.489 680.722 325.556 680.781 325.622H680.781Z" fill="#9D413B"/>
    <path d="M699.043 327.892C699.024 327.859 699.004 327.826 698.985 327.793C697.263 329.421 695.542 331.05 693.82 332.678C694.705 332.205 695.866 331.465 697.032 330.335C697.919 329.475 698.565 328.623 699.043 327.892L699.043 327.892Z" fill="#9D413B"/>
    <path d="M663.017 340.892C663.019 340.932 663.02 340.971 663.023 341.011C663.959 340.802 664.986 340.521 666.079 340.134C667.651 339.577 668.991 338.935 670.088 338.325C667.731 339.181 665.374 340.036 663.017 340.892H663.017Z" fill="#9D413B"/>
    <path d="M675.66 378.646C675.952 378.147 676.165 377.67 676.331 377.232C676.282 377.194 676.233 377.157 676.184 377.12C675.254 378.506 674.325 379.891 673.396 381.277C674.037 380.758 674.924 379.908 675.66 378.646Z" fill="#9D413B"/>
    <path d="M673.875 375.447C672.444 377.681 671.012 379.916 669.581 382.15C669.615 382.184 669.651 382.219 669.687 382.253C670.535 381.305 671.451 380.144 672.325 378.728C673.026 377.592 673.566 376.509 673.99 375.526C673.952 375.501 673.912 375.472 673.875 375.447Z" fill="#9D413B"/>
    <path d="M676.913 388.035C677.429 387.649 677.986 387.175 678.543 386.581C679.695 385.353 680.392 384.114 680.808 383.21C679.457 384.777 678.107 386.344 676.756 387.911C676.807 387.952 676.863 387.995 676.913 388.035Z" fill="#9D413B"/>
    <path d="M690.944 391.688C690.242 392.672 689.54 393.656 688.838 394.64C689.207 394.417 689.8 393.996 690.32 393.283C690.695 392.77 690.908 392.273 691.04 391.866C691.01 391.809 690.976 391.747 690.944 391.688H690.944Z" fill="#9D413B"/>
    <path d="M704.847 387.088C705.235 387.023 705.68 386.911 706.16 386.705C707.022 386.334 707.61 385.832 707.945 385.499C706.864 385.962 705.784 386.425 704.703 386.889C704.751 386.955 704.8 387.024 704.847 387.088L704.847 387.088Z" fill="#9D413B"/>
    <path d="M678.79 354.799C679.268 354.277 679.612 353.768 679.864 353.33C679.845 353.314 679.825 353.299 679.806 353.282C678.9 354.263 677.994 355.243 677.088 356.224C677.566 355.921 678.182 355.463 678.79 354.799L678.79 354.799Z" fill="#9D413B"/>
    <path d="M672.399 358.004C673.071 357.551 673.809 356.988 674.562 356.279C675.616 355.286 676.393 354.3 676.951 353.483C675.387 354.956 673.823 356.428 672.26 357.901C672.306 357.935 672.353 357.97 672.399 358.004Z" fill="#9D413B"/>
    <path d="M674.532 342.31C672.703 343.056 670.873 343.801 669.044 344.547C669.816 344.512 671.006 344.366 672.339 343.807C673.295 343.406 674.039 342.912 674.587 342.477C674.57 342.423 674.549 342.365 674.532 342.31Z" fill="#9D413B"/>
    <path d="M752.13 326.429L748.506 325.798C748.956 326.004 749.584 326.234 750.359 326.36C751.058 326.474 751.666 326.467 752.13 326.429Z" fill="#9D413B"/>
    <path d="M741.917 346.589C742.393 346.786 742.831 346.893 743.208 346.958L743.284 346.834C742.238 346.378 741.192 345.921 740.146 345.465C740.507 345.793 741.093 346.249 741.917 346.589V346.589Z" fill="#9D413B"/>
    <path d="M694.953 327.683C695.351 327.527 696.015 327.208 696.641 326.572C697.047 326.16 697.311 325.744 697.485 325.407C697.466 325.379 697.449 325.352 697.43 325.324C696.604 326.11 695.779 326.896 694.953 327.683H694.953Z" fill="#9D413B"/>
    <path d="M689.606 359.267C689.369 360.441 689.133 361.615 688.896 362.789L688.985 362.786C689.162 362.416 689.343 361.955 689.469 361.405C689.67 360.533 689.657 359.782 689.606 359.267Z" fill="#9D413B"/>
    <path d="M705.803 373.794C706.463 373.79 707.028 373.693 707.479 373.581L707.463 373.488L703.525 373.438C704.05 373.61 704.837 373.801 705.803 373.794Z" fill="#9D413B"/>
    <path d="M761.832 372.07C762.345 372.842 762.93 373.65 763.618 374.479C765.022 376.172 766.444 377.486 767.681 378.481C765.795 376.308 763.908 374.135 762.021 371.962C761.958 371.998 761.894 372.032 761.832 372.07Z" fill="#9D413B"/>
</svg>
