<svg viewBox="0 0 870 540" fill="none" xmlns="http://www.w3.org/2000/svg">
    <rect x="3" y="3" width="864" height="533.4" rx="77" fill="white" stroke="#116619" stroke-width="6"/>
    <path d="M747.073 163.324C753.479 163.868 755.376 163.153 756.562 162.488C759.224 160.994 758.683 159.409 762.33 155.8C764.034 154.113 765.759 152.705 769.958 150.505C770.966 149.977 778.304 147.046 779.076 146.789C784.355 145.034 789.222 142.107 790.705 141.216C795.939 138.068 798.574 136.433 799.45 133.413C800.166 130.943 799.974 127.273 797.682 125.61C795.736 124.2 793.134 124.852 792.147 125.099C789.604 125.737 788.177 127.199 785.309 129.976C780.856 134.288 778.633 136.449 777.773 137.036C774.231 139.453 767.988 140.827 766.33 141.402C764.578 142.009 761.875 142.946 759.446 141.804C756.777 140.549 755.966 137.503 755.849 137.036C755.249 134.642 756.113 132.59 757.864 128.583C763.314 116.119 763.966 115.064 765.772 113.72C767.048 112.771 768.7 112.035 772.005 110.562C778.266 107.772 779.101 108.46 782.239 106.475C785.044 104.701 784.223 104.163 789.681 99.4155C792.038 97.3657 793.538 96.0728 795.821 94.6781C799.095 92.6784 799.861 92.9846 803.357 91.0554C806.887 89.1076 811.284 86.6814 810.986 84.2744C810.734 82.2468 807.219 80.7806 804.752 80.6517C802.072 80.5117 799.31 81.8704 798.426 82.3238C797.66 82.7166 795.905 83.5862 792.844 86.318C790.466 88.4412 788.491 90.2038 786.053 93.099C782.81 96.9498 783.186 97.5337 780.75 99.6941C778.134 102.015 775.91 102.928 774.238 103.596C772.475 104.299 770.433 105.114 769.865 104.432C769.226 103.662 770.955 101.583 772.842 98.2079C773.897 96.3223 774.848 93.8857 776.75 89.0118C778.296 85.0486 779.867 81.0227 781.215 75.7286C783.093 68.3585 784.108 64.13 781.774 61.3307C781.606 61.1292 779.64 58.8444 776.843 59.0084C774.499 59.1459 773.017 60.9179 772.749 61.2378C771.284 62.9905 771.176 65.0537 771.075 66.5325C770.814 70.3603 770.047 74.1389 769.679 77.9579C769.679 77.958 769.153 83.4221 767.354 89.662C766.978 90.9631 766.155 93.6355 760.655 104.617C755.388 115.135 754.763 115.438 753.12 119.944C751.802 123.557 750.462 127.23 749.584 132.391C748.387 139.43 749.092 143.105 747.259 143.817C744.863 144.747 740.839 139.564 740.095 138.615C736.669 134.243 735.823 129.601 735.444 127.375C734.831 123.781 735.592 124.335 735.444 115.207C735.338 108.728 734.936 107.3 736.002 104.617C736.761 102.707 738.028 101.146 740.56 98.0221C743.881 93.9273 744.692 93.6201 746.421 91.0554C746.832 90.4465 748.881 87.3536 750.143 82.8811C750.823 80.4693 753.399 71.3393 749.398 68.2974C747.989 67.2256 745.879 66.9985 744.189 67.5543C741.813 68.3353 740.781 70.4923 740.56 70.9912C739.775 72.768 740.227 74.0042 740.281 76.5646C740.327 78.7241 740.002 80.3885 739.351 83.7171C738.528 87.9266 736.152 95.9901 733.862 95.8857C732.588 95.8276 732.354 93.2877 730.141 88.1758C728.816 85.1164 726.267 79.3524 721.582 74.6139C719.847 72.8594 714.009 66.9541 709.86 68.6689C708.026 69.427 706.915 71.7719 706.697 73.685C706.441 75.9298 707.452 77.65 707.906 78.4224C708.529 79.4819 709.271 80.2489 711.069 81.6735C713.885 83.905 715.377 84.6488 717.488 86.1322C719.156 87.3034 721.261 88.7825 723.256 91.0554C724.003 91.9059 726.48 94.8557 728.001 99.5084C729.326 103.561 730.503 107.159 728.745 109.633C725.988 113.515 718.072 111.72 716.651 111.398C715.149 111.058 707.579 109.341 704.65 103.317C703.209 100.353 703.538 97.6775 700.743 91.8914C700.211 90.7907 699.531 89.5047 698.138 88.9189C696.081 88.0539 693.283 89.0579 691.905 90.8696C691.535 91.3563 690.45 92.9758 691.346 97.4648C691.792 99.6964 693.092 105.731 698.696 110.655C704.175 115.47 710.587 116.426 711.907 116.6C718.459 117.463 723.158 115.304 725.303 118.086C725.992 118.98 725.962 119.793 726.14 121.616C726.644 126.754 728.063 132.306 729.769 136.014C732.41 141.757 735.906 143.441 734.978 146.603C734.542 148.092 733.405 148.963 732.839 149.39C729.705 151.758 724.917 151.104 721.861 149.204C719.052 147.458 719.766 145.944 716.093 141.402C714.037 138.859 711.786 137.085 707.286 133.537C702.058 129.415 699.411 127.37 697.812 128.134C696.217 128.896 695.668 131.71 696.184 133.785C696.653 135.67 697.904 136.552 701.022 138.986C706.957 143.621 709.925 145.939 711.72 147.997C711.937 148.245 713.853 150.456 716.102 152.913C716.233 153.056 716.263 153.088 716.279 153.106C717.68 154.608 718.746 155.733 720.465 156.728C722.273 157.774 723.722 158.051 725.582 158.493C730.467 159.654 729.572 159.906 734.699 161.187C737.943 161.998 740.944 162.803 747.073 163.324L747.073 163.324Z" fill="#D75047"/>
    <path d="M785.936 133.879C787.014 135.867 788.558 138.291 790.74 140.787C790.82 140.878 790.899 140.961 790.979 141.051C791.272 140.874 791.559 140.701 791.836 140.533C789.869 138.315 787.902 136.097 785.936 133.879Z" fill="#9D413B"/>
    <path d="M756.641 131.476C756.655 131.44 756.668 131.406 756.682 131.37L750.072 129.903C750.066 129.932 750.059 129.96 750.053 129.989C750.919 130.333 751.917 130.67 753.054 130.939C754.381 131.254 755.588 131.407 756.641 131.476V131.476Z" fill="#9D413B"/>
    <path d="M758.785 120.256C759.658 120.621 760.476 120.863 761.218 121.033C761.269 120.922 761.319 120.813 761.368 120.705C759.391 119.907 757.413 119.108 755.436 118.31C756.228 118.92 757.343 119.652 758.785 120.256V120.256Z" fill="#9D413B"/>
    <path d="M770.26 140.249C770.088 140.302 769.915 140.355 769.748 140.404C770.525 142.093 771.5 143.337 772.265 144.158C771.596 142.855 770.928 141.552 770.26 140.249Z" fill="#9D413B"/>
    <path d="M780.135 134.958C780.04 135.047 779.95 135.132 779.861 135.216C780.676 136.556 781.766 138.088 783.218 139.636C784.611 141.12 786.015 142.275 787.281 143.17C787.442 143.083 787.605 142.996 787.758 142.912C785.217 140.261 782.676 137.61 780.135 134.958Z" fill="#9D413B"/>
    <path d="M776.465 66.778C777.567 67.1057 779.065 67.4321 780.857 67.4907C781.633 67.5161 782.35 67.4848 783.008 67.4244C783.023 67.2995 783.036 67.1755 783.048 67.0537C780.854 66.9618 778.659 66.8699 776.465 66.778L776.465 66.778Z" fill="#9D413B"/>
    <path d="M780.329 100.047C780.754 100.726 781.34 101.517 782.147 102.302C783.073 103.203 784.01 103.825 784.796 104.254C784.851 104.191 784.905 104.13 784.962 104.064C783.469 102.682 781.976 101.3 780.483 99.9182C780.431 99.9625 780.381 100.004 780.329 100.047Z" fill="#9D413B"/>
    <path d="M786.945 94.4079C787.852 95.3249 788.763 95.9311 789.457 96.3198C788.369 95.1915 787.282 94.0632 786.195 92.9348C786.147 92.9913 786.101 93.0416 786.053 93.0989C786.014 93.1456 785.981 93.1861 785.943 93.2319C786.229 93.6153 786.551 94.0099 786.945 94.4079Z" fill="#9D413B"/>
    <path d="M796.766 85.897C797.172 86.7667 797.867 87.9858 799.031 89.1862C800.178 90.3705 801.382 91.1232 802.333 91.5963C802.428 91.548 802.525 91.499 802.625 91.4469C800.672 89.5969 798.719 87.747 796.766 85.897V85.897Z" fill="#9D413B"/>
    <path d="M798.178 82.4516C798.45 82.9546 798.794 83.4969 799.237 84.0468C800.431 85.5294 801.772 86.365 802.613 86.8015C801.262 85.2864 799.911 83.7713 798.559 82.2562C798.513 82.2797 798.466 82.3036 798.426 82.3237C798.354 82.361 798.269 82.4045 798.178 82.4516V82.4516Z" fill="#9D413B"/>
    <path d="M810.561 85.8419C809.518 84.8186 808.474 83.7954 807.431 82.7722C807.716 83.2875 808.154 83.9541 808.811 84.6224C809.4 85.222 809.993 85.647 810.495 85.9485C810.518 85.9131 810.539 85.8775 810.561 85.8419Z" fill="#9D413B"/>
    <path d="M729.057 102.942C729.657 102.984 730.304 103.004 731.003 102.981C732.323 102.936 733.476 102.758 734.421 102.549C732.619 102.629 730.817 102.709 729.016 102.79C729.03 102.841 729.044 102.892 729.057 102.942H729.057Z" fill="#9D413B"/>
    <path d="M737.369 90.8552C737.847 91.2739 738.435 91.7244 739.157 92.1466C740.236 92.7781 741.239 93.1327 741.998 93.339C740.474 92.4575 738.951 91.5761 737.427 90.6948C737.408 90.7482 737.388 90.802 737.369 90.8552H737.369Z" fill="#9D413B"/>
    <path d="M745.704 85.4035C747.034 85.6323 748.218 85.6743 749.211 85.6415C749.23 85.591 749.25 85.5407 749.27 85.4896C746.571 84.9813 743.873 84.4729 741.174 83.9645C742.265 84.4841 743.799 85.0759 745.704 85.4035Z" fill="#9D413B"/>
    <path d="M742.08 73.1922C743.512 73.3745 745.304 73.4796 747.351 73.3155C748.928 73.1892 750.31 72.9277 751.489 72.6331C751.485 72.6001 751.484 72.5658 751.479 72.5329C748.346 72.7527 745.213 72.9724 742.08 73.1922Z" fill="#9D413B"/>
    <path d="M740.225 75.3505C741.115 75.5014 742.15 75.6147 743.316 75.618C744.961 75.6226 746.373 75.4112 747.475 75.1657C745.056 75.1911 742.636 75.2165 740.217 75.242L740.225 75.3505L740.225 75.3505Z" fill="#9D413B"/>
    <path d="M767.685 88.4677C768.344 88.7355 769.097 88.9913 769.959 89.1862C771.55 89.5463 772.933 89.5799 773.939 89.5289C771.882 89.0707 769.824 88.6125 767.766 88.1543C767.739 88.2593 767.714 88.362 767.685 88.4677H767.685Z" fill="#9D413B"/>
    <path d="M771.38 64.0868C772.546 64.5277 774.079 64.9769 775.916 65.1882C778.078 65.437 779.91 65.2699 781.214 65.0512C777.948 64.6802 774.681 64.3092 771.415 63.9382C771.402 63.9881 771.392 64.0371 771.38 64.0868Z" fill="#9D413B"/>
    <path d="M770.654 70.5236C772.175 71.0259 774.015 71.5084 776.163 71.7942C778.438 72.0969 780.464 72.1037 782.142 71.995L782.18 71.8336C778.343 71.3598 774.505 70.8859 770.668 70.4121C770.663 70.4493 770.659 70.4864 770.654 70.5236V70.5236Z" fill="#9D413B"/>
    <path d="M732.019 125.793C733.228 125.798 734.306 125.683 735.218 125.525C735.215 125.467 735.213 125.409 735.21 125.352C732.801 125.343 730.392 125.335 727.983 125.327C729.042 125.57 730.414 125.787 732.019 125.793L732.019 125.793Z" fill="#9D413B"/>
    <path d="M709.59 75.0835C710.638 74.447 711.995 73.4746 713.337 72.0409C714.157 71.1652 714.789 70.3058 715.292 69.5241C715.209 69.4787 715.126 69.4348 715.043 69.3914C713.225 71.2888 711.408 73.1861 709.59 75.0835Z" fill="#9D413B"/>
    <path d="M708.781 79.6218C709.553 79.1918 710.427 78.6198 711.32 77.8382C712.746 76.5888 713.672 75.2923 714.244 74.3434C712.366 76.0366 710.488 77.7299 708.611 79.4232C708.666 79.4889 708.722 79.5555 708.781 79.6218H708.781Z" fill="#9D413B"/>
    <path d="M727.043 81.8915C727.024 81.859 727.004 81.8258 726.985 81.7931C725.263 83.4214 723.542 85.0498 721.82 86.6782C722.705 86.205 723.866 85.4645 725.032 84.3346C725.919 83.4748 726.565 82.6231 727.043 81.8915L727.043 81.8915Z" fill="#9D413B"/>
    <path d="M691.017 94.892C691.019 94.9315 691.02 94.9709 691.023 95.0111C691.959 94.8022 692.986 94.521 694.079 94.1339C695.651 93.5772 696.991 92.9347 698.088 92.3248C695.731 93.1805 693.374 94.0362 691.017 94.892H691.017Z" fill="#9D413B"/>
    <path d="M703.66 132.646C703.952 132.147 704.165 131.67 704.331 131.232C704.282 131.194 704.233 131.157 704.183 131.12C703.254 132.506 702.325 133.891 701.396 135.277C702.037 134.758 702.924 133.908 703.66 132.646Z" fill="#9D413B"/>
    <path d="M701.875 129.447C700.444 131.681 699.012 133.915 697.581 136.15C697.615 136.184 697.651 136.219 697.687 136.253C698.535 135.305 699.451 134.144 700.325 132.728C701.026 131.592 701.566 130.509 701.99 129.526C701.952 129.501 701.912 129.472 701.875 129.447Z" fill="#9D413B"/>
    <path d="M704.913 142.035C705.429 141.649 705.986 141.175 706.543 140.581C707.695 139.353 708.392 138.114 708.808 137.21C707.457 138.777 706.107 140.344 704.756 141.911C704.808 141.952 704.863 141.995 704.913 142.035Z" fill="#9D413B"/>
    <path d="M718.944 145.688C718.242 146.672 717.54 147.656 716.838 148.64C717.207 148.417 717.8 147.996 718.32 147.283C718.695 146.77 718.908 146.273 719.04 145.866C719.01 145.809 718.976 145.747 718.944 145.688H718.944Z" fill="#9D413B"/>
    <path d="M732.847 141.088C733.235 141.023 733.68 140.911 734.16 140.704C735.022 140.334 735.61 139.832 735.945 139.498C734.864 139.962 733.783 140.425 732.703 140.889C732.751 140.955 732.8 141.023 732.847 141.088L732.847 141.088Z" fill="#9D413B"/>
    <path d="M706.79 108.799C707.268 108.277 707.612 107.768 707.864 107.33C707.845 107.314 707.825 107.299 707.805 107.282C706.9 108.263 705.994 109.243 705.088 110.224C705.566 109.921 706.182 109.463 706.79 108.799L706.79 108.799Z" fill="#9D413B"/>
    <path d="M700.399 112.004C701.071 111.551 701.809 110.988 702.562 110.279C703.616 109.286 704.393 108.3 704.951 107.483C703.387 108.956 701.823 110.428 700.26 111.901C700.306 111.935 700.353 111.97 700.399 112.004Z" fill="#9D413B"/>
    <path d="M702.532 96.3101C700.703 97.0558 698.874 97.8014 697.044 98.547C697.816 98.5121 699.006 98.3658 700.339 97.8069C701.295 97.4058 702.039 96.9117 702.587 96.4773C702.57 96.4231 702.549 96.365 702.532 96.3101Z" fill="#9D413B"/>
    <path d="M780.13 80.4285L776.506 79.7981C776.956 80.0034 777.584 80.2342 778.359 80.36C779.058 80.4734 779.666 80.4672 780.13 80.4285Z" fill="#9D413B"/>
    <path d="M769.917 100.589C770.393 100.786 770.831 100.893 771.208 100.958L771.284 100.834C770.238 100.377 769.192 99.9214 768.146 99.4652C768.507 99.7932 769.093 100.249 769.917 100.589V100.589Z" fill="#9D413B"/>
    <path d="M722.953 81.6826C723.35 81.5273 724.014 81.2083 724.641 80.5724C725.047 80.1603 725.311 79.7435 725.485 79.4068C725.466 79.3792 725.449 79.3517 725.43 79.324C724.604 80.1102 723.778 80.8964 722.953 81.6826H722.953Z" fill="#9D413B"/>
    <path d="M717.606 113.266C717.37 114.441 717.133 115.615 716.896 116.789L716.985 116.785C717.162 116.416 717.343 115.954 717.469 115.405C717.67 114.533 717.657 113.782 717.606 113.266Z" fill="#9D413B"/>
    <path d="M733.803 127.794C734.463 127.789 735.028 127.693 735.479 127.581L735.463 127.488L731.525 127.438C732.05 127.61 732.837 127.801 733.803 127.794Z" fill="#9D413B"/>
    <path d="M789.832 126.07C790.345 126.842 790.93 127.65 791.619 128.479C793.022 130.172 794.444 131.486 795.682 132.481C793.795 130.308 791.908 128.135 790.021 125.962C789.958 125.998 789.894 126.032 789.832 126.07Z" fill="#9D413B"/>
    <path d="M527.073 456.324C533.479 456.868 535.376 456.153 536.562 455.488C539.224 453.994 538.683 452.409 542.33 448.8C544.034 447.113 545.759 445.705 549.958 443.505C550.966 442.977 558.304 440.046 559.076 439.789C564.355 438.034 569.222 435.107 570.705 434.216C575.939 431.068 578.574 429.433 579.45 426.413C580.166 423.943 579.974 420.273 577.682 418.61C575.736 417.2 573.134 417.852 572.147 418.099C569.604 418.737 568.177 420.199 565.309 422.976C560.856 427.288 558.633 429.449 557.773 430.036C554.231 432.453 547.988 433.827 546.33 434.402C544.578 435.009 541.875 435.946 539.446 434.804C536.777 433.549 535.966 430.503 535.849 430.036C535.249 427.642 536.113 425.59 537.864 421.583C543.314 409.119 543.966 408.064 545.772 406.72C547.048 405.771 548.7 405.035 552.005 403.562C558.266 400.772 559.101 401.46 562.239 399.475C565.044 397.701 564.223 397.163 569.681 392.415C572.038 390.366 573.538 389.073 575.821 387.678C579.095 385.678 579.861 385.985 583.357 384.055C586.887 382.108 591.284 379.681 590.986 377.274C590.734 375.247 587.219 373.781 584.752 373.652C582.072 373.512 579.31 374.87 578.426 375.324C577.66 375.717 575.905 376.586 572.844 379.318C570.466 381.441 568.491 383.204 566.053 386.099C562.81 389.95 563.186 390.534 560.75 392.694C558.134 395.015 555.91 395.928 554.238 396.596C552.475 397.299 550.433 398.114 549.865 397.432C549.226 396.662 550.955 394.583 552.842 391.208C553.897 389.322 554.848 386.886 556.75 382.012C558.296 378.049 559.867 374.023 561.215 368.729C563.093 361.359 564.108 357.13 561.774 354.331C561.606 354.129 559.64 351.844 556.843 352.008C554.499 352.146 553.017 353.918 552.749 354.238C551.284 355.99 551.176 358.054 551.075 359.532C550.814 363.36 550.047 367.139 549.679 370.958C549.679 370.958 549.153 376.422 547.354 382.662C546.978 383.963 546.155 386.635 540.655 397.617C535.388 408.135 534.763 408.438 533.12 412.944C531.802 416.557 530.462 420.23 529.584 425.391C528.387 432.43 529.092 436.105 527.259 436.817C524.863 437.747 520.839 432.564 520.095 431.615C516.669 427.243 515.823 422.601 515.444 420.375C514.831 416.781 515.592 417.335 515.444 408.207C515.338 401.728 514.936 400.3 516.002 397.617C516.761 395.707 518.028 394.146 520.56 391.022C523.881 386.927 524.692 386.62 526.421 384.055C526.832 383.447 528.881 380.354 530.143 375.881C530.823 373.469 533.399 364.339 529.398 361.297C527.989 360.226 525.879 359.998 524.189 360.554C521.813 361.335 520.781 363.492 520.56 363.991C519.775 365.768 520.227 367.004 520.281 369.565C520.327 371.724 520.002 373.388 519.351 376.717C518.528 380.927 516.152 388.99 513.862 388.886C512.588 388.828 512.354 386.288 510.141 381.176C508.816 378.116 506.267 372.352 501.582 367.614C499.847 365.859 494.009 359.954 489.86 361.669C488.026 362.427 486.915 364.772 486.697 366.685C486.441 368.93 487.452 370.65 487.906 371.422C488.529 372.482 489.271 373.249 491.069 374.674C493.885 376.905 495.377 377.649 497.488 379.132C499.156 380.303 501.261 381.783 503.256 384.055C504.003 384.906 506.48 387.856 508.001 392.508C509.326 396.561 510.503 400.159 508.745 402.633C505.988 406.515 498.072 404.72 496.651 404.398C495.149 404.058 487.579 402.341 484.65 396.317C483.209 393.353 483.538 390.678 480.743 384.891C480.211 383.791 479.531 382.505 478.138 381.919C476.081 381.054 473.283 382.058 471.905 383.87C471.535 384.356 470.45 385.976 471.346 390.465C471.792 392.696 473.092 398.731 478.696 403.655C484.175 408.47 490.587 409.426 491.907 409.6C498.459 410.463 503.158 408.304 505.303 411.086C505.992 411.98 505.962 412.793 506.14 414.616C506.644 419.754 508.063 425.306 509.769 429.014C512.41 434.757 515.906 436.441 514.978 439.603C514.542 441.092 513.405 441.963 512.839 442.39C509.705 444.758 504.917 444.104 501.861 442.204C499.052 440.458 499.766 438.944 496.093 434.402C494.037 431.859 491.786 430.085 487.286 426.537C482.058 422.415 479.411 420.37 477.812 421.134C476.217 421.896 475.668 424.71 476.184 426.785C476.653 428.67 477.904 429.552 481.022 431.986C486.957 436.621 489.925 438.939 491.72 440.997C491.937 441.245 493.853 443.456 496.102 445.913C496.233 446.056 496.263 446.088 496.279 446.106C497.68 447.608 498.746 448.733 500.465 449.728C502.273 450.774 503.722 451.051 505.582 451.493C510.467 452.654 509.572 452.906 514.699 454.187C517.943 454.998 520.944 455.803 527.073 456.324L527.073 456.324Z" fill="#D75047"/>
    <path d="M565.936 426.879C567.014 428.867 568.558 431.291 570.74 433.787C570.82 433.878 570.899 433.961 570.979 434.051C571.272 433.874 571.559 433.701 571.836 433.533C569.869 431.315 567.902 429.097 565.936 426.879Z" fill="#9D413B"/>
    <path d="M536.641 424.476C536.655 424.44 536.668 424.406 536.682 424.37L530.072 422.903C530.066 422.932 530.059 422.96 530.053 422.989C530.919 423.333 531.917 423.67 533.054 423.94C534.381 424.254 535.588 424.407 536.641 424.476V424.476Z" fill="#9D413B"/>
    <path d="M538.785 413.256C539.658 413.622 540.476 413.863 541.218 414.033C541.269 413.922 541.319 413.813 541.368 413.705C539.391 412.907 537.413 412.109 535.436 411.31C536.228 411.92 537.343 412.653 538.785 413.256V413.256Z" fill="#9D413B"/>
    <path d="M550.26 433.249C550.088 433.302 549.915 433.355 549.748 433.404C550.525 435.093 551.5 436.337 552.265 437.158C551.596 435.855 550.928 434.552 550.26 433.249Z" fill="#9D413B"/>
    <path d="M560.135 427.958C560.04 428.047 559.95 428.132 559.861 428.216C560.676 429.556 561.766 431.088 563.218 432.636C564.611 434.12 566.015 435.275 567.281 436.17C567.442 436.083 567.605 435.996 567.758 435.912C565.217 433.261 562.676 430.61 560.135 427.958Z" fill="#9D413B"/>
    <path d="M556.465 359.778C557.567 360.106 559.065 360.432 560.857 360.491C561.633 360.516 562.35 360.485 563.008 360.424C563.023 360.3 563.036 360.176 563.048 360.054C560.854 359.962 558.659 359.87 556.465 359.778L556.465 359.778Z" fill="#9D413B"/>
    <path d="M560.329 393.047C560.754 393.726 561.34 394.517 562.147 395.302C563.073 396.203 564.01 396.825 564.796 397.254C564.851 397.191 564.905 397.13 564.962 397.064C563.469 395.682 561.976 394.3 560.483 392.918C560.431 392.963 560.381 393.004 560.329 393.047Z" fill="#9D413B"/>
    <path d="M566.945 387.408C567.852 388.325 568.763 388.931 569.457 389.32C568.369 388.192 567.282 387.063 566.195 385.935C566.147 385.991 566.101 386.042 566.053 386.099C566.014 386.146 565.981 386.186 565.943 386.232C566.229 386.615 566.551 387.01 566.945 387.408Z" fill="#9D413B"/>
    <path d="M576.766 378.897C577.172 379.767 577.867 380.986 579.031 382.186C580.178 383.371 581.382 384.123 582.333 384.596C582.428 384.548 582.525 384.499 582.625 384.447C580.672 382.597 578.719 380.747 576.766 378.897V378.897Z" fill="#9D413B"/>
    <path d="M578.178 375.452C578.45 375.955 578.794 376.497 579.237 377.047C580.431 378.529 581.772 379.365 582.613 379.802C581.262 378.286 579.911 376.771 578.559 375.256C578.513 375.28 578.466 375.304 578.426 375.324C578.354 375.361 578.269 375.405 578.178 375.452V375.452Z" fill="#9D413B"/>
    <path d="M590.561 378.842C589.518 377.819 588.474 376.795 587.431 375.772C587.716 376.288 588.154 376.954 588.811 377.622C589.4 378.222 589.993 378.647 590.495 378.949C590.518 378.913 590.539 378.878 590.561 378.842Z" fill="#9D413B"/>
    <path d="M509.057 395.942C509.657 395.984 510.304 396.004 511.003 395.981C512.323 395.936 513.476 395.758 514.421 395.549C512.619 395.629 510.817 395.709 509.016 395.79C509.03 395.841 509.044 395.892 509.057 395.942H509.057Z" fill="#9D413B"/>
    <path d="M517.369 383.855C517.847 384.274 518.435 384.725 519.157 385.147C520.236 385.778 521.239 386.133 521.998 386.339C520.474 385.458 518.951 384.576 517.427 383.695C517.408 383.748 517.388 383.802 517.369 383.855H517.369Z" fill="#9D413B"/>
    <path d="M525.704 378.404C527.034 378.632 528.218 378.674 529.211 378.642C529.23 378.591 529.25 378.541 529.27 378.49C526.571 377.981 523.873 377.473 521.174 376.965C522.265 377.484 523.799 378.076 525.704 378.404Z" fill="#9D413B"/>
    <path d="M522.08 366.192C523.512 366.375 525.304 366.48 527.351 366.316C528.928 366.189 530.31 365.928 531.489 365.633C531.485 365.6 531.484 365.566 531.479 365.533C528.346 365.753 525.213 365.972 522.08 366.192Z" fill="#9D413B"/>
    <path d="M520.225 368.351C521.115 368.501 522.15 368.615 523.316 368.618C524.961 368.623 526.373 368.411 527.475 368.166C525.056 368.191 522.636 368.217 520.217 368.242L520.225 368.351L520.225 368.351Z" fill="#9D413B"/>
    <path d="M547.685 381.468C548.344 381.736 549.097 381.991 549.959 382.186C551.55 382.546 552.933 382.58 553.939 382.529C551.882 382.071 549.824 381.613 547.766 381.154C547.739 381.259 547.714 381.362 547.685 381.468H547.685Z" fill="#9D413B"/>
    <path d="M551.38 357.087C552.546 357.528 554.079 357.977 555.916 358.188C558.078 358.437 559.91 358.27 561.214 358.051C557.948 357.68 554.681 357.309 551.415 356.938C551.402 356.988 551.392 357.037 551.38 357.087Z" fill="#9D413B"/>
    <path d="M550.654 363.524C552.175 364.026 554.015 364.508 556.163 364.794C558.438 365.097 560.464 365.104 562.142 364.995L562.18 364.834C558.343 364.36 554.505 363.886 550.668 363.412C550.663 363.449 550.659 363.487 550.654 363.524V363.524Z" fill="#9D413B"/>
    <path d="M512.019 418.793C513.228 418.798 514.306 418.683 515.218 418.525C515.215 418.467 515.213 418.409 515.21 418.352C512.801 418.344 510.392 418.335 507.983 418.327C509.042 418.571 510.414 418.787 512.019 418.793L512.019 418.793Z" fill="#9D413B"/>
    <path d="M489.59 368.084C490.638 367.447 491.995 366.475 493.337 365.041C494.157 364.165 494.789 363.306 495.292 362.524C495.209 362.479 495.126 362.435 495.043 362.391C493.225 364.289 491.408 366.186 489.59 368.084Z" fill="#9D413B"/>
    <path d="M488.781 372.622C489.553 372.192 490.427 371.62 491.32 370.838C492.746 369.589 493.672 368.292 494.244 367.344C492.366 369.037 490.488 370.73 488.611 372.423C488.666 372.489 488.722 372.556 488.781 372.622H488.781Z" fill="#9D413B"/>
    <path d="M507.043 374.892C507.024 374.859 507.004 374.826 506.985 374.793C505.263 376.421 503.542 378.05 501.82 379.678C502.705 379.205 503.866 378.465 505.032 377.335C505.919 376.475 506.565 375.623 507.043 374.892L507.043 374.892Z" fill="#9D413B"/>
    <path d="M471.017 387.892C471.019 387.932 471.02 387.971 471.023 388.011C471.959 387.802 472.986 387.521 474.079 387.134C475.651 386.577 476.991 385.935 478.088 385.325C475.731 386.181 473.374 387.036 471.017 387.892H471.017Z" fill="#9D413B"/>
    <path d="M483.66 425.646C483.952 425.147 484.165 424.67 484.331 424.232C484.282 424.194 484.233 424.157 484.183 424.12C483.254 425.506 482.325 426.891 481.396 428.277C482.037 427.758 482.924 426.908 483.66 425.646Z" fill="#9D413B"/>
    <path d="M481.875 422.447C480.444 424.681 479.012 426.916 477.581 429.15C477.615 429.184 477.651 429.219 477.687 429.253C478.535 428.305 479.451 427.144 480.325 425.728C481.026 424.592 481.566 423.509 481.99 422.526C481.952 422.501 481.912 422.472 481.875 422.447Z" fill="#9D413B"/>
    <path d="M484.913 435.035C485.429 434.649 485.986 434.175 486.543 433.581C487.695 432.353 488.392 431.114 488.808 430.21C487.457 431.777 486.107 433.344 484.756 434.911C484.808 434.952 484.863 434.995 484.913 435.035Z" fill="#9D413B"/>
    <path d="M498.944 438.688C498.242 439.672 497.54 440.656 496.838 441.64C497.207 441.417 497.8 440.996 498.32 440.283C498.695 439.77 498.908 439.273 499.04 438.866C499.01 438.809 498.976 438.747 498.944 438.688H498.944Z" fill="#9D413B"/>
    <path d="M512.847 434.088C513.235 434.023 513.68 433.911 514.16 433.705C515.022 433.334 515.61 432.832 515.945 432.499C514.864 432.962 513.783 433.425 512.703 433.889C512.751 433.955 512.8 434.024 512.847 434.088L512.847 434.088Z" fill="#9D413B"/>
    <path d="M486.79 401.799C487.268 401.277 487.612 400.768 487.864 400.33C487.845 400.314 487.825 400.299 487.805 400.282C486.9 401.263 485.994 402.243 485.088 403.224C485.566 402.921 486.182 402.463 486.79 401.799L486.79 401.799Z" fill="#9D413B"/>
    <path d="M480.399 405.004C481.071 404.551 481.809 403.988 482.562 403.279C483.616 402.286 484.393 401.3 484.951 400.483C483.387 401.956 481.823 403.428 480.26 404.901C480.306 404.935 480.353 404.97 480.399 405.004Z" fill="#9D413B"/>
    <path d="M482.532 389.31C480.703 390.056 478.874 390.801 477.044 391.547C477.816 391.512 479.006 391.366 480.339 390.807C481.295 390.406 482.039 389.912 482.587 389.477C482.57 389.423 482.549 389.365 482.532 389.31Z" fill="#9D413B"/>
    <path d="M560.13 373.429L556.506 372.798C556.956 373.004 557.584 373.234 558.359 373.36C559.058 373.474 559.666 373.467 560.13 373.429Z" fill="#9D413B"/>
    <path d="M549.917 393.589C550.393 393.786 550.831 393.893 551.208 393.958L551.284 393.834C550.238 393.378 549.192 392.921 548.146 392.465C548.507 392.793 549.093 393.249 549.917 393.589V393.589Z" fill="#9D413B"/>
    <path d="M502.953 374.683C503.35 374.527 504.014 374.208 504.641 373.572C505.047 373.16 505.311 372.744 505.485 372.407C505.466 372.379 505.449 372.352 505.43 372.324C504.604 373.11 503.778 373.896 502.953 374.683H502.953Z" fill="#9D413B"/>
    <path d="M497.606 406.267C497.37 407.441 497.133 408.615 496.896 409.789L496.985 409.786C497.162 409.416 497.343 408.955 497.469 408.405C497.67 407.533 497.657 406.782 497.606 406.267Z" fill="#9D413B"/>
    <path d="M513.803 420.794C514.463 420.79 515.028 420.693 515.479 420.581L515.463 420.488L511.525 420.438C512.05 420.61 512.837 420.801 513.803 420.794Z" fill="#9D413B"/>
    <path d="M569.832 419.07C570.345 419.842 570.93 420.65 571.619 421.479C573.022 423.172 574.444 424.486 575.682 425.481C573.795 423.308 571.908 421.135 570.021 418.962C569.958 418.998 569.894 419.032 569.832 419.07Z" fill="#9D413B"/>
    <path d="M633.073 301.324C639.479 301.868 641.376 301.153 642.562 300.488C645.224 298.994 644.683 297.409 648.33 293.8C650.034 292.113 651.759 290.705 655.958 288.505C656.966 287.977 664.304 285.046 665.076 284.789C670.355 283.034 675.222 280.107 676.705 279.216C681.939 276.068 684.574 274.433 685.45 271.413C686.166 268.943 685.974 265.273 683.682 263.61C681.736 262.2 679.134 262.852 678.147 263.099C675.604 263.737 674.177 265.199 671.309 267.976C666.856 272.288 664.633 274.449 663.773 275.036C660.231 277.453 653.988 278.827 652.33 279.402C650.578 280.009 647.875 280.946 645.446 279.804C642.777 278.549 641.966 275.503 641.849 275.036C641.249 272.642 642.113 270.59 643.864 266.583C649.314 254.119 649.966 253.064 651.772 251.72C653.048 250.771 654.7 250.035 658.005 248.562C664.266 245.772 665.101 246.46 668.239 244.475C671.044 242.701 670.223 242.163 675.681 237.415C678.038 235.366 679.538 234.073 681.821 232.678C685.095 230.678 685.861 230.985 689.357 229.055C692.887 227.108 697.284 224.681 696.986 222.274C696.734 220.247 693.219 218.781 690.752 218.652C688.072 218.512 685.31 219.87 684.426 220.324C683.66 220.717 681.905 221.586 678.844 224.318C676.466 226.441 674.491 228.204 672.053 231.099C668.81 234.95 669.186 235.534 666.75 237.694C664.134 240.015 661.91 240.928 660.238 241.596C658.475 242.299 656.433 243.114 655.865 242.432C655.226 241.662 656.955 239.583 658.842 236.208C659.897 234.322 660.848 231.886 662.75 227.012C664.296 223.049 665.867 219.023 667.215 213.729C669.093 206.359 670.108 202.13 667.774 199.331C667.606 199.129 665.64 196.844 662.843 197.008C660.499 197.146 659.017 198.918 658.749 199.238C657.284 200.99 657.176 203.054 657.075 204.532C656.814 208.36 656.047 212.139 655.679 215.958C655.679 215.958 655.153 221.422 653.354 227.662C652.978 228.963 652.155 231.635 646.655 242.617C641.388 253.135 640.763 253.438 639.12 257.944C637.802 261.557 636.462 265.23 635.584 270.391C634.387 277.43 635.092 281.105 633.259 281.817C630.863 282.747 626.839 277.564 626.095 276.615C622.669 272.243 621.823 267.601 621.444 265.375C620.831 261.781 621.592 262.335 621.444 253.207C621.338 246.728 620.936 245.3 622.002 242.617C622.761 240.707 624.028 239.146 626.56 236.022C629.881 231.927 630.692 231.62 632.421 229.055C632.832 228.447 634.881 225.354 636.143 220.881C636.823 218.469 639.399 209.339 635.398 206.297C633.989 205.226 631.879 204.998 630.189 205.554C627.813 206.335 626.781 208.492 626.56 208.991C625.775 210.768 626.227 212.004 626.281 214.565C626.327 216.724 626.002 218.388 625.351 221.717C624.528 225.927 622.152 233.99 619.862 233.886C618.588 233.828 618.354 231.288 616.141 226.176C614.816 223.116 612.267 217.352 607.582 212.614C605.847 210.859 600.009 204.954 595.86 206.669C594.026 207.427 592.915 209.772 592.697 211.685C592.441 213.93 593.452 215.65 593.906 216.422C594.529 217.482 595.271 218.249 597.069 219.674C599.885 221.905 601.377 222.649 603.488 224.132C605.156 225.303 607.261 226.783 609.256 229.055C610.003 229.906 612.48 232.856 614.001 237.508C615.326 241.561 616.503 245.159 614.745 247.633C611.988 251.515 604.072 249.72 602.651 249.398C601.149 249.058 593.579 247.341 590.65 241.317C589.209 238.353 589.538 235.678 586.743 229.891C586.211 228.791 585.531 227.505 584.138 226.919C582.081 226.054 579.283 227.058 577.905 228.87C577.535 229.356 576.45 230.976 577.346 235.465C577.792 237.696 579.092 243.731 584.696 248.655C590.175 253.47 596.587 254.426 597.907 254.6C604.459 255.463 609.158 253.304 611.303 256.086C611.992 256.98 611.962 257.793 612.14 259.616C612.644 264.754 614.063 270.306 615.769 274.014C618.41 279.757 621.906 281.441 620.978 284.603C620.542 286.092 619.405 286.963 618.839 287.39C615.705 289.758 610.917 289.104 607.861 287.204C605.052 285.458 605.766 283.944 602.093 279.402C600.037 276.859 597.786 275.085 593.286 271.537C588.058 267.415 585.411 265.37 583.812 266.134C582.217 266.896 581.668 269.71 582.184 271.785C582.653 273.67 583.904 274.552 587.022 276.986C592.957 281.621 595.925 283.939 597.72 285.997C597.937 286.245 599.853 288.456 602.102 290.913C602.233 291.056 602.263 291.088 602.279 291.106C603.68 292.608 604.746 293.733 606.465 294.728C608.273 295.774 609.722 296.051 611.582 296.493C616.467 297.654 615.572 297.906 620.699 299.187C623.943 299.998 626.944 300.803 633.073 301.324L633.073 301.324Z" fill="#D75047"/>
    <path d="M671.936 271.879C673.014 273.867 674.558 276.291 676.74 278.787C676.82 278.878 676.899 278.961 676.979 279.051C677.272 278.874 677.559 278.701 677.836 278.533C675.869 276.315 673.902 274.097 671.936 271.879Z" fill="#9D413B"/>
    <path d="M642.641 269.476C642.655 269.44 642.668 269.406 642.682 269.37L636.072 267.903C636.066 267.932 636.059 267.96 636.053 267.989C636.919 268.333 637.917 268.67 639.054 268.939C640.381 269.254 641.588 269.407 642.641 269.476V269.476Z" fill="#9D413B"/>
    <path d="M644.785 258.256C645.658 258.621 646.476 258.863 647.218 259.033C647.269 258.922 647.319 258.813 647.368 258.705C645.391 257.907 643.413 257.108 641.436 256.31C642.228 256.92 643.343 257.652 644.785 258.256V258.256Z" fill="#9D413B"/>
    <path d="M656.26 278.249C656.088 278.302 655.915 278.355 655.748 278.404C656.525 280.093 657.5 281.337 658.265 282.158C657.596 280.855 656.928 279.552 656.26 278.249Z" fill="#9D413B"/>
    <path d="M666.135 272.958C666.04 273.047 665.95 273.132 665.861 273.216C666.676 274.556 667.766 276.088 669.218 277.636C670.611 279.12 672.015 280.275 673.281 281.17C673.442 281.083 673.605 280.996 673.758 280.912C671.217 278.261 668.676 275.61 666.135 272.958Z" fill="#9D413B"/>
    <path d="M662.465 204.778C663.567 205.106 665.065 205.432 666.857 205.491C667.633 205.516 668.35 205.485 669.008 205.424C669.023 205.3 669.036 205.175 669.048 205.054C666.854 204.962 664.659 204.87 662.465 204.778L662.465 204.778Z" fill="#9D413B"/>
    <path d="M666.329 238.047C666.754 238.726 667.34 239.517 668.147 240.302C669.073 241.203 670.01 241.825 670.796 242.254C670.851 242.191 670.905 242.13 670.962 242.064C669.469 240.682 667.976 239.3 666.483 237.918C666.431 237.963 666.381 238.004 666.329 238.047Z" fill="#9D413B"/>
    <path d="M672.945 232.408C673.852 233.325 674.763 233.931 675.457 234.32C674.369 233.191 673.282 232.063 672.195 230.935C672.147 230.991 672.101 231.042 672.053 231.099C672.014 231.146 671.981 231.186 671.943 231.232C672.229 231.615 672.551 232.01 672.945 232.408Z" fill="#9D413B"/>
    <path d="M682.766 223.897C683.172 224.767 683.867 225.986 685.031 227.186C686.178 228.37 687.382 229.123 688.333 229.596C688.428 229.548 688.525 229.499 688.625 229.447C686.672 227.597 684.719 225.747 682.766 223.897V223.897Z" fill="#9D413B"/>
    <path d="M684.178 220.452C684.45 220.955 684.794 221.497 685.237 222.047C686.431 223.529 687.772 224.365 688.613 224.802C687.262 223.286 685.911 221.771 684.559 220.256C684.513 220.28 684.466 220.304 684.426 220.324C684.354 220.361 684.269 220.404 684.178 220.452V220.452Z" fill="#9D413B"/>
    <path d="M696.561 223.842C695.518 222.819 694.474 221.795 693.431 220.772C693.716 221.288 694.154 221.954 694.811 222.622C695.4 223.222 695.993 223.647 696.495 223.949C696.518 223.913 696.539 223.877 696.561 223.842Z" fill="#9D413B"/>
    <path d="M615.057 240.942C615.657 240.984 616.304 241.004 617.003 240.981C618.323 240.936 619.476 240.758 620.421 240.549C618.619 240.629 616.817 240.709 615.016 240.79C615.03 240.841 615.044 240.892 615.057 240.942H615.057Z" fill="#9D413B"/>
    <path d="M623.369 228.855C623.847 229.274 624.435 229.724 625.157 230.147C626.236 230.778 627.239 231.133 627.998 231.339C626.474 230.458 624.951 229.576 623.427 228.695C623.408 228.748 623.388 228.802 623.369 228.855H623.369Z" fill="#9D413B"/>
    <path d="M631.704 223.404C633.034 223.632 634.218 223.674 635.211 223.642C635.23 223.591 635.25 223.541 635.27 223.49C632.571 222.981 629.873 222.473 627.174 221.964C628.265 222.484 629.799 223.076 631.704 223.404Z" fill="#9D413B"/>
    <path d="M628.08 211.192C629.512 211.375 631.304 211.48 633.351 211.316C634.928 211.189 636.31 210.928 637.489 210.633C637.485 210.6 637.484 210.566 637.479 210.533C634.346 210.753 631.213 210.972 628.08 211.192Z" fill="#9D413B"/>
    <path d="M626.225 213.351C627.115 213.501 628.15 213.615 629.316 213.618C630.961 213.623 632.373 213.411 633.475 213.166C631.056 213.191 628.636 213.217 626.217 213.242L626.225 213.351L626.225 213.351Z" fill="#9D413B"/>
    <path d="M653.685 226.468C654.344 226.736 655.097 226.991 655.959 227.186C657.55 227.546 658.933 227.58 659.939 227.529C657.882 227.071 655.824 226.612 653.766 226.154C653.739 226.259 653.714 226.362 653.685 226.468H653.685Z" fill="#9D413B"/>
    <path d="M657.38 202.087C658.546 202.528 660.079 202.977 661.916 203.188C664.078 203.437 665.91 203.27 667.214 203.051C663.948 202.68 660.681 202.309 657.415 201.938C657.402 201.988 657.392 202.037 657.38 202.087Z" fill="#9D413B"/>
    <path d="M656.654 208.524C658.175 209.026 660.015 209.508 662.163 209.794C664.438 210.097 666.464 210.104 668.142 209.995L668.18 209.834C664.343 209.36 660.505 208.886 656.668 208.412C656.663 208.449 656.659 208.486 656.654 208.524V208.524Z" fill="#9D413B"/>
    <path d="M618.019 263.793C619.228 263.798 620.306 263.683 621.218 263.525C621.215 263.467 621.213 263.409 621.21 263.352C618.801 263.343 616.392 263.335 613.983 263.327C615.042 263.57 616.414 263.787 618.019 263.793L618.019 263.793Z" fill="#9D413B"/>
    <path d="M595.59 213.083C596.638 212.447 597.995 211.475 599.337 210.041C600.157 209.165 600.789 208.306 601.292 207.524C601.209 207.479 601.126 207.435 601.043 207.391C599.225 209.289 597.408 211.186 595.59 213.083Z" fill="#9D413B"/>
    <path d="M594.781 217.622C595.553 217.192 596.427 216.62 597.32 215.838C598.746 214.589 599.672 213.292 600.244 212.343C598.366 214.037 596.488 215.73 594.611 217.423C594.666 217.489 594.722 217.556 594.781 217.622H594.781Z" fill="#9D413B"/>
    <path d="M613.043 219.892C613.024 219.859 613.004 219.826 612.985 219.793C611.263 221.421 609.542 223.05 607.82 224.678C608.705 224.205 609.866 223.465 611.032 222.335C611.919 221.475 612.565 220.623 613.043 219.892L613.043 219.892Z" fill="#9D413B"/>
    <path d="M577.017 232.892C577.019 232.932 577.02 232.971 577.023 233.011C577.959 232.802 578.986 232.521 580.079 232.134C581.651 231.577 582.991 230.935 584.088 230.325C581.731 231.18 579.374 232.036 577.017 232.892H577.017Z" fill="#9D413B"/>
    <path d="M589.66 270.646C589.952 270.147 590.165 269.67 590.331 269.232C590.282 269.194 590.233 269.157 590.183 269.12C589.254 270.506 588.325 271.891 587.396 273.277C588.037 272.758 588.924 271.908 589.66 270.646Z" fill="#9D413B"/>
    <path d="M587.875 267.447C586.444 269.681 585.012 271.915 583.581 274.15C583.615 274.184 583.651 274.219 583.687 274.253C584.535 273.305 585.451 272.144 586.325 270.728C587.026 269.592 587.566 268.509 587.99 267.526C587.952 267.501 587.912 267.472 587.875 267.447Z" fill="#9D413B"/>
    <path d="M590.913 280.035C591.429 279.649 591.986 279.175 592.543 278.581C593.695 277.353 594.392 276.114 594.808 275.21C593.457 276.777 592.107 278.344 590.756 279.911C590.808 279.952 590.863 279.995 590.913 280.035Z" fill="#9D413B"/>
    <path d="M604.944 283.688C604.242 284.672 603.54 285.656 602.838 286.64C603.207 286.417 603.8 285.996 604.32 285.283C604.695 284.77 604.908 284.273 605.04 283.866C605.01 283.809 604.976 283.747 604.944 283.688H604.944Z" fill="#9D413B"/>
    <path d="M618.847 279.088C619.235 279.023 619.68 278.911 620.16 278.704C621.022 278.334 621.61 277.832 621.945 277.498C620.864 277.962 619.783 278.425 618.703 278.889C618.751 278.955 618.8 279.023 618.847 279.088L618.847 279.088Z" fill="#9D413B"/>
    <path d="M592.79 246.799C593.268 246.277 593.612 245.768 593.864 245.33C593.845 245.314 593.825 245.299 593.805 245.282C592.9 246.263 591.994 247.243 591.088 248.224C591.566 247.921 592.182 247.463 592.79 246.799L592.79 246.799Z" fill="#9D413B"/>
    <path d="M586.399 250.004C587.071 249.551 587.809 248.988 588.562 248.279C589.616 247.286 590.393 246.3 590.951 245.483C589.387 246.956 587.823 248.428 586.26 249.901C586.306 249.935 586.353 249.97 586.399 250.004Z" fill="#9D413B"/>
    <path d="M588.532 234.31C586.703 235.056 584.874 235.801 583.044 236.547C583.816 236.512 585.006 236.366 586.339 235.807C587.295 235.406 588.039 234.912 588.587 234.477C588.57 234.423 588.549 234.365 588.532 234.31Z" fill="#9D413B"/>
    <path d="M666.13 218.429L662.506 217.798C662.956 218.003 663.584 218.234 664.359 218.36C665.058 218.473 665.666 218.467 666.13 218.429Z" fill="#9D413B"/>
    <path d="M655.917 238.589C656.393 238.786 656.831 238.893 657.208 238.958L657.284 238.834C656.238 238.377 655.192 237.921 654.146 237.465C654.507 237.793 655.093 238.249 655.917 238.589V238.589Z" fill="#9D413B"/>
    <path d="M608.953 219.683C609.35 219.527 610.014 219.208 610.641 218.572C611.047 218.16 611.311 217.744 611.485 217.407C611.466 217.379 611.449 217.352 611.43 217.324C610.604 218.11 609.778 218.896 608.953 219.683H608.953Z" fill="#9D413B"/>
    <path d="M603.606 251.266C603.37 252.441 603.133 253.615 602.896 254.789L602.985 254.785C603.162 254.416 603.343 253.954 603.469 253.405C603.67 252.533 603.657 251.782 603.606 251.266Z" fill="#9D413B"/>
    <path d="M619.803 265.794C620.463 265.789 621.028 265.693 621.479 265.581L621.463 265.488L617.525 265.438C618.05 265.61 618.837 265.801 619.803 265.794Z" fill="#9D413B"/>
    <path d="M675.832 264.07C676.345 264.842 676.93 265.65 677.619 266.479C679.022 268.172 680.444 269.486 681.682 270.481C679.795 268.308 677.908 266.135 676.021 263.962C675.958 263.998 675.894 264.032 675.832 264.07Z" fill="#9D413B"/>
    <path d="M150.073 204.324C156.479 204.868 158.376 204.153 159.562 203.488C162.224 201.994 161.683 200.409 165.33 196.8C167.034 195.113 168.759 193.705 172.958 191.505C173.966 190.977 181.304 188.046 182.076 187.789C187.355 186.034 192.222 183.107 193.705 182.216C198.939 179.068 201.574 177.433 202.45 174.413C203.166 171.943 202.974 168.273 200.682 166.61C198.736 165.2 196.134 165.852 195.147 166.099C192.604 166.737 191.177 168.199 188.309 170.976C183.856 175.288 181.633 177.449 180.773 178.036C177.231 180.453 170.988 181.827 169.33 182.402C167.578 183.009 164.875 183.946 162.446 182.804C159.777 181.549 158.966 178.503 158.849 178.036C158.249 175.642 159.113 173.59 160.864 169.583C166.314 157.119 166.966 156.064 168.772 154.72C170.048 153.771 171.7 153.035 175.005 151.562C181.266 148.772 182.101 149.46 185.239 147.475C188.044 145.701 187.223 145.163 192.681 140.415C195.038 138.366 196.538 137.073 198.821 135.678C202.095 133.678 202.861 133.985 206.357 132.055C209.887 130.108 214.284 127.681 213.986 125.274C213.734 123.247 210.219 121.781 207.752 121.652C205.072 121.512 202.31 122.87 201.426 123.324C200.66 123.717 198.905 124.586 195.844 127.318C193.466 129.441 191.491 131.204 189.053 134.099C185.81 137.95 186.186 138.534 183.75 140.694C181.134 143.015 178.91 143.928 177.238 144.596C175.475 145.299 173.433 146.114 172.865 145.432C172.226 144.662 173.955 142.583 175.842 139.208C176.897 137.322 177.848 134.886 179.75 130.012C181.296 126.049 182.867 122.023 184.215 116.729C186.093 109.359 187.108 105.13 184.774 102.331C184.606 102.129 182.64 99.8444 179.843 100.008C177.499 100.146 176.017 101.918 175.749 102.238C174.284 103.99 174.176 106.054 174.075 107.532C173.814 111.36 173.047 115.139 172.679 118.958C172.679 118.958 172.153 124.422 170.354 130.662C169.978 131.963 169.155 134.635 163.655 145.617C158.388 156.135 157.763 156.438 156.12 160.944C154.802 164.557 153.462 168.23 152.584 173.391C151.387 180.43 152.092 184.105 150.259 184.817C147.863 185.747 143.839 180.564 143.095 179.615C139.669 175.243 138.823 170.601 138.444 168.375C137.831 164.781 138.592 165.335 138.444 156.207C138.338 149.728 137.936 148.3 139.002 145.617C139.761 143.707 141.028 142.146 143.56 139.022C146.881 134.927 147.692 134.62 149.421 132.055C149.832 131.447 151.881 128.354 153.143 123.881C153.823 121.469 156.399 112.339 152.398 109.297C150.989 108.226 148.879 107.998 147.189 108.554C144.813 109.335 143.781 111.492 143.56 111.991C142.775 113.768 143.227 115.004 143.281 117.565C143.327 119.724 143.002 121.388 142.351 124.717C141.528 128.927 139.152 136.99 136.862 136.886C135.588 136.828 135.354 134.288 133.141 129.176C131.816 126.116 129.267 120.352 124.582 115.614C122.847 113.859 117.009 107.954 112.86 109.669C111.026 110.427 109.915 112.772 109.697 114.685C109.441 116.93 110.452 118.65 110.906 119.422C111.529 120.482 112.271 121.249 114.069 122.674C116.885 124.905 118.377 125.649 120.488 127.132C122.156 128.303 124.261 129.783 126.256 132.055C127.003 132.906 129.48 135.856 131.001 140.508C132.326 144.561 133.503 148.159 131.745 150.633C128.988 154.515 121.072 152.72 119.651 152.398C118.149 152.058 110.579 150.341 107.65 144.317C106.209 141.353 106.538 138.678 103.743 132.891C103.211 131.791 102.531 130.505 101.138 129.919C99.0806 129.054 96.2826 130.058 94.9047 131.87C94.5345 132.356 93.4495 133.976 94.3465 138.465C94.7924 140.696 96.0924 146.731 101.696 151.655C107.175 156.47 113.587 157.426 114.907 157.6C121.459 158.463 126.158 156.304 128.303 159.086C128.992 159.98 128.962 160.793 129.14 162.616C129.644 167.754 131.063 173.306 132.769 177.014C135.41 182.757 138.906 184.441 137.978 187.603C137.542 189.092 136.405 189.963 135.839 190.39C132.705 192.758 127.917 192.104 124.861 190.204C122.052 188.458 122.766 186.944 119.093 182.402C117.037 179.859 114.786 178.085 110.286 174.537C105.058 170.415 102.411 168.37 100.812 169.134C99.217 169.896 98.6677 172.71 99.1841 174.785C99.6533 176.67 100.904 177.552 104.022 179.986C109.957 184.621 112.925 186.939 114.72 188.997C114.937 189.245 116.853 191.456 119.102 193.913C119.233 194.056 119.263 194.088 119.279 194.106C120.68 195.608 121.746 196.733 123.465 197.728C125.273 198.774 126.722 199.051 128.582 199.493C133.467 200.654 132.572 200.906 137.699 202.187C140.943 202.998 143.944 203.803 150.073 204.324L150.073 204.324Z" fill="#D75047"/>
    <path d="M188.936 174.879C190.014 176.867 191.558 179.291 193.74 181.787C193.82 181.878 193.899 181.961 193.979 182.051C194.272 181.874 194.559 181.701 194.836 181.533C192.869 179.315 190.902 177.097 188.936 174.879Z" fill="#9D413B"/>
    <path d="M159.641 172.476C159.655 172.44 159.668 172.406 159.682 172.37L153.072 170.903C153.066 170.932 153.059 170.96 153.053 170.989C153.919 171.333 154.917 171.67 156.054 171.939C157.381 172.254 158.588 172.407 159.641 172.476V172.476Z" fill="#9D413B"/>
    <path d="M161.785 161.256C162.658 161.621 163.476 161.863 164.218 162.033C164.269 161.922 164.319 161.813 164.368 161.705C162.391 160.907 160.413 160.108 158.436 159.31C159.228 159.92 160.343 160.652 161.785 161.256V161.256Z" fill="#9D413B"/>
    <path d="M173.26 181.249C173.088 181.302 172.915 181.355 172.748 181.404C173.525 183.093 174.5 184.337 175.265 185.158C174.596 183.855 173.928 182.552 173.26 181.249Z" fill="#9D413B"/>
    <path d="M183.135 175.958C183.04 176.047 182.95 176.132 182.861 176.216C183.676 177.556 184.766 179.088 186.218 180.636C187.611 182.12 189.015 183.275 190.281 184.17C190.442 184.083 190.605 183.996 190.758 183.912C188.217 181.261 185.676 178.61 183.135 175.958Z" fill="#9D413B"/>
    <path d="M179.465 107.778C180.567 108.106 182.065 108.432 183.857 108.491C184.633 108.516 185.35 108.485 186.008 108.424C186.023 108.3 186.036 108.175 186.048 108.054C183.854 107.962 181.659 107.87 179.465 107.778L179.465 107.778Z" fill="#9D413B"/>
    <path d="M183.329 141.047C183.754 141.726 184.34 142.517 185.147 143.302C186.073 144.203 187.01 144.825 187.796 145.254C187.851 145.191 187.905 145.13 187.962 145.064C186.469 143.682 184.976 142.3 183.483 140.918C183.431 140.963 183.381 141.004 183.329 141.047Z" fill="#9D413B"/>
    <path d="M189.945 135.408C190.852 136.325 191.763 136.931 192.457 137.32C191.369 136.191 190.282 135.063 189.195 133.935C189.147 133.991 189.101 134.042 189.053 134.099C189.014 134.146 188.981 134.186 188.943 134.232C189.229 134.615 189.551 135.01 189.945 135.408Z" fill="#9D413B"/>
    <path d="M199.766 126.897C200.172 127.767 200.867 128.986 202.031 130.186C203.178 131.37 204.382 132.123 205.333 132.596C205.428 132.548 205.525 132.499 205.625 132.447C203.672 130.597 201.719 128.747 199.766 126.897V126.897Z" fill="#9D413B"/>
    <path d="M201.178 123.452C201.45 123.955 201.794 124.497 202.237 125.047C203.431 126.529 204.772 127.365 205.613 127.802C204.262 126.286 202.911 124.771 201.559 123.256C201.513 123.28 201.466 123.304 201.426 123.324C201.354 123.361 201.269 123.404 201.178 123.452V123.452Z" fill="#9D413B"/>
    <path d="M213.561 126.842C212.518 125.819 211.474 124.795 210.431 123.772C210.716 124.288 211.154 124.954 211.811 125.622C212.4 126.222 212.993 126.647 213.495 126.949C213.518 126.913 213.539 126.877 213.561 126.842Z" fill="#9D413B"/>
    <path d="M132.057 143.942C132.657 143.984 133.304 144.004 134.003 143.981C135.323 143.936 136.476 143.758 137.421 143.549C135.619 143.629 133.817 143.709 132.016 143.79C132.03 143.841 132.044 143.892 132.057 143.942H132.057Z" fill="#9D413B"/>
    <path d="M140.369 131.855C140.847 132.274 141.435 132.724 142.157 133.147C143.236 133.778 144.239 134.133 144.998 134.339C143.474 133.458 141.951 132.576 140.427 131.695C140.408 131.748 140.388 131.802 140.369 131.855H140.369Z" fill="#9D413B"/>
    <path d="M148.704 126.404C150.034 126.632 151.218 126.674 152.211 126.642C152.23 126.591 152.25 126.541 152.27 126.49C149.571 125.981 146.873 125.473 144.174 124.964C145.265 125.484 146.799 126.076 148.704 126.404Z" fill="#9D413B"/>
    <path d="M145.08 114.192C146.512 114.375 148.304 114.48 150.351 114.316C151.928 114.189 153.31 113.928 154.489 113.633C154.485 113.6 154.484 113.566 154.479 113.533C151.346 113.753 148.213 113.972 145.08 114.192Z" fill="#9D413B"/>
    <path d="M143.225 116.351C144.115 116.501 145.15 116.615 146.316 116.618C147.961 116.623 149.373 116.411 150.475 116.166C148.056 116.191 145.636 116.217 143.217 116.242L143.225 116.351L143.225 116.351Z" fill="#9D413B"/>
    <path d="M170.685 129.468C171.344 129.736 172.097 129.991 172.959 130.186C174.55 130.546 175.933 130.58 176.939 130.529C174.882 130.071 172.824 129.612 170.766 129.154C170.739 129.259 170.714 129.362 170.685 129.468H170.685Z" fill="#9D413B"/>
    <path d="M174.38 105.087C175.546 105.528 177.079 105.977 178.916 106.188C181.078 106.437 182.91 106.27 184.214 106.051C180.948 105.68 177.681 105.309 174.415 104.938C174.402 104.988 174.392 105.037 174.38 105.087Z" fill="#9D413B"/>
    <path d="M173.654 111.524C175.175 112.026 177.015 112.508 179.163 112.794C181.438 113.097 183.464 113.104 185.142 112.995L185.18 112.834C181.343 112.36 177.505 111.886 173.668 111.412C173.663 111.449 173.659 111.486 173.654 111.524V111.524Z" fill="#9D413B"/>
    <path d="M135.019 166.793C136.228 166.798 137.306 166.683 138.218 166.525C138.215 166.467 138.213 166.409 138.21 166.352C135.801 166.343 133.392 166.335 130.983 166.327C132.042 166.57 133.414 166.787 135.019 166.793L135.019 166.793Z" fill="#9D413B"/>
    <path d="M112.59 116.083C113.638 115.447 114.995 114.475 116.337 113.041C117.157 112.165 117.789 111.306 118.292 110.524C118.209 110.479 118.126 110.435 118.043 110.391C116.225 112.289 114.408 114.186 112.59 116.083Z" fill="#9D413B"/>
    <path d="M111.781 120.622C112.553 120.192 113.427 119.62 114.32 118.838C115.746 117.589 116.672 116.292 117.244 115.343C115.366 117.037 113.488 118.73 111.611 120.423C111.666 120.489 111.722 120.556 111.781 120.622H111.781Z" fill="#9D413B"/>
    <path d="M130.043 122.892C130.024 122.859 130.004 122.826 129.985 122.793C128.263 124.421 126.542 126.05 124.82 127.678C125.705 127.205 126.866 126.465 128.032 125.335C128.919 124.475 129.565 123.623 130.043 122.892L130.043 122.892Z" fill="#9D413B"/>
    <path d="M94.0169 135.892C94.0187 135.932 94.0204 135.971 94.0226 136.011C94.9594 135.802 95.9862 135.521 97.0794 135.134C98.6513 134.577 99.9909 133.935 101.088 133.325C98.7306 134.18 96.3737 135.036 94.0168 135.892H94.0169Z" fill="#9D413B"/>
    <path d="M106.66 173.646C106.952 173.147 107.165 172.67 107.331 172.232C107.282 172.194 107.233 172.157 107.183 172.12C106.254 173.506 105.325 174.891 104.396 176.277C105.037 175.758 105.924 174.908 106.66 173.646Z" fill="#9D413B"/>
    <path d="M104.875 170.447C103.444 172.681 102.012 174.915 100.581 177.15C100.615 177.184 100.651 177.219 100.687 177.253C101.535 176.305 102.451 175.144 103.325 173.728C104.026 172.592 104.566 171.509 104.99 170.526C104.952 170.501 104.912 170.472 104.875 170.447Z" fill="#9D413B"/>
    <path d="M107.913 183.035C108.429 182.649 108.986 182.175 109.543 181.581C110.695 180.353 111.392 179.114 111.808 178.21C110.457 179.777 109.107 181.344 107.756 182.911C107.808 182.952 107.863 182.995 107.913 183.035Z" fill="#9D413B"/>
    <path d="M121.944 186.688C121.242 187.672 120.54 188.656 119.838 189.64C120.207 189.417 120.8 188.996 121.32 188.283C121.695 187.77 121.908 187.273 122.04 186.866C122.01 186.809 121.976 186.747 121.944 186.688H121.944Z" fill="#9D413B"/>
    <path d="M135.847 182.088C136.235 182.023 136.68 181.911 137.16 181.704C138.022 181.334 138.61 180.832 138.945 180.498C137.864 180.962 136.783 181.425 135.703 181.889C135.751 181.955 135.8 182.023 135.847 182.088L135.847 182.088Z" fill="#9D413B"/>
    <path d="M109.79 149.799C110.268 149.277 110.612 148.768 110.864 148.33C110.845 148.314 110.825 148.299 110.805 148.282C109.9 149.263 108.994 150.243 108.088 151.224C108.566 150.921 109.182 150.463 109.79 149.799L109.79 149.799Z" fill="#9D413B"/>
    <path d="M103.399 153.004C104.071 152.551 104.809 151.988 105.562 151.279C106.616 150.286 107.393 149.3 107.951 148.483C106.387 149.956 104.823 151.428 103.26 152.901C103.306 152.935 103.353 152.97 103.399 153.004Z" fill="#9D413B"/>
    <path d="M105.532 137.31C103.703 138.056 101.874 138.801 100.044 139.547C100.816 139.512 102.006 139.366 103.339 138.807C104.295 138.406 105.039 137.912 105.587 137.477C105.57 137.423 105.549 137.365 105.532 137.31Z" fill="#9D413B"/>
    <path d="M183.13 121.429L179.506 120.798C179.956 121.003 180.584 121.234 181.359 121.36C182.058 121.473 182.666 121.467 183.13 121.429Z" fill="#9D413B"/>
    <path d="M172.917 141.589C173.393 141.786 173.831 141.893 174.208 141.958L174.284 141.834C173.238 141.377 172.192 140.921 171.146 140.465C171.507 140.793 172.093 141.249 172.917 141.589V141.589Z" fill="#9D413B"/>
    <path d="M125.953 122.683C126.35 122.527 127.014 122.208 127.641 121.572C128.047 121.16 128.311 120.744 128.485 120.407C128.466 120.379 128.449 120.352 128.43 120.324C127.604 121.11 126.778 121.896 125.953 122.683H125.953Z" fill="#9D413B"/>
    <path d="M120.606 154.266C120.37 155.441 120.133 156.615 119.896 157.789L119.985 157.785C120.162 157.416 120.343 156.954 120.469 156.405C120.67 155.533 120.657 154.782 120.606 154.266Z" fill="#9D413B"/>
    <path d="M136.803 168.794C137.463 168.789 138.028 168.693 138.479 168.581L138.463 168.488L134.525 168.438C135.05 168.61 135.837 168.801 136.803 168.794Z" fill="#9D413B"/>
    <path d="M192.832 167.07C193.345 167.842 193.93 168.65 194.619 169.479C196.022 171.172 197.444 172.486 198.682 173.481C196.795 171.308 194.908 169.135 193.021 166.962C192.958 166.998 192.894 167.032 192.832 167.07Z" fill="#9D413B"/>
    <path d="M305.073 380.324C311.479 380.868 313.376 380.153 314.562 379.488C317.224 377.994 316.683 376.409 320.33 372.8C322.034 371.113 323.759 369.705 327.958 367.505C328.966 366.977 336.304 364.046 337.076 363.789C342.355 362.034 347.222 359.107 348.705 358.216C353.939 355.068 356.574 353.433 357.45 350.413C358.166 347.943 357.974 344.273 355.682 342.61C353.736 341.2 351.134 341.852 350.147 342.099C347.604 342.737 346.177 344.199 343.309 346.976C338.856 351.288 336.633 353.449 335.773 354.036C332.231 356.453 325.988 357.827 324.33 358.402C322.578 359.009 319.875 359.946 317.446 358.804C314.777 357.549 313.966 354.503 313.849 354.036C313.249 351.642 314.113 349.59 315.864 345.583C321.314 333.119 321.966 332.064 323.772 330.72C325.048 329.771 326.7 329.035 330.005 327.562C336.266 324.772 337.101 325.46 340.239 323.475C343.044 321.701 342.223 321.163 347.681 316.415C350.038 314.366 351.538 313.073 353.821 311.678C357.095 309.678 357.861 309.985 361.357 308.055C364.887 306.108 369.284 303.681 368.986 301.274C368.734 299.247 365.219 297.781 362.752 297.652C360.072 297.512 357.31 298.87 356.426 299.324C355.66 299.717 353.905 300.586 350.844 303.318C348.466 305.441 346.491 307.204 344.053 310.099C340.81 313.95 341.186 314.534 338.75 316.694C336.134 319.015 333.91 319.928 332.238 320.596C330.475 321.299 328.433 322.114 327.865 321.432C327.226 320.662 328.955 318.583 330.842 315.208C331.897 313.322 332.848 310.886 334.75 306.012C336.296 302.049 337.867 298.023 339.215 292.729C341.093 285.359 342.108 281.13 339.774 278.331C339.606 278.129 337.64 275.844 334.843 276.008C332.499 276.146 331.017 277.918 330.749 278.238C329.284 279.99 329.176 282.054 329.075 283.532C328.814 287.36 328.047 291.139 327.679 294.958C327.679 294.958 327.153 300.422 325.354 306.662C324.978 307.963 324.155 310.635 318.655 321.617C313.388 332.135 312.763 332.438 311.12 336.944C309.802 340.557 308.462 344.23 307.584 349.391C306.387 356.43 307.092 360.105 305.259 360.817C302.863 361.747 298.839 356.564 298.095 355.615C294.669 351.243 293.823 346.601 293.444 344.375C292.831 340.781 293.592 341.335 293.444 332.207C293.338 325.728 292.936 324.3 294.002 321.617C294.761 319.707 296.028 318.146 298.56 315.022C301.881 310.927 302.692 310.62 304.421 308.055C304.832 307.447 306.881 304.354 308.143 299.881C308.823 297.469 311.399 288.339 307.398 285.297C305.989 284.226 303.879 283.998 302.189 284.554C299.813 285.335 298.781 287.492 298.56 287.991C297.775 289.768 298.227 291.004 298.281 293.565C298.327 295.724 298.002 297.388 297.351 300.717C296.528 304.927 294.152 312.99 291.862 312.886C290.588 312.828 290.354 310.288 288.141 305.176C286.816 302.116 284.267 296.352 279.582 291.614C277.847 289.859 272.009 283.954 267.86 285.669C266.026 286.427 264.915 288.772 264.697 290.685C264.441 292.93 265.452 294.65 265.906 295.422C266.529 296.482 267.271 297.249 269.069 298.674C271.885 300.905 273.377 301.649 275.488 303.132C277.156 304.303 279.261 305.783 281.256 308.055C282.003 308.906 284.48 311.856 286.001 316.508C287.326 320.561 288.503 324.159 286.745 326.633C283.988 330.515 276.072 328.72 274.651 328.398C273.149 328.058 265.579 326.341 262.65 320.317C261.209 317.353 261.538 314.678 258.743 308.891C258.211 307.791 257.531 306.505 256.138 305.919C254.081 305.054 251.283 306.058 249.905 307.87C249.535 308.356 248.45 309.976 249.346 314.465C249.792 316.696 251.092 322.731 256.696 327.655C262.175 332.47 268.587 333.426 269.907 333.6C276.459 334.463 281.158 332.304 283.303 335.086C283.992 335.98 283.962 336.793 284.14 338.616C284.644 343.754 286.063 349.306 287.769 353.014C290.41 358.757 293.906 360.441 292.978 363.603C292.542 365.092 291.405 365.963 290.839 366.39C287.705 368.758 282.917 368.104 279.861 366.204C277.052 364.458 277.766 362.944 274.093 358.402C272.037 355.859 269.786 354.085 265.286 350.537C260.058 346.415 257.411 344.37 255.812 345.134C254.217 345.896 253.668 348.71 254.184 350.785C254.653 352.67 255.904 353.552 259.022 355.986C264.957 360.621 267.925 362.939 269.72 364.997C269.937 365.245 271.853 367.456 274.102 369.913C274.233 370.056 274.263 370.088 274.279 370.106C275.68 371.608 276.746 372.733 278.465 373.728C280.273 374.774 281.722 375.051 283.582 375.493C288.467 376.654 287.572 376.906 292.699 378.187C295.943 378.998 298.944 379.803 305.073 380.324L305.073 380.324Z" fill="#D75047"/>
    <path d="M343.936 350.879C345.014 352.867 346.558 355.291 348.74 357.787C348.82 357.878 348.899 357.961 348.979 358.051C349.272 357.874 349.559 357.701 349.836 357.533C347.869 355.315 345.902 353.097 343.936 350.879Z" fill="#9D413B"/>
    <path d="M314.641 348.476C314.655 348.44 314.668 348.406 314.682 348.37L308.072 346.903C308.066 346.932 308.059 346.96 308.053 346.989C308.919 347.333 309.917 347.67 311.054 347.939C312.381 348.254 313.588 348.407 314.641 348.476V348.476Z" fill="#9D413B"/>
    <path d="M316.785 337.256C317.658 337.622 318.476 337.863 319.218 338.033C319.269 337.922 319.319 337.813 319.368 337.705C317.391 336.907 315.413 336.109 313.436 335.31C314.228 335.92 315.343 336.653 316.785 337.256V337.256Z" fill="#9D413B"/>
    <path d="M328.26 357.249C328.088 357.302 327.915 357.355 327.748 357.404C328.525 359.093 329.5 360.337 330.265 361.158C329.596 359.855 328.928 358.552 328.26 357.249Z" fill="#9D413B"/>
    <path d="M338.135 351.958C338.04 352.047 337.95 352.132 337.861 352.216C338.676 353.556 339.766 355.088 341.218 356.636C342.611 358.12 344.015 359.275 345.281 360.17C345.442 360.083 345.605 359.996 345.758 359.912C343.217 357.261 340.676 354.61 338.135 351.958Z" fill="#9D413B"/>
    <path d="M334.465 283.778C335.567 284.106 337.065 284.432 338.857 284.491C339.633 284.516 340.35 284.485 341.008 284.424C341.023 284.3 341.036 284.175 341.048 284.054C338.854 283.962 336.659 283.87 334.465 283.778L334.465 283.778Z" fill="#9D413B"/>
    <path d="M338.329 317.047C338.754 317.726 339.34 318.517 340.147 319.302C341.073 320.203 342.01 320.825 342.796 321.254C342.851 321.191 342.905 321.13 342.962 321.064C341.469 319.682 339.976 318.3 338.483 316.918C338.431 316.963 338.381 317.004 338.329 317.047Z" fill="#9D413B"/>
    <path d="M344.945 311.408C345.852 312.325 346.763 312.931 347.457 313.32C346.369 312.191 345.282 311.063 344.195 309.935C344.147 309.991 344.101 310.042 344.053 310.099C344.014 310.146 343.981 310.186 343.943 310.232C344.229 310.615 344.551 311.01 344.945 311.408Z" fill="#9D413B"/>
    <path d="M354.766 302.897C355.172 303.767 355.867 304.986 357.031 306.186C358.178 307.37 359.382 308.123 360.333 308.596C360.428 308.548 360.525 308.499 360.625 308.447C358.672 306.597 356.719 304.747 354.766 302.897V302.897Z" fill="#9D413B"/>
    <path d="M356.178 299.452C356.45 299.955 356.794 300.497 357.237 301.047C358.431 302.529 359.772 303.365 360.613 303.801C359.262 302.286 357.911 300.771 356.559 299.256C356.513 299.28 356.466 299.303 356.426 299.324C356.354 299.361 356.269 299.404 356.178 299.452V299.452Z" fill="#9D413B"/>
    <path d="M368.561 302.842C367.518 301.819 366.474 300.795 365.431 299.772C365.716 300.288 366.154 300.954 366.811 301.622C367.4 302.222 367.993 302.647 368.495 302.949C368.518 302.913 368.539 302.878 368.561 302.842Z" fill="#9D413B"/>
    <path d="M287.057 319.942C287.657 319.984 288.304 320.004 289.003 319.981C290.323 319.936 291.476 319.758 292.421 319.549C290.619 319.629 288.817 319.709 287.016 319.79C287.03 319.841 287.044 319.892 287.057 319.942H287.057Z" fill="#9D413B"/>
    <path d="M295.369 307.855C295.847 308.274 296.435 308.725 297.157 309.147C298.236 309.778 299.239 310.133 299.998 310.339C298.474 309.458 296.951 308.576 295.427 307.695C295.408 307.748 295.388 307.802 295.369 307.855H295.369Z" fill="#9D413B"/>
    <path d="M303.704 302.404C305.034 302.632 306.218 302.674 307.211 302.642C307.23 302.591 307.25 302.541 307.27 302.49C304.571 301.981 301.873 301.473 299.174 300.964C300.265 301.484 301.799 302.076 303.704 302.404Z" fill="#9D413B"/>
    <path d="M300.08 290.192C301.512 290.375 303.304 290.48 305.351 290.316C306.928 290.189 308.31 289.928 309.489 289.633C309.485 289.6 309.484 289.566 309.479 289.533C306.346 289.753 303.213 289.972 300.08 290.192Z" fill="#9D413B"/>
    <path d="M298.225 292.351C299.115 292.501 300.15 292.615 301.316 292.618C302.961 292.623 304.373 292.411 305.475 292.166C303.056 292.191 300.636 292.217 298.217 292.242L298.225 292.351L298.225 292.351Z" fill="#9D413B"/>
    <path d="M325.685 305.468C326.344 305.736 327.097 305.991 327.959 306.186C329.55 306.546 330.933 306.58 331.939 306.529C329.882 306.071 327.824 305.612 325.766 305.154C325.739 305.259 325.714 305.362 325.685 305.468H325.685Z" fill="#9D413B"/>
    <path d="M329.38 281.087C330.546 281.528 332.079 281.977 333.916 282.188C336.078 282.437 337.91 282.27 339.214 282.051C335.948 281.68 332.681 281.309 329.415 280.938C329.402 280.988 329.392 281.037 329.38 281.087Z" fill="#9D413B"/>
    <path d="M328.654 287.524C330.175 288.026 332.015 288.508 334.163 288.794C336.438 289.097 338.464 289.104 340.142 288.995L340.18 288.834C336.343 288.36 332.505 287.886 328.668 287.412C328.663 287.449 328.659 287.486 328.654 287.524V287.524Z" fill="#9D413B"/>
    <path d="M290.019 342.793C291.228 342.798 292.306 342.683 293.218 342.525C293.215 342.467 293.213 342.409 293.21 342.352C290.801 342.343 288.392 342.335 285.983 342.327C287.042 342.57 288.414 342.787 290.019 342.793L290.019 342.793Z" fill="#9D413B"/>
    <path d="M267.59 292.083C268.638 291.447 269.995 290.475 271.337 289.041C272.157 288.165 272.789 287.306 273.292 286.524C273.209 286.479 273.126 286.435 273.043 286.391C271.225 288.289 269.408 290.186 267.59 292.083Z" fill="#9D413B"/>
    <path d="M266.781 296.622C267.553 296.192 268.427 295.62 269.32 294.838C270.746 293.589 271.672 292.292 272.244 291.343C270.366 293.037 268.488 294.73 266.611 296.423C266.666 296.489 266.722 296.556 266.781 296.622H266.781Z" fill="#9D413B"/>
    <path d="M285.043 298.892C285.024 298.859 285.004 298.826 284.985 298.793C283.263 300.421 281.542 302.05 279.82 303.678C280.705 303.205 281.866 302.465 283.032 301.335C283.919 300.475 284.565 299.623 285.043 298.892L285.043 298.892Z" fill="#9D413B"/>
    <path d="M249.017 311.892C249.019 311.932 249.02 311.971 249.023 312.011C249.959 311.802 250.986 311.521 252.079 311.134C253.651 310.577 254.991 309.935 256.088 309.325C253.731 310.181 251.374 311.036 249.017 311.892H249.017Z" fill="#9D413B"/>
    <path d="M261.66 349.646C261.952 349.147 262.165 348.67 262.331 348.232C262.282 348.194 262.233 348.157 262.183 348.12C261.254 349.506 260.325 350.891 259.396 352.277C260.037 351.758 260.924 350.908 261.66 349.646Z" fill="#9D413B"/>
    <path d="M259.875 346.447C258.444 348.681 257.012 350.916 255.581 353.15C255.615 353.184 255.651 353.219 255.687 353.253C256.535 352.305 257.451 351.144 258.325 349.728C259.026 348.592 259.566 347.509 259.99 346.526C259.952 346.501 259.912 346.472 259.875 346.447Z" fill="#9D413B"/>
    <path d="M262.913 359.035C263.429 358.649 263.986 358.175 264.543 357.581C265.695 356.353 266.392 355.114 266.808 354.21C265.457 355.777 264.107 357.344 262.756 358.911C262.808 358.952 262.863 358.995 262.913 359.035Z" fill="#9D413B"/>
    <path d="M276.944 362.688C276.242 363.672 275.54 364.656 274.838 365.64C275.207 365.417 275.8 364.996 276.32 364.283C276.695 363.77 276.908 363.273 277.04 362.866C277.01 362.809 276.976 362.747 276.944 362.688H276.944Z" fill="#9D413B"/>
    <path d="M290.847 358.088C291.235 358.023 291.68 357.911 292.16 357.704C293.022 357.334 293.61 356.832 293.945 356.498C292.864 356.962 291.783 357.425 290.703 357.889C290.751 357.955 290.8 358.023 290.847 358.088L290.847 358.088Z" fill="#9D413B"/>
    <path d="M264.79 325.799C265.268 325.277 265.612 324.768 265.864 324.33C265.845 324.314 265.825 324.299 265.805 324.282C264.9 325.263 263.994 326.243 263.088 327.224C263.566 326.921 264.182 326.463 264.79 325.799L264.79 325.799Z" fill="#9D413B"/>
    <path d="M258.399 329.004C259.071 328.551 259.809 327.988 260.562 327.279C261.616 326.286 262.393 325.3 262.951 324.483C261.387 325.956 259.823 327.428 258.26 328.901C258.306 328.935 258.353 328.97 258.399 329.004Z" fill="#9D413B"/>
    <path d="M260.532 313.31C258.703 314.056 256.874 314.801 255.044 315.547C255.816 315.512 257.006 315.366 258.339 314.807C259.295 314.406 260.039 313.912 260.587 313.477C260.57 313.423 260.549 313.365 260.532 313.31Z" fill="#9D413B"/>
    <path d="M338.13 297.429L334.506 296.798C334.956 297.003 335.584 297.234 336.359 297.36C337.058 297.473 337.666 297.467 338.13 297.429Z" fill="#9D413B"/>
    <path d="M327.917 317.589C328.393 317.786 328.831 317.893 329.208 317.958L329.284 317.834C328.238 317.377 327.192 316.921 326.146 316.465C326.507 316.793 327.093 317.249 327.917 317.589V317.589Z" fill="#9D413B"/>
    <path d="M280.953 298.683C281.35 298.527 282.014 298.208 282.641 297.572C283.047 297.16 283.311 296.743 283.485 296.407C283.466 296.379 283.449 296.352 283.43 296.324C282.604 297.11 281.778 297.896 280.953 298.683H280.953Z" fill="#9D413B"/>
    <path d="M275.606 330.266C275.37 331.441 275.133 332.615 274.896 333.789L274.985 333.785C275.162 333.416 275.343 332.954 275.469 332.405C275.67 331.533 275.657 330.782 275.606 330.266Z" fill="#9D413B"/>
    <path d="M291.803 344.794C292.463 344.789 293.028 344.693 293.479 344.581L293.463 344.488L289.525 344.438C290.05 344.61 290.837 344.801 291.803 344.794Z" fill="#9D413B"/>
    <path d="M347.832 343.07C348.345 343.842 348.93 344.65 349.619 345.479C351.022 347.172 352.444 348.486 353.682 349.481C351.795 347.308 349.908 345.135 348.021 342.962C347.958 342.998 347.894 343.032 347.832 343.07Z" fill="#9D413B"/>
    <path d="M413.073 248.324C419.479 248.868 421.376 248.153 422.562 247.488C425.224 245.994 424.683 244.409 428.33 240.8C430.034 239.113 431.759 237.705 435.958 235.505C436.966 234.977 444.304 232.046 445.076 231.789C450.355 230.034 455.222 227.107 456.705 226.216C461.939 223.068 464.574 221.433 465.45 218.413C466.166 215.943 465.974 212.273 463.682 210.61C461.736 209.2 459.134 209.852 458.147 210.099C455.604 210.737 454.177 212.199 451.309 214.976C446.856 219.288 444.633 221.449 443.773 222.036C440.231 224.453 433.988 225.827 432.33 226.402C430.578 227.009 427.875 227.946 425.446 226.804C422.777 225.549 421.966 222.503 421.849 222.036C421.249 219.642 422.113 217.59 423.864 213.583C429.314 201.119 429.966 200.064 431.772 198.72C433.048 197.771 434.7 197.035 438.005 195.562C444.266 192.772 445.101 193.46 448.239 191.475C451.044 189.701 450.223 189.163 455.681 184.415C458.038 182.366 459.538 181.073 461.821 179.678C465.095 177.678 465.861 177.985 469.357 176.055C472.887 174.108 477.284 171.681 476.986 169.274C476.734 167.247 473.219 165.781 470.752 165.652C468.072 165.512 465.31 166.87 464.426 167.324C463.66 167.717 461.905 168.586 458.844 171.318C456.466 173.441 454.491 175.204 452.053 178.099C448.81 181.95 449.186 182.534 446.75 184.694C444.134 187.015 441.91 187.928 440.238 188.596C438.475 189.299 436.433 190.114 435.865 189.432C435.226 188.662 436.955 186.583 438.842 183.208C439.897 181.322 440.848 178.886 442.75 174.012C444.296 170.049 445.867 166.023 447.215 160.729C449.093 153.359 450.108 149.13 447.774 146.331C447.606 146.129 445.64 143.844 442.843 144.008C440.499 144.146 439.017 145.918 438.749 146.238C437.284 147.99 437.176 150.054 437.075 151.532C436.814 155.36 436.047 159.139 435.679 162.958C435.679 162.958 435.153 168.422 433.354 174.662C432.978 175.963 432.155 178.635 426.655 189.617C421.388 200.135 420.763 200.438 419.12 204.944C417.802 208.557 416.462 212.23 415.584 217.391C414.387 224.43 415.092 228.105 413.259 228.817C410.863 229.747 406.839 224.564 406.095 223.615C402.669 219.243 401.823 214.601 401.444 212.375C400.831 208.781 401.592 209.335 401.444 200.207C401.338 193.728 400.936 192.3 402.002 189.617C402.761 187.707 404.028 186.146 406.56 183.022C409.881 178.927 410.692 178.62 412.421 176.055C412.832 175.447 414.881 172.354 416.143 167.881C416.823 165.469 419.399 156.339 415.398 153.297C413.989 152.226 411.879 151.998 410.189 152.554C407.813 153.335 406.781 155.492 406.56 155.991C405.775 157.768 406.227 159.004 406.281 161.565C406.327 163.724 406.002 165.388 405.351 168.717C404.528 172.927 402.152 180.99 399.862 180.886C398.588 180.828 398.354 178.288 396.141 173.176C394.816 170.116 392.267 164.352 387.582 159.614C385.847 157.859 380.009 151.954 375.86 153.669C374.026 154.427 372.915 156.772 372.697 158.685C372.441 160.93 373.452 162.65 373.906 163.422C374.529 164.482 375.271 165.249 377.069 166.674C379.885 168.905 381.377 169.649 383.488 171.132C385.156 172.303 387.261 173.783 389.256 176.055C390.003 176.906 392.48 179.856 394.001 184.508C395.326 188.561 396.503 192.159 394.745 194.633C391.988 198.515 384.072 196.72 382.651 196.398C381.149 196.058 373.579 194.341 370.65 188.317C369.209 185.353 369.538 182.678 366.743 176.891C366.211 175.791 365.531 174.505 364.138 173.919C362.081 173.054 359.283 174.058 357.905 175.87C357.535 176.356 356.45 177.976 357.346 182.465C357.792 184.696 359.092 190.731 364.696 195.655C370.175 200.47 376.587 201.426 377.907 201.6C384.459 202.463 389.158 200.304 391.303 203.086C391.992 203.98 391.962 204.793 392.14 206.616C392.644 211.754 394.063 217.306 395.769 221.014C398.41 226.757 401.906 228.441 400.978 231.603C400.542 233.092 399.405 233.963 398.839 234.39C395.705 236.758 390.917 236.104 387.861 234.204C385.052 232.458 385.766 230.944 382.093 226.402C380.037 223.859 377.786 222.085 373.286 218.537C368.058 214.415 365.411 212.37 363.812 213.134C362.217 213.896 361.668 216.71 362.184 218.785C362.653 220.67 363.904 221.552 367.022 223.986C372.957 228.621 375.925 230.939 377.72 232.997C377.937 233.245 379.853 235.456 382.102 237.913C382.233 238.056 382.263 238.088 382.279 238.106C383.68 239.608 384.746 240.733 386.465 241.728C388.273 242.774 389.722 243.051 391.582 243.493C396.467 244.654 395.572 244.906 400.699 246.187C403.943 246.998 406.944 247.803 413.073 248.324L413.073 248.324Z" fill="#D75047"/>
    <path d="M451.936 218.879C453.014 220.867 454.558 223.291 456.74 225.787C456.82 225.878 456.899 225.961 456.979 226.051C457.272 225.874 457.559 225.701 457.836 225.533C455.869 223.315 453.902 221.097 451.936 218.879Z" fill="#9D413B"/>
    <path d="M422.641 216.476C422.655 216.44 422.668 216.406 422.682 216.37L416.072 214.903C416.066 214.932 416.059 214.96 416.053 214.989C416.919 215.333 417.917 215.67 419.054 215.939C420.381 216.254 421.588 216.407 422.641 216.476V216.476Z" fill="#9D413B"/>
    <path d="M424.785 205.256C425.658 205.621 426.476 205.863 427.218 206.033C427.269 205.922 427.319 205.813 427.368 205.705C425.391 204.907 423.413 204.108 421.436 203.31C422.228 203.92 423.343 204.652 424.785 205.256V205.256Z" fill="#9D413B"/>
    <path d="M436.26 225.249C436.088 225.302 435.915 225.355 435.748 225.404C436.525 227.093 437.5 228.337 438.265 229.158C437.596 227.855 436.928 226.552 436.26 225.249Z" fill="#9D413B"/>
    <path d="M446.135 219.958C446.04 220.047 445.95 220.132 445.861 220.216C446.676 221.556 447.766 223.088 449.218 224.636C450.611 226.12 452.015 227.275 453.281 228.17C453.442 228.083 453.605 227.996 453.758 227.912C451.217 225.261 448.676 222.61 446.135 219.958Z" fill="#9D413B"/>
    <path d="M442.465 151.778C443.567 152.106 445.065 152.432 446.857 152.491C447.633 152.516 448.35 152.485 449.008 152.424C449.023 152.3 449.036 152.175 449.048 152.054C446.854 151.962 444.659 151.87 442.465 151.778L442.465 151.778Z" fill="#9D413B"/>
    <path d="M446.329 185.047C446.754 185.726 447.34 186.517 448.147 187.302C449.073 188.203 450.01 188.825 450.796 189.254C450.851 189.191 450.905 189.13 450.962 189.064C449.469 187.682 447.976 186.3 446.483 184.918C446.431 184.963 446.381 185.004 446.329 185.047Z" fill="#9D413B"/>
    <path d="M452.945 179.408C453.852 180.325 454.763 180.931 455.457 181.32C454.369 180.191 453.282 179.063 452.195 177.935C452.147 177.991 452.101 178.042 452.053 178.099C452.014 178.146 451.981 178.186 451.943 178.232C452.229 178.615 452.551 179.01 452.945 179.408Z" fill="#9D413B"/>
    <path d="M462.766 170.897C463.172 171.767 463.867 172.986 465.031 174.186C466.178 175.37 467.382 176.123 468.333 176.596C468.428 176.548 468.525 176.499 468.625 176.447C466.672 174.597 464.719 172.747 462.766 170.897V170.897Z" fill="#9D413B"/>
    <path d="M464.178 167.452C464.45 167.955 464.794 168.497 465.237 169.047C466.431 170.529 467.772 171.365 468.613 171.802C467.262 170.286 465.911 168.771 464.559 167.256C464.513 167.28 464.466 167.304 464.426 167.324C464.354 167.361 464.269 167.404 464.178 167.452V167.452Z" fill="#9D413B"/>
    <path d="M476.561 170.842C475.518 169.819 474.474 168.795 473.431 167.772C473.716 168.288 474.154 168.954 474.811 169.622C475.4 170.222 475.993 170.647 476.495 170.949C476.518 170.913 476.539 170.877 476.561 170.842Z" fill="#9D413B"/>
    <path d="M395.057 187.942C395.657 187.984 396.304 188.004 397.003 187.981C398.323 187.936 399.476 187.758 400.421 187.549C398.619 187.629 396.817 187.709 395.016 187.79C395.03 187.841 395.044 187.892 395.057 187.942H395.057Z" fill="#9D413B"/>
    <path d="M403.369 175.855C403.847 176.274 404.435 176.724 405.157 177.147C406.236 177.778 407.239 178.133 407.998 178.339C406.474 177.458 404.951 176.576 403.427 175.695C403.408 175.748 403.388 175.802 403.369 175.855H403.369Z" fill="#9D413B"/>
    <path d="M411.704 170.404C413.034 170.632 414.218 170.674 415.211 170.642C415.23 170.591 415.25 170.541 415.27 170.49C412.571 169.981 409.873 169.473 407.174 168.964C408.265 169.484 409.799 170.076 411.704 170.404Z" fill="#9D413B"/>
    <path d="M408.08 158.192C409.512 158.375 411.304 158.48 413.351 158.316C414.928 158.189 416.31 157.928 417.489 157.633C417.485 157.6 417.484 157.566 417.479 157.533C414.346 157.753 411.213 157.972 408.08 158.192Z" fill="#9D413B"/>
    <path d="M406.225 160.351C407.115 160.501 408.15 160.615 409.316 160.618C410.961 160.623 412.373 160.411 413.475 160.166C411.056 160.191 408.636 160.217 406.217 160.242L406.225 160.351L406.225 160.351Z" fill="#9D413B"/>
    <path d="M433.685 173.468C434.344 173.736 435.097 173.991 435.959 174.186C437.55 174.546 438.933 174.58 439.939 174.529C437.882 174.071 435.824 173.612 433.766 173.154C433.739 173.259 433.714 173.362 433.685 173.468H433.685Z" fill="#9D413B"/>
    <path d="M437.38 149.087C438.546 149.528 440.079 149.977 441.916 150.188C444.078 150.437 445.91 150.27 447.214 150.051C443.948 149.68 440.681 149.309 437.415 148.938C437.402 148.988 437.392 149.037 437.38 149.087Z" fill="#9D413B"/>
    <path d="M436.654 155.524C438.175 156.026 440.015 156.508 442.163 156.794C444.438 157.097 446.464 157.104 448.142 156.995L448.18 156.834C444.343 156.36 440.505 155.886 436.668 155.412C436.663 155.449 436.659 155.486 436.654 155.524V155.524Z" fill="#9D413B"/>
    <path d="M398.019 210.793C399.228 210.798 400.306 210.683 401.218 210.525C401.215 210.467 401.213 210.409 401.21 210.352C398.801 210.343 396.392 210.335 393.983 210.327C395.042 210.57 396.414 210.787 398.019 210.793L398.019 210.793Z" fill="#9D413B"/>
    <path d="M375.59 160.083C376.638 159.447 377.995 158.475 379.337 157.041C380.157 156.165 380.789 155.306 381.292 154.524C381.209 154.479 381.126 154.435 381.043 154.391C379.225 156.289 377.408 158.186 375.59 160.083Z" fill="#9D413B"/>
    <path d="M374.781 164.622C375.553 164.192 376.427 163.62 377.32 162.838C378.746 161.589 379.672 160.292 380.244 159.343C378.366 161.037 376.488 162.73 374.611 164.423C374.666 164.489 374.722 164.556 374.781 164.622H374.781Z" fill="#9D413B"/>
    <path d="M393.043 166.892C393.024 166.859 393.004 166.826 392.985 166.793C391.263 168.421 389.542 170.05 387.82 171.678C388.705 171.205 389.866 170.465 391.032 169.335C391.919 168.475 392.565 167.623 393.043 166.892L393.043 166.892Z" fill="#9D413B"/>
    <path d="M357.017 179.892C357.019 179.932 357.02 179.971 357.023 180.011C357.959 179.802 358.986 179.521 360.079 179.134C361.651 178.577 362.991 177.935 364.088 177.325C361.731 178.18 359.374 179.036 357.017 179.892H357.017Z" fill="#9D413B"/>
    <path d="M369.66 217.646C369.952 217.147 370.165 216.67 370.331 216.232C370.282 216.194 370.233 216.157 370.183 216.12C369.254 217.506 368.325 218.891 367.396 220.277C368.037 219.758 368.924 218.908 369.66 217.646Z" fill="#9D413B"/>
    <path d="M367.875 214.447C366.444 216.681 365.012 218.915 363.581 221.15C363.615 221.184 363.651 221.219 363.687 221.253C364.535 220.305 365.451 219.144 366.325 217.728C367.026 216.592 367.566 215.509 367.99 214.526C367.952 214.501 367.912 214.472 367.875 214.447Z" fill="#9D413B"/>
    <path d="M370.913 227.035C371.429 226.649 371.986 226.175 372.543 225.581C373.695 224.353 374.392 223.114 374.808 222.21C373.457 223.777 372.107 225.344 370.756 226.911C370.808 226.952 370.863 226.995 370.913 227.035Z" fill="#9D413B"/>
    <path d="M384.944 230.688C384.242 231.672 383.54 232.656 382.838 233.64C383.207 233.417 383.8 232.996 384.32 232.283C384.695 231.77 384.908 231.273 385.04 230.866C385.01 230.809 384.976 230.747 384.944 230.688H384.944Z" fill="#9D413B"/>
    <path d="M398.847 226.088C399.235 226.023 399.68 225.911 400.16 225.704C401.022 225.334 401.61 224.832 401.945 224.498C400.864 224.962 399.783 225.425 398.703 225.889C398.751 225.955 398.8 226.023 398.847 226.088L398.847 226.088Z" fill="#9D413B"/>
    <path d="M372.79 193.799C373.268 193.277 373.612 192.768 373.864 192.33C373.845 192.314 373.825 192.299 373.805 192.282C372.9 193.263 371.994 194.243 371.088 195.224C371.566 194.921 372.182 194.463 372.79 193.799L372.79 193.799Z" fill="#9D413B"/>
    <path d="M366.399 197.004C367.071 196.551 367.809 195.988 368.562 195.279C369.616 194.286 370.393 193.3 370.951 192.483C369.387 193.956 367.823 195.428 366.26 196.901C366.306 196.935 366.353 196.97 366.399 197.004Z" fill="#9D413B"/>
    <path d="M368.532 181.31C366.703 182.056 364.874 182.801 363.044 183.547C363.816 183.512 365.006 183.366 366.339 182.807C367.295 182.406 368.039 181.912 368.587 181.477C368.57 181.423 368.549 181.365 368.532 181.31Z" fill="#9D413B"/>
    <path d="M446.13 165.429L442.506 164.798C442.956 165.003 443.584 165.234 444.359 165.36C445.058 165.473 445.666 165.467 446.13 165.429Z" fill="#9D413B"/>
    <path d="M435.917 185.589C436.393 185.786 436.831 185.893 437.208 185.958L437.284 185.834C436.238 185.377 435.192 184.921 434.146 184.465C434.507 184.793 435.093 185.249 435.917 185.589V185.589Z" fill="#9D413B"/>
    <path d="M388.953 166.683C389.35 166.527 390.014 166.208 390.641 165.572C391.047 165.16 391.311 164.744 391.485 164.407C391.466 164.379 391.449 164.352 391.43 164.324C390.604 165.11 389.778 165.896 388.953 166.683H388.953Z" fill="#9D413B"/>
    <path d="M383.606 198.266C383.37 199.441 383.133 200.615 382.896 201.789L382.985 201.785C383.162 201.416 383.343 200.954 383.469 200.405C383.67 199.533 383.657 198.782 383.606 198.266Z" fill="#9D413B"/>
    <path d="M399.803 212.794C400.463 212.789 401.028 212.693 401.479 212.581L401.463 212.488L397.525 212.438C398.05 212.61 398.837 212.801 399.803 212.794Z" fill="#9D413B"/>
    <path d="M455.832 211.07C456.345 211.842 456.93 212.65 457.619 213.479C459.022 215.172 460.444 216.486 461.682 217.481C459.795 215.308 457.908 213.135 456.021 210.962C455.958 210.998 455.894 211.032 455.832 211.07Z" fill="#9D413B"/>
</svg>
