<svg viewBox="0 0 870 540" fill="none" xmlns="http://www.w3.org/2000/svg">
<rect x="3" y="3" width="864" height="533.4" rx="77" fill="white" stroke="#844EA5" stroke-width="6"/>
<path d="M654.626 221.027C655.929 225.492 657.417 230.888 662.068 235.353C668.208 241.121 675.836 241.493 681.046 241.679C687.186 242.051 695.372 242.423 701.326 236.842C705.977 232.562 706.721 226.795 707.466 220.841C708.396 214.515 709.326 207.445 705.419 202.236C700.393 195.538 690.346 195.91 681.229 196.281C673.788 196.654 657.601 197.212 653.694 206.514C651.833 210.794 653.135 215.259 654.626 221.027Z" fill="#20282F"/>
<path d="M636.306 206.203C632.398 196.9 616.212 196.342 608.769 195.969C599.654 195.597 589.606 195.225 584.582 201.923C580.675 207.132 581.606 214.203 582.536 220.528C583.28 226.483 584.024 232.25 588.675 236.53C594.629 242.111 602.816 241.739 608.956 241.367C614.165 241.181 621.793 240.809 627.933 235.041C632.585 230.575 634.073 225.18 635.376 220.715C636.867 214.947 638.166 210.481 636.306 206.203Z" fill="#20282F"/>
<path d="M656.466 224.727C665.225 215.468 673.985 206.209 682.746 196.951L682.067 196.281C679.604 195.824 677.235 195.56 675.304 195.366L654.936 216.896C653.712 218.19 655.692 225.544 656.466 224.727Z" fill="#83B6E3"/>
<path d="M691.053 197.985L690.166 197.109C689.221 196.726 688.257 196.392 687.278 196.109L656.698 228.431L658.667 230.375C659.03 230.617 659.4 230.839 659.775 231.043L691.053 197.985Z" fill="#83B6E3"/>
<path d="M617.117 197.985L616.231 197.109C615.287 196.726 614.323 196.393 613.344 196.111L582.76 228.433L584.729 230.377C585.092 230.619 585.461 230.841 585.837 231.045L617.117 197.985Z" fill="#83B6E3"/>
<path d="M582.53 224.727C591.29 215.468 600.05 206.209 608.81 196.951L608.131 196.281C605.668 195.824 603.3 195.56 601.369 195.366L581.001 216.896C579.776 218.19 581.756 225.544 582.53 224.727Z" fill="#83B6E3"/>
<path d="M717.51 197.026C716.952 196.468 716.022 196.282 714.347 195.723C713.812 195.512 713.247 195.386 712.673 195.351L711.185 194.98C705.787 193.863 692.579 194.049 692.579 194.049C685.509 194.235 686.997 194.049 683.464 194.235C674.162 194.607 669.696 194.793 665.417 195.91C664.115 196.282 660.951 197.212 656.486 198.144C654.44 198.517 653.323 198.889 652.951 198.889C650.909 199.076 648.854 199.076 646.811 198.889H637.321C636.118 198.773 634.933 198.523 633.785 198.144C629.32 197.214 626.343 196.284 624.855 195.91C620.578 194.793 616.108 194.607 606.807 194.235C603.273 194.049 604.759 194.235 597.691 194.049C597.691 194.049 584.481 193.677 579.272 194.98L577.783 195.352C577.243 195.546 576.68 195.671 576.108 195.725C574.248 196.282 573.317 196.47 572.945 197.026C571.827 197.956 572.015 199.631 572.015 201.678C571.923 202.985 572.248 204.288 572.945 205.398C573.689 206.516 574.247 206.516 575.736 207.817C576.665 208.771 577.478 209.833 578.154 210.98C579.272 213.027 579.085 214.701 579.085 217.12C579.303 219.868 579.676 222.601 580.202 225.306C580.76 228.469 581.69 232.562 584.853 236.284C587.312 239.254 590.625 241.397 594.342 242.423C595.644 242.795 597.133 243.168 601.412 243.353C608.11 243.54 612.762 243.726 618.529 242.051C622.809 240.934 627.088 239.633 630.996 235.911C633.746 233.118 635.842 229.75 637.134 226.049L640.298 216.561C640.521 215.664 640.832 214.791 641.228 213.956C641.506 213.186 641.95 212.487 642.53 211.909C642.907 211.526 643.348 211.211 643.832 210.979C644.019 210.793 644.391 210.793 644.763 210.607H646.251C646.623 210.607 646.81 210.793 647.181 210.979C647.666 211.211 648.107 211.526 648.484 211.909C648.979 212.55 649.415 213.235 649.786 213.956C650.181 214.791 650.493 215.664 650.717 216.561C650.717 216.561 651.461 219.351 653.879 226.049C655.172 229.749 657.269 233.117 660.019 235.91C663.926 239.632 668.206 240.934 672.486 242.05C678.254 243.724 682.905 243.539 689.603 243.352C693.883 243.166 695.557 242.794 696.673 242.422C700.37 241.352 703.67 239.216 706.161 236.281C709.324 232.56 710.068 228.467 710.812 225.304C711.338 222.598 711.711 219.865 711.93 217.118C711.93 214.699 711.93 213.024 712.86 210.978C713.478 209.792 714.296 208.722 715.279 207.815C716.581 206.513 717.326 206.513 718.07 205.396C718.814 204.279 718.814 203.161 719 201.675C718.441 199.631 718.441 197.956 717.51 197.026ZM633.227 223.074C631.927 226.049 630.065 229.957 625.971 233.679C622.51 236.509 618.43 238.485 614.064 239.446C609.254 240.633 604.252 240.823 599.366 240.004C596.76 239.446 593.97 238.887 590.993 236.655C587.272 233.865 585.97 230.516 584.853 228.097C583.364 224.376 583.177 220.841 582.806 213.399C582.621 208.376 582.993 206.329 583.924 204.468C584.942 202.526 586.49 200.913 588.389 199.817C590.435 198.7 592.11 198.329 594.9 198.142C599.973 197.693 605.069 197.569 610.157 197.77C614.994 198.142 618.343 198.7 619.646 198.887C625.414 199.818 628.39 200.376 630.996 202.608C633.217 204.291 634.846 206.636 635.647 209.306C637.134 214.329 635.274 218.608 633.227 223.074ZM707.278 213.582C706.905 221.027 706.905 224.562 705.231 228.284C704.3 230.518 702.812 234.051 699.091 236.842C696.3 239.077 693.509 239.633 690.718 240.194C685.846 241.216 680.798 241.024 676.017 239.636C673.04 238.892 668.389 237.776 664.11 233.869C659.831 230.333 658.156 226.24 656.854 223.263C654.807 218.612 652.946 214.333 654.434 209.495C655.235 206.826 656.864 204.48 659.086 202.797C661.691 200.751 664.668 200.192 670.436 199.076C671.738 198.89 675.087 198.332 679.925 197.959C685.011 197.652 690.115 197.777 695.181 198.331C697.786 198.517 699.646 198.889 701.693 200.005C703.591 201.102 705.14 202.715 706.158 204.657C707.091 206.515 707.463 208.376 707.278 213.582Z" fill="#0B65AF"/>
<path d="M654.626 325.027C655.929 329.492 657.417 334.888 662.068 339.353C668.208 345.121 675.836 345.493 681.046 345.679C687.186 346.051 695.372 346.423 701.326 340.842C705.977 336.562 706.721 330.795 707.466 324.841C708.396 318.515 709.326 311.445 705.419 306.236C700.393 299.538 690.346 299.91 681.229 300.282C673.788 300.654 657.601 301.212 653.694 310.514C651.833 314.794 653.135 319.259 654.626 325.027Z" fill="#20282F"/>
<path d="M636.306 310.203C632.398 300.9 616.212 300.342 608.769 299.969C599.654 299.597 589.606 299.225 584.582 305.923C580.675 311.132 581.606 318.203 582.536 324.528C583.28 330.483 584.024 336.25 588.675 340.53C594.629 346.111 602.816 345.739 608.956 345.367C614.165 345.181 621.793 344.809 627.933 339.041C632.585 334.575 634.073 329.18 635.376 324.715C636.867 318.947 638.166 314.481 636.306 310.203Z" fill="#20282F"/>
<path d="M656.466 328.727C665.225 319.468 673.985 310.209 682.746 300.951L682.067 300.281C679.604 299.824 677.235 299.56 675.304 299.366L654.936 320.896C653.712 322.19 655.692 329.544 656.466 328.727Z" fill="#83B6E3"/>
<path d="M691.053 301.985L690.166 301.109C689.221 300.726 688.257 300.392 687.278 300.109L656.698 332.431L658.667 334.375C659.03 334.617 659.4 334.839 659.775 335.043L691.053 301.985Z" fill="#83B6E3"/>
<path d="M617.117 301.985L616.231 301.109C615.287 300.726 614.323 300.393 613.344 300.111L582.76 332.433L584.729 334.377C585.092 334.619 585.461 334.841 585.837 335.045L617.117 301.985Z" fill="#83B6E3"/>
<path d="M582.53 328.727C591.29 319.468 600.05 310.209 608.81 300.951L608.131 300.281C605.668 299.824 603.3 299.56 601.369 299.366L581.001 320.896C579.776 322.19 581.756 329.544 582.53 328.727Z" fill="#83B6E3"/>
<path d="M717.51 301.026C716.952 300.468 716.022 300.282 714.347 299.723C713.812 299.512 713.247 299.386 712.673 299.351L711.185 298.98C705.787 297.863 692.579 298.049 692.579 298.049C685.509 298.235 686.997 298.049 683.464 298.235C674.162 298.607 669.696 298.793 665.417 299.91C664.115 300.282 660.951 301.212 656.486 302.144C654.44 302.517 653.323 302.889 652.951 302.889C650.909 303.076 648.854 303.076 646.811 302.889H637.321C636.118 302.773 634.933 302.523 633.785 302.144C629.32 301.214 626.343 300.284 624.855 299.91C620.578 298.793 616.108 298.607 606.807 298.235C603.273 298.049 604.759 298.235 597.691 298.049C597.691 298.049 584.481 297.677 579.272 298.98L577.783 299.352C577.243 299.546 576.68 299.671 576.108 299.725C574.248 300.282 573.317 300.47 572.945 301.026C571.827 301.956 572.015 303.631 572.015 305.678C571.923 306.985 572.248 308.288 572.945 309.398C573.689 310.516 574.247 310.516 575.736 311.817C576.665 312.771 577.478 313.833 578.154 314.98C579.272 317.027 579.085 318.701 579.085 321.12C579.303 323.868 579.676 326.601 580.202 329.306C580.76 332.469 581.69 336.562 584.853 340.284C587.312 343.254 590.625 345.397 594.342 346.423C595.644 346.795 597.133 347.168 601.412 347.353C608.11 347.54 612.762 347.726 618.529 346.051C622.809 344.934 627.088 343.633 630.996 339.911C633.746 337.118 635.842 333.75 637.134 330.049L640.298 320.561C640.521 319.664 640.832 318.791 641.228 317.956C641.506 317.186 641.95 316.487 642.53 315.909C642.907 315.526 643.348 315.211 643.832 314.979C644.019 314.793 644.391 314.793 644.763 314.607H646.251C646.623 314.607 646.81 314.793 647.181 314.979C647.666 315.211 648.107 315.526 648.484 315.909C648.979 316.55 649.415 317.235 649.786 317.956C650.181 318.791 650.493 319.664 650.717 320.561C650.717 320.561 651.461 323.351 653.879 330.049C655.172 333.749 657.269 337.117 660.019 339.91C663.926 343.632 668.206 344.934 672.486 346.05C678.254 347.724 682.905 347.539 689.603 347.352C693.883 347.166 695.557 346.794 696.673 346.422C700.37 345.352 703.67 343.216 706.161 340.281C709.324 336.56 710.068 332.467 710.812 329.304C711.338 326.598 711.711 323.865 711.93 321.118C711.93 318.699 711.93 317.024 712.86 314.978C713.478 313.792 714.296 312.722 715.279 311.815C716.581 310.513 717.326 310.513 718.07 309.396C718.814 308.279 718.814 307.161 719 305.675C718.441 303.631 718.441 301.956 717.51 301.026ZM633.227 327.074C631.927 330.049 630.065 333.957 625.971 337.679C622.51 340.509 618.43 342.485 614.064 343.446C609.254 344.633 604.252 344.823 599.366 344.004C596.76 343.446 593.97 342.887 590.993 340.655C587.272 337.865 585.97 334.516 584.853 332.097C583.364 328.376 583.177 324.841 582.806 317.399C582.621 312.376 582.993 310.329 583.924 308.468C584.942 306.526 586.49 304.913 588.389 303.817C590.435 302.7 592.11 302.329 594.9 302.142C599.973 301.693 605.069 301.569 610.157 301.77C614.994 302.142 618.343 302.7 619.646 302.887C625.414 303.818 628.39 304.376 630.996 306.608C633.217 308.291 634.846 310.636 635.647 313.306C637.134 318.329 635.274 322.608 633.227 327.074ZM707.278 317.582C706.905 325.027 706.905 328.562 705.231 332.284C704.3 334.518 702.812 338.051 699.091 340.842C696.3 343.077 693.509 343.633 690.718 344.194C685.846 345.216 680.798 345.024 676.017 343.636C673.04 342.892 668.389 341.776 664.11 337.869C659.831 334.333 658.156 330.24 656.854 327.263C654.807 322.612 652.946 318.333 654.434 313.495C655.235 310.826 656.864 308.48 659.086 306.797C661.691 304.751 664.668 304.192 670.436 303.076C671.738 302.89 675.087 302.332 679.925 301.959C685.011 301.652 690.115 301.777 695.181 302.331C697.786 302.517 699.646 302.889 701.693 304.005C703.591 305.102 705.14 306.715 706.158 308.657C707.091 310.515 707.463 312.376 707.278 317.582Z" fill="#0B65AF"/>
<path d="M238.019 185.428C237.747 182.929 237.305 180.452 236.695 178.013C233.391 165.168 230.924 155.578 222.883 149.696C220.687 148.09 216.526 145.628 209.799 144.868C207.351 144.374 204.867 144.085 202.371 144.002C201.506 143.973 193.029 144.296 190.201 144.866C190.201 144.866 182.669 146.086 177.117 149.694C177.117 149.694 168.862 155.734 163.15 178.726C162.617 180.932 162.227 183.17 161.981 185.426C161.926 185.998 161.891 186.458 161.874 186.717L198.907 186.796V186.8H201.099L238.131 186.721C238.102 186.411 238.069 185.965 238.019 185.428Z" fill="#F18828"/>
<path d="M268.688 196.529C268.639 196.436 268.585 196.345 268.526 196.257C267.438 194.641 264.84 193.617 264.84 193.617C263.01 192.894 260.921 192.044 258.492 191.108C254.458 189.857 249.326 188.299 245.698 187.319C245.447 187.252 239.282 185.696 237.412 185.278C225.663 185.258 202.163 185.215 202.162 185.212L199.999 185.216L197.837 185.212L197.834 185.22L162.586 185.278C160.717 185.696 158.008 186.331 154.781 187.19L154.3 187.319C150.672 188.299 145.54 189.857 141.506 191.108C139.077 192.044 136.991 192.894 135.158 193.617C135.158 193.617 132.56 194.641 131.472 196.257C131.413 196.345 131.36 196.436 131.31 196.529C130.995 197.218 130.917 197.991 131.09 198.728C131.365 199.959 132.437 200.702 133.179 201.202C134.465 202.066 135.593 202.351 137.928 202.887C140.71 203.528 142.101 203.848 142.692 203.95C148.047 204.877 152.017 205.214 152.017 205.214C166.463 206.442 176.881 206.973 176.881 206.973C182.205 207.245 186.111 207.397 188.398 207.479C192.086 207.671 195.959 207.782 200.002 207.782C204.045 207.782 207.917 207.671 211.607 207.479C213.893 207.397 217.8 207.245 223.124 206.973C223.124 206.973 233.545 206.442 247.987 205.214C247.987 205.214 251.958 204.877 257.313 203.95C257.904 203.848 259.295 203.528 262.077 202.887C264.409 202.351 265.54 202.066 266.822 201.202C267.564 200.702 268.636 199.959 268.911 198.728C269.083 197.991 269.004 197.217 268.688 196.529Z" fill="#F18828"/>
<path d="M177.115 149.696C176.013 150.719 174.991 151.825 174.059 153.005C172.935 154.462 171.93 156.008 171.055 157.627C169.801 159.857 168.674 162.155 167.679 164.512C165.806 168.93 164.92 172.196 163.148 178.728C162.64 180.939 162.25 183.176 161.979 185.428C161.923 186 161.889 186.46 161.871 186.719L198.904 186.798V186.802H201.094V186.798C197.798 186.686 187.904 185.907 180.515 178.391C178.148 176.082 176.31 173.288 175.127 170.201C171.531 160.579 176.081 151.62 177.115 149.696Z" fill="#B2671D"/>
<path d="M193.815 187.323C199.923 187.013 201.217 186.807 201.094 186.802L162.586 185.278C160.717 185.696 158.008 186.331 154.781 187.19L154.3 187.319C150.672 188.299 145.54 189.857 141.506 191.108C139.077 192.044 136.991 192.894 135.158 193.617C135.158 193.617 132.56 194.641 131.472 196.257C131.413 196.345 131.36 196.436 131.31 196.529C130.995 197.218 130.917 197.991 131.09 198.728C131.365 199.959 132.437 200.702 133.179 201.202C134.465 202.066 135.593 202.351 137.928 202.887C140.71 203.528 142.101 203.848 142.692 203.95C148.047 204.877 152.017 205.214 152.017 205.214C166.463 206.442 176.881 206.973 176.881 206.973C182.205 207.245 186.111 207.397 188.398 207.479C192.086 207.671 195.959 207.782 200.002 207.782C200.467 207.782 200.92 207.782 201.416 207.776C204.541 207.747 206.772 207.672 211.606 207.479C215.663 207.317 217.691 207.235 218.868 207.182C224.08 206.939 227.211 206.805 227.209 206.74C227.206 206.614 215.211 206.921 200.798 206.865C198.676 206.857 170.997 206.592 159.024 198.73C156.762 197.246 155.832 195.995 155.946 194.883C156.051 193.869 157.099 192.236 165.07 190.266C173.354 188.216 180.18 188.014 193.815 187.323Z" fill="#B2671D"/>
<path d="M238.019 185.428C237.801 183.198 237.424 180.986 236.892 178.81L163.238 178.367C162.913 179.657 162.611 181.069 162.364 182.592C162.127 184.056 161.968 185.437 161.869 186.719L198.902 186.798V186.802H201.092V186.798L238.125 186.719C238.096 186.294 238.061 185.864 238.019 185.428Z" fill="#02602D"/>
<path d="M180.593 178.471L180.249 178.463C179.764 178.454 179.417 178.457 179.199 178.458C179.1 178.458 177.764 178.465 176.99 178.437C176.929 178.437 176.757 178.429 176.524 178.427C176.227 178.427 176.011 178.431 175.96 178.432C175.176 178.452 173.115 178.417 173.115 178.417C172.235 178.401 169.793 178.383 163.238 178.367C162.913 179.657 162.611 181.069 162.364 182.592C162.127 184.056 161.968 185.437 161.869 186.719L198.902 186.798V186.802H201.092V186.798C200.548 186.78 199.917 186.745 199.219 186.685C198.894 186.656 198.091 186.581 197.13 186.437C195.649 186.216 194.185 185.9 192.745 185.491C191.386 185.101 190.056 184.62 188.762 184.05C187.711 183.583 186.935 183.164 186.652 183.011C185.245 182.231 183.905 181.335 182.647 180.333C181.964 179.779 181.289 179.151 181.15 179.019C180.984 178.862 180.822 178.702 180.822 178.702C180.732 178.611 180.654 178.531 180.593 178.471Z" fill="#00461F"/>
<path d="M238.019 289.428C237.747 286.929 237.305 284.452 236.695 282.013C233.391 269.168 230.924 259.578 222.883 253.696C220.687 252.09 216.526 249.628 209.799 248.868C207.351 248.374 204.867 248.085 202.371 248.002C201.506 247.973 193.029 248.296 190.201 248.866C190.201 248.866 182.669 250.086 177.117 253.694C177.117 253.694 168.862 259.734 163.15 282.726C162.617 284.932 162.227 287.17 161.981 289.426C161.926 289.998 161.891 290.458 161.874 290.717L198.907 290.796V290.8H201.099L238.131 290.721C238.102 290.411 238.069 289.965 238.019 289.428Z" fill="#F18828"/>
<path d="M268.688 300.529C268.639 300.436 268.585 300.345 268.526 300.257C267.438 298.641 264.84 297.617 264.84 297.617C263.01 296.894 260.921 296.044 258.492 295.108C254.458 293.857 249.326 292.299 245.698 291.319C245.447 291.252 239.282 289.696 237.412 289.278C225.663 289.258 202.163 289.215 202.162 289.212L199.999 289.216L197.837 289.212L197.834 289.22L162.586 289.278C160.717 289.696 158.008 290.331 154.781 291.19L154.3 291.319C150.672 292.299 145.54 293.857 141.506 295.108C139.077 296.044 136.991 296.894 135.158 297.617C135.158 297.617 132.56 298.641 131.472 300.257C131.413 300.345 131.36 300.436 131.31 300.529C130.995 301.218 130.917 301.991 131.09 302.728C131.365 303.959 132.437 304.702 133.179 305.202C134.465 306.066 135.593 306.351 137.928 306.887C140.71 307.528 142.101 307.848 142.692 307.95C148.047 308.877 152.017 309.214 152.017 309.214C166.463 310.442 176.881 310.973 176.881 310.973C182.205 311.245 186.111 311.397 188.398 311.479C192.086 311.671 195.959 311.782 200.002 311.782C204.045 311.782 207.917 311.671 211.607 311.479C213.893 311.397 217.8 311.245 223.124 310.973C223.124 310.973 233.545 310.442 247.987 309.214C247.987 309.214 251.958 308.877 257.313 307.95C257.904 307.848 259.295 307.528 262.077 306.887C264.409 306.351 265.54 306.066 266.822 305.202C267.564 304.702 268.636 303.959 268.911 302.728C269.083 301.991 269.004 301.217 268.688 300.529Z" fill="#F18828"/>
<path d="M177.115 253.696C176.013 254.719 174.991 255.825 174.059 257.005C172.935 258.462 171.93 260.008 171.055 261.627C169.801 263.857 168.674 266.155 167.679 268.512C165.806 272.93 164.92 276.196 163.148 282.728C162.64 284.939 162.25 287.176 161.979 289.428C161.923 290 161.889 290.46 161.871 290.719L198.904 290.798V290.802H201.094V290.798C197.798 290.686 187.904 289.907 180.515 282.391C178.148 280.082 176.31 277.288 175.127 274.201C171.531 264.579 176.081 255.62 177.115 253.696Z" fill="#B2671D"/>
<path d="M193.815 291.323C199.923 291.013 201.217 290.807 201.094 290.802L162.586 289.278C160.717 289.696 158.008 290.331 154.781 291.19L154.3 291.319C150.672 292.299 145.54 293.857 141.506 295.108C139.077 296.044 136.991 296.894 135.158 297.617C135.158 297.617 132.56 298.641 131.472 300.257C131.413 300.345 131.36 300.436 131.31 300.529C130.995 301.218 130.917 301.991 131.09 302.728C131.365 303.959 132.437 304.702 133.179 305.202C134.465 306.066 135.593 306.351 137.928 306.887C140.71 307.528 142.101 307.848 142.692 307.95C148.047 308.877 152.017 309.214 152.017 309.214C166.463 310.442 176.881 310.973 176.881 310.973C182.205 311.245 186.111 311.397 188.398 311.479C192.086 311.671 195.959 311.782 200.002 311.782C200.467 311.782 200.92 311.782 201.416 311.776C204.541 311.747 206.772 311.672 211.606 311.479C215.663 311.317 217.691 311.235 218.868 311.182C224.08 310.939 227.211 310.805 227.209 310.74C227.206 310.614 215.211 310.921 200.798 310.865C198.676 310.857 170.997 310.592 159.024 302.73C156.762 301.246 155.832 299.995 155.946 298.883C156.051 297.869 157.099 296.236 165.07 294.266C173.354 292.216 180.18 292.014 193.815 291.323Z" fill="#B2671D"/>
<path d="M238.019 289.428C237.801 287.198 237.424 284.986 236.892 282.809L163.238 282.367C162.913 283.657 162.611 285.069 162.364 286.592C162.127 288.056 161.968 289.437 161.869 290.719L198.902 290.798V290.802H201.092V290.798L238.125 290.719C238.096 290.294 238.061 289.864 238.019 289.428Z" fill="#02602D"/>
<path d="M180.593 282.471L180.249 282.463C179.764 282.454 179.417 282.457 179.199 282.458C179.1 282.458 177.764 282.465 176.99 282.437C176.929 282.437 176.757 282.429 176.524 282.427C176.227 282.427 176.011 282.431 175.96 282.432C175.176 282.452 173.115 282.417 173.115 282.417C172.235 282.401 169.793 282.383 163.238 282.367C162.913 283.657 162.611 285.069 162.364 286.592C162.127 288.056 161.968 289.437 161.869 290.719L198.902 290.798V290.802H201.092V290.798C200.548 290.78 199.917 290.745 199.219 290.685C198.894 290.656 198.091 290.581 197.13 290.437C195.649 290.216 194.185 289.9 192.745 289.491C191.386 289.101 190.056 288.62 188.762 288.05C187.711 287.583 186.935 287.164 186.652 287.011C185.245 286.231 183.905 285.335 182.647 284.333C181.964 283.779 181.289 283.151 181.15 283.019C180.984 282.862 180.822 282.702 180.822 282.702C180.732 282.611 180.654 282.531 180.593 282.471Z" fill="#00461F"/>
</svg>
