<?xml version="1.0" encoding="utf-8"?>
<!-- Generator: Adobe Illustrator 26.0.2, SVG Export Plug-In . SVG Version: 6.00 Build 0)  -->
<svg viewBox="0 0 200 156" version="1.1" id="Ebene_1" xmlns="http://www.w3.org/2000/svg" xmlns:xlink="http://www.w3.org/1999/xlink" x="0px" y="0px"
	 style="enable-background:new 0 0 178 156;" xml:space="preserve">
<style type="text/css">
	.st0{fill:#FFFFFF;stroke:#834EA5;stroke-width:4;}
	.st1{opacity:0.5317;fill-rule:evenodd;clip-rule:evenodd;fill:url(#SVGID_1_);enable-background:new    ;}
	
		.st2{fill-rule:evenodd;clip-rule:evenodd;fill:url(#SVGID_00000150788324762433479860000002712756200006312352_);stroke:#9C8C0A;stroke-width:1;stroke-linecap:round;stroke-linejoin:round;stroke-miterlimit:8.3324;}
	
		.st3{opacity:0.6772;fill:none;stroke:#FFFFFF;stroke-width:1;stroke-linecap:round;stroke-linejoin:round;stroke-miterlimit:7.9192;enable-background:new    ;}
	.st4{opacity:0.36;fill:#FFFFFF;enable-background:new    ;}
	.st5{fill:url(#SVGID_00000008841325942221970350000005272706145804597177_);}
	.st6{opacity:0.4367;enable-background:new    ;}
	.st7{fill:url(#SVGID_00000085972193701930148120000006203949297131673738_);}
	.st8{fill:url(#SVGID_00000158011875665393816390000005585788864371440513_);}
	.st9{fill:#FFFFFF;}
	.st10{fill:url(#SVGID_00000085250913115391269400000007589655182099963035_);}
	.st11{fill:url(#SVGID_00000170997609436367081720000015673412603280996277_);}
</style>
<path class="st0" d="M32,2h114c16.6,0,30,13.4,30,30v92c0,16.6-13.4,30-30,30H32c-16.6,0-30-13.4-30-30V32C2,15.4,15.4,2,32,2z"/>
<radialGradient id="SVGID_1_" cx="91.9051" cy="-104.0734" r="64.5257" gradientTransform="matrix(1 0 0 -0.3333 0 89.7135)" gradientUnits="userSpaceOnUse">
	<stop  offset="0" style="stop-color:#000000"/>
	<stop  offset="1" style="stop-color:#000000;stop-opacity:0"/>
</radialGradient>
<path class="st1" d="M156.4,124.4c0,11.9-28.9,21.5-64.5,21.5s-64.5-9.6-64.5-21.5s28.9-21.5,64.5-21.5S156.4,112.5,156.4,124.4z"/>
<radialGradient id="SVGID_00000062169876077476639700000012193430750975111558_" cx="71.9311" cy="114.0977" r="29.1363" fx="71.5056" fy="114.2123" gradientTransform="matrix(2.0831 0 0 -2.0831 -72.0039 288.9448)" gradientUnits="userSpaceOnUse">
	<stop  offset="0" style="stop-color:#FFFCDE"/>
	<stop  offset="0.6449" style="stop-color:#F6E76A"/>
	<stop  offset="1" style="stop-color:#FFB738"/>
</radialGradient>
<path style="fill-rule:evenodd;clip-rule:evenodd;fill:url(#SVGID_00000062169876077476639700000012193430750975111558_);stroke:#9C8C0A;stroke-width:1;stroke-linecap:round;stroke-linejoin:round;stroke-miterlimit:8.3324;" d="
	M149.3,73.7c0.2,32.6-26.2,59.2-58.8,59.3c-32.6,0.2-59.2-26.2-59.3-58.8c0-0.2,0-0.4,0-0.6C31.1,41.1,57.4,14.5,90,14.3
	c32.6-0.2,59.2,26.2,59.3,58.8C149.3,73.3,149.3,73.5,149.3,73.7z"/>
<path class="st3" d="M146.6,73.8c0.1,31-24.9,56.2-55.9,56.4s-56.2-24.9-56.4-55.9c0-0.2,0-0.4,0-0.5c-0.1-31,24.9-56.2,55.9-56.4
	c31-0.1,56.2,24.9,56.4,55.9C146.6,73.4,146.6,73.6,146.6,73.8z"/>
<g transform="matrix(.66378 0 0 .66378 8.2546 14.975)">
	<path class="st4" d="M156.2,153.4c-12.2-13.6-18.2-18.4-31.3-18.4c-12.8,0-21.3,5.5-30.7,19.6c11.2-7.7,17.4-11.9,29.8-11.9
		C136.2,142.6,142.9,146,156.2,153.4L156.2,153.4z"/>
	
		<radialGradient id="SVGID_00000165921344869770128790000006440224862618230704_" cx="138.4472" cy="217.6951" r="51.5723" gradientTransform="matrix(0.8297 0 0 0.8297 11.278 -52.9998)" gradientUnits="userSpaceOnUse">
		<stop  offset="0" style="stop-color:#777777"/>
		<stop  offset="1" style="stop-color:#000000"/>
	</radialGradient>
	<path style="fill:url(#SVGID_00000165921344869770128790000006440224862618230704_);" d="M156.2,151.1
		c-12.2-13.6-18.2-18.4-31.3-18.4c-12.8,0-21.3,5.5-30.7,19.6c11.2-7.7,17.4-11.9,29.8-11.9C136.2,140.3,142.9,143.7,156.2,151.1
		L156.2,151.1z"/>
</g>
<path class="st6" d="M79.7,27.2l-20,15.5l1.2-10.6L79.7,27.2z"/>
<path class="st6" d="M97.3,27.2l20,15.5l-1.2-10.6L97.3,27.2z"/>
<linearGradient id="SVGID_00000143596907827446176360000002254454932360929710_" gradientUnits="userSpaceOnUse" x1="62.7087" y1="109.1686" x2="60.1296" y2="127.4665" gradientTransform="matrix(1 0 0 -1 0 156)">
	<stop  offset="0" style="stop-color:#729FCF"/>
	<stop  offset="1" style="stop-color:#729FCF;stop-opacity:0"/>
</linearGradient>
<path style="fill:url(#SVGID_00000143596907827446176360000002254454932360929710_);" d="M79.1,27.7c0,0-4.1,15.7-5.6,21.5
	c-1.4,5.3-6.1,14.6-3.5,25c3.2,13.1-2.6,17.6-9,17.9c-5.9,0.3-12.8-2.6-12.5-13c0.4-14.6,16.5-14.5,22.2-28.9
	C76.1,36.6,60,42.1,60,42.1L79.1,27.7z"/>
<radialGradient id="SVGID_00000106846376499559905460000003869503993103227060_" cx="52.2106" cy="105.8947" r="14.1019" gradientTransform="matrix(1.3699 0 0 -2.845 -15.7813 375.369)" gradientUnits="userSpaceOnUse">
	<stop  offset="0" style="stop-color:#D6E0F8"/>
	<stop  offset="1" style="stop-color:#D6E0F8;stop-opacity:0"/>
</radialGradient>
<path style="fill:url(#SVGID_00000106846376499559905460000003869503993103227060_);" d="M78.5,28c0,0-3.9,14.7-6.8,24.3
	s-7.1,11.4-4.3,22.3c1.5,5.7-1.8,11.9-7,11.9c-5.3,0-9.9-3.2-9.5-10.1c0.6-12.8,12.1-11,17.5-22.6c8.7-18.8-8.1-11.8-8.1-11.8
	S78.5,28,78.5,28z"/>
<path class="st9" d="M60.5,76.1c0,2.1-1.7,3.9-3.9,3.9s-3.9-1.7-3.9-3.9l0,0c0-2.1,1.7-3.9,3.9-3.9S60.5,74,60.5,76.1L60.5,76.1z"/>
<linearGradient id="SVGID_00000080889695787776929110000013222251766711039408_" gradientUnits="userSpaceOnUse" x1="108.5746" y1="115.2136" x2="108.5746" y2="131.1252" gradientTransform="matrix(1 0 0 -1 0 156)">
	<stop  offset="0" style="stop-color:#729FCF"/>
	<stop  offset="1" style="stop-color:#729FCF;stop-opacity:0"/>
</linearGradient>
<path style="fill:url(#SVGID_00000080889695787776929110000013222251766711039408_);" d="M97.8,27.4c0,0,5.4,25,6.7,31.1
	c1.6,7.4,15.1,12.3,14.9,4.7c-0.3-10.4-9.5-9.9-10.5-12.2c-4-10,8.8-8.1,8.8-8.1S97.8,27.4,97.8,27.4z"/>
<linearGradient id="SVGID_00000072252534558073266430000005142196095588486805_" gradientUnits="userSpaceOnUse" x1="110.7055" y1="97.4559" x2="105.5996" y2="111.9192" gradientTransform="matrix(1 0 0 -1 0 156)">
	<stop  offset="0" style="stop-color:#D6E0F8"/>
	<stop  offset="1" style="stop-color:#D6E0F8;stop-opacity:0"/>
</linearGradient>
<path style="fill:url(#SVGID_00000072252534558073266430000005142196095588486805_);" d="M101.3,37.8c0,0,3.3,15.6,4.6,19.2
	c1,2.9,2.4,5.4,6.8,5.1c3.7-0.3,3.1-5.5-1.6-8.1C103.4,49.7,101.3,38.1,101.3,37.8L101.3,37.8z"/>
<path class="st9" d="M114,56.3c0,1.2-1,2.2-2.2,2.2c-1.2,0-2.2-1-2.2-2.2l0,0c0-1.2,1-2.2,2.2-2.2C113.1,54.1,114,55.1,114,56.3
	L114,56.3z"/>
</svg>
