<svg width="878" height="548" viewBox="0 0 878 548" fill="none" xmlns="http://www.w3.org/2000/svg">
<g filter="url(#filter0_d_265_52)">
<rect x="7" y="3" width="864" height="533.4" rx="77" fill="white" stroke="#844EA5" stroke-width="6"/>
<path d="M361.913 220.336C359.156 220.028 356.381 219.917 353.608 220.004C352.299 220.084 350.998 220.267 349.717 220.551C347.578 221.08 345.512 221.87 343.566 222.904C337.398 227.964 333.479 235.251 332.662 243.181C329.667 255.202 330.74 267.875 335.713 279.224C338.558 285.807 342.762 291.717 348.049 296.567C353.336 301.417 359.589 305.099 366.398 307.372C373.207 309.644 380.419 310.457 387.564 309.756C394.708 309.055 401.625 306.857 407.861 303.304C414.104 300.196 419.659 295.867 424.196 290.574C428.733 285.282 432.159 279.133 434.272 272.492C436.83 262.968 436.515 252.901 433.368 243.554C431.884 236.737 428.23 230.583 422.952 226.014C420.056 223.57 416.604 221.873 412.897 221.073C408.107 220.487 403.283 220.214 398.457 220.256C396.951 220.243 395.454 220.01 394.016 219.565C392.801 219.116 391.614 218.594 390.462 218.002C388.419 217.071 386.219 216.533 383.977 216.416C381.997 216.525 380.039 216.897 378.157 217.522C374.349 218.519 374 218.849 371.86 219.377C368.606 220.16 365.257 220.483 361.913 220.336Z" fill="#C80D25"/>
<path d="M435.348 267.624C435.603 266.134 435.783 264.631 435.886 263.123L435.896 262.981C435.991 261.557 436.021 260.181 435.987 258.854V258.731C435.96 257.508 435.871 256.339 435.769 255.208L435.706 254.574C435.58 253.568 435.454 252.563 435.301 251.626L435.159 250.826C435.018 250.053 434.867 249.313 434.708 248.621L434.539 247.88C434.43 247.425 434.327 247.026 434.21 246.614C433.918 245.555 433.641 244.544 433.35 243.559C432.968 242.289 432.539 240.945 432.035 239.555C431.456 237.984 430.94 236.734 430.462 235.738L430.156 235.073L429.809 234.382C428.612 232.057 427.07 229.926 425.234 228.061L425.171 228.024C424.465 227.323 423.718 226.664 422.934 226.05C421.724 225.079 420.442 224.202 419.099 223.425L419.058 223.4C418.627 223.141 418.095 222.943 417.611 222.717C418.904 224.688 420.338 226.564 421.902 228.33C426.836 236.308 428.936 245.714 427.862 255.03C427.183 262.432 424.801 269.577 420.902 275.908C417.002 282.239 411.691 287.584 405.382 291.527C394.321 298.021 381.206 300.084 368.682 297.301C347.889 293.198 336.959 277.935 335.728 279.242C339.652 287.708 345.651 295.049 353.171 300.585C353.884 301.087 354.61 301.579 355.364 302.059L355.816 302.33C359.124 304.405 362.662 306.09 366.359 307.351C367.546 307.747 368.716 308.075 369.89 308.38C370.268 308.478 370.645 308.546 371.023 308.631C371.833 308.829 372.579 308.979 373.354 309.101C373.795 309.176 374.207 309.231 374.655 309.303C375.355 309.409 376.053 309.502 376.72 309.614L378.024 309.734C378.7 309.786 379.367 309.823 380.026 309.857C380.443 309.876 380.86 309.892 381.268 309.896C381.95 309.906 382.623 309.896 383.293 309.884C383.646 309.871 384.017 309.871 384.362 309.855C385.198 309.817 386.015 309.758 386.813 309.678L387.321 309.641C388.303 309.551 389.228 309.406 390.148 309.271L390.952 309.122C391.588 309.01 392.217 308.894 392.823 308.766C393.151 308.704 393.468 308.623 393.787 308.555L395.345 308.178L396.298 307.922C396.781 307.784 397.253 307.65 397.711 307.506L398.577 307.243C399.039 307.092 399.488 306.934 399.921 306.786L400.652 306.528C401.129 306.357 401.59 306.16 402.021 306L402.505 305.816C403.091 305.583 403.632 305.349 404.141 305.125L404.55 304.942L405.578 304.469L405.955 304.288L406.591 303.974L407.278 303.634L407.866 303.307C414.397 299.887 420.222 295.267 425.038 289.689C425.385 289.284 425.73 288.879 426.065 288.446C426.151 288.303 426.31 288.148 426.401 288.025C426.895 287.392 427.345 286.733 427.781 286.12C428.003 285.751 428.276 285.404 428.495 285.071C428.998 284.305 429.492 283.52 429.963 282.705L430.184 282.336C430.681 281.509 431.108 280.633 431.535 279.737C431.661 279.5 431.773 279.257 431.87 279.008C432.265 278.147 432.645 277.268 432.999 276.356L433.137 276.003C433.568 274.867 433.955 273.702 434.317 272.491C434.769 270.905 435.133 269.296 435.41 267.67L435.348 267.624Z" fill="#9F122D"/>
<path d="M352.358 226.652C350.24 226.74 348.206 227.504 346.555 228.833C342.874 232.432 340.146 236.887 338.614 241.799C337.082 246.711 336.795 251.925 337.778 256.975C337.847 258.639 338.288 260.267 339.07 261.738C339.853 263.209 340.955 264.486 342.297 265.476C343.54 266.048 344.883 266.37 346.251 266.423C347.619 266.477 348.984 266.26 350.268 265.785C355.188 263.948 356.734 258.808 359.7 248.92C361.305 243.454 361.613 237.691 360.6 232.085C360.295 230.808 359.635 229.643 358.696 228.724C356.928 227.247 354.659 226.505 352.358 226.652Z" fill="#D9766A"/>
<path d="M378.855 233.188C379.116 230.409 380.348 227.812 382.335 225.85C383.344 224.884 384.528 224.117 385.824 223.592C387.482 224.373 388.853 225.653 389.744 227.252C390.461 228.612 390.387 229.665 390.92 232.941C391.276 235.134 391.564 236.978 391.767 238.309C392.619 236.785 393.262 235.154 393.678 233.46C394.517 230.943 394.567 228.231 393.823 225.685C393.254 224.097 392.316 222.667 391.087 221.512C392.556 220.997 394.074 220.633 395.617 220.429C398.637 220.109 401.689 220.307 404.642 221.015C407.343 221.514 409.998 222.237 412.578 223.177C411.745 222.453 410.853 221.8 409.911 221.224C406.999 219.553 403.748 218.556 400.399 218.306C396.982 217.864 393.519 217.916 390.117 218.461C390.779 217.659 391.517 216.921 392.319 216.257C394.061 214.849 396.059 213.791 398.204 213.14C400.505 212.431 402.925 212.189 405.322 212.425C404.457 211.993 403.549 211.651 402.613 211.405C400.39 210.858 398.071 210.821 395.832 211.298C393.303 211.94 390.907 213.021 388.754 214.493C387.519 215.212 386.535 215.875 385.866 216.338C385.909 215.231 385.948 213.805 385.992 212.156C386.246 210.074 386.136 207.964 385.667 205.919C385.104 204.38 384.129 203.024 382.848 202C383.431 204.222 383.637 206.526 383.458 208.816C383.278 211.105 382.71 213.348 381.778 215.448C380.646 214.101 379.379 212.874 377.996 211.785C375.945 210.195 373.682 208.899 371.273 207.932C369.249 207.046 367.145 206.353 364.989 205.865C367.539 207.644 369.677 208.992 371.197 209.912C373.578 211.12 375.734 212.727 377.57 214.663C378.313 215.528 378.96 216.47 379.499 217.474C376.697 217.059 373.834 217.435 371.236 218.561C369.164 219.46 367.333 220.834 365.892 222.572C364.452 224.31 363.441 226.363 362.944 228.564C364.819 226.237 367.131 224.298 369.751 222.857C371.145 222.053 372.665 221.488 374.246 221.185C375.338 221.012 376.441 220.925 377.547 220.925C378.711 220.886 379.876 220.917 381.036 221.017C379.785 222.08 378.823 223.441 378.238 224.973C377.78 226.313 377.599 227.732 377.705 229.144C377.811 230.555 378.202 231.931 378.855 233.188Z" fill="#5FA440"/>
<path d="M197.913 220.336C195.156 220.028 192.381 219.917 189.608 220.004C188.299 220.084 186.998 220.267 185.717 220.551C183.578 221.08 181.512 221.87 179.566 222.904C173.398 227.964 169.479 235.251 168.662 243.181C165.667 255.202 166.74 267.875 171.713 279.224C174.558 285.807 178.762 291.717 184.049 296.567C189.336 301.417 195.589 305.099 202.398 307.372C209.207 309.644 216.419 310.457 223.564 309.756C230.708 309.055 237.625 306.857 243.861 303.304C250.104 300.196 255.659 295.867 260.196 290.574C264.733 285.282 268.159 279.133 270.272 272.492C272.83 262.968 272.515 252.901 269.368 243.554C267.884 236.737 264.23 230.583 258.952 226.014C256.056 223.57 252.604 221.873 248.897 221.073C244.107 220.487 239.283 220.214 234.457 220.256C232.951 220.243 231.454 220.01 230.016 219.565C228.801 219.116 227.614 218.594 226.462 218.002C224.419 217.071 222.219 216.533 219.977 216.416C217.997 216.525 216.039 216.897 214.157 217.522C210.349 218.519 210 218.849 207.86 219.377C204.606 220.16 201.257 220.483 197.913 220.336Z" fill="#C80D25"/>
<path d="M271.348 267.624C271.603 266.134 271.783 264.631 271.886 263.123L271.896 262.981C271.991 261.557 272.021 260.181 271.987 258.854V258.731C271.96 257.508 271.871 256.339 271.769 255.208L271.706 254.574C271.58 253.568 271.454 252.563 271.301 251.626L271.159 250.826C271.018 250.053 270.867 249.313 270.708 248.621L270.539 247.88C270.43 247.425 270.327 247.026 270.21 246.614C269.918 245.555 269.641 244.544 269.35 243.559C268.968 242.289 268.539 240.945 268.035 239.555C267.456 237.984 266.94 236.734 266.462 235.738L266.156 235.073L265.809 234.382C264.612 232.057 263.07 229.926 261.234 228.061L261.171 228.024C260.465 227.323 259.718 226.664 258.934 226.05C257.724 225.079 256.442 224.202 255.099 223.425L255.058 223.4C254.627 223.141 254.095 222.943 253.611 222.717C254.904 224.688 256.338 226.564 257.902 228.33C262.836 236.308 264.936 245.714 263.862 255.03C263.183 262.432 260.801 269.577 256.902 275.908C253.002 282.239 247.691 287.584 241.382 291.527C230.321 298.021 217.206 300.084 204.682 297.301C183.889 293.198 172.959 277.935 171.728 279.242C175.652 287.708 181.651 295.049 189.171 300.585C189.884 301.087 190.61 301.579 191.364 302.059L191.816 302.33C195.124 304.405 198.662 306.09 202.359 307.351C203.546 307.747 204.716 308.075 205.89 308.38C206.268 308.478 206.645 308.546 207.023 308.631C207.833 308.829 208.579 308.979 209.354 309.101C209.795 309.176 210.207 309.231 210.655 309.303C211.355 309.409 212.053 309.502 212.72 309.614L214.024 309.734C214.7 309.786 215.367 309.823 216.026 309.857C216.443 309.876 216.86 309.892 217.268 309.896C217.95 309.906 218.623 309.896 219.293 309.884C219.646 309.871 220.017 309.871 220.362 309.855C221.198 309.817 222.015 309.758 222.813 309.678L223.321 309.641C224.303 309.551 225.228 309.406 226.148 309.271L226.952 309.122C227.588 309.01 228.217 308.894 228.823 308.766C229.151 308.704 229.468 308.623 229.787 308.555L231.345 308.178L232.298 307.922C232.781 307.784 233.253 307.65 233.711 307.506L234.577 307.243C235.039 307.092 235.488 306.934 235.921 306.786L236.652 306.528C237.129 306.357 237.59 306.16 238.021 306L238.505 305.816C239.091 305.583 239.632 305.349 240.141 305.125L240.55 304.942L241.578 304.469L241.955 304.288L242.591 303.974L243.278 303.634L243.866 303.307C250.397 299.887 256.222 295.267 261.038 289.689C261.385 289.284 261.73 288.879 262.065 288.446C262.151 288.303 262.31 288.148 262.401 288.025C262.895 287.392 263.345 286.733 263.781 286.12C264.003 285.751 264.276 285.404 264.495 285.071C264.998 284.305 265.492 283.52 265.963 282.705L266.184 282.336C266.681 281.509 267.108 280.633 267.535 279.737C267.661 279.5 267.773 279.257 267.87 279.008C268.265 278.147 268.645 277.268 268.999 276.356L269.137 276.003C269.568 274.867 269.955 273.702 270.317 272.491C270.769 270.905 271.133 269.296 271.41 267.67L271.348 267.624Z" fill="#9F122D"/>
<path d="M188.358 226.652C186.24 226.74 184.206 227.504 182.555 228.833C178.874 232.432 176.146 236.887 174.614 241.799C173.082 246.711 172.795 251.925 173.778 256.975C173.847 258.639 174.288 260.267 175.07 261.738C175.853 263.209 176.955 264.486 178.297 265.476C179.54 266.048 180.883 266.37 182.251 266.423C183.619 266.477 184.984 266.26 186.268 265.785C191.188 263.948 192.734 258.808 195.7 248.92C197.305 243.454 197.613 237.691 196.6 232.085C196.295 230.808 195.635 229.643 194.696 228.724C192.928 227.247 190.659 226.505 188.358 226.652Z" fill="#D9766A"/>
<path d="M214.855 233.188C215.116 230.409 216.348 227.812 218.335 225.85C219.344 224.884 220.528 224.117 221.824 223.592C223.482 224.373 224.853 225.653 225.744 227.252C226.461 228.612 226.387 229.665 226.92 232.941C227.276 235.134 227.564 236.978 227.767 238.309C228.619 236.785 229.262 235.154 229.678 233.46C230.517 230.943 230.567 228.231 229.823 225.685C229.254 224.097 228.316 222.667 227.087 221.512C228.556 220.997 230.074 220.633 231.617 220.429C234.637 220.109 237.689 220.307 240.642 221.015C243.343 221.514 245.998 222.237 248.578 223.177C247.745 222.453 246.853 221.8 245.911 221.224C242.999 219.553 239.748 218.556 236.399 218.306C232.982 217.864 229.519 217.916 226.117 218.461C226.779 217.659 227.517 216.921 228.319 216.257C230.061 214.849 232.059 213.791 234.204 213.14C236.505 212.431 238.925 212.189 241.322 212.425C240.457 211.993 239.549 211.651 238.613 211.405C236.39 210.858 234.071 210.821 231.832 211.298C229.303 211.94 226.907 213.021 224.754 214.493C223.519 215.212 222.535 215.875 221.866 216.338C221.909 215.231 221.948 213.805 221.992 212.156C222.246 210.074 222.136 207.964 221.667 205.919C221.104 204.38 220.129 203.024 218.848 202C219.431 204.222 219.637 206.526 219.458 208.816C219.278 211.105 218.71 213.348 217.778 215.448C216.646 214.101 215.379 212.874 213.996 211.785C211.945 210.195 209.682 208.899 207.273 207.932C205.249 207.046 203.145 206.353 200.989 205.865C203.539 207.644 205.677 208.992 207.197 209.912C209.578 211.12 211.734 212.727 213.57 214.663C214.313 215.528 214.96 216.47 215.499 217.474C212.697 217.059 209.834 217.435 207.236 218.561C205.164 219.46 203.333 220.834 201.892 222.572C200.452 224.31 199.441 226.363 198.944 228.564C200.819 226.237 203.131 224.298 205.751 222.857C207.145 222.053 208.665 221.488 210.246 221.185C211.338 221.012 212.441 220.925 213.547 220.925C214.711 220.886 215.876 220.917 217.036 221.017C215.785 222.08 214.823 223.441 214.238 224.973C213.78 226.313 213.599 227.732 213.705 229.144C213.811 230.555 214.202 231.931 214.855 233.188Z" fill="#5FA440"/>
<path d="M684.806 298.088C684.603 294.913 684.421 290.377 684.541 284.623C683.953 284.07 683.366 283.517 682.777 282.965C679.02 282.948 675.709 282.952 672.945 282.965C671.279 282.972 670.381 282.98 668.036 282.994C664.607 283.015 661.568 283.027 659 283.036C656.431 283.027 653.393 283.015 649.964 282.994C647.619 282.98 646.722 282.972 645.055 282.965C642.291 282.952 638.98 282.948 635.223 282.965C634.635 283.517 634.047 284.07 633.459 284.623C633.578 290.377 633.397 294.911 633.194 298.088C633.038 300.537 632.798 303.32 633.313 307.141C633.577 309.071 633.99 310.977 634.548 312.843C636.16 318.037 638.799 322.854 642.308 327.009C644.633 329.863 647.253 333.032 651.832 335.66C654.081 336.948 656.491 337.934 658.999 338.591H659.004C661.511 337.934 663.922 336.948 666.171 335.66C670.749 333.034 673.37 329.864 675.695 327.009C679.203 322.854 681.842 318.037 683.455 312.843C684.013 310.977 684.425 309.071 684.689 307.141C685.201 303.32 684.962 300.537 684.806 298.088Z" fill="#838382"/>
<path d="M664.397 210.98H653.403V273.059H664.397V210.98Z" fill="#67461B"/>
<path d="M663.793 308.124C663.392 309.109 662.892 310.051 662.299 310.935C661.293 312.409 660.219 313.983 658.827 313.958C657.512 313.936 656.547 312.495 655.549 311.006C654.784 309.83 654.169 308.564 653.717 307.236C652.807 304.725 652.19 301.953 651.765 298.021C651.442 294.937 651.297 291.837 651.331 288.736C651.341 281.627 651.37 275.875 651.403 271.588L666.469 271.516C666.35 278.892 666.376 284.686 666.42 288.629C666.504 291.871 666.383 295.115 666.059 298.342C665.738 301.38 665.172 304.816 663.793 308.124Z" fill="#606060"/>
<path d="M674.42 196.222L672.664 194.144L645.345 194L643.537 195.808C643.518 196.861 643.5 198.406 643.512 200.28C643.542 204.585 643.7 205.241 643.821 205.659C644.438 207.759 645.723 209.6 647.481 210.904C647.961 211.248 648.997 211.915 651.846 212.58C657.82 213.975 662.545 213.208 666.44 212.536C667.563 212.388 668.652 212.045 669.658 211.523C671.476 210.508 672.915 208.93 673.758 207.026C674.322 205.707 674.377 204.189 674.464 201.206C674.525 199.107 674.475 197.382 674.42 196.222ZM668.732 204.397L666.498 206.836L651.037 206.866C650.438 206.169 649.838 205.472 649.238 204.775L649.04 199.076H668.761C668.752 200.849 668.742 202.623 668.732 204.397Z" fill="#606060"/>
</g>
<defs>
<filter id="filter0_d_265_52" x="0" y="0" width="878" height="547.4" filterUnits="userSpaceOnUse" color-interpolation-filters="sRGB">
<feFlood flood-opacity="0" result="BackgroundImageFix"/>
<feColorMatrix in="SourceAlpha" type="matrix" values="0 0 0 0 0 0 0 0 0 0 0 0 0 0 0 0 0 0 127 0" result="hardAlpha"/>
<feOffset dy="4"/>
<feGaussianBlur stdDeviation="2"/>
<feComposite in2="hardAlpha" operator="out"/>
<feColorMatrix type="matrix" values="0 0 0 0 0 0 0 0 0 0 0 0 0 0 0 0 0 0 0.25 0"/>
<feBlend mode="normal" in2="BackgroundImageFix" result="effect1_dropShadow_265_52"/>
<feBlend mode="normal" in="SourceGraphic" in2="effect1_dropShadow_265_52" result="shape"/>
</filter>
</defs>
</svg>