<svg width="870" height="540" viewBox="0 0 870 540" fill="none" xmlns="http://www.w3.org/2000/svg">
<rect x="2.5" y="2.5" width="865" height="534.4" rx="77.5" fill="#F3F3F3" stroke="#83C1CA" stroke-width="5"/>
<path d="M151.913 371.336C149.156 371.028 146.381 370.917 143.608 371.004C142.299 371.084 140.998 371.267 139.717 371.551C137.578 372.08 135.512 372.87 133.566 373.904C127.398 378.964 123.479 386.251 122.662 394.181C119.667 406.202 120.74 418.875 125.713 430.224C128.558 436.807 132.762 442.717 138.049 447.567C143.336 452.417 149.589 456.099 156.398 458.372C163.207 460.644 170.419 461.457 177.564 460.756C184.708 460.055 191.625 457.857 197.861 454.304C204.104 451.196 209.659 446.867 214.196 441.574C218.733 436.282 222.159 430.133 224.272 423.492C226.83 413.968 226.515 403.901 223.368 394.554C221.884 387.737 218.23 381.583 212.952 377.014C210.056 374.57 206.604 372.873 202.897 372.073C198.107 371.487 193.283 371.214 188.457 371.256C186.951 371.243 185.454 371.01 184.016 370.565C182.801 370.116 181.614 369.594 180.462 369.002C178.419 368.071 176.219 367.533 173.977 367.416C171.997 367.525 170.039 367.897 168.157 368.522C164.349 369.519 164 369.849 161.86 370.377C158.606 371.16 155.257 371.483 151.913 371.336Z" fill="#C80D25"/>
<path d="M225.348 418.624C225.603 417.134 225.783 415.631 225.886 414.123L225.896 413.981C225.991 412.557 226.021 411.181 225.987 409.854V409.731C225.96 408.508 225.871 407.339 225.769 406.208L225.706 405.574C225.58 404.568 225.454 403.563 225.301 402.626L225.159 401.826C225.018 401.053 224.867 400.313 224.708 399.621L224.539 398.88C224.43 398.425 224.327 398.026 224.21 397.614C223.918 396.555 223.641 395.544 223.35 394.559C222.968 393.289 222.539 391.945 222.035 390.555C221.456 388.984 220.94 387.734 220.462 386.738L220.156 386.073L219.809 385.382C218.612 383.057 217.07 380.926 215.234 379.061L215.171 379.024C214.465 378.323 213.718 377.664 212.934 377.05C211.724 376.079 210.442 375.202 209.099 374.425L209.058 374.4C208.627 374.141 208.095 373.943 207.611 373.717C208.904 375.688 210.338 377.564 211.902 379.33C216.836 387.308 218.936 396.714 217.862 406.03C217.183 413.432 214.801 420.577 210.902 426.908C207.002 433.239 201.691 438.584 195.382 442.527C184.321 449.021 171.206 451.084 158.682 448.301C137.889 444.198 126.959 428.935 125.728 430.242C129.652 438.708 135.651 446.049 143.171 451.585C143.884 452.087 144.61 452.579 145.364 453.059L145.816 453.33C149.124 455.405 152.662 457.09 156.359 458.351C157.546 458.747 158.716 459.075 159.89 459.38C160.268 459.478 160.645 459.546 161.023 459.631C161.833 459.829 162.579 459.979 163.354 460.101C163.795 460.176 164.207 460.231 164.655 460.303C165.355 460.409 166.053 460.502 166.72 460.614L168.024 460.734C168.7 460.786 169.367 460.823 170.026 460.857C170.443 460.876 170.86 460.892 171.268 460.896C171.95 460.906 172.623 460.896 173.293 460.884C173.646 460.871 174.017 460.871 174.362 460.855C175.198 460.817 176.015 460.758 176.813 460.678L177.321 460.641C178.303 460.551 179.228 460.406 180.148 460.271L180.952 460.122C181.588 460.01 182.217 459.894 182.823 459.766C183.151 459.704 183.468 459.623 183.787 459.555L185.345 459.178L186.298 458.922C186.781 458.784 187.253 458.65 187.711 458.506L188.577 458.243C189.039 458.092 189.488 457.934 189.921 457.786L190.652 457.528C191.129 457.357 191.59 457.16 192.021 457L192.505 456.816C193.091 456.583 193.632 456.349 194.141 456.125L194.55 455.942L195.578 455.469L195.955 455.288L196.591 454.974L197.278 454.634L197.866 454.307C204.397 450.887 210.222 446.267 215.038 440.689C215.385 440.284 215.73 439.879 216.065 439.446C216.151 439.303 216.31 439.148 216.401 439.025C216.895 438.392 217.345 437.733 217.781 437.12C218.003 436.751 218.276 436.404 218.495 436.071C218.998 435.305 219.492 434.52 219.963 433.705L220.184 433.336C220.681 432.509 221.108 431.633 221.535 430.737C221.661 430.5 221.773 430.257 221.87 430.008C222.265 429.147 222.645 428.268 222.999 427.356L223.137 427.003C223.568 425.867 223.955 424.702 224.317 423.491C224.769 421.905 225.133 420.296 225.41 418.67L225.348 418.624Z" fill="#9F122D"/>
<path d="M142.358 377.652C140.24 377.74 138.206 378.504 136.555 379.833C132.874 383.432 130.146 387.887 128.614 392.799C127.082 397.711 126.795 402.925 127.778 407.975C127.847 409.639 128.288 411.267 129.07 412.738C129.853 414.209 130.955 415.486 132.297 416.476C133.54 417.048 134.883 417.37 136.251 417.423C137.619 417.477 138.984 417.26 140.268 416.785C145.188 414.948 146.734 409.808 149.7 399.92C151.305 394.454 151.613 388.691 150.6 383.085C150.295 381.808 149.635 380.643 148.696 379.724C146.928 378.247 144.659 377.505 142.358 377.652Z" fill="#D9766A"/>
<path d="M168.855 384.188C169.116 381.409 170.348 378.812 172.335 376.85C173.344 375.884 174.528 375.117 175.824 374.592C177.482 375.373 178.853 376.653 179.744 378.252C180.461 379.612 180.387 380.665 180.92 383.941C181.276 386.134 181.564 387.978 181.767 389.309C182.619 387.785 183.261 386.154 183.678 384.46C184.517 381.943 184.567 379.231 183.822 376.685C183.254 375.097 182.316 373.667 181.087 372.512C182.556 371.997 184.074 371.633 185.617 371.429C188.637 371.109 191.689 371.307 194.642 372.015C197.343 372.514 199.998 373.237 202.578 374.177C201.745 373.453 200.853 372.8 199.911 372.224C196.998 370.553 193.748 369.556 190.399 369.306C186.982 368.864 183.519 368.916 180.117 369.461C180.779 368.659 181.517 367.921 182.319 367.257C184.061 365.849 186.059 364.791 188.203 364.14C190.505 363.431 192.925 363.189 195.322 363.425C194.457 362.993 193.549 362.651 192.613 362.405C190.39 361.858 188.071 361.821 185.831 362.298C183.303 362.94 180.907 364.021 178.754 365.493C177.519 366.212 176.535 366.875 175.866 367.338C175.909 366.231 175.948 364.805 175.992 363.156C176.246 361.074 176.136 358.964 175.667 356.919C175.104 355.38 174.129 354.024 172.848 353C173.431 355.222 173.637 357.526 173.458 359.816C173.278 362.105 172.71 364.348 171.778 366.448C170.646 365.101 169.379 363.874 167.996 362.785C165.945 361.195 163.682 359.899 161.273 358.932C159.249 358.046 157.145 357.353 154.989 356.865C157.539 358.644 159.676 359.992 161.197 360.912C163.578 362.12 165.734 363.727 167.57 365.663C168.313 366.528 168.96 367.47 169.499 368.474C166.697 368.059 163.834 368.435 161.236 369.561C159.164 370.46 157.333 371.834 155.892 373.572C154.452 375.31 153.441 377.363 152.944 379.564C154.819 377.237 157.131 375.298 159.751 373.857C161.145 373.053 162.664 372.488 164.246 372.185C165.337 372.012 166.441 371.925 167.547 371.925C168.711 371.886 169.876 371.917 171.036 372.017C169.785 373.08 168.823 374.441 168.238 375.973C167.78 377.313 167.599 378.732 167.705 380.144C167.811 381.555 168.202 382.931 168.855 384.188Z" fill="#267237"/>
<path d="M298.913 371.336C296.156 371.028 293.381 370.917 290.608 371.004C289.299 371.084 287.998 371.267 286.717 371.551C284.578 372.08 282.512 372.87 280.566 373.904C274.398 378.964 270.479 386.251 269.662 394.181C266.667 406.202 267.74 418.875 272.713 430.224C275.558 436.807 279.762 442.717 285.049 447.567C290.336 452.417 296.589 456.099 303.398 458.372C310.207 460.644 317.419 461.457 324.564 460.756C331.708 460.055 338.625 457.857 344.861 454.304C351.104 451.196 356.659 446.867 361.196 441.574C365.733 436.282 369.159 430.133 371.272 423.492C373.83 413.968 373.515 403.901 370.368 394.554C368.884 387.737 365.23 381.583 359.952 377.014C357.056 374.57 353.604 372.873 349.897 372.073C345.107 371.487 340.283 371.214 335.457 371.256C333.951 371.243 332.454 371.01 331.016 370.565C329.801 370.116 328.614 369.594 327.462 369.002C325.419 368.071 323.219 367.533 320.977 367.416C318.997 367.525 317.039 367.897 315.157 368.522C311.349 369.519 311 369.849 308.86 370.377C305.606 371.16 302.257 371.483 298.913 371.336Z" fill="#C80D25"/>
<path d="M372.348 418.624C372.603 417.134 372.783 415.631 372.886 414.123L372.896 413.981C372.991 412.557 373.021 411.181 372.987 409.854V409.731C372.96 408.508 372.871 407.339 372.769 406.208L372.706 405.574C372.58 404.568 372.454 403.563 372.301 402.626L372.159 401.826C372.018 401.053 371.867 400.313 371.708 399.621L371.539 398.88C371.43 398.425 371.327 398.026 371.21 397.614C370.918 396.555 370.641 395.544 370.35 394.559C369.968 393.289 369.539 391.945 369.035 390.555C368.456 388.984 367.94 387.734 367.462 386.738L367.156 386.073L366.809 385.382C365.612 383.057 364.07 380.926 362.234 379.061L362.171 379.024C361.465 378.323 360.718 377.664 359.934 377.05C358.724 376.079 357.442 375.202 356.099 374.425L356.058 374.4C355.627 374.141 355.095 373.943 354.611 373.717C355.904 375.688 357.338 377.564 358.902 379.33C363.836 387.308 365.936 396.714 364.862 406.03C364.183 413.432 361.801 420.577 357.902 426.908C354.002 433.239 348.691 438.584 342.382 442.527C331.321 449.021 318.206 451.084 305.682 448.301C284.889 444.198 273.959 428.935 272.728 430.242C276.652 438.708 282.651 446.049 290.171 451.585C290.884 452.087 291.61 452.579 292.364 453.059L292.816 453.33C296.124 455.405 299.662 457.09 303.359 458.351C304.546 458.747 305.716 459.075 306.89 459.38C307.268 459.478 307.645 459.546 308.023 459.631C308.833 459.829 309.579 459.979 310.354 460.101C310.795 460.176 311.207 460.231 311.655 460.303C312.355 460.409 313.053 460.502 313.72 460.614L315.024 460.734C315.7 460.786 316.367 460.823 317.026 460.857C317.443 460.876 317.86 460.892 318.268 460.896C318.95 460.906 319.623 460.896 320.293 460.884C320.646 460.871 321.017 460.871 321.362 460.855C322.198 460.817 323.015 460.758 323.813 460.678L324.321 460.641C325.303 460.551 326.228 460.406 327.148 460.271L327.952 460.122C328.588 460.01 329.217 459.894 329.823 459.766C330.151 459.704 330.468 459.623 330.787 459.555L332.345 459.178L333.298 458.922C333.781 458.784 334.253 458.65 334.711 458.506L335.577 458.243C336.039 458.092 336.488 457.934 336.921 457.786L337.652 457.528C338.129 457.357 338.59 457.16 339.021 457L339.505 456.816C340.091 456.583 340.632 456.349 341.141 456.125L341.55 455.942L342.578 455.469L342.955 455.288L343.591 454.974L344.278 454.634L344.866 454.307C351.397 450.887 357.222 446.267 362.038 440.689C362.385 440.284 362.73 439.879 363.065 439.446C363.151 439.303 363.31 439.148 363.401 439.025C363.895 438.392 364.345 437.733 364.781 437.12C365.003 436.751 365.276 436.404 365.495 436.071C365.998 435.305 366.492 434.52 366.963 433.705L367.184 433.336C367.681 432.509 368.108 431.633 368.535 430.737C368.661 430.5 368.773 430.257 368.87 430.008C369.265 429.147 369.645 428.268 369.999 427.356L370.137 427.003C370.568 425.867 370.955 424.702 371.317 423.491C371.769 421.905 372.133 420.296 372.41 418.67L372.348 418.624Z" fill="#9F122D"/>
<path d="M289.358 377.652C287.24 377.74 285.206 378.504 283.555 379.833C279.874 383.432 277.146 387.887 275.614 392.799C274.082 397.711 273.795 402.925 274.778 407.975C274.847 409.639 275.288 411.267 276.07 412.738C276.853 414.209 277.955 415.486 279.297 416.476C280.54 417.048 281.883 417.37 283.251 417.423C284.619 417.477 285.984 417.26 287.268 416.785C292.188 414.948 293.734 409.808 296.7 399.92C298.305 394.454 298.613 388.691 297.6 383.085C297.295 381.808 296.635 380.643 295.696 379.724C293.928 378.247 291.659 377.505 289.358 377.652Z" fill="#D9766A"/>
<path d="M315.855 384.188C316.116 381.409 317.348 378.812 319.335 376.85C320.344 375.884 321.528 375.117 322.824 374.592C324.482 375.373 325.853 376.653 326.744 378.252C327.461 379.612 327.387 380.665 327.92 383.941C328.276 386.134 328.564 387.978 328.767 389.309C329.619 387.785 330.261 386.154 330.678 384.46C331.517 381.943 331.567 379.231 330.822 376.685C330.254 375.097 329.316 373.667 328.087 372.512C329.556 371.997 331.074 371.633 332.617 371.429C335.637 371.109 338.689 371.307 341.642 372.015C344.343 372.514 346.998 373.237 349.578 374.177C348.745 373.453 347.853 372.8 346.911 372.224C343.998 370.553 340.748 369.556 337.399 369.306C333.982 368.864 330.519 368.916 327.117 369.461C327.779 368.659 328.517 367.921 329.319 367.257C331.061 365.849 333.059 364.791 335.203 364.14C337.505 363.431 339.925 363.189 342.322 363.425C341.457 362.993 340.549 362.651 339.613 362.405C337.39 361.858 335.071 361.821 332.831 362.298C330.303 362.94 327.907 364.021 325.754 365.493C324.519 366.212 323.535 366.875 322.866 367.338C322.909 366.231 322.948 364.805 322.992 363.156C323.246 361.074 323.136 358.964 322.667 356.919C322.104 355.38 321.129 354.024 319.848 353C320.431 355.222 320.637 357.526 320.458 359.816C320.278 362.105 319.71 364.348 318.778 366.448C317.646 365.101 316.379 363.874 314.996 362.785C312.945 361.195 310.682 359.899 308.273 358.932C306.249 358.046 304.145 357.353 301.989 356.865C304.539 358.644 306.676 359.992 308.197 360.912C310.578 362.12 312.734 363.727 314.57 365.663C315.313 366.528 315.96 367.47 316.499 368.474C313.697 368.059 310.834 368.435 308.236 369.561C306.164 370.46 304.333 371.834 302.892 373.572C301.452 375.31 300.441 377.363 299.944 379.564C301.819 377.237 304.131 375.298 306.751 373.857C308.145 373.053 309.664 372.488 311.246 372.185C312.337 372.012 313.441 371.925 314.547 371.925C315.711 371.886 316.876 371.917 318.036 372.017C316.785 373.08 315.823 374.441 315.238 375.973C314.78 377.313 314.599 378.732 314.705 380.144C314.811 381.555 315.202 382.931 315.855 384.188Z" fill="#267237"/>
<path d="M151.913 234.336C149.156 234.028 146.381 233.917 143.608 234.004C142.299 234.084 140.998 234.267 139.717 234.551C137.578 235.08 135.512 235.87 133.566 236.904C127.398 241.964 123.479 249.251 122.662 257.181C119.667 269.202 120.74 281.875 125.713 293.224C128.558 299.807 132.762 305.717 138.049 310.567C143.336 315.417 149.589 319.099 156.398 321.372C163.207 323.644 170.419 324.457 177.564 323.756C184.708 323.055 191.625 320.857 197.861 317.304C204.104 314.196 209.659 309.867 214.196 304.574C218.733 299.282 222.159 293.133 224.272 286.492C226.83 276.968 226.515 266.901 223.368 257.554C221.884 250.737 218.23 244.583 212.952 240.014C210.056 237.57 206.604 235.873 202.897 235.073C198.107 234.487 193.283 234.214 188.457 234.256C186.951 234.243 185.454 234.01 184.016 233.565C182.801 233.116 181.614 232.594 180.462 232.002C178.419 231.071 176.219 230.533 173.977 230.416C171.997 230.525 170.039 230.897 168.157 231.522C164.349 232.519 164 232.849 161.86 233.377C158.606 234.16 155.257 234.483 151.913 234.336Z" fill="#C80D25"/>
<path d="M225.348 281.624C225.603 280.134 225.783 278.631 225.886 277.123L225.896 276.981C225.991 275.557 226.021 274.181 225.987 272.854V272.731C225.96 271.508 225.871 270.339 225.769 269.208L225.706 268.574C225.58 267.568 225.454 266.563 225.301 265.626L225.159 264.826C225.018 264.053 224.867 263.313 224.708 262.621L224.539 261.88C224.43 261.425 224.327 261.026 224.21 260.614C223.918 259.555 223.641 258.544 223.35 257.559C222.968 256.289 222.539 254.945 222.035 253.555C221.456 251.984 220.94 250.734 220.462 249.738L220.156 249.073L219.809 248.382C218.612 246.057 217.07 243.926 215.234 242.061L215.171 242.024C214.465 241.323 213.718 240.664 212.934 240.05C211.724 239.079 210.442 238.202 209.099 237.425L209.058 237.4C208.627 237.141 208.095 236.943 207.611 236.717C208.904 238.688 210.338 240.564 211.902 242.33C216.836 250.308 218.936 259.714 217.862 269.03C217.183 276.432 214.801 283.577 210.902 289.908C207.002 296.239 201.691 301.584 195.382 305.527C184.321 312.021 171.206 314.084 158.682 311.301C137.889 307.198 126.959 291.935 125.728 293.242C129.652 301.708 135.651 309.049 143.171 314.585C143.884 315.087 144.61 315.579 145.364 316.059L145.816 316.33C149.124 318.405 152.662 320.09 156.359 321.351C157.546 321.747 158.716 322.075 159.89 322.38C160.268 322.478 160.645 322.546 161.023 322.631C161.833 322.829 162.579 322.979 163.354 323.101C163.795 323.176 164.207 323.231 164.655 323.303C165.355 323.409 166.053 323.502 166.72 323.614L168.024 323.734C168.7 323.786 169.367 323.823 170.026 323.857C170.443 323.876 170.86 323.892 171.268 323.896C171.95 323.906 172.623 323.896 173.293 323.884C173.646 323.871 174.017 323.871 174.362 323.855C175.198 323.817 176.015 323.758 176.813 323.678L177.321 323.641C178.303 323.551 179.228 323.406 180.148 323.271L180.952 323.122C181.588 323.01 182.217 322.894 182.823 322.766C183.151 322.704 183.468 322.623 183.787 322.555L185.345 322.178L186.298 321.922C186.781 321.784 187.253 321.65 187.711 321.506L188.577 321.243C189.039 321.092 189.488 320.934 189.921 320.786L190.652 320.528C191.129 320.357 191.59 320.16 192.021 320L192.505 319.816C193.091 319.583 193.632 319.349 194.141 319.125L194.55 318.942L195.578 318.469L195.955 318.288L196.591 317.974L197.278 317.634L197.866 317.307C204.397 313.887 210.222 309.267 215.038 303.689C215.385 303.284 215.73 302.879 216.065 302.446C216.151 302.303 216.31 302.148 216.401 302.025C216.895 301.392 217.345 300.733 217.781 300.12C218.003 299.751 218.276 299.404 218.495 299.071C218.998 298.305 219.492 297.52 219.963 296.705L220.184 296.336C220.681 295.509 221.108 294.633 221.535 293.737C221.661 293.5 221.773 293.257 221.87 293.008C222.265 292.147 222.645 291.268 222.999 290.356L223.137 290.003C223.568 288.867 223.955 287.702 224.317 286.491C224.769 284.905 225.133 283.296 225.41 281.67L225.348 281.624Z" fill="#9F122D"/>
<path d="M142.358 240.652C140.24 240.74 138.206 241.504 136.555 242.833C132.874 246.432 130.146 250.887 128.614 255.799C127.082 260.711 126.795 265.925 127.778 270.975C127.847 272.639 128.288 274.267 129.07 275.738C129.853 277.209 130.955 278.486 132.297 279.476C133.54 280.048 134.883 280.37 136.251 280.423C137.619 280.477 138.984 280.26 140.268 279.785C145.188 277.948 146.734 272.808 149.7 262.92C151.305 257.454 151.613 251.691 150.6 246.085C150.295 244.808 149.635 243.643 148.696 242.724C146.928 241.247 144.659 240.505 142.358 240.652Z" fill="#D9766A"/>
<path d="M168.855 247.188C169.116 244.409 170.348 241.812 172.335 239.85C173.344 238.884 174.528 238.117 175.824 237.592C177.482 238.373 178.853 239.653 179.744 241.252C180.461 242.612 180.387 243.665 180.92 246.941C181.276 249.134 181.564 250.978 181.767 252.309C182.619 250.785 183.261 249.154 183.678 247.46C184.517 244.943 184.567 242.231 183.822 239.685C183.254 238.097 182.316 236.667 181.087 235.512C182.556 234.997 184.074 234.633 185.617 234.429C188.637 234.109 191.689 234.307 194.642 235.015C197.343 235.514 199.998 236.237 202.578 237.177C201.745 236.453 200.853 235.8 199.911 235.224C196.998 233.553 193.748 232.556 190.399 232.306C186.982 231.864 183.519 231.916 180.117 232.461C180.779 231.659 181.517 230.921 182.319 230.257C184.061 228.849 186.059 227.791 188.203 227.14C190.505 226.431 192.925 226.189 195.322 226.425C194.457 225.993 193.549 225.651 192.613 225.405C190.39 224.858 188.071 224.821 185.831 225.298C183.303 225.94 180.907 227.021 178.754 228.493C177.519 229.212 176.535 229.875 175.866 230.338C175.909 229.231 175.948 227.805 175.992 226.156C176.246 224.074 176.136 221.964 175.667 219.919C175.104 218.38 174.129 217.024 172.848 216C173.431 218.222 173.637 220.526 173.458 222.816C173.278 225.105 172.71 227.348 171.778 229.448C170.646 228.101 169.379 226.874 167.996 225.785C165.945 224.195 163.682 222.899 161.273 221.932C159.249 221.046 157.145 220.353 154.989 219.865C157.539 221.644 159.676 222.992 161.197 223.912C163.578 225.12 165.734 226.727 167.57 228.663C168.313 229.528 168.96 230.47 169.499 231.474C166.697 231.059 163.834 231.435 161.236 232.561C159.164 233.46 157.333 234.834 155.892 236.572C154.452 238.31 153.441 240.363 152.944 242.564C154.819 240.237 157.131 238.298 159.751 236.857C161.145 236.053 162.664 235.488 164.246 235.185C165.337 235.012 166.441 234.925 167.547 234.925C168.711 234.886 169.876 234.917 171.036 235.017C169.785 236.08 168.823 237.441 168.238 238.973C167.78 240.313 167.599 241.732 167.705 243.144C167.811 244.555 168.202 245.931 168.855 247.188Z" fill="#267237"/>
<path d="M298.913 234.336C296.156 234.028 293.381 233.917 290.608 234.004C289.299 234.084 287.998 234.267 286.717 234.551C284.578 235.08 282.512 235.87 280.566 236.904C274.398 241.964 270.479 249.251 269.662 257.181C266.667 269.202 267.74 281.875 272.713 293.224C275.558 299.807 279.762 305.717 285.049 310.567C290.336 315.417 296.589 319.099 303.398 321.372C310.207 323.644 317.419 324.457 324.564 323.756C331.708 323.055 338.625 320.857 344.861 317.304C351.104 314.196 356.659 309.867 361.196 304.574C365.733 299.282 369.159 293.133 371.272 286.492C373.83 276.968 373.515 266.901 370.368 257.554C368.884 250.737 365.23 244.583 359.952 240.014C357.056 237.57 353.604 235.873 349.897 235.073C345.107 234.487 340.283 234.214 335.457 234.256C333.951 234.243 332.454 234.01 331.016 233.565C329.801 233.116 328.614 232.594 327.462 232.002C325.419 231.071 323.219 230.533 320.977 230.416C318.997 230.525 317.039 230.897 315.157 231.522C311.349 232.519 311 232.849 308.86 233.377C305.606 234.16 302.257 234.483 298.913 234.336Z" fill="#C80D25"/>
<path d="M372.348 281.624C372.603 280.134 372.783 278.631 372.886 277.123L372.896 276.981C372.991 275.557 373.021 274.181 372.987 272.854V272.731C372.96 271.508 372.871 270.339 372.769 269.208L372.706 268.574C372.58 267.568 372.454 266.563 372.301 265.626L372.159 264.826C372.018 264.053 371.867 263.313 371.708 262.621L371.539 261.88C371.43 261.425 371.327 261.026 371.21 260.614C370.918 259.555 370.641 258.544 370.35 257.559C369.968 256.289 369.539 254.945 369.035 253.555C368.456 251.984 367.94 250.734 367.462 249.738L367.156 249.073L366.809 248.382C365.612 246.057 364.07 243.926 362.234 242.061L362.171 242.024C361.465 241.323 360.718 240.664 359.934 240.05C358.724 239.079 357.442 238.202 356.099 237.425L356.058 237.4C355.627 237.141 355.095 236.943 354.611 236.717C355.904 238.688 357.338 240.564 358.902 242.33C363.836 250.308 365.936 259.714 364.862 269.03C364.183 276.432 361.801 283.577 357.902 289.908C354.002 296.239 348.691 301.584 342.382 305.527C331.321 312.021 318.206 314.084 305.682 311.301C284.889 307.198 273.959 291.935 272.728 293.242C276.652 301.708 282.651 309.049 290.171 314.585C290.884 315.087 291.61 315.579 292.364 316.059L292.816 316.33C296.124 318.405 299.662 320.09 303.359 321.351C304.546 321.747 305.716 322.075 306.89 322.38C307.268 322.478 307.645 322.546 308.023 322.631C308.833 322.829 309.579 322.979 310.354 323.101C310.795 323.176 311.207 323.231 311.655 323.303C312.355 323.409 313.053 323.502 313.72 323.614L315.024 323.734C315.7 323.786 316.367 323.823 317.026 323.857C317.443 323.876 317.86 323.892 318.268 323.896C318.95 323.906 319.623 323.896 320.293 323.884C320.646 323.871 321.017 323.871 321.362 323.855C322.198 323.817 323.015 323.758 323.813 323.678L324.321 323.641C325.303 323.551 326.228 323.406 327.148 323.271L327.952 323.122C328.588 323.01 329.217 322.894 329.823 322.766C330.151 322.704 330.468 322.623 330.787 322.555L332.345 322.178L333.298 321.922C333.781 321.784 334.253 321.65 334.711 321.506L335.577 321.243C336.039 321.092 336.488 320.934 336.921 320.786L337.652 320.528C338.129 320.357 338.59 320.16 339.021 320L339.505 319.816C340.091 319.583 340.632 319.349 341.141 319.125L341.55 318.942L342.578 318.469L342.955 318.288L343.591 317.974L344.278 317.634L344.866 317.307C351.397 313.887 357.222 309.267 362.038 303.689C362.385 303.284 362.73 302.879 363.065 302.446C363.151 302.303 363.31 302.148 363.401 302.025C363.895 301.392 364.345 300.733 364.781 300.12C365.003 299.751 365.276 299.404 365.495 299.071C365.998 298.305 366.492 297.52 366.963 296.705L367.184 296.336C367.681 295.509 368.108 294.633 368.535 293.737C368.661 293.5 368.773 293.257 368.87 293.008C369.265 292.147 369.645 291.268 369.999 290.356L370.137 290.003C370.568 288.867 370.955 287.702 371.317 286.491C371.769 284.905 372.133 283.296 372.41 281.67L372.348 281.624Z" fill="#9F122D"/>
<path d="M289.358 240.652C287.24 240.74 285.206 241.504 283.555 242.833C279.874 246.432 277.146 250.887 275.614 255.799C274.082 260.711 273.795 265.925 274.778 270.975C274.847 272.639 275.288 274.267 276.07 275.738C276.853 277.209 277.955 278.486 279.297 279.476C280.54 280.048 281.883 280.37 283.251 280.423C284.619 280.477 285.984 280.26 287.268 279.785C292.188 277.948 293.734 272.808 296.7 262.92C298.305 257.454 298.613 251.691 297.6 246.085C297.295 244.808 296.635 243.643 295.696 242.724C293.928 241.247 291.659 240.505 289.358 240.652Z" fill="#D9766A"/>
<path d="M315.855 247.188C316.116 244.409 317.348 241.812 319.335 239.85C320.344 238.884 321.528 238.117 322.824 237.592C324.482 238.373 325.853 239.653 326.744 241.252C327.461 242.612 327.387 243.665 327.92 246.941C328.276 249.134 328.564 250.978 328.767 252.309C329.619 250.785 330.261 249.154 330.678 247.46C331.517 244.943 331.567 242.231 330.822 239.685C330.254 238.097 329.316 236.667 328.087 235.512C329.556 234.997 331.074 234.633 332.617 234.429C335.637 234.109 338.689 234.307 341.642 235.015C344.343 235.514 346.998 236.237 349.578 237.177C348.745 236.453 347.853 235.8 346.911 235.224C343.998 233.553 340.748 232.556 337.399 232.306C333.982 231.864 330.519 231.916 327.117 232.461C327.779 231.659 328.517 230.921 329.319 230.257C331.061 228.849 333.059 227.791 335.203 227.14C337.505 226.431 339.925 226.189 342.322 226.425C341.457 225.993 340.549 225.651 339.613 225.405C337.39 224.858 335.071 224.821 332.831 225.298C330.303 225.94 327.907 227.021 325.754 228.493C324.519 229.212 323.535 229.875 322.866 230.338C322.909 229.231 322.948 227.805 322.992 226.156C323.246 224.074 323.136 221.964 322.667 219.919C322.104 218.38 321.129 217.024 319.848 216C320.431 218.222 320.637 220.526 320.458 222.816C320.278 225.105 319.71 227.348 318.778 229.448C317.646 228.101 316.379 226.874 314.996 225.785C312.945 224.195 310.682 222.899 308.273 221.932C306.249 221.046 304.145 220.353 301.989 219.865C304.539 221.644 306.676 222.992 308.197 223.912C310.578 225.12 312.734 226.727 314.57 228.663C315.313 229.528 315.96 230.47 316.499 231.474C313.697 231.059 310.834 231.435 308.236 232.561C306.164 233.46 304.333 234.834 302.892 236.572C301.452 238.31 300.441 240.363 299.944 242.564C301.819 240.237 304.131 238.298 306.751 236.857C308.145 236.053 309.664 235.488 311.246 235.185C312.337 235.012 313.441 234.925 314.547 234.925C315.711 234.886 316.876 234.917 318.036 235.017C316.785 236.08 315.823 237.441 315.238 238.973C314.78 240.313 314.599 241.732 314.705 243.144C314.811 244.555 315.202 245.931 315.855 247.188Z" fill="#267237"/>
<path d="M151.913 97.3362C149.156 97.0281 146.381 96.917 143.608 97.0038C142.299 97.0835 140.998 97.2665 139.717 97.5511C137.578 98.08 135.512 98.8704 133.566 99.9045C127.398 104.964 123.479 112.251 122.662 120.181C119.667 132.202 120.74 144.875 125.713 156.224C128.558 162.807 132.762 168.717 138.049 173.567C143.336 178.417 149.589 182.099 156.398 184.372C163.207 186.644 170.419 187.457 177.564 186.756C184.708 186.055 191.625 183.857 197.861 180.304C204.104 177.196 209.659 172.867 214.196 167.574C218.733 162.282 222.159 156.133 224.272 149.492C226.83 139.968 226.515 129.901 223.368 120.554C221.884 113.737 218.23 107.583 212.952 103.014C210.056 100.57 206.604 98.8725 202.897 98.0727C198.107 97.4874 193.283 97.2145 188.457 97.2557C186.951 97.2434 185.454 97.0105 184.016 96.5645C182.801 96.1155 181.614 95.5936 180.462 95.0017C178.419 94.0711 176.219 93.5333 173.977 93.4162C171.997 93.5255 170.039 93.8972 168.157 94.5216C164.349 95.5188 164 95.8488 161.86 96.3766C158.606 97.1603 155.257 97.4833 151.913 97.3362Z" fill="#C80D25"/>
<path d="M225.348 144.624C225.603 143.134 225.783 141.631 225.886 140.123L225.896 139.981C225.991 138.557 226.021 137.181 225.987 135.854V135.731C225.96 134.508 225.871 133.339 225.769 132.208L225.706 131.574C225.58 130.568 225.454 129.563 225.301 128.626L225.159 127.826C225.018 127.053 224.867 126.313 224.708 125.621L224.539 124.88C224.43 124.425 224.327 124.026 224.21 123.614C223.918 122.555 223.641 121.544 223.35 120.559C222.968 119.289 222.539 117.945 222.035 116.555C221.456 114.984 220.94 113.734 220.462 112.738L220.156 112.073L219.809 111.382C218.612 109.057 217.07 106.926 215.234 105.061L215.171 105.024C214.465 104.323 213.718 103.664 212.934 103.05C211.724 102.079 210.442 101.202 209.099 100.425L209.058 100.4C208.627 100.141 208.095 99.9428 207.611 99.7166C208.904 101.688 210.338 103.564 211.902 105.33C216.836 113.308 218.936 122.714 217.862 132.03C217.183 139.432 214.801 146.577 210.902 152.908C207.002 159.239 201.691 164.584 195.382 168.527C184.321 175.021 171.206 177.084 158.682 174.301C137.889 170.198 126.959 154.935 125.728 156.242C129.652 164.708 135.651 172.049 143.171 177.585C143.884 178.087 144.61 178.579 145.364 179.059L145.816 179.33C149.124 181.405 152.662 183.09 156.359 184.351C157.546 184.747 158.716 185.075 159.89 185.38C160.268 185.478 160.645 185.546 161.023 185.631C161.833 185.829 162.579 185.979 163.354 186.101C163.795 186.176 164.207 186.231 164.655 186.303C165.355 186.409 166.053 186.502 166.72 186.614L168.024 186.734C168.7 186.786 169.367 186.823 170.026 186.857C170.443 186.876 170.86 186.892 171.268 186.896C171.95 186.906 172.623 186.896 173.293 186.884C173.646 186.871 174.017 186.871 174.362 186.855C175.198 186.817 176.015 186.758 176.813 186.678L177.321 186.641C178.303 186.551 179.228 186.406 180.148 186.271L180.952 186.122C181.588 186.01 182.217 185.894 182.823 185.766C183.151 185.704 183.468 185.623 183.787 185.555L185.345 185.178L186.298 184.922C186.781 184.784 187.253 184.65 187.711 184.506L188.577 184.243C189.039 184.092 189.488 183.934 189.921 183.786L190.652 183.528C191.129 183.357 191.59 183.16 192.021 183L192.505 182.816C193.091 182.583 193.632 182.349 194.141 182.125L194.55 181.942L195.578 181.469L195.955 181.288L196.591 180.974L197.278 180.634L197.866 180.307C204.397 176.887 210.222 172.267 215.038 166.689C215.385 166.284 215.73 165.879 216.065 165.446C216.151 165.303 216.31 165.148 216.401 165.025C216.895 164.392 217.345 163.733 217.781 163.12C218.003 162.751 218.276 162.404 218.495 162.071C218.998 161.305 219.492 160.52 219.963 159.705L220.184 159.336C220.681 158.509 221.108 157.633 221.535 156.737C221.661 156.5 221.773 156.257 221.87 156.008C222.265 155.147 222.645 154.268 222.999 153.356L223.137 153.003C223.568 151.867 223.955 150.702 224.317 149.491C224.769 147.905 225.133 146.296 225.41 144.67L225.348 144.624Z" fill="#9F122D"/>
<path d="M142.358 103.652C140.24 103.74 138.206 104.504 136.555 105.833C132.874 109.432 130.146 113.887 128.614 118.799C127.082 123.711 126.795 128.925 127.778 133.975C127.847 135.639 128.288 137.267 129.07 138.738C129.853 140.209 130.955 141.486 132.297 142.476C133.54 143.048 134.883 143.37 136.251 143.423C137.619 143.477 138.984 143.26 140.268 142.785C145.188 140.948 146.734 135.808 149.7 125.92C151.305 120.454 151.613 114.691 150.6 109.085C150.295 107.808 149.635 106.643 148.696 105.724C146.928 104.247 144.659 103.505 142.358 103.652Z" fill="#D9766A"/>
<path d="M168.855 110.188C169.116 107.409 170.348 104.812 172.335 102.85C173.344 101.884 174.528 101.117 175.824 100.592C177.482 101.373 178.853 102.653 179.744 104.252C180.461 105.612 180.387 106.665 180.92 109.941C181.276 112.134 181.564 113.978 181.767 115.309C182.619 113.785 183.261 112.154 183.678 110.46C184.517 107.943 184.567 105.231 183.822 102.685C183.254 101.097 182.316 99.6674 181.087 98.5119C182.556 97.9965 184.074 97.6335 185.617 97.4286C188.637 97.1085 191.689 97.3068 194.642 98.0149C197.343 98.5138 199.998 99.2371 202.578 100.177C201.745 99.453 200.853 98.7997 199.911 98.2241C196.998 96.5529 193.748 95.5557 190.399 95.3058C186.982 94.864 183.519 94.9163 180.117 95.461C180.779 94.6586 181.517 93.9207 182.319 93.2572C184.061 91.8492 186.059 90.7906 188.203 90.1397C190.505 89.4314 192.925 89.1885 195.322 89.4252C194.457 88.9931 193.549 88.6513 192.613 88.4053C190.39 87.8578 188.071 87.8211 185.831 88.2979C183.303 88.9398 180.907 90.0212 178.754 91.4927C177.519 92.2122 176.535 92.8752 175.866 93.3383C175.909 92.231 175.948 90.8052 175.992 89.1556C176.246 87.0738 176.136 84.9636 175.667 82.9194C175.104 81.3798 174.129 80.0241 172.848 79C173.431 81.2219 173.637 83.5257 173.458 85.8157C173.278 88.1055 172.71 90.3481 171.778 92.4478C170.646 91.101 169.379 89.8736 167.996 88.7849C165.945 87.1954 163.682 85.8987 161.273 84.9321C159.249 84.0455 157.145 83.3532 154.989 82.8647C157.539 84.6437 159.676 85.9916 161.197 86.9122C163.578 88.1196 165.734 89.7265 167.57 91.663C168.313 92.5275 168.96 93.4702 169.499 94.4744C166.697 94.0589 163.834 94.4353 161.236 95.561C159.164 96.4601 157.333 97.8344 155.892 99.5723C154.452 101.31 153.441 103.363 152.944 105.564C154.819 103.237 157.131 101.298 159.751 99.8567C161.145 99.0532 162.664 98.488 164.246 98.1845C165.337 98.0117 166.441 97.9249 167.547 97.925C168.711 97.8861 169.876 97.9169 171.036 98.0174C169.785 99.0802 168.823 100.441 168.238 101.973C167.78 103.313 167.599 104.732 167.705 106.144C167.811 107.555 168.202 108.931 168.855 110.188Z" fill="#267237"/>
<path d="M298.913 97.3362C296.156 97.0281 293.381 96.917 290.608 97.0038C289.299 97.0835 287.998 97.2665 286.717 97.5511C284.578 98.08 282.512 98.8704 280.566 99.9045C274.398 104.964 270.479 112.251 269.662 120.181C266.667 132.202 267.74 144.875 272.713 156.224C275.558 162.807 279.762 168.717 285.049 173.567C290.336 178.417 296.589 182.099 303.398 184.372C310.207 186.644 317.419 187.457 324.564 186.756C331.708 186.055 338.625 183.857 344.861 180.304C351.104 177.196 356.659 172.867 361.196 167.574C365.733 162.282 369.159 156.133 371.272 149.492C373.83 139.968 373.515 129.901 370.368 120.554C368.884 113.737 365.23 107.583 359.952 103.014C357.056 100.57 353.604 98.8725 349.897 98.0727C345.107 97.4874 340.283 97.2145 335.457 97.2557C333.951 97.2434 332.454 97.0105 331.016 96.5645C329.801 96.1155 328.614 95.5936 327.462 95.0017C325.419 94.0711 323.219 93.5333 320.977 93.4162C318.997 93.5255 317.039 93.8972 315.157 94.5216C311.349 95.5188 311 95.8488 308.86 96.3766C305.606 97.1603 302.257 97.4833 298.913 97.3362Z" fill="#C80D25"/>
<path d="M372.348 144.624C372.603 143.134 372.783 141.631 372.886 140.123L372.896 139.981C372.991 138.557 373.021 137.181 372.987 135.854V135.731C372.96 134.508 372.871 133.339 372.769 132.208L372.706 131.574C372.58 130.568 372.454 129.563 372.301 128.626L372.159 127.826C372.018 127.053 371.867 126.313 371.708 125.621L371.539 124.88C371.43 124.425 371.327 124.026 371.21 123.614C370.918 122.555 370.641 121.544 370.35 120.559C369.968 119.289 369.539 117.945 369.035 116.555C368.456 114.984 367.94 113.734 367.462 112.738L367.156 112.073L366.809 111.382C365.612 109.057 364.07 106.926 362.234 105.061L362.171 105.024C361.465 104.323 360.718 103.664 359.934 103.05C358.724 102.079 357.442 101.202 356.099 100.425L356.058 100.4C355.627 100.141 355.095 99.9428 354.611 99.7166C355.904 101.688 357.338 103.564 358.902 105.33C363.836 113.308 365.936 122.714 364.862 132.03C364.183 139.432 361.801 146.577 357.902 152.908C354.002 159.239 348.691 164.584 342.382 168.527C331.321 175.021 318.206 177.084 305.682 174.301C284.889 170.198 273.959 154.935 272.728 156.242C276.652 164.708 282.651 172.049 290.171 177.585C290.884 178.087 291.61 178.579 292.364 179.059L292.816 179.33C296.124 181.405 299.662 183.09 303.359 184.351C304.546 184.747 305.716 185.075 306.89 185.38C307.268 185.478 307.645 185.546 308.023 185.631C308.833 185.829 309.579 185.979 310.354 186.101C310.795 186.176 311.207 186.231 311.655 186.303C312.355 186.409 313.053 186.502 313.72 186.614L315.024 186.734C315.7 186.786 316.367 186.823 317.026 186.857C317.443 186.876 317.86 186.892 318.268 186.896C318.95 186.906 319.623 186.896 320.293 186.884C320.646 186.871 321.017 186.871 321.362 186.855C322.198 186.817 323.015 186.758 323.813 186.678L324.321 186.641C325.303 186.551 326.228 186.406 327.148 186.271L327.952 186.122C328.588 186.01 329.217 185.894 329.823 185.766C330.151 185.704 330.468 185.623 330.787 185.555L332.345 185.178L333.298 184.922C333.781 184.784 334.253 184.65 334.711 184.506L335.577 184.243C336.039 184.092 336.488 183.934 336.921 183.786L337.652 183.528C338.129 183.357 338.59 183.16 339.021 183L339.505 182.816C340.091 182.583 340.632 182.349 341.141 182.125L341.55 181.942L342.578 181.469L342.955 181.288L343.591 180.974L344.278 180.634L344.866 180.307C351.397 176.887 357.222 172.267 362.038 166.689C362.385 166.284 362.73 165.879 363.065 165.446C363.151 165.303 363.31 165.148 363.401 165.025C363.895 164.392 364.345 163.733 364.781 163.12C365.003 162.751 365.276 162.404 365.495 162.071C365.998 161.305 366.492 160.52 366.963 159.705L367.184 159.336C367.681 158.509 368.108 157.633 368.535 156.737C368.661 156.5 368.773 156.257 368.87 156.008C369.265 155.147 369.645 154.268 369.999 153.356L370.137 153.003C370.568 151.867 370.955 150.702 371.317 149.491C371.769 147.905 372.133 146.296 372.41 144.67L372.348 144.624Z" fill="#9F122D"/>
<path d="M289.358 103.652C287.24 103.74 285.206 104.504 283.555 105.833C279.874 109.432 277.146 113.887 275.614 118.799C274.082 123.711 273.795 128.925 274.778 133.975C274.847 135.639 275.288 137.267 276.07 138.738C276.853 140.209 277.955 141.486 279.297 142.476C280.54 143.048 281.883 143.37 283.251 143.423C284.619 143.477 285.984 143.26 287.268 142.785C292.188 140.948 293.734 135.808 296.7 125.92C298.305 120.454 298.613 114.691 297.6 109.085C297.295 107.808 296.635 106.643 295.696 105.724C293.928 104.247 291.659 103.505 289.358 103.652Z" fill="#D9766A"/>
<path d="M315.855 110.188C316.116 107.409 317.348 104.812 319.335 102.85C320.344 101.884 321.528 101.117 322.824 100.592C324.482 101.373 325.853 102.653 326.744 104.252C327.461 105.612 327.387 106.665 327.92 109.941C328.276 112.134 328.564 113.978 328.767 115.309C329.619 113.785 330.261 112.154 330.678 110.46C331.517 107.943 331.567 105.231 330.822 102.685C330.254 101.097 329.316 99.6674 328.087 98.5119C329.556 97.9965 331.074 97.6335 332.617 97.4286C335.637 97.1085 338.689 97.3068 341.642 98.0149C344.343 98.5138 346.998 99.2371 349.578 100.177C348.745 99.453 347.853 98.7997 346.911 98.2241C343.998 96.5529 340.748 95.5557 337.399 95.3058C333.982 94.864 330.519 94.9163 327.117 95.461C327.779 94.6586 328.517 93.9207 329.319 93.2572C331.061 91.8492 333.059 90.7906 335.203 90.1397C337.505 89.4314 339.925 89.1885 342.322 89.4252C341.457 88.9931 340.549 88.6513 339.613 88.4053C337.39 87.8578 335.071 87.8211 332.831 88.2979C330.303 88.9398 327.907 90.0212 325.754 91.4927C324.519 92.2122 323.535 92.8752 322.866 93.3383C322.909 92.231 322.948 90.8052 322.992 89.1556C323.246 87.0738 323.136 84.9636 322.667 82.9194C322.104 81.3798 321.129 80.0241 319.848 79C320.431 81.2219 320.637 83.5257 320.458 85.8157C320.278 88.1055 319.71 90.3481 318.778 92.4478C317.646 91.101 316.379 89.8736 314.996 88.7849C312.945 87.1954 310.682 85.8987 308.273 84.9321C306.249 84.0455 304.145 83.3532 301.989 82.8647C304.539 84.6437 306.676 85.9916 308.197 86.9122C310.578 88.1196 312.734 89.7265 314.57 91.663C315.313 92.5275 315.96 93.4702 316.499 94.4744C313.697 94.0589 310.834 94.4353 308.236 95.561C306.164 96.4601 304.333 97.8344 302.892 99.5723C301.452 101.31 300.441 103.363 299.944 105.564C301.819 103.237 304.131 101.298 306.751 99.8567C308.145 99.0532 309.664 98.488 311.246 98.1845C312.337 98.0117 313.441 97.9249 314.547 97.925C315.711 97.8861 316.876 97.9169 318.036 98.0174C316.785 99.0802 315.823 100.441 315.238 101.973C314.78 103.313 314.599 104.732 314.705 106.144C314.811 107.555 315.202 108.931 315.855 110.188Z" fill="#267237"/>
<path d="M732.806 214.088C732.603 210.913 732.421 206.377 732.541 200.623C731.953 200.07 731.366 199.517 730.777 198.965C727.02 198.948 723.709 198.952 720.945 198.965C719.279 198.972 718.381 198.98 716.036 198.994C712.607 199.015 709.568 199.027 707 199.036C704.431 199.027 701.393 199.015 697.964 198.994C695.619 198.98 694.722 198.972 693.055 198.965C690.291 198.952 686.98 198.948 683.223 198.965C682.635 199.517 682.047 200.07 681.459 200.623C681.578 206.377 681.397 210.911 681.194 214.088C681.038 216.537 680.798 219.32 681.313 223.141C681.577 225.071 681.99 226.977 682.548 228.843C684.16 234.037 686.799 238.854 690.308 243.009C692.633 245.863 695.253 249.032 699.832 251.66C702.081 252.948 704.491 253.934 706.999 254.591H707.004C709.511 253.934 711.922 252.948 714.171 251.66C718.749 249.034 721.37 245.864 723.695 243.009C727.203 238.854 729.842 234.037 731.455 228.843C732.013 226.977 732.425 225.071 732.689 223.141C733.201 219.32 732.962 216.537 732.806 214.088Z" fill="#838382"/>
<path d="M712.397 126.98H701.403V189.059H712.397V126.98Z" fill="#67461B"/>
<path d="M711.793 224.124C711.392 225.109 710.892 226.051 710.299 226.935C709.293 228.409 708.219 229.983 706.827 229.958C705.512 229.936 704.547 228.495 703.549 227.006C702.784 225.83 702.169 224.564 701.717 223.236C700.807 220.725 700.189 217.953 699.765 214.021C699.442 210.937 699.297 207.837 699.331 204.736C699.341 197.627 699.37 191.875 699.403 187.588L714.469 187.516C714.35 194.892 714.376 200.686 714.42 204.629C714.504 207.871 714.383 211.115 714.059 214.342C713.738 217.38 713.172 220.816 711.793 224.124Z" fill="#606060"/>
<path d="M722.42 112.222L720.665 110.144L693.345 110L691.537 111.808C691.518 112.861 691.5 114.406 691.513 116.28C691.542 120.585 691.7 121.241 691.821 121.659C692.438 123.759 693.723 125.6 695.481 126.904C695.961 127.248 696.997 127.915 699.846 128.58C705.82 129.975 710.545 129.208 714.44 128.536C715.563 128.388 716.652 128.045 717.658 127.523C719.476 126.508 720.915 124.93 721.759 123.026C722.322 121.707 722.377 120.189 722.464 117.206C722.525 115.107 722.475 113.382 722.42 112.222ZM716.732 120.397L714.498 122.836L699.037 122.866C698.438 122.169 697.838 121.472 697.238 120.775L697.04 115.076H716.761C716.752 116.849 716.742 118.623 716.732 120.397Z" fill="#606060"/>
<path d="M614.806 214.088C614.603 210.913 614.421 206.377 614.541 200.623C613.953 200.07 613.366 199.517 612.777 198.965C609.02 198.948 605.709 198.952 602.945 198.965C601.279 198.972 600.381 198.98 598.036 198.994C594.607 199.015 591.568 199.027 589 199.036C586.431 199.027 583.393 199.015 579.964 198.994C577.619 198.98 576.722 198.972 575.055 198.965C572.291 198.952 568.98 198.948 565.223 198.965C564.635 199.517 564.047 200.07 563.459 200.623C563.578 206.377 563.397 210.911 563.194 214.088C563.038 216.537 562.798 219.32 563.313 223.141C563.577 225.071 563.99 226.977 564.548 228.843C566.16 234.037 568.799 238.854 572.308 243.009C574.633 245.863 577.253 249.032 581.832 251.66C584.081 252.948 586.491 253.934 588.999 254.591H589.004C591.511 253.934 593.922 252.948 596.171 251.66C600.749 249.034 603.37 245.864 605.695 243.009C609.203 238.854 611.842 234.037 613.455 228.843C614.013 226.977 614.425 225.071 614.689 223.141C615.201 219.32 614.962 216.537 614.806 214.088Z" fill="#838382"/>
<path d="M594.397 126.98H583.403V189.059H594.397V126.98Z" fill="#67461B"/>
<path d="M593.793 224.124C593.392 225.109 592.892 226.051 592.299 226.935C591.293 228.409 590.219 229.983 588.827 229.958C587.512 229.936 586.547 228.495 585.549 227.006C584.784 225.83 584.169 224.564 583.717 223.236C582.807 220.725 582.189 217.953 581.765 214.021C581.442 210.937 581.297 207.837 581.331 204.736C581.341 197.627 581.37 191.875 581.403 187.588L596.469 187.516C596.35 194.892 596.376 200.686 596.42 204.629C596.504 207.871 596.383 211.115 596.059 214.342C595.738 217.38 595.172 220.816 593.793 224.124Z" fill="#606060"/>
<path d="M604.42 112.222L602.665 110.144L575.345 110L573.537 111.808C573.518 112.861 573.5 114.406 573.513 116.28C573.542 120.585 573.7 121.241 573.821 121.659C574.438 123.759 575.723 125.6 577.481 126.904C577.961 127.248 578.997 127.915 581.846 128.58C587.82 129.975 592.545 129.208 596.44 128.536C597.563 128.388 598.652 128.045 599.658 127.523C601.476 126.508 602.915 124.93 603.759 123.026C604.322 121.707 604.377 120.189 604.464 117.206C604.525 115.107 604.475 113.382 604.42 112.222ZM598.732 120.397L596.498 122.836L581.037 122.866C580.438 122.169 579.838 121.472 579.238 120.775L579.04 115.076H598.761C598.752 116.849 598.742 118.623 598.732 120.397Z" fill="#606060"/>
<path d="M732.806 389.088C732.603 385.913 732.421 381.377 732.541 375.623C731.953 375.07 731.366 374.517 730.777 373.965C727.02 373.948 723.709 373.952 720.945 373.965C719.279 373.972 718.381 373.98 716.036 373.994C712.607 374.015 709.568 374.027 707 374.036C704.431 374.027 701.393 374.015 697.964 373.994C695.619 373.98 694.722 373.972 693.055 373.965C690.291 373.952 686.98 373.948 683.223 373.965C682.635 374.517 682.047 375.07 681.459 375.623C681.578 381.377 681.397 385.911 681.194 389.088C681.038 391.537 680.798 394.32 681.313 398.141C681.577 400.071 681.99 401.977 682.548 403.843C684.16 409.037 686.799 413.854 690.308 418.009C692.633 420.863 695.253 424.032 699.832 426.66C702.081 427.948 704.491 428.934 706.999 429.591H707.004C709.511 428.934 711.922 427.948 714.171 426.66C718.749 424.034 721.37 420.864 723.695 418.009C727.203 413.854 729.842 409.037 731.455 403.843C732.013 401.977 732.425 400.071 732.689 398.141C733.201 394.32 732.962 391.537 732.806 389.088Z" fill="#838382"/>
<path d="M712.397 301.98H701.403V364.059H712.397V301.98Z" fill="#67461B"/>
<path d="M711.793 399.124C711.392 400.109 710.892 401.051 710.299 401.935C709.293 403.409 708.219 404.983 706.827 404.958C705.512 404.936 704.547 403.495 703.549 402.006C702.784 400.83 702.169 399.564 701.717 398.236C700.807 395.725 700.189 392.953 699.765 389.021C699.442 385.937 699.297 382.837 699.331 379.736C699.341 372.627 699.37 366.875 699.403 362.588L714.469 362.516C714.35 369.892 714.376 375.686 714.42 379.629C714.504 382.871 714.383 386.115 714.059 389.342C713.738 392.38 713.172 395.816 711.793 399.124Z" fill="#606060"/>
<path d="M722.42 287.222L720.665 285.144L693.345 285L691.537 286.808C691.518 287.861 691.5 289.406 691.513 291.28C691.542 295.585 691.7 296.241 691.821 296.659C692.438 298.759 693.723 300.6 695.481 301.904C695.961 302.248 696.997 302.915 699.846 303.58C705.82 304.975 710.545 304.208 714.44 303.536C715.563 303.388 716.652 303.045 717.658 302.523C719.476 301.508 720.915 299.93 721.759 298.026C722.322 296.707 722.377 295.189 722.464 292.206C722.525 290.107 722.475 288.382 722.42 287.222ZM716.732 295.397L714.498 297.836L699.037 297.866C698.438 297.169 697.838 296.472 697.238 295.775L697.04 290.076H716.761C716.752 291.849 716.742 293.623 716.732 295.397Z" fill="#606060"/>
<path d="M614.806 389.088C614.603 385.913 614.421 381.377 614.541 375.623C613.953 375.07 613.366 374.517 612.777 373.965C609.02 373.948 605.709 373.952 602.945 373.965C601.279 373.972 600.381 373.98 598.036 373.994C594.607 374.015 591.568 374.027 589 374.036C586.431 374.027 583.393 374.015 579.964 373.994C577.619 373.98 576.722 373.972 575.055 373.965C572.291 373.952 568.98 373.948 565.223 373.965C564.635 374.517 564.047 375.07 563.459 375.623C563.578 381.377 563.397 385.911 563.194 389.088C563.038 391.537 562.798 394.32 563.313 398.141C563.577 400.071 563.99 401.977 564.548 403.843C566.16 409.037 568.799 413.854 572.308 418.009C574.633 420.863 577.253 424.032 581.832 426.66C584.081 427.948 586.491 428.934 588.999 429.591H589.004C591.511 428.934 593.922 427.948 596.171 426.66C600.749 424.034 603.37 420.864 605.695 418.009C609.203 413.854 611.842 409.037 613.455 403.843C614.013 401.977 614.425 400.071 614.689 398.141C615.201 394.32 614.962 391.537 614.806 389.088Z" fill="#838382"/>
<path d="M594.397 301.98H583.403V364.059H594.397V301.98Z" fill="#67461B"/>
<path d="M593.793 399.124C593.392 400.109 592.892 401.051 592.299 401.935C591.293 403.409 590.219 404.983 588.827 404.958C587.512 404.936 586.547 403.495 585.549 402.006C584.784 400.83 584.169 399.564 583.717 398.236C582.807 395.725 582.189 392.953 581.765 389.021C581.442 385.937 581.297 382.837 581.331 379.736C581.341 372.627 581.37 366.875 581.403 362.588L596.469 362.516C596.35 369.892 596.376 375.686 596.42 379.629C596.504 382.871 596.383 386.115 596.059 389.342C595.738 392.38 595.172 395.816 593.793 399.124Z" fill="#606060"/>
<path d="M604.42 287.222L602.665 285.144L575.345 285L573.537 286.808C573.518 287.861 573.5 289.406 573.513 291.28C573.542 295.585 573.7 296.241 573.821 296.659C574.438 298.759 575.723 300.6 577.481 301.904C577.961 302.248 578.997 302.915 581.846 303.58C587.82 304.975 592.545 304.208 596.44 303.536C597.563 303.388 598.652 303.045 599.658 302.523C601.476 301.508 602.915 299.93 603.759 298.026C604.322 296.707 604.377 295.189 604.464 292.206C604.525 290.107 604.475 288.382 604.42 287.222ZM598.732 295.397L596.498 297.836L581.037 297.866C580.438 297.169 579.838 296.472 579.238 295.775L579.04 290.076H598.761C598.752 291.849 598.742 293.623 598.732 295.397Z" fill="#606060"/>
</svg>
