<svg width="878" height="548" viewBox="0 0 878 548" fill="none" xmlns="http://www.w3.org/2000/svg">
<g filter="url(#filter0_d_84_1069)">
<rect x="6.5" y="2.5" width="865" height="534.4" rx="77.5" fill="#F3F3F3" stroke="#83C1CA" stroke-width="5"/>
<path d="M495.913 242.336C493.156 242.028 490.381 241.917 487.608 242.004C486.299 242.084 484.998 242.267 483.717 242.551C481.578 243.08 479.512 243.87 477.566 244.904C471.398 249.964 467.479 257.251 466.662 265.181C463.667 277.202 464.74 289.875 469.713 301.224C472.558 307.807 476.762 313.717 482.049 318.567C487.336 323.417 493.589 327.099 500.398 329.372C507.207 331.644 514.419 332.457 521.564 331.756C528.708 331.055 535.625 328.857 541.861 325.304C548.104 322.196 553.659 317.867 558.196 312.574C562.733 307.282 566.159 301.133 568.272 294.492C570.83 284.968 570.515 274.901 567.368 265.554C565.884 258.737 562.23 252.583 556.952 248.014C554.056 245.57 550.604 243.873 546.897 243.073C542.107 242.487 537.283 242.214 532.457 242.256C530.951 242.243 529.454 242.01 528.016 241.565C526.801 241.116 525.614 240.594 524.462 240.002C522.419 239.071 520.219 238.533 517.977 238.416C515.997 238.525 514.039 238.897 512.157 239.522C508.349 240.519 508 240.849 505.86 241.377C502.606 242.16 499.257 242.483 495.913 242.336Z" fill="#C80D25"/>
<path d="M569.348 289.624C569.603 288.134 569.783 286.631 569.886 285.123L569.897 284.981C569.991 283.557 570.021 282.181 569.987 280.854V280.731C569.96 279.508 569.871 278.339 569.769 277.208L569.706 276.574C569.58 275.568 569.454 274.563 569.301 273.626L569.159 272.826C569.018 272.053 568.867 271.313 568.708 270.621L568.539 269.88C568.431 269.425 568.327 269.026 568.21 268.614C567.918 267.555 567.641 266.544 567.35 265.559C566.968 264.289 566.539 262.945 566.035 261.555C565.456 259.984 564.94 258.734 564.462 257.738L564.156 257.073L563.809 256.382C562.612 254.057 561.07 251.926 559.234 250.061L559.172 250.024C558.465 249.323 557.718 248.664 556.934 248.05C555.724 247.079 554.442 246.202 553.099 245.425L553.058 245.4C552.627 245.141 552.095 244.943 551.611 244.717C552.904 246.688 554.338 248.564 555.902 250.33C560.837 258.308 562.936 267.714 561.863 277.03C561.183 284.432 558.801 291.577 554.902 297.908C551.002 304.239 545.691 309.584 539.383 313.527C528.321 320.021 515.206 322.084 502.682 319.301C481.889 315.198 470.959 299.935 469.728 301.242C473.652 309.708 479.651 317.049 487.171 322.585C487.884 323.087 488.61 323.579 489.364 324.059L489.816 324.33C493.124 326.405 496.662 328.09 500.359 329.351C501.546 329.747 502.717 330.075 503.891 330.38C504.268 330.478 504.646 330.546 505.023 330.631C505.833 330.829 506.579 330.979 507.354 331.101C507.795 331.176 508.207 331.231 508.655 331.303C509.355 331.409 510.053 331.502 510.72 331.614L512.024 331.734C512.7 331.786 513.367 331.823 514.026 331.857C514.443 331.876 514.86 331.892 515.268 331.896C515.95 331.906 516.623 331.896 517.293 331.884C517.646 331.871 518.017 331.871 518.362 331.855C519.198 331.817 520.015 331.758 520.813 331.678L521.321 331.641C522.304 331.551 523.228 331.406 524.148 331.271L524.952 331.122C525.588 331.01 526.217 330.894 526.823 330.766C527.151 330.704 527.468 330.623 527.787 330.555L529.345 330.178L530.299 329.922C530.781 329.784 531.253 329.65 531.711 329.506L532.577 329.243C533.039 329.092 533.488 328.934 533.921 328.786L534.652 328.528C535.129 328.357 535.591 328.16 536.022 328L536.505 327.816C537.091 327.583 537.632 327.349 538.141 327.125L538.55 326.942L539.578 326.469L539.955 326.288L540.591 325.974L541.278 325.634L541.866 325.307C548.397 321.887 554.223 317.267 559.038 311.689C559.385 311.284 559.73 310.879 560.066 310.446C560.151 310.303 560.31 310.148 560.402 310.025C560.896 309.392 561.345 308.733 561.781 308.12C562.003 307.751 562.277 307.404 562.495 307.071C562.998 306.305 563.492 305.52 563.963 304.705L564.184 304.336C564.681 303.509 565.108 302.633 565.535 301.737C565.661 301.5 565.773 301.257 565.87 301.008C566.266 300.147 566.645 299.268 566.999 298.356L567.137 298.003C567.569 296.867 567.955 295.702 568.317 294.491C568.769 292.905 569.134 291.296 569.41 289.67L569.348 289.624Z" fill="#9F122D"/>
<path d="M486.358 248.652C484.24 248.74 482.205 249.504 480.555 250.833C476.874 254.432 474.146 258.887 472.614 263.799C471.082 268.711 470.795 273.925 471.778 278.975C471.847 280.639 472.288 282.267 473.07 283.738C473.852 285.209 474.955 286.486 476.296 287.476C477.539 288.048 478.883 288.37 480.251 288.423C481.619 288.477 482.984 288.26 484.267 287.785C489.188 285.948 490.734 280.808 493.7 270.92C495.304 265.454 495.612 259.691 494.6 254.085C494.295 252.808 493.635 251.643 492.696 250.724C490.928 249.247 488.659 248.505 486.358 248.652Z" fill="#D9766A"/>
<path d="M512.855 255.188C513.116 252.409 514.348 249.812 516.335 247.85C517.345 246.884 518.528 246.117 519.824 245.592C521.482 246.373 522.853 247.653 523.744 249.252C524.461 250.612 524.387 251.665 524.92 254.941C525.276 257.134 525.564 258.978 525.767 260.309C526.619 258.785 527.262 257.154 527.679 255.46C528.517 252.943 528.567 250.231 527.823 247.685C527.254 246.097 526.316 244.667 525.087 243.512C526.556 242.997 528.074 242.633 529.617 242.429C532.637 242.109 535.689 242.307 538.642 243.015C541.343 243.514 543.998 244.237 546.579 245.177C545.745 244.453 544.853 243.8 543.911 243.224C540.999 241.553 537.748 240.556 534.399 240.306C530.982 239.864 527.519 239.916 524.117 240.461C524.78 239.659 525.517 238.921 526.319 238.257C528.061 236.849 530.059 235.791 532.204 235.14C534.505 234.431 536.925 234.189 539.322 234.425C538.457 233.993 537.549 233.651 536.614 233.405C534.39 232.858 532.071 232.821 529.832 233.298C527.303 233.94 524.907 235.021 522.754 236.493C521.52 237.212 520.536 237.875 519.866 238.338C519.909 237.231 519.949 235.805 519.992 234.156C520.246 232.074 520.136 229.964 519.667 227.919C519.104 226.38 518.129 225.024 516.848 224C517.431 226.222 517.637 228.526 517.458 230.816C517.279 233.105 516.71 235.348 515.778 237.448C514.646 236.101 513.379 234.874 511.996 233.785C509.945 232.195 507.682 230.899 505.273 229.932C503.249 229.046 501.145 228.353 498.989 227.865C501.539 229.644 503.677 230.992 505.197 231.912C507.578 233.12 509.734 234.727 511.57 236.663C512.313 237.528 512.96 238.47 513.499 239.474C510.697 239.059 507.835 239.435 505.236 240.561C503.164 241.46 501.333 242.834 499.892 244.572C498.452 246.31 497.442 248.363 496.944 250.564C498.819 248.237 501.131 246.298 503.751 244.857C505.146 244.053 506.665 243.488 508.246 243.185C509.338 243.012 510.442 242.925 511.547 242.925C512.711 242.886 513.876 242.917 515.036 243.017C513.785 244.08 512.823 245.441 512.238 246.973C511.78 248.313 511.599 249.732 511.705 251.144C511.811 252.555 512.202 253.931 512.855 255.188Z" fill="#267237"/>
<path d="M642.913 242.336C640.156 242.028 637.381 241.917 634.608 242.004C633.299 242.084 631.998 242.267 630.717 242.551C628.578 243.08 626.512 243.87 624.566 244.904C618.398 249.964 614.479 257.251 613.662 265.181C610.667 277.202 611.74 289.875 616.713 301.224C619.558 307.807 623.762 313.717 629.049 318.567C634.336 323.417 640.589 327.099 647.398 329.372C654.207 331.644 661.419 332.457 668.564 331.756C675.708 331.055 682.625 328.857 688.861 325.304C695.104 322.196 700.659 317.867 705.196 312.574C709.733 307.282 713.159 301.133 715.272 294.492C717.83 284.968 717.515 274.901 714.368 265.554C712.884 258.737 709.23 252.583 703.952 248.014C701.056 245.57 697.604 243.873 693.897 243.073C689.107 242.487 684.283 242.214 679.457 242.256C677.951 242.243 676.454 242.01 675.016 241.565C673.801 241.116 672.614 240.594 671.462 240.002C669.419 239.071 667.219 238.533 664.977 238.416C662.997 238.525 661.039 238.897 659.157 239.522C655.349 240.519 655 240.849 652.86 241.377C649.606 242.16 646.257 242.483 642.913 242.336Z" fill="#C80D25"/>
<path d="M716.348 289.624C716.603 288.134 716.783 286.631 716.886 285.123L716.897 284.981C716.991 283.557 717.021 282.181 716.987 280.854V280.731C716.96 279.508 716.871 278.339 716.769 277.208L716.706 276.574C716.58 275.568 716.454 274.563 716.301 273.626L716.159 272.826C716.018 272.053 715.867 271.313 715.708 270.621L715.539 269.88C715.431 269.425 715.327 269.026 715.21 268.614C714.918 267.555 714.641 266.544 714.35 265.559C713.968 264.289 713.539 262.945 713.035 261.555C712.456 259.984 711.94 258.734 711.462 257.738L711.156 257.073L710.809 256.382C709.612 254.057 708.07 251.926 706.234 250.061L706.172 250.024C705.465 249.323 704.718 248.664 703.934 248.05C702.724 247.079 701.442 246.202 700.099 245.425L700.058 245.4C699.627 245.141 699.095 244.943 698.611 244.717C699.904 246.688 701.338 248.564 702.902 250.33C707.837 258.308 709.936 267.714 708.863 277.03C708.183 284.432 705.801 291.577 701.902 297.908C698.002 304.239 692.691 309.584 686.383 313.527C675.321 320.021 662.206 322.084 649.682 319.301C628.889 315.198 617.959 299.935 616.728 301.242C620.652 309.708 626.651 317.049 634.171 322.585C634.884 323.087 635.61 323.579 636.364 324.059L636.816 324.33C640.124 326.405 643.662 328.09 647.359 329.351C648.546 329.747 649.717 330.075 650.891 330.38C651.268 330.478 651.646 330.546 652.023 330.631C652.833 330.829 653.579 330.979 654.354 331.101C654.795 331.176 655.207 331.231 655.655 331.303C656.355 331.409 657.053 331.502 657.72 331.614L659.024 331.734C659.7 331.786 660.367 331.823 661.026 331.857C661.443 331.876 661.86 331.892 662.268 331.896C662.95 331.906 663.623 331.896 664.293 331.884C664.646 331.871 665.017 331.871 665.362 331.855C666.198 331.817 667.015 331.758 667.813 331.678L668.321 331.641C669.304 331.551 670.228 331.406 671.148 331.271L671.952 331.122C672.588 331.01 673.217 330.894 673.823 330.766C674.151 330.704 674.468 330.623 674.787 330.555L676.345 330.178L677.299 329.922C677.781 329.784 678.253 329.65 678.711 329.506L679.577 329.243C680.039 329.092 680.488 328.934 680.921 328.786L681.652 328.528C682.129 328.357 682.591 328.16 683.022 328L683.505 327.816C684.091 327.583 684.632 327.349 685.141 327.125L685.55 326.942L686.578 326.469L686.955 326.288L687.591 325.974L688.278 325.634L688.866 325.307C695.397 321.887 701.223 317.267 706.038 311.689C706.385 311.284 706.73 310.879 707.066 310.446C707.151 310.303 707.31 310.148 707.402 310.025C707.896 309.392 708.345 308.733 708.781 308.12C709.003 307.751 709.277 307.404 709.495 307.071C709.998 306.305 710.492 305.52 710.963 304.705L711.184 304.336C711.681 303.509 712.108 302.633 712.535 301.737C712.661 301.5 712.773 301.257 712.87 301.008C713.266 300.147 713.645 299.268 713.999 298.356L714.137 298.003C714.569 296.867 714.955 295.702 715.317 294.491C715.769 292.905 716.134 291.296 716.41 289.67L716.348 289.624Z" fill="#9F122D"/>
<path d="M633.358 248.652C631.24 248.74 629.205 249.504 627.555 250.833C623.874 254.432 621.146 258.887 619.614 263.799C618.082 268.711 617.795 273.925 618.778 278.975C618.847 280.639 619.288 282.267 620.07 283.738C620.852 285.209 621.955 286.486 623.296 287.476C624.539 288.048 625.883 288.37 627.251 288.423C628.619 288.477 629.984 288.26 631.267 287.785C636.188 285.948 637.734 280.808 640.7 270.92C642.304 265.454 642.612 259.691 641.6 254.085C641.295 252.808 640.635 251.643 639.696 250.724C637.928 249.247 635.659 248.505 633.358 248.652Z" fill="#D9766A"/>
<path d="M659.855 255.188C660.116 252.409 661.348 249.812 663.335 247.85C664.345 246.884 665.528 246.117 666.824 245.592C668.482 246.373 669.853 247.653 670.744 249.252C671.461 250.612 671.387 251.665 671.92 254.941C672.276 257.134 672.564 258.978 672.767 260.309C673.619 258.785 674.262 257.154 674.679 255.46C675.517 252.943 675.567 250.231 674.823 247.685C674.254 246.097 673.316 244.667 672.087 243.512C673.556 242.997 675.074 242.633 676.617 242.429C679.637 242.109 682.689 242.307 685.642 243.015C688.343 243.514 690.998 244.237 693.579 245.177C692.745 244.453 691.853 243.8 690.911 243.224C687.999 241.553 684.748 240.556 681.399 240.306C677.982 239.864 674.519 239.916 671.117 240.461C671.78 239.659 672.517 238.921 673.319 238.257C675.061 236.849 677.059 235.791 679.204 235.14C681.505 234.431 683.925 234.189 686.322 234.425C685.457 233.993 684.549 233.651 683.614 233.405C681.39 232.858 679.071 232.821 676.832 233.298C674.303 233.94 671.907 235.021 669.754 236.493C668.52 237.212 667.536 237.875 666.866 238.338C666.909 237.231 666.949 235.805 666.992 234.156C667.246 232.074 667.136 229.964 666.667 227.919C666.104 226.38 665.129 225.024 663.848 224C664.431 226.222 664.637 228.526 664.458 230.816C664.279 233.105 663.71 235.348 662.778 237.448C661.646 236.101 660.379 234.874 658.996 233.785C656.945 232.195 654.682 230.899 652.273 229.932C650.249 229.046 648.145 228.353 645.989 227.865C648.539 229.644 650.677 230.992 652.197 231.912C654.578 233.12 656.734 234.727 658.57 236.663C659.313 237.528 659.96 238.47 660.499 239.474C657.697 239.059 654.835 239.435 652.236 240.561C650.164 241.46 648.333 242.834 646.892 244.572C645.452 246.31 644.442 248.363 643.944 250.564C645.819 248.237 648.131 246.298 650.751 244.857C652.146 244.053 653.665 243.488 655.246 243.185C656.338 243.012 657.442 242.925 658.547 242.925C659.711 242.886 660.876 242.917 662.036 243.017C660.785 244.08 659.823 245.441 659.238 246.973C658.78 248.313 658.599 249.732 658.705 251.144C658.811 252.555 659.202 253.931 659.855 255.188Z" fill="#267237"/>
<path d="M495.913 379.336C493.156 379.028 490.381 378.917 487.608 379.004C486.299 379.084 484.998 379.267 483.717 379.551C481.578 380.08 479.512 380.87 477.566 381.904C471.398 386.964 467.479 394.251 466.662 402.181C463.667 414.202 464.74 426.875 469.713 438.224C472.558 444.807 476.762 450.717 482.049 455.567C487.336 460.417 493.589 464.099 500.398 466.372C507.207 468.644 514.419 469.457 521.564 468.756C528.708 468.055 535.625 465.857 541.861 462.304C548.104 459.196 553.659 454.867 558.196 449.574C562.733 444.282 566.159 438.133 568.272 431.492C570.83 421.968 570.515 411.901 567.368 402.554C565.884 395.737 562.23 389.583 556.952 385.014C554.056 382.57 550.604 380.873 546.897 380.073C542.107 379.487 537.283 379.214 532.457 379.256C530.951 379.243 529.454 379.01 528.016 378.565C526.801 378.116 525.614 377.594 524.462 377.002C522.419 376.071 520.219 375.533 517.977 375.416C515.997 375.525 514.039 375.897 512.157 376.522C508.349 377.519 508 377.849 505.86 378.377C502.606 379.16 499.257 379.483 495.913 379.336Z" fill="#C80D25"/>
<path d="M569.348 426.624C569.603 425.134 569.783 423.631 569.886 422.123L569.897 421.981C569.991 420.557 570.021 419.181 569.987 417.854V417.731C569.96 416.508 569.871 415.339 569.769 414.208L569.706 413.574C569.58 412.568 569.454 411.563 569.301 410.626L569.159 409.826C569.018 409.053 568.867 408.313 568.708 407.621L568.539 406.88C568.431 406.425 568.327 406.026 568.21 405.614C567.918 404.555 567.641 403.544 567.35 402.559C566.968 401.289 566.539 399.945 566.035 398.555C565.456 396.984 564.94 395.734 564.462 394.738L564.156 394.073L563.809 393.382C562.612 391.057 561.07 388.926 559.234 387.061L559.172 387.024C558.465 386.323 557.718 385.664 556.934 385.05C555.724 384.079 554.442 383.202 553.099 382.425L553.058 382.4C552.627 382.141 552.095 381.943 551.611 381.717C552.904 383.688 554.338 385.564 555.902 387.33C560.837 395.308 562.936 404.714 561.863 414.03C561.183 421.432 558.801 428.577 554.902 434.908C551.002 441.239 545.691 446.584 539.383 450.527C528.321 457.021 515.206 459.084 502.682 456.301C481.889 452.198 470.959 436.935 469.728 438.242C473.652 446.708 479.651 454.049 487.171 459.585C487.884 460.087 488.61 460.579 489.364 461.059L489.816 461.33C493.124 463.405 496.662 465.09 500.359 466.351C501.546 466.747 502.717 467.075 503.891 467.38C504.268 467.478 504.646 467.546 505.023 467.631C505.833 467.829 506.579 467.979 507.354 468.101C507.795 468.176 508.207 468.231 508.655 468.303C509.355 468.409 510.053 468.502 510.72 468.614L512.024 468.734C512.7 468.786 513.367 468.823 514.026 468.857C514.443 468.876 514.86 468.892 515.268 468.896C515.95 468.906 516.623 468.896 517.293 468.884C517.646 468.871 518.017 468.871 518.362 468.855C519.198 468.817 520.015 468.758 520.813 468.678L521.321 468.641C522.304 468.551 523.228 468.406 524.148 468.271L524.952 468.122C525.588 468.01 526.217 467.894 526.823 467.766C527.151 467.704 527.468 467.623 527.787 467.555L529.345 467.178L530.299 466.922C530.781 466.784 531.253 466.65 531.711 466.506L532.577 466.243C533.039 466.092 533.488 465.934 533.921 465.786L534.652 465.528C535.129 465.357 535.591 465.16 536.022 465L536.505 464.816C537.091 464.583 537.632 464.349 538.141 464.125L538.55 463.942L539.578 463.469L539.955 463.288L540.591 462.974L541.278 462.634L541.866 462.307C548.397 458.887 554.223 454.267 559.038 448.689C559.385 448.284 559.73 447.879 560.066 447.446C560.151 447.303 560.31 447.148 560.402 447.025C560.896 446.392 561.345 445.733 561.781 445.12C562.003 444.751 562.277 444.404 562.495 444.071C562.998 443.305 563.492 442.52 563.963 441.705L564.184 441.336C564.681 440.509 565.108 439.633 565.535 438.737C565.661 438.5 565.773 438.257 565.87 438.008C566.266 437.147 566.645 436.268 566.999 435.356L567.137 435.003C567.569 433.867 567.955 432.702 568.317 431.491C568.769 429.905 569.134 428.296 569.41 426.67L569.348 426.624Z" fill="#9F122D"/>
<path d="M486.358 385.652C484.24 385.74 482.205 386.504 480.555 387.833C476.874 391.432 474.146 395.887 472.614 400.799C471.082 405.711 470.795 410.925 471.778 415.975C471.847 417.639 472.288 419.267 473.07 420.738C473.852 422.209 474.955 423.486 476.296 424.476C477.539 425.048 478.883 425.37 480.251 425.423C481.619 425.477 482.984 425.26 484.267 424.785C489.188 422.948 490.734 417.808 493.7 407.92C495.304 402.454 495.612 396.691 494.6 391.085C494.295 389.808 493.635 388.643 492.696 387.724C490.928 386.247 488.659 385.505 486.358 385.652Z" fill="#D9766A"/>
<path d="M512.855 392.188C513.116 389.409 514.348 386.812 516.335 384.85C517.345 383.884 518.528 383.117 519.824 382.592C521.482 383.373 522.853 384.653 523.744 386.252C524.461 387.612 524.387 388.665 524.92 391.941C525.276 394.134 525.564 395.978 525.767 397.309C526.619 395.785 527.262 394.154 527.679 392.46C528.517 389.943 528.567 387.231 527.823 384.685C527.254 383.097 526.316 381.667 525.087 380.512C526.556 379.997 528.074 379.633 529.617 379.429C532.637 379.109 535.689 379.307 538.642 380.015C541.343 380.514 543.998 381.237 546.579 382.177C545.745 381.453 544.853 380.8 543.911 380.224C540.999 378.553 537.748 377.556 534.399 377.306C530.982 376.864 527.519 376.916 524.117 377.461C524.78 376.659 525.517 375.921 526.319 375.257C528.061 373.849 530.059 372.791 532.204 372.14C534.505 371.431 536.925 371.189 539.322 371.425C538.457 370.993 537.549 370.651 536.614 370.405C534.39 369.858 532.071 369.821 529.832 370.298C527.303 370.94 524.907 372.021 522.754 373.493C521.52 374.212 520.536 374.875 519.866 375.338C519.909 374.231 519.949 372.805 519.992 371.156C520.246 369.074 520.136 366.964 519.667 364.919C519.104 363.38 518.129 362.024 516.848 361C517.431 363.222 517.637 365.526 517.458 367.816C517.279 370.105 516.71 372.348 515.778 374.448C514.646 373.101 513.379 371.874 511.996 370.785C509.945 369.195 507.682 367.899 505.273 366.932C503.249 366.046 501.145 365.353 498.989 364.865C501.539 366.644 503.677 367.992 505.197 368.912C507.578 370.12 509.734 371.727 511.57 373.663C512.313 374.528 512.96 375.47 513.499 376.474C510.697 376.059 507.835 376.435 505.236 377.561C503.164 378.46 501.333 379.834 499.892 381.572C498.452 383.31 497.442 385.363 496.944 387.564C498.819 385.237 501.131 383.298 503.751 381.857C505.146 381.053 506.665 380.488 508.246 380.185C509.338 380.012 510.442 379.925 511.547 379.925C512.711 379.886 513.876 379.917 515.036 380.017C513.785 381.08 512.823 382.441 512.238 383.973C511.78 385.313 511.599 386.732 511.705 388.144C511.811 389.555 512.202 390.931 512.855 392.188Z" fill="#267237"/>
<path d="M642.913 379.336C640.156 379.028 637.381 378.917 634.608 379.004C633.299 379.084 631.998 379.267 630.717 379.551C628.578 380.08 626.512 380.87 624.566 381.904C618.398 386.964 614.479 394.251 613.662 402.181C610.667 414.202 611.74 426.875 616.713 438.224C619.558 444.807 623.762 450.717 629.049 455.567C634.336 460.417 640.589 464.099 647.398 466.372C654.207 468.644 661.419 469.457 668.564 468.756C675.708 468.055 682.625 465.857 688.861 462.304C695.104 459.196 700.659 454.867 705.196 449.574C709.733 444.282 713.159 438.133 715.272 431.492C717.83 421.968 717.515 411.901 714.368 402.554C712.884 395.737 709.23 389.583 703.952 385.014C701.056 382.57 697.604 380.873 693.897 380.073C689.107 379.487 684.283 379.214 679.457 379.256C677.951 379.243 676.454 379.01 675.016 378.565C673.801 378.116 672.614 377.594 671.462 377.002C669.419 376.071 667.219 375.533 664.977 375.416C662.997 375.525 661.039 375.897 659.157 376.522C655.349 377.519 655 377.849 652.86 378.377C649.606 379.16 646.257 379.483 642.913 379.336Z" fill="#C80D25"/>
<path d="M716.348 426.624C716.603 425.134 716.783 423.631 716.886 422.123L716.897 421.981C716.991 420.557 717.021 419.181 716.987 417.854V417.731C716.96 416.508 716.871 415.339 716.769 414.208L716.706 413.574C716.58 412.568 716.454 411.563 716.301 410.626L716.159 409.826C716.018 409.053 715.867 408.313 715.708 407.621L715.539 406.88C715.431 406.425 715.327 406.026 715.21 405.614C714.918 404.555 714.641 403.544 714.35 402.559C713.968 401.289 713.539 399.945 713.035 398.555C712.456 396.984 711.94 395.734 711.462 394.738L711.156 394.073L710.809 393.382C709.612 391.057 708.07 388.926 706.234 387.061L706.172 387.024C705.465 386.323 704.718 385.664 703.934 385.05C702.724 384.079 701.442 383.202 700.099 382.425L700.058 382.4C699.627 382.141 699.095 381.943 698.611 381.717C699.904 383.688 701.338 385.564 702.902 387.33C707.837 395.308 709.936 404.714 708.863 414.03C708.183 421.432 705.801 428.577 701.902 434.908C698.002 441.239 692.691 446.584 686.383 450.527C675.321 457.021 662.206 459.084 649.682 456.301C628.889 452.198 617.959 436.935 616.728 438.242C620.652 446.708 626.651 454.049 634.171 459.585C634.884 460.087 635.61 460.579 636.364 461.059L636.816 461.33C640.124 463.405 643.662 465.09 647.359 466.351C648.546 466.747 649.717 467.075 650.891 467.38C651.268 467.478 651.646 467.546 652.023 467.631C652.833 467.829 653.579 467.979 654.354 468.101C654.795 468.176 655.207 468.231 655.655 468.303C656.355 468.409 657.053 468.502 657.72 468.614L659.024 468.734C659.7 468.786 660.367 468.823 661.026 468.857C661.443 468.876 661.86 468.892 662.268 468.896C662.95 468.906 663.623 468.896 664.293 468.884C664.646 468.871 665.017 468.871 665.362 468.855C666.198 468.817 667.015 468.758 667.813 468.678L668.321 468.641C669.304 468.551 670.228 468.406 671.148 468.271L671.952 468.122C672.588 468.01 673.217 467.894 673.823 467.766C674.151 467.704 674.468 467.623 674.787 467.555L676.345 467.178L677.299 466.922C677.781 466.784 678.253 466.65 678.711 466.506L679.577 466.243C680.039 466.092 680.488 465.934 680.921 465.786L681.652 465.528C682.129 465.357 682.591 465.16 683.022 465L683.505 464.816C684.091 464.583 684.632 464.349 685.141 464.125L685.55 463.942L686.578 463.469L686.955 463.288L687.591 462.974L688.278 462.634L688.866 462.307C695.397 458.887 701.223 454.267 706.038 448.689C706.385 448.284 706.73 447.879 707.066 447.446C707.151 447.303 707.31 447.148 707.402 447.025C707.896 446.392 708.345 445.733 708.781 445.12C709.003 444.751 709.277 444.404 709.495 444.071C709.998 443.305 710.492 442.52 710.963 441.705L711.184 441.336C711.681 440.509 712.108 439.633 712.535 438.737C712.661 438.5 712.773 438.257 712.87 438.008C713.266 437.147 713.645 436.268 713.999 435.356L714.137 435.003C714.569 433.867 714.955 432.702 715.317 431.491C715.769 429.905 716.134 428.296 716.41 426.67L716.348 426.624Z" fill="#9F122D"/>
<path d="M633.358 385.652C631.24 385.74 629.205 386.504 627.555 387.833C623.874 391.432 621.146 395.887 619.614 400.799C618.082 405.711 617.795 410.925 618.778 415.975C618.847 417.639 619.288 419.267 620.07 420.738C620.852 422.209 621.955 423.486 623.296 424.476C624.539 425.048 625.883 425.37 627.251 425.423C628.619 425.477 629.984 425.26 631.267 424.785C636.188 422.948 637.734 417.808 640.7 407.92C642.304 402.454 642.612 396.691 641.6 391.085C641.295 389.808 640.635 388.643 639.696 387.724C637.928 386.247 635.659 385.505 633.358 385.652Z" fill="#D9766A"/>
<path d="M659.855 392.188C660.116 389.409 661.348 386.812 663.335 384.85C664.345 383.884 665.528 383.117 666.824 382.592C668.482 383.373 669.853 384.653 670.744 386.252C671.461 387.612 671.387 388.665 671.92 391.941C672.276 394.134 672.564 395.978 672.767 397.309C673.619 395.785 674.262 394.154 674.679 392.46C675.517 389.943 675.567 387.231 674.823 384.685C674.254 383.097 673.316 381.667 672.087 380.512C673.556 379.997 675.074 379.633 676.617 379.429C679.637 379.109 682.689 379.307 685.642 380.015C688.343 380.514 690.998 381.237 693.579 382.177C692.745 381.453 691.853 380.8 690.911 380.224C687.999 378.553 684.748 377.556 681.399 377.306C677.982 376.864 674.519 376.916 671.117 377.461C671.78 376.659 672.517 375.921 673.319 375.257C675.061 373.849 677.059 372.791 679.204 372.14C681.505 371.431 683.925 371.189 686.322 371.425C685.457 370.993 684.549 370.651 683.614 370.405C681.39 369.858 679.071 369.821 676.832 370.298C674.303 370.94 671.907 372.021 669.754 373.493C668.52 374.212 667.536 374.875 666.866 375.338C666.909 374.231 666.949 372.805 666.992 371.156C667.246 369.074 667.136 366.964 666.667 364.919C666.104 363.38 665.129 362.024 663.848 361C664.431 363.222 664.637 365.526 664.458 367.816C664.279 370.105 663.71 372.348 662.778 374.448C661.646 373.101 660.379 371.874 658.996 370.785C656.945 369.195 654.682 367.899 652.273 366.932C650.249 366.046 648.145 365.353 645.989 364.865C648.539 366.644 650.677 367.992 652.197 368.912C654.578 370.12 656.734 371.727 658.57 373.663C659.313 374.528 659.96 375.47 660.499 376.474C657.697 376.059 654.835 376.435 652.236 377.561C650.164 378.46 648.333 379.834 646.892 381.572C645.452 383.31 644.442 385.363 643.944 387.564C645.819 385.237 648.131 383.298 650.751 381.857C652.146 381.053 653.665 380.488 655.246 380.185C656.338 380.012 657.442 379.925 658.547 379.925C659.711 379.886 660.876 379.917 662.036 380.017C660.785 381.08 659.823 382.441 659.238 383.973C658.78 385.313 658.599 386.732 658.705 388.144C658.811 389.555 659.202 390.931 659.855 392.188Z" fill="#267237"/>
<path d="M642.913 105.336C640.156 105.028 637.381 104.917 634.608 105.004C633.299 105.084 631.998 105.267 630.717 105.551C628.578 106.08 626.512 106.87 624.566 107.904C618.398 112.964 614.479 120.251 613.662 128.181C610.667 140.202 611.74 152.875 616.713 164.224C619.558 170.807 623.762 176.717 629.049 181.567C634.336 186.417 640.589 190.099 647.398 192.372C654.207 194.644 661.419 195.457 668.564 194.756C675.708 194.055 682.625 191.857 688.861 188.304C695.104 185.196 700.659 180.867 705.196 175.574C709.733 170.282 713.159 164.133 715.272 157.492C717.83 147.968 717.515 137.901 714.368 128.554C712.884 121.737 709.23 115.583 703.952 111.014C701.056 108.57 697.604 106.873 693.897 106.073C689.107 105.487 684.283 105.214 679.457 105.256C677.951 105.243 676.454 105.01 675.016 104.565C673.801 104.116 672.614 103.594 671.462 103.002C669.419 102.071 667.219 101.533 664.977 101.416C662.997 101.525 661.039 101.897 659.157 102.522C655.349 103.519 655 103.849 652.86 104.377C649.606 105.16 646.257 105.483 642.913 105.336Z" fill="#C80D25"/>
<path d="M716.348 152.624C716.603 151.134 716.783 149.631 716.886 148.123L716.897 147.981C716.991 146.557 717.021 145.181 716.987 143.854V143.731C716.96 142.508 716.871 141.339 716.769 140.208L716.706 139.574C716.58 138.568 716.454 137.563 716.301 136.626L716.159 135.826C716.018 135.053 715.867 134.313 715.708 133.621L715.539 132.88C715.431 132.425 715.327 132.026 715.21 131.614C714.918 130.555 714.641 129.544 714.35 128.559C713.968 127.289 713.539 125.945 713.035 124.555C712.456 122.984 711.94 121.734 711.462 120.738L711.156 120.073L710.809 119.382C709.612 117.057 708.07 114.926 706.234 113.061L706.172 113.024C705.465 112.323 704.718 111.664 703.934 111.05C702.724 110.079 701.442 109.202 700.099 108.425L700.058 108.4C699.627 108.141 699.095 107.943 698.611 107.717C699.904 109.688 701.338 111.564 702.902 113.33C707.837 121.308 709.936 130.714 708.863 140.03C708.183 147.432 705.801 154.577 701.902 160.908C698.002 167.239 692.691 172.584 686.383 176.527C675.321 183.021 662.206 185.084 649.682 182.301C628.889 178.198 617.959 162.935 616.728 164.242C620.652 172.708 626.651 180.049 634.171 185.585C634.884 186.087 635.61 186.579 636.364 187.059L636.816 187.33C640.124 189.405 643.662 191.09 647.359 192.351C648.546 192.747 649.717 193.075 650.891 193.38C651.268 193.478 651.646 193.546 652.023 193.631C652.833 193.829 653.579 193.979 654.354 194.101C654.795 194.176 655.207 194.231 655.655 194.303C656.355 194.409 657.053 194.502 657.72 194.614L659.024 194.734C659.7 194.786 660.367 194.823 661.026 194.857C661.443 194.876 661.86 194.892 662.268 194.896C662.95 194.906 663.623 194.896 664.293 194.884C664.646 194.871 665.017 194.871 665.362 194.855C666.198 194.817 667.015 194.758 667.813 194.678L668.321 194.641C669.304 194.551 670.228 194.406 671.148 194.271L671.952 194.122C672.588 194.01 673.217 193.894 673.823 193.766C674.151 193.704 674.468 193.623 674.787 193.555L676.345 193.178L677.299 192.922C677.781 192.784 678.253 192.65 678.711 192.506L679.577 192.243C680.039 192.092 680.488 191.934 680.921 191.786L681.652 191.528C682.129 191.357 682.591 191.16 683.022 191L683.505 190.816C684.091 190.583 684.632 190.349 685.141 190.125L685.55 189.942L686.578 189.469L686.955 189.288L687.591 188.974L688.278 188.634L688.866 188.307C695.397 184.887 701.223 180.267 706.038 174.689C706.385 174.284 706.73 173.879 707.066 173.446C707.151 173.303 707.31 173.148 707.402 173.025C707.896 172.392 708.345 171.733 708.781 171.12C709.003 170.751 709.277 170.404 709.495 170.071C709.998 169.305 710.492 168.52 710.963 167.705L711.184 167.336C711.681 166.509 712.108 165.633 712.535 164.737C712.661 164.5 712.773 164.257 712.87 164.008C713.266 163.147 713.645 162.268 713.999 161.356L714.137 161.003C714.569 159.867 714.955 158.702 715.317 157.491C715.769 155.905 716.134 154.296 716.41 152.67L716.348 152.624Z" fill="#9F122D"/>
<path d="M633.358 111.652C631.24 111.74 629.205 112.504 627.555 113.833C623.874 117.432 621.146 121.887 619.614 126.799C618.082 131.711 617.795 136.925 618.778 141.975C618.847 143.639 619.288 145.267 620.07 146.738C620.852 148.209 621.955 149.486 623.296 150.476C624.539 151.048 625.883 151.37 627.251 151.423C628.619 151.477 629.984 151.26 631.267 150.785C636.188 148.948 637.734 143.808 640.7 133.92C642.304 128.454 642.612 122.691 641.6 117.085C641.295 115.808 640.635 114.643 639.696 113.724C637.928 112.247 635.659 111.505 633.358 111.652Z" fill="#D9766A"/>
<path d="M659.855 118.188C660.116 115.409 661.348 112.812 663.335 110.85C664.345 109.884 665.528 109.117 666.824 108.592C668.482 109.373 669.853 110.653 670.744 112.252C671.461 113.612 671.387 114.665 671.92 117.941C672.276 120.134 672.564 121.978 672.767 123.309C673.619 121.785 674.262 120.154 674.679 118.46C675.517 115.943 675.567 113.231 674.823 110.685C674.254 109.097 673.316 107.667 672.087 106.512C673.556 105.997 675.074 105.633 676.617 105.429C679.637 105.109 682.689 105.307 685.642 106.015C688.343 106.514 690.998 107.237 693.579 108.177C692.745 107.453 691.853 106.8 690.911 106.224C687.999 104.553 684.748 103.556 681.399 103.306C677.982 102.864 674.519 102.916 671.117 103.461C671.78 102.659 672.517 101.921 673.319 101.257C675.061 99.8492 677.059 98.7906 679.204 98.1397C681.505 97.4314 683.925 97.1885 686.322 97.4252C685.457 96.9931 684.549 96.6513 683.614 96.4053C681.39 95.8578 679.071 95.8211 676.832 96.2979C674.303 96.9398 671.907 98.0212 669.754 99.4927C668.52 100.212 667.536 100.875 666.866 101.338C666.909 100.231 666.949 98.8052 666.992 97.1556C667.246 95.0738 667.136 92.9636 666.667 90.9194C666.104 89.3798 665.129 88.0241 663.848 87C664.431 89.2219 664.637 91.5257 664.458 93.8157C664.279 96.1055 663.71 98.3481 662.778 100.448C661.646 99.101 660.379 97.8736 658.996 96.7849C656.945 95.1954 654.682 93.8987 652.273 92.9321C650.249 92.0455 648.145 91.3532 645.989 90.8647C648.539 92.6437 650.677 93.9916 652.197 94.9122C654.578 96.1196 656.734 97.7265 658.57 99.663C659.313 100.528 659.96 101.47 660.499 102.474C657.697 102.059 654.835 102.435 652.236 103.561C650.164 104.46 648.333 105.834 646.892 107.572C645.452 109.31 644.442 111.363 643.944 113.564C645.819 111.237 648.131 109.298 650.751 107.857C652.146 107.053 653.665 106.488 655.246 106.185C656.338 106.012 657.442 105.925 658.547 105.925C659.711 105.886 660.876 105.917 662.036 106.017C660.785 107.08 659.823 108.441 659.238 109.973C658.78 111.313 658.599 112.732 658.705 114.144C658.811 115.555 659.202 116.931 659.855 118.188Z" fill="#267237"/>
<path d="M495.913 105.336C493.156 105.028 490.381 104.917 487.608 105.004C486.299 105.084 484.998 105.267 483.717 105.551C481.578 106.08 479.512 106.87 477.566 107.904C471.398 112.964 467.479 120.251 466.662 128.181C463.667 140.202 464.74 152.875 469.713 164.224C472.558 170.807 476.762 176.717 482.049 181.567C487.336 186.417 493.589 190.099 500.398 192.372C507.207 194.644 514.419 195.457 521.564 194.756C528.708 194.055 535.625 191.857 541.861 188.304C548.104 185.196 553.659 180.867 558.196 175.574C562.733 170.282 566.159 164.133 568.272 157.492C570.83 147.968 570.515 137.901 567.368 128.554C565.884 121.737 562.23 115.583 556.952 111.014C554.056 108.57 550.604 106.873 546.897 106.073C542.107 105.487 537.283 105.214 532.457 105.256C530.951 105.243 529.454 105.01 528.016 104.565C526.801 104.116 525.614 103.594 524.462 103.002C522.419 102.071 520.219 101.533 517.977 101.416C515.997 101.525 514.039 101.897 512.157 102.522C508.349 103.519 508 103.849 505.86 104.377C502.606 105.16 499.257 105.483 495.913 105.336Z" fill="#C80D25"/>
<path d="M569.348 152.624C569.603 151.134 569.783 149.631 569.886 148.123L569.897 147.981C569.991 146.557 570.021 145.181 569.987 143.854V143.731C569.96 142.508 569.871 141.339 569.769 140.208L569.706 139.574C569.58 138.568 569.454 137.563 569.301 136.626L569.159 135.826C569.018 135.053 568.867 134.313 568.708 133.621L568.539 132.88C568.431 132.425 568.327 132.026 568.21 131.614C567.918 130.555 567.641 129.544 567.35 128.559C566.968 127.289 566.539 125.945 566.035 124.555C565.456 122.984 564.94 121.734 564.462 120.738L564.156 120.073L563.809 119.382C562.612 117.057 561.07 114.926 559.234 113.061L559.172 113.024C558.465 112.323 557.718 111.664 556.934 111.05C555.724 110.079 554.442 109.202 553.099 108.425L553.058 108.4C552.627 108.141 552.095 107.943 551.611 107.717C552.904 109.688 554.338 111.564 555.902 113.33C560.837 121.308 562.936 130.714 561.863 140.03C561.183 147.432 558.801 154.577 554.902 160.908C551.002 167.239 545.691 172.584 539.383 176.527C528.321 183.021 515.206 185.084 502.682 182.301C481.889 178.198 470.959 162.935 469.728 164.242C473.652 172.708 479.651 180.049 487.171 185.585C487.884 186.087 488.61 186.579 489.364 187.059L489.816 187.33C493.124 189.405 496.662 191.09 500.359 192.351C501.546 192.747 502.717 193.075 503.891 193.38C504.268 193.478 504.646 193.546 505.023 193.631C505.833 193.829 506.579 193.979 507.354 194.101C507.795 194.176 508.207 194.231 508.655 194.303C509.355 194.409 510.053 194.502 510.72 194.614L512.024 194.734C512.7 194.786 513.367 194.823 514.026 194.857C514.443 194.876 514.86 194.892 515.268 194.896C515.95 194.906 516.623 194.896 517.293 194.884C517.646 194.871 518.017 194.871 518.362 194.855C519.198 194.817 520.015 194.758 520.813 194.678L521.321 194.641C522.304 194.551 523.228 194.406 524.148 194.271L524.952 194.122C525.588 194.01 526.217 193.894 526.823 193.766C527.151 193.704 527.468 193.623 527.787 193.555L529.345 193.178L530.299 192.922C530.781 192.784 531.253 192.65 531.711 192.506L532.577 192.243C533.039 192.092 533.488 191.934 533.921 191.786L534.652 191.528C535.129 191.357 535.591 191.16 536.022 191L536.505 190.816C537.091 190.583 537.632 190.349 538.141 190.125L538.55 189.942L539.578 189.469L539.955 189.288L540.591 188.974L541.278 188.634L541.866 188.307C548.397 184.887 554.223 180.267 559.038 174.689C559.385 174.284 559.73 173.879 560.066 173.446C560.151 173.303 560.31 173.148 560.402 173.025C560.896 172.392 561.345 171.733 561.781 171.12C562.003 170.751 562.277 170.404 562.495 170.071C562.998 169.305 563.492 168.52 563.963 167.705L564.184 167.336C564.681 166.509 565.108 165.633 565.535 164.737C565.661 164.5 565.773 164.257 565.87 164.008C566.266 163.147 566.645 162.268 566.999 161.356L567.137 161.003C567.569 159.867 567.955 158.702 568.317 157.491C568.769 155.905 569.134 154.296 569.41 152.67L569.348 152.624Z" fill="#9F122D"/>
<path d="M486.358 111.652C484.24 111.74 482.205 112.504 480.555 113.833C476.874 117.432 474.146 121.887 472.614 126.799C471.082 131.711 470.795 136.925 471.778 141.975C471.847 143.639 472.288 145.267 473.07 146.738C473.852 148.209 474.955 149.486 476.296 150.476C477.539 151.048 478.883 151.37 480.251 151.423C481.619 151.477 482.984 151.26 484.267 150.785C489.188 148.948 490.734 143.808 493.7 133.92C495.304 128.454 495.612 122.691 494.6 117.085C494.295 115.808 493.635 114.643 492.696 113.724C490.928 112.247 488.659 111.505 486.358 111.652Z" fill="#D9766A"/>
<path d="M512.855 118.188C513.116 115.409 514.348 112.812 516.335 110.85C517.345 109.884 518.528 109.117 519.824 108.592C521.482 109.373 522.853 110.653 523.744 112.252C524.461 113.612 524.387 114.665 524.92 117.941C525.276 120.134 525.564 121.978 525.767 123.309C526.619 121.785 527.262 120.154 527.679 118.46C528.517 115.943 528.567 113.231 527.823 110.685C527.254 109.097 526.316 107.667 525.087 106.512C526.556 105.997 528.074 105.633 529.617 105.429C532.637 105.109 535.689 105.307 538.642 106.015C541.343 106.514 543.998 107.237 546.579 108.177C545.745 107.453 544.853 106.8 543.911 106.224C540.999 104.553 537.748 103.556 534.399 103.306C530.982 102.864 527.519 102.916 524.117 103.461C524.78 102.659 525.517 101.921 526.319 101.257C528.061 99.8492 530.059 98.7906 532.204 98.1397C534.505 97.4314 536.925 97.1885 539.322 97.4252C538.457 96.9931 537.549 96.6513 536.614 96.4053C534.39 95.8578 532.071 95.8211 529.832 96.2979C527.303 96.9398 524.907 98.0212 522.754 99.4927C521.52 100.212 520.536 100.875 519.866 101.338C519.909 100.231 519.949 98.8052 519.992 97.1556C520.246 95.0738 520.136 92.9636 519.667 90.9194C519.104 89.3798 518.129 88.0241 516.848 87C517.431 89.2219 517.637 91.5257 517.458 93.8157C517.279 96.1055 516.71 98.3481 515.778 100.448C514.646 99.101 513.379 97.8736 511.996 96.7849C509.945 95.1954 507.682 93.8987 505.273 92.9321C503.249 92.0455 501.145 91.3532 498.989 90.8647C501.539 92.6437 503.677 93.9916 505.197 94.9122C507.578 96.1196 509.734 97.7265 511.57 99.663C512.313 100.528 512.96 101.47 513.499 102.474C510.697 102.059 507.835 102.435 505.236 103.561C503.164 104.46 501.333 105.834 499.892 107.572C498.452 109.31 497.442 111.363 496.944 113.564C498.819 111.237 501.131 109.298 503.751 107.857C505.146 107.053 506.665 106.488 508.246 106.185C509.338 106.012 510.442 105.925 511.547 105.925C512.711 105.886 513.876 105.917 515.036 106.017C513.785 107.08 512.823 108.441 512.238 109.973C511.78 111.313 511.599 112.732 511.705 114.144C511.811 115.555 512.202 116.931 512.855 118.188Z" fill="#267237"/>
<path d="M189.806 228.088C189.603 224.913 189.421 220.377 189.541 214.623C188.953 214.07 188.366 213.517 187.777 212.965C184.02 212.948 180.709 212.952 177.945 212.965C176.279 212.972 175.381 212.98 173.036 212.994C169.607 213.015 166.568 213.027 164 213.036C161.431 213.027 158.393 213.015 154.964 212.994C152.619 212.98 151.722 212.972 150.055 212.965C147.291 212.952 143.98 212.948 140.223 212.965C139.635 213.517 139.047 214.07 138.459 214.623C138.578 220.377 138.397 224.911 138.194 228.088C138.038 230.537 137.798 233.32 138.313 237.141C138.577 239.071 138.99 240.977 139.548 242.843C141.16 248.037 143.799 252.854 147.308 257.009C149.633 259.863 152.253 263.032 156.832 265.66C159.081 266.948 161.491 267.934 163.999 268.591H164.004C166.511 267.934 168.922 266.948 171.171 265.66C175.749 263.034 178.37 259.864 180.695 257.009C184.203 252.854 186.842 248.037 188.455 242.843C189.013 240.977 189.425 239.071 189.689 237.141C190.201 233.32 189.962 230.537 189.806 228.088Z" fill="#838382"/>
<path d="M169.397 140.98H158.403V203.059H169.397V140.98Z" fill="#67461B"/>
<path d="M168.793 238.124C168.393 239.109 167.892 240.051 167.299 240.935C166.293 242.409 165.22 243.983 163.828 243.958C162.512 243.936 161.547 242.495 160.55 241.006C159.784 239.83 159.169 238.564 158.717 237.236C157.808 234.725 157.19 231.953 156.765 228.021C156.442 224.937 156.297 221.837 156.331 218.736C156.341 211.627 156.371 205.875 156.403 201.588L171.469 201.516C171.35 208.892 171.376 214.686 171.421 218.629C171.504 221.871 171.383 225.115 171.059 228.342C170.738 231.38 170.173 234.816 168.793 238.124Z" fill="#606060"/>
<path d="M179.42 126.222L177.665 124.144L150.345 124L148.537 125.808C148.518 126.861 148.5 128.406 148.513 130.28C148.542 134.585 148.7 135.241 148.821 135.659C149.438 137.759 150.723 139.6 152.481 140.904C152.961 141.248 153.997 141.915 156.846 142.58C162.82 143.975 167.545 143.208 171.44 142.536C172.563 142.388 173.652 142.045 174.658 141.523C176.476 140.508 177.915 138.93 178.759 137.026C179.322 135.707 179.377 134.189 179.464 131.206C179.525 129.107 179.475 127.382 179.42 126.222ZM173.732 134.397L171.498 136.836L156.037 136.866C155.438 136.169 154.838 135.472 154.238 134.775L154.04 129.076H173.761C173.752 130.849 173.742 132.623 173.732 134.397Z" fill="#606060"/>
<path d="M189.806 383.088C189.603 379.913 189.421 375.377 189.541 369.623C188.953 369.07 188.366 368.517 187.777 367.965C184.02 367.948 180.709 367.952 177.945 367.965C176.279 367.972 175.381 367.98 173.036 367.994C169.607 368.015 166.568 368.027 164 368.036C161.431 368.027 158.393 368.015 154.964 367.994C152.619 367.98 151.722 367.972 150.055 367.965C147.291 367.952 143.98 367.948 140.223 367.965C139.635 368.517 139.047 369.07 138.459 369.623C138.578 375.377 138.397 379.911 138.194 383.088C138.038 385.537 137.798 388.32 138.313 392.141C138.577 394.071 138.99 395.977 139.548 397.843C141.16 403.037 143.799 407.854 147.308 412.009C149.633 414.863 152.253 418.032 156.832 420.66C159.081 421.948 161.491 422.934 163.999 423.591H164.004C166.511 422.934 168.922 421.948 171.171 420.66C175.749 418.034 178.37 414.864 180.695 412.009C184.203 407.854 186.842 403.037 188.455 397.843C189.013 395.977 189.425 394.071 189.689 392.141C190.201 388.32 189.962 385.537 189.806 383.088Z" fill="#838382"/>
<path d="M169.397 295.98H158.403V358.059H169.397V295.98Z" fill="#67461B"/>
<path d="M168.793 393.124C168.393 394.109 167.892 395.051 167.299 395.935C166.293 397.409 165.22 398.983 163.828 398.958C162.512 398.936 161.547 397.495 160.55 396.006C159.784 394.83 159.169 393.564 158.717 392.236C157.808 389.725 157.19 386.953 156.765 383.021C156.442 379.937 156.297 376.837 156.331 373.736C156.341 366.627 156.371 360.875 156.403 356.588L171.469 356.516C171.35 363.892 171.376 369.686 171.421 373.629C171.504 376.871 171.383 380.115 171.059 383.342C170.738 386.38 170.173 389.816 168.793 393.124Z" fill="#606060"/>
<path d="M179.42 281.222L177.665 279.144L150.345 279L148.537 280.808C148.518 281.861 148.5 283.406 148.513 285.28C148.542 289.585 148.7 290.241 148.821 290.659C149.438 292.759 150.723 294.6 152.481 295.904C152.961 296.248 153.997 296.915 156.846 297.58C162.82 298.975 167.545 298.208 171.44 297.536C172.563 297.388 173.652 297.045 174.658 296.523C176.476 295.508 177.915 293.93 178.759 292.026C179.322 290.707 179.377 289.189 179.464 286.206C179.525 284.107 179.475 282.382 179.42 281.222ZM173.732 289.397L171.498 291.836L156.037 291.866C155.438 291.169 154.838 290.472 154.238 289.775L154.04 284.076H173.761C173.752 285.849 173.742 287.623 173.732 289.397Z" fill="#606060"/>
<path d="M307.806 383.088C307.603 379.913 307.421 375.377 307.541 369.623C306.953 369.07 306.366 368.517 305.777 367.965C302.02 367.948 298.709 367.952 295.945 367.965C294.279 367.972 293.381 367.98 291.036 367.994C287.607 368.015 284.568 368.027 282 368.036C279.431 368.027 276.393 368.015 272.964 367.994C270.619 367.98 269.722 367.972 268.055 367.965C265.291 367.952 261.98 367.948 258.223 367.965C257.635 368.517 257.047 369.07 256.459 369.623C256.578 375.377 256.397 379.911 256.194 383.088C256.038 385.537 255.798 388.32 256.313 392.141C256.577 394.071 256.99 395.977 257.548 397.843C259.16 403.037 261.799 407.854 265.308 412.009C267.633 414.863 270.253 418.032 274.832 420.66C277.081 421.948 279.491 422.934 281.999 423.591H282.004C284.511 422.934 286.922 421.948 289.171 420.66C293.749 418.034 296.37 414.864 298.695 412.009C302.203 407.854 304.842 403.037 306.455 397.843C307.013 395.977 307.425 394.071 307.689 392.141C308.201 388.32 307.962 385.537 307.806 383.088Z" fill="#838382"/>
<path d="M287.397 295.98H276.403V358.059H287.397V295.98Z" fill="#67461B"/>
<path d="M286.793 393.124C286.393 394.109 285.892 395.051 285.299 395.935C284.293 397.409 283.22 398.983 281.828 398.958C280.512 398.936 279.547 397.495 278.55 396.006C277.784 394.83 277.169 393.564 276.717 392.236C275.808 389.725 275.19 386.953 274.765 383.021C274.442 379.937 274.297 376.837 274.331 373.736C274.341 366.627 274.371 360.875 274.403 356.588L289.469 356.516C289.35 363.892 289.376 369.686 289.421 373.629C289.504 376.871 289.383 380.115 289.059 383.342C288.738 386.38 288.173 389.816 286.793 393.124Z" fill="#606060"/>
<path d="M297.42 281.222L295.665 279.144L268.345 279L266.537 280.808C266.518 281.861 266.5 283.406 266.513 285.28C266.542 289.585 266.7 290.241 266.821 290.659C267.438 292.759 268.723 294.6 270.481 295.904C270.961 296.248 271.997 296.915 274.846 297.58C280.82 298.975 285.545 298.208 289.44 297.536C290.563 297.388 291.652 297.045 292.658 296.523C294.476 295.508 295.915 293.93 296.759 292.026C297.322 290.707 297.377 289.189 297.464 286.206C297.525 284.107 297.475 282.382 297.42 281.222ZM291.732 289.397L289.498 291.836L274.037 291.866C273.438 291.169 272.838 290.472 272.238 289.775L272.04 284.076H291.761C291.752 285.849 291.742 287.623 291.732 289.397Z" fill="#606060"/>
</g>
<defs>
<filter id="filter0_d_84_1069" x="0" y="0" width="878" height="547.4" filterUnits="userSpaceOnUse" color-interpolation-filters="sRGB">
<feFlood flood-opacity="0" result="BackgroundImageFix"/>
<feColorMatrix in="SourceAlpha" type="matrix" values="0 0 0 0 0 0 0 0 0 0 0 0 0 0 0 0 0 0 127 0" result="hardAlpha"/>
<feOffset dy="4"/>
<feGaussianBlur stdDeviation="2"/>
<feComposite in2="hardAlpha" operator="out"/>
<feColorMatrix type="matrix" values="0 0 0 0 0 0 0 0 0 0 0 0 0 0 0 0 0 0 0.25 0"/>
<feBlend mode="normal" in2="BackgroundImageFix" result="effect1_dropShadow_84_1069"/>
<feBlend mode="normal" in="SourceGraphic" in2="effect1_dropShadow_84_1069" result="shape"/>
</filter>
</defs>
</svg>
