<?xml version="1.0" encoding="UTF-8" standalone="no"?>
<svg width="870" height="540" viewBox="0 0 870 540" fill="none" xmlns="http://www.w3.org/2000/svg">
<rect x="3" y="3" width="864" height="533.4" rx="77" fill="white" stroke="#844EA5" stroke-width="6"/>
<path d="M751.759 318.736L771.736 380.218H836.381L784.082 418.216L804.059 479.698L751.759 441.7L699.459 479.698L719.436 418.216L667.137 380.218H731.782L751.759 318.736Z" fill="#164E82"/>
<path d="M143.977 210L163.954 271.482H228.6L176.3 309.48L196.277 370.961L143.977 332.964L91.6777 370.961L111.654 309.48L59.3549 271.482H124.001L143.977 210Z" fill="#164E82"/>
<path d="M713.796 22.9363L733.772 84.4181H798.418L746.119 122.416L766.095 183.898L713.796 145.9L661.496 183.898L681.473 122.416L629.173 84.4181H693.819L713.796 22.9363Z" fill="#164E82"/>
<path d="M448.977 319L468.954 380.482H533.6L481.3 418.48L501.277 479.961L448.977 441.964L396.678 479.961L416.654 418.48L364.355 380.482H429.001L448.977 319Z" fill="#164E82"/>
<path d="M365.977 58L385.954 119.482H450.6L398.3 157.48L418.277 218.961L365.977 180.964L313.678 218.961L333.654 157.48L281.355 119.482H346.001L365.977 58Z" fill="#164E82"/>
<circle cx="134.873" cy="87.8727" r="45.8727" fill="#F2A74E"/>
<circle cx="801.191" cy="235.691" r="45.8727" fill="#F2A74E"/>
<circle cx="189.818" cy="461.891" r="45.8727" fill="#F2A74E"/>
<circle cx="590.873" cy="272.873" r="45.8727" fill="#F2A74E"/>
</svg>
