<svg viewBox="0 0 870 540" fill="none" xmlns="http://www.w3.org/2000/svg">
    <rect x="3" y="3" width="864" height="533.4" rx="77" fill="white" stroke="#844EA5" stroke-width="6"/>
    <path d="M281.032 252.782C276.998 252.099 273.966 254.935 271.039 256.612C266.309 259.321 264.643 257.037 248.348 256.657C239.791 256.456 232.584 256.534 225.657 256.612C223.422 256.637 217.261 254.213 210.44 256.944C209.584 257.687 208.551 258.198 207.442 258.43C207.076 258.479 206.706 258.485 206.34 258.447C206.639 261.534 207.07 265.623 207.635 270.432C208.101 274.394 208.511 277.607 208.727 279.189C209.805 287.083 210.922 293.363 211.922 299.158C213.325 307.277 215.304 319.1 217.619 334.206C218.758 335.479 220.007 336.649 221.351 337.702C224.564 340.142 228.258 341.873 232.19 342.78C232.969 342.984 234.157 343.287 235.676 343.579C244.091 344.646 252.608 344.646 261.024 343.579C262.543 343.28 263.722 342.98 264.51 342.78C268.441 341.873 272.135 340.142 275.348 337.702C276.693 336.649 277.942 335.479 279.08 334.206C281.388 319.098 283.367 307.277 284.778 299.158C285.778 293.363 286.895 287.086 287.973 279.195C288.531 275.106 288.911 271.774 289.064 270.432C289.643 265.348 290.049 260.913 290.34 257.336C289.552 256.693 288.723 256.102 287.859 255.565C285.768 254.237 283.456 253.295 281.032 252.782V252.782Z" fill="#48AB85"/>
    <path d="M275.434 245.037C269.488 242.574 263.189 241.072 256.771 240.585C251.022 239.975 245.223 239.999 239.479 240.659C233.271 241.096 227.18 242.576 221.463 245.037C215.629 247.695 205.351 253.977 206.407 258.877C206.516 259.381 206.966 260.903 213.49 263.906C219.457 266.593 225.762 268.452 232.232 269.434C237.89 270.493 243.631 271.045 249.387 271.083C256.079 271.123 262.751 270.376 269.268 268.858C275.061 267.506 280.572 265.153 285.554 261.904C289.808 259.099 290.229 257.842 290.321 257.076C290.965 251.704 278.353 246.29 275.434 245.037Z" fill="#3E705B"/>
    <path d="M286.775 271.097C286.877 271.374 270.685 281.715 248.59 282.199C225.89 282.696 208.873 272.529 208.968 272.245C221.361 278.055 234.903 280.999 248.59 280.859C261.877 280.424 274.909 277.093 286.775 271.097V271.097Z" fill="#3E705B"/>
    <path d="M275.336 257.649C270.19 255.146 264.698 253.427 259.043 252.551C254.513 251.882 249.924 251.713 245.357 252.048C241.276 252.164 237.218 252.71 233.251 253.676C228.609 254.655 224.192 256.495 220.227 259.099C218.048 260.582 216.051 262.315 214.276 264.263C216.144 265.104 218.054 265.85 219.997 266.5C219.997 266.5 222.711 267.387 225.921 268.165C226.842 268.389 227.675 268.561 228.957 268.834C230.239 269.107 230.536 269.16 230.744 269.193C231.539 269.317 231.767 269.357 232.224 269.44C232.278 269.449 238.003 270.471 242.849 270.839C243.238 270.869 243.562 270.89 243.817 270.906C244.535 270.954 246.682 271.083 249.38 271.091C253.308 271.1 256.464 270.845 257.202 270.791C260.992 270.473 263.824 269.987 264.57 269.857C264.57 269.857 267.853 269.281 271.524 268.296C272.807 267.951 273.735 267.636 273.981 267.546C274.41 267.396 274.786 267.261 275.206 267.096C276.348 266.66 277.746 266.126 279.452 265.326C281.02 264.587 282.548 263.768 284.031 262.871C281.292 260.878 278.383 259.131 275.336 257.649V257.649Z" fill="#67C7EE"/>
    <path d="M276.233 262.242C270.456 259.418 264.348 257.33 258.051 256.028C249.992 254.596 241.741 254.628 233.694 256.124C233.661 255.847 244.882 252.212 258.337 254.88C268.834 256.955 276.337 262.009 276.233 262.242Z" fill="#DEF0F8"/>
    <path d="M269.873 262.673C264.957 260.538 259.798 259.012 254.512 258.127C249.951 257.485 245.34 257.279 240.74 257.514C245.326 256.58 250.045 256.512 254.656 257.313C260.05 258.006 265.236 259.833 269.873 262.673Z" fill="#DEF0F8"/>
    <path d="M262.931 262.912C260.632 261.994 258.271 261.242 255.865 260.663C252.625 259.984 249.314 259.711 246.008 259.849C249.329 259.223 252.747 259.335 256.019 260.178C258.462 260.69 260.799 261.614 262.931 262.912V262.912Z" fill="#DEF0F8"/>
    <path d="M296.767 249.731C296.674 246.493 296.226 243.275 295.431 240.135C293.487 232.884 278.361 206.797 249.825 205.965C224.158 205.215 208.344 227.175 204.591 233.223C201.372 239.103 199.47 245.614 199.018 252.302C198.966 253.996 199.027 255.692 199.201 257.378C199.325 258.732 199.533 260.077 199.823 261.405C200.084 263.159 200.673 264.848 201.56 266.384C202.192 267.372 203.026 268.213 204.008 268.854C204.711 269.411 205.52 269.821 206.385 270.058C207.251 270.295 208.155 270.355 209.044 270.233C209.51 270.179 209.957 270.023 210.355 269.775C210.752 269.526 211.089 269.193 211.341 268.798C211.562 268.18 211.58 267.508 211.391 266.879C211.202 266.25 210.817 265.699 210.292 265.305C209.86 265.011 209.375 264.807 208.863 264.705C207.759 264.387 207.311 264.521 206.11 264.15C205.676 264.054 205.28 263.833 204.969 263.516C204.689 263.159 204.517 262.729 204.476 262.278C204.104 260.412 203.876 258.82 203.738 257.616C203.35 254.304 203.383 250.955 203.837 247.651C203.863 247.531 203.881 247.445 203.894 247.385C204.942 243.542 206.515 239.863 208.568 236.45C225.296 210.421 249.93 211.256 249.93 211.256C272.975 212.038 286.836 232.465 290.336 241.065C292.282 246.23 292.789 251.827 291.804 257.258C291.294 260.61 290.921 261.744 290.004 262.534C289.041 263.209 287.95 263.68 286.799 263.921C285.18 264.425 284.428 264.392 283.784 265.141C283.312 265.728 283.081 266.472 283.137 267.222C283.187 267.668 283.332 268.098 283.563 268.483C283.795 268.867 284.107 269.197 284.478 269.449C285.13 269.845 285.892 270.021 286.652 269.953C287.408 269.903 288.151 269.737 288.856 269.461C289.554 269.243 290.236 268.976 290.897 268.662C291.86 268.093 292.713 267.354 293.414 266.482C294.9 264.612 295.174 262.688 295.599 259.402C296.381 253.365 296.767 250.35 296.767 249.731Z" fill="#ECAE44"/>
    <path d="M250.11 204.001C245.011 203.962 239.962 205.009 235.299 207.072C234.877 207.276 234.425 207.546 234.425 207.546C234.222 207.653 234.028 207.779 233.847 207.92C233.013 208.782 235.398 214.604 236.958 214.329C237.099 214.305 237.15 214.245 237.832 213.991C237.832 213.991 238.432 213.769 239.192 213.541C240.995 212.974 242.828 212.503 244.681 212.128C247.788 211.656 250.95 211.687 254.047 212.219C257.188 212.715 260.239 213.668 263.105 215.047C263.573 215.302 264.056 215.529 264.552 215.727C264.672 215.784 264.798 215.83 264.926 215.864C266.252 215.976 267.972 209.904 267.168 209.276C267.151 209.262 267.06 209.21 266.879 209.103C266.376 208.803 266.009 208.603 265.997 208.597C261.09 205.948 255.673 204.381 250.11 204.001V204.001Z" fill="#D37F39"/>
    <path d="M270.377 340.72L270.44 340.693C267.991 340.825 264.651 340.938 260.682 340.861C256.825 340.861 252.973 340.605 249.15 340.096C243.616 339.308 240.097 338.807 236.159 336.627C233.221 334.909 230.619 332.674 228.477 330.03C224.879 325.757 223.08 321.643 219.721 311.654C216.594 302.358 214.411 294.812 212.688 288.829C211.232 283.775 209.482 277.691 207.827 271.921C208.22 275.203 208.556 277.829 208.745 279.21C209.823 287.104 210.94 293.383 211.94 299.179C213.343 307.298 215.322 319.121 217.637 334.227C218.776 335.5 220.025 336.67 221.369 337.723C224.582 340.163 228.276 341.894 232.208 342.801C232.987 343.005 234.175 343.308 235.694 343.6C244.109 344.667 252.626 344.667 261.042 343.6C262.79 343.263 264.528 342.801 264.528 342.801C266.15 342.354 267.745 341.816 269.308 341.191C269.399 341.154 269.946 340.923 270.095 340.849C270.095 340.849 270.233 340.78 270.369 340.722L270.377 340.72Z" fill="#3E705B"/>
    <path d="M238.953 291.886C238.784 292.886 238.418 293.834 237.88 294.663C237.327 295.903 236.446 296.932 235.352 297.615C234.355 298.03 233.268 298.112 232.229 297.849C231.189 297.586 230.245 296.99 229.515 296.138C228.583 295.051 228.045 293.629 228 292.138C228.039 290.96 228.341 289.811 228.879 288.791C229.417 287.771 230.175 286.911 231.087 286.286C231.776 285.695 232.583 285.292 233.441 285.11C234.3 284.928 235.186 284.972 236.026 285.239C236.905 285.742 237.614 286.54 238.051 287.517C238.81 288.812 239.129 290.359 238.953 291.886V291.886Z" fill="#1D1D1B"/>
    <path d="M269.31 294.646C268.583 295.311 267.7 295.825 266.725 296.152C265.502 296.785 264.094 297.075 262.683 296.983C261.516 296.742 260.456 296.197 259.637 295.418C258.818 294.639 258.277 293.66 258.083 292.606C257.836 291.264 258.145 289.889 258.951 288.735C259.659 287.864 260.595 287.161 261.677 286.686C262.76 286.212 263.956 285.982 265.162 286.015C266.142 285.951 267.125 286.096 268.03 286.437C268.935 286.778 269.735 287.306 270.367 287.978C270.898 288.849 271.103 289.848 270.952 290.831C270.922 292.235 270.341 293.585 269.31 294.646V294.646Z" fill="#1D1D1B"/>
    <path d="M229.621 320.262C230.408 319.746 231.296 319.413 232.224 319.287C233.438 318.904 234.738 318.904 235.953 319.287C236.92 319.771 237.725 320.536 238.265 321.487C238.806 322.437 239.058 323.53 238.989 324.627C238.902 326.026 238.318 327.345 237.347 328.337C236.528 329.063 235.548 329.574 234.491 329.824C233.434 330.075 232.333 330.057 231.285 329.773C230.695 329.633 227.927 328.974 227.17 326.737C226.904 325.753 226.951 324.707 227.306 323.752C227.652 322.348 228.472 321.112 229.621 320.262V320.262Z" fill="#1D1D1B"/>
    <path d="M261.177 329.885C260.395 329.286 259.757 328.526 259.307 327.659C258.506 326.596 258.051 325.32 258 323.999C258.134 322.887 258.601 321.84 259.343 320.989C260.084 320.138 261.065 319.522 262.163 319.219C263.564 318.833 265.06 318.961 266.372 319.578C267.369 320.137 268.213 320.926 268.828 321.879C269.443 322.831 269.812 323.916 269.901 325.041C270.072 325.943 270.021 326.873 269.754 327.752C269.487 328.632 269.011 329.437 268.366 330.101C267.496 330.694 266.456 331 265.397 330.974C263.904 331.107 262.41 330.722 261.177 329.885V329.885Z" fill="#1D1D1B"/>
    <path d="M235.039 313.968C234.124 314.063 233.2 313.948 232.333 313.632C231.103 313.41 229.967 312.809 229.072 311.906C228.436 311.028 228.066 309.974 228.008 308.878C227.95 307.781 228.206 306.691 228.745 305.746C229.432 304.54 230.518 303.636 231.802 303.203C232.834 302.935 233.914 302.932 234.947 303.197C235.98 303.461 236.936 303.984 237.73 304.719C238.433 305.246 239.006 305.94 239.4 306.742C239.795 307.544 240 308.431 240 309.332C239.804 310.331 239.306 311.24 238.579 311.925C237.666 313.016 236.413 313.739 235.039 313.968V313.968Z" fill="#1D1D1B"/>
    <path d="M265.684 303.105C266.6 303.332 267.455 303.751 268.188 304.334C269.301 304.956 270.197 305.891 270.758 307.018C271.077 308.033 271.081 309.118 270.768 310.134C270.456 311.151 269.841 312.054 269.003 312.729C267.934 313.59 266.58 314.041 265.195 313.997C264.107 313.888 263.062 313.52 262.153 312.926C261.244 312.332 260.497 311.529 259.979 310.587C259.477 309.868 259.156 309.043 259.044 308.179C258.933 307.315 259.032 306.437 259.336 305.619C259.863 304.777 260.651 304.121 261.586 303.746C262.834 303.072 264.283 302.845 265.684 303.105V303.105Z" fill="#1D1D1B"/>
    <path d="M405.03 252.781C400.996 252.097 397.964 254.934 395.037 256.61C390.307 259.319 388.641 257.036 372.347 256.655C363.79 256.454 356.583 256.532 349.656 256.61C347.421 256.636 341.26 254.211 334.44 256.943C333.583 257.685 332.551 258.197 331.441 258.429C331.076 258.478 330.706 258.483 330.339 258.445C330.639 261.532 331.07 265.621 331.635 270.431C332.101 274.392 332.51 277.605 332.726 279.187C333.804 287.081 334.921 293.361 335.921 299.156C337.325 307.275 339.304 319.097 341.619 334.202C342.757 335.475 344.006 336.645 345.35 337.699C348.564 340.139 352.258 341.869 356.189 342.777C356.969 342.981 358.156 343.283 359.675 343.576C368.09 344.642 376.607 344.642 385.022 343.576C386.541 343.276 387.721 342.976 388.508 342.777C392.439 341.869 396.133 340.139 399.346 337.699C400.691 336.645 401.939 335.475 403.078 334.202C405.386 319.095 407.365 307.275 408.775 299.156C409.776 293.361 410.892 287.084 411.97 279.193C412.528 275.104 412.909 271.773 413.062 270.431C413.641 265.347 414.047 260.912 414.338 257.334C413.55 256.692 412.721 256.1 411.857 255.564C409.765 254.236 407.454 253.294 405.03 252.781V252.781Z" fill="#48AB85"/>
    <path d="M399.432 245.036C393.486 242.573 387.187 241.071 380.77 240.584C375.021 239.974 369.222 239.998 363.479 240.658C357.27 241.095 351.18 242.575 345.463 245.036C339.629 247.694 329.351 253.976 330.407 258.876C330.516 259.379 330.966 260.901 337.49 263.904C343.456 266.591 349.761 268.451 356.231 269.432C361.889 270.491 367.63 271.043 373.386 271.081C380.077 271.121 386.75 270.374 393.267 268.856C399.059 267.504 404.57 265.151 409.552 261.903C413.806 259.098 414.227 257.841 414.319 257.075C414.963 251.703 402.351 246.289 399.432 245.036Z" fill="#3E705B"/>
    <path d="M410.773 271.095C410.875 271.372 394.684 281.713 372.588 282.197C349.889 282.694 332.873 272.527 332.968 272.243C345.36 278.053 358.902 280.997 372.588 280.857C385.875 280.422 398.907 277.091 410.773 271.095V271.095Z" fill="#3E705B"/>
    <path d="M399.334 257.648C394.188 255.144 388.696 253.426 383.041 252.55C378.512 251.88 373.922 251.711 369.356 252.046C365.275 252.163 361.217 252.708 357.25 253.675C352.609 254.654 348.191 256.493 344.226 259.098C342.048 260.581 340.05 262.314 338.275 264.261C340.144 265.102 342.053 265.849 343.996 266.498C343.996 266.498 346.71 267.386 349.92 268.164C350.841 268.387 351.674 268.56 352.956 268.833C354.238 269.105 354.535 269.158 354.744 269.191C355.538 269.315 355.766 269.356 356.223 269.438C356.277 269.447 362.002 270.47 366.847 270.837C367.237 270.867 367.561 270.888 367.816 270.905C368.534 270.953 370.681 271.081 373.378 271.089C377.307 271.098 380.463 270.843 381.2 270.789C384.99 270.471 387.823 269.985 388.568 269.855C388.568 269.855 391.851 269.279 395.522 268.294C396.805 267.949 397.733 267.635 397.979 267.545C398.408 267.395 398.784 267.26 399.204 267.095C400.346 266.659 401.744 266.125 403.45 265.324C405.018 264.586 406.546 263.767 408.029 262.87C405.29 260.877 402.38 259.129 399.334 257.648V257.648Z" fill="#67C7EE"/>
    <path d="M400.231 262.24C394.454 259.416 388.346 257.329 382.049 256.027C373.99 254.595 365.74 254.627 357.693 256.123C357.66 255.846 368.881 252.211 382.335 254.878C392.832 256.954 400.334 262.008 400.231 262.24Z" fill="#DEF0F8"/>
    <path d="M393.871 262.672C388.955 260.537 383.797 259.01 378.511 258.126C373.95 257.483 369.339 257.278 364.74 257.513C369.325 256.579 374.044 256.511 378.655 257.312C384.048 258.005 389.234 259.831 393.871 262.672Z" fill="#DEF0F8"/>
    <path d="M386.929 262.91C384.631 261.992 382.269 261.241 379.863 260.661C376.624 259.983 373.313 259.71 370.007 259.847C373.327 259.221 376.745 259.334 380.017 260.177C382.46 260.688 384.798 261.613 386.929 262.91V262.91Z" fill="#DEF0F8"/>
    <path d="M420.764 249.73C420.672 246.492 420.224 243.274 419.428 240.134C417.485 232.884 402.358 206.797 373.824 205.965C348.157 205.216 332.344 227.174 328.591 233.223C325.372 239.103 323.47 245.613 323.018 252.301C322.966 253.995 323.027 255.691 323.201 257.376C323.325 258.73 323.533 260.075 323.823 261.403C324.084 263.158 324.673 264.847 325.56 266.383C326.191 267.37 327.026 268.212 328.008 268.852C328.711 269.41 329.52 269.819 330.385 270.056C331.251 270.294 332.155 270.353 333.044 270.231C333.509 270.178 333.957 270.021 334.354 269.773C334.752 269.525 335.089 269.191 335.341 268.797C335.562 268.178 335.579 267.506 335.391 266.877C335.202 266.249 334.817 265.697 334.292 265.303C333.86 265.01 333.374 264.806 332.863 264.703C331.759 264.386 331.311 264.519 330.11 264.149C329.676 264.052 329.28 263.832 328.969 263.514C328.689 263.158 328.517 262.728 328.476 262.276C328.104 260.411 327.876 258.819 327.738 257.615C327.35 254.302 327.383 250.954 327.837 247.65C327.863 247.53 327.881 247.443 327.894 247.383C328.942 243.541 330.515 239.862 332.567 236.449C349.295 210.421 373.929 211.256 373.929 211.256C396.973 212.037 410.834 232.464 414.333 241.064C416.279 246.229 416.786 251.826 415.801 257.256C415.291 260.609 414.918 261.742 414.002 262.532C413.039 263.207 411.948 263.679 410.797 263.919C409.177 264.423 408.426 264.39 407.781 265.14C407.31 265.726 407.079 266.47 407.135 267.221C407.184 267.667 407.33 268.097 407.561 268.481C407.792 268.866 408.104 269.195 408.476 269.447C409.128 269.843 409.89 270.02 410.65 269.951C411.405 269.902 412.149 269.736 412.854 269.459C413.552 269.241 414.234 268.974 414.894 268.66C415.858 268.091 416.711 267.353 417.411 266.48C418.897 264.61 419.172 262.687 419.596 259.4C420.379 253.364 420.764 250.349 420.764 249.73Z" fill="#ECAE44"/>
    <path d="M374.109 204.001C369.01 203.962 363.961 205.009 359.298 207.072C358.876 207.276 358.424 207.545 358.424 207.545C358.221 207.653 358.027 207.778 357.846 207.92C357.012 208.782 359.397 214.604 360.957 214.328C361.098 214.304 361.149 214.244 361.831 213.991C361.831 213.991 362.43 213.769 363.191 213.541C364.994 212.974 366.826 212.502 368.68 212.127C371.786 211.656 374.949 211.687 378.046 212.219C381.186 212.715 384.238 213.668 387.103 215.046C387.571 215.302 388.054 215.529 388.55 215.727C388.67 215.784 388.796 215.829 388.925 215.864C390.25 215.976 391.97 209.904 391.166 209.276C391.15 209.262 391.058 209.21 390.877 209.103C390.374 208.803 390.007 208.602 389.995 208.596C385.088 205.948 379.671 204.381 374.109 204.001V204.001Z" fill="#D37F39"/>
    <path d="M394.375 340.717L394.438 340.69C391.989 340.822 388.649 340.934 384.68 340.858C380.824 340.857 376.972 340.602 373.149 340.093C367.615 339.304 364.096 338.804 360.158 336.624C357.22 334.906 354.618 332.671 352.477 330.027C348.878 325.754 347.079 321.64 343.721 311.651C340.593 302.355 338.41 294.809 336.687 288.827C335.232 283.773 333.482 277.689 331.827 271.92C332.219 275.202 332.555 277.827 332.744 279.208C333.822 287.102 334.939 293.381 335.939 299.177C337.343 307.296 339.322 319.118 341.637 334.223C342.775 335.496 344.024 336.666 345.368 337.72C348.582 340.16 352.276 341.89 356.207 342.798C356.986 343.002 358.174 343.304 359.693 343.597C368.108 344.663 376.625 344.663 385.04 343.597C386.788 343.26 388.526 342.798 388.526 342.798C390.148 342.35 391.744 341.813 393.306 341.187C393.397 341.15 393.944 340.919 394.093 340.846C394.093 340.846 394.231 340.777 394.367 340.718L394.375 340.717Z" fill="#3E705B"/>
    <path d="M379.546 305.248C380.021 306.137 380.294 307.119 380.347 308.125C380.645 309.46 380.534 310.854 380.028 312.125C379.439 313.122 378.568 313.922 377.524 314.423C376.48 314.925 375.31 315.105 374.164 314.941C372.701 314.731 371.364 313.995 370.404 312.871C369.709 311.933 369.255 310.839 369.08 309.685C368.906 308.531 369.017 307.352 369.403 306.251C369.603 305.628 370.528 302.716 372.95 302.09C374.007 301.888 375.102 302.028 376.074 302.49C377.519 302.974 378.748 303.95 379.546 305.248V305.248Z" fill="#1D1D1B"/>
    <path d="M157.032 252.782C152.997 252.098 149.965 254.935 147.039 256.611C142.308 259.32 140.642 257.037 124.348 256.656C115.791 256.455 108.584 256.533 101.657 256.611C99.4214 256.636 93.2607 254.212 86.4403 256.944C85.5835 257.686 84.5514 258.198 83.4416 258.43C83.0762 258.479 82.7063 258.484 82.3396 258.446C82.6395 261.533 83.0698 265.622 83.635 270.432C84.1013 274.393 84.5106 277.606 84.7265 279.188C85.8045 287.082 86.9215 293.362 87.9216 299.157C89.325 307.276 91.3041 319.098 93.619 334.204C94.7577 335.477 96.0065 336.647 97.3509 337.701C100.564 340.141 104.258 341.871 108.19 342.779C108.969 342.983 110.157 343.286 111.675 343.578C120.091 344.644 128.607 344.644 137.023 343.578C138.542 343.278 139.722 342.978 140.509 342.779C144.44 341.871 148.134 340.141 151.348 337.701C152.692 336.647 153.941 335.477 155.079 334.204C157.387 319.097 159.366 307.276 160.777 299.157C161.777 293.362 162.894 287.085 163.972 279.194C164.53 275.105 164.911 271.774 165.063 270.432C165.642 265.348 166.049 260.913 166.339 257.335C165.551 256.692 164.722 256.101 163.858 255.564C161.767 254.237 159.455 253.294 157.032 252.782V252.782Z" fill="#48AB85"/>
    <path d="M151.433 245.036C145.487 242.574 139.188 241.071 132.771 240.585C127.022 239.974 121.223 239.999 115.479 240.658C109.271 241.096 103.18 242.576 97.4632 245.036C91.6293 247.694 81.3514 253.977 82.4069 258.876C82.5164 259.38 82.9662 260.902 89.4898 263.905C95.4564 266.592 101.762 268.452 108.231 269.433C113.889 270.492 119.631 271.044 125.387 271.082C132.078 271.122 138.751 270.375 145.268 268.857C151.06 267.505 156.571 265.152 161.553 261.904C165.807 259.098 166.228 257.842 166.32 257.076C166.965 251.704 154.352 246.29 151.433 245.036Z" fill="#3E705B"/>
    <path d="M162.774 271.096C162.876 271.373 146.685 281.714 124.589 282.198C101.889 282.695 84.8735 272.528 84.9679 272.244C97.3606 278.054 110.903 280.998 124.589 280.858C137.876 280.424 150.908 277.092 162.774 271.096V271.096Z" fill="#3E705B"/>
    <path d="M151.335 257.648C146.19 255.145 140.698 253.427 135.042 252.551C130.513 251.881 125.923 251.712 121.356 252.047C117.275 252.163 113.218 252.709 109.251 253.675C104.609 254.655 100.192 256.494 96.2262 259.098C94.0479 260.581 92.0507 262.314 90.2754 264.262C92.1439 265.103 94.0534 265.85 95.9968 266.499C95.9968 266.499 98.7106 267.387 101.921 268.165C102.841 268.388 103.675 268.561 104.957 268.833C106.239 269.106 106.536 269.159 106.744 269.192C107.539 269.316 107.767 269.357 108.224 269.439C108.278 269.448 114.002 270.471 118.848 270.838C119.238 270.868 119.562 270.889 119.817 270.906C120.535 270.954 122.682 271.082 125.379 271.09C129.307 271.099 132.463 270.844 133.201 270.79C136.991 270.472 139.824 269.986 140.569 269.856C140.569 269.856 143.852 269.28 147.523 268.295C148.806 267.95 149.734 267.636 149.98 267.546C150.409 267.396 150.785 267.261 151.205 267.096C152.348 266.659 153.745 266.126 155.451 265.325C157.019 264.587 158.547 263.768 160.03 262.871C157.291 260.878 154.382 259.13 151.335 257.648V257.648Z" fill="#67C7EE"/>
    <path d="M152.232 262.241C146.455 259.417 140.347 257.33 134.05 256.028C125.991 254.595 117.74 254.628 109.693 256.124C109.66 255.846 120.881 252.212 134.336 254.879C144.833 256.954 152.336 262.009 152.232 262.241Z" fill="#DEF0F8"/>
    <path d="M145.872 262.673C140.956 260.538 135.798 259.011 130.512 258.127C125.951 257.484 121.34 257.279 116.74 257.514C121.326 256.58 126.045 256.511 130.655 257.313C136.049 258.006 141.235 259.832 145.872 262.673Z" fill="#DEF0F8"/>
    <path d="M138.93 262.911C136.632 261.993 134.27 261.242 131.864 260.662C128.625 259.984 125.314 259.71 122.007 259.848C125.328 259.222 128.746 259.335 132.018 260.178C134.461 260.689 136.799 261.614 138.93 262.911V262.911Z" fill="#DEF0F8"/>
    <path d="M172.765 249.731C172.673 246.493 172.225 243.275 171.43 240.135C169.486 232.884 154.36 206.797 125.824 205.965C100.158 205.216 84.3441 227.175 80.5913 233.223C77.3717 239.103 75.47 245.613 75.0183 252.302C74.9656 253.996 75.0267 255.691 75.2012 257.377C75.325 258.731 75.5328 260.076 75.8234 261.404C76.0843 263.158 76.6733 264.848 77.5596 266.384C78.1915 267.371 79.0261 268.213 80.008 268.853C80.7111 269.411 81.5197 269.82 82.3852 270.057C83.2507 270.294 84.1552 270.354 85.0443 270.232C85.5096 270.179 85.9572 270.022 86.3545 269.774C86.7518 269.526 87.0889 269.192 87.3413 268.797C87.5623 268.179 87.5796 267.507 87.3907 266.878C87.2019 266.25 86.8167 265.698 86.2917 265.304C85.8604 265.011 85.3745 264.807 84.8629 264.704C83.7594 264.386 83.3111 264.52 82.1101 264.15C81.6764 264.053 81.28 263.833 80.9691 263.515C80.6886 263.159 80.5173 262.729 80.4758 262.277C80.104 260.412 79.8761 258.819 79.7382 257.616C79.35 254.303 79.3832 250.955 79.8371 247.651C79.8626 247.531 79.8806 247.444 79.8941 247.384C80.9422 243.542 82.5148 239.862 84.5675 236.45C101.295 210.421 125.929 211.256 125.929 211.256C148.974 212.037 162.835 232.464 166.335 241.064C168.281 246.23 168.788 251.826 167.803 257.257C167.293 260.61 166.92 261.743 166.003 262.533C165.04 263.208 163.949 263.68 162.798 263.92C161.179 264.424 160.427 264.391 159.783 265.141C159.311 265.727 159.08 266.471 159.137 267.222C159.186 267.668 159.331 268.098 159.562 268.482C159.794 268.867 160.106 269.196 160.477 269.448C161.129 269.844 161.891 270.021 162.651 269.952C163.407 269.903 164.15 269.737 164.855 269.46C165.553 269.242 166.235 268.975 166.896 268.661C167.859 268.092 168.712 267.354 169.413 266.481C170.899 264.611 171.173 262.688 171.597 259.401C172.38 253.365 172.765 250.35 172.765 249.731Z" fill="#ECAE44"/>
    <path d="M126.11 204.001C121.011 203.962 115.962 205.009 111.299 207.072C110.876 207.276 110.425 207.545 110.425 207.545C110.221 207.653 110.028 207.779 109.846 207.92C109.013 208.782 111.398 214.604 112.957 214.328C113.098 214.304 113.149 214.244 113.832 213.991C113.832 213.991 114.431 213.769 115.191 213.541C116.995 212.974 118.827 212.502 120.68 212.127C123.787 211.656 126.95 211.687 130.047 212.219C133.187 212.715 136.239 213.668 139.104 215.047C139.572 215.302 140.056 215.529 140.551 215.727C140.672 215.784 140.797 215.83 140.926 215.864C142.251 215.976 143.971 209.904 143.167 209.276C143.151 209.262 143.059 209.21 142.878 209.103C142.376 208.803 142.008 208.602 141.996 208.596C137.09 205.948 131.672 204.381 126.11 204.001V204.001Z" fill="#D37F39"/>
    <path d="M146.376 340.719L146.439 340.692C143.99 340.824 140.65 340.936 136.681 340.86C132.825 340.859 128.973 340.604 125.15 340.095C119.616 339.306 116.097 338.806 112.158 336.626C109.221 334.908 106.619 332.673 104.477 330.029C100.879 325.755 99.0796 321.641 95.7211 311.653C92.5935 302.357 90.4104 294.811 88.6877 288.829C87.2319 283.774 85.4822 277.69 83.8269 271.921C84.2197 275.203 84.5556 277.828 84.7445 279.209C85.8225 287.103 86.9395 293.382 87.9396 299.178C89.3429 307.297 91.322 319.119 93.637 334.225C94.7757 335.498 96.0245 336.668 97.3688 337.722C100.582 340.162 104.276 341.892 108.207 342.8C108.987 343.004 110.175 343.307 111.693 343.599C120.109 344.665 128.625 344.665 137.041 343.599C138.789 343.262 140.527 342.8 140.527 342.8C142.149 342.352 143.745 341.815 145.307 341.19C145.398 341.152 145.946 340.921 146.094 340.848C146.094 340.848 146.232 340.779 146.368 340.72L146.376 340.719Z" fill="#3E705B"/>
    <path d="M131.546 305.248C132.021 306.137 132.294 307.119 132.347 308.125C132.645 309.46 132.534 310.854 132.028 312.125C131.439 313.122 130.568 313.922 129.524 314.423C128.48 314.925 127.31 315.105 126.164 314.941C124.701 314.731 123.364 313.995 122.404 312.871C121.709 311.933 121.255 310.839 121.08 309.685C120.906 308.531 121.017 307.352 121.403 306.251C121.603 305.628 122.528 302.716 124.95 302.09C126.007 301.888 127.102 302.028 128.074 302.49C129.519 302.974 130.748 303.95 131.546 305.248V305.248Z" fill="#1D1D1B"/>
    <path d="M115.449 295.482C115.265 296.482 114.863 297.43 114.273 298.258C113.667 299.499 112.702 300.528 111.502 301.211C110.409 301.626 109.218 301.708 108.078 301.445C106.939 301.182 105.904 300.586 105.103 299.733C104.082 298.646 103.492 297.225 103.443 295.734C103.485 294.556 103.816 293.407 104.406 292.387C104.996 291.366 105.827 290.506 106.827 289.882C107.582 289.291 108.466 288.888 109.408 288.706C110.349 288.524 111.32 288.568 112.241 288.834C113.205 289.338 113.982 290.136 114.461 291.113C115.293 292.408 115.643 293.954 115.449 295.482V295.482Z" fill="#1D1D1B"/>
    <path d="M149.033 298.799C148.306 299.545 147.424 300.122 146.449 300.489C145.226 301.199 143.817 301.524 142.406 301.421C141.239 301.15 140.179 300.539 139.36 299.665C138.541 298.791 138 297.693 137.806 296.51C137.559 295.006 137.868 293.463 138.674 292.168C139.382 291.191 140.318 290.402 141.4 289.87C142.483 289.338 143.68 289.079 144.885 289.116C145.865 289.045 146.848 289.208 147.753 289.59C148.658 289.973 149.459 290.566 150.09 291.319C150.621 292.296 150.826 293.417 150.675 294.519C150.645 296.094 150.064 297.609 149.033 298.799V298.799Z" fill="#1D1D1B"/>
    <path d="M105.491 317.79C106.278 317.285 107.167 316.958 108.094 316.835C109.309 316.46 110.608 316.46 111.823 316.835C112.79 317.308 113.595 318.058 114.136 318.99C114.676 319.921 114.928 320.992 114.859 322.066C114.772 323.437 114.189 324.729 113.218 325.701C112.399 326.413 111.418 326.913 110.361 327.158C109.305 327.404 108.204 327.387 107.155 327.108C106.566 326.971 103.797 326.326 103.041 324.134C102.774 323.169 102.821 322.145 103.176 321.209C103.523 319.833 104.342 318.623 105.491 317.79V317.79Z" fill="#1D1D1B"/>
    <path d="M140.711 327.431C139.929 326.821 139.291 326.047 138.841 325.163C138.04 324.08 137.585 322.781 137.534 321.435C137.668 320.302 138.136 319.235 138.877 318.368C139.618 317.501 140.599 316.874 141.697 316.565C143.098 316.172 144.594 316.302 145.906 316.931C146.904 317.5 147.747 318.305 148.362 319.275C148.977 320.245 149.346 321.351 149.435 322.496C149.606 323.415 149.555 324.362 149.289 325.258C149.022 326.155 148.546 326.975 147.9 327.651C147.03 328.255 145.99 328.567 144.931 328.541C143.438 328.676 141.945 328.283 140.711 327.431V327.431Z" fill="#1D1D1B"/>
    <path d="M653.032 252.782C648.998 252.099 645.966 254.935 643.039 256.612C638.309 259.321 636.643 257.037 620.348 256.657C611.791 256.456 604.584 256.534 597.657 256.612C595.422 256.637 589.261 254.213 582.44 256.944C581.584 257.687 580.551 258.198 579.442 258.43C579.076 258.479 578.706 258.485 578.34 258.447C578.639 261.534 579.07 265.623 579.635 270.432C580.101 274.394 580.511 277.607 580.727 279.189C581.805 287.083 582.922 293.363 583.922 299.158C585.325 307.277 587.304 319.1 589.619 334.206C590.758 335.479 592.007 336.649 593.351 337.702C596.564 340.142 600.258 341.873 604.19 342.78C604.969 342.984 606.157 343.287 607.676 343.579C616.091 344.646 624.608 344.646 633.024 343.579C634.543 343.28 635.722 342.98 636.51 342.78C640.441 341.873 644.135 340.142 647.348 337.702C648.693 336.649 649.942 335.479 651.08 334.206C653.388 319.098 655.367 307.277 656.778 299.158C657.778 293.363 658.895 287.086 659.973 279.195C660.531 275.106 660.911 271.774 661.064 270.432C661.643 265.348 662.049 260.913 662.34 257.336C661.552 256.693 660.723 256.102 659.859 255.565C657.768 254.237 655.456 253.295 653.032 252.782V252.782Z" fill="#48AB85"/>
    <path d="M647.434 245.037C641.488 242.574 635.189 241.072 628.771 240.585C623.022 239.975 617.223 239.999 611.479 240.659C605.271 241.096 599.18 242.576 593.463 245.037C587.629 247.695 577.351 253.977 578.407 258.877C578.516 259.381 578.966 260.903 585.49 263.906C591.457 266.593 597.762 268.452 604.232 269.434C609.89 270.493 615.631 271.045 621.387 271.083C628.079 271.123 634.751 270.376 641.268 268.858C647.061 267.506 652.572 265.153 657.554 261.904C661.808 259.099 662.229 257.842 662.321 257.076C662.965 251.704 650.353 246.29 647.434 245.037Z" fill="#3E705B"/>
    <path d="M658.775 271.097C658.877 271.374 642.685 281.715 620.59 282.199C597.89 282.696 580.873 272.529 580.968 272.245C593.361 278.055 606.903 280.999 620.59 280.859C633.877 280.424 646.909 277.093 658.775 271.097V271.097Z" fill="#3E705B"/>
    <path d="M647.336 257.649C642.19 255.146 636.698 253.427 631.043 252.551C626.513 251.882 621.924 251.713 617.357 252.048C613.276 252.164 609.218 252.71 605.251 253.676C600.609 254.655 596.192 256.495 592.227 259.099C590.048 260.582 588.051 262.315 586.276 264.263C588.144 265.104 590.054 265.85 591.997 266.5C591.997 266.5 594.711 267.387 597.921 268.165C598.842 268.389 599.675 268.561 600.957 268.834C602.239 269.107 602.536 269.16 602.744 269.193C603.539 269.317 603.767 269.357 604.224 269.44C604.278 269.449 610.003 270.471 614.849 270.839C615.238 270.869 615.562 270.89 615.817 270.906C616.535 270.954 618.682 271.083 621.38 271.091C625.308 271.1 628.464 270.845 629.202 270.791C632.992 270.473 635.824 269.987 636.57 269.857C636.57 269.857 639.853 269.281 643.524 268.296C644.807 267.951 645.735 267.636 645.981 267.546C646.41 267.396 646.786 267.261 647.206 267.096C648.348 266.66 649.746 266.126 651.452 265.326C653.02 264.587 654.548 263.768 656.031 262.871C653.292 260.878 650.383 259.131 647.336 257.649V257.649Z" fill="#67C7EE"/>
    <path d="M648.233 262.242C642.456 259.418 636.347 257.33 630.05 256.028C621.992 254.596 613.741 254.628 605.693 256.124C605.66 255.847 616.882 252.212 630.337 254.88C640.834 256.955 648.336 262.009 648.233 262.242Z" fill="#DEF0F8"/>
    <path d="M641.873 262.673C636.957 260.538 631.798 259.012 626.512 258.127C621.951 257.485 617.34 257.279 612.74 257.514C617.326 256.58 622.045 256.512 626.656 257.313C632.05 258.006 637.236 259.833 641.873 262.673Z" fill="#DEF0F8"/>
    <path d="M634.931 262.912C632.632 261.994 630.271 261.242 627.865 260.663C624.625 259.984 621.314 259.711 618.008 259.849C621.329 259.223 624.747 259.335 628.019 260.178C630.462 260.69 632.799 261.614 634.931 262.912V262.912Z" fill="#DEF0F8"/>
    <path d="M668.767 249.731C668.674 246.493 668.226 243.275 667.431 240.135C665.487 232.884 650.361 206.797 621.825 205.965C596.158 205.216 580.344 227.175 576.591 233.223C573.372 239.103 571.47 245.614 571.018 252.302C570.966 253.996 571.027 255.692 571.201 257.378C571.325 258.732 571.533 260.077 571.823 261.405C572.084 263.159 572.673 264.848 573.56 266.384C574.192 267.372 575.026 268.213 576.008 268.854C576.711 269.411 577.52 269.821 578.385 270.058C579.251 270.295 580.155 270.355 581.044 270.233C581.51 270.179 581.957 270.023 582.355 269.775C582.752 269.526 583.089 269.193 583.341 268.798C583.562 268.18 583.58 267.508 583.391 266.879C583.202 266.25 582.817 265.699 582.292 265.305C581.86 265.011 581.375 264.807 580.863 264.705C579.759 264.387 579.311 264.521 578.11 264.15C577.676 264.054 577.28 263.833 576.969 263.516C576.689 263.159 576.517 262.729 576.476 262.278C576.104 260.412 575.876 258.82 575.738 257.616C575.35 254.304 575.383 250.955 575.837 247.651C575.863 247.532 575.881 247.445 575.894 247.385C576.942 243.542 578.515 239.863 580.568 236.45C597.296 210.421 621.93 211.256 621.93 211.256C644.975 212.038 658.836 232.465 662.336 241.065C664.282 246.23 664.789 251.827 663.804 257.258C663.294 260.61 662.921 261.744 662.004 262.534C661.041 263.209 659.95 263.68 658.799 263.921C657.18 264.425 656.428 264.392 655.784 265.141C655.312 265.728 655.081 266.472 655.137 267.222C655.187 267.668 655.332 268.098 655.563 268.483C655.795 268.867 656.107 269.197 656.478 269.449C657.13 269.845 657.892 270.021 658.652 269.953C659.408 269.903 660.151 269.737 660.856 269.461C661.554 269.243 662.236 268.976 662.897 268.662C663.86 268.093 664.713 267.354 665.414 266.482C666.9 264.612 667.174 262.688 667.599 259.402C668.381 253.365 668.767 250.35 668.767 249.731Z" fill="#ECAE44"/>
    <path d="M622.11 204.001C617.011 203.962 611.962 205.009 607.299 207.072C606.877 207.276 606.425 207.546 606.425 207.546C606.222 207.653 606.028 207.779 605.847 207.92C605.013 208.782 607.398 214.604 608.958 214.329C609.099 214.305 609.15 214.245 609.832 213.991C609.832 213.991 610.432 213.769 611.192 213.541C612.995 212.974 614.828 212.503 616.681 212.128C619.788 211.656 622.95 211.687 626.047 212.219C629.188 212.715 632.239 213.668 635.105 215.047C635.573 215.302 636.056 215.529 636.552 215.727C636.672 215.784 636.798 215.83 636.926 215.864C638.252 215.976 639.972 209.904 639.168 209.276C639.151 209.262 639.06 209.21 638.879 209.103C638.376 208.803 638.009 208.603 637.997 208.597C633.09 205.948 627.673 204.381 622.11 204.001V204.001Z" fill="#D37F39"/>
    <path d="M642.377 340.72L642.44 340.693C639.991 340.825 636.651 340.938 632.682 340.861C628.825 340.861 624.973 340.605 621.15 340.096C615.616 339.308 612.097 338.807 608.159 336.627C605.221 334.909 602.619 332.674 600.477 330.03C596.879 325.757 595.08 321.643 591.721 311.654C588.594 302.358 586.411 294.812 584.688 288.829C583.232 283.775 581.482 277.691 579.827 271.921C580.22 275.203 580.556 277.829 580.745 279.21C581.823 287.104 582.94 293.383 583.94 299.179C585.343 307.298 587.322 319.121 589.637 334.227C590.776 335.5 592.025 336.67 593.369 337.723C596.582 340.163 600.276 341.894 604.208 342.801C604.987 343.005 606.175 343.308 607.694 343.6C616.109 344.667 624.626 344.667 633.042 343.6C634.79 343.263 636.528 342.801 636.528 342.801C638.15 342.354 639.745 341.816 641.308 341.191C641.399 341.154 641.946 340.923 642.095 340.849C642.095 340.849 642.233 340.78 642.369 340.722L642.377 340.72Z" fill="#3E705B"/>
    <path d="M627.546 305.248C628.021 306.137 628.294 307.119 628.347 308.125C628.645 309.46 628.534 310.854 628.028 312.125C627.439 313.122 626.568 313.922 625.524 314.423C624.48 314.925 623.31 315.105 622.164 314.941C620.701 314.731 619.364 313.995 618.404 312.871C617.709 311.933 617.255 310.839 617.08 309.685C616.906 308.531 617.017 307.352 617.403 306.251C617.603 305.628 618.528 302.716 620.95 302.09C622.007 301.888 623.102 302.028 624.074 302.49C625.519 302.974 626.748 303.95 627.546 305.248V305.248Z" fill="#1D1D1B"/>
    <path d="M611.449 295.482C611.265 296.482 610.863 297.43 610.273 298.258C609.667 299.499 608.702 300.528 607.502 301.211C606.409 301.626 605.218 301.708 604.078 301.445C602.939 301.182 601.904 300.586 601.103 299.733C600.082 298.646 599.492 297.225 599.443 295.734C599.485 294.556 599.816 293.407 600.406 292.387C600.996 291.366 601.827 290.506 602.827 289.882C603.582 289.291 604.466 288.888 605.408 288.706C606.349 288.524 607.32 288.568 608.241 288.834C609.205 289.338 609.982 290.136 610.461 291.113C611.293 292.408 611.643 293.954 611.449 295.482V295.482Z" fill="#1D1D1B"/>
    <path d="M636.711 327.431C635.929 326.821 635.291 326.047 634.841 325.163C634.04 324.08 633.585 322.781 633.534 321.435C633.668 320.302 634.136 319.235 634.877 318.368C635.618 317.501 636.599 316.874 637.697 316.565C639.098 316.172 640.594 316.302 641.906 316.931C642.904 317.5 643.747 318.305 644.362 319.275C644.977 320.245 645.346 321.351 645.435 322.496C645.606 323.415 645.555 324.362 645.289 325.258C645.022 326.155 644.546 326.975 643.9 327.651C643.03 328.255 641.99 328.567 640.931 328.541C639.438 328.676 637.945 328.283 636.711 327.431V327.431Z" fill="#1D1D1B"/>
    <path d="M777.03 252.781C772.996 252.097 769.964 254.934 767.037 256.61C762.307 259.319 760.641 257.036 744.347 256.655C735.79 256.454 728.583 256.532 721.656 256.61C719.421 256.636 713.26 254.211 706.44 256.943C705.583 257.685 704.551 258.197 703.441 258.429C703.076 258.478 702.706 258.483 702.339 258.445C702.639 261.532 703.07 265.621 703.635 270.431C704.101 274.392 704.51 277.605 704.726 279.187C705.804 287.081 706.921 293.361 707.921 299.156C709.325 307.275 711.304 319.097 713.619 334.202C714.757 335.475 716.006 336.645 717.35 337.699C720.564 340.139 724.258 341.869 728.189 342.777C728.969 342.981 730.156 343.283 731.675 343.576C740.09 344.642 748.607 344.642 757.022 343.576C758.541 343.276 759.721 342.976 760.508 342.777C764.439 341.869 768.133 340.139 771.346 337.699C772.691 336.645 773.939 335.475 775.078 334.202C777.386 319.095 779.365 307.275 780.775 299.156C781.776 293.361 782.892 287.084 783.97 279.193C784.528 275.104 784.909 271.773 785.062 270.431C785.641 265.347 786.047 260.912 786.338 257.334C785.55 256.692 784.721 256.1 783.857 255.564C781.765 254.236 779.454 253.294 777.03 252.781V252.781Z" fill="#48AB85"/>
    <path d="M771.432 245.036C765.486 242.573 759.187 241.071 752.77 240.584C747.021 239.974 741.222 239.998 735.479 240.658C729.27 241.095 723.18 242.575 717.463 245.036C711.629 247.694 701.351 253.976 702.407 258.876C702.516 259.379 702.966 260.901 709.49 263.904C715.456 266.591 721.761 268.451 728.231 269.432C733.889 270.491 739.63 271.043 745.386 271.081C752.077 271.121 758.75 270.374 765.267 268.856C771.059 267.504 776.57 265.151 781.552 261.903C785.806 259.098 786.227 257.841 786.319 257.075C786.963 251.703 774.351 246.289 771.432 245.036Z" fill="#3E705B"/>
    <path d="M782.773 271.095C782.875 271.372 766.684 281.713 744.588 282.197C721.889 282.694 704.873 272.527 704.968 272.243C717.36 278.053 730.902 280.997 744.588 280.857C757.875 280.422 770.907 277.091 782.773 271.095V271.095Z" fill="#3E705B"/>
    <path d="M771.334 257.648C766.188 255.144 760.696 253.426 755.041 252.55C750.512 251.88 745.922 251.711 741.356 252.046C737.275 252.163 733.217 252.708 729.25 253.675C724.609 254.654 720.191 256.493 716.226 259.098C714.048 260.581 712.05 262.314 710.275 264.261C712.144 265.102 714.053 265.849 715.996 266.498C715.996 266.498 718.71 267.386 721.92 268.164C722.841 268.387 723.674 268.56 724.956 268.833C726.238 269.105 726.535 269.158 726.744 269.191C727.538 269.315 727.766 269.356 728.223 269.438C728.277 269.447 734.002 270.47 738.847 270.837C739.237 270.867 739.561 270.888 739.816 270.905C740.534 270.953 742.681 271.081 745.378 271.089C749.307 271.098 752.463 270.843 753.2 270.789C756.99 270.471 759.823 269.985 760.568 269.855C760.568 269.855 763.851 269.279 767.522 268.294C768.805 267.949 769.733 267.635 769.979 267.545C770.408 267.395 770.784 267.26 771.204 267.095C772.346 266.659 773.744 266.125 775.45 265.324C777.018 264.586 778.546 263.767 780.029 262.87C777.29 260.877 774.38 259.129 771.334 257.648V257.648Z" fill="#67C7EE"/>
    <path d="M772.231 262.24C766.454 259.416 760.346 257.329 754.049 256.027C745.99 254.595 737.74 254.627 729.693 256.123C729.66 255.846 740.881 252.211 754.335 254.878C764.832 256.954 772.334 262.008 772.231 262.24Z" fill="#DEF0F8"/>
    <path d="M765.871 262.672C760.955 260.537 755.797 259.01 750.511 258.126C745.95 257.483 741.339 257.278 736.74 257.513C741.325 256.579 746.044 256.511 750.655 257.312C756.048 258.005 761.234 259.831 765.871 262.672Z" fill="#DEF0F8"/>
    <path d="M758.929 262.91C756.63 261.992 754.269 261.241 751.863 260.661C748.624 259.983 745.313 259.71 742.006 259.847C745.327 259.221 748.745 259.334 752.017 260.177C754.46 260.688 756.797 261.613 758.929 262.91V262.91Z" fill="#DEF0F8"/>
    <path d="M792.764 249.73C792.672 246.492 792.224 243.274 791.428 240.134C789.485 232.884 774.358 206.797 745.824 205.965C720.157 205.216 704.344 227.174 700.591 233.223C697.372 239.103 695.47 245.613 695.018 252.301C694.966 253.995 695.027 255.691 695.201 257.376C695.325 258.73 695.533 260.075 695.823 261.403C696.084 263.158 696.673 264.847 697.56 266.383C698.191 267.37 699.026 268.212 700.008 268.852C700.711 269.41 701.52 269.819 702.385 270.056C703.251 270.294 704.155 270.353 705.044 270.231C705.509 270.178 705.957 270.021 706.354 269.773C706.752 269.525 707.089 269.191 707.341 268.797C707.562 268.178 707.579 267.506 707.391 266.877C707.202 266.249 706.817 265.697 706.292 265.303C705.86 265.01 705.374 264.806 704.863 264.703C703.759 264.386 703.311 264.519 702.11 264.149C701.676 264.052 701.28 263.832 700.969 263.514C700.689 263.158 700.517 262.728 700.476 262.276C700.104 260.411 699.876 258.819 699.738 257.615C699.35 254.302 699.383 250.954 699.837 247.65C699.863 247.53 699.881 247.443 699.894 247.383C700.942 243.541 702.515 239.862 704.567 236.449C721.295 210.421 745.929 211.256 745.929 211.256C768.973 212.037 782.834 232.464 786.333 241.064C788.279 246.229 788.786 251.826 787.801 257.256C787.291 260.609 786.918 261.742 786.002 262.532C785.039 263.207 783.948 263.679 782.797 263.919C781.177 264.423 780.426 264.39 779.781 265.14C779.31 265.726 779.079 266.47 779.135 267.221C779.184 267.667 779.33 268.097 779.561 268.481C779.792 268.866 780.104 269.195 780.476 269.447C781.128 269.843 781.89 270.02 782.65 269.951C783.405 269.902 784.149 269.736 784.854 269.459C785.552 269.241 786.234 268.974 786.894 268.66C787.858 268.091 788.711 267.353 789.411 266.48C790.897 264.61 791.172 262.687 791.596 259.4C792.379 253.364 792.764 250.349 792.764 249.73Z" fill="#ECAE44"/>
    <path d="M746.109 204.001C741.01 203.962 735.961 205.009 731.298 207.072C730.876 207.276 730.424 207.545 730.424 207.545C730.221 207.653 730.027 207.778 729.846 207.92C729.012 208.782 731.397 214.604 732.957 214.328C733.098 214.304 733.149 214.244 733.831 213.991C733.831 213.991 734.43 213.769 735.191 213.541C736.994 212.974 738.826 212.502 740.68 212.127C743.786 211.656 746.949 211.687 750.046 212.219C753.186 212.715 756.238 213.668 759.103 215.046C759.571 215.302 760.054 215.529 760.55 215.727C760.67 215.784 760.796 215.829 760.925 215.864C762.25 215.976 763.97 209.904 763.166 209.276C763.15 209.262 763.058 209.21 762.877 209.103C762.374 208.803 762.007 208.602 761.995 208.596C757.088 205.948 751.671 204.381 746.109 204.001V204.001Z" fill="#D37F39"/>
    <path d="M766.375 340.717L766.438 340.69C763.989 340.822 760.649 340.934 756.68 340.858C752.824 340.857 748.972 340.602 745.149 340.093C739.615 339.304 736.096 338.804 732.158 336.624C729.22 334.906 726.618 332.671 724.477 330.027C720.878 325.754 719.079 321.64 715.721 311.651C712.593 302.355 710.41 294.809 708.687 288.827C707.232 283.773 705.482 277.689 703.827 271.92C704.219 275.202 704.555 277.827 704.744 279.208C705.822 287.102 706.939 293.381 707.939 299.177C709.343 307.296 711.322 319.118 713.637 334.223C714.775 335.496 716.024 336.666 717.368 337.72C720.582 340.16 724.276 341.89 728.207 342.798C728.986 343.002 730.174 343.304 731.693 343.597C740.108 344.663 748.625 344.663 757.04 343.597C758.788 343.26 760.526 342.798 760.526 342.798C762.148 342.35 763.744 341.813 765.306 341.187C765.397 341.15 765.944 340.919 766.093 340.846C766.093 340.846 766.231 340.777 766.367 340.718L766.375 340.717Z" fill="#3E705B"/>
    <path d="M735.449 295.482C735.265 296.482 734.863 297.43 734.273 298.258C733.667 299.499 732.702 300.528 731.502 301.211C730.409 301.626 729.218 301.708 728.078 301.445C726.939 301.182 725.904 300.586 725.103 299.733C724.082 298.646 723.492 297.225 723.443 295.734C723.485 294.556 723.816 293.407 724.406 292.387C724.996 291.366 725.827 290.506 726.827 289.882C727.582 289.291 728.466 288.888 729.408 288.706C730.349 288.524 731.32 288.568 732.241 288.834C733.205 289.338 733.982 290.136 734.461 291.113C735.293 292.408 735.643 293.954 735.449 295.482V295.482Z" fill="#1D1D1B"/>
    <path d="M769.033 298.799C768.306 299.545 767.424 300.122 766.449 300.489C765.226 301.199 763.817 301.524 762.406 301.421C761.239 301.15 760.179 300.539 759.36 299.665C758.541 298.791 758 297.693 757.806 296.51C757.559 295.006 757.868 293.463 758.674 292.168C759.382 291.191 760.318 290.402 761.4 289.87C762.483 289.338 763.68 289.079 764.885 289.116C765.865 289.045 766.848 289.208 767.753 289.59C768.658 289.973 769.459 290.566 770.09 291.319C770.621 292.296 770.826 293.417 770.675 294.519C770.645 296.094 770.064 297.609 769.033 298.799V298.799Z" fill="#1D1D1B"/>
    <path d="M725.491 317.79C726.278 317.285 727.167 316.958 728.094 316.835C729.309 316.46 730.608 316.46 731.823 316.835C732.79 317.308 733.595 318.058 734.136 318.99C734.676 319.921 734.928 320.992 734.859 322.066C734.772 323.437 734.189 324.729 733.218 325.701C732.399 326.413 731.418 326.913 730.361 327.158C729.305 327.404 728.204 327.387 727.155 327.108C726.566 326.971 723.797 326.326 723.041 324.134C722.774 323.169 722.821 322.145 723.176 321.209C723.523 319.833 724.342 318.623 725.491 317.79V317.79Z" fill="#1D1D1B"/>
    <path d="M760.711 327.431C759.929 326.821 759.291 326.047 758.841 325.163C758.04 324.08 757.585 322.781 757.534 321.435C757.668 320.302 758.136 319.235 758.877 318.368C759.618 317.501 760.599 316.874 761.697 316.565C763.098 316.172 764.594 316.302 765.906 316.931C766.904 317.5 767.747 318.305 768.362 319.275C768.977 320.245 769.346 321.351 769.435 322.496C769.606 323.415 769.555 324.362 769.289 325.258C769.022 326.155 768.546 326.975 767.9 327.651C767.03 328.255 765.99 328.567 764.931 328.541C763.438 328.676 761.945 328.283 760.711 327.431V327.431Z" fill="#1D1D1B"/>
</svg>
