<svg width="870" height="540" viewBox="0 0 870 540" fill="none" xmlns="http://www.w3.org/2000/svg">
<rect x="2.5" y="2.5" width="865" height="534.4" rx="77.5" fill="#F3F3F3" stroke="#83C1CA" stroke-width="5"/>
<path d="M132.568 221.883C127.727 221.062 124.089 224.466 120.577 226.478C114.901 229.729 112.902 226.989 93.3485 226.532C83.0806 226.291 74.432 226.384 66.1199 226.478C63.4373 226.508 56.0446 223.599 47.8602 226.877C46.8321 227.768 45.5935 228.382 44.2618 228.66C43.8234 228.719 43.3795 228.726 42.9395 228.68C43.2993 232.384 43.8156 237.291 44.4939 243.062C45.0535 247.816 45.5446 251.672 45.8037 253.57C47.0973 263.042 48.4377 270.579 49.6377 277.533C51.3218 287.275 53.6967 301.462 56.4746 319.588C57.841 321.116 59.3395 322.52 60.9527 323.784C64.8085 326.712 69.2414 328.789 73.9589 329.878C74.8944 330.122 76.3194 330.486 78.1419 330.837C88.2405 332.116 98.4601 332.116 108.559 330.837C110.381 330.477 111.797 330.117 112.742 329.878C117.459 328.789 121.892 326.712 125.748 323.784C127.361 322.52 128.86 321.116 130.226 319.588C132.995 301.46 135.37 287.275 137.063 277.533C138.263 270.579 139.603 263.046 140.897 253.577C141.566 248.671 142.023 244.673 142.207 243.062C142.901 236.962 143.389 231.64 143.738 227.347C142.792 226.576 141.797 225.866 140.76 225.222C138.251 223.629 135.476 222.498 132.568 221.883Z" fill="#48AB85"/>
<path d="M125.851 212.588C118.716 209.634 111.157 207.831 103.456 207.247C96.5576 206.514 89.599 206.544 82.7067 207.335C75.2566 207.86 67.9482 209.636 61.0879 212.588C54.0873 215.778 41.754 223.317 43.0207 229.196C43.152 229.801 43.6918 231.627 51.5199 235.231C58.6798 238.455 66.2461 240.686 74.0095 241.864C80.7989 243.135 87.6883 243.798 94.5955 243.843C102.625 243.891 110.632 242.995 118.452 241.173C125.403 239.551 132.016 236.727 137.995 232.829C143.099 229.463 143.605 227.955 143.715 227.036C144.488 220.589 129.354 214.092 125.851 212.588Z" fill="#3E705B"/>
<path d="M139.46 243.86C139.582 244.192 120.153 256.601 93.6385 257.182C66.3991 257.778 45.9804 245.578 46.0937 245.238C60.9648 252.21 77.2151 255.742 93.6385 255.574C109.583 255.053 125.221 251.055 139.46 243.86Z" fill="#3E705B"/>
<path d="M125.734 227.723C119.559 224.719 112.969 222.657 106.182 221.606C100.747 220.802 95.2394 220.599 89.7596 221.001C84.8623 221.141 79.9932 221.796 75.2331 222.955C69.6631 224.13 64.3621 226.338 59.6038 229.463C56.9898 231.242 54.5932 233.322 52.4629 235.659C54.705 236.668 56.9965 237.564 59.3285 238.343C59.3285 238.343 62.585 239.408 66.437 240.342C67.5417 240.61 68.542 240.817 70.0803 241.145C71.6186 241.472 71.9748 241.535 72.2249 241.575C73.1785 241.724 73.452 241.773 74.0007 241.871C74.0655 241.882 80.9347 243.109 86.7496 243.55C87.2174 243.586 87.606 243.611 87.9118 243.631C88.7736 243.689 91.3501 243.843 94.5868 243.852C99.3006 243.863 103.088 243.557 103.973 243.493C108.521 243.111 111.92 242.528 112.814 242.372C112.814 242.372 116.754 241.681 121.159 240.499C122.699 240.085 123.812 239.707 124.107 239.599C124.622 239.419 125.074 239.257 125.577 239.059C126.948 238.536 128.625 237.895 130.673 236.935C132.554 236.049 134.388 235.066 136.167 233.989C132.88 231.598 129.389 229.501 125.734 227.723Z" fill="#67C7EE"/>
<path d="M126.81 233.234C119.878 229.845 112.547 227.34 104.991 225.778C95.321 224.059 85.4201 224.098 75.7638 225.893C75.7242 225.56 89.1891 221.199 105.335 224.4C117.931 226.89 126.934 232.955 126.81 233.234Z" fill="#DEF0F8"/>
<path d="M119.178 233.752C113.278 231.19 107.088 229.358 100.745 228.297C95.2727 227.525 89.739 227.279 84.2197 227.561C89.722 226.44 95.3854 226.358 100.918 227.32C107.39 228.151 113.613 230.343 119.178 233.752Z" fill="#DEF0F8"/>
<path d="M110.847 234.038C108.089 232.937 105.255 232.035 102.368 231.339C98.4808 230.525 94.5078 230.197 90.54 230.362C94.5249 229.611 98.6263 229.746 102.553 230.758C105.484 231.372 108.289 232.481 110.847 234.038Z" fill="#DEF0F8"/>
<path d="M119.782 327.406L119.858 327.373C116.92 327.532 112.911 327.666 108.149 327.575C103.521 327.574 98.8986 327.268 94.3114 326.657C87.6707 325.711 83.448 325.11 78.7216 322.494C75.1972 320.432 72.0746 317.75 69.5045 314.578C65.1865 309.45 63.0275 304.513 58.9974 292.527C55.2443 281.372 52.6247 272.317 50.5575 265.138C48.8105 259.073 46.7109 251.772 44.7246 244.849C45.196 248.787 45.599 251.938 45.8257 253.595C47.1193 263.067 48.4597 270.602 49.6597 277.558C51.3437 287.3 53.7186 301.487 56.4965 319.613C57.863 321.141 59.3615 322.545 60.9747 323.809C64.8304 326.737 69.2634 328.814 73.9808 329.903C74.9164 330.148 76.3413 330.511 78.1639 330.862C88.2624 332.141 98.482 332.141 108.581 330.862C110.678 330.457 112.764 329.903 112.764 329.903C114.71 329.366 116.625 328.721 118.499 327.971C118.609 327.926 119.266 327.649 119.444 327.56C119.444 327.56 119.609 327.478 119.773 327.407L119.782 327.406Z" fill="#3E705B"/>
<path d="M103.138 284.063C103.821 285.343 104.214 286.757 104.29 288.205C104.72 290.128 104.561 292.135 103.832 293.966C102.984 295.401 101.728 296.553 100.225 297.275C98.7218 297.997 97.0381 298.257 95.3872 298.021C93.28 297.718 91.3552 296.659 89.9723 295.04C88.9719 293.689 88.3177 292.114 88.0666 290.452C87.8156 288.79 87.9754 287.092 88.5321 285.506C88.8202 284.611 90.1508 280.417 93.6389 279.515C95.1616 279.224 96.7376 279.426 98.1379 280.091C100.219 280.788 101.989 282.194 103.138 284.063Z" fill="#1D1D1B"/>
<path d="M405.86 221.883C401.019 221.063 397.381 224.467 393.869 226.478C388.192 229.729 386.193 226.989 366.639 226.532C356.371 226.291 347.722 226.385 339.41 226.478C336.727 226.509 329.334 223.6 321.15 226.878C320.122 227.769 318.883 228.382 317.551 228.661C317.113 228.72 316.669 228.726 316.229 228.681C316.589 232.385 317.105 237.292 317.784 243.063C318.343 247.817 318.834 251.673 319.093 253.571C320.387 263.044 321.727 270.581 322.927 277.535C324.612 287.277 326.986 301.464 329.764 319.591C331.131 321.119 332.629 322.523 334.243 323.787C338.099 326.715 342.532 328.792 347.249 329.881C348.185 330.126 349.61 330.489 351.432 330.84C361.531 332.119 371.751 332.119 381.85 330.84C383.672 330.48 385.088 330.12 386.033 329.881C390.751 328.792 395.184 326.715 399.04 323.787C400.653 322.523 402.151 321.119 403.518 319.591C406.287 301.462 408.662 287.277 410.355 277.535C411.555 270.581 412.895 263.047 414.189 253.578C414.858 248.672 415.315 244.674 415.499 243.063C416.193 236.962 416.681 231.64 417.03 227.347C416.084 226.576 415.089 225.866 414.052 225.222C411.543 223.629 408.768 222.498 405.86 221.883Z" fill="#48AB85"/>
<path d="M399.142 212.588C392.007 209.634 384.448 207.831 376.748 207.247C369.849 206.514 362.89 206.544 355.997 207.335C348.547 207.86 341.238 209.636 334.378 212.588C327.377 215.778 315.044 223.317 316.31 229.197C316.442 229.801 316.981 231.628 324.81 235.231C331.97 238.456 339.536 240.687 347.3 241.865C354.089 243.136 360.979 243.799 367.886 243.844C375.916 243.892 383.924 242.996 391.744 241.174C398.695 239.552 405.308 236.728 411.287 232.83C416.391 229.463 416.897 227.955 417.007 227.036C417.78 220.589 402.645 214.093 399.142 212.588Z" fill="#3E705B"/>
<path d="M412.752 243.861C412.874 244.193 393.444 256.603 366.929 257.184C339.689 257.779 319.27 245.579 319.383 245.239C334.255 252.211 350.506 255.744 366.929 255.575C382.874 255.054 398.513 251.056 412.752 243.861Z" fill="#3E705B"/>
<path d="M399.025 227.723C392.85 224.719 386.26 222.657 379.473 221.606C374.038 220.802 368.53 220.6 363.05 221.002C358.153 221.141 353.284 221.796 348.523 222.955C342.953 224.131 337.652 226.338 332.894 229.463C330.279 231.243 327.883 233.323 325.752 235.66C327.995 236.669 330.286 237.565 332.618 238.344C332.618 238.344 335.875 239.409 339.727 240.343C340.832 240.611 341.832 240.818 343.37 241.146C344.909 241.473 345.265 241.536 345.515 241.576C346.469 241.725 346.742 241.773 347.291 241.872C347.356 241.883 354.225 243.11 360.04 243.551C360.508 243.587 360.896 243.612 361.202 243.632C362.064 243.69 364.641 243.844 367.877 243.853C372.591 243.864 376.379 243.558 377.264 243.493C381.812 243.112 385.211 242.529 386.105 242.373C386.105 242.373 390.046 241.682 394.45 240.5C395.99 240.086 397.104 239.708 397.399 239.6C397.913 239.42 398.365 239.258 398.869 239.06C400.24 238.537 401.917 237.896 403.964 236.935C405.846 236.049 407.68 235.066 409.459 233.99C406.172 231.598 402.681 229.501 399.025 227.723Z" fill="#67C7EE"/>
<path d="M400.101 233.234C393.169 229.846 385.838 227.341 378.282 225.778C368.612 224.06 358.71 224.099 349.054 225.894C349.014 225.561 362.48 221.199 378.626 224.4C391.222 226.89 400.225 232.955 400.101 233.234Z" fill="#DEF0F8"/>
<path d="M392.469 233.753C386.57 231.191 380.379 229.359 374.036 228.297C368.563 227.526 363.03 227.28 357.51 227.561C363.013 226.441 368.676 226.359 374.209 227.32C380.681 228.152 386.904 230.344 392.469 233.753Z" fill="#DEF0F8"/>
<path d="M384.139 234.039C381.38 232.937 378.547 232.035 375.659 231.34C371.772 230.526 367.799 230.198 363.831 230.363C367.816 229.612 371.917 229.747 375.844 230.759C378.776 231.372 381.581 232.481 384.139 234.039Z" fill="#DEF0F8"/>
<path d="M393.074 327.409L393.149 327.376C390.211 327.535 386.203 327.67 381.44 327.578C376.812 327.578 372.19 327.271 367.602 326.66C360.961 325.714 356.739 325.113 352.012 322.497C348.488 320.435 345.365 317.753 342.795 314.58C338.477 309.453 336.318 304.516 332.287 292.529C328.534 281.374 325.915 272.319 323.847 265.14C322.1 259.075 320 251.773 318.014 244.85C318.486 248.789 318.889 251.939 319.115 253.596C320.409 263.069 321.749 270.604 322.949 277.56C324.633 287.303 327.008 301.489 329.786 319.616C331.153 321.144 332.651 322.548 334.265 323.812C338.121 326.74 342.554 328.817 347.271 329.906C348.207 330.151 349.632 330.514 351.454 330.865C361.553 332.144 371.773 332.144 381.872 330.865C383.97 330.46 386.055 329.906 386.055 329.906C388.001 329.369 389.916 328.724 391.791 327.974C391.901 327.929 392.557 327.652 392.735 327.563C392.735 327.563 392.901 327.481 393.065 327.411L393.074 327.409Z" fill="#3E705B"/>
<path d="M371.808 284.422C372.491 285.702 372.884 287.116 372.961 288.564C373.391 290.487 373.231 292.494 372.503 294.325C371.654 295.76 370.399 296.912 368.896 297.634C367.392 298.356 365.709 298.616 364.058 298.38C361.95 298.077 360.026 297.018 358.643 295.399C357.642 294.048 356.988 292.473 356.737 290.811C356.486 289.149 356.646 287.451 357.203 285.865C357.491 284.97 358.821 280.776 362.309 279.874C363.832 279.583 365.408 279.785 366.808 280.45C368.889 281.147 370.659 282.553 371.808 284.422Z" fill="#1D1D1B"/>
<path d="M349.911 270.46C349.645 271.901 349.067 273.265 348.217 274.459C347.345 276.245 345.955 277.726 344.228 278.71C342.654 279.308 340.938 279.425 339.297 279.047C337.656 278.668 336.165 277.81 335.013 276.583C333.542 275.017 332.692 272.97 332.622 270.823C332.683 269.128 333.16 267.473 334.009 266.003C334.859 264.534 336.056 263.296 337.495 262.396C338.582 261.546 339.856 260.965 341.211 260.703C342.567 260.441 343.965 260.504 345.291 260.888C346.679 261.613 347.799 262.763 348.488 264.169C349.686 266.034 350.19 268.261 349.911 270.46Z" fill="#1D1D1B"/>
<path d="M383.997 316.112C382.871 315.234 381.952 314.119 381.304 312.847C380.151 311.287 379.495 309.416 379.422 307.478C379.615 305.847 380.288 304.31 381.355 303.062C382.422 301.814 383.836 300.91 385.417 300.466C387.434 299.899 389.588 300.087 391.477 300.993C392.914 301.812 394.128 302.971 395.014 304.367C395.9 305.764 396.431 307.357 396.559 309.006C396.805 310.33 396.732 311.693 396.348 312.984C395.964 314.275 395.278 315.455 394.348 316.429C393.096 317.299 391.599 317.748 390.074 317.711C387.924 317.905 385.773 317.34 383.997 316.112Z" fill="#1D1D1B"/>
<path d="M679.488 221.883C674.646 221.063 671.008 224.467 667.496 226.478C661.82 229.729 659.821 226.989 640.267 226.532C629.999 226.291 621.35 226.385 613.038 226.478C610.356 226.509 602.963 223.599 594.778 226.877C593.75 227.768 592.512 228.382 591.18 228.66C590.741 228.719 590.297 228.726 589.857 228.68C590.217 232.385 590.734 237.291 591.412 243.063C591.971 247.816 592.463 251.672 592.722 253.57C594.015 263.043 595.356 270.58 596.556 277.534C598.24 287.276 600.615 301.463 603.393 319.59C604.759 321.117 606.258 322.521 607.871 323.786C611.727 326.714 616.16 328.791 620.877 329.879C621.813 330.124 623.238 330.488 625.06 330.838C635.159 332.118 645.379 332.118 655.478 330.838C657.3 330.479 658.716 330.119 659.661 329.879C664.378 328.791 668.811 326.714 672.667 323.786C674.28 322.521 675.779 321.117 677.145 319.59C679.914 301.461 682.289 287.276 683.982 277.534C685.182 270.58 686.523 263.047 687.816 253.578C688.486 248.671 688.943 244.673 689.126 243.063C689.821 236.962 690.308 231.64 690.657 227.347C689.711 226.576 688.717 225.866 687.68 225.222C685.17 223.629 682.396 222.498 679.488 221.883Z" fill="#48AB85"/>
<path d="M672.77 212.588C665.635 209.634 658.076 207.831 650.375 207.247C643.476 206.514 636.518 206.544 629.625 207.335C622.175 207.86 614.867 209.636 608.006 212.588C601.005 215.778 588.672 223.317 589.939 229.197C590.07 229.801 590.61 231.627 598.438 235.231C605.598 238.455 613.164 240.687 620.928 241.865C627.717 243.136 634.607 243.798 641.514 243.844C649.544 243.891 657.551 242.995 665.372 241.174C672.322 239.551 678.936 236.727 684.914 232.829C690.019 229.463 690.524 227.955 690.634 227.036C691.408 220.589 676.273 214.092 672.77 212.588Z" fill="#3E705B"/>
<path d="M686.379 243.86C686.501 244.193 667.072 256.602 640.557 257.183C613.317 257.779 592.898 245.578 593.012 245.238C607.883 252.21 624.134 255.743 640.557 255.575C656.502 255.053 672.14 251.055 686.379 243.86Z" fill="#3E705B"/>
<path d="M672.653 227.723C666.478 224.719 659.887 222.657 653.101 221.606C647.666 220.802 642.158 220.599 636.678 221.001C631.781 221.141 626.912 221.796 622.151 222.955C616.581 224.131 611.28 226.338 606.522 229.463C603.908 231.243 601.511 233.322 599.381 235.659C601.623 236.669 603.914 237.564 606.247 238.344C606.247 238.344 609.503 239.409 613.355 240.343C614.46 240.611 615.46 240.818 616.999 241.145C618.537 241.473 618.893 241.536 619.143 241.575C620.097 241.724 620.37 241.773 620.919 241.872C620.984 241.883 627.853 243.11 633.668 243.551C634.136 243.587 634.524 243.612 634.83 243.632C635.692 243.689 638.269 243.844 641.505 243.853C646.219 243.864 650.007 243.558 650.892 243.493C655.44 243.112 658.839 242.529 659.733 242.372C659.733 242.372 663.673 241.681 668.078 240.499C669.618 240.085 670.731 239.708 671.027 239.6C671.541 239.42 671.993 239.258 672.496 239.06C673.867 238.536 675.544 237.896 677.592 236.935C679.473 236.049 681.307 235.066 683.087 233.99C679.8 231.598 676.308 229.501 672.653 227.723Z" fill="#67C7EE"/>
<path d="M673.729 233.234C666.797 229.845 659.466 227.34 651.91 225.778C642.24 224.059 632.339 224.098 622.682 225.893C622.643 225.56 636.108 221.199 652.254 224.4C664.85 226.89 673.853 232.955 673.729 233.234Z" fill="#DEF0F8"/>
<path d="M666.097 233.752C660.197 231.19 654.007 229.358 647.664 228.297C642.191 227.526 636.658 227.279 631.138 227.561C636.641 226.44 642.304 226.359 647.836 227.32C654.309 228.152 660.532 230.344 666.097 233.752Z" fill="#DEF0F8"/>
<path d="M657.766 234.038C655.008 232.937 652.174 232.035 649.287 231.34C645.4 230.526 641.427 230.197 637.459 230.363C641.444 229.611 645.545 229.747 649.472 230.758C652.403 231.372 655.208 232.481 657.766 234.038Z" fill="#DEF0F8"/>
<path d="M666.701 327.407L666.777 327.375C663.839 327.533 659.83 327.668 655.068 327.577C650.44 327.576 645.817 327.27 641.23 326.659C634.589 325.713 630.367 325.112 625.64 322.496C622.116 320.434 618.993 317.752 616.423 314.579C612.105 309.451 609.946 304.514 605.916 292.528C602.162 281.373 599.543 272.318 597.476 265.139C595.729 259.074 593.629 251.773 591.643 244.85C592.114 248.788 592.517 251.938 592.744 253.596C594.037 263.068 595.378 270.603 596.578 277.559C598.262 287.302 600.637 301.488 603.415 319.615C604.781 321.143 606.28 322.547 607.893 323.811C611.749 326.739 616.182 328.816 620.899 329.905C621.835 330.149 623.26 330.513 625.082 330.864C635.181 332.143 645.401 332.143 655.5 330.864C657.597 330.459 659.683 329.905 659.683 329.905C661.629 329.368 663.544 328.723 665.418 327.972C665.528 327.927 666.185 327.65 666.363 327.562C666.363 327.562 666.529 327.479 666.692 327.409L666.701 327.407Z" fill="#3E705B"/>
<path d="M651.693 284.183C652.375 285.462 652.769 286.876 652.845 288.325C653.275 290.247 653.115 292.255 652.387 294.085C651.538 295.521 650.283 296.672 648.78 297.394C647.276 298.116 645.593 298.376 643.942 298.141C641.835 297.838 639.91 296.778 638.527 295.159C637.527 293.809 636.872 292.234 636.621 290.572C636.37 288.91 636.53 287.212 637.087 285.626C637.375 284.73 638.706 280.536 642.194 279.635C643.716 279.343 645.292 279.545 646.693 280.211C648.774 280.907 650.543 282.313 651.693 284.183Z" fill="#1D1D1B"/>
<path d="M632.113 271.318C631.847 272.759 631.269 274.124 630.419 275.317C629.547 277.103 628.156 278.585 626.429 279.568C624.855 280.166 623.139 280.284 621.499 279.905C619.858 279.526 618.367 278.669 617.215 277.441C615.744 275.876 614.894 273.828 614.823 271.682C614.885 269.986 615.361 268.331 616.211 266.862C617.061 265.393 618.257 264.154 619.696 263.255C620.784 262.404 622.057 261.824 623.413 261.561C624.768 261.299 626.167 261.363 627.493 261.747C628.881 262.472 630.001 263.621 630.689 265.027C631.887 266.892 632.391 269.119 632.113 271.318Z" fill="#1D1D1B"/>
<path d="M672.073 274.896C671.026 275.97 669.756 276.8 668.352 277.328C666.591 278.351 664.562 278.819 662.531 278.671C660.85 278.282 659.323 277.401 658.144 276.142C656.964 274.883 656.186 273.302 655.906 271.6C655.551 269.433 655.996 267.211 657.157 265.347C658.175 263.94 659.523 262.804 661.082 262.038C662.641 261.272 664.364 260.899 666.101 260.953C667.512 260.85 668.927 261.084 670.23 261.635C671.533 262.186 672.686 263.039 673.595 264.124C674.36 265.531 674.655 267.146 674.438 268.733C674.395 271 673.559 273.182 672.073 274.896Z" fill="#1D1D1B"/>
<path d="M618.973 299.843C620.106 299.115 621.386 298.645 622.721 298.467C624.471 297.927 626.342 297.927 628.092 298.467C629.484 299.149 630.643 300.229 631.421 301.57C632.199 302.911 632.562 304.453 632.463 306.001C632.338 307.975 631.498 309.835 630.099 311.234C628.92 312.259 627.508 312.98 625.986 313.333C624.464 313.686 622.879 313.662 621.369 313.261C620.521 313.063 616.534 312.134 615.445 308.978C615.06 307.589 615.129 306.114 615.64 304.766C616.139 302.785 617.318 301.042 618.973 299.843Z" fill="#1D1D1B"/>
<path d="M660.09 316.125C658.964 315.247 658.045 314.132 657.397 312.86C656.244 311.3 655.588 309.429 655.515 307.491C655.708 305.86 656.381 304.324 657.448 303.075C658.516 301.827 659.929 300.923 661.51 300.479C663.527 299.912 665.681 300.1 667.57 301.006C669.007 301.825 670.222 302.984 671.108 304.381C671.994 305.777 672.524 307.37 672.653 309.019C672.898 310.343 672.826 311.707 672.441 312.997C672.057 314.288 671.372 315.469 670.442 316.443C669.189 317.312 667.692 317.761 666.167 317.724C664.017 317.919 661.866 317.353 660.09 316.125Z" fill="#1D1D1B"/>
<path d="M816.303 221.883C811.462 221.063 807.824 224.467 804.312 226.478C798.635 229.729 796.636 226.989 777.082 226.532C766.814 226.291 758.165 226.385 749.853 226.478C747.17 226.509 739.777 223.6 731.593 226.878C730.565 227.769 729.326 228.382 727.994 228.661C727.556 228.72 727.112 228.726 726.672 228.681C727.032 232.385 727.548 237.292 728.226 243.063C728.786 247.817 729.277 251.673 729.536 253.571C730.83 263.044 732.17 270.581 733.37 277.535C735.054 287.277 737.429 301.464 740.207 319.591C741.574 321.119 743.072 322.523 744.686 323.787C748.541 326.715 752.975 328.792 757.692 329.881C758.628 330.126 760.053 330.489 761.875 330.84C771.974 332.119 782.194 332.119 792.293 330.84C794.115 330.48 795.531 330.12 796.476 329.881C801.194 328.792 805.627 326.715 809.482 323.787C811.096 322.523 812.594 321.119 813.961 319.591C816.73 301.462 819.105 287.277 820.798 277.535C821.998 270.581 823.338 263.047 824.632 253.578C825.301 248.672 825.758 244.674 825.942 243.063C826.636 236.962 827.124 231.64 827.473 227.347C826.527 226.576 825.532 225.866 824.495 225.222C821.986 223.629 819.211 222.498 816.303 221.883Z" fill="#48AB85"/>
<path d="M809.585 212.588C802.45 209.634 794.891 207.831 787.19 207.247C780.291 206.514 773.333 206.544 766.44 207.335C758.99 207.86 751.681 209.636 744.821 212.588C737.82 215.778 725.486 223.317 726.753 229.197C726.884 229.801 727.424 231.628 735.253 235.231C742.413 238.456 749.979 240.687 757.743 241.865C764.532 243.136 771.422 243.799 778.329 243.844C786.359 243.892 794.366 242.996 802.187 241.174C809.137 239.552 815.751 236.728 821.73 232.83C826.834 229.463 827.34 227.955 827.45 227.036C828.223 220.589 813.088 214.093 809.585 212.588Z" fill="#3E705B"/>
<path d="M823.195 243.861C823.317 244.193 803.887 256.603 777.372 257.184C750.132 257.779 729.713 245.579 729.826 245.239C744.698 252.211 760.948 255.744 777.372 255.575C793.317 255.054 808.956 251.056 823.195 243.861Z" fill="#3E705B"/>
<path d="M809.468 227.723C803.293 224.719 796.703 222.657 789.916 221.606C784.481 220.802 778.973 220.6 773.493 221.002C768.596 221.141 763.726 221.796 758.966 222.955C753.396 224.131 748.095 226.338 743.336 229.463C740.722 231.243 738.326 233.323 736.195 235.66C738.438 236.669 740.729 237.565 743.061 238.344C743.061 238.344 746.318 239.409 750.17 240.343C751.275 240.611 752.275 240.818 753.813 241.146C755.352 241.473 755.708 241.536 755.958 241.576C756.911 241.725 757.185 241.773 757.734 241.872C757.798 241.883 764.668 243.11 770.483 243.551C770.951 243.587 771.339 243.612 771.645 243.632C772.507 243.69 775.084 243.844 778.32 243.853C783.034 243.864 786.822 243.558 787.707 243.493C792.255 243.112 795.654 242.529 796.548 242.373C796.548 242.373 800.488 241.682 804.893 240.5C806.433 240.086 807.547 239.708 807.842 239.6C808.356 239.42 808.808 239.258 809.312 239.06C810.683 238.537 812.36 237.896 814.407 236.935C816.288 236.049 818.123 235.066 819.902 233.99C816.615 231.598 813.124 229.501 809.468 227.723Z" fill="#67C7EE"/>
<path d="M810.544 233.234C803.612 229.846 796.281 227.341 788.725 225.778C779.054 224.06 769.153 224.099 759.497 225.894C759.457 225.561 772.922 221.199 789.069 224.4C801.665 226.89 810.668 232.955 810.544 233.234Z" fill="#DEF0F8"/>
<path d="M802.912 233.753C797.012 231.191 790.822 229.359 784.479 228.297C779.006 227.526 773.473 227.28 767.953 227.561C773.456 226.441 779.119 226.359 784.652 227.32C791.124 228.152 797.347 230.344 802.912 233.753Z" fill="#DEF0F8"/>
<path d="M794.582 234.039C791.823 232.937 788.989 232.035 786.102 231.34C782.215 230.526 778.242 230.198 774.274 230.363C778.259 229.612 782.36 229.747 786.287 230.759C789.219 231.372 792.024 232.481 794.582 234.039Z" fill="#DEF0F8"/>
<path d="M803.517 327.409L803.592 327.376C800.654 327.535 796.645 327.67 791.883 327.578C787.255 327.578 782.632 327.271 778.045 326.66C771.404 325.714 767.181 325.113 762.455 322.497C758.93 320.435 755.808 317.753 753.238 314.58C748.919 309.453 746.76 304.516 742.73 292.529C738.977 281.374 736.357 272.319 734.29 265.14C732.543 259.075 730.443 251.773 728.457 244.85C728.928 248.789 729.331 251.939 729.558 253.596C730.852 263.069 732.192 270.604 733.392 277.56C735.076 287.303 737.451 301.489 740.229 319.616C741.596 321.144 743.094 322.548 744.708 323.812C748.563 326.74 752.996 328.817 757.714 329.906C758.65 330.151 760.075 330.514 761.897 330.865C771.996 332.144 782.216 332.144 792.315 330.865C794.413 330.46 796.498 329.906 796.498 329.906C798.444 329.369 800.359 328.724 802.234 327.974C802.344 327.929 803 327.652 803.178 327.563C803.178 327.563 803.344 327.481 803.508 327.411L803.517 327.409Z" fill="#3E705B"/>
<path d="M773.972 269.74C773.729 271.181 773.202 272.545 772.427 273.739C771.631 275.525 770.363 277.006 768.787 277.99C767.352 278.588 765.786 278.705 764.29 278.327C762.793 277.948 761.433 277.09 760.382 275.863C759.04 274.297 758.265 272.25 758.2 270.103C758.256 268.407 758.691 266.753 759.466 265.283C760.241 263.814 761.333 262.576 762.645 261.676C763.637 260.826 764.799 260.245 766.036 259.983C767.272 259.721 768.548 259.784 769.757 260.168C771.023 260.893 772.045 262.043 772.673 263.449C773.766 265.314 774.226 267.541 773.972 269.74Z" fill="#1D1D1B"/>
<path d="M805.687 273.715C804.64 274.673 803.369 275.413 801.965 275.884C800.204 276.795 798.175 277.213 796.144 277.081C794.464 276.733 792.937 275.949 791.757 274.826C790.578 273.704 789.799 272.295 789.519 270.777C789.165 268.845 789.609 266.864 790.77 265.203C791.789 263.949 793.136 262.936 794.696 262.253C796.255 261.57 797.978 261.238 799.714 261.285C801.125 261.194 802.54 261.402 803.843 261.894C805.146 262.385 806.299 263.146 807.208 264.112C807.973 265.367 808.268 266.806 808.051 268.221C808.009 270.243 807.172 272.187 805.687 273.715Z" fill="#1D1D1B"/>
<path d="M760.534 305.802C761.667 305.059 762.947 304.58 764.282 304.398C766.032 303.847 767.903 303.847 769.653 304.398C771.045 305.094 772.204 306.196 772.982 307.565C773.76 308.934 774.123 310.508 774.024 312.087C773.899 314.102 773.059 316.001 771.66 317.429C770.481 318.476 769.069 319.211 767.547 319.572C766.025 319.932 764.44 319.907 762.93 319.498C762.082 319.296 758.095 318.348 757.006 315.126C756.621 313.708 756.69 312.203 757.201 310.828C757.7 308.805 758.88 307.026 760.534 305.802Z" fill="#1D1D1B"/>
<path d="M793.975 319.658C792.85 318.796 791.93 317.702 791.283 316.453C790.129 314.922 789.473 313.086 789.4 311.183C789.594 309.582 790.267 308.074 791.334 306.848C792.401 305.623 793.814 304.736 795.395 304.3C797.412 303.744 799.567 303.928 801.456 304.817C802.892 305.621 804.107 306.759 804.993 308.13C805.879 309.501 806.409 311.064 806.538 312.683C806.783 313.983 806.711 315.321 806.327 316.588C805.942 317.855 805.257 319.014 804.327 319.97C803.074 320.824 801.577 321.264 800.052 321.228C797.902 321.419 795.751 320.863 793.975 319.658Z" fill="#1D1D1B"/>
<path d="M768.336 299.138C767.018 299.274 765.688 299.11 764.439 298.655C762.669 298.335 761.032 297.469 759.744 296.169C758.829 294.905 758.296 293.387 758.212 291.808C758.128 290.229 758.497 288.66 759.273 287.299C760.262 285.562 761.827 284.26 763.674 283.637C765.161 283.25 766.716 283.247 768.204 283.628C769.692 284.008 771.068 284.761 772.211 285.82C773.224 286.579 774.048 287.577 774.617 288.732C775.185 289.887 775.481 291.166 775.48 292.463C775.198 293.902 774.481 295.21 773.433 296.196C772.119 297.767 770.315 298.809 768.336 299.138Z" fill="#1D1D1B"/>
<path d="M800.466 283.496C801.785 283.822 803.015 284.426 804.07 285.266C805.674 286.161 806.964 287.508 807.772 289.131C808.231 290.592 808.236 292.154 807.787 293.618C807.337 295.082 806.452 296.382 805.245 297.355C803.705 298.594 801.755 299.243 799.761 299.18C798.194 299.023 796.69 298.494 795.381 297.638C794.071 296.782 792.996 295.626 792.25 294.27C791.527 293.235 791.065 292.046 790.904 290.802C790.743 289.558 790.887 288.294 791.324 287.115C792.083 285.903 793.218 284.959 794.564 284.419C796.361 283.448 798.449 283.121 800.466 283.496Z" fill="#1D1D1B"/>
<path d="M269.082 221.883C264.257 221.062 260.631 224.466 257.131 226.478C251.473 229.729 249.481 226.989 229.993 226.532C219.76 226.291 211.14 226.384 202.856 226.478C200.182 226.508 192.814 223.599 184.657 226.877C183.632 227.768 182.398 228.382 181.07 228.66C180.633 228.719 180.191 228.726 179.752 228.68C180.111 232.384 180.626 237.291 181.302 243.062C181.859 247.816 182.349 251.672 182.607 253.57C183.896 263.042 185.232 270.579 186.428 277.533C188.107 287.275 190.474 301.462 193.242 319.588C194.604 321.116 196.098 322.52 197.706 323.784C201.548 326.712 205.967 328.789 210.668 329.878C211.601 330.122 213.021 330.486 214.837 330.837C224.902 332.116 235.088 332.116 245.153 330.837C246.969 330.477 248.38 330.117 249.322 329.878C254.023 328.789 258.442 326.712 262.284 323.784C263.892 322.52 265.386 321.116 266.748 319.588C269.507 301.46 271.874 287.275 273.562 277.533C274.758 270.579 276.094 263.046 277.383 253.577C278.05 248.671 278.505 244.673 278.688 243.062C279.38 236.962 279.866 231.64 280.214 227.347C279.271 226.576 278.28 225.866 277.247 225.222C274.746 223.629 271.981 222.498 269.082 221.883Z" fill="#48AB85"/>
<path d="M262.387 212.588C255.276 209.634 247.742 207.831 240.067 207.247C233.192 206.514 226.256 206.544 219.387 207.335C211.962 207.86 204.678 209.636 197.84 212.588C190.863 215.778 178.571 223.317 179.833 229.196C179.964 229.801 180.502 231.627 188.304 235.231C195.44 238.455 202.981 240.686 210.719 241.864C217.486 243.135 224.352 243.798 231.236 243.843C239.239 243.891 247.219 242.995 255.013 241.173C261.94 239.551 268.532 236.727 274.491 232.829C279.578 229.463 280.082 227.955 280.191 227.036C280.962 220.589 265.878 214.092 262.387 212.588Z" fill="#3E705B"/>
<path d="M275.95 243.86C276.072 244.192 256.708 256.601 230.282 257.182C203.134 257.778 182.783 245.578 182.896 245.238C197.717 252.21 213.914 255.742 230.282 255.574C246.173 255.053 261.759 251.055 275.95 243.86Z" fill="#3E705B"/>
<path d="M262.27 227.723C256.116 224.719 249.547 222.657 242.784 221.606C237.366 220.802 231.877 220.599 226.416 221.001C221.535 221.141 216.682 221.796 211.938 222.955C206.386 224.13 201.103 226.338 196.361 229.463C193.755 231.242 191.367 233.322 189.244 235.659C191.478 236.668 193.762 237.564 196.086 238.343C196.086 238.343 199.332 239.408 203.171 240.342C204.272 240.61 205.269 240.817 206.802 241.145C208.335 241.472 208.69 241.535 208.94 241.575C209.89 241.724 210.163 241.773 210.71 241.871C210.774 241.882 217.62 243.109 223.416 243.55C223.882 243.586 224.269 243.611 224.574 243.631C225.433 243.689 228.001 243.843 231.227 243.852C235.925 243.863 239.7 243.557 240.582 243.493C245.115 243.111 248.502 242.528 249.393 242.372C249.393 242.372 253.32 241.681 257.71 240.499C259.245 240.085 260.355 239.707 260.649 239.599C261.162 239.419 261.612 239.257 262.114 239.059C263.48 238.536 265.152 237.895 267.192 236.935C269.067 236.049 270.895 235.066 272.669 233.989C269.393 231.598 265.913 229.501 262.27 227.723Z" fill="#67C7EE"/>
<path d="M263.342 233.234C256.433 229.845 249.128 227.34 241.597 225.778C231.959 224.059 222.091 224.098 212.467 225.893C212.427 225.56 225.847 221.199 241.939 224.4C254.493 226.89 263.466 232.955 263.342 233.234Z" fill="#DEF0F8"/>
<path d="M255.736 233.752C249.857 231.19 243.687 229.358 237.365 228.297C231.911 227.525 226.396 227.279 220.895 227.561C226.379 226.44 232.023 226.358 237.537 227.32C243.988 228.151 250.19 230.343 255.736 233.752Z" fill="#DEF0F8"/>
<path d="M247.434 234.038C244.685 232.937 241.86 232.035 238.983 231.339C235.109 230.525 231.149 230.197 227.194 230.362C231.166 229.611 235.254 229.746 239.167 230.758C242.089 231.372 244.884 232.481 247.434 234.038Z" fill="#DEF0F8"/>
<path d="M256.338 327.406L256.414 327.373C253.485 327.532 249.49 327.666 244.744 327.575C240.132 327.574 235.524 327.268 230.953 326.657C224.334 325.711 220.125 325.11 215.415 322.494C211.902 320.432 208.79 317.75 206.228 314.578C201.925 309.45 199.773 304.513 195.756 292.527C192.016 281.372 189.405 272.317 187.345 265.138C185.604 259.073 183.511 251.772 181.531 244.849C182.001 248.787 182.403 251.938 182.629 253.595C183.918 263.067 185.254 270.602 186.45 277.558C188.128 287.3 190.495 301.487 193.264 319.613C194.626 321.141 196.119 322.545 197.727 323.809C201.57 326.737 205.988 328.814 210.69 329.903C211.622 330.148 213.042 330.511 214.859 330.862C224.924 332.141 235.109 332.141 245.174 330.862C247.265 330.457 249.343 329.903 249.343 329.903C251.283 329.366 253.192 328.721 255.06 327.971C255.169 327.926 255.824 327.649 256.001 327.56C256.001 327.56 256.166 327.478 256.329 327.407L256.338 327.406Z" fill="#3E705B"/>
<path d="M217.065 272.861C216.798 274.302 216.22 275.666 215.371 276.86C214.499 278.646 213.108 280.128 211.381 281.111C209.807 281.709 208.091 281.827 206.45 281.448C204.81 281.069 203.319 280.212 202.166 278.984C200.696 277.419 199.846 275.371 199.775 273.225C199.837 271.529 200.313 269.874 201.163 268.405C202.012 266.935 203.209 265.697 204.648 264.798C205.735 263.947 207.009 263.366 208.365 263.104C209.72 262.842 211.118 262.906 212.444 263.289C213.832 264.014 214.952 265.164 215.641 266.57C216.839 268.435 217.343 270.662 217.065 272.861Z" fill="#1D1D1B"/>
<path d="M243.949 313.713C242.824 312.835 241.904 311.72 241.257 310.448C240.103 308.888 239.447 307.017 239.375 305.079C239.568 303.448 240.241 301.911 241.308 300.663C242.375 299.415 243.789 298.511 245.369 298.067C247.386 297.5 249.541 297.688 251.43 298.594C252.867 299.413 254.081 300.572 254.967 301.969C255.853 303.365 256.383 304.958 256.512 306.607C256.757 307.931 256.685 309.294 256.301 310.585C255.916 311.876 255.231 313.057 254.301 314.03C253.048 314.9 251.551 315.349 250.027 315.312C247.876 315.507 245.726 314.941 243.949 313.713Z" fill="#1D1D1B"/>
</svg>
