<svg width="870" height="540" viewBox="0 0 870 540" fill="none" xmlns="http://www.w3.org/2000/svg">
<rect x="2.5" y="2.5" width="865" height="534.4" rx="77.5" fill="#F3F3F3" stroke="#83C1CA" stroke-width="5"/>
<path d="M682 172.541C682.001 181.693 679.288 190.641 674.204 198.251C669.12 205.861 661.894 211.793 653.438 215.296C644.983 218.799 635.679 219.717 626.702 217.932C617.725 216.147 609.48 211.74 603.008 205.269C596.536 198.797 592.128 190.552 590.342 181.576C588.557 172.599 589.473 163.295 592.975 154.839C596.477 146.384 602.409 139.156 610.018 134.072C617.628 128.987 626.575 126.273 635.727 126.273C640.887 126.279 646.006 127.183 650.855 128.946C659.801 132.279 667.547 138.211 673.096 145.979C678.646 153.747 681.747 162.997 682 172.541Z" fill="#9F1827"/>
<path d="M627.049 218.003C626.053 217.808 625.243 217.623 624.677 217.487C624.042 217.334 623.906 217.29 622.66 216.982C621.414 216.675 621.4 216.677 620.893 216.547C620.348 216.408 619.603 216.203 618.743 215.907C618.743 215.907 617.465 215.47 616.147 214.871C611.794 212.767 607.751 210.072 604.134 206.862C599.694 202.845 596.068 198.01 593.456 192.622C590.569 186.184 589.052 179.216 589.003 172.161C588.938 166.994 589.845 161.861 591.676 157.029C594.048 150.018 598.185 143.736 603.689 138.788C607.522 135.313 611.876 132.46 616.593 130.334C619.067 129.315 621.591 128.423 624.156 127.661C624.792 127.485 625.482 127.318 626.225 127.175C626.984 127.027 627.7 126.922 628.369 126.847C627.447 127.677 626.097 128.917 624.49 130.442C621.743 133.048 617.893 136.659 616.147 138.784C611.813 144.062 608.494 150.097 606.359 156.584C604.192 162.717 603.283 169.224 603.686 175.716C604.174 183.522 607.162 188.867 610.805 195.738C615.146 203.886 620.615 211.382 627.049 218.003Z" fill="#7B141B"/>
<path d="M635.725 108.473C637.006 107.447 638.619 106.926 640.258 107.008C641.898 107.09 643.451 107.77 644.623 108.918C645.513 110.698 643.288 112.478 641.064 119.149C638.839 124.933 638.839 127.602 637.949 127.602C637.058 127.602 636.169 122.263 635.276 117.372C634.389 110.251 635.28 108.916 635.725 108.473Z" fill="#503A23"/>
</svg>
