<svg width="870" height="540" viewBox="0 0 870 540" fill="none" xmlns="http://www.w3.org/2000/svg">
<rect x="2.5" y="2.5" width="865" height="534.4" rx="77.5" fill="#F3F3F3" stroke="#83C1CA" stroke-width="5"/>
<path d="M313 328.541C313.001 337.693 310.288 346.641 305.204 354.251C300.12 361.861 292.894 367.793 284.438 371.296C275.983 374.799 266.679 375.717 257.702 373.932C248.725 372.147 240.48 367.74 234.008 361.269C227.536 354.797 223.128 346.552 221.342 337.576C219.557 328.599 220.473 319.295 223.975 310.839C227.477 302.384 233.409 295.156 241.018 290.072C248.628 284.987 257.575 282.273 266.727 282.273C271.887 282.279 277.006 283.183 281.855 284.946C290.801 288.279 298.547 294.211 304.096 301.979C309.646 309.747 312.747 318.997 313 328.541Z" fill="#9F1827"/>
<path d="M258.049 374.003C257.053 373.808 256.243 373.623 255.677 373.487C255.042 373.334 254.906 373.29 253.66 372.982C252.414 372.675 252.4 372.677 251.893 372.547C251.348 372.408 250.603 372.203 249.743 371.907C249.743 371.907 248.465 371.47 247.147 370.871C242.794 368.767 238.751 366.072 235.134 362.862C230.694 358.845 227.068 354.01 224.456 348.622C221.569 342.184 220.052 335.216 220.003 328.161C219.938 322.994 220.845 317.861 222.676 313.029C225.048 306.018 229.185 299.736 234.689 294.788C238.522 291.313 242.876 288.46 247.593 286.334C250.067 285.315 252.591 284.423 255.156 283.661C255.792 283.485 256.482 283.318 257.225 283.175C257.984 283.027 258.7 282.922 259.369 282.847C258.447 283.677 257.097 284.917 255.49 286.442C252.743 289.048 248.893 292.659 247.147 294.784C242.813 300.062 239.494 306.097 237.359 312.584C235.192 318.717 234.283 325.224 234.686 331.716C235.174 339.522 238.162 344.867 241.805 351.738C246.146 359.886 251.615 367.382 258.049 374.003Z" fill="#7B141B"/>
<path d="M266.725 264.473C268.006 263.447 269.619 262.926 271.258 263.008C272.898 263.09 274.451 263.77 275.623 264.918C276.513 266.698 274.288 268.478 272.064 275.149C269.839 280.933 269.839 283.602 268.949 283.602C268.058 283.602 267.169 278.263 266.276 273.372C265.389 266.251 266.28 264.916 266.725 264.473Z" fill="#503A23"/>
<path d="M598 168.541C598.001 177.693 595.288 186.641 590.204 194.251C585.12 201.861 577.894 207.793 569.438 211.296C560.983 214.799 551.679 215.717 542.702 213.932C533.725 212.147 525.48 207.74 519.008 201.269C512.536 194.797 508.128 186.552 506.342 177.576C504.557 168.599 505.473 159.295 508.975 150.839C512.477 142.384 518.409 135.156 526.018 130.072C533.628 124.987 542.575 122.273 551.727 122.273C556.887 122.279 562.006 123.183 566.855 124.946C575.801 128.279 583.547 134.211 589.096 141.979C594.646 149.747 597.747 158.997 598 168.541Z" fill="#9F1827"/>
<path d="M543.049 214.003C542.053 213.808 541.243 213.623 540.677 213.487C540.042 213.334 539.906 213.29 538.66 212.982C537.414 212.675 537.4 212.677 536.893 212.547C536.348 212.408 535.603 212.203 534.743 211.907C534.743 211.907 533.465 211.47 532.147 210.871C527.794 208.767 523.751 206.072 520.134 202.862C515.694 198.845 512.068 194.01 509.456 188.622C506.569 182.184 505.052 175.216 505.003 168.161C504.938 162.994 505.845 157.861 507.676 153.029C510.048 146.018 514.185 139.736 519.689 134.788C523.522 131.313 527.876 128.46 532.593 126.334C535.067 125.315 537.591 124.423 540.156 123.661C540.792 123.485 541.482 123.318 542.225 123.175C542.984 123.027 543.7 122.922 544.369 122.847C543.447 123.677 542.097 124.917 540.49 126.442C537.743 129.048 533.893 132.659 532.147 134.784C527.813 140.062 524.494 146.097 522.359 152.584C520.192 158.717 519.283 165.224 519.686 171.716C520.174 179.522 523.162 184.867 526.805 191.738C531.146 199.886 536.615 207.382 543.049 214.003Z" fill="#7B141B"/>
<path d="M551.725 104.473C553.006 103.447 554.619 102.926 556.258 103.008C557.898 103.09 559.451 103.77 560.623 104.918C561.513 106.698 559.288 108.478 557.064 115.149C554.839 120.933 554.839 123.602 553.949 123.602C553.058 123.602 552.169 118.263 551.276 113.372C550.389 106.251 551.28 104.916 551.725 104.473Z" fill="#503A23"/>
</svg>
