<svg viewBox="0 0 1041 673" fill="none" xmlns="http://www.w3.org/2000/svg">
    <path d="M930.275 31.5285H109.538C60.3791 31.5285 20.5282 71.3795 20.5282 120.538V559.113C20.5282 608.271 60.3791 648.122 109.538 648.122H930.275C979.434 648.122 1019.29 608.271 1019.29 559.113V120.538C1019.29 71.3795 979.434 31.5285 930.275 31.5285Z" fill="#B6CEE1" stroke="#116619" stroke-width="6"/>
    <path d="M10.3469 40.3962C14.0803 43.5191 30.3873 57.8544 33.3678 82.5644C35.0452 97.2366 31.7442 112.047 23.9945 124.618C23.9917 129.075 23.989 133.532 23.9862 137.989C25.0232 137.01 49.8969 112.69 42.0007 79.7975C35.744 53.7353 13.6633 42.0771 10.3469 40.3962Z" fill="#48964E"/>
    <path d="M17.0569 128.701C8.9823 135.637 6.59974 141.986 5.91973 146.508C3.13445 165.034 25.505 175.593 28.6391 200.181C30.0691 211.399 26.9366 221.161 23.9805 227.767L23.9875 239.712C41.4527 218.375 42.4272 204.688 40.0084 196.092C35.2337 179.124 13.756 169.631 15.3641 150.788C15.5785 148.344 16.1464 145.945 17.05 143.665C17.0523 138.677 17.0547 133.689 17.0569 128.701Z" fill="#48964E"/>
    <path d="M17.0604 232.674C5.48571 244.641 4.28572 252.946 5.18191 258.219C6.62856 266.731 13.6659 268.101 22.5952 285.077C28.1058 295.553 28.5785 301.026 28.6456 303.671C28.7256 309.923 27.1173 316.082 23.9902 321.497L23.991 330.539C41.6305 318.739 42.9887 308.886 42.9599 304.851C42.9091 297.746 38.4361 291.725 29.6048 279.838C21.4098 268.807 15.4084 264.258 14.9216 255.415C14.7655 251.724 15.4991 248.049 17.0604 244.7V232.674Z" fill="#48964E"/>
    <path d="M17.0604 325.22V335.103C13.8048 340.271 12.0902 346.261 12.1177 352.369C12.5845 369.455 28.9968 376.064 34.1056 392.065C36.8704 400.725 36.9913 414.222 23.998 434.822C23.9945 430.933 23.991 427.045 23.9876 423.156C26.0384 415.924 26.4201 408.32 25.1039 400.919C20.7622 377.867 0.685835 370.851 0.0169104 353.992C-0.233507 347.682 2.15076 337.868 17.0604 325.22Z" fill="#48964E"/>
    <path d="M17.05 427.831C4.9767 444.271 4.77019 454.633 6.80512 461.054C10.6863 473.3 24.3095 476.221 27.465 490.052C29.351 498.318 26.4773 506.012 23.9944 510.935C23.9956 514.078 23.9968 517.22 23.9979 520.363C37.3567 504.069 38.2159 493.78 36.1716 487.248C32.6197 475.899 19.2638 472.709 15.9545 458.324C14.7897 452.761 15.1722 446.984 17.0604 441.623L17.05 427.831Z" fill="#48964E"/>
    <path d="M17.0612 515.065C8.99151 525.759 9.0124 531.824 10.4206 535.356C13.1376 542.17 22.1154 542.287 25.5465 550.039C28.053 555.702 26.0884 562.023 24.2826 566.146C24.3981 567.501 24.5498 568.909 24.7375 570.368C24.9274 571.825 25.1416 573.223 25.3799 574.563C36.23 556.687 35.4077 548.633 32.7037 544.579C28.6327 538.476 17.7069 537.555 16.3971 530.191C16.1254 528.432 16.3546 526.631 17.0587 524.996L17.0612 515.065Z" fill="#48964E"/>
    <path d="M18.0222 572.507C13.0892 583.935 14.5023 589.32 16.4895 592.115C20.584 597.873 29.2555 595.641 37.1308 602.851C40.4592 606 42.9026 609.968 44.2168 614.358C44.9419 615.213 45.7119 616.085 46.5267 616.972C47.3524 617.869 48.1675 618.718 48.972 619.52C49.211 604.959 45.11 599.01 41.3366 596.265C34.4535 591.258 24.7423 594.061 20.6399 587.632C19.2122 585.118 18.7262 582.177 19.2688 579.337C19.0586 578.382 18.8583 577.4 18.6681 576.389C18.4184 575.057 18.2031 573.763 18.0222 572.507Z" fill="#48964E"/>
    <path d="M42.0031 622.283C46.7911 638.508 53.2136 643.192 57.9382 644.631C66.9854 647.388 73.8136 639.441 88.7123 639.365C96.1929 639.413 103.556 641.227 110.203 644.66L119.037 644.657C102.87 630.479 91.01 628.438 82.73 629.801C72.3763 631.505 63.8322 639.154 54.9499 635.224C51.4655 633.513 48.6522 630.688 46.9564 627.196C46.2082 626.514 45.4495 625.795 44.6803 625.04C43.7328 624.108 42.8404 623.189 42.0031 622.283Z" fill="#48964E"/>
    <path d="M115.106 651.591C127.369 659.207 134.715 658.829 139.176 657.027C145.937 654.296 147.67 647.647 156.146 644.779C160.852 643.316 165.884 643.273 170.614 644.655H177.173C165.138 636.785 157.597 636.827 152.826 638.581C144.69 641.572 140.989 650.87 130.321 652.01C128.053 652.244 125.761 652.1 123.54 651.584L115.106 651.591Z" fill="#48964E"/>
    <path d="M176.174 651.59C191.651 661.554 201.029 661.231 206.763 659.02C215.799 655.534 218.489 646.308 229.636 643.525C235.059 642.31 240.718 642.705 245.919 644.66L253.388 644.657C239.944 633.895 230.994 633.305 225.357 634.671C213.782 637.475 209.318 650.187 194.515 652.342C190.476 652.902 186.366 652.647 182.428 651.591L176.174 651.59Z" fill="#48964E"/>
    <path d="M249.258 651.582C265.838 664.48 276.984 665.311 284.237 663.447C296.849 660.205 300.696 648.04 316.407 643.82C324.23 641.89 332.436 642.182 340.102 644.66L351.961 644.655C333.752 633.539 321.409 633.567 313.345 635.888C299.746 639.802 293.8 651.537 277.043 653.596C270.737 654.311 264.351 653.625 258.341 651.587L249.258 651.582Z" fill="#48964E"/>
    <path d="M345.465 651.591C365.599 662.904 377.705 661.874 385.027 658.872C394.833 654.852 399.56 645.86 412.771 643.525C418.459 642.583 424.289 642.969 429.804 644.655L443.017 644.658C425.156 629.441 413.953 628.334 406.868 630.539C395.057 634.214 392.044 647.915 376.764 652.231C370.046 653.964 362.974 653.737 356.381 651.577L345.465 651.591Z" fill="#48964E"/>
    <path d="M436.307 651.584C442.658 655.453 452.538 660.082 464.273 659.315C481.079 658.216 487.83 646.955 505.592 642.197C514.149 639.904 527.156 638.613 545.113 644.65L557.538 644.652C526.411 625.02 509.136 625.608 498.952 630.686C488.018 636.138 480.788 648.994 462.926 651.881C457.708 652.701 452.387 652.6 447.203 651.584H436.307Z" fill="#48964E"/>
    <path d="M562.702 651.585C568.452 653.494 574.507 654.314 580.558 654.002C600.049 652.891 608.674 639.807 623.353 634.67C633.854 630.996 650.008 630.496 674.713 644.655L660.42 644.66C650.354 641.913 639.791 641.525 629.551 643.525C608.509 647.856 601.319 660.833 583.509 662.118C576.428 662.63 565.421 661.455 551.171 651.587L562.702 651.585Z" fill="#48964E"/>
    <path d="M678.232 651.584C690.721 656.031 703.969 657.957 717.208 657.249C748.6 655.366 762.648 638.53 787.599 631.572C805.047 626.705 831.514 625.641 869.511 644.67L852.521 644.66C835.629 641.292 818.247 641.207 801.323 644.41C765.319 651.434 753.078 670.21 724.734 672.301C710.686 673.337 690.342 670.448 664.51 651.591L678.232 651.584Z" fill="#48964E"/>
    <path d="M863.063 651.567C886.607 667.621 902.874 668.248 913.514 665.66C932.602 661.019 935.367 645.599 956.862 642.787C972.959 640.681 980.122 648.188 995.268 643.23C1005.77 639.793 1012.88 632.731 1017.11 627.587C1009.96 632.466 1001.87 635.785 993.35 637.327C976.852 640.181 972.486 633.405 958.485 634.671C935.888 636.714 931.904 655.755 909.678 658.725C898.771 660.182 888.074 657.154 877.949 651.549L863.063 651.567Z" fill="#48964E"/>
    <path d="M999.208 69.8698C997.078 77.8959 996.929 86.3192 998.772 94.4161C1003.46 113.868 1018.27 119.09 1024.6 136.621C1027.5 144.66 1029.28 157.114 1022.75 175.443L1022.76 186.227C1042.99 157.86 1042.88 141.801 1038.91 132.342C1033.64 119.792 1018.97 112.695 1008.05 87.2683C1006.39 83.4222 1005.27 80.1954 1004.61 78.1808C1004.06 77.2256 1003.48 76.2551 1002.86 75.2693C1001.65 73.3353 1000.43 71.5367 999.208 69.8698Z" fill="#48964E"/>
    <path d="M1015.82 180.961C1011.89 187.507 1007.1 197.909 1008.95 209.578C1011.34 224.602 1022.78 229.453 1027.25 244.773C1029.47 252.361 1030.52 264.371 1022.75 281.839V294.295C1042.18 265.974 1041.87 250.456 1037.66 241.453C1032.33 230.076 1018.31 223.862 1015.52 206.479C1014.82 201.997 1014.92 197.427 1015.82 192.98V180.961Z" fill="#48964E"/>
    <path d="M1015.82 288.046C1006.9 300.577 1006.59 308.452 1008.44 313.504C1011.7 322.443 1022.43 324.583 1024.6 334.976C1025.36 339.343 1024.71 343.839 1022.75 347.816L1022.76 356.235C1032.27 345.732 1033.16 338.662 1032.12 334.09C1029.58 322.9 1013.72 319.142 1013.31 307.528C1013.28 304.468 1014.15 301.468 1015.81 298.9L1015.82 288.046Z" fill="#48964E"/>
    <path d="M1015.82 351.992C1005.73 364.487 1004.91 372.978 1006.3 378.586C1009.03 389.572 1021.11 392.861 1024.01 406.33C1025.05 411.659 1024.61 417.171 1022.75 422.272V434.384C1035.55 419.748 1036.56 410.288 1034.93 404.264C1031.75 392.556 1017.13 388.512 1014.86 373.569C1014.29 369.557 1014.62 365.469 1015.82 361.6L1015.82 351.992Z" fill="#48964E"/>
    <path d="M1015.82 426.515C1004.79 443.25 1004.97 453.074 1007.55 459.062C1011.73 468.749 1023.75 471.98 1025.04 483.19C1025.39 487.06 1024.59 490.946 1022.75 494.368L1022.75 503.382C1032.03 494.91 1033.54 488.412 1033.23 484.075C1032.34 471.543 1015.58 466.621 1013.75 451.093C1013.29 446.598 1014.01 442.06 1015.82 437.921L1015.82 426.515Z" fill="#48964E"/>
    <path d="M1015.82 499.014C1007.02 507.596 1005.4 514.24 1005.86 518.975C1006.87 529.57 1018.51 532.74 1023.27 545.391C1026.88 554.982 1024.61 564.882 1021.83 572.165C1021.6 573.851 1021.3 575.628 1020.93 577.483C1020.57 579.278 1020.17 580.978 1019.75 582.576C1036.03 561.403 1036.46 549.678 1033.45 542.808C1028.98 532.623 1014.59 527.777 1014.27 515.286C1014.22 512.647 1014.75 510.03 1015.82 507.617L1015.82 499.014Z" fill="#48964E"/>
    <path d="M1014.2 575.757C1009.84 580.03 1006.56 585.276 1004.62 591.064C1001.29 601.346 1004.9 606.523 1000.52 615.745C999.569 617.76 996.178 624.913 989.124 628.141C977.107 633.64 963.034 623.823 962.617 624.765C962.192 625.726 975.865 638.171 990.342 634.283C997.405 632.386 1005.59 626.476 1007.66 618.456C1009.61 610.929 1007.55 596.224 1009.29 592.035C1009.35 591.892 1009.8 590.836 1010.36 589.358C1010.98 587.685 1011.45 586.25 1011.78 585.179C1012.3 583.51 1012.81 581.738 1013.27 579.868C1013.63 578.455 1013.94 577.085 1014.2 575.757Z" fill="#48964E"/>
    <path d="M1001.47 61.5114C1001.37 56.6351 1000.25 51.8343 998.181 47.4151C991.658 33.5863 977.938 28.8425 974.865 27.862C988.36 26.1976 1001.09 32.6254 1006.59 43.5783C1012.43 55.2029 1007.59 66.8654 1006.81 68.643C1005.94 67.3385 1004.98 65.9914 1003.94 64.6156C1003.11 63.5224 1002.29 62.4876 1001.47 61.5114Z" fill="#48964E"/>
    <path d="M43.1074 75.3058C44.178 75.238 38.4338 54.3328 49.1947 41.4385C57.8654 31.0486 73.9217 29.8508 87.2125 30.7765C89.4119 30.2335 91.3744 29.8336 93.0296 29.5356C94.0802 29.3464 95.6591 29.081 97.592 28.8308C98.9585 28.6539 100.173 28.5272 101.193 28.4349C76.8268 18.8415 53.2042 23.3875 43.6608 37.2327C33.201 52.4075 41.9815 75.3771 43.1074 75.3058Z" fill="#48964E"/>
    <path d="M93.9102 36.4151C102.92 41.8452 116.869 48.1997 132.092 45.3121C149.99 41.9171 155.559 28.4282 174.15 22.9922C183.451 20.2726 198.036 18.9772 219.103 28.0634H236.353C199.711 5.44145 178.684 6.07504 165.96 12.2196C151.449 19.2267 139.936 37.1661 118.258 37.0114C114.152 36.9709 110.076 36.3133 106.166 35.0607C103.849 35.1485 101.363 35.337 98.7344 35.6676C97.0497 35.8795 95.4402 36.133 93.9102 36.4151Z" fill="#48964E"/>
    <path d="M228.079 34.994C228.944 35.3655 230.199 35.8987 231.72 36.5247C233.329 37.2753 234.978 37.935 236.661 38.5009C240.168 39.6001 245.142 41.035 251.186 42.359C257.024 43.638 276.468 46.4508 289.033 46.3082C320.503 45.951 334.661 25.56 366.507 19.7456C380.473 17.1958 400.921 16.8869 427.844 28.053C437.861 28.0582 447.878 28.0634 457.896 28.0685C399.445 -5.47043 365.669 -2.9533 345.479 6.02161C327.021 14.2264 308.788 32.7752 274.516 36.1947C264.406 37.1846 254.208 36.7811 244.207 34.9957L228.079 34.994Z" fill="#48964E"/>
    <path d="M437.286 34.9914C465.596 51.2299 483.707 50.326 495.115 46.3082C510.947 40.7325 518.143 27.6528 538.058 24.6155C547.925 23.263 557.975 24.4497 567.256 28.0634H586.506C555.693 5.68429 537.191 4.95595 525.662 9.56331C510.09 15.7864 504.033 33.0253 483.162 37.0114C474.91 38.4536 466.427 37.7578 458.521 34.9905C451.443 34.9908 444.364 34.9911 437.286 34.9914Z" fill="#48964E"/>
    <path d="M571.485 34.9957C596.982 49.3601 614.019 48.7852 625.05 45.3121C642.733 39.7448 651.283 24.7466 672.199 23.5087C680.314 23.1283 688.403 24.6898 695.793 28.0634H718.178C696.641 9.28632 680.986 6.98964 670.428 8.67782C649.18 12.0756 638.772 33.1835 609.666 35.9045C603.46 36.4718 597.205 36.1641 591.084 34.9904C584.551 34.9922 578.018 34.994 571.485 34.9957Z" fill="#48964E"/>
    <path d="M703.477 34.994C726.783 49.3467 740.366 48.8083 748.64 44.9801C759.428 39.9895 761.813 29.122 774.613 24.9106C784.974 21.5015 795.456 24.6605 802.943 28.0599C808.95 28.0605 814.957 28.0611 820.964 28.0617C789.526 7.85254 773.908 8.26014 765.463 13.4001C755.427 19.5093 753.178 33.732 739.786 37.3065C732.496 39.2524 725.543 37.0715 720.901 34.9957L703.477 34.994Z" fill="#48964E"/>
    <path d="M809.739 34.9931C815.789 39.6486 825.205 45.3044 836.74 45.2753C856.236 45.2261 864.499 28.9799 885.881 23.2873C895.544 20.7146 910.126 19.7014 930.432 28.0634C933.816 28.0668 937.197 28.2545 940.56 28.6259C943.741 28.9771 946.679 29.4677 949.349 30.0243C907.174 3.31469 886.881 4.6651 876.141 11.039C865.409 17.4079 857.069 33.0336 838.068 35.5356C833.569 36.1108 829.005 35.9274 824.567 34.9931H809.739Z" fill="#48964E"/>
    <path d="M934.578 35.0669C941.184 39.498 948.551 42.6711 956.309 44.4268C966.959 46.7913 978.032 46.4488 988.516 43.4307C979.796 43.5594 971.096 42.5926 962.617 40.553C959.399 39.7762 956.384 38.8836 953.578 37.9281C947.375 36.2526 941 35.2927 934.578 35.0669V35.0669Z" fill="#48964E"/>
    <path d="M101.41 35.4049C107.838 38.3593 117.565 41.6527 128.908 40.4695C152.537 38.0046 160.464 18.4851 181.344 14.1011C191.498 11.969 206.67 13.0066 227.939 28.0634C226.906 28.0455 225.873 28.0276 224.84 28.0096C205.872 15.3877 191.931 14.5197 182.672 16.0932C160.602 19.8442 152.631 39.5941 129.016 42.2109C116.358 43.6135 105.462 39.3998 98.4162 35.7755L101.41 35.4049Z" fill="#76B779"/>
    <path d="M95.3166 29.1536C85.4727 25.4876 74.7352 24.9591 64.5788 27.6407C59.6373 29.0252 51.9161 31.1809 46.4277 38.2288C39.199 47.5115 40.6058 58.6408 41.0045 61.2498C40.6717 58.7011 39.5176 47.6986 46.8534 38.7216C52.3326 32.0165 60.2123 29.9397 64.8739 28.7106C73.9135 26.4301 83.4148 26.7632 92.2725 29.671C93.2873 29.4985 94.302 29.326 95.3166 29.1536Z" fill="#76B779"/>
    <path d="M237.66 34.9822C252 39.4528 273.205 43.7283 297.002 38.7822C330.164 31.8895 340.922 12.7916 368.942 7.64488C385.526 4.5989 410.17 6.06968 443.834 28.0613L439.167 28.0649C408.29 9.14931 385.263 7.9398 369.975 10.3011C340.724 14.8192 329.915 33.9371 297.666 40.8482C271.862 46.3781 248.691 40.5865 233.399 34.9946C234.82 34.9905 236.24 34.9864 237.66 34.9822Z" fill="#76B779"/>
    <path d="M444.941 34.9911C452.929 40.0391 465.38 46.0803 479.841 44.6481C504.225 42.2331 513.083 20.6748 537.726 17.8641C546.079 16.9113 558.71 17.8317 575.226 28.0738L578.428 28.0634C560.424 15.2718 546.765 13.8309 537.394 15.0971C514.3 18.2174 505.779 39.3249 480.948 41.9918C467.882 43.3952 456.562 39.0193 448.925 35.0007C447.597 34.9975 446.269 34.9943 444.941 34.9911Z" fill="#76B779"/>
    <path d="M578.18 34.9873C595.154 43.6952 608.029 44.0214 616.417 42.8772C642.702 39.292 652.867 17.4572 676.737 17.5321C689.165 17.5711 699.182 23.5302 705.282 28.0599C706.237 28.0611 707.192 28.0623 708.147 28.0634C694.849 16.8455 684.006 14.7085 676.847 14.6545C653.408 14.4776 643.263 36.4358 616.085 40.3317C601.595 42.4089 589.063 38.3766 581.209 34.9905L578.18 34.9873Z" fill="#76B779"/>
    <path d="M710.788 34.9947C718.061 40.2465 728.459 45.7932 739.491 43.7627C755.801 40.7608 759.939 23.6929 776.605 19.5981C783.78 17.8351 794.554 18.163 809.898 28.0606L812.55 28.0609C794.731 15.2624 782.829 14.6367 774.982 16.9418C759.326 21.5405 755.487 39.0733 739.159 41.8811C729.507 43.5409 720.566 39.1829 714.296 34.9957C713.126 34.9953 711.957 34.995 710.788 34.9947Z" fill="#76B779"/>
    <path d="M814.955 34.9931C819.827 38.1992 827.321 42.0445 836.555 42.2132C858.284 42.6099 867.535 22.245 889.127 16.9787C899.451 14.4606 914.822 14.852 936.534 28.2863C937.876 28.3995 939.218 28.5127 940.56 28.6259C915.515 11.7737 898.952 11.6916 888.574 14.5438C868.697 20.0065 859.238 39.606 836.887 39.6676C830.25 39.6106 823.717 38.0112 817.804 34.9957C816.854 34.9949 815.905 34.994 814.955 34.9931Z" fill="#76B779"/>
    <path d="M942.44 35.713C946.569 38.605 951.123 40.8354 955.94 42.3239C963.469 44.634 970.024 44.5734 970.051 44.3714C965.338 43.7267 960.69 42.6713 956.161 41.2171C952.257 39.881 948.499 38.1504 944.946 36.0521C944.11 35.9391 943.275 35.826 942.44 35.713Z" fill="#76B779"/>
    <path d="M988.516 31.625C991.866 32.7213 994.959 34.4872 997.607 36.8153C1000.25 39.1435 1002.4 41.9854 1003.92 45.1684C1005.43 48.3515 1006.28 51.8094 1006.42 55.3321C1006.56 58.8548 1005.98 62.3688 1004.72 65.6609L1003.26 63.7362C1005.12 57.5054 1004.64 50.8135 1001.93 44.9062C999.217 38.9989 994.45 34.2789 988.516 31.625V31.625Z" fill="#76B779"/>
    <path d="M1000.89 72.2494C1000.26 82.8465 1002.22 93.4377 1006.61 103.106C1014.89 120.768 1027.3 124.15 1031.79 138.06C1034.42 146.21 1034.63 158.89 1022.75 178.194L1022.75 180.961C1037.32 159.553 1037.47 145.875 1034.56 137.175C1030.09 123.821 1017.69 120.015 1008.88 100.872C1005.12 92.5861 1002.93 83.6724 1002.43 74.5864C1001.92 73.8074 1001.4 73.0284 1000.89 72.2494Z" fill="#76B779"/>
    <path d="M1015.82 184.986C1013.41 189.821 1010.25 197.931 1011.24 207.509C1013.17 226.011 1028.77 232.242 1032.34 249.345C1033.89 256.745 1033.67 268.5 1022.75 285.279V288.046C1036.28 269.414 1036.85 256.783 1034.85 248.681C1030.95 232.842 1015.36 226.727 1013.09 207.878C1012.36 201.084 1013.32 194.215 1015.89 187.882L1015.82 184.986Z" fill="#76B779"/>
    <path d="M1015.82 292.088C1009.52 300.359 1009.12 306.243 1009.77 309.963C1011.78 321.512 1026.15 324.672 1027.58 336.083C1028.33 342.038 1025.19 347.305 1022.75 350.54L1022.75 351.993C1029 345.097 1029.85 339.901 1029.47 336.415C1028.21 325.102 1012.73 321.778 1010.98 309.852C1010.1 303.818 1013.13 298.335 1015.81 294.662L1015.82 292.088Z" fill="#76B779"/>
    <path d="M1015.82 354.877C1009.05 365.795 1009 373.435 1010.13 378.341C1013.12 391.204 1026.44 394.586 1028.43 407.117C1029.67 414.86 1025.9 421.893 1022.75 426.431V429.613C1031.05 419.546 1031.86 412.226 1031.16 407.486C1029.35 395.193 1016.11 391.535 1012.94 377.603C1011.09 369.49 1013.6 362.01 1015.82 357.202L1015.82 354.877Z" fill="#76B779"/>
    <path d="M1015.82 431.54C1008.4 442.61 1008.31 450.201 1009.4 454.93C1012.39 467.942 1027.27 472.146 1027.7 484.296C1027.89 489.927 1024.89 494.552 1022.75 497.237L1022.75 499.561C1026.34 495.827 1030.01 490.629 1029.76 484.592C1029.27 472.672 1013.94 468.563 1011.09 454.856C1010.08 449.965 1010.53 443.248 1015.82 434.381V431.54Z" fill="#76B779"/>
    <path d="M1015.82 501.71C1012.2 505.779 1008.04 511.875 1008.73 518.754C1009.91 530.546 1024.14 533.781 1028.14 546.46C1029.93 552.144 1030.12 561.166 1021.39 575.016L1020.97 577.285C1032.6 561.775 1032.9 552.126 1030.91 546.128C1027.02 534.456 1012.63 531.24 1011.32 519.049C1010.67 513.035 1013.52 507.801 1015.82 504.514V501.71Z" fill="#76B779"/>
    <path d="M1013.28 579.796C1009.56 584.263 1006.96 589.556 1005.71 595.232C1003.78 604.436 1007.17 608.128 1004.05 616.335C1002.26 621.337 998.873 625.614 994.418 628.509C990.52 630.91 986.009 632.127 981.432 632.014C986.042 632.394 990.662 631.406 994.714 629.173C999.559 626.322 1003.26 621.875 1005.19 616.593C1008.15 608.792 1005.06 604.977 1007.15 595.343C1008.18 590.641 1010.06 586.164 1012.68 582.125L1013.28 579.796Z" fill="#76B779"/>
    <path d="M997.001 639.983C997.064 640.333 990.231 642.707 981.801 642.934C972.39 643.188 966.73 640.613 962.47 639.688C942.876 635.435 931.042 661.361 907.498 664.948C898.802 666.273 885.711 664.976 867.933 651.561L872.47 651.556C887.78 663.167 899.182 664.259 906.393 663.447C930.198 660.764 941.56 633.571 961.584 637.474C966.077 638.35 970.601 640.712 979.883 641.164C989.645 641.638 996.936 639.623 997.001 639.983Z" fill="#76B779"/>
    <path d="M859.281 644.664C846.215 639.293 824.975 632.842 800.917 637.437C768.848 643.563 757.616 664.379 727.649 667.652C715.114 669.021 695.5 667.736 669.584 651.59L674.313 651.588C685.418 658.133 703.568 666.516 724.992 664.553C755.92 661.72 767.454 639.729 798.925 633.453C812.761 630.694 834.433 630.178 864.262 644.667L859.281 644.664Z" fill="#76B779"/>
    <path d="M664.037 644.687C651.154 638.458 640.62 637.651 632.355 638.876C610.917 642.054 603.216 659.13 583.214 660.348C572.328 661.011 562.681 656.679 555.065 651.586L558.275 651.567C563.675 654.63 572.348 658.476 582.771 657.913C602.953 656.821 610.581 640.23 630.473 636.441C638.605 634.893 651.06 635.05 668.132 644.663L664.037 644.687Z" fill="#76B779"/>
    <path d="M549.273 644.651C527.307 632.848 512.883 633.741 503.748 636.773C488.389 641.872 482.538 654.828 465.564 656.917C455.012 658.215 445.881 654.611 440.071 651.584H443.613C450.165 654.716 457.453 655.987 464.678 655.257C482.171 653.136 488.125 638.533 502.641 633.066C511.819 629.609 527.077 628.802 552.323 644.651L549.273 644.651Z" fill="#76B779"/>
    <path d="M436.493 644.699C425.159 635.342 416.761 634.257 411.147 635.039C396.579 637.07 392.128 652.885 376.026 656.068C366.737 657.905 358.204 654.622 352.47 651.582L349.186 651.586C361.832 658.828 370.85 658.786 376.542 657.618C392.27 654.389 397.166 639.573 412.18 637.991C421.167 637.044 428.928 641.349 433.652 644.656L436.493 644.699Z" fill="#76B779"/>
    <path d="M343.431 644.659C338.235 642.102 329.583 638.814 319.691 640.37C302.42 643.088 297.038 658.106 281.064 660.569C274.988 661.506 265.331 660.943 252.012 651.579L255.498 651.583C261.237 655.047 270.054 659.071 280.068 657.747C296.509 655.573 301.906 640.871 318.473 638.046C324.612 637 333.915 637.306 346.475 644.657L343.431 644.659Z" fill="#76B779"/>
    <path d="M247.944 644.659C242.921 641.619 235.444 638.27 227.644 640.094C217.346 642.502 214.939 651.951 204.641 655.533C199.415 657.351 191.182 657.998 178.634 651.591L180.69 651.591C186.805 654.03 195.311 656.168 203.756 653.264C214.324 649.631 216.651 640.901 226.316 638.323C231.472 636.947 239.267 637.176 250.6 644.659H247.944Z" fill="#76B779"/>
    <path d="M175.127 644.655C166.239 639.155 160.08 639.111 156.054 640.149C146.567 642.594 143.858 652.346 133.808 653.984C129.396 654.556 124.916 653.716 121.011 651.586L118.41 651.588C125.345 655.862 130.57 656.207 134.25 655.533C144.054 653.738 146.739 644.014 156.829 641.754C162.921 640.389 168.708 642.419 172.988 644.655H175.127Z" fill="#76B779"/>
    <path d="M113.48 644.655C100.881 635.725 91.2151 634.611 84.6116 635.335C72.9819 636.61 67.4533 643.96 59.0089 641.91C50.9138 639.944 46.2258 630.817 43.6255 623.984L45.2295 625.576C47.9039 631.28 52.4118 638.401 59.5984 640.094C68.0881 642.094 73.6296 634.944 84.0212 633.269C91.1384 632.121 101.672 633.358 116.069 644.659L113.48 644.655Z" fill="#76B779"/>
    <path d="M45.3947 615.708C45.0881 611.126 43.8752 604.984 39.3444 600.729C31.9806 593.815 21.6087 597.29 17.4301 591.064C15.7766 588.6 14.7742 584.141 18.4904 575.414C18.6191 576.098 18.7477 576.782 18.8762 577.465C17.2405 581.599 15.9684 586.871 18.4262 590.621C22.4531 596.765 32.7686 593.143 40.156 599.475C43.5126 602.352 46.5172 607.5 46.7931 617.26C46.3269 616.743 45.8608 616.225 45.3947 615.708Z" fill="#76B779"/>
    <path d="M24.5267 568.625C30.1619 559.396 29.8582 553.748 28.498 550.279C25.3031 542.13 14.6376 541.809 12.2284 534.009C10.5306 528.513 13.9362 522.549 17.0604 518.385L17.0598 520.986C15.0042 524.117 12.5214 529.002 13.8886 533.788C16.1852 541.828 27.2138 542.118 30.4902 549.892C32.026 553.536 32.245 559.742 24.7701 570.615L24.5267 568.625Z" fill="#76B779"/>
    <path d="M23.9954 513.617C27.8757 508.27 32.3657 500.169 30.8776 491.398C28.5162 477.48 13.1498 473.942 9.8488 459.745C8.55186 454.166 8.79209 445.544 17.0541 433.163L17.0568 436.816C13.8066 442.419 10.3751 450.579 12.2284 459.246C15.3589 473.887 30.8829 477.417 33.3125 490.9C34.2915 496.333 33.3424 504.481 23.9963 515.83L23.9954 513.617Z" fill="#76B779"/>
    <path d="M23.9879 426.901C27.3632 419.487 31.1935 407.891 28.0553 395.533C22.9748 375.526 3.68727 369.495 3.33725 353.254C3.2183 347.736 5.24806 339.291 17.0604 328.665V331.654C12.0455 336.702 6.43255 344.146 6.53753 353.096C6.72924 369.433 25.7937 375.553 30.7853 394.5C32.8483 402.331 32.9074 413.871 24.0156 430.083C24.0063 429.022 23.9971 427.962 23.9879 426.901Z" fill="#76B779"/>
    <path d="M23.9904 324.704C33.2302 315.786 34.4585 308.487 34.4745 304.519C34.4838 302.232 34.1043 297.556 21.7466 278.953C12.536 265.087 9.34725 262.567 8.90797 256.485C8.33726 248.583 12.9182 241.727 17.0604 237.043V240.621C14.4345 244.232 11.4841 249.592 11.7856 255.932C12.1125 262.803 16.0476 266.351 23.4068 276.85C32.9914 290.523 37.7837 297.36 37.7948 304.519C37.8022 309.238 35.9793 317.228 23.9906 327.001L23.9904 324.704Z" fill="#76B779"/>
    <path d="M23.9829 231.693C32.8396 219.498 34.1486 209.883 33.7367 203.397C32.2585 180.113 6.81397 168.925 9.46146 148.722C10.3856 142.973 13.0399 137.642 17.0705 133.439C17.0637 134.7 17.0568 135.96 17.0501 137.22C14.3671 140.553 12.5691 144.509 11.8226 148.722C8.58694 168.77 34.9488 180.476 36.9095 202.806C37.5483 210.082 35.8002 220.798 23.9846 234.682L23.9829 231.693Z" fill="#76B779"/>
    <path d="M23.9916 129.261C32.5178 118.862 37.3702 105.938 37.7949 92.4977C38.0244 81.6522 35.3223 70.9457 29.9737 61.508C36.3822 70.5914 39.9282 81.3835 40.1561 92.4977C40.4759 114.728 26.8922 129.321 23.9897 132.305L23.9916 129.261Z" fill="#76B779"/>
    <path d="M545.901 370.673C547.071 371.286 548.859 372.229 551.057 373.41C554.019 375.002 555.11 375.624 555.317 376.765C555.378 377.103 555.365 377.505 554.48 379.458C553.214 382.249 552.394 383.504 552.394 383.504C551.611 384.711 546.689 392.31 545.71 391.773C545.568 391.695 545.332 391.35 547.957 383.033C548.637 380.878 549.222 379.098 549.632 377.868C548.627 377.417 547.563 376.888 546.459 376.265C544.746 375.298 543.26 374.288 541.993 373.322L545.901 370.673V370.673Z" fill="#B23030"/>
    <path d="M496.233 370.846C495.063 371.459 493.274 372.402 491.077 373.583C488.115 375.175 487.023 375.796 486.817 376.938C486.756 377.276 486.769 377.678 487.654 379.63C488.92 382.422 489.74 383.677 489.74 383.677C490.522 384.884 495.444 392.483 496.424 391.946C496.566 391.868 496.802 391.523 494.176 383.206C493.496 381.051 492.911 379.271 492.502 378.041C493.506 377.59 494.571 377.06 495.675 376.438C497.388 375.471 498.873 374.461 500.14 373.495L496.233 370.846V370.846Z" fill="#B23030"/>
    <path d="M554.876 364.491C557.971 365.002 560.242 365.369 561.425 365.559C565.548 366.221 566.831 366.479 567.486 367.58C567.865 368.218 567.9 368.924 567.364 371.619C566.72 374.85 566.398 376.465 565.572 378.6C564.202 382.14 561.6 387.303 560.751 387.005C560.056 386.761 560.771 382.93 561.9 376.887C562.438 374.001 562.957 371.638 563.323 370.047C561.645 369.971 559.884 369.846 558.048 369.657C555.777 369.424 553.634 369.118 551.63 368.769L554.876 364.491H554.876Z" fill="#B23030"/>
    <path d="M485.743 364.355C482.648 364.866 480.377 365.232 479.194 365.422C475.07 366.085 473.787 366.343 473.133 367.444C472.754 368.082 472.718 368.788 473.255 371.482C473.898 374.713 474.22 376.329 475.046 378.464C476.416 382.003 479.019 387.166 479.867 386.869C480.562 386.625 479.847 382.794 478.719 376.75C478.18 373.865 477.661 371.501 477.295 369.911C478.973 369.835 480.735 369.71 482.57 369.521C484.841 369.288 486.984 368.982 488.989 368.632L485.743 364.355H485.743Z" fill="#B23030"/>
    <path d="M558.875 356.403C561.737 355.117 563.832 354.166 564.923 353.669C568.725 351.94 569.937 351.445 571.09 352.001C571.758 352.322 572.177 352.891 573.216 355.434C574.355 358.224 575.048 359.732 575.573 362.245C576.072 364.633 576.811 369.606 575.921 369.875C575.046 370.139 572.949 365.746 571.567 362.849C570.395 360.395 569.575 358.311 569.055 356.903C567.523 357.545 565.96 358.228 564.369 358.954C562.34 359.881 560.393 360.821 558.529 361.765C558.644 359.978 558.76 358.191 558.875 356.403V356.403Z" fill="#B23030"/>
    <path d="M481.691 356.495C478.83 355.209 476.734 354.257 475.644 353.761C471.841 352.032 470.629 351.537 469.477 352.093C468.809 352.414 468.39 352.983 467.351 355.526C466.211 358.316 465.519 359.824 464.994 362.337C464.495 364.725 463.755 369.698 464.645 369.967C465.52 370.231 467.617 365.838 469 362.941C470.171 360.487 470.992 358.403 471.512 356.995C473.044 357.637 474.607 358.32 476.198 359.046C478.226 359.973 480.173 360.913 482.038 361.857C481.922 360.07 481.807 358.283 481.691 356.495V356.495Z" fill="#B23030"/>
    <path d="M566.593 319.041C566.08 320.851 565.023 323.537 562.758 325.981C560.793 328.102 558.598 329.307 557.433 329.935C556.533 330.42 555.744 330.768 555.16 331.005L558.019 334.456C558.827 334.246 559.935 333.891 561.166 333.272C564.2 331.745 565.937 329.639 566.712 328.679C569.021 325.818 569.954 322.887 570.357 321.141L566.593 319.041V319.041Z" fill="#B23030"/>
    <path d="M473.995 317.449C474.508 319.259 475.565 321.946 477.83 324.39C479.795 326.511 481.99 327.716 483.155 328.344C484.055 328.829 484.843 329.176 485.428 329.413L482.569 332.864C481.761 332.654 480.653 332.3 479.421 331.68C476.388 330.153 474.651 328.048 473.876 327.088C471.566 324.227 470.634 321.296 470.23 319.549L473.995 317.449V317.449Z" fill="#C13838"/>
    <path d="M473.995 317.449C474.508 319.259 475.565 321.946 477.83 324.39C479.795 326.511 481.99 327.716 483.155 328.344C484.055 328.829 484.843 329.176 485.428 329.413L482.569 332.864C481.761 332.654 480.653 332.3 479.421 331.68C476.388 330.153 474.651 328.048 473.876 327.088C471.566 324.227 470.634 321.296 470.23 319.549L473.995 317.449V317.449Z" fill="#B23030"/>
    <path d="M445.994 309.665C446.726 311.261 450.273 319.003 458.56 321.235C464.698 322.889 469.879 320.561 472.234 319.503C474.754 318.37 480.199 315.922 482.826 310.053C486.145 302.64 482.517 295.242 481.413 292.989C477.582 285.175 470.642 281.919 468.462 281C468.103 284.168 467.474 287.818 466.386 291.791C465.49 295.06 464.442 297.969 463.385 300.491C460.761 299.751 457.733 298.701 454.484 297.188C450.888 295.514 447.888 293.675 445.482 291.987C444.863 293.661 442.208 301.403 445.994 309.665Z" fill="#C13838"/>
    <path d="M594.594 311.257C593.862 312.853 590.315 320.594 582.028 322.827C575.889 324.481 570.709 322.152 568.354 321.094C565.834 319.961 560.389 317.514 557.761 311.645C554.443 304.231 558.07 296.833 559.175 294.58C563.006 286.767 569.946 283.51 572.126 282.591C572.485 285.759 573.114 289.41 574.202 293.383C575.098 296.652 576.146 299.56 577.203 302.083C579.827 301.343 582.854 300.293 586.104 298.78C589.7 297.105 592.7 295.267 595.106 293.578C595.725 295.252 598.38 302.994 594.594 311.257L594.594 311.257Z" fill="#C13838"/>
    <path d="M594.594 311.257C594.594 311.257 594.269 311.981 593.89 312.693C591.938 316.354 589.459 318.628 589.459 318.628C588.928 319.115 585.968 321.774 582.028 322.827C580.384 323.266 578.797 323.365 578.636 323.374C578.309 323.393 577.3 323.442 575.981 323.318C575.655 323.288 574.264 323.149 572.364 322.614C571.874 322.476 570.431 322.054 568.354 321.094C566.285 320.138 563.582 318.889 561.154 316.496C560.029 315.387 559.342 314.406 559.116 314.074C558.484 313.147 558.052 312.296 557.761 311.645C559.358 313.331 562.938 316.646 568.563 318.262C575.644 320.295 581.505 318.353 583.784 317.562C589.598 315.545 593.304 312.016 595.1 310.032C594.973 310.365 594.806 310.782 594.594 311.257V311.257Z" fill="#B23030"/>
    <path d="M518.129 297.747C518.101 299.252 517.962 303.394 514.847 307.049C510.722 311.888 504.775 311.887 504.025 311.874C499.751 311.801 496.726 309.754 495.437 308.727C494.72 308.156 490.051 304.304 489.921 297.747C489.899 296.604 489.938 291.572 493.901 287.607C497.755 283.75 502.576 283.65 504.025 283.62C505.589 283.588 510.483 283.487 514.289 287.187C518.253 291.041 518.157 296.219 518.129 297.747V297.747Z" fill="#C13838"/>
    <path d="M523.807 297.353C523.835 298.857 523.974 302.999 527.089 306.654C531.214 311.494 537.161 311.492 537.911 311.479C542.185 311.407 545.21 309.359 546.499 308.332C547.216 307.761 551.885 303.909 552.015 297.353C552.038 296.21 551.998 291.177 548.035 287.212C544.181 283.356 539.36 283.256 537.911 283.226C536.347 283.193 531.454 283.092 527.647 286.792C523.683 290.647 523.779 295.824 523.807 297.353V297.353Z" fill="#C13838"/>
    <path d="M563.91 347.997C563.874 349.212 563.52 357.294 557.929 364.438C547.176 378.18 525.636 377.474 518.783 377.249C512.382 377.04 491.611 376.359 481.439 362.441C480.335 360.931 476.558 355.617 476.183 347.997C475.669 337.54 481.926 330.078 483.881 327.951C493.999 316.939 510.049 316.94 519.136 316.941C526.916 316.942 548.73 316.944 558.798 331.073C564.085 338.492 563.948 346.739 563.91 347.997V347.997Z" fill="#C13838"/>
    <path d="M502.2 311.307C502.346 312.633 502.421 314.224 502.302 316.014C502.163 318.098 501.798 319.893 501.405 321.327L507.186 321.302C506.787 319.857 506.417 318.152 506.184 316.225C505.961 314.379 505.909 312.703 505.942 311.252L502.2 311.307L502.2 311.307Z" fill="#C13838"/>
    <path d="M539.867 311.006C539.721 312.333 539.646 313.924 539.766 315.714C539.904 317.798 540.269 319.592 540.662 321.026L534.881 321.001C535.281 319.556 535.651 317.852 535.883 315.925C536.107 314.078 536.159 312.402 536.125 310.951L539.867 311.006L539.867 311.006Z" fill="#C13838"/>
    <path d="M563.91 347.997C563.869 349.413 563.532 357.23 557.929 364.438C550.942 373.427 540.484 375.4 534.821 376.469C529.439 377.484 524.588 377.377 518.784 377.249C518.286 377.238 512.64 377.098 507.286 376.218C504.454 375.752 501.82 375.098 500.5 374.708C499.755 374.488 498.862 374.208 498.862 374.208C497.805 373.876 496.72 373.518 496.211 373.339C493.902 372.525 492.726 371.849 492.121 371.451C492.093 371.433 491.819 371.242 491.818 371.24C494.331 372.019 497.971 372.919 502.443 373.23C505.306 373.43 507.483 373.317 509.052 373.23C509.603 373.2 516.323 372.801 522.411 371.132C537.254 367.063 546.43 357.285 546.43 357.285C555.855 347.241 558.139 335.744 558.798 331.073C560.213 333.09 564.164 339.274 563.91 347.997L563.91 347.997Z" fill="#B23030"/>
    <path d="M542.135 287.568C541.026 287.109 537.954 285.894 534.292 287.015C529.442 288.501 527.551 292.862 527.322 293.416C526.016 296.574 526.55 299.444 526.89 300.716C527.08 301.423 528.41 306.072 533.161 308.253C533.99 308.634 537.681 310.206 541.84 308.561C545.885 306.961 547.491 303.458 547.974 302.405C548.495 301.268 550.126 297.712 548.632 293.743C547.076 289.61 543.261 288.033 542.135 287.568Z" fill="white"/>
    <path d="M515.426 299.302C515.527 298.105 515.758 294.805 513.586 291.646C510.709 287.462 505.987 286.972 505.39 286.92C501.991 286.625 499.42 288.001 498.312 288.71C497.696 289.104 493.672 291.776 493.029 296.972C492.917 297.877 492.534 301.877 495.354 305.352C498.097 308.733 501.916 309.21 503.064 309.354C504.303 309.509 508.18 309.993 511.507 307.37C514.972 304.637 515.322 300.518 515.426 299.302Z" fill="white"/>
    <path d="M539.913 292.513C539.311 292.264 537.641 291.603 535.651 292.213C533.015 293.02 531.987 295.391 531.863 295.692C531.153 297.408 531.443 298.968 531.628 299.659C531.731 300.043 532.454 302.57 535.036 303.756C535.486 303.962 537.493 304.817 539.753 303.923C541.951 303.053 542.824 301.149 543.087 300.577C543.37 299.959 544.257 298.026 543.445 295.869C542.599 293.623 540.525 292.766 539.913 292.513V292.513Z" fill="#5E1111"/>
    <path d="M506.373 292.796C505.771 292.547 504.101 291.887 502.111 292.496C499.475 293.304 498.447 295.674 498.323 295.975C497.613 297.691 497.903 299.251 498.088 299.942C498.191 300.327 498.914 302.853 501.496 304.039C501.947 304.246 503.953 305.1 506.213 304.206C508.411 303.337 509.285 301.432 509.547 300.86C509.83 300.242 510.717 298.31 509.905 296.153C509.059 293.906 506.985 293.049 506.373 292.796V292.796Z" fill="#5E1111"/>
    <path d="M536.677 294.761C536.687 294.535 536.704 293.912 536.271 293.336C535.696 292.572 534.804 292.517 534.692 292.512C534.05 292.484 533.578 292.763 533.375 292.905C533.262 292.985 532.527 293.519 532.447 294.501C532.433 294.673 532.393 295.428 532.951 296.059C533.494 296.673 534.216 296.732 534.433 296.75C534.667 296.769 535.4 296.829 536.005 296.309C536.635 295.768 536.668 294.99 536.677 294.761H536.677Z" fill="white"/>
    <path d="M502.953 295.237C502.963 295.012 502.98 294.389 502.546 293.812C501.972 293.049 501.08 292.994 500.968 292.989C500.326 292.961 499.854 293.24 499.651 293.382C499.538 293.461 498.803 293.996 498.723 294.978C498.709 295.149 498.669 295.905 499.227 296.536C499.77 297.149 500.492 297.209 500.709 297.226C500.943 297.246 501.676 297.306 502.281 296.786C502.911 296.244 502.944 295.467 502.953 295.237H502.953Z" fill="white"/>
    <path d="M480.69 304.627L480.999 304.503C481.179 304.405 481.586 304.151 481.876 303.645C482.198 303.084 482.184 302.547 482.169 302.345C482.101 300.648 481.765 297.945 480.336 295.018C479.519 293.345 478.562 292.045 477.735 291.093C477.555 290.878 477.148 290.446 476.537 290.229C476.345 290.161 476.046 290.058 475.667 290.115C475.547 290.133 475.428 290.165 475.311 290.211L475.002 290.334C474.965 290.345 474.317 290.535 474.125 291.192C473.995 291.638 474.127 292.124 474.465 292.451C475.36 293.521 476.543 295.184 477.441 297.452C478.433 299.958 478.674 302.188 478.718 303.65C478.735 303.726 478.876 304.313 479.464 304.608C480.06 304.907 480.62 304.659 480.69 304.626L480.69 304.627Z" fill="#DB8282"/>
    <path d="M471.712 289.387C472.371 290.093 473.477 290.131 474.182 289.471C474.888 288.811 474.925 287.703 474.266 286.997L473.95 286.657C473.291 285.951 472.185 285.913 471.48 286.573C470.774 287.233 470.737 288.341 471.396 289.048L471.712 289.387Z" fill="#DB8282"/>
    <path d="M559.953 305.827L559.642 305.71C559.46 305.614 559.048 305.368 558.749 304.869C558.416 304.314 558.42 303.777 558.431 303.574C558.467 301.876 558.752 299.167 560.126 296.214C560.911 294.526 561.843 293.208 562.652 292.24C562.828 292.021 563.227 291.582 563.834 291.354C564.025 291.282 564.322 291.174 564.702 291.223C564.822 291.239 564.942 291.268 565.059 291.313L565.37 291.43C565.408 291.44 566.06 291.618 566.263 292.271C566.402 292.715 566.279 293.203 565.947 293.536C565.073 294.622 563.921 296.308 563.066 298.592C562.121 301.117 561.922 303.351 561.906 304.813C561.89 304.89 561.761 305.48 561.178 305.786C560.588 306.096 560.023 305.858 559.953 305.827V305.827Z" fill="#DB8282"/>
    <path d="M568.952 290.075C569.598 289.356 569.539 288.25 568.821 287.603C568.104 286.956 566.999 287.015 566.353 287.734L566.043 288.079C565.398 288.798 565.456 289.905 566.174 290.551C566.892 291.198 567.997 291.139 568.642 290.42L568.952 290.075Z" fill="#DB8282"/>
    <path d="M446.002 309.7C446.002 309.7 446.326 310.425 446.706 311.136C448.657 314.798 451.137 317.072 451.137 317.072C451.668 317.559 454.627 320.217 458.567 321.27C460.212 321.709 461.798 321.808 461.96 321.817C462.287 321.836 463.296 321.885 464.615 321.761C464.94 321.731 466.331 321.592 468.232 321.057C468.721 320.919 470.164 320.497 472.241 319.537C474.311 318.581 477.014 317.332 479.442 314.939C480.558 313.838 481.224 312.896 481.48 312.517C482.108 311.586 482.53 310.733 482.809 310.088C481.217 311.773 477.646 315.088 472.033 316.705C464.961 318.742 459.103 316.8 456.812 316.005C450.997 313.988 447.292 310.459 445.496 308.475C445.622 308.808 445.79 309.226 446.002 309.7L446.002 309.7Z" fill="#B23030"/>
    <path d="M508.165 326.516C508.298 326.377 513.226 333.993 520.046 333.89C526.701 333.788 531.299 326.394 531.418 326.516C531.54 326.64 527.243 334.825 519.944 334.907C512.536 334.99 508.032 326.656 508.165 326.516Z" fill="#5E1111"/>
</svg>
