<svg viewBox="0 0 138 137" fill="none" xmlns="http://www.w3.org/2000/svg">
    <rect x="2.64032" y="2.02002" width="132.618" height="132.618" rx="30" fill="white" stroke="#116619" stroke-width="4"/>
    <path d="M108.581 80.4317C107.712 79.3857 106.57 78.0211 104.824 76.4693C103.588 75.3709 102.454 74.5381 101.573 73.9422C101.516 73.8798 101.462 73.8301 101.411 73.7959C100.788 76.517 100.272 79.7961 100.158 83.5242C100.095 85.5872 100.164 87.5012 100.309 89.2393C100.51 89.2952 100.823 89.3535 101.185 89.29C101.86 89.1718 102.05 88.7455 102.713 88.655C102.92 88.6268 103.338 88.562 103.69 88.8075C104.015 89.034 104.12 89.4086 104.204 89.7091C104.312 90.0972 104.303 90.4339 104.281 90.6454C105.303 90.6369 106.053 90.4696 106.539 90.3225C106.892 90.2156 107.364 90.0413 107.518 89.9847C108.021 89.7987 108.435 89.6275 108.728 89.5017C108.658 89.307 108.565 89.0083 108.505 88.6334C108.424 88.1253 108.346 87.721 108.535 87.3324C108.731 86.9296 109.08 86.7117 109.229 86.6191C109.898 86.2033 110.336 86.4407 110.988 86.133C111.278 85.9962 111.656 85.73 112 85.1561C110.774 83.2034 109.575 81.6293 108.581 80.4317V80.4317Z" fill="#6D6D6D"/>
    <path d="M30.4191 80.403C31.2877 79.357 32.4302 77.9924 34.1764 76.4406C35.4123 75.3422 36.5462 74.5094 37.427 73.9135C37.484 73.8511 37.5382 73.8015 37.5892 73.7672C38.2123 76.4883 38.7277 79.7674 38.8416 83.4955C38.9046 85.5586 38.836 87.4725 38.6913 89.2106C38.4897 89.2665 38.1767 89.3248 37.8147 89.2613C37.1399 89.1431 36.9498 88.7168 36.2867 88.6264C36.0795 88.5981 35.6617 88.5334 35.3098 88.7788C34.9849 89.0053 34.8802 89.38 34.7961 89.6804C34.6876 90.0685 34.6967 90.4052 34.7187 90.6167C33.6972 90.6082 32.9472 90.4409 32.4612 90.2939C32.1078 90.1869 31.6355 90.0126 31.4823 89.956C30.9787 89.77 30.5649 89.5988 30.2725 89.473C30.3422 89.2783 30.4351 88.9796 30.4951 88.6047C30.5764 88.0966 30.6543 87.6923 30.4651 87.3037C30.2689 86.9009 29.9197 86.683 29.7708 86.5904C29.1023 86.1746 28.6644 86.412 28.0122 86.1043C27.7224 85.9675 27.3439 85.7013 27 85.1275C28.2259 83.1747 29.4247 81.6006 30.4191 80.403V80.403Z" fill="#6D6D6D"/>
    <path d="M109.426 93.6868C109.319 91.9391 108.967 90.4481 108.896 90.1554C108.564 88.7723 108.183 87.7999 108.096 87.582C107.932 87.1721 107.588 86.3567 107.072 85.457C106.527 84.5073 105.552 83.047 103.903 81.5327C103.923 82.3537 103.977 84.5401 103.991 85.1141C104.043 87.2697 104.054 87.7783 104.129 88.6575C104.181 89.2781 104.217 89.5074 104.241 90.0784C104.264 90.6335 104.319 91.6342 104.166 92.71C104.125 93.0036 103.953 94.1346 103.34 95.6765C102.789 97.0609 101.573 100.007 98.4801 102.405C96.0656 104.277 93.6966 104.916 93.0196 105.082C90.5261 105.696 88.5182 105.477 87.9724 105.408C86.8562 105.267 84.1689 104.892 81.6602 102.839C79.1567 100.791 78.2975 98.2727 78.0157 97.2682C77.1299 91.3013 76.6908 86.4372 76.4538 83.1234C76.3479 81.6426 76.1425 76.3787 75.6746 65.8533C75.5821 63.7734 75.4812 61.3607 75.3642 58.3065C75.1653 53.1164 75.1179 51.247 74.8757 45.4639C74.8372 44.5429 74.8053 43.7985 74.785 43.3292L74.7648 42.8609C74.7333 42.1357 74.6492 39.8698 74.4487 34.1194C74.4556 33.9097 74.4992 33.4899 74.7666 33.0657C75.2157 32.3532 75.9518 32.1744 76.112 32.1395C72.7531 32.8729 66.2304 32.8729 62.8715 32.1395C63.0317 32.1744 63.7678 32.3532 64.2168 33.0657C64.4842 33.4899 64.5278 33.9097 64.5348 34.1194C64.3342 39.8698 64.2501 42.1357 64.2187 42.8609L64.1984 43.3292C64.1782 43.7985 64.1463 44.5429 64.1077 45.4639C63.8656 51.247 63.8181 53.1164 63.6193 58.3065C63.5023 61.3607 63.4013 63.7734 63.3089 65.8533C62.841 76.3787 62.6356 81.6426 62.5297 83.1234C62.2927 86.4372 61.8535 91.3013 60.9678 97.2682C60.686 98.2727 59.8268 100.791 57.3233 102.839C54.8146 104.892 52.1273 105.267 51.0111 105.408C50.4652 105.477 48.4574 105.696 45.9638 105.082C45.2869 104.916 42.9178 104.277 40.5033 102.405C37.41 100.007 36.1946 97.0609 35.6439 95.6765C35.0307 94.1346 34.8589 93.0036 34.8173 92.71C34.6648 91.6342 34.7197 90.6335 34.7429 90.0784C34.7667 89.5074 34.8024 89.2781 34.8549 88.6575C34.9292 87.7783 34.9404 87.2697 34.9926 85.1141C35.0066 84.5401 35.0601 82.3538 35.0803 81.5327C33.4319 83.047 32.4565 84.5073 31.9117 85.457C31.3957 86.3567 31.0515 87.1721 30.8878 87.582C30.8007 87.7999 30.4195 88.7723 30.087 90.1554C30.0167 90.4481 29.6642 91.9391 29.5572 93.6868C29.3259 97.4617 30.2111 100.283 30.4338 100.958C31.512 104.227 33.2253 106.207 35.6653 109.026L35.6653 109.026C35.667 109.027 39.8227 113.771 44.7579 116.948C46.0125 117.756 48.0163 118.912 50.6228 119.872C52.1656 120.44 53.3656 120.735 54.751 121.071C60.0108 122.346 60.5924 121.667 63.0468 122.869C65.2263 123.937 66.9264 125.53 67.4517 126.028C68.229 126.766 68.825 127.452 69.2466 127.975C69.2535 127.993 69.3378 128.004 69.3741 127.999C69.3805 128 69.603 128 69.6093 127.999C69.6457 128.004 69.73 127.993 69.7369 127.975C70.1584 127.452 70.7545 126.766 71.5318 126.028C72.0571 125.53 73.7572 123.937 75.9366 122.869C78.3911 121.667 78.9726 122.346 84.2325 121.071C85.6179 120.735 86.8179 120.44 88.3606 119.872C90.9672 118.912 92.971 117.756 94.2256 116.948C99.1607 113.771 103.316 109.027 103.318 109.026L103.318 109.026C105.758 106.207 107.471 104.227 108.55 100.958C108.772 100.283 109.658 97.4617 109.426 93.6868H109.426Z" fill="#5E5E5E"/>
    <path d="M69.5567 9C62.6882 9 57.1202 14.6462 57.1202 21.6112C57.1202 28.5761 62.6882 34.2224 69.5567 34.2224C76.4252 34.2224 81.9932 28.5762 81.9932 21.6112C81.9932 14.6462 76.4252 9 69.5567 9ZM69.5567 30.6791C64.618 30.6791 60.6144 26.6192 60.6144 21.6112C60.6144 16.6031 64.618 12.5433 69.5567 12.5433C74.4953 12.5433 78.4989 16.6031 78.4989 21.6112C78.4989 26.6192 74.4953 30.6791 69.5567 30.6791Z" fill="#6D6D6D"/>
    <path d="M85.9015 40.6233C83.9144 40.6233 82.186 41.746 81.2992 43.3999C80.7067 43.6237 80.1561 43.7922 79.677 43.9126C75.8555 43.9572 72.4795 43.9878 69.5564 44.0131C66.6333 43.9878 63.2573 43.9572 59.4358 43.9126C58.9567 43.7922 58.4061 43.6237 57.8136 43.3999C56.9268 41.746 55.1984 40.6233 53.2113 40.6233C50.32 40.6233 47.9762 43 47.9762 45.9319C47.9762 48.8638 50.32 51.2406 53.2113 51.2406C53.5184 51.2406 54.0768 51.2016 54.7078 51.02C56.0034 50.6471 56.8637 49.8985 57.2942 49.4626C57.9483 49.3492 60.0778 48.98 60.0833 48.9797C60.0881 48.9795 60.0933 48.98 60.0933 48.98C60.0934 48.98 61.7631 49.0147 69.5564 48.9857C77.3497 49.0147 79.0194 48.98 79.0195 48.98C79.0196 48.98 79.0247 48.9795 79.0295 48.9797C79.035 48.98 81.1645 49.3491 81.8186 49.4626C82.2491 49.8985 83.1094 50.6471 84.405 51.02C85.0361 51.2016 85.5944 51.2406 85.9015 51.2406C88.7928 51.2406 91.1366 48.8638 91.1366 45.9319C91.1366 43 88.7928 40.6233 85.9015 40.6233Z" fill="#6D6D6D"/>
    <path d="M103.944 81.5723C103.93 81.559 103.918 81.546 103.903 81.5327C103.923 82.3538 103.977 84.5401 103.991 85.1142C104.043 87.2697 104.054 87.7784 104.129 88.6575C104.181 89.2781 104.217 89.5074 104.241 90.0784C104.264 90.6335 104.319 91.6343 104.166 92.71C104.122 93.0221 103.989 94.0598 103.34 95.6765C102.666 97.3558 101.554 100.125 98.856 102.704C96.6888 104.776 94.5453 105.724 93.3328 106.247C91.9486 106.845 89.6789 107.798 86.5698 107.847C85.2391 107.869 82.4383 107.879 79.3934 106.247C77.1961 105.07 75.7922 103.53 75.0253 102.546C74.8944 102.725 72.9026 105.349 69.6245 105.104C66.8839 104.899 65.3495 102.846 65.1286 102.54C64.3508 103.474 63.0647 104.801 61.1707 105.904C57.3146 108.15 53.5162 107.968 51.5521 107.847C50.1962 107.764 47.9138 107.602 45.2775 106.361C42.9188 105.251 41.4618 103.836 40.3555 102.742C40.2036 102.592 37.2256 99.5991 35.644 95.6765C35.3669 94.9891 34.9981 93.9842 34.8174 92.71C34.6649 91.6343 34.7198 90.6335 34.743 90.0784C34.7668 89.5074 34.8025 89.2781 34.855 88.6575C34.9293 87.7784 34.9405 87.2697 34.9927 85.1142C35.0066 84.5401 35.0602 82.3538 35.0804 81.5327C34.8693 81.7266 34.67 81.9195 34.4805 82.1107C33.6267 84.2699 32.083 89.0432 33.104 94.9313C33.938 99.7413 36.0779 102.956 37.3713 104.854C38.454 106.444 43.4858 113.83 52.1473 116.147C55.8881 117.148 57.3187 116.469 61.5589 118.046C65.0434 119.341 67.5822 121.233 69.1736 122.618C70.5204 121.461 72.6487 119.843 75.5359 118.503C79.6197 116.607 81.8456 116.834 85.1796 115.963C93.9715 113.666 99.3351 106.646 100.584 104.914C102.02 102.922 104.758 99.0268 105.469 93.1787C106.063 88.2882 104.977 84.2057 103.944 81.5723V81.5723Z" fill="#6D6D6D"/>
    <path d="M71.5002 32.8279C71.7434 39.58 71.5091 81.1807 73.8675 96.684C73.9655 97.328 74.1849 98.6507 74.869 100.285C76.4567 104.076 79.3613 106.712 81.6977 108.394C80.0469 109.271 75.8113 111.263 69.9221 111.238C64.4282 111.216 60.4365 109.45 58.7534 108.597C61.0884 106.713 63.7556 103.95 65.1496 100.17C65.2203 99.9784 65.7488 98.523 65.9766 96.811C66.9545 89.4603 67.5517 38.5625 67.6155 32.9549C68.9104 32.9125 70.2053 32.8702 71.5002 32.8279Z" fill="#6D6D6D"/>
    <path d="M103.9 81.0152C103.809 80.9874 103.495 81.7915 103.468 81.863C102.968 83.1749 103.713 87.2268 104.214 89.6109L104.295 89.664C104.508 88.4138 104.523 87.3937 104.492 86.6731C104.433 85.291 104.132 83.2507 104.069 82.8536C104.046 82.7095 103.998 82.4217 103.966 82.0344C103.941 81.7346 103.928 81.5847 103.924 81.4358C103.917 81.1421 103.934 81.0255 103.9 81.0152H103.9Z" fill="#6D6D6D"/>
    <path d="M34.9746 81.131C34.8878 81.7269 34.7623 82.5961 34.6139 83.6483C34.2238 86.4153 33.8818 87.5338 34.2956 89.0343C34.4229 89.4957 34.579 89.8527 34.6776 90.0599C34.6994 89.9434 34.733 89.7647 34.7746 89.547C34.9445 88.6577 35.0742 88.0259 35.0948 87.9227C35.2771 87.0126 35.1884 86.024 35.208 84.6523C35.2256 83.4196 35.2395 82.2577 35.2504 81.174L34.9746 81.131Z" fill="#6D6D6D"/>
    <path d="M70.2069 9.89146C70.14 9.61526 65.8663 9.4437 62.4917 12.0441C58.7091 14.959 57.9214 19.9196 58.1836 20.0452C58.4277 20.1621 59.4649 16.0375 63.3747 12.9966C66.7746 10.3524 70.268 10.1442 70.2069 9.89147V9.89146Z" fill="#878787"/>
    <path d="M53.5622 41.4767C53.5054 41.2798 51.734 41.2338 50.4249 42.2768C48.8956 43.4953 48.6551 45.6761 48.8469 45.763C49.0144 45.8388 49.4316 44.2808 51.0449 42.9435C52.3787 41.8379 53.6109 41.6451 53.5622 41.4767H53.5622Z" fill="#878787"/>
    <path d="M86.4697 41.4767C86.4129 41.2798 84.6415 41.2338 83.3324 42.2768C81.8031 43.4953 81.5626 45.6761 81.7544 45.763C81.9219 45.8388 82.3391 44.2808 83.9524 42.9435C85.2862 41.8379 86.5184 41.6451 86.4697 41.4767H86.4697Z" fill="#878787"/>
    <path d="M36.6358 75.2906C36.5591 75.1992 34.7169 76.4322 32.9537 78.3196C31.2536 80.1395 30.1568 82.0005 30.2485 82.0725C30.3268 82.134 31.2533 80.8731 33.2919 78.7006C35.4376 76.4139 36.702 75.3695 36.6358 75.2907V75.2906Z" fill="#878787"/>
    <path d="M108.626 82.0867C108.719 82.0125 107.576 80.0979 105.784 78.238C104.057 76.4446 102.266 75.2609 102.191 75.351C102.128 75.428 103.334 76.4158 105.396 78.5658C107.566 80.8289 108.546 82.1506 108.626 82.0867H108.626Z" fill="#878787"/>
    <path d="M73.1814 108.876C69.3528 105.851 69.4968 101.141 69.518 100.697C69.4879 101.263 69.1284 106.409 64.7902 109.232C62.008 111.042 59.151 110.881 58.1774 110.781C59.8968 111.544 61.8167 112.521 63.8384 113.778C66.0654 115.163 67.9439 116.594 69.4905 117.916L69.4906 117.919L69.4918 117.917L69.493 117.919L69.4931 117.916C71.0303 116.599 72.9137 115.164 75.1602 113.778C77.3135 112.45 79.3501 111.444 81.1468 110.68C80.6015 110.801 76.6414 111.61 73.1814 108.876H73.1814Z" fill="#878787"/>
</svg>
