<svg viewBox="0 0 1041 673" fill="none" xmlns="http://www.w3.org/2000/svg">
    <path d="M930.275 31.5285H109.538C60.3791 31.5285 20.5282 71.3795 20.5282 120.538V559.113C20.5282 608.271 60.3791 648.122 109.538 648.122H930.275C979.434 648.122 1019.29 608.271 1019.29 559.113V120.538C1019.29 71.3795 979.434 31.5285 930.275 31.5285Z" fill="#B6CEE1" stroke="#116619" stroke-width="6"/>
    <path d="M10.3469 40.3962C14.0803 43.5191 30.3873 57.8544 33.3678 82.5644C35.0452 97.2366 31.7442 112.047 23.9945 124.618C23.9917 129.075 23.989 133.532 23.9862 137.989C25.0232 137.01 49.8969 112.69 42.0007 79.7975C35.744 53.7353 13.6633 42.0771 10.3469 40.3962Z" fill="#48964E"/>
    <path d="M17.0569 128.701C8.9823 135.637 6.59974 141.986 5.91973 146.508C3.13445 165.034 25.505 175.593 28.6391 200.181C30.0691 211.399 26.9366 221.161 23.9805 227.767L23.9875 239.712C41.4527 218.375 42.4272 204.688 40.0084 196.092C35.2337 179.124 13.756 169.631 15.3641 150.788C15.5785 148.344 16.1464 145.945 17.05 143.665C17.0523 138.677 17.0547 133.689 17.0569 128.701Z" fill="#48964E"/>
    <path d="M17.0604 232.674C5.48571 244.641 4.28572 252.946 5.18191 258.219C6.62856 266.731 13.6659 268.101 22.5952 285.077C28.1058 295.553 28.5785 301.026 28.6456 303.671C28.7256 309.923 27.1173 316.082 23.9902 321.497L23.991 330.539C41.6305 318.739 42.9887 308.886 42.9599 304.851C42.9091 297.746 38.4361 291.725 29.6048 279.838C21.4098 268.807 15.4084 264.258 14.9216 255.415C14.7655 251.724 15.4991 248.049 17.0604 244.7V232.674Z" fill="#48964E"/>
    <path d="M17.0604 325.22V335.103C13.8048 340.271 12.0902 346.261 12.1177 352.369C12.5845 369.455 28.9968 376.064 34.1056 392.065C36.8704 400.725 36.9913 414.222 23.998 434.822C23.9945 430.933 23.991 427.045 23.9876 423.156C26.0384 415.924 26.4201 408.32 25.1039 400.919C20.7622 377.867 0.685835 370.851 0.0169104 353.992C-0.233507 347.682 2.15076 337.868 17.0604 325.22Z" fill="#48964E"/>
    <path d="M17.05 427.831C4.9767 444.271 4.77019 454.633 6.80512 461.054C10.6863 473.3 24.3095 476.221 27.465 490.052C29.351 498.318 26.4773 506.012 23.9944 510.935C23.9956 514.078 23.9968 517.22 23.9979 520.363C37.3567 504.069 38.2159 493.78 36.1716 487.248C32.6197 475.899 19.2638 472.709 15.9545 458.324C14.7897 452.761 15.1722 446.984 17.0604 441.623L17.05 427.831Z" fill="#48964E"/>
    <path d="M17.0612 515.065C8.99151 525.759 9.0124 531.824 10.4206 535.356C13.1376 542.17 22.1154 542.287 25.5465 550.039C28.053 555.702 26.0884 562.023 24.2826 566.146C24.3981 567.501 24.5498 568.909 24.7375 570.368C24.9274 571.825 25.1416 573.223 25.3799 574.563C36.23 556.687 35.4077 548.633 32.7037 544.579C28.6327 538.476 17.7069 537.555 16.3971 530.191C16.1254 528.432 16.3546 526.631 17.0587 524.996L17.0612 515.065Z" fill="#48964E"/>
    <path d="M18.0222 572.507C13.0892 583.935 14.5023 589.32 16.4895 592.115C20.584 597.873 29.2555 595.641 37.1308 602.851C40.4592 606 42.9026 609.968 44.2168 614.358C44.9419 615.213 45.7119 616.085 46.5267 616.972C47.3524 617.869 48.1675 618.718 48.972 619.52C49.211 604.959 45.11 599.01 41.3366 596.265C34.4535 591.258 24.7423 594.061 20.6399 587.632C19.2122 585.118 18.7262 582.177 19.2688 579.337C19.0586 578.382 18.8583 577.4 18.6681 576.389C18.4184 575.057 18.2031 573.763 18.0222 572.507Z" fill="#48964E"/>
    <path d="M42.0031 622.283C46.7911 638.508 53.2136 643.192 57.9382 644.631C66.9854 647.388 73.8136 639.441 88.7123 639.365C96.1929 639.413 103.556 641.227 110.203 644.66L119.037 644.657C102.87 630.479 91.01 628.438 82.73 629.801C72.3763 631.505 63.8322 639.154 54.9499 635.224C51.4655 633.513 48.6522 630.688 46.9564 627.196C46.2082 626.514 45.4495 625.795 44.6803 625.04C43.7328 624.108 42.8404 623.189 42.0031 622.283Z" fill="#48964E"/>
    <path d="M115.106 651.591C127.369 659.207 134.715 658.829 139.176 657.027C145.937 654.296 147.67 647.647 156.146 644.779C160.852 643.316 165.884 643.273 170.614 644.655H177.173C165.138 636.785 157.597 636.827 152.826 638.581C144.69 641.572 140.989 650.87 130.321 652.01C128.053 652.244 125.761 652.1 123.54 651.584L115.106 651.591Z" fill="#48964E"/>
    <path d="M176.174 651.59C191.651 661.554 201.029 661.231 206.763 659.02C215.799 655.534 218.489 646.308 229.636 643.525C235.059 642.31 240.718 642.705 245.919 644.66L253.388 644.657C239.944 633.895 230.994 633.305 225.357 634.671C213.782 637.475 209.318 650.187 194.515 652.342C190.476 652.902 186.366 652.647 182.428 651.591L176.174 651.59Z" fill="#48964E"/>
    <path d="M249.258 651.582C265.838 664.48 276.984 665.311 284.237 663.447C296.849 660.205 300.696 648.04 316.407 643.82C324.23 641.89 332.436 642.182 340.102 644.66L351.961 644.655C333.752 633.539 321.409 633.567 313.345 635.888C299.746 639.802 293.8 651.537 277.043 653.596C270.737 654.311 264.351 653.625 258.341 651.587L249.258 651.582Z" fill="#48964E"/>
    <path d="M345.465 651.591C365.599 662.904 377.705 661.874 385.027 658.872C394.833 654.852 399.56 645.86 412.771 643.525C418.459 642.583 424.289 642.969 429.804 644.655L443.017 644.658C425.156 629.441 413.953 628.334 406.868 630.539C395.057 634.214 392.044 647.915 376.764 652.231C370.046 653.964 362.974 653.737 356.381 651.577L345.465 651.591Z" fill="#48964E"/>
    <path d="M436.307 651.584C442.658 655.453 452.538 660.082 464.273 659.315C481.079 658.216 487.83 646.955 505.592 642.197C514.149 639.904 527.156 638.613 545.113 644.65L557.538 644.652C526.411 625.02 509.136 625.608 498.952 630.686C488.018 636.138 480.788 648.994 462.926 651.881C457.708 652.701 452.387 652.6 447.203 651.584H436.307Z" fill="#48964E"/>
    <path d="M562.702 651.585C568.452 653.494 574.507 654.314 580.558 654.002C600.049 652.891 608.674 639.807 623.353 634.67C633.854 630.996 650.008 630.496 674.713 644.655L660.42 644.66C650.354 641.913 639.791 641.525 629.551 643.525C608.509 647.856 601.319 660.833 583.509 662.118C576.428 662.63 565.421 661.455 551.171 651.587L562.702 651.585Z" fill="#48964E"/>
    <path d="M678.232 651.584C690.721 656.031 703.969 657.957 717.208 657.249C748.6 655.366 762.648 638.53 787.599 631.572C805.047 626.705 831.514 625.641 869.511 644.67L852.521 644.66C835.629 641.292 818.247 641.207 801.323 644.41C765.319 651.434 753.078 670.21 724.734 672.301C710.686 673.337 690.342 670.448 664.51 651.591L678.232 651.584Z" fill="#48964E"/>
    <path d="M863.063 651.567C886.607 667.621 902.874 668.248 913.514 665.66C932.602 661.019 935.367 645.599 956.862 642.787C972.959 640.681 980.122 648.188 995.268 643.23C1005.77 639.793 1012.88 632.731 1017.11 627.587C1009.96 632.466 1001.87 635.785 993.35 637.327C976.852 640.181 972.486 633.405 958.485 634.671C935.888 636.714 931.904 655.755 909.678 658.725C898.771 660.182 888.074 657.154 877.949 651.549L863.063 651.567Z" fill="#48964E"/>
    <path d="M999.208 69.8698C997.078 77.8959 996.929 86.3192 998.772 94.4161C1003.46 113.868 1018.27 119.09 1024.6 136.621C1027.5 144.66 1029.28 157.114 1022.75 175.443L1022.76 186.227C1042.99 157.86 1042.88 141.801 1038.91 132.342C1033.64 119.792 1018.97 112.695 1008.05 87.2683C1006.39 83.4222 1005.27 80.1954 1004.61 78.1808C1004.06 77.2256 1003.48 76.2551 1002.86 75.2693C1001.65 73.3353 1000.43 71.5367 999.208 69.8698Z" fill="#48964E"/>
    <path d="M1015.82 180.961C1011.89 187.507 1007.1 197.909 1008.95 209.578C1011.34 224.602 1022.78 229.453 1027.25 244.773C1029.47 252.361 1030.52 264.371 1022.75 281.839V294.295C1042.18 265.974 1041.87 250.456 1037.66 241.453C1032.33 230.076 1018.31 223.862 1015.52 206.479C1014.82 201.997 1014.92 197.427 1015.82 192.98V180.961Z" fill="#48964E"/>
    <path d="M1015.82 288.046C1006.9 300.577 1006.59 308.452 1008.44 313.504C1011.7 322.443 1022.43 324.583 1024.6 334.976C1025.36 339.343 1024.71 343.839 1022.75 347.816L1022.76 356.235C1032.27 345.732 1033.16 338.662 1032.12 334.09C1029.58 322.9 1013.72 319.142 1013.31 307.528C1013.28 304.468 1014.15 301.468 1015.81 298.9L1015.82 288.046Z" fill="#48964E"/>
    <path d="M1015.82 351.992C1005.73 364.487 1004.91 372.978 1006.3 378.586C1009.03 389.572 1021.11 392.861 1024.01 406.33C1025.05 411.659 1024.61 417.171 1022.75 422.272V434.384C1035.55 419.748 1036.56 410.288 1034.93 404.264C1031.75 392.556 1017.13 388.512 1014.86 373.569C1014.29 369.557 1014.62 365.469 1015.82 361.6L1015.82 351.992Z" fill="#48964E"/>
    <path d="M1015.82 426.515C1004.79 443.25 1004.97 453.074 1007.55 459.062C1011.73 468.749 1023.75 471.98 1025.04 483.19C1025.39 487.06 1024.59 490.946 1022.75 494.368L1022.75 503.382C1032.03 494.91 1033.54 488.412 1033.23 484.075C1032.34 471.543 1015.58 466.621 1013.75 451.093C1013.29 446.598 1014.01 442.06 1015.82 437.921L1015.82 426.515Z" fill="#48964E"/>
    <path d="M1015.82 499.014C1007.02 507.596 1005.4 514.24 1005.86 518.975C1006.87 529.57 1018.51 532.74 1023.27 545.391C1026.88 554.982 1024.61 564.882 1021.83 572.165C1021.6 573.851 1021.3 575.628 1020.93 577.483C1020.57 579.278 1020.17 580.978 1019.75 582.576C1036.03 561.403 1036.46 549.678 1033.45 542.808C1028.98 532.623 1014.59 527.777 1014.27 515.286C1014.22 512.647 1014.75 510.03 1015.82 507.617L1015.82 499.014Z" fill="#48964E"/>
    <path d="M1014.2 575.757C1009.84 580.03 1006.56 585.276 1004.62 591.064C1001.29 601.346 1004.9 606.523 1000.52 615.745C999.569 617.76 996.178 624.913 989.124 628.141C977.107 633.64 963.034 623.823 962.617 624.765C962.192 625.726 975.865 638.171 990.342 634.283C997.405 632.386 1005.59 626.476 1007.66 618.456C1009.61 610.929 1007.55 596.224 1009.29 592.035C1009.35 591.892 1009.8 590.836 1010.36 589.358C1010.98 587.685 1011.45 586.25 1011.78 585.179C1012.3 583.51 1012.81 581.738 1013.27 579.868C1013.63 578.455 1013.94 577.085 1014.2 575.757Z" fill="#48964E"/>
    <path d="M1001.47 61.5114C1001.37 56.6351 1000.25 51.8343 998.181 47.4151C991.658 33.5863 977.938 28.8425 974.865 27.862C988.36 26.1976 1001.09 32.6254 1006.59 43.5783C1012.43 55.2029 1007.59 66.8654 1006.81 68.643C1005.94 67.3385 1004.98 65.9914 1003.94 64.6156C1003.11 63.5224 1002.29 62.4876 1001.47 61.5114Z" fill="#48964E"/>
    <path d="M43.1074 75.3058C44.178 75.238 38.4338 54.3328 49.1947 41.4385C57.8654 31.0486 73.9217 29.8508 87.2125 30.7765C89.4119 30.2335 91.3744 29.8336 93.0296 29.5356C94.0802 29.3464 95.6591 29.081 97.592 28.8308C98.9585 28.6539 100.173 28.5272 101.193 28.4349C76.8268 18.8415 53.2042 23.3875 43.6608 37.2327C33.201 52.4075 41.9815 75.3771 43.1074 75.3058Z" fill="#48964E"/>
    <path d="M93.9102 36.4151C102.92 41.8452 116.869 48.1997 132.092 45.3121C149.99 41.9171 155.559 28.4282 174.15 22.9922C183.451 20.2726 198.036 18.9772 219.103 28.0634H236.353C199.711 5.44145 178.684 6.07504 165.96 12.2196C151.449 19.2267 139.936 37.1661 118.258 37.0114C114.152 36.9709 110.076 36.3133 106.166 35.0607C103.849 35.1485 101.363 35.337 98.7344 35.6676C97.0497 35.8795 95.4402 36.133 93.9102 36.4151Z" fill="#48964E"/>
    <path d="M228.079 34.994C228.944 35.3655 230.199 35.8987 231.72 36.5247C233.329 37.2753 234.978 37.935 236.661 38.5009C240.168 39.6001 245.142 41.035 251.186 42.359C257.024 43.638 276.468 46.4508 289.033 46.3082C320.503 45.951 334.661 25.56 366.507 19.7456C380.473 17.1958 400.921 16.8869 427.844 28.053C437.861 28.0582 447.878 28.0634 457.896 28.0685C399.445 -5.47043 365.669 -2.9533 345.479 6.02161C327.021 14.2264 308.788 32.7752 274.516 36.1947C264.406 37.1846 254.208 36.7811 244.207 34.9957L228.079 34.994Z" fill="#48964E"/>
    <path d="M437.286 34.9914C465.596 51.2299 483.707 50.326 495.115 46.3082C510.947 40.7325 518.143 27.6528 538.058 24.6155C547.925 23.263 557.975 24.4497 567.256 28.0634H586.506C555.693 5.68429 537.191 4.95595 525.662 9.56331C510.09 15.7864 504.033 33.0253 483.162 37.0114C474.91 38.4536 466.427 37.7578 458.521 34.9905C451.443 34.9908 444.364 34.9911 437.286 34.9914Z" fill="#48964E"/>
    <path d="M571.485 34.9957C596.982 49.3601 614.019 48.7852 625.05 45.3121C642.733 39.7448 651.283 24.7466 672.199 23.5087C680.314 23.1283 688.403 24.6898 695.793 28.0634H718.178C696.641 9.28632 680.986 6.98964 670.428 8.67782C649.18 12.0756 638.772 33.1835 609.666 35.9045C603.46 36.4718 597.205 36.1641 591.084 34.9904C584.551 34.9922 578.018 34.994 571.485 34.9957Z" fill="#48964E"/>
    <path d="M703.477 34.994C726.783 49.3467 740.366 48.8083 748.64 44.9801C759.428 39.9895 761.813 29.122 774.613 24.9106C784.974 21.5015 795.456 24.6605 802.943 28.0599C808.95 28.0605 814.957 28.0611 820.964 28.0617C789.526 7.85254 773.908 8.26014 765.463 13.4001C755.427 19.5093 753.178 33.732 739.786 37.3065C732.496 39.2524 725.543 37.0715 720.901 34.9957L703.477 34.994Z" fill="#48964E"/>
    <path d="M809.739 34.9931C815.789 39.6486 825.205 45.3044 836.74 45.2753C856.236 45.2261 864.499 28.9799 885.881 23.2873C895.544 20.7146 910.126 19.7014 930.432 28.0634C933.816 28.0668 937.197 28.2545 940.56 28.6259C943.741 28.9771 946.679 29.4677 949.349 30.0243C907.174 3.31469 886.881 4.6651 876.141 11.039C865.409 17.4079 857.069 33.0336 838.068 35.5356C833.569 36.1108 829.005 35.9274 824.567 34.9931H809.739Z" fill="#48964E"/>
    <path d="M934.578 35.0669C941.184 39.498 948.551 42.6711 956.309 44.4268C966.959 46.7913 978.032 46.4488 988.516 43.4307C979.796 43.5594 971.096 42.5926 962.617 40.553C959.399 39.7762 956.384 38.8836 953.578 37.9281C947.375 36.2526 941 35.2927 934.578 35.0669V35.0669Z" fill="#48964E"/>
    <path d="M101.41 35.4049C107.838 38.3593 117.565 41.6527 128.908 40.4695C152.537 38.0046 160.464 18.4851 181.344 14.1011C191.498 11.969 206.67 13.0066 227.939 28.0634C226.906 28.0455 225.873 28.0276 224.84 28.0096C205.872 15.3877 191.931 14.5197 182.672 16.0932C160.602 19.8442 152.631 39.5941 129.016 42.2109C116.358 43.6135 105.462 39.3998 98.4162 35.7755L101.41 35.4049Z" fill="#76B779"/>
    <path d="M95.3166 29.1536C85.4727 25.4876 74.7352 24.9591 64.5788 27.6407C59.6373 29.0252 51.9161 31.1809 46.4277 38.2288C39.199 47.5115 40.6058 58.6408 41.0045 61.2498C40.6717 58.7011 39.5176 47.6986 46.8534 38.7216C52.3326 32.0165 60.2123 29.9397 64.8739 28.7106C73.9135 26.4301 83.4148 26.7632 92.2725 29.671C93.2873 29.4985 94.302 29.326 95.3166 29.1536Z" fill="#76B779"/>
    <path d="M237.66 34.9822C252 39.4528 273.205 43.7283 297.002 38.7822C330.164 31.8895 340.922 12.7916 368.942 7.64488C385.526 4.5989 410.17 6.06968 443.834 28.0613L439.167 28.0649C408.29 9.14931 385.263 7.9398 369.975 10.3011C340.724 14.8192 329.915 33.9371 297.666 40.8482C271.862 46.3781 248.691 40.5865 233.399 34.9946C234.82 34.9905 236.24 34.9864 237.66 34.9822Z" fill="#76B779"/>
    <path d="M444.941 34.9911C452.929 40.0391 465.38 46.0803 479.841 44.6481C504.225 42.2331 513.083 20.6748 537.726 17.8641C546.079 16.9113 558.71 17.8317 575.226 28.0738L578.428 28.0634C560.424 15.2718 546.765 13.8309 537.394 15.0971C514.3 18.2174 505.779 39.3249 480.948 41.9918C467.882 43.3952 456.562 39.0193 448.925 35.0007C447.597 34.9975 446.269 34.9943 444.941 34.9911Z" fill="#76B779"/>
    <path d="M578.18 34.9873C595.154 43.6952 608.029 44.0214 616.417 42.8772C642.702 39.292 652.867 17.4572 676.737 17.5321C689.165 17.5711 699.182 23.5302 705.282 28.0599C706.237 28.0611 707.192 28.0623 708.147 28.0634C694.849 16.8455 684.006 14.7085 676.847 14.6545C653.408 14.4776 643.263 36.4358 616.085 40.3317C601.595 42.4089 589.063 38.3766 581.209 34.9905L578.18 34.9873Z" fill="#76B779"/>
    <path d="M710.788 34.9947C718.061 40.2465 728.459 45.7932 739.491 43.7627C755.801 40.7608 759.939 23.6929 776.605 19.5981C783.78 17.8351 794.554 18.163 809.898 28.0606L812.55 28.0609C794.731 15.2624 782.829 14.6367 774.982 16.9418C759.326 21.5405 755.487 39.0733 739.159 41.8811C729.507 43.5409 720.566 39.1829 714.296 34.9957C713.126 34.9953 711.957 34.995 710.788 34.9947Z" fill="#76B779"/>
    <path d="M814.955 34.9931C819.827 38.1992 827.321 42.0445 836.555 42.2132C858.284 42.6099 867.535 22.245 889.127 16.9787C899.451 14.4606 914.822 14.852 936.534 28.2863C937.876 28.3995 939.218 28.5127 940.56 28.6259C915.515 11.7737 898.952 11.6916 888.574 14.5438C868.697 20.0065 859.238 39.606 836.887 39.6676C830.25 39.6106 823.717 38.0112 817.804 34.9957C816.854 34.9949 815.905 34.994 814.955 34.9931Z" fill="#76B779"/>
    <path d="M942.44 35.713C946.569 38.605 951.123 40.8354 955.94 42.3239C963.469 44.634 970.024 44.5734 970.051 44.3714C965.338 43.7267 960.69 42.6713 956.161 41.2171C952.257 39.881 948.499 38.1504 944.946 36.0521C944.11 35.9391 943.275 35.826 942.44 35.713Z" fill="#76B779"/>
    <path d="M988.516 31.625C991.866 32.7213 994.959 34.4872 997.607 36.8153C1000.25 39.1435 1002.4 41.9854 1003.92 45.1684C1005.43 48.3515 1006.28 51.8094 1006.42 55.3321C1006.56 58.8548 1005.98 62.3688 1004.72 65.6609L1003.26 63.7362C1005.12 57.5054 1004.64 50.8135 1001.93 44.9062C999.217 38.9989 994.45 34.2789 988.516 31.625V31.625Z" fill="#76B779"/>
    <path d="M1000.89 72.2494C1000.26 82.8465 1002.22 93.4377 1006.61 103.106C1014.89 120.768 1027.3 124.15 1031.79 138.06C1034.42 146.21 1034.63 158.89 1022.75 178.194L1022.75 180.961C1037.32 159.553 1037.47 145.875 1034.56 137.175C1030.09 123.821 1017.69 120.015 1008.88 100.872C1005.12 92.5861 1002.93 83.6724 1002.43 74.5864C1001.92 73.8074 1001.4 73.0284 1000.89 72.2494Z" fill="#76B779"/>
    <path d="M1015.82 184.986C1013.41 189.821 1010.25 197.931 1011.24 207.509C1013.17 226.011 1028.77 232.242 1032.34 249.345C1033.89 256.745 1033.67 268.5 1022.75 285.279V288.046C1036.28 269.414 1036.85 256.783 1034.85 248.681C1030.95 232.842 1015.36 226.727 1013.09 207.878C1012.36 201.084 1013.32 194.215 1015.89 187.882L1015.82 184.986Z" fill="#76B779"/>
    <path d="M1015.82 292.088C1009.52 300.359 1009.12 306.243 1009.77 309.963C1011.78 321.512 1026.15 324.672 1027.58 336.083C1028.33 342.038 1025.19 347.305 1022.75 350.54L1022.75 351.993C1029 345.097 1029.85 339.901 1029.47 336.415C1028.21 325.102 1012.73 321.778 1010.98 309.852C1010.1 303.818 1013.13 298.335 1015.81 294.662L1015.82 292.088Z" fill="#76B779"/>
    <path d="M1015.82 354.877C1009.05 365.795 1009 373.435 1010.13 378.341C1013.12 391.204 1026.44 394.586 1028.43 407.117C1029.67 414.86 1025.9 421.893 1022.75 426.431V429.613C1031.05 419.546 1031.86 412.226 1031.16 407.486C1029.35 395.193 1016.11 391.535 1012.94 377.603C1011.09 369.49 1013.6 362.01 1015.82 357.202L1015.82 354.877Z" fill="#76B779"/>
    <path d="M1015.82 431.54C1008.4 442.61 1008.31 450.201 1009.4 454.93C1012.39 467.942 1027.27 472.146 1027.7 484.296C1027.89 489.927 1024.89 494.552 1022.75 497.237L1022.75 499.561C1026.34 495.827 1030.01 490.629 1029.76 484.592C1029.27 472.672 1013.94 468.563 1011.09 454.856C1010.08 449.965 1010.53 443.248 1015.82 434.381V431.54Z" fill="#76B779"/>
    <path d="M1015.82 501.71C1012.2 505.779 1008.04 511.875 1008.73 518.754C1009.91 530.546 1024.14 533.781 1028.14 546.46C1029.93 552.144 1030.12 561.166 1021.39 575.016L1020.97 577.285C1032.6 561.775 1032.9 552.126 1030.91 546.128C1027.02 534.456 1012.63 531.24 1011.32 519.049C1010.67 513.035 1013.52 507.801 1015.82 504.514V501.71Z" fill="#76B779"/>
    <path d="M1013.28 579.796C1009.56 584.263 1006.96 589.556 1005.71 595.232C1003.78 604.436 1007.17 608.128 1004.05 616.335C1002.26 621.337 998.873 625.614 994.418 628.509C990.52 630.91 986.009 632.127 981.432 632.014C986.042 632.394 990.662 631.406 994.714 629.173C999.559 626.322 1003.26 621.875 1005.19 616.593C1008.15 608.792 1005.06 604.977 1007.15 595.343C1008.18 590.641 1010.06 586.164 1012.68 582.125L1013.28 579.796Z" fill="#76B779"/>
    <path d="M997.001 639.983C997.064 640.333 990.231 642.707 981.801 642.934C972.39 643.188 966.73 640.613 962.47 639.688C942.876 635.435 931.042 661.361 907.498 664.948C898.802 666.273 885.711 664.976 867.933 651.561L872.47 651.556C887.78 663.167 899.182 664.259 906.393 663.447C930.198 660.764 941.56 633.571 961.584 637.474C966.077 638.35 970.601 640.712 979.883 641.164C989.645 641.638 996.936 639.623 997.001 639.983Z" fill="#76B779"/>
    <path d="M859.281 644.664C846.215 639.293 824.975 632.842 800.917 637.437C768.848 643.563 757.616 664.379 727.649 667.652C715.114 669.021 695.5 667.736 669.584 651.59L674.313 651.588C685.418 658.133 703.568 666.516 724.992 664.553C755.92 661.72 767.454 639.729 798.925 633.453C812.761 630.694 834.433 630.178 864.262 644.667L859.281 644.664Z" fill="#76B779"/>
    <path d="M664.037 644.687C651.154 638.458 640.62 637.651 632.355 638.876C610.917 642.054 603.216 659.13 583.214 660.348C572.328 661.011 562.681 656.679 555.065 651.586L558.275 651.567C563.675 654.63 572.348 658.476 582.771 657.913C602.953 656.821 610.581 640.23 630.473 636.441C638.605 634.893 651.06 635.05 668.132 644.663L664.037 644.687Z" fill="#76B779"/>
    <path d="M549.273 644.651C527.307 632.848 512.883 633.741 503.748 636.773C488.389 641.872 482.538 654.828 465.564 656.917C455.012 658.215 445.881 654.611 440.071 651.584H443.613C450.165 654.716 457.453 655.987 464.678 655.257C482.171 653.136 488.125 638.533 502.641 633.066C511.819 629.609 527.077 628.802 552.323 644.651L549.273 644.651Z" fill="#76B779"/>
    <path d="M436.493 644.699C425.159 635.342 416.761 634.257 411.147 635.039C396.579 637.07 392.128 652.885 376.026 656.068C366.737 657.905 358.204 654.622 352.47 651.582L349.186 651.586C361.832 658.828 370.85 658.786 376.542 657.618C392.27 654.389 397.166 639.573 412.18 637.991C421.167 637.044 428.928 641.349 433.652 644.656L436.493 644.699Z" fill="#76B779"/>
    <path d="M343.431 644.659C338.235 642.102 329.583 638.814 319.691 640.37C302.42 643.088 297.038 658.106 281.064 660.569C274.988 661.506 265.331 660.943 252.012 651.579L255.498 651.583C261.237 655.047 270.054 659.071 280.068 657.747C296.509 655.573 301.906 640.871 318.473 638.046C324.612 637 333.915 637.306 346.475 644.657L343.431 644.659Z" fill="#76B779"/>
    <path d="M247.944 644.659C242.921 641.619 235.444 638.27 227.644 640.094C217.346 642.502 214.939 651.951 204.641 655.533C199.415 657.351 191.182 657.998 178.634 651.591L180.69 651.591C186.805 654.03 195.311 656.168 203.756 653.264C214.324 649.631 216.651 640.901 226.316 638.323C231.472 636.947 239.267 637.176 250.6 644.659H247.944Z" fill="#76B779"/>
    <path d="M175.127 644.655C166.239 639.155 160.08 639.111 156.054 640.149C146.567 642.594 143.858 652.346 133.808 653.984C129.396 654.556 124.916 653.716 121.011 651.586L118.41 651.588C125.345 655.862 130.57 656.207 134.25 655.533C144.054 653.738 146.739 644.014 156.829 641.754C162.921 640.389 168.708 642.419 172.988 644.655H175.127Z" fill="#76B779"/>
    <path d="M113.48 644.655C100.881 635.725 91.2151 634.611 84.6116 635.335C72.9819 636.61 67.4533 643.96 59.0089 641.91C50.9138 639.944 46.2258 630.817 43.6255 623.984L45.2295 625.576C47.9039 631.28 52.4118 638.401 59.5984 640.094C68.0881 642.094 73.6296 634.944 84.0212 633.269C91.1384 632.121 101.672 633.358 116.069 644.659L113.48 644.655Z" fill="#76B779"/>
    <path d="M45.3947 615.708C45.0881 611.126 43.8752 604.984 39.3444 600.729C31.9806 593.815 21.6087 597.29 17.4301 591.064C15.7766 588.6 14.7742 584.141 18.4904 575.414C18.6191 576.098 18.7477 576.782 18.8762 577.465C17.2405 581.599 15.9684 586.871 18.4262 590.621C22.4531 596.765 32.7686 593.143 40.156 599.475C43.5126 602.352 46.5172 607.5 46.7931 617.26C46.3269 616.743 45.8608 616.225 45.3947 615.708Z" fill="#76B779"/>
    <path d="M24.5267 568.625C30.1619 559.396 29.8582 553.748 28.498 550.279C25.3031 542.13 14.6376 541.809 12.2284 534.009C10.5306 528.513 13.9362 522.549 17.0604 518.385L17.0598 520.986C15.0042 524.117 12.5214 529.002 13.8886 533.788C16.1852 541.828 27.2138 542.118 30.4902 549.892C32.026 553.536 32.245 559.742 24.7701 570.615L24.5267 568.625Z" fill="#76B779"/>
    <path d="M23.9954 513.617C27.8757 508.27 32.3657 500.169 30.8776 491.398C28.5162 477.48 13.1498 473.942 9.8488 459.745C8.55186 454.166 8.79209 445.544 17.0541 433.163L17.0568 436.816C13.8066 442.419 10.3751 450.579 12.2284 459.246C15.3589 473.887 30.8829 477.417 33.3125 490.9C34.2915 496.333 33.3424 504.481 23.9963 515.83L23.9954 513.617Z" fill="#76B779"/>
    <path d="M23.9879 426.901C27.3632 419.487 31.1935 407.891 28.0553 395.533C22.9748 375.526 3.68727 369.495 3.33725 353.254C3.2183 347.736 5.24806 339.291 17.0604 328.665V331.654C12.0455 336.702 6.43255 344.146 6.53753 353.096C6.72924 369.433 25.7937 375.553 30.7853 394.5C32.8483 402.331 32.9074 413.871 24.0156 430.083C24.0063 429.022 23.9971 427.962 23.9879 426.901Z" fill="#76B779"/>
    <path d="M23.9904 324.704C33.2302 315.786 34.4585 308.487 34.4745 304.519C34.4838 302.232 34.1043 297.556 21.7466 278.953C12.536 265.087 9.34725 262.567 8.90797 256.485C8.33726 248.583 12.9182 241.727 17.0604 237.043V240.621C14.4345 244.232 11.4841 249.592 11.7856 255.932C12.1125 262.803 16.0476 266.351 23.4068 276.85C32.9914 290.523 37.7837 297.36 37.7948 304.519C37.8022 309.238 35.9793 317.228 23.9906 327.001L23.9904 324.704Z" fill="#76B779"/>
    <path d="M23.9829 231.693C32.8396 219.498 34.1486 209.883 33.7367 203.397C32.2585 180.113 6.81397 168.925 9.46146 148.722C10.3856 142.973 13.0399 137.642 17.0705 133.439C17.0637 134.7 17.0568 135.96 17.0501 137.22C14.3671 140.553 12.5691 144.509 11.8226 148.722C8.58694 168.77 34.9488 180.476 36.9095 202.806C37.5483 210.082 35.8002 220.798 23.9846 234.682L23.9829 231.693Z" fill="#76B779"/>
    <path d="M23.9916 129.261C32.5178 118.862 37.3702 105.938 37.7949 92.4977C38.0244 81.6522 35.3223 70.9457 29.9737 61.508C36.3822 70.5914 39.9282 81.3835 40.1561 92.4977C40.4759 114.728 26.8922 129.321 23.9897 132.305L23.9916 129.261Z" fill="#76B779"/>
    <path d="M587.675 418.636C586.736 418.624 583.175 418.576 581.518 416.268C580.362 414.658 580.453 412.395 582.584 405.967C584.332 400.692 585.359 398.932 588.148 391.996C590.81 385.379 591.747 382.327 591.937 378.38C592.023 376.605 592.103 374.947 591.7 373.052C591.309 371.209 589.92 366.593 578.913 359.081C572.557 354.743 563.686 349.912 560.615 345.388C559.154 343.238 558.667 340.847 558.667 340.847C558.453 339.563 558.037 337.761 558.667 336.348C560.426 332.399 569.371 332.92 571.456 333.042C575.435 333.274 575.667 334.033 582.82 335.045C585.768 335.462 585.491 335.3 590.635 335.874C601.43 337.079 602.395 337.766 605.085 336.97C609.109 335.78 611.528 332.887 613.486 330.546C616.804 326.578 617.981 322.662 619.525 317.522C621.083 312.333 621.755 309.754 624.379 302.011C626.036 297.122 627.318 293.795 630.524 292.276C631.108 292 632.825 291.277 634.917 291.592C640.103 292.372 642.43 298.749 642.85 299.999C643.284 301.293 643.403 302.599 643.641 305.21C643.906 308.123 643.793 310.074 643.793 318.623C643.793 318.643 643.793 318.623 643.793 318.623C643.793 318.631 643.771 321.261 644.268 325.228C644.516 327.203 645.009 329.536 646.236 334.276C646.348 334.708 647.22 336.352 648.302 337.629C650.483 340.206 654.315 341.741 666.767 341.676C673.684 341.639 674.462 341.155 682.277 341.202C691.237 341.256 695.055 341.922 696.485 344.517C697.216 345.843 697.066 347.207 696.959 348.188C696.666 350.862 695.038 353.944 688.434 358.489C686.639 359.723 683.11 362.007 676.831 364.764C668.657 368.352 664.044 369.132 661.794 373.052C660.448 375.396 660.255 377.906 660.255 377.906C660.197 378.649 660.158 380.155 660.87 382.51C661.935 386.028 663.464 387.428 665.938 391.522C666.842 393.02 667.567 394.455 669.016 397.324C673.596 406.391 676.969 413.137 674.463 418.755C673.992 419.809 673.044 421.934 670.911 422.899C666.286 424.989 659.899 419.902 651.374 412.953C645.355 408.046 642.246 404.664 634.088 398.626C628.859 394.757 627.289 394.04 625.326 393.89C621.512 393.601 618.578 395.636 608.75 404.428C597.453 414.534 593.648 418.716 587.675 418.636Z" fill="#B75151"/>
    <path d="M606.531 339.72C609.242 339.457 610.111 339.165 610.726 338.899C613.46 337.716 614.944 335.403 615.687 334.157C621.585 324.26 625.537 310.881 625.537 310.881C626.371 308.02 627.773 305.356 628.812 302.564C628.845 302.474 629.301 301.246 630.289 299.909C630.849 299.153 631.183 298.896 631.384 298.76C631.616 298.603 632.61 297.932 633.928 298.158C635.16 298.37 635.863 299.243 636.062 299.499C636.716 300.336 636.84 301.255 636.883 301.606C639.013 318.878 639.474 325.365 639.474 325.365C639.664 328.051 639.98 331.752 641.644 336.054C642.737 338.878 643.675 340.057 644.271 340.705C645.545 342.091 647.632 343.637 652.178 344.618C655.349 345.302 659.36 345.056 667.254 344.536C668.153 344.477 675.377 343.996 679.676 343.989C680.511 343.987 680.71 343.977 681.749 343.995C683.521 344.025 685.292 344.102 687.064 344.098C687.37 344.097 688.153 344.094 688.88 344.576C688.972 344.637 689.429 344.948 689.773 345.548C690.31 346.484 690.178 347.433 690.128 347.751C689.999 348.58 689.603 349.25 688.897 350.063C687.256 351.951 685.45 352.881 685.45 352.881C680.544 355.405 678.092 356.667 673.219 359.092C669.878 360.755 667.111 362.275 666.433 362.649C663.545 364.243 663.931 364.136 662.165 365.057C658.481 366.979 657.487 367.088 655.927 368.559C654.32 370.074 653.599 371.632 653.41 372.061C653.219 372.493 652.477 374.258 652.534 376.767C652.597 379.561 653.613 381.609 654.358 383.115C659.631 393.779 658.287 391.466 659.575 393.768C661.668 397.506 663.688 401.284 665.813 405.004C665.813 405.004 666.444 406.039 668.075 409.966C668.472 410.922 668.81 411.79 668.75 412.948C668.724 413.443 668.639 414.731 667.71 415.803C666.581 417.106 664.929 417.251 664.491 417.289C661.775 417.528 659.598 415.47 657.386 413.504C654.414 410.864 651.185 408.527 648.156 405.953C640.545 399.484 642.543 401.695 637.431 397.27C637.116 396.998 634.072 394.231 629.842 392.09C628.848 391.586 627.65 391.047 626.048 390.913C623.947 390.738 622.33 391.359 621.178 391.816C618.841 392.744 617.276 394.077 614.502 396.44C613.909 396.945 613.995 396.893 612.594 398.138C610.385 400.101 608.657 401.451 606.895 403.071C605.182 404.647 601.683 407.664 593.817 414.006C592.591 415.232 591.392 415.936 590.588 416.332C589.416 416.909 588.425 417.397 587.058 417.317C586.636 417.292 585.004 417.196 583.802 415.912C582.975 415.029 582.769 414.028 582.671 413.559C582.393 412.223 582.694 411.092 582.963 410.075C583.083 409.623 583.262 409.129 583.62 408.142C583.899 407.373 584.111 406.84 584.349 406.237C585.072 404.404 585.323 403.654 585.554 403.144C586.746 400.502 587.812 398.602 588.29 397.744C591.748 391.528 593.63 387.288 596.534 380.744C598.139 377.128 599.258 374.357 598.76 370.894C598.712 370.561 598.47 368.974 597.592 367.063C595.916 363.413 593.178 361.319 591.245 359.913C583.195 354.058 576.433 350.61 576.433 350.61C576.433 350.61 572.667 348.665 567.24 344.153C566.7 343.704 565.329 342.534 564.795 340.614C564.634 340.035 564.251 338.655 564.958 337.315C565.5 336.289 566.4 335.819 566.729 335.652C568.311 334.853 569.961 335.203 571.143 335.47C574.176 336.156 575.692 336.499 578.528 337.372C579.618 337.708 582.521 338.081 588.326 338.826C595.317 339.724 597.469 339.858 598.65 339.921C599.345 339.958 602.49 340.113 606.531 339.72Z" fill="#E06363"/>
    <path d="M596.527 386.367C600.278 377.565 599.828 372.975 599.606 371.426C599.44 370.273 598.976 367.936 597.736 365.234C595.013 359.306 590.49 356.015 588.315 354.434C578.617 347.379 570.501 343.217 570.16 343.043C570.16 343.043 570.16 343.043 570.16 343.043C570.164 343.036 570.13 343.012 570.129 343.011C570.098 342.987 568.93 341.27 569.492 340.177C569.874 339.436 570.922 339.234 571.892 339.162C575.139 338.92 577.426 340.136 580.434 340.993C583.737 341.934 586.821 341.989 592.98 342.316C593.982 342.369 595.061 342.396 596.186 342.396C596.186 342.396 596.186 342.396 596.187 342.396C598.502 342.396 600.837 342.283 603.128 342.061C606.824 341.702 608.462 341.243 609.905 340.618C614.111 338.798 616.556 335.547 618.586 332.543C621.928 327.596 623.603 322.376 626.628 312.948C627.194 311.185 628.1 309.543 628.659 307.779C628.979 306.765 629.215 305.878 630.043 305.102C630.816 304.378 632.207 303.654 633.181 304.086C634.381 304.62 634.486 306.702 634.566 308.794C634.792 314.672 634.831 319.241 634.834 319.516C634.847 320.98 635.16 327.058 637.776 333.821C639.414 338.055 641.012 340.077 642.072 341.229C645.003 344.417 648.981 346.467 654.591 347.677C656.609 348.113 658.766 348.307 661.582 348.307C664.851 348.307 669.065 348.03 673.944 347.708L674.009 347.704C676.272 348.083 677.928 349.237 678.226 350.7C678.43 351.704 677.938 352.582 677.734 352.935C676.218 355.554 672.498 355.598 669.564 357.217C667.816 358.182 667.017 358.655 666.434 359C665.895 359.32 665.598 359.495 664.701 359.964C663.385 360.651 662.405 361.114 661.54 361.524C659.536 362.473 657.953 363.222 656.014 365.051C653.518 367.403 652.204 369.893 651.643 371.168C651.027 372.564 650.005 375.484 650.092 379.322C650.196 383.963 651.865 387.337 652.862 389.354C656.232 396.168 657.26 398.388 657.754 399.456C658.246 400.518 658.379 400.785 659.118 402.105C661.117 405.676 661.599 406.343 662.06 407.426C662.894 409.385 663.466 410.727 662.811 411.62C662.084 412.61 660.169 412.61 659.817 412.278C659.789 412.251 659.637 412.093 659.396 411.911C659.049 411.648 658.886 411.665 655.236 408.563C650.33 404.393 648.645 403.146 647.291 402.144C646.205 401.34 645.347 400.705 642.736 398.446C640.948 396.87 637.306 393.923 632.601 391.54C630.885 390.673 628.746 389.755 625.868 389.515C625.413 389.477 624.953 389.458 624.499 389.458C621.213 389.458 618.703 390.454 617.355 390.989C613.663 392.454 611.333 394.44 607.806 397.445C607.368 397.818 607.202 397.967 606.835 398.299C606.579 398.531 606.204 398.869 605.478 399.515C604.347 400.52 603.32 401.388 602.326 402.228C602.326 402.228 602.326 402.228 602.326 402.228C600.615 403.607 599.421 404.731 598.735 405.354C596.687 407.213 595.663 408.143 595.548 408.217C595.154 408.472 591.69 410.71 589.924 409.519C588.802 408.762 588.765 406.891 588.869 405.443C589.331 398.995 593.273 394.006 596.527 386.367Z" fill="#E56E6E"/>
    <path d="M686.737 349.569C685.494 348.937 683.641 348.21 681.369 348.148C678.054 348.059 676.686 349.465 672.687 350.832C670.391 351.616 665.721 353.212 660.531 352.411C656.236 351.748 655.603 350.404 652.164 350.358C648.053 350.304 644.713 352.351 642.613 353.989C644.713 352.71 647.968 351.18 651.907 351.325C655.564 351.46 656.077 352.775 660.255 353.457C665.755 354.354 670.824 352.498 673.219 351.621C676.513 350.416 677.937 349.249 681.271 349.016C683.542 348.858 685.447 349.221 686.737 349.569Z" fill="#B75151"/>
    <path d="M633.457 300.63C632.312 302.106 630.955 304.361 630.852 307.182C630.747 310.035 632.01 311.158 632.194 314.049C632.428 317.748 630.596 319.657 629.51 322.653C628.399 325.715 627.878 330.442 630.773 337.571C628.502 330.858 629.15 326.315 630.22 323.363C631.492 319.854 633.541 318.098 633.299 314.286C633.118 311.442 631.848 310.367 631.799 307.182C631.756 304.393 632.681 302.109 633.457 300.63Z" fill="#B75151"/>
    <path d="M567.231 339.86C571.639 338.892 574.448 339.672 576.15 340.492C580.286 342.482 580.254 345.596 584.281 347.201C588.075 348.714 589.955 346.634 595.055 347.28C597.872 347.637 601.376 348.788 605.238 351.898C602.65 350.299 599.139 348.691 594.858 348.346C589.465 347.91 587.608 349.861 583.886 348.385C579.993 346.841 579.998 343.992 575.677 341.597C572.677 339.934 569.548 339.729 567.231 339.86Z" fill="#B75151"/>
    <path d="M587.043 414.532C587.103 412.19 587.591 409.056 589.727 406.559C592.333 403.513 595.12 404.072 597.778 401.113C600.368 398.23 599.645 395.562 600.936 391.325C601.972 387.923 604.355 383.353 610.408 378.696C605.494 383.508 603.332 388.039 602.278 391.404C600.806 396.103 601.459 398.644 598.844 401.547C596.173 404.512 593.534 404.035 590.556 407.27C588.335 409.682 587.446 412.507 587.043 414.532Z" fill="#B75151"/>
    <path d="M665.583 413.9C665.23 411.388 664.313 407.987 661.636 405.494C658.189 402.284 654.811 403.36 652.499 400.106C650.333 397.058 651.976 394.661 650.487 390.871C649.429 388.181 646.754 384.806 639.416 382.287C646.178 385.204 648.616 388.704 649.599 391.345C651.047 395.237 649.454 397.356 651.493 400.402C653.781 403.821 657.239 402.846 661.123 406.362C663.78 408.768 664.984 411.779 665.583 413.9Z" fill="#B75151"/>
    <path d="M672.687 349.207C673.667 349.207 674.463 348.411 674.463 347.431C674.463 346.45 673.667 345.655 672.687 345.655C671.706 345.655 670.911 346.45 670.911 347.431C670.911 348.411 671.706 349.207 672.687 349.207Z" fill="#B75151"/>
    <path d="M660.807 360.817C662.093 360.817 663.136 359.775 663.136 358.489C663.136 357.203 662.093 356.16 660.807 356.16C659.521 356.16 658.479 357.203 658.479 358.489C658.479 359.775 659.521 360.817 660.807 360.817Z" fill="#B75151"/>
    <path d="M661.981 351.089C662.455 351.089 662.84 350.704 662.84 350.23C662.84 349.756 662.455 349.372 661.981 349.372C661.507 349.372 661.123 349.756 661.123 350.23C661.123 350.704 661.507 351.089 661.981 351.089Z" fill="#B75151"/>
    <path d="M657.196 348.661C657.97 348.661 658.597 348.034 658.597 347.26C658.597 346.486 657.97 345.859 657.196 345.859C656.422 345.859 655.795 346.486 655.795 347.26C655.795 348.034 656.422 348.661 657.196 348.661Z" fill="#B75151"/>
    <path d="M671.483 355.489C671.799 355.489 672.055 355.233 672.055 354.917C672.055 354.601 671.799 354.345 671.483 354.345C671.167 354.345 670.911 354.601 670.911 354.917C670.911 355.233 671.167 355.489 671.483 355.489Z" fill="#B75151"/>
    <path d="M635.025 308.701C635.892 308.701 636.594 307.999 636.594 307.132C636.594 306.266 635.892 305.563 635.025 305.563C634.159 305.563 633.457 306.266 633.457 307.132C633.457 307.999 634.159 308.701 635.025 308.701Z" fill="#B75151"/>
    <path d="M627.957 314.562C628.573 314.562 629.073 314.062 629.073 313.446C629.073 312.83 628.573 312.33 627.957 312.33C627.341 312.33 626.841 312.83 626.841 313.446C626.841 314.062 627.341 314.562 627.957 314.562Z" fill="#B75151"/>
    <path d="M635.854 326.047C637.178 326.047 638.252 324.973 638.252 323.649C638.252 322.325 637.178 321.251 635.854 321.251C634.53 321.251 633.457 322.325 633.457 323.649C633.457 324.973 634.53 326.047 635.854 326.047Z" fill="#B75151"/>
    <path d="M631.528 329.924C631.944 329.924 632.282 329.586 632.282 329.17C632.282 328.753 631.944 328.415 631.528 328.415C631.111 328.415 630.773 328.753 630.773 329.17C630.773 329.586 631.111 329.924 631.528 329.924Z" fill="#B75151"/>
    <path d="M624.113 327.171C625.208 327.171 626.096 326.284 626.096 325.188C626.096 324.093 625.208 323.205 624.113 323.205C623.017 323.205 622.129 324.093 622.129 325.188C622.129 326.284 623.017 327.171 624.113 327.171Z" fill="#B75151"/>
    <path d="M626.806 339.84C627.853 339.84 628.701 338.992 628.701 337.946C628.701 336.9 627.853 336.052 626.806 336.052C625.76 336.052 624.912 336.9 624.912 337.946C624.912 338.992 625.76 339.84 626.806 339.84Z" fill="#B75151"/>
    <path d="M643.59 348.128C644.816 348.128 645.81 347.135 645.81 345.908C645.81 344.682 644.816 343.688 643.59 343.688C642.364 343.688 641.37 344.682 641.37 345.908C641.37 347.135 642.364 348.128 643.59 348.128Z" fill="#B75151"/>
    <path d="M585.484 344.576C586.531 344.576 587.379 343.728 587.379 342.682C587.379 341.636 586.531 340.788 585.484 340.788C584.438 340.788 583.59 341.636 583.59 342.682C583.59 343.728 584.438 344.576 585.484 344.576Z" fill="#B75151"/>
    <path d="M571.193 345.009C571.922 345.009 572.514 344.418 572.514 343.688C572.514 342.959 571.922 342.368 571.193 342.368C570.463 342.368 569.872 342.959 569.872 343.688C569.872 344.418 570.463 345.009 571.193 345.009Z" fill="#B75151"/>
    <path d="M569.115 338.538C569.622 338.538 570.033 338.127 570.033 337.62C570.033 337.114 569.622 336.703 569.115 336.703C568.609 336.703 568.198 337.114 568.198 337.62C568.198 338.127 568.609 338.538 569.115 338.538Z" fill="#B75151"/>
    <path d="M575.841 345.654C576.27 345.654 576.617 345.307 576.617 344.879C576.617 344.45 576.27 344.103 575.841 344.103C575.413 344.103 575.065 344.45 575.065 344.879C575.065 345.307 575.413 345.654 575.841 345.654Z" fill="#B75151"/>
    <path d="M593.269 343.688C593.972 343.688 594.542 343.119 594.542 342.416C594.542 341.713 593.972 341.143 593.269 341.143C592.566 341.143 591.996 341.713 591.996 342.416C591.996 343.119 592.566 343.688 593.269 343.688Z" fill="#B75151"/>
    <path d="M594.513 356.417C595.902 356.417 597.029 355.29 597.029 353.901C597.029 352.511 595.902 351.384 594.513 351.384C593.123 351.384 591.996 352.511 591.996 353.901C591.996 355.29 593.123 356.417 594.513 356.417Z" fill="#B75151"/>
    <path d="M600.531 354.167C601.158 354.167 601.666 353.659 601.666 353.032C601.666 352.406 601.158 351.898 600.531 351.898C599.905 351.898 599.397 352.406 599.397 353.032C599.397 353.659 599.905 354.167 600.531 354.167Z" fill="#B75151"/>
    <path d="M609.905 348.898C611.098 348.898 612.065 347.931 612.065 346.737C612.065 345.544 611.098 344.576 609.905 344.576C608.711 344.576 607.744 345.544 607.744 346.737C607.744 347.931 608.711 348.898 609.905 348.898Z" fill="#B75151"/>
    <path d="M607.004 394.719C608.066 394.719 608.928 393.858 608.928 392.795C608.928 391.733 608.066 390.871 607.004 390.871C605.941 390.871 605.08 391.733 605.08 392.795C605.08 393.858 605.941 394.719 607.004 394.719Z" fill="#B75151"/>
    <path d="M594.365 399.87C595.411 399.87 596.259 399.021 596.259 397.975C596.259 396.929 595.411 396.081 594.365 396.081C593.318 396.081 592.47 396.929 592.47 397.975C592.47 399.021 593.318 399.87 594.365 399.87Z" fill="#B75151"/>
    <path d="M604.754 398.863C605.261 398.863 605.672 398.452 605.672 397.946C605.672 397.439 605.261 397.028 604.754 397.028C604.247 397.028 603.837 397.439 603.837 397.946C603.837 398.452 604.247 398.863 604.754 398.863Z" fill="#B75151"/>
    <path d="M599.337 384.063C599.828 384.063 600.225 383.666 600.225 383.175C600.225 382.685 599.828 382.287 599.337 382.287C598.847 382.287 598.449 382.685 598.449 383.175C598.449 383.666 598.847 384.063 599.337 384.063Z" fill="#B75151"/>
    <path d="M605.761 374.65C607.019 374.65 608.04 373.63 608.04 372.371C608.04 371.112 607.019 370.092 605.761 370.092C604.502 370.092 603.481 371.112 603.481 372.371C603.481 373.63 604.502 374.65 605.761 374.65Z" fill="#B75151"/>
    <path d="M595.46 410.348C596.359 410.348 597.088 409.619 597.088 408.72C597.088 407.821 596.359 407.092 595.46 407.092C594.561 407.092 593.832 407.821 593.832 408.72C593.832 409.619 594.561 410.348 595.46 410.348Z" fill="#B75151"/>
    <path d="M590.604 412.477C590.979 412.477 591.284 412.173 591.284 411.797C591.284 411.422 590.979 411.118 590.604 411.118C590.229 411.118 589.924 411.422 589.924 411.797C589.924 412.173 590.229 412.477 590.604 412.477Z" fill="#B75151"/>
    <path d="M588.711 405.612C589.152 405.612 589.51 405.254 589.51 404.813C589.51 404.371 589.152 404.014 588.711 404.014C588.269 404.014 587.912 404.371 587.912 404.813C587.912 405.254 588.269 405.612 588.711 405.612Z" fill="#B75151"/>
    <path d="M631.01 388.444C632.579 388.444 633.851 387.172 633.851 385.602C633.851 384.033 632.579 382.761 631.01 382.761C629.44 382.761 628.168 384.033 628.168 385.602C628.168 387.172 629.44 388.444 631.01 388.444Z" fill="#B75151"/>
    <path d="M650.112 375.301C651.158 375.301 652.006 374.453 652.006 373.407C652.006 372.361 651.158 371.513 650.112 371.513C649.065 371.513 648.217 372.361 648.217 373.407C648.217 374.453 649.065 375.301 650.112 375.301Z" fill="#B75151"/>
    <path d="M653.979 396.614C654.797 396.614 655.459 395.951 655.459 395.134C655.459 394.316 654.797 393.654 653.979 393.654C653.162 393.654 652.499 394.316 652.499 395.134C652.499 395.951 653.162 396.614 653.979 396.614Z" fill="#B75151"/>
    <path d="M658.834 401.448C660.12 401.448 661.162 400.406 661.162 399.12C661.162 397.834 660.12 396.791 658.834 396.791C657.548 396.791 656.505 397.834 656.505 399.12C656.505 400.406 657.548 401.448 658.834 401.448Z" fill="#B75151"/>
    <path d="M659.505 412.746C660.616 412.746 661.517 411.845 661.517 410.733C661.517 409.621 660.616 408.72 659.505 408.72C658.393 408.72 657.492 409.621 657.492 410.733C657.492 411.845 658.393 412.746 659.505 412.746Z" fill="#B75151"/>
    <path d="M654.127 407.092C654.645 407.092 655.065 406.672 655.065 406.155C655.065 405.637 654.645 405.217 654.127 405.217C653.61 405.217 653.19 405.637 653.19 406.155C653.19 406.672 653.61 407.092 654.127 407.092Z" fill="#B75151"/>
    <path d="M645.376 394.453C646.291 394.453 647.033 393.711 647.033 392.795C647.033 391.88 646.291 391.138 645.376 391.138C644.46 391.138 643.718 391.88 643.718 392.795C643.718 393.711 644.46 394.453 645.376 394.453Z" fill="#B75151"/>
    <path d="M650.457 385.602C650.996 385.602 651.434 385.165 651.434 384.626C651.434 384.086 650.996 383.649 650.457 383.649C649.917 383.649 649.48 384.086 649.48 384.626C649.48 385.165 649.917 385.602 650.457 385.602Z" fill="#B75151"/>
    <path d="M639.7 393.915C640.009 393.915 640.26 393.664 640.26 393.355C640.26 393.046 640.009 392.795 639.7 392.795C639.39 392.795 639.14 393.046 639.14 393.355C639.14 393.664 639.39 393.915 639.7 393.915Z" fill="#B75151"/>
    <path d="M641.449 387.734C641.852 387.734 642.179 387.407 642.179 387.003C642.179 386.6 641.852 386.273 641.449 386.273C641.045 386.273 640.718 386.6 640.718 387.003C640.718 387.407 641.045 387.734 641.449 387.734Z" fill="#B75151"/>
    <path d="M646.856 401.034C647.237 401.034 647.546 400.725 647.546 400.343C647.546 399.962 647.237 399.653 646.856 399.653C646.474 399.653 646.165 399.962 646.165 400.343C646.165 400.725 646.474 401.034 646.856 401.034Z" fill="#B75151"/>
    <path d="M681.231 352.371C681.504 352.371 681.725 352.15 681.725 351.878C681.725 351.605 681.504 351.384 681.231 351.384C680.959 351.384 680.738 351.605 680.738 351.878C680.738 352.15 680.959 352.371 681.231 352.371Z" fill="#B75151"/>
    <path d="M628.515 318.875C628.823 318.875 629.073 318.625 629.073 318.317C629.073 318.008 628.823 317.759 628.515 317.759C628.207 317.759 627.957 318.008 627.957 318.317C627.957 318.625 628.207 318.875 628.515 318.875Z" fill="#B75151"/>
    <path d="M630.318 304.626C630.503 304.626 630.653 304.476 630.653 304.291C630.653 304.106 630.503 303.956 630.318 303.956C630.133 303.956 629.983 304.106 629.983 304.291C629.983 304.476 630.133 304.626 630.318 304.626Z" fill="#B75151"/>
    <path d="M634.616 319.136C634.842 319.136 635.025 318.952 635.025 318.726C635.025 318.5 634.842 318.317 634.616 318.317C634.39 318.317 634.206 318.5 634.206 318.726C634.206 318.952 634.39 319.136 634.616 319.136Z" fill="#B75151"/>
    <path d="M589.253 345.009C589.372 345.009 589.469 344.912 589.469 344.793C589.469 344.673 589.372 344.576 589.253 344.576C589.133 344.576 589.036 344.673 589.036 344.793C589.036 344.912 589.133 345.009 589.253 345.009Z" fill="#B75151"/>
    <path d="M603.449 342.025C603.693 342.025 603.89 341.828 603.89 341.584C603.89 341.34 603.693 341.143 603.449 341.143C603.205 341.143 603.008 341.34 603.008 341.584C603.008 341.828 603.205 342.025 603.449 342.025Z" fill="#B75151"/>
    <path d="M598.171 395.134C598.507 395.134 598.78 394.861 598.78 394.524C598.78 394.188 598.507 393.915 598.171 393.915C597.834 393.915 597.561 394.188 597.561 394.524C597.561 394.861 597.834 395.134 598.171 395.134Z" fill="#B75151"/>
    <path d="M603.215 382.287C604.065 382.287 604.754 381.598 604.754 380.748C604.754 379.898 604.065 379.209 603.215 379.209C602.365 379.209 601.676 379.898 601.676 380.748C601.676 381.598 602.365 382.287 603.215 382.287Z" fill="#B75151"/>
    <path d="M607.675 387.003C607.876 387.003 608.04 386.84 608.04 386.638C608.04 386.437 607.876 386.273 607.675 386.273C607.473 386.273 607.31 386.437 607.31 386.638C607.31 386.84 607.473 387.003 607.675 387.003Z" fill="#B75151"/>
    <path d="M621.827 356.281C622.547 356.211 622.778 356.133 622.942 356.063C623.668 355.748 624.063 355.134 624.26 354.802C625.827 352.172 626.878 348.617 626.878 348.617C627.099 347.857 627.472 347.149 627.748 346.406C627.757 346.383 627.878 346.056 628.14 345.701C628.289 345.5 628.378 345.432 628.431 345.396C628.493 345.354 628.757 345.176 629.107 345.236C629.435 345.292 629.622 345.524 629.675 345.592C629.848 345.815 629.881 346.059 629.893 346.152C630.459 350.742 630.581 352.466 630.581 352.466C630.632 353.18 630.716 354.163 631.158 355.306C631.448 356.057 631.698 356.37 631.856 356.542C632.195 356.911 632.749 357.322 633.957 357.582C634.8 357.764 635.866 357.699 637.964 357.56C638.202 357.545 640.122 357.417 641.265 357.415C641.487 357.415 641.539 357.412 641.816 357.417C642.287 357.425 642.757 357.445 643.228 357.444C643.309 357.444 643.518 357.443 643.711 357.571C643.735 357.587 643.856 357.67 643.948 357.829C644.091 358.078 644.056 358.33 644.042 358.415C644.008 358.635 643.903 358.813 643.715 359.029C643.279 359.531 642.799 359.778 642.799 359.778C641.496 360.449 640.844 360.784 639.549 361.429C638.661 361.871 637.926 362.275 637.746 362.374C636.978 362.798 637.08 362.769 636.611 363.014C635.632 363.525 635.368 363.554 634.953 363.945C634.527 364.347 634.335 364.761 634.285 364.875C634.234 364.99 634.037 365.459 634.052 366.126C634.069 366.868 634.339 367.412 634.537 367.813C635.938 370.647 635.581 370.032 635.923 370.644C636.479 371.637 637.016 372.641 637.581 373.63C637.581 373.63 637.748 373.905 638.182 374.948C638.287 375.202 638.377 375.433 638.361 375.741C638.354 375.872 638.332 376.215 638.085 376.499C637.785 376.846 637.346 376.884 637.229 376.894C636.508 376.958 635.929 376.411 635.341 375.889C634.552 375.187 633.693 374.566 632.888 373.882C630.866 372.163 631.397 372.75 630.038 371.574C629.955 371.502 629.146 370.767 628.022 370.198C627.757 370.064 627.439 369.921 627.013 369.885C626.455 369.838 626.025 370.003 625.719 370.125C625.098 370.372 624.682 370.726 623.945 371.354C623.787 371.488 623.81 371.474 623.438 371.805C622.851 372.327 622.392 372.685 621.924 373.116C621.468 373.535 620.538 374.337 618.448 376.022C618.122 376.348 617.804 376.535 617.59 376.64C617.278 376.793 617.015 376.923 616.652 376.902C616.54 376.895 616.106 376.87 615.787 376.528C615.567 376.294 615.512 376.028 615.486 375.903C615.412 375.548 615.492 375.247 615.564 374.977C615.596 374.857 615.643 374.726 615.738 374.463C615.812 374.259 615.869 374.117 615.932 373.957C616.124 373.47 616.191 373.271 616.252 373.135C616.569 372.433 616.852 371.928 616.979 371.7C617.898 370.048 618.398 368.922 619.17 367.183C619.597 366.222 619.894 365.485 619.762 364.565C619.749 364.477 619.685 364.055 619.451 363.547C619.006 362.577 618.278 362.02 617.764 361.647C615.625 360.091 613.828 359.175 613.828 359.175C613.828 359.175 612.828 358.658 611.385 357.459C611.242 357.339 610.878 357.029 610.736 356.518C610.693 356.364 610.591 355.998 610.779 355.642C610.923 355.369 611.162 355.244 611.25 355.2C611.67 354.987 612.109 355.08 612.423 355.151C613.229 355.334 613.631 355.425 614.385 355.657C614.675 355.746 615.446 355.845 616.989 356.043C618.847 356.282 619.419 356.317 619.733 356.334C619.917 356.344 620.753 356.385 621.827 356.281Z" fill="#E87C7C"/>
</svg>
