<svg viewBox="0 0 870 540" fill="none" xmlns="http://www.w3.org/2000/svg">
    <rect x="3" y="3" width="864" height="533.4" rx="77" fill="white" stroke="#116619" stroke-width="6"/>
    <path d="M547.379 202.404C545.601 199.718 542.974 196.464 539.162 193.559C523.832 181.875 503.951 186.92 500.002 188.068C494.585 189.642 490.317 191.865 487.486 193.559C489.175 193.691 491.839 194.106 494.787 195.504C497.626 196.85 499.587 198.568 500.755 199.762C505.426 198.043 513.346 195.8 523.311 196.189C534.37 196.621 542.78 200.094 547.379 202.404H547.379Z" fill="#34848C"/>
    <path d="M538.445 255.599C535.254 257.763 530.878 260.195 525.35 261.887C513.122 265.63 502.486 263.541 497.347 262.141C498.169 262.004 499.385 261.73 500.76 261.127C502.312 260.446 503.527 259.926 504.237 258.656C504.768 257.705 504.797 256.731 504.759 256.137C508.641 257.23 513.926 258.29 520.235 258.34C527.887 258.4 534.162 256.952 538.445 255.599Z" fill="#34848C"/>
    <path d="M441.689 258.674C442.602 257.844 446.135 254.299 447.947 251.213C451.622 244.952 448.175 240.643 451.171 234.675C452.317 232.392 454.67 229.403 459.969 226.976C454.669 224.548 452.316 221.558 451.17 219.275C448.174 213.308 451.622 208.998 447.946 202.738C446.134 199.652 442.601 196.107 441.688 195.277C440.949 194.604 440.218 194.089 440.218 194.089C438.834 193.112 438.014 192.896 438.038 192.805C438.148 192.373 458.104 191.993 468.332 204.227C472.243 208.905 473.651 214.136 474.232 217.562C476.596 214.66 491.87 196.543 518.207 195.229C532.196 194.531 543.471 199.469 547.239 201.249C556.36 205.559 562.072 210.997 563.72 212.622C569.035 217.865 572.349 223.176 574.34 226.976C572.341 230.762 569.021 236.091 563.721 241.328C545.155 259.672 520.563 258.839 518.208 258.722C491.871 257.408 476.597 239.291 474.233 236.389C473.652 239.815 472.244 245.046 468.333 249.724C458.105 261.958 438.149 261.577 438.038 261.145C438.015 261.054 438.835 260.839 440.219 259.862C440.219 259.862 440.95 259.346 441.689 258.674Z" fill="#54A7BA"/>
    <path d="M441.689 258.674C442.602 257.844 446.135 254.299 447.947 251.213C451.622 244.952 448.175 240.643 451.171 234.675C452.317 232.392 454.67 229.403 459.969 226.976C454.669 224.548 452.316 221.558 451.17 219.275C448.174 213.308 451.622 208.998 447.946 202.738C446.134 199.652 442.601 196.107 441.688 195.277C440.949 194.604 440.218 194.089 440.218 194.089C439.703 193.725 439.266 193.467 438.922 193.281C438.247 192.918 438.029 192.88 438.038 192.805C438.076 192.489 442.095 192.53 446.319 193.183C447.054 193.297 448.29 193.505 449.807 193.856C452.807 194.549 454.955 195.344 455.635 195.603C456.987 196.116 457.964 196.569 458.25 196.703C458.585 196.86 459.696 197.386 461.109 198.197C461.357 198.339 461.609 198.484 461.927 198.679C462.249 198.877 463.351 199.565 464.64 200.609C466.669 202.253 468.031 203.866 468.332 204.227C469.606 205.753 470.428 207.097 470.836 207.804C471.078 208.224 471.869 209.621 472.645 211.657C473.186 213.076 474.093 215.464 474.232 217.562C474.519 221.904 471.54 225.504 470.146 226.983C471.474 228.507 473.956 231.822 474.233 236.389C474.628 242.911 470.157 247.543 468.333 249.724C458.105 261.958 438.149 261.577 438.038 261.145C438.015 261.054 438.835 260.839 440.219 259.862C440.219 259.862 440.95 259.346 441.689 258.674H441.689Z" fill="#78C5D1"/>
    <path d="M547.237 201.249C551.456 203.184 557.65 206.637 563.718 212.622C567.915 216.761 570.856 220.936 572.906 224.414C572.929 224.395 572.945 224.373 572.97 224.353C573.618 223.855 574.352 223.895 574.653 223.912C575.095 223.936 575.653 223.967 575.91 224.367C576.178 224.786 575.951 225.347 575.867 225.552C575.527 226.39 574.736 226.767 574.31 226.922C574.319 226.94 574.33 226.959 574.339 226.976C574.329 226.996 574.316 227.018 574.305 227.038C574.464 227.063 574.644 227.097 574.856 227.161C575.299 227.295 575.539 227.368 575.713 227.602C575.878 227.822 575.966 228.162 575.858 228.463C575.711 228.873 575.271 229.018 574.97 229.117C574.582 229.245 574.263 229.224 573.846 229.192C573.551 229.169 573.329 229.151 573.144 229.118C571.097 232.644 568.089 237.01 563.719 241.328C561.732 243.291 559.948 244.742 559.152 245.376C555.228 248.499 551.547 250.596 548.768 251.971C546.365 248.461 540.127 238.355 540.489 224.218C540.773 213.129 544.978 204.995 547.237 201.249L547.237 201.249Z" fill="#78C5D1"/>
    <path d="M515.011 210.502C512.099 209.994 509.393 212.012 509.018 214.709C508.681 217.128 510.292 219.579 512.838 220.259C510.76 219.289 509.539 217.135 509.796 214.992C510.094 212.512 512.317 210.522 515.011 210.502H515.011Z" fill="#34848C"/>
    <path d="M512.7 221.825C509.754 221.593 507.248 223.855 507.126 226.575C507.016 229.015 508.848 231.305 511.446 231.744C509.287 230.972 507.871 228.941 507.927 226.784C507.993 224.287 510.02 222.098 512.7 221.825Z" fill="#34848C"/>
    <path d="M519.87 200.306C517.165 199.112 514.055 200.42 513.045 202.947C512.138 205.214 513.114 207.981 515.422 209.255C513.638 207.812 512.969 205.427 513.732 203.409C514.616 201.073 517.251 199.677 519.87 200.306H519.87Z" fill="#34848C"/>
    <path d="M515.178 243.767C512.49 245 511.398 248.197 512.609 250.634C513.696 252.82 516.407 253.929 518.891 253.047C516.63 253.424 514.407 252.339 513.411 250.427C512.258 248.212 512.968 245.311 515.178 243.767Z" fill="#34848C"/>
    <path d="M511.629 233.245C508.849 234.252 507.498 237.349 508.506 239.877C509.41 242.146 512.022 243.474 514.569 242.799C512.285 242.989 510.158 241.725 509.322 239.737C508.354 237.435 509.3 234.602 511.629 233.245V233.245Z" fill="#34848C"/>
    <path d="M524.316 211.876C521.813 211.44 519.489 213.174 519.166 215.491C518.876 217.57 520.261 219.676 522.448 220.261C520.663 219.427 519.614 217.576 519.835 215.735C520.091 213.603 522.001 211.893 524.316 211.876H524.316Z" fill="#34848C"/>
    <path d="M522.33 221.606C519.798 221.407 517.645 223.351 517.54 225.688C517.445 227.785 519.02 229.753 521.253 230.13C519.397 229.467 518.18 227.722 518.228 225.868C518.285 223.722 520.027 221.84 522.33 221.606H522.33Z" fill="#34848C"/>
    <path d="M528.492 203.114C526.167 202.088 523.495 203.212 522.626 205.383C521.847 207.332 522.686 209.71 524.669 210.804C523.136 209.565 522.561 207.515 523.217 205.781C523.976 203.774 526.24 202.574 528.492 203.114Z" fill="#34848C"/>
    <path d="M524.46 240.462C522.15 241.521 521.211 244.269 522.252 246.363C523.186 248.241 525.516 249.194 527.65 248.436C525.707 248.76 523.797 247.828 522.941 246.185C521.95 244.282 522.56 241.788 524.46 240.462Z" fill="#34848C"/>
    <path d="M521.409 231.42C519.021 232.285 517.86 234.947 518.726 237.119C519.503 239.068 521.747 240.21 523.936 239.63C521.973 239.793 520.146 238.707 519.427 236.998C518.595 235.02 519.408 232.586 521.409 231.42Z" fill="#34848C"/>
    <path d="M533.282 213.905C531.123 213.529 529.117 215.025 528.839 217.024C528.589 218.818 529.783 220.636 531.671 221.14C530.131 220.42 529.225 218.823 529.416 217.234C529.637 215.395 531.285 213.92 533.282 213.905Z" fill="#34848C"/>
    <path d="M531.569 222.301C529.384 222.129 527.526 223.806 527.435 225.823C527.354 227.632 528.712 229.33 530.639 229.656C529.038 229.083 527.988 227.578 528.03 225.978C528.078 224.127 529.582 222.503 531.569 222.301L531.569 222.301Z" fill="#34848C"/>
    <path d="M536.885 206.345C534.879 205.46 532.574 206.429 531.824 208.303C531.152 209.984 531.876 212.036 533.587 212.98C532.264 211.911 531.768 210.142 532.334 208.646C532.989 206.914 534.943 205.878 536.885 206.345Z" fill="#34848C"/>
    <path d="M533.407 238.571C531.413 239.485 530.603 241.856 531.501 243.662C532.307 245.284 534.318 246.106 536.159 245.452C534.483 245.731 532.835 244.927 532.096 243.509C531.241 241.867 531.768 239.715 533.407 238.571Z" fill="#34848C"/>
    <path d="M530.774 230.769C528.713 231.516 527.711 233.812 528.459 235.687C529.129 237.368 531.066 238.353 532.955 237.853C531.261 237.994 529.684 237.057 529.064 235.582C528.346 233.875 529.047 231.775 530.774 230.769H530.774Z" fill="#34848C"/>
    <path d="M503.865 212.806C501.393 212.375 499.097 214.088 498.779 216.376C498.493 218.429 499.86 220.509 502.02 221.087C500.257 220.263 499.221 218.435 499.439 216.617C499.692 214.512 501.578 212.823 503.865 212.806Z" fill="#34848C"/>
    <path d="M501.904 222.415C499.403 222.218 497.277 224.138 497.173 226.446C497.079 228.517 498.634 230.46 500.839 230.833C499.007 230.178 497.805 228.455 497.853 226.624C497.908 224.505 499.629 222.647 501.904 222.415H501.904Z" fill="#34848C"/>
    <path d="M507.988 204.153C505.692 203.14 503.053 204.25 502.196 206.394C501.426 208.318 502.254 210.667 504.213 211.748C502.699 210.524 502.131 208.499 502.779 206.787C503.529 204.805 505.765 203.62 507.988 204.153L507.988 204.153Z" fill="#34848C"/>
    <path d="M504.007 241.036C501.725 242.082 500.798 244.796 501.826 246.864C502.749 248.719 505.05 249.66 507.157 248.912C505.239 249.232 503.352 248.311 502.507 246.688C501.528 244.809 502.131 242.346 504.007 241.036V241.036Z" fill="#34848C"/>
    <path d="M500.994 232.107C498.635 232.962 497.489 235.59 498.344 237.735C499.111 239.66 501.328 240.787 503.489 240.215C501.551 240.376 499.746 239.303 499.037 237.616C498.215 235.663 499.018 233.258 500.994 232.107L500.994 232.107Z" fill="#34848C"/>
    <path d="M493.313 215.409C491.272 215.053 489.376 216.468 489.113 218.357C488.877 220.053 490.006 221.771 491.79 222.248C490.334 221.567 489.478 220.058 489.658 218.556C489.867 216.818 491.425 215.423 493.313 215.409Z" fill="#34848C"/>
    <path d="M491.694 223.345C489.628 223.182 487.873 224.768 487.787 226.674C487.71 228.384 488.994 229.989 490.815 230.296C489.302 229.756 488.309 228.332 488.348 226.821C488.394 225.07 489.815 223.536 491.694 223.345V223.345Z" fill="#34848C"/>
    <path d="M496.719 208.263C494.822 207.427 492.643 208.343 491.935 210.114C491.299 211.703 491.983 213.643 493.601 214.535C492.351 213.524 491.882 211.852 492.417 210.438C493.036 208.801 494.883 207.823 496.719 208.263H496.719Z" fill="#34848C"/>
    <path d="M493.43 238.723C491.546 239.587 490.781 241.828 491.63 243.535C492.392 245.068 494.292 245.845 496.032 245.226C494.448 245.491 492.89 244.731 492.192 243.39C491.383 241.838 491.881 239.805 493.43 238.723V238.723Z" fill="#34848C"/>
    <path d="M490.943 231.348C488.994 232.054 488.048 234.225 488.754 235.997C489.388 237.586 491.218 238.517 493.003 238.044C491.402 238.177 489.912 237.292 489.326 235.898C488.647 234.285 489.31 232.299 490.943 231.348H490.943Z" fill="#34848C"/>
    <path d="M556.197 222.539C554.033 222.539 552.278 220.78 552.278 218.61C552.278 216.44 554.033 214.682 556.197 214.682C558.362 214.682 560.117 216.44 560.117 218.61C560.117 220.78 558.362 222.539 556.197 222.539Z" fill="white"/>
    <path d="M556.624 220.923C555.673 220.923 554.902 220.15 554.902 219.196C554.902 218.243 555.673 217.47 556.624 217.47C557.575 217.47 558.347 218.243 558.347 219.196C558.347 220.15 557.575 220.923 556.624 220.923Z" fill="black"/>
</svg>
