<svg viewBox="0 0 137 137" fill="none" xmlns="http://www.w3.org/2000/svg">
    <rect x="2.01062" y="2.02002" width="132.618" height="132.618" rx="30" fill="white" stroke="#116619" stroke-width="4"/>
    <path d="M103.665 48.5114C102.093 46.1349 99.77 43.257 96.4001 40.6869C82.8477 30.3509 65.2716 34.8138 61.7803 35.8292C56.992 37.2218 53.2185 39.1882 50.7153 40.6869C52.2087 40.8036 54.5644 41.171 57.1699 42.4073C59.68 43.5985 61.4137 45.1177 62.4468 46.1737C66.576 44.6536 73.5772 42.6691 82.3868 43.0135C92.164 43.3958 99.599 46.4679 103.665 48.5114H103.665Z" fill="#9E2F93"/>
    <path d="M95.7665 95.5684C92.9455 97.4826 89.0766 99.6341 84.1895 101.131C73.3798 104.442 63.977 102.593 59.4331 101.355C60.1601 101.235 61.2347 100.992 62.4508 100.458C63.8226 99.8564 64.8969 99.3959 65.5244 98.2724C65.9943 97.4309 66.02 96.5694 65.9858 96.0446C69.4176 97.0111 74.0906 97.9485 79.6677 97.9926C86.4325 98.0462 91.98 96.7654 95.7665 95.5684Z" fill="#9E2F93"/>
    <path d="M10.2285 98.2885C11.0354 97.5543 14.1593 94.4184 15.761 91.6884C19.0103 86.1502 15.9625 82.3377 18.6111 77.0588C19.6242 75.0394 21.7047 72.3948 26.3889 70.2476C21.7039 68.1003 19.6234 65.4555 18.6102 63.4359C15.9616 58.157 19.0095 54.3446 15.7601 48.8064C14.1585 46.0764 11.0345 42.9405 10.2276 42.2062C9.57415 41.6114 8.92849 41.1554 8.9284 41.1553C7.70494 40.291 6.9798 40.1005 7.00043 40.0202C7.09832 39.6377 24.7407 39.3013 33.7826 50.1236C37.2402 54.262 38.4851 58.8892 38.9984 61.9199C41.0881 59.353 54.5918 43.3262 77.8747 42.1641C90.242 41.5469 100.21 45.9146 103.541 47.4896C111.604 51.3024 116.654 56.1131 118.111 57.5505C122.809 62.1879 125.74 66.8863 127.5 70.2484C125.733 73.5972 122.797 78.3115 118.112 82.9443C101.699 99.1717 79.9579 98.4346 77.8755 98.3307C54.5926 97.1686 41.089 81.1418 38.9992 78.5749C38.486 81.6055 37.241 86.2327 33.7834 90.3712C24.7415 101.194 7.09915 100.857 7.00126 100.475C6.98073 100.394 7.70577 100.204 8.92922 99.3395C8.92932 99.3394 9.57498 98.8834 10.2285 98.2885Z" fill="#BE5BB4"/>
    <path d="M10.2285 98.2886C11.0354 97.5543 14.1593 94.4184 15.761 91.6885C19.0103 86.1503 15.9625 82.3377 18.6111 77.0588C19.6242 75.0395 21.7047 72.3949 26.3889 70.2476C21.704 68.1004 19.6234 65.4555 18.6102 63.436C15.9616 58.1571 19.0095 54.3446 15.7602 48.8064C14.1585 46.0765 11.0345 42.9406 10.2277 42.2062C9.5742 41.6114 8.92854 41.1554 8.92844 41.1553C8.47299 40.8336 8.08658 40.6052 7.78202 40.4411C7.18546 40.1198 6.99252 40.0862 7.00047 40.0203C7.03422 39.7405 10.5875 39.7762 14.3214 40.3541C14.9719 40.4548 16.0642 40.6394 17.4053 40.9493C20.0579 41.5623 21.9564 42.2659 22.5579 42.4946C23.7528 42.949 24.6162 43.3493 24.8695 43.4679C25.166 43.6068 26.1481 44.0725 27.3968 44.7895C27.616 44.9153 27.839 45.0434 28.1202 45.2163C28.4051 45.3915 29.3789 45.9994 30.5184 46.9234C32.312 48.3778 33.5167 49.8048 33.7826 50.1237C34.9087 51.474 35.6353 52.6627 35.9963 53.2883C36.2105 53.6596 36.9091 54.8952 37.5952 56.6963C38.0736 57.952 38.8759 60.0646 38.9984 61.9199C39.2521 65.7609 36.6183 68.9459 35.3862 70.2543C36.5602 71.6023 38.7546 74.5347 38.9993 78.575C39.3486 84.3445 35.3955 88.4418 33.7835 90.3713C24.7416 101.194 7.0992 100.857 7.0013 100.475C6.98077 100.394 7.70582 100.204 8.92927 99.3396C8.92937 99.3395 9.57504 98.8834 10.2285 98.2886H10.2285Z" fill="#9E2F93"/>
    <path d="M103.539 47.4893C107.269 49.2008 112.745 52.2556 118.109 57.5501C121.819 61.2117 124.42 64.9051 126.232 67.9818C126.253 67.9643 126.267 67.945 126.289 67.928C126.861 67.4867 127.51 67.5226 127.777 67.5373C128.167 67.5589 128.661 67.5862 128.888 67.9403C129.125 68.3103 128.924 68.8069 128.85 68.9885C128.549 69.7294 127.85 70.0633 127.473 70.2006C127.481 70.2158 127.491 70.2329 127.499 70.248C127.49 70.2655 127.478 70.2855 127.469 70.303C127.61 70.3248 127.768 70.355 127.956 70.4119C128.347 70.5304 128.559 70.5946 128.714 70.8015C128.859 70.9966 128.937 71.2968 128.842 71.5634C128.712 71.9263 128.322 72.0547 128.057 72.1423C127.714 72.2553 127.432 72.2365 127.063 72.2082C126.802 72.1881 126.606 72.1721 126.442 72.1428C124.632 75.2621 121.973 79.1245 118.11 82.9439C116.353 84.6809 114.777 85.9639 114.073 86.5245C110.604 89.2876 107.349 91.1429 104.893 92.3586C102.768 89.2536 97.2537 80.3142 97.5735 67.8081C97.8245 57.9987 101.542 50.8032 103.539 47.4893L103.539 47.4893Z" fill="#CA82C3"/>
    <path d="M75.0496 55.6745C72.4749 55.226 70.0833 57.0111 69.7514 59.3962C69.4536 61.5364 70.8776 63.7047 73.1283 64.3065C71.2918 63.448 70.2121 61.5422 70.4395 59.6471C70.7029 57.453 72.6681 55.6925 75.0496 55.6745H75.0496Z" fill="#9E2F93"/>
    <path d="M73.0068 65.6915C70.4016 65.4862 68.1868 67.4875 68.0785 69.8933C67.9813 72.052 69.601 74.0775 71.898 74.4658C69.9895 73.7831 68.737 71.9868 68.7869 70.0786C68.8448 67.8695 70.6374 65.9326 73.0068 65.6915Z" fill="#9E2F93"/>
    <path d="M79.3455 46.6553C76.9536 45.5995 74.2045 46.756 73.3111 48.9912C72.5094 50.997 73.3722 53.445 75.4129 54.5715C73.8358 53.2956 73.2442 51.1854 73.9189 49.4006C74.7001 47.3342 77.0294 46.0989 79.3455 46.6553H79.3455Z" fill="#9E2F93"/>
    <path d="M75.1976 85.1017C72.8213 86.1921 71.8552 89.0208 72.9262 91.1762C73.8872 93.1102 76.2841 94.091 78.4797 93.3106C76.4811 93.6443 74.516 92.6849 73.6352 90.9929C72.6154 89.0339 73.2436 86.4673 75.1976 85.1017Z" fill="#9E2F93"/>
    <path d="M72.0594 75.7937C69.6018 76.6848 68.4075 79.4245 69.2985 81.6607C70.0981 83.6674 72.4066 84.8421 74.6587 84.2452C72.6395 84.4132 70.7596 83.2952 70.0201 81.5364C69.1641 79.5001 70.0002 76.9939 72.0594 75.7937V75.7937Z" fill="#9E2F93"/>
    <path d="M83.2756 56.8899C81.0631 56.5044 79.008 58.0384 78.7228 60.088C78.4669 61.9272 79.6905 63.7905 81.6247 64.3077C80.0465 63.5699 79.1186 61.9322 79.3141 60.3036C79.5404 58.4182 81.2291 56.9054 83.2756 56.8899H83.2756Z" fill="#9E2F93"/>
    <path d="M81.5203 65.4978C79.2815 65.3214 77.3782 67.0412 77.2851 69.1086C77.2016 70.9636 78.5935 72.7042 80.5674 73.0379C78.9274 72.4512 77.851 70.9076 77.8939 69.2678C77.9437 67.3694 79.4841 65.705 81.5203 65.4978H81.5203Z" fill="#9E2F93"/>
    <path d="M86.9673 49.1394C84.9119 48.2321 82.5495 49.2259 81.7817 51.1468C81.0928 52.8704 81.8343 54.974 83.5879 55.9421C82.2327 54.8457 81.7242 53.0323 82.3041 51.4986C82.9753 49.7229 84.977 48.6613 86.9673 49.1394Z" fill="#9E2F93"/>
    <path d="M83.4028 82.1777C81.3607 83.1148 80.5306 85.5456 81.4509 87.3978C82.2768 89.0598 84.3365 89.9025 86.2233 89.232C84.5057 89.5187 82.8171 88.6943 82.0602 87.2402C81.1838 85.5568 81.7237 83.3513 83.4028 82.1777Z" fill="#9E2F93"/>
    <path d="M80.7061 74.1791C78.5943 74.9448 77.568 77.2991 78.3337 79.2208C79.0207 80.9452 81.0045 81.9547 82.9398 81.4417C81.2046 81.5861 79.5892 80.6254 78.9537 79.114C78.2181 77.3641 78.9366 75.2104 80.7061 74.1791Z" fill="#9E2F93"/>
    <path d="M91.2024 58.6848C89.2933 58.3522 87.5199 59.6758 87.2739 61.4444C87.053 63.0313 88.1089 64.6392 89.7778 65.0854C88.4161 64.4488 87.6154 63.0357 87.7841 61.6304C87.9793 60.0035 89.4365 58.6982 91.2024 58.6848Z" fill="#9E2F93"/>
    <path d="M89.6877 66.1123C87.756 65.9601 86.1137 67.444 86.0334 69.2279C85.9613 70.8286 87.1623 72.3305 88.8655 72.6184C87.4504 72.1122 86.5217 70.7802 86.5587 69.3654C86.6016 67.7273 87.9308 66.2911 89.6877 66.1123L89.6877 66.1123Z" fill="#9E2F93"/>
    <path d="M94.3878 51.9972C92.6143 51.2143 90.5759 52.0718 89.9134 53.7292C89.3189 55.2165 89.9587 57.0317 91.4719 57.867C90.3025 56.9209 89.8638 55.3562 90.3641 54.0328C90.9433 52.5006 92.6705 51.5846 94.3878 51.9972Z" fill="#9E2F93"/>
    <path d="M91.3122 80.5049C89.5501 81.3134 88.8338 83.4109 89.6279 85.0091C90.3405 86.4432 92.1178 87.1704 93.7458 86.5918C92.2638 86.8392 90.8068 86.1278 90.1536 84.8732C89.3974 83.4206 89.8633 81.5175 91.3122 80.5049Z" fill="#9E2F93"/>
    <path d="M88.9852 73.6031C87.1629 74.2639 86.2774 76.2953 86.9381 77.9535C87.5309 79.4414 89.2427 80.3125 90.9126 79.8698C89.4154 79.9944 88.0214 79.1655 87.4731 77.8613C86.8384 76.3514 87.4584 74.4931 88.9852 73.6031H88.9852Z" fill="#9E2F93"/>
    <path d="M65.1953 57.7129C63.0103 57.3322 60.9807 58.8471 60.6991 60.8712C60.4463 62.6875 61.6548 64.5277 63.5649 65.0384C62.0063 64.3098 61.09 62.6925 61.283 61.0842C61.5065 59.2222 63.1743 57.7282 65.1953 57.7129Z" fill="#9E2F93"/>
    <path d="M63.4618 66.2137C61.2509 66.0395 59.3713 67.7379 59.2794 69.7795C59.1969 71.6115 60.5714 73.3304 62.5207 73.66C60.9012 73.0806 59.8382 71.5562 59.8806 69.9368C59.9297 68.062 61.451 66.4183 63.4618 66.2137H63.4618Z" fill="#9E2F93"/>
    <path d="M68.8411 50.0588C66.8113 49.1628 64.4782 50.1442 63.72 52.0412C63.0396 53.7433 63.7719 55.8208 65.5037 56.7768C64.1653 55.6941 63.6632 53.9033 64.2358 52.3886C64.8988 50.635 66.8755 49.5866 68.8411 50.0588L68.8411 50.0588Z" fill="#9E2F93"/>
    <path d="M65.321 82.686C63.3043 83.6114 62.4845 86.012 63.3933 87.8411C64.2089 89.4825 66.243 90.3147 68.1063 89.6525C66.4102 89.9357 64.7426 89.1215 63.995 87.6856C63.1295 86.0231 63.6627 83.845 65.321 82.686V82.686Z" fill="#9E2F93"/>
    <path d="M62.6577 74.7869C60.5721 75.5431 59.5586 77.8681 60.3148 79.7659C60.9933 81.4688 62.9525 82.4657 64.8636 81.9591C63.15 82.1017 61.5547 81.153 60.9272 79.6604C60.2006 77.9323 60.9103 75.8054 62.6578 74.7869L62.6577 74.7869Z" fill="#9E2F93"/>
    <path d="M55.8672 60.0155C54.0628 59.7011 52.3866 60.9522 52.154 62.6238C51.9453 64.1237 52.9433 65.6434 54.5207 66.0652C53.2336 65.4635 52.4769 64.1278 52.6363 62.7996C52.8208 61.2619 54.1981 60.0281 55.8672 60.0155Z" fill="#9E2F93"/>
    <path d="M54.4355 67.0359C52.6097 66.892 51.0574 68.2946 50.9815 69.9807C50.9134 71.4937 52.0486 72.9132 53.6584 73.1853C52.3209 72.7069 51.443 71.4479 51.478 70.1106C51.5186 68.5623 52.775 67.2049 54.4355 67.0359V67.0359Z" fill="#9E2F93"/>
    <path d="M58.8779 53.6945C57.2016 52.9545 55.2749 53.765 54.6488 55.3316C54.0869 56.7373 54.6916 58.453 56.1218 59.2425C55.0165 58.3483 54.6019 56.8694 55.0748 55.6185C55.6222 54.1703 57.2547 53.3046 58.8779 53.6945H58.8779Z" fill="#9E2F93"/>
    <path d="M55.9709 80.6394C54.3054 81.4036 53.6284 83.3861 54.379 84.8967C55.0525 86.2521 56.7323 86.9395 58.2711 86.3926C56.8704 86.6264 55.4932 85.954 54.8758 84.7682C54.1611 83.3953 54.6014 81.5965 55.9709 80.6394V80.6394Z" fill="#9E2F93"/>
    <path d="M53.7716 74.116C52.0492 74.7405 51.2122 76.6606 51.8366 78.2278C52.397 79.6342 54.0149 80.4575 55.5933 80.0391C54.1781 80.1568 52.8606 79.3733 52.3424 78.1407C51.7424 76.7136 52.3284 74.9571 53.7715 74.116H53.7716Z" fill="#9E2F93"/>
    <path d="M111.461 66.3227C109.547 66.3227 107.996 64.7667 107.996 62.8474C107.996 60.9281 109.547 59.3722 111.461 59.3722C113.374 59.3722 114.925 60.9281 114.925 62.8474C114.925 64.7667 113.374 66.3227 111.461 66.3227Z" fill="white"/>
    <path d="M111.838 64.8933C110.997 64.8933 110.315 64.2095 110.315 63.3659C110.315 62.5223 110.997 61.8385 111.838 61.8385C112.679 61.8385 113.361 62.5223 113.361 63.3659C113.361 64.2095 112.679 64.8933 111.838 64.8933Z" fill="black"/>
    <path d="M111.319 63.1923C110.831 63.1923 110.435 62.7963 110.435 62.3077C110.435 61.8192 110.831 61.4231 111.319 61.4231C111.807 61.4231 112.203 61.8192 112.203 62.3077C112.203 62.7963 111.807 63.1923 111.319 63.1923Z" fill="white"/>
</svg>
