<svg width="106" height="135" viewBox="0 0 106 135" fill="none" xmlns="http://www.w3.org/2000/svg">
<g clip-path="url(#clip0_1508_2631)">
<path d="M79.8771 87.254C79.2861 86.6168 78.1041 87.3071 73.9137 87.9973C71.9259 88.3158 71.9259 88.2096 70.3679 88.5282C68.7561 88.8468 67.1981 89.1654 65.5864 89.8556C63.6524 90.652 61.2348 91.6609 59.8916 94.1563C58.8709 96.0677 58.9783 97.8729 59.032 98.7755C59.0858 99.9436 59.4618 102.014 60.9124 103.979C61.3959 104.616 62.9539 106.58 65.8013 107.483C68.2726 108.333 70.4216 107.908 70.9589 107.802C71.7647 107.642 73.7525 107.111 75.4717 105.519C77.6744 103.448 78.2116 100.846 78.7489 98.2977C79.0712 96.8641 79.3398 94.6872 79.501 93.2006C79.5547 92.9351 79.6084 92.4042 79.7159 91.3953C80.092 87.6787 80.0382 87.4663 79.8771 87.254Z" fill="#00742C"/>
<path d="M63.837 43.0087C65.391 43.2766 65.502 45.5806 68.6654 52.1711C70.1084 55.2789 70.2748 55.1717 71.3848 57.6901C72.4948 60.262 73.6047 62.7803 74.2152 65.7809C74.9367 69.2637 75.8247 73.7646 73.4938 78.051C71.7178 81.3195 68.8319 82.927 67.4999 83.6771C65.6685 84.6952 62.2831 86.1955 57.9542 85.9812C56.5113 85.9276 52.1269 85.5525 47.909 82.4448C44.1906 79.7121 42.6922 76.3365 42.3036 75.4791C41.7487 74.1932 40.5277 70.8711 41.1937 66.7989C42.0262 61.7087 45.4116 58.3866 48.6305 55.2253C50.4619 53.4035 53.4033 50.9388 55.4013 49.2778C55.7898 48.9562 56.4557 48.4204 57.8987 47.2416C63.0046 43.1159 63.3376 42.9551 63.837 43.0087Z" fill="#00742C"/>
<path d="M26.1191 83.3713C26.6988 82.5668 27.9637 83.264 32.3906 83.693C34.4459 83.9075 34.4459 83.7467 36.1324 84.0148C37.8188 84.2293 39.4525 84.4438 41.2444 85.141C43.2997 85.8919 45.9875 86.9108 47.6212 89.7531C48.886 91.8982 48.9388 94.097 48.9915 95.1159C49.0441 96.5103 48.886 98.9772 47.5686 101.444C47.1469 102.249 45.724 104.662 42.8781 106.056C40.4012 107.236 38.135 107.021 37.5553 106.914C36.7121 106.807 34.604 106.378 32.6014 104.608C30.1244 102.409 29.2285 99.2989 28.438 96.403C27.9637 94.7405 27.4367 92.22 27.1205 90.4503C27.0678 90.1285 26.9624 89.5385 26.6988 88.3587C25.9083 83.9075 25.9083 83.6394 26.1191 83.3713Z" fill="#00742C"/>
<path d="M42.6787 134.428C43.0563 134.964 43.8114 135.072 49.5821 134.964C50.6608 134.964 50.9305 134.964 51.5237 134.964C52.2249 134.964 53.0878 135.018 54.2204 134.964C55.6226 134.964 55.7844 134.857 55.8923 134.803C56.4316 134.375 56.2159 133.57 56.108 131.48C56.108 131.266 56.0541 130.461 56.0541 128.799C56.0001 127.03 56.0541 126.494 56.108 124.564C56.108 123.385 56.108 123.438 56.0541 120.276C56.0541 120.276 56.0001 117.756 56.108 113.575C56.1619 111.967 56.1619 110.841 56.8092 109.554C57.1328 108.858 57.5103 108.375 58.1574 107.678C60.2069 105.373 61.1238 105.105 63.0653 103.175C65.1687 101.085 65.0609 100.441 66.8946 99.2083C68.0272 98.4578 69.0519 98.0825 68.998 97.8681C68.9441 97.6537 67.4339 97.7609 66.0856 98.3505C65.1148 98.7258 64.3598 99.3155 62.9575 100.441C61.5013 101.621 60.7462 102.21 59.8833 103.014C59.6137 103.282 58.9125 103.926 57.8878 104.569C57.1328 104.998 56.5934 105.319 56.2698 105.105C55.8923 104.891 56.0541 104.087 56.108 102.425C56.108 102.371 56.108 101.406 56.108 99.4763C56.108 97.332 56.0541 97.3856 56.0001 95.0805C56.0001 93.7403 56.0001 92.6146 56.0541 91.9714C56.0541 90.8992 56.108 90.1487 56.108 89.7198C56.1619 87.8972 56.1619 87.0395 56.1619 84.3055C56.1619 79.6953 56.2159 77.819 56.5934 75.6748C56.7013 74.8707 56.8631 74.2274 57.1328 73.3697C57.2946 72.9408 57.8878 71.3326 59.398 69.4564C60.6923 67.9017 61.7171 67.2584 61.6092 67.044C61.4474 66.8296 60.0451 67.4729 59.0743 68.0625C58.4271 68.4378 57.4564 69.0275 56.4855 70.2069C55.7844 71.011 55.4609 71.7078 54.9755 72.6191C54.2743 74.013 53.9507 75.1923 53.681 75.9964C53.4653 76.7469 53.2496 77.6046 53.0878 78.6768C53.0339 79.3201 52.98 80.1241 52.926 80.553C52.8721 81.0354 52.8721 81.3035 52.8721 81.7324C52.8721 81.7324 52.8181 82.9117 52.7103 84.3055C52.6563 84.8952 52.6024 86.289 52.3867 87.7364C52.1709 89.2374 51.9012 90.6311 51.308 93.4187C51.2001 93.9548 51.0923 94.5445 50.9305 95.4022C50.8766 95.8311 50.7687 96.4744 50.553 97.8145C50.4451 98.6722 50.2294 99.5835 50.1754 100.441C50.0675 101.621 50.1754 101.996 49.9057 102.157C49.4743 102.425 48.6653 101.942 47.7484 101.353C45.4832 99.9052 43.9732 98.6186 43.8653 98.5114C42.0855 96.9568 39.2271 94.7053 39.0113 94.9733C38.9574 95.0269 39.0113 95.1878 41.1686 97.9217C42.6787 99.798 43.4338 100.763 43.8114 101.138C46.0765 103.39 47.0473 103.282 47.8024 104.837C48.2338 105.802 48.2338 106.713 48.126 108.643C48.0181 110.52 47.7484 111.43 46.9394 115.344C46.5619 117.274 46.6698 116.684 46.2383 118.882C45.4293 122.902 44.9978 124.94 44.6203 126.226C44.081 128.103 43.6496 130.032 43.1102 131.909C42.5709 133.517 42.4091 133.946 42.6787 134.428Z" fill="#6A4527"/>
</g>
<defs>
<clipPath id="clip0_1508_2631">
<rect width="106" height="135" fill="white"/>
</clipPath>
</defs>
</svg>
