<svg width="83" height="140" viewBox="0 0 83 140" fill="none" xmlns="http://www.w3.org/2000/svg">
<path d="M40.9017 140H39.5C41.121 129.272 41.8982 118.46 41.8262 107.639C41.7621 97.7266 40.9852 87.8274 39.5 78H40.9017C42.5495 87.7795 43.4158 97.6472 43.4943 107.532C43.5796 118.396 42.7128 129.251 40.9017 140Z" fill="#267237"/>
<path d="M39.5 78.4998C41.5727 74.3349 44.5752 70.7627 48.249 68.0909C54.5155 63.5849 60.8575 63.1922 64.056 63.0369C67.5748 62.8698 71.0965 63.2707 74.5 64.2258C73.4353 68.1328 71.3554 71.6491 68.4958 74.3784C62.8789 79.6202 55.8896 79.8352 51.0722 79.9831C47.1661 80.101 43.2652 79.6011 39.5 78.4998Z" fill="#175E26"/>
<path d="M40.5 78.5852C38.4265 74.6663 35.4238 71.3054 31.7502 68.7915C25.4845 64.5505 19.1427 64.181 15.9439 64.0348C12.4254 63.8774 8.90336 64.2548 5.5 65.1537C6.5649 68.831 8.64443 72.1405 11.5043 74.7093C17.121 79.6429 24.1104 79.8452 28.9274 79.9844C32.8338 80.0944 36.7348 79.6228 40.5 78.5852Z" fill="#175E26"/>
<path d="M39.5 78.8412C40.706 77.9041 41.964 77.0419 43.2673 76.2591C45.8388 74.7495 48.5521 73.5192 51.3651 72.5873C54.3508 71.5122 57.4028 70.6478 60.5 70C56.8552 71.0996 53.8193 72.1894 51.5122 73.0775C48.6863 74.0987 45.9391 75.3407 43.2926 76.7928C41.7908 77.6494 40.5904 78.4399 39.7742 79L39.5 78.8412Z" fill="#267237"/>
<path d="M40.5 78.8412C39.2939 77.9041 38.036 77.0419 36.7327 76.2591C34.1609 74.7494 31.4472 73.519 28.6344 72.5873C25.6487 71.5122 22.597 70.6478 19.5 70C23.1442 71.0996 26.1805 72.1894 28.4872 73.0775C31.3129 74.0986 34.0608 75.3406 36.7074 76.7928C38.2085 77.6494 39.4095 78.4399 40.2258 79L40.5 78.8412Z" fill="#267237"/>
</svg>
