<svg viewBox="0 0 1041 673" fill="none" xmlns="http://www.w3.org/2000/svg">
    <path d="M930.275 31.5285H109.538C60.3791 31.5285 20.5282 71.3795 20.5282 120.538V559.113C20.5282 608.271 60.3791 648.122 109.538 648.122H930.275C979.434 648.122 1019.29 608.271 1019.29 559.113V120.538C1019.29 71.3795 979.434 31.5285 930.275 31.5285Z" fill="#B6CEE1" stroke="#116619" stroke-width="6"/>
    <path d="M10.3469 40.3962C14.0803 43.5191 30.3873 57.8544 33.3678 82.5644C35.0452 97.2366 31.7442 112.047 23.9945 124.618C23.9917 129.075 23.989 133.532 23.9862 137.989C25.0232 137.01 49.8969 112.69 42.0007 79.7975C35.744 53.7353 13.6633 42.0771 10.3469 40.3962Z" fill="#48964E"/>
    <path d="M17.0569 128.701C8.9823 135.637 6.59974 141.986 5.91973 146.508C3.13445 165.034 25.505 175.593 28.6391 200.181C30.0691 211.399 26.9366 221.161 23.9805 227.767L23.9875 239.712C41.4527 218.375 42.4272 204.688 40.0084 196.092C35.2337 179.124 13.756 169.631 15.3641 150.788C15.5785 148.344 16.1464 145.945 17.05 143.665C17.0523 138.677 17.0547 133.689 17.0569 128.701Z" fill="#48964E"/>
    <path d="M17.0604 232.674C5.48571 244.641 4.28572 252.946 5.18191 258.219C6.62856 266.731 13.6659 268.101 22.5952 285.077C28.1058 295.553 28.5785 301.026 28.6456 303.671C28.7256 309.923 27.1173 316.082 23.9902 321.497L23.991 330.539C41.6305 318.739 42.9887 308.886 42.9599 304.851C42.9091 297.746 38.4361 291.725 29.6048 279.838C21.4098 268.807 15.4084 264.258 14.9216 255.415C14.7655 251.724 15.4991 248.049 17.0604 244.7V232.674Z" fill="#48964E"/>
    <path d="M17.0604 325.22V335.103C13.8048 340.271 12.0902 346.261 12.1177 352.369C12.5845 369.455 28.9968 376.064 34.1056 392.065C36.8704 400.725 36.9913 414.222 23.998 434.822C23.9945 430.933 23.991 427.045 23.9876 423.156C26.0384 415.924 26.4201 408.32 25.1039 400.919C20.7622 377.867 0.685835 370.851 0.0169104 353.992C-0.233507 347.682 2.15076 337.868 17.0604 325.22Z" fill="#48964E"/>
    <path d="M17.05 427.831C4.9767 444.271 4.77019 454.633 6.80512 461.054C10.6863 473.3 24.3095 476.221 27.465 490.052C29.351 498.318 26.4773 506.012 23.9944 510.935C23.9956 514.078 23.9968 517.22 23.9979 520.363C37.3567 504.069 38.2159 493.78 36.1716 487.248C32.6197 475.899 19.2638 472.709 15.9545 458.324C14.7897 452.761 15.1722 446.984 17.0604 441.623L17.05 427.831Z" fill="#48964E"/>
    <path d="M17.0612 515.065C8.99151 525.759 9.0124 531.824 10.4206 535.356C13.1376 542.17 22.1154 542.287 25.5465 550.039C28.053 555.702 26.0884 562.023 24.2826 566.146C24.3981 567.501 24.5498 568.909 24.7375 570.368C24.9274 571.825 25.1416 573.223 25.3799 574.563C36.23 556.687 35.4077 548.633 32.7037 544.579C28.6327 538.476 17.7069 537.555 16.3971 530.191C16.1254 528.432 16.3546 526.631 17.0587 524.996L17.0612 515.065Z" fill="#48964E"/>
    <path d="M18.0222 572.507C13.0892 583.935 14.5023 589.32 16.4895 592.115C20.584 597.873 29.2555 595.641 37.1308 602.851C40.4592 606 42.9026 609.968 44.2168 614.358C44.9419 615.213 45.7119 616.085 46.5267 616.972C47.3524 617.869 48.1675 618.718 48.972 619.52C49.211 604.959 45.11 599.01 41.3366 596.265C34.4535 591.258 24.7423 594.061 20.6399 587.632C19.2122 585.118 18.7262 582.177 19.2688 579.337C19.0586 578.382 18.8583 577.4 18.6681 576.389C18.4184 575.057 18.2031 573.763 18.0222 572.507Z" fill="#48964E"/>
    <path d="M42.0031 622.283C46.7911 638.508 53.2136 643.192 57.9382 644.631C66.9854 647.388 73.8136 639.441 88.7123 639.365C96.1929 639.413 103.556 641.227 110.203 644.66L119.037 644.657C102.87 630.479 91.01 628.438 82.73 629.801C72.3763 631.505 63.8322 639.154 54.9499 635.224C51.4655 633.513 48.6522 630.688 46.9564 627.196C46.2082 626.514 45.4495 625.795 44.6803 625.04C43.7328 624.108 42.8404 623.189 42.0031 622.283Z" fill="#48964E"/>
    <path d="M115.106 651.591C127.369 659.207 134.715 658.829 139.176 657.027C145.937 654.297 147.67 647.647 156.146 644.779C160.852 643.316 165.884 643.273 170.614 644.655H177.173C165.138 636.785 157.597 636.827 152.826 638.581C144.69 641.572 140.989 650.87 130.321 652.01C128.053 652.244 125.761 652.1 123.54 651.584L115.106 651.591Z" fill="#48964E"/>
    <path d="M176.174 651.59C191.651 661.554 201.029 661.231 206.763 659.02C215.799 655.534 218.489 646.308 229.636 643.525C235.059 642.31 240.718 642.705 245.919 644.66L253.388 644.657C239.944 633.895 230.994 633.305 225.357 634.671C213.782 637.475 209.318 650.187 194.515 652.342C190.476 652.902 186.366 652.646 182.428 651.591L176.174 651.59Z" fill="#48964E"/>
    <path d="M249.258 651.582C265.838 664.48 276.984 665.311 284.237 663.447C296.849 660.205 300.696 648.04 316.407 643.82C324.23 641.89 332.436 642.182 340.102 644.66L351.961 644.655C333.752 633.539 321.409 633.567 313.345 635.888C299.746 639.802 293.8 651.536 277.043 653.596C270.737 654.311 264.351 653.625 258.341 651.587L249.258 651.582Z" fill="#48964E"/>
    <path d="M345.465 651.591C365.599 662.904 377.705 661.874 385.027 658.872C394.833 654.852 399.56 645.86 412.771 643.525C418.459 642.583 424.289 642.969 429.804 644.655L443.017 644.658C425.156 629.441 413.953 628.334 406.868 630.539C395.057 634.214 392.044 647.915 376.764 652.231C370.046 653.964 362.974 653.737 356.381 651.577L345.465 651.591Z" fill="#48964E"/>
    <path d="M436.307 651.584C442.658 655.453 452.538 660.082 464.273 659.315C481.079 658.216 487.83 646.955 505.592 642.197C514.149 639.904 527.157 638.613 545.113 644.65L557.538 644.652C526.411 625.02 509.136 625.608 498.952 630.686C488.018 636.138 480.788 648.994 462.926 651.881C457.708 652.701 452.387 652.6 447.203 651.584H436.307Z" fill="#48964E"/>
    <path d="M562.702 651.585C568.452 653.494 574.507 654.314 580.558 654.002C600.049 652.891 608.674 639.807 623.353 634.67C633.854 630.996 650.007 630.496 674.713 644.655L660.42 644.66C650.354 641.913 639.791 641.525 629.551 643.525C608.509 647.856 601.319 660.833 583.509 662.119C576.428 662.63 565.421 661.455 551.171 651.587L562.702 651.585Z" fill="#48964E"/>
    <path d="M678.232 651.584C690.721 656.031 703.969 657.957 717.208 657.249C748.6 655.366 762.648 638.53 787.599 631.572C805.047 626.705 831.514 625.641 869.511 644.67L852.521 644.66C835.629 641.292 818.247 641.207 801.323 644.41C765.319 651.434 753.078 670.21 724.734 672.301C710.686 673.337 690.342 670.448 664.51 651.591L678.232 651.584Z" fill="#48964E"/>
    <path d="M863.063 651.567C886.607 667.621 902.874 668.248 913.514 665.66C932.602 661.019 935.367 645.599 956.862 642.787C972.959 640.681 980.122 648.188 995.268 643.23C1005.77 639.793 1012.88 632.731 1017.11 627.587C1009.96 632.466 1001.87 635.785 993.35 637.327C976.852 640.181 972.486 633.405 958.485 634.671C935.888 636.714 931.904 655.755 909.678 658.725C898.771 660.182 888.074 657.154 877.949 651.549L863.063 651.567Z" fill="#48964E"/>
    <path d="M999.208 69.8698C997.078 77.8959 996.929 86.3192 998.772 94.4161C1003.46 113.868 1018.27 119.09 1024.6 136.621C1027.5 144.66 1029.28 157.114 1022.75 175.443L1022.76 186.227C1042.99 157.86 1042.88 141.801 1038.91 132.342C1033.64 119.792 1018.97 112.695 1008.05 87.2683C1006.39 83.4222 1005.27 80.1954 1004.61 78.1808C1004.06 77.2256 1003.48 76.2551 1002.86 75.2693C1001.65 73.3353 1000.43 71.5367 999.208 69.8698Z" fill="#48964E"/>
    <path d="M1015.82 180.961C1011.89 187.507 1007.1 197.909 1008.95 209.578C1011.34 224.602 1022.78 229.453 1027.25 244.773C1029.47 252.361 1030.52 264.371 1022.75 281.839V294.295C1042.18 265.974 1041.87 250.456 1037.66 241.453C1032.33 230.076 1018.31 223.862 1015.52 206.479C1014.82 201.997 1014.92 197.427 1015.82 192.98V180.961Z" fill="#48964E"/>
    <path d="M1015.82 288.046C1006.9 300.577 1006.59 308.452 1008.44 313.504C1011.7 322.443 1022.43 324.583 1024.6 334.976C1025.36 339.343 1024.71 343.839 1022.75 347.816L1022.76 356.235C1032.27 345.732 1033.16 338.662 1032.12 334.09C1029.58 322.9 1013.72 319.142 1013.31 307.528C1013.28 304.468 1014.15 301.468 1015.81 298.9L1015.82 288.046Z" fill="#48964E"/>
    <path d="M1015.82 351.992C1005.73 364.487 1004.91 372.978 1006.3 378.586C1009.03 389.572 1021.11 392.861 1024.01 406.33C1025.05 411.659 1024.61 417.171 1022.75 422.272V434.384C1035.55 419.748 1036.56 410.288 1034.93 404.264C1031.75 392.556 1017.13 388.512 1014.86 373.569C1014.29 369.557 1014.62 365.469 1015.82 361.6L1015.82 351.992Z" fill="#48964E"/>
    <path d="M1015.82 426.515C1004.79 443.25 1004.97 453.074 1007.55 459.062C1011.73 468.749 1023.75 471.98 1025.04 483.19C1025.39 487.06 1024.59 490.946 1022.75 494.368L1022.75 503.383C1032.03 494.91 1033.54 488.412 1033.23 484.075C1032.34 471.543 1015.58 466.621 1013.75 451.093C1013.29 446.598 1014.01 442.06 1015.82 437.921L1015.82 426.515Z" fill="#48964E"/>
    <path d="M1015.82 499.014C1007.02 507.596 1005.4 514.24 1005.86 518.975C1006.87 529.57 1018.51 532.74 1023.27 545.391C1026.88 554.982 1024.61 564.882 1021.83 572.165C1021.6 573.851 1021.3 575.628 1020.93 577.483C1020.57 579.278 1020.17 580.978 1019.75 582.576C1036.03 561.403 1036.46 549.678 1033.45 542.808C1028.98 532.623 1014.59 527.777 1014.27 515.286C1014.22 512.647 1014.75 510.03 1015.82 507.617L1015.82 499.014Z" fill="#48964E"/>
    <path d="M1014.2 575.757C1009.84 580.03 1006.56 585.276 1004.62 591.064C1001.29 601.346 1004.9 606.523 1000.52 615.745C999.569 617.76 996.178 624.913 989.124 628.141C977.107 633.64 963.034 623.823 962.617 624.765C962.192 625.726 975.865 638.171 990.342 634.283C997.405 632.386 1005.59 626.476 1007.66 618.456C1009.61 610.929 1007.55 596.224 1009.29 592.035C1009.35 591.892 1009.8 590.836 1010.36 589.358C1010.98 587.685 1011.45 586.25 1011.78 585.179C1012.3 583.51 1012.81 581.738 1013.27 579.868C1013.63 578.455 1013.94 577.085 1014.2 575.757Z" fill="#48964E"/>
    <path d="M1001.47 61.5114C1001.37 56.6351 1000.25 51.8343 998.181 47.4151C991.658 33.5863 977.938 28.8425 974.865 27.862C988.36 26.1976 1001.09 32.6254 1006.59 43.5783C1012.43 55.2029 1007.59 66.8654 1006.81 68.643C1005.94 67.3385 1004.98 65.9914 1003.94 64.6156C1003.11 63.5224 1002.29 62.4876 1001.47 61.5114Z" fill="#48964E"/>
    <path d="M43.1074 75.3058C44.178 75.238 38.4338 54.3328 49.1947 41.4385C57.8654 31.0486 73.9217 29.8508 87.2125 30.7765C89.4119 30.2335 91.3744 29.8336 93.0295 29.5356C94.0802 29.3464 95.659 29.081 97.592 28.8308C98.9585 28.6539 100.173 28.5272 101.193 28.4349C76.8268 18.8415 53.2042 23.3875 43.6608 37.2327C33.201 52.4075 41.9815 75.3771 43.1074 75.3058Z" fill="#48964E"/>
    <path d="M93.9102 36.4151C102.92 41.8452 116.869 48.1997 132.092 45.3121C149.99 41.9171 155.559 28.4282 174.15 22.9922C183.451 20.2726 198.036 18.9772 219.103 28.0634H236.353C199.711 5.44145 178.684 6.07504 165.96 12.2196C151.449 19.2267 139.936 37.1661 118.258 37.0114C114.152 36.9709 110.076 36.3133 106.166 35.0607C103.849 35.1485 101.363 35.337 98.7344 35.6676C97.0497 35.8795 95.4402 36.133 93.9102 36.4151Z" fill="#48964E"/>
    <path d="M228.079 34.994C228.944 35.3655 230.199 35.8987 231.72 36.5247C233.329 37.2753 234.978 37.935 236.661 38.5009C240.168 39.6001 245.142 41.035 251.186 42.359C257.024 43.638 276.468 46.4508 289.033 46.3082C320.503 45.951 334.661 25.56 366.507 19.7456C380.473 17.1958 400.921 16.8869 427.844 28.053C437.861 28.0582 447.878 28.0634 457.896 28.0685C399.445 -5.47043 365.669 -2.9533 345.479 6.02161C327.021 14.2264 308.788 32.7752 274.516 36.1947C264.406 37.1846 254.208 36.7811 244.207 34.9957L228.079 34.994Z" fill="#48964E"/>
    <path d="M437.286 34.9914C465.596 51.2299 483.707 50.326 495.115 46.3082C510.947 40.7325 518.143 27.6528 538.058 24.6155C547.925 23.263 557.975 24.4497 567.256 28.0634H586.506C555.693 5.68429 537.191 4.95595 525.662 9.56331C510.09 15.7864 504.033 33.0253 483.162 37.0114C474.91 38.4536 466.427 37.7578 458.521 34.9905C451.443 34.9908 444.364 34.9911 437.286 34.9914Z" fill="#48964E"/>
    <path d="M571.485 34.9957C596.982 49.3601 614.019 48.7852 625.05 45.3121C642.733 39.7448 651.283 24.7466 672.199 23.5087C680.314 23.1283 688.403 24.6898 695.793 28.0634H718.178C696.641 9.28632 680.986 6.98964 670.428 8.67782C649.18 12.0756 638.772 33.1835 609.666 35.9045C603.46 36.4718 597.205 36.1641 591.084 34.9904C584.551 34.9922 578.018 34.994 571.485 34.9957Z" fill="#48964E"/>
    <path d="M703.477 34.994C726.783 49.3467 740.366 48.8083 748.64 44.9801C759.428 39.9895 761.813 29.122 774.613 24.9106C784.974 21.5015 795.456 24.6605 802.943 28.0599C808.95 28.0605 814.957 28.0611 820.963 28.0617C789.526 7.85254 773.908 8.26014 765.463 13.4001C755.427 19.5093 753.178 33.732 739.786 37.3065C732.496 39.2524 725.543 37.0715 720.901 34.9957L703.477 34.994Z" fill="#48964E"/>
    <path d="M809.739 34.9931C815.789 39.6486 825.205 45.3044 836.74 45.2753C856.236 45.2261 864.499 28.9799 885.881 23.2873C895.544 20.7146 910.126 19.7014 930.432 28.0634C933.816 28.0668 937.197 28.2545 940.56 28.6259C943.741 28.9771 946.679 29.4677 949.349 30.0243C907.174 3.31469 886.881 4.6651 876.141 11.039C865.409 17.4079 857.069 33.0336 838.068 35.5356C833.569 36.1108 829.005 35.9274 824.567 34.9931H809.739Z" fill="#48964E"/>
    <path d="M934.578 35.0669C941.184 39.498 948.551 42.6711 956.309 44.4268C966.959 46.7912 978.032 46.4488 988.516 43.4307C979.796 43.5594 971.096 42.5926 962.617 40.553C959.399 39.7762 956.384 38.8836 953.578 37.9281C947.375 36.2526 941 35.2927 934.578 35.0669V35.0669Z" fill="#48964E"/>
    <path d="M101.41 35.4049C107.838 38.3593 117.565 41.6527 128.908 40.4695C152.537 38.0046 160.464 18.4851 181.344 14.1011C191.498 11.969 206.67 13.0066 227.939 28.0634C226.906 28.0455 225.873 28.0276 224.84 28.0096C205.872 15.3877 191.931 14.5197 182.672 16.0932C160.602 19.8442 152.631 39.5941 129.016 42.2109C116.358 43.6135 105.462 39.3998 98.4162 35.7755L101.41 35.4049Z" fill="#76B779"/>
    <path d="M95.3166 29.1536C85.4727 25.4876 74.7352 24.9591 64.5788 27.6407C59.6373 29.0252 51.9161 31.1809 46.4277 38.2288C39.199 47.5115 40.6058 58.6408 41.0045 61.2498C40.6717 58.7011 39.5176 47.6986 46.8534 38.7216C52.3326 32.0165 60.2123 29.9397 64.8739 28.7106C73.9135 26.4301 83.4148 26.7632 92.2725 29.671C93.2873 29.4985 94.302 29.326 95.3166 29.1536Z" fill="#76B779"/>
    <path d="M237.66 34.9822C252 39.4528 273.205 43.7283 297.002 38.7822C330.164 31.8895 340.922 12.7916 368.942 7.64488C385.526 4.5989 410.17 6.06968 443.834 28.0613L439.167 28.0649C408.29 9.14931 385.263 7.9398 369.975 10.3011C340.724 14.8192 329.915 33.9371 297.666 40.8482C271.862 46.3781 248.691 40.5865 233.399 34.9946C234.82 34.9905 236.24 34.9864 237.66 34.9822Z" fill="#76B779"/>
    <path d="M444.941 34.9911C452.929 40.0391 465.38 46.0803 479.841 44.6481C504.225 42.2331 513.083 20.6748 537.726 17.8641C546.079 16.9113 558.71 17.8317 575.226 28.0738L578.428 28.0634C560.424 15.2718 546.765 13.8309 537.394 15.0971C514.3 18.2174 505.779 39.3249 480.948 41.9918C467.882 43.3952 456.562 39.0193 448.925 35.0007C447.597 34.9975 446.269 34.9943 444.941 34.9911Z" fill="#76B779"/>
    <path d="M578.18 34.9873C595.154 43.6952 608.029 44.0214 616.417 42.8772C642.702 39.292 652.867 17.4572 676.737 17.5321C689.165 17.5711 699.182 23.5302 705.283 28.0599C706.237 28.0611 707.192 28.0623 708.147 28.0634C694.849 16.8455 684.006 14.7085 676.847 14.6545C653.408 14.4776 643.263 36.4358 616.085 40.3317C601.595 42.4089 589.063 38.3766 581.209 34.9905L578.18 34.9873Z" fill="#76B779"/>
    <path d="M710.788 34.9947C718.061 40.2464 728.459 45.7932 739.491 43.7627C755.801 40.7608 759.939 23.6929 776.605 19.5981C783.78 17.8351 794.554 18.163 809.898 28.0606L812.55 28.0609C794.731 15.2624 782.829 14.6367 774.982 16.9418C759.326 21.5405 755.487 39.0733 739.159 41.8811C729.507 43.5409 720.566 39.1829 714.296 34.9957C713.126 34.9953 711.957 34.995 710.788 34.9947Z" fill="#76B779"/>
    <path d="M814.955 34.9931C819.827 38.1992 827.321 42.0445 836.555 42.2132C858.284 42.6099 867.535 22.245 889.127 16.9787C899.451 14.4606 914.822 14.852 936.534 28.2863C937.876 28.3995 939.218 28.5127 940.56 28.6259C915.515 11.7737 898.952 11.6916 888.574 14.5438C868.697 20.0065 859.238 39.606 836.887 39.6676C830.25 39.6106 823.717 38.0112 817.804 34.9957C816.854 34.9949 815.905 34.994 814.955 34.9931Z" fill="#76B779"/>
    <path d="M942.44 35.713C946.569 38.605 951.123 40.8354 955.94 42.3239C963.469 44.634 970.024 44.5734 970.051 44.3714C965.338 43.7267 960.69 42.6713 956.161 41.2171C952.257 39.881 948.499 38.1504 944.946 36.0521C944.11 35.9391 943.275 35.826 942.44 35.713Z" fill="#76B779"/>
    <path d="M988.516 31.625C991.866 32.7213 994.959 34.4872 997.607 36.8153C1000.25 39.1435 1002.4 41.9854 1003.92 45.1684C1005.43 48.3515 1006.28 51.8094 1006.42 55.3321C1006.56 58.8548 1005.98 62.3688 1004.72 65.6609L1003.26 63.7362C1005.12 57.5054 1004.64 50.8135 1001.93 44.9062C999.217 38.9989 994.45 34.2789 988.516 31.625V31.625Z" fill="#76B779"/>
    <path d="M1000.89 72.2494C1000.26 82.8465 1002.22 93.4377 1006.61 103.106C1014.89 120.768 1027.3 124.15 1031.79 138.06C1034.42 146.21 1034.63 158.89 1022.75 178.194L1022.75 180.961C1037.32 159.553 1037.47 145.875 1034.56 137.175C1030.09 123.821 1017.69 120.015 1008.88 100.872C1005.12 92.5861 1002.93 83.6724 1002.43 74.5864C1001.92 73.8074 1001.4 73.0284 1000.89 72.2494Z" fill="#76B779"/>
    <path d="M1015.82 184.986C1013.41 189.821 1010.25 197.931 1011.24 207.509C1013.17 226.011 1028.77 232.242 1032.34 249.345C1033.89 256.745 1033.67 268.5 1022.75 285.279V288.046C1036.28 269.414 1036.85 256.783 1034.85 248.681C1030.95 232.842 1015.36 226.727 1013.09 207.878C1012.36 201.084 1013.32 194.215 1015.89 187.882L1015.82 184.986Z" fill="#76B779"/>
    <path d="M1015.82 292.088C1009.52 300.359 1009.12 306.243 1009.77 309.963C1011.78 321.512 1026.15 324.672 1027.58 336.083C1028.33 342.038 1025.19 347.305 1022.75 350.54L1022.75 351.992C1029 345.097 1029.85 339.901 1029.47 336.415C1028.21 325.102 1012.73 321.778 1010.98 309.852C1010.1 303.818 1013.13 298.335 1015.81 294.662L1015.82 292.088Z" fill="#76B779"/>
    <path d="M1015.82 354.877C1009.05 365.795 1009 373.435 1010.13 378.341C1013.12 391.204 1026.44 394.586 1028.43 407.117C1029.67 414.86 1025.9 421.893 1022.75 426.431V429.613C1031.05 419.546 1031.86 412.226 1031.16 407.486C1029.35 395.193 1016.11 391.535 1012.94 377.603C1011.09 369.49 1013.6 362.01 1015.82 357.202L1015.82 354.877Z" fill="#76B779"/>
    <path d="M1015.82 431.54C1008.4 442.61 1008.31 450.201 1009.4 454.93C1012.39 467.942 1027.27 472.146 1027.7 484.296C1027.89 489.927 1024.89 494.552 1022.75 497.237L1022.75 499.561C1026.34 495.827 1030.01 490.629 1029.76 484.592C1029.27 472.672 1013.94 468.563 1011.09 454.856C1010.08 449.965 1010.53 443.248 1015.82 434.381V431.54Z" fill="#76B779"/>
    <path d="M1015.82 501.71C1012.2 505.779 1008.04 511.875 1008.73 518.754C1009.91 530.546 1024.14 533.781 1028.14 546.46C1029.93 552.144 1030.12 561.166 1021.39 575.016L1020.97 577.285C1032.6 561.775 1032.9 552.126 1030.91 546.128C1027.02 534.456 1012.63 531.24 1011.32 519.049C1010.67 513.035 1013.52 507.801 1015.82 504.514V501.71Z" fill="#76B779"/>
    <path d="M1013.28 579.796C1009.56 584.263 1006.96 589.556 1005.71 595.232C1003.78 604.436 1007.17 608.128 1004.05 616.335C1002.26 621.337 998.873 625.614 994.418 628.509C990.52 630.91 986.009 632.127 981.432 632.014C986.042 632.394 990.662 631.406 994.714 629.173C999.559 626.322 1003.26 621.875 1005.19 616.593C1008.15 608.792 1005.06 604.977 1007.15 595.343C1008.18 590.641 1010.06 586.164 1012.68 582.125L1013.28 579.796Z" fill="#76B779"/>
    <path d="M997.001 639.983C997.064 640.333 990.231 642.707 981.801 642.934C972.39 643.188 966.73 640.613 962.47 639.688C942.876 635.435 931.043 661.361 907.498 664.948C898.802 666.273 885.711 664.976 867.933 651.561L872.47 651.556C887.78 663.167 899.182 664.259 906.393 663.447C930.199 660.764 941.56 633.571 961.584 637.474C966.077 638.35 970.601 640.712 979.883 641.164C989.645 641.638 996.937 639.623 997.001 639.983Z" fill="#76B779"/>
    <path d="M859.281 644.664C846.215 639.293 824.975 632.842 800.917 637.437C768.848 643.563 757.616 664.379 727.649 667.652C715.114 669.021 695.5 667.736 669.584 651.59L674.313 651.588C685.418 658.133 703.568 666.516 724.992 664.553C755.92 661.72 767.454 639.729 798.925 633.453C812.761 630.694 834.433 630.178 864.262 644.667L859.281 644.664Z" fill="#76B779"/>
    <path d="M664.036 644.687C651.154 638.458 640.62 637.651 632.355 638.876C610.917 642.054 603.216 659.13 583.214 660.348C572.328 661.011 562.681 656.679 555.065 651.586L558.275 651.567C563.675 654.63 572.348 658.476 582.771 657.913C602.953 656.821 610.581 640.23 630.473 636.441C638.605 634.893 651.06 635.05 668.132 644.663L664.036 644.687Z" fill="#76B779"/>
    <path d="M549.273 644.651C527.307 632.848 512.883 633.741 503.748 636.773C488.389 641.872 482.538 654.828 465.564 656.917C455.012 658.216 445.881 654.611 440.071 651.584H443.613C450.165 654.716 457.453 655.987 464.678 655.257C482.171 653.136 488.125 638.533 502.641 633.066C511.819 629.609 527.077 628.802 552.323 644.651L549.273 644.651Z" fill="#76B779"/>
    <path d="M436.493 644.699C425.159 635.342 416.761 634.257 411.147 635.039C396.579 637.07 392.128 652.885 376.026 656.068C366.737 657.905 358.204 654.622 352.47 651.582L349.186 651.586C361.832 658.828 370.85 658.786 376.542 657.618C392.27 654.389 397.166 639.573 412.18 637.991C421.167 637.044 428.928 641.349 433.652 644.656L436.493 644.699Z" fill="#76B779"/>
    <path d="M343.431 644.659C338.235 642.102 329.583 638.814 319.691 640.37C302.42 643.088 297.038 658.106 281.064 660.569C274.988 661.506 265.331 660.943 252.012 651.579L255.498 651.583C261.237 655.047 270.054 659.071 280.068 657.747C296.509 655.573 301.906 640.871 318.473 638.046C324.612 637 333.915 637.306 346.475 644.657L343.431 644.659Z" fill="#76B779"/>
    <path d="M247.944 644.659C242.921 641.619 235.444 638.27 227.644 640.094C217.346 642.502 214.939 651.951 204.641 655.533C199.415 657.351 191.182 657.998 178.634 651.591L180.69 651.591C186.805 654.03 195.311 656.168 203.756 653.264C214.324 649.631 216.651 640.901 226.316 638.323C231.472 636.947 239.267 637.176 250.6 644.659H247.944Z" fill="#76B779"/>
    <path d="M175.127 644.655C166.239 639.155 160.08 639.111 156.054 640.149C146.567 642.594 143.858 652.346 133.808 653.984C129.396 654.556 124.916 653.716 121.011 651.586L118.41 651.588C125.345 655.862 130.57 656.207 134.25 655.533C144.054 653.738 146.739 644.014 156.829 641.754C162.921 640.389 168.708 642.419 172.988 644.655H175.127Z" fill="#76B779"/>
    <path d="M113.48 644.655C100.881 635.725 91.2151 634.611 84.6116 635.335C72.9819 636.61 67.4533 643.96 59.0089 641.91C50.9138 639.944 46.2258 630.817 43.6255 623.984L45.2295 625.576C47.9039 631.28 52.4118 638.401 59.5984 640.094C68.0881 642.094 73.6296 634.944 84.0212 633.269C91.1384 632.121 101.672 633.358 116.069 644.659L113.48 644.655Z" fill="#76B779"/>
    <path d="M45.3947 615.708C45.0881 611.126 43.8752 604.984 39.3444 600.729C31.9806 593.815 21.6087 597.29 17.4301 591.064C15.7766 588.6 14.7742 584.141 18.4904 575.414C18.6191 576.098 18.7477 576.782 18.8762 577.465C17.2405 581.599 15.9684 586.871 18.4262 590.621C22.4531 596.765 32.7686 593.143 40.156 599.475C43.5126 602.352 46.5172 607.5 46.7931 617.26C46.3269 616.743 45.8608 616.225 45.3947 615.708Z" fill="#76B779"/>
    <path d="M24.5267 568.625C30.1619 559.396 29.8582 553.748 28.498 550.279C25.3031 542.13 14.6376 541.809 12.2284 534.009C10.5306 528.513 13.9362 522.549 17.0604 518.385L17.0598 520.986C15.0042 524.117 12.5214 529.002 13.8886 533.788C16.1852 541.828 27.2138 542.118 30.4902 549.892C32.026 553.536 32.245 559.742 24.7701 570.615L24.5267 568.625Z" fill="#76B779"/>
    <path d="M23.9954 513.617C27.8757 508.27 32.3657 500.169 30.8776 491.398C28.5162 477.48 13.1498 473.942 9.8488 459.745C8.55186 454.166 8.79209 445.544 17.0541 433.163L17.0568 436.816C13.8066 442.419 10.3751 450.579 12.2284 459.246C15.3589 473.887 30.8829 477.417 33.3125 490.9C34.2915 496.333 33.3424 504.481 23.9963 515.83L23.9954 513.617Z" fill="#76B779"/>
    <path d="M23.9879 426.901C27.3632 419.487 31.1935 407.891 28.0553 395.533C22.9748 375.526 3.68727 369.495 3.33725 353.254C3.2183 347.736 5.24806 339.291 17.0604 328.665V331.654C12.0455 336.702 6.43255 344.146 6.53753 353.096C6.72924 369.433 25.7937 375.553 30.7853 394.5C32.8483 402.331 32.9074 413.871 24.0156 430.083C24.0063 429.022 23.9971 427.962 23.9879 426.901Z" fill="#76B779"/>
    <path d="M23.9904 324.704C33.2302 315.786 34.4585 308.487 34.4745 304.519C34.4838 302.232 34.1043 297.556 21.7466 278.953C12.536 265.087 9.34725 262.567 8.90797 256.485C8.33726 248.583 12.9182 241.727 17.0604 237.043V240.621C14.4345 244.232 11.4841 249.592 11.7856 255.932C12.1125 262.803 16.0476 266.351 23.4068 276.85C32.9914 290.523 37.7837 297.36 37.7948 304.519C37.8022 309.238 35.9793 317.228 23.9906 327.001L23.9904 324.704Z" fill="#76B779"/>
    <path d="M23.9829 231.693C32.8396 219.498 34.1486 209.883 33.7367 203.397C32.2585 180.113 6.81397 168.925 9.46146 148.722C10.3856 142.973 13.0399 137.642 17.0705 133.439C17.0637 134.7 17.0568 135.96 17.0501 137.22C14.3671 140.553 12.5691 144.509 11.8226 148.722C8.58694 168.77 34.9488 180.476 36.9095 202.806C37.5483 210.082 35.8002 220.798 23.9846 234.682L23.9829 231.693Z" fill="#76B779"/>
    <path d="M23.9916 129.261C32.5178 118.862 37.3702 105.938 37.7949 92.4977C38.0244 81.6522 35.3223 70.9457 29.9737 61.508C36.3822 70.5914 39.9282 81.3835 40.1561 92.4977C40.4759 114.728 26.8922 129.321 23.9897 132.305L23.9916 129.261Z" fill="#76B779"/>
    <path d="M317.975 305.76C325.381 306.389 327.574 305.563 328.945 304.793C332.022 303.067 331.397 301.235 335.612 297.062C337.582 295.113 339.576 293.485 344.431 290.942C345.595 290.332 354.078 286.943 354.97 286.647C361.073 284.618 366.699 281.235 368.413 280.204C374.464 276.565 377.51 274.675 378.521 271.184C379.349 268.329 379.128 264.086 376.478 262.165C374.229 260.534 371.221 261.288 370.079 261.574C367.141 262.311 365.491 264.001 362.175 267.211C357.028 272.195 354.459 274.693 353.464 275.372C349.37 278.166 342.153 279.754 340.237 280.419C338.211 281.121 335.087 282.205 332.278 280.884C329.193 279.433 328.255 275.912 328.12 275.372C327.427 272.605 328.425 270.232 330.45 265.601C336.749 251.193 337.504 249.973 339.591 248.42C341.066 247.323 342.976 246.472 346.797 244.769C354.034 241.544 354.999 242.339 358.626 240.045C361.869 237.994 360.921 237.372 367.23 231.884C369.954 229.515 371.688 228.02 374.327 226.408C378.112 224.096 378.997 224.45 383.038 222.22C387.119 219.968 392.202 217.164 391.857 214.381C391.566 212.038 387.503 210.343 384.651 210.194C381.553 210.032 378.36 211.602 377.339 212.127C376.453 212.581 374.424 213.586 370.886 216.744C368.136 219.198 365.854 221.236 363.035 224.582C359.287 229.034 359.722 229.709 356.906 232.206C353.881 234.888 351.311 235.945 349.378 236.716C347.339 237.53 344.979 238.472 344.323 237.682C343.583 236.793 345.583 234.39 347.764 230.488C348.983 228.308 350.083 225.492 352.281 219.858C354.069 215.276 355.884 210.623 357.443 204.503C359.614 195.983 360.787 191.095 358.089 187.859C357.894 187.626 355.623 184.985 352.389 185.175C349.679 185.334 347.966 187.382 347.657 187.752C345.963 189.778 345.838 192.163 345.721 193.872C345.419 198.297 344.534 202.665 344.108 207.08C344.108 207.08 343.499 213.396 341.42 220.609C340.986 222.113 340.034 225.203 333.676 237.897C327.587 250.056 326.865 250.406 324.966 255.614C323.442 259.791 321.894 264.037 320.879 270.003C319.495 278.139 320.309 282.388 318.19 283.211C315.421 284.286 310.769 278.294 309.91 277.197C305.949 272.143 304.971 266.778 304.533 264.205C303.824 260.05 304.705 260.69 304.533 250.138C304.41 242.649 303.945 240.998 305.178 237.897C306.056 235.689 307.52 233.884 310.447 230.273C314.286 225.54 315.223 225.185 317.223 222.22C317.697 221.516 320.065 217.941 321.524 212.771C322.311 209.983 325.289 199.429 320.664 195.913C319.034 194.674 316.596 194.411 314.642 195.053C311.895 195.956 310.702 198.45 310.447 199.026C309.54 201.08 310.062 202.509 310.125 205.469C310.178 207.965 309.802 209.889 309.049 213.737C308.098 218.603 305.351 227.924 302.704 227.804C301.232 227.737 300.961 224.8 298.403 218.891C296.871 215.355 293.924 208.692 288.509 203.214C286.504 201.186 279.755 194.36 274.959 196.342C272.838 197.218 271.554 199.929 271.302 202.14C271.007 204.735 272.175 206.724 272.7 207.617C273.42 208.841 274.278 209.728 276.357 211.375C279.612 213.954 281.336 214.814 283.777 216.529C285.704 217.883 288.138 219.593 290.445 222.22C291.308 223.203 294.171 226.613 295.929 231.991C297.461 236.676 298.821 240.836 296.79 243.696C293.602 248.183 284.451 246.108 282.809 245.736C281.072 245.342 272.322 243.358 268.936 236.394C267.27 232.968 267.651 229.875 264.419 223.186C263.805 221.914 263.019 220.428 261.408 219.75C259.03 218.75 255.796 219.911 254.203 222.005C253.775 222.568 252.521 224.44 253.558 229.629C254.073 232.209 255.576 239.185 262.053 244.877C268.387 250.442 275.799 251.548 277.324 251.749C284.899 252.746 290.331 250.251 292.811 253.467C293.607 254.5 293.572 255.439 293.778 257.547C294.36 263.486 296.001 269.905 297.973 274.191C301.026 280.83 305.067 282.776 303.995 286.432C303.49 288.153 302.176 289.159 301.521 289.653C297.899 292.39 292.365 291.634 288.831 289.438C285.584 287.42 286.41 285.67 282.164 280.419C279.787 277.479 277.186 275.429 271.983 271.327C265.94 266.563 262.88 264.199 261.032 265.082C259.188 265.962 258.553 269.215 259.15 271.614C259.692 273.793 261.138 274.813 264.742 277.627C271.603 282.985 275.034 285.664 277.109 288.043C277.36 288.33 279.575 290.885 282.174 293.725C282.325 293.891 282.36 293.928 282.379 293.948C283.999 295.685 285.231 296.986 287.218 298.136C289.308 299.345 290.983 299.665 293.133 300.176C298.78 301.518 297.746 301.809 303.672 303.29C307.422 304.227 310.891 305.158 317.975 305.76L317.975 305.76Z" fill="#D75047"/>
    <path d="M362.9 271.723C364.147 274.021 365.931 276.823 368.453 279.708C368.545 279.813 368.637 279.91 368.73 280.013C369.069 279.809 369.4 279.609 369.72 279.415C367.447 276.851 365.173 274.287 362.9 271.723Z" fill="#9D413B"/>
    <path d="M329.036 268.945C329.052 268.904 329.067 268.864 329.084 268.822L321.442 267.127C321.435 267.16 321.428 267.193 321.42 267.226C322.421 267.624 323.576 268.013 324.89 268.325C326.423 268.689 327.818 268.865 329.036 268.945V268.945Z" fill="#9D413B"/>
    <path d="M331.515 255.975C332.523 256.398 333.469 256.677 334.327 256.874C334.386 256.745 334.443 256.619 334.501 256.495C332.215 255.572 329.929 254.649 327.643 253.726C328.558 254.43 329.848 255.277 331.515 255.975V255.975Z" fill="#9D413B"/>
    <path d="M344.779 279.086C344.58 279.147 344.38 279.209 344.187 279.266C345.086 281.218 346.212 282.656 347.096 283.605C346.324 282.099 345.552 280.593 344.779 279.086Z" fill="#9D413B"/>
    <path d="M356.194 272.971C356.085 273.073 355.981 273.172 355.878 273.268C356.819 274.818 358.08 276.588 359.758 278.377C361.369 280.093 362.992 281.428 364.454 282.463C364.641 282.362 364.829 282.262 365.007 282.165C362.069 279.1 359.131 276.035 356.194 272.971Z" fill="#9D413B"/>
    <path d="M351.952 194.156C353.226 194.535 354.957 194.912 357.029 194.98C357.926 195.009 358.754 194.973 359.515 194.903C359.532 194.759 359.548 194.616 359.562 194.475C357.025 194.369 354.488 194.262 351.952 194.156L351.952 194.156Z" fill="#9D413B"/>
    <path d="M356.419 232.614C356.91 233.399 357.588 234.313 358.521 235.221C359.591 236.262 360.674 236.981 361.582 237.477C361.646 237.404 361.708 237.334 361.775 237.257C360.049 235.66 358.323 234.062 356.597 232.465C356.537 232.516 356.478 232.564 356.419 232.614Z" fill="#9D413B"/>
    <path d="M364.066 226.096C365.115 227.156 366.168 227.856 366.97 228.306C365.713 227.001 364.456 225.697 363.199 224.393C363.144 224.458 363.091 224.516 363.035 224.582C362.99 224.636 362.952 224.683 362.908 224.736C363.239 225.179 363.611 225.635 364.066 226.096Z" fill="#9D413B"/>
    <path d="M375.419 216.257C375.889 217.262 376.692 218.672 378.037 220.059C379.364 221.428 380.755 222.298 381.854 222.845C381.965 222.789 382.076 222.733 382.192 222.673C379.934 220.534 377.677 218.396 375.419 216.257V216.257Z" fill="#9D413B"/>
    <path d="M377.051 212.274C377.365 212.856 377.763 213.483 378.275 214.118C379.656 215.832 381.206 216.798 382.179 217.303C380.616 215.551 379.054 213.8 377.492 212.048C377.439 212.076 377.384 212.103 377.339 212.126C377.254 212.17 377.157 212.22 377.051 212.274V212.274Z" fill="#9D413B"/>
    <path d="M391.366 216.193C390.16 215.011 388.954 213.828 387.748 212.645C388.077 213.241 388.583 214.011 389.343 214.784C390.024 215.477 390.71 215.968 391.289 216.317C391.317 216.276 391.341 216.235 391.366 216.193Z" fill="#9D413B"/>
    <path d="M297.15 235.961C297.844 236.01 298.591 236.033 299.4 236.005C300.925 235.953 302.258 235.747 303.35 235.506C301.268 235.599 299.185 235.692 297.102 235.784C297.118 235.843 297.134 235.902 297.15 235.961H297.15Z" fill="#9D413B"/>
    <path d="M306.758 221.989C307.311 222.473 307.991 222.993 308.825 223.481C310.072 224.211 311.232 224.621 312.109 224.86C310.348 223.841 308.587 222.822 306.825 221.803C306.803 221.865 306.781 221.927 306.758 221.989H306.758Z" fill="#9D413B"/>
    <path d="M316.393 215.687C317.931 215.951 319.3 216 320.447 215.962C320.47 215.903 320.493 215.845 320.515 215.786C317.396 215.199 314.277 214.611 311.157 214.023C312.418 214.624 314.191 215.308 316.393 215.687Z" fill="#9D413B"/>
    <path d="M312.204 201.571C313.86 201.781 315.93 201.903 318.297 201.713C320.12 201.567 321.717 201.265 323.08 200.924C323.076 200.886 323.074 200.847 323.069 200.809C319.448 201.063 315.826 201.317 312.204 201.571Z" fill="#9D413B"/>
    <path d="M310.059 204.066C311.088 204.24 312.284 204.371 313.632 204.375C315.534 204.38 317.167 204.136 318.44 203.852C315.644 203.881 312.847 203.911 310.051 203.94L310.059 204.066L310.059 204.066Z" fill="#9D413B"/>
    <path d="M341.803 219.229C342.565 219.538 343.435 219.834 344.431 220.059C346.27 220.476 347.869 220.514 349.032 220.455C346.654 219.926 344.275 219.396 341.897 218.867C341.865 218.988 341.835 219.107 341.803 219.229H341.803Z" fill="#9D413B"/>
    <path d="M346.074 191.045C347.422 191.555 349.193 192.074 351.317 192.318C353.817 192.606 355.935 192.413 357.442 192.16C353.666 191.731 349.89 191.302 346.114 190.873C346.1 190.931 346.088 190.988 346.074 191.045Z" fill="#9D413B"/>
    <path d="M345.234 198.486C346.992 199.067 349.12 199.624 351.602 199.955C354.232 200.305 356.575 200.312 358.514 200.187L358.558 200C354.122 199.453 349.687 198.905 345.251 198.357C345.245 198.4 345.24 198.443 345.234 198.486V198.486Z" fill="#9D413B"/>
    <path d="M300.574 262.376C301.972 262.381 303.218 262.248 304.272 262.066C304.268 261.998 304.265 261.932 304.263 261.865C301.478 261.856 298.693 261.847 295.909 261.837C297.133 262.118 298.718 262.368 300.574 262.376L300.574 262.376Z" fill="#9D413B"/>
    <path d="M274.647 203.757C275.858 203.021 277.427 201.897 278.979 200.24C279.926 199.228 280.657 198.234 281.238 197.331C281.142 197.278 281.046 197.227 280.95 197.177C278.849 199.371 276.748 201.564 274.647 203.757Z" fill="#9D413B"/>
    <path d="M273.711 209.003C274.603 208.506 275.614 207.845 276.646 206.941C278.295 205.497 279.365 203.998 280.026 202.902C277.855 204.859 275.685 206.816 273.515 208.774C273.578 208.85 273.643 208.927 273.711 209.003H273.711Z" fill="#9D413B"/>
    <path d="M294.822 211.627C294.8 211.589 294.776 211.551 294.754 211.513C292.764 213.395 290.774 215.278 288.784 217.16C289.807 216.613 291.15 215.757 292.497 214.451C293.523 213.457 294.269 212.473 294.822 211.627L294.822 211.627Z" fill="#9D413B"/>
    <path d="M253.177 226.655C253.179 226.701 253.181 226.746 253.183 226.793C254.266 226.551 255.453 226.226 256.717 225.779C258.534 225.135 260.082 224.392 261.35 223.687C258.626 224.677 255.901 225.666 253.177 226.655H253.177Z" fill="#9D413B"/>
    <path d="M267.792 270.297C268.129 269.72 268.376 269.17 268.568 268.663C268.51 268.619 268.454 268.576 268.397 268.533C267.323 270.135 266.248 271.737 265.174 273.339C265.916 272.739 266.941 271.756 267.792 270.297Z" fill="#9D413B"/>
    <path d="M265.728 266.6C264.074 269.182 262.419 271.765 260.765 274.348C260.804 274.387 260.846 274.427 260.887 274.467C261.868 273.371 262.926 272.029 263.936 270.392C264.747 269.079 265.371 267.828 265.862 266.691C265.818 266.661 265.771 266.629 265.728 266.6Z" fill="#9D413B"/>
    <path d="M269.241 281.151C269.837 280.705 270.48 280.157 271.124 279.47C272.456 278.05 273.262 276.619 273.742 275.573C272.181 277.385 270.62 279.196 269.059 281.008C269.118 281.055 269.182 281.105 269.241 281.151Z" fill="#9D413B"/>
    <path d="M285.459 285.374C284.648 286.511 283.836 287.649 283.025 288.786C283.452 288.528 284.137 288.041 284.738 287.217C285.172 286.624 285.418 286.049 285.571 285.58C285.535 285.514 285.496 285.442 285.459 285.374H285.459Z" fill="#9D413B"/>
    <path d="M301.531 280.056C301.979 279.981 302.494 279.852 303.049 279.613C304.045 279.185 304.725 278.604 305.112 278.219C303.863 278.754 302.614 279.29 301.364 279.826C301.42 279.902 301.476 279.982 301.531 280.056L301.531 280.056Z" fill="#9D413B"/>
    <path d="M271.41 242.731C271.962 242.127 272.36 241.539 272.652 241.033C272.629 241.015 272.606 240.997 272.584 240.978C271.537 242.111 270.49 243.245 269.442 244.378C269.995 244.028 270.707 243.499 271.41 242.731L271.41 242.731Z" fill="#9D413B"/>
    <path d="M264.022 246.436C264.799 245.913 265.652 245.262 266.523 244.442C267.741 243.294 268.639 242.154 269.284 241.21C267.476 242.912 265.669 244.615 263.861 246.317C263.915 246.357 263.969 246.397 264.022 246.436Z" fill="#9D413B"/>
    <path d="M266.487 228.294C264.373 229.156 262.259 230.018 260.144 230.88C261.036 230.84 262.412 230.671 263.952 230.025C265.057 229.561 265.917 228.99 266.551 228.488C266.531 228.425 266.508 228.358 266.487 228.294Z" fill="#9D413B"/>
    <path d="M356.188 209.936L351.999 209.207C352.52 209.444 353.245 209.711 354.141 209.857C354.949 209.988 355.652 209.98 356.188 209.936Z" fill="#9D413B"/>
    <path d="M344.383 233.241C344.933 233.468 345.439 233.592 345.875 233.667L345.963 233.523C344.754 232.996 343.545 232.469 342.336 231.942C342.752 232.321 343.43 232.847 344.383 233.241V233.241Z" fill="#9D413B"/>
    <path d="M290.093 211.385C290.553 211.206 291.321 210.837 292.045 210.102C292.515 209.626 292.82 209.144 293.021 208.755C292.999 208.723 292.979 208.691 292.957 208.659C292.003 209.568 291.048 210.477 290.093 211.385H290.093Z" fill="#9D413B"/>
    <path d="M283.913 247.895C283.639 249.253 283.366 250.61 283.092 251.967L283.195 251.963C283.4 251.536 283.608 251.003 283.755 250.367C283.986 249.359 283.971 248.491 283.913 247.895Z" fill="#9D413B"/>
    <path d="M302.636 264.689C303.4 264.683 304.052 264.572 304.574 264.442L304.555 264.335L300.002 264.277C300.609 264.476 301.519 264.697 302.636 264.689Z" fill="#9D413B"/>
    <path d="M367.404 262.696C367.996 263.588 368.673 264.522 369.469 265.481C371.092 267.437 372.735 268.956 374.166 270.107C371.985 267.595 369.804 265.083 367.622 262.571C367.55 262.612 367.476 262.652 367.404 262.696Z" fill="#9D413B"/>
</svg>
