<svg viewBox="0 0 1041 673" fill="none" xmlns="http://www.w3.org/2000/svg">
    <path d="M930.276 31.5285H109.538C60.3792 31.5285 20.5282 71.3795 20.5282 120.538V559.113C20.5282 608.271 60.3792 648.122 109.538 648.122H930.276C979.434 648.122 1019.29 608.271 1019.29 559.113V120.538C1019.29 71.3795 979.434 31.5285 930.276 31.5285Z" fill="#B6CEE1" stroke="#116619" stroke-width="6"/>
    <path d="M10.3468 40.3962C14.0802 43.5191 30.3872 57.8544 33.3678 82.5644C35.0452 97.2366 31.7441 112.047 23.9944 124.618C23.9917 129.075 23.9889 133.532 23.9861 137.989C25.0232 137.01 49.8968 112.69 42.0006 79.7975C35.744 53.7353 13.6632 42.0771 10.3468 40.3962Z" fill="#48964E"/>
    <path d="M17.0569 128.701C8.9823 135.637 6.59974 141.986 5.91973 146.508C3.13445 165.034 25.505 175.593 28.6391 200.181C30.0691 211.399 26.9366 221.161 23.9805 227.767L23.9875 239.712C41.4527 218.375 42.4272 204.688 40.0084 196.092C35.2337 179.124 13.756 169.631 15.3641 150.788C15.5785 148.344 16.1464 145.945 17.05 143.665C17.0523 138.677 17.0547 133.689 17.0569 128.701Z" fill="#48964E"/>
    <path d="M17.0604 232.674C5.48565 244.641 4.28566 252.946 5.18185 258.219C6.6285 266.731 13.6658 268.101 22.5951 285.077C28.1058 295.553 28.5784 301.026 28.6455 303.671C28.7255 309.923 27.1172 316.082 23.9901 321.497L23.991 330.539C41.6305 318.739 42.9887 308.886 42.9598 304.851C42.909 297.746 38.4361 291.725 29.6047 279.838C21.4098 268.807 15.4083 264.258 14.9215 255.415C14.7654 251.724 15.499 248.049 17.0604 244.7V232.674Z" fill="#48964E"/>
    <path d="M17.0604 325.22V335.103C13.8048 340.271 12.0902 346.261 12.1177 352.369C12.5845 369.455 28.9968 376.064 34.1056 392.065C36.8704 400.725 36.9913 414.222 23.998 434.822C23.9945 430.933 23.991 427.045 23.9876 423.156C26.0384 415.924 26.4201 408.32 25.1039 400.919C20.7622 377.867 0.685835 370.851 0.0169104 353.992C-0.233507 347.682 2.15076 337.868 17.0604 325.22Z" fill="#48964E"/>
    <path d="M17.0501 427.831C4.97676 444.271 4.77025 454.633 6.80518 461.054C10.6864 473.3 24.3096 476.221 27.465 490.052C29.351 498.318 26.4774 506.012 23.9945 510.935C23.9957 514.078 23.9969 517.22 23.998 520.363C37.3567 504.069 38.216 493.78 36.1717 487.248C32.6197 475.899 19.2639 472.709 15.9546 458.324C14.7898 452.761 15.1723 446.984 17.0605 441.623L17.0501 427.831Z" fill="#48964E"/>
    <path d="M17.0612 515.065C8.99151 525.759 9.0124 531.824 10.4206 535.356C13.1376 542.17 22.1154 542.287 25.5465 550.039C28.053 555.702 26.0884 562.023 24.2826 566.146C24.3981 567.501 24.5498 568.909 24.7375 570.368C24.9274 571.825 25.1416 573.223 25.3799 574.563C36.23 556.687 35.4077 548.633 32.7037 544.579C28.6327 538.476 17.7069 537.555 16.3971 530.191C16.1254 528.432 16.3546 526.631 17.0587 524.996L17.0612 515.065Z" fill="#48964E"/>
    <path d="M18.0222 572.507C13.0891 583.935 14.5022 589.32 16.4894 592.115C20.5839 597.873 29.2555 595.641 37.1308 602.851C40.4592 606 42.9026 609.968 44.2167 614.358C44.9419 615.213 45.7119 616.085 46.5267 616.972C47.3524 617.869 48.1675 618.718 48.9719 619.52C49.211 604.959 45.11 599.01 41.3366 596.265C34.4535 591.258 24.7422 594.061 20.6398 587.632C19.2122 585.118 18.7262 582.177 19.2687 579.337C19.0586 578.382 18.8583 577.4 18.668 576.389C18.4183 575.057 18.2031 573.763 18.0222 572.507Z" fill="#48964E"/>
    <path d="M42.0031 622.283C46.7911 638.508 53.2136 643.192 57.9382 644.631C66.9854 647.388 73.8136 639.441 88.7123 639.365C96.1929 639.413 103.556 641.227 110.203 644.66L119.037 644.657C102.87 630.479 91.01 628.438 82.73 629.801C72.3763 631.505 63.8322 639.154 54.9499 635.224C51.4655 633.513 48.6522 630.688 46.9564 627.196C46.2082 626.514 45.4495 625.795 44.6803 625.04C43.7328 624.108 42.8404 623.189 42.0031 622.283Z" fill="#48964E"/>
    <path d="M115.106 651.591C127.369 659.207 134.715 658.829 139.176 657.027C145.937 654.296 147.67 647.647 156.146 644.779C160.852 643.316 165.884 643.273 170.614 644.655H177.173C165.138 636.785 157.597 636.827 152.826 638.581C144.69 641.572 140.989 650.87 130.321 652.01C128.053 652.244 125.761 652.1 123.54 651.584L115.106 651.591Z" fill="#48964E"/>
    <path d="M176.174 651.59C191.651 661.554 201.029 661.231 206.763 659.02C215.799 655.534 218.489 646.308 229.636 643.525C235.059 642.31 240.718 642.705 245.919 644.66L253.388 644.657C239.944 633.895 230.994 633.305 225.357 634.671C213.782 637.475 209.318 650.187 194.515 652.342C190.476 652.902 186.366 652.647 182.428 651.591L176.174 651.59Z" fill="#48964E"/>
    <path d="M249.258 651.582C265.838 664.48 276.984 665.311 284.237 663.447C296.849 660.205 300.696 648.04 316.407 643.82C324.23 641.89 332.436 642.182 340.102 644.66L351.961 644.655C333.752 633.539 321.409 633.567 313.345 635.888C299.746 639.802 293.8 651.537 277.043 653.596C270.737 654.311 264.351 653.625 258.341 651.587L249.258 651.582Z" fill="#48964E"/>
    <path d="M345.465 651.591C365.599 662.904 377.705 661.874 385.027 658.872C394.833 654.852 399.56 645.86 412.771 643.525C418.459 642.583 424.289 642.969 429.804 644.655L443.017 644.658C425.156 629.441 413.953 628.334 406.868 630.539C395.057 634.214 392.044 647.915 376.764 652.231C370.046 653.964 362.974 653.737 356.381 651.577L345.465 651.591Z" fill="#48964E"/>
    <path d="M436.307 651.584C442.658 655.453 452.538 660.082 464.273 659.315C481.079 658.216 487.83 646.955 505.592 642.197C514.149 639.904 527.157 638.613 545.113 644.65L557.538 644.652C526.411 625.02 509.136 625.608 498.952 630.686C488.018 636.138 480.788 648.994 462.926 651.881C457.708 652.701 452.387 652.6 447.203 651.584H436.307Z" fill="#48964E"/>
    <path d="M562.702 651.585C568.452 653.494 574.507 654.314 580.558 654.002C600.049 652.891 608.674 639.807 623.353 634.67C633.854 630.996 650.007 630.496 674.713 644.655L660.42 644.66C650.354 641.913 639.791 641.525 629.551 643.525C608.509 647.856 601.319 660.833 583.509 662.118C576.428 662.63 565.421 661.455 551.171 651.587L562.702 651.585Z" fill="#48964E"/>
    <path d="M678.232 651.584C690.721 656.031 703.969 657.957 717.208 657.249C748.6 655.366 762.648 638.53 787.599 631.572C805.047 626.705 831.514 625.641 869.511 644.67L852.521 644.66C835.629 641.292 818.247 641.207 801.323 644.41C765.319 651.434 753.078 670.21 724.734 672.301C710.686 673.337 690.342 670.448 664.51 651.591L678.232 651.584Z" fill="#48964E"/>
    <path d="M863.063 651.567C886.607 667.621 902.874 668.248 913.515 665.66C932.602 661.019 935.367 645.599 956.862 642.787C972.959 640.681 980.122 648.188 995.268 643.23C1005.77 639.793 1012.88 632.731 1017.11 627.587C1009.96 632.466 1001.87 635.785 993.35 637.327C976.852 640.181 972.486 633.405 958.485 634.671C935.888 636.714 931.904 655.755 909.678 658.725C898.771 660.182 888.074 657.154 877.949 651.549L863.063 651.567Z" fill="#48964E"/>
    <path d="M999.208 69.8698C997.078 77.8959 996.928 86.3192 998.772 94.4161C1003.46 113.868 1018.27 119.09 1024.6 136.621C1027.5 144.66 1029.28 157.114 1022.75 175.443L1022.76 186.227C1042.99 157.86 1042.88 141.801 1038.91 132.342C1033.64 119.792 1018.97 112.695 1008.05 87.2683C1006.39 83.4222 1005.27 80.1954 1004.61 78.1808C1004.06 77.2256 1003.48 76.2551 1002.86 75.2693C1001.65 73.3353 1000.43 71.5367 999.208 69.8698Z" fill="#48964E"/>
    <path d="M1015.82 180.961C1011.89 187.507 1007.1 197.909 1008.95 209.578C1011.34 224.602 1022.78 229.453 1027.25 244.773C1029.47 252.361 1030.52 264.371 1022.75 281.839V294.295C1042.18 265.974 1041.87 250.456 1037.66 241.453C1032.33 230.076 1018.31 223.862 1015.52 206.479C1014.82 201.997 1014.92 197.427 1015.82 192.98V180.961Z" fill="#48964E"/>
    <path d="M1015.82 288.046C1006.9 300.577 1006.59 308.452 1008.44 313.504C1011.7 322.443 1022.43 324.583 1024.6 334.976C1025.36 339.343 1024.71 343.839 1022.75 347.816L1022.76 356.235C1032.27 345.732 1033.16 338.662 1032.12 334.09C1029.58 322.9 1013.72 319.142 1013.31 307.528C1013.28 304.468 1014.15 301.468 1015.81 298.9L1015.82 288.046Z" fill="#48964E"/>
    <path d="M1015.82 351.992C1005.73 364.487 1004.91 372.978 1006.3 378.586C1009.03 389.572 1021.11 392.861 1024.01 406.33C1025.05 411.659 1024.61 417.171 1022.75 422.272V434.384C1035.55 419.748 1036.56 410.288 1034.93 404.264C1031.75 392.556 1017.13 388.512 1014.86 373.569C1014.29 369.557 1014.62 365.469 1015.82 361.6L1015.82 351.992Z" fill="#48964E"/>
    <path d="M1015.82 426.515C1004.79 443.25 1004.97 453.074 1007.55 459.062C1011.73 468.749 1023.75 471.98 1025.04 483.19C1025.39 487.06 1024.59 490.946 1022.75 494.368L1022.75 503.382C1032.03 494.91 1033.54 488.412 1033.23 484.075C1032.34 471.543 1015.58 466.621 1013.75 451.093C1013.29 446.598 1014.01 442.06 1015.82 437.921L1015.82 426.515Z" fill="#48964E"/>
    <path d="M1015.82 499.014C1007.02 507.596 1005.4 514.24 1005.86 518.975C1006.87 529.57 1018.51 532.74 1023.27 545.391C1026.88 554.982 1024.61 564.882 1021.83 572.165C1021.6 573.851 1021.3 575.628 1020.93 577.483C1020.57 579.278 1020.17 580.978 1019.75 582.576C1036.03 561.403 1036.46 549.678 1033.45 542.808C1028.98 532.623 1014.59 527.777 1014.27 515.286C1014.22 512.647 1014.75 510.03 1015.82 507.617L1015.82 499.014Z" fill="#48964E"/>
    <path d="M1014.2 575.757C1009.84 580.03 1006.56 585.276 1004.62 591.064C1001.29 601.346 1004.9 606.523 1000.52 615.745C999.569 617.76 996.178 624.913 989.124 628.141C977.107 633.64 963.034 623.823 962.617 624.765C962.191 625.726 975.865 638.171 990.342 634.283C997.405 632.386 1005.59 626.476 1007.66 618.456C1009.61 610.929 1007.55 596.224 1009.29 592.035C1009.35 591.892 1009.8 590.836 1010.36 589.358C1010.98 587.685 1011.45 586.25 1011.78 585.179C1012.3 583.51 1012.81 581.738 1013.27 579.868C1013.63 578.455 1013.94 577.085 1014.2 575.757Z" fill="#48964E"/>
    <path d="M1001.47 61.5114C1001.37 56.6351 1000.25 51.8343 998.181 47.4151C991.658 33.5863 977.938 28.8425 974.865 27.862C988.36 26.1976 1001.09 32.6254 1006.59 43.5783C1012.43 55.2029 1007.59 66.8654 1006.81 68.643C1005.94 67.3385 1004.98 65.9914 1003.94 64.6156C1003.11 63.5224 1002.29 62.4876 1001.47 61.5114Z" fill="#48964E"/>
    <path d="M43.1074 75.3058C44.178 75.238 38.4338 54.3328 49.1947 41.4385C57.8654 31.0486 73.9217 29.8508 87.2125 30.7765C89.4119 30.2335 91.3744 29.8336 93.0296 29.5356C94.0802 29.3464 95.6591 29.081 97.592 28.8308C98.9585 28.6539 100.173 28.5272 101.193 28.4349C76.8268 18.8415 53.2042 23.3875 43.6608 37.2327C33.201 52.4075 41.9815 75.3771 43.1074 75.3058Z" fill="#48964E"/>
    <path d="M93.9102 36.4151C102.92 41.8452 116.869 48.1997 132.092 45.3121C149.99 41.9171 155.559 28.4282 174.15 22.9922C183.451 20.2726 198.036 18.9772 219.103 28.0634H236.353C199.711 5.44145 178.684 6.07504 165.96 12.2196C151.449 19.2267 139.936 37.1661 118.258 37.0114C114.152 36.9709 110.076 36.3133 106.166 35.0607C103.849 35.1485 101.363 35.337 98.7344 35.6676C97.0497 35.8795 95.4401 36.133 93.9102 36.4151Z" fill="#48964E"/>
    <path d="M228.079 34.994C228.944 35.3655 230.199 35.8987 231.72 36.5247C233.329 37.2753 234.978 37.935 236.661 38.5009C240.168 39.6001 245.142 41.035 251.186 42.359C257.024 43.638 276.468 46.4508 289.033 46.3082C320.503 45.951 334.661 25.56 366.507 19.7456C380.473 17.1958 400.921 16.8869 427.844 28.053C437.861 28.0582 447.878 28.0634 457.896 28.0685C399.445 -5.47043 365.669 -2.9533 345.479 6.02161C327.021 14.2264 308.788 32.7752 274.516 36.1947C264.406 37.1846 254.208 36.7811 244.207 34.9957L228.079 34.994Z" fill="#48964E"/>
    <path d="M437.286 34.9914C465.596 51.2299 483.707 50.326 495.115 46.3082C510.947 40.7325 518.143 27.6528 538.058 24.6155C547.925 23.263 557.975 24.4497 567.256 28.0634H586.506C555.693 5.68429 537.191 4.95595 525.662 9.56331C510.09 15.7864 504.033 33.0253 483.162 37.0114C474.91 38.4536 466.427 37.7578 458.521 34.9905C451.443 34.9908 444.364 34.9911 437.286 34.9914Z" fill="#48964E"/>
    <path d="M571.485 34.9957C596.982 49.3601 614.019 48.7852 625.05 45.3121C642.733 39.7448 651.283 24.7466 672.199 23.5087C680.314 23.1283 688.403 24.6898 695.793 28.0634H718.178C696.641 9.28632 680.986 6.98964 670.428 8.67782C649.18 12.0756 638.772 33.1835 609.666 35.9045C603.46 36.4718 597.205 36.1641 591.084 34.9904C584.551 34.9922 578.018 34.994 571.485 34.9957Z" fill="#48964E"/>
    <path d="M703.477 34.994C726.783 49.3467 740.366 48.8083 748.64 44.9801C759.428 39.9895 761.813 29.122 774.613 24.9106C784.975 21.5015 795.456 24.6605 802.943 28.0599C808.95 28.0605 814.957 28.0611 820.964 28.0617C789.526 7.85254 773.908 8.26014 765.463 13.4001C755.427 19.5093 753.178 33.732 739.786 37.3065C732.496 39.2524 725.544 37.0715 720.901 34.9957L703.477 34.994Z" fill="#48964E"/>
    <path d="M809.739 34.9931C815.789 39.6486 825.205 45.3044 836.74 45.2753C856.236 45.2261 864.499 28.9799 885.881 23.2873C895.544 20.7146 910.126 19.7014 930.432 28.0634C933.816 28.0668 937.197 28.2545 940.56 28.6259C943.741 28.9771 946.679 29.4677 949.349 30.0243C907.174 3.31469 886.881 4.6651 876.141 11.039C865.409 17.4079 857.069 33.0336 838.068 35.5356C833.569 36.1108 829.005 35.9274 824.567 34.9931H809.739Z" fill="#48964E"/>
    <path d="M934.578 35.0669C941.184 39.498 948.551 42.6711 956.309 44.4268C966.959 46.7913 978.032 46.4488 988.516 43.4307C979.796 43.5594 971.096 42.5926 962.617 40.553C959.399 39.7762 956.384 38.8836 953.578 37.9281C947.375 36.2526 941 35.2927 934.578 35.0669V35.0669Z" fill="#48964E"/>
    <path d="M101.41 35.4049C107.838 38.3593 117.566 41.6527 128.908 40.4695C152.537 38.0046 160.464 18.4851 181.344 14.1011C191.498 11.969 206.67 13.0066 227.939 28.0634C226.906 28.0455 225.873 28.0276 224.84 28.0096C205.872 15.3877 191.931 14.5197 182.672 16.0932C160.602 19.8442 152.632 39.5941 129.016 42.2109C116.358 43.6135 105.462 39.3998 98.4163 35.7755L101.41 35.4049Z" fill="#76B779"/>
    <path d="M95.3166 29.1536C85.4727 25.4876 74.7352 24.9591 64.5788 27.6407C59.6373 29.0252 51.9161 31.1809 46.4277 38.2288C39.199 47.5115 40.6058 58.6408 41.0045 61.2498C40.6717 58.7011 39.5176 47.6986 46.8534 38.7216C52.3326 32.0165 60.2123 29.9397 64.8739 28.7106C73.9135 26.4301 83.4148 26.7632 92.2725 29.671C93.2873 29.4985 94.302 29.326 95.3166 29.1536Z" fill="#76B779"/>
    <path d="M237.66 34.9822C252 39.4528 273.205 43.7283 297.002 38.7822C330.164 31.8895 340.922 12.7916 368.942 7.64488C385.526 4.5989 410.17 6.06968 443.834 28.0613L439.167 28.0649C408.29 9.14931 385.263 7.9398 369.975 10.3011C340.724 14.8192 329.915 33.9371 297.666 40.8482C271.862 46.3781 248.691 40.5865 233.399 34.9946C234.82 34.9905 236.24 34.9864 237.66 34.9822Z" fill="#76B779"/>
    <path d="M444.941 34.9911C452.929 40.0391 465.38 46.0803 479.841 44.6481C504.225 42.2331 513.083 20.6748 537.726 17.8641C546.079 16.9113 558.71 17.8317 575.226 28.0738L578.428 28.0634C560.424 15.2718 546.765 13.8309 537.394 15.0971C514.299 18.2174 505.779 39.3249 480.948 41.9918C467.881 43.3952 456.562 39.0193 448.925 35.0007C447.597 34.9975 446.269 34.9943 444.941 34.9911Z" fill="#76B779"/>
    <path d="M578.18 34.9873C595.154 43.6952 608.029 44.0214 616.418 42.8772C642.702 39.292 652.867 17.4572 676.737 17.5321C689.165 17.5711 699.182 23.5302 705.283 28.0599C706.237 28.0611 707.192 28.0623 708.147 28.0634C694.849 16.8455 684.006 14.7085 676.848 14.6545C653.408 14.4776 643.263 36.4358 616.085 40.3317C601.595 42.4089 589.063 38.3766 581.209 34.9905L578.18 34.9873Z" fill="#76B779"/>
    <path d="M710.788 34.9947C718.062 40.2465 728.459 45.7932 739.491 43.7627C755.802 40.7608 759.94 23.6929 776.605 19.5981C783.78 17.8351 794.554 18.163 809.898 28.0606L812.55 28.0609C794.731 15.2624 782.829 14.6367 774.982 16.9418C759.326 21.5405 755.488 39.0733 739.159 41.8811C729.507 43.5409 720.566 39.1829 714.296 34.9957C713.126 34.9953 711.957 34.995 710.788 34.9947Z" fill="#76B779"/>
    <path d="M814.955 34.9931C819.827 38.1992 827.321 42.0445 836.555 42.2132C858.284 42.6099 867.535 22.245 889.127 16.9787C899.452 14.4606 914.822 14.852 936.534 28.2863C937.876 28.3995 939.218 28.5127 940.56 28.6259C915.515 11.7737 898.952 11.6916 888.574 14.5438C868.698 20.0065 859.238 39.606 836.888 39.6676C830.25 39.6106 823.717 38.0112 817.804 34.9957C816.854 34.9949 815.905 34.994 814.955 34.9931Z" fill="#76B779"/>
    <path d="M942.44 35.713C946.569 38.605 951.124 40.8354 955.94 42.3239C963.469 44.634 970.024 44.5734 970.051 44.3714C965.338 43.7267 960.69 42.6713 956.161 41.2171C952.257 39.881 948.499 38.1504 944.946 36.0521C944.11 35.9391 943.275 35.826 942.44 35.713Z" fill="#76B779"/>
    <path d="M988.516 31.625C991.866 32.7213 994.959 34.4872 997.606 36.8153C1000.25 39.1435 1002.4 41.9854 1003.92 45.1684C1005.43 48.3515 1006.28 51.8094 1006.42 55.3321C1006.56 58.8548 1005.98 62.3688 1004.72 65.6609L1003.26 63.7362C1005.12 57.5054 1004.64 50.8135 1001.93 44.9062C999.217 38.9989 994.45 34.2789 988.516 31.625V31.625Z" fill="#76B779"/>
    <path d="M1000.89 72.2494C1000.26 82.8465 1002.22 93.4377 1006.61 103.106C1014.89 120.768 1027.3 124.15 1031.79 138.06C1034.42 146.21 1034.63 158.89 1022.75 178.194L1022.75 180.961C1037.32 159.553 1037.47 145.875 1034.56 137.175C1030.09 123.821 1017.69 120.015 1008.88 100.872C1005.12 92.5861 1002.93 83.6724 1002.43 74.5864C1001.92 73.8074 1001.4 73.0284 1000.89 72.2494Z" fill="#76B779"/>
    <path d="M1015.82 184.986C1013.41 189.821 1010.24 197.931 1011.24 207.509C1013.17 226.011 1028.77 232.242 1032.34 249.345C1033.89 256.745 1033.67 268.5 1022.75 285.279V288.046C1036.28 269.414 1036.85 256.783 1034.85 248.681C1030.95 232.842 1015.36 226.727 1013.09 207.878C1012.36 201.084 1013.32 194.215 1015.89 187.882L1015.82 184.986Z" fill="#76B779"/>
    <path d="M1015.82 292.088C1009.52 300.359 1009.12 306.243 1009.77 309.963C1011.78 321.512 1026.15 324.672 1027.58 336.083C1028.33 342.038 1025.19 347.305 1022.75 350.54L1022.75 351.993C1029 345.097 1029.85 339.901 1029.47 336.415C1028.21 325.102 1012.73 321.778 1010.98 309.852C1010.1 303.818 1013.13 298.335 1015.81 294.662L1015.82 292.088Z" fill="#76B779"/>
    <path d="M1015.82 354.877C1009.05 365.795 1009 373.435 1010.13 378.341C1013.12 391.204 1026.44 394.586 1028.43 407.117C1029.67 414.86 1025.9 421.893 1022.75 426.431V429.613C1031.05 419.546 1031.86 412.226 1031.16 407.486C1029.35 395.193 1016.11 391.535 1012.94 377.603C1011.09 369.49 1013.6 362.01 1015.82 357.202L1015.82 354.877Z" fill="#76B779"/>
    <path d="M1015.82 431.54C1008.4 442.61 1008.31 450.201 1009.4 454.93C1012.39 467.942 1027.27 472.146 1027.7 484.296C1027.89 489.927 1024.89 494.552 1022.75 497.237L1022.75 499.561C1026.34 495.827 1030.01 490.629 1029.76 484.592C1029.27 472.672 1013.94 468.563 1011.09 454.856C1010.08 449.965 1010.53 443.248 1015.82 434.381V431.54Z" fill="#76B779"/>
    <path d="M1015.82 501.71C1012.2 505.779 1008.04 511.875 1008.73 518.754C1009.91 530.546 1024.14 533.781 1028.14 546.46C1029.93 552.144 1030.12 561.166 1021.39 575.016L1020.97 577.285C1032.6 561.775 1032.9 552.126 1030.91 546.128C1027.02 534.456 1012.63 531.24 1011.32 519.049C1010.67 513.035 1013.52 507.801 1015.82 504.514V501.71Z" fill="#76B779"/>
    <path d="M1013.28 579.796C1009.56 584.263 1006.96 589.556 1005.71 595.232C1003.78 604.436 1007.17 608.128 1004.05 616.335C1002.26 621.337 998.873 625.614 994.419 628.509C990.52 630.91 986.009 632.127 981.432 632.014C986.043 632.394 990.662 631.406 994.714 629.173C999.559 626.322 1003.26 621.875 1005.19 616.593C1008.15 608.792 1005.06 604.977 1007.15 595.343C1008.18 590.641 1010.06 586.164 1012.68 582.125L1013.28 579.796Z" fill="#76B779"/>
    <path d="M997.001 639.983C997.064 640.333 990.231 642.707 981.801 642.934C972.39 643.188 966.73 640.613 962.47 639.688C942.876 635.435 931.042 661.361 907.498 664.948C898.802 666.273 885.711 664.976 867.933 651.561L872.47 651.556C887.78 663.167 899.182 664.259 906.393 663.447C930.198 660.764 941.56 633.571 961.584 637.474C966.077 638.35 970.601 640.712 979.883 641.164C989.645 641.638 996.936 639.623 997.001 639.983Z" fill="#76B779"/>
    <path d="M859.281 644.664C846.215 639.293 824.975 632.842 800.917 637.437C768.848 643.563 757.616 664.379 727.649 667.652C715.114 669.021 695.5 667.736 669.584 651.59L674.313 651.588C685.418 658.133 703.568 666.516 724.992 664.553C755.92 661.72 767.454 639.729 798.925 633.453C812.761 630.694 834.433 630.178 864.262 644.667L859.281 644.664Z" fill="#76B779"/>
    <path d="M664.037 644.687C651.154 638.458 640.62 637.651 632.355 638.876C610.917 642.054 603.216 659.13 583.214 660.348C572.328 661.011 562.681 656.679 555.065 651.586L558.275 651.567C563.675 654.63 572.348 658.476 582.771 657.913C602.953 656.821 610.581 640.23 630.473 636.441C638.605 634.893 651.06 635.05 668.132 644.663L664.037 644.687Z" fill="#76B779"/>
    <path d="M549.273 644.651C527.307 632.848 512.883 633.741 503.748 636.773C488.389 641.872 482.538 654.828 465.564 656.917C455.012 658.215 445.882 654.611 440.071 651.584H443.613C450.165 654.716 457.453 655.987 464.679 655.257C482.171 653.136 488.125 638.533 502.641 633.066C511.819 629.609 527.077 628.802 552.323 644.651L549.273 644.651Z" fill="#76B779"/>
    <path d="M436.493 644.699C425.159 635.342 416.761 634.257 411.147 635.039C396.579 637.07 392.128 652.885 376.026 656.068C366.737 657.905 358.204 654.622 352.47 651.582L349.186 651.586C361.832 658.828 370.85 658.786 376.542 657.618C392.27 654.389 397.166 639.573 412.18 637.991C421.167 637.044 428.928 641.349 433.652 644.656L436.493 644.699Z" fill="#76B779"/>
    <path d="M343.431 644.659C338.235 642.102 329.583 638.814 319.691 640.37C302.42 643.088 297.038 658.106 281.064 660.569C274.988 661.506 265.331 660.943 252.012 651.579L255.498 651.583C261.237 655.047 270.054 659.071 280.068 657.747C296.509 655.573 301.906 640.871 318.473 638.046C324.612 637 333.915 637.306 346.475 644.657L343.431 644.659Z" fill="#76B779"/>
    <path d="M247.944 644.659C242.921 641.619 235.444 638.27 227.644 640.094C217.346 642.502 214.939 651.951 204.641 655.533C199.415 657.351 191.183 657.998 178.634 651.591L180.69 651.591C186.805 654.03 195.311 656.168 203.756 653.264C214.324 649.631 216.651 640.901 226.316 638.323C231.473 636.947 239.267 637.176 250.6 644.659H247.944Z" fill="#76B779"/>
    <path d="M175.127 644.655C166.239 639.155 160.08 639.111 156.054 640.149C146.567 642.594 143.858 652.346 133.808 653.984C129.396 654.556 124.916 653.716 121.011 651.586L118.41 651.588C125.345 655.862 130.57 656.207 134.25 655.533C144.054 653.738 146.739 644.014 156.829 641.754C162.921 640.389 168.707 642.419 172.988 644.655H175.127Z" fill="#76B779"/>
    <path d="M113.48 644.655C100.881 635.725 91.215 634.611 84.6115 635.335C72.9818 636.61 67.4532 643.96 59.0088 641.91C50.9137 639.944 46.2258 630.817 43.6255 623.984L45.2295 625.576C47.9039 631.28 52.4117 638.401 59.5984 640.094C68.0881 642.094 73.6296 634.944 84.0212 633.269C91.1383 632.121 101.672 633.358 116.069 644.659L113.48 644.655Z" fill="#76B779"/>
    <path d="M45.3947 615.708C45.0881 611.126 43.8752 604.984 39.3443 600.729C31.9806 593.815 21.6086 597.29 17.4301 591.064C15.7766 588.6 14.7741 584.141 18.4904 575.414C18.619 576.098 18.7476 576.782 18.8762 577.465C17.2405 581.599 15.9684 586.871 18.4262 590.621C22.453 596.765 32.7686 593.143 40.1559 599.475C43.5126 602.352 46.5171 607.5 46.7931 617.26C46.3269 616.743 45.8608 616.225 45.3947 615.708Z" fill="#76B779"/>
    <path d="M24.5267 568.625C30.1619 559.396 29.8582 553.748 28.498 550.279C25.3031 542.13 14.6376 541.809 12.2284 534.009C10.5306 528.513 13.9362 522.549 17.0604 518.385L17.0598 520.986C15.0042 524.117 12.5214 529.002 13.8886 533.788C16.1852 541.828 27.2138 542.118 30.4902 549.892C32.026 553.536 32.245 559.742 24.7701 570.615L24.5267 568.625Z" fill="#76B779"/>
    <path d="M23.9954 513.617C27.8757 508.27 32.3657 500.169 30.8776 491.398C28.5162 477.48 13.1498 473.942 9.8488 459.745C8.55186 454.166 8.79209 445.544 17.0541 433.163L17.0568 436.816C13.8066 442.419 10.3751 450.579 12.2284 459.246C15.3589 473.887 30.8829 477.417 33.3125 490.9C34.2915 496.333 33.3424 504.481 23.9963 515.83L23.9954 513.617Z" fill="#76B779"/>
    <path d="M23.9878 426.901C27.3631 419.487 31.1934 407.891 28.0552 395.533C22.9747 375.526 3.68721 369.495 3.33719 353.254C3.21824 347.736 5.248 339.291 17.0604 328.665V331.654C12.0454 336.702 6.43249 344.146 6.53747 353.096C6.72918 369.433 25.7936 375.553 30.7852 394.5C32.8483 402.331 32.9074 413.871 24.0155 430.083C24.0063 429.022 23.997 427.962 23.9878 426.901Z" fill="#76B779"/>
    <path d="M23.9903 324.704C33.2302 315.786 34.4585 308.487 34.4745 304.519C34.4837 302.232 34.1043 297.556 21.7466 278.953C12.536 265.087 9.34719 262.567 8.90791 256.485C8.3372 248.583 12.9182 241.727 17.0603 237.043V240.621C14.4345 244.232 11.484 249.592 11.7856 255.932C12.1124 262.803 16.0476 266.351 23.4067 276.85C32.9914 290.523 37.7836 297.36 37.7948 304.519C37.8021 309.238 35.9792 317.228 23.9905 327.001L23.9903 324.704Z" fill="#76B779"/>
    <path d="M23.9829 231.693C32.8395 219.498 34.1485 209.883 33.7367 203.397C32.2584 180.113 6.81391 168.925 9.4614 148.722C10.3856 142.973 13.0398 137.642 17.0705 133.439C17.0636 134.7 17.0568 135.96 17.05 137.22C14.3671 140.553 12.569 144.509 11.8225 148.722C8.58688 168.77 34.9487 180.476 36.9095 202.806C37.5483 210.082 35.8001 220.798 23.9846 234.682L23.9829 231.693Z" fill="#76B779"/>
    <path d="M23.9916 129.261C32.5178 118.862 37.3702 105.938 37.7949 92.4977C38.0244 81.6522 35.3223 70.9457 29.9737 61.508C36.3822 70.5914 39.9282 81.3835 40.1561 92.4977C40.4759 114.728 26.8922 129.321 23.9897 132.305L23.9916 129.261Z" fill="#76B779"/>
    <path d="M444.809 321.01C445.307 313.949 443.707 306.898 440.209 300.737C436.744 299.194 433.127 298.012 429.417 297.211C417.916 294.731 408.758 296.658 399.429 298.621C392.336 300.114 384.183 301.903 375.457 307.347C372.496 309.166 369.738 311.294 367.23 313.694C363.329 317.488 360.126 321.933 357.765 326.828C358.877 328.164 360.265 329.246 361.834 330.001C369.119 323.324 377.83 318.381 387.31 315.545C400.954 311.541 412.442 313.228 421.014 314.487C429.182 315.689 437.173 317.88 444.809 321.01Z" fill="#057FD3"/>
    <path d="M444.898 318.552C444.41 314.581 442.641 310.875 439.856 307.994C438.387 306.559 436.681 305.386 434.813 304.527C433.139 303.695 429.292 302.035 418.669 301.971C408.478 301.746 398.334 303.436 388.77 306.951C383.615 308.817 378.654 311.173 373.953 313.988C373.953 313.988 371.13 315.859 364.871 320.863C364.678 321.017 364.184 321.414 363.565 321.974C362.703 322.765 361.888 323.605 361.126 324.492C359.636 326.155 359.609 326.431 359.63 326.637C359.734 327.682 361.45 328.269 361.804 328.385L360.863 329.477C359.688 328.775 358.64 327.879 357.765 326.828C359.09 324.072 360.688 321.454 362.534 319.014C366.533 313.921 371.467 309.633 377.073 306.376C385.205 301.536 392.247 300.089 401.421 298.204C408.579 296.733 413.729 295.674 420.837 296.092C427.518 296.497 434.075 298.069 440.209 300.737C441.31 302.675 442.228 304.711 442.951 306.818C444.241 310.596 444.899 314.561 444.898 318.552Z" fill="#1C1C1C"/>
    <path d="M406.418 373.192C399.063 376.332 391.016 377.517 383.064 376.63C380.825 375.965 378.638 375.14 376.518 374.162C372.272 372.222 368.337 369.667 364.841 366.581C360.4 362.89 356.938 358.168 354.757 352.831C353.617 349.876 352.926 346.768 352.706 343.61C353.699 342.922 354.816 342.431 355.995 342.165C357.421 341.905 358.885 341.935 360.298 342.253C361.712 342.571 363.047 343.171 364.222 344.016C365.876 347.813 368.082 351.348 370.768 354.505C376.423 361.135 382.729 364.28 388.549 367.11C394.23 369.865 400.232 371.908 406.418 373.192Z" fill="#057FD3"/>
    <path d="M393.812 374.69C388.88 374.609 384 373.67 379.393 371.914C376.85 370.903 374.42 369.633 372.139 368.124C368.273 365.463 364.829 362.239 361.922 358.56C359.983 356.228 358.223 353.752 356.659 351.156C355.612 349.371 354.89 347.417 354.525 345.382C354.396 344.996 354.354 344.587 354.402 344.184C354.45 343.78 354.586 343.392 354.801 343.046C355.087 342.713 355.441 342.447 355.841 342.264C356.24 342.081 356.675 341.987 357.114 341.989C355.529 342.139 354.01 342.698 352.707 343.61C352.941 347.065 353.745 350.457 355.089 353.651C356.53 356.993 358.514 360.076 360.96 362.777C362.981 365.074 365.241 367.152 367.702 368.976C369.934 370.627 372.307 372.082 374.793 373.323C376.609 374.268 378.485 375.093 380.41 375.792C381.274 376.132 382.161 376.412 383.064 376.63C385.007 376.998 386.993 377.092 388.962 376.909C391.579 376.808 392.888 376.757 394.475 376.552C397.61 376.142 400.688 375.377 403.648 374.27C400.389 374.705 397.097 374.845 393.812 374.69Z" fill="#1C1C1C"/>
    <path d="M468.959 354.329C468.649 353.056 468.167 351.251 467.455 349.128C465.044 341.852 461.328 335.072 456.486 329.119C452.593 324.314 447.858 320.252 442.509 317.132C431.772 311.028 421.582 311.166 410.664 311.314C402.905 311.419 388.803 311.764 373.864 319.512C367.4 322.864 358.677 327.534 357.676 335.378C357.181 339.261 358.755 342.481 360.33 345.602C363.231 351.353 367.771 356.34 376.076 361.821C384.054 367.293 392.903 371.381 402.249 373.913C406.258 374.98 410.342 375.741 414.467 376.189C420.706 376.854 429.885 378.025 440.298 374.602C446.822 372.243 453.008 369.043 458.698 365.083C461.669 363.121 464.534 361.003 467.278 358.736L465.597 356.092L468.959 354.329Z" fill="#008BFF"/>
    <path d="M451.149 333.556C450.774 331.528 450.099 329.568 449.144 327.738C445.647 321.066 439.394 318.241 436.641 317.043C432.697 315.328 429.653 314.995 423.726 314.399C416.856 313.804 409.945 313.863 403.086 314.575C397.227 314.79 391.402 315.557 385.688 316.867C380.956 317.902 376.377 319.541 372.066 321.745C367.862 323.957 363.991 326.746 360.566 330.03L357.794 329.736C357.226 329.114 356.359 328.156 355.317 326.974C353.413 324.816 350.827 321.885 347.768 318.101C345.841 315.717 343.4 313.795 341.281 311.578C341.034 311.279 340.729 311.031 340.385 310.85C340.041 310.668 339.664 310.556 339.276 310.521C338.858 310.525 338.449 310.648 338.097 310.873C337.596 311.312 337.199 311.856 336.934 312.465C336.669 313.075 336.542 313.735 336.564 314.399C336.451 316.736 336.71 319.077 337.33 321.333C337.88 323.688 338.215 326.088 338.333 328.502C338.393 330.944 338.025 330.398 337.566 336.024C337.229 340.156 337.395 340.842 337.153 343.957C337.068 345.051 337.167 346.153 337.094 347.248C337.028 348.236 337.029 348.468 337.212 348.717C337.911 349.664 340.425 349.189 342.213 348.249C343.165 347.652 344.041 346.941 344.82 346.131C346.65 344.62 348.724 343.428 350.953 342.605C352.594 341.895 354.354 341.496 356.143 341.43C358.179 341.404 358.423 341.926 361.922 342.605C363.506 342.913 365.357 343.085 369.058 343.428C370.918 343.646 372.788 343.763 374.66 343.781C376.746 343.757 377.196 343.57 379.437 343.428C382.051 343.296 384.672 343.335 387.281 343.546C391.115 343.761 391.496 343.963 394.829 344.192C398.007 344.459 401.198 344.518 404.383 344.368C408.313 344.223 412.204 343.531 415.942 342.312C418.436 341.632 420.698 340.292 422.488 338.433C423.313 337.504 423.99 336.454 424.493 335.319C423.108 335.977 421.691 336.566 420.247 337.082C417.408 338.129 414.461 338.859 411.46 339.256C408.988 339.553 409.227 339.22 401.965 339.021C398.485 338.925 395.008 338.717 391.527 338.668C389.268 338.73 387.02 338.33 384.922 337.493C383.723 336.989 381.809 336.157 381.678 334.79C381.623 334.215 381.877 333.471 383.329 332.204C385.185 330.61 387.385 329.464 389.758 328.855C399.274 326.605 396.872 326.429 402.968 325.388C410.5 324.101 414.266 323.458 418.537 324.036C422.042 324.511 425.193 325.554 428.975 325.094C430.305 324.923 431.651 324.903 432.985 325.035C434.417 325.119 435.819 325.478 437.113 326.093C438.147 326.643 439.083 327.357 439.885 328.208C441.848 330.084 442.198 331.192 444.367 333.615C445.178 334.521 445.883 335.207 446.313 335.613L451.149 333.556Z" fill="#1C1C1C"/>
    <path d="M365.239 337.361C365.32 336.933 364.62 336.655 361.878 334.717C360.125 333.477 360.566 333.701 358.163 331.984C355.46 330.054 355.235 330.051 354.138 329.163C352.826 328.065 351.619 326.848 350.533 325.527C343.702 317.813 345.08 319.816 342.97 317.22C340.775 314.52 339.079 312.101 337.949 312.504C337.557 312.72 337.237 313.046 337.028 313.441C336.65 314.119 336.469 314.888 336.505 315.663C336.49 316.683 336.59 317.701 336.802 318.7C336.961 319.614 337.043 319.93 337.297 321.175C337.672 323.011 337.859 323.929 338.038 325.168C338.038 325.168 338.262 326.724 338.333 328.502C338.362 329.004 338.35 329.508 338.296 330.008C338.267 330.257 338.242 330.368 338.134 331.081C338.134 331.081 338.073 331.48 337.979 332.141C337.677 334.248 337.492 336.861 337.492 336.861C337.442 337.579 337.366 338.664 337.333 340.071C337.316 340.771 337.326 340.907 337.301 341.54C337.252 342.778 337.179 343.201 337.137 344.213C337.117 344.679 337.099 345.375 337.123 346.234C337.837 345.74 338.872 345.031 340.131 344.192C342.702 342.48 343.995 341.636 344.79 341.195C347.272 339.894 349.988 339.095 352.781 338.845C354.789 338.582 354.695 338.822 358.973 338.522C364.714 338.119 365.182 337.666 365.239 337.361Z" fill="#D7CC00"/>
    <path d="M450.316 340.446C452.771 340.446 454.761 338.463 454.761 336.017C454.761 333.57 452.771 331.587 450.316 331.587C447.861 331.587 445.871 333.57 445.871 336.017C445.871 338.463 447.861 340.446 450.316 340.446Z" fill="#F9F9F9"/>
    <path d="M450.316 339.381C452.181 339.381 453.692 337.875 453.692 336.017C453.692 334.159 452.181 332.652 450.316 332.652C448.451 332.652 446.94 334.159 446.94 336.017C446.94 337.875 448.451 339.381 450.316 339.381Z" fill="#1C1C1C"/>
    <path d="M451.404 336.759C452.478 336.759 453.35 335.891 453.35 334.82C453.35 333.749 452.478 332.88 451.404 332.88C450.329 332.88 449.457 333.749 449.457 334.82C449.457 335.891 450.329 336.759 451.404 336.759Z" fill="#F9F9F9"/>
    <path d="M436.295 351.427C436.031 351.338 435.404 351.078 434.343 349.616C433.377 348.218 432.572 346.715 431.945 345.137C431.379 343.793 431.561 344.531 428.753 339.473C427.528 337.267 426.663 335.632 425.07 332.921C424.117 331.225 422.857 329.719 421.354 328.48C420.701 327.864 419.856 327.491 418.96 327.423C418.075 327.432 417.224 327.761 416.564 328.348C415.388 329.369 415.179 330.867 414.985 332.976C414.684 335.384 414.554 337.81 414.598 340.236C414.822 343.402 415.298 346.545 416.022 349.636C416.022 349.636 417.341 356.29 419.257 357.062C419.693 357.234 420.106 357.46 420.485 357.734C420.738 357.911 420.973 358.113 421.186 358.337C421.748 358.939 421.684 359.233 422.043 359.538C422.295 359.701 422.578 359.811 422.873 359.862C423.169 359.914 423.472 359.905 423.764 359.836C424.721 359.726 424.945 359.336 425.929 358.959C426.924 358.65 427.965 358.512 429.007 358.55C430.944 358.471 430.816 358.734 431.818 358.588C434.163 358.039 436.235 356.676 437.662 354.743C438.125 354.05 436.757 351.584 436.295 351.427Z" fill="#057FD3"/>
    <path opacity="0.77" d="M432.633 346.689C431.106 344.471 429.538 342.243 427.932 340.006C427.505 339.413 427.078 338.822 426.651 338.234C426.98 339.427 427.121 340.664 427.068 341.9C426.975 343.866 426.405 345.78 425.404 347.477C425.65 346.639 425.816 345.779 425.899 344.91C426.002 342.941 425.786 340.968 425.261 339.068C424.871 337.032 424.281 335.039 423.5 333.117C422.744 331.319 421.804 329.604 420.693 327.999C420.759 328.042 420.852 328.104 420.961 328.18C421.377 328.476 421.77 328.803 422.137 329.157C422.643 329.629 422.999 330.029 423.139 330.188C423.562 330.67 423.849 331.064 424.023 331.304C424.055 331.347 424.312 331.703 424.576 332.112C425.548 333.622 427.736 337.627 427.921 337.966C428.432 338.901 429.108 340.128 429.811 341.357C430.296 342.202 430.538 342.625 430.763 342.992C431.184 343.678 431.317 343.847 431.579 344.353C431.767 344.716 431.908 345.033 432.19 345.667C432.378 346.089 432.529 346.442 432.633 346.689Z" fill="#1C1C1C"/>
    <path d="M421.303 328.918C421.059 328.534 420.846 328.22 420.693 327.999C420.333 327.746 419.924 327.571 419.493 327.484C418.971 327.38 418.432 327.405 417.921 327.556C417.411 327.706 416.945 327.978 416.564 328.348C416.081 328.904 415.774 329.984 417.529 334.452C419.07 338.375 419.766 338.709 421.144 342.249C422.065 344.357 422.633 346.6 422.826 348.891C422.9 350.44 422.758 351.991 422.404 353.5C424.411 351.053 425.629 348.059 425.899 344.91C425.967 343.446 425.874 341.98 425.624 340.537C425.277 338.294 424.681 336.097 423.847 333.986C423.162 332.22 422.311 330.523 421.303 328.918Z" fill="#D7CC00"/>
    <path d="M435.61 341.283C434.985 345.003 435.542 348.824 437.202 352.213C439.219 356.181 442.614 359.282 446.755 360.94C444.521 360.386 442.432 359.359 440.631 357.93C438.83 356.5 437.358 354.701 436.317 352.654C434.655 349.087 434.403 345.028 435.61 341.283Z" fill="#0472AF"/>
    <path d="M680.268 321.01C680.766 313.949 679.166 306.898 675.668 300.737C672.203 299.194 668.586 298.012 664.876 297.211C653.375 294.731 644.217 296.658 634.888 298.621C627.795 300.114 619.642 301.903 610.915 307.347C607.955 309.166 605.197 311.294 602.689 313.694C598.788 317.488 595.585 321.933 593.223 326.828C594.336 328.164 595.724 329.246 597.293 330.001C604.578 323.324 613.289 318.381 622.769 315.545C636.413 311.541 647.901 313.228 656.472 314.487C664.641 315.689 672.632 317.88 680.268 321.01Z" fill="#057FD3"/>
    <path d="M680.357 318.552C679.869 314.581 678.1 310.875 675.315 307.994C673.846 306.559 672.14 305.386 670.272 304.527C668.598 303.695 664.75 302.035 654.128 301.971C643.936 301.746 633.793 303.436 624.229 306.951C619.074 308.817 614.112 311.173 609.412 313.988C609.412 313.988 606.589 315.859 600.33 320.863C600.137 321.017 599.643 321.414 599.023 321.974C598.161 322.765 597.347 323.605 596.585 324.492C595.095 326.155 595.068 326.431 595.088 326.637C595.192 327.682 596.909 328.269 597.263 328.385L596.322 329.477C595.147 328.775 594.099 327.879 593.223 326.828C594.549 324.072 596.147 321.454 597.993 319.014C601.992 313.921 606.925 309.633 612.532 306.376C620.664 301.536 627.706 300.089 636.88 298.204C644.038 296.733 649.188 295.674 656.296 296.092C662.976 296.497 669.534 298.069 675.668 300.737C676.769 302.675 677.687 304.711 678.41 306.818C679.7 310.596 680.358 314.561 680.357 318.552Z" fill="#1C1C1C"/>
    <path d="M641.876 373.192C634.522 376.332 626.475 377.517 618.523 376.63C616.284 375.965 614.097 375.14 611.977 374.162C607.731 372.222 603.796 369.667 600.3 366.581C595.859 362.89 592.396 358.168 590.216 352.831C589.076 349.876 588.385 346.768 588.165 343.61C589.158 342.922 590.275 342.431 591.454 342.165C592.88 341.905 594.344 341.935 595.757 342.253C597.171 342.571 598.506 343.171 599.681 344.016C601.335 347.813 603.54 351.348 606.227 354.505C611.882 361.135 618.187 364.28 624.007 367.11C629.689 369.865 635.691 371.908 641.876 373.192Z" fill="#057FD3"/>
    <path d="M629.271 374.69C624.339 374.609 619.459 373.67 614.852 371.914C612.309 370.903 609.878 369.633 607.598 368.124C603.732 365.463 600.288 362.239 597.381 358.56C595.442 356.228 593.682 353.752 592.118 351.156C591.071 349.371 590.349 347.417 589.984 345.382C589.855 344.996 589.813 344.587 589.861 344.184C589.908 343.78 590.045 343.392 590.26 343.046C590.545 342.713 590.9 342.447 591.299 342.264C591.699 342.081 592.133 341.987 592.573 341.989C590.987 342.139 589.468 342.698 588.165 343.61C588.399 347.065 589.204 350.457 590.547 353.651C591.989 356.993 593.972 360.076 596.419 362.777C598.44 365.074 600.7 367.152 603.16 368.976C605.393 370.627 607.765 372.082 610.251 373.323C612.067 374.268 613.944 375.093 615.869 375.792C616.733 376.132 617.62 376.412 618.523 376.63C620.466 376.998 622.451 377.092 624.421 376.909C627.038 376.808 628.347 376.757 629.934 376.552C633.069 376.142 636.147 375.377 639.107 374.27C635.848 374.705 632.556 374.845 629.271 374.69Z" fill="#1C1C1C"/>
    <path d="M704.418 354.329C704.108 353.056 703.626 351.251 702.914 349.128C700.503 341.852 696.787 335.072 691.945 329.119C688.052 324.314 683.317 320.252 677.968 317.132C667.231 311.028 657.041 311.166 646.123 311.314C638.364 311.419 624.262 311.764 609.323 319.512C602.859 322.864 594.135 327.534 593.135 335.378C592.639 339.261 594.214 342.481 595.789 345.602C598.689 351.353 603.229 356.34 611.535 361.821C619.513 367.293 628.362 371.381 637.708 373.913C641.717 374.98 645.801 375.741 649.926 376.189C656.165 376.854 665.344 378.025 675.757 374.602C682.281 372.243 688.467 369.043 694.156 365.083C697.128 363.121 699.992 361.003 702.737 358.736L701.056 356.092L704.418 354.329Z" fill="#008BFF"/>
    <path d="M686.608 333.556C686.233 331.528 685.557 329.568 684.603 327.738C681.106 321.066 674.853 318.241 672.1 317.043C668.156 315.328 665.112 314.995 659.185 314.399C652.315 313.804 645.403 313.863 638.545 314.575C632.686 314.79 626.861 315.557 621.147 316.867C616.415 317.902 611.836 319.541 607.524 321.745C603.321 323.957 599.45 326.746 596.025 330.03L593.253 329.736C592.685 329.114 591.818 328.156 590.776 326.974C588.872 324.816 586.286 321.885 583.227 318.101C581.3 315.717 578.859 313.795 576.74 311.578C576.493 311.279 576.188 311.031 575.844 310.85C575.5 310.668 575.123 310.556 574.735 310.521C574.317 310.525 573.908 310.648 573.556 310.873C573.055 311.312 572.658 311.856 572.393 312.465C572.128 313.075 572.001 313.735 572.022 314.399C571.91 316.736 572.169 319.077 572.789 321.333C573.338 323.688 573.674 326.088 573.792 328.502C573.852 330.944 573.484 330.398 573.025 336.024C572.688 340.156 572.854 340.842 572.612 343.957C572.527 345.051 572.626 346.153 572.553 347.248C572.487 348.236 572.487 348.468 572.671 348.717C573.37 349.664 575.884 349.189 577.671 348.249C578.624 347.652 579.5 346.941 580.279 346.131C582.109 344.62 584.183 343.428 586.412 342.605C588.053 341.895 589.813 341.496 591.602 341.43C593.638 341.404 593.882 341.926 597.381 342.605C598.965 342.913 600.816 343.085 604.517 343.428C606.377 343.646 608.247 343.763 610.119 343.781C612.205 343.757 612.655 343.57 614.896 343.428C617.51 343.296 620.13 343.335 622.74 343.546C626.574 343.761 626.954 343.963 630.288 344.192C633.465 344.459 636.657 344.518 639.842 344.368C643.772 344.223 647.663 343.531 651.401 342.312C653.894 341.632 656.157 340.292 657.947 338.433C658.772 337.504 659.449 336.454 659.952 335.319C658.567 335.977 657.15 336.566 655.706 337.082C652.867 338.129 649.92 338.859 646.919 339.256C644.447 339.553 644.686 339.22 637.424 339.021C633.944 338.925 630.467 338.717 626.986 338.668C624.726 338.73 622.479 338.33 620.381 337.493C619.182 336.989 617.267 336.157 617.137 334.79C617.082 334.215 617.336 333.471 618.788 332.204C620.644 330.61 622.844 329.464 625.216 328.855C634.733 326.605 632.331 326.429 638.426 325.388C645.959 324.101 649.725 323.458 653.996 324.036C657.501 324.511 660.652 325.554 664.434 325.094C665.764 324.923 667.109 324.903 668.444 325.035C669.876 325.119 671.278 325.478 672.572 326.093C673.606 326.643 674.542 327.357 675.344 328.208C677.307 330.084 677.657 331.192 679.826 333.615C680.637 334.521 681.342 335.207 681.772 335.613L686.608 333.556Z" fill="#1C1C1C"/>
    <path d="M600.698 337.361C600.779 336.933 600.079 336.655 597.337 334.717C595.584 333.477 596.025 333.701 593.621 331.984C590.919 330.054 590.694 330.051 589.596 329.163C588.285 328.065 587.078 326.848 585.992 325.527C579.161 317.813 580.539 319.816 578.428 317.22C576.234 314.52 574.538 312.101 573.408 312.504C573.016 312.72 572.696 313.046 572.487 313.441C572.109 314.119 571.928 314.888 571.963 315.663C571.949 316.683 572.049 317.701 572.261 318.7C572.42 319.614 572.502 319.93 572.756 321.175C573.131 323.011 573.318 323.929 573.497 325.168C573.497 325.168 573.721 326.724 573.792 328.502C573.821 329.004 573.809 329.508 573.755 330.008C573.726 330.257 573.701 330.368 573.593 331.081C573.593 331.081 573.532 331.48 573.437 332.141C573.136 334.248 572.951 336.861 572.951 336.861C572.9 337.579 572.825 338.664 572.792 340.071C572.775 340.771 572.785 340.907 572.76 341.54C572.711 342.778 572.638 343.201 572.595 344.213C572.576 344.679 572.558 345.375 572.582 346.234C573.296 345.74 574.331 345.031 575.59 344.192C578.161 342.48 579.453 341.636 580.249 341.195C582.731 339.894 585.447 339.095 588.24 338.845C590.248 338.582 590.154 338.822 594.432 338.522C600.173 338.119 600.641 337.666 600.698 337.361Z" fill="#D7CC00"/>
    <path d="M685.775 340.446C688.23 340.446 690.22 338.463 690.22 336.017C690.22 333.57 688.23 331.587 685.775 331.587C683.32 331.587 681.33 333.57 681.33 336.017C681.33 338.463 683.32 340.446 685.775 340.446Z" fill="#F9F9F9"/>
    <path d="M685.775 339.381C687.64 339.381 689.151 337.875 689.151 336.017C689.151 334.159 687.64 332.652 685.775 332.652C683.91 332.652 682.398 334.159 682.398 336.017C682.398 337.875 683.91 339.381 685.775 339.381Z" fill="#1C1C1C"/>
    <path d="M686.862 336.759C687.937 336.759 688.809 335.891 688.809 334.82C688.809 333.749 687.937 332.88 686.862 332.88C685.788 332.88 684.916 333.749 684.916 334.82C684.916 335.891 685.788 336.759 686.862 336.759Z" fill="#F9F9F9"/>
    <path d="M671.754 351.427C671.49 351.338 670.863 351.078 669.802 349.616C668.835 348.218 668.031 346.715 667.403 345.137C666.838 343.793 667.02 344.531 664.211 339.473C662.986 337.267 662.122 335.632 660.529 332.921C659.576 331.225 658.316 329.719 656.813 328.48C656.16 327.864 655.315 327.491 654.418 327.423C653.534 327.432 652.682 327.761 652.023 328.348C650.847 329.369 650.638 330.867 650.444 332.976C650.142 335.384 650.013 337.81 650.057 340.236C650.281 343.402 650.757 346.545 651.481 349.636C651.481 349.636 652.8 356.29 654.716 357.062C655.152 357.234 655.564 357.46 655.944 357.734C656.197 357.911 656.432 358.113 656.644 358.337C657.207 358.939 657.142 359.233 657.502 359.538C657.754 359.701 658.036 359.811 658.332 359.862C658.628 359.914 658.931 359.905 659.223 359.836C660.179 359.726 660.404 359.336 661.388 358.959C662.383 358.65 663.424 358.512 664.466 358.55C666.403 358.471 666.274 358.734 667.277 358.588C669.622 358.039 671.694 356.676 673.121 354.743C673.584 354.05 672.216 351.584 671.754 351.427Z" fill="#057FD3"/>
    <path opacity="0.77" d="M668.092 346.689C666.564 344.471 664.997 342.243 663.39 340.006C662.964 339.413 662.537 338.822 662.11 338.234C662.439 339.427 662.579 340.664 662.527 341.9C662.434 343.866 661.863 345.78 660.863 347.477C661.109 346.639 661.275 345.779 661.358 344.91C661.461 342.941 661.245 340.968 660.72 339.068C660.33 337.032 659.74 335.039 658.959 333.117C658.203 331.319 657.263 329.604 656.152 327.999C656.218 328.042 656.311 328.104 656.42 328.18C656.836 328.476 657.229 328.803 657.596 329.157C658.101 329.629 658.458 330.029 658.598 330.188C659.021 330.67 659.308 331.064 659.482 331.304C659.514 331.347 659.771 331.703 660.035 332.112C661.007 333.622 663.195 337.627 663.38 337.966C663.891 338.901 664.567 340.128 665.27 341.357C665.754 342.202 665.997 342.625 666.222 342.992C666.643 343.678 666.776 343.847 667.038 344.353C667.226 344.716 667.367 345.033 667.649 345.667C667.837 346.089 667.988 346.442 668.092 346.689Z" fill="#1C1C1C"/>
    <path d="M656.761 328.918C656.518 328.534 656.305 328.22 656.152 327.999C655.792 327.746 655.383 327.571 654.952 327.484C654.43 327.38 653.89 327.405 653.38 327.556C652.87 327.706 652.404 327.978 652.023 328.348C651.539 328.904 651.232 329.984 652.988 334.452C654.529 338.375 655.225 338.709 656.603 342.249C657.523 344.357 658.092 346.6 658.285 348.891C658.359 350.44 658.217 351.991 657.862 353.5C659.869 351.053 661.088 348.059 661.357 344.91C661.425 343.446 661.333 341.98 661.083 340.537C660.736 338.294 660.14 336.097 659.305 333.986C658.621 332.22 657.769 330.523 656.761 328.918Z" fill="#D7CC00"/>
    <path d="M671.068 341.283C670.444 345.003 671.001 348.824 672.661 352.213C674.677 356.181 678.073 359.282 682.214 360.94C679.98 360.386 677.891 359.359 676.09 357.93C674.288 356.5 672.817 354.701 671.776 352.654C670.114 349.087 669.862 345.028 671.068 341.283Z" fill="#0472AF"/>
</svg>
