<svg viewBox="0 0 1041 673" fill="none" xmlns="http://www.w3.org/2000/svg">
    <path d="M930.276 31.5285H109.538C60.3792 31.5285 20.5282 71.3795 20.5282 120.538V559.113C20.5282 608.271 60.3792 648.122 109.538 648.122H930.276C979.434 648.122 1019.29 608.271 1019.29 559.113V120.538C1019.29 71.3795 979.434 31.5285 930.276 31.5285Z" fill="#B6CDE1" stroke="#116619" stroke-width="6"/>
    <path d="M10.3468 40.3962C14.0802 43.5191 30.3872 57.8544 33.3678 82.5644C35.0452 97.2366 31.7441 112.047 23.9944 124.618C23.9917 129.075 23.9889 133.532 23.9861 137.989C25.0232 137.01 49.8968 112.69 42.0006 79.7975C35.744 53.7353 13.6632 42.0771 10.3468 40.3962Z" fill="#48964E"/>
    <path d="M17.0569 128.701C8.9823 135.637 6.59974 141.986 5.91973 146.508C3.13445 165.034 25.505 175.593 28.6391 200.181C30.0691 211.399 26.9366 221.161 23.9805 227.767L23.9875 239.712C41.4527 218.375 42.4272 204.688 40.0084 196.092C35.2337 179.124 13.756 169.631 15.3641 150.788C15.5785 148.344 16.1464 145.945 17.05 143.665C17.0523 138.677 17.0547 133.689 17.0569 128.701Z" fill="#48964E"/>
    <path d="M17.0604 232.674C5.48565 244.641 4.28566 252.946 5.18185 258.219C6.6285 266.731 13.6658 268.101 22.5951 285.077C28.1058 295.553 28.5784 301.026 28.6455 303.671C28.7255 309.923 27.1172 316.082 23.9901 321.497L23.991 330.539C41.6305 318.739 42.9887 308.886 42.9598 304.851C42.909 297.746 38.4361 291.725 29.6047 279.838C21.4098 268.807 15.4083 264.258 14.9215 255.415C14.7654 251.724 15.499 248.049 17.0604 244.7V232.674Z" fill="#48964E"/>
    <path d="M17.0604 325.22V335.103C13.8048 340.271 12.0902 346.261 12.1177 352.369C12.5845 369.455 28.9968 376.064 34.1056 392.065C36.8704 400.725 36.9913 414.222 23.998 434.822C23.9945 430.933 23.991 427.045 23.9876 423.156C26.0384 415.924 26.4201 408.32 25.1039 400.919C20.7622 377.867 0.685835 370.851 0.0169104 353.992C-0.233507 347.682 2.15076 337.868 17.0604 325.22Z" fill="#48964E"/>
    <path d="M17.0501 427.831C4.97676 444.271 4.77025 454.633 6.80518 461.054C10.6864 473.3 24.3096 476.221 27.465 490.052C29.351 498.318 26.4774 506.012 23.9945 510.935C23.9957 514.078 23.9969 517.22 23.998 520.363C37.3567 504.069 38.216 493.78 36.1717 487.248C32.6197 475.899 19.2639 472.709 15.9546 458.324C14.7898 452.761 15.1723 446.984 17.0605 441.623L17.0501 427.831Z" fill="#48964E"/>
    <path d="M17.0612 515.065C8.99151 525.759 9.0124 531.824 10.4206 535.356C13.1376 542.17 22.1154 542.287 25.5465 550.039C28.053 555.702 26.0884 562.023 24.2826 566.146C24.3981 567.501 24.5498 568.909 24.7375 570.368C24.9274 571.825 25.1416 573.223 25.3799 574.563C36.23 556.687 35.4077 548.633 32.7037 544.579C28.6327 538.476 17.7069 537.555 16.3971 530.191C16.1254 528.432 16.3546 526.631 17.0587 524.996L17.0612 515.065Z" fill="#48964E"/>
    <path d="M18.0222 572.507C13.0891 583.935 14.5022 589.32 16.4894 592.115C20.5839 597.873 29.2555 595.641 37.1308 602.851C40.4592 606 42.9026 609.968 44.2167 614.358C44.9419 615.213 45.7119 616.085 46.5267 616.972C47.3524 617.869 48.1675 618.718 48.9719 619.52C49.211 604.959 45.11 599.01 41.3366 596.265C34.4535 591.258 24.7422 594.061 20.6398 587.632C19.2122 585.118 18.7262 582.177 19.2687 579.337C19.0586 578.382 18.8583 577.4 18.668 576.389C18.4183 575.057 18.2031 573.763 18.0222 572.507Z" fill="#48964E"/>
    <path d="M42.0031 622.283C46.7911 638.508 53.2136 643.192 57.9382 644.631C66.9854 647.388 73.8136 639.441 88.7123 639.365C96.1929 639.413 103.556 641.227 110.203 644.66L119.037 644.657C102.87 630.479 91.01 628.438 82.73 629.801C72.3763 631.505 63.8322 639.154 54.9499 635.224C51.4655 633.513 48.6522 630.688 46.9564 627.196C46.2082 626.514 45.4495 625.795 44.6803 625.04C43.7328 624.108 42.8404 623.189 42.0031 622.283Z" fill="#48964E"/>
    <path d="M115.106 651.591C127.369 659.207 134.715 658.829 139.176 657.027C145.937 654.296 147.67 647.647 156.146 644.779C160.852 643.316 165.884 643.273 170.614 644.655H177.173C165.138 636.785 157.597 636.827 152.826 638.581C144.69 641.572 140.989 650.87 130.321 652.01C128.053 652.244 125.761 652.1 123.54 651.584L115.106 651.591Z" fill="#48964E"/>
    <path d="M176.174 651.59C191.651 661.554 201.029 661.231 206.763 659.02C215.799 655.534 218.489 646.308 229.636 643.525C235.059 642.31 240.718 642.705 245.919 644.66L253.388 644.657C239.944 633.895 230.994 633.305 225.357 634.671C213.782 637.475 209.318 650.187 194.515 652.342C190.476 652.902 186.366 652.647 182.428 651.591L176.174 651.59Z" fill="#48964E"/>
    <path d="M249.258 651.582C265.838 664.48 276.984 665.311 284.237 663.447C296.849 660.205 300.696 648.04 316.407 643.82C324.23 641.89 332.436 642.182 340.102 644.66L351.961 644.655C333.752 633.539 321.409 633.567 313.345 635.888C299.746 639.802 293.8 651.537 277.043 653.596C270.737 654.311 264.351 653.625 258.341 651.587L249.258 651.582Z" fill="#48964E"/>
    <path d="M345.465 651.591C365.599 662.904 377.705 661.874 385.027 658.872C394.833 654.852 399.56 645.86 412.771 643.525C418.459 642.583 424.289 642.969 429.804 644.655L443.017 644.658C425.156 629.441 413.953 628.334 406.868 630.539C395.057 634.214 392.044 647.915 376.764 652.231C370.046 653.964 362.974 653.737 356.381 651.577L345.465 651.591Z" fill="#48964E"/>
    <path d="M436.307 651.584C442.658 655.453 452.538 660.082 464.273 659.315C481.079 658.216 487.83 646.955 505.592 642.197C514.149 639.904 527.157 638.613 545.113 644.65L557.538 644.652C526.411 625.02 509.136 625.608 498.952 630.686C488.018 636.138 480.788 648.994 462.926 651.881C457.708 652.701 452.387 652.6 447.203 651.584H436.307Z" fill="#48964E"/>
    <path d="M562.702 651.585C568.452 653.494 574.507 654.314 580.558 654.002C600.049 652.891 608.674 639.807 623.353 634.67C633.854 630.996 650.007 630.496 674.713 644.655L660.42 644.66C650.354 641.913 639.791 641.525 629.551 643.525C608.509 647.856 601.319 660.833 583.509 662.118C576.428 662.63 565.421 661.455 551.171 651.587L562.702 651.585Z" fill="#48964E"/>
    <path d="M678.232 651.584C690.721 656.031 703.969 657.957 717.208 657.249C748.6 655.366 762.648 638.53 787.599 631.572C805.047 626.705 831.514 625.641 869.511 644.67L852.521 644.66C835.629 641.292 818.247 641.207 801.323 644.41C765.319 651.434 753.078 670.21 724.734 672.301C710.686 673.337 690.342 670.448 664.51 651.591L678.232 651.584Z" fill="#48964E"/>
    <path d="M863.063 651.567C886.607 667.621 902.874 668.248 913.515 665.66C932.602 661.019 935.367 645.599 956.862 642.787C972.959 640.681 980.122 648.188 995.268 643.23C1005.77 639.793 1012.88 632.731 1017.11 627.587C1009.96 632.466 1001.87 635.785 993.35 637.327C976.852 640.181 972.486 633.405 958.485 634.671C935.888 636.714 931.904 655.755 909.678 658.725C898.771 660.182 888.074 657.154 877.949 651.549L863.063 651.567Z" fill="#48964E"/>
    <path d="M999.208 69.8698C997.078 77.8959 996.928 86.3192 998.772 94.4161C1003.46 113.868 1018.27 119.09 1024.6 136.621C1027.5 144.66 1029.28 157.114 1022.75 175.443L1022.76 186.227C1042.99 157.86 1042.88 141.801 1038.91 132.342C1033.64 119.792 1018.97 112.695 1008.05 87.2683C1006.39 83.4222 1005.27 80.1954 1004.61 78.1808C1004.06 77.2256 1003.48 76.2551 1002.86 75.2693C1001.65 73.3353 1000.43 71.5367 999.208 69.8698Z" fill="#48964E"/>
    <path d="M1015.82 180.961C1011.89 187.507 1007.1 197.909 1008.95 209.578C1011.34 224.602 1022.78 229.453 1027.25 244.773C1029.47 252.361 1030.52 264.371 1022.75 281.839V294.295C1042.18 265.974 1041.87 250.456 1037.66 241.453C1032.33 230.076 1018.31 223.862 1015.52 206.479C1014.82 201.997 1014.92 197.427 1015.82 192.98V180.961Z" fill="#48964E"/>
    <path d="M1015.82 288.046C1006.9 300.577 1006.59 308.452 1008.44 313.504C1011.7 322.443 1022.43 324.583 1024.6 334.976C1025.36 339.343 1024.71 343.839 1022.75 347.816L1022.76 356.235C1032.27 345.732 1033.16 338.662 1032.12 334.09C1029.58 322.9 1013.72 319.142 1013.31 307.528C1013.28 304.468 1014.15 301.468 1015.81 298.9L1015.82 288.046Z" fill="#48964E"/>
    <path d="M1015.82 351.992C1005.73 364.487 1004.91 372.978 1006.3 378.586C1009.03 389.572 1021.11 392.861 1024.01 406.33C1025.05 411.659 1024.61 417.171 1022.75 422.272V434.384C1035.55 419.748 1036.56 410.288 1034.93 404.264C1031.75 392.556 1017.13 388.512 1014.86 373.569C1014.29 369.557 1014.62 365.469 1015.82 361.6L1015.82 351.992Z" fill="#48964E"/>
    <path d="M1015.82 426.515C1004.79 443.25 1004.97 453.074 1007.55 459.062C1011.73 468.749 1023.75 471.98 1025.04 483.19C1025.39 487.06 1024.59 490.946 1022.75 494.368L1022.75 503.383C1032.03 494.91 1033.54 488.412 1033.23 484.075C1032.34 471.543 1015.58 466.621 1013.75 451.093C1013.29 446.598 1014.01 442.06 1015.82 437.921L1015.82 426.515Z" fill="#48964E"/>
    <path d="M1015.82 499.014C1007.02 507.596 1005.4 514.24 1005.86 518.975C1006.87 529.57 1018.51 532.74 1023.27 545.391C1026.88 554.982 1024.61 564.882 1021.83 572.165C1021.6 573.851 1021.3 575.628 1020.93 577.483C1020.57 579.278 1020.17 580.978 1019.75 582.576C1036.03 561.403 1036.46 549.678 1033.45 542.808C1028.98 532.623 1014.59 527.777 1014.27 515.286C1014.22 512.647 1014.75 510.03 1015.82 507.617L1015.82 499.014Z" fill="#48964E"/>
    <path d="M1014.2 575.757C1009.84 580.03 1006.56 585.276 1004.62 591.064C1001.29 601.346 1004.9 606.523 1000.52 615.745C999.569 617.76 996.178 624.913 989.124 628.141C977.107 633.64 963.034 623.823 962.617 624.765C962.191 625.726 975.865 638.171 990.342 634.283C997.405 632.386 1005.59 626.476 1007.66 618.456C1009.61 610.929 1007.55 596.224 1009.29 592.035C1009.35 591.892 1009.8 590.836 1010.36 589.358C1010.98 587.685 1011.45 586.25 1011.78 585.179C1012.3 583.51 1012.81 581.738 1013.27 579.868C1013.63 578.455 1013.94 577.085 1014.2 575.757Z" fill="#48964E"/>
    <path d="M1001.47 61.5114C1001.37 56.6351 1000.25 51.8343 998.181 47.4151C991.658 33.5863 977.938 28.8425 974.865 27.862C988.36 26.1976 1001.09 32.6254 1006.59 43.5783C1012.43 55.2029 1007.59 66.8654 1006.81 68.643C1005.94 67.3385 1004.98 65.9914 1003.94 64.6156C1003.11 63.5224 1002.29 62.4876 1001.47 61.5114Z" fill="#48964E"/>
    <path d="M43.1074 75.3058C44.178 75.238 38.4338 54.3328 49.1947 41.4385C57.8654 31.0486 73.9217 29.8508 87.2125 30.7765C89.4119 30.2335 91.3744 29.8336 93.0296 29.5356C94.0802 29.3464 95.6591 29.081 97.592 28.8308C98.9585 28.6539 100.173 28.5272 101.193 28.4349C76.8268 18.8415 53.2042 23.3875 43.6608 37.2327C33.201 52.4075 41.9815 75.3771 43.1074 75.3058Z" fill="#48964E"/>
    <path d="M93.9102 36.4151C102.92 41.8452 116.869 48.1997 132.092 45.3121C149.99 41.9171 155.559 28.4282 174.15 22.9922C183.451 20.2726 198.036 18.9772 219.103 28.0634H236.353C199.711 5.44145 178.684 6.07504 165.96 12.2196C151.449 19.2267 139.936 37.1661 118.258 37.0114C114.152 36.9709 110.076 36.3133 106.166 35.0607C103.849 35.1485 101.363 35.337 98.7344 35.6676C97.0497 35.8795 95.4401 36.133 93.9102 36.4151Z" fill="#48964E"/>
    <path d="M228.079 34.994C228.944 35.3655 230.199 35.8987 231.72 36.5247C233.329 37.2753 234.978 37.935 236.661 38.5009C240.168 39.6001 245.142 41.035 251.186 42.359C257.024 43.638 276.468 46.4508 289.033 46.3082C320.503 45.951 334.661 25.56 366.507 19.7456C380.473 17.1958 400.921 16.8869 427.844 28.053C437.861 28.0582 447.878 28.0634 457.896 28.0685C399.445 -5.47043 365.669 -2.9533 345.479 6.02161C327.021 14.2264 308.788 32.7752 274.516 36.1947C264.406 37.1846 254.208 36.7811 244.207 34.9957L228.079 34.994Z" fill="#48964E"/>
    <path d="M437.286 34.9914C465.596 51.2299 483.707 50.326 495.115 46.3082C510.947 40.7325 518.143 27.6528 538.058 24.6155C547.925 23.263 557.975 24.4497 567.256 28.0634H586.506C555.693 5.68429 537.191 4.95595 525.662 9.56331C510.09 15.7864 504.033 33.0253 483.162 37.0114C474.91 38.4536 466.427 37.7578 458.521 34.9905C451.443 34.9908 444.364 34.9911 437.286 34.9914Z" fill="#48964E"/>
    <path d="M571.485 34.9957C596.982 49.3601 614.019 48.7852 625.05 45.3121C642.733 39.7448 651.283 24.7466 672.199 23.5087C680.314 23.1283 688.403 24.6898 695.793 28.0634H718.178C696.641 9.28632 680.986 6.98964 670.428 8.67782C649.18 12.0756 638.772 33.1835 609.666 35.9045C603.46 36.4718 597.205 36.1641 591.084 34.9904C584.551 34.9922 578.018 34.994 571.485 34.9957Z" fill="#48964E"/>
    <path d="M703.477 34.994C726.783 49.3467 740.366 48.8083 748.64 44.9801C759.428 39.9895 761.813 29.122 774.613 24.9106C784.975 21.5015 795.456 24.6605 802.943 28.0599C808.95 28.0605 814.957 28.0611 820.964 28.0617C789.526 7.85254 773.908 8.26014 765.463 13.4001C755.427 19.5093 753.178 33.732 739.786 37.3065C732.496 39.2524 725.544 37.0715 720.901 34.9957L703.477 34.994Z" fill="#48964E"/>
    <path d="M809.739 34.9931C815.789 39.6486 825.205 45.3044 836.74 45.2753C856.236 45.2261 864.499 28.9799 885.881 23.2873C895.544 20.7146 910.126 19.7014 930.432 28.0634C933.816 28.0668 937.197 28.2545 940.56 28.6259C943.741 28.9771 946.679 29.4677 949.349 30.0243C907.174 3.31469 886.881 4.6651 876.141 11.039C865.409 17.4079 857.069 33.0336 838.068 35.5356C833.569 36.1108 829.005 35.9274 824.567 34.9931H809.739Z" fill="#48964E"/>
    <path d="M934.578 35.0669C941.184 39.498 948.551 42.6711 956.309 44.4268C966.959 46.7913 978.032 46.4488 988.516 43.4307C979.796 43.5594 971.096 42.5926 962.617 40.553C959.399 39.7762 956.384 38.8836 953.578 37.9281C947.375 36.2526 941 35.2927 934.578 35.0669V35.0669Z" fill="#48964E"/>
    <path d="M101.41 35.4049C107.838 38.3593 117.566 41.6527 128.908 40.4695C152.537 38.0046 160.464 18.4851 181.344 14.1011C191.498 11.969 206.67 13.0066 227.939 28.0634C226.906 28.0455 225.873 28.0276 224.84 28.0096C205.872 15.3877 191.931 14.5197 182.672 16.0932C160.602 19.8442 152.632 39.5941 129.016 42.2109C116.358 43.6135 105.462 39.3998 98.4163 35.7755L101.41 35.4049Z" fill="#76B779"/>
    <path d="M95.3166 29.1536C85.4727 25.4876 74.7352 24.9591 64.5788 27.6407C59.6373 29.0252 51.9161 31.1809 46.4277 38.2288C39.199 47.5115 40.6058 58.6408 41.0045 61.2498C40.6717 58.7011 39.5176 47.6986 46.8534 38.7216C52.3326 32.0165 60.2123 29.9397 64.8739 28.7106C73.9135 26.4301 83.4148 26.7632 92.2725 29.671C93.2873 29.4985 94.302 29.326 95.3166 29.1536Z" fill="#76B779"/>
    <path d="M237.66 34.9822C252 39.4528 273.205 43.7283 297.002 38.7822C330.164 31.8895 340.922 12.7916 368.942 7.64488C385.526 4.5989 410.17 6.06968 443.834 28.0613L439.167 28.0649C408.29 9.14931 385.263 7.9398 369.975 10.3011C340.724 14.8192 329.915 33.9371 297.666 40.8482C271.862 46.3781 248.691 40.5865 233.399 34.9946C234.82 34.9905 236.24 34.9864 237.66 34.9822Z" fill="#76B779"/>
    <path d="M444.941 34.9911C452.929 40.0391 465.38 46.0803 479.841 44.6481C504.225 42.2331 513.083 20.6748 537.726 17.8641C546.079 16.9113 558.71 17.8317 575.226 28.0738L578.428 28.0634C560.424 15.2718 546.765 13.8309 537.394 15.0971C514.299 18.2174 505.779 39.3249 480.948 41.9918C467.881 43.3952 456.562 39.0193 448.925 35.0007C447.597 34.9975 446.269 34.9943 444.941 34.9911Z" fill="#76B779"/>
    <path d="M578.18 34.9873C595.154 43.6952 608.029 44.0214 616.418 42.8772C642.702 39.292 652.867 17.4572 676.737 17.5321C689.165 17.5711 699.182 23.5302 705.283 28.0599C706.237 28.0611 707.192 28.0623 708.147 28.0634C694.849 16.8455 684.006 14.7085 676.848 14.6545C653.408 14.4776 643.263 36.4358 616.085 40.3317C601.595 42.4089 589.063 38.3766 581.209 34.9905L578.18 34.9873Z" fill="#76B779"/>
    <path d="M710.788 34.9947C718.062 40.2465 728.459 45.7932 739.491 43.7627C755.802 40.7608 759.94 23.6929 776.605 19.5981C783.78 17.8351 794.554 18.163 809.898 28.0606L812.55 28.0609C794.731 15.2624 782.829 14.6367 774.982 16.9418C759.326 21.5405 755.488 39.0733 739.159 41.8811C729.507 43.5409 720.566 39.1829 714.296 34.9957C713.126 34.9953 711.957 34.995 710.788 34.9947Z" fill="#76B779"/>
    <path d="M814.955 34.9931C819.827 38.1992 827.321 42.0445 836.555 42.2132C858.284 42.6099 867.535 22.245 889.127 16.9787C899.452 14.4606 914.822 14.852 936.534 28.2863C937.876 28.3995 939.218 28.5127 940.56 28.6259C915.515 11.7737 898.952 11.6916 888.574 14.5438C868.698 20.0065 859.238 39.606 836.888 39.6676C830.25 39.6106 823.717 38.0112 817.804 34.9957C816.854 34.9949 815.905 34.994 814.955 34.9931Z" fill="#76B779"/>
    <path d="M942.44 35.713C946.569 38.605 951.124 40.8354 955.94 42.3239C963.469 44.634 970.024 44.5734 970.051 44.3714C965.338 43.7267 960.69 42.6713 956.161 41.2171C952.257 39.881 948.499 38.1504 944.946 36.0521C944.11 35.9391 943.275 35.826 942.44 35.713Z" fill="#76B779"/>
    <path d="M988.516 31.625C991.866 32.7213 994.959 34.4872 997.606 36.8153C1000.25 39.1435 1002.4 41.9854 1003.92 45.1684C1005.43 48.3515 1006.28 51.8094 1006.42 55.3321C1006.56 58.8548 1005.98 62.3688 1004.72 65.6609L1003.26 63.7362C1005.12 57.5054 1004.64 50.8135 1001.93 44.9062C999.217 38.9989 994.45 34.2789 988.516 31.625V31.625Z" fill="#76B779"/>
    <path d="M1000.89 72.2494C1000.26 82.8465 1002.22 93.4377 1006.61 103.106C1014.89 120.768 1027.3 124.15 1031.79 138.06C1034.42 146.21 1034.63 158.89 1022.75 178.194L1022.75 180.961C1037.32 159.553 1037.47 145.875 1034.56 137.175C1030.09 123.821 1017.69 120.015 1008.88 100.872C1005.12 92.5861 1002.93 83.6724 1002.43 74.5864C1001.92 73.8074 1001.4 73.0284 1000.89 72.2494Z" fill="#76B779"/>
    <path d="M1015.82 184.986C1013.41 189.821 1010.24 197.931 1011.24 207.509C1013.17 226.011 1028.77 232.242 1032.34 249.345C1033.89 256.745 1033.67 268.5 1022.75 285.279V288.046C1036.28 269.414 1036.85 256.783 1034.85 248.681C1030.95 232.842 1015.36 226.727 1013.09 207.878C1012.36 201.084 1013.32 194.215 1015.89 187.882L1015.82 184.986Z" fill="#76B779"/>
    <path d="M1015.82 292.088C1009.52 300.359 1009.12 306.243 1009.77 309.963C1011.78 321.512 1026.15 324.672 1027.58 336.083C1028.33 342.038 1025.19 347.305 1022.75 350.54L1022.75 351.993C1029 345.097 1029.85 339.901 1029.47 336.415C1028.21 325.102 1012.73 321.778 1010.98 309.852C1010.1 303.818 1013.13 298.335 1015.81 294.662L1015.82 292.088Z" fill="#76B779"/>
    <path d="M1015.82 354.877C1009.05 365.795 1009 373.435 1010.13 378.341C1013.12 391.204 1026.44 394.586 1028.43 407.117C1029.67 414.86 1025.9 421.893 1022.75 426.431V429.613C1031.05 419.546 1031.86 412.226 1031.16 407.486C1029.35 395.193 1016.11 391.535 1012.94 377.603C1011.09 369.49 1013.6 362.01 1015.82 357.202L1015.82 354.877Z" fill="#76B779"/>
    <path d="M1015.82 431.54C1008.4 442.61 1008.31 450.201 1009.4 454.93C1012.39 467.942 1027.27 472.146 1027.7 484.296C1027.89 489.927 1024.89 494.552 1022.75 497.237L1022.75 499.561C1026.34 495.827 1030.01 490.629 1029.76 484.592C1029.27 472.672 1013.94 468.563 1011.09 454.856C1010.08 449.965 1010.53 443.248 1015.82 434.381V431.54Z" fill="#76B779"/>
    <path d="M1015.82 501.71C1012.2 505.779 1008.04 511.875 1008.73 518.754C1009.91 530.546 1024.14 533.781 1028.14 546.46C1029.93 552.144 1030.12 561.166 1021.39 575.016L1020.97 577.285C1032.6 561.775 1032.9 552.126 1030.91 546.128C1027.02 534.456 1012.63 531.24 1011.32 519.049C1010.67 513.035 1013.52 507.801 1015.82 504.514V501.71Z" fill="#76B779"/>
    <path d="M1013.28 579.796C1009.56 584.263 1006.96 589.556 1005.71 595.232C1003.78 604.436 1007.17 608.128 1004.05 616.335C1002.26 621.337 998.873 625.614 994.419 628.509C990.52 630.91 986.009 632.127 981.432 632.014C986.043 632.394 990.662 631.406 994.714 629.173C999.559 626.322 1003.26 621.875 1005.19 616.593C1008.15 608.792 1005.06 604.977 1007.15 595.343C1008.18 590.641 1010.06 586.164 1012.68 582.125L1013.28 579.796Z" fill="#76B779"/>
    <path d="M997.001 639.983C997.064 640.333 990.231 642.707 981.801 642.934C972.39 643.188 966.73 640.613 962.47 639.688C942.876 635.435 931.042 661.361 907.498 664.948C898.802 666.273 885.711 664.976 867.933 651.561L872.47 651.556C887.78 663.167 899.182 664.259 906.393 663.447C930.198 660.764 941.56 633.571 961.584 637.474C966.077 638.35 970.601 640.712 979.883 641.164C989.645 641.638 996.936 639.623 997.001 639.983Z" fill="#76B779"/>
    <path d="M859.281 644.664C846.215 639.293 824.975 632.842 800.917 637.437C768.848 643.563 757.616 664.379 727.649 667.652C715.114 669.021 695.5 667.736 669.584 651.59L674.313 651.588C685.418 658.133 703.568 666.516 724.992 664.553C755.92 661.72 767.454 639.729 798.925 633.453C812.761 630.694 834.433 630.178 864.262 644.667L859.281 644.664Z" fill="#76B779"/>
    <path d="M664.037 644.687C651.154 638.458 640.62 637.651 632.355 638.876C610.917 642.054 603.216 659.13 583.214 660.348C572.328 661.011 562.681 656.679 555.065 651.586L558.275 651.567C563.675 654.63 572.348 658.476 582.771 657.913C602.953 656.821 610.581 640.23 630.473 636.441C638.605 634.893 651.06 635.05 668.132 644.663L664.037 644.687Z" fill="#76B779"/>
    <path d="M549.273 644.651C527.307 632.848 512.883 633.741 503.748 636.773C488.389 641.872 482.538 654.828 465.564 656.917C455.012 658.215 445.882 654.611 440.071 651.584H443.613C450.165 654.716 457.453 655.987 464.679 655.257C482.171 653.136 488.125 638.533 502.641 633.066C511.819 629.609 527.077 628.802 552.323 644.651L549.273 644.651Z" fill="#76B779"/>
    <path d="M436.493 644.699C425.159 635.342 416.761 634.257 411.147 635.039C396.579 637.07 392.128 652.885 376.026 656.068C366.737 657.905 358.204 654.622 352.47 651.582L349.186 651.586C361.832 658.828 370.85 658.786 376.542 657.618C392.27 654.389 397.166 639.573 412.18 637.991C421.167 637.044 428.928 641.349 433.652 644.656L436.493 644.699Z" fill="#76B779"/>
    <path d="M343.431 644.659C338.235 642.102 329.583 638.814 319.691 640.37C302.42 643.088 297.038 658.106 281.064 660.569C274.988 661.506 265.331 660.943 252.012 651.579L255.498 651.583C261.237 655.047 270.054 659.071 280.068 657.747C296.509 655.573 301.906 640.871 318.473 638.046C324.612 637 333.915 637.306 346.475 644.657L343.431 644.659Z" fill="#76B779"/>
    <path d="M247.944 644.659C242.921 641.619 235.444 638.27 227.644 640.094C217.346 642.502 214.939 651.951 204.641 655.533C199.415 657.351 191.183 657.998 178.634 651.591L180.69 651.591C186.805 654.03 195.311 656.168 203.756 653.264C214.324 649.631 216.651 640.901 226.316 638.323C231.473 636.947 239.267 637.176 250.6 644.659H247.944Z" fill="#76B779"/>
    <path d="M175.127 644.655C166.239 639.155 160.08 639.111 156.054 640.149C146.567 642.594 143.858 652.346 133.808 653.984C129.396 654.556 124.916 653.716 121.011 651.586L118.41 651.588C125.345 655.862 130.57 656.207 134.25 655.533C144.054 653.738 146.739 644.014 156.829 641.754C162.921 640.389 168.707 642.419 172.988 644.655H175.127Z" fill="#76B779"/>
    <path d="M113.48 644.655C100.881 635.725 91.215 634.611 84.6115 635.335C72.9818 636.61 67.4532 643.96 59.0088 641.91C50.9137 639.944 46.2258 630.817 43.6255 623.984L45.2295 625.576C47.9039 631.28 52.4117 638.401 59.5984 640.094C68.0881 642.094 73.6296 634.944 84.0212 633.269C91.1383 632.121 101.672 633.358 116.069 644.659L113.48 644.655Z" fill="#76B779"/>
    <path d="M45.3947 615.708C45.0881 611.126 43.8752 604.984 39.3443 600.729C31.9806 593.815 21.6086 597.29 17.4301 591.064C15.7766 588.6 14.7741 584.141 18.4904 575.414C18.619 576.098 18.7476 576.782 18.8762 577.465C17.2405 581.599 15.9684 586.871 18.4262 590.621C22.453 596.765 32.7686 593.143 40.1559 599.475C43.5126 602.352 46.5171 607.5 46.7931 617.26C46.3269 616.743 45.8608 616.225 45.3947 615.708Z" fill="#76B779"/>
    <path d="M24.5267 568.625C30.1619 559.396 29.8582 553.748 28.498 550.279C25.3031 542.13 14.6376 541.809 12.2284 534.009C10.5306 528.513 13.9362 522.549 17.0604 518.385L17.0598 520.986C15.0042 524.117 12.5214 529.002 13.8886 533.788C16.1852 541.828 27.2138 542.118 30.4902 549.892C32.026 553.536 32.245 559.742 24.7701 570.615L24.5267 568.625Z" fill="#76B779"/>
    <path d="M23.9954 513.617C27.8757 508.27 32.3657 500.169 30.8776 491.398C28.5162 477.48 13.1498 473.942 9.8488 459.745C8.55186 454.166 8.79209 445.544 17.0541 433.163L17.0568 436.816C13.8066 442.419 10.3751 450.579 12.2284 459.246C15.3589 473.887 30.8828 477.417 33.3125 490.9C34.2915 496.333 33.3424 504.481 23.9963 515.83L23.9954 513.617Z" fill="#76B779"/>
    <path d="M23.9878 426.901C27.3631 419.487 31.1934 407.891 28.0552 395.533C22.9747 375.526 3.68721 369.495 3.33719 353.254C3.21824 347.736 5.248 339.291 17.0604 328.665V331.654C12.0454 336.702 6.43249 344.146 6.53747 353.096C6.72918 369.433 25.7936 375.553 30.7852 394.5C32.8483 402.331 32.9074 413.871 24.0155 430.083C24.0063 429.022 23.997 427.962 23.9878 426.901Z" fill="#76B779"/>
    <path d="M23.9903 324.704C33.2302 315.786 34.4585 308.487 34.4745 304.519C34.4837 302.232 34.1043 297.556 21.7466 278.953C12.536 265.087 9.34719 262.567 8.90791 256.485C8.3372 248.583 12.9182 241.727 17.0603 237.043V240.621C14.4345 244.232 11.484 249.592 11.7856 255.932C12.1124 262.803 16.0476 266.351 23.4067 276.85C32.9914 290.523 37.7836 297.36 37.7948 304.519C37.8021 309.238 35.9792 317.228 23.9905 327.001L23.9903 324.704Z" fill="#76B779"/>
    <path d="M23.9829 231.693C32.8395 219.498 34.1485 209.883 33.7367 203.397C32.2584 180.113 6.81391 168.925 9.4614 148.722C10.3856 142.973 13.0398 137.642 17.0705 133.439C17.0636 134.7 17.0568 135.96 17.05 137.22C14.3671 140.553 12.569 144.509 11.8225 148.722C8.58688 168.77 34.9487 180.476 36.9095 202.806C37.5483 210.082 35.8001 220.798 23.9846 234.682L23.9829 231.693Z" fill="#76B779"/>
    <path d="M23.9916 129.261C32.5178 118.862 37.3702 105.938 37.7949 92.4977C38.0244 81.6522 35.3223 70.9457 29.9737 61.508C36.3822 70.5914 39.9282 81.3835 40.1561 92.4977C40.4759 114.728 26.8922 129.321 23.9897 132.305L23.9916 129.261Z" fill="#76B779"/>
    <path d="M750.308 501.119C757.714 501.748 759.906 500.922 761.277 500.152C764.354 498.425 763.729 496.594 767.945 492.421C769.914 490.471 771.909 488.844 776.763 486.3C777.927 485.69 786.41 482.302 787.302 482.005C793.405 479.976 799.031 476.593 800.745 475.563C806.796 471.924 809.842 470.033 810.854 466.543C811.682 463.688 811.461 459.445 808.811 457.523C806.562 455.893 803.554 456.646 802.412 456.933C799.473 457.669 797.823 459.36 794.507 462.57C789.36 467.554 786.791 470.052 785.797 470.731C781.702 473.525 774.485 475.113 772.569 475.777C770.544 476.48 767.419 477.563 764.611 476.243C761.525 474.792 760.588 471.27 760.453 470.731C759.759 467.963 760.758 465.591 762.783 460.959C769.082 446.551 769.836 445.332 771.924 443.779C773.398 442.682 775.308 441.831 779.129 440.128C786.367 436.903 787.332 437.697 790.959 435.403C794.202 433.352 793.253 432.73 799.562 427.243C802.286 424.873 804.02 423.379 806.66 421.766C810.444 419.455 811.329 419.809 815.371 417.579C819.451 415.327 824.534 412.523 824.189 409.74C823.899 407.396 819.835 405.701 816.984 405.552C813.886 405.391 810.693 406.961 809.671 407.485C808.786 407.939 806.756 408.945 803.218 412.103C800.469 414.557 798.186 416.594 795.368 419.941C791.619 424.393 792.054 425.068 789.238 427.565C786.213 430.247 783.643 431.303 781.71 432.075C779.672 432.888 777.312 433.83 776.656 433.041C775.916 432.151 777.915 429.749 780.097 425.847C781.316 423.667 782.416 420.851 784.614 415.216C786.401 410.635 788.217 405.981 789.776 399.861C791.946 391.342 793.119 386.454 790.421 383.218C790.227 382.985 787.955 380.344 784.721 380.533C782.011 380.692 780.299 382.741 779.989 383.111C778.295 385.137 778.17 387.522 778.054 389.231C777.751 393.656 776.866 398.024 776.44 402.439C776.44 402.439 775.832 408.755 773.752 415.968C773.318 417.472 772.367 420.561 766.009 433.256C759.919 445.414 759.198 445.765 757.298 450.973C755.775 455.15 754.226 459.395 753.211 465.362C751.828 473.498 752.642 477.747 750.523 478.569C747.754 479.644 743.101 473.653 742.242 472.556C738.282 467.502 737.304 462.137 736.865 459.563C736.157 455.409 737.037 456.049 736.865 445.497C736.743 438.008 736.278 436.356 737.51 433.256C738.388 431.048 739.852 429.243 742.78 425.632C746.618 420.899 747.556 420.544 749.555 417.579C750.03 416.875 752.398 413.3 753.857 408.13C754.643 405.342 757.621 394.788 752.996 391.271C751.367 390.032 748.928 389.77 746.974 390.412C744.228 391.315 743.035 393.809 742.78 394.385C741.872 396.439 742.394 397.868 742.457 400.828C742.51 403.324 742.134 405.248 741.382 409.096C740.43 413.962 737.683 423.283 735.037 423.162C733.564 423.095 733.294 420.159 730.735 414.25C729.204 410.714 726.257 404.05 720.841 398.573C718.836 396.545 712.087 389.718 707.291 391.701C705.171 392.577 703.886 395.288 703.634 397.499C703.339 400.094 704.508 402.083 705.033 402.975C705.752 404.2 706.611 405.087 708.689 406.734C711.944 409.313 713.668 410.173 716.109 411.888C718.036 413.242 720.47 414.951 722.777 417.579C723.64 418.562 726.503 421.972 728.262 427.35C729.793 432.035 731.153 436.195 729.122 439.054C725.934 443.542 716.784 441.467 715.141 441.094C713.405 440.701 704.655 438.717 701.269 431.753C699.603 428.327 699.983 425.234 696.752 418.545C696.137 417.273 695.351 415.786 693.741 415.109C691.362 414.109 688.128 415.27 686.535 417.364C686.107 417.927 684.853 419.799 685.89 424.988C686.405 427.568 687.908 434.543 694.386 440.235C700.719 445.801 708.131 446.907 709.657 447.108C717.232 448.105 722.663 445.61 725.143 448.826C725.94 449.859 725.904 450.798 726.111 452.906C726.693 458.845 728.334 465.263 730.305 469.55C733.358 476.189 737.399 478.135 736.327 481.791C735.822 483.512 734.508 484.518 733.854 485.012C730.231 487.749 724.697 486.993 721.164 484.797C717.917 482.779 718.742 481.029 714.496 475.777C712.119 472.838 709.518 470.787 704.316 466.686C698.272 461.922 695.212 459.558 693.364 460.44C691.52 461.321 690.885 464.574 691.482 466.972C692.025 469.151 693.471 470.171 697.074 472.986C703.936 478.344 707.366 481.022 709.442 483.401C709.692 483.689 711.907 486.244 714.507 489.084C714.658 489.249 714.692 489.287 714.711 489.307C716.331 491.044 717.563 492.345 719.551 493.495C721.64 494.704 723.316 495.024 725.466 495.535C731.113 496.877 730.078 497.168 736.005 498.649C739.754 499.586 743.224 500.517 750.308 501.119L750.308 501.119Z" fill="#D75047"/>
    <path d="M795.232 467.082C796.479 469.38 798.264 472.181 800.786 475.067C800.878 475.172 800.97 475.268 801.062 475.372C801.401 475.167 801.733 474.967 802.053 474.774C799.779 472.21 797.506 469.646 795.232 467.082Z" fill="#9D413B"/>
    <path d="M761.368 464.304C761.384 464.263 761.399 464.222 761.416 464.181L753.775 462.486C753.768 462.519 753.76 462.552 753.753 462.585C754.754 462.983 755.908 463.372 757.223 463.684C758.755 464.047 760.151 464.223 761.368 464.304V464.304Z" fill="#9D413B"/>
    <path d="M763.847 451.334C764.856 451.756 765.801 452.036 766.659 452.232C766.718 452.104 766.776 451.978 766.833 451.853C764.547 450.93 762.261 450.007 759.976 449.084C760.891 449.789 762.181 450.636 763.847 451.334V451.334Z" fill="#9D413B"/>
    <path d="M777.112 474.445C776.913 474.506 776.712 474.567 776.52 474.624C777.418 476.576 778.545 478.015 779.429 478.964C778.657 477.458 777.884 475.952 777.112 474.445Z" fill="#9D413B"/>
    <path d="M788.526 468.329C788.417 468.432 788.313 468.53 788.21 468.627C789.152 470.176 790.412 471.947 792.091 473.736C793.701 475.452 795.324 476.787 796.787 477.821C796.974 477.721 797.162 477.621 797.339 477.524C794.402 474.459 791.464 471.394 788.526 468.329Z" fill="#9D413B"/>
    <path d="M784.284 389.515C785.558 389.894 787.289 390.271 789.362 390.339C790.258 390.368 791.087 390.332 791.848 390.262C791.865 390.118 791.881 389.974 791.894 389.834C789.358 389.727 786.821 389.621 784.284 389.515L784.284 389.515Z" fill="#9D413B"/>
    <path d="M788.751 427.973C789.242 428.757 789.92 429.672 790.853 430.58C791.923 431.621 793.006 432.34 793.915 432.836C793.978 432.763 794.04 432.693 794.107 432.616C792.381 431.018 790.655 429.421 788.929 427.824C788.869 427.875 788.811 427.923 788.751 427.973Z" fill="#9D413B"/>
    <path d="M796.399 421.454C797.448 422.514 798.501 423.215 799.302 423.664C798.046 422.36 796.789 421.056 795.532 419.751C795.476 419.817 795.424 419.875 795.368 419.941C795.323 419.995 795.285 420.042 795.241 420.095C795.572 420.538 795.943 420.994 796.399 421.454Z" fill="#9D413B"/>
    <path d="M807.752 411.616C808.222 412.621 809.025 414.03 810.37 415.418C811.697 416.787 813.087 417.657 814.187 418.204C814.297 418.148 814.409 418.092 814.524 418.031C812.267 415.893 810.009 413.754 807.752 411.616V411.616Z" fill="#9D413B"/>
    <path d="M809.384 407.633C809.698 408.215 810.095 408.841 810.608 409.477C811.989 411.191 813.538 412.157 814.511 412.661C812.949 410.91 811.387 409.159 809.825 407.407C809.771 407.434 809.716 407.462 809.671 407.485C809.587 407.528 809.489 407.579 809.384 407.633V407.633Z" fill="#9D413B"/>
    <path d="M823.699 411.552C822.493 410.369 821.286 409.187 820.08 408.004C820.41 408.599 820.916 409.37 821.675 410.142C822.356 410.836 823.042 411.327 823.622 411.675C823.649 411.634 823.673 411.593 823.699 411.552Z" fill="#9D413B"/>
    <path d="M729.482 431.32C730.176 431.368 730.924 431.391 731.732 431.364C733.257 431.312 734.59 431.106 735.683 430.865C733.6 430.958 731.517 431.05 729.434 431.143C729.45 431.202 729.467 431.261 729.482 431.32H729.482Z" fill="#9D413B"/>
    <path d="M739.091 417.347C739.643 417.831 740.323 418.352 741.157 418.84C742.404 419.57 743.564 419.98 744.442 420.219C742.68 419.2 740.919 418.181 739.158 417.162C739.135 417.224 739.113 417.286 739.091 417.347H739.091Z" fill="#9D413B"/>
    <path d="M748.726 411.045C750.264 411.31 751.632 411.358 752.779 411.321C752.802 411.262 752.825 411.204 752.848 411.145C749.729 410.557 746.609 409.97 743.49 409.382C744.75 409.983 746.523 410.667 748.726 411.045Z" fill="#9D413B"/>
    <path d="M744.537 396.929C746.192 397.14 748.263 397.262 750.63 397.072C752.452 396.926 754.05 396.624 755.413 396.283C755.408 396.245 755.407 396.205 755.402 396.167C751.78 396.421 748.159 396.675 744.537 396.929Z" fill="#9D413B"/>
    <path d="M742.392 399.424C743.421 399.599 744.617 399.73 745.965 399.734C747.867 399.739 749.499 399.495 750.773 399.211C747.976 399.24 745.18 399.27 742.383 399.299L742.392 399.424L742.392 399.424Z" fill="#9D413B"/>
    <path d="M774.135 414.588C774.897 414.897 775.767 415.193 776.763 415.418C778.603 415.834 780.202 415.873 781.364 415.814C778.986 415.285 776.608 414.755 774.229 414.225C774.197 414.347 774.168 414.465 774.135 414.588H774.135Z" fill="#9D413B"/>
    <path d="M778.407 386.404C779.754 386.914 781.526 387.433 783.65 387.677C786.149 387.965 788.267 387.772 789.774 387.519C785.998 387.09 782.223 386.661 778.447 386.232C778.432 386.29 778.42 386.346 778.407 386.404Z" fill="#9D413B"/>
    <path d="M777.567 393.845C779.325 394.425 781.452 394.983 783.935 395.313C786.565 395.663 788.907 395.671 790.847 395.546L790.891 395.359C786.455 394.811 782.019 394.264 777.583 393.716C777.578 393.759 777.573 393.802 777.567 393.845V393.845Z" fill="#9D413B"/>
    <path d="M732.906 457.735C734.304 457.74 735.55 457.607 736.605 457.425C736.601 457.357 736.598 457.29 736.595 457.224C733.811 457.215 731.026 457.205 728.241 457.196C729.465 457.477 731.05 457.727 732.906 457.735L732.906 457.735Z" fill="#9D413B"/>
    <path d="M706.979 399.116C708.191 398.38 709.76 397.256 711.311 395.599C712.259 394.586 712.989 393.593 713.571 392.689C713.475 392.637 713.379 392.586 713.283 392.536C711.182 394.729 709.08 396.922 706.979 399.116Z" fill="#9D413B"/>
    <path d="M706.044 404.362C706.936 403.865 707.947 403.204 708.978 402.3C710.628 400.856 711.698 399.357 712.358 398.26C710.188 400.218 708.017 402.175 705.847 404.132C705.91 404.208 705.976 404.285 706.044 404.362H706.044Z" fill="#9D413B"/>
    <path d="M727.154 406.986C727.132 406.948 727.109 406.91 727.087 406.872C725.097 408.754 723.107 410.637 721.117 412.519C722.139 411.972 723.482 411.116 724.83 409.81C725.855 408.816 726.602 407.831 727.154 406.986L727.154 406.986Z" fill="#9D413B"/>
    <path d="M685.509 422.014C685.511 422.059 685.513 422.105 685.516 422.151C686.599 421.91 687.786 421.585 689.049 421.137C690.866 420.494 692.415 419.751 693.683 419.046C690.958 420.035 688.234 421.025 685.509 422.014H685.509Z" fill="#9D413B"/>
    <path d="M700.125 465.656C700.461 465.079 700.708 464.529 700.9 464.022C700.843 463.978 700.786 463.935 700.729 463.892C699.655 465.494 698.581 467.096 697.507 468.698C698.249 468.098 699.274 467.115 700.125 465.656Z" fill="#9D413B"/>
    <path d="M698.06 461.959C696.406 464.541 694.752 467.124 693.097 469.706C693.137 469.746 693.178 469.786 693.219 469.826C694.2 468.73 695.259 467.388 696.269 465.751C697.08 464.437 697.703 463.186 698.194 462.05C698.15 462.02 698.104 461.988 698.06 461.959Z" fill="#9D413B"/>
    <path d="M701.573 476.51C702.169 476.063 702.813 475.516 703.457 474.829C704.789 473.409 705.594 471.978 706.075 470.932C704.514 472.743 702.952 474.555 701.391 476.367C701.451 476.414 701.514 476.464 701.573 476.51Z" fill="#9D413B"/>
    <path d="M717.792 480.733C716.98 481.87 716.169 483.007 715.357 484.145C715.784 483.887 716.469 483.4 717.071 482.576C717.504 481.983 717.75 481.408 717.903 480.939C717.868 480.872 717.829 480.801 717.792 480.733H717.792Z" fill="#9D413B"/>
    <path d="M733.863 475.415C734.312 475.339 734.826 475.21 735.382 474.972C736.378 474.543 737.057 473.963 737.444 473.577C736.195 474.113 734.946 474.649 733.697 475.185C733.752 475.261 733.809 475.34 733.863 475.415L733.863 475.415Z" fill="#9D413B"/>
    <path d="M703.742 438.089C704.295 437.486 704.692 436.898 704.984 436.392C704.962 436.373 704.939 436.355 704.916 436.336C703.869 437.47 702.822 438.603 701.775 439.737C702.328 439.386 703.039 438.857 703.742 438.089L703.742 438.089Z" fill="#9D413B"/>
    <path d="M696.355 441.794C697.131 441.272 697.985 440.62 698.855 439.8C700.074 438.653 700.972 437.513 701.616 436.568C699.809 438.271 698.001 439.973 696.194 441.676C696.247 441.715 696.301 441.755 696.355 441.794Z" fill="#9D413B"/>
    <path d="M698.82 423.653C696.705 424.515 694.591 425.377 692.477 426.239C693.369 426.199 694.745 426.029 696.285 425.383C697.39 424.92 698.25 424.348 698.884 423.846C698.864 423.784 698.84 423.717 698.82 423.653Z" fill="#9D413B"/>
    <path d="M788.521 405.294L784.332 404.566C784.852 404.803 785.578 405.07 786.474 405.215C787.282 405.346 787.985 405.339 788.521 405.294Z" fill="#9D413B"/>
    <path d="M776.715 428.599C777.265 428.827 777.771 428.951 778.207 429.025L778.295 428.882C777.086 428.355 775.877 427.828 774.668 427.3C775.085 427.679 775.763 428.206 776.715 428.599V428.599Z" fill="#9D413B"/>
    <path d="M722.426 406.744C722.886 406.565 723.653 406.196 724.378 405.461C724.847 404.984 725.152 404.503 725.353 404.113C725.332 404.081 725.312 404.05 725.29 404.018C724.335 404.927 723.381 405.835 722.426 406.744H722.426Z" fill="#9D413B"/>
    <path d="M716.246 443.254C715.972 444.611 715.698 445.968 715.424 447.326L715.527 447.322C715.732 446.894 715.941 446.361 716.087 445.726C716.319 444.718 716.304 443.85 716.246 443.254Z" fill="#9D413B"/>
    <path d="M734.969 460.048C735.732 460.042 736.385 459.931 736.906 459.801L736.888 459.694L732.335 459.636C732.942 459.835 733.852 460.055 734.969 460.048Z" fill="#9D413B"/>
    <path d="M799.736 458.055C800.329 458.946 801.006 459.881 801.801 460.84C803.424 462.796 805.068 464.315 806.498 465.466C804.317 462.954 802.136 460.442 799.955 457.93C799.882 457.971 799.808 458.011 799.736 458.055Z" fill="#9D413B"/>
    <path d="M446.288 587.816C453.694 588.445 455.886 587.619 457.257 586.85C460.334 585.123 459.709 583.291 463.925 579.119C465.894 577.169 467.889 575.541 472.743 572.998C473.908 572.388 482.39 569 483.282 568.703C489.385 566.674 495.011 563.291 496.725 562.26C502.776 558.622 505.822 556.731 506.834 553.241C507.662 550.385 507.441 546.142 504.791 544.221C502.542 542.59 499.534 543.344 498.392 543.63C495.453 544.367 493.803 546.057 490.488 549.268C485.34 554.252 482.771 556.75 481.777 557.428C477.682 560.222 470.465 561.811 468.549 562.475C466.524 563.177 463.399 564.261 460.591 562.94C457.506 561.49 456.568 557.968 456.433 557.428C455.739 554.661 456.738 552.289 458.763 547.657C465.062 533.249 465.816 532.03 467.904 530.477C469.378 529.379 471.289 528.528 475.109 526.826C482.347 523.6 483.312 524.395 486.939 522.101C490.182 520.05 489.233 519.428 495.542 513.94C498.266 511.571 500 510.076 502.64 508.464C506.424 506.153 507.309 506.506 511.351 504.276C515.431 502.025 520.514 499.22 520.169 496.438C519.879 494.094 515.815 492.399 512.964 492.25C509.866 492.088 506.673 493.659 505.651 494.183C504.766 494.637 502.736 495.642 499.198 498.8C496.449 501.255 494.166 503.292 491.348 506.639C487.599 511.09 488.034 511.765 485.218 514.263C482.193 516.945 479.623 518.001 477.69 518.772C475.652 519.586 473.292 520.528 472.636 519.739C471.896 518.849 473.895 516.447 476.077 512.544C477.296 510.365 478.396 507.548 480.594 501.914C482.381 497.333 484.197 492.679 485.756 486.559C487.926 478.04 489.099 473.152 486.401 469.916C486.207 469.683 483.935 467.041 480.701 467.231C477.991 467.39 476.279 469.438 475.969 469.808C474.275 471.834 474.15 474.219 474.034 475.929C473.732 480.354 472.846 484.721 472.421 489.136C472.421 489.136 471.812 495.453 469.732 502.666C469.298 504.17 468.347 507.259 461.989 519.954C455.9 532.112 455.178 532.462 453.278 537.671C451.755 541.848 450.206 546.093 449.191 552.059C447.808 560.196 448.622 564.444 446.503 565.267C443.734 566.342 439.081 560.35 438.222 559.254C434.262 554.2 433.284 548.834 432.845 546.261C432.137 542.106 433.017 542.746 432.845 532.195C432.723 524.705 432.258 523.054 433.49 519.954C434.368 517.746 435.832 515.94 438.76 512.33C442.598 507.596 443.536 507.241 445.535 504.276C446.01 503.573 448.378 499.997 449.837 494.827C450.623 492.039 453.601 481.485 448.976 477.969C447.347 476.73 444.908 476.467 442.954 477.11C440.208 478.013 439.015 480.506 438.76 481.083C437.852 483.137 438.374 484.566 438.437 487.525C438.49 490.022 438.114 491.946 437.362 495.794C436.411 500.66 433.663 509.981 431.017 509.86C429.544 509.793 429.274 506.857 426.715 500.948C425.184 497.411 422.237 490.748 416.821 485.271C414.816 483.242 408.067 476.416 403.271 478.398C401.151 479.275 399.866 481.985 399.615 484.197C399.319 486.792 400.488 488.78 401.013 489.673C401.732 490.898 402.591 491.784 404.669 493.431C407.924 496.011 409.649 496.871 412.089 498.585C414.017 499.939 416.45 501.649 418.757 504.276C419.62 505.26 422.483 508.669 424.242 514.048C425.773 518.732 427.133 522.892 425.102 525.752C421.914 530.239 412.764 528.164 411.122 527.792C409.385 527.398 400.635 525.414 397.249 518.45C395.583 515.024 395.963 511.931 392.732 505.243C392.117 503.97 391.331 502.484 389.721 501.807C387.343 500.807 384.108 501.967 382.515 504.062C382.087 504.624 380.833 506.496 381.87 511.685C382.386 514.265 383.888 521.241 390.366 526.933C396.7 532.499 404.111 533.604 405.637 533.805C413.212 534.802 418.643 532.307 421.123 535.523C421.92 536.557 421.884 537.496 422.091 539.604C422.673 545.543 424.314 551.961 426.285 556.247C429.339 562.886 433.379 564.833 432.307 568.488C431.803 570.209 430.488 571.215 429.834 571.71C426.211 574.446 420.677 573.691 417.144 571.495C413.897 569.477 414.723 567.726 410.476 562.475C408.099 559.535 405.498 557.485 400.296 553.384C394.252 548.619 391.193 546.255 389.344 547.138C387.5 548.019 386.865 551.271 387.462 553.67C388.005 555.849 389.451 556.869 393.054 559.683C399.916 565.041 403.347 567.72 405.422 570.099C405.673 570.386 407.887 572.941 410.487 575.782C410.638 575.947 410.673 575.984 410.691 576.005C412.311 577.741 413.544 579.042 415.531 580.192C417.62 581.402 419.296 581.722 421.446 582.233C427.093 583.574 426.058 583.866 431.985 585.347C435.735 586.283 439.204 587.215 446.288 587.816L446.288 587.816Z" fill="#D75047"/>
    <path d="M491.212 553.779C492.459 556.077 494.244 558.879 496.766 561.764C496.858 561.869 496.95 561.966 497.042 562.069C497.381 561.865 497.713 561.665 498.033 561.471C495.759 558.907 493.486 556.343 491.212 553.779Z" fill="#9D413B"/>
    <path d="M457.348 551.001C457.364 550.96 457.38 550.92 457.396 550.879L449.755 549.183C449.748 549.217 449.74 549.249 449.733 549.283C450.734 549.68 451.888 550.069 453.203 550.381C454.736 550.745 456.131 550.921 457.348 551.001V551.001Z" fill="#9D413B"/>
    <path d="M459.827 538.032C460.836 538.454 461.781 538.734 462.639 538.93C462.698 538.801 462.756 538.675 462.813 538.551C460.527 537.628 458.241 536.705 455.956 535.782C456.871 536.487 458.16 537.334 459.827 538.032V538.032Z" fill="#9D413B"/>
    <path d="M473.092 561.143C472.893 561.203 472.692 561.265 472.5 561.322C473.398 563.274 474.525 564.713 475.409 565.662C474.636 564.155 473.864 562.649 473.092 561.143Z" fill="#9D413B"/>
    <path d="M484.506 555.027C484.397 555.13 484.293 555.228 484.19 555.324C485.132 556.874 486.392 558.645 488.071 560.434C489.681 562.15 491.304 563.484 492.767 564.519C492.953 564.419 493.142 564.318 493.319 564.221C490.381 561.157 487.444 558.092 484.506 555.027Z" fill="#9D413B"/>
    <path d="M480.264 476.213C481.538 476.591 483.269 476.969 485.342 477.036C486.238 477.066 487.067 477.03 487.828 476.96C487.845 476.815 487.861 476.672 487.874 476.531C485.338 476.425 482.801 476.319 480.264 476.213L480.264 476.213Z" fill="#9D413B"/>
    <path d="M484.731 514.67C485.222 515.455 485.9 516.37 486.833 517.277C487.903 518.319 488.986 519.038 489.895 519.534C489.958 519.461 490.02 519.39 490.087 519.313C488.361 517.716 486.635 516.119 484.909 514.522C484.849 514.573 484.791 514.62 484.731 514.67Z" fill="#9D413B"/>
    <path d="M492.379 508.152C493.428 509.212 494.48 509.913 495.282 510.362C494.025 509.058 492.769 507.753 491.512 506.449C491.456 506.514 491.404 506.572 491.348 506.639C491.302 506.693 491.265 506.74 491.221 506.792C491.552 507.236 491.923 507.692 492.379 508.152Z" fill="#9D413B"/>
    <path d="M503.732 498.313C504.201 499.319 505.005 500.728 506.35 502.116C507.676 503.485 509.067 504.355 510.167 504.902C510.277 504.846 510.389 504.789 510.504 504.729C508.247 502.59 505.989 500.452 503.732 498.313V498.313Z" fill="#9D413B"/>
    <path d="M505.364 494.331C505.678 494.912 506.075 495.539 506.588 496.175C507.969 497.889 509.518 498.854 510.491 499.359C508.929 497.608 507.367 495.856 505.805 494.105C505.751 494.132 505.696 494.16 505.651 494.183C505.567 494.226 505.469 494.276 505.364 494.331V494.331Z" fill="#9D413B"/>
    <path d="M519.679 498.25C518.473 497.067 517.266 495.884 516.06 494.701C516.39 495.297 516.896 496.068 517.655 496.84C518.336 497.533 519.022 498.025 519.602 498.373C519.629 498.332 519.653 498.291 519.679 498.25Z" fill="#9D413B"/>
    <path d="M425.462 518.017C426.156 518.066 426.904 518.089 427.712 518.062C429.237 518.01 430.57 517.804 431.663 517.563C429.58 517.655 427.497 517.748 425.414 517.841C425.43 517.9 425.447 517.959 425.462 518.017H425.462Z" fill="#9D413B"/>
    <path d="M435.071 504.045C435.623 504.529 436.303 505.05 437.137 505.538C438.384 506.268 439.544 506.678 440.422 506.916C438.66 505.897 436.899 504.878 435.138 503.86C435.115 503.921 435.093 503.984 435.071 504.045H435.071Z" fill="#9D413B"/>
    <path d="M444.706 497.743C446.243 498.008 447.612 498.056 448.759 498.018C448.782 497.96 448.805 497.902 448.828 497.843C445.708 497.255 442.589 496.667 439.47 496.08C440.73 496.68 442.503 497.364 444.706 497.743Z" fill="#9D413B"/>
    <path d="M440.517 483.627C442.172 483.838 444.243 483.959 446.61 483.77C448.432 483.624 450.03 483.321 451.393 482.981C451.388 482.943 451.387 482.903 451.382 482.865C447.76 483.119 444.138 483.373 440.517 483.627Z" fill="#9D413B"/>
    <path d="M438.372 486.122C439.401 486.297 440.597 486.427 441.945 486.431C443.847 486.437 445.479 486.192 446.753 485.908C443.956 485.938 441.16 485.967 438.363 485.997L438.372 486.122L438.372 486.122Z" fill="#9D413B"/>
    <path d="M470.115 501.285C470.877 501.595 471.747 501.89 472.743 502.116C474.583 502.532 476.182 502.571 477.344 502.512C474.966 501.982 472.588 501.453 470.209 500.923C470.177 501.044 470.148 501.163 470.115 501.285H470.115Z" fill="#9D413B"/>
    <path d="M474.387 473.102C475.734 473.611 477.506 474.131 479.629 474.375C482.129 474.662 484.247 474.469 485.754 474.216C481.978 473.787 478.202 473.359 474.427 472.93C474.412 472.987 474.4 473.044 474.387 473.102Z" fill="#9D413B"/>
    <path d="M473.547 480.542C475.305 481.123 477.432 481.681 479.915 482.011C482.545 482.361 484.888 482.369 486.827 482.243L486.871 482.057C482.435 481.509 477.999 480.961 473.563 480.413C473.558 480.456 473.553 480.499 473.547 480.542V480.542Z" fill="#9D413B"/>
    <path d="M428.886 544.432C430.284 544.438 431.53 544.305 432.585 544.122C432.581 544.055 432.578 543.988 432.575 543.922C429.791 543.912 427.006 543.903 424.221 543.894C425.445 544.175 427.03 544.425 428.886 544.432L428.886 544.432Z" fill="#9D413B"/>
    <path d="M402.959 485.813C404.171 485.078 405.74 483.954 407.291 482.296C408.239 481.284 408.969 480.291 409.551 479.387C409.455 479.335 409.359 479.284 409.263 479.234C407.162 481.427 405.06 483.62 402.959 485.813Z" fill="#9D413B"/>
    <path d="M402.024 491.06C402.916 490.562 403.927 489.901 404.959 488.998C406.608 487.554 407.678 486.055 408.338 484.958C406.168 486.915 403.997 488.873 401.827 490.83C401.89 490.906 401.956 490.983 402.024 491.06H402.024Z" fill="#9D413B"/>
    <path d="M423.134 493.683C423.112 493.646 423.089 493.607 423.067 493.569C421.077 495.452 419.087 497.334 417.097 499.216C418.119 498.67 419.462 497.814 420.81 496.507C421.835 495.513 422.582 494.529 423.134 493.683L423.134 493.683Z" fill="#9D413B"/>
    <path d="M381.489 508.711C381.491 508.757 381.493 508.803 381.496 508.849C382.579 508.608 383.766 508.283 385.029 507.835C386.846 507.192 388.395 506.449 389.662 505.744C386.938 506.733 384.214 507.722 381.489 508.711H381.489Z" fill="#9D413B"/>
    <path d="M396.105 552.354C396.441 551.776 396.688 551.226 396.88 550.72C396.823 550.676 396.766 550.633 396.709 550.59C395.635 552.191 394.561 553.793 393.487 555.395C394.229 554.795 395.254 553.812 396.105 552.354Z" fill="#9D413B"/>
    <path d="M394.04 548.656C392.386 551.239 390.732 553.821 389.077 556.404C389.117 556.444 389.158 556.484 389.199 556.524C390.18 555.428 391.239 554.085 392.249 552.449C393.06 551.135 393.683 549.884 394.174 548.748C394.13 548.718 394.084 548.685 394.04 548.656Z" fill="#9D413B"/>
    <path d="M397.553 563.208C398.149 562.761 398.793 562.213 399.437 561.527C400.769 560.107 401.574 558.675 402.055 557.629C400.494 559.441 398.932 561.253 397.371 563.064C397.431 563.111 397.494 563.161 397.553 563.208Z" fill="#9D413B"/>
    <path d="M413.772 567.43C412.96 568.568 412.149 569.705 411.337 570.842C411.764 570.585 412.449 570.098 413.051 569.274C413.484 568.68 413.73 568.106 413.883 567.636C413.848 567.57 413.809 567.498 413.772 567.43H413.772Z" fill="#9D413B"/>
    <path d="M429.843 562.113C430.292 562.037 430.806 561.908 431.362 561.669C432.358 561.241 433.037 560.66 433.424 560.275C432.175 560.811 430.926 561.347 429.677 561.882C429.732 561.959 429.789 562.038 429.843 562.112L429.843 562.113Z" fill="#9D413B"/>
    <path d="M399.722 524.787C400.275 524.184 400.672 523.595 400.964 523.09C400.942 523.071 400.919 523.053 400.896 523.034C399.849 524.168 398.802 525.301 397.755 526.435C398.308 526.084 399.019 525.555 399.722 524.787L399.722 524.787Z" fill="#9D413B"/>
    <path d="M392.335 528.492C393.111 527.969 393.965 527.318 394.835 526.498C396.054 525.35 396.952 524.211 397.596 523.266C395.789 524.969 393.981 526.671 392.174 528.373C392.227 528.413 392.281 528.453 392.335 528.492Z" fill="#9D413B"/>
    <path d="M394.8 510.351C392.685 511.213 390.571 512.075 388.457 512.936C389.349 512.896 390.725 512.727 392.265 512.081C393.37 511.617 394.23 511.046 394.864 510.544C394.844 510.481 394.82 510.414 394.8 510.351Z" fill="#9D413B"/>
    <path d="M484.501 491.992L480.312 491.263C480.832 491.501 481.558 491.768 482.454 491.913C483.262 492.044 483.965 492.037 484.501 491.992Z" fill="#9D413B"/>
    <path d="M472.695 515.297C473.245 515.524 473.751 515.649 474.187 515.723L474.275 515.58C473.066 515.052 471.857 514.525 470.648 513.998C471.065 514.377 471.742 514.903 472.695 515.297V515.297Z" fill="#9D413B"/>
    <path d="M418.406 493.442C418.866 493.262 419.633 492.893 420.358 492.158C420.827 491.682 421.132 491.2 421.333 490.811C421.312 490.779 421.292 490.747 421.27 490.715C420.315 491.624 419.361 492.533 418.406 493.442H418.406Z" fill="#9D413B"/>
    <path d="M412.226 529.952C411.952 531.309 411.678 532.666 411.404 534.023L411.507 534.02C411.712 533.592 411.921 533.059 412.067 532.423C412.299 531.415 412.284 530.547 412.226 529.952Z" fill="#9D413B"/>
    <path d="M430.949 546.745C431.712 546.74 432.365 546.629 432.886 546.498L432.868 546.392L428.315 546.333C428.922 546.532 429.832 546.753 430.949 546.745Z" fill="#9D413B"/>
    <path d="M495.716 544.752C496.309 545.644 496.986 546.579 497.781 547.537C499.404 549.493 501.048 551.012 502.478 552.164C500.297 549.651 498.116 547.139 495.935 544.627C495.862 544.669 495.788 544.709 495.716 544.752Z" fill="#9D413B"/>
</svg>
