<svg viewBox="0 0 93 137" fill="none" xmlns="http://www.w3.org/2000/svg">
<path d="M30.8765 134.439C31.1667 132.098 32.2309 129.268 32.8113 128C33.7787 125.268 34.3592 122.634 34.7461 120.878C35.3266 118.244 35.5201 116.195 35.7135 114.537C36.1972 108.976 36.0038 96.4878 36.0038 94.439C36.0038 94.2439 36.0038 94.1463 36.0038 94.1463C35.8103 82.6342 36.7777 72.0976 36.3907 68.0976C36.294 66.8293 36.1005 65.6585 36.1005 65.6585C35.907 64.4878 35.6168 63.6098 35.4233 62.9268C35.4233 62.9268 35.0364 61.561 34.5527 59.4146C34.069 57.3659 34.069 55.7073 33.9722 53.8537C33.8755 50.6342 34.1657 47.3171 34.4559 47.3171C34.6494 47.3171 34.7461 48.6829 35.2298 52.6829C35.8103 56.8781 36.0038 57.8537 36.3907 59.122C36.7777 60.2927 37.3581 62.1463 37.4549 62.2439C37.7451 63.0244 37.9386 63.6098 38.2288 64.2927C38.3255 64.4878 38.519 64.9756 38.8092 65.4634C39.0994 66.1463 39.7766 67.4146 40.8408 68.9756C41.518 70.0488 42.0017 70.7317 42.5821 71.4146C44.1299 73.1707 45.7745 74.1464 47.1289 74.9268C48.4833 75.7073 50.6115 76.6829 53.3203 77.2683C53.9975 77.1707 54.8681 76.9756 55.7388 76.4878C57.1899 75.7073 58.1573 74.5366 59.2214 73.2683C60.3823 72 61.0595 71.0244 61.0595 71.0244C61.5432 70.3415 61.8334 70.0488 62.3171 69.4634C62.8008 68.9756 63.865 67.8049 64.2519 68.0976C64.7356 68.4878 63.9617 70.5366 63.7682 71.2195C63.2845 72.3903 62.8976 73.2683 62.1236 74.7317C61.6399 75.7073 61.5432 75.7073 60.5758 77.4634C59.8986 78.6342 59.6084 79.2195 59.2214 79.8049C59.2214 79.9024 59.2214 79.8049 59.2214 79.9024C58.254 81.8537 57.4801 82.7317 56.5127 84.5854C56.3192 84.8781 56.2225 85.0732 56.1257 85.3659C55.4486 86.9268 55.1583 88.5854 55.1583 88.5854C55.1583 88.5854 55.0616 94.3415 54.9649 98.7317C54.7714 111.707 55.1583 108 54.9649 114.049C54.8681 116.78 54.7714 119.415 55.5453 122.537C56.1257 124.976 56.7062 126.829 56.7062 126.829C57.2866 128.488 57.6736 129.268 58.0605 130.927C58.8345 133.951 58.3508 134.634 58.1573 135.024C57.8671 135.512 57.4801 135.512 57.1899 135.61C53.804 136.39 51.3855 135.512 51.3855 135.512C46.5485 133.756 38.0353 133.659 33.9722 135.22C33.3918 135.512 31.457 136.293 30.7798 135.415C30.8765 135.22 30.8765 134.829 30.8765 134.439Z" fill="#6A4527"/>
<path d="M30.8765 134.439C30.8765 134.341 30.8765 134.341 30.9732 134.244C30.9732 134.244 30.9732 134.146 31.0699 133.951C31.1667 133.366 31.2634 132.976 31.2634 132.976C31.3602 132.878 31.3602 132.488 31.5536 132C31.8439 131.122 32.0373 130.439 32.1341 130.244C32.5211 129.073 32.908 128.195 32.908 128.098C33.8754 125.756 34.6493 121.854 34.8428 120.976C35.4233 118.341 35.6167 116.293 35.8102 114.634C36.2939 109.073 36.1004 96.5854 36.1004 94.5366C36.1004 94.439 36.1004 94.2439 36.1004 94.2439C36.0037 92.4878 36.0037 86.3415 36.3907 76C36.3907 75.7073 36.4874 75.1219 36.4874 74.439C36.4874 73.7561 36.4874 73.4634 36.4874 73.0732C36.4874 71.7073 36.5841 71.3171 36.5841 70.0488C36.5841 69.561 36.5841 68.6829 36.4874 67.8049C36.6809 68.4878 36.9711 69.3658 37.3581 70.6341C38.132 72.878 38.8092 74.3415 38.9059 74.7317C39.5831 76.3902 40.2603 79.3171 39.6798 85.3658C39.6798 85.3658 40.1635 131.61 34.9396 135.024C34.6493 135.219 34.2624 135.415 34.2624 135.415C34.2624 135.415 33.4885 135.902 32.521 136C32.521 136 32.2308 136.098 31.9406 136C31.9406 136 31.7471 136 31.5536 135.902C31.4569 135.902 31.4569 135.805 31.4569 135.805L31.3602 135.707C31.2634 135.61 31.2634 135.61 31.1667 135.512C31.1667 135.512 31.1667 135.415 31.0699 135.415C31.0699 135.317 31.0699 135.317 30.9732 135.317C30.9732 135.219 30.9732 135.024 30.9732 134.829C30.8765 134.732 30.8765 134.634 30.8765 134.439Z" fill="#503A23"/>
<path d="M73.0552 32.2927C73.7324 29.9512 74.1193 27.5122 74.1193 24.9756C74.1193 11.2195 63.091 0 49.3538 0C35.6167 0 24.5883 11.2195 24.5883 24.9756C24.5883 27.3171 24.8785 29.561 25.459 31.6098C25.3623 31.6098 25.3623 31.6098 25.2655 31.6098C11.6251 31.7073 0.5 42.8293 0.5 56.6829C0.5 70.5366 11.6251 81.6585 25.2655 81.6585C34.2624 81.6585 42.0983 76.7805 46.4516 69.561C50.8049 76.7805 58.6409 81.6585 67.6378 81.6585C81.2781 81.6585 92.4033 70.439 92.4033 56.6829C92.5 44.6829 84.1803 34.7317 73.0552 32.2927Z" fill="#00742C"/>
<path d="M35.8102 4.09756C35.8102 4.09756 35.7135 4.19513 35.2298 4.48781C34.4558 5.07317 34.3591 5.17074 34.3591 5.17074C33.7787 5.65854 33.1015 6.14635 32.908 6.34147C32.4243 6.73171 28.8449 9.85366 26.5231 15.5122C25.9427 16.9756 25.5557 18.2439 25.3623 19.3171C25.3623 19.3171 24.7818 21.8537 24.6851 24.9756C24.6851 26.0488 24.7818 26.9268 24.7818 26.9268C24.8786 28.5854 25.1688 30.1463 25.6525 31.6098C25.5557 31.6098 25.5557 31.6098 25.459 31.6098C11.6251 31.7073 0.5 42.8293 0.5 56.6829C0.5 70.5366 11.6251 81.6585 25.2655 81.6585C34.2624 81.6585 42.0983 76.7805 46.4516 69.561C50.8049 76.7805 58.6409 81.6585 67.6378 81.6585C68.8954 81.6585 68.9921 81.3659 69.0889 81.2683C69.2823 80.6829 61.2529 76.8781 56.4159 72.2927C50.031 66.3415 50.6115 60.5854 47.0321 60.1951C43.9364 59.9024 43.1625 64.1951 38.0352 67.2195C32.6178 70.439 22.9437 71.9024 17.0426 66.2439C12.786 62.2439 11.7219 55.6098 13.2697 50.439C15.3013 44 21.3959 40.8781 22.1698 40.5854C27.2971 38.1463 32.2308 39.0244 32.908 36.5854C33.1015 35.8049 32.7145 35.5122 31.9406 33.2683C31.9406 33.2683 30.3927 29.0732 29.909 24.4878C29.7156 22.9268 29.5221 20 30.3927 16.5854C31.3601 13.0732 33.4884 8.97561 34.4558 7.02439C34.6493 6.73171 36.0037 4.19513 35.8102 4.09756Z" fill="#03622A"/>
</svg>
