<svg width="176" height="96" viewBox="0 0 176 96" fill="none" xmlns="http://www.w3.org/2000/svg">
<g clip-path="url(#clip0_2438_7171)">
<path d="M28.1116 30.3472C15.8902 33.9115 5.72239 37.0342 2.13991 45.7905C0.140213 50.7442 0.140213 56.2801 2.13991 61.2338C3.34364 63.9161 5.14304 66.2889 7.40141 68.172C16.9956 76.3992 26.5993 70.6372 42.7766 77.1247C47.7204 79.1073 46.4824 79.537 56.2101 84.1749C62.3992 87.1468 68.7532 89.7623 75.2411 92.0083C103.39 101.345 137.547 89.6759 139.499 88.9869C142.497 87.9281 149.52 84.3269 163.567 77.1246C171.257 73.1819 173.682 71.789 174.762 68.8435C177.591 61.1329 168.118 51.2122 163.903 46.7977C157.275 39.9581 149.259 34.6161 140.394 31.1306C127.83 25.9883 117.838 25.5016 97.8544 24.528C86.545 24.0316 75.2154 24.2558 63.9345 25.1995C41.3835 27.0626 31.745 29.2876 28.1116 30.3472Z" fill="#337C32"/>
<path d="M73.441 21.2084C73.5673 21.6232 73.632 21.8608 73.672 22.0455C73.7199 22.251 73.752 22.4148 73.7764 22.5576C73.7764 22.5576 73.8329 22.8642 73.8576 23.1769C73.9087 24.3228 73.8653 25.4709 73.7279 26.6096C73.6645 27.1418 73.5698 27.8502 73.4179 28.6915L74.0089 28.7619C74.1616 28.0829 74.2745 27.3955 74.3471 26.7033C74.4485 25.8451 74.4823 24.9803 74.4484 24.1168C74.4391 23.7167 74.4002 23.3179 74.3322 22.9236C74.2635 22.5456 74.1764 22.2354 74.1353 22.0606C74.0984 21.9363 74.0348 21.6888 73.9376 21.3774C73.7779 20.8913 73.5896 20.415 73.3737 19.9511C73.3264 19.8289 73.2678 19.7115 73.1984 19.6004C73.0138 19.3286 72.777 19.0605 72.7215 19.0939C72.6897 19.1001 72.73 19.1949 72.8924 19.6539C72.9563 19.8115 72.9932 19.9358 73.0257 20.0096C73.2061 20.4909 73.3437 20.897 73.441 21.2084Z" fill="#337C32"/>
<path d="M77.2885 20.227C77.4564 20.058 77.6341 19.8989 77.8206 19.7507C78.0007 19.5976 78.1934 19.4601 78.3966 19.3395C78.4637 19.2975 78.5295 19.2653 78.5852 19.232C78.653 19.1934 78.7227 19.1584 78.794 19.1269C78.9169 19.0627 79.0443 19.0077 79.1754 18.9624C79.2835 18.9246 79.3942 18.8944 79.5065 18.8719C79.6233 18.8458 79.6664 18.8309 79.6981 18.8247C79.7909 18.813 79.8847 18.8107 79.978 18.818C80.0827 18.826 80.1847 18.8552 80.2777 18.9037C80.1788 18.8935 80.0794 18.8883 79.98 18.8882C79.8146 18.8885 79.675 18.9319 79.5085 18.9421C79.4163 18.963 79.3263 18.9924 79.2396 19.03C79.1006 19.0897 78.9649 19.157 78.8333 19.2315C78.6891 19.3143 78.6119 19.3551 78.5119 19.4131C78.4336 19.4638 78.3552 19.5144 78.2654 19.5737C78.0166 19.754 77.8438 19.9033 77.7176 20.0083C77.6585 20.0712 77.4618 20.2476 77.2251 20.4993C77.0324 20.704 76.8515 20.9194 76.6832 21.1445C76.4622 21.438 76.3106 21.6699 76.1852 21.8548C76.0712 22.0311 75.9184 22.2728 75.7221 22.6193C75.5772 22.8819 75.4835 23.0606 75.3339 23.3627C75.1945 23.6659 75.1247 23.8175 75.0401 24.0073C74.9359 24.2747 74.9575 24.2673 74.8098 24.6395C74.7628 24.7739 74.693 24.9255 74.6014 25.1745C74.5693 25.2706 74.5544 25.3088 74.5384 25.3568C74.4454 25.6158 74.369 25.8805 74.3096 26.1492C74.2807 26.3057 74.2689 26.4042 74.2031 26.4363C74.1747 26.4455 74.1441 26.4458 74.1156 26.437C74.0871 26.4282 74.0619 26.4109 74.0436 26.3874C73.9534 26.2767 74.0709 26.0708 74.2613 25.5138C74.36 25.2057 74.3522 25.1847 74.461 24.8779C74.4783 24.82 74.5515 24.6388 74.6545 24.3812C74.7987 24.0386 74.9209 23.7932 75.058 23.5097C75.1963 23.2163 75.3323 22.9427 75.5422 22.5679C75.6347 22.399 75.7648 22.1746 75.9552 21.8774C76.1581 21.5617 76.329 21.3422 76.5123 21.1042C76.6718 20.8933 76.7697 20.765 76.9245 20.5935C77.0781 20.4319 77.1952 20.3159 77.2885 20.227Z" fill="#5F852D"/>
<path d="M78.3881 21.7572C78.5668 21.7452 78.7463 21.7631 78.9191 21.8104C79.0931 21.8419 79.2639 21.8889 79.4294 21.9511C79.2783 21.8497 79.114 21.7696 78.9411 21.713C78.7843 21.648 78.6172 21.6112 78.4476 21.6043C78.2635 21.5933 78.0788 21.6153 77.9025 21.6694C77.7203 21.719 77.543 21.7848 77.3726 21.8662C76.7616 22.2127 76.2176 22.6659 75.7664 23.2042C75.3681 23.674 75.0289 24.1908 74.7564 24.7431C74.6945 24.9156 74.6225 25.087 74.6225 25.087C74.6212 25.0968 74.5434 25.3174 74.472 25.5688C74.3194 26.1435 74.2016 26.727 74.1193 27.3159C74.0559 27.7922 74.0195 28.2717 74.0103 28.7522C74.1428 28.768 74.2968 28.7763 74.4395 28.7933C74.4414 28.6035 74.4445 28.404 74.4475 28.2045C74.4635 27.8966 74.4761 27.6182 74.5089 27.3423C74.521 27.1538 74.5379 26.9259 74.5809 26.6512C74.607 26.4105 74.6492 26.1718 74.7072 25.9367C74.8403 25.1824 75.1555 24.472 75.6255 23.8671C75.8312 23.5749 76.0576 23.2979 76.3029 23.0382C76.6419 22.7087 76.8954 22.489 77.0682 22.3397C77.1728 22.242 77.287 22.1551 77.4091 22.0804C77.5519 21.9851 77.7069 21.9094 77.87 21.8554C78.034 21.7871 78.2104 21.7536 78.3881 21.7572Z" fill="#337C32"/>
<path d="M76.224 17.9715C75.961 18.4434 75.7333 18.9341 75.5427 19.4396C75.3582 19.9474 75.2627 20.3158 75.0199 21.2264C74.9588 21.479 74.9024 21.6922 74.8484 21.8856C74.7124 22.4191 74.5582 23.0205 74.4971 23.273C74.3683 23.7475 74.1952 24.5064 73.9619 25.5981C73.848 26.2941 73.7391 26.8609 73.6502 27.26C73.6213 27.4165 73.3754 28.5266 73.6016 28.6235C73.6841 28.6476 73.7685 28.6643 73.854 28.6735C73.908 28.6841 73.9633 28.6873 74.0182 28.6831C74.1679 28.6409 74.1851 28.3231 74.1972 28.1347C74.2246 27.8181 74.2746 27.4842 74.302 27.1677C74.3118 26.999 74.3662 26.7156 74.4625 26.1673C74.5564 25.6388 74.5678 25.6302 74.7612 24.6137C74.8215 24.2811 74.89 23.8795 74.9941 23.3522C75.0474 23.0787 75.0787 22.9025 75.1006 22.8052C75.2838 21.7875 75.3996 21.1616 75.5735 20.4827C75.8336 19.5142 76.1681 18.6145 76.2264 18.4715C76.3736 18.1619 76.4852 17.8365 76.559 17.5017C76.5092 17.4857 76.2843 17.8987 76.224 17.9715Z" fill="#337C32"/>
<path d="M71.9117 19.8952C71.9331 20.0781 71.9384 20.1238 71.9902 20.5085C72.0542 20.9978 72.0534 20.9913 72.0794 21.2134C72.1587 21.8333 72.182 21.9167 72.2528 22.4647C72.2939 22.7579 72.2954 22.771 72.3451 23.1957C72.3915 23.5347 72.442 23.9659 72.515 24.4739C72.5601 24.8594 72.6064 25.3706 72.6308 25.9836C72.7781 25.973 72.9248 25.9559 73.0714 25.9388C73.0433 25.3526 73.0043 24.8472 72.9636 24.4413C72.8922 23.7145 72.8451 23.1968 72.734 22.5939C72.6789 22.2957 72.6311 22.0032 72.576 21.705C72.5367 21.4844 72.5311 21.3791 72.4872 21.1193C72.4463 20.8857 72.4328 20.8276 72.3777 20.5294C72.3156 20.1724 72.3126 20.1463 72.2702 19.8996C72.2143 19.5948 72.1711 19.3416 72.0967 19.0522C72.0313 18.7817 71.8669 18.185 71.801 18.1994C71.7649 18.4894 71.772 18.7832 71.822 19.0711C71.8444 19.3202 71.8681 19.5228 71.9117 19.8952Z" fill="#5F852D"/>
<path d="M71.3638 20.7539C71.524 21.0265 71.6097 21.1821 71.6642 21.3015C71.7269 21.4333 71.7807 21.5462 71.8188 21.6411C71.8188 21.6411 71.9032 21.8432 71.9759 22.0599C72.2003 22.8527 72.3605 23.6623 72.455 24.4808C72.5001 24.8663 72.5531 25.3767 72.5909 25.9882L73.0107 25.9391C73.0043 25.4383 72.9683 24.9382 72.903 24.4416C72.8276 23.8251 72.7066 23.215 72.5408 22.6163C72.4686 22.3381 72.3757 22.0656 72.2631 21.8011C72.1525 21.5491 72.0473 21.3428 71.9869 21.2307C71.9437 21.1496 71.8572 20.9876 71.7394 20.7894C71.551 20.4758 71.342 20.175 71.114 19.8889C71.06 19.8115 70.9995 19.7388 70.9332 19.6717C70.7659 19.5124 70.5528 19.3651 70.5226 19.3952C70.5041 19.4106 70.5443 19.4655 70.7342 19.7612C70.7998 19.8595 70.8497 19.9397 70.8824 19.9889C71.0873 20.2961 71.246 20.5557 71.3638 20.7539Z" fill="#337C32"/>
<path d="M73.4031 21.615C73.4192 21.5799 73.439 21.518 73.4639 21.4423C73.5386 21.215 73.5607 21.1726 73.5466 21.1677C73.5243 21.1504 73.4048 21.2836 73.3194 21.4194C73.2826 21.4717 73.2529 21.5286 73.2311 21.5887C73.1262 21.8171 73.0341 22.0512 72.9552 22.2899C72.9054 22.4414 72.8725 22.5644 72.8594 22.6256C72.8419 22.7071 72.7995 22.8644 72.7676 23.0536C72.7334 23.2485 72.7135 23.4456 72.7083 23.6433C72.6928 24.0703 72.709 24.4979 72.7566 24.9225C72.7951 25.2652 72.8507 25.6057 72.9232 25.9428L73.1964 25.9109C73.1638 25.6895 73.1174 25.3506 73.0623 24.8802C72.9927 24.3181 72.9716 23.7511 72.9991 23.1855C73.0149 23.0313 73.038 22.8829 73.038 22.8829C73.0463 22.7984 73.0614 22.7147 73.083 22.6326C73.1064 22.5437 73.1334 22.428 73.1971 22.2218C73.247 22.0703 73.3114 21.8707 73.4031 21.615Z" fill="#337C32"/>
<path d="M155.769 47.1194C161.071 51.406 168.337 57.597 167.524 64.577C165.508 81.8931 115.53 87.4552 112.782 87.7418C103.618 88.6977 82.7733 90.6372 61.3987 81.3631C55.0612 78.6134 55.4223 77.8044 48.9727 75.3201C28.0597 67.2646 15.7132 72.4758 8.33597 63.9055C5.40465 60.5 2.98802 54.6051 4.30589 49.4694C9.03711 31.032 59.9287 30.1528 81.5491 29.6618C129.119 28.5812 147.698 40.5929 155.769 47.1194Z" fill="#5189C8"/>
<path d="M136.963 42.4191C139.78 44.7711 149.544 52.9207 148.045 61.2197C145.621 74.6495 115.526 78.3993 107.178 79.4393C99.2397 80.4283 82.6859 82.2838 66.6043 74.145C61.3478 71.4848 62.403 70.9255 57.3688 68.6056C40.2087 60.6981 27.6233 67.0465 22.2899 60.0665C19.4038 56.2893 19.9178 50.2797 21.6017 46.4478C26.7639 34.7008 47.1681 33.7532 77.8549 32.6832C121.053 31.1768 131.796 38.1067 136.963 42.4191Z" fill="#5693CB"/>
<path d="M121.47 42.0969C125.984 44.5413 130.391 47.0019 130.717 50.8267C131.369 58.4783 115.352 67.6222 101.268 69.3937C88.0144 71.0608 75.2283 66.3553 73.229 65.5981C68.903 63.9599 68.2046 63.094 63.6785 61.7731C52.6335 58.5496 47.1373 60.8883 43.7877 57.0443C41.2429 54.1239 41.0576 48.921 42.7361 45.3399C46.2034 37.9423 57.7572 37.1789 78.7465 36.0595C103.188 34.7561 113.608 37.8396 121.47 42.0969Z" fill="#68A4D6"/>
<path d="M10.0236 62.6841C10.0742 62.8612 10.0869 62.9055 10.2 63.2768C10.3421 63.7493 10.3402 63.743 10.4017 63.9581C10.5799 64.5571 10.6163 64.6357 10.7746 65.1651C10.8623 65.4479 10.866 65.4606 10.9835 65.8716C11.0839 66.1987 11.2032 66.6161 11.3571 67.1059C11.4637 67.479 11.5918 67.9761 11.7148 68.5771C11.8585 68.543 12.0004 68.5025 12.1424 68.4619C12.0202 67.8879 11.9003 67.3954 11.7947 67.0014C11.607 66.2957 11.4771 65.7922 11.2703 65.2151C11.1678 64.9297 11.0735 64.6488 10.971 64.3633C10.8967 64.1519 10.8742 64.0489 10.789 63.7996C10.711 63.5755 10.6883 63.5205 10.5858 63.235C10.467 62.8927 10.4598 62.8674 10.3782 62.6307C10.2739 62.3389 10.1905 62.096 10.0704 61.8224C9.96221 61.566 9.70381 61.0035 9.64111 61.0283C9.65221 61.3203 9.70651 61.6092 9.80231 61.8853C9.86461 62.1275 9.92061 62.3236 10.0236 62.6841Z" fill="#5F852D"/>
<path d="M9.6212 63.62C9.8233 63.8632 9.933 64.003 10.006 64.1122C10.0892 64.232 10.1604 64.3349 10.2133 64.4223C10.2133 64.4223 10.3292 64.6082 10.4358 64.8103C10.7851 65.5566 11.0737 66.3299 11.299 67.1225C11.4056 67.4956 11.5401 67.9909 11.676 68.5882L12.0824 68.4722C11.9954 67.979 11.8793 67.4912 11.7348 67.0117C11.561 66.4153 11.3432 65.8326 11.0832 65.2685C10.967 65.0055 10.8314 64.7516 10.6776 64.5087C10.5279 64.2778 10.3908 64.0912 10.3131 63.9902C10.2574 63.9172 10.1459 63.7712 9.99769 63.5945C9.7612 63.3154 9.5065 63.0522 9.23528 62.8066C9.16953 62.739 9.09813 62.6769 9.02184 62.6213C8.83112 62.491 8.59706 62.3801 8.57203 62.4146C8.5563 62.4328 8.60481 62.4804 8.83994 62.7417C8.92047 62.8281 8.98268 62.8993 9.02296 62.9426C9.27456 63.2128 9.473 63.4434 9.6212 63.62Z" fill="#337C32"/>
<path d="M11.7725 64.1412C11.7828 64.1041 11.7924 64.0398 11.8047 63.961C11.8418 63.7246 11.8568 63.6793 11.8421 63.6766C11.8173 63.6632 11.7208 63.8139 11.6584 63.9617C11.6305 64.0192 11.6104 64.0802 11.5986 64.1429C11.5319 64.3854 11.4787 64.6312 11.4393 64.8795C11.4145 65.037 11.4019 65.1638 11.3988 65.2263C11.3947 65.3095 11.3782 65.4716 11.3772 65.6634C11.3749 65.8612 11.3871 66.059 11.4137 66.255C11.4673 66.6789 11.5522 67.0983 11.6676 67.5096C11.7608 67.8417 11.8706 68.1688 11.9966 68.4898L12.2611 68.4143C12.1932 68.2011 12.0927 67.874 11.9626 67.4186C11.8033 66.8752 11.691 66.319 11.627 65.7563C11.6177 65.6015 11.6167 65.4514 11.6167 65.4514C11.6112 65.3666 11.6126 65.2815 11.6207 65.1971C11.6295 65.1056 11.6375 64.987 11.6671 64.7733C11.6918 64.6158 11.7233 64.4083 11.7725 64.1412Z" fill="#337C32"/>
<path d="M11.7447 63.7338C11.9362 64.1229 12.0384 64.347 12.1076 64.5228C12.188 64.718 12.2461 64.8743 12.2932 65.0115C12.2932 65.0115 12.3983 65.3049 12.4732 65.6096C12.7083 66.7322 12.8505 67.8723 12.8984 69.0183C12.9217 69.5537 12.9424 70.2681 12.9281 71.123L13.5228 71.0972C13.564 70.4024 13.5647 69.7059 13.5247 69.011C13.4864 68.1477 13.3804 67.2888 13.2078 66.442C13.1341 66.0487 13.0314 65.6613 12.9007 65.2831C12.772 64.9211 12.6361 64.629 12.5673 64.4631C12.5108 64.3463 12.4082 64.1124 12.262 63.8207C12.0261 63.3667 11.7635 62.9269 11.4756 62.5038C11.4093 62.3908 11.3324 62.2845 11.2461 62.1859C11.02 61.9474 10.7431 61.721 10.6936 61.7628C10.6633 61.7741 10.7184 61.8611 10.9527 62.2881C11.0411 62.4332 11.0976 62.55 11.1416 62.6176C11.3972 63.0635 11.5985 63.4421 11.7447 63.7338Z" fill="#337C32"/>
<path d="M15.3837 62.1455C15.5221 61.9516 15.6718 61.766 15.832 61.5897C15.9851 61.4095 16.1531 61.2428 16.3342 61.091C16.3936 61.0387 16.4534 60.9965 16.5029 60.9546C16.5636 60.9056 16.6268 60.8597 16.6921 60.8172C16.803 60.7341 16.9199 60.6592 17.042 60.5934C17.1426 60.5387 17.2469 60.491 17.3541 60.4508C17.4652 60.4062 17.5053 60.3846 17.5357 60.3734C17.6254 60.3468 17.7175 60.3295 17.8108 60.3217C17.9154 60.3127 18.0208 60.325 18.1205 60.3579C18.0212 60.3638 17.9222 60.3747 17.824 60.3907C17.6608 60.4176 17.5301 60.4828 17.3674 60.5197C17.2798 60.5552 17.1957 60.5987 17.1162 60.6498C16.9886 60.7311 16.8656 60.8193 16.7477 60.9141C16.6187 61.0191 16.5491 61.0717 16.4598 61.1452C16.3906 61.2078 16.3214 61.2704 16.2424 61.3433C16.0259 61.5614 15.8794 61.7366 15.7718 61.8605C15.7236 61.932 15.5578 62.138 15.3649 62.4245C15.2077 62.6575 15.0639 62.8992 14.9341 63.1484C14.7634 63.4737 14.6511 63.727 14.5572 63.9297C14.4731 64.122 14.3612 64.3851 14.2233 64.7587C14.1226 65.0412 14.059 65.2327 13.96 65.5549C13.8713 65.8766 13.8269 66.0375 13.774 66.2385C13.7142 66.5192 13.7343 66.5084 13.6486 66.8995C13.6238 67.0397 13.5794 67.2005 13.5291 67.461C13.5129 67.5611 13.5044 67.6012 13.4963 67.6512C13.4463 67.9218 13.4136 68.1953 13.3983 68.47C13.3949 68.6291 13.3992 68.7283 13.3394 68.7706C13.3129 68.7843 13.2828 68.7894 13.2532 68.7854C13.2236 68.7813 13.196 68.7683 13.1741 68.748C13.0673 68.6533 13.1501 68.4311 13.2482 67.8507C13.2959 67.5307 13.2848 67.5113 13.3428 67.1909C13.3504 67.1311 13.3935 66.9404 13.4537 66.6696C13.5407 66.3083 13.6218 66.0463 13.7114 65.7445C13.8006 65.4327 13.8907 65.1407 14.0375 64.737C14.1015 64.5554 14.1937 64.313 14.3338 63.989C14.4832 63.6448 14.6164 63.4006 14.759 63.1361C14.8824 62.9023 14.9584 62.7599 15.0834 62.5658C15.209 62.3816 15.306 62.2482 15.3837 62.1455Z" fill="#5F852D"/>
<path d="M16.7155 63.4785C16.89 63.4379 17.07 63.4267 17.2482 63.4455C17.4249 63.4485 17.601 63.4675 17.7744 63.5021C17.6089 63.4265 17.4338 63.3739 17.2541 63.3458C17.0889 63.307 16.9181 63.2976 16.7496 63.318C16.5661 63.3368 16.3874 63.3883 16.2221 63.4701C16.0503 63.5484 15.8859 63.6419 15.7309 63.7497C15.1837 64.1901 14.7198 64.7249 14.3613 65.3289C14.044 65.8567 13.7925 66.4214 13.6125 67.0104C13.5793 67.1907 13.5358 67.3714 13.5358 67.3714C13.5362 67.3813 13.4948 67.6116 13.465 67.8711C13.4069 68.4629 13.3847 69.0577 13.3985 69.6522C13.4127 70.1325 13.454 70.6116 13.5224 71.0872C13.6557 71.0814 13.809 71.0649 13.9525 71.0586C13.9239 70.8711 13.8948 70.6737 13.8657 70.4763C13.8318 70.1698 13.7993 69.8931 13.7872 69.6155C13.7688 69.4275 13.7486 69.1999 13.7469 68.9218C13.7339 68.68 13.7371 68.4376 13.7565 68.1962C13.7662 67.4304 13.9628 66.6785 14.3292 66.0059C14.4851 65.6844 14.6639 65.3745 14.8642 65.0786C15.1456 64.699 15.3604 64.4412 15.5068 64.266C15.5943 64.1527 15.693 64.0487 15.8015 63.9552C15.9271 63.8382 16.0678 63.7385 16.22 63.6589C16.3709 63.5651 16.5396 63.5036 16.7155 63.4785Z" fill="#337C32"/>
<path d="M13.9695 60.091C13.786 60.5991 13.6404 61.12 13.5338 61.6496C13.4336 62.1804 13.3987 62.5595 13.3058 63.4972C13.2863 63.7563 13.265 63.9759 13.2428 64.1755C13.1947 64.7239 13.1393 65.3423 13.1198 65.6014C13.0691 66.0903 13.0206 66.8672 12.9663 67.9822C12.9661 68.6876 12.95 69.2643 12.9267 69.6727C12.9233 69.8317 12.8596 70.967 13.0984 71.0262C13.1837 71.0366 13.2698 71.0395 13.3556 71.0349C13.4106 71.0366 13.4656 71.0308 13.5192 71.0178C13.6601 70.9521 13.6259 70.6358 13.6074 70.4478C13.5834 70.1309 13.579 69.7934 13.555 69.4766C13.5375 69.3084 13.5455 69.02 13.5521 68.4634C13.5597 67.9266 13.5695 67.9163 13.5965 66.882C13.6024 66.544 13.6053 66.1366 13.623 65.5994C13.6315 65.3209 13.634 65.1419 13.64 65.0424C13.6567 64.0085 13.6702 63.3722 13.7324 62.6741C13.8329 61.6764 14.018 60.7345 14.0525 60.5841C14.1479 60.2547 14.2055 59.9156 14.2244 59.5733C14.1727 59.5656 14.0173 60.0095 13.9695 60.091Z" fill="#337C32"/>
<path d="M21.4928 63.9798C21.5138 63.8995 21.5303 63.7674 21.5693 63.5971C21.6578 63.1049 21.6833 63.0021 21.6488 63.0013C21.5842 62.9771 21.3829 63.289 21.2372 63.5958C21.1841 63.7201 21.1435 63.8489 21.1156 63.9806C20.9715 64.487 20.8588 65.0011 20.7779 65.5202C20.7314 65.8519 20.709 66.1131 20.6925 66.2452C20.6805 66.429 20.6445 66.7577 20.6402 67.1518C20.6394 67.5622 20.6701 67.9722 20.7321 68.3784C20.8516 69.2575 21.0427 70.1262 21.3038 70.9766C21.5047 71.664 21.7472 72.3397 22.0301 73L22.6401 72.8269C22.3288 72.0022 22.1018 71.3022 21.9393 70.775C21.5899 69.6472 21.3378 68.4937 21.1856 67.3262C21.1555 67.0056 21.1599 66.6859 21.1599 66.6859C21.1599 66.5372 21.1643 66.3661 21.1778 66.15C21.1868 65.9563 21.2122 65.705 21.2708 65.2638C21.3172 64.9319 21.3892 64.4976 21.4928 63.9798Z" fill="#337C32"/>
<path d="M17.7018 65.3091C17.8979 65.4636 18.0256 65.5825 18.2338 65.7782C18.4724 65.9985 18.6943 66.2013 18.9679 66.5008C19.2248 66.7828 19.4042 66.9983 19.5334 67.1614C19.8252 67.5226 20.0198 67.7894 20.2204 68.0769C20.418 68.354 20.5928 68.5932 20.8087 68.932C20.9653 69.1877 21.0762 69.3674 21.1051 69.426C21.2769 69.7332 21.2723 69.7569 21.4335 70.0671C21.7376 70.626 21.9002 70.8241 21.8243 70.9583C21.809 70.9867 21.7853 71.0098 21.7565 71.0243C21.7277 71.0388 21.6951 71.0441 21.6632 71.0395C21.5872 71.0172 21.5568 70.9143 21.4975 70.7529C21.3854 70.4774 21.2559 70.2094 21.1098 69.9503C21.084 69.902 21.0612 69.864 21.0095 69.7675C20.8666 69.5188 20.7647 69.37 20.6903 69.2354C20.4653 68.8657 20.4896 68.8697 20.33 68.6037C20.2053 68.4168 20.1035 68.268 19.8998 67.9703C19.6855 67.6757 19.5532 67.5023 19.3511 67.2489C19.079 66.9154 18.8723 66.6857 18.7187 66.5185C18.5516 66.3442 18.3479 66.1248 18.0591 65.8523C17.8389 65.6429 17.607 65.4463 17.3645 65.2634C17.0666 65.0382 16.825 64.8859 16.7505 64.8296C16.5971 64.7408 16.3858 64.613 16.0879 64.4662C15.9815 64.4193 15.8889 64.3796 15.7961 64.3399C15.6791 64.2961 15.5895 64.2667 15.4208 64.2048C15.267 64.1493 15.1102 64.1022 14.9513 64.0639C14.8522 64.0395 14.7509 64.0245 14.6489 64.019C14.4696 64.0384 14.3131 64.0176 14.1369 64.0473C14.0309 64.0655 13.9259 64.089 13.8223 64.1179C13.9127 64.0493 14.0161 63.9997 14.1262 63.9721C14.2242 63.9475 14.3245 63.9328 14.4255 63.9285C14.4605 63.9294 14.5091 63.9373 14.6383 63.9439C14.7621 63.9475 14.8854 63.9596 15.0075 63.9801C15.1552 64.0046 15.301 64.04 15.4436 64.0862C15.5253 64.1067 15.606 64.1314 15.6852 64.1602C15.7505 64.1856 15.8265 64.2079 15.9056 64.2405C16.144 64.332 16.3743 64.4436 16.5939 64.5739C16.8196 64.698 17.0378 64.8352 17.2475 64.9848C17.3629 65.0625 17.5088 65.1647 17.7018 65.3091Z" fill="#5F852D"/>
<path d="M17.2819 67.1772C17.4651 67.2013 17.6438 67.2465 17.8131 67.3115C17.9565 67.3609 18.0938 67.4227 18.2228 67.4959C18.4337 67.6058 18.7434 67.7675 19.1637 68.0165C19.472 68.2162 19.7631 68.4347 20.035 68.6704C20.6448 69.1513 21.109 69.7532 21.3876 70.4236C21.492 70.63 21.5803 70.8423 21.6518 71.0588C21.7475 71.3039 21.8067 71.5101 21.8537 71.6809C21.9388 71.9287 22.0026 72.1819 22.0755 72.4616C22.1151 72.6441 22.1546 72.8265 22.1911 73C22.3397 72.9621 22.502 72.9304 22.6401 72.8953C22.5432 72.4564 22.4173 72.0225 22.2635 71.5959C22.069 71.069 21.8378 70.5527 21.571 70.0498C21.4496 69.8306 21.3266 69.6405 21.3235 69.6317C21.3235 69.6317 21.2158 69.4859 21.1186 69.3375C20.7285 68.8738 20.2738 68.4531 19.7647 68.0848C19.187 67.6619 18.526 67.3315 17.813 67.1095C17.617 67.0615 17.4164 67.0288 17.2136 67.0119C17.0161 66.9898 16.8157 66.9985 16.6218 67.0374C16.4425 67.0703 16.2716 67.1301 16.1165 67.2141C15.9428 67.2931 15.7824 67.3922 15.6401 67.5086C15.8049 67.4259 15.9781 67.356 16.1574 67.3C16.3328 67.2296 16.5204 67.1851 16.7129 67.1682C16.9012 67.1372 17.0949 67.1403 17.2819 67.1772Z" fill="#337C32"/>
<path d="M17.6401 62.0012C17.7734 62.3309 17.9434 62.6444 18.147 62.9357C18.2313 63.0718 18.7281 63.9341 19.1611 64.8799C19.4559 65.5442 19.6826 66.1645 20.0459 67.1739C20.0851 67.2697 20.1476 67.4445 20.2493 67.7151C20.4469 68.2366 20.5863 68.6356 20.7055 68.9654C21.0789 69.9719 21.092 69.9787 21.2795 70.5032C21.4727 71.0474 21.5773 71.3279 21.6165 71.4989C21.6993 71.818 21.8084 72.1509 21.8912 72.4701C21.9362 72.6609 22.0089 72.983 22.1687 73C22.2253 72.9947 22.281 72.9819 22.3342 72.9616C22.4195 72.9373 22.5027 72.9054 22.5825 72.8664C22.7958 72.7278 22.3527 71.6347 22.2961 71.4797C22.1362 71.0867 21.9271 70.5256 21.6902 69.8332C21.263 68.7569 20.955 68.0104 20.7414 67.5474C20.6355 67.2996 20.3739 66.7112 20.1429 66.189C20.0543 66.0004 19.9599 65.7921 19.8538 65.5443C19.4485 64.6548 19.2873 64.2945 19.0112 63.8071C18.7295 63.323 18.4125 62.8606 18.0628 62.4236C17.9887 62.3596 17.688 61.9762 17.6401 62.0012Z" fill="#337C32"/>
<path d="M22.6668 65.702C22.8726 66.0407 22.9838 66.2365 23.0611 66.391C23.15 66.5622 23.2156 66.6999 23.2695 66.8209C23.2695 66.8209 23.389 67.0797 23.4818 67.3511C23.7867 68.3542 24.0084 69.3808 24.1447 70.4204C24.2092 70.9061 24.2858 71.5547 24.342 72.3344L24.8813 72.2628C24.8627 71.6269 24.807 70.9925 24.7144 70.3632C24.6097 69.5802 24.4437 68.8066 24.218 68.0495C24.1191 67.6974 23.9943 67.353 23.8447 67.0192C23.6983 66.7 23.5508 66.445 23.4748 66.2995C23.414 66.1978 23.3016 65.993 23.1449 65.7392C22.8933 65.3449 22.6187 64.9657 22.3224 64.6037C22.2528 64.5063 22.1743 64.4155 22.0877 64.3328C21.8625 64.1339 21.5921 63.9502 21.5504 63.9923C21.5237 64.005 21.5809 64.0797 21.8287 64.4495C21.921 64.5746 21.9819 64.6763 22.0274 64.7344C22.2962 65.1197 22.5101 65.4482 22.6668 65.702Z" fill="#337C32"/>
<path d="M25.8518 63.9618C25.9623 63.774 26.0836 63.593 26.2151 63.4194C26.3399 63.2431 26.4794 63.0777 26.6321 62.9248C26.6819 62.8725 26.733 62.8291 26.7747 62.787C26.826 62.7375 26.8798 62.6906 26.9359 62.6466C27.0301 62.5619 27.1305 62.4843 27.2363 62.4145C27.3235 62.3566 27.4146 62.3048 27.509 62.2594C27.6065 62.2099 27.6413 62.1869 27.668 62.1742C27.7476 62.1428 27.8301 62.1196 27.9143 62.105C28.0089 62.0883 28.1058 62.091 28.1993 62.1129C28.1093 62.1263 28.0201 62.1442 27.932 62.1667C27.7856 62.2044 27.6719 62.2745 27.5267 62.3212C27.4498 62.3605 27.3767 62.407 27.3085 62.4599C27.1989 62.5443 27.094 62.6345 26.9943 62.7304C26.8853 62.8364 26.8262 62.89 26.7508 62.964C26.6929 63.0266 26.635 63.0892 26.5689 63.162C26.3894 63.378 26.2702 63.5494 26.1822 63.6709C26.1441 63.7399 26.0099 63.9408 25.8573 64.2173C25.733 64.4421 25.6216 64.6739 25.5236 64.9113C25.3944 65.2213 25.3126 65.461 25.2435 65.6532C25.1825 65.8351 25.102 66.0837 25.0066 66.435C24.9378 66.7004 24.8953 66.8799 24.8312 67.1812C24.7764 67.4814 24.749 67.6314 24.7171 67.8187C24.6854 68.0791 24.7028 68.0677 24.6564 68.4308C24.6452 68.5603 24.6178 68.7103 24.5931 68.9517C24.5864 69.044 24.5819 69.0812 24.5785 69.1274C24.5549 69.3778 24.5472 69.6295 24.5555 69.8809C24.5653 70.0261 24.5772 70.1159 24.5262 70.1593C24.5032 70.1739 24.4762 70.181 24.4489 70.1797C24.4216 70.1784 24.3954 70.1688 24.3739 70.1521C24.2689 70.0745 24.3264 69.8655 24.3687 69.3291C24.3863 69.0339 24.3746 69.0172 24.4015 68.7207C24.4037 68.6656 24.4275 68.4885 24.4604 68.2371C24.5103 67.901 24.563 67.656 24.6202 67.3739C24.6762 67.0828 24.7346 66.8096 24.8356 66.4302C24.8792 66.2597 24.9436 66.0315 25.0449 65.7252C25.1531 65.3997 25.2546 65.1666 25.3631 64.9143C25.4565 64.6914 25.5142 64.5557 25.6124 64.3687C25.7119 64.1908 25.7894 64.0615 25.8518 63.9618Z" fill="#5F852D"/>
<path d="M27.1723 65.0678C27.3279 65.0168 27.4909 64.9921 27.6547 64.9948C27.8159 64.9833 27.9778 64.9863 28.1385 65.0039C27.9817 64.9483 27.818 64.9146 27.652 64.9036C27.4984 64.8816 27.3422 64.8868 27.1904 64.9191C27.0248 64.951 26.8663 65.0124 26.7224 65.1001C26.5723 65.1853 26.4301 65.2838 26.2977 65.3944C25.8351 65.8397 25.456 66.3642 25.1785 66.9431C24.9322 67.4493 24.749 67.9838 24.6328 68.5346C24.617 68.7014 24.592 68.8695 24.592 68.8695C24.5932 68.8785 24.5742 69.0915 24.568 69.3302C24.563 69.8738 24.5909 70.4171 24.6515 70.9573C24.7033 71.3935 24.7797 71.8264 24.8804 72.254C25.0012 72.2379 25.1395 72.2104 25.2696 72.1931C25.2283 72.0247 25.1859 71.8473 25.1434 71.6699C25.0878 71.3936 25.0358 71.1443 25.0024 70.8924C24.9704 70.7228 24.9336 70.5172 24.9096 70.2642C24.8782 70.0451 24.8615 69.824 24.8597 69.6027C24.8066 68.9046 24.9247 68.2041 25.2038 67.562C25.3198 67.2567 25.4575 66.9601 25.616 66.6746C25.8415 66.306 26.0162 66.054 26.1354 65.8827C26.2059 65.7725 26.2874 65.6696 26.3786 65.5759C26.4835 65.4591 26.6036 65.3569 26.7357 65.2723C26.8655 65.1745 27.0142 65.1049 27.1723 65.0678Z" fill="#337C32"/>
<path d="M24.3982 62.2053C24.2722 62.6827 24.1817 63.1688 24.1275 63.6597C24.0792 64.1511 24.0781 64.4991 24.0694 65.3605C24.0725 65.598 24.0709 65.7995 24.0669 65.9831C24.0674 66.4863 24.0671 67.0538 24.0702 67.2914C24.0636 67.7406 24.0823 68.4519 24.123 69.4716C24.1798 70.1138 24.2119 70.6403 24.2236 71.014C24.2334 71.1592 24.2672 72.1979 24.4894 72.2325C24.568 72.2351 24.6466 72.2308 24.7243 72.2196C24.7746 72.2167 24.8242 72.2071 24.8719 72.1909C24.9949 72.1197 24.9381 71.8343 24.9062 71.6647C24.8587 71.3782 24.8274 71.0712 24.7799 70.7846C24.7503 70.633 24.7343 70.3696 24.6953 69.8623C24.6588 69.373 24.6669 69.3628 24.6078 68.4189C24.5858 68.1106 24.5555 67.7394 24.5282 67.2489C24.5134 66.9946 24.5012 66.8314 24.4986 66.7403C24.4302 65.7976 24.391 65.2171 24.3912 64.5764C24.402 63.6599 24.4944 62.7874 24.5137 62.6475C24.5738 62.3399 24.5989 62.0266 24.5884 61.7133C24.5407 61.7105 24.4351 62.1272 24.3982 62.2053Z" fill="#337C32"/>
<path d="M22.7909 63.0075C22.762 62.6308 22.6775 62.2603 22.54 61.9083C22.4436 62.2879 22.41 62.6807 22.4406 63.0711C22.4394 63.4574 22.4658 63.7884 22.4926 64.1881C22.518 64.5108 22.5224 64.5445 22.5582 65.0116C22.5839 65.4028 22.5854 65.4798 22.6084 65.7856C22.636 66.1252 22.6625 66.2589 22.6833 66.5479C22.709 66.9391 22.7422 67.3208 22.7678 67.7119C22.8203 68.5029 22.9259 69.1666 23.0673 70.1002C23.1453 70.6217 23.2573 71.2675 23.4085 72.011C23.5976 71.9859 23.7868 71.9608 23.9748 71.9272C23.8106 71.1512 23.7061 70.4958 23.6401 69.9984C23.57 69.3385 23.4961 68.7821 23.4466 68.3426C23.3738 67.7946 23.3716 67.7777 23.3298 67.3973C23.2444 66.6879 23.2471 66.576 23.1494 65.7739C23.1113 65.4873 23.1124 65.4957 23.0371 64.8623C22.9797 64.3637 22.9719 64.3048 22.9405 64.0686C22.8767 63.5881 22.842 63.3267 22.7909 63.0075Z" fill="#5F852D"/>
<path d="M24.2604 63.8593C24.2859 63.7872 24.3229 63.6708 24.3738 63.5268C24.5179 63.0959 24.5508 63.0143 24.5228 63.0009C24.4753 62.9728 24.255 63.2251 24.0961 63.4779C24.0343 63.5831 23.9816 63.6934 23.9386 63.8076C23.7437 64.2386 23.5775 64.6819 23.441 65.1348C23.3564 65.4206 23.2996 65.6511 23.2711 65.7664C23.2311 65.9262 23.1648 66.2181 23.1064 66.5689C23.0493 66.9362 23.0195 67.3072 23.0175 67.6788C23.0001 68.4817 23.0423 69.2848 23.1438 70.0814C23.2199 70.7245 23.3338 71.3625 23.485 71.9922L24.0267 71.9203C23.8796 71.142 23.7838 70.4855 23.7177 69.9881C23.576 68.9323 23.5194 67.8668 23.5486 66.802C23.5707 66.5073 23.6123 66.2273 23.6123 66.2273C23.6299 66.0962 23.6613 65.9377 23.698 65.7526C23.7284 65.5856 23.7864 65.3634 23.9005 64.9708C23.9851 64.6851 24.1014 64.3093 24.2604 63.8593Z" fill="#337C32"/>
<path d="M22.0693 67.3929C22.2147 67.631 22.2853 67.7675 22.3428 67.8714C22.3961 67.9674 22.4416 68.0675 22.4788 68.1708C22.4788 68.1708 22.555 68.3494 22.6238 68.5376C22.8381 69.2378 22.9918 69.955 23.0833 70.6815C23.1638 71.2885 23.2134 71.7281 23.2429 72.0159L23.5954 71.9691C23.5792 71.5235 23.5406 71.0792 23.4799 70.6376C23.4046 70.0903 23.2889 69.5493 23.1338 69.019C23.0643 68.7729 22.9768 68.5322 22.872 68.2988C22.7719 68.0719 22.6688 67.8882 22.6209 67.7917C22.5851 67.7192 22.5047 67.5755 22.3941 67.4013C22.2194 67.1273 22.0295 66.8632 21.8254 66.6103C21.779 66.5419 21.7237 66.48 21.661 66.4262C21.5107 66.2831 21.3186 66.1542 21.2962 66.1829C21.2801 66.1937 21.3212 66.2396 21.4871 66.5008C21.5424 66.5878 21.5869 66.6591 21.6183 66.6979C21.8145 66.9892 21.9587 67.2189 22.0693 67.3929Z" fill="#337C32"/>
<path d="M72.8298 80.8255C72.8712 80.7487 72.9215 80.618 73.0038 80.4537C73.218 79.973 73.2696 79.8743 73.2359 79.8649C73.1788 79.8243 72.9008 80.0928 72.6786 80.3699C72.5944 80.4836 72.5212 80.6052 72.4598 80.7327C72.1876 81.2141 71.944 81.7112 71.7304 82.2213C71.599 82.5485 71.5094 82.8096 71.459 82.9403C71.3997 83.1252 71.2794 83.452 71.1731 83.8533C71.0661 84.2723 70.9902 84.6987 70.9459 85.1288C70.8355 86.0563 70.7981 86.991 70.8339 87.9242C70.8529 88.6762 70.9158 89.4263 71.0223 90.1709L71.6651 90.1456C71.5734 89.2261 71.5319 88.4548 71.5091 87.8762C71.4584 86.6375 71.5098 85.3969 71.6628 84.1668C71.7162 83.8319 71.8032 83.5064 71.8032 83.5064C71.8417 83.3547 71.8903 83.1809 71.9594 82.9636C72.0184 82.7681 72.1084 82.5176 72.2799 82.0815C72.4113 81.7544 72.5943 81.3285 72.8298 80.8255Z" fill="#337C32"/>
<path d="M68.5791 81.1213C68.7312 81.3193 68.8258 81.4658 68.9796 81.7067C69.1568 81.9788 69.322 82.2299 69.5137 82.5873C69.6935 82.9237 69.8144 83.1766 69.8996 83.3665C70.0937 83.7882 70.2168 84.0947 70.3407 84.4226C70.4642 84.7397 70.5749 85.0145 70.7009 85.3959C70.7899 85.6822 70.8533 85.8838 70.8669 85.9476C70.958 86.2875 70.9478 86.3094 71.0278 86.6498C71.1852 87.2662 71.2943 87.498 71.1877 87.6095C71.1659 87.6333 71.1373 87.6498 71.1058 87.6568C71.0743 87.6638 71.0414 87.661 71.0116 87.6486C70.9434 87.6084 70.9392 87.5013 70.9214 87.3301C70.8803 87.0356 70.8207 86.7439 70.7427 86.4571C70.7295 86.4039 70.7167 86.3615 70.6903 86.2551C70.6129 85.9791 70.5507 85.8098 70.5116 85.661C70.3843 85.2474 70.4069 85.2573 70.3175 84.9602C70.2425 84.7485 70.1804 84.5791 70.056 84.2405C69.9207 83.9024 69.8351 83.7018 69.7013 83.4066C69.5195 83.0165 69.3755 82.7431 69.2678 82.5434C69.1485 82.3334 69.005 82.0706 68.792 81.7356C68.63 81.4787 68.4535 81.2311 68.2633 80.9942C68.0299 80.7028 67.833 80.4959 67.7747 80.423C67.6477 80.2993 67.4743 80.1236 67.2216 79.9081C67.13 79.8365 67.0499 79.7754 66.9698 79.7141C66.8671 79.643 66.7874 79.5924 66.6391 79.491C66.5036 79.3994 66.3632 79.3153 66.2185 79.2392C66.1283 79.1912 66.0339 79.1518 65.9364 79.1214C65.7578 79.0962 65.6112 79.0376 65.433 79.0231C65.3258 79.0147 65.2183 79.0118 65.1108 79.0143C65.2153 78.9701 65.3277 78.9474 65.4412 78.9478C65.5423 78.9479 65.6431 78.9583 65.7421 78.9789C65.7757 78.9882 65.8209 79.0079 65.9445 79.046C66.0636 79.0798 66.1802 79.1219 66.2935 79.1718C66.4308 79.2318 66.5634 79.3019 66.6903 79.3816C66.7645 79.4216 66.8366 79.4654 66.9063 79.5127C66.9634 79.5533 67.0316 79.5936 67.1002 79.6446C67.3089 79.7919 67.5047 79.9565 67.6857 80.1367C67.8739 80.3125 68.0518 80.499 68.2182 80.6954C68.3111 80.7991 68.4275 80.934 68.5791 81.1213Z" fill="#5F852D"/>
<path d="M67.453 82.4003C67.624 82.4723 67.7845 82.5671 67.9302 82.682C68.0553 82.7729 68.171 82.8763 68.2753 82.9905C68.4487 83.1661 68.7031 83.4245 69.0401 83.8084C69.2823 84.1092 69.5025 84.4269 69.6991 84.7592C70.1538 85.4511 70.4326 86.2434 70.5114 87.0674C70.5539 87.3256 70.579 87.5864 70.5866 87.848C70.6095 88.1477 70.6081 88.3946 70.605 88.5986C70.6168 88.8987 70.6065 89.1997 70.5974 89.5328C70.5837 89.748 70.57 89.9632 70.5558 90.1678C70.7109 90.1617 70.8776 90.1659 71.0217 90.1602C71.0528 89.6419 71.0546 89.1221 71.027 88.6035C70.9887 87.9621 70.9117 87.3234 70.7963 86.6912C70.741 86.4143 70.6759 86.1699 70.6755 86.1592C70.6755 86.1592 70.6125 85.9685 70.5605 85.7774C70.3141 85.159 69.9929 84.5732 69.6039 84.0331C69.1639 83.4145 68.6165 82.8798 67.9878 82.4544C67.8112 82.3521 67.6258 82.266 67.4338 82.197C67.2484 82.1237 67.0514 82.0842 66.8521 82.0804C66.6687 82.0733 66.4856 82.0987 66.3111 82.1553C66.12 82.2015 65.9361 82.2738 65.7646 82.3701C65.9483 82.3173 66.1363 82.2812 66.3264 82.2621C66.5167 82.2259 66.7116 82.2219 66.9031 82.2501C67.0948 82.2614 67.2821 82.3126 67.453 82.4003Z" fill="#337C32"/>
<path d="M69.2373 77.8216C69.2882 78.1885 69.3805 78.5486 69.5126 78.8949C69.5633 79.0539 69.8467 80.0517 70.0441 81.1174C70.1734 81.8637 70.2447 82.5479 70.3551 83.66C70.3704 83.7667 70.3891 83.9591 70.4231 84.2583C70.4902 84.8354 70.5296 85.2739 70.5661 85.6374C70.6876 86.7489 70.6991 86.7593 70.7552 87.3367C70.812 87.9356 70.8464 88.2456 70.8425 88.4282C70.8449 88.7716 70.8704 89.1356 70.8728 89.4789C70.8697 89.6831 70.8611 90.0269 71.0187 90.085C71.0776 90.0943 71.1373 90.0955 71.1965 90.0888C71.2893 90.0861 71.3818 90.0753 71.4727 90.0564C71.7247 89.9715 71.5547 88.7544 71.5368 88.5834C71.4752 88.1457 71.4064 87.5259 71.3432 86.7661C71.1851 85.5702 71.0635 84.7377 70.9653 84.2156C70.921 83.9381 70.8062 83.2772 70.7054 82.6908C70.6638 82.4778 70.6213 82.2433 70.577 81.9659C70.3933 80.9641 70.3218 80.559 70.1665 79.9962C70.0044 79.4353 69.801 78.8872 69.558 78.3564C69.4992 78.2728 69.2923 77.8087 69.2373 77.8216Z" fill="#337C32"/>
<path d="M73.2954 82.721C73.4117 83.0999 73.4714 83.3169 73.5084 83.4856C73.5525 83.6735 73.5823 83.8231 73.6048 83.9536C73.6048 83.9536 73.6571 84.2337 73.6804 84.5196C73.7295 85.5669 73.6922 86.6165 73.569 87.6577C73.5122 88.1443 73.4272 88.792 73.2901 89.5615L73.8305 89.6245C73.9687 89.0034 74.0705 88.3749 74.1353 87.742C74.2262 86.9573 74.2553 86.1667 74.2225 85.3773C74.2131 85.0117 74.1767 84.6472 74.1137 84.2869C74.0501 83.9416 73.9699 83.6582 73.9319 83.4985C73.8979 83.3849 73.8393 83.1588 73.7497 82.8744C73.6027 82.4304 73.4296 81.9954 73.2312 81.5718C73.1878 81.4603 73.1339 81.353 73.0703 81.2516C72.9009 81.0035 72.6839 80.7589 72.6331 80.7896C72.6041 80.7954 72.6412 80.8819 72.7906 81.3012C72.8493 81.4451 72.8833 81.5586 72.9132 81.626C73.0791 82.0655 73.2058 82.4365 73.2954 82.721Z" fill="#337C32"/>
<path d="M76.8107 81.8156C76.9638 81.6608 77.1259 81.515 77.2961 81.3791C77.4604 81.2388 77.6362 81.1127 77.8218 81.002C77.883 80.9634 77.9431 80.9339 77.9939 80.9034C78.0558 80.868 78.1194 80.8358 78.1846 80.8069C78.2967 80.7479 78.4131 80.6973 78.5328 80.6556C78.6316 80.621 78.7327 80.5931 78.8353 80.5723C78.942 80.5482 78.9814 80.5345 79.0104 80.5287C79.0952 80.5178 79.1809 80.5156 79.2662 80.522C79.3619 80.5291 79.4552 80.5556 79.5404 80.5997C79.45 80.5906 79.3591 80.5861 79.2681 80.5862C79.1169 80.5869 78.9895 80.6268 78.8373 80.6365C78.7531 80.6557 78.6709 80.6828 78.5917 80.7173C78.4647 80.7722 78.3409 80.834 78.2207 80.9025C78.089 80.9784 78.0185 81.0158 77.9273 81.0691C77.8558 81.1156 77.7843 81.1621 77.7024 81.2164C77.4753 81.3817 77.3176 81.5186 77.2025 81.6148C77.1486 81.6724 76.9691 81.8341 76.7533 82.0647C76.5776 82.2522 76.4127 82.4494 76.2593 82.6555C76.058 82.9243 75.9198 83.1366 75.8056 83.3059C75.7018 83.4673 75.5626 83.6886 75.3839 84.0057C75.252 84.2461 75.1668 84.4096 75.0306 84.686C74.9038 84.9635 74.8403 85.1022 74.7634 85.276C74.6687 85.5207 74.6884 85.5138 74.5542 85.8544C74.5115 85.9772 74.4481 86.116 74.3649 86.3438C74.3357 86.4317 74.3222 86.4667 74.3076 86.5106C74.2232 86.7476 74.154 86.9897 74.1002 87.2354C74.0741 87.3785 74.0636 87.4686 74.0035 87.4981C73.9775 87.5066 73.9496 87.5069 73.9235 87.4989C73.8974 87.491 73.8743 87.4752 73.8575 87.4537C73.7749 87.3527 73.8819 87.1642 74.0547 86.6547C74.1443 86.3728 74.1371 86.3537 74.2359 86.073C74.2516 86.02 74.3181 85.8543 74.4118 85.6186C74.5428 85.3051 74.654 85.0806 74.7788 84.8211C74.9045 84.5525 75.0282 84.3021 75.2194 83.9591C75.3036 83.8045 75.4219 83.5991 75.5954 83.3271C75.7802 83.0381 75.9359 82.8371 76.103 82.619C76.2484 82.4259 76.3376 82.3085 76.4787 82.1514C76.6188 82.0034 76.7256 81.8971 76.8107 81.8156Z" fill="#5F852D"/>
<path d="M77.8185 83.2121C77.9819 83.2007 78.146 83.2168 78.3041 83.2596C78.4632 83.288 78.6194 83.3308 78.7708 83.3871C78.6325 83.2949 78.4821 83.222 78.3239 83.1706C78.1804 83.1115 78.0276 83.0782 77.8726 83.0722C77.7042 83.0626 77.5355 83.0831 77.3744 83.1329C77.208 83.1786 77.046 83.2392 76.8905 83.314C76.3327 83.6319 75.8364 84.0474 75.4251 84.5404C75.062 84.9707 74.753 85.4438 74.5051 85.9493C74.4489 86.1071 74.3833 86.2639 74.3833 86.2639C74.3823 86.2729 74.3115 86.4747 74.2469 86.7046C74.1085 87.2303 74.0021 87.7639 73.9281 88.3024C73.8712 88.7379 73.8389 89.1763 73.8315 89.6155C73.9526 89.6296 74.0935 89.6369 74.2239 89.6521C74.2252 89.4787 74.2277 89.2963 74.23 89.114C74.244 88.8325 74.2548 88.578 74.2843 88.3256C74.2949 88.1533 74.3098 87.945 74.3486 87.6938C74.372 87.4737 74.4101 87.2553 74.4627 87.0403C74.5827 86.3506 74.8693 85.7005 75.2976 85.1466C75.485 84.8791 75.6914 84.6254 75.9151 84.3875C76.2243 84.0856 76.4556 83.8842 76.6132 83.7473C76.7086 83.6578 76.8128 83.5782 76.9243 83.5096C77.0546 83.4222 77.1961 83.3526 77.345 83.303C77.4948 83.2402 77.6561 83.2092 77.8185 83.2121Z" fill="#337C32"/>
<path d="M75.8325 79.7561C75.593 80.1881 75.3859 80.6371 75.2128 81.0996C75.0453 81.5642 74.9587 81.9011 74.7387 82.734C74.6834 82.9651 74.6323 83.1601 74.5833 83.337C74.4602 83.8249 74.3206 84.3749 74.2653 84.606C74.1485 85.0399 73.9919 85.7341 73.7809 86.7324C73.6783 87.369 73.58 87.8872 73.4996 88.2523C73.4734 88.3954 73.251 89.4107 73.458 89.4988C73.5335 89.5206 73.6107 89.5357 73.6888 89.544C73.7383 89.5535 73.7888 89.5563 73.8389 89.5524C73.9757 89.5135 73.9906 89.223 74.0014 89.0507C74.0257 88.7613 74.0707 88.456 74.0951 88.1665C74.1037 88.0122 74.1529 87.7531 74.2397 87.2517C74.3245 86.7684 74.3348 86.7605 74.5095 85.8309C74.5639 85.5268 74.6256 85.1595 74.7196 84.6772C74.7677 84.4271 74.796 84.266 74.8158 84.177C74.9811 83.2463 75.0857 82.6741 75.2432 82.0531C75.4789 81.1672 75.7827 80.344 75.8358 80.2132C75.9696 79.9298 76.0709 79.6322 76.1377 79.326C76.0921 79.3115 75.8875 79.6895 75.8325 79.7561Z" fill="#337C32"/>
<path d="M74.0778 80.1395C74.1423 79.7672 74.1513 79.3874 74.1045 79.0124C74.0194 78.9939 73.807 79.7654 73.7226 80.1152C73.6265 80.4893 73.5708 80.8168 73.4986 81.2107C73.4439 81.5297 73.44 81.5635 73.3599 82.0251C73.2887 82.4107 73.2712 82.4857 73.2184 82.7877C73.1618 83.1236 73.1546 83.2598 73.1038 83.545C73.0326 83.9305 72.971 84.3087 72.8998 84.6943C72.7564 85.4738 72.6957 86.1431 72.6035 87.0828C72.551 87.6076 72.5009 88.261 72.4648 89.0188C72.6543 89.041 72.8439 89.0631 73.0344 89.0767C73.0658 88.2841 73.1255 87.6232 73.1837 87.1248C73.2778 86.4679 73.3429 85.9104 73.4028 85.4722C73.4669 84.9231 73.4689 84.9062 73.5219 84.527C73.6133 83.8185 73.6434 83.7107 73.7457 82.9092C73.7792 82.622 73.7782 82.6304 73.8608 81.9979C73.9276 81.5005 73.9345 81.4413 73.9621 81.2048C74.0183 80.7234 74.0489 80.4615 74.0778 80.1395Z" fill="#5F852D"/>
<path d="M75.2928 81.3258C75.3352 81.2623 75.3997 81.1586 75.4844 81.0314C75.7299 80.6491 75.7819 80.5781 75.758 80.5582C75.7189 80.5193 75.4434 80.7098 75.2273 80.9158C75.1415 81.0026 75.0634 81.0967 74.9936 81.1967C74.6988 81.5667 74.4288 81.9557 74.1853 82.3611C74.0331 82.6173 73.9213 82.827 73.8654 82.9317C73.7874 83.0768 73.6514 83.3435 73.5086 83.6693C73.363 84.0112 73.2431 84.3636 73.1497 84.7234C72.9358 85.4974 72.7795 86.2862 72.6822 87.0834C72.5979 87.7255 72.5516 88.372 72.5435 89.0194L73.0862 89.0828C73.1348 88.2922 73.2031 87.6322 73.2613 87.1339C73.3833 86.0756 73.5902 85.0289 73.88 84.0037C73.9738 83.7235 74.0829 83.4623 74.0829 83.4623C74.1322 83.3396 74.2016 83.1936 74.2826 83.0232C74.353 82.8687 74.4639 82.6676 74.6709 82.315C74.823 82.0588 75.0281 81.7231 75.2928 81.3258Z" fill="#337C32"/>
<path d="M72.3011 84.2134C72.3835 84.4799 72.4184 84.6296 72.4487 84.7444C72.4767 84.8505 72.4962 84.9588 72.507 85.068C72.507 85.068 72.537 85.2599 72.5573 85.4592C72.5931 86.1905 72.566 86.9236 72.4762 87.6503C72.4052 88.2585 72.3453 88.6967 72.3032 88.9829L72.6564 89.0241C72.7501 88.5883 72.8219 88.148 72.8715 87.705C72.9329 87.156 72.9537 86.6032 72.9336 86.0511C72.9267 85.7954 72.901 85.5406 72.8567 85.2886C72.8154 85.044 72.7605 84.8407 72.7379 84.7353C72.7209 84.6563 72.6784 84.4972 72.6139 84.3013C72.5118 83.9928 72.3926 83.6902 72.2569 83.3949C72.2288 83.3173 72.1904 83.2436 72.1427 83.1761C72.0322 83.0005 71.8777 82.8283 71.8489 82.8507C71.8307 82.8571 71.8592 82.9118 71.9559 83.2057C71.9881 83.3037 72.0137 83.3836 72.0346 83.4289C72.1532 83.7595 72.2366 84.0176 72.3011 84.2134Z" fill="#337C32"/>
<path d="M84.8423 84.474C84.9686 84.8889 85.0334 85.1264 85.0734 85.3111C85.1212 85.5167 85.1534 85.6804 85.1777 85.8233C85.1777 85.8233 85.2342 86.1298 85.259 86.4426C85.31 87.5884 85.2666 88.7366 85.1292 89.8753C85.0658 90.4075 84.9711 91.1158 84.8192 91.9572L85.4103 92.0276C85.563 91.3486 85.6759 90.6612 85.7485 89.969C85.8498 89.1108 85.8837 88.2459 85.8498 87.3824C85.8404 86.9823 85.8016 86.5836 85.7335 86.1892C85.6649 85.8113 85.5778 85.5011 85.5366 85.3262C85.4997 85.2019 85.4362 84.9545 85.3389 84.6431C85.1792 84.157 84.9909 83.6806 84.7751 83.2167C84.7278 83.0945 84.6691 82.9772 84.5998 82.866C84.4151 82.5942 84.1784 82.3262 84.1228 82.3595C84.091 82.3657 84.1314 82.4605 84.2938 82.9196C84.3577 83.0771 84.3945 83.2014 84.4271 83.2753C84.6074 83.7565 84.7451 84.1627 84.8423 84.474Z" fill="#337C32"/>
<path d="M88.6898 83.4927C88.8578 83.3236 89.0355 83.1646 89.222 83.0162C89.402 82.8632 89.5948 82.7256 89.798 82.6051C89.865 82.5631 89.9309 82.5309 89.9865 82.4975C90.0543 82.459 90.1241 82.4239 90.1954 82.3925C90.3183 82.3283 90.4457 82.2733 90.5767 82.228C90.6849 82.1902 90.7955 82.1599 90.9079 82.1375C91.0247 82.1114 91.0678 82.0966 91.0995 82.0903C91.1923 82.0786 91.2861 82.0764 91.3793 82.0837C91.4841 82.0917 91.5861 82.1208 91.6792 82.1692C91.5802 82.159 91.4808 82.1539 91.3813 82.1539C91.2159 82.1542 91.0764 82.1975 90.9098 82.2076C90.8177 82.2285 90.7277 82.258 90.641 82.2956C90.502 82.3553 90.3663 82.4226 90.2346 82.4971C90.0904 82.5799 90.0132 82.6207 89.9133 82.6788C89.8349 82.7293 89.7565 82.78 89.6668 82.8393C89.418 83.0196 89.2452 83.1689 89.119 83.2738C89.0598 83.3367 88.8631 83.5133 88.6264 83.765C88.4337 83.9696 88.2528 84.185 88.0846 84.4101C87.8636 84.7036 87.712 84.9354 87.5866 85.1205C87.4726 85.2967 87.3198 85.5384 87.1235 85.8849C86.9786 86.1475 86.8849 86.3262 86.7353 86.6282C86.5959 86.9314 86.5261 87.0831 86.4415 87.2729C86.3373 87.5403 86.3588 87.5329 86.2112 87.9052C86.1642 88.0394 86.0944 88.1911 86.0028 88.4401C85.9707 88.5361 85.9558 88.5743 85.9397 88.6224C85.8468 88.8814 85.7704 89.1461 85.711 89.4147C85.6821 89.5713 85.6703 89.6697 85.6045 89.7019C85.5761 89.7111 85.5455 89.7114 85.517 89.7026C85.4884 89.6938 85.4633 89.6765 85.4449 89.6529C85.3548 89.5423 85.4723 89.3364 85.6627 88.7794C85.7614 88.4713 85.7535 88.4504 85.8624 88.1435C85.8796 88.0856 85.9529 87.9044 86.0559 87.6468C86.2 87.3042 86.3223 87.0589 86.4594 86.7753C86.5977 86.482 86.7336 86.2083 86.9436 85.8335C87.0361 85.6646 87.1661 85.4402 87.3565 85.143C87.5595 84.8274 87.7303 84.6078 87.9137 84.3698C88.0731 84.1588 88.1711 84.0306 88.3259 83.8591C88.4794 83.6975 88.5966 83.5814 88.6898 83.4927Z" fill="#5F852D"/>
<path d="M89.7894 85.0228C89.9682 85.0108 90.1477 85.0288 90.3205 85.076C90.4945 85.1075 90.6653 85.1545 90.8308 85.2167C90.6797 85.1153 90.5153 85.0353 90.3424 84.9787C90.1856 84.9136 90.0186 84.8768 89.849 84.8699C89.6648 84.8589 89.4802 84.8809 89.3038 84.935C89.1217 84.9846 88.9443 85.0505 88.774 85.1318C88.1629 85.4783 87.6189 85.9316 87.1678 86.4699C86.7695 86.9397 86.4302 87.4565 86.1577 88.0087C86.0958 88.1812 86.0238 88.3526 86.0238 88.3526C86.0226 88.3625 85.9447 88.5831 85.8734 88.8344C85.7207 89.4092 85.6029 89.9926 85.5206 90.5816C85.4572 91.0578 85.4208 91.5373 85.4116 92.0178C85.5441 92.0336 85.6981 92.0418 85.8408 92.0588C85.8427 91.8692 85.8458 91.6696 85.8489 91.4702C85.8649 91.1622 85.8774 90.8839 85.9102 90.6079C85.9223 90.4194 85.9392 90.1915 85.9822 89.9168C86.0083 89.6761 86.0505 89.4374 86.1086 89.2023C86.2417 88.448 86.5569 87.7376 87.0268 87.1327C87.2325 86.8405 87.4589 86.5635 87.7043 86.3038C88.0432 85.9743 88.2968 85.7546 88.4696 85.6053C88.5742 85.5076 88.6884 85.4207 88.8105 85.3461C88.9533 85.2507 89.1083 85.175 89.2713 85.1211C89.4353 85.0527 89.6118 85.0193 89.7894 85.0228Z" fill="#337C32"/>
<path d="M87.6253 81.2371C87.3623 81.7091 87.1346 82.1998 86.9441 82.7052C86.7596 83.213 86.664 83.5814 86.4213 84.492C86.3602 84.7447 86.3038 84.9578 86.2497 85.1512C86.1138 85.6848 85.9596 86.2861 85.8985 86.5387C85.7696 87.013 85.5966 87.7721 85.3632 88.8637C85.2493 89.5597 85.1405 90.1265 85.0516 90.5257C85.0227 90.6821 84.7768 91.7923 85.0029 91.8892C85.0854 91.9132 85.1699 91.93 85.2553 91.9392C85.3094 91.9498 85.3646 91.953 85.4195 91.9488C85.5692 91.9066 85.5864 91.5888 85.5986 91.4004C85.6259 91.0838 85.676 90.7499 85.7034 90.4333C85.7131 90.2646 85.7676 89.9813 85.8638 89.433C85.9578 88.9045 85.9692 88.8958 86.1626 87.8794C86.2228 87.5467 86.2913 87.1451 86.3955 86.6178C86.4487 86.3443 86.4801 86.1682 86.502 86.0708C86.6852 85.0532 86.801 84.4273 86.9749 83.7483C87.2349 82.7799 87.5695 81.8802 87.6278 81.7371C87.775 81.4275 87.8865 81.1021 87.9603 80.7673C87.9105 80.7514 87.6857 81.1644 87.6253 81.2371Z" fill="#337C32"/>
<path d="M83.3124 83.1606C83.3338 83.3437 83.3392 83.3894 83.391 83.7741C83.455 84.2633 83.4542 84.2567 83.4802 84.479C83.5595 85.0988 83.5827 85.1822 83.6536 85.7302C83.6947 86.0235 83.6962 86.0365 83.7459 86.4613C83.7923 86.8001 83.8428 87.2314 83.9157 87.7395C83.9608 88.125 84.0071 88.6361 84.0316 89.2491C84.1789 89.2385 84.3255 89.2215 84.4721 89.2043C84.4441 88.6182 84.4052 88.1128 84.3645 87.7068C84.2929 86.9801 84.2459 86.4623 84.1348 85.8594C84.0797 85.5612 84.0319 85.2688 83.9768 84.9705C83.9374 84.75 83.9319 84.6446 83.888 84.3848C83.8471 84.1512 83.8336 84.0932 83.7784 83.795C83.7164 83.4379 83.7133 83.4118 83.671 83.1651C83.615 82.8603 83.5719 82.6071 83.4975 82.3177C83.4321 82.0472 83.2677 81.4506 83.2018 81.4649C83.1657 81.7549 83.1728 82.0487 83.2228 82.3366C83.2452 82.5857 83.2689 82.7883 83.3124 83.1606Z" fill="#5F852D"/>
<path d="M82.7647 84.0196C82.925 84.2922 83.0107 84.4479 83.0652 84.5673C83.1279 84.6991 83.1817 84.812 83.2198 84.9069C83.2198 84.9069 83.3042 85.1089 83.3768 85.3256C83.6012 86.1184 83.7615 86.9281 83.8559 87.7466C83.901 88.132 83.954 88.6424 83.9918 89.2539L84.4115 89.2048C84.4051 88.704 84.3692 88.204 84.3039 87.7074C84.2285 87.0909 84.1075 86.4807 83.9417 85.8821C83.8695 85.6038 83.7766 85.3313 83.664 85.0668C83.5535 84.8149 83.4482 84.6086 83.3878 84.4964C83.3447 84.4155 83.2581 84.2533 83.1404 84.0552C82.952 83.7416 82.743 83.4408 82.5149 83.1547C82.461 83.0773 82.4005 83.0046 82.3342 82.9375C82.1669 82.7782 81.9538 82.6309 81.9235 82.6609C81.9051 82.6764 81.9453 82.7313 82.1352 83.027C82.2008 83.1252 82.2507 83.2055 82.2834 83.2547C82.4883 83.5619 82.647 83.8215 82.7647 84.0196Z" fill="#337C32"/>
<path d="M84.8039 84.8806C84.8201 84.8456 84.8399 84.7836 84.8648 84.7079C84.9395 84.4807 84.9616 84.4383 84.9475 84.4333C84.9252 84.4161 84.8057 84.5492 84.7203 84.6851C84.6834 84.7373 84.6538 84.7942 84.632 84.8543C84.5272 85.0827 84.435 85.3168 84.3561 85.5555C84.3063 85.707 84.2735 85.8301 84.2602 85.8912C84.2429 85.9728 84.2004 86.1301 84.1685 86.3192C84.1343 86.5141 84.1144 86.7112 84.1091 86.909C84.0937 87.336 84.1099 87.7636 84.1575 88.1881C84.196 88.5308 84.2515 88.8714 84.3241 89.2084L84.5973 89.1766C84.5646 88.9551 84.5182 88.6162 84.4632 88.1457C84.3936 87.5837 84.3726 87.0167 84.4 86.451C84.4157 86.2969 84.4389 86.1484 84.4389 86.1484C84.4472 86.064 84.4622 85.9803 84.4839 85.8981C84.5073 85.8094 84.5343 85.6936 84.598 85.4875C84.6478 85.3359 84.7123 85.1363 84.8039 84.8806Z" fill="#337C32"/>
<path d="M124.056 82.1957C124.086 82.1247 124.119 82.0053 124.178 81.8537C124.327 81.4126 124.365 81.3214 124.334 81.3159C124.28 81.2847 124.058 81.5443 123.885 81.8067C123.82 81.914 123.765 82.0271 123.722 82.1445C123.522 82.5912 123.348 83.0492 123.202 83.5162C123.113 83.8153 123.056 84.0528 123.022 84.1722C122.985 84.3399 122.906 84.6378 122.846 85.0002C122.786 85.3781 122.754 85.7601 122.751 86.1428C122.73 86.969 122.774 87.7956 122.883 88.6149C122.962 89.2758 123.079 89.9317 123.234 90.579L123.799 90.5037C123.642 89.7011 123.542 89.0249 123.474 88.5169C123.327 87.4298 123.27 86.3325 123.303 85.236C123.322 84.9365 123.372 84.6426 123.372 84.6426C123.394 84.5057 123.422 84.3486 123.465 84.1514C123.501 83.9743 123.56 83.7462 123.675 83.3478C123.763 83.0487 123.89 82.6583 124.056 82.1957Z" fill="#337C32"/>
<path d="M120.334 82.8071C120.484 82.969 120.58 83.0903 120.735 83.2898C120.914 83.5149 121.08 83.7226 121.278 84.0217C121.465 84.3033 121.592 84.5162 121.683 84.6764C121.889 85.032 122.022 85.2918 122.159 85.5706C122.294 85.8398 122.414 86.0727 122.556 86.3985C122.658 86.6434 122.731 86.8156 122.748 86.8708C122.856 87.1628 122.849 87.1829 122.948 87.4762C123.137 88.0063 123.253 88.2015 123.168 88.3086C123.151 88.3314 123.127 88.3483 123.1 88.3571C123.072 88.3659 123.043 88.3661 123.016 88.3577C122.953 88.3278 122.94 88.2337 122.91 88.0845C122.85 87.8284 122.773 87.5763 122.681 87.3298C122.665 87.2842 122.65 87.2478 122.618 87.1563C122.527 86.9195 122.458 86.7754 122.411 86.6476C122.265 86.2937 122.286 86.3004 122.182 86.0461C122.099 85.8658 122.03 85.7217 121.893 85.4336C121.745 85.1468 121.654 84.9772 121.511 84.728C121.319 84.3994 121.17 84.1703 121.058 84.0032C120.936 83.8281 120.788 83.6085 120.572 83.3308C120.408 83.1178 120.232 82.9142 120.045 82.7212C119.816 82.4837 119.625 82.3176 119.568 82.2583C119.445 82.1596 119.278 82.0192 119.038 81.8501C118.951 81.7946 118.876 81.7473 118.8 81.7C118.704 81.6458 118.629 81.6078 118.49 81.5306C118.363 81.4611 118.233 81.3986 118.099 81.3434C118.015 81.3086 117.929 81.2817 117.841 81.263C117.681 81.2555 117.547 81.2159 117.389 81.2179C117.294 81.2193 117.199 81.2256 117.104 81.2367C117.193 81.189 117.29 81.1599 117.39 81.1508C117.479 81.1425 117.569 81.1434 117.657 81.1534C117.688 81.1589 117.729 81.1725 117.841 81.1958C117.949 81.2158 118.055 81.2432 118.159 81.2779C118.285 81.3194 118.408 81.3703 118.526 81.4301C118.595 81.4592 118.662 81.4917 118.727 81.5276C118.781 81.5588 118.844 81.5887 118.909 81.6279C119.105 81.7404 119.291 81.8694 119.466 82.0134C119.646 82.1526 119.818 82.3022 119.981 82.4616C120.071 82.5453 120.185 82.6546 120.334 82.8071Z" fill="#5F852D"/>
<path d="M119.448 84.0268C119.605 84.0762 119.753 84.1465 119.891 84.2357C120.009 84.3055 120.119 84.387 120.221 84.4791C120.388 84.6195 120.633 84.8261 120.962 85.1366C121.2 85.3816 121.42 85.6434 121.621 85.92C122.079 86.4921 122.39 87.1672 122.527 87.8866C122.586 88.1107 122.63 88.3385 122.658 88.5683C122.703 88.8304 122.722 89.0481 122.736 89.2281C122.771 89.4916 122.787 89.7576 122.806 90.0518C122.812 90.2427 122.818 90.4334 122.822 90.6147C122.958 90.5965 123.106 90.5866 123.232 90.5697C123.217 90.1103 123.175 89.6523 123.108 89.1976C123.022 88.6356 122.901 88.0793 122.747 87.5318C122.676 87.2923 122.598 87.0824 122.597 87.073C122.597 87.073 122.526 86.9102 122.464 86.746C122.196 86.2216 121.865 85.732 121.477 85.2882C121.038 84.7794 120.512 84.3535 119.923 84.0304C119.759 83.9549 119.589 83.8944 119.415 83.8494C119.244 83.8001 119.068 83.7815 118.892 83.7946C118.73 83.8035 118.571 83.841 118.422 83.9053C118.257 83.9617 118.101 84.0405 117.958 84.1395C118.116 84.0779 118.278 84.0305 118.444 83.998C118.609 83.9505 118.78 83.9308 118.951 83.9399C119.121 83.934 119.29 83.9636 119.448 84.0268Z" fill="#337C32"/>
<path d="M120.642 79.8454C120.717 80.1646 120.829 80.4743 120.974 80.7684C121.031 80.9044 121.363 81.7602 121.625 82.6828C121.801 83.3297 121.92 83.9267 122.109 84.8973C122.131 84.9902 122.164 85.1582 122.218 85.419C122.325 85.9218 122.396 86.305 122.458 86.6223C122.657 87.5916 122.668 87.5997 122.765 88.104C122.865 88.6269 122.92 88.8972 122.932 89.0584C122.963 89.3608 123.015 89.6794 123.045 89.9817C123.06 90.1617 123.08 90.4654 123.224 90.5037C123.277 90.507 123.329 90.5031 123.381 90.4923C123.463 90.4823 123.543 90.4651 123.622 90.441C123.837 90.3454 123.586 89.287 123.557 89.1378C123.466 88.7572 123.354 88.2168 123.236 87.5527C122.998 86.5119 122.822 85.7885 122.693 85.3366C122.631 85.0958 122.475 84.5229 122.338 84.0145C122.283 83.8303 122.227 83.6272 122.165 83.3865C121.92 82.519 121.824 82.1679 121.641 81.6849C121.451 81.204 121.227 80.7378 120.969 80.2902C120.91 80.2214 120.69 79.8295 120.642 79.8454Z" fill="#337C32"/>
<path d="M124.622 83.8276C124.755 84.1519 124.826 84.3381 124.872 84.4838C124.927 84.6456 124.965 84.775 124.996 84.8881C124.996 84.8881 125.065 85.1306 125.109 85.3806C125.239 86.2992 125.293 87.2271 125.27 88.1547C125.26 88.5881 125.239 89.1658 125.182 89.855L125.663 89.866C125.733 89.3074 125.771 88.7452 125.776 88.1822C125.791 87.4834 125.752 86.7843 125.658 86.0917C125.619 85.7702 125.557 85.4521 125.472 85.1398C125.387 84.8409 125.293 84.5977 125.247 84.4602C125.207 84.3629 125.137 84.1686 125.035 83.9254C124.868 83.5462 124.68 83.1772 124.47 82.8204C124.423 82.7256 124.366 82.6356 124.302 82.5516C124.132 82.347 123.921 82.1493 123.879 82.1805C123.854 82.188 123.893 82.2612 124.06 82.6183C124.123 82.7402 124.163 82.8374 124.195 82.8944C124.377 83.2679 124.519 83.5843 124.622 83.8276Z" fill="#337C32"/>
<path d="M127.644 82.74C127.766 82.591 127.897 82.4491 128.036 82.3153C128.169 82.1781 128.313 82.0525 128.468 81.9397C128.518 81.9007 128.569 81.8697 128.611 81.8386C128.663 81.8024 128.716 81.7687 128.771 81.7378C128.865 81.6766 128.964 81.6225 129.066 81.5759C129.15 81.5372 129.236 81.5043 129.325 81.4775C129.417 81.4474 129.451 81.4321 129.476 81.4247C129.55 81.408 129.625 81.399 129.701 81.3977C129.786 81.396 129.87 81.4116 129.949 81.4435C129.868 81.4429 129.788 81.4464 129.708 81.4541C129.575 81.4671 129.466 81.5128 129.332 81.5338C129.26 81.5577 129.189 81.5884 129.123 81.6254C129.015 81.6842 128.911 81.7489 128.811 81.8191C128.701 81.8968 128.642 81.9356 128.566 81.9901C128.507 82.037 128.448 82.0838 128.38 82.1384C128.194 82.3029 128.066 82.4364 127.973 82.5307C127.93 82.5859 127.785 82.7432 127.614 82.9641C127.475 83.1438 127.346 83.3312 127.227 83.5255C127.072 83.7789 126.968 83.9774 126.881 84.1359C126.803 84.2868 126.699 84.4932 126.568 84.7873C126.471 85.0099 126.41 85.1611 126.312 85.4159C126.224 85.6708 126.179 85.7982 126.126 85.9577C126.062 86.1811 126.079 86.1734 125.989 86.4845C125.962 86.5963 125.917 86.7238 125.863 86.9313C125.844 87.0112 125.835 87.0431 125.826 87.0831C125.771 87.2988 125.73 87.5178 125.703 87.7387C125.692 87.867 125.69 87.9472 125.64 87.9782C125.617 87.9878 125.593 87.9903 125.569 87.9855C125.545 87.9806 125.524 87.9686 125.507 87.9511C125.426 87.869 125.505 87.694 125.615 87.2308C125.671 86.9751 125.663 86.9589 125.727 86.7034C125.736 86.6554 125.781 86.5039 125.844 86.2884C125.934 86.0014 126.013 85.7944 126.102 85.5556C126.19 85.3087 126.279 85.0778 126.419 84.7598C126.48 84.6166 126.568 84.4259 126.698 84.1719C126.837 83.902 126.957 83.7121 127.087 83.5062C127.199 83.3241 127.268 83.2132 127.379 83.0632C127.49 82.9212 127.576 82.8188 127.644 82.74Z" fill="#5F852D"/>
<path d="M128.649 83.8872C128.792 83.8638 128.937 83.8644 129.08 83.889C129.223 83.9009 129.364 83.9257 129.502 83.9629C129.373 83.893 129.234 83.8412 129.09 83.809C128.959 83.7688 128.822 83.752 128.685 83.7596C128.536 83.7649 128.389 83.7969 128.251 83.8541C128.108 83.908 127.97 83.9748 127.839 84.0535C127.374 84.3797 126.971 84.7866 126.649 85.255C126.365 85.664 126.132 86.1064 125.955 86.5722C125.919 86.7159 125.874 86.8594 125.874 86.8594C125.874 86.8675 125.828 87.0511 125.79 87.259C125.711 87.7336 125.662 88.2125 125.641 88.693C125.627 89.0815 125.634 89.4704 125.664 89.858C125.772 89.8604 125.897 89.8553 126.013 89.8579C126 89.705 125.987 89.5441 125.974 89.3833C125.963 89.1341 125.952 88.9089 125.957 88.6842C125.952 88.5315 125.948 88.3466 125.961 88.1222C125.964 87.9263 125.979 87.7308 126.008 87.537C126.057 86.9194 126.255 86.323 126.587 85.7997C126.73 85.5484 126.891 85.3079 127.069 85.0798C127.316 84.7883 127.503 84.5919 127.631 84.4582C127.708 84.3716 127.793 84.2928 127.885 84.2231C127.993 84.1354 128.112 84.0625 128.239 84.0064C128.366 83.9386 128.505 83.8981 128.649 83.8872Z" fill="#337C32"/>
<path d="M126.614 81.0061C126.438 81.4065 126.293 81.8191 126.178 82.2409C126.069 82.664 126.021 82.9681 125.896 83.72C125.866 83.9282 125.837 84.1042 125.808 84.2642C125.74 84.7043 125.663 85.2004 125.633 85.4084C125.566 85.8005 125.485 86.425 125.382 87.322C125.344 87.8913 125.3 88.3561 125.259 88.6844C125.248 88.8126 125.136 89.7255 125.325 89.7861C125.394 89.7991 125.463 89.806 125.533 89.8069C125.577 89.8112 125.622 89.8094 125.665 89.8019C125.783 89.7563 125.772 89.4991 125.767 89.3464C125.765 89.0894 125.779 88.8167 125.777 88.5596C125.772 88.4231 125.794 88.1906 125.829 87.7418C125.864 87.309 125.872 87.3011 125.949 86.4677C125.972 86.1952 125.996 85.8665 126.039 85.4338C126.061 85.2095 126.073 85.0652 126.083 84.9851C126.151 84.1515 126.196 83.6387 126.284 83.0785C126.418 82.2786 126.618 81.5282 126.654 81.4086C126.749 81.1479 126.813 80.8773 126.847 80.602C126.806 80.593 126.656 80.9428 126.614 81.0061Z" fill="#337C32"/>
<path d="M125.099 81.4886C125.125 81.1553 125.101 80.8199 125.029 80.4934C124.893 80.8121 124.81 81.151 124.784 81.4965C124.73 81.8341 124.708 82.1272 124.677 82.4803C124.655 82.7659 124.654 82.796 124.622 83.2092C124.591 83.5548 124.582 83.6224 124.56 83.8929C124.538 84.1935 124.543 84.314 124.522 84.5695C124.491 84.9151 124.468 85.2533 124.437 85.5989C124.375 86.2976 124.377 86.8923 124.373 87.7279C124.37 88.1945 124.38 88.7744 124.41 89.4451C124.579 89.449 124.748 89.4528 124.917 89.4492C124.879 88.7481 124.877 88.1609 124.887 87.717C124.916 87.1305 124.928 86.6339 124.944 86.2428C124.955 85.7538 124.956 85.7387 124.971 85.4003C124.993 84.7685 125.011 84.671 125.035 83.9564C125.041 83.7005 125.04 83.708 125.061 83.1439C125.079 82.7002 125.08 82.6475 125.085 82.4369C125.095 82.0081 125.1 81.7747 125.099 81.4886Z" fill="#5F852D"/>
<path d="M126.267 82.4337C126.299 82.3742 126.347 82.2774 126.412 82.1585C126.596 81.8013 126.636 81.7344 126.613 81.7189C126.576 81.6879 126.349 81.8784 126.175 82.0778C126.107 82.1614 126.046 82.2506 125.993 82.3446C125.763 82.6949 125.558 83.0598 125.377 83.4372C125.264 83.6755 125.182 83.8693 125.142 83.9663C125.085 84.1005 124.987 84.3467 124.888 84.6456C124.788 84.9589 124.712 85.2792 124.659 85.6039C124.534 86.3036 124.462 87.0115 124.442 87.7218C124.421 88.2945 124.433 88.8679 124.48 89.4391L124.963 89.4501C124.941 88.7495 124.946 88.1625 124.956 87.7185C124.976 86.7761 125.072 85.8367 125.243 84.9096C125.303 84.655 125.377 84.4158 125.377 84.4158C125.411 84.3037 125.46 84.1693 125.517 84.0125C125.566 83.8706 125.647 83.6842 125.801 83.3565C125.914 83.1182 126.067 82.8055 126.267 82.4337Z" fill="#337C32"/>
<path d="M123.868 85.2245C123.963 85.4526 124.006 85.5815 124.042 85.6802C124.076 85.7714 124.102 85.8651 124.12 85.9606C124.12 85.9606 124.163 86.1271 124.197 86.3011C124.289 86.9424 124.326 87.5906 124.306 88.2383C124.294 88.78 124.277 89.171 124.264 89.4267L124.579 89.4338C124.625 89.0421 124.652 88.6483 124.659 88.2539C124.668 87.765 124.641 87.2763 124.577 86.7915C124.55 86.5668 124.507 86.3443 124.447 86.1261C124.39 85.914 124.325 85.7394 124.296 85.6484C124.275 85.5801 124.224 85.4435 124.151 85.2762C124.036 85.0128 123.906 84.756 123.762 84.507C123.731 84.4408 123.691 84.3792 123.643 84.3236C123.532 84.178 123.382 84.0391 123.359 84.0612C123.343 84.0684 123.373 84.1141 123.481 84.3651C123.519 84.4487 123.547 84.5171 123.57 84.5553C123.701 84.8369 123.795 85.0573 123.868 85.2245Z" fill="#337C32"/>
<path d="M117.122 84.9273C117.299 85.323 117.393 85.5506 117.456 85.7287C117.529 85.9267 117.582 86.0851 117.624 86.2237C117.624 86.2237 117.718 86.5207 117.782 86.8279C117.977 87.9583 118.078 89.1028 118.085 90.2498C118.089 90.7857 118.084 91.5002 118.039 92.3541L118.634 92.3497C118.7 91.6569 118.726 90.9608 118.711 90.265C118.704 89.4009 118.628 88.5386 118.486 87.6862C118.427 87.2905 118.338 86.8997 118.221 86.517C118.106 86.1507 117.98 85.8539 117.917 85.6856C117.865 85.5669 117.771 85.3294 117.636 85.0327C117.416 84.5704 117.169 84.1215 116.897 83.6884C116.835 83.5731 116.762 83.4639 116.679 83.3625C116.462 83.1159 116.193 82.8797 116.142 82.9197C116.111 82.9299 116.163 83.0188 116.382 83.4539C116.465 83.6022 116.517 83.7208 116.559 83.79C116.798 84.2449 116.986 84.6305 117.122 84.9273Z" fill="#337C32"/>
<path d="M120.817 83.4707C120.962 83.282 121.118 83.1018 121.285 82.9313C121.444 82.7569 121.618 82.5962 121.805 82.4511C121.866 82.401 121.927 82.3609 121.978 82.3208C122.041 82.274 122.105 82.2306 122.172 82.1904C122.286 82.1112 122.405 82.0406 122.53 81.9792C122.632 81.9283 122.738 81.8844 122.847 81.8479C122.959 81.8074 123 81.7872 123.031 81.7771C123.122 81.7538 123.214 81.7398 123.308 81.7353C123.413 81.7301 123.518 81.7462 123.616 81.7827C123.517 81.7849 123.417 81.7923 123.319 81.8047C123.155 81.8258 123.022 81.8863 122.858 81.9173C122.769 81.9496 122.683 81.9901 122.602 82.0382C122.472 82.1149 122.345 82.1987 122.224 82.2891C122.091 82.3894 122.02 82.4396 121.928 82.5097C121.857 82.5698 121.785 82.6299 121.704 82.7C121.48 82.91 121.327 83.0798 121.215 83.1998C121.164 83.2697 120.991 83.4694 120.788 83.7488C120.622 83.976 120.47 84.2124 120.331 84.4568C120.149 84.7758 120.028 85.0248 119.926 85.2241C119.836 85.4133 119.714 85.6722 119.563 86.0406C119.452 86.3193 119.382 86.5084 119.271 86.8268C119.171 87.1451 119.121 87.3043 119.061 87.5032C118.991 87.7817 119.011 87.7716 118.912 88.1593C118.882 88.2986 118.832 88.4577 118.772 88.7162C118.752 88.8156 118.742 88.8554 118.732 88.905C118.673 89.1737 118.63 89.4458 118.605 89.7199C118.596 89.8787 118.597 89.978 118.535 90.018C118.508 90.0307 118.478 90.0348 118.449 90.0297C118.419 90.0246 118.392 90.0105 118.371 89.9896C118.268 89.8911 118.358 89.672 118.477 89.0955C118.537 88.7775 118.526 88.7577 118.596 88.4396C118.605 88.38 118.655 88.191 118.725 87.9225C118.825 87.5645 118.916 87.3058 119.016 87.0073C119.116 86.6989 119.217 86.4103 119.378 86.0122C119.449 85.8331 119.55 85.594 119.701 85.2753C119.863 84.9368 120.005 84.6975 120.157 84.4384C120.288 84.209 120.37 84.0695 120.502 83.88C120.634 83.7003 120.735 83.5706 120.817 83.4707Z" fill="#5F852D"/>
<path d="M122.098 84.8509C122.274 84.8165 122.455 84.8118 122.632 84.837C122.808 84.8464 122.984 84.8717 123.156 84.9125C122.993 84.831 122.82 84.7721 122.641 84.7376C122.478 84.6928 122.307 84.6773 122.138 84.6917C121.954 84.7039 121.774 84.749 121.606 84.8247C121.431 84.8968 121.263 84.9843 121.105 85.0865C120.542 85.5069 120.059 86.0248 119.679 86.6155C119.343 87.1316 119.071 87.6868 118.87 88.2689C118.831 88.4479 118.781 88.6269 118.781 88.6269C118.781 88.6368 118.731 88.8655 118.692 89.1238C118.613 89.7131 118.569 90.3067 118.562 90.9013C118.558 91.3818 118.583 91.8621 118.634 92.3399C118.767 92.3389 118.921 92.3278 119.065 92.3267C119.043 92.1383 119.021 91.9399 118.999 91.7417C118.976 91.4341 118.953 91.1564 118.951 90.8785C118.94 90.6901 118.928 90.4618 118.936 90.1839C118.932 89.9418 118.944 89.6996 118.972 89.4591C119.009 88.6941 119.232 87.9498 119.623 87.2907C119.79 86.9751 119.98 86.6718 120.191 86.3833C120.486 86.014 120.709 85.7641 120.862 85.5943C120.954 85.4843 121.056 85.3838 121.168 85.2943C121.298 85.1819 121.442 85.0873 121.597 85.0133C121.751 84.9249 121.922 84.8696 122.098 84.8509Z" fill="#337C32"/>
<path d="M119.476 81.3667C119.275 81.8679 119.11 82.3833 118.985 82.9087C118.866 83.4355 118.817 83.8131 118.691 84.7469C118.662 85.0052 118.633 85.2238 118.603 85.4224C118.535 85.9688 118.458 86.5847 118.429 86.843C118.361 87.3298 118.284 88.1045 118.19 89.2167C118.164 89.9216 118.128 90.4975 118.09 90.9047C118.081 91.0636 117.976 92.1958 118.213 92.2635C118.297 92.277 118.383 92.283 118.469 92.2814C118.524 92.2851 118.579 92.2814 118.633 92.2703C118.777 92.2098 118.754 91.8923 118.742 91.7038C118.729 91.3864 118.737 91.0488 118.725 90.7313C118.713 90.5627 118.731 90.2748 118.758 89.7188C118.785 89.1827 118.795 89.1727 118.859 88.1399C118.877 87.8023 118.895 87.3953 118.932 86.8591C118.95 86.5811 118.959 86.4024 118.969 86.3031C119.023 85.2705 119.059 84.635 119.146 83.9396C119.283 82.9462 119.502 82.0116 119.542 81.8625C119.649 81.5367 119.718 81.1999 119.75 80.8586C119.698 80.849 119.527 81.2869 119.476 81.3667Z" fill="#337C32"/>
<path d="M49.5343 71.4658C49.5186 71.6494 49.5147 71.6952 49.4884 72.0825C49.453 72.5746 49.4536 72.5681 49.4345 72.7909C49.3881 73.4141 49.3941 73.5005 49.3538 74.0516C49.3352 74.3471 49.3341 74.3602 49.2977 74.7862C49.2753 75.1277 49.2383 75.5602 49.208 76.0726C49.1749 76.4593 49.1179 76.9693 49.019 77.5749C49.1655 77.594 49.3126 77.6066 49.4596 77.6192C49.5496 77.0392 49.6128 76.5363 49.6542 76.1305C49.7297 75.4041 49.7873 74.8875 49.7993 74.2745C49.805 73.9713 49.8168 73.6752 49.8226 73.372C49.8282 73.148 49.8439 73.0437 49.8529 72.7804C49.8597 72.5433 49.8581 72.4838 49.8638 72.1806C49.8745 71.8184 49.8768 71.7922 49.8847 71.542C49.8909 71.2322 49.8994 70.9754 49.8845 70.6771C49.8941 70.3743 49.8539 70.072 49.7657 69.7822C49.6722 70.0592 49.6203 70.3484 49.6116 70.6405C49.5836 70.889 49.5662 71.0923 49.5343 71.4658Z" fill="#5F852D"/>
<path d="M48.8254 72.1976C48.9277 72.4968 48.9806 72.6664 49.01 72.7944C49.0451 72.936 49.0751 73.0574 49.0934 73.1579C49.0934 73.1579 49.1357 73.3729 49.1634 73.5997C49.2244 74.4214 49.2192 75.2467 49.1478 76.0675C49.1148 76.4543 49.0644 76.9649 48.9789 77.5716L49.4 77.6075C49.4941 77.1155 49.559 76.6185 49.5946 76.1189C49.6442 75.4997 49.6479 74.8777 49.6054 74.2581C49.5904 73.971 49.554 73.6854 49.4966 73.4037C49.4388 73.1347 49.3771 72.9115 49.3404 72.7895C49.3142 72.7015 49.262 72.5254 49.1863 72.3076C49.0645 71.9627 48.9201 71.6261 48.7539 71.3002C48.7165 71.2136 48.6719 71.1302 48.6203 71.0511C48.4884 70.8616 48.3091 70.6746 48.2734 70.698C48.2523 70.7094 48.2806 70.7712 48.4075 71.099C48.452 71.2084 48.4848 71.297 48.5071 71.3518C48.6462 71.6938 48.7497 71.9799 48.8254 72.1976Z" fill="#337C32"/>
<path d="M50.6507 73.4494C50.6735 73.4184 50.7053 73.3617 50.7449 73.2924C50.8637 73.0847 50.8937 73.0477 50.8809 73.04C50.8625 73.0186 50.7188 73.1252 50.6079 73.2411C50.5613 73.2849 50.5209 73.3348 50.4875 73.3893C50.3389 73.5921 50.2018 73.803 50.0766 74.021C49.9975 74.1595 49.9406 74.2734 49.9155 74.3307C49.882 74.4071 49.809 74.5527 49.7398 74.7317C49.6673 74.9157 49.6084 75.1048 49.5636 75.2976C49.4629 75.7128 49.3931 76.135 49.3547 76.5605C49.3237 76.904 49.31 77.2488 49.3135 77.5935L49.5876 77.6169C49.5999 77.3935 49.6224 77.0521 49.6627 76.5802C49.7071 76.0156 49.8 75.4559 49.9403 74.9072C49.9866 74.7594 50.0391 74.6185 50.0391 74.6185C50.0641 74.5374 50.0956 74.4585 50.1333 74.3824C50.174 74.3 50.2236 74.1921 50.3273 74.0028C50.4065 73.8643 50.5096 73.6817 50.6507 73.4494Z" fill="#337C32"/>
<path d="M143.332 77.6042C143.35 77.531 143.365 77.4105 143.399 77.2552C143.476 76.8062 143.498 76.7125 143.468 76.7118C143.411 76.6899 143.235 76.9745 143.108 77.2544C143.062 77.3677 143.026 77.4853 143.002 77.6053C142.877 78.0673 142.778 78.5362 142.708 79.0097C142.668 79.3122 142.649 79.5503 142.634 79.6708C142.624 79.8385 142.593 80.1383 142.59 80.4976C142.589 80.872 142.617 81.2457 142.672 81.6161C142.777 82.4175 142.945 83.2094 143.175 83.9845C143.351 84.6112 143.565 85.2271 143.813 85.8289L144.347 85.6704C144.073 84.9187 143.874 84.2807 143.731 83.8001C143.424 82.7721 143.202 81.7206 143.067 80.656C143.04 80.3637 143.044 80.0723 143.044 80.0723C143.044 79.9367 143.047 79.7807 143.059 79.5835C143.067 79.4069 143.089 79.1777 143.139 78.7753C143.18 78.4727 143.242 78.0765 143.332 77.6042Z" fill="#337C32"/>
<path d="M139.831 78.7601C140.001 78.8937 140.112 78.9964 140.292 79.1657C140.499 79.356 140.691 79.5313 140.928 79.7902C141.151 80.034 141.306 80.2204 141.418 80.3614C141.671 80.6736 141.84 80.9044 142.014 81.1529C142.185 81.3926 142.337 81.5995 142.524 81.8925C142.66 82.1137 142.756 82.2691 142.781 82.3198C142.93 82.5854 142.926 82.6059 143.066 82.8743C143.33 83.3577 143.471 83.529 143.405 83.6452C143.392 83.6698 143.372 83.6898 143.347 83.7024C143.322 83.715 143.294 83.7196 143.266 83.7157C143.2 83.6964 143.174 83.6074 143.122 83.4678C143.025 83.2295 142.913 82.9976 142.786 82.7735C142.764 82.7318 142.744 82.6989 142.699 82.6154C142.575 82.4004 142.487 82.2716 142.422 82.1553C142.227 81.8355 142.248 81.8389 142.11 81.6089C142.001 81.4472 141.913 81.3186 141.736 81.0611C141.551 80.8064 141.436 80.6564 141.261 80.4372C141.025 80.1489 140.846 79.9504 140.713 79.8058C140.568 79.6552 140.391 79.4654 140.141 79.2299C139.95 79.049 139.749 78.8791 139.539 78.7209C139.281 78.5264 139.072 78.3948 139.007 78.3462C138.874 78.2695 138.691 78.1591 138.433 78.0324C138.341 77.992 138.261 77.9577 138.181 77.9234C138.079 77.8857 138.002 77.8603 137.856 77.8068C137.722 77.759 137.587 77.7184 137.449 77.6854C137.363 77.6645 137.276 77.6516 137.187 77.6469C137.032 77.6639 136.897 77.646 136.744 77.672C136.652 77.6878 136.562 77.7083 136.472 77.7334C136.55 77.6739 136.64 77.6309 136.735 77.6069C136.82 77.5854 136.906 77.5726 136.994 77.5687C137.024 77.5694 137.066 77.5763 137.178 77.5819C137.285 77.5848 137.392 77.5952 137.498 77.6129C137.626 77.6339 137.752 77.6644 137.875 77.7042C137.946 77.7219 138.016 77.7432 138.084 77.768C138.141 77.7898 138.207 77.8091 138.275 77.8372C138.482 77.9162 138.681 78.0125 138.871 78.125C139.067 78.2322 139.256 78.3507 139.438 78.48C139.538 78.5471 139.664 78.6354 139.831 78.7601Z" fill="#5F852D"/>
<path d="M139.159 80.0731C139.317 80.097 139.472 80.1422 139.619 80.2075C139.744 80.2571 139.863 80.3191 139.975 80.3925C140.158 80.5028 140.426 80.6652 140.791 80.9153C141.058 81.1159 141.311 81.3354 141.547 81.5721C142.076 82.0553 142.479 82.6603 142.721 83.3347C142.812 83.5422 142.889 83.7556 142.951 83.9734C143.034 84.2199 143.086 84.4273 143.127 84.5991C143.201 84.8483 143.257 85.1029 143.32 85.3842C143.355 85.5677 143.389 85.7512 143.421 85.9257C143.55 85.8875 143.69 85.8554 143.81 85.8199C143.725 85.3784 143.616 84.9422 143.482 84.5131C143.313 83.9831 143.112 83.4639 142.88 82.9583C142.774 82.7379 142.667 82.5468 142.665 82.538C142.665 82.538 142.571 82.3914 142.487 82.2422C142.148 81.7761 141.753 81.3534 141.312 80.9834C140.81 80.5585 140.237 80.2269 139.619 80.0042C139.449 79.9562 139.275 79.9235 139.099 79.9067C138.928 79.8848 138.754 79.8937 138.586 79.933C138.431 79.9663 138.283 80.0267 138.149 80.1114C137.998 80.191 137.859 80.2909 137.736 80.4082C137.879 80.3248 138.029 80.2543 138.184 80.1977C138.336 80.1267 138.499 80.0817 138.665 80.0646C138.829 80.0331 138.997 80.036 139.159 80.0731Z" fill="#337C32"/>
<path d="M139.677 75.8519C139.798 76.1489 139.953 76.4312 140.137 76.6933C140.214 76.8159 140.665 77.5924 141.058 78.4441C141.326 79.0424 141.532 79.601 141.862 80.5102C141.898 80.5965 141.954 80.7539 142.047 80.9976C142.227 81.4673 142.353 81.8267 142.462 82.1238C142.801 83.0302 142.813 83.0364 142.983 83.5088C143.159 83.999 143.254 84.2517 143.29 84.4056C143.365 84.6931 143.464 84.993 143.54 85.2805C143.581 85.4523 143.647 85.7425 143.792 85.7577C143.843 85.7528 143.893 85.7411 143.941 85.7229C144.019 85.7008 144.094 85.672 144.166 85.6368C144.359 85.5117 143.957 84.5272 143.905 84.3875C143.76 84.0335 143.57 83.5283 143.355 82.9046C142.966 81.9352 142.687 81.2629 142.493 80.846C142.396 80.6228 142.159 80.0929 141.949 79.6225C141.868 79.4527 141.783 79.2652 141.686 79.0419C141.318 78.2408 141.172 77.9163 140.921 77.4775C140.665 77.0417 140.378 76.6253 140.06 76.2319C139.993 76.1745 139.72 75.8293 139.677 75.8519Z" fill="#337C32"/>
<path d="M144.128 79.0947C144.306 79.3877 144.403 79.557 144.47 79.6907C144.547 79.8388 144.604 79.9579 144.651 80.0625C144.651 80.0625 144.755 80.2864 144.835 80.5211C145.1 81.3891 145.293 82.2774 145.412 83.177C145.469 83.5973 145.536 84.1588 145.585 84.8334L146.052 84.7709C146.035 84.2205 145.986 83.6715 145.905 83.1268C145.814 82.4493 145.669 81.7799 145.473 81.1249C145.387 80.8202 145.279 80.5223 145.149 80.2335C145.022 79.9574 144.894 79.7369 144.828 79.611C144.775 79.523 144.678 79.3459 144.542 79.1265C144.324 78.7854 144.085 78.4575 143.829 78.1445C143.768 78.0603 143.7 77.9818 143.625 77.9103C143.43 77.7384 143.196 77.5796 143.16 77.6161C143.137 77.6271 143.186 77.6918 143.401 78.0116C143.481 78.1197 143.534 78.2077 143.573 78.258C143.806 78.5912 143.992 78.8753 144.128 79.0947Z" fill="#337C32"/>
<path d="M146.883 77.585C146.978 77.4224 147.083 77.2655 147.197 77.1152C147.305 76.9624 147.425 76.8191 147.557 76.6866C147.6 76.6413 147.644 76.6037 147.68 76.5671C147.725 76.5242 147.771 76.4836 147.82 76.4454C147.901 76.3721 147.988 76.3048 148.079 76.2443C148.155 76.194 148.234 76.1491 148.315 76.1098C148.4 76.0668 148.43 76.0469 148.453 76.0359C148.522 76.0086 148.593 75.9884 148.666 75.9756C148.748 75.9611 148.832 75.9634 148.913 75.9822C148.835 75.9939 148.758 76.0095 148.681 76.029C148.555 76.0619 148.456 76.1225 148.331 76.1631C148.264 76.1973 148.201 76.2376 148.142 76.2835C148.047 76.3566 147.956 76.4348 147.87 76.5179C147.776 76.6098 147.725 76.6562 147.66 76.7204C147.61 76.7746 147.56 76.8289 147.503 76.892C147.347 77.0791 147.244 77.2276 147.168 77.3329C147.136 77.3928 147.02 77.5667 146.888 77.8061C146.781 78.001 146.684 78.2016 146.6 78.4072C146.488 78.6757 146.418 78.8833 146.358 79.0496C146.306 79.2072 146.236 79.4225 146.154 79.7266C146.095 79.9564 146.058 80.1118 146.003 80.3727C145.956 80.6325 145.932 80.7624 145.905 80.9245C145.878 81.1499 145.893 81.14 145.853 81.4543C145.844 81.5666 145.82 81.6964 145.799 81.9053C145.793 81.9852 145.789 82.0175 145.786 82.0574C145.766 82.2742 145.76 82.492 145.767 82.7097C145.776 82.8353 145.786 82.9131 145.742 82.9507C145.722 82.9634 145.699 82.9696 145.675 82.9685C145.652 82.9674 145.629 82.959 145.61 82.9446C145.52 82.8775 145.569 82.6966 145.605 82.2323C145.62 81.9767 145.61 81.9623 145.633 81.7057C145.635 81.6579 145.655 81.5047 145.683 81.287C145.726 80.9961 145.771 80.784 145.821 80.5397C145.869 80.2876 145.919 80.0512 146.006 79.7226C146.044 79.575 146.099 79.3775 146.186 79.1123C146.28 78.8304 146.367 78.6285 146.461 78.41C146.542 78.217 146.591 78.0994 146.676 77.9375C146.762 77.7834 146.829 77.6715 146.883 77.585Z" fill="#5F852D"/>
<path d="M148.027 78.5409C148.162 78.4965 148.303 78.4749 148.444 78.4771C148.584 78.467 148.724 78.4694 148.863 78.4844C148.727 78.4365 148.586 78.4075 148.442 78.3982C148.309 78.3793 148.174 78.384 148.042 78.4121C147.899 78.4399 147.762 78.4932 147.638 78.5692C147.508 78.6431 147.385 78.7286 147.27 78.8244C146.87 79.2103 146.543 79.6647 146.303 80.1661C146.091 80.6045 145.933 81.0673 145.833 81.5443C145.819 81.6886 145.798 81.8341 145.798 81.8341C145.799 81.8419 145.783 82.0263 145.777 82.2329C145.774 82.7034 145.798 83.1737 145.851 83.6412C145.897 84.0187 145.963 84.3932 146.051 84.7632C146.156 84.7492 146.275 84.7252 146.388 84.7101C146.352 84.5644 146.315 84.4109 146.278 84.2574C146.23 84.0183 146.184 83.8026 146.155 83.5846C146.127 83.4379 146.095 83.26 146.074 83.0409C146.047 82.8513 146.032 82.6601 146.03 82.4685C145.983 81.8644 146.085 81.2579 146.326 80.7019C146.426 80.4375 146.545 80.1806 146.682 79.9333C146.876 79.6141 147.027 79.3957 147.13 79.2473C147.191 79.1518 147.262 79.0628 147.341 78.9815C147.431 78.8803 147.535 78.7918 147.649 78.7183C147.762 78.6336 147.89 78.5731 148.027 78.5409Z" fill="#337C32"/>
<path d="M145.623 76.0662C145.514 76.4796 145.436 76.9005 145.39 77.3253C145.349 77.7508 145.348 78.0519 145.342 78.7975C145.345 79.003 145.343 79.1775 145.34 79.3364C145.341 79.772 145.341 80.2632 145.344 80.4687C145.339 80.8577 145.356 81.4733 145.392 82.3557C145.442 82.9115 145.471 83.3673 145.481 83.6906C145.49 83.8163 145.52 84.7154 145.713 84.7451C145.781 84.7472 145.849 84.7434 145.916 84.7337C145.959 84.7311 146.002 84.7227 146.044 84.7086C146.15 84.6468 146.101 84.3999 146.073 84.2531C146.031 84.0051 146.004 83.7394 145.962 83.4915C145.937 83.3603 145.923 83.1324 145.888 82.6934C145.856 82.2699 145.863 82.261 145.811 81.4441C145.792 81.1773 145.765 80.8561 145.741 80.4314C145.728 80.2114 145.717 80.0703 145.715 79.9913C145.654 79.1755 145.62 78.6731 145.619 78.1186C145.628 77.3252 145.707 76.5699 145.723 76.4489C145.775 76.1826 145.796 75.9112 145.787 75.6401C145.745 75.6378 145.655 75.9986 145.623 76.0662Z" fill="#337C32"/>
<path d="M144.233 76.7626C144.207 76.4365 144.134 76.1159 144.014 75.8114C143.931 76.1401 143.903 76.4801 143.929 76.8179C143.929 77.1522 143.952 77.4388 143.976 77.7847C143.998 78.0639 144.002 78.0931 144.033 78.4973C144.056 78.8359 144.057 78.9026 144.078 79.1673C144.102 79.4611 144.125 79.5768 144.143 79.8269C144.166 80.1654 144.195 80.4958 144.218 80.8344C144.264 81.5188 144.356 82.0932 144.48 82.901C144.548 83.3525 144.645 83.9113 144.777 84.5546C144.941 84.5327 145.104 84.5108 145.267 84.4815C145.124 83.81 145.033 83.2428 144.975 82.8125C144.914 82.2414 144.849 81.7599 144.806 81.3795C144.742 80.9053 144.74 80.8907 144.704 80.5613C144.629 79.9475 144.631 79.8507 144.546 79.1566C144.513 78.9085 144.514 78.9158 144.448 78.3676C144.397 77.9361 144.391 77.8851 144.363 77.6807C144.307 77.265 144.277 77.0388 144.233 76.7626Z" fill="#5F852D"/>
<path d="M145.506 77.4982C145.528 77.4359 145.56 77.335 145.603 77.2103C145.728 76.8372 145.757 76.7666 145.733 76.755C145.691 76.7308 145.501 76.9493 145.364 77.1683C145.31 77.2594 145.265 77.355 145.228 77.4539C145.06 77.827 144.916 78.211 144.799 78.603C144.726 78.8505 144.677 79.0502 144.652 79.1499C144.618 79.2883 144.561 79.541 144.511 79.8448C144.462 80.1627 144.436 80.4839 144.435 80.8056C144.421 81.5005 144.458 82.1954 144.547 82.8849C144.613 83.4414 144.713 83.9935 144.844 84.5384L145.313 84.4756C145.185 83.8021 145.101 83.234 145.043 82.8035C144.92 81.8899 144.869 80.9677 144.894 80.0459C144.912 79.7909 144.948 79.5485 144.948 79.5485C144.963 79.435 144.99 79.2978 145.022 79.1376C145.048 78.9929 145.098 78.8006 145.195 78.4607C145.269 78.2133 145.369 77.8879 145.506 77.4982Z" fill="#337C32"/>
<path d="M143.613 80.5591C143.739 80.765 143.8 80.883 143.85 80.9728C143.896 81.0559 143.936 81.1425 143.968 81.2318C143.968 81.2318 144.034 81.3864 144.094 81.5492C144.28 82.155 144.414 82.7756 144.494 83.4043C144.565 83.9296 144.608 84.31 144.634 84.559L144.939 84.5182C144.924 84.1326 144.89 83.748 144.837 83.3658C144.772 82.8921 144.671 82.4241 144.536 81.9653C144.476 81.7523 144.4 81.5441 144.309 81.3422C144.222 81.1459 144.132 80.987 144.091 80.9035C144.06 80.8409 143.99 80.7165 143.894 80.566C143.743 80.3289 143.578 80.1005 143.401 79.8819C143.361 79.8227 143.313 79.7692 143.258 79.7227C143.128 79.599 142.962 79.4877 142.942 79.5125C142.929 79.5218 142.964 79.5616 143.108 79.7874C143.156 79.8627 143.195 79.9243 143.222 79.9579C143.392 80.2099 143.517 80.4085 143.613 80.5591Z" fill="#337C32"/>
<path d="M127.723 82.2712C127.762 82.4048 127.772 82.4383 127.859 82.7186C127.968 83.0754 127.967 83.0706 128.014 83.233C128.151 83.6853 128.179 83.7446 128.301 84.1443C128.368 84.3577 128.371 84.3673 128.462 84.6777C128.539 84.9246 128.631 85.2399 128.749 85.6096C128.831 85.8913 128.93 86.2666 129.025 86.7207C129.134 86.6943 129.241 86.6631 129.348 86.6319C129.254 86.1984 129.161 85.8263 129.08 85.5288C128.935 84.9958 128.835 84.6157 128.676 84.1801C128.597 83.9647 128.525 83.7526 128.446 83.5372C128.389 83.3777 128.372 83.2998 128.306 83.1116C128.247 82.9425 128.229 82.901 128.151 82.6856C128.059 82.4272 128.054 82.408 127.991 82.2294C127.911 82.0092 127.847 81.8258 127.755 81.6194C127.672 81.4259 127.475 81.0016 127.427 81.0206C127.437 81.2414 127.479 81.4596 127.553 81.668C127.601 81.8508 127.644 81.9989 127.723 82.2712Z" fill="#5F852D"/>
<path d="M127.421 82.9805C127.575 83.1637 127.659 83.2689 127.714 83.3512C127.778 83.4415 127.832 83.519 127.872 83.5849C127.872 83.5849 127.961 83.725 128.042 83.8774C128.309 84.4404 128.531 85.024 128.704 85.6224C128.786 85.9041 128.89 86.2781 128.995 86.7293L129.302 86.64C129.234 86.2673 129.144 85.899 129.033 85.537C128.899 85.0866 128.732 84.6469 128.533 84.2213C128.445 84.023 128.341 83.8314 128.224 83.6484C128.11 83.4744 128.005 83.3338 127.946 83.2578C127.904 83.2027 127.819 83.0928 127.706 82.9598C127.526 82.7497 127.332 82.5516 127.126 82.367C127.076 82.316 127.022 82.2695 126.964 82.2278C126.82 82.13 126.642 82.0469 126.623 82.0731C126.612 82.0869 126.648 82.1228 126.827 82.3194C126.888 82.3845 126.936 82.4381 126.966 82.4707C127.158 82.6739 127.309 82.8475 127.421 82.9805Z" fill="#337C32"/>
<path d="M129.05 83.3661C129.058 83.3379 129.065 83.2893 129.074 83.2297C129.101 83.0508 129.112 83.0164 129.101 83.0145C129.083 83.0044 129.01 83.1188 128.964 83.2309C128.943 83.2744 128.928 83.3206 128.919 83.3681C128.87 83.5516 128.83 83.7378 128.801 83.9256C128.783 84.0449 128.774 84.1408 128.772 84.188C128.769 84.251 128.758 84.3736 128.758 84.5187C128.757 84.6683 128.767 84.8178 128.788 84.9659C128.83 85.2862 128.896 85.603 128.985 85.9137C129.056 86.1644 129.141 86.4113 129.237 86.6535L129.437 86.5953C129.385 86.4344 129.307 86.1875 129.207 85.8436C129.085 85.4333 128.998 85.0132 128.947 84.5879C128.939 84.471 128.938 84.3574 128.938 84.3574C128.933 84.2933 128.934 84.229 128.94 84.165C128.946 84.0958 128.952 84.0062 128.973 83.8444C128.991 83.7253 129.014 83.5683 129.05 83.3661Z" fill="#337C32"/>
<path d="M138.29 81.109C138.45 81.3124 138.537 81.4306 138.598 81.5246C138.669 81.6286 138.722 81.7127 138.766 81.7868C138.766 81.7868 138.863 81.9451 138.944 82.1136C139.218 82.7394 139.441 83.3867 139.608 84.0489C139.687 84.3582 139.787 84.7722 139.883 85.2723L140.226 85.1847C140.165 84.7746 140.081 84.3685 139.973 83.9682C139.845 83.4696 139.678 82.9818 139.474 82.5092C139.383 82.2888 139.276 82.0756 139.154 81.871C139.034 81.6758 138.919 81.522 138.859 81.4337C138.812 81.3725 138.724 81.2486 138.603 81.0964C138.41 80.8605 138.203 80.6362 137.983 80.4246C137.931 80.3669 137.873 80.3143 137.811 80.2674C137.65 80.1559 137.461 80.0577 137.437 80.0881C137.421 80.0984 137.463 80.1424 137.652 80.3627C137.721 80.4365 137.769 80.4977 137.803 80.5318C138.006 80.7606 138.17 80.9567 138.29 81.109Z" fill="#337C32"/>
<path d="M140.219 79.7389C140.276 79.609 140.341 79.4825 140.412 79.3601C140.48 79.2364 140.557 79.1187 140.644 79.0081C140.673 78.9704 140.702 78.9385 140.726 78.9081C140.755 78.8721 140.787 78.8376 140.82 78.8049C140.874 78.7428 140.933 78.6849 140.996 78.6317C141.048 78.5876 141.103 78.547 141.161 78.5104C141.22 78.4709 141.241 78.4534 141.257 78.4431C141.306 78.4167 141.358 78.3954 141.411 78.3795C141.471 78.3615 141.534 78.3558 141.596 78.3628C141.539 78.3784 141.483 78.3968 141.427 78.418C141.336 78.4536 141.267 78.5076 141.177 78.549C141.13 78.5804 141.087 78.616 141.046 78.6555C140.982 78.7184 140.921 78.7849 140.864 78.8546C140.801 78.9315 140.767 78.9706 140.724 79.0244C140.692 79.0693 140.659 79.1143 140.622 79.1665C140.522 79.3199 140.458 79.44 140.41 79.5253C140.391 79.573 140.32 79.7132 140.242 79.9038C140.179 80.0589 140.125 80.2173 140.079 80.3784C140.02 80.589 139.985 80.7502 139.955 80.8799C139.929 81.0023 139.896 81.1694 139.862 81.404C139.837 81.5809 139.824 81.7004 139.805 81.9003C139.793 82.0986 139.787 82.1978 139.78 82.3214C139.78 82.4924 139.79 82.4837 139.788 82.7222C139.791 82.8069 139.784 82.9061 139.787 83.0641C139.79 83.1243 139.79 83.1487 139.791 83.1788C139.795 83.3427 139.809 83.5061 139.834 83.6681C139.851 83.7613 139.866 83.8186 139.836 83.8506C139.822 83.8618 139.806 83.8685 139.788 83.8698C139.77 83.871 139.752 83.8668 139.737 83.8576C139.663 83.8154 139.684 83.6758 139.671 83.3255C139.659 83.1331 139.651 83.1232 139.645 82.9293C139.642 82.8934 139.644 82.7771 139.646 82.6118C139.653 82.3905 139.668 82.2281 139.684 82.041C139.697 81.8484 139.714 81.6672 139.751 81.414C139.766 81.3003 139.79 81.1477 139.832 80.9417C139.877 80.7228 139.925 80.5642 139.976 80.3926C140.019 80.2413 140.046 80.149 140.095 80.0205C140.146 79.8978 140.186 79.8082 140.219 79.7389Z" fill="#5F852D"/>
<path d="M141.157 80.3535C141.254 80.3085 141.358 80.28 141.464 80.2692C141.567 80.2495 141.672 80.239 141.778 80.238C141.672 80.2141 141.563 80.2048 141.455 80.2104C141.354 80.2079 141.253 80.2233 141.158 80.2558C141.053 80.2892 140.955 80.341 140.869 80.4089C140.778 80.4754 140.694 80.55 140.616 80.6318C140.351 80.9553 140.146 81.3237 140.011 81.7196C139.89 82.0661 139.813 82.4259 139.78 82.7912C139.782 82.9004 139.779 83.011 139.779 83.011C139.78 83.0167 139.785 83.1561 139.799 83.311C139.837 83.6631 139.897 84.0126 139.978 84.3574C140.044 84.6357 140.127 84.91 140.225 85.179C140.302 85.1594 140.389 85.131 140.472 85.1098C140.433 85.004 140.392 84.8924 140.351 84.7809C140.293 84.6064 140.241 84.449 140.2 84.2886C140.166 84.1813 140.126 84.0511 140.091 83.8892C140.054 83.7498 140.027 83.6081 140.008 83.465C139.921 83.0173 139.943 82.555 140.075 82.1182C140.126 81.9117 140.193 81.7092 140.273 81.5123C140.391 81.2566 140.485 81.0801 140.549 80.9602C140.586 80.8834 140.631 80.8107 140.683 80.7429C140.742 80.6594 140.812 80.5841 140.891 80.5191C140.967 80.4461 141.058 80.3897 141.157 80.3535Z" fill="#337C32"/>
<path d="M139.143 78.7137C139.098 79.0323 139.077 79.3538 139.079 79.6756C139.085 79.9973 139.111 80.2225 139.172 80.7806C139.192 80.934 139.206 81.0646 139.218 81.1836C139.257 81.5092 139.3 81.8765 139.32 82.0299C139.35 82.3211 139.417 82.7801 139.522 83.4366C139.608 83.8479 139.669 84.1862 139.705 84.427C139.722 84.5201 139.824 85.1898 139.97 85.1951C140.021 85.1908 140.072 85.182 140.121 85.1688C140.154 85.1631 140.185 85.153 140.215 85.1389C140.289 85.0834 140.23 84.9031 140.196 84.7958C140.144 84.614 140.1 84.4178 140.047 84.2359C140.016 84.1402 139.986 83.971 139.922 83.6458C139.861 83.3319 139.865 83.3247 139.755 82.7184C139.717 82.5206 139.669 82.2828 139.613 81.9674C139.584 81.8039 139.564 81.6994 139.555 81.6406C139.439 81.0358 139.369 80.6631 139.32 80.2487C139.257 79.6547 139.25 79.0831 139.251 78.9911C139.267 78.7875 139.259 78.5828 139.228 78.3809C139.197 78.3827 139.161 78.6604 139.143 78.7137Z" fill="#337C32"/>
<path d="M137.158 80.7069C137.209 80.804 137.222 80.8283 137.334 81.0309C137.474 81.2891 137.472 81.2856 137.534 81.4035C137.711 81.731 137.742 81.7724 137.899 82.0617C137.985 82.2158 137.988 82.2228 138.107 82.4481C138.206 82.6265 138.326 82.8554 138.476 83.1221C138.583 83.3266 138.719 83.6007 138.864 83.9362C138.944 83.8987 139.021 83.8577 139.099 83.8168C138.958 83.497 138.828 83.2245 138.718 83.0077C138.522 82.6192 138.385 82.3416 138.194 82.0304C138.1 81.8764 138.01 81.7242 137.916 81.5703C137.847 81.4562 137.821 81.3988 137.741 81.2638C137.668 81.1428 137.648 81.1134 137.553 80.9595C137.442 80.7744 137.435 80.7605 137.359 80.6326C137.262 80.4752 137.184 80.3438 137.08 80.1989C136.986 80.0626 136.767 79.7663 136.733 79.7883C136.775 79.9572 136.842 80.119 136.932 80.2683C136.998 80.4019 137.054 80.5093 137.158 80.7069Z" fill="#5F852D"/>
<path d="M137.039 81.3017C137.187 81.4189 137.268 81.4869 137.324 81.5417C137.387 81.6014 137.441 81.6527 137.482 81.6972C137.482 81.6972 137.573 81.7914 137.66 81.8963C137.954 82.2887 138.217 82.7043 138.445 83.1388C138.553 83.3434 138.692 83.6157 138.844 83.9473L139.067 83.8302C138.956 83.5532 138.828 83.2831 138.686 83.0211C138.512 82.6946 138.313 82.3815 138.093 82.0844C137.993 81.9453 137.883 81.8137 137.764 81.6909C137.648 81.5746 137.545 81.4825 137.488 81.4331C137.446 81.3974 137.364 81.3258 137.256 81.2409C137.084 81.1071 136.903 80.9847 136.715 80.8747C136.668 80.8432 136.619 80.8158 136.568 80.7927C136.441 80.74 136.291 80.7038 136.28 80.727C136.273 80.7395 136.308 80.7614 136.477 80.885C136.534 80.9256 136.579 80.9595 136.608 80.9798C136.787 81.1066 136.931 81.2168 137.039 81.3017Z" fill="#337C32"/>
<path d="M138.357 81.3429C138.359 81.32 138.356 81.2814 138.354 81.234C138.347 81.0916 138.35 81.0633 138.341 81.0636C138.325 81.0588 138.287 81.1584 138.269 81.2522C138.26 81.2892 138.255 81.3271 138.256 81.3652C138.247 81.5147 138.246 81.6645 138.253 81.8141C138.258 81.9089 138.266 81.9843 138.272 82.0211C138.28 82.0702 138.29 82.1666 138.313 82.2786C138.336 82.3943 138.367 82.508 138.406 82.6191C138.489 82.8597 138.59 83.0938 138.708 83.3195C138.802 83.5017 138.906 83.679 139.019 83.8507L139.164 83.7745C139.098 83.6584 139 83.4801 138.868 83.2305C138.709 82.933 138.576 82.6225 138.47 82.3022C138.445 82.2132 138.426 82.1258 138.426 82.1258C138.413 82.077 138.403 82.0273 138.398 81.977C138.392 81.9226 138.382 81.8526 138.373 81.7243C138.368 81.6294 138.361 81.5048 138.357 81.3429Z" fill="#337C32"/>
</g>
<defs>
<clipPath id="clip0_2438_7171">
<rect width="174.64" height="95.613" fill="white" transform="translate(0.640137)"/>
</clipPath>
</defs>
</svg>
