<svg viewBox="0 0 1041 673" fill="none" xmlns="http://www.w3.org/2000/svg">
    <path d="M930.276 31.5285H109.538C60.3792 31.5285 20.5282 71.3795 20.5282 120.538V559.113C20.5282 608.271 60.3792 648.122 109.538 648.122H930.276C979.434 648.122 1019.29 608.271 1019.29 559.113V120.538C1019.29 71.3795 979.434 31.5285 930.276 31.5285Z" fill="#B6CEE1" stroke="#116619" stroke-width="6"/>
    <path d="M10.3468 40.3962C14.0802 43.5191 30.3872 57.8544 33.3678 82.5644C35.0452 97.2366 31.7441 112.047 23.9944 124.618C23.9917 129.075 23.9889 133.532 23.9861 137.989C25.0232 137.01 49.8968 112.69 42.0006 79.7975C35.744 53.7353 13.6632 42.0771 10.3468 40.3962Z" fill="#48964E"/>
    <path d="M17.0569 128.701C8.9823 135.637 6.59974 141.986 5.91973 146.508C3.13445 165.034 25.505 175.593 28.6391 200.181C30.0691 211.399 26.9366 221.161 23.9805 227.767L23.9875 239.712C41.4527 218.375 42.4272 204.688 40.0084 196.092C35.2337 179.124 13.756 169.631 15.3641 150.788C15.5785 148.344 16.1464 145.945 17.05 143.665C17.0523 138.677 17.0547 133.689 17.0569 128.701Z" fill="#48964E"/>
    <path d="M17.0604 232.674C5.48565 244.641 4.28566 252.946 5.18185 258.219C6.6285 266.731 13.6658 268.101 22.5951 285.077C28.1058 295.553 28.5784 301.026 28.6455 303.671C28.7255 309.923 27.1172 316.082 23.9901 321.497L23.991 330.539C41.6305 318.739 42.9887 308.886 42.9598 304.851C42.909 297.746 38.4361 291.725 29.6047 279.838C21.4098 268.807 15.4083 264.258 14.9215 255.415C14.7654 251.724 15.499 248.049 17.0604 244.7V232.674Z" fill="#48964E"/>
    <path d="M17.0604 325.22V335.103C13.8048 340.271 12.0902 346.261 12.1177 352.369C12.5845 369.455 28.9968 376.064 34.1056 392.065C36.8704 400.725 36.9913 414.222 23.998 434.822C23.9945 430.933 23.991 427.045 23.9876 423.156C26.0384 415.924 26.4201 408.32 25.1039 400.919C20.7622 377.867 0.685835 370.851 0.0169104 353.992C-0.233507 347.682 2.15076 337.868 17.0604 325.22Z" fill="#48964E"/>
    <path d="M17.0501 427.831C4.97676 444.271 4.77025 454.633 6.80518 461.054C10.6864 473.3 24.3096 476.221 27.465 490.052C29.351 498.318 26.4774 506.012 23.9945 510.935C23.9957 514.078 23.9969 517.22 23.998 520.363C37.3567 504.069 38.216 493.78 36.1717 487.248C32.6197 475.899 19.2639 472.709 15.9546 458.324C14.7898 452.761 15.1723 446.984 17.0605 441.623L17.0501 427.831Z" fill="#48964E"/>
    <path d="M17.0612 515.065C8.99151 525.759 9.0124 531.824 10.4206 535.356C13.1376 542.17 22.1154 542.287 25.5465 550.039C28.053 555.702 26.0884 562.023 24.2826 566.146C24.3981 567.501 24.5498 568.909 24.7375 570.368C24.9274 571.825 25.1416 573.223 25.3799 574.563C36.23 556.687 35.4077 548.633 32.7037 544.579C28.6327 538.476 17.7069 537.555 16.3971 530.191C16.1254 528.432 16.3546 526.631 17.0587 524.996L17.0612 515.065Z" fill="#48964E"/>
    <path d="M18.0222 572.507C13.0891 583.935 14.5022 589.32 16.4894 592.115C20.5839 597.873 29.2555 595.641 37.1308 602.851C40.4592 606 42.9026 609.968 44.2167 614.358C44.9419 615.213 45.7119 616.085 46.5267 616.972C47.3524 617.869 48.1675 618.718 48.9719 619.52C49.211 604.959 45.11 599.01 41.3366 596.265C34.4535 591.258 24.7422 594.061 20.6398 587.632C19.2122 585.118 18.7262 582.177 19.2687 579.337C19.0586 578.382 18.8583 577.4 18.668 576.389C18.4183 575.057 18.2031 573.763 18.0222 572.507Z" fill="#48964E"/>
    <path d="M42.0031 622.283C46.7911 638.508 53.2136 643.192 57.9382 644.631C66.9854 647.388 73.8136 639.441 88.7123 639.365C96.1929 639.413 103.556 641.227 110.203 644.66L119.037 644.657C102.87 630.479 91.01 628.438 82.73 629.801C72.3763 631.505 63.8322 639.154 54.9499 635.224C51.4655 633.513 48.6522 630.688 46.9564 627.196C46.2082 626.514 45.4495 625.795 44.6803 625.04C43.7328 624.108 42.8404 623.189 42.0031 622.283Z" fill="#48964E"/>
    <path d="M115.106 651.591C127.369 659.207 134.715 658.829 139.176 657.027C145.937 654.296 147.67 647.647 156.146 644.779C160.852 643.316 165.884 643.273 170.614 644.655H177.173C165.138 636.785 157.597 636.827 152.826 638.581C144.69 641.572 140.989 650.87 130.321 652.01C128.053 652.244 125.761 652.1 123.54 651.584L115.106 651.591Z" fill="#48964E"/>
    <path d="M176.174 651.59C191.651 661.554 201.029 661.231 206.763 659.02C215.799 655.534 218.489 646.308 229.636 643.525C235.059 642.31 240.718 642.705 245.919 644.66L253.388 644.657C239.944 633.895 230.994 633.305 225.357 634.671C213.782 637.475 209.318 650.187 194.515 652.342C190.476 652.902 186.366 652.647 182.428 651.591L176.174 651.59Z" fill="#48964E"/>
    <path d="M249.258 651.582C265.838 664.48 276.984 665.311 284.237 663.447C296.849 660.205 300.696 648.04 316.407 643.82C324.23 641.89 332.436 642.182 340.102 644.66L351.961 644.655C333.752 633.539 321.409 633.567 313.345 635.888C299.746 639.802 293.8 651.537 277.043 653.596C270.737 654.311 264.351 653.625 258.341 651.587L249.258 651.582Z" fill="#48964E"/>
    <path d="M345.465 651.591C365.599 662.904 377.705 661.874 385.027 658.872C394.833 654.852 399.56 645.86 412.771 643.525C418.459 642.583 424.289 642.969 429.804 644.655L443.017 644.658C425.156 629.441 413.953 628.334 406.868 630.539C395.057 634.214 392.044 647.915 376.764 652.231C370.046 653.964 362.974 653.737 356.381 651.577L345.465 651.591Z" fill="#48964E"/>
    <path d="M436.307 651.584C442.658 655.453 452.538 660.082 464.273 659.315C481.079 658.216 487.83 646.955 505.592 642.197C514.149 639.904 527.157 638.613 545.113 644.65L557.538 644.652C526.411 625.02 509.136 625.608 498.952 630.686C488.018 636.138 480.788 648.994 462.926 651.881C457.708 652.701 452.387 652.6 447.203 651.584H436.307Z" fill="#48964E"/>
    <path d="M562.702 651.585C568.452 653.494 574.507 654.314 580.558 654.002C600.049 652.891 608.674 639.807 623.353 634.67C633.854 630.996 650.007 630.496 674.713 644.655L660.42 644.66C650.354 641.913 639.791 641.525 629.551 643.525C608.509 647.856 601.319 660.833 583.509 662.118C576.428 662.63 565.421 661.455 551.171 651.587L562.702 651.585Z" fill="#48964E"/>
    <path d="M678.232 651.584C690.721 656.031 703.969 657.957 717.208 657.249C748.6 655.366 762.648 638.53 787.599 631.572C805.047 626.705 831.514 625.641 869.511 644.67L852.521 644.66C835.629 641.292 818.247 641.207 801.323 644.41C765.319 651.434 753.078 670.21 724.734 672.301C710.686 673.337 690.342 670.448 664.51 651.591L678.232 651.584Z" fill="#48964E"/>
    <path d="M863.063 651.567C886.607 667.621 902.874 668.248 913.515 665.66C932.602 661.019 935.367 645.599 956.862 642.787C972.959 640.681 980.122 648.188 995.268 643.23C1005.77 639.793 1012.88 632.731 1017.11 627.587C1009.96 632.466 1001.87 635.785 993.35 637.327C976.852 640.181 972.486 633.405 958.485 634.671C935.888 636.714 931.904 655.755 909.678 658.725C898.771 660.182 888.074 657.154 877.949 651.549L863.063 651.567Z" fill="#48964E"/>
    <path d="M999.208 69.8698C997.078 77.8959 996.928 86.3192 998.772 94.4161C1003.46 113.868 1018.27 119.09 1024.6 136.621C1027.5 144.66 1029.28 157.114 1022.75 175.443L1022.76 186.227C1042.99 157.86 1042.88 141.801 1038.91 132.342C1033.64 119.792 1018.97 112.695 1008.05 87.2683C1006.39 83.4222 1005.27 80.1954 1004.61 78.1808C1004.06 77.2256 1003.48 76.2551 1002.86 75.2693C1001.65 73.3353 1000.43 71.5367 999.208 69.8698Z" fill="#48964E"/>
    <path d="M1015.82 180.961C1011.89 187.507 1007.1 197.909 1008.95 209.578C1011.34 224.602 1022.78 229.453 1027.25 244.773C1029.47 252.361 1030.52 264.371 1022.75 281.839V294.295C1042.18 265.974 1041.87 250.456 1037.66 241.453C1032.33 230.076 1018.31 223.862 1015.52 206.479C1014.82 201.997 1014.92 197.427 1015.82 192.98V180.961Z" fill="#48964E"/>
    <path d="M1015.82 288.046C1006.9 300.577 1006.59 308.452 1008.44 313.504C1011.7 322.443 1022.43 324.583 1024.6 334.976C1025.36 339.343 1024.71 343.839 1022.75 347.816L1022.76 356.235C1032.27 345.732 1033.16 338.662 1032.12 334.09C1029.58 322.9 1013.72 319.142 1013.31 307.528C1013.28 304.468 1014.15 301.468 1015.81 298.9L1015.82 288.046Z" fill="#48964E"/>
    <path d="M1015.82 351.992C1005.73 364.487 1004.91 372.978 1006.3 378.586C1009.03 389.572 1021.11 392.861 1024.01 406.33C1025.05 411.659 1024.61 417.171 1022.75 422.272V434.384C1035.55 419.748 1036.56 410.288 1034.93 404.264C1031.75 392.556 1017.13 388.512 1014.86 373.569C1014.29 369.557 1014.62 365.469 1015.82 361.6L1015.82 351.992Z" fill="#48964E"/>
    <path d="M1015.82 426.515C1004.79 443.25 1004.97 453.074 1007.55 459.062C1011.73 468.749 1023.75 471.98 1025.04 483.19C1025.39 487.06 1024.59 490.946 1022.75 494.368L1022.75 503.383C1032.03 494.91 1033.54 488.412 1033.23 484.075C1032.34 471.543 1015.58 466.621 1013.75 451.093C1013.29 446.598 1014.01 442.06 1015.82 437.921L1015.82 426.515Z" fill="#48964E"/>
    <path d="M1015.82 499.014C1007.02 507.596 1005.4 514.24 1005.86 518.975C1006.87 529.57 1018.51 532.74 1023.27 545.391C1026.88 554.982 1024.61 564.882 1021.83 572.165C1021.6 573.851 1021.3 575.628 1020.93 577.483C1020.57 579.278 1020.17 580.978 1019.75 582.576C1036.03 561.403 1036.46 549.678 1033.45 542.808C1028.98 532.623 1014.59 527.777 1014.27 515.286C1014.22 512.647 1014.75 510.03 1015.82 507.617L1015.82 499.014Z" fill="#48964E"/>
    <path d="M1014.2 575.757C1009.84 580.03 1006.56 585.276 1004.62 591.064C1001.29 601.346 1004.9 606.523 1000.52 615.745C999.569 617.76 996.178 624.913 989.124 628.141C977.107 633.64 963.034 623.823 962.617 624.765C962.191 625.726 975.865 638.171 990.342 634.283C997.405 632.386 1005.59 626.476 1007.66 618.456C1009.61 610.929 1007.55 596.224 1009.29 592.035C1009.35 591.892 1009.8 590.836 1010.36 589.358C1010.98 587.685 1011.45 586.25 1011.78 585.179C1012.3 583.51 1012.81 581.738 1013.27 579.868C1013.63 578.455 1013.94 577.085 1014.2 575.757Z" fill="#48964E"/>
    <path d="M1001.47 61.5114C1001.37 56.6351 1000.25 51.8343 998.181 47.4151C991.658 33.5863 977.938 28.8425 974.865 27.862C988.36 26.1976 1001.09 32.6254 1006.59 43.5783C1012.43 55.2029 1007.59 66.8654 1006.81 68.643C1005.94 67.3385 1004.98 65.9914 1003.94 64.6156C1003.11 63.5224 1002.29 62.4876 1001.47 61.5114Z" fill="#48964E"/>
    <path d="M43.1074 75.3058C44.178 75.238 38.4338 54.3328 49.1947 41.4385C57.8654 31.0486 73.9217 29.8508 87.2125 30.7765C89.4119 30.2335 91.3744 29.8336 93.0296 29.5356C94.0802 29.3464 95.6591 29.081 97.592 28.8308C98.9585 28.6539 100.173 28.5272 101.193 28.4349C76.8268 18.8415 53.2042 23.3875 43.6608 37.2327C33.201 52.4075 41.9815 75.3771 43.1074 75.3058Z" fill="#48964E"/>
    <path d="M93.9102 36.4151C102.92 41.8452 116.869 48.1997 132.092 45.3121C149.99 41.9171 155.559 28.4282 174.15 22.9922C183.451 20.2726 198.036 18.9772 219.103 28.0634H236.353C199.711 5.44145 178.684 6.07504 165.96 12.2196C151.449 19.2267 139.936 37.1661 118.258 37.0114C114.152 36.9709 110.076 36.3133 106.166 35.0607C103.849 35.1485 101.363 35.337 98.7344 35.6676C97.0497 35.8795 95.4401 36.133 93.9102 36.4151Z" fill="#48964E"/>
    <path d="M228.079 34.994C228.944 35.3655 230.199 35.8987 231.72 36.5247C233.329 37.2753 234.978 37.935 236.661 38.5009C240.168 39.6001 245.142 41.035 251.186 42.359C257.024 43.638 276.468 46.4508 289.033 46.3082C320.503 45.951 334.661 25.56 366.507 19.7456C380.473 17.1958 400.921 16.8869 427.844 28.053C437.861 28.0582 447.878 28.0634 457.896 28.0685C399.445 -5.47043 365.669 -2.9533 345.479 6.02161C327.021 14.2264 308.788 32.7752 274.516 36.1947C264.406 37.1846 254.208 36.7811 244.207 34.9957L228.079 34.994Z" fill="#48964E"/>
    <path d="M437.286 34.9914C465.596 51.2299 483.707 50.326 495.115 46.3082C510.947 40.7325 518.143 27.6528 538.058 24.6155C547.925 23.263 557.975 24.4497 567.256 28.0634H586.506C555.693 5.68429 537.191 4.95595 525.662 9.56331C510.09 15.7864 504.033 33.0253 483.162 37.0114C474.91 38.4536 466.427 37.7578 458.521 34.9905C451.443 34.9908 444.364 34.9911 437.286 34.9914Z" fill="#48964E"/>
    <path d="M571.485 34.9957C596.982 49.3601 614.019 48.7852 625.05 45.3121C642.733 39.7448 651.283 24.7466 672.199 23.5087C680.314 23.1283 688.403 24.6898 695.793 28.0634H718.178C696.641 9.28632 680.986 6.98964 670.428 8.67782C649.18 12.0756 638.772 33.1835 609.666 35.9045C603.46 36.4718 597.205 36.1641 591.084 34.9904C584.551 34.9922 578.018 34.994 571.485 34.9957Z" fill="#48964E"/>
    <path d="M703.477 34.994C726.783 49.3467 740.366 48.8083 748.64 44.9801C759.428 39.9895 761.813 29.122 774.613 24.9106C784.975 21.5015 795.456 24.6605 802.943 28.0599C808.95 28.0605 814.957 28.0611 820.964 28.0617C789.526 7.85254 773.908 8.26014 765.463 13.4001C755.427 19.5093 753.178 33.732 739.786 37.3065C732.496 39.2524 725.544 37.0715 720.901 34.9957L703.477 34.994Z" fill="#48964E"/>
    <path d="M809.739 34.9931C815.789 39.6486 825.205 45.3044 836.74 45.2753C856.236 45.2261 864.499 28.9799 885.881 23.2873C895.544 20.7146 910.126 19.7014 930.432 28.0634C933.816 28.0668 937.197 28.2545 940.56 28.6259C943.741 28.9771 946.679 29.4677 949.349 30.0243C907.174 3.31469 886.881 4.6651 876.141 11.039C865.409 17.4079 857.069 33.0336 838.068 35.5356C833.569 36.1108 829.005 35.9274 824.567 34.9931H809.739Z" fill="#48964E"/>
    <path d="M934.578 35.0669C941.184 39.498 948.551 42.6711 956.309 44.4268C966.959 46.7913 978.032 46.4488 988.516 43.4307C979.796 43.5594 971.096 42.5926 962.617 40.553C959.399 39.7762 956.384 38.8836 953.578 37.9281C947.375 36.2526 941 35.2927 934.578 35.0669V35.0669Z" fill="#48964E"/>
    <path d="M101.41 35.4049C107.838 38.3593 117.566 41.6527 128.908 40.4695C152.537 38.0046 160.464 18.4851 181.344 14.1011C191.498 11.969 206.67 13.0066 227.939 28.0634C226.906 28.0455 225.873 28.0276 224.84 28.0096C205.872 15.3877 191.931 14.5197 182.672 16.0932C160.602 19.8442 152.632 39.5941 129.016 42.2109C116.358 43.6135 105.462 39.3998 98.4163 35.7755L101.41 35.4049Z" fill="#76B779"/>
    <path d="M95.3166 29.1536C85.4727 25.4876 74.7352 24.9591 64.5788 27.6407C59.6373 29.0252 51.9161 31.1809 46.4277 38.2288C39.199 47.5115 40.6058 58.6408 41.0045 61.2498C40.6717 58.7011 39.5176 47.6986 46.8534 38.7216C52.3326 32.0165 60.2123 29.9397 64.8739 28.7106C73.9135 26.4301 83.4148 26.7632 92.2725 29.671C93.2873 29.4985 94.302 29.326 95.3166 29.1536Z" fill="#76B779"/>
    <path d="M237.66 34.9822C252 39.4528 273.205 43.7283 297.002 38.7822C330.164 31.8895 340.922 12.7916 368.942 7.64488C385.526 4.5989 410.17 6.06968 443.834 28.0613L439.167 28.0649C408.29 9.14931 385.263 7.9398 369.975 10.3011C340.724 14.8192 329.915 33.9371 297.666 40.8482C271.862 46.3781 248.691 40.5865 233.399 34.9946C234.82 34.9905 236.24 34.9864 237.66 34.9822Z" fill="#76B779"/>
    <path d="M444.941 34.9911C452.929 40.0391 465.38 46.0803 479.841 44.6481C504.225 42.2331 513.083 20.6748 537.726 17.8641C546.079 16.9113 558.71 17.8317 575.226 28.0738L578.428 28.0634C560.424 15.2718 546.765 13.8309 537.394 15.0971C514.299 18.2174 505.779 39.3249 480.948 41.9918C467.881 43.3952 456.562 39.0193 448.925 35.0007C447.597 34.9975 446.269 34.9943 444.941 34.9911Z" fill="#76B779"/>
    <path d="M578.18 34.9873C595.154 43.6952 608.029 44.0214 616.418 42.8772C642.702 39.292 652.867 17.4572 676.737 17.5321C689.165 17.5711 699.182 23.5302 705.283 28.0599C706.237 28.0611 707.192 28.0623 708.147 28.0634C694.849 16.8455 684.006 14.7085 676.848 14.6545C653.408 14.4776 643.263 36.4358 616.085 40.3317C601.595 42.4089 589.063 38.3766 581.209 34.9905L578.18 34.9873Z" fill="#76B779"/>
    <path d="M710.788 34.9947C718.062 40.2465 728.459 45.7932 739.491 43.7627C755.802 40.7608 759.94 23.6929 776.605 19.5981C783.78 17.8351 794.554 18.163 809.898 28.0606L812.55 28.0609C794.731 15.2624 782.829 14.6367 774.982 16.9418C759.326 21.5405 755.488 39.0733 739.159 41.8811C729.507 43.5409 720.566 39.1829 714.296 34.9957C713.126 34.9953 711.957 34.995 710.788 34.9947Z" fill="#76B779"/>
    <path d="M814.955 34.9931C819.827 38.1992 827.321 42.0445 836.555 42.2132C858.284 42.6099 867.535 22.245 889.127 16.9787C899.452 14.4606 914.822 14.852 936.534 28.2863C937.876 28.3995 939.218 28.5127 940.56 28.6259C915.515 11.7737 898.952 11.6916 888.574 14.5438C868.698 20.0065 859.238 39.606 836.888 39.6676C830.25 39.6106 823.717 38.0112 817.804 34.9957C816.854 34.9949 815.905 34.994 814.955 34.9931Z" fill="#76B779"/>
    <path d="M942.44 35.713C946.569 38.605 951.124 40.8354 955.94 42.3239C963.469 44.634 970.024 44.5734 970.051 44.3714C965.338 43.7267 960.69 42.6713 956.161 41.2171C952.257 39.881 948.499 38.1504 944.946 36.0521C944.11 35.9391 943.275 35.826 942.44 35.713Z" fill="#76B779"/>
    <path d="M988.516 31.625C991.866 32.7213 994.959 34.4872 997.606 36.8153C1000.25 39.1435 1002.4 41.9854 1003.92 45.1684C1005.43 48.3515 1006.28 51.8094 1006.42 55.3321C1006.56 58.8548 1005.98 62.3688 1004.72 65.6609L1003.26 63.7362C1005.12 57.5054 1004.64 50.8135 1001.93 44.9062C999.217 38.9989 994.45 34.2789 988.516 31.625V31.625Z" fill="#76B779"/>
    <path d="M1000.89 72.2494C1000.26 82.8465 1002.22 93.4377 1006.61 103.106C1014.89 120.768 1027.3 124.15 1031.79 138.06C1034.42 146.21 1034.63 158.89 1022.75 178.194L1022.75 180.961C1037.32 159.553 1037.47 145.875 1034.56 137.175C1030.09 123.821 1017.69 120.015 1008.88 100.872C1005.12 92.5861 1002.93 83.6724 1002.43 74.5864C1001.92 73.8074 1001.4 73.0284 1000.89 72.2494Z" fill="#76B779"/>
    <path d="M1015.82 184.986C1013.41 189.821 1010.24 197.931 1011.24 207.509C1013.17 226.011 1028.77 232.242 1032.34 249.345C1033.89 256.745 1033.67 268.5 1022.75 285.279V288.046C1036.28 269.414 1036.85 256.783 1034.85 248.681C1030.95 232.842 1015.36 226.727 1013.09 207.878C1012.36 201.084 1013.32 194.215 1015.89 187.882L1015.82 184.986Z" fill="#76B779"/>
    <path d="M1015.82 292.088C1009.52 300.359 1009.12 306.243 1009.77 309.963C1011.78 321.512 1026.15 324.672 1027.58 336.083C1028.33 342.038 1025.19 347.305 1022.75 350.54L1022.75 351.993C1029 345.097 1029.85 339.901 1029.47 336.415C1028.21 325.102 1012.73 321.778 1010.98 309.852C1010.1 303.818 1013.13 298.335 1015.81 294.662L1015.82 292.088Z" fill="#76B779"/>
    <path d="M1015.82 354.877C1009.05 365.795 1009 373.435 1010.13 378.341C1013.12 391.204 1026.44 394.586 1028.43 407.117C1029.67 414.86 1025.9 421.893 1022.75 426.431V429.613C1031.05 419.546 1031.86 412.226 1031.16 407.486C1029.35 395.193 1016.11 391.535 1012.94 377.603C1011.09 369.49 1013.6 362.01 1015.82 357.202L1015.82 354.877Z" fill="#76B779"/>
    <path d="M1015.82 431.54C1008.4 442.61 1008.31 450.201 1009.4 454.93C1012.39 467.942 1027.27 472.146 1027.7 484.296C1027.89 489.927 1024.89 494.552 1022.75 497.237L1022.75 499.561C1026.34 495.827 1030.01 490.629 1029.76 484.592C1029.27 472.672 1013.94 468.563 1011.09 454.856C1010.08 449.965 1010.53 443.248 1015.82 434.381V431.54Z" fill="#76B779"/>
    <path d="M1015.82 501.71C1012.2 505.779 1008.04 511.875 1008.73 518.754C1009.91 530.546 1024.14 533.781 1028.14 546.46C1029.93 552.144 1030.12 561.166 1021.39 575.016L1020.97 577.285C1032.6 561.775 1032.9 552.126 1030.91 546.128C1027.02 534.456 1012.63 531.24 1011.32 519.049C1010.67 513.035 1013.52 507.801 1015.82 504.514V501.71Z" fill="#76B779"/>
    <path d="M1013.28 579.796C1009.56 584.263 1006.96 589.556 1005.71 595.232C1003.78 604.436 1007.17 608.128 1004.05 616.335C1002.26 621.337 998.873 625.614 994.419 628.509C990.52 630.91 986.009 632.127 981.432 632.014C986.043 632.394 990.662 631.406 994.714 629.173C999.559 626.322 1003.26 621.875 1005.19 616.593C1008.15 608.792 1005.06 604.977 1007.15 595.343C1008.18 590.641 1010.06 586.164 1012.68 582.125L1013.28 579.796Z" fill="#76B779"/>
    <path d="M997.001 639.983C997.064 640.333 990.231 642.707 981.801 642.934C972.39 643.188 966.73 640.613 962.47 639.688C942.876 635.435 931.042 661.361 907.498 664.948C898.802 666.273 885.711 664.976 867.933 651.561L872.47 651.556C887.78 663.167 899.182 664.259 906.393 663.447C930.198 660.764 941.56 633.571 961.584 637.474C966.077 638.35 970.601 640.712 979.883 641.164C989.645 641.638 996.936 639.623 997.001 639.983Z" fill="#76B779"/>
    <path d="M859.281 644.664C846.215 639.293 824.975 632.842 800.917 637.437C768.848 643.563 757.616 664.379 727.649 667.652C715.114 669.021 695.5 667.736 669.584 651.59L674.313 651.588C685.418 658.133 703.568 666.516 724.992 664.553C755.92 661.72 767.454 639.729 798.925 633.453C812.761 630.694 834.433 630.178 864.262 644.667L859.281 644.664Z" fill="#76B779"/>
    <path d="M664.037 644.687C651.154 638.458 640.62 637.651 632.355 638.876C610.917 642.054 603.216 659.13 583.214 660.348C572.328 661.011 562.681 656.679 555.065 651.586L558.275 651.567C563.675 654.63 572.348 658.476 582.771 657.913C602.953 656.821 610.581 640.23 630.473 636.441C638.605 634.893 651.06 635.05 668.132 644.663L664.037 644.687Z" fill="#76B779"/>
    <path d="M549.273 644.651C527.307 632.848 512.883 633.741 503.748 636.773C488.389 641.872 482.538 654.828 465.564 656.917C455.012 658.215 445.882 654.611 440.071 651.584H443.613C450.165 654.716 457.453 655.987 464.679 655.257C482.171 653.136 488.125 638.533 502.641 633.066C511.819 629.609 527.077 628.802 552.323 644.651L549.273 644.651Z" fill="#76B779"/>
    <path d="M436.493 644.699C425.159 635.342 416.761 634.257 411.147 635.039C396.579 637.07 392.128 652.885 376.026 656.068C366.737 657.905 358.204 654.622 352.47 651.582L349.186 651.586C361.832 658.828 370.85 658.786 376.542 657.618C392.27 654.389 397.166 639.573 412.18 637.991C421.167 637.044 428.928 641.349 433.652 644.656L436.493 644.699Z" fill="#76B779"/>
    <path d="M343.431 644.659C338.235 642.102 329.583 638.814 319.691 640.37C302.42 643.088 297.038 658.106 281.064 660.569C274.988 661.506 265.331 660.943 252.012 651.579L255.498 651.583C261.237 655.047 270.054 659.071 280.068 657.747C296.509 655.573 301.906 640.871 318.473 638.046C324.612 637 333.915 637.306 346.475 644.657L343.431 644.659Z" fill="#76B779"/>
    <path d="M247.944 644.659C242.921 641.619 235.444 638.27 227.644 640.094C217.346 642.502 214.939 651.951 204.641 655.533C199.415 657.351 191.183 657.998 178.634 651.591L180.69 651.591C186.805 654.03 195.311 656.168 203.756 653.264C214.324 649.631 216.651 640.901 226.316 638.323C231.473 636.947 239.267 637.176 250.6 644.659H247.944Z" fill="#76B779"/>
    <path d="M175.127 644.655C166.239 639.155 160.08 639.111 156.054 640.149C146.567 642.594 143.858 652.346 133.808 653.984C129.396 654.556 124.916 653.716 121.011 651.586L118.41 651.588C125.345 655.862 130.57 656.207 134.25 655.533C144.054 653.738 146.739 644.014 156.829 641.754C162.921 640.389 168.707 642.419 172.988 644.655H175.127Z" fill="#76B779"/>
    <path d="M113.48 644.655C100.881 635.725 91.215 634.611 84.6115 635.335C72.9818 636.61 67.4532 643.96 59.0088 641.91C50.9137 639.944 46.2258 630.817 43.6255 623.984L45.2295 625.576C47.9039 631.28 52.4117 638.401 59.5984 640.094C68.0881 642.094 73.6296 634.944 84.0212 633.269C91.1383 632.121 101.672 633.358 116.069 644.659L113.48 644.655Z" fill="#76B779"/>
    <path d="M45.3947 615.708C45.0881 611.126 43.8752 604.984 39.3443 600.729C31.9806 593.815 21.6086 597.29 17.4301 591.064C15.7766 588.6 14.7741 584.141 18.4904 575.414C18.619 576.098 18.7476 576.782 18.8762 577.465C17.2405 581.599 15.9684 586.871 18.4262 590.621C22.453 596.765 32.7686 593.143 40.1559 599.475C43.5126 602.352 46.5171 607.5 46.7931 617.26C46.3269 616.743 45.8608 616.225 45.3947 615.708Z" fill="#76B779"/>
    <path d="M24.5267 568.625C30.1619 559.396 29.8582 553.748 28.498 550.279C25.3031 542.13 14.6376 541.809 12.2284 534.009C10.5306 528.513 13.9362 522.549 17.0604 518.385L17.0598 520.986C15.0042 524.117 12.5214 529.002 13.8886 533.788C16.1852 541.828 27.2138 542.118 30.4902 549.892C32.026 553.536 32.245 559.742 24.7701 570.615L24.5267 568.625Z" fill="#76B779"/>
    <path d="M23.9954 513.617C27.8757 508.27 32.3657 500.169 30.8776 491.398C28.5162 477.48 13.1498 473.942 9.8488 459.745C8.55186 454.166 8.79209 445.544 17.0541 433.163L17.0568 436.816C13.8066 442.419 10.3751 450.579 12.2284 459.246C15.3589 473.887 30.8828 477.417 33.3125 490.9C34.2915 496.333 33.3424 504.481 23.9963 515.83L23.9954 513.617Z" fill="#76B779"/>
    <path d="M23.9878 426.901C27.3631 419.487 31.1934 407.891 28.0552 395.533C22.9747 375.526 3.68721 369.495 3.33719 353.254C3.21824 347.736 5.248 339.291 17.0604 328.665V331.654C12.0454 336.702 6.43249 344.146 6.53747 353.096C6.72918 369.433 25.7936 375.553 30.7852 394.5C32.8483 402.331 32.9074 413.871 24.0155 430.083C24.0063 429.022 23.997 427.962 23.9878 426.901Z" fill="#76B779"/>
    <path d="M23.9903 324.704C33.2302 315.786 34.4585 308.487 34.4745 304.519C34.4837 302.232 34.1043 297.556 21.7466 278.953C12.536 265.087 9.34719 262.567 8.90791 256.485C8.3372 248.583 12.9182 241.727 17.0603 237.043V240.621C14.4345 244.232 11.484 249.592 11.7856 255.932C12.1124 262.803 16.0476 266.351 23.4067 276.85C32.9914 290.523 37.7836 297.36 37.7948 304.519C37.8021 309.238 35.9792 317.228 23.9905 327.001L23.9903 324.704Z" fill="#76B779"/>
    <path d="M23.9829 231.693C32.8395 219.498 34.1485 209.883 33.7367 203.397C32.2584 180.113 6.81391 168.925 9.4614 148.722C10.3856 142.973 13.0398 137.642 17.0705 133.439C17.0636 134.7 17.0568 135.96 17.05 137.22C14.3671 140.553 12.569 144.509 11.8225 148.722C8.58688 168.77 34.9487 180.476 36.9095 202.806C37.5483 210.082 35.8001 220.798 23.9846 234.682L23.9829 231.693Z" fill="#76B779"/>
    <path d="M23.9916 129.261C32.5178 118.862 37.3702 105.938 37.7949 92.4977C38.0244 81.6522 35.3223 70.9457 29.9737 61.508C36.3822 70.5914 39.9282 81.3835 40.1561 92.4977C40.4759 114.728 26.8922 129.321 23.9897 132.305L23.9916 129.261Z" fill="#76B779"/>
    <path d="M694.309 389.01C694.807 381.949 693.207 374.898 689.709 368.737C686.244 367.194 682.627 366.012 678.917 365.211C667.416 362.731 658.258 364.658 648.929 366.621C641.836 368.114 633.683 369.903 624.957 375.347C621.996 377.166 619.238 379.294 616.73 381.694C612.829 385.488 609.626 389.933 607.265 394.828C608.377 396.164 609.765 397.246 611.334 398.001C618.619 391.324 627.33 386.381 636.81 383.545C650.454 379.541 661.942 381.228 670.514 382.487C678.682 383.689 686.673 385.88 694.309 389.01Z" fill="#057FD3"/>
    <path d="M694.398 386.552C693.91 382.581 692.141 378.875 689.356 375.994C687.887 374.559 686.181 373.386 684.313 372.527C682.639 371.695 678.792 370.035 668.169 369.971C657.978 369.746 647.834 371.436 638.27 374.951C633.115 376.817 628.154 379.173 623.453 381.988C623.453 381.988 620.63 383.859 614.371 388.863C614.178 389.017 613.684 389.414 613.065 389.974C612.203 390.765 611.388 391.605 610.626 392.492C609.136 394.155 609.109 394.431 609.13 394.637C609.234 395.682 610.95 396.269 611.304 396.385L610.363 397.477C609.188 396.775 608.14 395.879 607.265 394.828C608.59 392.072 610.188 389.454 612.034 387.014C616.033 381.921 620.967 377.633 626.573 374.376C634.705 369.536 641.747 368.089 650.921 366.204C658.079 364.733 663.229 363.674 670.337 364.092C677.018 364.497 683.575 366.069 689.709 368.737C690.81 370.675 691.728 372.711 692.451 374.818C693.741 378.596 694.399 382.561 694.398 386.552Z" fill="#1C1C1C"/>
    <path d="M655.918 441.192C648.563 444.332 640.516 445.517 632.564 444.63C630.325 443.965 628.138 443.14 626.018 442.162C621.772 440.222 617.837 437.667 614.341 434.581C609.9 430.89 606.438 426.168 604.257 420.831C603.117 417.876 602.426 414.768 602.206 411.61C603.199 410.922 604.316 410.431 605.495 410.165C606.921 409.905 608.385 409.935 609.798 410.253C611.212 410.571 612.547 411.171 613.722 412.016C615.376 415.813 617.582 419.348 620.268 422.505C625.923 429.135 632.229 432.28 638.049 435.11C643.73 437.865 649.732 439.908 655.918 441.192Z" fill="#057FD3"/>
    <path d="M643.312 442.69C638.38 442.609 633.5 441.67 628.893 439.914C626.35 438.903 623.92 437.633 621.639 436.124C617.773 433.463 614.329 430.239 611.422 426.56C609.483 424.228 607.723 421.752 606.159 419.156C605.112 417.371 604.39 415.417 604.025 413.382C603.896 412.996 603.854 412.587 603.902 412.184C603.95 411.78 604.086 411.392 604.301 411.046C604.587 410.713 604.941 410.447 605.341 410.264C605.74 410.081 606.175 409.987 606.614 409.989C605.029 410.139 603.51 410.698 602.207 411.61C602.441 415.065 603.245 418.457 604.589 421.651C606.03 424.993 608.014 428.076 610.46 430.777C612.481 433.074 614.741 435.152 617.202 436.976C619.434 438.627 621.807 440.082 624.293 441.323C626.109 442.268 627.985 443.093 629.91 443.792C630.774 444.132 631.661 444.412 632.564 444.63C634.507 444.998 636.493 445.092 638.462 444.909C641.079 444.808 642.388 444.757 643.975 444.552C647.11 444.142 650.188 443.377 653.148 442.27C649.889 442.705 646.597 442.845 643.312 442.69Z" fill="#1C1C1C"/>
    <path d="M718.459 422.329C718.149 421.056 717.667 419.251 716.955 417.128C714.544 409.852 710.828 403.072 705.986 397.119C702.093 392.314 697.358 388.252 692.009 385.132C681.272 379.028 671.082 379.166 660.164 379.314C652.405 379.419 638.303 379.764 623.364 387.512C616.9 390.864 608.177 395.534 607.176 403.378C606.681 407.261 608.255 410.481 609.83 413.602C612.731 419.353 617.271 424.34 625.576 429.821C633.554 435.293 642.403 439.381 651.749 441.913C655.758 442.98 659.842 443.741 663.967 444.189C670.206 444.854 679.385 446.025 689.798 442.602C696.322 440.243 702.508 437.043 708.198 433.083C711.169 431.121 714.034 429.003 716.778 426.736L715.097 424.092L718.459 422.329Z" fill="#008BFF"/>
    <path d="M700.649 401.556C700.274 399.528 699.599 397.568 698.644 395.738C695.147 389.066 688.894 386.241 686.141 385.043C682.197 383.328 679.153 382.995 673.226 382.399C666.356 381.804 659.445 381.863 652.586 382.575C646.727 382.79 640.902 383.557 635.188 384.867C630.456 385.902 625.877 387.541 621.566 389.745C617.362 391.957 613.491 394.746 610.066 398.03L607.294 397.736C606.726 397.114 605.859 396.156 604.817 394.974C602.913 392.816 600.327 389.885 597.268 386.101C595.341 383.717 592.9 381.795 590.781 379.578C590.534 379.279 590.229 379.031 589.885 378.85C589.541 378.668 589.164 378.556 588.776 378.521C588.358 378.525 587.949 378.648 587.597 378.873C587.096 379.312 586.699 379.856 586.434 380.465C586.169 381.075 586.042 381.735 586.064 382.399C585.951 384.736 586.21 387.077 586.83 389.333C587.38 391.688 587.715 394.088 587.833 396.502C587.893 398.944 587.525 398.398 587.066 404.024C586.729 408.156 586.895 408.842 586.653 411.957C586.568 413.051 586.667 414.153 586.594 415.248C586.528 416.236 586.529 416.468 586.712 416.717C587.411 417.664 589.925 417.189 591.713 416.249C592.665 415.652 593.541 414.941 594.32 414.131C596.15 412.62 598.224 411.428 600.453 410.605C602.094 409.895 603.854 409.496 605.643 409.43C607.679 409.404 607.923 409.926 611.422 410.605C613.006 410.913 614.857 411.085 618.558 411.428C620.418 411.646 622.288 411.763 624.16 411.781C626.246 411.757 626.696 411.57 628.937 411.428C631.551 411.296 634.172 411.335 636.781 411.546C640.615 411.761 640.996 411.963 644.329 412.192C647.507 412.459 650.698 412.518 653.883 412.368C657.813 412.223 661.704 411.531 665.442 410.312C667.936 409.632 670.198 408.292 671.988 406.433C672.813 405.504 673.49 404.454 673.993 403.319C672.608 403.977 671.191 404.566 669.747 405.082C666.908 406.129 663.961 406.859 660.96 407.256C658.488 407.553 658.727 407.22 651.465 407.021C647.985 406.925 644.508 406.717 641.027 406.668C638.768 406.73 636.52 406.33 634.422 405.493C633.223 404.989 631.309 404.157 631.178 402.79C631.123 402.215 631.377 401.471 632.829 400.204C634.685 398.61 636.885 397.464 639.258 396.855C648.774 394.605 646.372 394.429 652.468 393.388C660 392.101 663.766 391.458 668.037 392.036C671.542 392.511 674.693 393.554 678.475 393.094C679.805 392.923 681.151 392.903 682.485 393.035C683.917 393.119 685.319 393.478 686.613 394.093C687.647 394.643 688.583 395.357 689.385 396.208C691.348 398.084 691.698 399.192 693.867 401.615C694.678 402.521 695.383 403.207 695.813 403.613L700.649 401.556Z" fill="#1C1C1C"/>
    <path d="M614.739 405.361C614.82 404.933 614.12 404.655 611.378 402.717C609.625 401.477 610.066 401.701 607.663 399.984C604.96 398.054 604.735 398.051 603.638 397.163C602.326 396.065 601.119 394.848 600.033 393.527C593.202 385.813 594.58 387.816 592.47 385.22C590.275 382.52 588.579 380.101 587.449 380.504C587.057 380.72 586.737 381.046 586.528 381.441C586.15 382.119 585.969 382.888 586.005 383.663C585.99 384.683 586.09 385.701 586.302 386.7C586.461 387.614 586.543 387.93 586.797 389.175C587.172 391.011 587.359 391.929 587.538 393.168C587.538 393.168 587.762 394.724 587.833 396.502C587.862 397.004 587.85 397.508 587.796 398.008C587.767 398.257 587.742 398.368 587.634 399.081C587.634 399.081 587.573 399.48 587.479 400.141C587.177 402.248 586.992 404.861 586.992 404.861C586.942 405.579 586.866 406.664 586.833 408.071C586.816 408.771 586.826 408.907 586.801 409.54C586.752 410.778 586.679 411.201 586.637 412.213C586.617 412.679 586.599 413.375 586.623 414.234C587.337 413.74 588.372 413.031 589.631 412.192C592.202 410.48 593.495 409.636 594.29 409.195C596.772 407.894 599.488 407.095 602.281 406.845C604.289 406.582 604.195 406.822 608.473 406.522C614.214 406.119 614.682 405.666 614.739 405.361Z" fill="#D7CC00"/>
    <path d="M699.816 408.446C702.271 408.446 704.261 406.463 704.261 404.017C704.261 401.57 702.271 399.587 699.816 399.587C697.361 399.587 695.371 401.57 695.371 404.017C695.371 406.463 697.361 408.446 699.816 408.446Z" fill="#F9F9F9"/>
    <path d="M699.816 407.381C701.681 407.381 703.192 405.875 703.192 404.017C703.192 402.159 701.681 400.652 699.816 400.652C697.951 400.652 696.439 402.159 696.439 404.017C696.439 405.875 697.951 407.381 699.816 407.381Z" fill="#1C1C1C"/>
    <path d="M700.904 404.759C701.978 404.759 702.85 403.891 702.85 402.82C702.85 401.749 701.978 400.88 700.904 400.88C699.829 400.88 698.958 401.749 698.958 402.82C698.958 403.891 699.829 404.759 700.904 404.759Z" fill="#F9F9F9"/>
    <path d="M685.795 419.427C685.531 419.338 684.904 419.078 683.843 417.616C682.877 416.218 682.072 414.715 681.445 413.137C680.879 411.793 681.061 412.531 678.253 407.473C677.028 405.267 676.163 403.632 674.57 400.922C673.617 399.225 672.357 397.719 670.854 396.48C670.201 395.864 669.356 395.491 668.46 395.423C667.575 395.432 666.724 395.761 666.064 396.348C664.888 397.369 664.679 398.867 664.485 400.976C664.184 403.384 664.054 405.81 664.098 408.236C664.322 411.402 664.798 414.545 665.522 417.636C665.522 417.636 666.841 424.29 668.757 425.062C669.193 425.234 669.606 425.46 669.985 425.734C670.238 425.911 670.473 426.113 670.686 426.337C671.248 426.939 671.184 427.233 671.543 427.538C671.795 427.701 672.078 427.811 672.373 427.862C672.669 427.914 672.972 427.905 673.264 427.836C674.221 427.726 674.445 427.336 675.429 426.959C676.424 426.65 677.465 426.512 678.507 426.55C680.444 426.471 680.316 426.734 681.318 426.588C683.663 426.039 685.735 424.676 687.162 422.743C687.625 422.05 686.257 419.584 685.795 419.427Z" fill="#057FD3"/>
    <path opacity="0.77" d="M682.133 414.689C680.606 412.471 679.038 410.243 677.432 408.006C677.005 407.413 676.578 406.822 676.151 406.234C676.48 407.427 676.621 408.664 676.568 409.9C676.476 411.866 675.905 413.78 674.904 415.477C675.15 414.639 675.316 413.779 675.399 412.91C675.502 410.941 675.286 408.968 674.761 407.068C674.371 405.032 673.781 403.039 673 401.117C672.244 399.319 671.304 397.604 670.193 395.999C670.26 396.042 670.352 396.104 670.461 396.18C670.877 396.476 671.27 396.803 671.637 397.157C672.143 397.629 672.5 398.029 672.639 398.188C673.062 398.67 673.349 399.064 673.523 399.304C673.555 399.347 673.813 399.703 674.076 400.112C675.048 401.622 677.236 405.627 677.421 405.966C677.932 406.901 678.608 408.128 679.312 409.357C679.796 410.202 680.038 410.625 680.263 410.992C680.684 411.678 680.817 411.847 681.079 412.353C681.267 412.716 681.408 413.033 681.69 413.667C681.878 414.089 682.029 414.442 682.133 414.689Z" fill="#1C1C1C"/>
    <path d="M670.803 396.918C670.559 396.534 670.346 396.22 670.193 395.999C669.833 395.746 669.424 395.571 668.993 395.484C668.471 395.38 667.932 395.405 667.421 395.556C666.911 395.706 666.445 395.978 666.064 396.348C665.581 396.904 665.274 397.984 667.029 402.452C668.57 406.375 669.266 406.709 670.644 410.249C671.565 412.357 672.133 414.6 672.326 416.891C672.4 418.44 672.258 419.991 671.904 421.5C673.911 419.053 675.129 416.059 675.399 412.91C675.467 411.446 675.374 409.98 675.124 408.537C674.777 406.294 674.181 404.097 673.347 401.986C672.662 400.22 671.811 398.523 670.803 396.918Z" fill="#D7CC00"/>
    <path d="M685.11 409.283C684.485 413.003 685.042 416.824 686.702 420.213C688.719 424.181 692.114 427.282 696.256 428.94C694.021 428.386 691.932 427.359 690.131 425.93C688.33 424.5 686.859 422.701 685.817 420.654C684.156 417.087 683.903 413.028 685.11 409.283Z" fill="#0472AF"/>
    <path d="M459.309 238.01C459.807 230.949 458.207 223.898 454.709 217.737C451.244 216.194 447.627 215.012 443.917 214.211C432.416 211.731 423.258 213.658 413.929 215.621C406.836 217.114 398.683 218.903 389.957 224.347C386.996 226.166 384.238 228.294 381.73 230.694C377.829 234.488 374.626 238.933 372.265 243.828C373.377 245.164 374.765 246.246 376.334 247.001C383.619 240.324 392.33 235.381 401.81 232.545C415.454 228.541 426.942 230.228 435.514 231.487C443.682 232.689 451.673 234.88 459.309 238.01Z" fill="#057FD3"/>
    <path d="M459.398 235.552C458.91 231.581 457.141 227.875 454.356 224.994C452.887 223.559 451.181 222.386 449.313 221.527C447.639 220.695 443.792 219.035 433.169 218.971C422.978 218.746 412.834 220.436 403.27 223.951C398.115 225.817 393.154 228.173 388.453 230.988C388.453 230.988 385.63 232.859 379.371 237.863C379.178 238.017 378.684 238.414 378.065 238.974C377.203 239.765 376.388 240.605 375.626 241.492C374.136 243.155 374.109 243.431 374.13 243.637C374.234 244.682 375.95 245.269 376.304 245.385L375.363 246.477C374.188 245.775 373.14 244.879 372.265 243.828C373.59 241.072 375.188 238.454 377.034 236.014C381.033 230.921 385.967 226.633 391.573 223.376C399.705 218.536 406.747 217.089 415.921 215.204C423.079 213.733 428.229 212.674 435.337 213.092C442.018 213.497 448.575 215.069 454.709 217.737C455.81 219.675 456.728 221.711 457.451 223.818C458.741 227.596 459.399 231.561 459.398 235.552Z" fill="#1C1C1C"/>
    <path d="M420.918 290.192C413.563 293.332 405.516 294.517 397.564 293.63C395.325 292.965 393.138 292.14 391.018 291.162C386.772 289.222 382.837 286.667 379.341 283.581C374.9 279.89 371.438 275.168 369.257 269.831C368.117 266.876 367.426 263.768 367.206 260.61C368.199 259.922 369.316 259.431 370.495 259.165C371.921 258.905 373.385 258.935 374.798 259.253C376.212 259.571 377.547 260.171 378.722 261.016C380.376 264.813 382.582 268.348 385.268 271.505C390.923 278.135 397.229 281.28 403.049 284.11C408.73 286.865 414.732 288.908 420.918 290.192Z" fill="#057FD3"/>
    <path d="M408.312 291.69C403.38 291.609 398.5 290.67 393.893 288.914C391.35 287.903 388.92 286.633 386.639 285.124C382.773 282.463 379.329 279.239 376.422 275.56C374.483 273.228 372.723 270.752 371.159 268.156C370.112 266.371 369.39 264.417 369.025 262.382C368.896 261.996 368.854 261.587 368.902 261.184C368.95 260.78 369.086 260.392 369.301 260.046C369.587 259.713 369.941 259.447 370.341 259.264C370.74 259.081 371.175 258.987 371.614 258.989C370.029 259.139 368.51 259.698 367.207 260.61C367.441 264.065 368.245 267.457 369.589 270.651C371.03 273.993 373.014 277.076 375.46 279.777C377.481 282.074 379.741 284.152 382.202 285.976C384.434 287.627 386.807 289.082 389.293 290.323C391.109 291.268 392.985 292.093 394.91 292.792C395.774 293.132 396.661 293.412 397.564 293.63C399.507 293.998 401.493 294.092 403.462 293.909C406.079 293.808 407.388 293.757 408.975 293.552C412.11 293.142 415.188 292.377 418.148 291.27C414.889 291.705 411.597 291.845 408.312 291.69Z" fill="#1C1C1C"/>
    <path d="M483.459 271.329C483.149 270.056 482.667 268.251 481.955 266.128C479.544 258.852 475.828 252.072 470.986 246.119C467.093 241.314 462.358 237.252 457.009 234.132C446.272 228.028 436.082 228.166 425.164 228.314C417.405 228.419 403.303 228.764 388.364 236.512C381.9 239.864 373.177 244.534 372.176 252.378C371.681 256.261 373.255 259.481 374.83 262.602C377.731 268.353 382.271 273.34 390.576 278.821C398.554 284.293 407.403 288.381 416.749 290.913C420.758 291.98 424.842 292.741 428.967 293.189C435.206 293.854 444.385 295.025 454.798 291.602C461.322 289.243 467.508 286.043 473.198 282.083C476.169 280.121 479.034 278.003 481.778 275.736L480.097 273.092L483.459 271.329Z" fill="#008BFF"/>
    <path d="M465.649 250.556C465.274 248.528 464.599 246.568 463.644 244.738C460.147 238.066 453.894 235.241 451.141 234.043C447.197 232.328 444.153 231.995 438.226 231.399C431.356 230.804 424.445 230.863 417.586 231.575C411.727 231.79 405.902 232.557 400.188 233.867C395.456 234.902 390.877 236.541 386.566 238.745C382.362 240.957 378.491 243.746 375.066 247.03L372.294 246.736C371.726 246.114 370.859 245.156 369.817 243.974C367.913 241.816 365.327 238.885 362.268 235.101C360.341 232.717 357.9 230.795 355.781 228.578C355.534 228.279 355.229 228.031 354.885 227.85C354.541 227.668 354.164 227.556 353.776 227.521C353.358 227.525 352.949 227.648 352.597 227.873C352.096 228.312 351.699 228.856 351.434 229.465C351.169 230.075 351.042 230.735 351.064 231.399C350.951 233.736 351.21 236.077 351.83 238.333C352.38 240.688 352.715 243.088 352.833 245.502C352.893 247.944 352.525 247.398 352.066 253.024C351.729 257.156 351.895 257.842 351.653 260.957C351.568 262.051 351.667 263.153 351.594 264.248C351.528 265.236 351.529 265.468 351.712 265.717C352.411 266.664 354.925 266.189 356.713 265.249C357.665 264.652 358.541 263.941 359.32 263.131C361.15 261.62 363.224 260.428 365.453 259.605C367.094 258.895 368.854 258.496 370.643 258.43C372.679 258.404 372.923 258.926 376.422 259.605C378.006 259.913 379.857 260.085 383.558 260.428C385.418 260.646 387.288 260.763 389.16 260.781C391.246 260.757 391.696 260.57 393.937 260.428C396.551 260.296 399.172 260.335 401.781 260.546C405.615 260.761 405.996 260.963 409.329 261.192C412.507 261.459 415.698 261.518 418.883 261.368C422.813 261.223 426.704 260.531 430.442 259.312C432.936 258.632 435.198 257.292 436.988 255.433C437.813 254.504 438.49 253.454 438.993 252.319C437.608 252.977 436.191 253.566 434.747 254.082C431.908 255.129 428.961 255.859 425.96 256.256C423.488 256.553 423.727 256.22 416.465 256.021C412.985 255.925 409.508 255.717 406.027 255.668C403.768 255.73 401.52 255.33 399.422 254.493C398.223 253.989 396.309 253.157 396.178 251.79C396.123 251.215 396.377 250.471 397.829 249.204C399.685 247.61 401.885 246.464 404.258 245.855C413.774 243.605 411.372 243.429 417.468 242.388C425 241.101 428.766 240.458 433.037 241.036C436.542 241.511 439.693 242.554 443.475 242.094C444.805 241.923 446.151 241.903 447.485 242.035C448.917 242.119 450.319 242.478 451.613 243.093C452.647 243.643 453.583 244.357 454.385 245.208C456.348 247.084 456.698 248.192 458.867 250.615C459.678 251.521 460.383 252.207 460.813 252.613L465.649 250.556Z" fill="#1C1C1C"/>
    <path d="M379.739 254.361C379.82 253.933 379.12 253.655 376.378 251.717C374.625 250.477 375.066 250.701 372.663 248.984C369.96 247.054 369.735 247.051 368.638 246.163C367.326 245.065 366.119 243.848 365.033 242.527C358.202 234.813 359.58 236.816 357.47 234.22C355.275 231.52 353.579 229.101 352.449 229.504C352.057 229.72 351.737 230.046 351.528 230.441C351.15 231.119 350.969 231.888 351.005 232.663C350.99 233.683 351.09 234.701 351.302 235.7C351.461 236.614 351.543 236.93 351.797 238.175C352.172 240.011 352.359 240.929 352.538 242.168C352.538 242.168 352.762 243.724 352.833 245.502C352.862 246.004 352.85 246.508 352.796 247.008C352.767 247.257 352.742 247.368 352.634 248.081C352.634 248.081 352.573 248.48 352.479 249.141C352.177 251.248 351.992 253.861 351.992 253.861C351.942 254.579 351.866 255.664 351.833 257.071C351.816 257.771 351.826 257.907 351.801 258.54C351.752 259.778 351.679 260.201 351.637 261.213C351.617 261.679 351.599 262.375 351.623 263.234C352.337 262.74 353.372 262.031 354.631 261.192C357.202 259.48 358.495 258.636 359.29 258.195C361.772 256.894 364.488 256.095 367.281 255.845C369.289 255.582 369.195 255.822 373.473 255.522C379.214 255.119 379.682 254.666 379.739 254.361Z" fill="#D7CC00"/>
    <path d="M464.816 257.446C467.271 257.446 469.261 255.463 469.261 253.017C469.261 250.57 467.271 248.587 464.816 248.587C462.361 248.587 460.371 250.57 460.371 253.017C460.371 255.463 462.361 257.446 464.816 257.446Z" fill="#F9F9F9"/>
    <path d="M464.816 256.381C466.681 256.381 468.192 254.875 468.192 253.017C468.192 251.159 466.681 249.652 464.816 249.652C462.951 249.652 461.44 251.159 461.44 253.017C461.44 254.875 462.951 256.381 464.816 256.381Z" fill="#1C1C1C"/>
    <path d="M465.904 253.759C466.978 253.759 467.85 252.891 467.85 251.82C467.85 250.749 466.978 249.88 465.904 249.88C464.829 249.88 463.957 250.749 463.957 251.82C463.957 252.891 464.829 253.759 465.904 253.759Z" fill="#F9F9F9"/>
    <path d="M450.795 268.427C450.531 268.338 449.904 268.078 448.843 266.616C447.877 265.218 447.072 263.715 446.445 262.137C445.879 260.793 446.061 261.531 443.253 256.473C442.028 254.267 441.163 252.632 439.57 249.921C438.617 248.225 437.357 246.719 435.854 245.48C435.201 244.864 434.356 244.491 433.46 244.423C432.575 244.432 431.724 244.761 431.064 245.348C429.888 246.369 429.679 247.867 429.485 249.976C429.184 252.384 429.054 254.81 429.098 257.236C429.322 260.402 429.798 263.545 430.522 266.636C430.522 266.636 431.841 273.289 433.757 274.062C434.193 274.234 434.606 274.46 434.985 274.734C435.238 274.911 435.473 275.113 435.686 275.337C436.248 275.939 436.184 276.233 436.543 276.538C436.795 276.701 437.078 276.811 437.373 276.862C437.669 276.914 437.972 276.905 438.264 276.836C439.221 276.726 439.445 276.336 440.429 275.959C441.424 275.65 442.465 275.512 443.507 275.55C445.444 275.471 445.316 275.734 446.318 275.588C448.663 275.039 450.735 273.676 452.162 271.743C452.625 271.05 451.257 268.584 450.795 268.427Z" fill="#057FD3"/>
    <path opacity="0.77" d="M447.133 263.689C445.606 261.471 444.038 259.243 442.432 257.006C442.005 256.413 441.578 255.822 441.151 255.234C441.48 256.427 441.621 257.664 441.568 258.9C441.475 260.866 440.905 262.78 439.904 264.477C440.15 263.639 440.316 262.779 440.399 261.91C440.502 259.941 440.286 257.968 439.761 256.068C439.371 254.032 438.781 252.039 438 250.117C437.244 248.319 436.304 246.604 435.193 244.999C435.259 245.042 435.352 245.104 435.461 245.18C435.877 245.476 436.27 245.803 436.637 246.157C437.143 246.629 437.499 247.029 437.639 247.188C438.062 247.67 438.349 248.064 438.523 248.304C438.555 248.347 438.812 248.703 439.076 249.112C440.048 250.622 442.236 254.627 442.421 254.966C442.932 255.901 443.608 257.128 444.311 258.357C444.796 259.202 445.038 259.625 445.263 259.991C445.684 260.678 445.817 260.847 446.079 261.353C446.267 261.716 446.408 262.033 446.69 262.667C446.878 263.089 447.029 263.442 447.133 263.689Z" fill="#1C1C1C"/>
    <path d="M435.803 245.918C435.559 245.534 435.346 245.22 435.193 244.999C434.833 244.746 434.424 244.571 433.993 244.484C433.471 244.38 432.932 244.405 432.421 244.556C431.911 244.706 431.445 244.978 431.064 245.348C430.581 245.904 430.274 246.984 432.029 251.452C433.57 255.375 434.266 255.709 435.644 259.249C436.565 261.357 437.133 263.6 437.326 265.891C437.4 267.44 437.258 268.991 436.904 270.5C438.911 268.053 440.129 265.059 440.399 261.91C440.467 260.446 440.374 258.98 440.124 257.537C439.777 255.294 439.181 253.097 438.347 250.986C437.662 249.22 436.811 247.523 435.803 245.918Z" fill="#D7CC00"/>
    <path d="M450.11 258.283C449.485 262.003 450.042 265.824 451.702 269.213C453.719 273.181 457.114 276.282 461.255 277.94C459.021 277.386 456.932 276.359 455.131 274.93C453.33 273.5 451.858 271.701 450.817 269.654C449.155 266.087 448.903 262.028 450.11 258.283Z" fill="#0472AF"/>
</svg>
