<svg viewBox="0 0 870 540" fill="none" xmlns="http://www.w3.org/2000/svg">
    <rect x="3" y="3" width="864" height="533.4" rx="77" fill="white" stroke="#116619" stroke-width="6"/>
    <path d="M242.011 326.169C243.571 331.187 243.799 335.229 243.73 337.952C243.482 347.818 239.001 353.991 239.876 363.898C240.096 366.386 240.608 368.94 240.608 368.94C241.509 372.476 242.964 374.454 243.824 379.09C245.2 386.497 244.49 397.622 233.868 412.809C245.156 397.627 246.121 386.436 244.867 378.978C244.109 374.464 242.736 372.502 241.906 369.016C241.906 369.016 241.436 366.474 241.251 364.005C240.991 360.547 245.382 346.839 245.741 337.842C245.849 335.137 245.674 331.143 244.18 326.178C243.73 326.183 243.273 326.184 242.809 326.18C242.541 326.178 242.275 326.174 242.011 326.169V326.169Z" fill="#509CAE"/>
    <path d="M260.091 324.688C260.086 327.802 260.334 332.74 261.854 338.503C266.175 354.881 275.956 359.961 280.296 369.486C284.502 378.719 284.077 394.574 262.052 423.464C285.532 394.112 286.356 378.185 282.179 368.975C277.974 359.702 268.59 354.722 264.11 338.503C262.449 332.493 262.14 327.328 262.117 324.056L260.091 324.688V324.688Z" fill="#509CAE"/>
    <path d="M215.84 322.016C220.67 343.842 216.267 356.844 210.898 364.838C204.896 373.776 195.472 379.726 192.726 392.996C191.379 399.506 192.158 405.189 193.039 408.999C192.611 405.375 192.377 399.763 194.084 393.337C197.637 379.957 206.809 374.13 212.778 365.569C218.122 357.904 222.914 345.2 218.865 323.496L215.84 322.016Z" fill="#6DBCD1"/>
    <path d="M223.673 325.076C224.003 329.742 224.237 336.638 223.548 344.964C222.189 361.377 221.3 372.599 213.648 382.584C207.868 390.127 202.949 390.853 200.137 398.633C197.763 405.201 198.795 411.53 200.063 415.893C199.092 411.613 198.438 405.409 200.997 399.03C204.191 391.069 209.326 390.474 215.311 383.052C222.988 373.532 223.991 362.634 225.711 345.105C226.511 336.949 226.457 330.186 226.267 325.613L223.673 325.076H223.673Z" fill="#509CAE"/>
    <path d="M267.512 321.544C267.615 324.686 268.096 329.591 270.174 335.047C276.004 350.356 287.215 350.881 292.49 362.815C298.457 376.315 293.273 395.47 282.347 403.737C274.676 409.541 264.893 409.467 264.851 409.299C264.809 409.132 274.282 408.992 281.477 403.116C291.262 395.124 296.265 376.903 290.534 363.4C285.36 351.209 273.798 350.573 267.952 334.853C266.138 329.973 265.601 325.664 265.415 322.976C265.648 322.868 265.895 322.739 266.15 322.585C266.71 322.248 267.16 321.88 267.512 321.544V321.544Z" fill="#6DBCD1"/>
    <path d="M253.411 326.091C256.04 333.989 256.477 340.604 256.205 345.666C255.735 354.421 253.2 357.131 254.805 362.911C256.887 370.409 262.512 371.099 265.728 377.672C268.037 382.39 269.078 390.084 263.348 403.102C270.007 390.074 269.297 382.335 267.199 377.599C264.324 371.109 258.854 370.283 256.765 362.619C255.22 356.951 257.449 354.381 257.956 345.52C258.222 340.87 258.043 334.071 255.732 325.604C255.355 325.695 254.967 325.783 254.568 325.867C254.174 325.95 253.788 326.024 253.411 326.091H253.411Z" fill="#6DBCD1"/>
    <path d="M213.773 412.641C223.547 406.775 226.978 400.869 228.306 396.564C231.187 387.221 225.007 382.682 227.48 370.842C229.215 362.537 233.017 361.785 236.067 353.012C238.169 346.968 239.574 338.208 236.456 326.337L239.453 326.528C242.86 339.15 241.067 348.005 238.82 353.743C235.459 362.321 231.402 362.922 229.352 371.183C226.438 382.923 232.858 387.73 229.682 396.954C228.229 401.174 224.514 407.057 213.773 412.641Z" fill="#6DBCD1"/>
    <path d="M245.296 326.962C245.244 327.231 245.201 327.654 245.352 328.126C245.744 329.356 247.035 329.454 247.646 330.433C248.514 331.826 246.975 332.648 247.413 334.755C247.867 336.938 249.731 337.072 249.728 338.932C249.725 340.533 248.345 341.085 248.802 342.303C249.228 343.438 250.715 343.729 250.58 344.495C250.473 345.1 249.507 345.132 249.391 345.787C249.259 346.528 250.434 346.858 250.423 347.639C250.409 348.593 248.646 348.662 248.304 349.757C247.873 351.139 250.298 352.268 249.783 353.655C249.499 354.421 248.656 354.356 248.51 355.114C248.311 356.151 249.82 356.656 249.656 357.73C249.533 358.535 248.644 358.528 248.336 359.498C248.042 360.427 248.742 360.792 248.814 361.988C248.911 363.602 247.686 363.746 247.672 365.257C247.657 367.008 249.299 367.316 249.133 369.084C249.034 370.141 248.403 370.5 248.673 371.389C248.93 372.235 249.597 372.225 250.03 373.025C250.794 374.436 249.193 375.345 249.708 376.84C250.251 378.414 252.288 378.165 252.877 379.906C253.27 381.066 252.53 381.66 253.191 382.579C253.81 383.442 254.663 383.201 255.133 384.021C255.693 384.999 254.686 385.704 255.276 386.691C255.738 387.465 256.558 387.367 256.788 388.108C256.981 388.73 256.459 388.974 256.412 389.759C256.343 390.929 257.456 391.192 257.836 392.468C258.246 393.841 257.128 394.107 257.212 395.932C257.297 397.805 258.498 398.06 258.177 399.485C257.924 400.61 257.058 400.972 257.253 401.96C257.392 402.667 257.884 402.73 258.013 403.417C258.201 404.421 257.297 405.063 256.949 405.846C256.565 406.713 256.671 408.185 259.087 410.81C258.468 409.426 258.567 408.477 258.9 407.811C259.214 407.184 259.549 407.182 259.87 406.489C260.369 405.411 259.75 405.006 260.043 403.567C260.29 402.353 260.794 402.329 260.79 401.39C260.787 400.374 260.196 400.222 260.006 399.188C259.732 397.697 260.853 397.44 260.798 395.877C260.74 394.203 259.437 394.011 259.501 392.355C259.552 391.054 260.369 390.812 260.107 389.794C259.826 388.704 258.811 388.681 258.552 387.561C258.306 386.497 259.148 386.181 258.842 385.253C258.504 384.228 257.39 384.347 256.863 383.181C256.463 382.296 257.004 382.001 256.617 381.094C256.141 379.975 255.186 380.116 254.487 379.091C253.554 377.722 254.872 376.905 254.07 375.202C253.376 373.73 252.057 373.632 252.036 372.429C252.022 371.624 252.609 371.425 252.548 370.488C252.486 369.545 251.87 369.426 251.618 368.54C251.174 366.977 252.826 366.396 252.55 364.789C252.302 363.348 250.834 363.002 251.088 361.937C251.281 361.13 252.175 361.117 252.377 360.213C252.582 359.294 251.725 359.01 251.853 358.033C251.991 356.972 253.054 356.896 253.232 355.84C253.408 354.794 252.418 354.563 252.442 353.451C252.473 351.996 254.184 351.777 254.23 350.388C254.273 349.091 252.799 348.721 253.032 347.408C253.171 346.621 253.762 346.398 253.67 345.628C253.588 344.939 253.082 344.857 252.83 344.187C252.389 343.017 253.613 342.424 253.578 341.035C253.545 339.669 252.344 339.614 251.901 338.003C251.426 336.279 252.686 335.931 252.467 333.988C252.215 331.752 250.469 331.532 250.648 329.597C250.711 328.925 251.396 328.037 251.068 326.812C251.033 326.679 250.994 326.571 250.967 326.5L245.296 326.962L245.296 326.962Z" fill="#509CAE"/>
    <path d="M228.085 325.982C227.942 326.299 227.765 326.794 227.756 327.404C227.734 328.862 228.717 329.538 229.169 330.665C230.035 332.825 228.02 333.5 228.496 335.901C229.034 338.615 231.955 339.512 231.4 341.209C231.059 342.252 229.828 342.315 229.752 343.344C229.66 344.593 231.47 345.19 231.214 346.145C230.976 347.037 229.299 346.889 228.894 347.867C228.466 348.901 230.142 349.549 230.216 350.997C230.322 353.06 227.011 353.452 226.49 356.004C226.107 357.882 227.759 358.349 227.311 360.686C226.994 362.345 226.07 362.586 226.186 363.964C226.326 365.619 227.71 365.894 227.599 367.226C227.473 368.736 225.64 369.052 225.661 370.42C225.678 371.555 226.945 371.629 227.569 372.981C228.661 375.344 225.699 377.081 226.673 379.312C227.418 381.017 229.495 380.794 229.954 382.593C230.304 383.962 229.2 384.485 229.659 385.802C230.17 387.268 231.692 387.063 232.404 388.543C233.226 390.249 231.562 391.272 232.392 392.844C233.2 394.373 235.18 394.147 235.513 395.508C235.782 396.605 234.573 397.04 234.788 398.367C234.997 399.656 236.217 399.745 236.466 400.913C236.788 402.421 234.872 402.834 234.479 404.841C234.028 407.149 236.262 408.129 235.534 410.15C235.046 411.506 233.981 411.247 233.395 412.785C232.692 414.628 233.864 415.989 232.909 416.783C232.199 417.373 231.172 416.937 230.742 417.574C230.35 418.154 231.07 418.707 230.835 419.454C230.505 420.506 228.71 420.589 227.673 421.198C226.486 421.895 225.473 423.763 226.425 429C226.494 428.229 226.738 427.09 227.673 426.197C228.961 424.965 230.256 425.442 231.388 424.191C232.45 423.017 231.901 421.99 233.19 421.125C233.937 420.623 234.357 420.811 234.85 420.287C235.609 419.479 234.954 418.671 235.32 417.529C235.895 415.734 238.071 416.005 238.915 414.248C239.598 412.826 238.336 412.304 238.634 410.069C238.96 407.621 240.564 407.566 240.643 405.574C240.736 403.21 238.505 402.589 238.909 400.315C239.155 398.932 240.061 398.705 239.935 397.47C239.798 396.136 238.706 396.068 238.072 394.487C237.281 392.512 238.628 391.722 237.75 390.204C236.928 388.781 235.51 389.094 234.893 387.686C234.309 386.352 235.437 385.742 234.871 384.341C234.277 382.871 232.822 383.02 232.311 381.663C231.767 380.22 233.276 379.682 233.127 377.848C232.941 375.557 230.481 375.082 230.627 373.008C230.721 371.673 231.763 371.538 231.66 370.248C231.535 368.676 229.945 368.387 229.967 366.994C229.988 365.734 231.296 365.569 231.43 364.147C231.568 362.697 230.376 362.403 230.414 361.104C230.474 359.034 233.633 358.772 234.119 356.451C234.508 354.592 232.676 353.831 233.355 352.208C233.995 350.678 235.905 350.679 236.076 349.367C236.228 348.207 234.77 347.927 234.68 346.44C234.592 344.979 235.959 344.619 235.846 343.103C235.759 341.934 234.924 341.828 234.644 340.648C234.213 338.834 235.989 338.232 236.219 336.279C236.576 333.254 232.51 331.242 233.531 329.628C233.907 329.033 234.929 328.668 235.161 327.528C235.214 327.263 235.209 327.041 235.199 326.907L228.085 325.982L228.085 325.982Z" fill="#509CAE"/>
    <path d="M211.738 322.583C211.32 321.789 210.743 320.57 210.275 319.017C207.608 310.177 211.881 301.941 213.598 298.63C215.287 295.374 218.013 290.118 224.11 286.256C230.39 282.277 236.557 282.115 240.409 282.013C249.175 281.782 255.49 284.678 256.826 285.313C258.908 286.303 263.302 288.651 267.456 293.209C270.308 296.338 275.208 301.714 275.251 309.354C275.27 312.726 274.336 315.447 273.597 317.132C274.057 317.633 274.908 318.718 275.102 320.284C275.137 320.569 275.415 322.819 274.21 323.708C273.903 323.935 273.532 324.023 273.532 324.023C272.645 324.233 271.884 323.712 271.703 323.581C271.77 323.88 271.835 324.34 271.754 324.884C271.693 325.292 271.405 326.722 270.067 327.425C269.052 327.958 268.024 327.699 267.341 327.529C266.507 327.322 265.894 326.949 265.529 326.686C265.262 327.136 264.869 327.73 264.321 328.372C263.729 329.066 263.29 329.58 262.529 330.017C262.232 330.187 261.502 330.596 260.512 330.67C259.961 330.711 259.42 330.642 257.785 330.04C257.005 329.752 255.965 329.339 254.755 328.77C254.266 329.363 253.466 330.206 252.294 330.96C251.218 331.651 250.18 332.318 248.82 332.349C247.596 332.377 246.441 331.713 244.132 330.384C243.241 329.871 242.529 329.412 242.055 329.096C241.63 329.588 240.978 330.255 240.068 330.893C239.116 331.562 238.26 332.162 237.108 332.313C235.744 332.492 234.678 331.946 232.875 331.023C231.598 330.37 230.617 329.682 229.952 329.167C229.46 329.549 228.721 330.078 227.759 330.604C226.408 331.343 225.656 331.754 224.637 331.731C223.71 331.709 223.051 331.339 222.113 330.811C221.394 330.407 220.399 329.735 219.41 328.637C219.064 328.951 218.543 329.379 217.849 329.795C217.194 330.188 216.87 330.398 216.461 330.476C214.671 330.817 213.117 329.194 212.683 328.74C212.301 328.342 211.618 327.61 211.289 326.418C210.776 324.556 211.523 322.997 211.738 322.583H211.738Z" fill="#6DBCD1"/>
    <path d="M245.287 285.944C245.287 285.943 245.181 285.444 244.626 285.047C242.326 283.402 231.519 286.407 231.519 286.407C231.519 286.407 221.336 291.126 220.526 293.912C220.331 294.585 220.547 295.044 220.547 295.044C220.547 295.044 220.762 295.499 221.376 295.75C222.814 296.337 226.935 291.734 232.255 289.97C232.538 289.876 232.839 289.746 233.115 289.634C238.322 287.535 244.293 288.433 245.064 287.036C245.393 286.439 245.287 285.944 245.287 285.944H245.287Z" fill="#A4D8E1"/>
    <path d="M219.289 299.756C220.086 298.834 220.19 297.621 219.523 297.048C218.856 296.475 217.67 296.758 216.874 297.68C216.078 298.602 215.973 299.815 216.64 300.388C217.307 300.961 218.493 300.678 219.289 299.756Z" fill="#A4D8E1"/>
    <path d="M263.406 294.476C262.779 294.504 261.878 294.8 261.516 295.536C260.882 296.827 262.417 298.428 262.638 298.659C263.295 299.345 264.873 300.56 265.886 299.956C266.777 299.424 266.728 297.786 266.359 296.774C265.949 295.651 264.819 294.411 263.406 294.476H263.406Z" fill="#509CAE"/>
    <path d="M263.524 301.605C262.8 302.345 263.524 304.307 264.41 304.434C264.994 304.517 265.739 303.814 265.886 303.02C265.912 302.88 266.027 302.158 265.532 301.664C264.975 301.109 263.961 301.159 263.524 301.605V301.605Z" fill="#509CAE"/>
    <path d="M267.54 300.486C267.33 301.057 267.562 301.865 268.189 302.254C268.704 302.572 269.341 302.519 269.784 302.254C270.617 301.754 270.816 300.473 270.315 299.897C269.692 299.18 267.913 299.472 267.54 300.486Z" fill="#509CAE"/>
    <path d="M266.418 305.141C266.004 305.367 266.034 306.158 266.063 306.909C266.09 307.601 266.12 308.363 266.595 309.148C266.99 309.801 268.037 311.037 269.016 310.739C269.803 310.499 270.183 309.378 270.138 308.559C270.076 307.415 269.178 306.703 268.248 305.966C267.659 305.498 266.886 304.885 266.418 305.141H266.418Z" fill="#509CAE"/>
    <path d="M270.552 304.257C270.432 304.53 270.425 304.953 270.67 305.2C270.997 305.529 271.578 305.348 271.674 305.318C272.461 305.072 273.028 304.094 272.796 303.727C272.515 303.284 270.903 303.456 270.552 304.257Z" fill="#509CAE"/>
    <path d="M271.969 308.617C271.658 309.319 271.405 309.889 271.349 310.709C271.308 311.302 271.33 312.6 271.762 312.713C272.182 312.822 272.78 311.759 273.239 310.945C273.924 309.727 274.543 308.628 274.095 307.763C273.901 307.389 273.484 307.015 273.091 307.056C272.64 307.103 272.385 307.678 271.969 308.617H271.969Z" fill="#509CAE"/>
    <path d="M268.396 312.639C267.749 312.87 267.07 313.515 267.2 314.009C267.34 314.537 268.365 314.737 269.105 314.584C269.901 314.418 270.747 313.764 270.655 313.258C270.554 312.704 269.326 312.307 268.396 312.639Z" fill="#509CAE"/>
    <path d="M261.752 291.691C261.539 292.09 261.643 292.726 262.018 292.973C262.518 293.302 263.262 292.783 263.568 292.487C263.642 292.416 264.216 291.861 264.056 291.515C263.833 291.033 262.173 290.903 261.752 291.691H261.752Z" fill="#509CAE"/>
    <path d="M260.158 293.901C260.916 293.127 260.046 291.382 259.848 290.984C259.761 290.809 258.745 288.81 257.899 288.996C257.154 289.16 256.741 290.975 257.191 292.354C257.272 292.605 257.726 293.999 258.874 294.21C258.955 294.226 259.714 294.354 260.158 293.901L260.158 293.901Z" fill="#509CAE"/>
    <path d="M258.091 295.831C257.926 296.083 257.973 296.463 258.15 296.715C258.431 297.114 259.032 297.178 259.449 296.95C259.831 296.742 260.106 296.265 259.981 295.949C259.774 295.427 258.452 295.277 258.091 295.831H258.091Z" fill="#509CAE"/>
    <path d="M269.592 317.338C269.468 317.907 269.75 318.516 270.212 318.752C271.004 319.158 272.239 318.425 272.249 317.545C272.256 316.996 271.787 316.424 271.157 316.307C270.453 316.177 269.742 316.65 269.592 317.338Z" fill="#509CAE"/>
    <path d="M263.687 307.277C263.449 307.606 263.316 308.202 263.627 308.455C263.932 308.704 264.554 308.535 264.779 308.131C265.047 307.651 264.693 306.951 264.307 306.894C263.996 306.848 263.723 307.227 263.686 307.277L263.687 307.277Z" fill="#509CAE"/>
    <path d="M267.067 316.395C266.497 316.183 265.728 316.91 265.384 317.368C264.945 317.953 264.869 318.538 264.764 319.445C264.629 320.617 264.522 321.538 265.03 321.875C265.503 322.19 266.305 321.865 266.757 321.522C267.854 320.691 267.771 319.097 267.732 318.34C267.696 317.657 267.642 316.609 267.067 316.395Z" fill="#509CAE"/>
    <path d="M213.682 307.321C212.889 308.147 211.856 309.783 212.442 310.562C212.894 311.163 214.195 311.099 215.04 310.621C216.815 309.617 217.03 306.53 216.221 306.025C215.602 305.638 214.277 306.702 213.682 307.321L213.682 307.321Z" fill="#509CAE"/>
    <path d="M213.092 303.196C212.281 303.789 212.213 305.272 212.737 305.612C213.257 305.949 214.533 305.277 214.804 304.316C214.819 304.264 215.032 303.469 214.568 303.079C214.158 302.733 213.472 302.918 213.092 303.196H213.092Z" fill="#509CAE"/>
    <path d="M211.202 313.685C211.248 315.152 211.271 315.885 211.615 316.749C212.197 318.211 213.645 319.926 214.568 319.636C215.406 319.374 215.685 317.499 215.395 316.16C215.157 315.061 214.548 314.383 213.446 313.155C212.739 312.367 211.946 311.482 211.497 311.682C211.151 311.835 211.167 312.565 211.202 313.685Z" fill="#509CAE"/>
    <path d="M216.812 312.448C216.717 313.054 216.775 313.943 217.107 314.039C217.485 314.147 218.188 313.217 218.407 312.271C218.575 311.543 218.517 310.545 218.17 310.444C217.775 310.329 216.982 311.369 216.812 312.448V312.448Z" fill="#509CAE"/>
    <path d="M213.918 322.288C213.782 322.969 213.648 324.76 214.686 325.293C215.651 325.788 217.202 324.977 217.698 323.761C218.172 322.598 217.497 321.518 217.462 321.463C217.059 320.842 216.199 320.137 215.395 320.343C214.893 320.472 214.575 320.914 214.391 321.168C214.303 321.29 214.042 321.674 213.918 322.288Z" fill="#509CAE"/>
    <path d="M217.609 317.515C217.285 317.774 216.518 318.388 216.694 318.988C216.84 319.487 217.557 319.705 218.052 319.695C218.84 319.679 219.543 319.074 219.735 318.34C219.845 317.921 219.856 317.202 219.44 316.926C218.842 316.529 217.82 317.346 217.609 317.515L217.609 317.515Z" fill="#509CAE"/>
    <path d="M218.702 325.617C218.901 325.909 219.305 326.064 219.647 326C220.283 325.882 220.739 325.002 220.444 324.38C220.174 323.81 219.333 323.581 218.967 323.849C218.826 323.953 218.785 324.115 218.702 324.439C218.581 324.913 218.483 325.296 218.702 325.617V325.617Z" fill="#509CAE"/>
    <path d="M576.011 105.169C577.571 110.187 577.799 114.229 577.73 116.952C577.482 126.818 573.001 132.991 573.876 142.897C574.096 145.386 574.608 147.94 574.608 147.94C575.509 151.476 576.964 153.454 577.824 158.09C579.2 165.497 578.49 176.622 567.868 191.809C579.156 176.627 580.121 165.436 578.867 157.978C578.109 153.464 576.736 151.502 575.906 148.016C575.906 148.016 575.436 145.474 575.251 143.005C574.991 139.547 579.382 125.839 579.741 116.842C579.849 114.137 579.674 110.143 578.18 105.178C577.73 105.183 577.273 105.184 576.809 105.18C576.541 105.178 576.275 105.174 576.011 105.169V105.169Z" fill="#509CAE"/>
    <path d="M594.091 103.688C594.086 106.802 594.334 111.74 595.854 117.503C600.175 133.881 609.956 138.961 614.296 148.486C618.502 157.719 618.077 173.574 596.052 202.464C619.532 173.112 620.356 157.185 616.179 147.975C611.974 138.702 602.59 133.722 598.11 117.503C596.449 111.493 596.14 106.328 596.117 103.056L594.091 103.688V103.688Z" fill="#509CAE"/>
    <path d="M549.84 101.016C554.67 122.842 550.267 135.844 544.898 143.838C538.896 152.776 529.472 158.726 526.726 171.996C525.379 178.506 526.158 184.189 527.039 187.999C526.611 184.375 526.377 178.763 528.084 172.337C531.637 158.957 540.809 153.13 546.778 144.569C552.122 136.904 556.914 124.2 552.865 102.496L549.84 101.016Z" fill="#6DBCD1"/>
    <path d="M557.673 104.076C558.003 108.742 558.237 115.638 557.548 123.964C556.189 140.377 555.3 151.599 547.648 161.584C541.868 169.127 536.949 169.853 534.137 177.633C531.763 184.201 532.795 190.53 534.063 194.893C533.092 190.613 532.438 184.409 534.997 178.03C538.191 170.069 543.326 169.474 549.311 162.052C556.988 152.532 557.991 141.634 559.711 124.105C560.511 115.949 560.457 109.186 560.267 104.613L557.673 104.076H557.673Z" fill="#509CAE"/>
    <path d="M601.512 100.544C601.615 103.686 602.096 108.591 604.174 114.047C610.004 129.356 621.215 129.881 626.49 141.815C632.457 155.315 627.273 174.47 616.347 182.737C608.676 188.541 598.893 188.467 598.851 188.299C598.809 188.132 608.282 187.992 615.477 182.116C625.262 174.124 630.265 155.903 624.534 142.4C619.36 130.209 607.798 129.573 601.952 113.853C600.138 108.973 599.601 104.664 599.415 101.976C599.648 101.868 599.895 101.739 600.15 101.585C600.71 101.248 601.16 100.88 601.512 100.545V100.544Z" fill="#6DBCD1"/>
    <path d="M587.411 105.091C590.04 112.989 590.477 119.604 590.205 124.666C589.735 133.421 587.2 136.131 588.805 141.911C590.887 149.409 596.512 150.099 599.728 156.672C602.037 161.39 603.078 169.084 597.348 182.102C604.007 169.074 603.297 161.335 601.199 156.599C598.324 150.109 592.854 149.283 590.765 141.619C589.22 135.951 591.449 133.381 591.956 124.52C592.222 119.87 592.043 113.071 589.732 104.604C589.355 104.695 588.967 104.783 588.568 104.867C588.174 104.95 587.788 105.024 587.411 105.091H587.411Z" fill="#6DBCD1"/>
    <path d="M547.773 191.641C557.547 185.775 560.978 179.869 562.306 175.564C565.187 166.221 559.007 161.682 561.48 149.842C563.215 141.537 567.017 140.785 570.067 132.012C572.169 125.968 573.574 117.208 570.456 105.337L573.453 105.528C576.86 118.15 575.067 127.005 572.82 132.743C569.459 141.321 565.402 141.922 563.352 150.183C560.438 161.923 566.858 166.73 563.682 175.954C562.229 180.174 558.514 186.057 547.773 191.641Z" fill="#6DBCD1"/>
    <path d="M579.296 105.962C579.244 106.231 579.201 106.654 579.352 107.126C579.744 108.356 581.035 108.454 581.646 109.433C582.514 110.826 580.975 111.648 581.413 113.755C581.867 115.938 583.731 116.072 583.728 117.932C583.725 119.533 582.345 120.085 582.802 121.303C583.228 122.438 584.715 122.729 584.58 123.495C584.473 124.1 583.507 124.132 583.391 124.787C583.259 125.528 584.434 125.858 584.423 126.639C584.409 127.593 582.646 127.662 582.304 128.757C581.873 130.139 584.298 131.268 583.783 132.655C583.499 133.421 582.656 133.356 582.51 134.114C582.311 135.151 583.82 135.656 583.656 136.73C583.533 137.535 582.644 137.528 582.336 138.498C582.042 139.427 582.742 139.792 582.814 140.988C582.911 142.602 581.686 142.746 581.672 144.257C581.657 146.008 583.299 146.316 583.133 148.084C583.034 149.141 582.403 149.5 582.673 150.389C582.93 151.235 583.597 151.225 584.03 152.025C584.794 153.436 583.193 154.345 583.708 155.84C584.251 157.414 586.288 157.165 586.877 158.906C587.27 160.066 586.53 160.66 587.191 161.579C587.81 162.442 588.663 162.201 589.133 163.021C589.693 163.999 588.686 164.704 589.276 165.691C589.738 166.465 590.558 166.367 590.788 167.108C590.981 167.73 590.459 167.974 590.412 168.759C590.343 169.929 591.456 170.192 591.836 171.469C592.246 172.841 591.128 173.107 591.212 174.932C591.297 176.805 592.498 177.06 592.177 178.485C591.924 179.61 591.058 179.972 591.253 180.96C591.392 181.667 591.884 181.73 592.013 182.417C592.201 183.421 591.297 184.063 590.949 184.846C590.565 185.713 590.671 187.186 593.087 189.81C592.468 188.426 592.567 187.477 592.9 186.811C593.214 186.184 593.549 186.182 593.87 185.489C594.369 184.411 593.75 184.006 594.043 182.567C594.29 181.353 594.794 181.329 594.79 180.39C594.787 179.374 594.196 179.222 594.006 178.188C593.732 176.697 594.853 176.44 594.798 174.877C594.74 173.203 593.437 173.011 593.501 171.355C593.552 170.054 594.369 169.812 594.107 168.794C593.826 167.704 592.811 167.681 592.552 166.561C592.306 165.497 593.148 165.181 592.842 164.253C592.504 163.228 591.39 163.347 590.863 162.181C590.463 161.296 591.004 161.001 590.617 160.094C590.141 158.975 589.186 159.116 588.487 158.091C587.554 156.722 588.872 155.905 588.07 154.202C587.376 152.73 586.057 152.632 586.036 151.429C586.022 150.624 586.609 150.425 586.548 149.488C586.486 148.545 585.87 148.426 585.618 147.54C585.174 145.977 586.826 145.396 586.55 143.789C586.302 142.348 584.834 142.002 585.088 140.937C585.281 140.13 586.175 140.117 586.377 139.213C586.582 138.294 585.725 138.01 585.853 137.033C585.991 135.972 587.054 135.896 587.232 134.84C587.408 133.794 586.418 133.563 586.442 132.451C586.473 130.996 588.184 130.777 588.23 129.388C588.273 128.091 586.799 127.721 587.032 126.408C587.171 125.621 587.762 125.398 587.67 124.628C587.588 123.939 587.082 123.857 586.83 123.187C586.389 122.017 587.613 121.424 587.578 120.035C587.545 118.669 586.344 118.614 585.901 117.003C585.426 115.279 586.686 114.931 586.467 112.988C586.215 110.752 584.469 110.532 584.648 108.597C584.711 107.925 585.396 107.037 585.068 105.812C585.033 105.679 584.994 105.571 584.967 105.5L579.296 105.962L579.296 105.962Z" fill="#509CAE"/>
    <path d="M562.085 104.982C561.942 105.299 561.765 105.794 561.756 106.404C561.734 107.862 562.717 108.538 563.169 109.665C564.035 111.825 562.02 112.5 562.496 114.901C563.034 117.615 565.955 118.512 565.4 120.209C565.059 121.252 563.828 121.315 563.752 122.344C563.66 123.593 565.47 124.19 565.214 125.145C564.976 126.037 563.299 125.889 562.894 126.867C562.466 127.901 564.142 128.549 564.216 129.997C564.322 132.06 561.011 132.452 560.49 135.004C560.107 136.882 561.759 137.349 561.311 139.686C560.994 141.345 560.07 141.586 560.186 142.964C560.326 144.619 561.71 144.894 561.599 146.226C561.473 147.736 559.64 148.052 559.661 149.42C559.678 150.555 560.945 150.629 561.569 151.981C562.661 154.344 559.699 156.081 560.673 158.312C561.418 160.017 563.495 159.794 563.954 161.593C564.304 162.962 563.2 163.485 563.659 164.802C564.17 166.268 565.692 166.063 566.404 167.543C567.226 169.249 565.562 170.272 566.392 171.844C567.2 173.373 569.18 173.147 569.513 174.508C569.782 175.605 568.573 176.04 568.788 177.367C568.997 178.656 570.217 178.745 570.466 179.913C570.788 181.421 568.872 181.834 568.479 183.841C568.028 186.149 570.262 187.129 569.534 189.15C569.046 190.506 567.981 190.247 567.395 191.785C566.692 193.628 567.864 194.989 566.909 195.783C566.199 196.373 565.172 195.937 564.742 196.574C564.35 197.154 565.07 197.707 564.835 198.454C564.505 199.506 562.71 199.589 561.673 200.198C560.486 200.895 559.473 202.763 560.425 208C560.494 207.229 560.738 206.09 561.673 205.197C562.961 203.965 564.256 204.442 565.388 203.191C566.45 202.017 565.901 200.99 567.19 200.125C567.937 199.623 568.357 199.811 568.85 199.287C569.609 198.479 568.954 197.671 569.32 196.529C569.895 194.734 572.071 195.005 572.915 193.248C573.598 191.826 572.336 191.304 572.634 189.069C572.96 186.621 574.564 186.566 574.643 184.574C574.736 182.21 572.505 181.589 572.909 179.315C573.155 177.932 574.061 177.705 573.935 176.47C573.798 175.136 572.706 175.068 572.072 173.487C571.281 171.512 572.628 170.722 571.75 169.204C570.928 167.781 569.51 168.094 568.893 166.686C568.309 165.352 569.437 164.742 568.871 163.341C568.277 161.871 566.822 162.02 566.311 160.663C565.767 159.22 567.276 158.682 567.127 156.848C566.941 154.557 564.481 154.082 564.627 152.008C564.721 150.673 565.763 150.538 565.66 149.248C565.535 147.676 563.945 147.387 563.967 145.994C563.988 144.734 565.296 144.569 565.43 143.147C565.568 141.697 564.376 141.403 564.414 140.104C564.474 138.034 567.633 137.772 568.119 135.451C568.508 133.592 566.676 132.831 567.355 131.208C567.995 129.678 569.905 129.679 570.076 128.367C570.228 127.207 568.77 126.927 568.68 125.44C568.592 123.979 569.959 123.619 569.846 122.103C569.759 120.934 568.924 120.828 568.644 119.648C568.213 117.834 569.989 117.232 570.219 115.279C570.576 112.254 566.51 110.242 567.531 108.628C567.907 108.033 568.929 107.668 569.161 106.528C569.214 106.263 569.209 106.041 569.199 105.907L562.085 104.982L562.085 104.982Z" fill="#509CAE"/>
    <path d="M545.738 101.583C545.32 100.789 544.743 99.5697 544.275 98.017C541.608 89.1773 545.881 80.9406 547.598 77.6298C549.287 74.3737 552.013 69.1177 558.11 65.2557C564.39 61.2772 570.557 61.1146 574.409 61.0131C583.175 60.782 589.49 63.6776 590.826 64.3129C592.908 65.3029 597.302 67.6509 601.456 72.2087C604.308 75.338 609.208 80.7145 609.251 88.354C609.27 91.7262 608.336 94.4466 607.597 96.132C608.057 96.6331 608.908 97.7178 609.102 99.2841C609.137 99.5693 609.415 101.819 608.21 102.708C607.903 102.935 607.532 103.023 607.532 103.023C606.645 103.233 605.884 102.712 605.703 102.581C605.77 102.88 605.835 103.34 605.754 103.884C605.693 104.292 605.405 105.722 604.067 106.425C603.052 106.958 602.024 106.699 601.341 106.529C600.507 106.322 599.894 105.949 599.529 105.686C599.262 106.136 598.869 106.73 598.321 107.372C597.729 108.066 597.29 108.58 596.529 109.017C596.232 109.187 595.502 109.596 594.512 109.67C593.961 109.711 593.42 109.642 591.785 109.04C591.005 108.752 589.965 108.339 588.755 107.77C588.266 108.363 587.466 109.206 586.294 109.96C585.218 110.651 584.18 111.318 582.82 111.349C581.596 111.377 580.441 110.713 578.132 109.384C577.241 108.871 576.529 108.412 576.055 108.096C575.63 108.588 574.978 109.255 574.068 109.893C573.116 110.562 572.26 111.162 571.108 111.313C569.744 111.492 568.678 110.946 566.875 110.023C565.598 109.37 564.617 108.682 563.952 108.167C563.46 108.549 562.721 109.078 561.759 109.604C560.408 110.343 559.656 110.754 558.637 110.731C557.71 110.709 557.051 110.339 556.113 109.811C555.394 109.407 554.399 108.735 553.41 107.637C553.064 107.951 552.543 108.379 551.849 108.795C551.194 109.188 550.87 109.398 550.461 109.476C548.671 109.817 547.117 108.194 546.683 107.74C546.301 107.342 545.618 106.61 545.289 105.418C544.776 103.556 545.523 101.997 545.738 101.583H545.738Z" fill="#6DBCD1"/>
    <path d="M579.287 64.9436C579.287 64.9435 579.181 64.4438 578.626 64.0467C576.326 62.4019 565.519 65.4065 565.519 65.4065C565.519 65.4065 555.336 70.1257 554.526 72.9119C554.331 73.5847 554.547 74.0438 554.547 74.0438C554.547 74.0439 554.762 74.4994 555.376 74.7499C556.814 75.3368 560.935 70.7337 566.255 68.9697C566.538 68.8757 566.839 68.7455 567.115 68.6345C572.322 66.5347 578.293 67.4333 579.064 66.0358C579.393 65.4393 579.287 64.9437 579.287 64.9436H579.287Z" fill="#A4D8E1"/>
    <path d="M553.289 78.7562C554.086 77.8338 554.19 76.6214 553.523 76.0482C552.856 75.4749 551.67 75.7578 550.874 76.6801C550.078 77.6024 549.973 78.8149 550.64 79.3881C551.307 79.9614 552.493 79.6785 553.289 78.7562Z" fill="#A4D8E1"/>
    <path d="M597.406 73.4756C596.779 73.5044 595.878 73.8 595.516 74.5363C594.882 75.8268 596.417 77.428 596.638 77.6593C597.295 78.3448 598.873 79.5603 599.886 78.9556C600.777 78.4239 600.728 76.7856 600.359 75.7737C599.949 74.6515 598.819 73.4106 597.406 73.4756H597.406Z" fill="#509CAE"/>
    <path d="M597.524 80.6055C596.8 81.3454 597.524 83.3074 598.41 83.4338C598.994 83.5172 599.739 82.8143 599.886 82.0196C599.912 81.8798 600.027 81.1579 599.532 80.6644C598.975 80.1088 597.961 80.1586 597.524 80.6055V80.6055Z" fill="#509CAE"/>
    <path d="M601.54 79.4859C601.33 80.0567 601.562 80.865 602.189 81.2536C602.704 81.5725 603.341 81.5193 603.784 81.2536C604.617 80.7539 604.816 79.4729 604.315 78.8966C603.692 78.1797 601.913 78.4723 601.54 79.4859Z" fill="#509CAE"/>
    <path d="M600.418 84.1409C600.004 84.3667 600.034 85.1578 600.063 85.9087C600.09 86.6006 600.12 87.3628 600.595 88.1478C600.99 88.8009 602.037 90.0369 603.016 89.7387C603.803 89.499 604.183 88.378 604.138 87.5585C604.076 86.4152 603.178 85.7031 602.248 84.9659C601.659 84.4984 600.886 83.8854 600.418 84.1409H600.418Z" fill="#509CAE"/>
    <path d="M604.552 83.257C604.432 83.53 604.425 83.9532 604.67 84.1998C604.997 84.5288 605.578 84.3475 605.674 84.3177C606.461 84.072 607.028 83.0943 606.796 82.7267C606.515 82.2838 604.903 82.4562 604.552 83.257Z" fill="#509CAE"/>
    <path d="M605.969 87.6175C605.658 88.3186 605.405 88.8888 605.349 89.7093C605.308 90.3021 605.33 91.6003 605.762 91.7127C606.182 91.8218 606.78 90.7591 607.239 89.945C607.924 88.7274 608.543 87.6277 608.095 86.7631C607.901 86.3891 607.484 86.0149 607.091 86.056C606.64 86.103 606.385 86.6777 605.969 87.6175H605.969Z" fill="#509CAE"/>
    <path d="M602.396 91.6391C601.749 91.8697 601.07 92.5154 601.2 93.009C601.34 93.5369 602.365 93.7372 603.105 93.5835C603.901 93.4183 604.747 92.764 604.655 92.2578C604.554 91.7039 603.326 91.3071 602.396 91.6391Z" fill="#509CAE"/>
    <path d="M595.752 70.6914C595.539 71.0905 595.643 71.7263 596.018 71.973C596.518 72.3018 597.262 71.7832 597.568 71.4869C597.642 71.4157 598.216 70.8614 598.056 70.5147C597.833 70.0332 596.173 69.9032 595.752 70.6914H595.752Z" fill="#509CAE"/>
    <path d="M594.158 72.9011C594.916 72.1273 594.046 70.3819 593.848 69.9843C593.761 69.8093 592.745 67.8095 591.899 67.9956C591.154 68.1595 590.741 69.9746 591.191 71.3543C591.272 71.605 591.726 72.9991 592.874 73.2105C592.955 73.2255 593.714 73.3544 594.158 72.9011L594.158 72.9011Z" fill="#509CAE"/>
    <path d="M592.091 74.8309C591.926 75.0832 591.973 75.4633 592.15 75.7147C592.431 76.114 593.032 76.1777 593.449 75.9504C593.831 75.7423 594.106 75.2649 593.981 74.9487C593.774 74.4267 592.452 74.2772 592.091 74.8309H592.091Z" fill="#509CAE"/>
    <path d="M603.592 96.3383C603.468 96.9066 603.75 97.5159 604.212 97.7525C605.004 98.1578 606.239 97.4249 606.249 96.5445C606.256 95.9964 605.787 95.4238 605.157 95.3071C604.453 95.1768 603.742 95.6505 603.592 96.3383Z" fill="#509CAE"/>
    <path d="M597.687 86.2769C597.449 86.6063 597.316 87.2017 597.627 87.4554C597.932 87.7041 598.554 87.5346 598.779 87.1313C599.047 86.6515 598.693 85.9512 598.307 85.8939C597.996 85.8478 597.723 86.2269 597.686 86.2769L597.687 86.2769Z" fill="#509CAE"/>
    <path d="M601.067 95.3955C600.497 95.183 599.728 95.9105 599.384 96.3677C598.945 96.9531 598.869 97.5382 598.764 98.4448C598.629 99.6171 598.522 100.538 599.03 100.875C599.503 101.19 600.305 100.865 600.757 100.522C601.854 99.6912 601.771 98.0968 601.732 97.34C601.696 96.6569 601.642 95.6094 601.067 95.3955Z" fill="#509CAE"/>
    <path d="M547.682 86.3211C546.889 87.1467 545.856 88.7834 546.442 89.562C546.894 90.1625 548.195 90.099 549.04 89.6209C550.815 88.6167 551.03 85.5295 550.221 85.0248C549.602 84.6381 548.277 85.7017 547.682 86.3211L547.682 86.3211Z" fill="#509CAE"/>
    <path d="M547.092 82.1964C546.281 82.7887 546.213 84.2721 546.737 84.6123C547.257 84.9493 548.533 84.277 548.804 83.316C548.819 83.2642 549.032 82.469 548.568 82.0786C548.158 81.7331 547.472 81.9182 547.092 82.1964H547.092Z" fill="#509CAE"/>
    <path d="M545.202 92.6849C545.248 94.1515 545.271 94.8848 545.615 95.749C546.197 97.2106 547.645 98.9256 548.568 98.6363C549.406 98.3737 549.685 96.4991 549.395 95.1598C549.157 94.0614 548.548 93.3829 547.446 92.1546C546.739 91.3671 545.946 90.4825 545.497 90.6815C545.151 90.8351 545.167 91.565 545.202 92.6849Z" fill="#509CAE"/>
    <path d="M550.812 91.4476C550.717 92.0541 550.775 92.9434 551.107 93.0385C551.485 93.1468 552.188 92.2172 552.407 91.2708C552.575 90.543 552.517 89.5454 552.17 89.4441C551.775 89.3289 550.982 90.3689 550.812 91.4476V91.4476Z" fill="#509CAE"/>
    <path d="M547.918 101.288C547.782 101.969 547.648 103.76 548.686 104.293C549.651 104.788 551.202 103.977 551.698 102.761C552.172 101.598 551.497 100.518 551.462 100.463C551.059 99.8418 550.199 99.1368 549.395 99.3434C548.893 99.4722 548.575 99.9135 548.391 100.168C548.303 100.29 548.042 100.674 547.918 101.288Z" fill="#509CAE"/>
    <path d="M551.609 96.5151C551.285 96.7744 550.518 97.3879 550.694 97.9882C550.84 98.4867 551.557 98.7053 552.052 98.6953C552.84 98.6793 553.543 98.0738 553.735 97.34C553.845 96.9213 553.856 96.2024 553.44 95.9258C552.842 95.529 551.82 96.3463 551.609 96.5151L551.609 96.5151Z" fill="#509CAE"/>
    <path d="M552.702 104.617C552.901 104.909 553.305 105.064 553.647 105C554.283 104.882 554.739 104.002 554.444 103.38C554.174 102.81 553.333 102.581 552.967 102.849C552.826 102.953 552.785 103.115 552.702 103.439C552.581 103.913 552.483 104.296 552.702 104.617V104.617Z" fill="#509CAE"/>
</svg>
