<svg viewBox="0 0 1041 673" fill="none" xmlns="http://www.w3.org/2000/svg">
    <path d="M930.276 31.5285H109.538C60.3792 31.5285 20.5282 71.3795 20.5282 120.538V559.113C20.5282 608.271 60.3792 648.122 109.538 648.122H930.276C979.434 648.122 1019.29 608.271 1019.29 559.113V120.538C1019.29 71.3795 979.434 31.5285 930.276 31.5285Z" fill="#B6CEE1" stroke="#116619" stroke-width="6"/>
    <path d="M10.3468 40.3962C14.0802 43.5191 30.3872 57.8544 33.3678 82.5644C35.0452 97.2366 31.7441 112.047 23.9944 124.618C23.9917 129.075 23.9889 133.532 23.9861 137.989C25.0232 137.01 49.8968 112.69 42.0006 79.7975C35.744 53.7353 13.6632 42.0771 10.3468 40.3962Z" fill="#48964E"/>
    <path d="M17.0569 128.701C8.9823 135.637 6.59974 141.986 5.91973 146.508C3.13445 165.034 25.505 175.593 28.6391 200.181C30.0691 211.399 26.9366 221.161 23.9805 227.767L23.9875 239.712C41.4527 218.375 42.4272 204.688 40.0084 196.092C35.2337 179.124 13.756 169.631 15.3641 150.788C15.5785 148.344 16.1464 145.945 17.05 143.665C17.0523 138.677 17.0547 133.689 17.0569 128.701Z" fill="#48964E"/>
    <path d="M17.0604 232.674C5.48565 244.641 4.28566 252.946 5.18185 258.219C6.6285 266.731 13.6658 268.101 22.5951 285.077C28.1058 295.553 28.5784 301.026 28.6455 303.671C28.7255 309.923 27.1172 316.082 23.9901 321.497L23.991 330.539C41.6305 318.739 42.9887 308.886 42.9598 304.851C42.909 297.746 38.4361 291.725 29.6047 279.838C21.4098 268.807 15.4083 264.258 14.9215 255.415C14.7654 251.724 15.499 248.049 17.0604 244.7V232.674Z" fill="#48964E"/>
    <path d="M17.0604 325.22V335.103C13.8048 340.271 12.0902 346.261 12.1177 352.369C12.5845 369.455 28.9968 376.064 34.1056 392.065C36.8704 400.725 36.9913 414.222 23.998 434.822C23.9945 430.933 23.991 427.045 23.9876 423.156C26.0384 415.924 26.4201 408.32 25.1039 400.919C20.7622 377.867 0.685835 370.851 0.0169104 353.992C-0.233507 347.682 2.15076 337.868 17.0604 325.22Z" fill="#48964E"/>
    <path d="M17.0501 427.831C4.97676 444.271 4.77025 454.633 6.80518 461.054C10.6864 473.3 24.3096 476.221 27.465 490.052C29.351 498.318 26.4774 506.012 23.9945 510.935C23.9957 514.078 23.9969 517.22 23.998 520.363C37.3567 504.069 38.216 493.78 36.1717 487.248C32.6197 475.899 19.2639 472.709 15.9546 458.324C14.7898 452.761 15.1723 446.984 17.0605 441.623L17.0501 427.831Z" fill="#48964E"/>
    <path d="M17.0612 515.065C8.99151 525.759 9.0124 531.824 10.4206 535.356C13.1376 542.17 22.1154 542.287 25.5465 550.039C28.053 555.702 26.0884 562.023 24.2826 566.146C24.3981 567.501 24.5498 568.909 24.7375 570.368C24.9274 571.825 25.1416 573.223 25.3799 574.563C36.23 556.687 35.4077 548.633 32.7037 544.579C28.6327 538.476 17.7069 537.555 16.3971 530.191C16.1254 528.432 16.3546 526.631 17.0587 524.996L17.0612 515.065Z" fill="#48964E"/>
    <path d="M18.0222 572.507C13.0891 583.935 14.5022 589.32 16.4894 592.115C20.5839 597.873 29.2555 595.641 37.1308 602.851C40.4592 606 42.9026 609.968 44.2167 614.358C44.9419 615.213 45.7119 616.085 46.5267 616.972C47.3524 617.869 48.1675 618.718 48.9719 619.52C49.211 604.959 45.11 599.01 41.3366 596.265C34.4535 591.258 24.7422 594.061 20.6398 587.632C19.2122 585.118 18.7262 582.177 19.2687 579.337C19.0586 578.382 18.8583 577.4 18.668 576.389C18.4183 575.057 18.2031 573.763 18.0222 572.507Z" fill="#48964E"/>
    <path d="M42.0031 622.283C46.7911 638.508 53.2136 643.192 57.9382 644.631C66.9854 647.388 73.8136 639.441 88.7123 639.365C96.1929 639.413 103.556 641.227 110.203 644.66L119.037 644.657C102.87 630.479 91.01 628.438 82.73 629.801C72.3763 631.505 63.8322 639.154 54.9499 635.224C51.4655 633.513 48.6522 630.688 46.9564 627.196C46.2082 626.514 45.4495 625.795 44.6803 625.04C43.7328 624.108 42.8404 623.189 42.0031 622.283Z" fill="#48964E"/>
    <path d="M115.106 651.591C127.369 659.207 134.715 658.829 139.176 657.027C145.937 654.296 147.67 647.647 156.146 644.779C160.852 643.316 165.884 643.273 170.614 644.655H177.173C165.138 636.785 157.597 636.827 152.826 638.581C144.69 641.572 140.989 650.87 130.321 652.01C128.053 652.244 125.761 652.1 123.54 651.584L115.106 651.591Z" fill="#48964E"/>
    <path d="M176.174 651.59C191.651 661.554 201.029 661.231 206.763 659.02C215.799 655.534 218.489 646.308 229.636 643.525C235.059 642.31 240.718 642.705 245.919 644.66L253.388 644.657C239.944 633.895 230.994 633.305 225.357 634.671C213.782 637.475 209.318 650.187 194.515 652.342C190.476 652.902 186.366 652.647 182.428 651.591L176.174 651.59Z" fill="#48964E"/>
    <path d="M249.258 651.582C265.838 664.48 276.984 665.311 284.237 663.447C296.849 660.205 300.696 648.04 316.407 643.82C324.23 641.89 332.436 642.182 340.102 644.66L351.961 644.655C333.752 633.539 321.409 633.567 313.345 635.888C299.746 639.802 293.8 651.537 277.043 653.596C270.737 654.311 264.351 653.625 258.341 651.587L249.258 651.582Z" fill="#48964E"/>
    <path d="M345.465 651.591C365.599 662.904 377.705 661.874 385.027 658.872C394.833 654.852 399.56 645.86 412.771 643.525C418.459 642.583 424.289 642.969 429.804 644.655L443.017 644.658C425.156 629.441 413.953 628.334 406.868 630.539C395.057 634.214 392.044 647.915 376.764 652.231C370.046 653.964 362.974 653.737 356.381 651.577L345.465 651.591Z" fill="#48964E"/>
    <path d="M436.307 651.584C442.658 655.453 452.538 660.082 464.273 659.315C481.079 658.216 487.83 646.955 505.592 642.197C514.149 639.904 527.157 638.613 545.113 644.65L557.538 644.652C526.411 625.02 509.136 625.608 498.952 630.686C488.018 636.138 480.788 648.994 462.926 651.881C457.708 652.701 452.387 652.6 447.203 651.584H436.307Z" fill="#48964E"/>
    <path d="M562.702 651.585C568.452 653.494 574.507 654.314 580.558 654.002C600.049 652.891 608.674 639.807 623.353 634.67C633.854 630.996 650.007 630.496 674.713 644.655L660.42 644.66C650.354 641.913 639.791 641.525 629.551 643.525C608.509 647.856 601.319 660.833 583.509 662.118C576.428 662.63 565.421 661.455 551.171 651.587L562.702 651.585Z" fill="#48964E"/>
    <path d="M678.232 651.584C690.721 656.031 703.969 657.957 717.208 657.249C748.6 655.366 762.648 638.53 787.599 631.572C805.047 626.705 831.514 625.641 869.511 644.67L852.521 644.66C835.629 641.292 818.247 641.207 801.323 644.41C765.319 651.434 753.078 670.21 724.734 672.301C710.686 673.337 690.342 670.448 664.51 651.591L678.232 651.584Z" fill="#48964E"/>
    <path d="M863.063 651.567C886.607 667.621 902.874 668.248 913.515 665.66C932.602 661.019 935.367 645.599 956.862 642.787C972.959 640.681 980.122 648.188 995.268 643.23C1005.77 639.793 1012.88 632.731 1017.11 627.587C1009.96 632.466 1001.87 635.785 993.35 637.327C976.852 640.181 972.486 633.405 958.485 634.671C935.888 636.714 931.904 655.755 909.678 658.725C898.771 660.182 888.074 657.154 877.949 651.549L863.063 651.567Z" fill="#48964E"/>
    <path d="M999.208 69.8698C997.078 77.8959 996.928 86.3192 998.772 94.4161C1003.46 113.868 1018.27 119.09 1024.6 136.621C1027.5 144.66 1029.28 157.114 1022.75 175.443L1022.76 186.227C1042.99 157.86 1042.88 141.801 1038.91 132.342C1033.64 119.792 1018.97 112.695 1008.05 87.2683C1006.39 83.4222 1005.27 80.1954 1004.61 78.1808C1004.06 77.2256 1003.48 76.2551 1002.86 75.2693C1001.65 73.3353 1000.43 71.5367 999.208 69.8698Z" fill="#48964E"/>
    <path d="M1015.82 180.961C1011.89 187.507 1007.1 197.909 1008.95 209.578C1011.34 224.602 1022.78 229.453 1027.25 244.773C1029.47 252.361 1030.52 264.371 1022.75 281.839V294.295C1042.18 265.974 1041.87 250.456 1037.66 241.453C1032.33 230.076 1018.31 223.862 1015.52 206.479C1014.82 201.997 1014.92 197.427 1015.82 192.98V180.961Z" fill="#48964E"/>
    <path d="M1015.82 288.046C1006.9 300.577 1006.59 308.452 1008.44 313.504C1011.7 322.443 1022.43 324.583 1024.6 334.976C1025.36 339.343 1024.71 343.839 1022.75 347.816L1022.76 356.235C1032.27 345.732 1033.16 338.662 1032.12 334.09C1029.58 322.9 1013.72 319.142 1013.31 307.528C1013.28 304.468 1014.15 301.468 1015.81 298.9L1015.82 288.046Z" fill="#48964E"/>
    <path d="M1015.82 351.992C1005.73 364.487 1004.91 372.978 1006.3 378.586C1009.03 389.572 1021.11 392.861 1024.01 406.33C1025.05 411.659 1024.61 417.171 1022.75 422.272V434.384C1035.55 419.748 1036.56 410.288 1034.93 404.264C1031.75 392.556 1017.13 388.512 1014.86 373.569C1014.29 369.557 1014.62 365.469 1015.82 361.6L1015.82 351.992Z" fill="#48964E"/>
    <path d="M1015.82 426.515C1004.79 443.25 1004.97 453.074 1007.55 459.062C1011.73 468.749 1023.75 471.98 1025.04 483.19C1025.39 487.06 1024.59 490.946 1022.75 494.368L1022.75 503.383C1032.03 494.91 1033.54 488.412 1033.23 484.075C1032.34 471.543 1015.58 466.621 1013.75 451.093C1013.29 446.598 1014.01 442.06 1015.82 437.921L1015.82 426.515Z" fill="#48964E"/>
    <path d="M1015.82 499.014C1007.02 507.596 1005.4 514.24 1005.86 518.975C1006.87 529.57 1018.51 532.74 1023.27 545.391C1026.88 554.982 1024.61 564.882 1021.83 572.165C1021.6 573.851 1021.3 575.628 1020.93 577.483C1020.57 579.278 1020.17 580.978 1019.75 582.576C1036.03 561.403 1036.46 549.678 1033.45 542.808C1028.98 532.623 1014.59 527.777 1014.27 515.286C1014.22 512.647 1014.75 510.03 1015.82 507.617L1015.82 499.014Z" fill="#48964E"/>
    <path d="M1014.2 575.757C1009.84 580.03 1006.56 585.276 1004.62 591.064C1001.29 601.346 1004.9 606.523 1000.52 615.745C999.569 617.76 996.178 624.913 989.124 628.141C977.107 633.64 963.034 623.823 962.617 624.765C962.191 625.726 975.865 638.171 990.342 634.283C997.405 632.386 1005.59 626.476 1007.66 618.456C1009.61 610.929 1007.55 596.224 1009.29 592.035C1009.35 591.892 1009.8 590.836 1010.36 589.358C1010.98 587.685 1011.45 586.25 1011.78 585.179C1012.3 583.51 1012.81 581.738 1013.27 579.868C1013.63 578.455 1013.94 577.085 1014.2 575.757Z" fill="#48964E"/>
    <path d="M1001.47 61.5114C1001.37 56.6351 1000.25 51.8343 998.181 47.4151C991.658 33.5863 977.938 28.8425 974.865 27.862C988.36 26.1976 1001.09 32.6254 1006.59 43.5783C1012.43 55.2029 1007.59 66.8654 1006.81 68.643C1005.94 67.3385 1004.98 65.9914 1003.94 64.6156C1003.11 63.5224 1002.29 62.4876 1001.47 61.5114Z" fill="#48964E"/>
    <path d="M43.1074 75.3058C44.178 75.238 38.4338 54.3328 49.1947 41.4385C57.8654 31.0486 73.9217 29.8508 87.2125 30.7765C89.4119 30.2335 91.3744 29.8336 93.0296 29.5356C94.0802 29.3464 95.6591 29.081 97.592 28.8308C98.9585 28.6539 100.173 28.5272 101.193 28.4349C76.8268 18.8415 53.2042 23.3875 43.6608 37.2327C33.201 52.4075 41.9815 75.3771 43.1074 75.3058Z" fill="#48964E"/>
    <path d="M93.9102 36.4151C102.92 41.8452 116.869 48.1997 132.092 45.3121C149.99 41.9171 155.559 28.4282 174.15 22.9922C183.451 20.2726 198.036 18.9772 219.103 28.0634H236.353C199.711 5.44145 178.684 6.07504 165.96 12.2196C151.449 19.2267 139.936 37.1661 118.258 37.0114C114.152 36.9709 110.076 36.3133 106.166 35.0607C103.849 35.1485 101.363 35.337 98.7344 35.6676C97.0497 35.8795 95.4401 36.133 93.9102 36.4151Z" fill="#48964E"/>
    <path d="M228.079 34.994C228.944 35.3655 230.199 35.8987 231.72 36.5247C233.329 37.2753 234.978 37.935 236.661 38.5009C240.168 39.6001 245.142 41.035 251.186 42.359C257.024 43.638 276.468 46.4508 289.033 46.3082C320.503 45.951 334.661 25.56 366.507 19.7456C380.473 17.1958 400.921 16.8869 427.844 28.053C437.861 28.0582 447.878 28.0634 457.896 28.0685C399.445 -5.47043 365.669 -2.9533 345.479 6.02161C327.021 14.2264 308.788 32.7752 274.516 36.1947C264.406 37.1846 254.208 36.7811 244.207 34.9957L228.079 34.994Z" fill="#48964E"/>
    <path d="M437.286 34.9914C465.596 51.2299 483.707 50.326 495.115 46.3082C510.947 40.7325 518.143 27.6528 538.058 24.6155C547.925 23.263 557.975 24.4497 567.256 28.0634H586.506C555.693 5.68429 537.191 4.95595 525.662 9.56331C510.09 15.7864 504.033 33.0253 483.162 37.0114C474.91 38.4536 466.427 37.7578 458.521 34.9905C451.443 34.9908 444.364 34.9911 437.286 34.9914Z" fill="#48964E"/>
    <path d="M571.485 34.9957C596.982 49.3601 614.019 48.7852 625.05 45.3121C642.733 39.7448 651.283 24.7466 672.199 23.5087C680.314 23.1283 688.403 24.6898 695.793 28.0634H718.178C696.641 9.28632 680.986 6.98964 670.428 8.67782C649.18 12.0756 638.772 33.1835 609.666 35.9045C603.46 36.4718 597.205 36.1641 591.084 34.9904C584.551 34.9922 578.018 34.994 571.485 34.9957Z" fill="#48964E"/>
    <path d="M703.477 34.994C726.783 49.3467 740.366 48.8083 748.64 44.9801C759.428 39.9895 761.813 29.122 774.613 24.9106C784.975 21.5015 795.456 24.6605 802.943 28.0599C808.95 28.0605 814.957 28.0611 820.964 28.0617C789.526 7.85254 773.908 8.26014 765.463 13.4001C755.427 19.5093 753.178 33.732 739.786 37.3065C732.496 39.2524 725.544 37.0715 720.901 34.9957L703.477 34.994Z" fill="#48964E"/>
    <path d="M809.739 34.9931C815.789 39.6486 825.205 45.3044 836.74 45.2753C856.236 45.2261 864.499 28.9799 885.881 23.2873C895.544 20.7146 910.126 19.7014 930.432 28.0634C933.816 28.0668 937.197 28.2545 940.56 28.6259C943.741 28.9771 946.679 29.4677 949.349 30.0243C907.174 3.31469 886.881 4.6651 876.141 11.039C865.409 17.4079 857.069 33.0336 838.068 35.5356C833.569 36.1108 829.005 35.9274 824.567 34.9931H809.739Z" fill="#48964E"/>
    <path d="M934.578 35.0669C941.184 39.498 948.551 42.6711 956.309 44.4268C966.959 46.7913 978.032 46.4488 988.516 43.4307C979.796 43.5594 971.096 42.5926 962.617 40.553C959.399 39.7762 956.384 38.8836 953.578 37.9281C947.375 36.2526 941 35.2927 934.578 35.0669V35.0669Z" fill="#48964E"/>
    <path d="M101.41 35.4049C107.838 38.3593 117.566 41.6527 128.908 40.4695C152.537 38.0046 160.464 18.4851 181.344 14.1011C191.498 11.969 206.67 13.0066 227.939 28.0634C226.906 28.0455 225.873 28.0276 224.84 28.0096C205.872 15.3877 191.931 14.5197 182.672 16.0932C160.602 19.8442 152.632 39.5941 129.016 42.2109C116.358 43.6135 105.462 39.3998 98.4163 35.7755L101.41 35.4049Z" fill="#76B779"/>
    <path d="M95.3166 29.1536C85.4727 25.4876 74.7352 24.9591 64.5788 27.6407C59.6373 29.0252 51.9161 31.1809 46.4277 38.2288C39.199 47.5115 40.6058 58.6408 41.0045 61.2498C40.6717 58.7011 39.5176 47.6986 46.8534 38.7216C52.3326 32.0165 60.2123 29.9397 64.8739 28.7106C73.9135 26.4301 83.4148 26.7632 92.2725 29.671C93.2873 29.4985 94.302 29.326 95.3166 29.1536Z" fill="#76B779"/>
    <path d="M237.66 34.9822C252 39.4528 273.205 43.7283 297.002 38.7822C330.164 31.8895 340.922 12.7916 368.942 7.64488C385.526 4.5989 410.17 6.06968 443.834 28.0613L439.167 28.0649C408.29 9.14931 385.263 7.9398 369.975 10.3011C340.724 14.8192 329.915 33.9371 297.666 40.8482C271.862 46.3781 248.691 40.5865 233.399 34.9946C234.82 34.9905 236.24 34.9864 237.66 34.9822Z" fill="#76B779"/>
    <path d="M444.941 34.9911C452.929 40.0391 465.38 46.0803 479.841 44.6481C504.225 42.2331 513.083 20.6748 537.726 17.8641C546.079 16.9113 558.71 17.8317 575.226 28.0738L578.428 28.0634C560.424 15.2718 546.765 13.8309 537.394 15.0971C514.299 18.2174 505.779 39.3249 480.948 41.9918C467.881 43.3952 456.562 39.0193 448.925 35.0007C447.597 34.9975 446.269 34.9943 444.941 34.9911Z" fill="#76B779"/>
    <path d="M578.18 34.9873C595.154 43.6952 608.029 44.0214 616.418 42.8772C642.702 39.292 652.867 17.4572 676.737 17.5321C689.165 17.5711 699.182 23.5302 705.283 28.0599C706.237 28.0611 707.192 28.0623 708.147 28.0634C694.849 16.8455 684.006 14.7085 676.848 14.6545C653.408 14.4776 643.263 36.4358 616.085 40.3317C601.595 42.4089 589.063 38.3766 581.209 34.9905L578.18 34.9873Z" fill="#76B779"/>
    <path d="M710.788 34.9947C718.062 40.2465 728.459 45.7932 739.491 43.7627C755.802 40.7608 759.94 23.6929 776.605 19.5981C783.78 17.8351 794.554 18.163 809.898 28.0606L812.55 28.0609C794.731 15.2624 782.829 14.6367 774.982 16.9418C759.326 21.5405 755.488 39.0733 739.159 41.8811C729.507 43.5409 720.566 39.1829 714.296 34.9957C713.126 34.9953 711.957 34.995 710.788 34.9947Z" fill="#76B779"/>
    <path d="M814.955 34.9931C819.827 38.1992 827.321 42.0445 836.555 42.2132C858.284 42.6099 867.535 22.245 889.127 16.9787C899.452 14.4606 914.822 14.852 936.534 28.2863C937.876 28.3995 939.218 28.5127 940.56 28.6259C915.515 11.7737 898.952 11.6916 888.574 14.5438C868.698 20.0065 859.238 39.606 836.888 39.6676C830.25 39.6106 823.717 38.0112 817.804 34.9957C816.854 34.9949 815.905 34.994 814.955 34.9931Z" fill="#76B779"/>
    <path d="M942.44 35.713C946.569 38.605 951.124 40.8354 955.94 42.3239C963.469 44.634 970.024 44.5734 970.051 44.3714C965.338 43.7267 960.69 42.6713 956.161 41.2171C952.257 39.881 948.499 38.1504 944.946 36.0521C944.11 35.9391 943.275 35.826 942.44 35.713Z" fill="#76B779"/>
    <path d="M988.516 31.625C991.866 32.7213 994.959 34.4872 997.606 36.8153C1000.25 39.1435 1002.4 41.9854 1003.92 45.1684C1005.43 48.3515 1006.28 51.8094 1006.42 55.3321C1006.56 58.8548 1005.98 62.3688 1004.72 65.6609L1003.26 63.7362C1005.12 57.5054 1004.64 50.8135 1001.93 44.9062C999.217 38.9989 994.45 34.2789 988.516 31.625V31.625Z" fill="#76B779"/>
    <path d="M1000.89 72.2494C1000.26 82.8465 1002.22 93.4377 1006.61 103.106C1014.89 120.768 1027.3 124.15 1031.79 138.06C1034.42 146.21 1034.63 158.89 1022.75 178.194L1022.75 180.961C1037.32 159.553 1037.47 145.875 1034.56 137.175C1030.09 123.821 1017.69 120.015 1008.88 100.872C1005.12 92.5861 1002.93 83.6724 1002.43 74.5864C1001.92 73.8074 1001.4 73.0284 1000.89 72.2494Z" fill="#76B779"/>
    <path d="M1015.82 184.986C1013.41 189.821 1010.24 197.931 1011.24 207.509C1013.17 226.011 1028.77 232.242 1032.34 249.345C1033.89 256.745 1033.67 268.5 1022.75 285.279V288.046C1036.28 269.414 1036.85 256.783 1034.85 248.681C1030.95 232.842 1015.36 226.727 1013.09 207.878C1012.36 201.084 1013.32 194.215 1015.89 187.882L1015.82 184.986Z" fill="#76B779"/>
    <path d="M1015.82 292.088C1009.52 300.359 1009.12 306.243 1009.77 309.963C1011.78 321.512 1026.15 324.672 1027.58 336.083C1028.33 342.038 1025.19 347.305 1022.75 350.54L1022.75 351.993C1029 345.097 1029.85 339.901 1029.47 336.415C1028.21 325.102 1012.73 321.778 1010.98 309.852C1010.1 303.818 1013.13 298.335 1015.81 294.662L1015.82 292.088Z" fill="#76B779"/>
    <path d="M1015.82 354.877C1009.05 365.795 1009 373.435 1010.13 378.341C1013.12 391.204 1026.44 394.586 1028.43 407.117C1029.67 414.86 1025.9 421.893 1022.75 426.431V429.613C1031.05 419.546 1031.86 412.226 1031.16 407.486C1029.35 395.193 1016.11 391.535 1012.94 377.603C1011.09 369.49 1013.6 362.01 1015.82 357.202L1015.82 354.877Z" fill="#76B779"/>
    <path d="M1015.82 431.54C1008.4 442.61 1008.31 450.201 1009.4 454.93C1012.39 467.942 1027.27 472.146 1027.7 484.296C1027.89 489.927 1024.89 494.552 1022.75 497.237L1022.75 499.561C1026.34 495.827 1030.01 490.629 1029.76 484.592C1029.27 472.672 1013.94 468.563 1011.09 454.856C1010.08 449.965 1010.53 443.248 1015.82 434.381V431.54Z" fill="#76B779"/>
    <path d="M1015.82 501.71C1012.2 505.779 1008.04 511.875 1008.73 518.754C1009.91 530.546 1024.14 533.781 1028.14 546.46C1029.93 552.144 1030.12 561.166 1021.39 575.016L1020.97 577.285C1032.6 561.775 1032.9 552.126 1030.91 546.128C1027.02 534.456 1012.63 531.24 1011.32 519.049C1010.67 513.035 1013.52 507.801 1015.82 504.514V501.71Z" fill="#76B779"/>
    <path d="M1013.28 579.796C1009.56 584.263 1006.96 589.556 1005.71 595.232C1003.78 604.436 1007.17 608.128 1004.05 616.335C1002.26 621.337 998.873 625.614 994.419 628.509C990.52 630.91 986.009 632.127 981.432 632.014C986.043 632.394 990.662 631.406 994.714 629.173C999.559 626.322 1003.26 621.875 1005.19 616.593C1008.15 608.792 1005.06 604.977 1007.15 595.343C1008.18 590.641 1010.06 586.164 1012.68 582.125L1013.28 579.796Z" fill="#76B779"/>
    <path d="M997.001 639.983C997.064 640.333 990.231 642.707 981.801 642.934C972.39 643.188 966.73 640.613 962.47 639.688C942.876 635.435 931.042 661.361 907.498 664.948C898.802 666.273 885.711 664.976 867.933 651.561L872.47 651.556C887.78 663.167 899.182 664.259 906.393 663.447C930.198 660.764 941.56 633.571 961.584 637.474C966.077 638.35 970.601 640.712 979.883 641.164C989.645 641.638 996.936 639.623 997.001 639.983Z" fill="#76B779"/>
    <path d="M859.281 644.664C846.215 639.293 824.975 632.842 800.917 637.437C768.848 643.563 757.616 664.379 727.649 667.652C715.114 669.021 695.5 667.736 669.584 651.59L674.313 651.588C685.418 658.133 703.568 666.516 724.992 664.553C755.92 661.72 767.454 639.729 798.925 633.453C812.761 630.694 834.433 630.178 864.262 644.667L859.281 644.664Z" fill="#76B779"/>
    <path d="M664.037 644.687C651.154 638.458 640.62 637.651 632.355 638.876C610.917 642.054 603.216 659.13 583.214 660.348C572.328 661.011 562.681 656.679 555.065 651.586L558.275 651.567C563.675 654.63 572.348 658.476 582.771 657.913C602.953 656.821 610.581 640.23 630.473 636.441C638.605 634.893 651.06 635.05 668.132 644.663L664.037 644.687Z" fill="#76B779"/>
    <path d="M549.273 644.651C527.307 632.848 512.883 633.741 503.748 636.773C488.389 641.872 482.538 654.828 465.564 656.917C455.012 658.215 445.882 654.611 440.071 651.584H443.613C450.165 654.716 457.453 655.987 464.679 655.257C482.171 653.136 488.125 638.533 502.641 633.066C511.819 629.609 527.077 628.802 552.323 644.651L549.273 644.651Z" fill="#76B779"/>
    <path d="M436.493 644.699C425.159 635.342 416.761 634.257 411.147 635.039C396.579 637.07 392.128 652.885 376.026 656.068C366.737 657.905 358.204 654.622 352.47 651.582L349.186 651.586C361.832 658.828 370.85 658.786 376.542 657.618C392.27 654.389 397.166 639.573 412.18 637.991C421.167 637.044 428.928 641.349 433.652 644.656L436.493 644.699Z" fill="#76B779"/>
    <path d="M343.431 644.659C338.235 642.102 329.583 638.814 319.691 640.37C302.42 643.088 297.038 658.106 281.064 660.569C274.988 661.506 265.331 660.943 252.012 651.579L255.498 651.583C261.237 655.047 270.054 659.071 280.068 657.747C296.509 655.573 301.906 640.871 318.473 638.046C324.612 637 333.915 637.306 346.475 644.657L343.431 644.659Z" fill="#76B779"/>
    <path d="M247.944 644.659C242.921 641.619 235.444 638.27 227.644 640.094C217.346 642.502 214.939 651.951 204.641 655.533C199.415 657.351 191.183 657.998 178.634 651.591L180.69 651.591C186.805 654.03 195.311 656.168 203.756 653.264C214.324 649.631 216.651 640.901 226.316 638.323C231.473 636.947 239.267 637.176 250.6 644.659H247.944Z" fill="#76B779"/>
    <path d="M175.127 644.655C166.239 639.155 160.08 639.111 156.054 640.149C146.567 642.594 143.858 652.346 133.808 653.984C129.396 654.556 124.916 653.716 121.011 651.586L118.41 651.588C125.345 655.862 130.57 656.207 134.25 655.533C144.054 653.738 146.739 644.014 156.829 641.754C162.921 640.389 168.707 642.419 172.988 644.655H175.127Z" fill="#76B779"/>
    <path d="M113.48 644.655C100.881 635.725 91.215 634.611 84.6115 635.335C72.9818 636.61 67.4532 643.96 59.0088 641.91C50.9137 639.944 46.2258 630.817 43.6255 623.984L45.2295 625.576C47.9039 631.28 52.4117 638.401 59.5984 640.094C68.0881 642.094 73.6296 634.944 84.0212 633.269C91.1383 632.121 101.672 633.358 116.069 644.659L113.48 644.655Z" fill="#76B779"/>
    <path d="M45.3947 615.708C45.0881 611.126 43.8752 604.984 39.3443 600.729C31.9806 593.815 21.6086 597.29 17.4301 591.064C15.7766 588.6 14.7741 584.141 18.4904 575.414C18.619 576.098 18.7476 576.782 18.8762 577.465C17.2405 581.599 15.9684 586.871 18.4262 590.621C22.453 596.765 32.7686 593.143 40.1559 599.475C43.5126 602.352 46.5171 607.5 46.7931 617.26C46.3269 616.743 45.8608 616.225 45.3947 615.708Z" fill="#76B779"/>
    <path d="M24.5267 568.625C30.1619 559.396 29.8582 553.748 28.498 550.279C25.3031 542.13 14.6376 541.809 12.2284 534.009C10.5306 528.513 13.9362 522.549 17.0604 518.385L17.0598 520.986C15.0042 524.117 12.5214 529.002 13.8886 533.788C16.1852 541.828 27.2138 542.118 30.4902 549.892C32.026 553.536 32.245 559.742 24.7701 570.615L24.5267 568.625Z" fill="#76B779"/>
    <path d="M23.9954 513.617C27.8757 508.27 32.3657 500.169 30.8776 491.398C28.5162 477.48 13.1498 473.942 9.8488 459.745C8.55186 454.166 8.79209 445.544 17.0541 433.163L17.0568 436.816C13.8066 442.419 10.3751 450.579 12.2284 459.246C15.3589 473.887 30.8828 477.417 33.3125 490.9C34.2915 496.333 33.3424 504.481 23.9963 515.83L23.9954 513.617Z" fill="#76B779"/>
    <path d="M23.9878 426.901C27.3631 419.487 31.1934 407.891 28.0552 395.533C22.9747 375.526 3.68721 369.495 3.33719 353.254C3.21824 347.736 5.248 339.291 17.0604 328.665V331.654C12.0454 336.702 6.43249 344.146 6.53747 353.096C6.72918 369.433 25.7936 375.553 30.7852 394.5C32.8483 402.331 32.9074 413.871 24.0155 430.083C24.0063 429.022 23.997 427.962 23.9878 426.901Z" fill="#76B779"/>
    <path d="M23.9903 324.704C33.2302 315.786 34.4585 308.487 34.4745 304.519C34.4837 302.232 34.1043 297.556 21.7466 278.953C12.536 265.087 9.34719 262.567 8.90791 256.485C8.3372 248.583 12.9182 241.727 17.0603 237.043V240.621C14.4345 244.232 11.484 249.592 11.7856 255.932C12.1124 262.803 16.0476 266.351 23.4067 276.85C32.9914 290.523 37.7836 297.36 37.7948 304.519C37.8021 309.238 35.9792 317.228 23.9905 327.001L23.9903 324.704Z" fill="#76B779"/>
    <path d="M23.9829 231.693C32.8395 219.498 34.1485 209.883 33.7367 203.397C32.2584 180.113 6.81391 168.925 9.4614 148.722C10.3856 142.973 13.0398 137.642 17.0705 133.439C17.0636 134.7 17.0568 135.96 17.05 137.22C14.3671 140.553 12.569 144.509 11.8225 148.722C8.58688 168.77 34.9487 180.476 36.9095 202.806C37.5483 210.082 35.8001 220.798 23.9846 234.682L23.9829 231.693Z" fill="#76B779"/>
    <path d="M23.9916 129.261C32.5178 118.862 37.3702 105.938 37.7949 92.4977C38.0244 81.6522 35.3223 70.9457 29.9737 61.508C36.3822 70.5914 39.9282 81.3835 40.1561 92.4977C40.4759 114.728 26.8922 129.321 23.9897 132.305L23.9916 129.261Z" fill="#76B779"/>
    <path d="M297.096 404.994C298.9 410.796 299.164 415.468 299.084 418.615C298.797 430.02 293.617 437.156 294.629 448.607C294.883 451.484 295.474 454.436 295.474 454.436C296.516 458.524 298.198 460.81 299.193 466.169C300.783 474.732 299.963 487.592 287.683 505.147C300.732 487.598 301.847 474.661 300.398 466.04C299.521 460.822 297.935 458.554 296.975 454.525C296.975 454.524 296.432 451.586 296.218 448.732C295.918 444.735 300.993 428.889 301.409 418.488C301.534 415.361 301.331 410.744 299.604 405.004C299.084 405.01 298.556 405.011 298.019 405.007C297.709 405.005 297.401 405 297.096 404.994V404.994Z" fill="#BD632F"/>
    <path d="M317.997 403.283C317.99 406.882 318.277 412.59 320.034 419.252C325.029 438.185 336.336 444.056 341.352 455.068C346.214 465.74 345.723 484.068 320.264 517.464C347.405 483.534 348.358 465.123 343.53 454.477C338.669 443.757 327.821 438 322.642 419.252C320.723 412.305 320.365 406.334 320.339 402.552L317.997 403.283V403.283Z" fill="#BD632F"/>
    <path d="M266.843 400.194C272.427 425.424 267.337 440.454 261.131 449.695C254.193 460.027 243.299 466.904 240.125 482.244C238.568 489.77 239.468 496.339 240.487 500.744C239.992 496.554 239.722 490.067 241.694 482.639C245.801 467.172 256.404 460.436 263.304 450.54C269.481 441.68 275.022 426.993 270.341 401.904L266.843 400.194Z" fill="#F38F56"/>
    <path d="M275.898 403.731C276.28 409.124 276.551 417.096 275.754 426.721C274.183 445.694 273.155 458.666 264.31 470.208C257.628 478.928 251.942 479.768 248.692 488.761C245.948 496.353 247.14 503.669 248.606 508.712C247.484 503.766 246.728 496.593 249.686 489.219C253.378 480.017 259.313 479.329 266.232 470.749C275.107 459.744 276.266 447.147 278.254 426.884C279.179 417.455 279.117 409.638 278.898 404.351L275.898 403.731H275.898Z" fill="#BD632F"/>
    <path d="M326.575 399.649C326.694 403.28 327.251 408.95 329.652 415.258C336.392 432.954 349.351 433.561 355.449 447.357C362.347 462.961 356.354 485.104 343.723 494.661C334.856 501.37 323.547 501.285 323.498 501.09C323.45 500.898 334.401 500.735 342.718 493.943C354.029 484.705 359.812 463.641 353.187 448.032C347.206 433.94 333.841 433.204 327.084 415.032C324.987 409.392 324.366 404.411 324.151 401.303C324.42 401.178 324.706 401.029 325 400.852C325.648 400.462 326.169 400.036 326.575 399.649V399.649Z" fill="#F38F56"/>
    <path d="M310.275 404.904C313.313 414.034 313.819 421.68 313.505 427.532C312.962 437.653 310.031 440.786 311.886 447.467C314.293 456.135 320.795 456.932 324.513 464.53C327.182 469.984 328.386 478.878 321.761 493.926C329.459 478.866 328.638 469.921 326.213 464.446C322.89 456.943 316.567 455.988 314.152 447.129C312.366 440.577 314.943 437.607 315.528 427.363C315.836 421.988 315.63 414.129 312.958 404.341C312.522 404.447 312.073 404.548 311.612 404.645C311.156 404.741 310.71 404.827 310.275 404.904H310.275Z" fill="#F38F56"/>
    <path d="M264.455 504.953C275.753 498.172 279.719 491.346 281.254 486.369C284.585 475.569 277.441 470.322 280.299 456.635C282.304 447.035 286.699 446.165 290.226 436.024C292.656 429.038 294.279 418.911 290.675 405.189L294.139 405.409C298.078 420 296.005 430.237 293.407 436.869C289.523 446.785 284.833 447.48 282.463 457.03C279.095 470.6 286.515 476.156 282.844 486.82C281.165 491.697 276.871 498.499 264.455 504.953Z" fill="#F38F56"/>
    <path d="M300.894 405.911C300.834 406.222 300.785 406.712 300.959 407.257C301.412 408.678 302.905 408.792 303.611 409.924C304.614 411.533 302.836 412.483 303.342 414.919C303.866 417.443 306.021 417.598 306.017 419.749C306.014 421.599 304.419 422.236 304.947 423.645C305.439 424.957 307.159 425.293 307.002 426.179C306.879 426.878 305.761 426.915 305.627 427.672C305.476 428.529 306.834 428.91 306.82 429.813C306.804 430.916 304.766 430.996 304.372 432.261C303.873 433.859 306.676 435.164 306.081 436.767C305.753 437.653 304.778 437.578 304.61 438.454C304.38 439.653 306.123 440.236 305.934 441.478C305.792 442.408 304.765 442.4 304.409 443.522C304.068 444.595 304.877 445.017 304.961 446.4C305.073 448.266 303.657 448.433 303.641 450.179C303.623 452.203 305.521 452.559 305.329 454.602C305.215 455.824 304.485 456.24 304.798 457.268C305.095 458.245 305.866 458.234 306.366 459.159C307.25 460.79 305.399 461.84 305.994 463.568C306.621 465.388 308.976 465.1 309.658 467.113C310.112 468.453 309.257 469.14 310.02 470.203C310.736 471.2 311.722 470.921 312.265 471.869C312.913 473 311.749 473.815 312.431 474.956C312.965 475.851 313.912 475.737 314.178 476.594C314.402 477.313 313.798 477.595 313.744 478.503C313.664 479.855 314.95 480.159 315.39 481.635C315.864 483.221 314.572 483.529 314.668 485.639C314.767 487.804 316.156 488.098 315.784 489.745C315.491 491.045 314.491 491.464 314.716 492.606C314.877 493.423 315.446 493.497 315.594 494.291C315.812 495.451 314.766 496.193 314.365 497.098C313.921 498.1 314.044 499.803 316.836 502.836C316.121 501.237 316.235 500.139 316.62 499.37C316.983 498.646 317.37 498.643 317.741 497.841C318.318 496.596 317.602 496.128 317.941 494.464C318.226 493.06 318.809 493.033 318.805 491.947C318.801 490.774 318.118 490.598 317.899 489.402C317.582 487.678 318.877 487.381 318.814 485.575C318.746 483.64 317.24 483.418 317.315 481.503C317.374 480 318.318 479.719 318.015 478.543C317.691 477.283 316.517 477.256 316.218 475.962C315.933 474.731 316.906 474.366 316.553 473.294C316.163 472.109 314.875 472.246 314.266 470.899C313.803 469.875 314.428 469.535 313.981 468.486C313.43 467.192 312.326 467.355 311.519 466.171C310.44 464.589 311.963 463.643 311.036 461.675C310.234 459.973 308.709 459.86 308.685 458.47C308.669 457.538 309.348 457.309 309.277 456.226C309.206 455.136 308.493 454.998 308.202 453.974C307.688 452.167 309.598 451.495 309.279 449.638C308.993 447.973 307.296 447.572 307.59 446.341C307.813 445.409 308.846 445.393 309.08 444.348C309.317 443.286 308.326 442.958 308.474 441.828C308.634 440.602 309.862 440.514 310.068 439.293C310.271 438.084 309.127 437.817 309.154 436.532C309.19 434.849 311.168 434.596 311.221 432.991C311.271 431.492 309.567 431.064 309.836 429.546C309.997 428.636 310.681 428.378 310.575 427.488C310.48 426.692 309.895 426.598 309.603 425.823C309.094 424.47 310.508 423.785 310.468 422.18C310.429 420.6 309.042 420.537 308.529 418.674C307.98 416.681 309.437 416.279 309.184 414.033C308.892 411.449 306.874 411.194 307.081 408.957C307.153 408.181 307.946 407.153 307.567 405.738C307.525 405.584 307.481 405.459 307.449 405.377L300.894 405.911L300.894 405.911Z" fill="#BD632F"/>
    <path d="M280.998 404.779C280.834 405.144 280.629 405.717 280.619 406.422C280.593 408.107 281.729 408.889 282.251 410.192C283.252 412.689 280.923 413.468 281.474 416.244C282.096 419.381 285.473 420.418 284.831 422.38C284.436 423.586 283.013 423.659 282.926 424.848C282.82 426.292 284.912 426.982 284.616 428.086C284.34 429.117 282.403 428.946 281.934 430.077C281.439 431.272 283.376 432.02 283.462 433.695C283.584 436.079 279.757 436.532 279.155 439.483C278.712 441.653 280.622 442.194 280.105 444.895C279.737 446.813 278.67 447.091 278.804 448.685C278.965 450.598 280.565 450.915 280.437 452.455C280.292 454.201 278.173 454.565 278.197 456.147C278.217 457.459 279.68 457.544 280.403 459.107C281.665 461.839 278.24 463.847 279.366 466.426C280.227 468.397 282.629 468.139 283.16 470.219C283.564 471.802 282.287 472.406 282.818 473.928C283.408 475.622 285.168 475.386 285.992 477.096C286.941 479.069 285.018 480.252 285.978 482.069C286.911 483.836 289.201 483.575 289.586 485.148C289.896 486.416 288.498 486.919 288.747 488.453C288.989 489.943 290.399 490.046 290.687 491.396C291.059 493.14 288.844 493.617 288.39 495.937C287.868 498.604 290.451 499.738 289.61 502.074C289.045 503.642 287.814 503.342 287.137 505.12C286.325 507.25 287.679 508.823 286.575 509.741C285.754 510.424 284.568 509.919 284.07 510.656C283.617 511.326 284.449 511.966 284.178 512.829C283.796 514.044 281.721 514.14 280.523 514.845C279.151 515.651 277.98 517.809 279.079 523.864C279.16 522.972 279.442 521.656 280.523 520.623C282.011 519.2 283.509 519.75 284.817 518.304C286.044 516.948 285.409 515.761 286.9 514.76C287.764 514.18 288.249 514.398 288.819 513.792C289.697 512.858 288.939 511.924 289.362 510.604C290.027 508.529 292.543 508.842 293.518 506.811C294.308 505.167 292.849 504.564 293.193 501.98C293.57 499.151 295.425 499.087 295.515 496.784C295.623 494.051 293.044 493.334 293.511 490.705C293.795 489.106 294.843 488.843 294.697 487.416C294.539 485.874 293.276 485.795 292.544 483.968C291.629 481.684 293.186 480.772 292.171 479.017C291.221 477.372 289.581 477.733 288.868 476.106C288.193 474.565 289.498 473.859 288.843 472.24C288.156 470.54 286.474 470.712 285.884 469.144C285.255 467.475 286.999 466.854 286.827 464.734C286.613 462.085 283.768 461.537 283.937 459.139C284.045 457.596 285.25 457.439 285.132 455.949C284.987 454.131 283.148 453.797 283.175 452.187C283.199 450.731 284.71 450.54 284.866 448.896C285.025 447.219 283.647 446.88 283.691 445.379C283.76 442.985 287.412 442.683 287.974 440C288.424 437.851 286.306 436.971 287.091 435.095C287.83 433.326 290.038 433.327 290.236 431.811C290.411 430.47 288.726 430.146 288.622 428.426C288.52 426.738 290.101 426.322 289.971 424.569C289.87 423.219 288.904 423.095 288.58 421.732C288.083 419.635 290.135 418.939 290.402 416.681C290.814 413.185 286.114 410.858 287.294 408.992C287.728 408.305 288.91 407.884 289.178 406.565C289.24 406.259 289.234 406.002 289.222 405.847L280.998 404.779L280.998 404.779Z" fill="#BD632F"/>
    <path d="M262.102 400.849C261.619 399.931 260.952 398.522 260.411 396.727C257.328 386.508 262.267 376.987 264.252 373.16C266.205 369.396 269.356 363.32 276.404 358.856C283.663 354.257 290.793 354.069 295.245 353.952C305.378 353.684 312.678 357.032 314.222 357.766C316.629 358.91 321.708 361.625 326.51 366.893C329.807 370.511 335.471 376.726 335.521 385.557C335.543 389.455 334.464 392.6 333.61 394.548C334.141 395.127 335.125 396.381 335.349 398.192C335.389 398.521 335.711 401.122 334.317 402.15C333.962 402.412 333.534 402.513 333.534 402.513C332.508 402.756 331.629 402.154 331.42 402.002C331.497 402.348 331.572 402.88 331.478 403.509C331.408 403.98 331.075 405.634 329.529 406.447C328.356 407.063 327.167 406.762 326.378 406.567C325.414 406.328 324.705 405.896 324.283 405.593C323.974 406.112 323.52 406.799 322.887 407.541C322.202 408.343 321.695 408.938 320.815 409.442C320.471 409.64 319.628 410.112 318.484 410.197C317.847 410.245 317.221 410.165 315.331 409.469C314.43 409.136 313.227 408.659 311.828 408.001C311.263 408.687 310.338 409.662 308.983 410.532C307.74 411.331 306.54 412.102 304.967 412.139C303.552 412.171 302.218 411.403 299.549 409.867C298.519 409.274 297.696 408.743 297.148 408.378C296.656 408.947 295.903 409.717 294.851 410.455C293.75 411.228 292.761 411.923 291.43 412.097C289.853 412.303 288.62 411.672 286.536 410.606C285.059 409.851 283.925 409.055 283.157 408.46C282.588 408.902 281.734 409.513 280.622 410.121C279.06 410.976 278.191 411.451 277.013 411.423C275.941 411.398 275.18 410.97 274.096 410.361C273.264 409.894 272.114 409.117 270.971 407.847C270.57 408.21 269.968 408.705 269.166 409.186C268.409 409.64 268.034 409.883 267.562 409.973C265.493 410.367 263.697 408.492 263.194 407.967C262.753 407.506 261.963 406.661 261.584 405.282C260.99 403.129 261.853 401.328 262.102 400.849H262.102Z" fill="#F38F56"/>
    <path d="M300.884 358.495C300.884 358.495 300.761 357.917 300.119 357.458C297.46 355.557 284.968 359.03 284.968 359.03C284.968 359.03 273.197 364.485 272.261 367.706C272.035 368.484 272.285 369.015 272.285 369.015C272.285 369.015 272.534 369.541 273.243 369.831C274.905 370.509 279.669 365.188 285.819 363.149C286.147 363.04 286.494 362.89 286.813 362.762C292.832 360.334 299.735 361.373 300.625 359.758C301.006 359.068 300.884 358.495 300.884 358.495H300.884Z" fill="#FCE4D6"/>
    <path d="M270.831 374.462C271.752 373.396 271.873 371.994 271.102 371.332C270.331 370.669 268.96 370.996 268.039 372.062C267.119 373.128 266.998 374.53 267.769 375.193C268.54 375.855 269.911 375.528 270.831 374.462Z" fill="#FCE4D6"/>
    <path d="M321.829 368.358C321.104 368.391 320.063 368.733 319.644 369.584C318.911 371.076 320.685 372.927 320.941 373.194C321.701 373.986 323.524 375.392 324.696 374.693C325.726 374.078 325.669 372.184 325.242 371.014C324.768 369.717 323.462 368.283 321.829 368.358H321.829Z" fill="#BD632F"/>
    <path d="M321.965 376.6C321.128 377.455 321.965 379.723 322.989 379.869C323.665 379.966 324.525 379.153 324.696 378.234C324.726 378.073 324.858 377.238 324.286 376.668C323.642 376.026 322.471 376.083 321.965 376.6V376.6Z" fill="#BD632F"/>
    <path d="M326.607 375.306C326.364 375.965 326.632 376.9 327.358 377.349C327.953 377.718 328.689 377.656 329.201 377.349C330.165 376.771 330.395 375.29 329.816 374.624C329.095 373.796 327.039 374.134 326.607 375.306Z" fill="#BD632F"/>
    <path d="M325.31 380.687C324.831 380.948 324.867 381.862 324.9 382.73C324.931 383.53 324.966 384.411 325.515 385.318C325.972 386.073 327.182 387.502 328.314 387.157C329.223 386.88 329.663 385.585 329.611 384.637C329.538 383.316 328.501 382.492 327.426 381.64C326.745 381.1 325.852 380.391 325.31 380.687H325.31Z" fill="#BD632F"/>
    <path d="M330.089 379.665C329.95 379.98 329.942 380.47 330.225 380.755C330.603 381.135 331.275 380.925 331.386 380.891C332.296 380.607 332.952 379.477 332.683 379.052C332.359 378.54 330.495 378.739 330.089 379.665Z" fill="#BD632F"/>
    <path d="M331.727 384.705C331.368 385.516 331.076 386.175 331.01 387.123C330.963 387.809 330.988 389.309 331.488 389.439C331.973 389.565 332.665 388.337 333.195 387.396C333.987 385.988 334.703 384.717 334.185 383.718C333.96 383.285 333.479 382.853 333.024 382.9C332.503 382.955 332.208 383.619 331.727 384.705H331.727Z" fill="#BD632F"/>
    <path d="M327.597 389.354C326.85 389.621 326.064 390.367 326.215 390.938C326.376 391.548 327.561 391.78 328.416 391.602C329.336 391.411 330.315 390.655 330.208 390.069C330.092 389.429 328.672 388.97 327.597 389.354Z" fill="#BD632F"/>
    <path d="M319.917 365.139C319.671 365.601 319.791 366.336 320.224 366.621C320.802 367.001 321.662 366.401 322.016 366.059C322.102 365.977 322.765 365.336 322.58 364.935C322.322 364.379 320.404 364.228 319.917 365.139H319.917Z" fill="#BD632F"/>
    <path d="M318.074 367.694C318.95 366.799 317.945 364.782 317.716 364.322C317.615 364.12 316.441 361.808 315.463 362.023C314.601 362.213 314.124 364.311 314.644 365.906C314.738 366.195 315.263 367.807 316.589 368.051C316.684 368.069 317.561 368.218 318.074 367.694L318.074 367.694Z" fill="#BD632F"/>
    <path d="M315.685 369.924C315.494 370.216 315.548 370.656 315.753 370.946C316.078 371.408 316.773 371.481 317.255 371.219C317.696 370.978 318.014 370.426 317.869 370.061C317.631 369.457 316.102 369.284 315.685 369.924H315.685Z" fill="#BD632F"/>
    <path d="M328.979 394.786C328.836 395.443 329.162 396.148 329.696 396.421C330.611 396.89 332.039 396.042 332.051 395.025C332.059 394.391 331.517 393.729 330.788 393.594C329.975 393.444 329.153 393.991 328.979 394.786Z" fill="#BD632F"/>
    <path d="M322.153 383.156C321.879 383.536 321.725 384.225 322.085 384.518C322.437 384.805 323.155 384.61 323.416 384.143C323.726 383.589 323.316 382.779 322.87 382.713C322.51 382.66 322.195 383.098 322.153 383.156L322.153 383.156Z" fill="#BD632F"/>
    <path d="M326.061 393.697C325.401 393.451 324.513 394.292 324.115 394.82C323.607 395.497 323.52 396.173 323.399 397.221C323.242 398.577 323.119 399.641 323.706 400.031C324.252 400.395 325.179 400.019 325.703 399.623C326.97 398.662 326.874 396.819 326.829 395.944C326.788 395.155 326.725 393.944 326.061 393.697Z" fill="#BD632F"/>
    <path d="M264.349 383.207C263.433 384.161 262.238 386.053 262.916 386.953C263.439 387.647 264.943 387.574 265.92 387.021C267.971 385.86 268.22 382.292 267.285 381.708C266.569 381.261 265.037 382.491 264.349 383.207L264.349 383.207Z" fill="#BD632F"/>
    <path d="M263.667 378.439C262.73 379.124 262.651 380.838 263.257 381.232C263.858 381.621 265.333 380.844 265.647 379.733C265.663 379.673 265.909 378.754 265.373 378.303C264.899 377.903 264.107 378.117 263.667 378.439H263.667Z" fill="#BD632F"/>
    <path d="M261.482 390.563C261.536 392.259 261.562 393.106 261.96 394.105C262.633 395.795 264.307 397.777 265.373 397.443C266.342 397.139 266.665 394.972 266.329 393.424C266.054 392.154 265.35 391.37 264.076 389.95C263.26 389.04 262.342 388.017 261.824 388.247C261.423 388.425 261.442 389.269 261.482 390.563Z" fill="#BD632F"/>
    <path d="M267.967 389.133C267.857 389.834 267.925 390.862 268.309 390.972C268.746 391.097 269.558 390.022 269.811 388.929C270.005 388.087 269.939 386.934 269.538 386.817C269.081 386.684 268.164 387.886 267.967 389.133V389.133Z" fill="#BD632F"/>
    <path d="M264.623 400.508C264.464 401.295 264.31 403.366 265.51 403.982C266.625 404.554 268.418 403.617 268.992 402.211C269.54 400.866 268.759 399.617 268.718 399.554C268.253 398.836 267.259 398.021 266.329 398.26C265.75 398.409 265.381 398.919 265.169 399.214C265.067 399.354 264.765 399.798 264.623 400.508Z" fill="#BD632F"/>
    <path d="M268.889 394.991C268.514 395.291 267.627 396 267.831 396.694C268 397.27 268.829 397.523 269.401 397.511C270.312 397.493 271.124 396.793 271.347 395.944C271.474 395.46 271.487 394.629 271.005 394.31C270.314 393.851 269.133 394.796 268.889 394.991L268.889 394.991Z" fill="#BD632F"/>
    <path d="M270.152 404.356C270.382 404.694 270.849 404.873 271.244 404.799C271.98 404.662 272.507 403.645 272.166 402.926C271.853 402.267 270.882 402.003 270.459 402.313C270.295 402.433 270.248 402.62 270.152 402.994C270.012 403.542 269.898 403.985 270.152 404.357V404.356Z" fill="#BD632F"/>
    <path d="M683.19 149.525C684.994 155.327 685.257 159.999 685.178 163.146C684.89 174.551 679.711 181.687 680.722 193.138C680.977 196.015 681.568 198.967 681.568 198.967C682.61 203.055 684.291 205.341 685.286 210.7C686.876 219.263 686.056 232.123 673.777 249.678C686.825 232.129 687.941 219.192 686.492 210.571C685.615 205.352 684.029 203.085 683.069 199.055C683.069 199.055 682.526 196.117 682.311 193.263C682.011 189.266 687.086 173.42 687.502 163.019C687.627 159.892 687.424 155.275 685.698 149.535C685.177 149.541 684.649 149.542 684.112 149.538C683.802 149.536 683.495 149.531 683.19 149.525V149.525Z" fill="#BD632F"/>
    <path d="M704.09 147.813C704.084 151.413 704.37 157.121 706.128 163.783C711.123 182.716 722.429 188.587 727.446 199.599C732.308 210.271 731.817 228.599 706.357 261.995C733.499 228.065 734.452 209.654 729.624 199.008C724.763 188.288 713.915 182.531 708.735 163.783C706.816 156.836 706.459 150.865 706.433 147.083L704.09 147.813V147.813Z" fill="#BD632F"/>
    <path d="M652.937 144.724C658.52 169.954 653.43 184.985 647.225 194.226C640.286 204.558 629.393 211.435 626.218 226.775C624.661 234.301 625.561 240.869 626.58 245.274C626.086 241.085 625.815 234.598 627.788 227.169C631.895 211.702 642.498 204.967 649.398 195.07C655.575 186.211 661.115 171.524 656.434 146.435L652.937 144.724Z" fill="#F38F56"/>
    <path d="M661.992 148.262C662.374 153.655 662.644 161.627 661.847 171.252C660.277 190.225 659.249 203.197 650.404 214.739C643.722 223.459 638.035 224.298 634.785 233.291C632.041 240.884 633.234 248.2 634.699 253.243C633.577 248.296 632.821 241.124 635.78 233.75C639.472 224.548 645.407 223.86 652.326 215.28C661.2 204.275 662.36 191.678 664.348 171.414C665.273 161.986 665.21 154.168 664.991 148.882L661.992 148.262H661.992Z" fill="#BD632F"/>
    <path d="M712.668 144.18C712.787 147.811 713.344 153.481 715.746 159.788C722.485 177.485 735.444 178.092 741.542 191.888C748.44 207.492 742.447 229.635 729.817 239.191C720.949 245.901 709.641 245.816 709.592 245.621C709.544 245.428 720.494 245.266 728.812 238.473C740.123 229.236 745.906 208.172 739.281 192.563C733.3 178.471 719.934 177.735 713.178 159.563C711.08 153.923 710.459 148.942 710.244 145.834C710.514 145.709 710.799 145.56 711.094 145.383C711.742 144.993 712.262 144.567 712.668 144.18V144.18Z" fill="#F38F56"/>
    <path d="M696.368 149.435C699.407 158.565 699.912 166.211 699.598 172.063C699.055 182.184 696.124 185.317 697.979 191.998C700.386 200.666 706.888 201.463 710.607 209.061C713.276 214.515 714.479 223.409 707.854 238.457C715.552 223.397 714.731 214.452 712.306 208.977C708.983 201.474 702.661 200.519 700.246 191.66C698.46 185.108 701.036 182.137 701.622 171.894C701.929 166.519 701.723 158.659 699.051 148.872C698.615 148.978 698.167 149.079 697.705 149.176C697.25 149.272 696.804 149.358 696.368 149.435H696.368Z" fill="#F38F56"/>
    <path d="M650.548 249.484C661.847 242.703 665.812 235.877 667.347 230.9C670.678 220.1 663.534 214.853 666.393 201.166C668.398 191.566 672.793 190.696 676.319 180.555C678.749 173.569 680.373 163.442 676.768 149.72L680.233 149.94C684.171 164.531 682.099 174.768 679.501 181.4C675.617 191.316 670.926 192.011 668.556 201.561C665.188 215.131 672.609 220.687 668.938 231.351C667.259 236.228 662.964 243.03 650.548 249.484Z" fill="#F38F56"/>
    <path d="M686.987 150.442C686.927 150.753 686.878 151.242 687.052 151.787C687.505 153.209 688.998 153.323 689.704 154.455C690.708 156.064 688.929 157.014 689.435 159.45C689.959 161.974 692.114 162.128 692.11 164.279C692.107 166.129 690.512 166.767 691.04 168.175C691.532 169.488 693.252 169.824 693.096 170.71C692.972 171.409 691.855 171.446 691.721 172.203C691.569 173.06 692.927 173.441 692.914 174.344C692.897 175.447 690.86 175.527 690.465 176.792C689.966 178.39 692.769 179.695 692.174 181.298C691.846 182.184 690.871 182.109 690.703 182.985C690.473 184.184 692.217 184.767 692.027 186.009C691.886 186.939 690.858 186.931 690.502 188.053C690.161 189.126 690.97 189.548 691.054 190.931C691.167 192.797 689.75 192.963 689.734 194.71C689.716 196.734 691.615 197.09 691.423 199.133C691.308 200.355 690.578 200.771 690.891 201.798C691.188 202.776 691.959 202.765 692.46 203.689C693.343 205.32 691.492 206.371 692.088 208.099C692.715 209.919 695.07 209.631 695.751 211.644C696.205 212.984 695.35 213.671 696.113 214.734C696.83 215.731 697.816 215.452 698.358 216.4C699.006 217.531 697.842 218.346 698.524 219.487C699.059 220.382 700.005 220.268 700.272 221.125C700.495 221.844 699.891 222.126 699.837 223.034C699.757 224.386 701.044 224.69 701.484 226.165C701.957 227.752 700.665 228.06 700.761 230.17C700.86 232.335 702.249 232.629 701.878 234.276C701.584 235.576 700.584 235.995 700.809 237.137C700.97 237.954 701.539 238.028 701.688 238.822C701.905 239.982 700.86 240.724 700.458 241.629C700.014 242.631 700.137 244.334 702.929 247.367C702.214 245.768 702.328 244.67 702.714 243.901C703.076 243.177 703.464 243.173 703.835 242.372C704.411 241.127 703.695 240.659 704.034 238.995C704.32 237.591 704.902 237.563 704.898 236.478C704.894 235.305 704.212 235.129 703.992 233.933C703.675 232.209 704.97 231.912 704.907 230.106C704.84 228.171 703.334 227.949 703.408 226.034C703.467 224.531 704.411 224.25 704.108 223.074C703.784 221.814 702.61 221.787 702.311 220.493C702.027 219.262 702.999 218.897 702.646 217.825C702.256 216.64 700.968 216.777 700.359 215.43C699.896 214.406 700.521 214.066 700.075 213.017C699.524 211.723 698.42 211.886 697.612 210.702C696.533 209.12 698.056 208.174 697.129 206.206C696.328 204.504 694.803 204.391 694.778 203.001C694.762 202.069 695.441 201.84 695.37 200.757C695.299 199.666 694.587 199.529 694.296 198.505C693.782 196.698 695.691 196.026 695.372 194.169C695.086 192.504 693.389 192.103 693.683 190.872C693.906 189.94 694.939 189.924 695.173 188.879C695.41 187.816 694.419 187.489 694.567 186.359C694.727 185.133 695.955 185.045 696.161 183.824C696.364 182.615 695.22 182.348 695.247 181.063C695.283 179.38 697.261 179.127 697.314 177.522C697.364 176.023 695.661 175.595 695.929 174.077C696.09 173.167 696.774 172.909 696.668 172.019C696.573 171.223 695.988 171.129 695.696 170.354C695.187 169.001 696.601 168.316 696.562 166.71C696.523 165.13 695.135 165.068 694.622 163.205C694.074 161.212 695.53 160.81 695.277 158.564C694.985 155.98 692.967 155.725 693.174 153.488C693.247 152.711 694.039 151.684 693.66 150.269C693.619 150.114 693.574 149.99 693.543 149.908L686.987 150.442L686.987 150.442Z" fill="#BD632F"/>
    <path d="M667.092 149.31C666.927 149.675 666.723 150.248 666.712 150.953C666.686 152.638 667.822 153.419 668.345 154.723C669.346 157.22 667.017 157.999 667.567 160.775C668.189 163.912 671.566 164.949 670.924 166.911C670.53 168.117 669.107 168.19 669.019 169.379C668.913 170.823 671.005 171.513 670.71 172.617C670.434 173.648 668.496 173.477 668.028 174.608C667.532 175.803 669.47 176.551 669.556 178.226C669.678 180.61 665.851 181.063 665.249 184.014C664.806 186.184 666.715 186.725 666.198 189.426C665.831 191.344 664.763 191.622 664.897 193.216C665.059 195.129 666.658 195.446 666.53 196.986C666.385 198.732 664.266 199.096 664.29 200.678C664.31 201.99 665.774 202.075 666.496 203.638C667.758 206.37 664.334 208.378 665.46 210.957C666.321 212.927 668.722 212.67 669.253 214.749C669.657 216.333 668.38 216.937 668.911 218.459C669.502 220.153 671.262 219.917 672.085 221.627C673.035 223.6 671.112 224.783 672.071 226.599C673.005 228.367 675.294 228.106 675.679 229.679C675.99 230.947 674.592 231.45 674.841 232.984C675.082 234.473 676.492 234.577 676.78 235.927C677.153 237.67 674.938 238.148 674.484 240.468C673.962 243.135 676.544 244.269 675.703 246.605C675.139 248.173 673.907 247.873 673.23 249.651C672.418 251.781 673.772 253.354 672.668 254.272C671.847 254.955 670.661 254.45 670.163 255.187C669.711 255.857 670.543 256.496 670.271 257.36C669.889 258.575 667.815 258.671 666.616 259.376C665.244 260.182 664.073 262.34 665.173 268.395C665.253 267.503 665.536 266.187 666.616 265.154C668.104 263.731 669.602 264.281 670.91 262.835C672.138 261.479 671.503 260.291 672.993 259.291C673.857 258.711 674.342 258.929 674.912 258.323C675.79 257.389 675.032 256.455 675.455 255.135C676.12 253.06 678.636 253.373 679.611 251.342C680.401 249.698 678.942 249.095 679.286 246.511C679.663 243.682 681.518 243.618 681.609 241.315C681.716 238.582 679.138 237.865 679.605 235.236C679.889 233.637 680.937 233.374 680.79 231.947C680.632 230.405 679.369 230.326 678.637 228.499C677.722 226.215 679.279 225.303 678.265 223.548C677.314 221.903 675.675 222.264 674.962 220.637C674.286 219.096 675.591 218.39 674.936 216.771C674.249 215.071 672.568 215.243 671.977 213.675C671.349 212.006 673.092 211.385 672.921 209.265C672.706 206.616 669.862 206.068 670.03 203.67C670.139 202.127 671.344 201.97 671.225 200.48C671.08 198.662 669.242 198.328 669.268 196.718C669.292 195.262 670.804 195.07 670.959 193.426C671.118 191.75 669.741 191.41 669.784 189.91C669.853 187.516 673.505 187.214 674.067 184.531C674.517 182.382 672.399 181.501 673.184 179.625C673.924 177.857 676.132 177.858 676.33 176.342C676.505 175.001 674.82 174.677 674.716 172.957C674.614 171.269 676.194 170.853 676.064 169.1C675.964 167.749 674.997 167.626 674.674 166.263C674.176 164.166 676.229 163.47 676.495 161.212C676.907 157.716 672.207 155.389 673.387 153.523C673.822 152.836 675.003 152.415 675.271 151.096C675.333 150.79 675.327 150.533 675.316 150.378L667.092 149.31L667.092 149.31Z" fill="#BD632F"/>
    <path d="M648.195 145.379C647.712 144.462 647.046 143.053 646.504 141.258C643.422 131.039 648.36 121.518 650.346 117.691C652.298 113.927 655.45 107.851 662.497 103.387C669.756 98.7878 676.886 98.5998 681.338 98.4825C691.471 98.2154 698.771 101.563 700.316 102.297C702.723 103.441 707.801 106.156 712.603 111.424C715.9 115.042 721.565 121.257 721.614 130.088C721.636 133.986 720.557 137.131 719.703 139.079C720.234 139.658 721.218 140.912 721.442 142.723C721.483 143.052 721.804 145.653 720.411 146.681C720.056 146.943 719.628 147.044 719.628 147.044C718.602 147.287 717.722 146.685 717.513 146.533C717.591 146.879 717.666 147.411 717.572 148.04C717.502 148.511 717.169 150.165 715.622 150.978C714.449 151.594 713.26 151.293 712.471 151.098C711.507 150.859 710.799 150.427 710.377 150.123C710.068 150.643 709.614 151.33 708.98 152.072C708.295 152.874 707.788 153.469 706.909 153.973C706.564 154.171 705.722 154.642 704.577 154.728C703.94 154.776 703.315 154.696 701.425 154C700.523 153.667 699.32 153.19 697.921 152.532C697.356 153.218 696.432 154.193 695.077 155.063C693.833 155.862 692.633 156.633 691.061 156.67C689.646 156.702 688.311 155.934 685.642 154.398C684.612 153.805 683.789 153.274 683.241 152.909C682.749 153.478 681.996 154.248 680.945 154.986C679.843 155.759 678.855 156.454 677.523 156.628C675.946 156.834 674.713 156.203 672.629 155.137C671.153 154.381 670.019 153.586 669.25 152.991C668.681 153.433 667.827 154.044 666.716 154.652C665.153 155.506 664.284 155.982 663.106 155.954C662.035 155.929 661.273 155.501 660.189 154.892C659.358 154.425 658.207 153.648 657.065 152.378C656.664 152.741 656.061 153.236 655.26 153.716C654.503 154.171 654.127 154.414 653.655 154.504C651.586 154.898 649.79 153.022 649.288 152.497C648.847 152.037 648.057 151.192 647.677 149.813C647.084 147.66 647.947 145.858 648.195 145.379H648.195Z" fill="#F38F56"/>
    <path d="M686.977 103.026C686.977 103.026 686.855 102.448 686.213 101.989C683.554 100.088 671.061 103.561 671.061 103.561C671.061 103.561 659.29 109.016 658.355 112.237C658.129 113.015 658.379 113.546 658.379 113.546C658.379 113.546 658.627 114.072 659.337 114.362C660.999 115.04 665.763 109.719 671.912 107.68C672.24 107.571 672.588 107.421 672.906 107.293C678.925 104.865 685.828 105.904 686.719 104.289C687.099 103.599 686.977 103.026 686.977 103.026H686.977Z" fill="#FCE4D6"/>
    <path d="M656.925 118.993C657.845 117.927 657.966 116.525 657.195 115.863C656.424 115.2 655.053 115.527 654.133 116.593C653.212 117.659 653.091 119.061 653.862 119.723C654.633 120.386 656.004 120.059 656.925 118.993Z" fill="#FCE4D6"/>
    <path d="M707.922 112.889C707.198 112.922 706.156 113.264 705.738 114.115C705.004 115.607 706.778 117.458 707.035 117.725C707.794 118.517 709.618 119.922 710.789 119.223C711.819 118.609 711.763 116.715 711.335 115.545C710.861 114.248 709.555 112.814 707.922 112.889H707.922Z" fill="#BD632F"/>
    <path d="M708.059 121.131C707.221 121.986 708.058 124.254 709.083 124.4C709.758 124.497 710.619 123.684 710.789 122.765C710.819 122.604 710.952 121.769 710.38 121.199C709.735 120.557 708.564 120.614 708.059 121.131V121.131Z" fill="#BD632F"/>
    <path d="M712.701 119.836C712.458 120.496 712.726 121.431 713.452 121.88C714.047 122.248 714.783 122.187 715.295 121.88C716.258 121.302 716.488 119.821 715.909 119.155C715.188 118.327 713.132 118.665 712.701 119.836Z" fill="#BD632F"/>
    <path d="M711.403 125.218C710.925 125.479 710.96 126.393 710.994 127.261C711.025 128.061 711.059 128.942 711.608 129.849C712.065 130.604 713.276 132.033 714.407 131.688C715.317 131.411 715.756 130.115 715.704 129.168C715.632 127.847 714.594 127.023 713.52 126.171C712.838 125.631 711.945 124.922 711.403 125.218H711.403Z" fill="#BD632F"/>
    <path d="M716.182 124.196C716.044 124.511 716.035 125.001 716.319 125.286C716.696 125.666 717.368 125.456 717.479 125.422C718.39 125.138 719.045 124.008 718.776 123.583C718.452 123.071 716.588 123.27 716.182 124.196Z" fill="#BD632F"/>
    <path d="M717.82 129.236C717.461 130.047 717.169 130.706 717.104 131.654C717.056 132.34 717.082 133.84 717.581 133.97C718.067 134.096 718.758 132.868 719.288 131.927C720.08 130.519 720.796 129.248 720.278 128.249C720.054 127.816 719.572 127.384 719.117 127.431C718.596 127.486 718.302 128.15 717.82 129.236H717.82Z" fill="#BD632F"/>
    <path d="M713.69 133.885C712.943 134.152 712.157 134.898 712.308 135.469C712.469 136.079 713.655 136.31 714.51 136.133C715.43 135.942 716.408 135.186 716.302 134.6C716.185 133.96 714.766 133.501 713.69 133.885Z" fill="#BD632F"/>
    <path d="M706.011 109.67C705.764 110.132 705.884 110.867 706.318 111.152C706.895 111.532 707.755 110.932 708.11 110.59C708.195 110.508 708.858 109.867 708.673 109.466C708.416 108.909 706.497 108.759 706.011 109.67H706.011Z" fill="#BD632F"/>
    <path d="M704.167 112.225C705.043 111.33 704.038 109.312 703.809 108.853C703.708 108.651 702.534 106.339 701.556 106.554C700.695 106.744 700.217 108.842 700.737 110.437C700.831 110.726 701.356 112.338 702.682 112.582C702.777 112.6 703.654 112.749 704.167 112.225L704.167 112.225Z" fill="#BD632F"/>
    <path d="M701.778 114.455C701.588 114.747 701.642 115.186 701.846 115.477C702.171 115.939 702.866 116.012 703.348 115.75C703.79 115.509 704.107 114.957 703.963 114.592C703.724 113.988 702.196 113.815 701.778 114.455H701.778Z" fill="#BD632F"/>
    <path d="M715.073 139.317C714.929 139.974 715.255 140.679 715.789 140.952C716.705 141.421 718.133 140.573 718.145 139.556C718.152 138.922 717.61 138.26 716.882 138.125C716.068 137.975 715.246 138.522 715.073 139.317Z" fill="#BD632F"/>
    <path d="M708.246 127.687C707.972 128.067 707.818 128.756 708.178 129.049C708.531 129.336 709.249 129.141 709.509 128.674C709.819 128.12 709.41 127.31 708.963 127.244C708.604 127.191 708.288 127.629 708.246 127.687L708.246 127.687Z" fill="#BD632F"/>
    <path d="M712.154 138.227C711.495 137.982 710.606 138.823 710.209 139.351C709.7 140.028 709.613 140.704 709.492 141.752C709.335 143.108 709.212 144.172 709.799 144.562C710.346 144.926 711.273 144.55 711.796 144.153C713.064 143.193 712.968 141.35 712.922 140.475C712.881 139.686 712.818 138.475 712.154 138.227Z" fill="#BD632F"/>
    <path d="M650.443 127.738C649.526 128.692 648.331 130.584 649.009 131.484C649.532 132.178 651.036 132.105 652.013 131.552C654.065 130.391 654.313 126.823 653.378 126.239C652.662 125.792 651.131 127.022 650.443 127.738L650.443 127.738Z" fill="#BD632F"/>
    <path d="M649.76 122.97C648.824 123.654 648.744 125.369 649.351 125.762C649.951 126.152 651.426 125.375 651.74 124.264C651.757 124.204 652.003 123.285 651.467 122.834C650.993 122.434 650.2 122.648 649.76 122.97H649.76Z" fill="#BD632F"/>
    <path d="M647.576 135.094C647.629 136.789 647.656 137.637 648.054 138.636C648.726 140.326 650.4 142.308 651.467 141.974C652.435 141.67 652.758 139.503 652.423 137.955C652.147 136.685 651.444 135.901 650.17 134.481C649.353 133.571 648.436 132.548 647.917 132.778C647.517 132.956 647.535 133.8 647.576 135.094Z" fill="#BD632F"/>
    <path d="M654.061 133.664C653.951 134.365 654.019 135.393 654.402 135.503C654.839 135.628 655.651 134.553 655.904 133.459C656.099 132.618 656.032 131.465 655.631 131.348C655.174 131.215 654.257 132.417 654.061 133.664V133.664Z" fill="#BD632F"/>
    <path d="M650.716 145.039C650.558 145.826 650.404 147.897 651.603 148.513C652.718 149.085 654.511 148.148 655.085 146.742C655.633 145.397 654.853 144.148 654.812 144.085C654.346 143.367 653.353 142.552 652.423 142.791C651.843 142.94 651.475 143.45 651.262 143.745C651.161 143.885 650.859 144.329 650.716 145.039Z" fill="#BD632F"/>
    <path d="M654.982 139.522C654.607 139.821 653.721 140.531 653.924 141.224C654.093 141.801 654.922 142.053 655.494 142.042C656.405 142.023 657.217 141.323 657.44 140.475C657.567 139.991 657.58 139.16 657.099 138.84C656.408 138.382 655.226 139.327 654.982 139.522L654.982 139.522Z" fill="#BD632F"/>
    <path d="M656.245 148.887C656.476 149.225 656.942 149.404 657.337 149.33C658.073 149.193 658.6 148.176 658.259 147.457C657.947 146.798 656.975 146.534 656.552 146.844C656.389 146.964 656.341 147.151 656.245 147.525C656.105 148.073 655.992 148.516 656.245 148.887V148.887Z" fill="#BD632F"/>
</svg>
