<?xml version="1.0" encoding="UTF-8" standalone="no"?>
<svg width="870" height="540" viewBox="0 0 870 540" fill="none" xmlns="http://www.w3.org/2000/svg">
<rect x="3" y="3" width="864" height="533.4" rx="77" fill="white" stroke="#844EA5" stroke-width="6"/>
<path d="M199.782 284.145L211.857 321.308H250.931L219.319 344.275L231.394 381.438L199.782 358.47L168.17 381.438L180.244 344.275L148.632 321.308H187.707L199.782 284.145Z" fill="#164E82"/>
<path d="M362.782 148L374.857 185.162H413.931L382.319 208.13L394.394 245.292L362.782 222.325L331.17 245.292L343.244 208.13L311.632 185.162H350.707L362.782 148Z" fill="#164E82"/>
<path d="M363.682 284L375.757 321.162H414.831L383.219 344.13L395.294 381.292L363.682 358.325L332.07 381.292L344.144 344.13L312.532 321.162H351.607L363.682 284Z" fill="#164E82"/>
<path d="M199.782 148L211.857 185.162H250.931L219.319 208.13L231.394 245.292L199.782 222.325L168.17 245.292L180.244 208.13L148.632 185.162H187.707L199.782 148Z" fill="#164E82"/>
<circle cx="645.773" cy="337.873" r="45.8727" fill="#F2A74E"/>
<circle cx="645.873" cy="204.873" r="45.8727" fill="#F2A74E"/>
</svg>
