<svg width="870" height="540" viewBox="0 0 870 540" fill="none" xmlns="http://www.w3.org/2000/svg">
<rect x="2.5" y="2.5" width="865" height="534.4" rx="77.5" fill="#F3F3F3" stroke="#83C1CA" stroke-width="5"/>
<path d="M720.62 211C718.985 211 717.574 212.406 717.574 214.034C717.574 214.551 717.722 215.069 717.945 215.439C716.682 217.215 715.122 219.509 713.636 222.394C708.955 230.755 708.807 239.486 709.55 237.34C711.333 232.161 712.967 228.609 713.487 227.722C715.419 223.43 717.276 220.767 717.574 220.101C718.317 218.843 718.985 217.807 719.728 216.919C720.1 216.919 720.248 217.067 720.62 217.067C722.254 217.067 723.666 215.661 723.666 214.034C723.666 212.258 722.477 211 720.62 211Z" fill="#331A00"/>
<path d="M690.455 214.034C690.455 215.661 691.867 217.067 693.501 217.067C693.873 217.067 694.021 216.919 694.393 216.919C695.136 217.807 695.804 218.843 696.547 220.101C696.919 220.841 698.702 223.504 700.634 227.722C701.154 228.609 702.788 232.161 704.572 237.34C705.315 239.486 710.813 251.028 708.881 244.073C707.098 238.006 705.092 230.755 700.485 222.394C699.074 219.583 697.439 217.215 696.176 215.439C696.325 215.069 696.547 214.551 696.547 214.034C696.547 212.406 695.136 211 693.501 211C691.718 211 690.455 212.258 690.455 214.034Z" fill="#331A00"/>
<path d="M702.566 302.229C703.977 304.153 705.463 306.002 706.875 307.926C708.286 306.076 709.624 304.227 711.035 302.303C708.212 302.303 705.389 302.303 702.566 302.229Z" fill="#331A00"/>
<path d="M691.867 250.288C691.644 247.551 691.644 243.037 693.873 238.154C695.21 235.268 697.588 230.089 703.16 228.166C707.915 226.538 712.076 228.313 712.819 228.609C718.911 231.199 720.768 237.414 721.511 239.856C722.923 244.443 722.403 248.513 721.883 250.732C711.853 250.658 701.823 250.51 691.867 250.288Z" fill="#331A00"/>
<path d="M684.957 272.115C684.66 275.815 684.066 281.882 686.74 288.763C688.078 292.166 690.084 297.272 695.285 300.379C698.776 302.451 702.194 302.673 704.869 302.895C707.841 303.117 711.927 303.413 716.088 301.489C722.031 298.677 724.558 292.906 726.192 289.059C728.644 283.362 728.793 278.33 728.867 275.297C729.015 267.602 727.009 261.831 725.969 258.871C724.112 253.618 721.66 249.622 719.728 246.959C711.778 247.033 703.829 247.107 695.879 247.181C693.873 249.326 691.198 252.656 688.969 257.243C688.078 259.241 685.626 264.642 684.957 272.115Z" fill="#E5A000"/>
<path d="M719.06 262.127H694.542V268.786H719.06V262.127Z" fill="#331A00"/>
<path d="M728.941 274.927H685.477V281.586H728.941V274.927Z" fill="#331A00"/>
<path d="M718.837 249.622H694.319V256.281H718.837V249.622Z" fill="#331A00"/>
<path d="M707.023 239.93C700.56 242.371 695.433 244.887 691.718 246.811C685.477 250.14 682.654 252.212 681.391 253.174C678.196 255.69 674.927 258.205 672.475 262.719C671.212 265.012 669.801 267.528 670.023 271.005C670.321 275.593 673.218 278.626 673.961 279.44C674.556 280.032 678.865 284.249 684.437 283.658C685.774 283.51 688.821 282.918 693.873 277.442C705.612 264.716 706.801 249.326 706.949 247.033C707.246 243.999 707.172 241.484 707.023 239.93Z" fill="#ACCAEB"/>
<path d="M707.023 239.93C713.487 242.371 718.614 244.887 722.329 246.811C728.644 250.14 731.467 252.212 732.656 253.174C735.851 255.69 739.12 258.205 741.571 262.719C742.835 265.012 744.172 267.528 744.023 271.079C743.726 275.667 740.829 278.7 740.086 279.514C739.491 280.106 735.256 284.323 729.61 283.731C728.272 283.584 725.226 282.992 719.951 277.368C716.756 273.965 707.023 263.236 706.652 246.959C706.503 243.925 706.8 241.484 707.023 239.93Z" fill="#ACCAEB"/>
<path d="M686.294 287.431C686.443 287.875 686.592 288.319 686.74 288.689C687.335 290.243 688.078 292.166 689.192 294.09H723.666C724.706 292.314 725.523 290.539 726.118 288.985C726.341 288.467 726.564 287.949 726.712 287.431H686.294Z" fill="#331A00"/>
<path d="M694.319 299.713C694.616 299.935 694.987 300.157 695.284 300.379C698.776 302.525 702.194 302.747 704.869 302.969C707.841 303.191 711.927 303.561 716.088 301.489C717.128 300.971 718.094 300.379 718.911 299.713H694.319Z" fill="#331A00"/>
<path d="M593.62 211C591.985 211 590.574 212.406 590.574 214.034C590.574 214.551 590.722 215.069 590.945 215.439C589.682 217.215 588.122 219.509 586.636 222.394C581.955 230.755 581.807 239.486 582.55 237.34C584.333 232.161 585.967 228.609 586.487 227.722C588.419 223.43 590.276 220.767 590.574 220.101C591.317 218.843 591.985 217.807 592.728 216.919C593.1 216.919 593.248 217.067 593.62 217.067C595.254 217.067 596.666 215.661 596.666 214.034C596.666 212.258 595.477 211 593.62 211Z" fill="#331A00"/>
<path d="M563.455 214.034C563.455 215.661 564.867 217.067 566.501 217.067C566.873 217.067 567.021 216.919 567.393 216.919C568.136 217.807 568.804 218.843 569.547 220.101C569.919 220.841 571.702 223.504 573.634 227.722C574.154 228.609 575.788 232.161 577.572 237.34C578.315 239.486 583.813 251.028 581.881 244.073C580.098 238.006 578.092 230.755 573.485 222.394C572.074 219.583 570.439 217.215 569.176 215.439C569.325 215.069 569.547 214.551 569.547 214.034C569.547 212.406 568.136 211 566.501 211C564.718 211 563.455 212.258 563.455 214.034Z" fill="#331A00"/>
<path d="M575.566 302.229C576.977 304.153 578.463 306.002 579.875 307.926C581.286 306.076 582.624 304.227 584.035 302.303C581.212 302.303 578.389 302.303 575.566 302.229Z" fill="#331A00"/>
<path d="M564.867 250.288C564.644 247.551 564.644 243.037 566.873 238.154C568.21 235.268 570.588 230.089 576.16 228.166C580.915 226.538 585.076 228.313 585.819 228.609C591.911 231.199 593.768 237.414 594.511 239.856C595.923 244.443 595.403 248.513 594.883 250.732C584.853 250.658 574.823 250.51 564.867 250.288Z" fill="#331A00"/>
<path d="M557.957 272.115C557.66 275.815 557.066 281.882 559.74 288.763C561.078 292.166 563.084 297.272 568.285 300.379C571.776 302.451 575.194 302.673 577.869 302.895C580.841 303.117 584.927 303.413 589.088 301.489C595.031 298.677 597.558 292.906 599.192 289.059C601.644 283.362 601.793 278.33 601.867 275.297C602.015 267.602 600.009 261.831 598.969 258.871C597.112 253.618 594.66 249.622 592.728 246.959C584.778 247.033 576.829 247.107 568.879 247.181C566.873 249.326 564.198 252.656 561.969 257.243C561.078 259.241 558.626 264.642 557.957 272.115Z" fill="#E5A000"/>
<path d="M592.06 262.127H567.542V268.786H592.06V262.127Z" fill="#331A00"/>
<path d="M601.941 274.927H558.477V281.586H601.941V274.927Z" fill="#331A00"/>
<path d="M591.837 249.622H567.319V256.281H591.837V249.622Z" fill="#331A00"/>
<path d="M580.023 239.93C573.56 242.371 568.433 244.887 564.718 246.811C558.477 250.14 555.654 252.212 554.391 253.174C551.196 255.69 547.927 258.205 545.475 262.719C544.212 265.012 542.801 267.528 543.023 271.005C543.321 275.593 546.218 278.626 546.961 279.44C547.556 280.032 551.865 284.249 557.437 283.658C558.774 283.51 561.821 282.918 566.873 277.442C578.612 264.716 579.801 249.326 579.949 247.033C580.246 243.999 580.172 241.484 580.023 239.93Z" fill="#ACCAEB"/>
<path d="M580.023 239.93C586.487 242.371 591.614 244.887 595.329 246.811C601.644 250.14 604.467 252.212 605.656 253.174C608.851 255.69 612.12 258.205 614.571 262.719C615.835 265.012 617.172 267.528 617.023 271.079C616.726 275.667 613.829 278.7 613.086 279.514C612.491 280.106 608.256 284.323 602.61 283.731C601.272 283.584 598.226 282.992 592.951 277.368C589.756 273.965 580.023 263.236 579.652 246.959C579.503 243.925 579.8 241.484 580.023 239.93Z" fill="#ACCAEB"/>
<path d="M559.294 287.431C559.443 287.875 559.592 288.319 559.74 288.689C560.335 290.243 561.078 292.166 562.192 294.09H596.666C597.706 292.314 598.523 290.539 599.118 288.985C599.341 288.467 599.564 287.949 599.712 287.431H559.294Z" fill="#331A00"/>
<path d="M567.319 299.713C567.616 299.935 567.987 300.157 568.284 300.379C571.776 302.525 575.194 302.747 577.869 302.969C580.841 303.191 584.927 303.561 589.088 301.489C590.128 300.971 591.094 300.379 591.911 299.713H567.319Z" fill="#331A00"/>
<path d="M315.759 220.404C317.145 227.465 318.24 233.056 318.897 237.543C318.97 238.205 319.7 242.766 322.035 247.547C322.546 248.504 322.838 249.019 323.275 249.534C325.757 252.476 329.843 252.77 331.887 252.917C333.638 253.065 335.171 253.138 337.068 252.476C340.133 251.446 341.739 249.166 342.76 247.768C346.117 243.207 346.19 238.279 346.19 237.175C346.19 232.467 344.293 229.157 343.198 227.318C339.914 221.728 335.171 219.079 332.981 217.902C325.976 214.151 319.262 214.372 316.197 214.666C316.124 216.578 315.905 218.491 315.759 220.404Z" fill="#CB8C2E"/>
<path d="M314.81 211.208C316.78 206.721 320.283 200.542 326.413 194.952C329.624 192.009 335.9 186.345 345.533 184.579C348.015 184.138 354.291 183.108 361.442 185.683C362.902 186.198 364.069 186.786 364.872 187.228C364.945 187.375 365.018 187.595 365.018 187.89C365.237 189.876 363.413 191.641 362.975 192.009C359.91 195.025 359.472 204.073 353.05 214.666C348.015 223.052 342.614 224.964 341.155 225.553C340.644 225.7 338.965 226.362 336.703 226.656C335.098 226.877 326.486 227.76 320.064 221.728C318.897 220.624 317.072 218.638 315.759 215.401C315.394 214.004 315.102 212.606 314.81 211.208Z" fill="#B66710"/>
<path d="M313.059 220.624C311.672 227.686 310.577 233.277 309.921 237.764C309.848 238.426 309.118 242.987 306.783 247.768C306.272 248.724 305.98 249.239 305.542 249.754C303.061 252.697 298.974 252.991 296.931 253.138C295.179 253.285 293.647 253.359 291.749 252.697C288.684 251.667 287.079 249.386 286.057 247.989C282.7 243.428 282.627 238.499 282.627 237.396C282.627 232.688 284.525 229.378 285.619 227.539C288.903 221.948 293.647 219.3 295.836 218.123C302.842 214.372 309.556 214.592 312.621 214.886C312.767 216.725 312.913 218.638 313.059 220.624Z" fill="#CB8C2E"/>
<path d="M314.226 211.208C312.256 206.721 308.753 200.542 302.623 194.952C299.412 192.009 293.136 186.345 283.503 184.579C281.022 184.138 274.746 183.108 267.594 185.683C266.207 186.271 265.04 186.86 264.164 187.301C264.164 187.375 264.091 187.669 264.018 187.963C263.799 189.949 265.624 191.715 266.062 192.083C269.127 195.099 269.564 204.073 275.986 214.666C281.022 223.052 286.422 224.964 287.882 225.553C288.392 225.7 290.071 226.362 292.333 226.656C293.939 226.877 302.55 227.76 308.972 221.728C310.14 220.624 311.964 218.638 313.278 215.401C313.642 214.004 313.934 212.606 314.226 211.208Z" fill="#B66710"/>
<path d="M317.145 210.914C317.145 209.517 315.978 208.34 314.591 208.34H314.445C313.059 208.34 311.891 209.517 311.891 210.914V219.815C311.891 220.404 312.11 220.918 312.402 221.36V228.201C312.402 228.642 312.548 229.084 312.767 229.452V231.658C312.767 232.615 313.496 233.35 314.445 233.35C315.394 233.35 316.124 232.615 316.124 231.658V229.452C316.343 229.084 316.489 228.716 316.489 228.201V221.433C316.853 220.992 316.999 220.477 316.999 219.889V210.914H317.145Z" fill="#431605"/>
<path d="M322.692 184.727C322.035 184.727 321.451 185.315 321.451 185.977C321.451 186.198 321.524 186.418 321.597 186.566C321.086 187.301 320.429 188.257 319.846 189.434C317.948 192.892 317.145 195.908 316.416 198.409C315.613 201.278 315.248 203.485 315.175 204.294C314.956 205.912 314.81 207.457 314.737 207.898C314.664 208.781 314.591 209.443 314.591 210.031C314.81 210.031 315.102 210.031 315.321 210.105C315.394 209.296 315.467 208.266 315.613 207.015C315.905 204.147 316.416 202.013 316.562 201.278C317.145 198.556 317.875 196.496 318.167 195.614C318.897 193.48 319.554 192.009 319.773 191.641C320.575 189.876 321.305 188.772 321.451 188.478C321.743 187.963 322.035 187.522 322.327 187.154C322.473 187.154 322.546 187.228 322.692 187.228C323.348 187.228 323.932 186.639 323.932 185.977C323.932 185.241 323.421 184.727 322.692 184.727Z" fill="#431605"/>
<path d="M306.199 184.727C306.856 184.727 307.439 185.315 307.439 185.977C307.439 186.198 307.366 186.418 307.294 186.566C307.804 187.301 308.461 188.257 309.045 189.434C310.942 192.892 311.745 195.908 312.475 198.409C313.278 201.278 313.643 203.485 313.715 204.294C313.934 205.912 314.08 207.457 314.153 207.898C314.226 208.781 314.299 209.443 314.299 210.031C314.08 210.031 313.788 210.031 313.57 210.105C313.497 209.296 313.424 208.266 313.278 207.015C312.986 204.147 312.475 202.013 312.329 201.278C311.745 198.556 311.015 196.496 310.723 195.614C309.994 193.48 309.337 192.009 309.118 191.641C308.315 189.876 307.585 188.772 307.439 188.478C307.148 187.963 306.856 187.522 306.564 187.154C306.418 187.154 306.345 187.228 306.199 187.228C305.542 187.228 304.958 186.639 304.958 185.977C304.958 185.241 305.469 184.727 306.199 184.727Z" fill="#431605"/>
<path d="M187.759 220.404C189.145 227.465 190.24 233.056 190.897 237.543C190.97 238.205 191.7 242.766 194.035 247.547C194.546 248.504 194.838 249.019 195.275 249.534C197.757 252.476 201.843 252.77 203.887 252.917C205.638 253.065 207.171 253.138 209.068 252.476C212.133 251.446 213.739 249.166 214.76 247.768C218.117 243.207 218.19 238.279 218.19 237.175C218.19 232.467 216.293 229.157 215.198 227.318C211.914 221.728 207.171 219.079 204.981 217.902C197.976 214.151 191.262 214.372 188.197 214.666C188.124 216.578 187.905 218.491 187.759 220.404Z" fill="#CB8C2E"/>
<path d="M186.81 211.208C188.78 206.721 192.283 200.542 198.413 194.952C201.624 192.009 207.9 186.345 217.533 184.579C220.015 184.138 226.291 183.108 233.442 185.683C234.902 186.198 236.069 186.786 236.872 187.228C236.945 187.375 237.018 187.595 237.018 187.89C237.237 189.876 235.413 191.641 234.975 192.009C231.91 195.025 231.472 204.073 225.05 214.666C220.015 223.052 214.614 224.964 213.155 225.553C212.644 225.7 210.965 226.362 208.703 226.656C207.098 226.877 198.486 227.76 192.064 221.728C190.897 220.624 189.072 218.638 187.759 215.401C187.394 214.004 187.102 212.606 186.81 211.208Z" fill="#B66710"/>
<path d="M185.059 220.624C183.672 227.686 182.577 233.277 181.921 237.764C181.848 238.426 181.118 242.987 178.783 247.768C178.272 248.724 177.98 249.239 177.542 249.754C175.061 252.697 170.974 252.991 168.931 253.138C167.179 253.285 165.647 253.359 163.749 252.697C160.684 251.667 159.079 249.386 158.057 247.989C154.7 243.428 154.627 238.499 154.627 237.396C154.627 232.688 156.525 229.378 157.619 227.539C160.903 221.948 165.647 219.3 167.836 218.123C174.842 214.372 181.556 214.592 184.621 214.886C184.767 216.725 184.913 218.638 185.059 220.624Z" fill="#CB8C2E"/>
<path d="M186.226 211.208C184.256 206.721 180.753 200.542 174.623 194.952C171.412 192.009 165.136 186.345 155.503 184.579C153.022 184.138 146.746 183.108 139.594 185.683C138.207 186.271 137.04 186.86 136.164 187.301C136.164 187.375 136.091 187.669 136.018 187.963C135.799 189.949 137.624 191.715 138.062 192.083C141.127 195.099 141.564 204.073 147.986 214.666C153.022 223.052 158.422 224.964 159.882 225.553C160.392 225.7 162.071 226.362 164.333 226.656C165.939 226.877 174.55 227.76 180.972 221.728C182.14 220.624 183.964 218.638 185.278 215.401C185.642 214.004 185.934 212.606 186.226 211.208Z" fill="#B66710"/>
<path d="M189.145 210.914C189.145 209.517 187.978 208.34 186.591 208.34H186.445C185.059 208.34 183.891 209.517 183.891 210.914V219.815C183.891 220.404 184.11 220.918 184.402 221.36V228.201C184.402 228.642 184.548 229.084 184.767 229.452V231.658C184.767 232.615 185.496 233.35 186.445 233.35C187.394 233.35 188.124 232.615 188.124 231.658V229.452C188.343 229.084 188.489 228.716 188.489 228.201V221.433C188.853 220.992 188.999 220.477 188.999 219.889V210.914H189.145Z" fill="#431605"/>
<path d="M194.692 184.727C194.035 184.727 193.451 185.315 193.451 185.977C193.451 186.198 193.524 186.418 193.597 186.566C193.086 187.301 192.429 188.257 191.846 189.434C189.948 192.892 189.145 195.908 188.416 198.409C187.613 201.278 187.248 203.485 187.175 204.294C186.956 205.912 186.81 207.457 186.737 207.898C186.664 208.781 186.591 209.443 186.591 210.031C186.81 210.031 187.102 210.031 187.321 210.105C187.394 209.296 187.467 208.266 187.613 207.015C187.905 204.147 188.416 202.013 188.562 201.278C189.145 198.556 189.875 196.496 190.167 195.614C190.897 193.48 191.554 192.009 191.773 191.641C192.575 189.876 193.305 188.772 193.451 188.478C193.743 187.963 194.035 187.522 194.327 187.154C194.473 187.154 194.546 187.228 194.692 187.228C195.348 187.228 195.932 186.639 195.932 185.977C195.932 185.241 195.421 184.727 194.692 184.727Z" fill="#431605"/>
<path d="M178.199 184.727C178.856 184.727 179.439 185.315 179.439 185.977C179.439 186.198 179.366 186.418 179.294 186.566C179.804 187.301 180.461 188.257 181.045 189.434C182.942 192.892 183.745 195.908 184.475 198.409C185.278 201.278 185.643 203.485 185.715 204.294C185.934 205.912 186.08 207.457 186.153 207.898C186.226 208.781 186.299 209.443 186.299 210.031C186.08 210.031 185.788 210.031 185.57 210.105C185.497 209.296 185.424 208.266 185.278 207.015C184.986 204.147 184.475 202.013 184.329 201.278C183.745 198.556 183.015 196.496 182.723 195.614C181.994 193.48 181.337 192.009 181.118 191.641C180.315 189.876 179.585 188.772 179.439 188.478C179.148 187.963 178.856 187.522 178.564 187.154C178.418 187.154 178.345 187.228 178.199 187.228C177.542 187.228 176.958 186.639 176.958 185.977C176.958 185.241 177.469 184.727 178.199 184.727Z" fill="#431605"/>
<path d="M315.759 322.404C317.145 329.465 318.24 335.056 318.897 339.543C318.97 340.205 319.7 344.766 322.035 349.547C322.546 350.504 322.838 351.019 323.275 351.534C325.757 354.476 329.843 354.77 331.887 354.917C333.638 355.065 335.171 355.138 337.068 354.476C340.133 353.446 341.739 351.166 342.76 349.768C346.117 345.207 346.19 340.279 346.19 339.175C346.19 334.467 344.293 331.157 343.198 329.318C339.914 323.728 335.171 321.079 332.981 319.902C325.976 316.151 319.262 316.372 316.197 316.666C316.124 318.578 315.905 320.491 315.759 322.404Z" fill="#CB8C2E"/>
<path d="M314.81 313.208C316.78 308.721 320.283 302.542 326.413 296.952C329.624 294.009 335.9 288.345 345.533 286.579C348.015 286.138 354.291 285.108 361.442 287.683C362.902 288.198 364.069 288.786 364.872 289.228C364.945 289.375 365.018 289.595 365.018 289.89C365.237 291.876 363.413 293.641 362.975 294.009C359.91 297.025 359.472 306.073 353.05 316.666C348.015 325.052 342.614 326.964 341.155 327.553C340.644 327.7 338.965 328.362 336.703 328.656C335.098 328.877 326.486 329.76 320.064 323.728C318.897 322.624 317.072 320.638 315.759 317.401C315.394 316.004 315.102 314.606 314.81 313.208Z" fill="#B66710"/>
<path d="M313.059 322.624C311.672 329.686 310.577 335.277 309.921 339.764C309.848 340.426 309.118 344.987 306.783 349.768C306.272 350.724 305.98 351.239 305.542 351.754C303.061 354.697 298.974 354.991 296.931 355.138C295.179 355.285 293.647 355.359 291.749 354.697C288.684 353.667 287.079 351.386 286.057 349.989C282.7 345.428 282.627 340.499 282.627 339.396C282.627 334.688 284.525 331.378 285.619 329.539C288.903 323.948 293.647 321.3 295.836 320.123C302.842 316.372 309.556 316.592 312.621 316.886C312.767 318.725 312.913 320.638 313.059 322.624Z" fill="#CB8C2E"/>
<path d="M314.226 313.208C312.256 308.721 308.753 302.542 302.623 296.952C299.412 294.009 293.136 288.345 283.503 286.579C281.022 286.138 274.746 285.108 267.594 287.683C266.207 288.271 265.04 288.86 264.164 289.301C264.164 289.375 264.091 289.669 264.018 289.963C263.799 291.949 265.624 293.715 266.062 294.083C269.127 297.099 269.564 306.073 275.986 316.666C281.022 325.052 286.422 326.964 287.882 327.553C288.392 327.7 290.071 328.362 292.333 328.656C293.939 328.877 302.55 329.76 308.972 323.728C310.14 322.624 311.964 320.638 313.278 317.401C313.642 316.004 313.934 314.606 314.226 313.208Z" fill="#B66710"/>
<path d="M317.145 312.914C317.145 311.517 315.978 310.34 314.591 310.34H314.445C313.059 310.34 311.891 311.517 311.891 312.914V321.815C311.891 322.404 312.11 322.918 312.402 323.36V330.201C312.402 330.642 312.548 331.084 312.767 331.452V333.658C312.767 334.615 313.496 335.35 314.445 335.35C315.394 335.35 316.124 334.615 316.124 333.658V331.452C316.343 331.084 316.489 330.716 316.489 330.201V323.433C316.853 322.992 316.999 322.477 316.999 321.889V312.914H317.145Z" fill="#431605"/>
<path d="M322.692 286.727C322.035 286.727 321.451 287.315 321.451 287.977C321.451 288.198 321.524 288.418 321.597 288.566C321.086 289.301 320.429 290.257 319.846 291.434C317.948 294.892 317.145 297.908 316.416 300.409C315.613 303.278 315.248 305.485 315.175 306.294C314.956 307.912 314.81 309.457 314.737 309.898C314.664 310.781 314.591 311.443 314.591 312.031C314.81 312.031 315.102 312.031 315.321 312.105C315.394 311.296 315.467 310.266 315.613 309.015C315.905 306.147 316.416 304.013 316.562 303.278C317.145 300.556 317.875 298.496 318.167 297.614C318.897 295.48 319.554 294.009 319.773 293.641C320.575 291.876 321.305 290.772 321.451 290.478C321.743 289.963 322.035 289.522 322.327 289.154C322.473 289.154 322.546 289.228 322.692 289.228C323.348 289.228 323.932 288.639 323.932 287.977C323.932 287.241 323.421 286.727 322.692 286.727Z" fill="#431605"/>
<path d="M306.199 286.727C306.856 286.727 307.439 287.315 307.439 287.977C307.439 288.198 307.366 288.418 307.294 288.566C307.804 289.301 308.461 290.257 309.045 291.434C310.942 294.892 311.745 297.908 312.475 300.409C313.278 303.278 313.643 305.485 313.715 306.294C313.934 307.912 314.08 309.457 314.153 309.898C314.226 310.781 314.299 311.443 314.299 312.031C314.08 312.031 313.788 312.031 313.57 312.105C313.497 311.296 313.424 310.266 313.278 309.015C312.986 306.147 312.475 304.013 312.329 303.278C311.745 300.556 311.015 298.496 310.723 297.614C309.994 295.48 309.337 294.009 309.118 293.641C308.315 291.876 307.585 290.772 307.439 290.478C307.148 289.963 306.856 289.522 306.564 289.154C306.418 289.154 306.345 289.228 306.199 289.228C305.542 289.228 304.958 288.639 304.958 287.977C304.958 287.241 305.469 286.727 306.199 286.727Z" fill="#431605"/>
<path d="M187.759 322.404C189.145 329.465 190.24 335.056 190.897 339.543C190.97 340.205 191.7 344.766 194.035 349.547C194.546 350.504 194.838 351.019 195.275 351.534C197.757 354.476 201.843 354.77 203.887 354.917C205.638 355.065 207.171 355.138 209.068 354.476C212.133 353.446 213.739 351.166 214.76 349.768C218.117 345.207 218.19 340.279 218.19 339.175C218.19 334.467 216.293 331.157 215.198 329.318C211.914 323.728 207.171 321.079 204.981 319.902C197.976 316.151 191.262 316.372 188.197 316.666C188.124 318.578 187.905 320.491 187.759 322.404Z" fill="#CB8C2E"/>
<path d="M186.81 313.208C188.78 308.721 192.283 302.542 198.413 296.952C201.624 294.009 207.9 288.345 217.533 286.579C220.015 286.138 226.291 285.108 233.442 287.683C234.902 288.198 236.069 288.786 236.872 289.228C236.945 289.375 237.018 289.595 237.018 289.89C237.237 291.876 235.413 293.641 234.975 294.009C231.91 297.025 231.472 306.073 225.05 316.666C220.015 325.052 214.614 326.964 213.155 327.553C212.644 327.7 210.965 328.362 208.703 328.656C207.098 328.877 198.486 329.76 192.064 323.728C190.897 322.624 189.072 320.638 187.759 317.401C187.394 316.004 187.102 314.606 186.81 313.208Z" fill="#B66710"/>
<path d="M185.059 322.624C183.672 329.686 182.577 335.277 181.921 339.764C181.848 340.426 181.118 344.987 178.783 349.768C178.272 350.724 177.98 351.239 177.542 351.754C175.061 354.697 170.974 354.991 168.931 355.138C167.179 355.285 165.647 355.359 163.749 354.697C160.684 353.667 159.079 351.386 158.057 349.989C154.7 345.428 154.627 340.499 154.627 339.396C154.627 334.688 156.525 331.378 157.619 329.539C160.903 323.948 165.647 321.3 167.836 320.123C174.842 316.372 181.556 316.592 184.621 316.886C184.767 318.725 184.913 320.638 185.059 322.624Z" fill="#CB8C2E"/>
<path d="M186.226 313.208C184.256 308.721 180.753 302.542 174.623 296.952C171.412 294.009 165.136 288.345 155.503 286.579C153.022 286.138 146.746 285.108 139.594 287.683C138.207 288.271 137.04 288.86 136.164 289.301C136.164 289.375 136.091 289.669 136.018 289.963C135.799 291.949 137.624 293.715 138.062 294.083C141.127 297.099 141.564 306.073 147.986 316.666C153.022 325.052 158.422 326.964 159.882 327.553C160.392 327.7 162.071 328.362 164.333 328.656C165.939 328.877 174.55 329.76 180.972 323.728C182.14 322.624 183.964 320.638 185.278 317.401C185.642 316.004 185.934 314.606 186.226 313.208Z" fill="#B66710"/>
<path d="M189.145 312.914C189.145 311.517 187.978 310.34 186.591 310.34H186.445C185.059 310.34 183.891 311.517 183.891 312.914V321.815C183.891 322.404 184.11 322.918 184.402 323.36V330.201C184.402 330.642 184.548 331.084 184.767 331.452V333.658C184.767 334.615 185.496 335.35 186.445 335.35C187.394 335.35 188.124 334.615 188.124 333.658V331.452C188.343 331.084 188.489 330.716 188.489 330.201V323.433C188.853 322.992 188.999 322.477 188.999 321.889V312.914H189.145Z" fill="#431605"/>
<path d="M194.692 286.727C194.035 286.727 193.451 287.315 193.451 287.977C193.451 288.198 193.524 288.418 193.597 288.566C193.086 289.301 192.429 290.257 191.846 291.434C189.948 294.892 189.145 297.908 188.416 300.409C187.613 303.278 187.248 305.485 187.175 306.294C186.956 307.912 186.81 309.457 186.737 309.898C186.664 310.781 186.591 311.443 186.591 312.031C186.81 312.031 187.102 312.031 187.321 312.105C187.394 311.296 187.467 310.266 187.613 309.015C187.905 306.147 188.416 304.013 188.562 303.278C189.145 300.556 189.875 298.496 190.167 297.614C190.897 295.48 191.554 294.009 191.773 293.641C192.575 291.876 193.305 290.772 193.451 290.478C193.743 289.963 194.035 289.522 194.327 289.154C194.473 289.154 194.546 289.228 194.692 289.228C195.348 289.228 195.932 288.639 195.932 287.977C195.932 287.241 195.421 286.727 194.692 286.727Z" fill="#431605"/>
<path d="M178.199 286.727C178.856 286.727 179.439 287.315 179.439 287.977C179.439 288.198 179.366 288.418 179.294 288.566C179.804 289.301 180.461 290.257 181.045 291.434C182.942 294.892 183.745 297.908 184.475 300.409C185.278 303.278 185.643 305.485 185.715 306.294C185.934 307.912 186.08 309.457 186.153 309.898C186.226 310.781 186.299 311.443 186.299 312.031C186.08 312.031 185.788 312.031 185.57 312.105C185.497 311.296 185.424 310.266 185.278 309.015C184.986 306.147 184.475 304.013 184.329 303.278C183.745 300.556 183.015 298.496 182.723 297.614C181.994 295.48 181.337 294.009 181.118 293.641C180.315 291.876 179.585 290.772 179.439 290.478C179.148 289.963 178.856 289.522 178.564 289.154C178.418 289.154 178.345 289.228 178.199 289.228C177.542 289.228 176.958 288.639 176.958 287.977C176.958 287.241 177.469 286.727 178.199 286.727Z" fill="#431605"/>
</svg>
