<svg viewBox="0 0 137 137" fill="none" xmlns="http://www.w3.org/2000/svg">
    <rect x="2.38101" y="2.02002" width="132.618" height="132.618" rx="30" fill="white" stroke="#116619" stroke-width="4"/>
    <path d="M11.6004 62.1917C11.3329 64.5085 11.0594 67.6671 11.0124 71.4268C10.98 74.0233 10.9603 77.8518 11.6434 82.5936C12.3996 87.8433 12.7777 90.4681 14.1671 93.0395C17.2991 98.8361 23.5851 101.057 27.7846 102.476C30.7154 103.467 33.2649 103.948 51.9175 103.997C71.2131 104.047 66.3355 103.527 72.7907 103.787C77.2071 103.965 81.6225 103.405 86.0402 103.263C86.0718 103.262 91.5107 103.087 95.1097 100.851C95.8795 100.373 97.896 99.1203 97.8815 97.4552C97.88 97.2894 97.8587 97.1532 97.8409 97.0637C95.833 97.069 92.8958 97.0575 89.3525 96.9714C69.5556 96.4906 59.6572 96.2501 49.0784 92.7773C44.4702 91.2646 33.4823 87.5232 23.2104 77.5738C17.4215 71.9666 13.7884 66.2557 11.6004 62.1917Z" fill="#A7A9D6"/>
    <path d="M109.647 32.2012C103.149 33.0849 98.5698 36.697 96.6082 38.2827C88.1072 45.1541 90.2507 50.6513 83.8845 53.1717C79.9798 54.7175 76.7669 53.5006 69.859 56.7556C68.5688 57.3636 67.7411 57.8896 67.1844 58.1587C65.0031 59.2131 62.8781 60.0798 60.8289 60.8134C59.1645 61.1946 52.1101 62.7457 45.6477 62.4773C42.149 62.332 39.3752 61.7742 39.3751 61.7742C38.5151 61.6012 37.3443 61.3061 35.0103 60.6883C34.4819 60.5485 33.564 60.3021 32.3935 59.8999C30.8089 59.3555 30.2386 59.0333 29.7815 58.7072C29.4346 58.4599 29.1271 58.169 28.5121 57.5875C27.641 56.7639 27.1543 56.2172 26.8521 55.908C26.3703 55.4149 25.3655 54.8214 23.3857 53.6443C21.6947 52.6388 21.5957 52.6059 20.017 51.7214C17.6984 50.4224 17.5696 50.3842 17.3561 50.3826C14.9108 50.3634 13.0559 55.2237 12.7668 55.981C11.7167 58.7325 11.5961 61.039 11.5462 64.2083C11.4437 70.7305 11.3923 73.9916 11.8903 78.0291C12.7076 84.6562 13.0998 87.98 14.7452 90.5921C18.3738 96.3521 24.1828 98.3907 27.5306 99.5656C27.7961 99.6588 28.0788 99.7538 28.3966 99.8507C32.19 101.008 35.2216 101.224 36.6541 101.298C44.4937 101.705 58.6599 101.694 58.66 101.694C60.6908 101.692 66.5124 101.698 73.5021 101.742C77.0996 101.765 80.6944 101.501 84.2919 101.499C86.4123 101.497 90.2201 101.523 94.5935 99.8924C97.1763 98.9296 97.7736 98.2031 97.8646 97.5556C98.0534 96.2125 96.11 94.8803 93.7634 93.2715C91.7466 91.8889 89.5799 90.9 88.8324 90.5454C86.1947 89.2941 85.7167 89.312 84.4384 88.6468C82.325 87.5472 81.1881 86.2271 78.6773 83.243C76.4008 80.5374 75.8459 80.1992 75.0743 79.2911C73.5378 77.4827 72.4091 75.9559 72.2649 75.728C70.3507 72.7026 72.0974 67.2256 72.5283 65.9524C72.8642 65.3696 73.2435 64.8013 73.6845 64.2575C77.8475 59.1242 82.7666 61.197 88.6164 55.793C94.2853 50.556 91.9656 46.566 98.2906 40.7992C99.2875 39.8902 103.585 36.1241 110.038 34.7692C119.38 32.8074 126.853 37.2408 126.998 36.8148C127.149 36.371 119.266 30.8934 109.647 32.2013L109.647 32.2012Z" fill="#888BCB"/>
    <path d="M32.2446 93.9273C33.1021 93.9273 33.7972 93.2342 33.7972 92.3792C33.7972 91.5242 33.1021 90.8311 32.2446 90.8311C31.3871 90.8311 30.692 91.5242 30.692 92.3792C30.692 93.2342 31.3871 93.9273 32.2446 93.9273Z" fill="#30325E"/>
    <path d="M31.8374 92.5396C32.2609 92.5396 32.6043 92.1973 32.6043 91.775C32.6043 91.3527 32.2609 91.0104 31.8374 91.0104C31.4139 91.0104 31.0706 91.3527 31.0706 91.775C31.0706 92.1973 31.4139 92.5396 31.8374 92.5396Z" fill="white"/>
    <path d="M22.6261 88.3319C23.4835 88.3319 24.1787 87.6388 24.1787 86.7838C24.1787 85.9288 23.4835 85.2357 22.6261 85.2357C21.7686 85.2357 21.0735 85.9288 21.0735 86.7838C21.0735 87.6388 21.7686 88.3319 22.6261 88.3319Z" fill="#30325E"/>
    <path d="M22.1622 86.9207C22.5753 86.9207 22.9101 86.5868 22.9101 86.1749C22.9101 85.7631 22.5753 85.4292 22.1622 85.4292C21.7492 85.4292 21.4143 85.7631 21.4143 86.1749C21.4143 86.5868 21.7492 86.9207 22.1622 86.9207Z" fill="white"/>
    <path opacity="0.4" d="M59.6464 100.303C59.6567 100.151 67.2714 100.951 76.1294 98.4154C79.2438 97.524 80.7081 96.7128 80.9402 95.5844C81.1949 94.346 79.2395 93.423 75.0253 89.6865C73.718 88.5274 72.6625 87.5216 71.9245 86.8004C71.4316 86.5837 70.6731 86.3359 69.7412 86.3574C67.3785 86.4118 65.8838 88.1514 65.6127 88.4786C67.2325 85.6549 68.3373 83.2549 69.0709 81.508C69.845 79.6644 70.2123 78.6461 71.0036 78.4601C72.2629 78.1642 73.5708 80.2601 75.4196 82.6089C75.4197 82.6091 78.9444 87.4515 83.8582 91.102C88.9622 94.8937 92.6351 95.6655 92.4546 97.0785C92.3941 97.5522 91.8504 98.2726 85.3567 99.5163C80.5344 100.44 78.1232 100.902 73.6845 101.089C65.4055 101.439 59.6374 100.435 59.6464 100.303L59.6464 100.303Z" fill="#7174B6"/>
    <path d="M109.647 32.2013C103.149 33.0849 98.5699 36.697 96.6082 38.2827C88.1073 45.1541 90.2507 50.6513 83.8845 53.1717C79.9799 54.7176 76.7669 53.5006 69.859 56.7556C68.5689 57.3636 67.7412 57.8896 67.1845 58.1587C65.0032 59.2131 62.8781 60.0798 60.8289 60.8134C59.1645 61.1946 52.1101 62.7457 45.6477 62.4773C42.149 62.332 39.3752 61.7743 39.3752 61.7742C38.5151 61.6012 37.3444 61.3062 35.0103 60.6883C34.4819 60.5485 33.5641 60.3021 32.3935 59.8999C32.3433 59.8827 32.2291 59.8421 32.2236 59.8544C32.1997 59.9072 34.1754 60.9054 35.9472 61.6516C37.3969 62.2622 39.3493 63.0845 41.7964 63.5258C43.2953 63.7962 44.4957 63.8363 46.6335 63.8142C50.9669 63.7694 54.4198 63.6895 58.6392 63.3053C62.5747 62.947 64.6093 62.5713 66.1416 63.8867C67.7968 65.3077 67.2326 67.3258 67.8484 71.1538C67.9217 71.6094 69.0191 78.0406 73.0536 83.7361C75.9701 87.8533 79.5898 90.412 81.6763 91.8621C86.4028 95.1475 89.5151 95.8213 89.3526 96.9714C89.2334 97.8142 87.3972 98.622 78.3113 99.2017C69.2646 99.779 66.0624 99.2988 57.703 99.4538C48.4565 99.6253 47.2452 100.308 39.1412 100.145C33.9507 100.041 29.717 99.6663 26.9741 99.3694C27.1649 99.4371 27.353 99.5033 27.5306 99.5656C27.7961 99.6588 28.0788 99.7538 28.3967 99.8507C32.19 101.008 35.2217 101.224 36.6541 101.298C44.4937 101.705 58.6599 101.694 58.6601 101.694C60.6908 101.692 66.5124 101.698 73.5021 101.742C77.0996 101.765 80.6944 101.501 84.2919 101.499C87.1273 101.343 89.8778 101.343 93.121 100.383C93.6041 100.238 94.0939 100.079 94.5935 99.8924C97.1763 98.9296 97.7736 98.2031 97.8646 97.5556C98.0534 96.2125 96.1101 94.8803 93.7635 93.2716C91.7466 91.8889 89.5799 90.9 88.8324 90.5454C86.1947 89.2941 85.7168 89.312 84.4384 88.6468C82.3251 87.5472 81.1881 86.2271 78.6773 83.243C76.4008 80.5374 75.8459 80.1992 75.0744 79.2911C73.5378 77.4827 72.4091 75.9559 72.2649 75.728C70.3507 72.7026 72.0974 67.2256 72.5283 65.9524C72.8642 65.3696 73.2436 64.8013 73.6845 64.2575C77.8475 59.1242 82.7667 61.197 88.6164 55.793C94.2853 50.556 91.9657 46.566 98.2906 40.7992C99.2876 39.8902 103.585 36.1241 110.038 34.7692C119.38 32.8074 126.853 37.2408 126.998 36.8148C127.149 36.371 119.266 30.8934 109.647 32.2013H109.647Z" fill="#7A7DC2"/>
    <path d="M35.9472 61.6516C34.9824 61.9337 33.6772 62.3753 32.201 63.0671C30.3224 63.9475 26.5874 65.7347 23.4864 69.6335C22.4414 70.9472 20.9683 73.1289 19.9491 76.2384C22.0271 73.7307 24.0392 71.8589 25.6275 70.5329C28.0315 68.526 30.5467 66.4032 34.4209 64.994C37.4654 63.8867 40.1551 63.6086 41.9397 63.5514L35.9471 61.6516H35.9472Z" fill="#7A7DC2"/>
    <path d="M68.9958 75.5695C69.6204 79.2804 68.7487 81.8246 68.217 83.0274C67.5878 84.4511 66.7814 85.4739 65.7475 86.7855C64.1374 88.8278 62.5623 90.3137 61.4162 91.2931C62.8663 90.601 66.7676 88.5001 69.1497 83.9065C70.5788 81.1508 70.8997 78.5808 70.9645 77.0244L68.9958 75.5695V75.5695Z" fill="#7A7DC2"/>
    <path opacity="0.4" d="M59.9414 92.1668C61.179 91.1157 64.1042 88.3407 65.2459 83.7885C66.2989 79.5898 65.8989 73.6077 62.0912 70.0267C60.5346 68.5627 56.6946 68.0513 49.0784 66.9598C41.681 65.8995 39.0263 66.0375 37.8794 66.1209C34.0402 66.4002 30.9279 67.2442 28.8212 67.9564C31.4089 65.5718 33.8931 64.1455 35.5239 63.5783C36.6841 63.1749 37.8793 62.9492 37.8794 62.9492C38.4295 62.8453 39.2011 62.6926 40.1904 62.6806C41.6401 62.6632 42.7252 62.9657 44.6131 63.093C45.6759 63.1646 46.415 63.155 47.8954 63.1064C55.3701 62.8614 66.7106 60.1666 68.2428 63.1589C68.3041 63.2787 68.3385 63.4286 68.3385 63.4287C68.4989 63.9352 68.5201 64.3409 68.5319 64.5219C68.5778 65.2234 68.6622 65.2924 68.7422 66.1472C68.8773 67.5901 68.685 67.9088 68.7684 69.2685C68.8094 69.9377 68.9576 70.3359 69.0314 71.2063C69.7708 79.9272 69.7873 80.2145 69.5835 81.0362C68.8072 84.1656 67.027 86.2224 65.6402 87.7205C64.5185 88.9322 62.6695 90.6565 59.9414 92.1668V92.1668Z" fill="#7174B6"/>
    <path opacity="0.4" d="M31.3398 59.5129C31.611 60.0579 31.8628 60.7984 31.5701 61.4157C31.1384 62.3261 29.7715 62.4677 28.9412 62.6084C26.1807 63.0763 24.1897 65.1546 22.1588 67.2743C20.2747 69.2409 19.2495 71.2654 18.0052 73.7227C16.3774 76.9373 16.3434 78.0772 15.797 78.0741C14.4366 78.0661 13.1501 69.802 13.4572 62.1365C13.6261 57.9214 14.2537 54.4598 14.7936 52.0937C14.0073 53.2318 13.0826 54.8478 12.4375 56.9236C12.0807 58.0713 11.8807 59.1304 11.7703 60.0458L11.6818 60.8865C11.6642 61.0632 11.655 61.2062 11.6498 61.3023C11.6388 61.5082 11.6333 61.6112 11.6347 61.6511C11.6373 61.7282 11.6459 61.8598 11.6087 62.0303L11.608 62.0331C11.7124 67.8441 11.8228 72.9103 11.8903 78.0291C11.9391 81.7268 11.9758 86.1957 14.7453 90.5921C14.9844 90.9717 15.2341 91.3331 15.4909 91.6813C15.3773 90.833 15.262 89.5072 15.4026 87.904C15.4864 86.9482 15.8069 84.2304 18.9516 78.1527C20.2457 75.6513 20.8929 74.4007 21.8696 73.0412C23.0854 71.3489 25.4656 68.1021 29.5196 65.8063C33.5809 63.5064 37.2369 63.3414 37.1696 62.3462C37.1438 61.9649 36.2411 61.559 34.4356 60.7472C33.2192 60.2003 32.1562 59.7981 31.3398 59.5129L31.3398 59.5129Z" fill="#7174B6"/>
    <path d="M15.1661 58.3104C15.4927 58.3104 15.7576 58.0463 15.7576 57.7206C15.7576 57.3949 15.4927 57.1308 15.1661 57.1308C14.8394 57.1308 14.5746 57.3949 14.5746 57.7206C14.5746 58.0463 14.8394 58.3104 15.1661 58.3104Z" fill="#DAE8EF"/>
    <path d="M17.0398 56.0289C17.225 56.0289 17.375 55.8793 17.375 55.6947C17.375 55.5101 17.225 55.3605 17.0398 55.3605C16.8547 55.3605 16.7047 55.5101 16.7047 55.6947C16.7047 55.8793 16.8547 56.0289 17.0398 56.0289Z" fill="#DAE8EF"/>
    <path d="M19.8589 55.4893C20.5046 55.4893 21.028 54.9674 21.028 54.3236C21.028 53.6798 20.5046 53.1579 19.8589 53.1579C19.2132 53.1579 18.6898 53.6798 18.6898 54.3236C18.6898 54.9674 19.2132 55.4893 19.8589 55.4893Z" fill="#DAE8EF"/>
    <path d="M15.9942 54.0229C16.1248 54.0229 16.2308 53.9173 16.2308 53.787C16.2308 53.6567 16.1248 53.5511 15.9942 53.5511C15.8635 53.5511 15.7576 53.6567 15.7576 53.787C15.7576 53.9173 15.8635 54.0229 15.9942 54.0229Z" fill="#DAE8EF"/>
    <path d="M17.2892 52.8826C17.612 52.8826 17.8738 52.6217 17.8738 52.2998C17.8738 51.9778 17.612 51.7169 17.2892 51.7169C16.9664 51.7169 16.7047 51.9778 16.7047 52.2998C16.7047 52.6217 16.9664 52.8826 17.2892 52.8826Z" fill="#DAE8EF"/>
    <path d="M24.6431 57.7206C24.9697 57.7206 25.2346 57.4566 25.2346 57.1308C25.2346 56.8051 24.9697 56.541 24.6431 56.541C24.3164 56.541 24.0516 56.8051 24.0516 57.1308C24.0516 57.4566 24.3164 57.7206 24.6431 57.7206Z" fill="#DAE8EF"/>
    <path d="M22.9737 55.5818C23.3222 55.5818 23.6047 55.3001 23.6047 54.9527C23.6047 54.6052 23.3222 54.3236 22.9737 54.3236C22.6253 54.3236 22.3428 54.6052 22.3428 54.9527C22.3428 55.3001 22.6253 55.5818 22.9737 55.5818Z" fill="#DAE8EF"/>
    <path d="M16.6645 60.4327C17.0347 60.4327 17.3349 60.1334 17.3349 59.7643C17.3349 59.3951 17.0347 59.0958 16.6645 59.0958C16.2943 59.0958 15.9941 59.3951 15.9941 59.7643C15.9941 60.1334 16.2943 60.4327 16.6645 60.4327Z" fill="#DAE8EF"/>
    <path d="M26.9696 57.7917C27.1547 57.7917 27.3048 57.6421 27.3048 57.4575C27.3048 57.2729 27.1547 57.1233 26.9696 57.1233C26.7845 57.1233 26.6344 57.2729 26.6344 57.4575C26.6344 57.6421 26.7845 57.7917 26.9696 57.7917Z" fill="#DAE8EF"/>
    <path d="M14.7914 61.9858C14.9766 61.9858 15.1266 61.8362 15.1266 61.6516C15.1266 61.467 14.9766 61.3174 14.7914 61.3174C14.6063 61.3174 14.4562 61.467 14.4562 61.6516C14.4562 61.8362 14.6063 61.9858 14.7914 61.9858Z" fill="#DAE8EF"/>
    <path d="M17.0398 64.0403C17.1705 64.0403 17.2764 63.9347 17.2764 63.8044C17.2764 63.6741 17.1705 63.5685 17.0398 63.5685C16.9092 63.5685 16.8032 63.6741 16.8032 63.8044C16.8032 63.9347 16.9092 64.0403 17.0398 64.0403Z" fill="#DAE8EF"/>
    <path d="M31.2787 69.2403C31.5552 69.2403 31.7794 69.0167 31.7794 68.741C31.7794 68.4652 31.5552 68.2417 31.2787 68.2417C31.0021 68.2417 30.778 68.4652 30.778 68.741C30.778 69.0167 31.0021 69.2403 31.2787 69.2403Z" fill="#DAE8EF"/>
    <path d="M27.4353 74.1125C27.6126 74.1125 27.7562 73.9693 27.7562 73.7925C27.7562 73.6158 27.6126 73.4726 27.4353 73.4726C27.2581 73.4726 27.1144 73.6158 27.1144 73.7925C27.1144 73.9693 27.2581 74.1125 27.4353 74.1125Z" fill="#DAE8EF"/>
    <path d="M28.8212 71.1629C29.333 71.1629 29.7479 70.7492 29.7479 70.2389C29.7479 69.7285 29.333 69.3148 28.8212 69.3148C28.3095 69.3148 27.8946 69.7285 27.8946 70.2389C27.8946 70.7492 28.3095 71.1629 28.8212 71.1629Z" fill="#DAE8EF"/>
    <path d="M26.3737 72.1932C26.5431 72.1932 26.6803 72.0563 26.6803 71.8875C26.6803 71.7186 26.5431 71.5817 26.3737 71.5817C26.2044 71.5817 26.0671 71.7186 26.0671 71.8875C26.0671 72.0563 26.2044 72.1932 26.3737 72.1932Z" fill="#DAE8EF"/>
    <path d="M25.1635 74.8191C25.4509 74.8191 25.6839 74.5868 25.6839 74.3002C25.6839 74.0136 25.4509 73.7812 25.1635 73.7812C24.8761 73.7812 24.6431 74.0136 24.6431 74.3002C24.6431 74.5868 24.8761 74.8191 25.1635 74.8191Z" fill="#DAE8EF"/>
    <path d="M30.7696 74.3002C31.0508 74.3002 31.2787 74.0729 31.2787 73.7925C31.2787 73.5122 31.0508 73.2849 30.7696 73.2849C30.4884 73.2849 30.2605 73.5122 30.2605 73.7925C30.2605 74.0729 30.4884 74.3002 30.7696 74.3002Z" fill="#DAE8EF"/>
    <path d="M25.0001 76.4922C25.1407 76.4922 25.2547 76.3785 25.2547 76.2384C25.2547 76.0982 25.1407 75.9846 25.0001 75.9846C24.8595 75.9846 24.7456 76.0982 24.7456 76.2384C24.7456 76.3785 24.8595 76.4922 25.0001 76.4922Z" fill="#DAE8EF"/>
    <path d="M22.3428 76.659C22.7438 76.659 23.0688 76.3349 23.0688 75.9351C23.0688 75.5353 22.7438 75.2112 22.3428 75.2112C21.9419 75.2112 21.6168 75.5353 21.6168 75.9351C21.6168 76.3349 21.9419 76.659 22.3428 76.659Z" fill="#DAE8EF"/>
    <path d="M31.771 71.3595C31.8799 71.3595 31.9682 71.2715 31.9682 71.1629C31.9682 71.0543 31.8799 70.9663 31.771 70.9663C31.6621 70.9663 31.5739 71.0543 31.5739 71.1629C31.5739 71.2715 31.6621 71.3595 31.771 71.3595Z" fill="#DAE8EF"/>
    <path d="M24.0516 78.0186C24.1661 78.0186 24.2589 77.9261 24.2589 77.8119C24.2589 77.6978 24.1661 77.6053 24.0516 77.6053C23.9371 77.6053 23.8443 77.6978 23.8443 77.8119C23.8443 77.9261 23.9371 78.0186 24.0516 78.0186Z" fill="#DAE8EF"/>
    <path d="M21.6168 78.686C21.7574 78.686 21.8714 78.5723 21.8714 78.4322C21.8714 78.292 21.7574 78.1783 21.6168 78.1783C21.4763 78.1783 21.3623 78.292 21.3623 78.4322C21.3623 78.5723 21.4763 78.686 21.6168 78.686Z" fill="#DAE8EF"/>
    <path d="M27.4354 76.271C27.6215 76.271 27.7723 76.1206 27.7723 75.9351C27.7723 75.7495 27.6215 75.5991 27.4354 75.5991C27.2493 75.5991 27.0984 75.7495 27.0984 75.9351C27.0984 76.1206 27.2493 76.271 27.4354 76.271Z" fill="#DAE8EF"/>
    <path d="M19.9491 80.3021C20.312 80.3021 20.6062 80.0087 20.6062 79.6469C20.6062 79.285 20.312 78.9917 19.9491 78.9917C19.5862 78.9917 19.292 79.285 19.292 79.6469C19.292 80.0087 19.5862 80.3021 19.9491 80.3021Z" fill="#DAE8EF"/>
    <path d="M34.6244 70.2388C34.9827 70.2388 35.2732 69.9492 35.2732 69.5919C35.2732 69.2346 34.9827 68.945 34.6244 68.945C34.266 68.945 33.9756 69.2346 33.9756 69.5919C33.9756 69.9492 34.266 70.2388 34.6244 70.2388Z" fill="#DAE8EF"/>
    <path d="M34.3788 73.7925C34.9064 73.7925 35.334 73.3661 35.334 72.84C35.334 72.3139 34.9064 71.8875 34.3788 71.8875C33.8512 71.8875 33.4235 72.3139 33.4235 72.84C33.4235 73.3661 33.8512 73.7925 34.3788 73.7925Z" fill="#DAE8EF"/>
    <path d="M36.8743 71.0106C37.0379 71.0106 37.1705 70.8783 37.1705 70.7152C37.1705 70.5521 37.0379 70.4199 36.8743 70.4199C36.7107 70.4199 36.5781 70.5521 36.5781 70.7152C36.5781 70.8783 36.7107 71.0106 36.8743 71.0106Z" fill="#DAE8EF"/>
    <path d="M36.4896 67.639C36.7021 67.639 36.8743 67.4673 36.8743 67.2555C36.8743 67.0436 36.7021 66.8719 36.4896 66.8719C36.2772 66.8719 36.1049 67.0436 36.1049 67.2555C36.1049 67.4673 36.2772 67.639 36.4896 67.639Z" fill="#DAE8EF"/>
    <path d="M38.1357 69.6921C38.3426 69.6921 38.5103 69.5248 38.5103 69.3185C38.5103 69.1122 38.3426 68.945 38.1357 68.945C37.9288 68.945 37.7611 69.1122 37.7611 69.3185C37.7611 69.5248 37.9288 69.6921 38.1357 69.6921Z" fill="#DAE8EF"/>
    <path d="M38.6286 74.57C39.1077 74.57 39.4961 74.1828 39.4961 73.705C39.4961 73.2273 39.1077 72.84 38.6286 72.84C38.1495 72.84 37.7611 73.2273 37.7611 73.705C37.7611 74.1828 38.1495 74.57 38.6286 74.57Z" fill="#DAE8EF"/>
    <path d="M40.758 70.7737C40.954 70.7737 41.1129 70.6153 41.1129 70.4199C41.1129 70.2244 40.954 70.066 40.758 70.066C40.562 70.066 40.4031 70.2244 40.4031 70.4199C40.4031 70.6153 40.562 70.7737 40.758 70.7737Z" fill="#DAE8EF"/>
    <path d="M40.4228 68.5718C40.6079 68.5718 40.758 68.4222 40.758 68.2376C40.758 68.053 40.6079 67.9034 40.4228 67.9034C40.2377 67.9034 40.0876 68.053 40.0876 68.2376C40.0876 68.4222 40.2377 68.5718 40.4228 68.5718Z" fill="#DAE8EF"/>
    <path d="M43.8867 69.4897C44.3951 69.4897 44.8072 69.0788 44.8072 68.5718C44.8072 68.0649 44.3951 67.654 43.8867 67.654C43.3784 67.654 42.9663 68.0649 42.9663 68.5718C42.9663 69.0788 43.3784 69.4897 43.8867 69.4897Z" fill="#DAE8EF"/>
    <path d="M42.5173 70.9663C42.6251 70.9663 42.7124 70.8792 42.7124 70.7717C42.7124 70.6643 42.6251 70.5771 42.5173 70.5771C42.4095 70.5771 42.3222 70.6643 42.3222 70.7717C42.3222 70.8792 42.4095 70.9663 42.5173 70.9663Z" fill="#DAE8EF"/>
    <path d="M40.9355 72.6611C41.0335 72.6611 41.1129 72.5819 41.1129 72.4842C41.1129 72.3864 41.0335 72.3072 40.9355 72.3072C40.8375 72.3072 40.758 72.3864 40.758 72.4842C40.758 72.5819 40.8375 72.6611 40.9355 72.6611Z" fill="#DAE8EF"/>
    <path d="M46.0486 70.5771C46.1902 70.5771 46.3049 70.4627 46.3049 70.3216C46.3049 70.1804 46.1902 70.066 46.0486 70.066C45.907 70.066 45.7923 70.1804 45.7923 70.3216C45.7923 70.4627 45.907 70.5771 46.0486 70.5771Z" fill="#DAE8EF"/>
    <path d="M48.0005 69.9742C48.6103 69.9742 49.1046 69.4813 49.1046 68.8733C49.1046 68.2652 48.6103 67.7723 48.0005 67.7723C47.3907 67.7723 46.8964 68.2652 46.8964 68.8733C46.8964 69.4813 47.3907 69.9742 48.0005 69.9742Z" fill="#DAE8EF"/>
    <path d="M44.3641 74.0019C44.5627 74.0019 44.7236 73.8414 44.7236 73.6434C44.7236 73.4454 44.5627 73.2849 44.3641 73.2849C44.1656 73.2849 44.0046 73.4454 44.0046 73.6434C44.0046 73.8414 44.1656 74.0019 44.3641 74.0019Z" fill="#DAE8EF"/>
    <path d="M42.294 74.8191C42.4897 74.8191 42.6483 74.6609 42.6483 74.4658C42.6483 74.2707 42.4897 74.1125 42.294 74.1125C42.0984 74.1125 41.9397 74.2707 41.9397 74.4658C41.9397 74.6609 42.0984 74.8191 42.294 74.8191Z" fill="#DAE8EF"/>
    <path d="M43.7748 72.1106C43.8366 72.1106 43.8867 72.0607 43.8867 71.9991C43.8867 71.9374 43.8366 71.8875 43.7748 71.8875C43.713 71.8875 43.6629 71.9374 43.6629 71.9991C43.6629 72.0607 43.713 72.1106 43.7748 72.1106Z" fill="#DAE8EF"/>
    <path d="M47.1067 72.7266C47.2229 72.7266 47.317 72.6327 47.317 72.5169C47.317 72.4011 47.2229 72.3072 47.1067 72.3072C46.9906 72.3072 46.8964 72.4011 46.8964 72.5169C46.8964 72.6327 46.9906 72.7266 47.1067 72.7266Z" fill="#DAE8EF"/>
    <path d="M47.4524 74.5701C47.5271 74.5701 47.5877 74.5096 47.5877 74.4351C47.5877 74.3606 47.5271 74.3002 47.4524 74.3002C47.3776 74.3002 47.317 74.3606 47.317 74.4351C47.317 74.5096 47.3776 74.5701 47.4524 74.5701Z" fill="#DAE8EF"/>
    <path d="M49.545 71.3595C49.5994 71.3595 49.6436 71.3155 49.6436 71.2612C49.6436 71.2069 49.5994 71.1629 49.545 71.1629C49.4906 71.1629 49.4464 71.2069 49.4464 71.2612C49.4464 71.3155 49.4906 71.3595 49.545 71.3595Z" fill="#DAE8EF"/>
    <path d="M51.3786 69.0568C51.4294 69.0568 51.4706 69.0157 51.4706 68.965C51.4706 68.9144 51.4294 68.8733 51.3786 68.8733C51.3278 68.8733 51.2866 68.9144 51.2866 68.965C51.2866 69.0157 51.3278 69.0568 51.3786 69.0568Z" fill="#DAE8EF"/>
    <path d="M51.4562 70.5771C51.5499 70.5771 51.6259 70.5014 51.6259 70.408C51.6259 70.3146 51.5499 70.2389 51.4562 70.2389C51.3626 70.2389 51.2866 70.3146 51.2866 70.408C51.2866 70.5014 51.3626 70.5771 51.4562 70.5771Z" fill="#DAE8EF"/>
    <path d="M50.0905 74.5694C50.4462 74.5694 50.7346 74.2818 50.7346 73.9271C50.7346 73.5724 50.4462 73.2849 50.0905 73.2849C49.7348 73.2849 49.4464 73.5724 49.4464 73.9271C49.4464 74.2818 49.7348 74.5694 50.0905 74.5694Z" fill="#DAE8EF"/>
    <path d="M53.3065 72.3858C53.5292 72.3858 53.7098 72.2058 53.7098 71.9838C53.7098 71.7617 53.5292 71.5817 53.3065 71.5817C53.0839 71.5817 52.9033 71.7617 52.9033 71.9838C52.9033 72.2058 53.0839 72.3858 53.3065 72.3858Z" fill="#DAE8EF"/>
    <path d="M53.9015 69.9742C54.0074 69.9742 54.0932 69.8886 54.0932 69.7831C54.0932 69.6775 54.0074 69.5919 53.9015 69.5919C53.7956 69.5919 53.7098 69.6775 53.7098 69.7831C53.7098 69.8886 53.7956 69.9742 53.9015 69.9742Z" fill="#DAE8EF"/>
    <path d="M56.196 71.9356C56.294 71.9356 56.3735 71.8564 56.3735 71.7587C56.3735 71.6609 56.294 71.5817 56.196 71.5817C56.098 71.5817 56.0186 71.6609 56.0186 71.7587C56.0186 71.8564 56.098 71.9356 56.196 71.9356Z" fill="#DAE8EF"/>
    <path d="M58.6848 70.9663C58.7926 70.9663 58.8799 70.8792 58.8799 70.7717C58.8799 70.6643 58.7926 70.5771 58.6848 70.5771C58.577 70.5771 58.4897 70.6643 58.4897 70.7717C58.4897 70.8792 58.577 70.9663 58.6848 70.9663Z" fill="#DAE8EF"/>
    <path d="M54.7628 74.5693C54.9406 74.5693 55.0848 74.4256 55.0848 74.2482C55.0848 74.0709 54.9406 73.9271 54.7628 73.9271C54.5849 73.9271 54.4408 74.0709 54.4408 74.2482C54.4408 74.4256 54.5849 74.5693 54.7628 74.5693Z" fill="#DAE8EF"/>
    <path d="M59.6037 74.2482C59.8705 74.2482 60.0867 74.0326 60.0867 73.7666C60.0867 73.5006 59.8705 73.2849 59.6037 73.2849C59.3369 73.2849 59.1206 73.5006 59.1206 73.7666C59.1206 74.0326 59.3369 74.2482 59.6037 74.2482Z" fill="#DAE8EF"/>
    <path d="M69.991 98.5727C70.2741 98.5727 70.5036 98.3438 70.5036 98.0615C70.5036 97.7792 70.2741 97.5504 69.991 97.5504C69.7078 97.5504 69.4783 97.7792 69.4783 98.0615C69.4783 98.3438 69.7078 98.5727 69.991 98.5727Z" fill="#DAE8EF"/>
    <path d="M72.6067 96.3183C72.7083 96.3183 72.7907 96.2362 72.7907 96.1348C72.7907 96.0335 72.7083 95.9514 72.6067 95.9514C72.505 95.9514 72.4226 96.0335 72.4226 96.1348C72.4226 96.2362 72.505 96.3183 72.6067 96.3183Z" fill="#DAE8EF"/>
    <path d="M74.675 94.7633C74.9462 94.7633 75.1661 94.5441 75.1661 94.2737C75.1661 94.0033 74.9462 93.7841 74.675 93.7841C74.4038 93.7841 74.184 94.0033 74.184 94.2737C74.184 94.5441 74.4038 94.7633 74.675 94.7633Z" fill="#DAE8EF"/>
    <path d="M72.6067 91.1198C72.9729 91.1198 73.2698 90.8238 73.2698 90.4586C73.2698 90.0934 72.9729 89.7974 72.6067 89.7974C72.2404 89.7974 71.9435 90.0934 71.9435 90.4586C71.9435 90.8238 72.2404 91.1198 72.6067 91.1198Z" fill="#DAE8EF"/>
    <path d="M77.3025 96.7958C77.8654 96.7958 78.3217 96.3408 78.3217 95.7796C78.3217 95.2184 77.8654 94.7634 77.3025 94.7634C76.7396 94.7634 76.2833 95.2184 76.2833 95.7796C76.2833 96.3408 76.7396 96.7958 77.3025 96.7958Z" fill="#DAE8EF"/>
    <path d="M72.6067 93.4602C72.7228 93.4602 72.817 93.3663 72.817 93.2504C72.817 93.1346 72.7228 93.0407 72.6067 93.0407C72.4905 93.0407 72.3964 93.1346 72.3964 93.2504C72.3964 93.3663 72.4905 93.4602 72.6067 93.4602Z" fill="#DAE8EF"/>
    <path d="M76.9871 93.2504C77.2315 93.2504 77.4297 93.0528 77.4297 92.809C77.4297 92.5652 77.2315 92.3676 76.9871 92.3676C76.7426 92.3676 76.5444 92.5652 76.5444 92.809C76.5444 93.0528 76.7426 93.2504 76.9871 93.2504Z" fill="#DAE8EF"/>
    <path d="M73.6057 97.8059C74.0303 97.8059 74.3746 97.4627 74.3746 97.0392C74.3746 96.6157 74.0303 96.2725 73.6057 96.2725C73.181 96.2725 72.8367 96.6157 72.8367 97.0392C72.8367 97.4627 73.181 97.8059 73.6057 97.8059Z" fill="#DAE8EF"/>
    <path d="M109.647 32.2013C103.149 33.0849 98.5698 36.697 96.6082 38.2827C88.1072 45.1541 90.2507 50.6513 83.8845 53.1717C79.9799 54.7176 76.7669 53.5006 69.859 56.7556C68.5689 57.3636 67.7412 57.8896 67.1845 58.1587C66.2707 58.6004 65.3733 58.9917 64.4807 59.3715L66.166 59.0172C67.0892 58.7419 68.5256 58.3835 70.3196 58.2308C72.2779 58.0642 74.386 57.8847 74.8149 58.7551C75.137 59.4086 74.1907 60.0015 72.7381 63.0671C71.964 64.701 71.774 65.5282 71.7917 66.4093C71.8016 66.8977 71.8881 67.3375 72.0042 67.7196C72.2097 66.9211 72.4148 66.2882 72.5284 65.9524C72.8643 65.3696 73.2436 64.8013 73.6845 64.2575C77.8476 59.1242 82.7667 61.197 88.6164 55.793C94.2853 50.556 91.9657 46.566 98.2907 40.7992C99.2876 39.8902 103.585 36.1241 110.038 34.7692C119.38 32.8074 126.853 37.2408 126.998 36.8148C127.149 36.371 119.266 30.8934 109.647 32.2013V32.2013Z" fill="#6C6FB1"/>
    <path d="M92.356 44.2724C92.0155 43.5733 91.6176 42.548 91.4728 41.2649C91.333 40.0265 91.4253 38.517 91.7842 38.4531C92.0355 38.4083 92.1821 39.1139 92.8968 39.8364C93.5373 40.4839 94.2889 40.7957 94.8511 40.9594L92.356 44.2724H92.356Z" fill="#6C6FB1"/>
</svg>
