<svg width="870" height="540" viewBox="0 0 870 540" fill="none" xmlns="http://www.w3.org/2000/svg">
<rect x="2.5" y="2.5" width="865" height="534.4" rx="77.5" fill="#F3F3F3" stroke="#83C1CA" stroke-width="5"/>
<path d="M132.569 221.883C127.727 221.062 124.089 224.466 120.577 226.478C114.901 229.729 112.902 226.989 93.3487 226.532C83.0809 226.291 74.4323 226.384 66.1201 226.478C63.4376 226.508 56.0448 223.599 47.8604 226.877C46.8323 227.768 45.5938 228.382 44.2621 228.66C43.8236 228.719 43.3797 228.726 42.9397 228.68C43.2995 232.384 43.8159 237.291 44.4942 243.062C45.0537 247.816 45.5449 251.672 45.804 253.57C47.0976 263.042 48.4379 270.579 49.638 277.533C51.322 287.275 53.6969 301.462 56.4748 319.588C57.8412 321.116 59.3398 322.52 60.9529 323.784C64.8087 326.712 69.2416 328.789 73.9591 329.878C74.8947 330.122 76.3196 330.486 78.1422 330.837C88.2407 332.116 98.4603 332.116 108.559 330.837C110.381 330.477 111.797 330.117 112.742 329.878C117.459 328.789 121.892 326.712 125.748 323.784C127.361 322.52 128.86 321.116 130.226 319.588C132.995 301.46 135.37 287.275 137.063 277.533C138.263 270.579 139.603 263.046 140.897 253.577C141.566 248.671 142.023 244.673 142.207 243.062C142.901 236.962 143.389 231.64 143.738 227.347C142.792 226.576 141.797 225.866 140.76 225.222C138.251 223.629 135.477 222.498 132.569 221.883Z" fill="#48AB85"/>
<path d="M125.851 212.588C118.716 209.634 111.157 207.831 103.456 207.247C96.5576 206.514 89.599 206.544 82.7067 207.335C75.2566 207.86 67.9482 209.636 61.0879 212.588C54.0873 215.778 41.754 223.317 43.0207 229.196C43.152 229.801 43.6918 231.627 51.5199 235.231C58.6798 238.455 66.2461 240.686 74.0095 241.864C80.7989 243.135 87.6883 243.798 94.5955 243.843C102.625 243.891 110.632 242.995 118.452 241.173C125.403 239.551 132.016 236.727 137.995 232.829C143.099 229.463 143.605 227.955 143.715 227.036C144.488 220.589 129.354 214.092 125.851 212.588Z" fill="#3E705B"/>
<path d="M139.46 243.86C139.582 244.192 120.153 256.601 93.6385 257.182C66.3991 257.778 45.9804 245.578 46.0937 245.238C60.9648 252.21 77.2151 255.742 93.6385 255.574C109.583 255.053 125.221 251.055 139.46 243.86Z" fill="#3E705B"/>
<path d="M125.734 227.723C119.559 224.719 112.968 222.657 106.182 221.606C100.747 220.802 95.2393 220.599 89.7595 221.001C84.8621 221.141 79.9931 221.796 75.233 222.955C69.663 224.13 64.362 226.338 59.6037 229.463C56.9897 231.242 54.5931 233.322 52.4628 235.659C54.7049 236.668 56.9963 237.564 59.3284 238.343C59.3284 238.343 62.5849 239.408 66.4369 240.342C67.5416 240.61 68.5419 240.817 70.0802 241.145C71.6185 241.472 71.9747 241.535 72.2248 241.575C73.1784 241.724 73.4518 241.773 74.0006 241.871C74.0653 241.882 80.9346 243.109 86.7495 243.55C87.2172 243.586 87.6059 243.611 87.9117 243.631C88.7735 243.689 91.3499 243.843 94.5866 243.852C99.3004 243.863 103.088 243.557 103.973 243.493C108.521 243.111 111.92 242.528 112.814 242.372C112.814 242.372 116.754 241.681 121.159 240.499C122.699 240.085 123.812 239.707 124.107 239.599C124.622 239.419 125.073 239.257 125.577 239.059C126.948 238.536 128.625 237.895 130.672 236.935C132.554 236.049 134.388 235.066 136.167 233.989C132.88 231.598 129.389 229.501 125.734 227.723Z" fill="#67C7EE"/>
<path d="M126.81 233.234C119.877 229.845 112.547 227.34 104.991 225.778C95.3209 224.059 85.42 224.098 75.7636 225.893C75.7241 225.56 89.189 221.199 105.335 224.4C117.931 226.89 126.934 232.955 126.81 233.234Z" fill="#DEF0F8"/>
<path d="M119.178 233.752C113.278 231.19 107.088 229.358 100.745 228.297C95.2727 227.525 89.739 227.279 84.2197 227.561C89.722 226.44 95.3854 226.358 100.918 227.32C107.39 228.151 113.613 230.343 119.178 233.752Z" fill="#DEF0F8"/>
<path d="M110.847 234.038C108.089 232.937 105.255 232.035 102.368 231.339C98.4811 230.525 94.5081 230.197 90.5403 230.362C94.5252 229.611 98.6265 229.746 102.553 230.758C105.484 231.372 108.289 232.481 110.847 234.038Z" fill="#DEF0F8"/>
<path d="M119.782 327.406L119.858 327.373C116.92 327.532 112.911 327.666 108.149 327.575C103.521 327.574 98.8985 327.268 94.3113 326.657C87.6706 325.711 83.4479 325.11 78.7215 322.494C75.1971 320.432 72.0745 317.75 69.5044 314.578C65.1864 309.45 63.0274 304.513 58.9973 292.527C55.2442 281.372 52.6246 272.317 50.5574 265.138C48.8104 259.073 46.7108 251.772 44.7245 244.849C45.1959 248.787 45.5989 251.938 45.8256 253.595C47.1192 263.067 48.4596 270.602 49.6596 277.558C51.3436 287.3 53.7185 301.487 56.4964 319.613C57.8628 321.141 59.3614 322.545 60.9745 323.809C64.8303 326.737 69.2632 328.814 73.9807 329.903C74.9163 330.148 76.3412 330.511 78.1638 330.862C88.2623 332.141 98.4819 332.141 108.58 330.862C110.678 330.457 112.764 329.903 112.764 329.903C114.71 329.366 116.625 328.721 118.499 327.971C118.609 327.926 119.266 327.649 119.444 327.56C119.444 327.56 119.609 327.478 119.773 327.407L119.782 327.406Z" fill="#3E705B"/>
<path d="M103.138 284.063C103.821 285.343 104.214 286.757 104.29 288.205C104.72 290.128 104.561 292.135 103.832 293.966C102.984 295.401 101.728 296.553 100.225 297.275C98.7218 297.997 97.0381 298.257 95.3872 298.021C93.28 297.718 91.3552 296.659 89.9723 295.04C88.9719 293.689 88.3177 292.114 88.0666 290.452C87.8156 288.79 87.9754 287.092 88.5321 285.506C88.8202 284.611 90.1508 280.417 93.6389 279.515C95.1616 279.224 96.7376 279.426 98.1379 280.091C100.219 280.788 101.989 282.194 103.138 284.063Z" fill="#1D1D1B"/>
<path d="M269.083 221.883C264.257 221.062 260.631 224.466 257.131 226.478C251.474 229.729 249.481 226.989 229.993 226.532C219.76 226.291 211.14 226.384 202.856 226.478C200.182 226.508 192.814 223.599 184.657 226.877C183.632 227.768 182.398 228.382 181.071 228.66C180.634 228.719 180.191 228.726 179.753 228.68C180.111 232.384 180.626 237.291 181.302 243.062C181.86 247.816 182.349 251.672 182.607 253.57C183.897 263.042 185.233 270.579 186.429 277.533C188.107 287.275 190.474 301.462 193.243 319.588C194.604 321.116 196.098 322.52 197.706 323.784C201.549 326.712 205.967 328.789 210.669 329.878C211.601 330.122 213.021 330.486 214.838 330.837C224.902 332.116 235.088 332.116 245.153 330.837C246.969 330.477 248.381 330.117 249.322 329.878C254.024 328.789 258.442 326.712 262.285 323.784C263.892 322.52 265.386 321.116 266.748 319.588C269.508 301.46 271.874 287.275 273.562 277.533C274.758 270.579 276.094 263.046 277.383 253.577C278.05 248.671 278.506 244.673 278.688 243.062C279.381 236.962 279.867 231.64 280.214 227.347C279.272 226.576 278.28 225.866 277.247 225.222C274.746 223.629 271.981 222.498 269.083 221.883Z" fill="#48AB85"/>
<path d="M262.387 212.588C255.276 209.634 247.742 207.831 240.067 207.247C233.192 206.514 226.256 206.544 219.387 207.335C211.962 207.86 204.678 209.636 197.84 212.588C190.863 215.778 178.571 223.317 179.833 229.196C179.964 229.801 180.502 231.627 188.304 235.231C195.44 238.455 202.981 240.686 210.719 241.864C217.486 243.135 224.352 243.798 231.236 243.843C239.239 243.891 247.219 242.995 255.013 241.173C261.94 239.551 268.532 236.727 274.491 232.829C279.578 229.463 280.082 227.955 280.191 227.036C280.962 220.589 265.878 214.092 262.387 212.588Z" fill="#3E705B"/>
<path d="M275.95 243.86C276.072 244.192 256.708 256.601 230.282 257.182C203.134 257.778 182.783 245.578 182.896 245.238C197.718 252.21 213.914 255.742 230.282 255.574C246.173 255.053 261.759 251.055 275.95 243.86Z" fill="#3E705B"/>
<path d="M262.27 227.723C256.116 224.719 249.548 222.657 242.784 221.606C237.367 220.802 231.878 220.599 226.416 221.001C221.535 221.141 216.682 221.796 211.938 222.955C206.387 224.13 201.103 226.338 196.361 229.463C193.756 231.242 191.367 233.322 189.244 235.659C191.479 236.668 193.762 237.564 196.087 238.343C196.087 238.343 199.332 239.408 203.171 240.342C204.272 240.61 205.269 240.817 206.803 241.145C208.336 241.472 208.691 241.535 208.94 241.575C209.89 241.724 210.163 241.773 210.71 241.871C210.774 241.882 217.621 243.109 223.416 243.55C223.882 243.586 224.27 243.611 224.575 243.631C225.433 243.689 228.001 243.843 231.227 243.852C235.925 243.863 239.7 243.557 240.582 243.493C245.115 243.111 248.502 242.528 249.394 242.372C249.394 242.372 253.321 241.681 257.71 240.499C259.245 240.085 260.355 239.707 260.649 239.599C261.162 239.419 261.612 239.257 262.114 239.059C263.481 238.536 265.152 237.895 267.193 236.935C269.068 236.049 270.896 235.066 272.669 233.989C269.393 231.598 265.913 229.501 262.27 227.723Z" fill="#67C7EE"/>
<path d="M263.343 233.234C256.434 229.845 249.128 227.34 241.597 225.778C231.959 224.059 222.091 224.098 212.467 225.893C212.428 225.56 225.848 221.199 241.94 224.4C254.493 226.89 263.466 232.955 263.343 233.234Z" fill="#DEF0F8"/>
<path d="M255.736 233.752C249.857 231.19 243.687 229.358 237.365 228.297C231.911 227.525 226.396 227.279 220.895 227.561C226.379 226.44 232.023 226.358 237.537 227.32C243.988 228.151 250.19 230.343 255.736 233.752Z" fill="#DEF0F8"/>
<path d="M247.434 234.038C244.685 232.937 241.86 232.035 238.982 231.339C235.108 230.525 231.149 230.197 227.194 230.362C231.166 229.611 235.253 229.746 239.167 230.758C242.089 231.372 244.884 232.481 247.434 234.038Z" fill="#DEF0F8"/>
<path d="M256.339 327.406L256.414 327.373C253.486 327.532 249.49 327.666 244.744 327.575C240.132 327.574 235.525 327.268 230.953 326.657C224.334 325.711 220.126 325.11 215.415 322.494C211.902 320.432 208.79 317.75 206.229 314.578C201.925 309.45 199.773 304.513 195.757 292.527C192.016 281.372 189.405 272.317 187.345 265.138C185.604 259.073 183.511 251.772 181.531 244.849C182.001 248.787 182.403 251.938 182.629 253.595C183.918 263.067 185.254 270.602 186.45 277.558C188.129 287.3 190.496 301.487 193.264 319.613C194.626 321.141 196.12 322.545 197.727 323.809C201.57 326.737 205.988 328.814 210.69 329.903C211.623 330.148 213.043 330.511 214.859 330.862C224.924 332.141 235.109 332.141 245.174 330.862C247.265 330.457 249.343 329.903 249.343 329.903C251.283 329.366 253.192 328.721 255.06 327.971C255.169 327.926 255.824 327.649 256.001 327.56C256.001 327.56 256.166 327.478 256.33 327.407L256.339 327.406Z" fill="#3E705B"/>
<path d="M217.065 272.861C216.798 274.302 216.22 275.666 215.37 276.86C214.498 278.646 213.108 280.128 211.381 281.111C209.807 281.709 208.091 281.827 206.45 281.448C204.81 281.069 203.319 280.212 202.166 278.984C200.696 277.419 199.846 275.371 199.775 273.225C199.836 271.529 200.313 269.874 201.163 268.405C202.012 266.935 203.209 265.697 204.648 264.798C205.735 263.947 207.009 263.366 208.364 263.104C209.72 262.842 211.118 262.906 212.444 263.289C213.832 264.014 214.952 265.164 215.641 266.57C216.839 268.435 217.343 270.662 217.065 272.861Z" fill="#1D1D1B"/>
<path d="M243.95 313.713C242.824 312.835 241.905 311.72 241.257 310.448C240.104 308.888 239.448 307.017 239.375 305.079C239.568 303.448 240.241 301.911 241.308 300.663C242.375 299.415 243.789 298.511 245.37 298.067C247.387 297.5 249.541 297.688 251.43 298.594C252.867 299.413 254.081 300.572 254.967 301.969C255.853 303.365 256.384 304.958 256.512 306.607C256.758 307.931 256.685 309.294 256.301 310.585C255.917 311.876 255.231 313.057 254.301 314.03C253.048 314.9 251.551 315.349 250.027 315.312C247.876 315.507 245.726 314.941 243.95 313.713Z" fill="#1D1D1B"/>
<path d="M405.86 221.883C401.019 221.063 397.381 224.467 393.869 226.478C388.192 229.729 386.193 226.989 366.639 226.532C356.371 226.291 347.722 226.385 339.41 226.478C336.727 226.509 329.334 223.6 321.15 226.878C320.122 227.769 318.883 228.382 317.551 228.661C317.113 228.72 316.669 228.726 316.229 228.681C316.589 232.385 317.105 237.292 317.784 243.063C318.343 247.817 318.834 251.673 319.093 253.571C320.387 263.044 321.727 270.581 322.927 277.535C324.612 287.277 326.986 301.464 329.764 319.591C331.131 321.119 332.629 322.523 334.243 323.787C338.099 326.715 342.532 328.792 347.249 329.881C348.185 330.126 349.61 330.489 351.432 330.84C361.531 332.119 371.751 332.119 381.85 330.84C383.672 330.48 385.088 330.12 386.033 329.881C390.751 328.792 395.184 326.715 399.04 323.787C400.653 322.523 402.151 321.119 403.518 319.591C406.287 301.462 408.662 287.277 410.355 277.535C411.555 270.581 412.895 263.047 414.189 253.578C414.858 248.672 415.315 244.674 415.499 243.063C416.193 236.962 416.681 231.64 417.03 227.347C416.084 226.576 415.089 225.866 414.052 225.222C411.543 223.629 408.768 222.498 405.86 221.883Z" fill="#48AB85"/>
<path d="M399.142 212.588C392.007 209.634 384.448 207.831 376.747 207.247C369.848 206.514 362.89 206.544 355.997 207.335C348.547 207.86 341.238 209.636 334.378 212.588C327.377 215.778 315.043 223.317 316.31 229.197C316.441 229.801 316.981 231.628 324.81 235.231C331.97 238.456 339.536 240.687 347.3 241.865C354.089 243.136 360.979 243.799 367.886 243.844C375.916 243.892 383.923 242.996 391.744 241.174C398.694 239.552 405.308 236.728 411.287 232.83C416.391 229.463 416.897 227.955 417.007 227.036C417.78 220.589 402.645 214.093 399.142 212.588Z" fill="#3E705B"/>
<path d="M412.751 243.861C412.874 244.193 393.444 256.603 366.929 257.184C339.689 257.779 319.27 245.579 319.383 245.239C334.254 252.211 350.505 255.744 366.929 255.575C382.874 255.054 398.513 251.056 412.751 243.861Z" fill="#3E705B"/>
<path d="M399.025 227.723C392.85 224.719 386.26 222.657 379.473 221.606C374.038 220.802 368.53 220.6 363.05 221.002C358.153 221.141 353.283 221.796 348.523 222.955C342.953 224.131 337.652 226.338 332.893 229.463C330.279 231.243 327.883 233.323 325.752 235.66C327.995 236.669 330.286 237.565 332.618 238.344C332.618 238.344 335.875 239.409 339.727 240.343C340.832 240.611 341.832 240.818 343.37 241.146C344.909 241.473 345.265 241.536 345.515 241.576C346.468 241.725 346.742 241.773 347.291 241.872C347.355 241.883 354.225 243.11 360.04 243.551C360.508 243.587 360.896 243.612 361.202 243.632C362.064 243.69 364.641 243.844 367.877 243.853C372.591 243.864 376.379 243.558 377.264 243.493C381.812 243.112 385.211 242.529 386.105 242.373C386.105 242.373 390.045 241.682 394.45 240.5C395.99 240.086 397.104 239.708 397.399 239.6C397.913 239.42 398.365 239.258 398.869 239.06C400.24 238.537 401.917 237.896 403.964 236.935C405.845 236.049 407.68 235.066 409.459 233.99C406.172 231.598 402.681 229.501 399.025 227.723Z" fill="#67C7EE"/>
<path d="M400.101 233.234C393.169 229.846 385.839 227.341 378.282 225.778C368.612 224.06 358.711 224.099 349.054 225.894C349.014 225.561 362.48 221.199 378.626 224.4C391.222 226.89 400.225 232.955 400.101 233.234Z" fill="#DEF0F8"/>
<path d="M392.469 233.753C386.57 231.191 380.379 229.359 374.036 228.297C368.563 227.526 363.03 227.28 357.51 227.561C363.013 226.441 368.676 226.359 374.209 227.32C380.681 228.152 386.904 230.344 392.469 233.753Z" fill="#DEF0F8"/>
<path d="M384.139 234.039C381.38 232.937 378.546 232.035 375.659 231.34C371.772 230.526 367.799 230.198 363.831 230.363C367.816 229.612 371.917 229.747 375.844 230.759C378.775 231.372 381.58 232.481 384.139 234.039Z" fill="#DEF0F8"/>
<path d="M393.073 327.409L393.149 327.376C390.211 327.535 386.202 327.67 381.44 327.578C376.812 327.578 372.189 327.271 367.602 326.66C360.961 325.714 356.738 325.113 352.012 322.497C348.487 320.435 345.365 317.753 342.794 314.58C338.476 309.453 336.317 304.516 332.287 292.529C328.534 281.374 325.914 272.319 323.847 265.14C322.1 259.075 320 251.773 318.014 244.85C318.485 248.789 318.888 251.939 319.115 253.596C320.409 263.069 321.749 270.604 322.949 277.56C324.633 287.303 327.008 301.489 329.786 319.616C331.153 321.144 332.651 322.548 334.264 323.812C338.12 326.74 342.553 328.817 347.271 329.906C348.207 330.151 349.631 330.514 351.454 330.865C361.553 332.144 371.773 332.144 381.872 330.865C383.969 330.46 386.055 329.906 386.055 329.906C388.001 329.369 389.916 328.724 391.791 327.974C391.9 327.929 392.557 327.652 392.735 327.563C392.735 327.563 392.901 327.481 393.064 327.411L393.073 327.409Z" fill="#3E705B"/>
<path d="M371.808 284.422C372.491 285.702 372.884 287.116 372.961 288.564C373.391 290.487 373.231 292.494 372.503 294.325C371.654 295.76 370.399 296.912 368.896 297.634C367.392 298.356 365.709 298.616 364.058 298.38C361.95 298.077 360.026 297.018 358.643 295.399C357.642 294.048 356.988 292.473 356.737 290.811C356.486 289.149 356.646 287.451 357.203 285.865C357.491 284.97 358.821 280.776 362.309 279.874C363.832 279.583 365.408 279.785 366.808 280.45C368.889 281.147 370.659 282.553 371.808 284.422Z" fill="#1D1D1B"/>
<path d="M349.911 270.46C349.645 271.901 349.067 273.265 348.217 274.459C347.345 276.245 345.955 277.726 344.228 278.71C342.654 279.308 340.938 279.425 339.297 279.047C337.656 278.668 336.165 277.81 335.013 276.583C333.542 275.017 332.692 272.97 332.622 270.823C332.683 269.128 333.16 267.473 334.009 266.003C334.859 264.534 336.056 263.296 337.495 262.396C338.582 261.546 339.856 260.965 341.211 260.703C342.567 260.441 343.965 260.504 345.291 260.888C346.679 261.613 347.799 262.763 348.488 264.169C349.686 266.034 350.19 268.261 349.911 270.46Z" fill="#1D1D1B"/>
<path d="M383.997 316.112C382.871 315.234 381.952 314.119 381.304 312.847C380.15 311.287 379.494 309.416 379.422 307.478C379.615 305.847 380.288 304.31 381.355 303.062C382.422 301.814 383.836 300.91 385.417 300.466C387.434 299.899 389.588 300.087 391.477 300.993C392.914 301.812 394.128 302.971 395.014 304.367C395.9 305.764 396.43 307.357 396.559 309.006C396.805 310.33 396.732 311.693 396.348 312.984C395.963 314.275 395.278 315.455 394.348 316.429C393.095 317.299 391.598 317.748 390.074 317.711C387.923 317.905 385.773 317.34 383.997 316.112Z" fill="#1D1D1B"/>
<path d="M542.674 221.883C537.832 221.062 534.194 224.466 530.682 226.478C525.006 229.729 523.007 226.989 503.454 226.532C493.186 226.291 484.537 226.384 476.225 226.478C473.543 226.508 466.15 223.599 457.966 226.877C456.937 227.768 455.699 228.382 454.367 228.66C453.929 228.719 453.485 228.726 453.045 228.68C453.405 232.384 453.921 237.291 454.599 243.062C455.159 247.816 455.65 251.672 455.909 253.57C457.203 263.042 458.543 270.579 459.743 277.533C461.427 287.275 463.802 301.462 466.58 319.588C467.946 321.116 469.445 322.52 471.058 323.784C474.914 326.712 479.347 328.789 484.064 329.878C485 330.122 486.425 330.486 488.247 330.837C498.346 332.116 508.565 332.116 518.664 330.837C520.487 330.477 521.902 330.117 522.847 329.878C527.564 328.789 531.997 326.712 535.853 323.784C537.466 322.52 538.965 321.116 540.331 319.588C543.1 301.46 545.475 287.275 547.168 277.533C548.368 270.579 549.709 263.046 551.002 253.577C551.671 248.671 552.128 244.673 552.312 243.062C553.006 236.962 553.494 231.64 553.843 227.347C552.897 226.576 551.902 225.866 550.865 225.222C548.356 223.629 545.582 222.498 542.674 221.883Z" fill="#48AB85"/>
<path d="M535.956 212.588C528.821 209.634 521.262 207.831 513.562 207.247C506.663 206.514 499.704 206.544 492.812 207.335C485.362 207.86 478.053 209.636 471.193 212.588C464.192 215.778 451.859 223.317 453.126 229.196C453.257 229.801 453.797 231.627 461.625 235.231C468.785 238.455 476.351 240.686 484.115 241.864C490.904 243.135 497.793 243.798 504.701 243.843C512.73 243.891 520.737 242.995 528.558 241.173C535.508 239.551 542.121 236.727 548.1 232.829C553.204 229.463 553.71 227.955 553.82 227.036C554.593 220.589 539.459 214.092 535.956 212.588Z" fill="#3E705B"/>
<path d="M549.565 243.86C549.687 244.192 530.258 256.601 503.744 257.182C476.504 257.778 456.085 245.578 456.199 245.238C471.07 252.21 487.32 255.742 503.744 255.574C519.688 255.053 535.326 251.055 549.565 243.86Z" fill="#3E705B"/>
<path d="M535.839 227.723C529.664 224.719 523.073 222.657 516.287 221.606C510.852 220.802 505.344 220.599 499.865 221.001C494.967 221.141 490.098 221.796 485.338 222.955C479.768 224.13 474.467 226.338 469.709 229.463C467.095 231.242 464.698 233.322 462.568 235.659C464.81 236.668 467.101 237.564 469.433 238.343C469.433 238.343 472.69 239.408 476.542 240.342C477.647 240.61 478.647 240.817 480.185 241.145C481.724 241.472 482.08 241.535 482.33 241.575C483.283 241.724 483.557 241.773 484.106 241.871C484.17 241.882 491.04 243.109 496.855 243.55C497.322 243.586 497.711 243.611 498.017 243.631C498.879 243.689 501.455 243.843 504.692 243.852C509.406 243.863 513.193 243.557 514.078 243.493C518.626 243.111 522.025 242.528 522.919 242.372C522.919 242.372 526.859 241.681 531.264 240.499C532.804 240.085 533.917 239.707 534.212 239.599C534.727 239.419 535.179 239.257 535.682 239.059C537.053 238.536 538.73 237.895 540.778 236.935C542.659 236.049 544.493 235.066 546.272 233.989C542.985 231.598 539.494 229.501 535.839 227.723Z" fill="#67C7EE"/>
<path d="M536.915 233.234C529.983 229.845 522.652 227.34 515.096 225.778C505.426 224.059 495.525 224.098 485.869 225.893C485.829 225.56 499.294 221.199 515.44 224.4C528.036 226.89 537.039 232.955 536.915 233.234Z" fill="#DEF0F8"/>
<path d="M529.283 233.752C523.383 231.19 517.193 229.358 510.85 228.297C505.378 227.525 499.844 227.279 494.325 227.561C499.827 226.44 505.491 226.358 511.023 227.32C517.495 228.151 523.718 230.343 529.283 233.752Z" fill="#DEF0F8"/>
<path d="M520.952 234.038C518.194 232.937 515.36 232.035 512.473 231.339C508.586 230.525 504.613 230.197 500.645 230.362C504.63 229.611 508.731 229.746 512.658 230.758C515.589 231.372 518.394 232.481 520.952 234.038Z" fill="#DEF0F8"/>
<path d="M529.887 327.406L529.963 327.373C527.025 327.532 523.016 327.666 518.254 327.575C513.626 327.574 509.004 327.268 504.416 326.657C497.776 325.711 493.553 325.11 488.827 322.494C485.302 320.432 482.18 317.75 479.609 314.578C475.291 309.45 473.132 304.513 469.102 292.527C465.349 281.372 462.73 272.317 460.662 265.138C458.915 259.073 456.816 251.772 454.83 244.849C455.301 248.787 455.704 251.938 455.931 253.595C457.224 263.067 458.565 270.602 459.765 277.558C461.449 287.3 463.824 301.487 466.602 319.613C467.968 321.141 469.466 322.545 471.08 323.809C474.935 326.737 479.368 328.814 484.086 329.903C485.021 330.148 486.446 330.511 488.269 330.862C498.367 332.141 508.587 332.141 518.686 330.862C520.783 330.457 522.869 329.903 522.869 329.903C524.815 329.366 526.73 328.721 528.604 327.971C528.714 327.926 529.371 327.649 529.549 327.56C529.549 327.56 529.714 327.478 529.878 327.407L529.887 327.406Z" fill="#3E705B"/>
<path d="M497.94 272.519C497.674 273.96 497.096 275.324 496.246 276.518C495.374 278.304 493.984 279.785 492.256 280.769C490.683 281.367 488.966 281.484 487.326 281.106C485.685 280.727 484.194 279.869 483.042 278.642C481.571 277.076 480.721 275.029 480.65 272.882C480.712 271.186 481.189 269.531 482.038 268.062C482.888 266.593 484.084 265.355 485.523 264.455C486.611 263.605 487.885 263.024 489.24 262.762C490.595 262.5 491.994 262.563 493.32 262.947C494.708 263.672 495.828 264.822 496.516 266.228C497.714 268.093 498.218 270.32 497.94 272.519Z" fill="#1D1D1B"/>
<path d="M531.901 277.297C530.854 278.371 529.583 279.201 528.179 279.729C526.418 280.752 524.389 281.22 522.358 281.072C520.678 280.682 519.151 279.802 517.971 278.543C516.792 277.284 516.013 275.703 515.734 274.001C515.379 271.834 515.823 269.612 516.984 267.748C518.003 266.341 519.351 265.205 520.91 264.439C522.469 263.673 524.192 263.3 525.928 263.353C527.339 263.251 528.754 263.485 530.057 264.036C531.36 264.587 532.514 265.44 533.422 266.524C534.187 267.932 534.482 269.546 534.265 271.133C534.223 273.401 533.386 275.582 531.901 277.297Z" fill="#1D1D1B"/>
<path d="M483.6 299.844C484.733 299.116 486.013 298.646 487.348 298.468C489.098 297.928 490.969 297.928 492.719 298.468C494.111 299.15 495.27 300.23 496.048 301.571C496.826 302.912 497.189 304.454 497.09 306.001C496.965 307.975 496.125 309.836 494.726 311.235C493.547 312.26 492.135 312.98 490.613 313.334C489.091 313.687 487.506 313.662 485.996 313.262C485.148 313.064 481.161 312.135 480.072 308.978C479.687 307.589 479.756 306.114 480.267 304.767C480.766 302.785 481.946 301.043 483.6 299.844Z" fill="#1D1D1B"/>
<path d="M519.917 313.726C518.792 312.848 517.872 311.733 517.225 310.46C516.071 308.901 515.415 307.03 515.342 305.092C515.536 303.461 516.209 301.924 517.276 300.676C518.343 299.428 519.756 298.524 521.337 298.079C523.354 297.513 525.509 297.7 527.398 298.607C528.834 299.426 530.049 300.584 530.935 301.981C531.821 303.378 532.351 304.971 532.48 306.62C532.725 307.944 532.653 309.307 532.269 310.598C531.884 311.888 531.199 313.069 530.269 314.043C529.016 314.913 527.519 315.362 525.994 315.324C523.844 315.519 521.693 314.954 519.917 313.726Z" fill="#1D1D1B"/>
<path d="M816.304 221.883C811.462 221.063 807.824 224.467 804.312 226.478C798.635 229.729 796.637 226.989 777.083 226.532C766.815 226.291 758.166 226.385 749.853 226.478C747.171 226.509 739.778 223.6 731.593 226.878C730.565 227.769 729.326 228.382 727.995 228.661C727.556 228.72 727.112 228.726 726.672 228.681C727.032 232.385 727.549 237.292 728.227 243.063C728.786 247.817 729.278 251.673 729.537 253.571C730.83 263.044 732.171 270.581 733.371 277.535C735.055 287.277 737.43 301.464 740.208 319.591C741.574 321.119 743.073 322.523 744.686 323.787C748.542 326.715 752.975 328.792 757.693 329.881C758.628 330.126 760.053 330.489 761.876 330.84C771.975 332.119 782.194 332.119 792.293 330.84C794.116 330.48 795.532 330.12 796.476 329.881C801.194 328.792 805.627 326.715 809.483 323.787C811.096 322.523 812.595 321.119 813.961 319.591C816.73 301.462 819.105 287.277 820.798 277.535C821.998 270.581 823.339 263.047 824.632 253.578C825.302 248.672 825.759 244.674 825.942 243.063C826.637 236.962 827.124 231.64 827.473 227.347C826.527 226.576 825.533 225.866 824.496 225.222C821.986 223.629 819.212 222.498 816.304 221.883Z" fill="#48AB85"/>
<path d="M809.585 212.588C802.45 209.634 794.891 207.831 787.191 207.247C780.292 206.514 773.333 206.544 766.44 207.335C758.99 207.86 751.681 209.636 744.821 212.588C737.82 215.778 725.487 223.317 726.753 229.197C726.885 229.801 727.424 231.628 735.253 235.231C742.413 238.456 749.979 240.687 757.743 241.865C764.533 243.136 771.422 243.799 778.33 243.844C786.359 243.892 794.367 242.996 802.187 241.174C809.138 239.552 815.751 236.728 821.73 232.83C826.835 229.463 827.34 227.955 827.45 227.036C828.224 220.589 813.089 214.093 809.585 212.588Z" fill="#3E705B"/>
<path d="M823.195 243.861C823.317 244.193 803.887 256.603 777.372 257.184C750.132 257.779 729.713 245.579 729.826 245.239C744.698 252.211 760.949 255.744 777.372 255.575C793.317 255.054 808.956 251.056 823.195 243.861Z" fill="#3E705B"/>
<path d="M809.469 227.723C803.293 224.719 796.703 222.657 789.916 221.606C784.481 220.802 778.973 220.6 773.493 221.002C768.596 221.141 763.727 221.796 758.966 222.955C753.396 224.131 748.095 226.338 743.337 229.463C740.723 231.243 738.326 233.323 736.196 235.66C738.438 236.669 740.729 237.565 743.061 238.344C743.061 238.344 746.318 239.409 750.17 240.343C751.275 240.611 752.275 240.818 753.813 241.146C755.352 241.473 755.708 241.536 755.958 241.576C756.912 241.725 757.185 241.773 757.734 241.872C757.799 241.883 764.668 243.11 770.483 243.551C770.951 243.587 771.34 243.612 771.645 243.632C772.507 243.69 775.084 243.844 778.321 243.853C783.034 243.864 786.822 243.558 787.707 243.493C792.255 243.112 795.654 242.529 796.548 242.373C796.548 242.373 800.489 241.682 804.893 240.5C806.433 240.086 807.547 239.708 807.842 239.6C808.357 239.42 808.808 239.258 809.312 239.06C810.683 238.537 812.36 237.896 814.407 236.935C816.289 236.049 818.123 235.066 819.902 233.99C816.615 231.598 813.124 229.501 809.469 227.723Z" fill="#67C7EE"/>
<path d="M810.544 233.234C803.612 229.846 796.282 227.341 788.725 225.778C779.055 224.06 769.154 224.099 759.497 225.894C759.458 225.561 772.923 221.199 789.069 224.4C801.665 226.89 810.669 232.955 810.544 233.234Z" fill="#DEF0F8"/>
<path d="M802.912 233.753C797.013 231.191 790.823 229.359 784.479 228.297C779.007 227.526 773.473 227.28 767.953 227.561C773.456 226.441 779.119 226.359 784.652 227.32C791.124 228.152 797.348 230.344 802.912 233.753Z" fill="#DEF0F8"/>
<path d="M794.582 234.039C791.824 232.937 788.99 232.035 786.102 231.34C782.215 230.526 778.242 230.198 774.274 230.363C778.259 229.612 782.361 229.747 786.288 230.759C789.219 231.372 792.024 232.481 794.582 234.039Z" fill="#DEF0F8"/>
<path d="M803.517 327.409L803.592 327.376C800.654 327.535 796.646 327.67 791.883 327.578C787.255 327.578 782.633 327.271 778.045 326.66C771.404 325.714 767.182 325.113 762.455 322.497C758.931 320.435 755.808 317.753 753.238 314.58C748.92 309.453 746.761 304.516 742.73 292.529C738.977 281.374 736.357 272.319 734.29 265.14C732.543 259.075 730.443 251.773 728.457 244.85C728.929 248.789 729.332 251.939 729.558 253.596C730.852 263.069 732.192 270.604 733.392 277.56C735.076 287.303 737.451 301.489 740.229 319.616C741.596 321.144 743.094 322.548 744.708 323.812C748.564 326.74 752.997 328.817 757.714 329.906C758.65 330.151 760.075 330.514 761.897 330.865C771.996 332.144 782.216 332.144 792.315 330.865C794.413 330.46 796.498 329.906 796.498 329.906C798.444 329.369 800.359 328.724 802.234 327.974C802.344 327.929 803 327.652 803.178 327.563C803.178 327.563 803.344 327.481 803.508 327.411L803.517 327.409Z" fill="#3E705B"/>
<path d="M773.972 269.74C773.729 271.181 773.202 272.545 772.427 273.739C771.631 275.525 770.363 277.006 768.787 277.99C767.352 278.588 765.786 278.705 764.29 278.327C762.793 277.948 761.433 277.09 760.382 275.863C759.04 274.297 758.265 272.25 758.2 270.103C758.257 268.407 758.691 266.753 759.466 265.283C760.241 263.814 761.333 262.576 762.646 261.676C763.638 260.826 764.799 260.245 766.036 259.983C767.272 259.721 768.548 259.784 769.758 260.168C771.024 260.893 772.045 262.043 772.673 263.449C773.766 265.314 774.226 267.541 773.972 269.74Z" fill="#1D1D1B"/>
<path d="M805.687 273.715C804.64 274.673 803.369 275.413 801.965 275.884C800.204 276.795 798.175 277.213 796.144 277.081C794.464 276.733 792.937 275.949 791.757 274.826C790.578 273.704 789.799 272.295 789.519 270.777C789.165 268.845 789.609 266.864 790.77 265.203C791.789 263.949 793.136 262.936 794.696 262.253C796.255 261.57 797.978 261.238 799.714 261.285C801.125 261.194 802.54 261.402 803.843 261.894C805.146 262.385 806.299 263.146 807.208 264.112C807.973 265.367 808.268 266.806 808.051 268.221C808.009 270.243 807.172 272.187 805.687 273.715Z" fill="#1D1D1B"/>
<path d="M760.534 305.802C761.667 305.059 762.947 304.58 764.282 304.398C766.032 303.847 767.903 303.847 769.653 304.398C771.045 305.094 772.204 306.196 772.982 307.565C773.76 308.934 774.123 310.508 774.024 312.087C773.899 314.102 773.059 316.001 771.661 317.429C770.481 318.476 769.069 319.211 767.547 319.572C766.026 319.932 764.44 319.907 762.93 319.498C762.082 319.296 758.095 318.348 757.006 315.126C756.621 313.708 756.69 312.203 757.201 310.828C757.7 308.805 758.88 307.026 760.534 305.802Z" fill="#1D1D1B"/>
<path d="M793.975 319.658C792.85 318.796 791.93 317.702 791.283 316.453C790.129 314.922 789.473 313.086 789.4 311.183C789.594 309.582 790.267 308.074 791.334 306.848C792.401 305.623 793.814 304.736 795.395 304.3C797.412 303.744 799.567 303.928 801.456 304.817C802.892 305.621 804.107 306.759 804.993 308.13C805.879 309.501 806.409 311.064 806.538 312.683C806.783 313.983 806.711 315.321 806.327 316.588C805.942 317.855 805.257 319.014 804.327 319.97C803.074 320.824 801.577 321.264 800.052 321.228C797.902 321.419 795.751 320.863 793.975 319.658Z" fill="#1D1D1B"/>
<path d="M768.336 299.138C767.019 299.274 765.689 299.11 764.439 298.655C762.669 298.335 761.033 297.469 759.744 296.169C758.829 294.905 758.296 293.387 758.212 291.808C758.128 290.229 758.498 288.66 759.273 287.299C760.262 285.562 761.827 284.26 763.675 283.637C765.161 283.25 766.716 283.247 768.204 283.628C769.692 284.008 771.068 284.761 772.212 285.82C773.224 286.579 774.049 287.577 774.617 288.732C775.185 289.887 775.481 291.166 775.48 292.463C775.198 293.902 774.481 295.21 773.434 296.196C772.119 297.767 770.315 298.809 768.336 299.138Z" fill="#1D1D1B"/>
<path d="M800.466 283.496C801.785 283.822 803.015 284.426 804.07 285.266C805.674 286.161 806.964 287.508 807.772 289.131C808.231 290.592 808.236 292.154 807.787 293.618C807.337 295.082 806.452 296.382 805.245 297.355C803.705 298.594 801.755 299.243 799.761 299.18C798.194 299.023 796.69 298.494 795.381 297.638C794.071 296.782 792.996 295.626 792.25 294.27C791.527 293.235 791.065 292.046 790.904 290.802C790.743 289.558 790.887 288.294 791.324 287.115C792.083 285.903 793.218 284.959 794.564 284.419C796.361 283.448 798.449 283.121 800.466 283.496Z" fill="#1D1D1B"/>
</svg>
