<svg viewBox="0 0 1032 647" fill="none" xmlns="http://www.w3.org/2000/svg">
    <path d="M924.774 17.2201H104.036C54.8774 17.2201 15.0264 57.071 15.0264 106.23V544.805C15.0264 593.963 54.8774 633.814 104.036 633.814H924.774C973.932 633.814 1013.79 593.963 1013.79 544.805V106.23C1013.79 57.071 973.932 17.2201 924.774 17.2201Z" fill="#CBEAEE"/>
    <path d="M1031.06 508.657C1030.21 481.065 1021.98 473.871 1024.39 446.434C1025.49 433.858 1027.26 434.984 1028.83 421.101C1031.72 395.667 1026.95 381.77 1024.39 359.323C1022.8 345.416 1023.92 325.904 1026.17 286.879C1028.73 242.246 1031.06 243.022 1030.61 219.323C1030.28 201.726 1029.06 205.174 1026.17 157.99C1024.39 129.005 1023.5 114.512 1023.5 110.879C1023.51 93.6956 1024.74 85.3111 1021.28 73.101C1018.11 61.9159 1012.68 53.2935 1007.99 47.2729C1005.16 43.2766 1001.82 39.1913 998.437 35.0709C991.638 26.7997 985.922 19.8462 975.919 13.4412C966.133 7.17563 954.829 3.09036 937.993 0.996789C909.126 -2.59263 903.444 4.57821 868.956 5.73751C862.306 5.96102 840.424 4.50381 796.659 1.58938C783.135 0.688749 774.602 0.0545892 761.993 0.700529C745.807 1.52963 739.44 3.6207 722.289 5.14493C706.38 6.55875 695.14 6.24527 683.178 6.03385C628.609 5.06937 582.029 4.21604 538.881 6.33011C490.225 8.71408 496.614 12.3676 463.326 12.2561C412.351 12.0852 409.203 3.55746 363.474 5.14492C324.644 6.49288 317.229 12.9779 280.807 10.182C261.428 8.6943 256.411 6.31204 231.919 5.14492C203.023 3.76803 203.472 6.77248 172.363 5.73751C147.8 4.92031 138.177 2.73629 111.03 3.36715C107.654 3.44558 96.1831 3.78146 81.4 6.3301C59.8689 10.0421 51.0923 15.0549 46.2307 19.5527C40.1836 24.8211 32.2682 32.7638 24.9556 43.8159C14.3007 59.9195 10.4142 74.4994 6.73337 88.7048C3.61368 100.744 -0.580042 116.929 0.066688 138.038C0.912028 165.629 9.14451 172.824 6.73338 200.26C5.62822 212.837 3.86461 211.711 2.28892 225.594C-0.597862 251.028 4.1732 264.925 6.73338 287.371C8.31956 301.278 7.19822 320.791 4.95561 359.816C2.39066 404.449 0.058198 403.673 0.511148 427.371C0.847448 444.969 2.05949 441.521 4.95561 488.705C6.73472 517.69 7.62425 532.182 7.62224 535.816C7.6126 553.226 6.48027 561.459 9.84447 573.594C13.5773 587.058 20.5189 596.935 25.7233 603.114C27.836 605.867 30.1149 608.652 32.4179 611.454C39.2171 619.725 44.9331 626.678 54.9364 633.083C64.7222 639.349 76.0256 643.434 92.8624 645.528C121.729 649.117 127.411 641.946 161.899 640.787C168.549 640.563 190.431 642.021 234.196 644.935C247.72 645.836 256.253 646.47 268.862 645.824C285.048 644.995 291.415 642.904 308.566 641.38C324.475 639.966 335.715 640.279 347.677 640.491C402.246 641.455 448.825 642.308 491.973 640.194C540.63 637.81 534.241 634.157 567.529 634.268C618.504 634.439 621.652 642.967 667.381 641.38C706.211 640.032 713.626 633.547 750.048 636.342C769.427 637.83 774.444 640.212 798.936 641.38C827.832 642.756 827.383 639.752 858.492 640.787C883.055 641.604 892.678 643.788 919.825 643.157C923.201 643.079 934.672 642.743 949.455 640.194C968.665 636.883 977.722 632.535 982.904 628.442L982.904 628.442L982.906 628.44C983.236 628.18 983.546 627.921 983.846 627.663C990.131 622.426 998.518 614.348 1006.17 602.879C1016.76 586.992 1020.61 572.573 1024.39 557.99C1027.51 545.95 1031.7 529.765 1031.06 508.657ZM1003.95 562.879C1000.57 573.512 998.066 581.274 991.945 590.434C984.322 601.843 975.33 609.109 969.137 613.34C964.826 615.766 956.986 619.62 945.307 623.305C936.599 626.053 929.761 626.201 919.233 626.268C889.01 626.462 863.508 625.769 859.973 625.676C824.273 624.736 825.278 627.222 800.122 625.676C775.93 624.189 770.705 621.67 751.233 619.75C716.074 616.284 708.516 622.074 665.603 623.305C621.806 624.562 620.036 618.808 567.529 618.565C536.692 618.422 541.951 620.428 492.27 622.12C437.928 623.971 374.785 623.507 347.381 623.305C331.11 623.186 320.282 623.184 304.063 624.218C279.847 625.76 270.877 628.457 237.751 626.861C187.408 624.436 180.983 618.306 149.455 622.713C136.703 624.495 118.972 628.123 95.529 623.898C73.595 619.945 63.47 612.148 58.7882 607.898C54.6057 604.102 47.6691 591.773 42.7882 584.194C42.3872 583.572 41.086 580.834 38.6401 577.676C36.8412 575.353 34.5615 572.415 31.959 570.366L31.9519 570.356C24.2143 558.788 26.0488 545.276 26.7334 538.927C28.6401 521.242 25.4243 503.375 24.9556 485.594C24.117 453.775 20.352 455.257 19.1778 426.038C18.4084 406.894 20.0437 406.733 22.7334 357.149C25.0015 315.337 25.6833 294.492 24.9556 287.371C22.476 263.109 17.3465 250.289 20.0667 224.26C21.6226 209.372 23.5518 211.166 24.5111 198.038C25.1793 188.894 24.4448 180.8 24.3808 180.119C22.7995 163.285 18.9044 150.571 17.8593 137.149C16.3614 117.913 21.153 102.808 27.1777 83.8159C30.4995 73.3445 33.0503 65.5207 39.1777 56.2603C46.7214 44.8597 55.596 37.4922 61.8291 33.1219C66.1632 30.6934 73.9674 26.873 85.5482 23.219C94.2562 20.4715 101.094 20.3236 111.622 20.2561C141.845 20.0622 167.347 20.7556 170.882 20.8487C206.581 21.7883 205.577 19.3029 230.733 20.8487C254.925 22.3351 260.15 24.8549 279.622 26.7746C314.781 30.2406 322.339 24.4504 365.252 23.219C409.048 21.9623 410.819 27.7166 463.326 27.9597C494.163 28.1026 488.904 26.0963 538.585 24.4042C592.927 22.5534 656.07 23.0176 683.474 23.219C699.744 23.3387 710.573 23.34 726.792 22.3067C751.008 20.764 759.977 18.0678 793.104 19.6635C843.447 22.0885 849.872 28.2181 881.4 23.8116C894.152 22.0294 911.883 18.4017 935.326 22.6264C957.26 26.5792 967.385 34.3769 972.067 38.6264C976.249 42.4228 983.186 54.751 988.067 62.3301C988.468 62.9529 989.769 65.6905 992.215 68.8487C994.083 71.2611 996.472 74.3329 999.2 76.3869C1006.9 87.9442 1005.07 101.428 1004.39 107.768C1002.48 125.453 1005.7 143.319 1006.17 161.101C1007.01 192.919 1010.77 191.438 1011.95 220.657C1012.71 239.8 1011.08 239.962 1008.39 289.545C1006.12 331.357 1005.44 352.203 1006.17 359.323C1008.65 383.585 1013.78 396.406 1011.06 422.434C1009.5 437.323 1007.57 435.528 1006.61 448.657C1005.94 457.801 1006.68 465.894 1006.74 466.576C1008.32 483.41 1012.22 496.124 1013.26 509.546C1014.76 528.782 1009.97 543.886 1003.95 562.879H1003.95Z" fill="#D75047"/>
    <path d="M268.841 15.6632C268.722 18.348 268.295 20.2509 267.844 21.5936C268.536 20.2536 269.348 18.2487 269.548 15.7418C269.777 12.8697 269.119 10.4161 268.554 8.94586C268.426 8.92975 268.299 8.91363 268.172 8.89746C268.507 10.3726 268.958 12.8491 268.844 15.5936L268.841 15.6632H268.841Z" fill="#9D413B"/>
    <path d="M264.351 24.8214C264.497 24.4163 264.635 23.9979 264.751 23.5523C265.937 18.9962 264.595 15.1142 264.511 15.1226C264.428 15.1309 265.027 18.9966 264.083 23.284L264.068 23.3519C263.96 23.8402 263.844 24.2908 263.725 24.7237C263.933 24.7563 264.141 24.7889 264.351 24.8214V24.8214Z" fill="#9D413B"/>
    <path d="M225.302 17.254C225.942 15.8884 226.676 13.8538 226.78 11.3411C226.891 8.66144 226.246 6.37238 225.656 4.90064C225.514 4.89637 225.37 4.89179 225.229 4.88776C225.609 6.37342 226.079 8.66901 226.071 11.22L226.071 11.2897C226.055 13.9771 225.701 15.8949 225.302 17.254V17.254Z" fill="#9D413B"/>
    <path d="M199.819 14.5545C199.939 16.3416 199.951 18.462 199.723 20.8235C199.912 20.8167 200.106 20.8099 200.293 20.8029C200.507 18.2021 200.17 16.0345 199.819 14.5545Z" fill="#9D413B"/>
    <path d="M205.625 10.7195C205.992 9.41784 206.39 7.47461 206.37 5.11407C206.186 5.1242 206.001 5.13391 205.818 5.14428C205.894 7.23724 205.8 9.12348 205.625 10.7195Z" fill="#9D413B"/>
    <path d="M195.667 10.4456C195.66 13.1238 195.372 15.4731 195.011 17.4006C195.58 15.8469 196.277 13.3509 196.23 10.2313C196.205 8.48962 195.952 6.96991 195.641 5.71875C195.557 5.72247 195.47 5.72565 195.385 5.72937C195.557 7.14783 195.672 8.72272 195.667 10.4456V10.4456Z" fill="#9D413B"/>
    <path d="M175.122 20.9465C175.192 20.2371 175.23 19.483 175.218 18.687C175.179 16.0681 174.63 13.9366 174.135 12.4943C174.435 14.3015 174.662 16.462 174.655 18.9013C174.653 19.6038 174.63 20.2806 174.593 20.9362C174.773 20.94 174.944 20.9429 175.122 20.9465Z" fill="#9D413B"/>
    <path d="M162.203 16.7094C162.113 14.0917 161.522 11.9714 160.999 10.5391C161.335 12.34 161.604 14.4956 161.644 16.9346C161.666 18.2482 161.618 19.4816 161.526 20.6282L161.944 20.637C162.135 19.481 162.253 18.165 162.203 16.7094Z" fill="#9D413B"/>
    <path d="M284.019 11.6616C284.051 12.1269 284.15 13.7333 284.094 15.8919C284.06 17.2069 283.974 18.4216 283.863 19.5201C284.092 18.6197 284.335 17.452 284.487 16.0734C284.576 15.2748 284.726 13.5502 284.566 11.361C284.538 10.9761 284.506 10.6575 284.482 10.4392C284.387 10.4321 284.291 10.4254 284.194 10.4193C284.102 10.4133 284.009 10.4078 283.916 10.4029C283.946 10.7142 283.985 11.1461 284.019 11.6616H284.019Z" fill="#9D413B"/>
    <path d="M432.309 12.5243C432.498 14.65 432.592 17.1817 432.435 20.0213C432.292 22.6241 431.965 24.9258 431.583 26.9126L431.756 26.9042C432.321 25.1486 432.894 22.7388 433.01 19.812C433.132 16.76 432.715 14.2391 432.309 12.5243Z" fill="#9D413B"/>
    <path d="M1019.78 154.98C1016.22 154.972 1013.11 154.684 1010.55 154.323C1012.61 154.892 1015.92 155.589 1020.06 155.543C1022.37 155.517 1024.38 155.264 1026.04 154.953C1026.04 154.87 1026.03 154.782 1026.03 154.698C1024.15 154.87 1022.06 154.985 1019.78 154.98Z" fill="#9D413B"/>
    <path d="M1024.43 212.161C1021.06 212.153 1018.11 211.866 1015.69 211.505C1017.64 212.073 1020.78 212.771 1024.7 212.724C1026.88 212.699 1028.79 212.446 1030.36 212.135C1030.36 212.051 1030.36 211.963 1030.35 211.879C1028.57 212.051 1026.59 212.166 1024.43 212.161Z" fill="#9D413B"/>
    <path d="M1023.33 300.52C1021.04 300.71 1018.31 300.804 1015.26 300.647C1012.45 300.504 1009.97 300.177 1007.84 299.795L1007.84 299.968C1009.73 300.533 1012.33 301.106 1015.48 301.222C1018.77 301.344 1021.48 300.927 1023.33 300.52Z" fill="#9D413B"/>
    <path d="M1019.26 534.785C1018.11 534.846 1016.88 534.877 1015.6 534.867C1014.24 534.857 1012.95 534.801 1011.74 534.715C1011.73 534.805 1011.71 534.897 1011.69 534.99C1011.67 535.09 1011.65 535.189 1011.63 535.286C1012.89 535.353 1014.31 535.356 1015.87 535.234C1017.1 535.137 1018.24 534.976 1019.26 534.785Z" fill="#9D413B"/>
    <path d="M1024.08 540.592C1025 540.809 1026.01 540.993 1027.1 541.109C1027.52 541.153 1027.93 541.185 1028.32 541.206C1028.33 541.159 1028.35 541.11 1028.36 541.059C1028.37 540.971 1028.39 540.886 1028.4 540.805C1028.05 540.801 1027.7 540.793 1027.35 540.782C1026.22 540.747 1025.13 540.682 1024.08 540.592Z" fill="#9D413B"/>
    <path d="M1024.43 530.633C1022.37 530.628 1020.71 530.519 1019.7 530.438C1018.24 530.32 1016.9 530.157 1015.69 529.977C1017.64 530.546 1020.78 531.243 1024.7 531.196C1026.35 531.177 1027.82 531.001 1027.82 531.001C1028.71 530.888 1029.45 530.742 1030.02 530.613L1030.04 530.478L1030.04 530.391C1027.92 530.581 1026.02 530.638 1024.43 530.633Z" fill="#9D413B"/>
    <path d="M926.287 637.43C926.254 634.338 926.505 631.622 926.837 629.392C926.292 631.193 925.633 634.084 925.727 637.684C925.78 639.695 926.056 641.446 926.386 642.886C926.47 642.88 926.557 642.876 926.641 642.87C926.448 641.235 926.308 639.418 926.287 637.43Z" fill="#9D413B"/>
    <path d="M651.244 635.04C650.897 636.548 650.53 638.796 650.586 641.521C650.769 641.507 650.954 641.493 651.137 641.479C651.029 639.064 651.094 636.885 651.244 635.04Z" fill="#9D413B"/>
    <path d="M987.918 619.2C986.124 617.599 984.082 615.601 981.981 613.18C980.081 610.99 978.542 608.917 977.278 607.054C977.233 607.092 977.188 607.134 977.143 607.173C978.104 608.984 979.558 611.313 981.729 613.748C984.02 616.318 986.287 618.084 987.918 619.2Z" fill="#9D413B"/>
    <path d="M995.716 616.276C994.348 615.08 992.891 613.713 991.387 612.134C988.956 609.584 987.027 607.152 985.535 605.07C986.537 606.94 988.304 609.794 991.175 612.727C992.711 614.297 994.208 615.521 995.531 616.479C995.593 616.411 995.654 616.345 995.716 616.276Z" fill="#9D413B"/>
    <path d="M402.064 636.492C402.112 638.346 402.354 639.968 402.65 641.341L402.942 641.344C402.768 639.795 402.643 638.094 402.623 636.237C402.59 633.145 402.842 630.43 403.174 628.2C402.629 630.001 401.97 632.891 402.064 636.492H402.064Z" fill="#9D413B"/>
    <path d="M397.503 623.507C397.366 626.389 397.72 628.791 398.082 630.443C397.941 628.459 397.899 626.111 398.067 623.506C397.879 623.507 397.691 623.507 397.503 623.507Z" fill="#9D413B"/>
    <path d="M486.434 622.308L486.253 622.314C485.718 624.054 485.188 626.422 485.111 629.287C485.029 632.309 485.479 634.799 485.908 636.49C485.691 634.389 485.564 631.885 485.683 629.073C485.791 626.523 486.083 624.265 486.434 622.308Z" fill="#9D413B"/>
    <path d="M493.267 634.943C493.234 631.851 493.485 629.135 493.817 626.905C493.272 628.706 492.613 631.597 492.707 635.197C492.757 637.088 493.006 638.738 493.31 640.127L493.592 640.113C493.415 638.547 493.287 636.825 493.267 634.943Z" fill="#9D413B"/>
    <path d="M550.786 634.659C550.944 634.649 551.102 634.64 551.262 634.63C551.243 632.921 551.307 631.357 551.419 629.98C551.152 631.14 550.875 632.742 550.786 634.659Z" fill="#9D413B"/>
    <path d="M554.512 618.666L554.305 618.671C553.791 620.39 553.298 622.68 553.224 625.434C553.142 628.456 553.593 630.945 554.022 632.637C553.804 630.536 553.677 628.032 553.796 625.219C553.901 622.758 554.178 620.575 554.512 618.666Z" fill="#9D413B"/>
    <path d="M556.584 618.622C556.458 621.468 556.808 623.84 557.167 625.476C557.026 623.511 556.985 621.188 557.148 618.613C556.958 618.616 556.77 618.619 556.584 618.622Z" fill="#9D413B"/>
    <path d="M656.417 623.475C656.264 626.414 656.624 628.86 656.992 630.536C656.848 628.519 656.805 626.128 656.984 623.47C656.795 623.471 656.604 623.473 656.417 623.475Z" fill="#9D413B"/>
    <path d="M740.655 618.934C740.565 621.749 740.904 624.1 741.251 625.737C741.116 623.789 741.075 621.495 741.212 618.964C741.025 618.954 740.841 618.944 740.655 618.934Z" fill="#9D413B"/>
    <path d="M847.447 640.57C847.45 639.138 847.505 637.806 847.602 636.623C847.37 637.631 847.131 638.977 847.014 640.568C847.158 640.569 847.301 640.569 847.447 640.57Z" fill="#9D413B"/>
    <path d="M857.004 637.062C857.039 638.42 857.181 639.648 857.368 640.753C857.502 640.757 857.631 640.761 857.765 640.765C857.655 639.533 857.579 638.215 857.563 636.807C857.53 633.715 857.782 630.999 858.114 628.77C857.569 630.571 856.91 633.461 857.004 637.062Z" fill="#9D413B"/>
    <path d="M922.035 626.245C921.849 626.247 921.666 626.249 921.477 626.251C921.395 628.934 921.729 631.176 922.073 632.741C921.94 630.872 921.9 628.672 922.035 626.245Z" fill="#9D413B"/>
    <path d="M23.4016 344.545C23.4113 344.357 23.4209 344.17 23.4305 343.983C20.6086 343.85 18.2524 344.185 16.625 344.534C18.5677 344.405 20.8624 344.376 23.4016 344.545Z" fill="#9D413B"/>
    <path d="M18.176 349.893C16.3776 349.339 13.4903 348.666 9.88916 348.742C8.26678 348.776 6.82239 348.96 5.56366 349.198L5.54395 349.545C6.95624 349.407 8.48542 349.313 10.1412 349.303C13.2333 349.285 15.9478 349.55 18.176 349.893H18.176Z" fill="#9D413B"/>
    <path d="M14.2764 445.079C16.7234 445.195 18.8936 445.481 20.7934 445.822L20.764 445.602C19.054 445.086 16.7872 444.593 14.0646 444.506C11.0432 444.409 8.5517 444.847 6.85791 445.267C8.96014 445.06 11.4648 444.946 14.2764 445.079Z" fill="#9D413B"/>
    <path d="M1.22266 441.207C1.23877 441.386 1.25507 441.565 1.27173 441.746C3.48847 441.679 5.50324 441.748 7.2193 441.897C5.80414 441.564 3.7287 441.214 1.22266 441.207Z" fill="#9D413B"/>
    <path d="M30.2737 567.506C28.5322 567.717 26.3365 568.162 23.905 569.114C21.0902 570.217 18.9733 571.602 17.5825 572.656C19.4328 571.637 21.6895 570.544 24.3258 569.558C26.5315 568.733 28.5604 568.156 30.3854 567.725C30.3463 567.652 30.3123 567.578 30.2738 567.506H30.2737Z" fill="#9D413B"/>
    <path d="M13.1494 582.971C13.1862 583.056 13.2244 583.139 13.2613 583.224C14.6517 582.437 16.2125 581.634 17.9675 580.869C20.802 579.634 23.4011 578.807 25.584 578.244C23.7129 578.444 20.7941 578.963 17.5147 580.453C15.7643 581.248 14.3202 582.138 13.1494 582.971H13.1494Z" fill="#9D413B"/>
    <path d="M136.732 624.535C136.432 626.312 136.221 628.671 136.496 631.447C136.793 634.456 137.551 636.869 138.188 638.494C137.71 636.436 137.27 633.968 137.037 631.163C136.83 628.682 136.834 626.459 136.929 624.509C136.863 624.517 136.799 624.526 136.732 624.535L136.732 624.535Z" fill="#9D413B"/>
    <path d="M145.381 637.197C144.961 634.133 144.87 631.408 144.921 629.154C144.605 631.009 144.313 633.959 144.857 637.52C145.112 639.186 145.501 640.639 145.919 641.887C146.028 641.875 146.139 641.864 146.249 641.853C145.917 640.435 145.613 638.889 145.381 637.197V637.197Z" fill="#9D413B"/>
    <path d="M213.484 643.559C213.592 641.336 213.821 639.326 214.106 637.622C213.663 639.002 213.152 641.036 212.946 643.524C213.124 643.536 213.305 643.548 213.484 643.559Z" fill="#9D413B"/>
    <path d="M220.179 625.757C219.851 628.482 219.997 630.794 220.212 632.409C220.236 630.5 220.385 628.26 220.738 625.801C220.549 625.786 220.366 625.771 220.179 625.757Z" fill="#9D413B"/>
    <path d="M312.169 623.769C312.005 626.742 312.371 629.216 312.742 630.906C312.596 628.863 312.552 626.44 312.738 623.741C312.551 623.75 312.357 623.76 312.169 623.769Z" fill="#9D413B"/>
    <path d="M306.316 641.595C306.497 641.577 306.676 641.56 306.859 641.542C306.77 639.252 306.832 637.175 306.975 635.41C306.641 636.862 306.292 639.005 306.316 641.595Z" fill="#9D413B"/>
    <path d="M316.322 635.849C316.371 637.732 316.619 639.377 316.921 640.763L317.205 640.747C317.028 639.185 316.901 637.469 316.881 635.594C316.848 632.502 317.1 629.787 317.431 627.557C316.886 629.358 316.228 632.248 316.322 635.849Z" fill="#9D413B"/>
    <path d="M19.0567 174.281C17.1818 174.121 14.2174 174.076 10.7143 174.914C8.90258 175.348 7.36035 175.923 6.07568 176.5C6.09124 176.596 6.10662 176.692 6.12194 176.788C7.60863 176.294 9.25567 175.816 11.0796 175.409C14.0975 174.735 16.8065 174.418 19.0567 174.281H19.0567Z" fill="#9D413B"/>
    <path d="M1.42896 237.951C1.42475 238.131 1.41895 238.315 1.41553 238.495C3.71778 238.416 5.80371 238.487 7.57508 238.641C6.13172 238.301 4.00257 237.943 1.42896 237.951Z" fill="#9D413B"/>
    <path d="M13.3516 241.128C15.5757 241.234 17.5646 241.481 19.3375 241.781C19.3351 241.689 19.3333 241.596 19.3311 241.503C17.6887 241.045 15.5997 240.634 13.1398 240.555C10.1183 240.458 7.62684 240.896 5.93311 241.316C8.03528 241.11 10.54 240.995 13.3516 241.128Z" fill="#9D413B"/>
    <path d="M6.20508 248.619C4.48779 248.655 2.97254 248.859 1.66455 249.118C1.67151 249.225 1.67914 249.332 1.68634 249.439C3.1463 249.292 4.73297 249.19 6.45715 249.18C9.54919 249.162 12.2637 249.427 14.4919 249.77C12.6935 249.216 9.80627 248.543 6.20508 248.619Z" fill="#9D413B"/>
    <path d="M6.62988 286.497C6.65088 286.676 6.67242 286.852 6.69317 287.032C8.84948 286.973 10.8132 287.042 12.4897 287.187C11.1003 286.86 9.07464 286.516 6.62988 286.497Z" fill="#9D413B"/>
    <path d="M18.7662 289.533C21.1547 289.646 23.2765 289.922 25.1439 290.252C25.1408 290.174 25.1378 290.096 25.1344 290.02C23.4386 289.517 21.2138 289.044 18.5543 288.959C15.5329 288.862 13.0414 289.3 11.3477 289.721C13.4499 289.514 15.9546 289.399 18.7662 289.533Z" fill="#9D413B"/>
    <path d="M18.4702 292.815C20.4044 292.687 22.688 292.658 25.2139 292.824C25.2109 292.63 25.2066 292.448 25.2028 292.261C22.4134 292.137 20.0836 292.469 18.4702 292.815Z" fill="#9D413B"/>
    <path d="M22.3838 165.43C22.3705 165.352 22.3571 165.277 22.3438 165.2C20.585 165.071 18.3234 165.084 15.7247 165.562C12.7515 166.109 10.4097 167.066 8.84375 167.836C10.8542 167.187 13.2776 166.544 16.0534 166.078C18.3892 165.685 20.5022 165.505 22.3838 165.43Z" fill="#9D413B"/>
    <path d="M528.96 14.8802C528.882 18.5062 528.531 21.7004 528.118 24.3273C528.424 23.2618 528.768 21.8758 529.04 20.2286C529.429 17.8786 529.52 15.9035 529.531 14.5626C529.547 12.6029 529.408 9.89607 528.735 6.76877L528.695 6.76705L528.654 6.76532C528.876 9.06359 528.951 11.0173 528.97 12.5131C528.978 13.127 528.98 13.9337 528.96 14.8802V14.8802Z" fill="#9D413B"/>
    <path d="M842.384 24.0412C842.53 23.5482 842.668 23.0389 842.784 22.4965C843.97 16.9508 842.628 12.2257 842.544 12.2359C842.461 12.246 843.06 16.9513 842.117 22.1698L842.102 22.2526C841.993 22.8468 841.877 23.3954 841.758 23.9223C841.966 23.962 842.174 24.0016 842.384 24.0412Z" fill="#9D413B"/>
    <path d="M70.2201 28.9626C70.3933 28.8858 70.5637 28.8095 70.7407 28.732C69.9992 25.9984 68.9523 23.8546 68.1182 22.4106C68.8488 24.2445 69.5938 26.4519 70.2201 28.9626Z" fill="#9D413B"/>
    <path d="M71.3296 14.8034C71.2075 13.3105 70.8884 11.1467 70.0712 8.66901C69.8927 8.71308 69.7156 8.75727 69.5396 8.80152C70.3416 11.0052 70.9244 13.0448 71.3296 14.8034Z" fill="#9D413B"/>
    <path d="M112.52 8.71033C112.554 11.8022 112.302 14.518 111.97 16.7479C112.515 14.9468 113.174 12.0562 113.08 8.45545C113.029 6.48249 112.761 4.76319 112.439 3.33832L112.174 3.34369C112.363 4.96008 112.499 6.75061 112.52 8.71033H112.52Z" fill="#9D413B"/>
    <path d="M123.142 3.26691C122.964 3.26545 122.792 3.263 122.612 3.26184C122.674 5.35242 122.615 7.26031 122.482 8.89465C122.792 7.54803 123.116 5.6073 123.142 3.2669V3.26691Z" fill="#9D413B"/>
    <path d="M142.316 5.12605L142.315 5.19996C142.299 8.05287 141.946 10.0887 141.547 11.5315C142.186 10.0818 142.921 7.92194 143.025 5.25452C143.041 4.83625 143.036 4.43116 143.022 4.03266C142.778 4.01685 142.533 4.00129 142.289 3.98572C142.306 4.35987 142.317 4.73871 142.316 5.12604V5.12605Z" fill="#9D413B"/>
    <path d="M309.825 13.6338C310.145 15.7364 310.395 18.2487 310.415 21.0828C310.431 23.4954 310.27 25.6477 310.041 27.5458C310.117 27.5411 310.193 27.5369 310.268 27.5322C310.681 25.7975 311.035 23.528 310.976 20.839C310.909 17.7958 310.336 15.3142 309.825 13.6338H309.825Z" fill="#9D413B"/>
    <path d="M312.555 16.1794C312.81 14.7463 313.045 12.6556 312.921 10.1537C312.743 10.1703 312.563 10.1859 312.384 10.2021C312.571 12.423 312.61 14.4489 312.555 16.1794V16.1794Z" fill="#9D413B"/>
    <path d="M339.49 13.1306L339.49 13.2045C339.474 16.0574 339.12 18.0932 338.721 19.536C339.361 18.0864 340.095 15.9264 340.199 13.259C340.299 10.6815 339.779 8.45941 339.242 6.90027C339.082 6.91815 338.93 6.93671 338.772 6.95471C339.123 8.52093 339.497 10.709 339.49 13.1305V13.1306Z" fill="#9D413B"/>
    <path d="M364.89 23.2309C364.958 22.9721 365.033 22.7255 365.091 22.452C366.278 16.9064 364.935 12.1812 364.852 12.1914C364.769 12.2016 365.367 16.9068 364.424 22.1253L364.409 22.2081C364.342 22.5732 364.272 22.9173 364.201 23.2534C364.433 23.2463 364.655 23.2378 364.89 23.2309Z" fill="#9D413B"/>
    <path d="M435.528 11.1141C435.38 11.1012 435.233 11.0879 435.086 11.0749C435.068 12.5925 434.993 13.9993 434.876 15.2436C435.129 14.1965 435.393 12.7871 435.528 11.1141V11.1141Z" fill="#9D413B"/>
    <path d="M404.683 13.0419C404.797 15.2523 404.8 17.8845 404.541 20.8361C404.433 22.0696 404.282 23.2203 404.114 24.3261C404.277 24.3416 404.438 24.3574 404.6 24.373C404.835 23.237 405.025 21.9859 405.125 20.6204C405.356 17.4479 405.029 14.8258 404.683 13.0419V13.0419Z" fill="#9D413B"/>
    <path d="M409.599 8.64721C409.626 9.16137 409.708 10.9366 409.629 13.3241C409.58 14.7785 409.482 16.1226 409.359 17.3385C409.597 16.3404 409.853 15.0466 410.021 13.5206C410.118 12.6365 410.287 10.7279 410.15 8.30901C410.141 8.13738 410.13 7.9876 410.12 7.84234C409.928 7.81347 409.737 7.78478 409.545 7.7561C409.564 8.01977 409.582 8.3106 409.599 8.64721Z" fill="#9D413B"/>
    <path d="M387.134 9.98274L387.133 10.0566C387.117 12.9096 386.764 14.9454 386.365 16.3882C387.004 14.9385 387.739 12.7786 387.843 10.1112C387.913 8.29615 387.674 6.66163 387.34 5.30475C387.129 5.29273 386.92 5.28021 386.707 5.26868C386.946 6.6258 387.139 8.24274 387.134 9.98273V9.98274Z" fill="#9D413B"/>
    <path d="M2.8457 388.887C4.90832 388.995 6.4729 389.285 7.64032 389.608C6.48199 389.097 4.86414 388.531 2.90228 388.269C2.8833 388.478 2.8645 388.681 2.8457 388.887Z" fill="#9D413B"/>
    <path d="M11.2683 366.695C14.8322 366.808 17.3586 367.23 19.1418 367.678C17.3619 366.99 14.6992 366.182 11.3713 365.988C8.75061 365.835 6.40564 366.103 4.55426 366.469C4.54205 366.662 4.52978 366.855 4.51758 367.047C6.36554 366.81 8.68115 366.618 11.176 366.692L11.2683 366.695Z" fill="#9D413B"/>
    <path d="M21.3918 371.435L21.4821 371.45C21.6275 371.474 21.7624 371.5 21.9032 371.525C21.9175 371.291 21.9321 371.051 21.9466 370.814C21.8775 370.8 21.817 370.781 21.7468 370.767C15.6973 369.591 10.5468 370.942 10.5581 371.026C10.5693 371.109 15.6994 370.502 21.3918 371.435Z" fill="#9D413B"/>
    <path d="M17.2216 312.42C16.1815 312.287 14.8389 312.168 13.2696 312.161C12.3605 312.157 10.4022 312.188 7.95758 312.576C7.71863 312.614 7.51044 312.65 7.32416 312.684C7.31873 312.875 7.31287 313.069 7.30713 313.262C7.60767 313.21 7.94837 313.152 8.36017 313.089C8.88013 313.009 10.6761 312.742 13.1117 312.571C14.5955 312.467 15.9723 312.425 17.2216 312.42Z" fill="#9D413B"/>
    <path d="M24.6917 316.898C24.6981 316.733 24.705 316.564 24.7114 316.401C23.5775 316.297 22.3413 316.246 21.0093 316.288C17.7594 316.389 15.1287 316.989 13.3521 317.519C15.587 317.175 18.2626 316.897 21.2909 316.846C22.4855 316.826 23.607 316.853 24.6917 316.898Z" fill="#9D413B"/>
    <path d="M9.7005 269.407C7.60107 269.325 5.74042 269.656 4.27734 270.072L4.36535 270.632C5.81335 270.353 7.61761 270.11 9.57202 270.116L9.64593 270.116C12.4988 270.132 14.5347 270.486 15.9775 270.885C14.5278 270.245 12.3679 269.511 9.70049 269.407H9.7005Z" fill="#9D413B"/>
    <path d="M8.21875 220.728C6.13916 220.647 4.29321 220.971 2.83643 221.381C2.80713 221.578 2.77784 221.774 2.74854 221.98C4.219 221.69 6.07318 221.431 8.09027 221.437L8.16418 221.437C11.0171 221.453 13.0529 221.806 14.4957 222.206C13.0461 221.566 10.8862 220.832 8.21875 220.728Z" fill="#9D413B"/>
    <path d="M23.7546 199.839L23.8449 199.854C24.021 199.883 24.1855 199.914 24.3548 199.945C24.3758 199.714 24.3968 199.486 24.417 199.244C24.3114 199.222 24.2175 199.192 24.1096 199.171C18.0601 197.995 12.9096 199.347 12.9209 199.43C12.9321 199.513 18.0622 198.906 23.7546 199.839Z" fill="#9D413B"/>
    <path d="M6.9646 144.824C6.00226 144.82 3.92908 144.851 1.34119 145.24C1.00202 145.291 0.727356 145.338 0.492676 145.379C0.509276 145.571 0.528996 145.754 0.546326 145.944C0.883486 145.888 1.28168 145.823 1.76722 145.753C2.31764 145.673 4.21894 145.405 6.79737 145.234C8.36811 145.13 9.82563 145.087 11.1481 145.082C10.0471 144.95 8.62586 144.83 6.96461 144.824L6.9646 144.824Z" fill="#9D413B"/>
    <path d="M19.5005 149.576C19.4728 149.415 19.4476 149.256 19.4203 149.096C18.1263 148.971 16.7051 148.904 15.1572 148.949C11.7167 149.051 8.93176 149.652 7.05078 150.182C9.41687 149.838 12.2494 149.559 15.4551 149.507C16.8836 149.484 18.221 149.518 19.5005 149.576H19.5005Z" fill="#9D413B"/>
    <path d="M4.77295 125.95C3.03613 125.987 1.5061 126.195 0.188358 126.458C0.182868 126.565 0.176208 126.671 0.170898 126.778C1.65338 126.627 3.26795 126.521 5.02496 126.511C8.11706 126.493 10.8315 126.758 13.0597 127.101C11.2614 126.547 8.37414 125.874 4.77295 125.95V125.95Z" fill="#9D413B"/>
    <path d="M6.47772 115.972C5.20147 115.671 3.38891 115.356 1.20807 115.292C1.18561 115.465 1.16107 115.633 1.13916 115.807C3.11432 115.769 4.92072 115.837 6.47772 115.972Z" fill="#9D413B"/>
    <path d="M17.9857 121.767C18.0032 121.579 18.0197 121.391 18.0383 121.203C15.0903 121.032 12.6342 121.382 10.9526 121.742C12.9617 121.609 15.3419 121.578 17.9857 121.767Z" fill="#9D413B"/>
    <path d="M7.77008 86.2099C7.65253 86.1579 7.53668 86.1156 7.41968 86.067C7.35877 86.3 7.29895 86.5318 7.23828 86.7644C7.28882 86.7842 7.33862 86.8011 7.38922 86.8214L7.45782 86.849C10.1037 87.916 11.8657 88.9952 13.0597 89.8982C11.9481 88.7692 10.2112 87.29 7.77008 86.2099V86.2099Z" fill="#9D413B"/>
    <path d="M20.0281 63.6927C22.7412 65.176 24.9869 66.7237 26.7696 68.1038C25.4653 66.7474 23.2663 64.759 20.0796 63.0798C18.4288 62.2099 16.8874 61.6252 15.5398 61.2118C15.5017 61.3 15.4636 61.3881 15.4258 61.4762C16.8601 62.0818 18.4014 62.8033 20.0281 63.6927L20.0281 63.6927Z" fill="#9D413B"/>
    <path d="M33.8854 65.6153C33.9664 65.4447 34.0474 65.274 34.13 65.1033C31.6866 63.5782 29.4221 62.7135 27.8066 62.2226C29.6118 63.0717 31.6874 64.1877 33.8854 65.6153H33.8854Z" fill="#9D413B"/>
    <path d="M20.4341 51.2797C22.3969 52.2919 24.1187 53.3257 25.5425 54.2841C24.4766 53.3162 22.8522 52.0201 20.6954 50.8096C20.6072 50.9666 20.5211 51.123 20.4341 51.2797V51.2797Z" fill="#9D413B"/>
    <path d="M47.3445 40.7869C48.2151 41.6312 49.0102 42.455 49.7725 43.2665C49.8932 43.145 50.0131 43.0284 50.1336 42.9086C49.3613 42.0192 48.499 41.0992 47.5138 40.1676C44.8422 37.6414 42.3133 35.9623 40.5171 34.9166C42.5484 36.4602 44.8856 38.4024 47.3445 40.7869V40.7869Z" fill="#9D413B"/>
    <path d="M198.528 623.617C198.44 624.823 198.396 626.122 198.435 627.521C198.538 631.196 199.139 634.172 199.67 636.181C199.325 633.653 199.046 630.627 198.993 627.203C198.974 625.969 198.995 624.806 199.031 623.675C198.864 623.656 198.695 623.636 198.528 623.617Z" fill="#9D413B"/>
    <path d="M167.658 639.325L167.658 639.251C167.674 636.398 168.028 634.362 168.427 632.919C167.787 634.369 167.053 636.529 166.949 639.196C166.927 639.759 166.94 640.301 166.971 640.828C167.209 640.835 167.455 640.843 167.706 640.851C167.676 640.354 167.656 639.847 167.658 639.325V639.325Z" fill="#9D413B"/>
    <path d="M119.977 637.117L119.979 637.025C120.06 633.46 120.46 630.93 120.892 629.143C120.219 630.929 119.436 633.599 119.271 636.928C119.09 640.58 119.717 643.7 120.285 645.668C120.416 645.651 120.546 645.632 120.677 645.615C120.33 643.631 119.906 640.541 119.977 637.117Z" fill="#9D413B"/>
    <path d="M87.3403 644.733C87.5669 644.77 87.8002 644.804 88.0289 644.84C88.1639 643.846 88.3594 642.778 88.6527 641.678L88.6719 641.607C89.415 638.853 90.2759 636.974 91.0297 635.681C90.0416 636.92 88.7807 638.821 88.0001 641.373C87.6395 642.553 87.4409 643.687 87.3403 644.733H87.3403Z" fill="#9D413B"/>
    <path d="M57.7187 634.019C57.6293 634.244 57.552 634.444 57.48 634.632C57.6459 634.729 57.8123 634.826 57.9792 634.922C58.1042 634.598 58.2482 634.23 58.4146 633.817C58.6638 633.198 59.5322 631.062 60.8781 628.258C61.6981 626.55 62.5059 624.991 63.2688 623.593C62.5142 624.691 61.5853 626.133 60.6157 627.883C60.0539 628.897 58.8789 631.1 57.7187 634.019Z" fill="#9D413B"/>
    <path d="M71.7574 616.539C70.8428 617.909 69.8975 619.46 68.9812 621.229C67.0749 624.909 65.9851 628.138 65.3584 630.379C66.4294 627.716 67.8283 624.592 69.6425 621.184C70.4933 619.586 71.3416 618.118 72.1747 616.737C72.036 616.671 71.894 616.605 71.7574 616.539L71.7574 616.539Z" fill="#9D413B"/>
    <path d="M45.0862 612.095C42.4758 615.031 40.7637 618.008 39.7607 620.095C39.862 620.207 39.9639 620.318 40.0656 620.429C41.2321 618.46 43.0765 615.574 45.4966 612.708L45.5645 612.628C48.1871 609.535 50.3134 607.556 51.9308 606.253C50.128 607.403 47.6046 609.262 45.0862 612.095H45.0862Z" fill="#9D413B"/>
    <path d="M26.6325 599.538L26.6851 599.486C28.7175 597.483 30.4091 596.297 31.7128 595.561C30.2345 596.131 28.1861 597.136 26.2232 598.945C25.4202 599.685 24.7462 600.458 24.1738 601.218C24.3272 601.41 24.4821 601.607 24.6334 601.794C25.2235 601.051 25.8767 600.286 26.6325 599.538Z" fill="#9D413B"/>
    <path d="M14.5304 552.782C18.0916 552.603 20.6442 552.816 22.458 553.116C20.6277 552.576 17.9077 551.99 14.5751 552.069C11.7646 552.136 9.29938 552.658 7.43458 553.218C7.43458 553.403 7.43446 553.588 7.43495 553.771C9.31306 553.357 11.7645 552.928 14.4381 552.787L14.5304 552.782H14.5304Z" fill="#9D413B"/>
    <path d="M7.62012 536.298C7.90094 536.256 8.21637 536.21 8.56562 536.162C9.15369 536.082 11.1849 535.814 13.9395 535.643C15.6176 535.538 17.1746 535.495 18.5875 535.49C17.4113 535.357 15.8929 535.238 14.1183 535.232C13.0901 535.228 10.8754 535.26 8.1106 535.65C7.93061 535.676 7.77619 535.699 7.62159 535.723L7.6222 535.816C7.62208 535.982 7.62043 536.134 7.62012 536.298Z" fill="#9D413B"/>
    <path d="M26.6771 539.443C25.4975 539.359 24.2316 539.318 22.8699 539.356C19.1944 539.459 16.2191 540.06 14.2095 540.59C16.7373 540.246 19.7633 539.966 23.1881 539.914C24.3873 539.895 25.5202 539.915 26.6218 539.949C26.641 539.774 26.6589 539.609 26.6771 539.443L26.6771 539.443Z" fill="#9D413B"/>
    <path d="M11.6094 504.19C14.4623 504.206 16.4981 504.559 17.9409 504.958C16.4913 504.319 14.3314 503.584 11.6639 503.481C9.40277 503.392 7.41528 503.782 5.90771 504.242L5.94068 504.783C7.44788 504.474 9.40088 504.183 11.5355 504.189L11.6094 504.19H11.6094Z" fill="#9D413B"/>
    <path d="M22.3571 470.356L22.4474 470.371C23.0719 470.475 23.6488 470.586 24.2042 470.699C24.1855 470.468 24.1656 470.252 24.1464 470.026C23.6837 469.905 23.2158 469.786 22.7122 469.688C16.6626 468.512 11.5122 469.863 11.5235 469.947C11.5346 470.03 16.6647 469.423 22.3571 470.356Z" fill="#9D413B"/>
    <path d="M19.0654 412.982C19.0714 412.803 19.0779 412.623 19.0847 412.443C18.2034 412.404 17.278 412.391 16.3049 412.418C12.6295 412.521 9.65411 413.122 7.64453 413.653C10.1724 413.308 13.1984 413.028 16.6231 412.976C17.4632 412.963 18.2729 412.968 19.0654 412.982Z" fill="#9D413B"/>
    <path d="M7.55378 408.294C6.5257 408.291 4.31092 408.322 1.54615 408.712C1.31763 408.745 1.11195 408.776 0.925296 408.805C0.910466 408.999 0.895996 409.193 0.881836 409.387C1.20313 409.338 1.57642 409.283 2.00116 409.225C2.58923 409.145 4.62042 408.876 7.375 408.705C9.05304 408.6 10.6102 408.557 12.023 408.552C10.8468 408.42 9.32849 408.301 7.55377 408.294L7.55378 408.294Z" fill="#9D413B"/>
    <path d="M511.698 637.834L511.699 637.761C511.715 634.908 512.068 632.872 512.467 631.429C511.828 632.879 511.093 635.039 510.99 637.706C510.972 638.154 510.979 638.587 510.996 639.012C511.243 638.993 511.482 638.973 511.724 638.954C511.708 638.586 511.697 638.214 511.698 637.835V637.834Z" fill="#9D413B"/>
    <path d="M450.68 628.903C450.041 630.352 449.306 632.512 449.202 635.18C449.105 637.681 449.592 639.845 450.112 641.396C450.278 641.395 450.444 641.393 450.609 641.391C450.264 639.831 449.904 637.682 449.911 635.308L449.912 635.234C449.928 632.381 450.281 630.345 450.68 628.903V628.903Z" fill="#9D413B"/>
    <path d="M422.735 623.415C422.729 623.445 422.721 623.471 422.715 623.501C421.593 629.56 422.991 634.699 423.074 634.687C423.157 634.675 422.504 629.55 423.386 623.85L423.4 623.759C423.419 623.639 423.44 623.528 423.459 623.411C423.217 623.412 422.977 623.414 422.735 623.415Z" fill="#9D413B"/>
    <path d="M360.282 635.846L360.282 635.772C360.298 632.919 360.652 630.883 361.051 629.44C360.411 630.89 359.677 633.05 359.573 635.717C359.499 637.615 359.763 639.318 360.121 640.709C360.327 640.713 360.531 640.716 360.737 640.72C360.485 639.331 360.277 637.655 360.282 635.846V635.846Z" fill="#9D413B"/>
    <path d="M332.765 639.459C332.685 638.955 332.418 637.215 332.248 634.854C332.144 633.416 332.101 632.081 332.097 630.871C331.964 631.879 331.845 633.18 331.837 634.701C331.833 635.582 331.864 637.48 332.252 639.849C332.28 640.018 332.306 640.165 332.332 640.307C332.525 640.307 332.715 640.307 332.907 640.307C332.863 640.055 332.815 639.778 332.765 639.459H332.765Z" fill="#9D413B"/>
    <path d="M337.196 634.62C336.852 632.454 336.574 629.861 336.523 626.926C336.501 625.63 336.534 624.416 336.592 623.253C336.435 623.253 336.274 623.252 336.118 623.252C335.99 624.449 335.919 625.764 335.965 627.199C336.066 630.349 336.666 632.898 337.196 634.62Z" fill="#9D413B"/>
    <path d="M283.835 626.86L283.849 626.769C283.897 626.467 283.946 626.177 283.996 625.894C283.76 625.916 283.524 625.938 283.289 625.96C283.249 626.146 283.2 626.317 283.164 626.51C282.042 632.57 283.439 637.709 283.523 637.696C283.606 637.685 282.953 632.56 283.835 626.86Z" fill="#9D413B"/>
    <path d="M250.456 644.908L250.456 644.834C250.472 641.981 250.826 639.945 251.225 638.502C250.585 639.952 249.851 642.112 249.747 644.779C249.733 645.153 249.734 645.517 249.744 645.875C249.988 645.885 250.231 645.894 250.475 645.904C250.462 645.577 250.455 645.245 250.456 644.908V644.908Z" fill="#9D413B"/>
    <path d="M191.243 637.412C191.171 636.748 191.085 635.874 191.006 634.846C190.704 630.907 190.718 627.406 190.854 624.512C190.661 625.701 190.464 627.242 190.366 629.059C190.225 631.649 190.341 633.8 190.471 635.255C190.632 637.06 190.964 639.441 191.67 642.146L191.905 642.161C191.594 640.315 191.383 638.703 191.243 637.412Z" fill="#9D413B"/>
    <path d="M828.837 638.584L828.837 638.51C828.853 635.657 829.207 633.622 829.606 632.179C828.966 633.628 828.232 635.788 828.128 638.456C828.09 639.422 828.142 640.338 828.247 641.189C828.486 641.175 828.726 641.16 828.966 641.146C828.886 640.335 828.834 639.476 828.837 638.584V638.584Z" fill="#9D413B"/>
    <path d="M808.348 635.429C808.43 631.864 808.829 629.334 809.261 627.547C808.589 629.333 807.805 632.003 807.64 635.332C807.521 637.742 807.755 639.925 808.09 641.697C808.292 641.701 808.498 641.706 808.697 641.709C808.473 639.947 808.299 637.806 808.346 635.521L808.348 635.429Z" fill="#9D413B"/>
    <path d="M794.808 625.31C794.744 626.162 794.714 627.066 794.747 628.032C794.847 630.998 795.446 633.398 795.976 635.019C795.632 632.98 795.355 630.538 795.305 627.775C795.289 626.934 795.301 626.131 795.326 625.349C795.151 625.336 794.98 625.323 794.808 625.31Z" fill="#9D413B"/>
    <path d="M766.021 638.068C766.096 635.672 766.415 633.905 766.771 632.616C766.207 633.896 765.57 635.731 765.356 637.978C765.579 638.008 765.8 638.038 766.021 638.068Z" fill="#9D413B"/>
    <path d="M744.908 630.86C744.959 632.849 745.216 634.585 745.527 636.038C745.62 636.044 745.712 636.049 745.806 636.054C745.622 634.406 745.489 632.586 745.468 630.596C745.433 627.393 745.683 624.579 746.014 622.269C745.47 624.135 744.812 627.129 744.908 630.86H744.908Z" fill="#9D413B"/>
    <path d="M721.632 629.254L721.634 629.162C721.715 625.597 722.115 623.067 722.547 621.28C721.874 623.066 721.091 625.736 720.926 629.065C720.792 631.781 721.106 634.2 721.509 636.077C721.694 636.063 721.877 636.049 722.064 636.036C721.803 634.171 721.579 631.807 721.632 629.254Z" fill="#9D413B"/>
    <path d="M679.643 639.74C679.563 639.2 679.295 637.336 679.125 634.808C679.021 633.268 678.978 631.839 678.973 630.543C678.841 631.622 678.721 633.016 678.714 634.644C678.71 635.588 678.741 637.621 679.131 640.158C679.164 640.378 679.197 640.579 679.228 640.757C679.417 640.744 679.609 640.731 679.797 640.717C679.749 640.43 679.698 640.113 679.643 639.74Z" fill="#9D413B"/>
    <path d="M699.52 638.651C699.703 638.627 699.884 638.603 700.066 638.579C700.205 637.013 700.449 635.773 700.716 634.807C700.285 635.784 699.815 637.091 699.52 638.651Z" fill="#9D413B"/>
    <path d="M684.073 634.559C683.728 632.24 683.45 629.463 683.398 626.32C683.376 624.951 683.408 623.669 683.464 622.44C683.306 622.451 683.142 622.461 682.983 622.472C682.861 623.73 682.795 625.11 682.841 626.612C682.942 629.985 683.542 632.715 684.073 634.559Z" fill="#9D413B"/>
    <path d="M615.211 632.625L615.211 632.551C615.228 629.698 615.581 627.662 615.98 626.219C615.34 627.669 614.606 629.829 614.502 632.496C614.422 634.555 614.738 636.385 615.142 637.835C615.343 637.865 615.545 637.895 615.746 637.925C615.46 636.462 615.205 634.623 615.211 632.625V632.625Z" fill="#9D413B"/>
    <path d="M582.146 628.966L582.148 628.874C582.229 625.309 582.629 622.779 583.061 620.992C582.388 622.778 581.605 625.447 581.44 628.777C581.333 630.936 581.513 632.903 581.791 634.566C582.004 634.574 582.22 634.582 582.431 634.591C582.241 632.942 582.103 631.017 582.146 628.966Z" fill="#9D413B"/>
    <path d="M586.034 618.927C585.098 624.735 586.404 629.557 586.485 629.545C586.566 629.533 585.937 624.554 586.763 618.953C586.523 618.944 586.277 618.936 586.034 618.927L586.034 618.927Z" fill="#9D413B"/>
    <path d="M538.596 619.526C538.476 620.727 538.413 622.043 538.457 623.473C538.559 626.721 539.158 629.349 539.688 631.125C539.344 628.891 539.066 626.218 539.015 623.192C538.993 621.886 539.025 620.662 539.08 619.488C538.919 619.501 538.758 619.513 538.596 619.526Z" fill="#9D413B"/>
    <path d="M1024.04 460.149C1022.1 460.447 1019.48 460.733 1016.62 460.674L1016.53 460.672C1012.96 460.591 1010.43 460.191 1008.65 459.759C1010.43 460.431 1013.1 461.215 1016.43 461.38C1019.46 461.53 1022.13 461.121 1024.07 460.654C1024.06 460.485 1024.05 460.32 1024.04 460.149Z" fill="#9D413B"/>
    <path d="M1012.44 476.759C1010.86 476.752 1009.39 476.687 1007.99 476.597C1008.01 476.756 1008.04 476.913 1008.06 477.071C1009.48 477.232 1011.04 477.336 1012.74 477.323C1016.42 477.293 1019.41 476.752 1021.43 476.262C1018.89 476.556 1015.86 476.775 1012.44 476.759L1012.44 476.759Z" fill="#9D413B"/>
    <path d="M1028.69 507.277L1028.62 507.277C1025.77 507.261 1023.73 506.908 1022.29 506.509C1023.74 507.148 1025.9 507.883 1028.56 507.986C1029.43 508.02 1030.25 507.979 1031.03 507.895C1031.02 507.652 1031.01 507.412 1031 507.171C1030.26 507.237 1029.49 507.28 1028.69 507.277Z" fill="#9D413B"/>
    <path d="M1020.88 552.195C1018.39 551.652 1015.45 550.876 1012.22 549.751C1010.87 549.281 1009.61 548.792 1008.42 548.301C1008.37 548.46 1008.33 548.617 1008.28 548.775C1009.49 549.336 1010.84 549.887 1012.33 550.384C1015.81 551.548 1018.82 552.004 1020.88 552.195V552.195Z" fill="#9D413B"/>
    <path d="M1012.44 576.493C1012.46 576.414 1007.63 574.603 1002.99 571.165L1002.92 571.11C1002.45 570.759 1002.02 570.422 1001.61 570.09C1001.53 570.314 1001.45 570.536 1001.38 570.757C1001.69 571.037 1002.02 571.317 1002.37 571.596C1007.21 575.413 1012.41 576.572 1012.44 576.493H1012.44Z" fill="#9D413B"/>
    <path d="M1008.09 599.898C1007 599.524 1005.82 599.046 1004.62 598.428L1004.55 598.394C1002.02 597.078 1000.37 595.835 999.269 594.821C1000.27 596.052 1001.85 597.691 1004.18 599C1005.4 599.684 1006.6 600.156 1007.71 600.486C1007.83 600.29 1007.97 600.093 1008.09 599.898Z" fill="#9D413B"/>
    <path d="M967.35 630.798L967.315 630.733C965.963 628.221 965.298 626.265 964.958 624.807C965.09 626.386 965.48 628.634 966.666 631.025C967.541 632.788 968.635 634.198 969.645 635.261C969.845 635.192 970.043 635.122 970.238 635.052C969.314 633.925 968.261 632.48 967.35 630.798Z" fill="#9D413B"/>
    <path d="M947.296 626.267C947.064 625.078 946.883 623.949 946.722 622.848C946.559 622.901 946.394 622.955 946.229 623.008C946.354 624.157 946.533 625.379 946.802 626.678C947.55 630.279 948.664 633.102 949.54 634.987C948.756 632.559 947.949 629.629 947.296 626.267Z" fill="#9D413B"/>
    <path d="M944.717 636.122C944.319 634.489 944.003 632.964 943.749 631.574C943.826 632.755 943.976 634.27 944.281 636.018C944.435 636.899 944.774 638.657 945.431 640.844C945.619 640.815 945.805 640.787 945.995 640.758C945.719 639.869 945.229 638.226 944.717 636.122V636.122Z" fill="#9D413B"/>
    <path d="M893.779 636.695L893.781 636.602C893.863 633.037 894.263 630.507 894.695 628.72C894.022 630.506 893.238 633.176 893.074 636.505C892.955 638.895 893.183 641.062 893.514 642.827C893.717 642.837 893.922 642.847 894.126 642.858C893.904 641.1 893.733 638.968 893.779 636.695Z" fill="#9D413B"/>
    <path d="M875.188 640.866C875.108 640.388 874.841 638.74 874.671 636.504C874.568 635.142 874.526 633.878 874.522 632.732C874.389 633.686 874.269 634.919 874.261 636.359C874.257 637.194 874.287 638.992 874.675 641.235C874.698 641.369 874.72 641.482 874.742 641.599C874.938 641.612 875.13 641.624 875.324 641.637C875.281 641.407 875.236 641.153 875.188 640.866V640.866Z" fill="#9D413B"/>
    <path d="M878.488 626.062C878.398 627.047 878.352 628.11 878.391 629.253C878.491 632.237 879.09 634.651 879.62 636.282C879.276 634.23 878.999 631.774 878.949 628.995C878.93 627.971 878.953 627.006 878.992 626.07L878.488 626.062V626.062Z" fill="#9D413B"/>
    <path d="M1015.69 317.228C1016.86 317.384 1018.37 317.533 1020.15 317.575C1020.96 317.594 1022.51 317.603 1024.48 317.444C1024.49 317.259 1024.5 317.07 1024.51 316.883C1023.52 316.977 1022.07 317.095 1020.34 317.168C1018.66 317.239 1017.1 317.251 1015.69 317.228V317.228Z" fill="#9D413B"/>
    <path d="M1019.09 335.49C1016.24 335.474 1014.21 335.12 1012.76 334.721C1014.21 335.361 1016.37 336.095 1019.04 336.199C1020.81 336.268 1022.41 336.041 1023.75 335.72C1023.76 335.508 1023.76 335.298 1023.77 335.084C1022.44 335.313 1020.86 335.495 1019.17 335.49L1019.09 335.49Z" fill="#9D413B"/>
    <path d="M1007.13 363.734L1007.04 363.72C1006.91 363.699 1006.78 363.676 1006.65 363.654C1006.68 363.904 1006.71 364.148 1006.74 364.395C1006.76 364.398 1006.77 364.402 1006.79 364.405C1012.85 365.527 1017.98 364.13 1017.97 364.047C1017.96 363.964 1012.84 364.617 1007.13 363.734Z" fill="#9D413B"/>
    <path d="M1017.39 368.386L1017.3 368.384C1013.74 368.303 1011.2 367.903 1009.42 367.471C1011.2 368.143 1013.87 368.927 1017.2 369.092C1020.62 369.261 1023.57 368.723 1025.55 368.188C1025.53 368.044 1025.51 367.901 1025.49 367.756C1023.5 368.086 1020.59 368.452 1017.39 368.386Z" fill="#9D413B"/>
    <path d="M1011.05 394.315C1011.07 394.47 1011.09 394.625 1011.1 394.779C1012.55 394.949 1014.16 395.062 1015.92 395.048C1019.6 395.018 1022.59 394.477 1024.61 393.987C1022.07 394.281 1019.04 394.5 1015.62 394.484C1014 394.476 1012.49 394.41 1011.05 394.315H1011.05Z" fill="#9D413B"/>
    <path d="M1024.59 399.346C1025.48 399.367 1027.28 399.378 1029.55 399.161C1029.54 398.973 1029.53 398.784 1029.52 398.597C1028.58 398.695 1026.9 398.849 1024.78 398.939C1023.1 399.01 1021.54 399.022 1020.13 398.999C1021.3 399.155 1022.82 399.304 1024.59 399.346Z" fill="#9D413B"/>
    <path d="M1011.37 419.073C1011.35 419.261 1011.34 419.446 1011.32 419.635C1014.44 419.807 1017.05 419.486 1018.85 419.146C1016.71 419.261 1014.17 419.271 1011.37 419.073Z" fill="#9D413B"/>
    <path d="M1023.67 424.953C1024.82 425.212 1026.38 425.483 1028.24 425.615C1028.26 425.47 1028.29 425.315 1028.31 425.165C1026.61 425.151 1025.05 425.074 1023.67 424.953Z" fill="#9D413B"/>
    <path d="M1022.63 444.591C1023.3 444.618 1023.95 444.601 1024.57 444.553C1024.6 444.3 1024.62 444.054 1024.65 443.813C1024.04 443.858 1023.41 443.884 1022.76 443.883L1022.69 443.882C1019.83 443.866 1017.8 443.513 1016.35 443.114C1017.8 443.753 1019.96 444.488 1022.63 444.591Z" fill="#9D413B"/>
    <path d="M1006.36 456.022L1006.34 456.018C1006.34 456.26 1006.33 456.508 1006.33 456.745C1012.25 457.76 1017.21 456.417 1017.2 456.334C1017.19 456.252 1012.06 456.905 1006.36 456.022Z" fill="#9D413B"/>
    <path d="M1006.11 159.608C1009.53 159.813 1012.38 159.48 1014.33 159.131C1011.98 159.25 1009.19 159.262 1006.09 159.039C1006.1 159.229 1006.11 159.419 1006.11 159.608Z" fill="#9D413B"/>
    <path d="M1026.65 165.681L1026.62 165.133C1023.92 165.2 1021.48 165.109 1019.41 164.938C1021.1 165.297 1023.61 165.683 1026.65 165.681Z" fill="#9D413B"/>
    <path d="M1006.91 175.834C1007.23 175.908 1007.54 175.988 1007.89 176.05C1014.12 177.17 1019.41 175.771 1019.39 175.688C1019.38 175.605 1014.11 176.259 1008.25 175.379L1008.15 175.365C1007.7 175.295 1007.27 175.221 1006.85 175.146C1006.87 175.373 1006.89 175.612 1006.91 175.834Z" fill="#9D413B"/>
    <path d="M1027.63 179.707C1027.62 179.579 1027.61 179.445 1027.6 179.315C1025.56 179.663 1022.35 180.098 1018.8 180.027L1018.7 180.025C1015.04 179.945 1012.43 179.546 1010.59 179.115C1012.43 179.787 1015.18 180.569 1018.6 180.733C1022.38 180.914 1025.61 180.278 1027.63 179.707Z" fill="#9D413B"/>
    <path d="M1021.08 199.073C1023.14 198.931 1025.95 198.581 1029.15 197.715L1029.14 197.602C1026.81 197.981 1024.8 198.207 1023.25 198.344C1022.58 198.403 1021.71 198.472 1020.68 198.531C1016.73 198.754 1013.23 198.67 1010.34 198.476C1011.53 198.692 1013.06 198.92 1014.88 199.055C1017.47 199.247 1019.62 199.174 1021.07 199.073H1021.08Z" fill="#9D413B"/>
    <path d="M1024.08 222.12C1025.63 222.467 1027.91 222.837 1030.66 222.859C1030.66 222.68 1030.66 222.501 1030.66 222.318C1028.2 222.372 1025.97 222.285 1024.08 222.12Z" fill="#9D413B"/>
    <path d="M1023.94 240.676C1026.38 240.771 1028.5 240.31 1030.04 239.805C1030.06 239.631 1030.07 239.458 1030.09 239.285C1028.53 239.625 1026.41 239.974 1024.07 239.967L1024 239.967C1021.14 239.951 1019.11 239.597 1017.66 239.198C1019.11 239.838 1021.27 240.572 1023.94 240.676Z" fill="#9D413B"/>
    <path d="M1013.2 253.143C1012.35 253.139 1011.54 253.118 1010.74 253.088C1010.73 253.264 1010.71 253.446 1010.7 253.626C1011.59 253.683 1012.52 253.715 1013.5 253.707C1017.18 253.678 1020.17 253.137 1022.19 252.646C1019.65 252.941 1016.62 253.159 1013.2 253.143Z" fill="#9D413B"/>
    <path d="M1017.71 257.659C1018.88 257.814 1020.4 257.963 1022.17 258.005C1023.2 258.03 1025.41 258.042 1028.18 257.707C1028.22 257.703 1028.25 257.699 1028.29 257.694C1028.31 257.499 1028.32 257.305 1028.34 257.113C1028.15 257.137 1027.95 257.161 1027.74 257.186C1027.15 257.255 1025.11 257.482 1022.36 257.599C1020.68 257.669 1019.12 257.682 1017.71 257.659L1017.71 257.659Z" fill="#9D413B"/>
    <path d="M1020.5 275.701C1020.48 275.618 1015.36 276.271 1009.66 275.388L1009.57 275.374C1009.45 275.355 1009.33 275.334 1009.21 275.314C1009.2 275.549 1009.18 275.789 1009.17 276.027C1009.22 276.036 1009.26 276.05 1009.31 276.059C1015.37 277.181 1020.51 275.784 1020.5 275.701Z" fill="#9D413B"/>
    <path d="M1019.92 280.04L1019.83 280.038C1016.26 279.957 1013.73 279.557 1011.94 279.125C1013.73 279.798 1016.4 280.581 1019.73 280.746C1022.36 280.876 1024.72 280.583 1026.57 280.198C1026.58 280.005 1026.59 279.812 1026.61 279.621C1024.76 279.876 1022.43 280.092 1019.92 280.04H1019.92Z" fill="#9D413B"/>
    <path d="M1011.17 312.713C1009.77 312.707 1008.46 312.652 1007.2 312.578L1007.17 313.07C1008.49 313.206 1009.93 313.289 1011.48 313.277C1015.16 313.248 1018.14 312.706 1020.16 312.216C1017.63 312.51 1014.6 312.729 1011.17 312.713V312.713Z" fill="#9D413B"/>
    <path d="M657.647 6.82197L657.647 6.89588C657.631 9.74879 657.278 11.7846 656.878 13.2274C657.518 11.7778 658.252 9.61786 658.356 6.95044C658.374 6.48853 658.366 6.04266 658.348 5.60504C658.104 5.60101 657.859 5.59692 657.616 5.59296C657.635 5.99561 657.649 6.40375 657.647 6.82196V6.82197Z" fill="#9D413B"/>
    <path d="M612.004 10.4838C611.979 8.39319 611.737 6.56775 611.436 5.05005L611.169 5.04877C611.335 6.76764 611.446 8.66883 611.441 10.7475C611.433 14.0436 611.146 16.9348 610.785 19.3069C611.354 17.3949 612.051 14.3232 612.004 10.4838Z" fill="#9D413B"/>
    <path d="M622.134 5.12335C621.957 5.12176 621.782 5.12054 621.605 5.11902C621.637 7.33386 621.553 9.35419 621.399 11.0848C621.726 9.65906 622.075 7.60529 622.134 5.12335Z" fill="#9D413B"/>
    <path d="M587.07 17.7382C587.71 16.2885 588.444 14.1286 588.548 11.4612C588.649 8.8645 588.121 6.62744 587.579 5.06671C587.419 5.06787 587.261 5.06976 587.102 5.07098C587.458 6.64215 587.846 8.86737 587.839 11.3327L587.839 11.4066C587.823 14.2595 587.469 16.2953 587.07 17.7382V17.7382Z" fill="#9D413B"/>
    <path d="M598.459 23.1876C598.583 21.95 598.654 20.5948 598.627 19.1299C598.563 15.6744 597.994 12.8714 597.485 10.9769C597.803 13.3564 598.05 16.2035 598.066 19.4229C598.072 20.75 598.029 21.9936 597.966 23.1923C598.131 23.1907 598.295 23.1892 598.459 23.1876V23.1876Z" fill="#9D413B"/>
    <path d="M514.389 14.0797C514.735 12.6263 515.104 10.4911 515.129 7.90887C514.946 7.92523 514.769 7.94158 514.589 7.95794C514.639 10.2415 514.552 12.3151 514.389 14.0797Z" fill="#9D413B"/>
    <path d="M550.746 24.0327C550.817 23.7634 550.896 23.5057 550.956 23.2205C552.143 17.6749 550.801 12.9497 550.717 12.9599C550.634 12.97 551.232 17.6753 550.289 22.8939L550.274 22.9766C550.205 23.3525 550.133 23.7059 550.06 24.0513C550.288 24.0449 550.518 24.039 550.746 24.0327Z" fill="#9D413B"/>
    <path d="M540.523 17.3943C541.163 15.9446 541.897 13.7847 542.001 11.1173C542.074 9.25922 541.821 7.58966 541.475 6.21454C541.27 6.224 541.064 6.23236 540.86 6.24194C541.101 7.60565 541.297 9.23474 541.292 10.9888L541.292 11.0627C541.276 13.9156 540.923 15.9515 540.523 17.3943V17.3943Z" fill="#9D413B"/>
    <path d="M509.068 25.7636C509.247 22.7985 508.924 20.3216 508.582 18.6186C508.699 20.6718 508.709 23.1025 508.501 25.7994C508.69 25.7875 508.877 25.7756 509.068 25.7636Z" fill="#9D413B"/>
    <path d="M504.431 13.7554C504.423 16.9252 504.136 19.7056 503.774 21.9869C504.343 20.1481 505.04 17.194 504.994 13.5018C504.973 11.8151 504.797 10.3157 504.564 9.01099C504.452 9.02448 504.34 9.03797 504.229 9.05146C504.354 10.4974 504.435 12.0623 504.431 13.7554V13.7554Z" fill="#9D413B"/>
    <path d="M478.249 17.548C478.166 17.5581 478.765 22.2633 477.822 27.4819L477.806 27.5646C477.79 27.6532 477.773 27.7343 477.756 27.8209C478.003 27.8137 478.249 27.8065 478.491 27.7988C479.673 22.2574 478.333 17.5377 478.249 17.548Z" fill="#9D413B"/>
    <path d="M465.575 12.2572C465.354 12.2576 465.138 12.2583 464.913 12.2584C465.106 13.4899 465.249 14.8992 465.245 16.4002L465.245 16.4741C465.229 19.327 464.875 21.3628 464.476 22.8056C465.116 21.356 465.85 19.196 465.954 16.5286C466.015 14.947 465.841 13.5018 465.575 12.2571V12.2572Z" fill="#9D413B"/>
    <path d="M898.013 16.7947C897.685 13.5252 896.903 10.9145 896.25 9.15985C896.749 11.3894 897.214 14.0676 897.477 17.1171C897.612 18.6913 897.674 20.1721 897.69 21.5623C897.833 21.5465 897.978 21.5314 898.122 21.516C898.195 20.1067 898.187 18.5273 898.013 16.7947H898.013Z" fill="#9D413B"/>
    <path d="M873.959 14.3431C874.599 12.8934 875.333 10.7335 875.437 8.0661C875.473 7.13879 875.425 6.26044 875.329 5.43848C875.092 5.45276 874.848 5.46582 874.608 5.47956C874.683 6.26032 874.73 7.08289 874.728 7.93763L874.727 8.01154C874.711 10.8644 874.358 12.9003 873.959 14.3431Z" fill="#9D413B"/>
    <path d="M846.874 12.8939C846.755 16.1619 846.328 18.478 845.877 20.1124C846.569 18.4813 847.381 16.0409 847.581 12.9896C847.806 9.56366 847.178 6.63441 846.622 4.83393C846.495 4.82642 846.36 4.81818 846.232 4.81049C846.564 6.62043 846.988 9.55555 846.877 12.8092L846.874 12.8939V12.8939Z" fill="#9D413B"/>
    <path d="M808.444 19.0214C808.745 18.0038 809.083 16.68 809.348 15.1061C809.726 12.8607 809.808 10.9724 809.813 9.69018C809.82 7.85412 809.672 5.32879 809.021 2.41192L808.919 2.40515C809.137 4.52539 809.219 6.33685 809.244 7.72778C809.254 8.31488 809.26 9.0863 809.244 9.99133C809.182 13.4583 808.845 16.5113 808.444 19.0214L808.444 19.0214Z" fill="#9D413B"/>
    <path d="M800.065 20.0375C800.215 20.0463 800.359 20.0555 800.508 20.0644C800.808 18.745 801.06 17.261 801.181 15.6085C801.417 12.3917 801.093 9.73383 800.75 7.92566C800.86 10.1666 800.86 12.8352 800.597 15.8281C800.465 17.3271 800.279 18.725 800.065 20.0375Z" fill="#9D413B"/>
    <path d="M782.653 6.82197L782.652 6.89588C782.636 9.74879 782.283 11.7846 781.884 13.2274C782.523 11.7778 783.258 9.61786 783.362 6.95044C783.459 4.43756 782.967 2.26502 782.445 0.712463C782.277 0.704343 782.111 0.696593 781.944 0.688843C782.292 2.25207 782.66 4.4223 782.653 6.82196V6.82197Z" fill="#9D413B"/>
    <path d="M740.272 2.98065C740.091 3.00665 739.908 3.0329 739.725 3.05896C739.789 5.53003 739.699 7.76483 739.529 9.6601C739.889 8.10132 740.274 5.78663 740.272 2.98066V2.98065Z" fill="#9D413B"/>
    <path d="M733.638 21.8141C733.83 21.7989 734.017 21.7834 734.207 21.768C734.391 18.6877 734.065 16.1154 733.722 14.3487C733.839 16.482 733.85 19.0088 733.638 21.8141H733.638Z" fill="#9D413B"/>
    <path d="M715.18 12.7044C715.06 15.9723 714.634 18.2885 714.183 19.9228C714.874 18.2918 715.686 15.8514 715.886 12.8C716.072 9.96575 715.674 7.47887 715.215 5.68066C715.051 5.69104 714.886 5.70178 714.722 5.71179C715.004 7.50842 715.274 9.95434 715.183 12.6197L715.18 12.7044V12.7044Z" fill="#9D413B"/>
    <path d="M710.894 23.0609C710.959 22.81 711.032 22.5717 711.089 22.307C712.275 16.7613 710.933 12.0362 710.849 12.0464C710.767 12.0565 711.365 16.7618 710.422 21.9803L710.407 22.0631C710.342 22.4185 710.273 22.7542 710.204 23.0821C710.433 23.0757 710.665 23.0677 710.894 23.0609V23.0609Z" fill="#9D413B"/>
    <path d="M687.476 6.6985C687.503 7.21272 687.585 8.98799 687.506 11.3754C687.457 12.8298 687.359 14.1738 687.236 15.3898C687.474 14.3917 687.73 13.0979 687.898 11.5719C687.995 10.6878 688.164 8.77925 688.027 6.3603C688.022 6.2721 688.017 6.20204 688.011 6.12049C687.822 6.11719 687.632 6.11408 687.442 6.11072C687.453 6.29688 687.465 6.48389 687.476 6.69849V6.6985Z" fill="#9D413B"/>
    <path d="M682.418 18.8875C682.283 20.4283 682.091 21.8666 681.868 23.2072L682.303 23.2104C682.616 21.8748 682.879 20.361 683.002 18.6717C683.233 15.4991 682.906 12.8771 682.56 11.0932C682.674 13.3037 682.677 15.9358 682.418 18.8875L682.418 18.8875Z" fill="#9D413B"/>
    <path d="M1008.35 80.9915C1010.99 80.1189 1013.1 79.1775 1014.51 78.4932C1016.41 77.5739 1018.9 76.2053 1021.59 74.273L1021.54 74.1073C1019.55 75.2843 1017.78 76.2315 1016.39 76.9372C1015.76 77.2618 1014.91 77.6812 1013.91 78.1529C1010.08 79.9599 1006.57 81.3031 1003.62 82.297C1004.88 82.016 1006.49 81.6032 1008.35 80.9915V80.9915Z" fill="#9D413B"/>
    <path d="M1004.15 52.7252C1006.39 51.5284 1008.03 49.9867 1009.11 48.7445C1009.01 48.6152 1008.91 48.483 1008.82 48.3558C1007.64 49.4447 1005.97 50.846 1003.9 52.0485L1003.84 52.0855C1001.37 53.5119 999.431 54.2345 997.984 54.6184C999.559 54.4386 1001.79 53.9822 1004.15 52.7253V52.7252Z" fill="#9D413B"/>
    <path d="M991.194 40.8548C994.163 38.5779 996.357 36.1201 997.778 34.2705L997.477 33.9037C995.93 35.6151 993.665 37.9477 990.91 40.1721L990.827 40.239C987.62 42.8176 985.125 44.3849 983.268 45.3769C985.278 44.5706 988.142 43.1949 991.194 40.8548H991.194Z" fill="#9D413B"/>
    <path d="M974.324 13.699C974.49 13.2947 974.619 12.9656 974.722 12.6993C974.558 12.5988 974.397 12.4951 974.232 12.3958C974.081 12.7802 973.882 13.2788 973.636 13.8671C973.391 14.4543 972.537 16.4787 971.212 19.1281C970.405 20.742 969.61 22.2129 968.859 23.5305C969.603 22.5016 970.518 21.1478 971.473 19.4991C972.026 18.5441 973.183 16.4668 974.324 13.699V13.699Z" fill="#9D413B"/>
    <path d="M960.132 30.4984C961.14 29.1014 962.198 27.4736 963.217 25.588C965.094 22.1158 966.165 19.0468 966.78 16.9117C965.727 19.4365 964.35 22.3922 962.564 25.6061C961.618 27.3085 960.671 28.8724 959.75 30.3086C959.876 30.3719 960.007 30.4351 960.132 30.4985L960.132 30.4984Z" fill="#9D413B"/>
    <path d="M952.41 8.93756C953.3 7.17419 953.773 5.44733 954.018 3.99744C953.828 3.94745 953.636 3.89862 953.444 3.84943C953.096 5.22828 952.585 6.8617 951.818 8.52613L951.787 8.59321C950.587 11.1815 949.42 12.8863 948.457 14.0328C949.641 12.98 951.207 11.3206 952.41 8.93758V8.93756Z" fill="#9D413B"/>
    <path d="M922.456 0.00774316C922.168 2.88634 921.754 5.46611 921.31 7.63958C921.895 5.88622 922.617 3.25665 923.01 0.00549316C922.825 0.00592316 922.64 0.00622316 922.456 0.00775316V0.00774316Z" fill="#9D413B"/>
    <path d="M914.882 12.2714C914.697 14.6919 914.353 17.5403 913.757 20.6719C913.949 20.6725 914.136 20.6696 914.329 20.6711C914.928 17.2341 914.97 14.3046 914.882 12.2714Z" fill="#9D413B"/>
    <path d="M900.321 3.82086C900.437 4.33954 900.829 6.13171 901.169 8.57544C901.377 10.0642 901.515 11.4493 901.607 12.7084C901.667 11.6507 901.692 10.2889 901.59 8.7063C901.53 7.78949 901.362 5.81726 900.804 3.37964C900.712 2.9787 900.629 2.65265 900.567 2.41339C900.381 2.4444 900.196 2.4751 900.009 2.50622C900.093 2.84472 900.201 3.28601 900.321 3.82086H900.321Z" fill="#9D413B"/>
    <path d="M1024.28 126.888C1024.27 126.722 1024.26 126.55 1024.25 126.387C1022.7 126.723 1020.6 127.065 1018.29 127.058L1018.21 127.057C1015.36 127.041 1013.32 126.688 1011.88 126.289C1013.33 126.928 1015.49 127.663 1018.16 127.767C1020.61 127.862 1022.74 127.396 1024.28 126.888Z" fill="#9D413B"/>
    <path d="M1004.94 141.58C1006.46 141.769 1008.16 141.897 1010.04 141.882C1013.72 141.853 1016.71 141.311 1018.73 140.821C1016.19 141.115 1013.16 141.334 1009.74 141.318C1008.02 141.31 1006.41 141.239 1004.9 141.134L1004.94 141.58H1004.94Z" fill="#9D413B"/>
    <path d="M1005.15 112.542C1004.75 112.481 1004.38 112.415 1004.02 112.349C1004 112.573 1003.99 112.797 1003.98 113.022C1004.28 113.092 1004.57 113.168 1004.89 113.228C1010.95 114.349 1016.09 112.952 1016.07 112.869C1016.06 112.786 1010.94 113.439 1005.24 112.557L1005.15 112.542V112.542Z" fill="#9D413B"/>
    <path d="M1017.7 97.3067C1019.15 97.5493 1021.21 97.7816 1023.67 97.7344C1023.67 97.5622 1023.68 97.385 1023.68 97.2145C1021.47 97.3488 1019.45 97.3676 1017.7 97.3067V97.3067Z" fill="#9D413B"/>
    <path d="M1004.76 92.2317C1004.78 92.4215 1004.8 92.6075 1004.82 92.7961C1008.02 92.8102 1010.68 92.3539 1012.5 91.9211C1010.29 92.1483 1007.68 92.2907 1004.76 92.2317Z" fill="#9D413B"/>
    <path d="M287.011 420.169C288.571 425.187 288.799 429.229 288.73 431.952C288.482 441.818 284.001 447.991 284.876 457.898C285.096 460.386 285.608 462.94 285.608 462.94C286.509 466.476 287.964 468.454 288.824 473.09C290.2 480.497 289.49 491.622 278.868 506.809C290.156 491.627 291.121 480.436 289.867 472.978C289.109 468.464 287.736 466.502 286.906 463.016C286.906 463.016 286.436 460.474 286.251 458.005C285.991 454.547 290.382 440.839 290.741 431.842C290.849 429.137 290.674 425.143 289.18 420.178C288.73 420.183 288.273 420.184 287.809 420.18C287.541 420.178 287.275 420.174 287.011 420.169V420.169Z" fill="#563E8A"/>
    <path d="M305.091 418.688C305.086 421.802 305.334 426.74 306.854 432.503C311.175 448.881 320.956 453.961 325.296 463.486C329.502 472.719 329.077 488.574 307.052 517.464C330.532 488.112 331.356 472.185 327.179 462.975C322.974 453.702 313.59 448.722 309.11 432.503C307.449 426.493 307.14 421.328 307.117 418.056L305.091 418.688V418.688Z" fill="#563E8A"/>
    <path d="M260.84 416.016C265.67 437.842 261.267 450.844 255.898 458.838C249.896 467.776 240.472 473.726 237.726 486.996C236.379 493.506 237.158 499.189 238.039 502.999C237.611 499.375 237.377 493.763 239.084 487.337C242.637 473.957 251.809 468.13 257.778 459.569C263.122 451.904 267.914 439.2 263.865 417.496L260.84 416.016Z" fill="#895EE6"/>
    <path d="M268.673 419.076C269.003 423.742 269.237 430.638 268.548 438.964C267.189 455.377 266.3 466.599 258.648 476.584C252.868 484.127 247.949 484.853 245.137 492.633C242.763 499.201 243.795 505.53 245.063 509.893C244.092 505.613 243.438 499.409 245.997 493.03C249.191 485.069 254.326 484.474 260.311 477.052C267.988 467.532 268.991 456.634 270.711 439.105C271.511 430.949 271.457 424.186 271.267 419.613L268.673 419.076H268.673Z" fill="#563E8A"/>
    <path d="M312.512 415.544C312.615 418.686 313.096 423.591 315.174 429.047C321.004 444.356 332.215 444.881 337.49 456.815C343.457 470.315 338.273 489.47 327.347 497.737C319.676 503.541 309.893 503.467 309.851 503.299C309.809 503.132 319.282 502.992 326.477 497.116C336.262 489.124 341.265 470.903 335.534 457.4C330.36 445.209 318.798 444.573 312.952 428.853C311.138 423.973 310.601 419.664 310.415 416.976C310.648 416.868 310.895 416.739 311.15 416.585C311.71 416.248 312.16 415.88 312.512 415.544V415.544Z" fill="#895EE6"/>
    <path d="M298.411 420.091C301.04 427.989 301.477 434.604 301.205 439.666C300.735 448.421 298.2 451.131 299.805 456.911C301.887 464.409 307.512 465.099 310.728 471.672C313.037 476.39 314.078 484.084 308.348 497.102C315.007 484.074 314.297 476.335 312.199 471.599C309.324 465.109 303.854 464.283 301.765 456.619C300.22 450.951 302.449 448.381 302.956 439.52C303.222 434.87 303.043 428.071 300.732 419.604C300.355 419.695 299.967 419.783 299.568 419.867C299.174 419.95 298.788 420.024 298.411 420.091H298.411Z" fill="#895EE6"/>
    <path d="M258.773 506.641C268.547 500.775 271.978 494.869 273.306 490.564C276.187 481.221 270.007 476.682 272.48 464.842C274.215 456.537 278.017 455.785 281.067 447.012C283.169 440.968 284.574 432.208 281.456 420.337L284.453 420.528C287.86 433.15 286.067 442.005 283.82 447.743C280.459 456.321 276.402 456.922 274.352 465.183C271.438 476.923 277.858 481.73 274.682 490.954C273.229 495.174 269.514 501.057 258.773 506.641Z" fill="#895EE6"/>
    <path d="M290.296 420.962C290.244 421.231 290.201 421.654 290.352 422.126C290.744 423.356 292.035 423.454 292.646 424.433C293.514 425.826 291.975 426.648 292.413 428.755C292.867 430.938 294.731 431.072 294.728 432.932C294.725 434.533 293.345 435.085 293.802 436.303C294.228 437.438 295.715 437.729 295.58 438.495C295.473 439.1 294.507 439.132 294.391 439.787C294.259 440.528 295.434 440.858 295.423 441.639C295.409 442.593 293.646 442.662 293.304 443.757C292.873 445.139 295.298 446.268 294.783 447.655C294.499 448.421 293.656 448.356 293.51 449.114C293.311 450.151 294.82 450.656 294.656 451.73C294.533 452.535 293.644 452.528 293.336 453.498C293.042 454.427 293.742 454.792 293.814 455.988C293.911 457.602 292.686 457.746 292.672 459.257C292.657 461.008 294.299 461.316 294.133 463.084C294.034 464.141 293.403 464.5 293.673 465.389C293.93 466.235 294.597 466.225 295.03 467.025C295.794 468.436 294.193 469.345 294.708 470.84C295.251 472.414 297.288 472.165 297.877 473.906C298.27 475.066 297.53 475.66 298.191 476.579C298.81 477.442 299.663 477.201 300.133 478.021C300.693 478.999 299.686 479.704 300.276 480.691C300.738 481.465 301.558 481.367 301.788 482.108C301.981 482.73 301.459 482.974 301.412 483.759C301.343 484.929 302.456 485.192 302.836 486.468C303.246 487.841 302.128 488.107 302.212 489.932C302.297 491.805 303.498 492.06 303.177 493.485C302.924 494.61 302.058 494.972 302.253 495.96C302.392 496.667 302.884 496.73 303.013 497.417C303.201 498.421 302.297 499.063 301.949 499.846C301.565 500.713 301.671 502.185 304.087 504.81C303.468 503.426 303.567 502.477 303.9 501.811C304.214 501.184 304.549 501.182 304.87 500.489C305.369 499.411 304.75 499.006 305.043 497.567C305.29 496.353 305.794 496.329 305.79 495.39C305.787 494.374 305.196 494.222 305.006 493.188C304.732 491.697 305.853 491.44 305.798 489.877C305.74 488.203 304.437 488.011 304.501 486.355C304.552 485.054 305.369 484.812 305.107 483.794C304.826 482.704 303.811 482.681 303.552 481.561C303.306 480.497 304.148 480.181 303.842 479.253C303.504 478.228 302.39 478.347 301.863 477.181C301.463 476.296 302.004 476.001 301.617 475.094C301.141 473.975 300.186 474.116 299.487 473.091C298.554 471.722 299.872 470.905 299.07 469.202C298.376 467.73 297.057 467.632 297.036 466.429C297.022 465.624 297.609 465.425 297.548 464.488C297.486 463.545 296.87 463.426 296.618 462.54C296.174 460.977 297.826 460.396 297.55 458.789C297.302 457.348 295.834 457.002 296.088 455.937C296.281 455.13 297.175 455.117 297.377 454.213C297.582 453.294 296.725 453.01 296.853 452.033C296.991 450.972 298.054 450.896 298.232 449.84C298.408 448.794 297.418 448.563 297.442 447.451C297.473 445.996 299.184 445.777 299.23 444.388C299.273 443.091 297.799 442.721 298.032 441.408C298.171 440.621 298.762 440.398 298.67 439.628C298.588 438.939 298.082 438.857 297.83 438.187C297.389 437.017 298.613 436.424 298.578 435.035C298.545 433.669 297.344 433.614 296.901 432.003C296.426 430.279 297.686 429.931 297.467 427.988C297.215 425.752 295.469 425.532 295.648 423.597C295.711 422.925 296.396 422.037 296.068 420.812C296.033 420.679 295.994 420.571 295.967 420.5L290.296 420.962L290.296 420.962Z" fill="#563E8A"/>
    <path d="M273.085 419.982C272.942 420.299 272.765 420.794 272.756 421.404C272.734 422.862 273.717 423.538 274.169 424.665C275.035 426.825 273.02 427.5 273.496 429.901C274.034 432.615 276.955 433.512 276.4 435.209C276.059 436.252 274.828 436.315 274.752 437.344C274.66 438.593 276.47 439.19 276.214 440.145C275.976 441.037 274.299 440.889 273.894 441.867C273.466 442.901 275.142 443.549 275.216 444.997C275.322 447.06 272.011 447.452 271.49 450.004C271.107 451.882 272.759 452.349 272.311 454.686C271.994 456.345 271.07 456.586 271.186 457.964C271.326 459.619 272.71 459.894 272.599 461.226C272.473 462.736 270.64 463.052 270.661 464.42C270.678 465.555 271.945 465.629 272.569 466.981C273.661 469.344 270.699 471.081 271.673 473.312C272.418 475.017 274.495 474.794 274.954 476.593C275.304 477.962 274.2 478.485 274.659 479.802C275.17 481.268 276.692 481.063 277.404 482.543C278.226 484.249 276.562 485.272 277.392 486.844C278.2 488.373 280.18 488.147 280.513 489.508C280.782 490.605 279.573 491.04 279.788 492.367C279.997 493.656 281.217 493.745 281.466 494.913C281.788 496.421 279.872 496.834 279.479 498.841C279.028 501.149 281.262 502.129 280.534 504.15C280.046 505.506 278.981 505.247 278.395 506.785C277.692 508.628 278.864 509.989 277.909 510.783C277.199 511.373 276.172 510.937 275.742 511.574C275.35 512.154 276.07 512.707 275.835 513.454C275.505 514.506 273.71 514.589 272.673 515.198C271.486 515.895 270.473 517.763 271.425 523C271.494 522.229 271.738 521.09 272.673 520.197C273.961 518.965 275.256 519.442 276.388 518.191C277.45 517.017 276.901 515.99 278.19 515.125C278.937 514.623 279.357 514.811 279.85 514.287C280.609 513.479 279.954 512.671 280.32 511.529C280.895 509.734 283.071 510.005 283.915 508.248C284.598 506.826 283.336 506.304 283.634 504.069C283.96 501.621 285.564 501.566 285.643 499.574C285.736 497.21 283.505 496.589 283.909 494.315C284.155 492.932 285.061 492.705 284.935 491.47C284.798 490.136 283.706 490.068 283.072 488.487C282.281 486.512 283.628 485.722 282.75 484.204C281.928 482.781 280.51 483.094 279.893 481.686C279.309 480.352 280.437 479.742 279.871 478.341C279.277 476.871 277.822 477.02 277.311 475.663C276.767 474.22 278.276 473.682 278.127 471.848C277.941 469.557 275.481 469.082 275.627 467.008C275.721 465.673 276.763 465.538 276.66 464.248C276.535 462.676 274.945 462.387 274.967 460.994C274.988 459.734 276.296 459.569 276.43 458.147C276.568 456.697 275.376 456.403 275.414 455.104C275.474 453.034 278.633 452.772 279.119 450.451C279.508 448.592 277.676 447.831 278.355 446.208C278.995 444.678 280.905 444.679 281.076 443.367C281.228 442.207 279.77 441.927 279.68 440.44C279.592 438.979 280.959 438.619 280.846 437.103C280.759 435.934 279.924 435.828 279.644 434.648C279.213 432.834 280.989 432.232 281.219 430.279C281.576 427.254 277.51 425.242 278.531 423.628C278.907 423.033 279.929 422.668 280.161 421.528C280.214 421.263 280.209 421.041 280.199 420.907L273.085 419.982L273.085 419.982Z" fill="#563E8A"/>
    <path d="M256.738 416.583C256.32 415.789 255.743 414.57 255.275 413.017C252.608 404.177 256.881 395.941 258.598 392.63C260.287 389.374 263.013 384.118 269.11 380.256C275.39 376.277 281.557 376.115 285.409 376.013C294.175 375.782 300.49 378.678 301.826 379.313C303.908 380.303 308.302 382.651 312.456 387.209C315.308 390.338 320.208 395.714 320.251 403.354C320.27 406.726 319.336 409.447 318.597 411.132C319.057 411.633 319.908 412.718 320.102 414.284C320.137 414.569 320.415 416.819 319.21 417.708C318.903 417.935 318.532 418.023 318.532 418.023C317.645 418.233 316.884 417.712 316.703 417.581C316.77 417.88 316.835 418.34 316.754 418.884C316.693 419.292 316.405 420.722 315.067 421.425C314.052 421.958 313.024 421.699 312.341 421.529C311.507 421.322 310.894 420.949 310.529 420.686C310.262 421.136 309.869 421.73 309.321 422.372C308.729 423.066 308.29 423.58 307.529 424.017C307.232 424.187 306.502 424.596 305.512 424.67C304.961 424.711 304.42 424.642 302.785 424.04C302.005 423.752 300.965 423.339 299.755 422.77C299.266 423.363 298.466 424.206 297.294 424.96C296.218 425.651 295.18 426.318 293.82 426.349C292.596 426.377 291.441 425.713 289.132 424.384C288.241 423.871 287.529 423.412 287.055 423.096C286.63 423.588 285.978 424.255 285.068 424.893C284.116 425.562 283.26 426.162 282.108 426.313C280.744 426.492 279.678 425.946 277.875 425.023C276.598 424.37 275.617 423.682 274.952 423.167C274.46 423.549 273.721 424.078 272.759 424.604C271.408 425.343 270.656 425.754 269.637 425.731C268.71 425.709 268.051 425.339 267.113 424.811C266.394 424.407 265.399 423.735 264.41 422.637C264.064 422.951 263.543 423.379 262.849 423.795C262.194 424.188 261.87 424.398 261.461 424.476C259.671 424.817 258.117 423.194 257.683 422.74C257.301 422.342 256.618 421.61 256.289 420.418C255.776 418.556 256.523 416.997 256.738 416.583H256.738Z" fill="#895EE6"/>
    <path d="M290.287 379.944C290.287 379.943 290.181 379.444 289.626 379.047C287.326 377.402 276.519 380.407 276.519 380.407C276.519 380.407 266.336 385.126 265.526 387.912C265.331 388.585 265.547 389.044 265.547 389.044C265.547 389.044 265.762 389.499 266.376 389.75C267.814 390.337 271.935 385.734 277.255 383.97C277.538 383.876 277.839 383.746 278.115 383.634C283.322 381.535 289.293 382.433 290.064 381.036C290.393 380.439 290.287 379.944 290.287 379.944H290.287Z" fill="#CBBCEC"/>
    <path d="M264.289 393.756C265.086 392.834 265.19 391.621 264.523 391.048C263.856 390.475 262.67 390.758 261.874 391.68C261.078 392.602 260.973 393.815 261.64 394.388C262.307 394.961 263.493 394.678 264.289 393.756Z" fill="#CBBCEC"/>
    <path d="M308.406 388.476C307.779 388.504 306.878 388.8 306.516 389.536C305.882 390.827 307.417 392.428 307.638 392.659C308.295 393.345 309.873 394.56 310.886 393.956C311.777 393.424 311.728 391.786 311.359 390.774C310.949 389.651 309.819 388.411 308.406 388.476H308.406Z" fill="#563E8A"/>
    <path d="M308.524 395.605C307.8 396.345 308.524 398.307 309.41 398.434C309.994 398.517 310.739 397.814 310.886 397.02C310.912 396.88 311.027 396.158 310.532 395.664C309.975 395.109 308.961 395.159 308.524 395.605V395.605Z" fill="#563E8A"/>
    <path d="M312.54 394.486C312.33 395.057 312.562 395.865 313.189 396.254C313.704 396.572 314.341 396.519 314.784 396.254C315.617 395.754 315.816 394.473 315.315 393.897C314.692 393.18 312.913 393.472 312.54 394.486Z" fill="#563E8A"/>
    <path d="M311.418 399.141C311.004 399.367 311.034 400.158 311.063 400.909C311.09 401.601 311.12 402.363 311.595 403.148C311.99 403.801 313.037 405.037 314.016 404.739C314.803 404.499 315.183 403.378 315.138 402.559C315.076 401.415 314.178 400.703 313.248 399.966C312.659 399.498 311.886 398.885 311.418 399.141H311.418Z" fill="#563E8A"/>
    <path d="M315.552 398.257C315.432 398.53 315.425 398.953 315.67 399.2C315.997 399.529 316.578 399.348 316.674 399.318C317.461 399.072 318.028 398.094 317.796 397.727C317.515 397.284 315.903 397.456 315.552 398.257Z" fill="#563E8A"/>
    <path d="M316.969 402.617C316.658 403.319 316.405 403.889 316.349 404.709C316.308 405.302 316.33 406.6 316.762 406.713C317.182 406.822 317.78 405.759 318.239 404.945C318.924 403.727 319.543 402.628 319.095 401.763C318.901 401.389 318.484 401.015 318.091 401.056C317.64 401.103 317.385 401.678 316.969 402.617H316.969Z" fill="#563E8A"/>
    <path d="M313.396 406.639C312.749 406.87 312.07 407.515 312.2 408.009C312.34 408.537 313.365 408.737 314.105 408.584C314.901 408.418 315.747 407.764 315.655 407.258C315.554 406.704 314.326 406.307 313.396 406.639Z" fill="#563E8A"/>
    <path d="M306.752 385.691C306.539 386.09 306.643 386.726 307.018 386.973C307.518 387.302 308.262 386.783 308.568 386.487C308.642 386.416 309.216 385.861 309.056 385.515C308.833 385.033 307.173 384.903 306.752 385.691H306.752Z" fill="#563E8A"/>
    <path d="M305.158 387.901C305.916 387.127 305.046 385.382 304.848 384.984C304.761 384.809 303.745 382.81 302.899 382.996C302.154 383.16 301.741 384.975 302.191 386.354C302.272 386.605 302.726 387.999 303.874 388.21C303.955 388.226 304.714 388.354 305.158 387.901L305.158 387.901Z" fill="#563E8A"/>
    <path d="M303.091 389.831C302.926 390.083 302.973 390.463 303.15 390.715C303.431 391.114 304.032 391.178 304.449 390.95C304.831 390.742 305.106 390.265 304.981 389.949C304.774 389.427 303.452 389.277 303.091 389.831H303.091Z" fill="#563E8A"/>
    <path d="M314.592 411.338C314.468 411.907 314.75 412.516 315.212 412.752C316.004 413.158 317.239 412.425 317.249 411.545C317.256 410.996 316.787 410.424 316.157 410.307C315.453 410.177 314.742 410.65 314.592 411.338Z" fill="#563E8A"/>
    <path d="M308.687 401.277C308.449 401.606 308.316 402.202 308.627 402.455C308.932 402.704 309.554 402.535 309.779 402.131C310.047 401.651 309.693 400.951 309.307 400.894C308.996 400.848 308.723 401.227 308.686 401.277L308.687 401.277Z" fill="#563E8A"/>
    <path d="M312.067 410.395C311.497 410.183 310.728 410.91 310.384 411.368C309.945 411.953 309.869 412.538 309.764 413.445C309.629 414.617 309.522 415.538 310.03 415.875C310.503 416.19 311.305 415.865 311.757 415.522C312.854 414.691 312.771 413.097 312.732 412.34C312.696 411.657 312.642 410.609 312.067 410.395Z" fill="#563E8A"/>
    <path d="M258.682 401.321C257.889 402.147 256.856 403.783 257.442 404.562C257.894 405.163 259.195 405.099 260.04 404.621C261.815 403.617 262.03 400.53 261.221 400.025C260.602 399.638 259.277 400.702 258.682 401.321L258.682 401.321Z" fill="#563E8A"/>
    <path d="M258.092 397.196C257.281 397.789 257.213 399.272 257.737 399.612C258.257 399.949 259.533 399.277 259.804 398.316C259.819 398.264 260.032 397.469 259.568 397.079C259.158 396.733 258.472 396.918 258.092 397.196H258.092Z" fill="#563E8A"/>
    <path d="M256.202 407.685C256.248 409.152 256.271 409.885 256.615 410.749C257.197 412.211 258.645 413.926 259.568 413.636C260.406 413.374 260.685 411.499 260.395 410.16C260.157 409.061 259.548 408.383 258.446 407.155C257.739 406.367 256.946 405.482 256.497 405.682C256.151 405.835 256.167 406.565 256.202 407.685Z" fill="#563E8A"/>
    <path d="M261.812 406.448C261.717 407.054 261.775 407.943 262.107 408.039C262.485 408.147 263.188 407.217 263.407 406.271C263.575 405.543 263.517 404.545 263.17 404.444C262.775 404.329 261.982 405.369 261.812 406.448V406.448Z" fill="#563E8A"/>
    <path d="M258.918 416.288C258.782 416.969 258.648 418.76 259.686 419.293C260.651 419.788 262.202 418.977 262.698 417.761C263.172 416.598 262.497 415.518 262.462 415.463C262.059 414.842 261.199 414.137 260.395 414.343C259.893 414.472 259.575 414.914 259.391 415.168C259.303 415.29 259.042 415.674 258.918 416.288Z" fill="#563E8A"/>
    <path d="M262.609 411.515C262.285 411.774 261.518 412.388 261.694 412.988C261.84 413.487 262.557 413.705 263.052 413.695C263.84 413.679 264.543 413.074 264.735 412.34C264.845 411.921 264.856 411.202 264.44 410.926C263.842 410.529 262.82 411.346 262.609 411.515L262.609 411.515Z" fill="#563E8A"/>
    <path d="M263.702 419.617C263.901 419.909 264.305 420.064 264.647 420C265.283 419.882 265.739 419.002 265.444 418.38C265.174 417.81 264.333 417.581 263.967 417.849C263.826 417.953 263.785 418.115 263.702 418.439C263.581 418.913 263.483 419.296 263.702 419.617V419.617Z" fill="#563E8A"/>
    <path d="M739.011 220.169C740.571 225.187 740.799 229.229 740.73 231.952C740.482 241.818 736.001 247.991 736.876 257.898C737.096 260.386 737.607 262.94 737.607 262.94C738.509 266.476 739.963 268.454 740.824 273.09C742.2 280.497 741.49 291.622 730.868 306.809C742.155 291.627 743.12 280.436 741.867 272.978C741.108 268.464 739.736 266.502 738.906 263.016C738.906 263.016 738.436 260.474 738.251 258.005C737.991 254.547 742.382 240.839 742.741 231.842C742.849 229.137 742.674 225.143 741.18 220.178C740.73 220.183 740.273 220.184 739.809 220.18C739.54 220.178 739.274 220.174 739.011 220.169V220.169Z" fill="#563E8A"/>
    <path d="M757.091 218.688C757.086 221.802 757.334 226.74 758.854 232.503C763.175 248.881 772.956 253.961 777.296 263.486C781.502 272.719 781.077 288.574 759.052 317.464C782.532 288.112 783.356 272.185 779.179 262.975C774.974 253.702 765.59 248.722 761.11 232.503C759.449 226.493 759.14 221.328 759.117 218.056L757.091 218.688V218.688Z" fill="#563E8A"/>
    <path d="M712.84 216.016C717.67 237.842 713.267 250.844 707.898 258.838C701.896 267.776 692.472 273.726 689.726 286.996C688.379 293.506 689.158 299.189 690.039 302.999C689.611 299.375 689.377 293.763 691.084 287.337C694.637 273.957 703.809 268.13 709.778 259.569C715.122 251.904 719.914 239.2 715.865 217.496L712.84 216.016Z" fill="#895EE6"/>
    <path d="M720.673 219.076C721.003 223.742 721.237 230.638 720.548 238.964C719.189 255.377 718.3 266.599 710.648 276.584C704.868 284.127 699.949 284.853 697.137 292.633C694.763 299.201 695.795 305.53 697.063 309.893C696.092 305.613 695.438 299.409 697.997 293.03C701.191 285.069 706.326 284.474 712.311 277.052C719.988 267.532 720.991 256.634 722.711 239.105C723.511 230.949 723.457 224.186 723.267 219.613L720.673 219.076H720.673Z" fill="#563E8A"/>
    <path d="M764.512 215.544C764.615 218.686 765.096 223.591 767.174 229.047C773.004 244.356 784.215 244.881 789.49 256.815C795.457 270.315 790.273 289.47 779.346 297.737C771.676 303.541 761.893 303.467 761.85 303.299C761.809 303.132 771.282 302.992 778.477 297.116C788.262 289.124 793.265 270.903 787.534 257.4C782.36 245.209 770.797 244.573 764.952 228.853C763.138 223.973 762.601 219.664 762.415 216.976C762.648 216.868 762.895 216.739 763.15 216.585C763.71 216.248 764.16 215.88 764.512 215.544V215.544Z" fill="#895EE6"/>
    <path d="M750.411 220.091C753.039 227.989 753.477 234.604 753.205 239.666C752.735 248.421 750.2 251.131 751.805 256.911C753.887 264.409 759.511 265.099 762.728 271.672C765.037 276.39 766.078 284.084 760.347 297.102C767.007 284.074 766.297 276.335 764.199 271.599C761.324 265.109 755.854 264.283 753.765 256.619C752.22 250.951 754.449 248.381 754.956 239.52C755.222 234.87 755.043 228.071 752.732 219.604C752.355 219.695 751.967 219.783 751.568 219.867C751.174 219.95 750.788 220.024 750.411 220.091H750.411Z" fill="#895EE6"/>
    <path d="M710.773 306.641C720.547 300.775 723.978 294.869 725.306 290.564C728.187 281.221 722.007 276.682 724.48 264.842C726.215 256.537 730.016 255.785 733.067 247.012C735.169 240.968 736.574 232.208 733.456 220.337L736.453 220.528C739.859 233.15 738.067 242.005 735.819 247.743C732.459 256.321 728.402 256.922 726.351 265.183C723.438 276.923 729.857 281.73 726.682 290.954C725.229 295.174 721.514 301.057 710.773 306.641Z" fill="#895EE6"/>
    <path d="M742.296 220.962C742.244 221.231 742.201 221.654 742.352 222.126C742.744 223.356 744.035 223.454 744.646 224.433C745.514 225.826 743.975 226.648 744.413 228.755C744.867 230.938 746.731 231.072 746.728 232.932C746.725 234.533 745.345 235.085 745.802 236.303C746.228 237.438 747.715 237.729 747.58 238.495C747.473 239.1 746.507 239.132 746.391 239.787C746.259 240.528 747.434 240.858 747.423 241.639C747.409 242.593 745.646 242.662 745.304 243.757C744.873 245.139 747.298 246.268 746.783 247.655C746.499 248.421 745.656 248.356 745.51 249.114C745.311 250.151 746.82 250.656 746.656 251.73C746.533 252.535 745.644 252.528 745.336 253.498C745.042 254.427 745.742 254.792 745.814 255.988C745.911 257.602 744.686 257.746 744.672 259.257C744.657 261.008 746.299 261.316 746.133 263.084C746.034 264.141 745.403 264.5 745.673 265.389C745.93 266.235 746.597 266.225 747.03 267.025C747.794 268.436 746.193 269.345 746.708 270.84C747.251 272.414 749.288 272.165 749.877 273.906C750.27 275.066 749.53 275.66 750.191 276.579C750.81 277.442 751.663 277.201 752.133 278.021C752.693 278.999 751.686 279.704 752.276 280.691C752.738 281.465 753.558 281.367 753.788 282.108C753.981 282.73 753.459 282.974 753.412 283.759C753.343 284.929 754.456 285.192 754.836 286.468C755.246 287.841 754.128 288.107 754.212 289.932C754.297 291.805 755.498 292.06 755.177 293.485C754.924 294.61 754.058 294.972 754.253 295.96C754.392 296.667 754.884 296.73 755.013 297.417C755.201 298.421 754.297 299.063 753.949 299.846C753.565 300.713 753.671 302.185 756.087 304.81C755.468 303.426 755.567 302.477 755.9 301.811C756.214 301.184 756.549 301.182 756.87 300.489C757.369 299.411 756.75 299.006 757.043 297.567C757.29 296.353 757.794 296.329 757.79 295.39C757.787 294.374 757.196 294.222 757.006 293.188C756.732 291.697 757.853 291.44 757.798 289.877C757.74 288.203 756.437 288.011 756.501 286.355C756.552 285.054 757.369 284.812 757.107 283.794C756.826 282.704 755.811 282.681 755.552 281.561C755.306 280.497 756.148 280.181 755.842 279.253C755.504 278.228 754.39 278.347 753.863 277.181C753.463 276.296 754.004 276.001 753.617 275.094C753.141 273.975 752.186 274.116 751.487 273.091C750.554 271.722 751.872 270.905 751.07 269.202C750.376 267.73 749.057 267.632 749.036 266.429C749.022 265.624 749.609 265.425 749.548 264.488C749.486 263.545 748.87 263.426 748.618 262.54C748.174 260.977 749.826 260.396 749.55 258.789C749.302 257.348 747.834 257.002 748.088 255.937C748.281 255.13 749.175 255.117 749.377 254.213C749.582 253.294 748.725 253.01 748.853 252.033C748.991 250.972 750.054 250.896 750.232 249.84C750.408 248.794 749.418 248.563 749.442 247.451C749.473 245.996 751.184 245.777 751.23 244.388C751.273 243.091 749.799 242.721 750.032 241.408C750.171 240.621 750.762 240.398 750.67 239.628C750.588 238.939 750.082 238.857 749.83 238.187C749.389 237.017 750.613 236.424 750.578 235.035C750.545 233.669 749.344 233.614 748.901 232.003C748.426 230.279 749.686 229.931 749.467 227.988C749.215 225.752 747.469 225.532 747.648 223.597C747.711 222.925 748.396 222.037 748.068 220.812C748.033 220.679 747.994 220.571 747.967 220.5L742.296 220.962L742.296 220.962Z" fill="#563E8A"/>
    <path d="M725.085 219.982C724.942 220.299 724.766 220.794 724.756 221.404C724.734 222.862 725.717 223.538 726.169 224.665C727.035 226.825 725.02 227.5 725.496 229.901C726.034 232.615 728.956 233.512 728.4 235.209C728.059 236.252 726.828 236.315 726.752 237.344C726.66 238.593 728.47 239.19 728.215 240.145C727.976 241.037 726.3 240.889 725.894 241.867C725.466 242.901 727.142 243.549 727.216 244.997C727.322 247.06 724.011 247.452 723.49 250.004C723.107 251.882 724.759 252.349 724.312 254.686C723.994 256.345 723.07 256.586 723.187 257.964C723.326 259.619 724.71 259.894 724.599 261.226C724.474 262.736 722.641 263.052 722.661 264.42C722.679 265.555 723.945 265.629 724.569 266.981C725.662 269.344 722.699 271.081 723.673 273.312C724.418 275.017 726.495 274.794 726.954 276.593C727.304 277.962 726.2 278.485 726.659 279.802C727.17 281.268 728.692 281.063 729.404 282.543C730.226 284.249 728.562 285.272 729.392 286.844C730.2 288.373 732.18 288.147 732.514 289.508C732.782 290.605 731.573 291.04 731.788 292.367C731.997 293.656 733.217 293.745 733.466 294.913C733.788 296.421 731.872 296.834 731.479 298.841C731.028 301.149 733.262 302.129 732.534 304.15C732.046 305.506 730.981 305.247 730.395 306.785C729.692 308.628 730.864 309.989 729.909 310.783C729.199 311.373 728.172 310.937 727.742 311.574C727.35 312.154 728.07 312.707 727.835 313.454C727.505 314.506 725.71 314.589 724.673 315.198C723.486 315.895 722.473 317.763 723.425 323C723.494 322.229 723.739 321.09 724.673 320.197C725.961 318.965 727.257 319.442 728.388 318.191C729.45 317.017 728.901 315.99 730.19 315.125C730.937 314.623 731.357 314.811 731.85 314.287C732.609 313.479 731.954 312.671 732.32 311.529C732.895 309.734 735.071 310.005 735.915 308.248C736.598 306.826 735.336 306.304 735.634 304.069C735.96 301.621 737.565 301.566 737.643 299.574C737.736 297.21 735.505 296.589 735.909 294.315C736.155 292.932 737.062 292.705 736.935 291.47C736.798 290.136 735.706 290.068 735.073 288.487C734.281 286.512 735.628 285.722 734.75 284.204C733.928 282.781 732.51 283.094 731.893 281.686C731.309 280.352 732.437 279.742 731.871 278.341C731.277 276.871 729.822 277.02 729.311 275.663C728.768 274.22 730.276 273.682 730.127 271.848C729.942 269.557 727.481 269.082 727.627 267.008C727.721 265.673 728.763 265.538 728.661 264.248C728.535 262.676 726.945 262.387 726.968 260.994C726.988 259.734 728.296 259.569 728.431 258.147C728.568 256.697 727.376 256.403 727.414 255.104C727.474 253.034 730.633 252.772 731.119 250.451C731.508 248.592 729.676 247.831 730.355 246.208C730.995 244.678 732.905 244.679 733.076 243.367C733.228 242.207 731.77 241.927 731.68 240.44C731.592 238.979 732.959 238.619 732.846 237.103C732.76 235.934 731.924 235.828 731.644 234.648C731.213 232.834 732.989 232.232 733.219 230.279C733.576 227.254 729.51 225.242 730.531 223.628C730.907 223.033 731.929 222.668 732.161 221.528C732.215 221.263 732.209 221.041 732.199 220.907L725.085 219.982L725.085 219.982Z" fill="#563E8A"/>
    <path d="M708.738 216.583C708.32 215.789 707.744 214.57 707.275 213.017C704.608 204.177 708.881 195.941 710.598 192.63C712.287 189.374 715.014 184.118 721.11 180.256C727.39 176.277 733.558 176.115 737.409 176.013C746.175 175.782 752.49 178.678 753.826 179.313C755.908 180.303 760.302 182.651 764.456 187.209C767.308 190.338 772.208 195.714 772.251 203.354C772.27 206.726 771.336 209.447 770.597 211.132C771.057 211.633 771.908 212.718 772.102 214.284C772.137 214.569 772.415 216.819 771.21 217.708C770.903 217.935 770.532 218.023 770.532 218.023C769.645 218.233 768.884 217.712 768.703 217.581C768.77 217.88 768.835 218.34 768.754 218.884C768.693 219.292 768.405 220.722 767.067 221.425C766.052 221.958 765.024 221.699 764.342 221.529C763.507 221.322 762.894 220.949 762.529 220.686C762.262 221.136 761.869 221.73 761.321 222.372C760.729 223.066 760.29 223.58 759.529 224.017C759.232 224.187 758.503 224.596 757.512 224.67C756.961 224.711 756.42 224.642 754.786 224.04C754.005 223.752 752.965 223.339 751.755 222.77C751.266 223.363 750.466 224.206 749.294 224.96C748.218 225.651 747.18 226.318 745.82 226.349C744.596 226.377 743.441 225.713 741.132 224.384C740.241 223.871 739.529 223.412 739.055 223.096C738.63 223.588 737.978 224.255 737.069 224.893C736.116 225.562 735.26 226.162 734.109 226.313C732.744 226.492 731.678 225.946 729.875 225.023C728.598 224.37 727.617 223.682 726.952 223.167C726.46 223.549 725.721 224.078 724.759 224.604C723.408 225.343 722.656 225.754 721.637 225.731C720.71 225.709 720.051 225.339 719.113 224.811C718.394 224.407 717.399 223.735 716.411 222.637C716.064 222.951 715.543 223.379 714.849 223.795C714.194 224.188 713.87 224.398 713.461 224.476C711.671 224.817 710.118 223.194 709.683 222.74C709.301 222.342 708.618 221.61 708.29 220.418C707.776 218.556 708.523 216.997 708.738 216.583H708.738Z" fill="#895EE6"/>
    <path d="M742.287 179.944C742.287 179.943 742.181 179.444 741.626 179.047C739.326 177.402 728.519 180.407 728.519 180.407C728.519 180.407 718.336 185.126 717.526 187.912C717.331 188.585 717.547 189.044 717.547 189.044C717.547 189.044 717.762 189.499 718.376 189.75C719.814 190.337 723.935 185.734 729.255 183.97C729.538 183.876 729.839 183.746 730.115 183.634C735.322 181.535 741.293 182.433 742.064 181.036C742.393 180.439 742.287 179.944 742.287 179.944H742.287Z" fill="#CBBCEC"/>
    <path d="M716.289 193.756C717.086 192.834 717.19 191.621 716.523 191.048C715.856 190.475 714.67 190.758 713.874 191.68C713.078 192.602 712.973 193.815 713.64 194.388C714.307 194.961 715.493 194.678 716.289 193.756Z" fill="#CBBCEC"/>
    <path d="M760.406 188.476C759.779 188.504 758.878 188.8 758.516 189.536C757.882 190.827 759.417 192.428 759.638 192.659C760.295 193.345 761.873 194.56 762.886 193.956C763.777 193.424 763.728 191.786 763.359 190.774C762.949 189.651 761.819 188.411 760.406 188.476H760.406Z" fill="#563E8A"/>
    <path d="M760.524 195.605C759.8 196.345 760.524 198.307 761.41 198.434C761.994 198.517 762.739 197.814 762.886 197.02C762.912 196.88 763.027 196.158 762.532 195.664C761.975 195.109 760.961 195.159 760.524 195.605V195.605Z" fill="#563E8A"/>
    <path d="M764.54 194.486C764.329 195.057 764.562 195.865 765.189 196.254C765.704 196.572 766.341 196.519 766.784 196.254C767.617 195.754 767.816 194.473 767.315 193.897C766.692 193.18 764.913 193.472 764.54 194.486Z" fill="#563E8A"/>
    <path d="M763.418 199.141C763.004 199.367 763.034 200.158 763.064 200.909C763.09 201.601 763.12 202.363 763.595 203.148C763.99 203.801 765.037 205.037 766.016 204.739C766.803 204.499 767.183 203.378 767.138 202.559C767.076 201.415 766.178 200.703 765.248 199.966C764.659 199.498 763.886 198.885 763.418 199.141H763.418Z" fill="#563E8A"/>
    <path d="M767.552 198.257C767.432 198.53 767.425 198.953 767.67 199.2C767.997 199.529 768.578 199.348 768.674 199.318C769.461 199.072 770.028 198.094 769.796 197.727C769.515 197.284 767.903 197.456 767.552 198.257Z" fill="#563E8A"/>
    <path d="M768.969 202.617C768.658 203.319 768.405 203.889 768.349 204.709C768.308 205.302 768.33 206.6 768.762 206.713C769.182 206.822 769.78 205.759 770.238 204.945C770.924 203.727 771.543 202.628 771.095 201.763C770.901 201.389 770.484 201.015 770.091 201.056C769.64 201.103 769.385 201.678 768.969 202.617H768.969Z" fill="#563E8A"/>
    <path d="M765.396 206.639C764.75 206.87 764.07 207.515 764.2 208.009C764.34 208.537 765.365 208.737 766.105 208.584C766.901 208.418 767.747 207.764 767.655 207.258C767.554 206.704 766.327 206.307 765.396 206.639Z" fill="#563E8A"/>
    <path d="M758.753 185.691C758.54 186.09 758.643 186.726 759.018 186.973C759.518 187.302 760.262 186.783 760.568 186.487C760.642 186.416 761.216 185.861 761.056 185.515C760.833 185.033 759.173 184.903 758.753 185.691H758.753Z" fill="#563E8A"/>
    <path d="M757.158 187.901C757.916 187.127 757.046 185.382 756.848 184.984C756.761 184.809 755.745 182.81 754.899 182.996C754.154 183.16 753.741 184.975 754.191 186.354C754.272 186.605 754.726 187.999 755.874 188.21C755.955 188.226 756.714 188.354 757.158 187.901L757.158 187.901Z" fill="#563E8A"/>
    <path d="M755.091 189.831C754.926 190.083 754.973 190.463 755.15 190.715C755.431 191.114 756.032 191.178 756.449 190.95C756.831 190.742 757.106 190.265 756.981 189.949C756.774 189.427 755.452 189.277 755.091 189.831H755.091Z" fill="#563E8A"/>
    <path d="M766.592 211.338C766.468 211.907 766.75 212.516 767.212 212.752C768.003 213.158 769.239 212.425 769.249 211.545C769.256 210.996 768.787 210.424 768.157 210.307C767.453 210.177 766.742 210.65 766.592 211.338Z" fill="#563E8A"/>
    <path d="M760.686 201.277C760.449 201.606 760.316 202.202 760.627 202.455C760.932 202.704 761.554 202.535 761.779 202.131C762.047 201.651 761.693 200.951 761.306 200.894C760.996 200.848 760.722 201.227 760.686 201.277L760.686 201.277Z" fill="#563E8A"/>
    <path d="M764.067 210.395C763.497 210.183 762.728 210.91 762.384 211.368C761.945 211.953 761.869 212.538 761.764 213.445C761.629 214.617 761.522 215.538 762.03 215.875C762.503 216.19 763.305 215.865 763.757 215.522C764.854 214.691 764.771 213.097 764.732 212.34C764.696 211.657 764.642 210.609 764.067 210.395Z" fill="#563E8A"/>
    <path d="M710.682 201.321C709.889 202.147 708.856 203.783 709.442 204.562C709.894 205.163 711.195 205.099 712.04 204.621C713.815 203.617 714.03 200.53 713.221 200.025C712.602 199.638 711.277 200.702 710.682 201.321L710.682 201.321Z" fill="#563E8A"/>
    <path d="M710.092 197.196C709.282 197.789 709.213 199.272 709.737 199.612C710.257 199.949 711.533 199.277 711.804 198.316C711.819 198.264 712.032 197.469 711.568 197.079C711.158 196.733 710.472 196.918 710.092 197.196H710.092Z" fill="#563E8A"/>
    <path d="M708.202 207.685C708.248 209.152 708.271 209.885 708.615 210.749C709.197 212.211 710.645 213.926 711.568 213.636C712.406 213.374 712.685 211.499 712.395 210.16C712.157 209.061 711.548 208.383 710.446 207.155C709.739 206.367 708.946 205.482 708.497 205.682C708.151 205.835 708.167 206.565 708.202 207.685Z" fill="#563E8A"/>
    <path d="M713.812 206.448C713.717 207.054 713.775 207.943 714.107 208.039C714.485 208.147 715.188 207.217 715.407 206.271C715.575 205.543 715.517 204.545 715.17 204.444C714.775 204.329 713.982 205.369 713.812 206.448V206.448Z" fill="#563E8A"/>
    <path d="M710.918 216.288C710.782 216.969 710.648 218.76 711.686 219.293C712.651 219.788 714.202 218.977 714.698 217.761C715.172 216.598 714.497 215.518 714.462 215.463C714.059 214.842 713.199 214.137 712.395 214.343C711.893 214.472 711.575 214.914 711.391 215.168C711.303 215.29 711.042 215.674 710.918 216.288Z" fill="#563E8A"/>
    <path d="M714.609 211.515C714.285 211.774 713.518 212.388 713.694 212.988C713.84 213.487 714.557 213.705 715.052 213.695C715.84 213.679 716.543 213.074 716.735 212.34C716.845 211.921 716.856 211.202 716.44 210.926C715.842 210.529 714.82 211.346 714.609 211.515L714.609 211.515Z" fill="#563E8A"/>
    <path d="M715.702 219.617C715.901 219.909 716.305 220.064 716.647 220C717.283 219.882 717.739 219.002 717.444 218.38C717.174 217.81 716.333 217.581 715.967 217.849C715.826 217.953 715.785 218.115 715.702 218.439C715.581 218.913 715.483 219.296 715.702 219.617V219.617Z" fill="#563E8A"/>
</svg>
