<svg viewBox="0 0 1041 673" fill="none" xmlns="http://www.w3.org/2000/svg">
    <path d="M930.276 31.5285H109.538C60.3792 31.5285 20.5282 71.3795 20.5282 120.538V559.113C20.5282 608.271 60.3792 648.122 109.538 648.122H930.276C979.434 648.122 1019.29 608.271 1019.29 559.113V120.538C1019.29 71.3795 979.434 31.5285 930.276 31.5285Z" fill="#B6CEE1" stroke="#116619" stroke-width="6"/>
    <path d="M10.3468 40.3962C14.0802 43.5191 30.3872 57.8544 33.3678 82.5644C35.0452 97.2366 31.7441 112.047 23.9944 124.618C23.9917 129.075 23.9889 133.532 23.9861 137.989C25.0232 137.01 49.8968 112.69 42.0006 79.7975C35.744 53.7353 13.6632 42.0771 10.3468 40.3962Z" fill="#48964E"/>
    <path d="M17.0569 128.701C8.9823 135.637 6.59974 141.986 5.91973 146.508C3.13445 165.034 25.505 175.593 28.6391 200.181C30.0691 211.399 26.9366 221.161 23.9805 227.767L23.9875 239.712C41.4527 218.375 42.4272 204.688 40.0084 196.092C35.2337 179.124 13.756 169.631 15.3641 150.788C15.5785 148.344 16.1464 145.945 17.05 143.665C17.0523 138.677 17.0547 133.689 17.0569 128.701Z" fill="#48964E"/>
    <path d="M17.0604 232.674C5.48565 244.641 4.28566 252.946 5.18185 258.219C6.6285 266.731 13.6658 268.101 22.5951 285.077C28.1058 295.553 28.5784 301.026 28.6455 303.671C28.7255 309.923 27.1172 316.082 23.9901 321.497L23.991 330.539C41.6305 318.739 42.9887 308.886 42.9598 304.851C42.909 297.746 38.4361 291.725 29.6047 279.838C21.4098 268.807 15.4083 264.258 14.9215 255.415C14.7654 251.724 15.499 248.049 17.0604 244.7V232.674Z" fill="#48964E"/>
    <path d="M17.0604 325.22V335.103C13.8048 340.271 12.0902 346.261 12.1177 352.369C12.5845 369.455 28.9968 376.064 34.1056 392.065C36.8704 400.725 36.9913 414.222 23.998 434.822C23.9945 430.933 23.991 427.045 23.9876 423.156C26.0384 415.924 26.4201 408.32 25.1039 400.919C20.7622 377.867 0.685835 370.851 0.0169104 353.992C-0.233507 347.682 2.15076 337.868 17.0604 325.22Z" fill="#48964E"/>
    <path d="M17.0501 427.831C4.97676 444.271 4.77025 454.633 6.80518 461.054C10.6864 473.3 24.3096 476.221 27.465 490.052C29.351 498.318 26.4774 506.012 23.9945 510.935C23.9957 514.078 23.9969 517.22 23.998 520.363C37.3567 504.069 38.216 493.78 36.1717 487.248C32.6197 475.899 19.2639 472.709 15.9546 458.324C14.7898 452.761 15.1723 446.984 17.0605 441.623L17.0501 427.831Z" fill="#48964E"/>
    <path d="M17.0612 515.065C8.99151 525.759 9.0124 531.824 10.4206 535.356C13.1376 542.17 22.1154 542.287 25.5465 550.039C28.053 555.702 26.0884 562.023 24.2826 566.146C24.3981 567.501 24.5498 568.909 24.7375 570.368C24.9274 571.825 25.1416 573.223 25.3799 574.563C36.23 556.687 35.4077 548.633 32.7037 544.579C28.6327 538.476 17.7069 537.555 16.3971 530.191C16.1254 528.432 16.3546 526.631 17.0587 524.996L17.0612 515.065Z" fill="#48964E"/>
    <path d="M18.0222 572.507C13.0891 583.935 14.5022 589.32 16.4894 592.115C20.5839 597.873 29.2555 595.641 37.1308 602.851C40.4592 606 42.9026 609.968 44.2167 614.358C44.9419 615.213 45.7119 616.085 46.5267 616.972C47.3524 617.869 48.1675 618.718 48.9719 619.52C49.211 604.959 45.11 599.01 41.3366 596.265C34.4535 591.258 24.7422 594.061 20.6398 587.632C19.2122 585.118 18.7262 582.177 19.2687 579.337C19.0586 578.382 18.8583 577.4 18.668 576.389C18.4183 575.057 18.2031 573.763 18.0222 572.507Z" fill="#48964E"/>
    <path d="M42.0031 622.283C46.7911 638.508 53.2136 643.192 57.9382 644.631C66.9854 647.388 73.8136 639.441 88.7123 639.365C96.1929 639.413 103.556 641.227 110.203 644.66L119.037 644.657C102.87 630.479 91.01 628.438 82.73 629.801C72.3763 631.505 63.8322 639.154 54.9499 635.224C51.4655 633.513 48.6522 630.688 46.9564 627.196C46.2082 626.514 45.4495 625.795 44.6803 625.04C43.7328 624.108 42.8404 623.189 42.0031 622.283Z" fill="#48964E"/>
    <path d="M115.106 651.591C127.369 659.207 134.715 658.829 139.176 657.027C145.937 654.296 147.67 647.647 156.146 644.779C160.852 643.316 165.884 643.273 170.614 644.655H177.173C165.138 636.785 157.597 636.827 152.826 638.581C144.69 641.572 140.989 650.87 130.321 652.01C128.053 652.244 125.761 652.1 123.54 651.584L115.106 651.591Z" fill="#48964E"/>
    <path d="M176.174 651.59C191.651 661.554 201.029 661.231 206.763 659.02C215.799 655.534 218.489 646.308 229.636 643.525C235.059 642.31 240.718 642.705 245.919 644.66L253.388 644.657C239.944 633.895 230.994 633.305 225.357 634.671C213.782 637.475 209.318 650.187 194.515 652.342C190.476 652.902 186.366 652.647 182.428 651.591L176.174 651.59Z" fill="#48964E"/>
    <path d="M249.258 651.582C265.838 664.48 276.984 665.311 284.237 663.447C296.849 660.205 300.696 648.04 316.407 643.82C324.23 641.89 332.436 642.182 340.102 644.66L351.961 644.655C333.752 633.539 321.409 633.567 313.345 635.888C299.746 639.802 293.8 651.537 277.043 653.596C270.737 654.311 264.351 653.625 258.341 651.587L249.258 651.582Z" fill="#48964E"/>
    <path d="M345.465 651.591C365.599 662.904 377.705 661.874 385.027 658.872C394.833 654.852 399.56 645.86 412.771 643.525C418.459 642.583 424.289 642.969 429.804 644.655L443.017 644.658C425.156 629.441 413.953 628.334 406.868 630.539C395.057 634.214 392.044 647.915 376.764 652.231C370.046 653.964 362.974 653.737 356.381 651.577L345.465 651.591Z" fill="#48964E"/>
    <path d="M436.307 651.584C442.658 655.453 452.538 660.082 464.273 659.315C481.079 658.216 487.83 646.955 505.592 642.197C514.149 639.904 527.157 638.613 545.113 644.65L557.538 644.652C526.411 625.02 509.136 625.608 498.952 630.686C488.018 636.138 480.788 648.994 462.926 651.881C457.708 652.701 452.387 652.6 447.203 651.584H436.307Z" fill="#48964E"/>
    <path d="M562.702 651.585C568.452 653.494 574.507 654.314 580.558 654.002C600.049 652.891 608.674 639.807 623.353 634.67C633.854 630.996 650.007 630.496 674.713 644.655L660.42 644.66C650.354 641.913 639.791 641.525 629.551 643.525C608.509 647.856 601.319 660.833 583.509 662.118C576.428 662.63 565.421 661.455 551.171 651.587L562.702 651.585Z" fill="#48964E"/>
    <path d="M678.232 651.584C690.721 656.031 703.969 657.957 717.208 657.249C748.6 655.366 762.648 638.53 787.599 631.572C805.047 626.705 831.514 625.641 869.511 644.67L852.521 644.66C835.629 641.292 818.247 641.207 801.323 644.41C765.319 651.434 753.078 670.21 724.734 672.301C710.686 673.337 690.342 670.448 664.51 651.591L678.232 651.584Z" fill="#48964E"/>
    <path d="M863.063 651.567C886.607 667.621 902.874 668.248 913.515 665.66C932.602 661.019 935.367 645.599 956.862 642.787C972.959 640.681 980.122 648.188 995.268 643.23C1005.77 639.793 1012.88 632.731 1017.11 627.587C1009.96 632.466 1001.87 635.785 993.35 637.327C976.852 640.181 972.486 633.405 958.485 634.671C935.888 636.714 931.904 655.755 909.678 658.725C898.771 660.182 888.074 657.154 877.949 651.549L863.063 651.567Z" fill="#48964E"/>
    <path d="M999.208 69.8698C997.078 77.8959 996.928 86.3192 998.772 94.4161C1003.46 113.868 1018.27 119.09 1024.6 136.621C1027.5 144.66 1029.28 157.114 1022.75 175.443L1022.76 186.227C1042.99 157.86 1042.88 141.801 1038.91 132.342C1033.64 119.792 1018.97 112.695 1008.05 87.2683C1006.39 83.4222 1005.27 80.1954 1004.61 78.1808C1004.06 77.2256 1003.48 76.2551 1002.86 75.2693C1001.65 73.3353 1000.43 71.5367 999.208 69.8698Z" fill="#48964E"/>
    <path d="M1015.82 180.961C1011.89 187.507 1007.1 197.909 1008.95 209.578C1011.34 224.602 1022.78 229.453 1027.25 244.773C1029.47 252.361 1030.52 264.371 1022.75 281.839V294.295C1042.18 265.974 1041.87 250.456 1037.66 241.453C1032.33 230.076 1018.31 223.862 1015.52 206.479C1014.82 201.997 1014.92 197.427 1015.82 192.98V180.961Z" fill="#48964E"/>
    <path d="M1015.82 288.046C1006.9 300.577 1006.59 308.452 1008.44 313.504C1011.7 322.443 1022.43 324.583 1024.6 334.976C1025.36 339.343 1024.71 343.839 1022.75 347.816L1022.76 356.235C1032.27 345.732 1033.16 338.662 1032.12 334.09C1029.58 322.9 1013.72 319.142 1013.31 307.528C1013.28 304.468 1014.15 301.468 1015.81 298.9L1015.82 288.046Z" fill="#48964E"/>
    <path d="M1015.82 351.992C1005.73 364.487 1004.91 372.978 1006.3 378.586C1009.03 389.572 1021.11 392.861 1024.01 406.33C1025.05 411.659 1024.61 417.171 1022.75 422.272V434.384C1035.55 419.748 1036.56 410.288 1034.93 404.264C1031.75 392.556 1017.13 388.512 1014.86 373.569C1014.29 369.557 1014.62 365.469 1015.82 361.6L1015.82 351.992Z" fill="#48964E"/>
    <path d="M1015.82 426.515C1004.79 443.25 1004.97 453.074 1007.55 459.062C1011.73 468.749 1023.75 471.98 1025.04 483.19C1025.39 487.06 1024.59 490.946 1022.75 494.368L1022.75 503.383C1032.03 494.91 1033.54 488.412 1033.23 484.075C1032.34 471.543 1015.58 466.621 1013.75 451.093C1013.29 446.598 1014.01 442.06 1015.82 437.921L1015.82 426.515Z" fill="#48964E"/>
    <path d="M1015.82 499.014C1007.02 507.596 1005.4 514.24 1005.86 518.975C1006.87 529.57 1018.51 532.74 1023.27 545.391C1026.88 554.982 1024.61 564.882 1021.83 572.165C1021.6 573.851 1021.3 575.628 1020.93 577.483C1020.57 579.278 1020.17 580.978 1019.75 582.576C1036.03 561.403 1036.46 549.678 1033.45 542.808C1028.98 532.623 1014.59 527.777 1014.27 515.286C1014.22 512.647 1014.75 510.03 1015.82 507.617L1015.82 499.014Z" fill="#48964E"/>
    <path d="M1014.2 575.757C1009.84 580.03 1006.56 585.276 1004.62 591.064C1001.29 601.346 1004.9 606.523 1000.52 615.745C999.569 617.76 996.178 624.913 989.124 628.141C977.107 633.64 963.034 623.823 962.617 624.765C962.191 625.726 975.865 638.171 990.342 634.283C997.405 632.386 1005.59 626.476 1007.66 618.456C1009.61 610.929 1007.55 596.224 1009.29 592.035C1009.35 591.892 1009.8 590.836 1010.36 589.358C1010.98 587.685 1011.45 586.25 1011.78 585.179C1012.3 583.51 1012.81 581.738 1013.27 579.868C1013.63 578.455 1013.94 577.085 1014.2 575.757Z" fill="#48964E"/>
    <path d="M1001.47 61.5114C1001.37 56.6351 1000.25 51.8343 998.181 47.4151C991.658 33.5863 977.938 28.8425 974.865 27.862C988.36 26.1976 1001.09 32.6254 1006.59 43.5783C1012.43 55.2029 1007.59 66.8654 1006.81 68.643C1005.94 67.3385 1004.98 65.9914 1003.94 64.6156C1003.11 63.5224 1002.29 62.4876 1001.47 61.5114Z" fill="#48964E"/>
    <path d="M43.1074 75.3058C44.178 75.238 38.4338 54.3328 49.1947 41.4385C57.8654 31.0486 73.9217 29.8508 87.2125 30.7765C89.4119 30.2335 91.3744 29.8336 93.0296 29.5356C94.0802 29.3464 95.6591 29.081 97.592 28.8308C98.9585 28.6539 100.173 28.5272 101.193 28.4349C76.8268 18.8415 53.2042 23.3875 43.6608 37.2327C33.201 52.4075 41.9815 75.3771 43.1074 75.3058Z" fill="#48964E"/>
    <path d="M93.9102 36.4151C102.92 41.8452 116.869 48.1997 132.092 45.3121C149.99 41.9171 155.559 28.4282 174.15 22.9922C183.451 20.2726 198.036 18.9772 219.103 28.0634H236.353C199.711 5.44145 178.684 6.07504 165.96 12.2196C151.449 19.2267 139.936 37.1661 118.258 37.0114C114.152 36.9709 110.076 36.3133 106.166 35.0607C103.849 35.1485 101.363 35.337 98.7344 35.6676C97.0497 35.8795 95.4401 36.133 93.9102 36.4151Z" fill="#48964E"/>
    <path d="M228.079 34.994C228.944 35.3655 230.199 35.8987 231.72 36.5247C233.329 37.2753 234.978 37.935 236.661 38.5009C240.168 39.6001 245.142 41.035 251.186 42.359C257.024 43.638 276.468 46.4508 289.033 46.3082C320.503 45.951 334.661 25.56 366.507 19.7456C380.473 17.1958 400.921 16.8869 427.844 28.053C437.861 28.0582 447.878 28.0634 457.896 28.0685C399.445 -5.47043 365.669 -2.9533 345.479 6.02161C327.021 14.2264 308.788 32.7752 274.516 36.1947C264.406 37.1846 254.208 36.7811 244.207 34.9957L228.079 34.994Z" fill="#48964E"/>
    <path d="M437.286 34.9914C465.596 51.2299 483.707 50.326 495.115 46.3082C510.947 40.7325 518.143 27.6528 538.058 24.6155C547.925 23.263 557.975 24.4497 567.256 28.0634H586.506C555.693 5.68429 537.191 4.95595 525.662 9.56331C510.09 15.7864 504.033 33.0253 483.162 37.0114C474.91 38.4536 466.427 37.7578 458.521 34.9905C451.443 34.9908 444.364 34.9911 437.286 34.9914Z" fill="#48964E"/>
    <path d="M571.485 34.9957C596.982 49.3601 614.019 48.7852 625.05 45.3121C642.733 39.7448 651.283 24.7466 672.199 23.5087C680.314 23.1283 688.403 24.6898 695.793 28.0634H718.178C696.641 9.28632 680.986 6.98964 670.428 8.67782C649.18 12.0756 638.772 33.1835 609.666 35.9045C603.46 36.4718 597.205 36.1641 591.084 34.9904C584.551 34.9922 578.018 34.994 571.485 34.9957Z" fill="#48964E"/>
    <path d="M703.477 34.994C726.783 49.3467 740.366 48.8083 748.64 44.9801C759.428 39.9895 761.813 29.122 774.613 24.9106C784.975 21.5015 795.456 24.6605 802.943 28.0599C808.95 28.0605 814.957 28.0611 820.964 28.0617C789.526 7.85254 773.908 8.26014 765.463 13.4001C755.427 19.5093 753.178 33.732 739.786 37.3065C732.496 39.2524 725.544 37.0715 720.901 34.9957L703.477 34.994Z" fill="#48964E"/>
    <path d="M809.739 34.9931C815.789 39.6486 825.205 45.3044 836.74 45.2753C856.236 45.2261 864.499 28.9799 885.881 23.2873C895.544 20.7146 910.126 19.7014 930.432 28.0634C933.816 28.0668 937.197 28.2545 940.56 28.6259C943.741 28.9771 946.679 29.4677 949.349 30.0243C907.174 3.31469 886.881 4.6651 876.141 11.039C865.409 17.4079 857.069 33.0336 838.068 35.5356C833.569 36.1108 829.005 35.9274 824.567 34.9931H809.739Z" fill="#48964E"/>
    <path d="M934.578 35.0669C941.184 39.498 948.551 42.6711 956.309 44.4268C966.959 46.7913 978.032 46.4488 988.516 43.4307C979.796 43.5594 971.096 42.5926 962.617 40.553C959.399 39.7762 956.384 38.8836 953.578 37.9281C947.375 36.2526 941 35.2927 934.578 35.0669V35.0669Z" fill="#48964E"/>
    <path d="M101.41 35.4049C107.838 38.3593 117.566 41.6527 128.908 40.4695C152.537 38.0046 160.464 18.4851 181.344 14.1011C191.498 11.969 206.67 13.0066 227.939 28.0634C226.906 28.0455 225.873 28.0276 224.84 28.0096C205.872 15.3877 191.931 14.5197 182.672 16.0932C160.602 19.8442 152.632 39.5941 129.016 42.2109C116.358 43.6135 105.462 39.3998 98.4163 35.7755L101.41 35.4049Z" fill="#76B779"/>
    <path d="M95.3166 29.1536C85.4727 25.4876 74.7352 24.9591 64.5788 27.6407C59.6373 29.0252 51.9161 31.1809 46.4277 38.2288C39.199 47.5115 40.6058 58.6408 41.0045 61.2498C40.6717 58.7011 39.5176 47.6986 46.8534 38.7216C52.3326 32.0165 60.2123 29.9397 64.8739 28.7106C73.9135 26.4301 83.4148 26.7632 92.2725 29.671C93.2873 29.4985 94.302 29.326 95.3166 29.1536Z" fill="#76B779"/>
    <path d="M237.66 34.9822C252 39.4528 273.205 43.7283 297.002 38.7822C330.164 31.8895 340.922 12.7916 368.942 7.64488C385.526 4.5989 410.17 6.06968 443.834 28.0613L439.167 28.0649C408.29 9.14931 385.263 7.9398 369.975 10.3011C340.724 14.8192 329.915 33.9371 297.666 40.8482C271.862 46.3781 248.691 40.5865 233.399 34.9946C234.82 34.9905 236.24 34.9864 237.66 34.9822Z" fill="#76B779"/>
    <path d="M444.941 34.9911C452.929 40.0391 465.38 46.0803 479.841 44.6481C504.225 42.2331 513.083 20.6748 537.726 17.8641C546.079 16.9113 558.71 17.8317 575.226 28.0738L578.428 28.0634C560.424 15.2718 546.765 13.8309 537.394 15.0971C514.299 18.2174 505.779 39.3249 480.948 41.9918C467.881 43.3952 456.562 39.0193 448.925 35.0007C447.597 34.9975 446.269 34.9943 444.941 34.9911Z" fill="#76B779"/>
    <path d="M578.18 34.9873C595.154 43.6952 608.029 44.0214 616.418 42.8772C642.702 39.292 652.867 17.4572 676.737 17.5321C689.165 17.5711 699.182 23.5302 705.283 28.0599C706.237 28.0611 707.192 28.0623 708.147 28.0634C694.849 16.8455 684.006 14.7085 676.848 14.6545C653.408 14.4776 643.263 36.4358 616.085 40.3317C601.595 42.4089 589.063 38.3766 581.209 34.9905L578.18 34.9873Z" fill="#76B779"/>
    <path d="M710.788 34.9947C718.062 40.2465 728.459 45.7932 739.491 43.7627C755.802 40.7608 759.94 23.6929 776.605 19.5981C783.78 17.8351 794.554 18.163 809.898 28.0606L812.55 28.0609C794.731 15.2624 782.829 14.6367 774.982 16.9418C759.326 21.5405 755.488 39.0733 739.159 41.8811C729.507 43.5409 720.566 39.1829 714.296 34.9957C713.126 34.9953 711.957 34.995 710.788 34.9947Z" fill="#76B779"/>
    <path d="M814.955 34.9931C819.827 38.1992 827.321 42.0445 836.555 42.2132C858.284 42.6099 867.535 22.245 889.127 16.9787C899.452 14.4606 914.822 14.852 936.534 28.2863C937.876 28.3995 939.218 28.5127 940.56 28.6259C915.515 11.7737 898.952 11.6916 888.574 14.5438C868.698 20.0065 859.238 39.606 836.888 39.6676C830.25 39.6106 823.717 38.0112 817.804 34.9957C816.854 34.9949 815.905 34.994 814.955 34.9931Z" fill="#76B779"/>
    <path d="M942.44 35.713C946.569 38.605 951.124 40.8354 955.94 42.3239C963.469 44.634 970.024 44.5734 970.051 44.3714C965.338 43.7267 960.69 42.6713 956.161 41.2171C952.257 39.881 948.499 38.1504 944.946 36.0521C944.11 35.9391 943.275 35.826 942.44 35.713Z" fill="#76B779"/>
    <path d="M988.516 31.625C991.866 32.7213 994.959 34.4872 997.606 36.8153C1000.25 39.1435 1002.4 41.9854 1003.92 45.1684C1005.43 48.3515 1006.28 51.8094 1006.42 55.3321C1006.56 58.8548 1005.98 62.3688 1004.72 65.6609L1003.26 63.7362C1005.12 57.5054 1004.64 50.8135 1001.93 44.9062C999.217 38.9989 994.45 34.2789 988.516 31.625V31.625Z" fill="#76B779"/>
    <path d="M1000.89 72.2494C1000.26 82.8465 1002.22 93.4377 1006.61 103.106C1014.89 120.768 1027.3 124.15 1031.79 138.06C1034.42 146.21 1034.63 158.89 1022.75 178.194L1022.75 180.961C1037.32 159.553 1037.47 145.875 1034.56 137.175C1030.09 123.821 1017.69 120.015 1008.88 100.872C1005.12 92.5861 1002.93 83.6724 1002.43 74.5864C1001.92 73.8074 1001.4 73.0284 1000.89 72.2494Z" fill="#76B779"/>
    <path d="M1015.82 184.986C1013.41 189.821 1010.24 197.931 1011.24 207.509C1013.17 226.011 1028.77 232.242 1032.34 249.345C1033.89 256.745 1033.67 268.5 1022.75 285.279V288.046C1036.28 269.414 1036.85 256.783 1034.85 248.681C1030.95 232.842 1015.36 226.727 1013.09 207.878C1012.36 201.084 1013.32 194.215 1015.89 187.882L1015.82 184.986Z" fill="#76B779"/>
    <path d="M1015.82 292.088C1009.52 300.359 1009.12 306.243 1009.77 309.963C1011.78 321.512 1026.15 324.672 1027.58 336.083C1028.33 342.038 1025.19 347.305 1022.75 350.54L1022.75 351.993C1029 345.097 1029.85 339.901 1029.47 336.415C1028.21 325.102 1012.73 321.778 1010.98 309.852C1010.1 303.818 1013.13 298.335 1015.81 294.662L1015.82 292.088Z" fill="#76B779"/>
    <path d="M1015.82 354.877C1009.05 365.795 1009 373.435 1010.13 378.341C1013.12 391.204 1026.44 394.586 1028.43 407.117C1029.67 414.86 1025.9 421.893 1022.75 426.431V429.613C1031.05 419.546 1031.86 412.226 1031.16 407.486C1029.35 395.193 1016.11 391.535 1012.94 377.603C1011.09 369.49 1013.6 362.01 1015.82 357.202L1015.82 354.877Z" fill="#76B779"/>
    <path d="M1015.82 431.54C1008.4 442.61 1008.31 450.201 1009.4 454.93C1012.39 467.942 1027.27 472.146 1027.7 484.296C1027.89 489.927 1024.89 494.552 1022.75 497.237L1022.75 499.561C1026.34 495.827 1030.01 490.629 1029.76 484.592C1029.27 472.672 1013.94 468.563 1011.09 454.856C1010.08 449.965 1010.53 443.248 1015.82 434.381V431.54Z" fill="#76B779"/>
    <path d="M1015.82 501.71C1012.2 505.779 1008.04 511.875 1008.73 518.754C1009.91 530.546 1024.14 533.781 1028.14 546.46C1029.93 552.144 1030.12 561.166 1021.39 575.016L1020.97 577.285C1032.6 561.775 1032.9 552.126 1030.91 546.128C1027.02 534.456 1012.63 531.24 1011.32 519.049C1010.67 513.035 1013.52 507.801 1015.82 504.514V501.71Z" fill="#76B779"/>
    <path d="M1013.28 579.796C1009.56 584.263 1006.96 589.556 1005.71 595.232C1003.78 604.436 1007.17 608.128 1004.05 616.335C1002.26 621.337 998.873 625.614 994.419 628.509C990.52 630.91 986.009 632.127 981.432 632.014C986.043 632.394 990.662 631.406 994.714 629.173C999.559 626.322 1003.26 621.875 1005.19 616.593C1008.15 608.792 1005.06 604.977 1007.15 595.343C1008.18 590.641 1010.06 586.164 1012.68 582.125L1013.28 579.796Z" fill="#76B779"/>
    <path d="M997.001 639.983C997.064 640.333 990.231 642.707 981.801 642.934C972.39 643.188 966.73 640.613 962.47 639.688C942.876 635.435 931.042 661.361 907.498 664.948C898.802 666.273 885.711 664.976 867.933 651.561L872.47 651.556C887.78 663.167 899.182 664.259 906.393 663.447C930.198 660.764 941.56 633.571 961.584 637.474C966.077 638.35 970.601 640.712 979.883 641.164C989.645 641.638 996.936 639.623 997.001 639.983Z" fill="#76B779"/>
    <path d="M859.281 644.664C846.215 639.293 824.975 632.842 800.917 637.437C768.848 643.563 757.616 664.379 727.649 667.652C715.114 669.021 695.5 667.736 669.584 651.59L674.313 651.588C685.418 658.133 703.568 666.516 724.992 664.553C755.92 661.72 767.454 639.729 798.925 633.453C812.761 630.694 834.433 630.178 864.262 644.667L859.281 644.664Z" fill="#76B779"/>
    <path d="M664.037 644.687C651.154 638.458 640.62 637.651 632.355 638.876C610.917 642.054 603.216 659.13 583.214 660.348C572.328 661.011 562.681 656.679 555.065 651.586L558.275 651.567C563.675 654.63 572.348 658.476 582.771 657.913C602.953 656.821 610.581 640.23 630.473 636.441C638.605 634.893 651.06 635.05 668.132 644.663L664.037 644.687Z" fill="#76B779"/>
    <path d="M549.273 644.651C527.307 632.848 512.883 633.741 503.748 636.773C488.389 641.872 482.538 654.828 465.564 656.917C455.012 658.215 445.882 654.611 440.071 651.584H443.613C450.165 654.716 457.453 655.987 464.679 655.257C482.171 653.136 488.125 638.533 502.641 633.066C511.819 629.609 527.077 628.802 552.323 644.651L549.273 644.651Z" fill="#76B779"/>
    <path d="M436.493 644.699C425.159 635.342 416.761 634.257 411.147 635.039C396.579 637.07 392.128 652.885 376.026 656.068C366.737 657.905 358.204 654.622 352.47 651.582L349.186 651.586C361.832 658.828 370.85 658.786 376.542 657.618C392.27 654.389 397.166 639.573 412.18 637.991C421.167 637.044 428.928 641.349 433.652 644.656L436.493 644.699Z" fill="#76B779"/>
    <path d="M343.431 644.659C338.235 642.102 329.583 638.814 319.691 640.37C302.42 643.088 297.038 658.106 281.064 660.569C274.988 661.506 265.331 660.943 252.012 651.579L255.498 651.583C261.237 655.047 270.054 659.071 280.068 657.747C296.509 655.573 301.906 640.871 318.473 638.046C324.612 637 333.915 637.306 346.475 644.657L343.431 644.659Z" fill="#76B779"/>
    <path d="M247.944 644.659C242.921 641.619 235.444 638.27 227.644 640.094C217.346 642.502 214.939 651.951 204.641 655.533C199.415 657.351 191.183 657.998 178.634 651.591L180.69 651.591C186.805 654.03 195.311 656.168 203.756 653.264C214.324 649.631 216.651 640.901 226.316 638.323C231.473 636.947 239.267 637.176 250.6 644.659H247.944Z" fill="#76B779"/>
    <path d="M175.127 644.655C166.239 639.155 160.08 639.111 156.054 640.149C146.567 642.594 143.858 652.346 133.808 653.984C129.396 654.556 124.916 653.716 121.011 651.586L118.41 651.588C125.345 655.862 130.57 656.207 134.25 655.533C144.054 653.738 146.739 644.014 156.829 641.754C162.921 640.389 168.707 642.419 172.988 644.655H175.127Z" fill="#76B779"/>
    <path d="M113.48 644.655C100.881 635.725 91.215 634.611 84.6115 635.335C72.9818 636.61 67.4532 643.96 59.0088 641.91C50.9137 639.944 46.2258 630.817 43.6255 623.984L45.2295 625.576C47.9039 631.28 52.4117 638.401 59.5984 640.094C68.0881 642.094 73.6296 634.944 84.0212 633.269C91.1383 632.121 101.672 633.358 116.069 644.659L113.48 644.655Z" fill="#76B779"/>
    <path d="M45.3947 615.708C45.0881 611.126 43.8752 604.984 39.3443 600.729C31.9806 593.815 21.6086 597.29 17.4301 591.064C15.7766 588.6 14.7741 584.141 18.4904 575.414C18.619 576.098 18.7476 576.782 18.8762 577.465C17.2405 581.599 15.9684 586.871 18.4262 590.621C22.453 596.765 32.7686 593.143 40.1559 599.475C43.5126 602.352 46.5171 607.5 46.7931 617.26C46.3269 616.743 45.8608 616.225 45.3947 615.708Z" fill="#76B779"/>
    <path d="M24.5267 568.625C30.1619 559.396 29.8582 553.748 28.498 550.279C25.3031 542.13 14.6376 541.809 12.2284 534.009C10.5306 528.513 13.9362 522.549 17.0604 518.385L17.0598 520.986C15.0042 524.117 12.5214 529.002 13.8886 533.788C16.1852 541.828 27.2138 542.118 30.4902 549.892C32.026 553.536 32.245 559.742 24.7701 570.615L24.5267 568.625Z" fill="#76B779"/>
    <path d="M23.9954 513.617C27.8757 508.27 32.3657 500.169 30.8776 491.398C28.5162 477.48 13.1498 473.942 9.8488 459.745C8.55186 454.166 8.79209 445.544 17.0541 433.163L17.0568 436.816C13.8066 442.419 10.3751 450.579 12.2284 459.246C15.3589 473.887 30.8828 477.417 33.3125 490.9C34.2915 496.333 33.3424 504.481 23.9963 515.83L23.9954 513.617Z" fill="#76B779"/>
    <path d="M23.9878 426.901C27.3631 419.487 31.1934 407.891 28.0552 395.533C22.9747 375.526 3.68721 369.495 3.33719 353.254C3.21824 347.736 5.248 339.291 17.0604 328.665V331.654C12.0454 336.702 6.43249 344.146 6.53747 353.096C6.72918 369.433 25.7936 375.553 30.7852 394.5C32.8483 402.331 32.9074 413.871 24.0155 430.083C24.0063 429.022 23.997 427.962 23.9878 426.901Z" fill="#76B779"/>
    <path d="M23.9903 324.704C33.2302 315.786 34.4585 308.487 34.4745 304.519C34.4837 302.232 34.1043 297.556 21.7466 278.953C12.536 265.087 9.34719 262.567 8.90791 256.485C8.3372 248.583 12.9182 241.727 17.0603 237.043V240.621C14.4345 244.232 11.484 249.592 11.7856 255.932C12.1124 262.803 16.0476 266.351 23.4067 276.85C32.9914 290.523 37.7836 297.36 37.7948 304.519C37.8021 309.238 35.9792 317.228 23.9905 327.001L23.9903 324.704Z" fill="#76B779"/>
    <path d="M23.9829 231.693C32.8395 219.498 34.1485 209.883 33.7367 203.397C32.2584 180.113 6.81391 168.925 9.4614 148.722C10.3856 142.973 13.0398 137.642 17.0705 133.439C17.0636 134.7 17.0568 135.96 17.05 137.22C14.3671 140.553 12.569 144.509 11.8225 148.722C8.58688 168.77 34.9487 180.476 36.9095 202.806C37.5483 210.082 35.8001 220.798 23.9846 234.682L23.9829 231.693Z" fill="#76B779"/>
    <path d="M23.9916 129.261C32.5178 118.862 37.3702 105.938 37.7949 92.4977C38.0244 81.6522 35.3223 70.9457 29.9737 61.508C36.3822 70.5914 39.9282 81.3835 40.1561 92.4977C40.4759 114.728 26.8922 129.321 23.9897 132.305L23.9916 129.261Z" fill="#76B779"/>
    <path d="M319.49 360.838C318.551 360.825 314.99 360.778 313.333 358.47C312.177 356.86 312.269 354.596 314.399 348.169C316.147 342.893 317.174 341.134 319.964 334.198C322.625 327.581 323.562 324.528 323.753 320.581C323.838 318.806 323.918 317.149 323.516 315.253C323.124 313.411 321.735 308.794 310.728 301.282C304.373 296.944 295.501 292.113 292.43 287.59C290.97 285.439 290.482 283.048 290.482 283.048C290.268 281.765 289.852 279.963 290.482 278.549C292.241 274.6 301.186 275.122 303.271 275.243C307.25 275.475 307.482 276.234 314.636 277.247C317.583 277.664 317.306 277.501 322.45 278.076C333.246 279.28 334.211 279.968 336.901 279.172C340.925 277.981 343.344 275.088 345.302 272.747C348.62 268.78 349.796 264.864 351.34 259.723C352.899 254.534 353.57 251.956 356.194 244.213C357.852 239.323 359.133 235.996 362.339 234.478C362.923 234.201 364.64 233.479 366.732 233.794C371.918 234.574 374.245 240.951 374.665 242.2C375.1 243.495 375.219 244.8 375.456 247.412C375.721 250.324 375.609 252.276 375.609 260.825C375.609 260.845 375.609 260.824 375.609 260.825C375.609 260.833 375.586 263.463 376.084 267.429C376.331 269.405 376.824 271.738 378.052 276.478C378.164 276.91 379.036 278.553 380.117 279.831C382.299 282.407 386.131 283.943 398.582 283.877C405.499 283.841 406.277 283.357 414.092 283.404C423.053 283.457 426.87 284.123 428.301 286.719C429.031 288.045 428.882 289.409 428.774 290.389C428.481 293.063 426.854 296.145 420.249 300.69C418.455 301.925 414.925 304.209 408.646 306.965C400.472 310.553 395.859 311.334 393.609 315.253C392.264 317.597 392.07 320.108 392.07 320.108C392.013 320.85 391.973 322.357 392.686 324.711C393.75 328.23 395.279 329.629 397.753 333.724C398.658 335.221 399.382 336.656 400.832 339.526C405.411 348.593 408.784 355.339 406.278 360.956C405.807 362.011 404.859 364.136 402.726 365.1C398.101 367.191 391.714 362.104 383.19 355.154C377.17 350.247 374.061 346.865 365.903 340.828C360.674 336.959 359.104 336.241 357.142 336.092C353.328 335.802 350.394 337.838 340.565 346.63C329.268 356.735 325.463 360.918 319.49 360.838Z" fill="#B75151"/>
    <path d="M338.346 281.922C341.057 281.658 341.927 281.367 342.541 281.101C345.276 279.918 346.76 277.605 347.503 276.358C353.401 266.462 357.353 253.083 357.353 253.083C358.186 250.222 359.589 247.558 360.627 244.765C360.66 244.676 361.117 243.448 362.105 242.111C362.664 241.354 362.998 241.098 363.199 240.962C363.432 240.804 364.425 240.134 365.744 240.36C366.975 240.571 367.678 241.444 367.878 241.701C368.531 242.538 368.655 243.457 368.699 243.807C370.828 261.08 371.289 267.566 371.289 267.566C371.48 270.253 371.795 273.954 373.459 278.255C374.552 281.08 375.49 282.258 376.086 282.907C377.36 284.292 379.448 285.838 383.994 286.819C387.164 287.504 391.176 287.257 399.07 286.737C399.968 286.678 407.193 286.197 411.492 286.19C412.326 286.189 412.525 286.179 413.565 286.196C415.336 286.227 417.108 286.303 418.879 286.3C419.185 286.299 419.969 286.295 420.696 286.778C420.787 286.839 421.244 287.15 421.588 287.75C422.125 288.686 421.993 289.635 421.944 289.952C421.814 290.782 421.419 291.452 420.712 292.264C419.071 294.153 417.265 295.082 417.265 295.082C412.36 297.607 409.907 298.869 405.034 301.293C401.693 302.956 398.926 304.477 398.249 304.85C395.36 306.444 395.746 306.337 393.98 307.258C390.296 309.181 389.302 309.289 387.742 310.761C386.136 312.275 385.414 313.834 385.225 314.263C385.035 314.694 384.292 316.46 384.349 318.969C384.412 321.763 385.428 323.81 386.173 325.317C391.446 335.98 390.102 333.668 391.39 335.969C393.483 339.707 395.503 343.486 397.629 347.206C397.629 347.206 398.259 348.24 399.89 352.167C400.288 353.124 400.626 353.992 400.565 355.15C400.54 355.645 400.455 356.933 399.526 358.004C398.396 359.308 396.745 359.452 396.306 359.491C393.59 359.729 391.413 357.671 389.201 355.706C386.23 353.066 383 350.729 379.971 348.154C372.36 341.686 374.359 343.896 369.246 339.472C368.931 339.199 365.887 336.433 361.658 334.291C360.663 333.788 359.465 333.248 357.864 333.115C355.762 332.939 354.145 333.56 352.993 334.018C350.656 334.945 349.091 336.278 346.317 338.642C345.724 339.147 345.81 339.095 344.409 340.34C342.2 342.302 340.472 343.652 338.711 345.272C336.997 346.848 333.498 349.866 325.632 356.208C324.406 357.433 323.207 358.138 322.403 358.533C321.231 359.111 320.24 359.598 318.874 359.518C318.451 359.494 316.82 359.398 315.618 358.114C314.791 357.23 314.584 356.23 314.487 355.761C314.209 354.424 314.509 353.293 314.779 352.277C314.899 351.824 315.078 351.33 315.435 350.343C315.714 349.574 315.926 349.041 316.164 348.438C316.888 346.606 317.138 345.856 317.369 345.345C318.562 342.703 319.628 340.804 320.105 339.946C323.563 333.73 325.445 329.489 328.35 322.945C329.955 319.33 331.073 316.559 330.575 313.095C330.527 312.763 330.285 311.175 329.408 309.265C327.732 305.615 324.993 303.52 323.06 302.114C315.01 296.259 308.248 292.812 308.248 292.811C308.248 292.811 304.482 290.866 299.055 286.354C298.515 285.906 297.145 284.736 296.611 282.815C296.45 282.237 296.066 280.857 296.773 279.516C297.315 278.491 298.215 278.02 298.544 277.854C300.126 277.055 301.776 277.404 302.959 277.672C305.991 278.357 307.507 278.7 310.343 279.574C311.434 279.91 314.336 280.283 320.141 281.028C327.132 281.925 329.285 282.06 330.466 282.122C331.16 282.159 334.305 282.314 338.346 281.922Z" fill="#E06363"/>
    <path d="M328.343 328.569C332.094 319.766 331.644 315.177 331.421 313.628C331.255 312.475 330.791 310.137 329.551 307.436C326.829 301.507 322.305 298.217 320.131 296.635C310.432 289.581 302.316 285.419 301.976 285.245C301.976 285.245 301.976 285.245 301.976 285.245C301.979 285.237 301.946 285.213 301.944 285.212C301.913 285.189 300.745 283.471 301.307 282.379C301.689 281.637 302.737 281.436 303.707 281.363C306.955 281.121 309.241 282.337 312.249 283.194C315.552 284.136 318.637 284.19 324.796 284.518C325.797 284.571 326.876 284.598 328.001 284.598C328.001 284.598 328.002 284.598 328.002 284.598C330.317 284.598 332.652 284.485 334.943 284.263C338.64 283.904 340.277 283.445 341.721 282.82C345.927 280.999 348.372 277.749 350.401 274.744C353.743 269.798 355.418 264.578 358.443 255.149C359.009 253.387 359.915 251.745 360.474 249.98C360.795 248.967 361.03 248.08 361.858 247.303C362.631 246.579 364.023 245.855 364.997 246.288C366.197 246.821 366.301 248.904 366.381 250.996C366.607 256.874 366.646 261.442 366.649 261.718C366.662 263.181 366.976 269.26 369.591 276.022C371.229 280.257 372.828 282.279 373.888 283.431C376.818 286.619 380.796 288.668 386.406 289.879C388.425 290.314 390.581 290.509 393.397 290.509C396.667 290.509 400.881 290.231 405.759 289.91L405.824 289.905C408.087 290.285 409.743 291.439 410.041 292.901C410.245 293.906 409.754 294.783 409.549 295.136C408.033 297.756 404.314 297.8 401.38 299.419C399.631 300.383 398.833 300.856 398.25 301.202C397.711 301.521 397.414 301.697 396.516 302.165C395.2 302.852 394.22 303.316 393.355 303.725C391.351 304.674 389.768 305.423 387.829 307.252C385.334 309.604 384.019 312.095 383.458 313.37C382.843 314.765 381.821 317.685 381.908 321.524C382.012 326.165 383.681 329.539 384.678 331.555C388.047 338.369 389.076 340.59 389.57 341.658C390.061 342.72 390.194 342.987 390.933 344.307C392.932 347.878 393.414 348.545 393.875 349.627C394.71 351.586 395.281 352.929 394.626 353.821C393.899 354.812 391.984 354.811 391.632 354.48C391.604 354.453 391.452 354.295 391.211 354.112C390.864 353.849 390.702 353.867 387.051 350.764C382.145 346.595 380.46 345.347 379.106 344.345C378.02 343.542 377.162 342.907 374.551 340.647C372.763 339.071 369.122 336.125 364.416 333.742C362.7 332.874 360.561 331.956 357.683 331.716C357.228 331.678 356.768 331.659 356.315 331.659C353.029 331.659 350.519 332.655 349.17 333.19C345.478 334.656 343.148 336.641 339.622 339.646C339.183 340.019 339.017 340.169 338.651 340.501C338.394 340.732 338.02 341.071 337.293 341.716C336.162 342.721 335.135 343.59 334.142 344.429C334.142 344.429 334.141 344.429 334.141 344.43C332.431 345.809 331.236 346.933 330.55 347.555C328.503 349.415 327.479 350.344 327.364 350.418C326.969 350.673 323.505 352.912 321.74 351.721C320.617 350.964 320.58 349.093 320.684 347.645C321.146 341.197 325.088 336.207 328.343 328.569Z" fill="#E56E6E"/>
    <path d="M418.552 291.771C417.31 291.139 415.457 290.411 413.185 290.35C409.869 290.26 408.502 291.667 404.502 293.034C402.207 293.818 397.537 295.413 392.346 294.612C388.052 293.95 387.418 292.606 383.979 292.56C379.869 292.505 376.529 294.552 374.428 296.191C376.528 294.911 379.784 293.382 383.723 293.527C387.38 293.661 387.893 294.977 392.07 295.658C397.571 296.555 402.639 294.7 405.035 293.823C408.329 292.617 409.753 291.45 413.086 291.218C415.357 291.06 417.263 291.423 418.552 291.771Z" fill="#B75151"/>
    <path d="M365.272 242.832C364.127 244.308 362.77 246.563 362.667 249.383C362.562 252.237 363.826 253.36 364.009 256.25C364.243 259.95 362.411 261.858 361.325 264.854C360.215 267.917 359.693 272.643 362.588 279.773C360.318 273.059 360.965 268.517 362.036 265.565C363.308 262.056 365.356 260.3 365.114 256.487C364.933 253.643 363.663 252.569 363.614 249.383C363.571 246.594 364.496 244.31 365.272 242.832Z" fill="#B75151"/>
    <path d="M299.046 282.062C303.454 281.093 306.263 281.874 307.966 282.693C312.102 284.683 312.069 287.797 316.096 289.403C319.891 290.915 321.771 288.835 326.87 289.481C329.688 289.838 333.191 290.989 337.053 294.099C334.465 292.501 330.954 290.893 326.673 290.547C321.281 290.112 319.423 292.063 315.701 290.587C311.809 289.042 311.813 286.193 307.492 283.798C304.492 282.136 301.363 281.931 299.046 282.062Z" fill="#B75151"/>
    <path d="M318.859 356.733C318.918 354.392 319.406 351.258 321.542 348.761C324.148 345.715 326.935 346.274 329.594 343.314C332.184 340.432 331.46 337.764 332.751 333.527C333.787 330.124 336.17 325.554 342.223 320.897C337.309 325.709 335.147 330.24 334.093 333.606C332.621 338.304 333.274 340.846 330.659 343.749C327.989 346.713 325.349 346.237 322.371 349.471C320.15 351.884 319.262 354.708 318.859 356.733Z" fill="#B75151"/>
    <path d="M397.398 356.102C397.045 353.589 396.129 350.188 393.451 347.695C390.004 344.485 386.626 345.561 384.315 342.308C382.149 339.259 383.791 336.862 382.302 333.073C381.244 330.382 378.569 327.008 371.231 324.489C377.993 327.406 380.431 330.906 381.414 333.546C382.862 337.438 381.269 339.558 383.308 342.604C385.596 346.023 389.054 345.047 392.938 348.564C395.596 350.969 396.799 353.981 397.398 356.102Z" fill="#B75151"/>
    <path d="M404.502 291.408C405.483 291.408 406.278 290.613 406.278 289.632C406.278 288.651 405.483 287.856 404.502 287.856C403.521 287.856 402.726 288.651 402.726 289.632C402.726 290.613 403.521 291.408 404.502 291.408Z" fill="#B75151"/>
    <path d="M392.622 303.019C393.908 303.019 394.951 301.976 394.951 300.69C394.951 299.404 393.908 298.362 392.622 298.362C391.336 298.362 390.294 299.404 390.294 300.69C390.294 301.976 391.336 303.019 392.622 303.019Z" fill="#B75151"/>
    <path d="M393.797 293.29C394.271 293.29 394.655 292.906 394.655 292.432C394.655 291.958 394.271 291.573 393.797 291.573C393.322 291.573 392.938 291.958 392.938 292.432C392.938 292.906 393.322 293.29 393.797 293.29Z" fill="#B75151"/>
    <path d="M389.011 290.863C389.785 290.863 390.412 290.236 390.412 289.462C390.412 288.688 389.785 288.061 389.011 288.061C388.237 288.061 387.61 288.688 387.61 289.462C387.61 290.236 388.237 290.863 389.011 290.863Z" fill="#B75151"/>
    <path d="M403.298 297.691C403.614 297.691 403.87 297.434 403.87 297.118C403.87 296.802 403.614 296.546 403.298 296.546C402.982 296.546 402.726 296.802 402.726 297.118C402.726 297.434 402.982 297.691 403.298 297.691Z" fill="#B75151"/>
    <path d="M366.841 250.903C367.707 250.903 368.409 250.2 368.409 249.334C368.409 248.467 367.707 247.765 366.841 247.765C365.974 247.765 365.272 248.467 365.272 249.334C365.272 250.2 365.974 250.903 366.841 250.903Z" fill="#B75151"/>
    <path d="M359.772 256.763C360.389 256.763 360.888 256.264 360.888 255.647C360.888 255.031 360.389 254.532 359.772 254.532C359.156 254.532 358.656 255.031 358.656 255.647C358.656 256.264 359.156 256.763 359.772 256.763Z" fill="#B75151"/>
    <path d="M367.669 268.248C368.994 268.248 370.067 267.175 370.067 265.851C370.067 264.526 368.994 263.453 367.669 263.453C366.345 263.453 365.272 264.526 365.272 265.851C365.272 267.175 366.345 268.248 367.669 268.248Z" fill="#B75151"/>
    <path d="M363.343 272.126C363.76 272.126 364.098 271.788 364.098 271.371C364.098 270.954 363.76 270.616 363.343 270.616C362.926 270.616 362.588 270.954 362.588 271.371C362.588 271.788 362.926 272.126 363.343 272.126Z" fill="#B75151"/>
    <path d="M355.928 269.373C357.023 269.373 357.911 268.485 357.911 267.39C357.911 266.295 357.023 265.407 355.928 265.407C354.833 265.407 353.945 266.295 353.945 267.39C353.945 268.485 354.833 269.373 355.928 269.373Z" fill="#B75151"/>
    <path d="M358.622 282.042C359.668 282.042 360.516 281.194 360.516 280.148C360.516 279.101 359.668 278.253 358.622 278.253C357.575 278.253 356.727 279.101 356.727 280.148C356.727 281.194 357.575 282.042 358.622 282.042Z" fill="#B75151"/>
    <path d="M375.405 290.33C376.631 290.33 377.625 289.336 377.625 288.11C377.625 286.884 376.631 285.89 375.405 285.89C374.179 285.89 373.185 286.884 373.185 288.11C373.185 289.336 374.179 290.33 375.405 290.33Z" fill="#B75151"/>
    <path d="M317.3 286.778C318.346 286.778 319.194 285.93 319.194 284.884C319.194 283.837 318.346 282.989 317.3 282.989C316.253 282.989 315.405 283.837 315.405 284.884C315.405 285.93 316.253 286.778 317.3 286.778Z" fill="#B75151"/>
    <path d="M303.008 287.211C303.738 287.211 304.329 286.619 304.329 285.89C304.329 285.161 303.738 284.569 303.008 284.569C302.279 284.569 301.687 285.161 301.687 285.89C301.687 286.619 302.279 287.211 303.008 287.211Z" fill="#B75151"/>
    <path d="M300.931 280.74C301.438 280.74 301.848 280.329 301.848 279.822C301.848 279.315 301.438 278.904 300.931 278.904C300.424 278.904 300.013 279.315 300.013 279.822C300.013 280.329 300.424 280.74 300.931 280.74Z" fill="#B75151"/>
    <path d="M307.656 287.856C308.085 287.856 308.432 287.509 308.432 287.08C308.432 286.652 308.085 286.304 307.656 286.304C307.228 286.304 306.88 286.652 306.88 287.08C306.88 287.509 307.228 287.856 307.656 287.856Z" fill="#B75151"/>
    <path d="M325.085 285.89C325.788 285.89 326.357 285.32 326.357 284.617C326.357 283.914 325.788 283.344 325.085 283.344C324.382 283.344 323.812 283.914 323.812 284.617C323.812 285.32 324.382 285.89 325.085 285.89Z" fill="#B75151"/>
    <path d="M326.328 298.618C327.717 298.618 328.844 297.492 328.844 296.102C328.844 294.713 327.717 293.586 326.328 293.586C324.938 293.586 323.812 294.713 323.812 296.102C323.812 297.492 324.938 298.618 326.328 298.618Z" fill="#B75151"/>
    <path d="M332.346 296.368C332.973 296.368 333.481 295.86 333.481 295.234C333.481 294.607 332.973 294.099 332.346 294.099C331.72 294.099 331.212 294.607 331.212 295.234C331.212 295.86 331.72 296.368 332.346 296.368Z" fill="#B75151"/>
    <path d="M341.72 291.1C342.913 291.1 343.881 290.132 343.881 288.939C343.881 287.745 342.913 286.778 341.72 286.778C340.527 286.778 339.559 287.745 339.559 288.939C339.559 290.132 340.527 291.1 341.72 291.1Z" fill="#B75151"/>
    <path d="M338.819 336.921C339.882 336.921 340.743 336.059 340.743 334.997C340.743 333.934 339.882 333.073 338.819 333.073C337.757 333.073 336.895 333.934 336.895 334.997C336.895 336.059 337.757 336.921 338.819 336.921Z" fill="#B75151"/>
    <path d="M326.18 342.071C327.226 342.071 328.074 341.223 328.074 340.177C328.074 339.131 327.226 338.282 326.18 338.282C325.134 338.282 324.285 339.131 324.285 340.177C324.285 341.223 325.134 342.071 326.18 342.071Z" fill="#B75151"/>
    <path d="M336.57 341.065C337.076 341.065 337.487 340.654 337.487 340.147C337.487 339.64 337.076 339.23 336.57 339.23C336.063 339.23 335.652 339.64 335.652 340.147C335.652 340.654 336.063 341.065 336.57 341.065Z" fill="#B75151"/>
    <path d="M331.153 326.265C331.643 326.265 332.041 325.867 332.041 325.377C332.041 324.886 331.643 324.489 331.153 324.489C330.662 324.489 330.265 324.886 330.265 325.377C330.265 325.867 330.662 326.265 331.153 326.265Z" fill="#B75151"/>
    <path d="M337.576 316.852C338.835 316.852 339.855 315.831 339.855 314.573C339.855 313.314 338.835 312.293 337.576 312.293C336.317 312.293 335.297 313.314 335.297 314.573C335.297 315.831 336.317 316.852 337.576 316.852Z" fill="#B75151"/>
    <path d="M327.275 352.55C328.174 352.55 328.903 351.821 328.903 350.922C328.903 350.023 328.174 349.294 327.275 349.294C326.376 349.294 325.647 350.023 325.647 350.922C325.647 351.821 326.376 352.55 327.275 352.55Z" fill="#B75151"/>
    <path d="M322.419 354.678C322.795 354.678 323.099 354.374 323.099 353.999C323.099 353.624 322.795 353.319 322.419 353.319C322.044 353.319 321.74 353.624 321.74 353.999C321.74 354.374 322.044 354.678 322.419 354.678Z" fill="#B75151"/>
    <path d="M320.526 347.814C320.968 347.814 321.325 347.456 321.325 347.014C321.325 346.573 320.968 346.215 320.526 346.215C320.085 346.215 319.727 346.573 319.727 347.014C319.727 347.456 320.085 347.814 320.526 347.814Z" fill="#B75151"/>
    <path d="M362.825 330.646C364.394 330.646 365.667 329.373 365.667 327.804C365.667 326.235 364.394 324.962 362.825 324.962C361.256 324.962 359.983 326.235 359.983 327.804C359.983 329.373 361.256 330.646 362.825 330.646Z" fill="#B75151"/>
    <path d="M381.927 317.503C382.973 317.503 383.821 316.655 383.821 315.609C383.821 314.562 382.973 313.714 381.927 313.714C380.881 313.714 380.032 314.562 380.032 315.609C380.032 316.655 380.881 317.503 381.927 317.503Z" fill="#B75151"/>
    <path d="M385.795 338.815C386.612 338.815 387.275 338.153 387.275 337.335C387.275 336.518 386.612 335.855 385.795 335.855C384.977 335.855 384.315 336.518 384.315 337.335C384.315 338.153 384.977 338.815 385.795 338.815Z" fill="#B75151"/>
    <path d="M390.649 343.65C391.935 343.65 392.978 342.607 392.978 341.321C392.978 340.035 391.935 338.993 390.649 338.993C389.363 338.993 388.32 340.035 388.32 341.321C388.32 342.607 389.363 343.65 390.649 343.65Z" fill="#B75151"/>
    <path d="M391.32 354.947C392.432 354.947 393.333 354.046 393.333 352.934C393.333 351.823 392.432 350.922 391.32 350.922C390.208 350.922 389.307 351.823 389.307 352.934C389.307 354.046 390.208 354.947 391.32 354.947Z" fill="#B75151"/>
    <path d="M385.943 349.294C386.46 349.294 386.88 348.874 386.88 348.356C386.88 347.839 386.46 347.419 385.943 347.419C385.425 347.419 385.005 347.839 385.005 348.356C385.005 348.874 385.425 349.294 385.943 349.294Z" fill="#B75151"/>
    <path d="M377.191 336.654C378.106 336.654 378.848 335.912 378.848 334.997C378.848 334.081 378.106 333.339 377.191 333.339C376.275 333.339 375.533 334.081 375.533 334.997C375.533 335.912 376.275 336.654 377.191 336.654Z" fill="#B75151"/>
    <path d="M382.272 327.804C382.812 327.804 383.249 327.367 383.249 326.827C383.249 326.288 382.812 325.85 382.272 325.85C381.733 325.85 381.295 326.288 381.295 326.827C381.295 327.367 381.733 327.804 382.272 327.804Z" fill="#B75151"/>
    <path d="M371.515 336.117C371.824 336.117 372.075 335.866 372.075 335.557C372.075 335.247 371.824 334.997 371.515 334.997C371.206 334.997 370.955 335.247 370.955 335.557C370.955 335.866 371.206 336.117 371.515 336.117Z" fill="#B75151"/>
    <path d="M373.264 329.935C373.667 329.935 373.994 329.608 373.994 329.205C373.994 328.802 373.667 328.475 373.264 328.475C372.861 328.475 372.534 328.802 372.534 329.205C372.534 329.608 372.861 329.935 373.264 329.935Z" fill="#B75151"/>
    <path d="M378.671 343.235C379.052 343.235 379.362 342.926 379.362 342.545C379.362 342.163 379.052 341.854 378.671 341.854C378.289 341.854 377.98 342.163 377.98 342.545C377.98 342.926 378.289 343.235 378.671 343.235Z" fill="#B75151"/>
    <path d="M413.047 294.573C413.319 294.573 413.54 294.352 413.54 294.079C413.54 293.807 413.319 293.586 413.047 293.586C412.774 293.586 412.553 293.807 412.553 294.079C412.553 294.352 412.774 294.573 413.047 294.573Z" fill="#B75151"/>
    <path d="M360.33 261.076C360.638 261.076 360.888 260.826 360.888 260.518C360.888 260.21 360.638 259.96 360.33 259.96C360.022 259.96 359.772 260.21 359.772 260.518C359.772 260.826 360.022 261.076 360.33 261.076Z" fill="#B75151"/>
    <path d="M362.134 246.827C362.318 246.827 362.468 246.677 362.468 246.493C362.468 246.308 362.318 246.158 362.134 246.158C361.949 246.158 361.799 246.308 361.799 246.493C361.799 246.677 361.949 246.827 362.134 246.827Z" fill="#B75151"/>
    <path d="M366.431 261.337C366.657 261.337 366.841 261.154 366.841 260.928C366.841 260.701 366.657 260.518 366.431 260.518C366.205 260.518 366.022 260.701 366.022 260.928C366.022 261.154 366.205 261.337 366.431 261.337Z" fill="#B75151"/>
    <path d="M321.068 287.211C321.188 287.211 321.285 287.114 321.285 286.994C321.285 286.875 321.188 286.778 321.068 286.778C320.949 286.778 320.852 286.875 320.852 286.994C320.852 287.114 320.949 287.211 321.068 287.211Z" fill="#B75151"/>
    <path d="M335.264 284.227C335.508 284.227 335.705 284.029 335.705 283.786C335.705 283.542 335.508 283.344 335.264 283.344C335.021 283.344 334.823 283.542 334.823 283.786C334.823 284.029 335.021 284.227 335.264 284.227Z" fill="#B75151"/>
    <path d="M329.986 337.335C330.322 337.335 330.595 337.062 330.595 336.726C330.595 336.389 330.322 336.117 329.986 336.117C329.649 336.117 329.377 336.389 329.377 336.726C329.377 337.062 329.649 337.335 329.986 337.335Z" fill="#B75151"/>
    <path d="M335.03 324.489C335.88 324.489 336.57 323.8 336.57 322.949C336.57 322.099 335.88 321.41 335.03 321.41C334.18 321.41 333.491 322.099 333.491 322.949C333.491 323.8 334.18 324.489 335.03 324.489Z" fill="#B75151"/>
    <path d="M339.49 329.205C339.692 329.205 339.855 329.042 339.855 328.84C339.855 328.638 339.692 328.475 339.49 328.475C339.288 328.475 339.125 328.638 339.125 328.84C339.125 329.042 339.288 329.205 339.49 329.205Z" fill="#B75151"/>
    <path d="M353.642 298.482C354.362 298.412 354.593 298.335 354.757 298.264C355.483 297.95 355.878 297.335 356.075 297.004C357.643 294.374 358.693 290.818 358.693 290.818C358.914 290.058 359.287 289.35 359.563 288.608C359.572 288.584 359.693 288.258 359.956 287.903C360.104 287.702 360.193 287.633 360.247 287.597C360.308 287.555 360.572 287.377 360.923 287.437C361.25 287.494 361.437 287.726 361.49 287.794C361.663 288.016 361.697 288.26 361.708 288.354C362.274 292.944 362.396 294.667 362.396 294.667C362.447 295.381 362.531 296.365 362.973 297.508C363.264 298.259 363.513 298.572 363.671 298.744C364.01 299.112 364.564 299.523 365.773 299.784C366.615 299.966 367.681 299.9 369.779 299.762C370.018 299.746 371.938 299.618 373.08 299.617C373.302 299.616 373.355 299.614 373.631 299.618C374.102 299.626 374.572 299.647 375.043 299.646C375.125 299.645 375.333 299.644 375.526 299.773C375.55 299.789 375.672 299.872 375.763 300.031C375.906 300.28 375.871 300.532 375.858 300.616C375.823 300.837 375.718 301.015 375.53 301.231C375.094 301.733 374.614 301.98 374.614 301.98C373.311 302.651 372.659 302.986 371.364 303.63C370.476 304.072 369.741 304.476 369.561 304.575C368.793 304.999 368.896 304.971 368.427 305.215C367.447 305.726 367.183 305.755 366.769 306.146C366.342 306.549 366.15 306.963 366.1 307.077C366.049 307.191 365.852 307.661 365.867 308.327C365.884 309.07 366.154 309.614 366.352 310.014C367.753 312.848 367.396 312.234 367.738 312.845C368.294 313.839 368.831 314.843 369.396 315.831C369.396 315.831 369.564 316.106 369.997 317.15C370.103 317.404 370.193 317.635 370.176 317.942C370.17 318.074 370.147 318.416 369.9 318.701C369.6 319.047 369.161 319.086 369.045 319.096C368.323 319.159 367.744 318.612 367.157 318.09C366.367 317.388 365.509 316.767 364.704 316.083C362.681 314.364 363.212 314.952 361.853 313.776C361.77 313.704 360.961 312.968 359.837 312.399C359.573 312.265 359.254 312.122 358.829 312.087C358.27 312.04 357.841 312.205 357.534 312.327C356.913 312.573 356.497 312.927 355.76 313.555C355.603 313.69 355.626 313.676 355.253 314.007C354.666 314.528 354.207 314.887 353.739 315.317C353.283 315.736 352.354 316.538 350.263 318.223C349.938 318.549 349.619 318.736 349.405 318.841C349.094 318.995 348.83 319.125 348.467 319.103C348.355 319.097 347.921 319.071 347.602 318.73C347.382 318.495 347.327 318.229 347.301 318.105C347.228 317.749 347.307 317.449 347.379 317.179C347.411 317.059 347.458 316.927 347.554 316.665C347.628 316.461 347.684 316.319 347.747 316.159C347.939 315.672 348.006 315.473 348.067 315.337C348.384 314.635 348.668 314.13 348.794 313.902C349.714 312.25 350.214 311.123 350.986 309.384C351.412 308.423 351.709 307.687 351.577 306.767C351.564 306.678 351.5 306.256 351.267 305.749C350.821 304.779 350.093 304.222 349.58 303.848C347.441 302.292 345.644 301.376 345.644 301.376C345.644 301.376 344.643 300.859 343.201 299.66C343.057 299.541 342.693 299.23 342.551 298.72C342.508 298.566 342.406 298.199 342.594 297.843C342.738 297.57 342.977 297.445 343.065 297.401C343.485 297.189 343.924 297.282 344.238 297.353C345.044 297.535 345.447 297.626 346.2 297.858C346.49 297.948 347.261 298.047 348.804 298.245C350.662 298.483 351.234 298.519 351.548 298.536C351.732 298.545 352.568 298.587 353.642 298.482Z" fill="#E87C7C"/>
    <path d="M618.886 238.305C617.947 238.293 614.386 238.245 612.729 235.937C611.573 234.327 611.664 232.064 613.795 225.636C615.543 220.361 616.57 218.601 619.359 211.665C622.021 205.048 622.958 201.996 623.148 198.049C623.234 196.274 623.314 194.616 622.912 192.721C622.52 190.878 621.131 186.261 610.124 178.749C603.768 174.412 594.897 169.58 591.826 165.057C590.365 162.907 589.878 160.516 589.878 160.516C589.664 159.232 589.248 157.43 589.878 156.016C591.637 152.068 600.582 152.589 602.667 152.711C606.646 152.943 606.878 153.702 614.031 154.714C616.979 155.131 616.702 154.969 621.846 155.543C632.641 156.748 633.606 157.435 636.296 156.639C640.32 155.448 642.74 152.556 644.697 150.215C648.015 146.247 649.192 142.331 650.736 137.191C652.294 132.002 652.966 129.423 655.59 121.68C657.248 116.79 658.529 113.463 661.735 111.945C662.319 111.669 664.036 110.946 666.128 111.261C671.314 112.041 673.641 118.418 674.061 119.667C674.496 120.962 674.614 122.268 674.852 124.879C675.117 127.791 675.004 129.743 675.004 138.292C675.004 138.312 675.004 138.292 675.004 138.292C675.004 138.3 674.982 140.93 675.48 144.897C675.727 146.872 676.22 149.205 677.447 153.945C677.559 154.377 678.432 156.021 679.513 157.298C681.694 159.874 685.526 161.41 697.978 161.345C704.895 161.308 705.673 160.824 713.488 160.871C722.448 160.925 726.266 161.591 727.696 164.186C728.427 165.512 728.277 166.876 728.17 167.857C727.877 170.531 726.249 173.613 719.645 178.157C717.851 179.392 714.321 181.676 708.042 184.433C699.868 188.021 695.255 188.801 693.005 192.721C691.66 195.065 691.466 197.575 691.466 197.575C691.408 198.317 691.369 199.824 692.081 202.178C693.146 205.697 694.675 207.096 697.149 211.191C698.053 212.689 698.778 214.123 700.227 216.993C704.807 226.06 708.18 232.806 705.674 238.423C705.203 239.478 704.255 241.603 702.122 242.568C697.497 244.658 691.11 239.571 682.586 232.622C676.566 227.714 673.457 224.332 665.299 218.295C660.07 214.426 658.5 213.708 656.537 213.559C652.723 213.27 649.789 215.305 639.961 224.097C628.664 234.203 624.859 238.385 618.886 238.305Z" fill="#B75151"/>
    <path d="M637.742 159.389C640.453 159.126 641.322 158.834 641.937 158.568C644.671 157.385 646.156 155.072 646.898 153.826C652.796 143.929 656.749 130.55 656.749 130.55C657.582 127.689 658.985 125.025 660.023 122.232C660.056 122.143 660.512 120.915 661.5 119.578C662.06 118.822 662.394 118.565 662.595 118.429C662.827 118.272 663.821 117.601 665.139 117.827C666.371 118.038 667.074 118.912 667.274 119.168C667.927 120.005 668.051 120.924 668.094 121.275C670.224 138.547 670.685 145.033 670.685 145.033C670.875 147.72 671.191 151.421 672.855 155.723C673.948 158.547 674.886 159.726 675.482 160.374C676.756 161.76 678.843 163.306 683.389 164.287C686.56 164.971 690.571 164.725 698.465 164.205C699.364 164.145 706.589 163.665 710.887 163.657C711.722 163.656 711.921 163.646 712.961 163.664C714.732 163.694 716.503 163.771 718.275 163.767C718.581 163.766 719.364 163.762 720.091 164.245C720.183 164.306 720.64 164.617 720.984 165.217C721.521 166.153 721.389 167.102 721.339 167.42C721.21 168.249 720.814 168.919 720.108 169.732C718.467 171.62 716.661 172.55 716.661 172.55C711.756 175.074 709.303 176.336 704.43 178.761C701.089 180.423 698.322 181.944 697.645 182.318C694.756 183.912 695.142 183.804 693.376 184.726C689.692 186.648 688.698 186.757 687.138 188.228C685.532 189.742 684.81 191.301 684.621 191.73C684.43 192.162 683.688 193.927 683.745 196.436C683.808 199.23 684.824 201.277 685.569 202.784C690.842 213.448 689.498 211.135 690.786 213.437C692.879 217.175 694.899 220.953 697.024 224.673C697.024 224.673 697.655 225.708 699.286 229.635C699.683 230.591 700.021 231.459 699.961 232.617C699.935 233.112 699.85 234.4 698.921 235.472C697.792 236.775 696.14 236.92 695.702 236.958C692.986 237.197 690.809 235.139 688.597 233.173C685.625 230.533 682.396 228.196 679.367 225.622C671.756 219.153 673.754 221.364 668.642 216.939C668.327 216.667 665.283 213.9 661.053 211.759C660.059 211.255 658.861 210.716 657.259 210.582C655.158 210.407 653.541 211.028 652.389 211.485C650.052 212.413 648.487 213.746 645.713 216.109C645.12 216.614 645.206 216.562 643.805 217.807C641.596 219.77 639.868 221.12 638.106 222.74C636.393 224.316 632.894 227.333 625.028 233.675C623.802 234.901 622.603 235.605 621.799 236.001C620.627 236.578 619.636 237.066 618.269 236.986C617.847 236.961 616.216 236.865 615.013 235.581C614.186 234.698 613.98 233.697 613.883 233.228C613.604 231.892 613.905 230.76 614.174 229.744C614.294 229.291 614.473 228.798 614.831 227.811C615.11 227.042 615.322 226.509 615.56 225.906C616.283 224.073 616.534 223.323 616.765 222.813C617.958 220.171 619.024 218.271 619.501 217.413C622.959 211.197 624.841 206.957 627.746 200.413C629.35 196.797 630.469 194.026 629.971 190.563C629.923 190.23 629.681 188.642 628.804 186.732C627.127 183.082 624.389 180.988 622.456 179.582C614.406 173.726 607.644 170.279 607.644 170.279C607.644 170.279 603.878 168.334 598.451 163.822C597.911 163.373 596.54 162.203 596.006 160.283C595.846 159.704 595.462 158.324 596.169 156.984C596.711 155.958 597.611 155.488 597.94 155.321C599.522 154.522 601.172 154.872 602.354 155.139C605.387 155.825 606.903 156.168 609.739 157.041C610.829 157.377 613.732 157.75 619.537 158.495C626.528 159.393 628.681 159.527 629.861 159.59C630.556 159.627 633.701 159.781 637.742 159.389Z" fill="#E06363"/>
    <path d="M627.739 206.036C631.49 197.234 631.039 192.644 630.817 191.095C630.651 189.942 630.187 187.605 628.947 184.903C626.224 178.974 621.701 175.684 619.526 174.103C609.828 167.048 601.712 162.886 601.371 162.712C601.371 162.712 601.371 162.712 601.371 162.712C601.375 162.705 601.341 162.681 601.34 162.68C601.309 162.656 600.141 160.939 600.703 159.846C601.085 159.105 602.133 158.903 603.103 158.831C606.351 158.589 608.637 159.805 611.645 160.662C614.948 161.603 618.032 161.658 624.191 161.985C625.193 162.038 626.272 162.065 627.397 162.065C627.397 162.065 627.398 162.065 627.398 162.065C629.713 162.065 632.048 161.952 634.339 161.73C638.035 161.371 639.673 160.912 641.116 160.287C645.323 158.467 647.767 155.216 649.797 152.212C653.139 147.265 654.814 142.045 657.839 132.617C658.405 130.854 659.311 129.212 659.87 127.448C660.191 126.434 660.426 125.547 661.254 124.771C662.027 124.047 663.418 123.323 664.393 123.755C665.593 124.288 665.697 126.371 665.777 128.463C666.003 134.341 666.042 138.91 666.045 139.185C666.058 140.649 666.371 146.727 668.987 153.49C670.625 157.724 672.223 159.746 673.283 160.898C676.214 164.086 680.192 166.136 685.802 167.346C687.82 167.782 689.977 167.976 692.793 167.976C696.062 167.976 700.276 167.698 705.155 167.377L705.22 167.373C707.483 167.752 709.139 168.906 709.437 170.369C709.641 171.373 709.149 172.251 708.945 172.604C707.429 175.223 703.71 175.267 700.775 176.886C699.027 177.851 698.228 178.324 697.646 178.669C697.106 178.988 696.81 179.164 695.912 179.633C694.596 180.319 693.616 180.783 692.751 181.193C690.747 182.141 689.164 182.891 687.225 184.719C684.729 187.072 683.415 189.562 682.854 190.837C682.238 192.232 681.216 195.153 681.303 198.991C681.407 203.632 683.076 207.006 684.074 209.023C687.443 215.836 688.471 218.057 688.965 219.125C689.457 220.187 689.59 220.454 690.329 221.774C692.328 225.345 692.81 226.012 693.271 227.095C694.105 229.054 694.677 230.396 694.022 231.289C693.295 232.279 691.38 232.279 691.028 231.947C691 231.92 690.848 231.762 690.607 231.58C690.26 231.317 690.097 231.334 686.447 228.232C681.541 224.062 679.856 222.815 678.502 221.813C677.416 221.009 676.558 220.374 673.947 218.115C672.159 216.539 668.517 213.592 663.812 211.209C662.096 210.342 659.957 209.423 657.079 209.184C656.624 209.145 656.164 209.127 655.71 209.127C652.424 209.127 649.915 210.123 648.566 210.657C644.874 212.123 642.544 214.108 639.017 217.114C638.579 217.487 638.413 217.636 638.047 217.968C637.79 218.2 637.416 218.538 636.689 219.184C635.558 220.189 634.531 221.057 633.537 221.897C633.537 221.897 633.537 221.897 633.537 221.897C631.826 223.276 630.632 224.4 629.946 225.023C627.898 226.882 626.874 227.812 626.76 227.886C626.365 228.141 622.901 230.379 621.135 229.188C620.013 228.431 619.976 226.56 620.08 225.112C620.542 218.664 624.484 213.675 627.739 206.036Z" fill="#E56E6E"/>
    <path d="M717.948 169.238C716.706 168.606 714.852 167.878 712.581 167.817C709.265 167.728 707.898 169.134 703.898 170.501C701.603 171.285 696.933 172.88 691.742 172.08C687.447 171.417 686.814 170.073 683.375 170.027C679.264 169.973 675.924 172.02 673.824 173.658C675.924 172.378 679.179 170.849 683.118 170.994C686.775 171.129 687.289 172.444 691.466 173.125C696.966 174.022 702.035 172.167 704.431 171.29C707.725 170.084 709.149 168.918 712.482 168.685C714.753 168.527 716.659 168.89 717.948 169.238Z" fill="#B75151"/>
    <path d="M664.668 120.299C663.523 121.775 662.166 124.03 662.063 126.85C661.958 129.704 663.222 130.827 663.405 133.718C663.639 137.417 661.807 139.326 660.721 142.321C659.61 145.384 659.089 150.11 661.984 157.24C659.713 150.527 660.361 145.984 661.431 143.032C662.703 139.523 664.752 137.767 664.51 133.954C664.329 131.11 663.059 130.036 663.01 126.85C662.967 124.062 663.892 121.778 664.668 120.299Z" fill="#B75151"/>
    <path d="M598.442 159.529C602.85 158.561 605.659 159.341 607.362 160.16C611.498 162.15 611.465 165.265 615.492 166.87C619.287 168.383 621.166 166.303 626.266 166.949C629.083 167.306 632.587 168.457 636.449 171.566C633.861 169.968 630.35 168.36 626.069 168.014C620.676 167.579 618.819 169.53 615.097 168.054C611.204 166.51 611.209 163.66 606.888 161.266C603.888 159.603 600.759 159.398 598.442 159.529Z" fill="#B75151"/>
    <path d="M618.254 234.201C618.314 231.859 618.802 228.725 620.938 226.228C623.544 223.182 626.331 223.741 628.989 220.782C631.579 217.899 630.856 215.231 632.147 210.994C633.183 207.592 635.566 203.021 641.619 198.365C636.705 203.176 634.543 207.707 633.489 211.073C632.017 215.771 632.67 218.313 630.055 221.216C627.384 224.181 624.745 223.704 621.767 226.939C619.546 229.351 618.657 232.176 618.254 234.201Z" fill="#B75151"/>
    <path d="M696.794 233.569C696.441 231.057 695.525 227.656 692.847 225.163C689.4 221.953 686.022 223.029 683.71 219.775C681.545 216.727 683.187 214.329 681.698 210.54C680.64 207.85 677.965 204.475 670.627 201.956C677.389 204.873 679.827 208.373 680.81 211.014C682.258 214.906 680.665 217.025 682.704 220.071C684.992 223.49 688.45 222.515 692.334 226.031C694.992 228.437 696.195 231.448 696.794 233.569Z" fill="#B75151"/>
    <path d="M703.898 168.875C704.878 168.875 705.674 168.08 705.674 167.099C705.674 166.119 704.878 165.323 703.898 165.323C702.917 165.323 702.122 166.119 702.122 167.099C702.122 168.08 702.917 168.875 703.898 168.875Z" fill="#B75151"/>
    <path d="M692.018 180.486C693.304 180.486 694.347 179.443 694.347 178.157C694.347 176.871 693.304 175.829 692.018 175.829C690.732 175.829 689.69 176.871 689.69 178.157C689.69 179.443 690.732 180.486 692.018 180.486Z" fill="#B75151"/>
    <path d="M693.192 170.757C693.666 170.757 694.051 170.373 694.051 169.899C694.051 169.425 693.666 169.041 693.192 169.041C692.718 169.041 692.334 169.425 692.334 169.899C692.334 170.373 692.718 170.757 693.192 170.757Z" fill="#B75151"/>
    <path d="M688.407 168.33C689.181 168.33 689.808 167.703 689.808 166.929C689.808 166.155 689.181 165.528 688.407 165.528C687.633 165.528 687.006 166.155 687.006 166.929C687.006 167.703 687.633 168.33 688.407 168.33Z" fill="#B75151"/>
    <path d="M702.694 175.158C703.01 175.158 703.266 174.902 703.266 174.586C703.266 174.27 703.01 174.013 702.694 174.013C702.378 174.013 702.122 174.27 702.122 174.586C702.122 174.902 702.378 175.158 702.694 175.158Z" fill="#B75151"/>
    <path d="M666.236 128.37C667.103 128.37 667.805 127.667 667.805 126.801C667.805 125.935 667.103 125.232 666.236 125.232C665.37 125.232 664.667 125.935 664.667 126.801C664.667 127.667 665.37 128.37 666.236 128.37Z" fill="#B75151"/>
    <path d="M659.168 134.231C659.784 134.231 660.284 133.731 660.284 133.115C660.284 132.499 659.784 131.999 659.168 131.999C658.552 131.999 658.052 132.499 658.052 133.115C658.052 133.731 658.552 134.231 659.168 134.231Z" fill="#B75151"/>
    <path d="M667.065 145.716C668.389 145.716 669.463 144.642 669.463 143.318C669.463 141.994 668.389 140.92 667.065 140.92C665.741 140.92 664.667 141.994 664.667 143.318C664.667 144.642 665.741 145.716 667.065 145.716Z" fill="#B75151"/>
    <path d="M662.739 149.593C663.156 149.593 663.494 149.255 663.494 148.838C663.494 148.422 663.156 148.084 662.739 148.084C662.322 148.084 661.984 148.422 661.984 148.838C661.984 149.255 662.322 149.593 662.739 149.593Z" fill="#B75151"/>
    <path d="M655.324 146.84C656.419 146.84 657.307 145.952 657.307 144.857C657.307 143.762 656.419 142.874 655.324 142.874C654.228 142.874 653.341 143.762 653.341 144.857C653.341 145.952 654.228 146.84 655.324 146.84Z" fill="#B75151"/>
    <path d="M658.017 159.509C659.064 159.509 659.912 158.661 659.912 157.615C659.912 156.569 659.064 155.72 658.017 155.72C656.971 155.72 656.123 156.569 656.123 157.615C656.123 158.661 656.971 159.509 658.017 159.509Z" fill="#B75151"/>
    <path d="M674.801 167.797C676.027 167.797 677.021 166.803 677.021 165.577C677.021 164.351 676.027 163.357 674.801 163.357C673.575 163.357 672.581 164.351 672.581 165.577C672.581 166.803 673.575 167.797 674.801 167.797Z" fill="#B75151"/>
    <path d="M616.695 164.245C617.742 164.245 618.59 163.397 618.59 162.351C618.59 161.305 617.742 160.456 616.695 160.456C615.649 160.456 614.801 161.305 614.801 162.351C614.801 163.397 615.649 164.245 616.695 164.245Z" fill="#B75151"/>
    <path d="M602.404 164.678C603.133 164.678 603.725 164.087 603.725 163.357C603.725 162.628 603.133 162.036 602.404 162.036C601.674 162.036 601.083 162.628 601.083 163.357C601.083 164.087 601.674 164.678 602.404 164.678Z" fill="#B75151"/>
    <path d="M600.327 158.207C600.833 158.207 601.244 157.796 601.244 157.289C601.244 156.782 600.833 156.372 600.327 156.372C599.82 156.372 599.409 156.782 599.409 157.289C599.409 157.796 599.82 158.207 600.327 158.207Z" fill="#B75151"/>
    <path d="M607.052 165.323C607.481 165.323 607.828 164.976 607.828 164.548C607.828 164.119 607.481 163.772 607.052 163.772C606.624 163.772 606.276 164.119 606.276 164.548C606.276 164.976 606.624 165.323 607.052 165.323Z" fill="#B75151"/>
    <path d="M624.48 163.357C625.183 163.357 625.753 162.787 625.753 162.084C625.753 161.382 625.183 160.812 624.48 160.812C623.777 160.812 623.208 161.382 623.208 162.084C623.208 162.787 623.777 163.357 624.48 163.357Z" fill="#B75151"/>
    <path d="M625.724 176.085C627.113 176.085 628.24 174.959 628.24 173.569C628.24 172.18 627.113 171.053 625.724 171.053C624.334 171.053 623.208 172.18 623.208 173.569C623.208 174.959 624.334 176.085 625.724 176.085Z" fill="#B75151"/>
    <path d="M631.742 173.836C632.369 173.836 632.877 173.328 632.877 172.701C632.877 172.074 632.369 171.566 631.742 171.566C631.116 171.566 630.608 172.074 630.608 172.701C630.608 173.328 631.116 173.836 631.742 173.836Z" fill="#B75151"/>
    <path d="M641.116 168.567C642.309 168.567 643.276 167.6 643.276 166.406C643.276 165.213 642.309 164.245 641.116 164.245C639.922 164.245 638.955 165.213 638.955 166.406C638.955 167.6 639.922 168.567 641.116 168.567Z" fill="#B75151"/>
    <path d="M638.215 214.388C639.277 214.388 640.139 213.527 640.139 212.464C640.139 211.401 639.277 210.54 638.215 210.54C637.152 210.54 636.291 211.401 636.291 212.464C636.291 213.527 637.152 214.388 638.215 214.388Z" fill="#B75151"/>
    <path d="M625.576 219.539C626.622 219.539 627.47 218.69 627.47 217.644C627.47 216.598 626.622 215.75 625.576 215.75C624.529 215.75 623.681 216.598 623.681 217.644C623.681 218.69 624.529 219.539 625.576 219.539Z" fill="#B75151"/>
    <path d="M635.965 218.532C636.472 218.532 636.883 218.121 636.883 217.615C636.883 217.108 636.472 216.697 635.965 216.697C635.458 216.697 635.048 217.108 635.048 217.615C635.048 218.121 635.458 218.532 635.965 218.532Z" fill="#B75151"/>
    <path d="M630.548 203.732C631.039 203.732 631.436 203.334 631.436 202.844C631.436 202.354 631.039 201.956 630.548 201.956C630.058 201.956 629.66 202.354 629.66 202.844C629.66 203.334 630.058 203.732 630.548 203.732Z" fill="#B75151"/>
    <path d="M636.972 194.319C638.23 194.319 639.251 193.299 639.251 192.04C639.251 190.781 638.23 189.761 636.972 189.761C635.713 189.761 634.692 190.781 634.692 192.04C634.692 193.299 635.713 194.319 636.972 194.319Z" fill="#B75151"/>
    <path d="M626.671 230.017C627.57 230.017 628.299 229.288 628.299 228.389C628.299 227.49 627.57 226.761 626.671 226.761C625.772 226.761 625.043 227.49 625.043 228.389C625.043 229.288 625.772 230.017 626.671 230.017Z" fill="#B75151"/>
    <path d="M621.815 232.146C622.19 232.146 622.495 231.842 622.495 231.466C622.495 231.091 622.19 230.787 621.815 230.787C621.44 230.787 621.135 231.091 621.135 231.466C621.135 231.842 621.44 232.146 621.815 232.146Z" fill="#B75151"/>
    <path d="M619.922 225.281C620.363 225.281 620.721 224.923 620.721 224.482C620.721 224.04 620.363 223.683 619.922 223.683C619.481 223.683 619.123 224.04 619.123 224.482C619.123 224.923 619.481 225.281 619.922 225.281Z" fill="#B75151"/>
    <path d="M662.221 208.113C663.79 208.113 665.062 206.841 665.062 205.271C665.062 203.702 663.79 202.43 662.221 202.43C660.651 202.43 659.379 203.702 659.379 205.271C659.379 206.841 660.651 208.113 662.221 208.113Z" fill="#B75151"/>
    <path d="M681.323 194.97C682.369 194.97 683.217 194.122 683.217 193.076C683.217 192.03 682.369 191.182 681.323 191.182C680.276 191.182 679.428 192.03 679.428 193.076C679.428 194.122 680.276 194.97 681.323 194.97Z" fill="#B75151"/>
    <path d="M685.19 216.283C686.008 216.283 686.67 215.62 686.67 214.802C686.67 213.985 686.008 213.322 685.19 213.322C684.373 213.322 683.71 213.985 683.71 214.802C683.71 215.62 684.373 216.283 685.19 216.283Z" fill="#B75151"/>
    <path d="M690.045 221.117C691.331 221.117 692.373 220.075 692.373 218.789C692.373 217.503 691.331 216.46 690.045 216.46C688.759 216.46 687.716 217.503 687.716 218.789C687.716 220.075 688.759 221.117 690.045 221.117Z" fill="#B75151"/>
    <path d="M690.716 232.415C691.827 232.415 692.729 231.513 692.729 230.402C692.729 229.29 691.827 228.389 690.716 228.389C689.604 228.389 688.703 229.29 688.703 230.402C688.703 231.513 689.604 232.415 690.716 232.415Z" fill="#B75151"/>
    <path d="M685.338 226.761C685.856 226.761 686.276 226.341 686.276 225.824C686.276 225.306 685.856 224.886 685.338 224.886C684.821 224.886 684.401 225.306 684.401 225.824C684.401 226.341 684.821 226.761 685.338 226.761Z" fill="#B75151"/>
    <path d="M676.587 214.122C677.502 214.122 678.244 213.38 678.244 212.464C678.244 211.549 677.502 210.806 676.587 210.806C675.671 210.806 674.929 211.549 674.929 212.464C674.929 213.38 675.671 214.122 676.587 214.122Z" fill="#B75151"/>
    <path d="M681.668 205.271C682.207 205.271 682.645 204.834 682.645 204.294C682.645 203.755 682.207 203.318 681.668 203.318C681.128 203.318 680.691 203.755 680.691 204.294C680.691 204.834 681.128 205.271 681.668 205.271Z" fill="#B75151"/>
    <path d="M670.911 213.584C671.22 213.584 671.471 213.333 671.471 213.024C671.471 212.715 671.22 212.464 670.911 212.464C670.602 212.464 670.351 212.715 670.351 213.024C670.351 213.333 670.602 213.584 670.911 213.584Z" fill="#B75151"/>
    <path d="M672.66 207.402C673.063 207.402 673.39 207.076 673.39 206.672C673.39 206.269 673.063 205.942 672.66 205.942C672.256 205.942 671.929 206.269 671.929 206.672C671.929 207.076 672.256 207.402 672.66 207.402Z" fill="#B75151"/>
    <path d="M678.067 220.703C678.448 220.703 678.757 220.394 678.757 220.012C678.757 219.631 678.448 219.321 678.067 219.321C677.685 219.321 677.376 219.631 677.376 220.012C677.376 220.394 677.685 220.703 678.067 220.703Z" fill="#B75151"/>
    <path d="M712.442 172.04C712.715 172.04 712.936 171.819 712.936 171.547C712.936 171.274 712.715 171.053 712.442 171.053C712.17 171.053 711.949 171.274 711.949 171.547C711.949 171.819 712.17 172.04 712.442 172.04Z" fill="#B75151"/>
    <path d="M659.726 138.543C660.034 138.543 660.284 138.294 660.284 137.985C660.284 137.677 660.034 137.428 659.726 137.428C659.418 137.428 659.168 137.677 659.168 137.985C659.168 138.294 659.418 138.543 659.726 138.543Z" fill="#B75151"/>
    <path d="M661.529 124.295C661.714 124.295 661.864 124.145 661.864 123.96C661.864 123.775 661.714 123.625 661.529 123.625C661.344 123.625 661.194 123.775 661.194 123.96C661.194 124.145 661.344 124.295 661.529 124.295Z" fill="#B75151"/>
    <path d="M665.827 138.804C666.053 138.804 666.236 138.621 666.236 138.395C666.236 138.169 666.053 137.985 665.827 137.985C665.601 137.985 665.417 138.169 665.417 138.395C665.417 138.621 665.601 138.804 665.827 138.804Z" fill="#B75151"/>
    <path d="M620.464 164.678C620.583 164.678 620.68 164.581 620.68 164.462C620.68 164.342 620.583 164.245 620.464 164.245C620.344 164.245 620.248 164.342 620.248 164.462C620.248 164.581 620.344 164.678 620.464 164.678Z" fill="#B75151"/>
    <path d="M634.66 161.694C634.904 161.694 635.101 161.497 635.101 161.253C635.101 161.009 634.904 160.812 634.66 160.812C634.416 160.812 634.219 161.009 634.219 161.253C634.219 161.497 634.416 161.694 634.66 161.694Z" fill="#B75151"/>
    <path d="M629.382 214.802C629.718 214.802 629.991 214.53 629.991 214.193C629.991 213.857 629.718 213.584 629.382 213.584C629.045 213.584 628.772 213.857 628.772 214.193C628.772 214.53 629.045 214.802 629.382 214.802Z" fill="#B75151"/>
    <path d="M634.426 201.956C635.276 201.956 635.965 201.267 635.965 200.417C635.965 199.567 635.276 198.878 634.426 198.878C633.576 198.878 632.887 199.567 632.887 200.417C632.887 201.267 633.576 201.956 634.426 201.956Z" fill="#B75151"/>
    <path d="M638.886 206.672C639.087 206.672 639.251 206.509 639.251 206.307C639.251 206.106 639.087 205.942 638.886 205.942C638.684 205.942 638.521 206.106 638.521 206.307C638.521 206.509 638.684 206.672 638.886 206.672Z" fill="#B75151"/>
    <path d="M653.038 175.95C653.758 175.88 653.989 175.802 654.153 175.731C654.879 175.417 655.274 174.802 655.471 174.471C657.039 171.841 658.089 168.286 658.089 168.286C658.31 167.526 658.683 166.818 658.959 166.075C658.968 166.052 659.089 165.725 659.352 165.37C659.5 165.169 659.589 165.101 659.642 165.065C659.704 165.023 659.968 164.845 660.319 164.905C660.646 164.961 660.833 165.193 660.886 165.261C661.059 165.483 661.092 165.728 661.104 165.821C661.67 170.411 661.792 172.135 661.792 172.135C661.843 172.849 661.927 173.832 662.369 174.975C662.66 175.726 662.909 176.039 663.067 176.211C663.406 176.58 663.96 176.99 665.168 177.251C666.011 177.433 667.077 177.368 669.175 177.229C669.414 177.214 671.334 177.086 672.476 177.084C672.698 177.084 672.751 177.081 673.027 177.086C673.498 177.094 673.968 177.114 674.439 177.113C674.521 177.113 674.729 177.112 674.922 177.24C674.946 177.256 675.068 177.339 675.159 177.498C675.302 177.747 675.267 177.999 675.254 178.084C675.219 178.304 675.114 178.482 674.926 178.698C674.49 179.2 674.01 179.447 674.01 179.447C672.707 180.118 672.055 180.453 670.76 181.098C669.872 181.539 669.137 181.944 668.957 182.043C668.189 182.466 668.292 182.438 667.822 182.683C666.843 183.194 666.579 183.222 666.165 183.613C665.738 184.016 665.546 184.43 665.496 184.544C665.445 184.659 665.248 185.128 665.263 185.795C665.28 186.537 665.55 187.081 665.748 187.482C667.149 190.315 666.792 189.701 667.134 190.313C667.69 191.306 668.227 192.31 668.792 193.299C668.792 193.299 668.959 193.573 669.393 194.617C669.499 194.871 669.588 195.102 669.572 195.41C669.565 195.541 669.543 195.883 669.296 196.168C668.996 196.515 668.557 196.553 668.44 196.563C667.719 196.627 667.14 196.08 666.552 195.557C665.763 194.856 664.905 194.235 664.1 193.551C662.077 191.832 662.608 192.419 661.249 191.243C661.166 191.171 660.357 190.436 659.233 189.867C658.968 189.733 658.65 189.589 658.225 189.554C657.666 189.507 657.236 189.672 656.93 189.794C656.309 190.04 655.893 190.395 655.156 191.023C654.999 191.157 655.021 191.143 654.649 191.474C654.062 191.995 653.603 192.354 653.135 192.785C652.679 193.204 651.75 194.005 649.659 195.691C649.333 196.016 649.015 196.204 648.801 196.309C648.49 196.462 648.226 196.592 647.863 196.571C647.751 196.564 647.317 196.539 646.998 196.197C646.778 195.963 646.723 195.697 646.697 195.572C646.623 195.217 646.703 194.916 646.775 194.646C646.807 194.526 646.854 194.395 646.949 194.132C647.023 193.928 647.08 193.786 647.143 193.626C647.335 193.139 647.402 192.94 647.463 192.804C647.78 192.102 648.064 191.597 648.19 191.369C649.109 189.717 649.61 188.59 650.381 186.851C650.808 185.891 651.105 185.154 650.973 184.234C650.96 184.145 650.896 183.724 650.663 183.216C650.217 182.246 649.489 181.689 648.976 181.316C646.836 179.76 645.04 178.844 645.04 178.844C645.039 178.844 644.039 178.327 642.596 177.128C642.453 177.008 642.089 176.697 641.947 176.187C641.904 176.033 641.802 175.667 641.99 175.31C642.134 175.038 642.373 174.913 642.461 174.869C642.881 174.656 643.32 174.749 643.634 174.82C644.44 175.002 644.843 175.094 645.596 175.326C645.886 175.415 646.657 175.514 648.2 175.712C650.058 175.951 650.63 175.986 650.944 176.003C651.128 176.013 651.964 176.054 653.038 175.95Z" fill="#E87C7C"/>
</svg>
