<?xml version="1.0" encoding="UTF-8" standalone="no"?>
<svg width="1100" height="682" viewBox="0 0 1100 682" fill="none" xmlns="http://www.w3.org/2000/svg">
<rect x="3" y="3" width="1094" height="676" rx="77" fill="white" stroke="#844EA5" stroke-width="6"/>
<path d="M543 250L558.267 296.987L607.672 296.987L567.702 326.026L582.969 373.013L543 343.974L503.031 373.013L518.298 326.026L478.328 296.987L527.733 296.987L543 250Z" fill="#164E82"/>
<path d="M455 467L470.267 513.987L519.672 513.987L479.702 543.026L494.969 590.013L455 560.974L415.031 590.013L430.298 543.026L390.328 513.987L439.733 513.987L455 467Z" fill="#164E82"/>
<path d="M422 71L437.267 117.987L486.672 117.987L446.702 147.026L461.969 194.013L422 164.974L382.031 194.013L397.298 147.026L357.328 117.987L406.733 117.987L422 71Z" fill="#164E82"/>
<path d="M837 101L852.267 147.987L901.672 147.987L861.702 177.026L876.969 224.013L837 194.974L797.031 224.013L812.298 177.026L772.328 147.987L821.733 147.987L837 101Z" fill="#164E82"/>
<circle cx="169" cy="161" r="58" fill="#F2A74E"/>
<circle cx="783" cy="434" r="58" fill="#F2A74E"/>
<circle cx="957" cy="550" r="58" fill="#F2A74E"/>
<circle cx="261" cy="584" r="58" fill="#F2A74E"/>
<circle cx="667" cy="111" r="58" fill="#F2A74E"/>
</svg>
