<svg viewBox="0 0 137 137" fill="none" xmlns="http://www.w3.org/2000/svg">
    <rect x="2.01062" y="2.02002" width="132.618" height="132.618" rx="30" fill="white" stroke="#116619" stroke-width="4"/>
    <path d="M32.5006 96.01C32.0135 97.6209 31.6146 99.2569 31.3056 100.911C30.7828 103.2 30.5322 105.543 30.5588 107.891C30.6083 109.568 30.8336 111.235 31.231 112.866C31.541 113.108 31.8652 113.331 32.2019 113.534C33.8968 114.475 35.7892 115.009 37.7284 115.094C39.5142 115.283 41.3103 115.357 43.1057 115.316C45.1788 115.285 47.2484 115.136 49.3044 114.871C50.7259 114.689 51.0687 114.592 52.2171 114.425C54.6923 114.096 57.1884 113.947 59.6855 113.98C66.96 113.877 67.3439 113.473 73.8007 113.534C77.3101 113.567 78.6493 113.7 79.1779 113.757C82.841 114.149 83.7301 114.742 87.0944 115.242C89.8701 115.564 92.6655 115.688 95.459 115.613C97.6998 115.628 100.703 115.593 104.272 115.39C104.515 115.108 104.74 114.811 104.944 114.499C105.957 112.765 106.474 110.787 106.437 108.782C106.49 107.087 106.34 105.392 105.989 103.732C105.506 101.497 104.754 99.3282 103.749 97.2722C100.049 90.1441 73.3888 89.3255 70.5146 89.2526C64.3858 89.0976 35.1011 88.5372 32.5006 96.01Z" fill="#994516"/>
    <path d="M118.654 80.3517C120.066 79.4992 120.733 79.0117 121.832 79.0267C125.503 79.0771 129.528 84.6755 128.262 87.932C128.076 88.3735 127.808 88.7757 127.47 89.1172C125.566 91.2311 123.299 92.9918 120.775 94.3173C111.812 98.0567 102.849 101.796 93.8856 105.536L68.5 116.5C69.5172 115.581 88.1293 98.8176 99.3822 90.9517C102.181 88.9562 105.09 87.1187 108.096 85.4479C114.255 82.0451 113.89 83.2289 118.654 80.3517Z" fill="#AA4F1C"/>
    <path d="M18.3456 80.3517C16.9337 79.4992 16.2665 79.0117 15.1677 79.0267C11.4969 79.0771 7.47234 84.6755 8.73774 87.932C8.92361 88.3735 9.19238 88.7757 9.52965 89.1172C11.4342 91.2311 13.7012 92.9918 16.2252 94.3173C25.1883 98.0567 34.1514 101.796 43.1145 105.536L68.5 116.5C67.4828 115.581 48.8707 98.8176 37.6177 90.9517C34.8192 88.9562 31.9102 87.1187 28.9043 85.4479C22.7453 82.0451 23.1102 83.2289 18.3456 80.3517Z" fill="#AA4F1C"/>
    <path d="M114.854 64.6753C115.911 64.0564 117.13 63.7641 118.355 63.8357C120.784 64.046 122.418 65.9256 123.738 67.4448C125.201 68.8838 126.124 70.7778 126.352 72.8111C126.375 73.3769 126.338 73.9434 126.242 74.5016C125.496 78.6482 119.576 82.6299 118.726 83.1911L103.669 92.9122L86.3425 104.199C80.395 108.299 74.4475 112.4 68.5 116.5C73.0493 112.091 77.2893 107.376 81.1903 102.391C86.7136 95.3345 88.2687 91.9609 97.2964 79.7794C97.2964 79.7793 105.146 69.9261 114.854 64.6753Z" fill="#B6551E"/>
    <path d="M22.1459 64.6753C21.0886 64.0564 19.87 63.7641 18.6452 63.8357C16.2161 64.046 14.5823 65.9256 13.2619 67.4448C11.799 68.8838 10.8764 70.7778 10.648 72.8111C10.6253 73.3769 10.662 73.9434 10.7576 74.5016C11.5041 78.6482 17.4241 82.6299 18.2743 83.1911L33.3309 92.9122L50.6575 104.199L68.5 116.5C63.9507 112.091 59.7107 107.376 55.8098 102.391C50.2864 95.3345 48.7313 91.9609 39.7037 79.7794C39.7036 79.7793 31.8541 69.9261 22.1459 64.6753Z" fill="#B6551E"/>
    <path d="M101.642 44.2654C102.787 43.7902 103.995 43.4802 105.229 43.345C109.19 43.065 112.258 44.9718 114.613 46.4701C117.396 48.2407 121.102 50.5994 121.468 54.3594C121.533 55.1378 121.464 55.9215 121.263 56.6766C120.158 60.849 118.215 64.7558 115.551 68.1616C111.766 72.9447 107.725 77.5217 103.444 81.8725L94.9677 90.411L90.2884 95.0557C89.2627 96.1215 88.237 97.1872 87.2112 98.253C83.5292 102.065 79.8472 105.877 76.1652 109.69C73.6101 111.96 71.055 114.23 68.5 116.5C72.0572 107.727 74.6649 100.519 76.3192 95.7837C80.106 84.9444 92.4479 48.2393 101.642 44.2654Z" fill="#C76933"/>
    <path d="M82.2978 30.1229C83.6021 29.2727 85.0082 28.5879 86.4834 28.0844H86.4834C91.0873 26.9238 96.4717 29.0527 96.4718 29.0527C99.3597 30.1945 103.872 31.9786 105.461 36.4421C105.892 37.6338 106.086 38.8972 106.032 40.1623C106.006 43.8645 105.49 47.5471 104.498 51.1154C103.569 54.7024 102.421 58.2299 101.061 61.6781C99.8905 64.5042 98.7199 67.3304 97.5492 70.1566C95.9986 73.3294 94.4481 76.5023 92.8975 79.6752C89.6836 85.027 86.4696 90.3787 83.2557 95.7305L73.7884 109.96C72.0256 112.14 70.2628 114.32 68.5 116.5C68.7338 114.636 69.0684 111.767 69.3707 108.246C69.7153 104.231 69.8555 101.263 69.9339 99.6552C71.0895 75.9477 72.6328 66.3348 73.1181 62.6362C73.118 62.6362 76.3425 34.1217 82.2978 30.1229Z" fill="#D77D4A"/>
    <path d="M35.3578 44.2654C34.2126 43.7902 33.0049 43.4802 31.7714 43.345C27.8105 43.065 24.7416 44.9718 22.3871 46.4701C19.6045 48.2407 15.8979 50.5994 15.5319 54.3594C15.4667 55.1378 15.5361 55.9215 15.737 56.6766C16.8418 60.849 18.7848 64.7558 21.4488 68.1616C25.2339 72.9447 29.2754 77.5217 33.5558 81.8725L42.0323 90.411L46.7116 95.0557C47.7373 96.1215 48.7631 97.1872 49.7888 98.253L60.8349 109.69C63.3899 111.96 65.945 114.23 68.5 116.5C64.9428 107.727 62.3351 100.519 60.6808 95.7837C56.894 84.9444 44.5521 48.2393 35.3578 44.2654Z" fill="#C76933"/>
    <path d="M54.7022 30.1229C53.3978 29.2727 51.9918 28.5879 50.5166 28.0844H50.5165C45.9127 26.9238 40.5282 29.0527 40.5282 29.0527C37.6403 30.1945 33.128 31.9786 31.5386 36.4421C31.1081 37.6338 30.9142 38.8972 30.9678 40.1623C30.9939 43.8644 31.5098 47.5471 32.5023 51.1153C33.4309 54.7024 34.5785 58.2298 35.9388 61.678L39.4507 70.1565C41.0013 73.3294 42.5519 76.5023 44.1025 79.6752C47.3164 85.0269 50.5303 90.3787 53.7442 95.7304L63.2115 109.96C64.9743 112.14 66.7371 114.32 68.4999 116.5C68.2661 114.636 67.9316 111.767 67.6293 108.246C67.2846 104.231 67.1444 101.263 67.0661 99.6552C65.9105 75.9477 64.3671 66.3348 63.8819 62.6362C63.8819 62.6362 60.6575 34.1217 54.7022 30.1229Z" fill="#D77D4A"/>
    <path d="M83.9963 31.2551C83.8334 29.385 83.38 27.5513 82.6522 25.8192C79.6391 19.8355 70.3824 19.5291 68.5081 19.5C68.5054 20.3981 68.4947 20.3981 68.492 19.5C66.6176 19.5291 57.361 19.8355 54.3478 25.8192C53.6201 27.5513 53.1667 29.385 53.0038 31.2551C52.4816 34.9011 52.425 38.5981 52.8355 42.2582C53.0432 44.7257 53.3416 46.5736 53.4437 47.1963C55.1937 57.8738 57.8125 67.6467 57.8125 67.6467C59.7792 76.2045 61.7181 84.8434 63.6292 93.5634C65.1191 100.364 66.5723 107.127 67.989 113.852L68.5001 116.5L68.9786 113.871C70.4117 107.134 71.8757 100.365 73.3709 93.5635C75.2854 84.8556 77.2243 76.2166 79.1875 67.6467C79.1875 67.6466 81.8063 57.8738 83.5564 47.1963C83.6584 46.5736 83.9569 44.7257 84.1646 42.2582C84.575 38.5981 84.5185 34.9011 83.9963 31.2551Z" fill="#EA8D59"/>
</svg>
