<?xml version="1.0" encoding="UTF-8" standalone="no"?>
<svg width="1100" height="682" viewBox="0 0 1100 682" fill="none" xmlns="http://www.w3.org/2000/svg">
<rect x="3" y="3" width="1094" height="676" rx="77" fill="white" stroke="#844EA5" stroke-width="6"/>
<path d="M309 138L324.267 184.987L373.672 184.987L333.702 214.026L348.969 261.013L309 231.974L269.031 261.013L284.298 214.026L244.328 184.987L293.733 184.987L309 138Z" fill="#164E82"/>
<path d="M159 503L174.267 549.987L223.672 549.987L183.702 579.026L198.969 626.013L159 596.974L119.031 626.013L134.298 579.026L94.3282 549.987L143.733 549.987L159 503Z" fill="#164E82"/>
<path d="M814 46L829.267 92.9868L878.672 92.9868L838.702 122.026L853.969 169.013L814 139.974L774.031 169.013L789.298 122.026L749.328 92.9868L798.733 92.9868L814 46Z" fill="#164E82"/>
<path d="M918 414L933.267 460.987L982.672 460.987L942.702 490.026L957.969 537.013L918 507.974L878.031 537.013L893.298 490.026L853.328 460.987L902.733 460.987L918 414Z" fill="#164E82"/>
<path d="M660 108L675.267 154.987L724.672 154.987L684.702 184.026L699.969 231.013L660 201.974L620.031 231.013L635.298 184.026L595.328 154.987L644.733 154.987L660 108Z" fill="#164E82"/>
<circle cx="143" cy="108" r="58" fill="#F2A74E"/>
<circle cx="980" cy="233" r="58" fill="#F2A74E"/>
<circle cx="377" cy="492" r="58" fill="#F2A74E"/>
<circle cx="633" cy="584" r="58" fill="#F2A74E"/>
</svg>
