<svg viewBox="0 0 1041 673" fill="none" xmlns="http://www.w3.org/2000/svg">
    <path d="M930.275 31.5285H109.538C60.379 31.5285 20.5281 71.3795 20.5281 120.538V559.113C20.5281 608.271 60.379 648.122 109.538 648.122H930.275C979.434 648.122 1019.29 608.271 1019.29 559.113V120.538C1019.29 71.3795 979.434 31.5285 930.275 31.5285Z" fill="#B6CEE1" stroke="#116619" stroke-width="6"/>
    <path d="M10.3469 40.3962C14.0803 43.5191 30.3874 57.8544 33.3679 82.5644C35.0453 97.2366 31.7442 112.047 23.9945 124.618C23.9918 129.075 23.989 133.532 23.9862 137.989C25.0233 137.01 49.8969 112.69 42.0007 79.7975C35.7441 53.7353 13.6634 42.0771 10.3469 40.3962Z" fill="#48964E"/>
    <path d="M17.0568 128.701C8.98218 135.637 6.59962 141.986 5.91961 146.508C3.13433 165.034 25.5049 175.593 28.639 200.181C30.069 211.399 26.9365 221.161 23.9804 227.767L23.9874 239.712C41.4525 218.375 42.4271 204.688 40.0083 196.092C35.2336 179.124 13.7559 169.631 15.364 150.788C15.5784 148.344 16.1462 145.945 17.0498 143.665C17.0522 138.677 17.0545 133.689 17.0568 128.701Z" fill="#48964E"/>
    <path d="M17.0604 232.674C5.48565 244.641 4.28566 252.946 5.18185 258.219C6.6285 266.731 13.6658 268.101 22.5951 285.077C28.1058 295.553 28.5784 301.026 28.6455 303.671C28.7255 309.923 27.1172 316.082 23.9901 321.497L23.991 330.539C41.6305 318.739 42.9887 308.886 42.9598 304.851C42.909 297.746 38.4361 291.725 29.6047 279.838C21.4098 268.807 15.4083 264.258 14.9215 255.415C14.7654 251.724 15.499 248.049 17.0604 244.7V232.674Z" fill="#48964E"/>
    <path d="M17.0604 325.22V335.103C13.8048 340.271 12.0902 346.261 12.1177 352.369C12.5845 369.455 28.9968 376.064 34.1056 392.065C36.8704 400.725 36.9913 414.222 23.998 434.822C23.9945 430.933 23.991 427.045 23.9876 423.156C26.0384 415.924 26.4201 408.32 25.1039 400.919C20.7622 377.867 0.685835 370.851 0.0169104 353.992C-0.233507 347.682 2.15076 337.868 17.0604 325.22Z" fill="#48964E"/>
    <path d="M17.0501 427.831C4.97676 444.271 4.77025 454.633 6.80518 461.054C10.6864 473.3 24.3096 476.221 27.465 490.052C29.351 498.318 26.4774 506.012 23.9945 510.935C23.9957 514.078 23.9969 517.22 23.998 520.363C37.3567 504.069 38.216 493.78 36.1717 487.248C32.6197 475.899 19.2639 472.709 15.9546 458.324C14.7898 452.761 15.1723 446.984 17.0605 441.623L17.0501 427.831Z" fill="#48964E"/>
    <path d="M17.0611 515.065C8.99139 525.759 9.01228 531.824 10.4205 535.356C13.1375 542.17 22.1153 542.287 25.5464 550.039C28.0529 555.702 26.0883 562.023 24.2825 566.146C24.398 567.501 24.5496 568.909 24.7374 570.368C24.9273 571.825 25.1414 573.223 25.3798 574.563C36.2299 556.687 35.4076 548.633 32.7036 544.579C28.6326 538.476 17.7067 537.555 16.397 530.191C16.1252 528.432 16.3545 526.631 17.0585 524.996L17.0611 515.065Z" fill="#48964E"/>
    <path d="M18.0223 572.507C13.0893 583.935 14.5024 589.32 16.4896 592.115C20.5841 597.873 29.2556 595.641 37.1309 602.851C40.4593 606 42.9027 609.968 44.2169 614.358C44.942 615.213 45.712 616.085 46.5268 616.972C47.3525 617.869 48.1676 618.718 48.972 619.52C49.2111 604.959 45.1101 599.01 41.3367 596.265C34.4536 591.258 24.7424 594.061 20.6399 587.632C19.2123 585.118 18.7263 582.177 19.2689 579.337C19.0587 578.382 18.8584 577.4 18.6682 576.389C18.4185 575.057 18.2032 573.763 18.0223 572.507Z" fill="#48964E"/>
    <path d="M42.0032 622.283C46.7912 638.508 53.2138 643.192 57.9383 644.631C66.9855 647.388 73.8137 639.441 88.7124 639.365C96.1931 639.413 103.557 641.227 110.203 644.66L119.037 644.657C102.87 630.479 91.0101 628.438 82.7301 629.801C72.3764 631.505 63.8323 639.154 54.95 635.224C51.4656 633.513 48.6523 630.688 46.9565 627.196C46.2083 626.514 45.4496 625.795 44.6804 625.04C43.7329 624.108 42.8405 623.189 42.0032 622.283Z" fill="#48964E"/>
    <path d="M115.106 651.591C127.369 659.207 134.715 658.829 139.176 657.027C145.937 654.296 147.67 647.647 156.146 644.779C160.852 643.316 165.884 643.273 170.614 644.655H177.173C165.138 636.785 157.597 636.827 152.826 638.581C144.69 641.572 140.989 650.87 130.322 652.01C128.053 652.244 125.762 652.1 123.54 651.584L115.106 651.591Z" fill="#48964E"/>
    <path d="M176.174 651.59C191.651 661.554 201.029 661.231 206.763 659.02C215.799 655.534 218.489 646.308 229.636 643.525C235.059 642.31 240.718 642.705 245.919 644.66L253.388 644.657C239.944 633.895 230.994 633.305 225.357 634.671C213.782 637.475 209.318 650.187 194.515 652.342C190.476 652.902 186.366 652.647 182.428 651.591L176.174 651.59Z" fill="#48964E"/>
    <path d="M249.258 651.582C265.838 664.48 276.984 665.311 284.237 663.447C296.85 660.205 300.696 648.04 316.407 643.82C324.23 641.89 332.436 642.182 340.102 644.66L351.961 644.655C333.753 633.539 321.409 633.567 313.345 635.888C299.746 639.802 293.8 651.537 277.043 653.596C270.737 654.311 264.351 653.625 258.341 651.587L249.258 651.582Z" fill="#48964E"/>
    <path d="M345.465 651.591C365.599 662.904 377.706 661.874 385.028 658.872C394.833 654.852 399.56 645.86 412.771 643.525C418.46 642.583 424.289 642.969 429.804 644.655L443.018 644.658C425.156 629.441 413.953 628.334 406.868 630.539C395.058 634.214 392.044 647.915 376.764 652.231C370.047 653.964 362.974 653.737 356.382 651.577L345.465 651.591Z" fill="#48964E"/>
    <path d="M436.307 651.584C442.658 655.453 452.538 660.082 464.273 659.315C481.079 658.216 487.83 646.955 505.592 642.197C514.149 639.904 527.157 638.613 545.113 644.65L557.538 644.652C526.411 625.02 509.136 625.608 498.952 630.686C488.018 636.138 480.788 648.994 462.926 651.881C457.708 652.701 452.387 652.6 447.203 651.584H436.307Z" fill="#48964E"/>
    <path d="M562.702 651.585C568.452 653.494 574.507 654.314 580.558 654.002C600.049 652.891 608.674 639.807 623.353 634.67C633.854 630.996 650.007 630.496 674.713 644.655L660.42 644.66C650.354 641.913 639.791 641.525 629.551 643.525C608.509 647.856 601.319 660.833 583.509 662.118C576.428 662.63 565.421 661.455 551.171 651.587L562.702 651.585Z" fill="#48964E"/>
    <path d="M678.232 651.584C690.721 656.031 703.969 657.957 717.208 657.249C748.6 655.366 762.648 638.53 787.599 631.572C805.047 626.705 831.514 625.641 869.511 644.67L852.521 644.66C835.629 641.292 818.247 641.207 801.323 644.41C765.319 651.434 753.078 670.21 724.734 672.301C710.686 673.337 690.342 670.448 664.51 651.591L678.232 651.584Z" fill="#48964E"/>
    <path d="M863.062 651.567C886.607 667.621 902.874 668.248 913.514 665.66C932.602 661.019 935.367 645.599 956.862 642.787C972.958 640.681 980.122 648.188 995.268 643.23C1005.77 639.793 1012.88 632.731 1017.11 627.587C1009.96 632.466 1001.87 635.785 993.35 637.327C976.852 640.181 972.486 633.405 958.485 634.671C935.888 636.714 931.903 655.755 909.677 658.725C898.771 660.182 888.073 657.154 877.949 651.549L863.062 651.567Z" fill="#48964E"/>
    <path d="M999.209 69.8698C997.079 77.8959 996.929 86.3192 998.772 94.4161C1003.46 113.868 1018.27 119.09 1024.6 136.621C1027.5 144.66 1029.28 157.114 1022.75 175.443L1022.76 186.227C1042.99 157.86 1042.88 141.801 1038.91 132.342C1033.64 119.792 1018.97 112.695 1008.05 87.2683C1006.39 83.4222 1005.27 80.1954 1004.61 78.1808C1004.06 77.2256 1003.48 76.2551 1002.86 75.2693C1001.65 73.3353 1000.43 71.5367 999.209 69.8698Z" fill="#48964E"/>
    <path d="M1015.82 180.961C1011.89 187.507 1007.1 197.909 1008.95 209.578C1011.34 224.602 1022.78 229.453 1027.25 244.773C1029.47 252.361 1030.52 264.371 1022.75 281.839V294.295C1042.18 265.974 1041.87 250.456 1037.66 241.453C1032.33 230.076 1018.31 223.862 1015.52 206.479C1014.82 201.997 1014.92 197.427 1015.82 192.98V180.961Z" fill="#48964E"/>
    <path d="M1015.82 288.046C1006.9 300.577 1006.59 308.452 1008.44 313.504C1011.7 322.443 1022.43 324.583 1024.6 334.976C1025.36 339.343 1024.71 343.839 1022.75 347.816L1022.76 356.235C1032.27 345.732 1033.16 338.662 1032.12 334.09C1029.58 322.9 1013.72 319.142 1013.31 307.528C1013.28 304.468 1014.15 301.468 1015.81 298.9L1015.82 288.046Z" fill="#48964E"/>
    <path d="M1015.82 351.992C1005.73 364.487 1004.91 372.978 1006.3 378.586C1009.03 389.572 1021.11 392.861 1024.01 406.33C1025.05 411.659 1024.61 417.171 1022.75 422.272V434.384C1035.55 419.748 1036.56 410.288 1034.93 404.264C1031.75 392.556 1017.13 388.512 1014.86 373.569C1014.29 369.557 1014.62 365.469 1015.82 361.6L1015.82 351.992Z" fill="#48964E"/>
    <path d="M1015.82 426.515C1004.79 443.25 1004.97 453.074 1007.55 459.062C1011.73 468.749 1023.75 471.98 1025.04 483.19C1025.39 487.06 1024.59 490.946 1022.75 494.368L1022.75 503.382C1032.03 494.91 1033.54 488.412 1033.23 484.075C1032.34 471.543 1015.58 466.621 1013.75 451.093C1013.29 446.598 1014.01 442.06 1015.82 437.921L1015.82 426.515Z" fill="#48964E"/>
    <path d="M1015.82 499.014C1007.02 507.596 1005.4 514.24 1005.86 518.975C1006.87 529.57 1018.51 532.74 1023.27 545.391C1026.88 554.982 1024.61 564.882 1021.83 572.165C1021.6 573.851 1021.3 575.628 1020.93 577.483C1020.57 579.278 1020.17 580.978 1019.75 582.576C1036.03 561.403 1036.46 549.678 1033.45 542.808C1028.98 532.623 1014.59 527.777 1014.27 515.286C1014.22 512.647 1014.75 510.03 1015.82 507.617L1015.82 499.014Z" fill="#48964E"/>
    <path d="M1014.2 575.757C1009.84 580.03 1006.56 585.276 1004.62 591.064C1001.29 601.346 1004.9 606.523 1000.52 615.745C999.569 617.76 996.178 624.913 989.124 628.141C977.107 633.64 963.034 623.823 962.617 624.765C962.191 625.726 975.865 638.171 990.342 634.283C997.405 632.386 1005.59 626.476 1007.66 618.456C1009.61 610.929 1007.55 596.224 1009.29 592.035C1009.35 591.892 1009.8 590.836 1010.36 589.358C1010.98 587.685 1011.45 586.25 1011.78 585.179C1012.3 583.51 1012.81 581.738 1013.27 579.868C1013.63 578.455 1013.94 577.085 1014.2 575.757Z" fill="#48964E"/>
    <path d="M1001.47 61.5114C1001.37 56.6351 1000.25 51.8343 998.181 47.4151C991.658 33.5863 977.938 28.8425 974.865 27.862C988.36 26.1976 1001.09 32.6254 1006.59 43.5783C1012.43 55.2029 1007.59 66.8654 1006.81 68.643C1005.94 67.3385 1004.98 65.9914 1003.94 64.6156C1003.11 63.5224 1002.29 62.4876 1001.47 61.5114Z" fill="#48964E"/>
    <path d="M43.1074 75.3058C44.178 75.238 38.4338 54.3328 49.1947 41.4385C57.8654 31.0486 73.9217 29.8508 87.2125 30.7765C89.4119 30.2335 91.3744 29.8336 93.0296 29.5356C94.0802 29.3464 95.6591 29.081 97.592 28.8308C98.9585 28.6539 100.173 28.5272 101.193 28.4349C76.8268 18.8415 53.2042 23.3875 43.6608 37.2327C33.201 52.4075 41.9815 75.3771 43.1074 75.3058Z" fill="#48964E"/>
    <path d="M93.9102 36.4151C102.92 41.8452 116.869 48.1997 132.092 45.3121C149.99 41.9171 155.559 28.4282 174.15 22.9922C183.451 20.2726 198.036 18.9772 219.103 28.0634H236.353C199.711 5.44145 178.684 6.07504 165.96 12.2196C151.449 19.2267 139.936 37.1661 118.258 37.0114C114.152 36.9709 110.076 36.3133 106.166 35.0607C103.849 35.1485 101.363 35.337 98.7344 35.6676C97.0497 35.8795 95.4401 36.133 93.9102 36.4151Z" fill="#48964E"/>
    <path d="M228.079 34.994C228.944 35.3655 230.199 35.8987 231.72 36.5247C233.329 37.2753 234.978 37.935 236.661 38.5009C240.168 39.6001 245.142 41.035 251.185 42.359C257.024 43.638 276.468 46.4508 289.033 46.3082C320.503 45.951 334.661 25.56 366.507 19.7456C380.473 17.1958 400.921 16.8869 427.843 28.053C437.861 28.0582 447.878 28.0634 457.896 28.0685C399.445 -5.47043 365.669 -2.9533 345.478 6.02161C327.021 14.2264 308.788 32.7752 274.516 36.1947C264.406 37.1846 254.208 36.7811 244.207 34.9957L228.079 34.994Z" fill="#48964E"/>
    <path d="M437.286 34.9914C465.595 51.2299 483.707 50.326 495.115 46.3082C510.947 40.7325 518.143 27.6528 538.058 24.6155C547.925 23.263 557.975 24.4497 567.256 28.0634H586.506C555.693 5.68429 537.191 4.95595 525.662 9.56331C510.09 15.7864 504.033 33.0253 483.162 37.0114C474.91 38.4536 466.427 37.7578 458.521 34.9905C451.442 34.9908 444.364 34.9911 437.286 34.9914Z" fill="#48964E"/>
    <path d="M571.485 34.9957C596.982 49.3601 614.019 48.7852 625.05 45.3121C642.733 39.7448 651.283 24.7466 672.199 23.5087C680.314 23.1283 688.403 24.6898 695.793 28.0634H718.178C696.64 9.28632 680.985 6.98964 670.428 8.67782C649.18 12.0756 638.772 33.1835 609.666 35.9045C603.46 36.4718 597.205 36.1641 591.084 34.9904C584.551 34.9922 578.018 34.994 571.485 34.9957Z" fill="#48964E"/>
    <path d="M703.477 34.994C726.783 49.3467 740.366 48.8083 748.64 44.9801C759.428 39.9895 761.813 29.122 774.613 24.9106C784.975 21.5015 795.456 24.6605 802.943 28.0599C808.95 28.0605 814.957 28.0611 820.964 28.0617C789.526 7.85254 773.908 8.26014 765.463 13.4001C755.427 19.5093 753.178 33.732 739.786 37.3065C732.496 39.2524 725.544 37.0715 720.901 34.9957L703.477 34.994Z" fill="#48964E"/>
    <path d="M809.739 34.9931C815.789 39.6486 825.205 45.3044 836.74 45.2753C856.236 45.2261 864.499 28.9799 885.881 23.2873C895.544 20.7146 910.126 19.7014 930.432 28.0634C933.816 28.0668 937.197 28.2545 940.56 28.6259C943.741 28.9771 946.679 29.4677 949.349 30.0243C907.174 3.31469 886.881 4.6651 876.141 11.039C865.409 17.4079 857.069 33.0336 838.068 35.5356C833.569 36.1108 829.005 35.9274 824.567 34.9931H809.739Z" fill="#48964E"/>
    <path d="M934.578 35.0669C941.184 39.498 948.55 42.6711 956.308 44.4268C966.959 46.7913 978.032 46.4488 988.515 43.4307C979.796 43.5594 971.095 42.5926 962.617 40.553C959.399 39.7762 956.383 38.8836 953.578 37.9281C947.375 36.2526 941 35.2927 934.578 35.0669V35.0669Z" fill="#48964E"/>
    <path d="M101.41 35.4049C107.838 38.3593 117.566 41.6527 128.908 40.4695C152.537 38.0046 160.464 18.4851 181.344 14.1011C191.498 11.969 206.67 13.0066 227.939 28.0634C226.906 28.0455 225.873 28.0276 224.84 28.0096C205.872 15.3877 191.931 14.5197 182.672 16.0932C160.602 19.8442 152.632 39.5941 129.016 42.2109C116.358 43.6135 105.462 39.3998 98.4163 35.7755L101.41 35.4049Z" fill="#76B779"/>
    <path d="M95.3166 29.1536C85.4727 25.4876 74.7352 24.9591 64.5788 27.6407C59.6373 29.0252 51.9161 31.1809 46.4277 38.2288C39.199 47.5115 40.6058 58.6408 41.0045 61.2498C40.6717 58.7011 39.5176 47.6986 46.8534 38.7216C52.3326 32.0165 60.2123 29.9397 64.8739 28.7106C73.9135 26.4301 83.4148 26.7632 92.2725 29.671C93.2873 29.4985 94.302 29.326 95.3166 29.1536Z" fill="#76B779"/>
    <path d="M237.66 34.9822C252 39.4528 273.205 43.7283 297.002 38.7822C330.164 31.8895 340.922 12.7916 368.942 7.64488C385.526 4.5989 410.17 6.06968 443.834 28.0613L439.167 28.0649C408.29 9.14931 385.263 7.9398 369.975 10.3011C340.724 14.8192 329.915 33.9371 297.666 40.8482C271.862 46.3781 248.691 40.5865 233.399 34.9946C234.82 34.9905 236.24 34.9864 237.66 34.9822Z" fill="#76B779"/>
    <path d="M444.941 34.9911C452.929 40.0391 465.38 46.0803 479.841 44.6481C504.225 42.2331 513.083 20.6748 537.726 17.8641C546.079 16.9113 558.71 17.8317 575.226 28.0738L578.428 28.0634C560.424 15.2718 546.765 13.8309 537.394 15.0971C514.299 18.2174 505.779 39.3249 480.948 41.9918C467.881 43.3952 456.562 39.0193 448.925 35.0007C447.597 34.9975 446.269 34.9943 444.941 34.9911Z" fill="#76B779"/>
    <path d="M578.18 34.9873C595.154 43.6952 608.029 44.0214 616.418 42.8772C642.702 39.292 652.867 17.4572 676.737 17.5321C689.165 17.5711 699.182 23.5302 705.283 28.0599C706.237 28.0611 707.192 28.0623 708.147 28.0634C694.849 16.8455 684.006 14.7085 676.848 14.6545C653.408 14.4776 643.263 36.4358 616.085 40.3317C601.595 42.4089 589.063 38.3766 581.209 34.9905L578.18 34.9873Z" fill="#76B779"/>
    <path d="M710.788 34.9947C718.061 40.2465 728.459 45.7932 739.491 43.7627C755.801 40.7608 759.939 23.6929 776.605 19.5981C783.78 17.8351 794.553 18.163 809.897 28.0606L812.55 28.0609C794.731 15.2624 782.829 14.6367 774.981 16.9418C759.326 21.5405 755.487 39.0733 739.159 41.8811C729.507 43.5409 720.566 39.1829 714.295 34.9957C713.126 34.9953 711.957 34.995 710.788 34.9947Z" fill="#76B779"/>
    <path d="M814.955 34.9931C819.827 38.1992 827.321 42.0445 836.555 42.2132C858.284 42.6099 867.535 22.245 889.127 16.9787C899.452 14.4606 914.822 14.852 936.534 28.2863C937.876 28.3995 939.218 28.5127 940.56 28.6259C915.515 11.7737 898.952 11.6916 888.574 14.5438C868.698 20.0065 859.238 39.606 836.888 39.6676C830.25 39.6106 823.717 38.0112 817.804 34.9957C816.854 34.9949 815.905 34.994 814.955 34.9931Z" fill="#76B779"/>
    <path d="M942.44 35.713C946.569 38.605 951.123 40.8354 955.939 42.3239C963.469 44.634 970.024 44.5734 970.051 44.3714C965.338 43.7267 960.69 42.6713 956.161 41.2171C952.256 39.881 948.499 38.1504 944.945 36.0521C944.11 35.9391 943.275 35.826 942.44 35.713Z" fill="#76B779"/>
    <path d="M988.516 31.625C991.866 32.7213 994.959 34.4872 997.606 36.8153C1000.25 39.1435 1002.4 41.9854 1003.92 45.1684C1005.43 48.3515 1006.28 51.8094 1006.42 55.3321C1006.56 58.8548 1005.98 62.3688 1004.72 65.6609L1003.26 63.7362C1005.12 57.5054 1004.64 50.8135 1001.93 44.9062C999.217 38.9989 994.45 34.2789 988.516 31.625V31.625Z" fill="#76B779"/>
    <path d="M1000.89 72.2494C1000.26 82.8465 1002.22 93.4377 1006.61 103.106C1014.89 120.768 1027.3 124.15 1031.79 138.06C1034.42 146.21 1034.63 158.89 1022.75 178.194L1022.75 180.961C1037.32 159.553 1037.47 145.875 1034.56 137.175C1030.09 123.821 1017.69 120.015 1008.88 100.872C1005.12 92.5861 1002.93 83.6724 1002.43 74.5864C1001.92 73.8074 1001.4 73.0284 1000.89 72.2494Z" fill="#76B779"/>
    <path d="M1015.82 184.986C1013.41 189.821 1010.25 197.931 1011.24 207.509C1013.17 226.011 1028.77 232.242 1032.34 249.345C1033.89 256.745 1033.67 268.5 1022.75 285.279V288.046C1036.28 269.414 1036.85 256.783 1034.85 248.681C1030.95 232.842 1015.36 226.727 1013.09 207.878C1012.36 201.084 1013.32 194.215 1015.89 187.882L1015.82 184.986Z" fill="#76B779"/>
    <path d="M1015.82 292.088C1009.52 300.359 1009.12 306.243 1009.77 309.963C1011.78 321.512 1026.15 324.672 1027.58 336.083C1028.33 342.038 1025.19 347.305 1022.75 350.54L1022.75 351.993C1029 345.097 1029.85 339.901 1029.47 336.415C1028.21 325.102 1012.73 321.778 1010.98 309.852C1010.1 303.818 1013.13 298.335 1015.81 294.662L1015.82 292.088Z" fill="#76B779"/>
    <path d="M1015.82 354.877C1009.05 365.795 1009 373.435 1010.13 378.341C1013.12 391.204 1026.44 394.586 1028.43 407.117C1029.67 414.86 1025.9 421.893 1022.75 426.431V429.613C1031.05 419.546 1031.86 412.226 1031.16 407.486C1029.35 395.193 1016.11 391.535 1012.94 377.603C1011.09 369.49 1013.6 362.01 1015.82 357.202L1015.82 354.877Z" fill="#76B779"/>
    <path d="M1015.82 431.54C1008.4 442.61 1008.31 450.201 1009.4 454.93C1012.39 467.942 1027.27 472.146 1027.7 484.296C1027.89 489.927 1024.89 494.552 1022.75 497.237L1022.75 499.561C1026.34 495.827 1030.01 490.629 1029.76 484.592C1029.27 472.672 1013.94 468.563 1011.09 454.856C1010.08 449.965 1010.53 443.248 1015.82 434.381V431.54Z" fill="#76B779"/>
    <path d="M1015.82 501.71C1012.2 505.779 1008.04 511.875 1008.73 518.754C1009.91 530.546 1024.14 533.781 1028.14 546.46C1029.93 552.144 1030.12 561.166 1021.39 575.016L1020.97 577.285C1032.6 561.775 1032.9 552.126 1030.91 546.128C1027.02 534.456 1012.63 531.24 1011.32 519.049C1010.67 513.035 1013.52 507.801 1015.82 504.514V501.71Z" fill="#76B779"/>
    <path d="M1013.28 579.796C1009.56 584.263 1006.96 589.556 1005.71 595.232C1003.78 604.436 1007.17 608.128 1004.05 616.335C1002.26 621.337 998.873 625.614 994.418 628.509C990.52 630.91 986.009 632.127 981.432 632.014C986.042 632.394 990.662 631.406 994.713 629.173C999.559 626.322 1003.26 621.875 1005.19 616.593C1008.15 608.792 1005.06 604.977 1007.15 595.343C1008.18 590.641 1010.06 586.164 1012.68 582.125L1013.28 579.796Z" fill="#76B779"/>
    <path d="M997.001 639.983C997.064 640.333 990.231 642.707 981.801 642.934C972.39 643.188 966.73 640.613 962.47 639.688C942.876 635.435 931.042 661.361 907.498 664.948C898.802 666.273 885.711 664.976 867.933 651.561L872.47 651.556C887.78 663.167 899.182 664.259 906.393 663.447C930.198 660.764 941.56 633.571 961.584 637.474C966.077 638.35 970.601 640.712 979.883 641.164C989.645 641.638 996.936 639.623 997.001 639.983Z" fill="#76B779"/>
    <path d="M859.281 644.664C846.215 639.293 824.975 632.842 800.917 637.437C768.848 643.563 757.616 664.379 727.649 667.652C715.114 669.021 695.5 667.736 669.584 651.59L674.313 651.588C685.418 658.133 703.568 666.516 724.992 664.553C755.92 661.72 767.454 639.729 798.925 633.453C812.761 630.694 834.433 630.178 864.262 644.667L859.281 644.664Z" fill="#76B779"/>
    <path d="M664.037 644.687C651.154 638.458 640.62 637.651 632.355 638.876C610.917 642.054 603.216 659.13 583.214 660.348C572.328 661.011 562.681 656.679 555.065 651.586L558.275 651.567C563.675 654.63 572.348 658.476 582.771 657.913C602.953 656.821 610.581 640.23 630.473 636.441C638.605 634.893 651.06 635.05 668.132 644.663L664.037 644.687Z" fill="#76B779"/>
    <path d="M549.273 644.651C527.307 632.848 512.883 633.741 503.748 636.773C488.389 641.872 482.538 654.828 465.564 656.917C455.012 658.215 445.881 654.611 440.071 651.584H443.613C450.165 654.716 457.453 655.987 464.678 655.257C482.171 653.136 488.125 638.533 502.641 633.066C511.819 629.609 527.077 628.802 552.323 644.651L549.273 644.651Z" fill="#76B779"/>
    <path d="M436.493 644.699C425.159 635.342 416.761 634.257 411.147 635.039C396.579 637.07 392.128 652.885 376.026 656.068C366.737 657.905 358.204 654.622 352.47 651.582L349.186 651.586C361.832 658.828 370.85 658.786 376.542 657.618C392.27 654.389 397.166 639.573 412.18 637.991C421.167 637.044 428.928 641.349 433.652 644.656L436.493 644.699Z" fill="#76B779"/>
    <path d="M343.431 644.659C338.235 642.102 329.583 638.814 319.691 640.37C302.42 643.088 297.038 658.106 281.064 660.569C274.988 661.506 265.331 660.943 252.012 651.579L255.498 651.583C261.237 655.047 270.054 659.071 280.068 657.747C296.509 655.573 301.906 640.871 318.473 638.046C324.612 637 333.915 637.306 346.475 644.657L343.431 644.659Z" fill="#76B779"/>
    <path d="M247.944 644.659C242.921 641.619 235.444 638.27 227.644 640.094C217.346 642.502 214.939 651.951 204.641 655.533C199.415 657.351 191.182 657.998 178.634 651.591L180.69 651.591C186.805 654.03 195.311 656.168 203.756 653.264C214.324 649.631 216.651 640.901 226.316 638.323C231.472 636.947 239.267 637.176 250.6 644.659H247.944Z" fill="#76B779"/>
    <path d="M175.127 644.655C166.239 639.155 160.08 639.111 156.054 640.149C146.567 642.594 143.858 652.346 133.808 653.984C129.396 654.556 124.916 653.716 121.011 651.586L118.41 651.588C125.345 655.862 130.57 656.207 134.25 655.533C144.054 653.738 146.739 644.014 156.829 641.754C162.921 640.389 168.708 642.419 172.988 644.655H175.127Z" fill="#76B779"/>
    <path d="M113.48 644.655C100.881 635.725 91.215 634.611 84.6115 635.335C72.9818 636.61 67.4532 643.96 59.0088 641.91C50.9137 639.944 46.2258 630.817 43.6255 623.984L45.2295 625.576C47.9039 631.28 52.4117 638.401 59.5984 640.094C68.0881 642.094 73.6296 634.944 84.0212 633.269C91.1383 632.121 101.672 633.358 116.069 644.659L113.48 644.655Z" fill="#76B779"/>
    <path d="M45.3947 615.708C45.0881 611.126 43.8752 604.984 39.3443 600.729C31.9806 593.815 21.6086 597.29 17.4301 591.064C15.7766 588.6 14.7741 584.141 18.4904 575.414C18.619 576.098 18.7476 576.782 18.8762 577.465C17.2405 581.599 15.9684 586.871 18.4262 590.621C22.453 596.765 32.7686 593.143 40.1559 599.475C43.5126 602.352 46.5171 607.5 46.7931 617.26C46.3269 616.743 45.8608 616.225 45.3947 615.708Z" fill="#76B779"/>
    <path d="M24.5268 568.625C30.162 559.396 29.8583 553.748 28.4981 550.279C25.3032 542.13 14.6377 541.809 12.2285 534.009C10.5307 528.513 13.9363 522.549 17.0605 518.385L17.0599 520.986C15.0043 524.117 12.5216 529.002 13.8887 533.788C16.1854 541.828 27.2139 542.118 30.4903 549.892C32.0261 553.536 32.2451 559.742 24.7703 570.615L24.5268 568.625Z" fill="#76B779"/>
    <path d="M23.9953 513.617C27.8755 508.27 32.3656 500.169 30.8774 491.398C28.516 477.48 13.1496 473.942 9.84868 459.745C8.55174 454.166 8.79197 445.544 17.0539 433.163L17.0567 436.816C13.8065 442.419 10.3749 450.579 12.2283 459.246C15.3588 473.887 30.8827 477.417 33.3124 490.9C34.2914 496.333 33.3423 504.481 23.9962 515.83L23.9953 513.617Z" fill="#76B779"/>
    <path d="M23.988 426.901C27.3632 419.487 31.1935 407.891 28.0553 395.533C22.9748 375.526 3.68733 369.495 3.33731 353.254C3.21836 347.736 5.24812 339.291 17.0605 328.665V331.654C12.0455 336.702 6.43261 344.146 6.53759 353.096C6.7293 369.433 25.7937 375.553 30.7854 394.5C32.8484 402.331 32.9075 413.871 24.0156 430.083C24.0064 429.022 23.9972 427.962 23.988 426.901Z" fill="#76B779"/>
    <path d="M23.9905 324.704C33.2303 315.786 34.4586 308.487 34.4746 304.519C34.4839 302.232 34.1044 297.556 21.7467 278.953C12.5361 265.087 9.34731 262.567 8.90803 256.485C8.33732 248.583 12.9183 241.727 17.0604 237.043V240.621C14.4346 244.232 11.4841 249.592 11.7857 255.932C12.1126 262.803 16.0477 266.351 23.4068 276.85C32.9915 290.523 37.7838 297.36 37.7949 304.519C37.8022 309.238 35.9793 317.228 23.9907 327.001L23.9905 324.704Z" fill="#76B779"/>
    <path d="M23.983 231.693C32.8396 219.498 34.1486 209.883 33.7368 203.397C32.2586 180.113 6.81403 168.925 9.46152 148.722C10.3857 142.973 13.0399 137.642 17.0706 133.439C17.0637 134.7 17.0569 135.96 17.0501 137.22C14.3672 140.553 12.5691 144.509 11.8226 148.722C8.587 168.77 34.9489 180.476 36.9096 202.806C37.5484 210.082 35.8002 220.798 23.9847 234.682L23.983 231.693Z" fill="#76B779"/>
    <path d="M23.9916 129.261C32.5178 118.862 37.3702 105.938 37.7949 92.4977C38.0244 81.6522 35.3223 70.9457 29.9737 61.508C36.3822 70.5914 39.9282 81.3835 40.1561 92.4977C40.4759 114.728 26.8922 129.321 23.9897 132.305L23.9916 129.261Z" fill="#76B779"/>
    <path d="M245.31 299.096C247.129 304.669 247.395 309.157 247.315 312.18C247.025 323.136 241.802 329.991 242.822 340.991C243.078 343.755 243.674 346.591 243.674 346.591C244.725 350.517 246.421 352.714 247.424 357.862C249.028 366.087 248.201 378.441 235.818 395.305C248.976 378.447 250.101 366.019 248.64 357.737C247.756 352.725 246.156 350.546 245.188 346.676C245.188 346.675 244.64 343.853 244.424 341.111C244.121 337.271 249.24 322.049 249.659 312.058C249.785 309.054 249.58 304.619 247.839 299.105C247.315 299.111 246.782 299.112 246.24 299.108C245.928 299.106 245.618 299.102 245.31 299.096V299.096Z" fill="#BD632F"/>
    <path d="M265.873 297.304C265.867 300.788 266.153 306.311 267.908 312.758C272.896 331.08 284.187 336.762 289.197 347.418C294.052 357.745 293.562 375.482 268.137 407.799C295.241 374.965 296.193 357.148 291.371 346.845C286.517 336.472 275.684 330.901 270.512 312.758C268.595 306.035 268.238 300.257 268.212 296.597L265.873 297.304V297.304Z" fill="#BD632F"/>
    <path d="M214.459 294.098C219.969 318.552 214.946 333.12 208.823 342.077C201.976 352.091 191.228 358.757 188.095 373.626C186.558 380.92 187.447 387.287 188.452 391.556C187.964 387.496 187.697 381.208 189.644 374.008C193.696 359.017 204.159 352.488 210.967 342.896C217.062 334.309 222.529 320.074 217.91 295.756L214.459 294.098Z" fill="#F38F56"/>
    <path d="M223.51 297.846C223.883 303.046 224.147 310.731 223.369 320.01C221.837 338.301 220.834 350.806 212.204 361.933C205.685 370.34 200.138 371.149 196.966 379.819C194.289 387.138 195.453 394.191 196.883 399.053C195.788 394.284 195.05 387.37 197.937 380.261C201.539 371.39 207.329 370.726 214.079 362.455C222.738 351.846 223.869 339.701 225.809 320.167C226.711 311.077 226.65 303.541 226.436 298.445L223.51 297.846H223.51Z" fill="#BD632F"/>
    <path d="M274.714 294.098C274.832 297.585 275.386 303.029 277.776 309.086C284.482 326.078 297.377 326.66 303.445 339.907C310.308 354.89 304.345 376.151 291.777 385.328C282.954 391.77 271.701 391.688 271.653 391.501C271.605 391.316 282.501 391.161 290.777 384.638C302.032 375.768 307.786 355.543 301.194 340.556C295.243 327.024 281.944 326.318 275.221 308.869C273.134 303.453 272.516 298.67 272.302 295.687C272.57 295.567 272.854 295.424 273.147 295.253C273.792 294.879 274.31 294.47 274.714 294.098V294.098Z" fill="#F38F56"/>
    <path d="M257.781 298.396C260.967 307.309 261.498 314.775 261.168 320.488C260.599 330.369 257.525 333.427 259.47 339.951C261.994 348.413 268.814 349.191 272.713 356.61C275.512 361.934 276.774 370.617 269.827 385.309C277.9 370.606 277.039 361.872 274.496 356.527C271.011 349.202 264.38 348.27 261.847 339.621C259.974 333.224 262.676 330.324 263.291 320.323C263.613 315.076 263.397 307.402 260.594 297.846C260.138 297.949 259.667 298.049 259.183 298.143C258.705 298.237 258.238 298.321 257.781 298.396H257.781Z" fill="#F38F56"/>
    <path d="M212.698 395.305C223.761 388.765 227.644 382.182 229.147 377.383C232.408 366.968 225.413 361.908 228.212 348.709C230.175 339.451 234.479 338.612 237.931 328.833C240.31 322.095 241.9 312.329 238.371 299.096L241.763 299.308C245.619 313.379 243.59 323.251 241.047 329.647C237.243 339.21 232.651 339.88 230.33 349.089C227.033 362.176 234.298 367.534 230.704 377.818C229.06 382.522 224.855 389.08 212.698 395.305Z" fill="#F38F56"/>
    <path d="M248.59 299.616C248.528 299.919 248.478 300.396 248.657 300.927C249.123 302.312 250.659 302.423 251.385 303.526C252.418 305.094 250.588 306.02 251.109 308.393C251.648 310.852 253.865 311.003 253.861 313.099C253.857 314.901 252.216 315.523 252.76 316.895C253.266 318.174 255.036 318.501 254.875 319.364C254.747 320.046 253.598 320.082 253.46 320.819C253.304 321.654 254.701 322.025 254.687 322.905C254.671 323.98 252.574 324.058 252.168 325.291C251.655 326.848 254.539 328.119 253.927 329.681C253.589 330.544 252.586 330.471 252.413 331.324C252.176 332.493 253.97 333.061 253.776 334.271C253.63 335.177 252.573 335.169 252.206 336.262C251.856 337.308 252.688 337.719 252.774 339.067C252.89 340.885 251.433 341.047 251.417 342.749C251.398 344.721 253.351 345.067 253.154 347.059C253.035 348.249 252.285 348.654 252.607 349.655C252.912 350.608 253.706 350.597 254.22 351.498C255.129 353.087 253.225 354.111 253.838 355.794C254.483 357.568 256.906 357.287 257.607 359.248C258.074 360.554 257.194 361.223 257.979 362.259C258.716 363.231 259.731 362.959 260.289 363.883C260.955 364.985 259.758 365.779 260.459 366.89C261.009 367.762 261.983 367.651 262.257 368.486C262.487 369.187 261.866 369.461 261.81 370.346C261.728 371.664 263.052 371.96 263.504 373.397C263.991 374.944 262.662 375.243 262.761 377.299C262.863 379.409 264.292 379.695 263.909 381.3C263.608 382.567 262.579 382.975 262.81 384.088C262.976 384.884 263.561 384.956 263.714 385.729C263.938 386.86 262.862 387.582 262.449 388.465C261.992 389.441 262.119 391.1 264.991 394.055C264.256 392.497 264.373 391.428 264.77 390.678C265.143 389.972 265.541 389.969 265.923 389.189C266.516 387.975 265.78 387.519 266.128 385.898C266.422 384.53 267.021 384.503 267.017 383.446C267.013 382.302 266.311 382.131 266.085 380.965C265.759 379.286 267.091 378.997 267.026 377.237C266.957 375.351 265.408 375.135 265.484 373.269C265.544 371.804 266.516 371.531 266.204 370.386C265.871 369.158 264.663 369.131 264.356 367.871C264.063 366.671 265.064 366.316 264.7 365.271C264.299 364.116 262.974 364.25 262.347 362.937C261.871 361.94 262.514 361.608 262.055 360.587C261.488 359.326 260.352 359.484 259.521 358.33C258.411 356.789 259.978 355.868 259.024 353.95C258.2 352.292 256.631 352.182 256.606 350.827C256.589 349.919 257.288 349.696 257.215 348.64C257.142 347.578 256.409 347.444 256.109 346.447C255.581 344.685 257.545 344.031 257.217 342.222C256.923 340.599 255.177 340.209 255.479 339.01C255.708 338.101 256.772 338.086 257.012 337.067C257.256 336.032 256.236 335.713 256.388 334.612C256.553 333.417 257.817 333.331 258.028 332.142C258.238 330.964 257.06 330.704 257.088 329.452C257.125 327.812 259.16 327.565 259.215 326.001C259.266 324.541 257.513 324.124 257.79 322.645C257.956 321.759 258.659 321.507 258.55 320.64C258.452 319.864 257.851 319.772 257.55 319.017C257.026 317.699 258.481 317.032 258.44 315.467C258.4 313.928 256.973 313.867 256.445 312.052C255.881 310.11 257.38 309.718 257.119 307.53C256.819 305.012 254.742 304.764 254.956 302.584C255.03 301.827 255.845 300.827 255.455 299.448C255.413 299.297 255.367 299.175 255.334 299.096L248.59 299.616L248.59 299.616Z" fill="#BD632F"/>
    <path d="M229.374 299.096C229.209 299.449 229.005 300.002 228.994 300.682C228.969 302.309 230.106 303.063 230.629 304.321C231.631 306.732 229.299 307.484 229.85 310.164C230.473 313.191 233.853 314.192 233.211 316.086C232.816 317.251 231.391 317.321 231.304 318.468C231.198 319.862 233.292 320.528 232.996 321.594C232.72 322.589 230.78 322.425 230.311 323.516C229.815 324.67 231.755 325.392 231.841 327.008C231.963 329.31 228.132 329.747 227.529 332.596C227.086 334.69 228.997 335.212 228.48 337.82C228.112 339.671 227.043 339.94 227.178 341.478C227.339 343.324 228.94 343.63 228.812 345.117C228.667 346.802 226.546 347.154 226.57 348.681C226.59 349.947 228.055 350.03 228.778 351.538C230.042 354.176 226.613 356.114 227.741 358.603C228.602 360.505 231.007 360.257 231.538 362.264C231.942 363.792 230.664 364.376 231.196 365.845C231.787 367.48 233.549 367.252 234.373 368.903C235.323 370.807 233.398 371.949 234.359 373.702C235.294 375.409 237.585 375.156 237.971 376.675C238.281 377.899 236.882 378.385 237.131 379.866C237.373 381.303 238.784 381.403 239.073 382.706C239.446 384.389 237.228 384.85 236.774 387.089C236.251 389.664 238.837 390.758 237.995 393.013C237.429 394.527 236.197 394.237 235.519 395.953C234.706 398.01 236.062 399.528 234.956 400.415C234.135 401.073 232.947 400.586 232.449 401.297C231.996 401.944 232.829 402.562 232.557 403.395C232.175 404.568 230.098 404.661 228.898 405.341C227.525 406.119 226.352 408.203 227.454 414.047C227.534 413.186 227.817 411.916 228.898 410.919C230.388 409.545 231.887 410.076 233.197 408.68C234.426 407.371 233.79 406.225 235.282 405.259C236.147 404.699 236.632 404.909 237.203 404.324C238.082 403.423 237.323 402.521 237.746 401.248C238.412 399.244 240.93 399.546 241.907 397.586C242.697 395.999 241.237 395.417 241.581 392.923C241.959 390.192 243.815 390.13 243.906 387.907C244.014 385.269 241.433 384.576 241.9 382.039C242.184 380.496 243.233 380.242 243.087 378.864C242.928 377.376 241.664 377.3 240.932 375.536C240.016 373.332 241.574 372.451 240.559 370.757C239.607 369.169 237.966 369.518 237.253 367.947C236.576 366.459 237.882 365.778 237.227 364.215C236.539 362.574 234.856 362.74 234.265 361.227C233.636 359.616 235.381 359.016 235.209 356.969C234.994 354.413 232.147 353.884 232.316 351.569C232.424 350.079 233.631 349.928 233.512 348.49C233.367 346.735 231.527 346.412 231.553 344.858C231.577 343.453 233.09 343.268 233.246 341.681C233.405 340.063 232.026 339.735 232.07 338.286C232.139 335.976 235.794 335.684 236.357 333.094C236.807 331.02 234.687 330.17 235.473 328.359C236.213 326.652 238.424 326.653 238.622 325.189C238.797 323.895 237.11 323.583 237.006 321.923C236.904 320.293 238.486 319.892 238.356 318.2C238.255 316.896 237.288 316.777 236.964 315.461C236.466 313.436 238.521 312.765 238.787 310.585C239.2 307.21 234.495 304.965 235.676 303.163C236.111 302.5 237.294 302.093 237.562 300.821C237.625 300.525 237.618 300.277 237.607 300.127L229.374 299.096L229.374 299.096Z" fill="#BD632F"/>
    <path d="M210.083 294.826C209.6 293.834 208.934 292.311 208.392 290.371C205.309 279.326 210.248 269.034 212.234 264.898C214.186 260.829 217.338 254.262 224.385 249.437C231.644 244.466 238.774 244.263 243.226 244.136C253.359 243.847 260.659 247.465 262.204 248.259C264.611 249.496 269.689 252.429 274.491 258.124C277.788 262.034 283.453 268.752 283.502 278.297C283.524 282.511 282.445 285.91 281.591 288.016C282.122 288.642 283.106 289.997 283.33 291.954C283.371 292.31 283.692 295.122 282.299 296.233C281.944 296.516 281.516 296.625 281.515 296.625C280.49 296.888 279.61 296.237 279.401 296.073C279.479 296.447 279.554 297.021 279.46 297.702C279.39 298.211 279.057 299.999 277.51 300.877C276.337 301.543 275.148 301.218 274.359 301.007C273.395 300.748 272.687 300.282 272.265 299.954C271.955 300.515 271.501 301.257 270.868 302.059C270.183 302.927 269.676 303.569 268.797 304.115C268.452 304.328 267.61 304.838 266.465 304.931C265.828 304.982 265.203 304.896 263.313 304.143C262.411 303.784 261.208 303.268 259.809 302.556C259.244 303.298 258.32 304.352 256.965 305.293C255.721 306.157 254.521 306.99 252.949 307.029C251.534 307.064 250.199 306.234 247.53 304.573C246.5 303.933 245.677 303.359 245.129 302.964C244.637 303.579 243.884 304.412 242.833 305.21C241.731 306.045 240.742 306.796 239.411 306.984C237.834 307.207 236.601 306.525 234.517 305.373C233.04 304.556 231.907 303.697 231.138 303.053C230.569 303.531 229.715 304.191 228.604 304.848C227.041 305.772 226.172 306.286 224.994 306.256C223.922 306.229 223.161 305.766 222.077 305.108C221.246 304.603 220.095 303.763 218.953 302.391C218.552 302.783 217.949 303.317 217.148 303.837C216.391 304.328 216.015 304.591 215.543 304.688C213.474 305.115 211.678 303.087 211.176 302.52C210.734 302.022 209.945 301.108 209.565 299.618C208.972 297.291 209.835 295.344 210.083 294.826H210.083Z" fill="#F38F56"/>
    <path d="M248.865 249.047C248.865 249.047 248.743 248.422 248.101 247.926C245.442 245.871 232.949 249.625 232.949 249.625C232.949 249.625 221.178 255.522 220.242 259.003C220.016 259.844 220.267 260.417 220.267 260.417C220.267 260.417 220.515 260.986 221.225 261.299C222.887 262.033 227.651 256.281 233.8 254.077C234.128 253.96 234.476 253.797 234.794 253.658C240.813 251.035 247.716 252.158 248.607 250.411C248.987 249.666 248.865 249.047 248.865 249.047H248.865Z" fill="#FCE4D6"/>
    <path d="M218.813 266.305C219.733 265.153 219.854 263.638 219.083 262.922C218.312 262.205 216.941 262.559 216.021 263.711C215.1 264.864 214.979 266.378 215.75 267.095C216.521 267.811 217.892 267.458 218.813 266.305Z" fill="#FCE4D6"/>
    <path d="M269.81 259.707C269.086 259.743 268.044 260.113 267.625 261.032C266.892 262.645 268.666 264.646 268.923 264.935C269.682 265.791 271.506 267.31 272.677 266.554C273.707 265.89 273.651 263.843 273.223 262.579C272.749 261.176 271.443 259.626 269.81 259.707H269.81Z" fill="#BD632F"/>
    <path d="M269.947 268.616C269.109 269.54 269.946 271.992 270.971 272.15C271.646 272.254 272.507 271.376 272.677 270.383C272.707 270.208 272.84 269.306 272.268 268.689C271.623 267.995 270.452 268.057 269.947 268.616V268.616Z" fill="#BD632F"/>
    <path d="M274.588 267.217C274.345 267.93 274.614 268.94 275.339 269.426C275.935 269.824 276.67 269.758 277.182 269.426C278.146 268.801 278.376 267.201 277.797 266.481C277.076 265.585 275.02 265.951 274.588 267.217Z" fill="#BD632F"/>
    <path d="M273.291 273.033C272.813 273.315 272.848 274.304 272.882 275.242C272.913 276.106 272.947 277.059 273.496 278.04C273.953 278.856 275.164 280.4 276.295 280.027C277.205 279.728 277.644 278.327 277.592 277.303C277.52 275.875 276.482 274.985 275.408 274.064C274.726 273.48 273.833 272.714 273.291 273.033H273.291Z" fill="#BD632F"/>
    <path d="M278.07 271.929C277.932 272.27 277.923 272.799 278.206 273.107C278.584 273.518 279.256 273.291 279.367 273.254C280.278 272.947 280.933 271.725 280.664 271.266C280.34 270.713 278.476 270.928 278.07 271.929Z" fill="#BD632F"/>
    <path d="M279.708 277.377C279.349 278.253 279.057 278.966 278.992 279.991C278.944 280.731 278.97 282.353 279.469 282.494C279.955 282.63 280.646 281.302 281.176 280.285C281.968 278.764 282.684 277.39 282.166 276.309C281.942 275.842 281.46 275.375 281.005 275.426C280.484 275.485 280.19 276.203 279.708 277.377H279.708Z" fill="#BD632F"/>
    <path d="M275.578 282.402C274.831 282.69 274.045 283.497 274.196 284.114C274.357 284.773 275.543 285.023 276.398 284.831C277.318 284.625 278.296 283.807 278.189 283.175C278.073 282.483 276.654 281.987 275.578 282.402Z" fill="#BD632F"/>
    <path d="M267.899 256.229C267.652 256.727 267.772 257.522 268.206 257.83C268.783 258.241 269.643 257.593 269.998 257.222C270.083 257.133 270.746 256.441 270.561 256.008C270.304 255.406 268.385 255.244 267.899 256.229H267.899Z" fill="#BD632F"/>
    <path d="M266.055 258.989C266.931 258.023 265.926 255.842 265.697 255.345C265.596 255.126 264.422 252.628 263.444 252.86C262.583 253.065 262.105 255.333 262.625 257.057C262.719 257.37 263.244 259.112 264.57 259.376C264.665 259.395 265.542 259.556 266.055 258.989L266.055 258.989Z" fill="#BD632F"/>
    <path d="M263.666 261.401C263.476 261.716 263.53 262.191 263.734 262.505C264.059 263.004 264.754 263.083 265.236 262.799C265.678 262.539 265.995 261.943 265.851 261.548C265.612 260.896 264.084 260.709 263.666 261.401H263.666Z" fill="#BD632F"/>
    <path d="M276.961 288.273C276.817 288.983 277.143 289.745 277.677 290.04C278.592 290.547 280.02 289.631 280.033 288.531C280.04 287.846 279.498 287.131 278.77 286.985C277.956 286.822 277.134 287.414 276.961 288.273Z" fill="#BD632F"/>
    <path d="M270.134 275.702C269.86 276.114 269.706 276.857 270.066 277.175C270.418 277.485 271.137 277.274 271.397 276.77C271.707 276.17 271.298 275.295 270.851 275.224C270.492 275.166 270.176 275.64 270.134 275.702L270.134 275.702Z" fill="#BD632F"/>
    <path d="M274.042 287.095C273.383 286.83 272.494 287.739 272.097 288.31C271.588 289.042 271.501 289.773 271.38 290.905C271.223 292.37 271.1 293.52 271.687 293.942C272.234 294.335 273.161 293.929 273.684 293.501C274.952 292.463 274.856 290.471 274.81 289.525C274.769 288.671 274.706 287.363 274.042 287.095Z" fill="#BD632F"/>
    <path d="M212.331 275.757C211.414 276.789 210.219 278.834 210.897 279.807C211.42 280.557 212.924 280.478 213.901 279.88C215.952 278.626 216.201 274.768 215.266 274.138C214.55 273.654 213.018 274.983 212.331 275.757L212.331 275.757Z" fill="#BD632F"/>
    <path d="M211.648 270.604C210.712 271.344 210.632 273.197 211.239 273.622C211.839 274.043 213.314 273.203 213.628 272.002C213.645 271.938 213.891 270.944 213.355 270.456C212.881 270.025 212.088 270.256 211.648 270.604H211.648Z" fill="#BD632F"/>
    <path d="M209.464 283.709C209.517 285.541 209.544 286.457 209.942 287.537C210.614 289.363 212.288 291.506 213.355 291.145C214.323 290.817 214.646 288.474 214.31 286.801C214.035 285.428 213.332 284.581 212.058 283.046C211.241 282.062 210.324 280.957 209.805 281.205C209.405 281.397 209.423 282.309 209.464 283.709Z" fill="#BD632F"/>
    <path d="M215.949 282.163C215.838 282.92 215.907 284.032 216.29 284.15C216.727 284.286 217.539 283.124 217.792 281.942C217.987 281.032 217.92 279.786 217.519 279.659C217.062 279.515 216.145 280.815 215.949 282.163V282.163Z" fill="#BD632F"/>
    <path d="M212.604 294.458C212.446 295.309 212.292 297.547 213.491 298.213C214.606 298.831 216.399 297.818 216.973 296.298C217.521 294.845 216.741 293.495 216.7 293.427C216.234 292.651 215.241 291.77 214.311 292.028C213.731 292.189 213.363 292.741 213.15 293.059C213.049 293.211 212.746 293.69 212.604 294.458Z" fill="#BD632F"/>
    <path d="M216.87 288.494C216.495 288.818 215.609 289.585 215.812 290.335C215.981 290.958 216.81 291.231 217.382 291.218C218.293 291.198 219.105 290.442 219.328 289.525C219.455 289.002 219.468 288.104 218.986 287.758C218.296 287.262 217.114 288.283 216.87 288.494L216.87 288.494Z" fill="#BD632F"/>
    <path d="M218.133 298.618C218.364 298.983 218.83 299.176 219.225 299.096C219.961 298.948 220.488 297.849 220.147 297.071C219.835 296.359 218.863 296.074 218.44 296.409C218.277 296.539 218.229 296.741 218.133 297.145C217.993 297.737 217.88 298.216 218.133 298.618V298.618Z" fill="#BD632F"/>
    <path d="M807.111 186.967C808.93 192.54 809.196 197.028 809.116 200.051C808.826 211.007 803.603 217.862 804.623 228.862C804.879 231.626 805.475 234.462 805.475 234.462C806.526 238.388 808.222 240.585 809.225 245.733C810.829 253.958 810.002 266.312 797.619 283.176C810.777 266.318 811.902 253.89 810.441 245.608C809.557 240.596 807.957 238.418 806.989 234.547C806.989 234.547 806.441 231.724 806.225 228.982C805.923 225.142 811.041 209.92 811.46 199.929C811.586 196.925 811.381 192.49 809.64 186.976C809.116 186.982 808.583 186.983 808.042 186.979C807.729 186.977 807.419 186.973 807.111 186.967V186.967Z" fill="#BD632F"/>
    <path d="M827.674 185.175C827.668 188.659 827.954 194.182 829.709 200.629C834.697 218.951 845.988 224.633 850.998 235.289C855.853 245.616 855.363 263.353 829.938 295.671C857.042 262.836 857.994 245.019 853.172 234.717C848.318 224.343 837.485 218.772 832.313 200.629C830.396 193.907 830.039 188.128 830.013 184.468L827.674 185.175V185.175Z" fill="#BD632F"/>
    <path d="M776.26 181.969C781.77 206.423 776.748 220.992 770.624 229.948C763.777 239.962 753.029 246.629 749.896 261.497C748.359 268.791 749.248 275.158 750.253 279.427C749.765 275.367 749.498 269.079 751.445 261.879C755.497 246.888 765.96 240.36 772.768 230.767C778.863 222.18 784.33 207.945 779.711 183.627L776.26 181.969Z" fill="#F38F56"/>
    <path d="M785.311 185.717C785.684 190.917 785.948 198.602 785.17 207.881C783.638 226.172 782.635 238.677 774.005 249.804C767.486 258.211 761.939 259.02 758.767 267.69C756.09 275.009 757.254 282.062 758.684 286.924C757.589 282.155 756.851 275.241 759.738 268.132C763.34 259.261 769.13 258.597 775.881 250.326C784.539 239.717 785.67 227.573 787.61 208.038C788.512 198.948 788.451 191.412 788.237 186.316L785.311 185.717H785.311Z" fill="#BD632F"/>
    <path d="M836.515 181.969C836.633 185.456 837.187 190.9 839.577 196.957C846.283 213.949 859.178 214.531 865.246 227.778C872.109 242.761 866.146 264.022 853.578 273.199C844.755 279.641 833.502 279.559 833.454 279.372C833.406 279.187 844.302 279.032 852.578 272.509C863.833 263.639 869.587 243.414 862.995 228.427C857.044 214.895 843.745 214.189 837.022 196.74C834.935 191.324 834.317 186.542 834.103 183.558C834.371 183.438 834.655 183.295 834.948 183.124C835.593 182.75 836.111 182.341 836.515 181.969V181.969Z" fill="#F38F56"/>
    <path d="M819.582 186.267C822.768 195.181 823.299 202.646 822.969 208.359C822.4 218.24 819.326 221.298 821.272 227.822C823.796 236.284 830.615 237.062 834.514 244.481C837.313 249.805 838.575 258.488 831.628 273.18C839.701 258.477 838.84 249.743 836.297 244.398C832.812 237.073 826.181 236.141 823.648 227.492C821.775 221.095 824.477 218.195 825.092 208.194C825.414 202.947 825.198 195.273 822.395 185.717C821.939 185.821 821.468 185.92 820.984 186.014C820.506 186.108 820.039 186.192 819.582 186.267H819.582Z" fill="#F38F56"/>
    <path d="M774.499 283.176C785.562 276.636 789.445 270.053 790.947 265.254C794.209 254.839 787.214 249.779 790.013 236.58C791.976 227.322 796.279 226.483 799.732 216.704C802.111 209.966 803.701 200.2 800.172 186.967L803.564 187.179C807.42 201.25 805.391 211.122 802.847 217.518C799.044 227.081 794.452 227.751 792.131 236.96C788.833 250.047 796.099 255.406 792.505 265.689C790.861 270.393 786.656 276.952 774.499 283.176Z" fill="#F38F56"/>
    <path d="M810.391 187.487C810.329 187.79 810.279 188.267 810.458 188.798C810.924 190.183 812.46 190.294 813.186 191.397C814.219 192.965 812.389 193.891 812.909 196.264C813.449 198.723 815.665 198.874 815.662 200.97C815.658 202.772 814.017 203.394 814.561 204.766C815.067 206.045 816.836 206.372 816.675 207.235C816.548 207.917 815.399 207.953 815.261 208.69C815.105 209.525 816.502 209.896 816.488 210.776C816.471 211.851 814.375 211.929 813.969 213.162C813.456 214.719 816.34 215.99 815.728 217.552C815.39 218.415 814.387 218.342 814.214 219.195C813.977 220.364 815.771 220.932 815.577 222.142C815.431 223.048 814.373 223.04 814.007 224.133C813.656 225.179 814.489 225.59 814.575 226.938C814.691 228.756 813.233 228.918 813.217 230.62C813.199 232.592 815.152 232.938 814.954 234.93C814.836 236.12 814.086 236.525 814.407 237.527C814.713 238.479 815.506 238.468 816.021 239.369C816.93 240.958 815.026 241.982 815.638 243.665C816.284 245.439 818.706 245.158 819.407 247.119C819.874 248.425 818.995 249.094 819.78 250.13C820.517 251.102 821.531 250.83 822.09 251.754C822.756 252.856 821.558 253.65 822.26 254.761C822.81 255.633 823.784 255.523 824.058 256.357C824.288 257.058 823.667 257.332 823.611 258.217C823.529 259.535 824.852 259.831 825.305 261.269C825.792 262.815 824.463 263.114 824.562 265.17C824.664 267.28 826.092 267.566 825.71 269.171C825.409 270.438 824.379 270.846 824.611 271.959C824.777 272.755 825.362 272.827 825.515 273.601C825.738 274.731 824.663 275.454 824.25 276.336C823.793 277.312 823.92 278.971 826.792 281.926C826.057 280.368 826.174 279.299 826.57 278.549C826.943 277.843 827.342 277.84 827.724 277.06C828.317 275.846 827.581 275.39 827.929 273.769C828.223 272.401 828.822 272.374 828.818 271.317C828.814 270.173 828.112 270.002 827.885 268.836C827.559 267.157 828.892 266.868 828.827 265.108C828.758 263.223 827.208 263.006 827.285 261.14C827.345 259.676 828.317 259.403 828.005 258.257C827.672 257.029 826.464 257.002 826.156 255.742C825.864 254.542 826.864 254.187 826.501 253.142C826.1 251.987 824.775 252.121 824.148 250.808C823.671 249.811 824.315 249.479 823.855 248.458C823.289 247.197 822.153 247.355 821.322 246.201C820.212 244.66 821.779 243.739 820.825 241.821C820.001 240.163 818.432 240.053 818.407 238.698C818.39 237.791 819.089 237.567 819.016 236.512C818.942 235.449 818.209 235.315 817.91 234.318C817.381 232.557 819.346 231.902 819.018 230.093C818.723 228.47 816.978 228.08 817.28 226.881C817.509 225.972 818.572 225.957 818.813 224.938C819.057 223.903 818.037 223.584 818.189 222.483C818.354 221.288 819.617 221.202 819.829 220.013C820.038 218.835 818.861 218.575 818.889 217.323C818.926 215.683 820.961 215.437 821.016 213.873C821.067 212.412 819.314 211.995 819.591 210.516C819.756 209.63 820.46 209.378 820.351 208.511C820.253 207.735 819.651 207.643 819.351 206.888C818.827 205.57 820.282 204.903 820.241 203.339C820.201 201.799 818.774 201.738 818.246 199.923C817.682 197.981 819.18 197.589 818.92 195.401C818.62 192.883 816.543 192.635 816.757 190.455C816.831 189.699 817.646 188.698 817.256 187.319C817.214 187.168 817.168 187.047 817.135 186.967L810.391 187.487L810.391 187.487Z" fill="#BD632F"/>
    <path d="M791.175 186.967C791.01 187.32 790.806 187.873 790.795 188.553C790.769 190.18 791.906 190.934 792.429 192.192C793.431 194.603 791.1 195.355 791.651 198.035C792.274 201.062 795.654 202.063 795.012 203.957C794.616 205.122 793.192 205.192 793.105 206.339C792.998 207.734 795.093 208.399 794.797 209.465C794.521 210.46 792.581 210.296 792.112 211.387C791.616 212.541 793.556 213.263 793.641 214.879C793.764 217.181 789.933 217.618 789.33 220.467C788.887 222.561 790.798 223.083 790.28 225.691C789.913 227.542 788.844 227.811 788.979 229.349C789.14 231.195 790.741 231.501 790.613 232.988C790.468 234.673 788.347 235.025 788.371 236.552C788.391 237.818 789.856 237.901 790.579 239.409C791.843 242.047 788.414 243.985 789.541 246.474C790.403 248.376 792.808 248.128 793.339 250.135C793.743 251.663 792.465 252.247 792.997 253.716C793.588 255.351 795.349 255.123 796.174 256.774C797.124 258.678 795.199 259.82 796.16 261.574C797.094 263.28 799.386 263.027 799.771 264.546C800.082 265.77 798.683 266.256 798.932 267.737C799.174 269.174 800.585 269.274 800.874 270.577C801.247 272.26 799.029 272.721 798.575 274.96C798.052 277.535 800.637 278.629 799.795 280.884C799.23 282.398 797.998 282.108 797.32 283.825C796.507 285.881 797.863 287.399 796.757 288.286C795.936 288.944 794.748 288.457 794.25 289.168C793.797 289.815 794.63 290.433 794.358 291.267C793.975 292.439 791.899 292.532 790.699 293.212C789.325 293.99 788.153 296.074 789.254 301.918C789.335 301.057 789.617 299.787 790.699 298.79C792.189 297.416 793.688 297.947 794.998 296.551C796.226 295.242 795.591 294.096 797.082 293.13C797.947 292.57 798.433 292.78 799.004 292.195C799.882 291.294 799.124 290.392 799.547 289.119C800.213 287.115 802.731 287.417 803.708 285.457C804.498 283.87 803.038 283.288 803.382 280.794C803.759 278.063 805.616 278.001 805.707 275.778C805.814 273.14 803.234 272.448 803.701 269.91C803.985 268.367 805.034 268.113 804.888 266.735C804.729 265.247 803.465 265.171 802.732 263.407C801.817 261.203 803.375 260.322 802.359 258.628C801.408 257.04 799.767 257.389 799.053 255.818C798.377 254.33 799.683 253.649 799.028 252.086C798.34 250.445 796.657 250.611 796.066 249.098C795.437 247.487 797.182 246.887 797.01 244.841C796.795 242.284 793.948 241.755 794.117 239.44C794.225 237.951 795.432 237.799 795.313 236.361C795.168 234.606 793.327 234.283 793.354 232.729C793.378 231.324 794.891 231.139 795.047 229.552C795.205 227.934 793.827 227.606 793.87 226.157C793.94 223.847 797.595 223.555 798.157 220.965C798.608 218.891 796.488 218.041 797.274 216.23C798.014 214.524 800.225 214.524 800.423 213.06C800.598 211.766 798.911 211.454 798.807 209.794C798.705 208.164 800.287 207.763 800.157 206.071C800.056 204.767 799.089 204.648 798.765 203.332C798.267 201.307 800.322 200.636 800.588 198.456C801.001 195.081 796.296 192.836 797.477 191.034C797.912 190.371 799.095 189.964 799.363 188.692C799.425 188.396 799.419 188.148 799.407 187.998L791.175 186.967L791.175 186.967Z" fill="#BD632F"/>
    <path d="M771.884 182.697C771.401 181.705 770.735 180.182 770.193 178.242C767.11 167.197 772.049 156.905 774.035 152.769C775.987 148.7 779.139 142.133 786.186 137.308C793.445 132.337 800.575 132.134 805.027 132.007C815.16 131.718 822.46 135.336 824.005 136.13C826.412 137.367 831.49 140.3 836.292 145.995C839.589 149.905 845.254 156.623 845.303 166.168C845.325 170.382 844.246 173.781 843.392 175.887C843.923 176.513 844.907 177.868 845.131 179.825C845.172 180.182 845.493 182.993 844.1 184.104C843.745 184.387 843.317 184.496 843.316 184.496C842.291 184.759 841.411 184.108 841.202 183.944C841.28 184.318 841.355 184.893 841.261 185.573C841.191 186.082 840.858 187.87 839.311 188.748C838.138 189.414 836.949 189.089 836.16 188.878C835.196 188.619 834.488 188.153 834.066 187.825C833.757 188.386 833.302 189.129 832.669 189.931C831.984 190.798 831.477 191.44 830.598 191.986C830.253 192.199 829.411 192.709 828.266 192.802C827.629 192.853 827.004 192.767 825.114 192.014C824.212 191.655 823.009 191.139 821.61 190.427C821.045 191.169 820.121 192.223 818.766 193.164C817.522 194.028 816.322 194.861 814.75 194.9C813.335 194.935 812 194.105 809.331 192.444C808.301 191.804 807.478 191.23 806.93 190.835C806.438 191.45 805.685 192.283 804.634 193.081C803.532 193.916 802.544 194.667 801.212 194.855C799.635 195.078 798.402 194.396 796.318 193.244C794.841 192.427 793.708 191.568 792.939 190.924C792.37 191.402 791.516 192.062 790.405 192.719C788.842 193.643 787.973 194.157 786.795 194.127C785.724 194.1 784.962 193.637 783.878 192.979C783.047 192.474 781.896 191.634 780.754 190.262C780.353 190.654 779.75 191.188 778.949 191.708C778.192 192.199 777.816 192.462 777.344 192.56C775.275 192.986 773.479 190.958 772.977 190.391C772.536 189.893 771.746 188.979 771.366 187.489C770.773 185.162 771.636 183.215 771.884 182.697H771.884Z" fill="#F38F56"/>
    <path d="M810.666 136.918C810.666 136.918 810.544 136.293 809.902 135.797C807.243 133.742 794.75 137.496 794.75 137.496C794.75 137.496 782.979 143.393 782.043 146.874C781.817 147.715 782.067 148.288 782.068 148.288C782.068 148.288 782.316 148.858 783.025 149.17C784.688 149.904 789.451 144.152 795.601 141.948C795.929 141.831 796.277 141.668 796.595 141.529C802.614 138.906 809.517 140.029 810.408 138.283C810.788 137.537 810.666 136.918 810.666 136.918H810.666Z" fill="#FCE4D6"/>
    <path d="M780.613 154.176C781.534 153.024 781.655 151.509 780.884 150.793C780.113 150.076 778.742 150.43 777.821 151.582C776.901 152.735 776.78 154.25 777.551 154.966C778.322 155.682 779.693 155.329 780.613 154.176Z" fill="#FCE4D6"/>
    <path d="M831.611 147.578C830.887 147.614 829.845 147.984 829.426 148.904C828.693 150.516 830.467 152.517 830.724 152.806C831.483 153.662 833.307 155.181 834.478 154.425C835.508 153.761 835.452 151.714 835.024 150.45C834.55 149.048 833.244 147.497 831.611 147.578H831.611Z" fill="#BD632F"/>
    <path d="M831.748 156.487C830.91 157.411 831.747 159.863 832.772 160.021C833.447 160.125 834.308 159.247 834.478 158.254C834.508 158.079 834.641 157.177 834.069 156.56C833.424 155.866 832.253 155.928 831.748 156.487V156.487Z" fill="#BD632F"/>
    <path d="M836.39 155.088C836.147 155.801 836.415 156.811 837.141 157.297C837.736 157.695 838.471 157.629 838.984 157.297C839.947 156.672 840.177 155.072 839.598 154.352C838.877 153.456 836.821 153.822 836.39 155.088Z" fill="#BD632F"/>
    <path d="M835.093 160.904C834.614 161.186 834.649 162.175 834.683 163.113C834.714 163.977 834.748 164.93 835.297 165.911C835.754 166.727 836.965 168.271 838.096 167.899C839.006 167.599 839.445 166.198 839.393 165.174C839.321 163.746 838.283 162.856 837.209 161.935C836.528 161.351 835.634 160.585 835.093 160.904H835.093Z" fill="#BD632F"/>
    <path d="M839.871 159.8C839.733 160.141 839.724 160.67 840.007 160.978C840.385 161.389 841.057 161.162 841.168 161.125C842.079 160.818 842.734 159.596 842.465 159.137C842.141 158.584 840.277 158.799 839.871 159.8Z" fill="#BD632F"/>
    <path d="M841.51 165.248C841.15 166.124 840.858 166.837 840.793 167.862C840.746 168.602 840.771 170.225 841.271 170.365C841.756 170.501 842.447 169.173 842.977 168.156C843.77 166.635 844.485 165.261 843.967 164.18C843.743 163.713 843.262 163.246 842.807 163.297C842.286 163.356 841.991 164.074 841.51 165.248H841.51Z" fill="#BD632F"/>
    <path d="M837.379 170.273C836.632 170.561 835.846 171.368 835.997 171.985C836.158 172.644 837.343 172.894 838.198 172.702C839.118 172.496 840.097 171.679 839.99 171.046C839.874 170.354 838.455 169.858 837.379 170.273Z" fill="#BD632F"/>
    <path d="M829.7 144.1C829.453 144.598 829.573 145.393 830.007 145.701C830.584 146.112 831.444 145.464 831.799 145.093C831.884 145.004 832.547 144.312 832.362 143.879C832.105 143.277 830.186 143.115 829.7 144.1H829.7Z" fill="#BD632F"/>
    <path d="M827.856 146.86C828.732 145.894 827.727 143.713 827.498 143.216C827.397 142.997 826.223 140.499 825.245 140.731C824.384 140.936 823.906 143.204 824.426 144.928C824.52 145.241 825.045 146.983 826.371 147.247C826.466 147.266 827.343 147.427 827.856 146.86L827.856 146.86Z" fill="#BD632F"/>
    <path d="M825.467 149.272C825.277 149.587 825.331 150.062 825.535 150.376C825.86 150.875 826.555 150.955 827.037 150.671C827.479 150.411 827.796 149.814 827.652 149.419C827.413 148.767 825.885 148.58 825.467 149.272H825.467Z" fill="#BD632F"/>
    <path d="M838.762 176.144C838.619 176.854 838.945 177.616 839.479 177.911C840.394 178.418 841.822 177.502 841.834 176.402C841.841 175.717 841.299 175.002 840.571 174.856C839.758 174.693 838.935 175.285 838.762 176.144Z" fill="#BD632F"/>
    <path d="M831.935 163.573C831.661 163.985 831.507 164.729 831.867 165.046C832.22 165.356 832.938 165.145 833.198 164.641C833.508 164.041 833.099 163.166 832.652 163.095C832.293 163.037 831.977 163.511 831.935 163.573L831.935 163.573Z" fill="#BD632F"/>
    <path d="M835.844 174.966C835.184 174.701 834.295 175.61 833.898 176.181C833.39 176.913 833.303 177.644 833.181 178.776C833.024 180.241 832.901 181.391 833.488 181.813C834.035 182.206 834.962 181.8 835.485 181.372C836.753 180.334 836.657 178.342 836.611 177.396C836.57 176.542 836.507 175.234 835.844 174.966Z" fill="#BD632F"/>
    <path d="M774.132 163.628C773.215 164.66 772.02 166.705 772.698 167.678C773.221 168.428 774.725 168.349 775.702 167.751C777.754 166.497 778.002 162.639 777.067 162.009C776.351 161.525 774.82 162.854 774.132 163.628L774.132 163.628Z" fill="#BD632F"/>
    <path d="M773.449 158.475C772.512 159.215 772.433 161.068 773.039 161.493C773.64 161.914 775.115 161.074 775.429 159.874C775.446 159.809 775.691 158.815 775.156 158.327C774.681 157.896 773.889 158.127 773.449 158.475H773.449Z" fill="#BD632F"/>
    <path d="M771.264 171.58C771.318 173.412 771.344 174.328 771.742 175.408C772.415 177.234 774.089 179.377 775.156 179.016C776.124 178.688 776.447 176.345 776.111 174.672C775.836 173.3 775.132 172.452 773.858 170.917C773.042 169.933 772.124 168.828 771.606 169.077C771.205 169.268 771.224 170.18 771.264 171.58Z" fill="#BD632F"/>
    <path d="M777.75 170.034C777.639 170.791 777.708 171.903 778.091 172.021C778.528 172.157 779.34 170.995 779.593 169.813C779.788 168.903 779.721 167.657 779.32 167.53C778.863 167.386 777.946 168.686 777.75 170.034V170.034Z" fill="#BD632F"/>
    <path d="M774.405 182.329C774.247 183.18 774.092 185.418 775.292 186.084C776.407 186.702 778.2 185.689 778.774 184.169C779.322 182.716 778.542 181.366 778.501 181.298C778.035 180.522 777.041 179.641 776.111 179.899C775.532 180.06 775.163 180.612 774.951 180.93C774.849 181.082 774.547 181.561 774.405 182.329Z" fill="#BD632F"/>
    <path d="M778.672 176.365C778.297 176.689 777.41 177.456 777.613 178.206C777.782 178.829 778.612 179.102 779.184 179.089C780.095 179.07 780.907 178.313 781.129 177.396C781.256 176.873 781.269 175.975 780.788 175.629C780.097 175.133 778.915 176.154 778.672 176.365L778.672 176.365Z" fill="#BD632F"/>
    <path d="M779.934 186.489C780.165 186.854 780.631 187.047 781.026 186.967C781.762 186.819 782.289 185.72 781.948 184.943C781.636 184.23 780.664 183.945 780.241 184.28C780.078 184.41 780.03 184.612 779.934 185.016C779.794 185.608 779.681 186.087 779.934 186.489V186.489Z" fill="#BD632F"/>
    <path d="M416.394 438.968C418.213 444.541 418.478 449.029 418.398 452.052C418.109 463.008 412.885 469.863 413.905 480.864C414.162 483.627 414.758 486.463 414.758 486.463C415.809 490.389 417.504 492.586 418.508 497.734C420.111 505.959 419.284 518.313 406.901 535.177C420.06 518.319 421.185 505.891 419.723 497.609C418.839 492.597 417.24 490.419 416.272 486.548C416.272 486.548 415.724 483.725 415.508 480.983C415.205 477.143 420.323 461.921 420.742 451.931C420.869 448.926 420.664 444.491 418.922 438.978C418.398 438.983 417.865 438.984 417.324 438.98C417.011 438.978 416.701 438.974 416.394 438.968V438.968Z" fill="#BD632F"/>
    <path d="M436.956 437.176C436.95 440.66 437.236 446.183 438.991 452.63C443.979 470.952 455.27 476.634 460.28 487.29C465.135 497.618 464.645 515.354 439.22 547.672C466.325 514.837 467.276 497.021 462.455 486.718C457.6 476.344 446.767 470.773 441.595 452.63C439.679 445.908 439.322 440.129 439.296 436.469L436.956 437.176V437.176Z" fill="#BD632F"/>
    <path d="M385.543 433.97C391.053 458.424 386.03 472.993 379.906 481.949C373.06 491.964 362.311 498.63 359.179 513.498C357.642 520.792 358.53 527.159 359.536 531.429C359.048 527.368 358.781 521.08 360.727 513.88C364.78 498.889 375.242 492.361 382.051 482.768C388.146 474.181 393.613 459.946 388.994 435.628L385.543 433.97Z" fill="#F38F56"/>
    <path d="M394.594 437.719C394.966 442.918 395.23 450.603 394.453 459.882C392.92 478.173 391.917 490.678 383.288 501.805C376.769 510.212 371.221 511.021 368.05 519.691C365.373 527.011 366.536 534.063 367.966 538.925C366.872 534.156 366.134 527.242 369.02 520.133C372.622 511.262 378.413 510.599 385.163 502.327C393.821 491.718 394.953 479.574 396.892 460.039C397.795 450.95 397.733 443.413 397.52 438.317L394.594 437.719H394.594Z" fill="#BD632F"/>
    <path d="M445.797 433.97C445.916 437.457 446.47 442.902 448.86 448.958C455.566 465.95 468.46 466.532 474.528 479.779C481.392 494.762 475.428 516.024 462.861 525.2C454.037 531.642 442.785 531.56 442.736 531.373C442.688 531.189 453.585 531.033 461.861 524.51C473.115 515.64 478.87 495.415 472.278 480.428C466.326 466.896 453.027 466.19 446.304 448.741C444.217 443.326 443.599 438.543 443.385 435.559C443.653 435.439 443.937 435.296 444.231 435.126C444.875 434.751 445.393 434.342 445.797 433.97V433.97Z" fill="#F38F56"/>
    <path d="M428.865 438.269C432.051 447.182 432.581 454.647 432.252 460.36C431.682 470.241 428.608 473.3 430.554 479.823C433.078 488.285 439.897 489.064 443.797 496.482C446.596 501.806 447.858 510.489 440.911 525.181C448.984 510.478 448.123 501.744 445.579 496.399C442.094 489.075 435.463 488.142 432.931 479.493C431.058 473.096 433.76 470.196 434.374 460.195C434.696 454.948 434.48 447.274 431.678 437.719C431.221 437.822 430.75 437.921 430.267 438.016C429.789 438.109 429.321 438.193 428.865 438.269H428.865Z" fill="#F38F56"/>
    <path d="M383.782 535.177C394.844 528.638 398.727 522.055 400.23 517.256C403.492 506.84 396.496 501.78 399.295 488.581C401.259 479.323 405.562 478.484 409.015 468.705C411.394 461.967 412.984 452.201 409.455 438.968L412.847 439.181C416.703 453.251 414.674 463.123 412.13 469.519C408.327 479.082 403.734 479.752 401.414 488.961C398.116 502.048 405.382 507.407 401.788 517.69C400.143 522.394 395.939 528.953 383.782 535.177Z" fill="#F38F56"/>
    <path d="M419.674 439.488C419.612 439.791 419.562 440.268 419.74 440.799C420.207 442.185 421.742 442.295 422.469 443.398C423.501 444.967 421.671 445.892 422.192 448.265C422.732 450.725 424.948 450.875 424.944 452.971C424.941 454.774 423.3 455.395 423.843 456.767C424.35 458.046 426.119 458.373 425.958 459.236C425.831 459.918 424.681 459.954 424.544 460.691C424.388 461.526 425.785 461.897 425.771 462.777C425.754 463.852 423.658 463.93 423.252 465.163C422.739 466.72 425.623 467.991 425.011 469.553C424.672 470.416 423.669 470.343 423.497 471.196C423.26 472.365 425.054 472.933 424.859 474.143C424.713 475.049 423.656 475.041 423.29 476.135C422.939 477.18 423.772 477.591 423.858 478.939C423.974 480.757 422.516 480.919 422.5 482.621C422.482 484.593 424.435 484.94 424.237 486.931C424.119 488.121 423.369 488.526 423.69 489.528C423.996 490.48 424.789 490.47 425.304 491.37C426.213 492.959 424.308 493.983 424.921 495.667C425.566 497.44 427.989 497.159 428.69 499.121C429.157 500.426 428.277 501.095 429.063 502.131C429.8 503.103 430.814 502.831 431.372 503.755C432.039 504.857 430.841 505.651 431.543 506.763C432.093 507.634 433.067 507.524 433.341 508.358C433.571 509.059 432.949 509.334 432.894 510.218C432.812 511.536 434.135 511.832 434.588 513.27C435.075 514.816 433.745 515.115 433.845 517.171C433.946 519.281 435.375 519.567 434.993 521.172C434.691 522.439 433.662 522.847 433.894 523.96C434.06 524.756 434.645 524.828 434.798 525.602C435.021 526.732 433.946 527.455 433.533 528.337C433.076 529.313 433.202 530.972 436.075 533.928C435.339 532.37 435.456 531.3 435.853 530.55C436.226 529.844 436.625 529.841 437.006 529.061C437.599 527.847 436.863 527.391 437.212 525.77C437.505 524.402 438.105 524.375 438.101 523.318C438.096 522.174 437.394 522.003 437.168 520.838C436.842 519.158 438.175 518.869 438.11 517.109C438.04 515.224 436.491 515.007 436.568 513.141C436.628 511.677 437.599 511.404 437.288 510.258C436.954 509.03 435.747 509.003 435.439 507.743C435.146 506.543 436.147 506.188 435.784 505.143C435.382 503.989 434.057 504.122 433.43 502.809C432.954 501.812 433.597 501.48 433.138 500.459C432.571 499.198 431.435 499.357 430.605 498.203C429.495 496.661 431.062 495.74 430.108 493.822C429.283 492.164 427.714 492.054 427.689 490.699C427.672 489.792 428.371 489.568 428.298 488.513C428.225 487.45 427.492 487.316 427.193 486.319C426.664 484.558 428.629 483.903 428.3 482.094C428.006 480.471 426.26 480.081 426.563 478.882C426.792 477.973 427.855 477.958 428.095 476.94C428.339 475.904 427.32 475.585 427.472 474.484C427.637 473.29 428.9 473.204 429.112 472.014C429.321 470.836 428.144 470.576 428.172 469.324C428.209 467.684 430.244 467.438 430.298 465.874C430.35 464.413 428.597 463.996 428.874 462.517C429.039 461.631 429.743 461.379 429.633 460.512C429.535 459.736 428.934 459.644 428.634 458.889C428.11 457.572 429.565 456.904 429.524 455.34C429.484 453.8 428.056 453.739 427.529 451.924C426.964 449.982 428.463 449.591 428.202 447.402C427.902 444.884 425.826 444.636 426.039 442.457C426.113 441.7 426.929 440.699 426.539 439.32C426.496 439.169 426.45 439.048 426.418 438.968L419.674 439.488L419.674 439.488Z" fill="#BD632F"/>
    <path d="M400.458 438.968C400.293 439.321 400.089 439.874 400.078 440.554C400.052 442.181 401.189 442.935 401.712 444.194C402.714 446.604 400.383 447.356 400.934 450.036C401.556 453.064 404.937 454.065 404.294 455.958C403.899 457.123 402.475 457.193 402.387 458.34C402.281 459.735 404.375 460.4 404.08 461.466C403.803 462.461 401.864 462.297 401.395 463.388C400.899 464.542 402.838 465.264 402.924 466.881C403.046 469.182 399.216 469.619 398.613 472.468C398.17 474.563 400.081 475.084 399.563 477.692C399.196 479.543 398.127 479.812 398.261 481.35C398.423 483.196 400.024 483.502 399.896 484.989C399.751 486.675 397.63 487.026 397.654 488.553C397.673 489.82 399.139 489.902 399.862 491.411C401.125 494.048 397.697 495.986 398.824 498.475C399.686 500.377 402.09 500.129 402.621 502.136C403.026 503.664 401.748 504.248 402.279 505.717C402.87 507.352 404.632 507.124 405.456 508.775C406.407 510.679 404.482 511.821 405.443 513.575C406.377 515.281 408.668 515.029 409.054 516.547C409.365 517.771 407.965 518.257 408.215 519.738C408.456 521.175 409.868 521.275 410.157 522.578C410.529 524.261 408.312 524.722 407.857 526.962C407.335 529.537 409.92 530.631 409.078 532.886C408.513 534.399 407.281 534.11 406.602 535.826C405.79 537.882 407.145 539.4 406.04 540.287C405.218 540.946 404.031 540.458 403.533 541.169C403.079 541.816 403.912 542.434 403.641 543.268C403.258 544.441 401.182 544.533 399.982 545.213C398.608 545.991 397.436 548.075 398.537 553.919C398.617 553.058 398.9 551.788 399.982 550.791C401.471 549.417 402.971 549.948 404.281 548.553C405.509 547.243 404.874 546.097 406.365 545.131C407.23 544.571 407.716 544.782 408.286 544.197C409.165 543.296 408.407 542.393 408.83 541.12C409.496 539.116 412.014 539.418 412.99 537.458C413.781 535.871 412.32 535.289 412.665 532.795C413.042 530.064 414.899 530.003 414.99 527.779C415.097 525.141 412.516 524.449 412.984 521.912C413.268 520.368 414.317 520.114 414.17 518.736C414.012 517.248 412.748 517.172 412.015 515.408C411.1 513.204 412.658 512.323 411.642 510.629C410.691 509.041 409.05 509.39 408.336 507.819C407.66 506.331 408.966 505.651 408.311 504.087C407.623 502.447 405.94 502.613 405.348 501.099C404.719 499.488 406.465 498.888 406.293 496.842C406.078 494.285 403.231 493.756 403.399 491.441C403.508 489.952 404.714 489.8 404.596 488.362C404.451 486.607 402.61 486.284 402.637 484.73C402.66 483.325 404.174 483.14 404.329 481.553C404.488 479.935 403.11 479.607 403.153 478.159C403.222 475.848 406.878 475.556 407.44 472.966C407.891 470.892 405.771 470.042 406.556 468.232C407.297 466.525 409.507 466.525 409.705 465.062C409.881 463.767 408.194 463.455 408.09 461.795C407.987 460.165 409.57 459.764 409.439 458.072C409.339 456.768 408.371 456.649 408.048 455.333C407.549 453.308 409.604 452.637 409.871 450.457C410.283 447.082 405.579 444.837 406.76 443.036C407.195 442.372 408.378 441.965 408.646 440.693C408.708 440.397 408.702 440.149 408.69 439.999L400.458 438.968L400.458 438.968Z" fill="#BD632F"/>
    <path d="M381.167 434.698C380.683 433.706 380.017 432.183 379.476 430.243C376.393 419.198 381.332 408.907 383.317 404.77C385.27 400.702 388.421 394.134 395.468 389.309C402.728 384.338 409.857 384.135 414.309 384.008C424.443 383.719 431.743 387.337 433.287 388.131C435.694 389.368 440.773 392.302 445.575 397.997C448.872 401.907 454.536 408.624 454.586 418.17C454.608 422.383 453.528 425.782 452.674 427.888C453.205 428.514 454.19 429.869 454.413 431.826C454.454 432.183 454.776 434.994 453.382 436.105C453.027 436.388 452.599 436.497 452.599 436.497C451.573 436.76 450.694 436.109 450.485 435.945C450.562 436.319 450.637 436.894 450.543 437.574C450.473 438.083 450.14 439.871 448.593 440.749C447.42 441.415 446.232 441.09 445.443 440.879C444.479 440.62 443.77 440.154 443.348 439.826C443.039 440.387 442.585 441.13 441.952 441.932C441.267 442.799 440.759 443.441 439.88 443.987C439.536 444.2 438.693 444.71 437.549 444.803C436.911 444.855 436.286 444.768 434.396 444.015C433.494 443.656 432.291 443.14 430.893 442.429C430.327 443.17 429.403 444.224 428.048 445.165C426.805 446.029 425.605 446.862 424.032 446.901C422.617 446.937 421.283 446.106 418.614 444.446C417.584 443.805 416.76 443.231 416.213 442.836C415.721 443.451 414.967 444.284 413.916 445.082C412.815 445.918 411.826 446.668 410.494 446.856C408.917 447.079 407.684 446.397 405.601 445.245C404.124 444.428 402.99 443.569 402.221 442.926C401.653 443.403 400.798 444.063 399.687 444.72C398.125 445.644 397.256 446.158 396.078 446.128C395.006 446.101 394.245 445.639 393.16 444.98C392.329 444.475 391.179 443.635 390.036 442.263C389.635 442.655 389.033 443.19 388.231 443.709C387.474 444.2 387.099 444.463 386.627 444.561C384.557 444.987 382.762 442.959 382.259 442.392C381.818 441.894 381.028 440.98 380.648 439.491C380.055 437.163 380.918 435.216 381.167 434.698H381.167Z" fill="#F38F56"/>
    <path d="M419.949 388.919C419.949 388.919 419.826 388.295 419.184 387.798C416.525 385.743 404.033 389.497 404.033 389.497C404.033 389.497 392.262 395.394 391.326 398.875C391.1 399.716 391.35 400.289 391.35 400.289C391.35 400.29 391.599 400.859 392.308 401.172C393.97 401.905 398.734 396.154 404.884 393.95C405.211 393.832 405.559 393.669 405.878 393.531C411.897 390.907 418.8 392.03 419.69 390.284C420.071 389.538 419.949 388.919 419.949 388.919H419.949Z" fill="#FCE4D6"/>
    <path d="M389.896 406.177C390.817 405.025 390.938 403.51 390.167 402.794C389.396 402.077 388.024 402.431 387.104 403.583C386.184 404.736 386.063 406.251 386.834 406.967C387.605 407.683 388.976 407.33 389.896 406.177Z" fill="#FCE4D6"/>
    <path d="M440.893 399.579C440.169 399.615 439.127 399.985 438.709 400.905C437.975 402.517 439.75 404.518 440.006 404.807C440.766 405.663 442.589 407.182 443.761 406.427C444.791 405.762 444.734 403.715 444.307 402.451C443.833 401.049 442.527 399.498 440.893 399.579H440.893Z" fill="#BD632F"/>
    <path d="M441.03 408.488C440.193 409.413 441.03 411.864 442.054 412.022C442.73 412.126 443.59 411.248 443.761 410.255C443.791 410.08 443.923 409.178 443.351 408.562C442.707 407.867 441.536 407.93 441.03 408.488V408.488Z" fill="#BD632F"/>
    <path d="M445.672 407.089C445.429 407.802 445.697 408.812 446.423 409.298C447.018 409.696 447.754 409.63 448.266 409.298C449.229 408.673 449.459 407.073 448.88 406.353C448.16 405.457 446.104 405.823 445.672 407.089Z" fill="#BD632F"/>
    <path d="M444.375 412.905C443.896 413.188 443.932 414.176 443.965 415.114C443.996 415.979 444.03 416.931 444.58 417.912C445.037 418.728 446.247 420.272 447.379 419.9C448.288 419.6 448.727 418.199 448.676 417.176C448.603 415.747 447.566 414.857 446.491 413.936C445.81 413.352 444.916 412.586 444.375 412.905H444.375Z" fill="#BD632F"/>
    <path d="M449.153 411.801C449.015 412.142 449.007 412.671 449.29 412.979C449.668 413.39 450.34 413.164 450.45 413.126C451.361 412.819 452.016 411.598 451.747 411.138C451.423 410.585 449.56 410.8 449.153 411.801Z" fill="#BD632F"/>
    <path d="M450.792 417.249C450.433 418.125 450.14 418.838 450.075 419.863C450.028 420.604 450.053 422.226 450.553 422.366C451.038 422.502 451.73 421.175 452.26 420.157C453.052 418.636 453.768 417.262 453.249 416.182C453.025 415.714 452.544 415.247 452.089 415.298C451.568 415.357 451.273 416.075 450.792 417.249H450.792Z" fill="#BD632F"/>
    <path d="M446.662 422.274C445.914 422.562 445.129 423.369 445.279 423.986C445.441 424.645 446.626 424.896 447.481 424.704C448.401 424.497 449.38 423.68 449.273 423.047C449.156 422.355 447.737 421.859 446.662 422.274Z" fill="#BD632F"/>
    <path d="M438.982 396.101C438.736 396.599 438.856 397.394 439.289 397.702C439.867 398.113 440.727 397.465 441.081 397.095C441.166 397.006 441.83 396.313 441.644 395.88C441.387 395.278 439.468 395.116 438.982 396.101H438.982Z" fill="#BD632F"/>
    <path d="M437.139 398.862C438.014 397.895 437.009 395.714 436.78 395.217C436.679 394.999 435.506 392.5 434.528 392.732C433.666 392.937 433.189 395.205 433.708 396.929C433.803 397.242 434.328 398.984 435.654 399.248C435.749 399.267 436.626 399.428 437.139 398.862L437.139 398.862Z" fill="#BD632F"/>
    <path d="M434.75 401.273C434.559 401.588 434.613 402.063 434.818 402.377C435.143 402.876 435.837 402.956 436.32 402.672C436.761 402.412 437.079 401.815 436.934 401.42C436.695 400.768 435.167 400.581 434.75 401.273H434.75Z" fill="#BD632F"/>
    <path d="M448.044 428.146C447.901 428.856 448.227 429.617 448.761 429.913C449.676 430.419 451.104 429.503 451.116 428.403C451.123 427.718 450.582 427.003 449.853 426.857C449.04 426.694 448.218 427.286 448.044 428.146Z" fill="#BD632F"/>
    <path d="M441.218 415.574C440.943 415.986 440.79 416.73 441.149 417.047C441.502 417.357 442.22 417.146 442.481 416.642C442.791 416.042 442.381 415.167 441.934 415.096C441.575 415.038 441.259 415.512 441.218 415.574L441.218 415.574Z" fill="#BD632F"/>
    <path d="M445.126 426.968C444.466 426.702 443.577 427.611 443.18 428.182C442.672 428.914 442.585 429.645 442.463 430.778C442.307 432.242 442.183 433.392 442.771 433.815C443.317 434.208 444.244 433.801 444.767 433.373C446.035 432.335 445.939 430.343 445.894 429.397C445.853 428.544 445.79 427.235 445.126 426.968Z" fill="#BD632F"/>
    <path d="M383.414 415.629C382.497 416.661 381.303 418.706 381.981 419.679C382.504 420.429 384.007 420.35 384.984 419.752C387.036 418.498 387.284 414.64 386.35 414.01C385.633 413.527 384.102 414.856 383.414 415.629L383.414 415.629Z" fill="#BD632F"/>
    <path d="M382.732 410.476C381.795 411.216 381.716 413.069 382.322 413.494C382.923 413.915 384.398 413.075 384.711 411.875C384.728 411.81 384.974 410.816 384.438 410.329C383.964 409.897 383.172 410.128 382.732 410.476H382.732Z" fill="#BD632F"/>
    <path d="M380.547 423.581C380.6 425.413 380.627 426.33 381.025 427.409C381.698 429.236 383.372 431.378 384.438 431.017C385.406 430.689 385.73 428.346 385.394 426.673C385.119 425.301 384.415 424.453 383.141 422.918C382.324 421.934 381.407 420.829 380.888 421.078C380.488 421.27 380.506 422.182 380.547 423.581Z" fill="#BD632F"/>
    <path d="M387.032 422.035C386.922 422.793 386.99 423.904 387.374 424.023C387.811 424.158 388.623 422.996 388.876 421.814C389.07 420.905 389.004 419.658 388.602 419.532C388.146 419.388 387.229 420.687 387.032 422.035V422.035Z" fill="#BD632F"/>
    <path d="M383.687 434.33C383.529 435.181 383.375 437.419 384.575 438.085C385.69 438.703 387.483 437.69 388.056 436.171C388.605 434.717 387.824 433.367 387.783 433.299C387.318 432.523 386.324 431.642 385.394 431.9C384.814 432.061 384.446 432.613 384.234 432.931C384.132 433.083 383.83 433.563 383.687 434.33Z" fill="#BD632F"/>
    <path d="M387.954 428.366C387.579 428.69 386.692 429.457 386.896 430.207C387.065 430.83 387.894 431.103 388.466 431.091C389.377 431.071 390.189 430.314 390.411 429.397C390.538 428.874 390.552 427.976 390.07 427.63C389.379 427.134 388.198 428.156 387.954 428.366L387.954 428.366Z" fill="#BD632F"/>
    <path d="M389.217 438.49C389.447 438.855 389.914 439.048 390.309 438.968C391.045 438.82 391.571 437.721 391.231 436.944C390.918 436.232 389.947 435.946 389.524 436.281C389.36 436.411 389.312 436.613 389.217 437.017C389.077 437.61 388.963 438.089 389.217 438.49V438.49Z" fill="#BD632F"/>
</svg>
