<svg viewBox="0 0 156 156" fill="none" xmlns="http://www.w3.org/2000/svg">
<rect x="2" y="2" width="152" height="152" rx="30" fill="white" stroke="#834EA5" stroke-width="4"/>
<path d="M52.5067 35.654C49.2509 35.2902 45.9732 35.159 42.6987 35.2615C41.1524 35.3557 39.616 35.5718 38.1038 35.9078C35.5774 36.5324 33.1377 37.4659 30.84 38.687C23.5556 44.6617 18.9276 53.2672 17.9626 62.632C14.4262 76.8287 15.6933 91.7952 21.5663 105.197C24.9259 112.972 29.8899 119.951 36.134 125.679C42.378 131.407 49.7617 135.755 57.8027 138.438C65.8437 141.122 74.3611 142.082 82.7987 141.254C91.2362 140.426 99.404 137.83 106.769 133.635C114.142 129.964 120.702 124.852 126.059 118.602C131.417 112.351 135.464 105.09 137.959 97.2478C140.979 85.9996 140.608 74.1111 136.891 63.0728C135.139 55.0224 130.823 47.7554 124.59 42.3598C121.171 39.4724 117.093 37.4684 112.716 36.5238C107.059 35.8326 101.363 35.5103 95.6632 35.5591C93.8843 35.5444 92.1172 35.2694 90.4182 34.7427C88.9834 34.2125 87.5819 33.5962 86.2216 32.8971C83.8091 31.7982 81.211 31.163 78.5632 31.0247C76.2241 31.1538 73.9127 31.5928 71.6894 32.3301C67.1926 33.5079 66.7803 33.8975 64.2532 34.5208C60.4102 35.4463 56.456 35.8278 52.5067 35.654Z" fill="#C80D25"/>
<path d="M139.229 91.4987C139.531 89.7386 139.743 87.9644 139.865 86.1829L139.877 86.0152C139.989 84.3331 140.024 82.7084 139.984 81.141V80.9963C139.952 79.5514 139.847 78.1711 139.726 76.836L139.652 76.0865C139.503 74.8991 139.355 73.7118 139.174 72.606L139.006 71.6606C138.84 70.7485 138.662 69.8736 138.474 69.0572L138.274 68.1823C138.146 67.6443 138.023 67.1738 137.886 66.6862C137.54 65.4357 137.213 64.2417 136.869 63.0788C136.418 61.579 135.912 59.9916 135.316 58.3508C134.633 56.4955 134.024 55.0187 133.459 53.8432L133.098 53.0573L132.688 52.241C131.275 49.4952 129.453 46.9787 127.286 44.7768L127.212 44.7331C126.377 43.9049 125.495 43.1263 124.569 42.4013C123.14 41.2555 121.626 40.2192 120.041 39.3015L119.992 39.2719C119.483 38.9668 118.855 38.7323 118.283 38.4652C119.81 40.7935 121.504 43.009 123.35 45.0945C129.178 54.5159 131.658 65.6235 130.389 76.6253C129.588 85.3666 126.774 93.8047 122.169 101.281C117.564 108.758 111.292 115.071 103.842 119.727C90.7788 127.395 75.2908 129.831 60.5003 126.545C35.9455 121.7 23.0376 103.675 21.5835 105.218C26.2173 115.217 33.3026 123.886 42.1832 130.423C43.0243 131.017 43.8825 131.597 44.7726 132.164L45.3061 132.484C49.2129 134.935 53.3911 136.925 57.757 138.414C59.1591 138.881 60.5412 139.269 61.9277 139.629C62.3735 139.745 62.8193 139.825 63.2651 139.926C64.2214 140.159 65.1026 140.337 66.018 140.481C66.5381 140.569 67.0248 140.634 67.5546 140.719C68.3808 140.844 69.2049 140.954 69.9925 141.086L71.5328 141.228C72.3315 141.29 73.1184 141.334 73.8971 141.373C74.3897 141.395 74.8816 141.415 75.3638 141.42C76.1693 141.432 76.9643 141.42 77.7549 141.405C78.1717 141.389 78.6101 141.39 79.018 141.371C80.0048 141.326 80.9695 141.256 81.9121 141.162L82.5125 141.118C83.6723 141.012 84.7639 140.841 85.8509 140.681L86.8005 140.505C87.5509 140.373 88.294 140.236 89.0095 140.085C89.3966 140.011 89.7719 139.916 90.1478 139.835L91.9876 139.39L93.114 139.088C93.6839 138.925 94.2412 138.767 94.7821 138.597L95.8045 138.287C96.3506 138.108 96.8811 137.921 97.3916 137.746L98.2557 137.442C98.8182 137.24 99.3636 137.008 99.8726 136.818L100.444 136.601C101.136 136.326 101.775 136.049 102.376 135.785L102.859 135.569L104.072 135.01L104.518 134.797L105.268 134.426L106.081 134.024L106.775 133.639C114.487 129.6 121.367 124.143 127.054 117.556C127.463 117.078 127.871 116.599 128.267 116.088C128.368 115.919 128.556 115.736 128.664 115.591C129.247 114.843 129.779 114.065 130.293 113.341C130.555 112.906 130.878 112.496 131.136 112.102C131.731 111.197 132.314 110.271 132.87 109.308L133.131 108.872C133.718 107.896 134.222 106.861 134.727 105.803C134.875 105.524 135.007 105.236 135.123 104.942C135.589 103.925 136.037 102.888 136.456 101.81L136.618 101.393C137.128 100.052 137.584 98.6756 138.012 97.2463C138.545 95.3732 138.976 93.4726 139.303 91.5529L139.229 91.4987Z" fill="#9F122D"/>
<path d="M41.2231 43.113C38.7214 43.2161 36.3189 44.1188 34.3694 45.6882C30.0229 49.9384 26.8006 55.1998 24.9916 61.0003C23.1825 66.8008 22.8432 72.9591 24.0042 78.9229C24.0856 80.8882 24.6073 82.8102 25.5308 84.5475C26.4544 86.2848 27.7562 87.7931 29.3406 88.9614C30.8086 89.6375 32.3956 90.0177 34.0109 90.0805C35.6261 90.1433 37.2379 89.8873 38.754 89.3273C44.5645 87.1573 46.3901 81.0869 49.8935 69.4097C51.788 62.9552 52.1518 56.1487 50.956 49.5293C50.5962 48.0209 49.8168 46.6448 48.7076 45.5598C46.6196 43.8152 43.9399 42.9392 41.2231 43.113Z" fill="#D9766A"/>
<path d="M72.514 50.831C72.8221 47.5499 74.2771 44.482 76.6237 42.1653C77.8158 41.0242 79.2139 40.1194 80.7438 39.4989C82.7018 40.4207 84.321 41.9326 85.3736 43.8217C86.2199 45.4277 86.133 46.6714 86.7623 50.5393C87.1829 53.1293 87.5225 55.3074 87.7625 56.8792C88.7682 55.0798 89.5274 53.1536 90.0198 51.1523C91.0099 48.1801 91.0692 44.977 90.1899 41.9702C89.518 40.0957 88.4109 38.407 86.9592 37.0426C88.6938 36.4339 90.4865 36.0051 92.309 35.7632C95.8752 35.3852 99.4799 35.6194 102.967 36.4555C106.157 37.0447 109.292 37.8989 112.34 39.0091C111.356 38.1539 110.302 37.3823 109.189 36.7027C105.75 34.7291 101.911 33.5513 97.956 33.2563C93.9207 32.7345 89.8312 32.7962 85.8135 33.4396C86.5961 32.492 87.4669 31.6206 88.4141 30.837C90.4715 29.1742 92.8313 27.9241 95.3636 27.1554C98.0818 26.3189 100.94 26.0321 103.77 26.3116C102.748 25.8013 101.676 25.3977 100.571 25.1072C97.9457 24.4606 95.2074 24.4172 92.5624 24.9803C89.5762 25.7384 86.747 27.0155 84.2041 28.7532C82.7463 29.6029 81.5842 30.3858 80.7936 30.9328C80.8441 29.6252 80.8909 27.9413 80.9422 25.9933C81.2426 23.5347 81.1129 21.0427 80.5588 18.6285C79.894 16.8104 78.7423 15.2095 77.2293 14C77.9177 16.624 78.1613 19.3446 77.95 22.0489C77.7378 24.7531 77.067 27.4016 75.9662 29.8812C74.6292 28.2906 73.1326 26.8412 71.4998 25.5554C69.0773 23.6783 66.405 22.147 63.5598 21.0055C61.1694 19.9585 58.6847 19.1409 56.1392 18.564C59.15 20.6649 61.6748 22.2567 63.4707 23.3439C66.2824 24.7697 68.8278 26.6675 70.996 28.9543C71.8737 29.9753 72.6376 31.0885 73.2742 32.2745C69.9653 31.7837 66.5849 32.2282 63.516 33.5576C61.0691 34.6194 58.9072 36.2424 57.2058 38.2948C55.5044 40.3473 54.3115 42.7714 53.7236 45.3705C55.938 42.6223 58.6688 40.3327 61.7624 38.6307C63.4094 37.6817 65.2035 37.0143 67.0706 36.6559C68.3601 36.4518 69.6637 36.3493 70.9693 36.3494C72.3436 36.3034 73.7194 36.3399 75.0894 36.4585C73.6124 37.7136 72.476 39.3203 71.7851 41.1301C71.2446 42.7125 71.0306 44.3878 71.1558 46.055C71.2811 47.7223 71.7431 49.3469 72.514 50.831Z" fill="#5FA440"/>
</svg>