<svg viewBox="0 0 175 101" fill="none" xmlns="http://www.w3.org/2000/svg">
<path d="M161.582 49.7548C161.81 48.6707 161.924 47.5295 161.924 46.3313C161.924 37.4302 155.044 30.0697 146.288 29.442C146.516 28.0726 146.63 26.7032 146.63 25.3338C146.63 11.5828 135.486 0.399414 121.784 0.399414C110.527 0.399414 101.032 7.9311 97.9616 18.2586C95.4599 16.8322 92.6172 15.9763 89.547 15.9763C80.2228 15.9763 72.661 23.565 72.661 32.9226C72.661 33.8355 72.7179 34.7484 72.8885 35.6614C72.4905 35.6043 72.0356 35.6043 71.6376 35.6043C63.9054 35.6043 57.367 40.8537 55.3771 47.986C43.6081 48.2142 34.1133 57.9141 34.1133 69.7822C34.1133 81.8215 43.8355 91.6355 55.8888 91.6355C56.5142 91.6355 57.1965 91.5784 57.8219 91.5214H150.894C151.576 91.5784 152.258 91.6355 152.997 91.6355C164.994 91.6355 174.773 81.8785 174.773 69.7822C174.773 60.824 169.372 53.0641 161.582 49.7548Z" fill="#33722D"/>
<path d="M161.696 49.7547C161.923 48.6706 162.037 47.5295 162.037 46.3312C162.037 37.4302 155.157 30.0697 146.402 29.442C146.345 29.442 146.288 29.4991 146.231 29.4991C147.425 30.5832 150.893 34.1208 151.86 39.7696C153.167 47.7006 148.448 53.5206 147.709 54.3765C149.415 55.1182 152.883 56.887 154.702 60.6529C157.545 66.4728 154.248 72.8063 152.826 75.6021C145.947 88.8967 128.208 91.179 125.365 91.5213C133.95 91.5213 140.034 91.5784 143.388 91.5213C144.582 91.5213 147.766 91.4643 152.03 91.5784C152.713 91.5784 152.997 91.5784 153.054 91.5784C165.05 91.5784 174.829 81.8215 174.829 69.7251C174.886 60.824 169.428 53.0641 161.696 49.7547Z" fill="#326437"/>
<path d="M92.6736 58.4276C91.6502 58.4276 90.6837 58.4846 89.7171 58.6558C88.4663 51.1241 81.9848 45.3612 74.082 45.3612C71.2961 45.3612 68.6808 46.103 66.4066 47.3583C66.0086 36.1749 56.8549 27.2738 45.5976 27.2738C34.1128 27.2738 24.7886 36.6313 24.7886 48.1571C24.7886 50.2683 25.0729 52.2653 25.6983 54.2053C24.8455 54.0912 23.9358 54.0341 23.0261 54.0341C10.3474 54.0341 0.0566406 64.3616 0.0566406 77.0856C0.0566406 89.8096 10.3474 100.137 23.0261 100.137H23.083H91.7639C92.0482 100.137 92.3325 100.137 92.6167 100.137C104.101 100.137 113.426 90.7796 113.426 79.2538C113.483 67.7281 104.158 58.4276 92.6736 58.4276Z" fill="#326437"/>
<path d="M92.6167 58.3705C91.8775 58.3705 91.1384 58.4276 91.1384 58.4276C90.6267 58.4846 90.1719 58.5417 89.6602 58.5988C88.4094 51.0671 81.9279 45.3042 74.025 45.3042C71.2391 45.3042 68.6238 46.046 66.3496 47.3012C68.169 47.4154 74.3093 47.9289 79.7674 52.7788C85.1686 57.5147 86.59 63.3917 86.9312 65.2175C88.0683 65.8452 93.2989 68.9834 95.0046 75.3739C96.4828 80.8515 94.436 85.3591 93.5832 87.1849C89.0348 97.2272 77.6638 99.7948 75.9581 100.137C79.3126 100.194 82.3827 100.194 85.3961 100.251C85.3961 100.251 86.4763 100.251 92.503 100.194C92.8441 100.194 93.4695 100.194 94.2655 100.137C94.2655 100.137 96.1985 99.966 97.9042 99.5095C101.543 98.5966 104.784 96.2001 104.784 96.2001C106.546 94.8878 110.469 91.6355 112.345 86.0438C112.573 85.3591 113.369 82.7914 113.369 79.2538C113.369 76.458 112.857 74.3468 112.687 73.7192C110.924 67.1004 106.262 63.3916 105.352 62.707C104.727 62.1934 102.794 60.824 99.951 59.7399C100.008 59.7399 96.3691 58.3705 92.6167 58.3705Z" fill="#27522C"/>
<path d="M16.7152 70.3528C17.9084 70.3528 18.8757 69.382 18.8757 68.1846C18.8757 66.9871 17.9084 66.0164 16.7152 66.0164C15.522 66.0164 14.5547 66.9871 14.5547 68.1846C14.5547 69.382 15.522 70.3528 16.7152 70.3528Z" fill="white"/>
<path d="M19.7855 68.0704C20.9787 68.0704 21.946 67.0997 21.946 65.9022C21.946 64.7048 20.9787 63.734 19.7855 63.734C18.5923 63.734 17.625 64.7048 17.625 65.9022C17.625 67.0997 18.5923 68.0704 19.7855 68.0704Z" fill="white"/>
<path d="M22.6283 70.5239C23.8215 70.5239 24.7888 69.5532 24.7888 68.3557C24.7888 67.1582 23.8215 66.1875 22.6283 66.1875C21.4351 66.1875 20.4678 67.1582 20.4678 68.3557C20.4678 69.5532 21.4351 70.5239 22.6283 70.5239Z" fill="white"/>
<path d="M21.5477 73.6621C22.7409 73.6621 23.7082 72.6914 23.7082 71.4939C23.7082 70.2965 22.7409 69.3257 21.5477 69.3257C20.3545 69.3257 19.3872 70.2965 19.3872 71.4939C19.3872 72.6914 20.3545 73.6621 21.5477 73.6621Z" fill="white"/>
<path d="M17.7953 73.6621C18.9885 73.6621 19.9558 72.6914 19.9558 71.4939C19.9558 70.2965 18.9885 69.3257 17.7953 69.3257C16.6021 69.3257 15.6348 70.2965 15.6348 71.4939C15.6348 72.6914 16.6021 73.6621 17.7953 73.6621Z" fill="white"/>
<path d="M19.7284 71.2087C20.8588 71.2087 21.7752 70.289 21.7752 69.1546C21.7752 68.0201 20.8588 67.1005 19.7284 67.1005C18.598 67.1005 17.6816 68.0201 17.6816 69.1546C17.6816 70.289 18.598 71.2087 19.7284 71.2087Z" fill="#DDAE00"/>
<path d="M40.1966 45.076C41.3898 45.076 42.3571 44.1052 42.3571 42.9077C42.3571 41.7103 41.3898 40.7395 40.1966 40.7395C39.0034 40.7395 38.0361 41.7103 38.0361 42.9077C38.0361 44.1052 39.0034 45.076 40.1966 45.076Z" fill="white"/>
<path d="M43.2669 42.7936C44.4601 42.7936 45.4274 41.8229 45.4274 40.6254C45.4274 39.428 44.4601 38.4572 43.2669 38.4572C42.0737 38.4572 41.1064 39.428 41.1064 40.6254C41.1064 41.8229 42.0737 42.7936 43.2669 42.7936Z" fill="white"/>
<path d="M46.1097 45.2471C47.3029 45.2471 48.2702 44.2764 48.2702 43.0789C48.2702 41.8814 47.3029 40.9107 46.1097 40.9107C44.9165 40.9107 43.9492 41.8814 43.9492 43.0789C43.9492 44.2764 44.9165 45.2471 46.1097 45.2471Z" fill="white"/>
<path d="M45.0291 48.3853C46.2223 48.3853 47.1896 47.4146 47.1896 46.2171C47.1896 45.0197 46.2223 44.0489 45.0291 44.0489C43.8359 44.0489 42.8687 45.0197 42.8687 46.2171C42.8687 47.4146 43.8359 48.3853 45.0291 48.3853Z" fill="white"/>
<path d="M41.2767 48.3853C42.4699 48.3853 43.4372 47.4146 43.4372 46.2171C43.4372 45.0197 42.4699 44.0489 41.2767 44.0489C40.0835 44.0489 39.1162 45.0197 39.1162 46.2171C39.1162 47.4146 40.0835 48.3853 41.2767 48.3853Z" fill="white"/>
<path d="M43.2099 45.9318C44.3403 45.9318 45.2567 45.0122 45.2567 43.8777C45.2567 42.7433 44.3403 41.8236 43.2099 41.8236C42.0795 41.8236 41.1631 42.7433 41.1631 43.8777C41.1631 45.0122 42.0795 45.9318 43.2099 45.9318Z" fill="#DDAE00"/>
<path d="M36.7284 90.0378C37.9216 90.0378 38.8889 89.0671 38.8889 87.8696C38.8889 86.6722 37.9216 85.7014 36.7284 85.7014C35.5352 85.7014 34.5679 86.6722 34.5679 87.8696C34.5679 89.0671 35.5352 90.0378 36.7284 90.0378Z" fill="white"/>
<path d="M39.8553 87.7555C41.0485 87.7555 42.0158 86.7848 42.0158 85.5873C42.0158 84.3898 41.0485 83.4191 39.8553 83.4191C38.6621 83.4191 37.6948 84.3898 37.6948 85.5873C37.6948 86.7848 38.6621 87.7555 39.8553 87.7555Z" fill="white"/>
<path d="M42.6981 90.209C43.8913 90.209 44.8586 89.2383 44.8586 88.0408C44.8586 86.8433 43.8913 85.8726 42.6981 85.8726C41.5049 85.8726 40.5376 86.8433 40.5376 88.0408C40.5376 89.2383 41.5049 90.209 42.6981 90.209Z" fill="white"/>
<path d="M41.5609 93.3472C42.7541 93.3472 43.7214 92.3765 43.7214 91.179C43.7214 89.9815 42.7541 89.0108 41.5609 89.0108C40.3677 89.0108 39.4004 89.9815 39.4004 91.179C39.4004 92.3765 40.3677 93.3472 41.5609 93.3472Z" fill="white"/>
<path d="M37.8084 93.3472C39.0016 93.3472 39.9689 92.3765 39.9689 91.179C39.9689 89.9815 39.0016 89.0108 37.8084 89.0108C36.6152 89.0108 35.6479 89.9815 35.6479 91.179C35.6479 92.3765 36.6152 93.3472 37.8084 93.3472Z" fill="white"/>
<path d="M39.7987 90.8937C40.9291 90.8937 41.8455 89.9741 41.8455 88.8396C41.8455 87.7052 40.9291 86.7855 39.7987 86.7855C38.6683 86.7855 37.752 87.7052 37.752 88.8396C37.752 89.9741 38.6683 90.8937 39.7987 90.8937Z" fill="#DDAE00"/>
<path d="M45.0291 68.2987C46.2223 68.2987 47.1896 67.3279 47.1896 66.1305C47.1896 64.933 46.2223 63.9622 45.0291 63.9622C43.8359 63.9622 42.8687 64.933 42.8687 66.1305C42.8687 67.3279 43.8359 68.2987 45.0291 68.2987Z" fill="white"/>
<path d="M48.0995 66.0734C49.2927 66.0734 50.2599 65.1027 50.2599 63.9052C50.2599 62.7077 49.2927 61.737 48.0995 61.737C46.9062 61.737 45.939 62.7077 45.939 63.9052C45.939 65.1027 46.9062 66.0734 48.0995 66.0734Z" fill="white"/>
<path d="M50.9422 68.5269C52.1354 68.5269 53.1027 67.5561 53.1027 66.3587C53.1027 65.1612 52.1354 64.1905 50.9422 64.1905C49.749 64.1905 48.7817 65.1612 48.7817 66.3587C48.7817 67.5561 49.749 68.5269 50.9422 68.5269Z" fill="white"/>
<path d="M49.8617 71.6651C51.0549 71.6651 52.0222 70.6944 52.0222 69.4969C52.0222 68.2994 51.0549 67.3287 49.8617 67.3287C48.6685 67.3287 47.7012 68.2994 47.7012 69.4969C47.7012 70.6944 48.6685 71.6651 49.8617 71.6651Z" fill="white"/>
<path d="M46.1092 71.6651C47.3024 71.6651 48.2697 70.6944 48.2697 69.4969C48.2697 68.2994 47.3024 67.3287 46.1092 67.3287C44.916 67.3287 43.9487 68.2994 43.9487 69.4969C43.9487 70.6944 44.916 71.6651 46.1092 71.6651Z" fill="white"/>
<path d="M48.0424 69.2116C49.1728 69.2116 50.0892 68.2919 50.0892 67.1575C50.0892 66.023 49.1728 65.1034 48.0424 65.1034C46.912 65.1034 45.9956 66.023 45.9956 67.1575C45.9956 68.2919 46.912 69.2116 48.0424 69.2116Z" fill="#DDAE00"/>
<path d="M72.3763 80.6803C73.5695 80.6803 74.5368 79.7096 74.5368 78.5121C74.5368 77.3146 73.5695 76.3439 72.3763 76.3439C71.1831 76.3439 70.2158 77.3146 70.2158 78.5121C70.2158 79.7096 71.1831 80.6803 72.3763 80.6803Z" fill="white"/>
<path d="M75.5033 78.455C76.6965 78.455 77.6638 77.4843 77.6638 76.2868C77.6638 75.0893 76.6965 74.1186 75.5033 74.1186C74.3101 74.1186 73.3428 75.0893 73.3428 76.2868C73.3428 77.4843 74.3101 78.455 75.5033 78.455Z" fill="white"/>
<path d="M78.346 80.8515C79.5393 80.8515 80.5065 79.8807 80.5065 78.6832C80.5065 77.4858 79.5393 76.515 78.346 76.515C77.1528 76.515 76.1855 77.4858 76.1855 78.6832C76.1855 79.8807 77.1528 80.8515 78.346 80.8515Z" fill="white"/>
<path d="M77.2088 83.9897C78.402 83.9897 79.3693 83.0189 79.3693 81.8214C79.3693 80.624 78.402 79.6532 77.2088 79.6532C76.0156 79.6532 75.0483 80.624 75.0483 81.8214C75.0483 83.0189 76.0156 83.9897 77.2088 83.9897Z" fill="white"/>
<path d="M73.4564 83.9897C74.6496 83.9897 75.6169 83.0189 75.6169 81.8214C75.6169 80.624 74.6496 79.6532 73.4564 79.6532C72.2632 79.6532 71.2959 80.624 71.2959 81.8214C71.2959 83.0189 72.2632 83.9897 73.4564 83.9897Z" fill="white"/>
<path d="M75.3896 81.5362C76.52 81.5362 77.4363 80.6165 77.4363 79.4821C77.4363 78.3476 76.52 77.428 75.3896 77.428C74.2592 77.428 73.3428 78.3476 73.3428 79.4821C73.3428 80.6165 74.2592 81.5362 75.3896 81.5362Z" fill="#DDAE00"/>
<path d="M118.145 16.5469C119.338 16.5469 120.305 15.5761 120.305 14.3787C120.305 13.1812 119.338 12.2104 118.145 12.2104C116.952 12.2104 115.984 13.1812 115.984 14.3787C115.984 15.5761 116.952 16.5469 118.145 16.5469Z" fill="white"/>
<path d="M121.272 14.3216C122.465 14.3216 123.432 13.3509 123.432 12.1534C123.432 10.9559 122.465 9.98517 121.272 9.98517C120.079 9.98517 119.111 10.9559 119.111 12.1534C119.111 13.3509 120.079 14.3216 121.272 14.3216Z" fill="white"/>
<path d="M124.115 16.7751C125.308 16.7751 126.275 15.8043 126.275 14.6069C126.275 13.4094 125.308 12.4387 124.115 12.4387C122.921 12.4387 121.954 13.4094 121.954 14.6069C121.954 15.8043 122.921 16.7751 124.115 16.7751Z" fill="white"/>
<path d="M122.977 19.9133C124.171 19.9133 125.138 18.9426 125.138 17.7451C125.138 16.5476 124.171 15.5769 122.977 15.5769C121.784 15.5769 120.817 16.5476 120.817 17.7451C120.817 18.9426 121.784 19.9133 122.977 19.9133Z" fill="white"/>
<path d="M119.225 19.9133C120.418 19.9133 121.385 18.9426 121.385 17.7451C121.385 16.5476 120.418 15.5769 119.225 15.5769C118.032 15.5769 117.064 16.5476 117.064 17.7451C117.064 18.9426 118.032 19.9133 119.225 19.9133Z" fill="white"/>
<path d="M121.158 17.4598C122.289 17.4598 123.205 16.5401 123.205 15.4057C123.205 14.2712 122.289 13.3516 121.158 13.3516C120.028 13.3516 119.111 14.2712 119.111 15.4057C119.111 16.5401 120.028 17.4598 121.158 17.4598Z" fill="#DDAE00"/>
<path d="M92.3895 40.3401C93.5827 40.3401 94.55 39.3694 94.55 38.1719C94.55 36.9745 93.5827 36.0037 92.3895 36.0037C91.1963 36.0037 90.229 36.9745 90.229 38.1719C90.229 39.3694 91.1963 40.3401 92.3895 40.3401Z" fill="white"/>
<path d="M95.4598 38.1149C96.653 38.1149 97.6203 37.1441 97.6203 35.9467C97.6203 34.7492 96.653 33.7784 95.4598 33.7784C94.2666 33.7784 93.2993 34.7492 93.2993 35.9467C93.2993 37.1441 94.2666 38.1149 95.4598 38.1149Z" fill="white"/>
<path d="M98.3026 40.5684C99.4958 40.5684 100.463 39.5976 100.463 38.4001C100.463 37.2027 99.4958 36.2319 98.3026 36.2319C97.1094 36.2319 96.1421 37.2027 96.1421 38.4001C96.1421 39.5976 97.1094 40.5684 98.3026 40.5684Z" fill="white"/>
<path d="M97.222 43.7066C98.4152 43.7066 99.3825 42.7358 99.3825 41.5384C99.3825 40.3409 98.4152 39.3701 97.222 39.3701C96.0288 39.3701 95.0615 40.3409 95.0615 41.5384C95.0615 42.7358 96.0288 43.7066 97.222 43.7066Z" fill="white"/>
<path d="M93.4696 43.7066C94.6628 43.7066 95.6301 42.7358 95.6301 41.5384C95.6301 40.3409 94.6628 39.3701 93.4696 39.3701C92.2764 39.3701 91.3091 40.3409 91.3091 41.5384C91.3091 42.7358 92.2764 43.7066 93.4696 43.7066Z" fill="white"/>
<path d="M95.4027 41.2531C96.5331 41.2531 97.4495 40.3334 97.4495 39.199C97.4495 38.0645 96.5331 37.1449 95.4027 37.1449C94.2723 37.1449 93.356 38.0645 93.356 39.199C93.356 40.3334 94.2723 41.2531 95.4027 41.2531Z" fill="#DDAE00"/>
<path d="M119.908 52.1512C121.101 52.1512 122.068 51.1805 122.068 49.983C122.068 48.7855 121.101 47.8148 119.908 47.8148C118.714 47.8148 117.747 48.7855 117.747 49.983C117.747 51.1805 118.714 52.1512 119.908 52.1512Z" fill="white"/>
<path d="M123.035 49.9259C124.228 49.9259 125.195 48.9552 125.195 47.7577C125.195 46.5602 124.228 45.5895 123.035 45.5895C121.841 45.5895 120.874 46.5602 120.874 47.7577C120.874 48.9552 121.841 49.9259 123.035 49.9259Z" fill="white"/>
<path d="M125.877 52.3794C127.07 52.3794 128.038 51.4087 128.038 50.2112C128.038 49.0137 127.07 48.043 125.877 48.043C124.684 48.043 123.717 49.0137 123.717 50.2112C123.717 51.4087 124.684 52.3794 125.877 52.3794Z" fill="white"/>
<path d="M124.74 55.5176C125.933 55.5176 126.901 54.5469 126.901 53.3494C126.901 52.152 125.933 51.1812 124.74 51.1812C123.547 51.1812 122.58 52.152 122.58 53.3494C122.58 54.5469 123.547 55.5176 124.74 55.5176Z" fill="white"/>
<path d="M120.988 55.5176C122.181 55.5176 123.148 54.5469 123.148 53.3494C123.148 52.152 122.181 51.1812 120.988 51.1812C119.794 51.1812 118.827 52.152 118.827 53.3494C118.827 54.5469 119.794 55.5176 120.988 55.5176Z" fill="white"/>
<path d="M122.921 53.0641C124.051 53.0641 124.968 52.1445 124.968 51.01C124.968 49.8756 124.051 48.9559 122.921 48.9559C121.79 48.9559 120.874 49.8756 120.874 51.01C120.874 52.1445 121.79 53.0641 122.921 53.0641Z" fill="#DDAE00"/>
<path d="M123.546 76.0015C124.739 76.0015 125.707 75.0308 125.707 73.8333C125.707 72.6358 124.739 71.6651 123.546 71.6651C122.353 71.6651 121.386 72.6358 121.386 73.8333C121.386 75.0308 122.353 76.0015 123.546 76.0015Z" fill="white"/>
<path d="M126.617 73.7762C127.81 73.7762 128.777 72.8055 128.777 71.608C128.777 70.4106 127.81 69.4398 126.617 69.4398C125.423 69.4398 124.456 70.4106 124.456 71.608C124.456 72.8055 125.423 73.7762 126.617 73.7762Z" fill="white"/>
<path d="M129.459 76.1727C130.653 76.1727 131.62 75.2019 131.62 74.0045C131.62 72.807 130.653 71.8362 129.459 71.8362C128.266 71.8362 127.299 72.807 127.299 74.0045C127.299 75.2019 128.266 76.1727 129.459 76.1727Z" fill="white"/>
<path d="M128.379 79.3109C129.572 79.3109 130.539 78.3401 130.539 77.1427C130.539 75.9452 129.572 74.9745 128.379 74.9745C127.186 74.9745 126.218 75.9452 126.218 77.1427C126.218 78.3401 127.186 79.3109 128.379 79.3109Z" fill="white"/>
<path d="M124.57 79.3109C125.763 79.3109 126.73 78.3401 126.73 77.1427C126.73 75.9452 125.763 74.9745 124.57 74.9745C123.376 74.9745 122.409 75.9452 122.409 77.1427C122.409 78.3401 123.376 79.3109 124.57 79.3109Z" fill="white"/>
<path d="M126.559 76.8574C127.69 76.8574 128.606 75.9377 128.606 74.8033C128.606 73.6688 127.69 72.7492 126.559 72.7492C125.429 72.7492 124.513 73.6688 124.513 74.8033C124.513 75.9377 125.429 76.8574 126.559 76.8574Z" fill="#DDAE00"/>
<path d="M132.927 33.3791C134.12 33.3791 135.088 32.4083 135.088 31.2108C135.088 30.0134 134.12 29.0426 132.927 29.0426C131.734 29.0426 130.767 30.0134 130.767 31.2108C130.767 32.4083 131.734 33.3791 132.927 33.3791Z" fill="white"/>
<path d="M136.054 31.1538C137.247 31.1538 138.215 30.183 138.215 28.9856C138.215 27.7881 137.247 26.8174 136.054 26.8174C134.861 26.8174 133.894 27.7881 133.894 28.9856C133.894 30.183 134.861 31.1538 136.054 31.1538Z" fill="white"/>
<path d="M138.897 33.6073C140.09 33.6073 141.057 32.6365 141.057 31.4391C141.057 30.2416 140.09 29.2708 138.897 29.2708C137.704 29.2708 136.736 30.2416 136.736 31.4391C136.736 32.6365 137.704 33.6073 138.897 33.6073Z" fill="white"/>
<path d="M137.76 36.7455C138.953 36.7455 139.92 35.7747 139.92 34.5773C139.92 33.3798 138.953 32.4091 137.76 32.4091C136.566 32.4091 135.599 33.3798 135.599 34.5773C135.599 35.7747 136.566 36.7455 137.76 36.7455Z" fill="white"/>
<path d="M134.007 36.7455C135.2 36.7455 136.168 35.7747 136.168 34.5773C136.168 33.3798 135.2 32.4091 134.007 32.4091C132.814 32.4091 131.847 33.3798 131.847 34.5773C131.847 35.7747 132.814 36.7455 134.007 36.7455Z" fill="white"/>
<path d="M135.94 34.292C137.071 34.292 137.987 33.3723 137.987 32.2379C137.987 31.1034 137.071 30.1838 135.94 30.1838C134.81 30.1838 133.894 31.1034 133.894 32.2379C133.894 33.3723 134.81 34.292 135.94 34.292Z" fill="#DDAE00"/>
</svg>
