<svg viewBox="0 0 93 134" fill="none" xmlns="http://www.w3.org/2000/svg">
<path d="M93 28.3467C93 19.1264 85.3685 11.6387 75.8831 11.6387C72.5674 11.6359 69.3197 12.5804 66.5213 14.3615C63.617 6.28593 55.7073 0.5 46.4382 0.5C37.1691 0.5 29.3213 6.25499 26.3861 14.2996C23.6066 12.56 20.3947 11.6379 17.117 11.6387C7.66247 11.6387 1.417e-05 19.0954 1.417e-05 28.3467C-0.00335249 30.904 0.593241 33.4263 1.74171 35.7104C2.89019 37.9945 4.55842 39.9765 6.61197 41.4966C10.6595 45.8283 26.9422 49.0771 46.4382 49.0771C65.1618 49.0771 80.9193 46.0758 85.7392 41.9916C87.9706 40.4844 89.7991 38.4525 91.0649 36.0738C92.3306 33.6951 92.995 31.0421 93 28.3467Z" fill="#7BBAE4"/>
<path d="M27.7995 61.9794C27.7272 61.2491 27.4925 60.5442 27.1127 59.9166C26.2942 58.4667 25.3154 56.5261 24.0468 53.7761V53.7779C22.7784 56.5279 21.7993 58.4685 20.9809 59.9184C20.601 60.5455 20.3661 61.2496 20.2934 61.9794C20.1623 63.0213 20.4413 64.0734 21.0714 64.9129C21.4142 65.313 21.834 65.6398 22.3058 65.8737C22.7776 66.1077 23.2916 66.2439 23.8172 66.2743C23.8883 66.2805 23.9655 66.2842 24.0483 66.2842C24.1311 66.2842 24.2053 66.2805 24.2754 66.2743C24.8014 66.2458 25.3161 66.1104 25.7881 65.8764C26.2602 65.6423 26.6797 65.3145 27.0212 64.9129C27.6513 64.0734 27.9305 63.0213 27.7995 61.9794Z" fill="#208ABD"/>
<path d="M83.2337 57.2823C83.1616 56.552 82.927 55.8471 82.5472 55.2195C81.7287 53.7696 80.7496 51.829 79.4813 49.0789V49.0771C78.2127 51.8271 77.2338 53.7677 76.4154 55.2176C76.0357 55.8452 75.8011 56.5499 75.7288 57.2801C75.5968 58.3226 75.8756 59.3756 76.5059 60.2158C76.8487 60.6159 77.2685 60.9427 77.7403 61.1766C78.2121 61.4105 78.7262 61.5468 79.2517 61.5772C79.3228 61.583 79.4 61.5868 79.4825 61.5868C79.565 61.5868 79.6398 61.583 79.7099 61.5772C80.2359 61.5486 80.7505 61.4131 81.2226 61.1791C81.6946 60.945 82.1142 60.6173 82.4557 60.2158C83.0858 59.3763 83.3648 58.3242 83.2337 57.2823Z" fill="#208ABD"/>
<path d="M55.5901 90.0328C55.5179 89.3024 55.2834 88.5975 54.9039 87.9697C54.0851 86.5198 53.1063 84.5792 51.8376 81.8292C50.569 84.5792 49.5902 86.5198 48.7714 87.9697C48.3917 88.5972 48.1571 89.302 48.0849 90.0322C47.9538 91.0742 48.2329 92.1265 48.8632 92.966C49.2059 93.3662 49.6257 93.693 50.0975 93.9269C50.5693 94.1609 51.0834 94.297 51.609 94.3274C51.6801 94.3333 51.7573 94.337 51.8398 94.337C51.9223 94.337 51.9971 94.3333 52.0669 94.3274C52.5929 94.2988 53.1075 94.1634 53.5796 93.9294C54.0516 93.6953 54.4712 93.3675 54.8127 92.966C55.4425 92.1265 55.7213 91.0745 55.5901 90.0328Z" fill="#208ABD"/>
<path d="M44.8139 58.074C44.7678 57.6072 44.6178 57.1566 44.3749 56.7553C43.8518 55.8271 43.2258 54.5895 42.4151 52.8302C41.6044 54.5883 40.9784 55.8287 40.4553 56.7553C40.2124 57.1566 40.0624 57.6072 40.0163 58.074C39.9327 58.7401 40.111 59.4126 40.5137 59.9494C40.7327 60.2053 41.0011 60.4143 41.3027 60.564C41.6043 60.7136 41.9329 60.8008 42.269 60.8204C42.3144 60.8241 42.3638 60.8265 42.4166 60.8265C42.4695 60.8265 42.5171 60.8241 42.5619 60.8204C42.8981 60.8019 43.2271 60.7152 43.5289 60.5655C43.8306 60.4158 44.0988 60.2061 44.3171 59.9494C44.7195 59.4126 44.8977 58.74 44.8139 58.074Z" fill="#208ABD"/>
<path d="M10.1072 54.0753C10.0611 53.6085 9.91107 53.158 9.6682 52.7569C9.14511 51.8287 8.51914 50.591 7.7084 48.8317C6.89766 50.5895 6.272 51.8299 5.7486 52.7569C5.50587 53.158 5.35595 53.6085 5.30986 54.0753C5.22591 54.7413 5.40422 55.4139 5.807 55.9506C6.02605 56.2065 6.2944 56.4155 6.59599 56.5652C6.89759 56.7149 7.22623 56.8021 7.56226 56.8216C7.60767 56.8253 7.65711 56.8278 7.70994 56.8278C7.76278 56.8278 7.81036 56.8253 7.85516 56.8216C8.19142 56.8032 8.52043 56.7165 8.82218 56.5667C9.12393 56.417 9.39211 56.2074 9.61042 55.9506C10.0129 55.4138 10.191 54.7413 10.1072 54.0753Z" fill="#208ABD"/>
<path d="M70.7801 73.2434C70.734 72.7765 70.5839 72.3259 70.341 71.9247C69.818 70.998 69.1923 69.7588 68.3812 67.9995C67.5705 69.7573 66.9448 70.998 66.4214 71.9247C66.1788 72.326 66.0289 72.7766 65.9827 73.2434C65.8988 73.9094 66.0772 74.5819 66.4801 75.1184C66.6991 75.3743 66.9674 75.5834 67.269 75.7331C67.5705 75.8828 67.8991 75.9701 68.2351 75.9897C68.2805 75.9934 68.33 75.9959 68.3828 75.9956C68.4356 75.9953 68.4832 75.9934 68.528 75.9897C68.8643 75.9713 69.1933 75.8846 69.4951 75.7348C69.7968 75.585 70.065 75.3753 70.2833 75.1184C70.6859 74.5818 70.864 73.9093 70.7801 73.2434Z" fill="#208ABD"/>
<path d="M14.9366 79.0754C14.8903 78.6087 14.7404 78.1582 14.4978 77.757C13.9744 76.8288 13.3488 75.5896 12.5377 73.8319C11.7267 75.5896 11.101 76.83 10.5779 77.757C10.3351 78.1581 10.185 78.6086 10.1389 79.0754C10.0551 79.7415 10.2335 80.4141 10.6363 80.9507C10.8552 81.2064 11.1232 81.4153 11.4245 81.565C11.7257 81.7146 12.054 81.802 12.3897 81.8217C12.4352 81.8254 12.4843 81.8279 12.5371 81.8279C12.59 81.8279 12.6378 81.8254 12.6823 81.8217C13.0186 81.8033 13.3476 81.7166 13.6494 81.5669C13.9511 81.4172 14.2193 81.2075 14.4376 80.9507C14.841 80.4143 15.0199 79.7417 14.9366 79.0754Z" fill="#208ABD"/>
<path d="M59.7239 107.495C59.6777 107.028 59.5277 106.578 59.2849 106.176C58.7618 105.248 58.1361 104.011 57.3251 102.251C56.5144 104.009 55.8887 105.25 55.3653 106.176C55.1226 106.578 54.9727 107.028 54.9266 107.495C54.8426 108.161 55.021 108.834 55.424 109.37C55.643 109.626 55.9113 109.835 56.2129 109.985C56.5144 110.135 56.843 110.222 57.179 110.241C57.2244 110.245 57.2738 110.248 57.3266 110.248C57.3795 110.248 57.4271 110.245 57.4719 110.241C57.8081 110.223 58.1371 110.136 58.4389 109.987C58.7406 109.837 59.0088 109.627 59.2271 109.37C59.6296 108.834 59.8077 108.161 59.7239 107.495Z" fill="#208ABD"/>
<path d="M31.8611 95.5851C31.815 95.1182 31.6649 94.6676 31.4221 94.2664C30.899 93.3382 30.273 92.1006 29.4623 90.3413C28.6516 92.0993 28.0259 93.3398 27.5025 94.2664C27.2598 94.6677 27.1099 95.1183 27.0638 95.5851C26.9798 96.2512 27.1581 96.9238 27.5609 97.4604C27.7799 97.7164 28.0483 97.9254 28.3499 98.0751C28.6515 98.2247 28.9801 98.3119 29.3161 98.3314C29.3616 98.3351 29.411 98.3376 29.4638 98.3376C29.5167 98.3376 29.5642 98.3351 29.6091 98.3314C29.9453 98.313 30.2743 98.2263 30.5761 98.0766C30.8778 97.9269 31.146 97.7172 31.3643 97.4604C31.7667 96.9236 31.9449 96.2511 31.8611 95.5851Z" fill="#208ABD"/>
<path d="M59.0216 67.1676C58.9888 66.8372 58.8826 66.5184 58.7108 66.2344C58.3401 65.5784 57.8976 64.7006 57.3239 63.4565C56.7498 64.7006 56.307 65.5784 55.9366 66.2344C55.7654 66.5185 55.6598 66.8373 55.6276 67.1676C55.5683 67.639 55.6945 68.115 55.9795 68.4949C56.1346 68.6761 56.3245 68.824 56.538 68.9299C56.7514 69.0358 56.9841 69.0975 57.2219 69.1113C57.2528 69.114 57.2889 69.1156 57.3263 69.1156C57.3637 69.1156 57.3974 69.114 57.4292 69.1113C57.6672 69.0982 57.9 69.0369 58.1135 68.9309C58.327 68.825 58.5168 68.6766 58.6713 68.4949C58.9557 68.1148 59.0813 67.6388 59.0216 67.1676Z" fill="#208ABD"/>
<path d="M38.0562 74.7124C38.024 74.3822 37.9185 74.0634 37.7473 73.7793C37.3765 73.1233 36.9341 72.2455 36.36 71.0014C35.7862 72.2455 35.3432 73.1233 34.973 73.7793C34.8013 74.0632 34.6951 74.3821 34.6622 74.7124C34.6031 75.1839 34.7294 75.6599 35.0144 76.0398C35.1694 76.2209 35.3593 76.3688 35.5727 76.4747C35.7862 76.5806 36.0187 76.6423 36.2565 76.6561C36.2874 76.6589 36.3238 76.6605 36.3609 76.6605C36.398 76.6605 36.4323 76.6605 36.4638 76.6561C36.7018 76.6432 36.9347 76.5818 37.1483 76.4759C37.3618 76.3699 37.5517 76.2216 37.7062 76.0398C37.9905 75.6596 38.1161 75.1836 38.0562 74.7124Z" fill="#208ABD"/>
<path d="M77.4015 96.4518C77.3688 96.1214 77.2626 95.8025 77.0907 95.5186C76.7199 94.8627 76.2775 93.9849 75.7037 92.7408C75.1297 93.9849 74.6869 94.8627 74.3165 95.5186C74.1453 95.8027 74.0397 96.1216 74.0075 96.4518C73.9482 96.9232 74.0744 97.3993 74.3594 97.7792C74.5144 97.9603 74.7044 98.1082 74.9179 98.2142C75.1313 98.3201 75.3639 98.3817 75.6018 98.3955C75.6327 98.3983 75.6688 98.3998 75.7062 98.3998C75.7436 98.3998 75.7773 98.3983 75.8091 98.3955C76.047 98.3825 76.2799 98.3211 76.4934 98.2152C76.7069 98.1092 76.8967 97.9609 77.0512 97.7792C77.3357 97.3991 77.4614 96.923 77.4015 96.4518Z" fill="#208ABD"/>
<path d="M18.359 109.961C18.3263 109.63 18.2202 109.312 18.0485 109.028C17.6777 108.372 17.2353 107.494 16.6615 106.25C16.0878 107.494 15.645 108.372 15.2745 109.028C15.1028 109.312 14.9967 109.63 14.964 109.961C14.9047 110.432 15.0309 110.908 15.316 111.288C15.471 111.469 15.6609 111.617 15.8744 111.723C16.0879 111.829 16.3205 111.891 16.5583 111.905C16.5892 111.907 16.6254 111.909 16.6628 111.909C16.7001 111.909 16.7338 111.907 16.7653 111.905C17.0033 111.892 17.2363 111.83 17.4498 111.724C17.6634 111.618 17.8532 111.47 18.0077 111.288C18.2925 110.908 18.4185 110.432 18.359 109.961Z" fill="#208ABD"/>
<path d="M75.6921 120.55C75.66 120.22 75.5544 119.901 75.3832 119.617C75.0124 118.961 74.57 118.083 73.9962 116.839C73.4221 118.083 72.9794 118.961 72.6089 119.617C72.4365 119.901 72.3298 120.22 72.2965 120.55C72.2373 121.022 72.3635 121.498 72.6485 121.877C72.8035 122.059 72.9934 122.206 73.2069 122.312C73.4204 122.418 73.653 122.48 73.8908 122.494C73.9217 122.497 73.9579 122.498 73.9953 122.498C74.0327 122.498 74.0663 122.497 74.0982 122.494C74.3361 122.481 74.569 122.419 74.7825 122.314C74.996 122.208 75.1858 122.059 75.3402 121.877C75.6254 121.498 75.7516 121.022 75.6921 120.55Z" fill="#208ABD"/>
<path d="M39.7643 131.552C39.7316 131.222 39.6255 130.903 39.4538 130.619C39.083 129.963 38.6405 129.085 38.0668 127.841C37.493 129.085 37.0503 129.963 36.6798 130.619C36.508 130.903 36.4019 131.222 36.3693 131.552C36.31 132.023 36.4362 132.499 36.7212 132.879C36.8763 133.06 37.0663 133.208 37.2797 133.314C37.4932 133.42 37.7258 133.482 37.9636 133.496C37.9945 133.498 38.0306 133.5 38.068 133.5C38.1054 133.5 38.1391 133.5 38.1706 133.496C38.4086 133.483 38.6415 133.421 38.8551 133.315C39.0686 133.209 39.2585 133.061 39.413 132.879C39.6978 132.499 39.8237 132.023 39.7643 131.552Z" fill="#208ABD"/>
</svg>
