<svg viewBox="0 0 138 137" fill="none" xmlns="http://www.w3.org/2000/svg">
    <rect x="2.75146" y="2.02002" width="132.618" height="132.618" rx="30" fill="white" stroke="#116619" stroke-width="4"/>
    <path d="M65.0726 120.324C71.4792 120.868 73.3759 120.153 74.5619 119.488C77.2239 117.994 76.6831 116.409 80.3299 112.8C82.0339 111.113 83.759 109.705 87.9585 107.505C88.9658 106.977 96.3037 104.046 97.0756 103.789C102.355 102.034 107.222 99.1075 108.705 98.2159C113.939 95.0681 116.574 93.4326 117.45 90.4131C118.166 87.9432 117.974 84.2725 115.682 82.6104C113.736 81.1997 111.134 81.8519 110.147 82.0995C107.604 82.7367 106.177 84.199 103.309 86.9762C98.8561 91.2878 96.6333 93.4489 95.7732 94.0358C92.231 96.4529 85.9878 97.8268 84.3302 98.4016C82.5784 99.0092 79.8754 99.9465 77.4459 98.8042C74.7768 97.5492 73.9656 94.5027 73.8486 94.0358C73.2489 91.6418 74.1126 89.5896 75.8643 85.5829C81.3137 73.1189 81.9663 72.064 83.7721 70.7205C85.0477 69.7714 86.7002 69.035 90.0052 67.5622C96.2663 64.7722 97.1012 65.4595 100.239 63.4751C103.044 61.7007 102.223 61.1628 107.681 56.4155C110.038 54.3657 111.538 53.0728 113.821 51.6781C117.095 49.6784 117.861 49.9846 121.357 48.0554C124.887 46.1076 129.284 43.6814 128.986 41.2744C128.734 39.2468 125.219 37.7806 122.752 37.6517C120.072 37.5117 117.31 38.8704 116.426 39.3238C115.66 39.7166 113.905 40.5862 110.844 43.318C108.466 45.4412 106.491 47.2038 104.053 50.099C100.81 53.9498 101.186 54.5337 98.7502 56.6941C96.1336 59.0145 93.9101 59.9281 92.238 60.5955C90.4746 61.2994 88.433 62.1143 87.8655 61.4315C87.2256 60.6617 88.955 58.5835 90.8425 55.2079C91.8969 53.3223 92.8483 50.8857 94.7498 46.0118C96.2961 42.0486 97.8667 38.0227 99.2154 32.7286C101.093 25.3585 102.108 21.13 99.7736 18.3307C99.6056 18.1292 97.6404 15.8444 94.8429 16.0084C92.4987 16.1459 91.017 17.9179 90.7495 18.2378C89.2839 19.9905 89.1759 22.0537 89.0749 23.5325C88.8135 27.3603 88.0475 31.1389 87.6794 34.9579C87.6794 34.958 87.1528 40.4221 85.3536 46.662C84.9785 47.9631 84.1553 50.6355 78.6553 61.6173C73.3875 72.1353 72.7632 72.4383 71.1197 76.9441C69.8018 80.5573 68.4623 84.2298 67.5845 89.3913C66.3874 96.4299 67.0918 100.105 65.2587 100.817C62.8631 101.747 58.8385 96.5636 58.0952 95.6149C54.6692 91.2426 53.8232 86.6015 53.4436 84.3753C52.8308 80.781 53.5925 81.3347 53.4436 72.2067C53.338 65.7278 52.9355 64.2995 54.0018 61.6173C54.7611 59.7073 56.0276 58.1456 58.5604 55.0221C61.881 50.9273 62.6918 50.6201 64.4214 48.0554C64.832 47.4465 66.8807 44.3536 68.1427 39.8811C68.8232 37.4693 71.3994 28.3393 67.3985 25.2974C65.9887 24.2256 63.8793 23.9985 62.1887 24.5543C59.8128 25.3353 58.7809 27.4923 58.5604 27.9912C57.7752 29.768 58.227 31.0042 58.2813 33.5646C58.3271 35.7241 58.0018 37.3885 57.351 40.7171C56.528 44.9266 54.1516 52.9901 51.8621 52.8857C50.5884 52.8276 50.3542 50.2877 48.1408 45.1758C46.8162 42.1164 44.2667 36.3524 39.5819 31.6139C37.8473 29.8594 32.0089 23.9541 27.8599 25.6689C26.0258 26.427 24.9145 28.7719 24.6968 30.685C24.4413 32.9298 25.4523 34.65 25.9062 35.4224C26.5289 36.4819 27.2715 37.2489 29.0693 38.6735C31.8853 40.905 33.3769 41.6488 35.4885 43.1322C37.1556 44.3034 39.261 45.7825 41.2565 48.0554C42.0032 48.9059 44.4799 51.8557 46.0011 56.5084C47.3261 60.561 48.5026 64.1594 46.7453 66.6333C43.9878 70.5154 36.0718 68.7204 34.6512 68.3982C33.1487 68.0576 25.5794 66.3411 22.6501 60.3168C21.2089 57.3531 21.5379 54.6775 18.7427 48.8914C18.211 47.7907 17.5311 46.5047 16.1378 45.9189C14.0806 45.0539 11.2826 46.0579 9.90467 47.8696C9.5345 48.3563 8.44955 49.9758 9.34648 54.4648C9.79239 56.6964 11.0924 62.7311 16.696 67.6551C22.1751 72.4697 28.5866 73.4263 29.9066 73.6001C36.4595 74.4626 41.158 72.3043 43.3032 75.0863C43.9925 75.9803 43.9618 76.7926 44.1405 78.6161C44.6438 83.7538 46.0633 89.3061 47.7687 93.014C50.4102 98.7573 53.9059 100.441 52.9785 103.603C52.5418 105.092 51.4047 105.963 50.8387 106.39C47.7049 108.758 42.9175 108.104 39.861 106.204C37.052 104.458 37.7663 102.944 34.093 98.4016C32.0366 95.8586 29.7864 94.0847 25.286 90.537C20.0578 86.4155 17.411 84.3704 15.8122 85.1339C14.217 85.8956 13.6677 88.7096 14.1841 90.7847C14.6533 92.6697 15.9042 93.552 19.0218 95.9865C24.9574 100.621 27.9252 102.939 29.7205 104.997C29.9373 105.245 31.8531 107.456 34.1019 109.913C34.2328 110.056 34.2627 110.088 34.2791 110.106C35.6805 111.608 36.7464 112.733 38.4655 113.728C40.2728 114.774 41.7224 115.051 43.5823 115.493C48.4674 116.654 47.5723 116.906 52.6994 118.187C55.9432 118.998 58.9445 119.803 65.0726 120.324L65.0726 120.324Z" fill="#D75047"/>
    <path d="M103.936 90.8793C105.015 92.8672 106.558 95.2906 108.74 97.7867C108.82 97.8777 108.899 97.9613 108.979 98.0506C109.273 97.8739 109.559 97.7009 109.836 97.5332C107.869 95.3152 105.903 93.0973 103.936 90.8793V90.8793Z" fill="#9D413B"/>
    <path d="M74.6406 88.476C74.6546 88.4404 74.6678 88.4057 74.6821 88.3698L68.0719 86.9031C68.0656 86.9322 68.059 86.9602 68.0527 86.9894C68.9186 87.3334 69.9173 87.6696 71.0544 87.9395C72.3805 88.2542 73.5876 88.4065 74.6406 88.476V88.476Z" fill="#9D413B"/>
    <path d="M76.7852 77.2562C77.6576 77.6215 78.4756 77.8634 79.2176 78.0333C79.2687 77.922 79.3187 77.813 79.3682 77.7054C77.3908 76.907 75.4135 76.1085 73.436 75.3101C74.2278 75.9196 75.3435 76.6525 76.7852 77.2562V77.2562Z" fill="#9D413B"/>
    <path d="M88.2604 97.2491C88.0882 97.3015 87.9145 97.3548 87.748 97.4041C88.5252 99.0927 89.4998 100.337 90.2646 101.158C89.5965 99.8552 88.9284 98.5522 88.2604 97.2491Z" fill="#9D413B"/>
    <path d="M98.1347 91.9585C98.0404 92.0474 97.9502 92.1323 97.8613 92.2156C98.6756 93.5562 99.7659 95.088 101.218 96.6355C102.611 98.12 104.015 99.2747 105.281 100.17C105.442 100.083 105.605 99.9961 105.758 99.9123C103.217 97.2611 100.676 94.6097 98.1347 91.9585Z" fill="#9D413B"/>
    <path d="M94.4648 23.7781C95.5672 24.1057 97.0646 24.4321 98.8573 24.4908C99.6328 24.5161 100.35 24.4848 101.008 24.4245C101.023 24.2996 101.036 24.1755 101.048 24.0537C98.8538 23.9618 96.6593 23.87 94.4648 23.778L94.4648 23.7781Z" fill="#9D413B"/>
    <path d="M98.3291 57.0469C98.7535 57.7256 99.3402 58.5168 100.147 59.3022C101.073 60.2032 102.01 60.8251 102.796 61.254C102.851 61.191 102.904 61.13 102.962 61.0636C101.469 59.6817 99.9759 58.3 98.4827 56.9182C98.431 56.9625 98.3804 57.0036 98.3291 57.0469V57.0469Z" fill="#9D413B"/>
    <path d="M104.945 51.408C105.852 52.325 106.763 52.9312 107.457 53.3199C106.369 52.1915 105.282 51.0632 104.195 49.9349C104.147 49.9913 104.101 50.0416 104.053 50.0989C104.014 50.1457 103.981 50.1862 103.943 50.232C104.229 50.6153 104.551 51.0099 104.945 51.408V51.408Z" fill="#9D413B"/>
    <path d="M114.766 42.897C115.173 43.7667 115.867 44.9858 117.031 46.1862C118.179 47.3705 119.382 48.1232 120.333 48.5963C120.429 48.548 120.525 48.499 120.625 48.447C118.672 46.5969 116.719 44.747 114.766 42.897V42.897Z" fill="#9D413B"/>
    <path d="M116.178 39.4516C116.449 39.9546 116.793 40.4969 117.236 41.0468C118.431 42.5294 119.772 43.365 120.613 43.8016C119.262 42.2864 117.911 40.7713 116.559 39.2562C116.513 39.2797 116.465 39.3036 116.426 39.3237C116.353 39.361 116.269 39.4045 116.178 39.4516V39.4516Z" fill="#9D413B"/>
    <path d="M128.561 42.8419C127.518 41.8187 126.474 40.7955 125.431 39.7722C125.716 40.2875 126.154 40.9541 126.811 41.6224C127.4 42.222 127.993 42.6471 128.495 42.9485C128.518 42.9131 128.539 42.8775 128.561 42.8419V42.8419Z" fill="#9D413B"/>
    <path d="M47.0573 59.9424C47.6573 59.9844 48.3042 60.0044 49.0034 59.9807C50.3226 59.9358 51.4759 59.7576 52.4212 59.549C50.6193 59.6292 48.8175 59.7094 47.0156 59.7896C47.0296 59.8406 47.0437 59.8917 47.0573 59.9424H47.0573Z" fill="#9D413B"/>
    <path d="M55.3689 47.8552C55.8471 48.2739 56.4352 48.7245 57.1566 49.1466C58.2356 49.7781 59.2389 50.1328 59.9979 50.339C58.4743 49.4576 56.9506 48.5762 55.427 47.6948C55.4076 47.7483 55.3884 47.8021 55.3689 47.8552H55.3689Z" fill="#9D413B"/>
    <path d="M63.704 42.4036C65.0342 42.6324 66.2184 42.6743 67.2107 42.6416C67.2305 42.5911 67.2502 42.5407 67.2699 42.4897C64.5714 41.9813 61.8728 41.4729 59.1743 40.9645C60.2649 41.4842 61.7986 42.0759 63.704 42.4036V42.4036Z" fill="#9D413B"/>
    <path d="M60.0803 30.1922C61.5122 30.3745 63.3036 30.4796 65.3512 30.3155C66.9277 30.1892 68.3095 29.9277 69.4887 29.6331C69.4847 29.6001 69.4836 29.5658 69.4794 29.5329C66.3464 29.7527 63.2133 29.9724 60.0803 30.1922Z" fill="#9D413B"/>
    <path d="M58.2246 32.3505C59.1149 32.5015 60.1496 32.6147 61.3158 32.618C62.9609 32.6226 64.3735 32.4112 65.4749 32.1657C63.0557 32.1912 60.6365 32.2166 58.2173 32.242L58.2246 32.3505L58.2246 32.3505Z" fill="#9D413B"/>
    <path d="M85.6851 45.4678C86.3441 45.7356 87.0969 45.9913 87.9583 46.1863C89.5499 46.5464 90.933 46.58 91.9389 46.5289C89.8813 46.0707 87.8238 45.6125 85.7662 45.1544C85.7387 45.2593 85.7133 45.3621 85.6851 45.4678H85.6851Z" fill="#9D413B"/>
    <path d="M89.3804 21.0868C90.5458 21.5277 92.0785 21.977 93.9155 22.1883C96.0782 22.437 97.9103 22.2699 99.2139 22.0512C95.9475 21.6802 92.6812 21.3092 89.4148 20.9382C89.4024 20.9881 89.3918 21.0371 89.3804 21.0868V21.0868Z" fill="#9D413B"/>
    <path d="M88.6538 27.5236C90.1746 28.0259 92.0146 28.5084 94.1626 28.7942C96.4377 29.0969 98.4643 29.1037 100.142 28.995L100.18 28.8336C96.3426 28.3598 92.5054 27.8859 88.6681 27.4121C88.6632 27.4493 88.6587 27.4864 88.6538 27.5236V27.5236Z" fill="#9D413B"/>
    <path d="M50.0189 82.7932C51.2284 82.7981 52.3061 82.6827 53.2183 82.5251C53.2151 82.4667 53.2126 82.4089 53.2103 82.3517C50.8013 82.3435 48.3924 82.3353 45.9834 82.3272C47.042 82.5705 48.4136 82.7867 50.0189 82.7932L50.0189 82.7932Z" fill="#9D413B"/>
    <path d="M27.5901 32.0835C28.638 31.447 29.9953 30.4746 31.3374 29.041C32.1571 28.1653 32.7892 27.3058 33.2921 26.5241C33.2093 26.4788 33.1262 26.4348 33.043 26.3915C31.2254 28.2889 29.4077 30.1862 27.5901 32.0835V32.0835Z" fill="#9D413B"/>
    <path d="M26.7811 36.6218C27.5528 36.1918 28.4274 35.6198 29.3198 34.8383C30.7465 33.5888 31.6721 32.2923 32.2435 31.3434C30.3659 33.0367 28.4884 34.73 26.6108 36.4232C26.6655 36.4889 26.7221 36.5555 26.7811 36.6218H26.7811Z" fill="#9D413B"/>
    <path d="M45.0429 38.8915C45.024 38.859 45.0037 38.8258 44.9847 38.7931C43.2632 40.4214 41.5418 42.0498 39.8203 43.6782C40.7048 43.205 41.8664 42.4645 43.0323 41.3346C43.9194 40.4748 44.5652 39.6231 45.0429 38.8915L45.0429 38.8915Z" fill="#9D413B"/>
    <path d="M9.01685 51.892C9.01866 51.9315 9.02043 51.9709 9.0226 52.0111C9.95944 51.8022 10.9862 51.521 12.0794 51.1339C13.6513 50.5772 14.9909 49.9347 16.0875 49.3248C13.7306 50.1805 11.3737 51.0362 9.01685 51.892H9.01685Z" fill="#9D413B"/>
    <path d="M21.6603 89.6458C21.9516 89.1465 22.165 88.6705 22.3313 88.2324C22.2815 88.1943 22.2326 88.1572 22.1835 88.1198C21.2542 89.5056 20.3248 90.8914 19.3955 92.2772C20.0374 91.7581 20.9241 90.9078 21.6603 89.6458V89.6458Z" fill="#9D413B"/>
    <path d="M19.8747 86.4473C18.4435 88.6814 17.0124 90.9155 15.5813 93.1497C15.6152 93.1839 15.6514 93.2188 15.6867 93.2533C16.5355 92.305 17.4512 91.1437 18.3249 89.7281C19.0263 88.5916 19.5657 87.5095 19.9904 86.5264C19.9523 86.5006 19.9123 86.4725 19.8747 86.4473V86.4473Z" fill="#9D413B"/>
    <path d="M22.9135 99.0353C23.4291 98.6489 23.986 98.1751 24.5431 97.5812C25.6955 96.3528 26.3922 95.1145 26.8079 94.2097C25.4573 95.7769 24.1068 97.3441 22.7561 98.9113C22.8075 98.9519 22.8627 98.9952 22.9135 99.0353V99.0353Z" fill="#9D413B"/>
    <path d="M36.9439 102.688C36.2419 103.672 35.5398 104.656 34.8376 105.64C35.2072 105.417 35.7997 104.996 36.3201 104.283C36.695 103.77 36.908 103.273 37.0403 102.866C37.0096 102.809 36.9758 102.747 36.944 102.688H36.9439Z" fill="#9D413B"/>
    <path d="M50.8469 98.088C51.2349 98.0228 51.6798 97.9111 52.1602 97.7045C53.022 97.334 53.6096 96.8317 53.9446 96.4985C52.864 96.962 51.7835 97.4254 50.7029 97.8889C50.7508 97.9548 50.7997 98.0235 50.8469 98.088L50.8469 98.088Z" fill="#9D413B"/>
    <path d="M24.7899 65.7986C25.2677 65.2768 25.6118 64.7676 25.8644 64.3304C25.8448 64.3141 25.8249 64.2987 25.8055 64.2822C24.8996 65.2628 23.9937 66.2433 23.0879 67.2239C23.5663 66.9206 24.1815 66.463 24.7899 65.7986L24.7899 65.7986Z" fill="#9D413B"/>
    <path d="M18.3993 69.0037C19.071 68.5514 19.8092 67.9882 20.5623 67.2788C21.6163 66.2858 22.3933 65.2999 22.9507 64.4828C21.3871 65.9556 19.8234 67.4283 18.2598 68.9011C18.3063 68.9353 18.3527 68.97 18.3993 69.0037V69.0037Z" fill="#9D413B"/>
    <path d="M20.5317 53.3102C18.7026 54.0558 16.8735 54.8014 15.0444 55.547C15.8161 55.5122 17.0065 55.3659 18.3388 54.8069C19.2946 54.4059 20.0388 53.9117 20.5871 53.4773C20.5699 53.4232 20.5495 53.365 20.5317 53.3102V53.3102Z" fill="#9D413B"/>
    <path d="M98.1296 37.4286L94.5059 36.7981C94.9561 37.0034 95.5837 37.2343 96.3589 37.36C97.0579 37.4734 97.6662 37.4673 98.1296 37.4286V37.4286Z" fill="#9D413B"/>
    <path d="M87.9172 57.5891C88.3931 57.7857 88.8307 57.8933 89.2079 57.9576L89.284 57.8336C88.2381 57.3775 87.1924 56.9214 86.1465 56.4653C86.5065 56.7932 87.0929 57.2486 87.9172 57.5891V57.5891Z" fill="#9D413B"/>
    <path d="M40.9526 38.6826C41.3505 38.5273 42.0144 38.2083 42.641 37.5725C43.0471 37.1604 43.3109 36.7436 43.4851 36.4068C43.4663 36.3792 43.4489 36.3518 43.4301 36.3241C42.6042 37.1103 41.7785 37.8964 40.9526 38.6826H40.9526Z" fill="#9D413B"/>
    <path d="M35.6063 70.2665C35.3695 71.4406 35.1326 72.6146 34.8958 73.7887L34.9847 73.7854C35.1621 73.4156 35.3426 72.9545 35.4691 72.4046C35.6696 71.5327 35.6566 70.7816 35.6063 70.2665V70.2665Z" fill="#9D413B"/>
    <path d="M51.8032 84.7941C52.4633 84.7895 53.0279 84.6933 53.4791 84.5807L53.4631 84.4882L49.5247 84.4378C50.0497 84.6099 50.8366 84.8008 51.8032 84.7941Z" fill="#9D413B"/>
    <path d="M107.832 83.0701C108.345 83.8416 108.93 84.6499 109.619 85.4794C111.022 87.1716 112.444 88.4856 113.682 89.4814C111.795 87.3082 109.908 85.1351 108.021 82.9619C107.958 82.9979 107.894 83.0323 107.832 83.0701V83.0701Z" fill="#9D413B"/>
</svg>
