<svg viewBox="0 0 1041 673" fill="none" xmlns="http://www.w3.org/2000/svg">
    <path d="M930.275 31.5285H109.538C60.379 31.5285 20.5281 71.3795 20.5281 120.538V559.113C20.5281 608.271 60.379 648.122 109.538 648.122H930.275C979.434 648.122 1019.29 608.271 1019.29 559.113V120.538C1019.29 71.3795 979.434 31.5285 930.275 31.5285Z" fill="#B6CEE1" stroke="#116619" stroke-width="6"/>
    <path d="M10.3469 40.3962C14.0803 43.5191 30.3874 57.8544 33.3679 82.5644C35.0453 97.2366 31.7442 112.047 23.9945 124.618C23.9918 129.075 23.989 133.532 23.9862 137.989C25.0233 137.01 49.8969 112.69 42.0007 79.7975C35.7441 53.7353 13.6634 42.0771 10.3469 40.3962Z" fill="#48964E"/>
    <path d="M17.0568 128.701C8.98218 135.637 6.59962 141.986 5.91961 146.508C3.13433 165.034 25.5049 175.593 28.639 200.181C30.069 211.399 26.9365 221.161 23.9804 227.767L23.9874 239.712C41.4525 218.375 42.4271 204.688 40.0083 196.092C35.2336 179.124 13.7559 169.631 15.364 150.788C15.5784 148.344 16.1462 145.945 17.0498 143.665C17.0522 138.677 17.0545 133.689 17.0568 128.701Z" fill="#48964E"/>
    <path d="M17.0604 232.674C5.48565 244.641 4.28566 252.946 5.18185 258.219C6.6285 266.731 13.6658 268.101 22.5951 285.077C28.1058 295.553 28.5784 301.026 28.6455 303.671C28.7255 309.923 27.1172 316.082 23.9901 321.497L23.991 330.539C41.6305 318.739 42.9887 308.886 42.9598 304.851C42.909 297.746 38.4361 291.725 29.6047 279.838C21.4098 268.807 15.4083 264.258 14.9215 255.415C14.7654 251.724 15.499 248.049 17.0604 244.7V232.674Z" fill="#48964E"/>
    <path d="M17.0604 325.22V335.103C13.8048 340.271 12.0902 346.261 12.1177 352.369C12.5845 369.455 28.9968 376.064 34.1056 392.065C36.8704 400.725 36.9913 414.222 23.998 434.822C23.9945 430.933 23.991 427.045 23.9876 423.156C26.0384 415.924 26.4201 408.32 25.1039 400.919C20.7622 377.867 0.685835 370.851 0.0169104 353.992C-0.233507 347.682 2.15076 337.868 17.0604 325.22Z" fill="#48964E"/>
    <path d="M17.0501 427.831C4.97676 444.271 4.77025 454.633 6.80518 461.054C10.6864 473.3 24.3096 476.221 27.465 490.052C29.351 498.318 26.4774 506.012 23.9945 510.935C23.9957 514.078 23.9969 517.22 23.998 520.363C37.3567 504.069 38.216 493.78 36.1717 487.248C32.6197 475.899 19.2639 472.709 15.9546 458.324C14.7898 452.761 15.1723 446.984 17.0605 441.623L17.0501 427.831Z" fill="#48964E"/>
    <path d="M17.0611 515.065C8.99139 525.759 9.01228 531.824 10.4205 535.356C13.1375 542.17 22.1153 542.287 25.5464 550.039C28.0529 555.702 26.0883 562.023 24.2825 566.146C24.398 567.501 24.5496 568.909 24.7374 570.368C24.9273 571.825 25.1414 573.223 25.3798 574.563C36.2299 556.687 35.4076 548.633 32.7036 544.579C28.6326 538.476 17.7067 537.555 16.397 530.191C16.1252 528.432 16.3545 526.631 17.0585 524.996L17.0611 515.065Z" fill="#48964E"/>
    <path d="M18.0223 572.507C13.0893 583.935 14.5024 589.32 16.4896 592.115C20.5841 597.873 29.2556 595.641 37.1309 602.851C40.4593 606 42.9027 609.968 44.2169 614.358C44.942 615.213 45.712 616.085 46.5268 616.972C47.3525 617.869 48.1676 618.718 48.972 619.52C49.2111 604.959 45.1101 599.01 41.3367 596.265C34.4536 591.258 24.7424 594.061 20.6399 587.632C19.2123 585.118 18.7263 582.177 19.2689 579.337C19.0587 578.382 18.8584 577.4 18.6682 576.389C18.4185 575.057 18.2032 573.763 18.0223 572.507Z" fill="#48964E"/>
    <path d="M42.0032 622.283C46.7912 638.508 53.2138 643.192 57.9383 644.631C66.9855 647.388 73.8137 639.441 88.7124 639.365C96.193 639.413 103.557 641.227 110.203 644.66L119.037 644.657C102.87 630.479 91.0101 628.438 82.7301 629.801C72.3764 631.505 63.8323 639.154 54.95 635.224C51.4656 633.513 48.6523 630.688 46.9565 627.196C46.2083 626.514 45.4496 625.795 44.6804 625.04C43.7329 624.108 42.8405 623.189 42.0032 622.283Z" fill="#48964E"/>
    <path d="M115.106 651.591C127.369 659.207 134.715 658.829 139.176 657.027C145.937 654.296 147.67 647.647 156.146 644.779C160.852 643.316 165.884 643.273 170.614 644.655H177.173C165.138 636.785 157.597 636.827 152.826 638.581C144.69 641.572 140.989 650.87 130.322 652.01C128.053 652.244 125.762 652.1 123.54 651.584L115.106 651.591Z" fill="#48964E"/>
    <path d="M176.174 651.59C191.651 661.554 201.029 661.231 206.763 659.02C215.799 655.534 218.489 646.308 229.636 643.525C235.059 642.31 240.718 642.705 245.919 644.66L253.388 644.657C239.944 633.895 230.994 633.305 225.357 634.671C213.782 637.475 209.318 650.187 194.515 652.342C190.476 652.902 186.366 652.647 182.428 651.591L176.174 651.59Z" fill="#48964E"/>
    <path d="M249.258 651.582C265.838 664.48 276.984 665.311 284.237 663.447C296.85 660.205 300.696 648.04 316.407 643.82C324.23 641.89 332.436 642.182 340.102 644.66L351.961 644.655C333.753 633.539 321.409 633.567 313.345 635.888C299.746 639.802 293.8 651.537 277.043 653.596C270.737 654.311 264.351 653.625 258.341 651.587L249.258 651.582Z" fill="#48964E"/>
    <path d="M345.465 651.591C365.599 662.904 377.706 661.874 385.028 658.872C394.833 654.852 399.56 645.86 412.771 643.525C418.46 642.583 424.289 642.969 429.804 644.655L443.018 644.658C425.156 629.441 413.953 628.334 406.868 630.539C395.058 634.214 392.044 647.915 376.764 652.231C370.047 653.964 362.974 653.737 356.382 651.577L345.465 651.591Z" fill="#48964E"/>
    <path d="M436.307 651.584C442.658 655.453 452.538 660.082 464.273 659.315C481.079 658.216 487.83 646.955 505.592 642.197C514.149 639.904 527.157 638.613 545.113 644.65L557.538 644.652C526.411 625.02 509.136 625.608 498.952 630.686C488.018 636.138 480.788 648.994 462.926 651.881C457.708 652.701 452.387 652.6 447.203 651.584H436.307Z" fill="#48964E"/>
    <path d="M562.702 651.585C568.452 653.494 574.507 654.314 580.558 654.002C600.049 652.891 608.674 639.807 623.353 634.67C633.854 630.996 650.007 630.496 674.713 644.655L660.42 644.66C650.354 641.913 639.791 641.525 629.551 643.525C608.509 647.856 601.319 660.833 583.509 662.118C576.428 662.63 565.421 661.455 551.171 651.587L562.702 651.585Z" fill="#48964E"/>
    <path d="M678.232 651.584C690.721 656.031 703.969 657.957 717.208 657.249C748.6 655.366 762.648 638.53 787.599 631.572C805.047 626.705 831.514 625.641 869.511 644.67L852.521 644.66C835.629 641.292 818.247 641.207 801.323 644.41C765.319 651.434 753.078 670.21 724.734 672.301C710.686 673.337 690.342 670.448 664.51 651.591L678.232 651.584Z" fill="#48964E"/>
    <path d="M863.062 651.567C886.607 667.621 902.874 668.248 913.514 665.66C932.602 661.019 935.367 645.599 956.862 642.787C972.958 640.681 980.122 648.188 995.268 643.23C1005.77 639.793 1012.88 632.731 1017.11 627.587C1009.96 632.466 1001.87 635.785 993.35 637.327C976.852 640.181 972.486 633.405 958.485 634.671C935.888 636.714 931.903 655.755 909.677 658.725C898.771 660.182 888.073 657.154 877.949 651.549L863.062 651.567Z" fill="#48964E"/>
    <path d="M999.209 69.8698C997.079 77.8959 996.929 86.3192 998.772 94.4161C1003.46 113.868 1018.27 119.09 1024.6 136.621C1027.5 144.66 1029.28 157.114 1022.75 175.443L1022.76 186.227C1042.99 157.86 1042.88 141.801 1038.91 132.342C1033.64 119.792 1018.97 112.695 1008.05 87.2683C1006.39 83.4222 1005.27 80.1954 1004.61 78.1808C1004.06 77.2256 1003.48 76.2551 1002.86 75.2693C1001.65 73.3353 1000.43 71.5367 999.209 69.8698Z" fill="#48964E"/>
    <path d="M1015.82 180.961C1011.89 187.507 1007.1 197.909 1008.95 209.578C1011.34 224.602 1022.78 229.453 1027.25 244.773C1029.47 252.361 1030.52 264.371 1022.75 281.839V294.295C1042.18 265.974 1041.87 250.456 1037.66 241.453C1032.33 230.076 1018.31 223.862 1015.52 206.479C1014.82 201.997 1014.92 197.427 1015.82 192.98V180.961Z" fill="#48964E"/>
    <path d="M1015.82 288.046C1006.9 300.577 1006.59 308.452 1008.44 313.504C1011.7 322.443 1022.43 324.583 1024.6 334.976C1025.36 339.343 1024.71 343.839 1022.75 347.816L1022.76 356.235C1032.27 345.732 1033.16 338.662 1032.12 334.09C1029.58 322.9 1013.72 319.142 1013.31 307.528C1013.28 304.468 1014.15 301.468 1015.81 298.9L1015.82 288.046Z" fill="#48964E"/>
    <path d="M1015.82 351.992C1005.73 364.487 1004.91 372.978 1006.3 378.586C1009.03 389.572 1021.11 392.861 1024.01 406.33C1025.05 411.659 1024.61 417.171 1022.75 422.272V434.384C1035.55 419.748 1036.56 410.288 1034.93 404.264C1031.75 392.556 1017.13 388.512 1014.86 373.569C1014.29 369.557 1014.62 365.469 1015.82 361.6L1015.82 351.992Z" fill="#48964E"/>
    <path d="M1015.82 426.515C1004.79 443.25 1004.97 453.074 1007.55 459.062C1011.73 468.749 1023.75 471.98 1025.04 483.19C1025.39 487.06 1024.59 490.946 1022.75 494.368L1022.75 503.383C1032.03 494.91 1033.54 488.412 1033.23 484.075C1032.34 471.543 1015.58 466.621 1013.75 451.093C1013.29 446.598 1014.01 442.06 1015.82 437.921L1015.82 426.515Z" fill="#48964E"/>
    <path d="M1015.82 499.014C1007.02 507.596 1005.4 514.24 1005.86 518.975C1006.87 529.57 1018.51 532.74 1023.27 545.391C1026.88 554.982 1024.61 564.882 1021.83 572.165C1021.6 573.851 1021.3 575.628 1020.93 577.483C1020.57 579.278 1020.17 580.978 1019.75 582.576C1036.03 561.403 1036.46 549.678 1033.45 542.808C1028.98 532.623 1014.59 527.777 1014.27 515.286C1014.22 512.647 1014.75 510.03 1015.82 507.617L1015.82 499.014Z" fill="#48964E"/>
    <path d="M1014.2 575.757C1009.84 580.03 1006.56 585.276 1004.62 591.064C1001.29 601.346 1004.9 606.523 1000.52 615.745C999.569 617.76 996.178 624.913 989.124 628.141C977.107 633.64 963.034 623.823 962.617 624.765C962.191 625.726 975.865 638.171 990.342 634.283C997.405 632.386 1005.59 626.476 1007.66 618.456C1009.61 610.929 1007.55 596.224 1009.29 592.035C1009.35 591.892 1009.8 590.836 1010.36 589.358C1010.98 587.685 1011.45 586.25 1011.78 585.179C1012.3 583.51 1012.81 581.738 1013.27 579.868C1013.63 578.455 1013.94 577.085 1014.2 575.757Z" fill="#48964E"/>
    <path d="M1001.47 61.5114C1001.37 56.6351 1000.25 51.8343 998.181 47.4151C991.658 33.5863 977.938 28.8425 974.865 27.862C988.36 26.1976 1001.09 32.6254 1006.59 43.5783C1012.43 55.2029 1007.59 66.8654 1006.81 68.643C1005.94 67.3385 1004.98 65.9914 1003.94 64.6156C1003.11 63.5224 1002.29 62.4876 1001.47 61.5114Z" fill="#48964E"/>
    <path d="M43.1074 75.3058C44.178 75.238 38.4338 54.3328 49.1947 41.4385C57.8654 31.0486 73.9217 29.8508 87.2125 30.7765C89.4119 30.2335 91.3744 29.8336 93.0296 29.5356C94.0802 29.3464 95.6591 29.081 97.592 28.8308C98.9585 28.6539 100.173 28.5272 101.193 28.4349C76.8268 18.8415 53.2042 23.3875 43.6608 37.2327C33.201 52.4075 41.9815 75.3771 43.1074 75.3058Z" fill="#48964E"/>
    <path d="M93.9102 36.4151C102.92 41.8452 116.869 48.1997 132.092 45.3121C149.99 41.9171 155.559 28.4282 174.15 22.9922C183.451 20.2726 198.036 18.9772 219.103 28.0634H236.353C199.711 5.44145 178.684 6.07504 165.96 12.2196C151.449 19.2267 139.936 37.1661 118.258 37.0114C114.152 36.9709 110.076 36.3133 106.166 35.0607C103.849 35.1485 101.363 35.337 98.7344 35.6676C97.0497 35.8795 95.4401 36.133 93.9102 36.4151Z" fill="#48964E"/>
    <path d="M228.079 34.994C228.944 35.3655 230.199 35.8987 231.72 36.5247C233.329 37.2753 234.978 37.935 236.661 38.5009C240.168 39.6001 245.142 41.035 251.185 42.359C257.024 43.638 276.468 46.4508 289.033 46.3082C320.503 45.951 334.661 25.56 366.507 19.7456C380.473 17.1958 400.921 16.8869 427.843 28.053C437.861 28.0582 447.878 28.0634 457.896 28.0685C399.445 -5.47043 365.669 -2.9533 345.478 6.02161C327.021 14.2264 308.788 32.7752 274.516 36.1947C264.406 37.1846 254.208 36.7811 244.207 34.9957L228.079 34.994Z" fill="#48964E"/>
    <path d="M437.286 34.9914C465.595 51.2299 483.707 50.326 495.115 46.3082C510.947 40.7325 518.143 27.6528 538.058 24.6155C547.925 23.263 557.975 24.4497 567.256 28.0634H586.506C555.693 5.68429 537.191 4.95595 525.662 9.56331C510.09 15.7864 504.033 33.0253 483.162 37.0114C474.91 38.4536 466.427 37.7578 458.521 34.9905C451.442 34.9908 444.364 34.9911 437.286 34.9914Z" fill="#48964E"/>
    <path d="M571.485 34.9957C596.982 49.3601 614.019 48.7852 625.05 45.3121C642.733 39.7448 651.283 24.7466 672.199 23.5087C680.314 23.1283 688.403 24.6898 695.793 28.0634H718.178C696.64 9.28632 680.985 6.98964 670.428 8.67782C649.18 12.0756 638.772 33.1835 609.666 35.9045C603.46 36.4718 597.205 36.1641 591.084 34.9904C584.551 34.9922 578.018 34.994 571.485 34.9957Z" fill="#48964E"/>
    <path d="M703.477 34.994C726.783 49.3467 740.366 48.8083 748.64 44.9801C759.428 39.9895 761.813 29.122 774.613 24.9106C784.975 21.5015 795.456 24.6605 802.943 28.0599C808.95 28.0605 814.957 28.0611 820.964 28.0617C789.526 7.85254 773.908 8.26014 765.463 13.4001C755.427 19.5093 753.178 33.732 739.786 37.3065C732.496 39.2524 725.544 37.0715 720.901 34.9957L703.477 34.994Z" fill="#48964E"/>
    <path d="M809.739 34.9931C815.789 39.6486 825.205 45.3044 836.74 45.2753C856.236 45.2261 864.499 28.9799 885.881 23.2873C895.544 20.7146 910.126 19.7014 930.432 28.0634C933.816 28.0668 937.197 28.2545 940.56 28.6259C943.741 28.9771 946.679 29.4677 949.349 30.0243C907.174 3.31469 886.881 4.6651 876.141 11.039C865.409 17.4079 857.069 33.0336 838.068 35.5356C833.569 36.1108 829.005 35.9274 824.567 34.9931H809.739Z" fill="#48964E"/>
    <path d="M934.578 35.0669C941.184 39.498 948.55 42.6711 956.308 44.4268C966.959 46.7913 978.032 46.4488 988.515 43.4307C979.796 43.5594 971.095 42.5926 962.617 40.553C959.399 39.7762 956.383 38.8836 953.578 37.9281C947.375 36.2526 941 35.2927 934.578 35.0669V35.0669Z" fill="#48964E"/>
    <path d="M101.41 35.4049C107.838 38.3593 117.566 41.6527 128.908 40.4695C152.537 38.0046 160.464 18.4851 181.344 14.1011C191.498 11.969 206.67 13.0066 227.939 28.0634C226.906 28.0455 225.873 28.0276 224.84 28.0096C205.872 15.3877 191.931 14.5197 182.672 16.0932C160.602 19.8442 152.632 39.5941 129.016 42.2109C116.358 43.6135 105.462 39.3998 98.4163 35.7755L101.41 35.4049Z" fill="#76B779"/>
    <path d="M95.3166 29.1536C85.4727 25.4876 74.7352 24.9591 64.5788 27.6407C59.6373 29.0252 51.9161 31.1809 46.4277 38.2288C39.199 47.5115 40.6058 58.6408 41.0045 61.2498C40.6717 58.7011 39.5176 47.6986 46.8534 38.7216C52.3326 32.0165 60.2123 29.9397 64.8739 28.7106C73.9135 26.4301 83.4148 26.7632 92.2725 29.671C93.2873 29.4985 94.302 29.326 95.3166 29.1536Z" fill="#76B779"/>
    <path d="M237.66 34.9822C252 39.4528 273.205 43.7283 297.002 38.7822C330.164 31.8895 340.922 12.7916 368.942 7.64488C385.526 4.5989 410.17 6.06968 443.834 28.0613L439.167 28.0649C408.29 9.14931 385.263 7.9398 369.975 10.3011C340.724 14.8192 329.915 33.9371 297.666 40.8482C271.862 46.3781 248.691 40.5865 233.399 34.9946C234.82 34.9905 236.24 34.9864 237.66 34.9822Z" fill="#76B779"/>
    <path d="M444.941 34.9911C452.929 40.0391 465.38 46.0803 479.841 44.6481C504.225 42.2331 513.083 20.6748 537.726 17.8641C546.079 16.9113 558.71 17.8317 575.226 28.0738L578.428 28.0634C560.424 15.2718 546.765 13.8309 537.394 15.0971C514.299 18.2174 505.779 39.3249 480.948 41.9918C467.881 43.3952 456.562 39.0193 448.925 35.0007C447.597 34.9975 446.269 34.9943 444.941 34.9911Z" fill="#76B779"/>
    <path d="M578.18 34.9873C595.154 43.6952 608.029 44.0214 616.418 42.8772C642.702 39.292 652.867 17.4572 676.737 17.5321C689.165 17.5711 699.182 23.5302 705.283 28.0599C706.237 28.0611 707.192 28.0623 708.147 28.0634C694.849 16.8455 684.006 14.7085 676.848 14.6545C653.408 14.4776 643.263 36.4358 616.085 40.3317C601.595 42.4089 589.063 38.3766 581.209 34.9905L578.18 34.9873Z" fill="#76B779"/>
    <path d="M710.788 34.9947C718.061 40.2465 728.459 45.7932 739.491 43.7627C755.801 40.7608 759.939 23.6929 776.605 19.5981C783.78 17.8351 794.553 18.163 809.897 28.0606L812.55 28.0609C794.731 15.2624 782.829 14.6367 774.981 16.9418C759.326 21.5405 755.487 39.0733 739.159 41.8811C729.507 43.5409 720.566 39.1829 714.295 34.9957C713.126 34.9953 711.957 34.995 710.788 34.9947Z" fill="#76B779"/>
    <path d="M814.955 34.9931C819.827 38.1992 827.321 42.0445 836.555 42.2132C858.284 42.6099 867.535 22.245 889.127 16.9787C899.452 14.4606 914.822 14.852 936.534 28.2863C937.876 28.3995 939.218 28.5127 940.56 28.6259C915.515 11.7737 898.952 11.6916 888.574 14.5438C868.698 20.0065 859.238 39.606 836.888 39.6676C830.25 39.6106 823.717 38.0112 817.804 34.9957C816.854 34.9949 815.905 34.994 814.955 34.9931Z" fill="#76B779"/>
    <path d="M942.44 35.713C946.569 38.605 951.123 40.8354 955.939 42.3239C963.469 44.634 970.024 44.5734 970.051 44.3714C965.338 43.7267 960.69 42.6713 956.161 41.2171C952.256 39.881 948.499 38.1504 944.945 36.0521C944.11 35.9391 943.275 35.826 942.44 35.713Z" fill="#76B779"/>
    <path d="M988.516 31.625C991.866 32.7213 994.959 34.4872 997.606 36.8153C1000.25 39.1435 1002.4 41.9854 1003.92 45.1684C1005.43 48.3515 1006.28 51.8094 1006.42 55.3321C1006.56 58.8548 1005.98 62.3688 1004.72 65.6609L1003.26 63.7362C1005.12 57.5054 1004.64 50.8135 1001.93 44.9062C999.217 38.9989 994.45 34.2789 988.516 31.625V31.625Z" fill="#76B779"/>
    <path d="M1000.89 72.2494C1000.26 82.8465 1002.22 93.4377 1006.61 103.106C1014.89 120.768 1027.3 124.15 1031.79 138.06C1034.42 146.21 1034.63 158.89 1022.75 178.194L1022.75 180.961C1037.32 159.553 1037.47 145.875 1034.56 137.175C1030.09 123.821 1017.69 120.015 1008.88 100.872C1005.12 92.5861 1002.93 83.6724 1002.43 74.5864C1001.92 73.8074 1001.4 73.0284 1000.89 72.2494Z" fill="#76B779"/>
    <path d="M1015.82 184.986C1013.41 189.821 1010.25 197.931 1011.24 207.509C1013.17 226.011 1028.77 232.242 1032.34 249.345C1033.89 256.745 1033.67 268.5 1022.75 285.279V288.046C1036.28 269.414 1036.85 256.783 1034.85 248.681C1030.95 232.842 1015.36 226.727 1013.09 207.878C1012.36 201.084 1013.32 194.215 1015.89 187.882L1015.82 184.986Z" fill="#76B779"/>
    <path d="M1015.82 292.088C1009.52 300.359 1009.12 306.243 1009.77 309.963C1011.78 321.512 1026.15 324.672 1027.58 336.083C1028.33 342.038 1025.19 347.305 1022.75 350.54L1022.75 351.993C1029 345.097 1029.85 339.901 1029.47 336.415C1028.21 325.102 1012.73 321.778 1010.98 309.852C1010.1 303.818 1013.13 298.335 1015.81 294.662L1015.82 292.088Z" fill="#76B779"/>
    <path d="M1015.82 354.877C1009.05 365.795 1009 373.435 1010.13 378.341C1013.12 391.204 1026.44 394.586 1028.43 407.117C1029.67 414.86 1025.9 421.893 1022.75 426.431V429.613C1031.05 419.546 1031.86 412.226 1031.16 407.486C1029.35 395.193 1016.11 391.535 1012.94 377.603C1011.09 369.49 1013.6 362.01 1015.82 357.202L1015.82 354.877Z" fill="#76B779"/>
    <path d="M1015.82 431.54C1008.4 442.61 1008.31 450.201 1009.4 454.93C1012.39 467.942 1027.27 472.146 1027.7 484.296C1027.89 489.927 1024.89 494.552 1022.75 497.237L1022.75 499.561C1026.34 495.827 1030.01 490.629 1029.76 484.592C1029.27 472.672 1013.94 468.563 1011.09 454.856C1010.08 449.965 1010.53 443.248 1015.82 434.381V431.54Z" fill="#76B779"/>
    <path d="M1015.82 501.71C1012.2 505.779 1008.04 511.875 1008.73 518.754C1009.91 530.546 1024.14 533.781 1028.14 546.46C1029.93 552.144 1030.12 561.166 1021.39 575.016L1020.97 577.285C1032.6 561.775 1032.9 552.126 1030.91 546.128C1027.02 534.456 1012.63 531.24 1011.32 519.049C1010.67 513.035 1013.52 507.801 1015.82 504.514V501.71Z" fill="#76B779"/>
    <path d="M1013.28 579.796C1009.56 584.263 1006.96 589.556 1005.71 595.232C1003.78 604.436 1007.17 608.128 1004.05 616.335C1002.26 621.337 998.873 625.614 994.418 628.509C990.52 630.91 986.009 632.127 981.432 632.014C986.042 632.394 990.662 631.406 994.713 629.173C999.559 626.322 1003.26 621.875 1005.19 616.593C1008.15 608.792 1005.06 604.977 1007.15 595.343C1008.18 590.641 1010.06 586.164 1012.68 582.125L1013.28 579.796Z" fill="#76B779"/>
    <path d="M997.001 639.983C997.064 640.333 990.231 642.707 981.801 642.934C972.39 643.188 966.73 640.613 962.47 639.688C942.876 635.435 931.042 661.361 907.498 664.948C898.802 666.273 885.711 664.976 867.933 651.561L872.47 651.556C887.78 663.167 899.182 664.259 906.393 663.447C930.198 660.764 941.56 633.571 961.584 637.474C966.077 638.35 970.601 640.712 979.883 641.164C989.645 641.638 996.936 639.623 997.001 639.983Z" fill="#76B779"/>
    <path d="M859.281 644.664C846.215 639.293 824.975 632.842 800.917 637.437C768.848 643.563 757.616 664.379 727.649 667.652C715.114 669.021 695.5 667.736 669.584 651.59L674.313 651.588C685.418 658.133 703.568 666.516 724.992 664.553C755.92 661.72 767.454 639.729 798.925 633.453C812.761 630.694 834.433 630.178 864.262 644.667L859.281 644.664Z" fill="#76B779"/>
    <path d="M664.037 644.687C651.154 638.458 640.62 637.651 632.355 638.876C610.917 642.054 603.216 659.13 583.214 660.348C572.328 661.011 562.681 656.679 555.065 651.586L558.275 651.567C563.675 654.63 572.348 658.476 582.771 657.913C602.953 656.821 610.581 640.23 630.473 636.441C638.605 634.893 651.06 635.05 668.132 644.663L664.037 644.687Z" fill="#76B779"/>
    <path d="M549.273 644.651C527.307 632.848 512.883 633.741 503.748 636.773C488.389 641.872 482.538 654.828 465.564 656.917C455.012 658.215 445.881 654.611 440.071 651.584H443.613C450.165 654.716 457.453 655.987 464.678 655.257C482.171 653.136 488.125 638.533 502.641 633.066C511.819 629.609 527.077 628.802 552.323 644.651L549.273 644.651Z" fill="#76B779"/>
    <path d="M436.493 644.699C425.159 635.342 416.761 634.257 411.147 635.039C396.579 637.07 392.128 652.885 376.026 656.068C366.737 657.905 358.204 654.622 352.47 651.582L349.186 651.586C361.832 658.828 370.85 658.786 376.542 657.618C392.27 654.389 397.166 639.573 412.18 637.991C421.167 637.044 428.928 641.349 433.652 644.656L436.493 644.699Z" fill="#76B779"/>
    <path d="M343.431 644.659C338.235 642.102 329.583 638.814 319.691 640.37C302.42 643.088 297.038 658.106 281.064 660.569C274.988 661.506 265.331 660.943 252.012 651.579L255.498 651.583C261.237 655.047 270.054 659.071 280.068 657.747C296.509 655.573 301.906 640.871 318.473 638.046C324.612 637 333.915 637.306 346.475 644.657L343.431 644.659Z" fill="#76B779"/>
    <path d="M247.944 644.659C242.921 641.619 235.444 638.27 227.644 640.094C217.346 642.502 214.939 651.951 204.641 655.533C199.415 657.351 191.182 657.998 178.634 651.591L180.69 651.591C186.805 654.03 195.311 656.168 203.756 653.264C214.324 649.631 216.651 640.901 226.316 638.323C231.472 636.947 239.267 637.176 250.6 644.659H247.944Z" fill="#76B779"/>
    <path d="M175.127 644.655C166.239 639.155 160.08 639.111 156.054 640.149C146.567 642.594 143.858 652.346 133.808 653.984C129.396 654.556 124.916 653.716 121.011 651.586L118.41 651.588C125.345 655.862 130.57 656.207 134.25 655.533C144.054 653.738 146.739 644.014 156.829 641.754C162.921 640.389 168.708 642.419 172.988 644.655H175.127Z" fill="#76B779"/>
    <path d="M113.48 644.655C100.881 635.725 91.215 634.611 84.6115 635.335C72.9818 636.61 67.4532 643.96 59.0088 641.91C50.9137 639.944 46.2258 630.817 43.6255 623.984L45.2295 625.576C47.9039 631.28 52.4117 638.401 59.5984 640.094C68.0881 642.094 73.6296 634.944 84.0212 633.269C91.1383 632.121 101.672 633.358 116.069 644.659L113.48 644.655Z" fill="#76B779"/>
    <path d="M45.3947 615.708C45.0881 611.126 43.8752 604.984 39.3443 600.729C31.9806 593.815 21.6086 597.29 17.4301 591.064C15.7766 588.6 14.7741 584.141 18.4904 575.414C18.619 576.098 18.7476 576.782 18.8762 577.465C17.2405 581.599 15.9684 586.871 18.4262 590.621C22.453 596.765 32.7686 593.143 40.1559 599.475C43.5126 602.352 46.5171 607.5 46.7931 617.26C46.3269 616.743 45.8608 616.225 45.3947 615.708Z" fill="#76B779"/>
    <path d="M24.5268 568.625C30.162 559.396 29.8583 553.748 28.4981 550.279C25.3032 542.13 14.6377 541.809 12.2285 534.009C10.5307 528.513 13.9363 522.549 17.0605 518.385L17.0599 520.986C15.0043 524.117 12.5216 529.002 13.8887 533.788C16.1854 541.828 27.2139 542.118 30.4903 549.892C32.0261 553.536 32.2451 559.742 24.7703 570.615L24.5268 568.625Z" fill="#76B779"/>
    <path d="M23.9953 513.617C27.8755 508.27 32.3656 500.169 30.8774 491.398C28.516 477.48 13.1496 473.942 9.84868 459.745C8.55174 454.166 8.79197 445.544 17.0539 433.163L17.0567 436.816C13.8065 442.419 10.3749 450.579 12.2283 459.246C15.3588 473.887 30.8827 477.417 33.3124 490.9C34.2914 496.333 33.3423 504.481 23.9962 515.83L23.9953 513.617Z" fill="#76B779"/>
    <path d="M23.988 426.901C27.3632 419.487 31.1935 407.891 28.0553 395.533C22.9748 375.526 3.68733 369.495 3.33731 353.254C3.21836 347.736 5.24812 339.291 17.0605 328.665V331.654C12.0455 336.702 6.43261 344.146 6.53759 353.096C6.7293 369.433 25.7937 375.553 30.7854 394.5C32.8484 402.331 32.9075 413.871 24.0156 430.083C24.0064 429.022 23.9972 427.962 23.988 426.901Z" fill="#76B779"/>
    <path d="M23.9905 324.704C33.2303 315.786 34.4586 308.487 34.4746 304.519C34.4839 302.232 34.1044 297.556 21.7467 278.953C12.5361 265.087 9.34731 262.567 8.90803 256.485C8.33732 248.583 12.9183 241.727 17.0604 237.043V240.621C14.4346 244.232 11.4841 249.592 11.7857 255.932C12.1126 262.803 16.0477 266.351 23.4068 276.85C32.9915 290.523 37.7838 297.36 37.7949 304.519C37.8022 309.238 35.9793 317.228 23.9907 327.001L23.9905 324.704Z" fill="#76B779"/>
    <path d="M23.983 231.693C32.8396 219.498 34.1486 209.883 33.7368 203.397C32.2586 180.113 6.81403 168.925 9.46152 148.722C10.3857 142.973 13.0399 137.642 17.0706 133.439C17.0637 134.7 17.0569 135.96 17.0501 137.22C14.3672 140.553 12.5691 144.509 11.8226 148.722C8.587 168.77 34.9489 180.476 36.9096 202.806C37.5484 210.082 35.8002 220.798 23.9847 234.682L23.983 231.693Z" fill="#76B779"/>
    <path d="M23.9916 129.261C32.5178 118.862 37.3702 105.938 37.7949 92.4977C38.0244 81.6522 35.3223 70.9457 29.9737 61.508C36.3822 70.5914 39.9282 81.3835 40.1561 92.4977C40.4759 114.728 26.8922 129.321 23.9897 132.305L23.9916 129.261Z" fill="#76B779"/>
    <path d="M230.213 213.572C231.383 214.185 233.172 215.128 235.369 216.309C238.331 217.901 239.423 218.522 239.629 219.664C239.69 220.002 239.677 220.404 238.792 222.356C237.526 225.148 236.706 226.402 236.706 226.403C235.924 227.61 231.002 235.209 230.022 234.672C229.88 234.594 229.644 234.249 232.27 225.932C232.95 223.777 233.535 221.997 233.944 220.767C232.94 220.316 231.875 219.786 230.771 219.163C229.058 218.197 227.573 217.186 226.306 216.221L230.213 213.572V213.572Z" fill="#B23030"/>
    <path d="M180.545 213.745C179.376 214.358 177.587 215.3 175.389 216.482C172.427 218.074 171.336 218.695 171.129 219.836C171.068 220.175 171.081 220.577 171.967 222.529C173.233 225.321 174.053 226.575 174.053 226.575C174.835 227.783 179.757 235.382 180.736 234.845C180.878 234.767 181.114 234.422 178.489 226.105C177.809 223.95 177.224 222.17 176.814 220.94C177.819 220.489 178.883 219.959 179.987 219.336C181.7 218.369 183.186 217.359 184.453 216.393L180.545 213.745V213.745Z" fill="#B23030"/>
    <path d="M239.188 207.39C242.283 207.901 244.554 208.267 245.737 208.457C249.861 209.12 251.144 209.378 251.798 210.479C252.177 211.117 252.213 211.823 251.676 214.517C251.033 217.748 250.711 219.364 249.885 221.499C248.515 225.038 245.912 230.201 245.064 229.904C244.369 229.66 245.084 225.829 246.212 219.785C246.751 216.9 247.27 214.536 247.636 212.946C245.958 212.87 244.196 212.745 242.361 212.556C240.09 212.323 237.947 212.017 235.942 211.667L239.188 207.39H239.188Z" fill="#B23030"/>
    <path d="M170.055 207.253C166.96 207.764 164.689 208.131 163.506 208.321C159.383 208.984 158.1 209.242 157.445 210.342C157.066 210.98 157.031 211.686 157.567 214.381C158.211 217.612 158.533 219.227 159.359 221.363C160.729 224.902 163.331 230.065 164.18 229.767C164.875 229.524 164.16 225.693 163.031 219.649C162.493 216.763 161.974 214.4 161.608 212.809C163.286 212.734 165.047 212.608 166.883 212.42C169.154 212.186 171.297 211.881 173.301 211.531L170.055 207.253H170.055Z" fill="#B23030"/>
    <path d="M243.188 199.302C246.049 198.015 248.144 197.064 249.235 196.568C253.038 194.839 254.25 194.344 255.402 194.899C256.07 195.221 256.489 195.79 257.528 198.333C258.667 201.122 259.36 202.63 259.885 205.144C260.384 207.532 261.124 212.505 260.234 212.773C259.358 213.038 257.261 208.644 255.879 205.748C254.708 203.294 253.887 201.21 253.367 199.802C251.835 200.444 250.272 201.126 248.681 201.853C246.652 202.78 244.706 203.72 242.841 204.664C242.957 202.877 243.072 201.089 243.188 199.302V199.302Z" fill="#B23030"/>
    <path d="M166.004 199.394C163.142 198.107 161.047 197.156 159.956 196.66C156.154 194.931 154.942 194.436 153.789 194.991C153.121 195.313 152.702 195.882 151.663 198.425C150.524 201.214 149.831 202.722 149.306 205.236C148.807 207.624 148.068 212.597 148.958 212.865C149.833 213.13 151.93 208.736 153.312 205.84C154.484 203.386 155.304 201.302 155.824 199.894C157.356 200.536 158.92 201.218 160.51 201.945C162.539 202.872 164.486 203.812 166.35 204.756C166.235 202.969 166.119 201.181 166.004 199.394V199.394Z" fill="#B23030"/>
    <path d="M250.905 161.939C250.392 163.749 249.335 166.436 247.071 168.88C245.105 171.001 242.91 172.206 241.745 172.834C240.846 173.319 240.057 173.666 239.473 173.903L242.331 177.354C243.14 177.144 244.247 176.79 245.479 176.17C248.513 174.643 250.249 172.538 251.024 171.578C253.334 168.717 254.266 165.786 254.67 164.039L250.905 161.939V161.939Z" fill="#B23030"/>
    <path d="M158.308 160.348C158.821 162.158 159.878 164.845 162.142 167.288C164.107 169.41 166.303 170.615 167.468 171.243C168.367 171.727 169.156 172.075 169.74 172.312L166.882 175.763C166.073 175.553 164.965 175.198 163.734 174.579C160.7 173.052 158.963 170.946 158.189 169.986C155.879 167.125 154.947 164.195 154.543 162.448L158.308 160.348V160.348Z" fill="#C13838"/>
    <path d="M158.308 160.348C158.821 162.158 159.878 164.845 162.142 167.288C164.107 169.41 166.303 170.615 167.468 171.243C168.367 171.727 169.156 172.075 169.74 172.312L166.882 175.763C166.073 175.553 164.965 175.198 163.734 174.579C160.7 173.052 158.963 170.946 158.189 169.986C155.879 167.125 154.947 164.195 154.543 162.448L158.308 160.348V160.348Z" fill="#B23030"/>
    <path d="M130.307 152.564C131.038 154.16 134.586 161.901 142.872 164.134C149.011 165.788 154.191 163.46 156.546 162.401C159.066 161.268 164.512 158.821 167.139 152.952C170.457 145.539 166.83 138.14 165.725 135.887C161.894 128.074 154.954 124.818 152.774 123.899C152.415 127.067 151.787 130.717 150.698 134.69C149.803 137.959 148.755 140.867 147.698 143.39C145.074 142.65 142.046 141.6 138.797 140.087C135.2 138.412 132.2 136.574 129.794 134.885C129.176 136.559 126.521 144.302 130.307 152.564Z" fill="#C13838"/>
    <path d="M278.906 154.155C278.175 155.752 274.627 163.493 266.341 165.725C260.202 167.379 255.022 165.051 252.667 163.993C250.147 162.86 244.701 160.413 242.074 154.543C238.756 147.13 242.383 139.732 243.488 137.479C247.319 129.665 254.259 126.409 256.439 125.49C256.798 128.658 257.426 132.308 258.515 136.281C259.41 139.55 260.458 142.459 261.515 144.981C264.139 144.241 267.167 143.191 270.416 141.678C274.013 140.004 277.013 138.165 279.419 136.477C280.037 138.151 282.692 145.893 278.906 154.155L278.906 154.155Z" fill="#C13838"/>
    <path d="M278.906 154.155C278.906 154.155 278.582 154.88 278.202 155.592C276.251 159.253 273.772 161.527 273.771 161.527C273.241 162.014 270.281 164.673 266.341 165.725C264.696 166.165 263.11 166.264 262.948 166.273C262.621 166.292 261.612 166.34 260.294 166.217C259.968 166.186 258.577 166.047 256.676 165.513C256.187 165.375 254.744 164.952 252.667 163.993C250.598 163.037 247.894 161.788 245.466 159.395C244.342 158.286 243.655 157.305 243.428 156.972C242.797 156.045 242.364 155.195 242.074 154.543C243.67 156.23 247.25 159.545 252.875 161.16C259.956 163.194 265.817 161.252 268.096 160.461C273.911 158.443 277.616 154.915 279.412 152.931C279.286 153.264 279.118 153.681 278.906 154.155V154.155Z" fill="#B23030"/>
    <path d="M202.441 140.646C202.414 142.151 202.275 146.293 199.16 149.947C195.035 154.787 189.088 154.786 188.338 154.773C184.064 154.7 181.038 152.653 179.75 151.626C179.033 151.054 174.364 147.203 174.234 140.646C174.211 139.503 174.251 134.47 178.214 130.505C182.068 126.649 186.889 126.549 188.338 126.519C189.902 126.487 194.795 126.385 198.601 130.086C202.566 133.94 202.47 139.118 202.441 140.646V140.646Z" fill="#C13838"/>
    <path d="M208.12 140.251C208.148 141.756 208.287 145.898 211.401 149.553C215.526 154.392 221.474 154.391 222.224 154.378C226.498 154.305 229.523 152.258 230.812 151.231C231.529 150.66 236.197 146.808 236.328 140.251C236.35 139.108 236.311 134.076 232.348 130.111C228.493 126.254 223.672 126.154 222.224 126.124C220.66 126.092 215.766 125.991 211.96 129.691C207.996 133.545 208.092 138.723 208.12 140.251V140.251Z" fill="#C13838"/>
    <path d="M248.223 190.896C248.186 192.11 247.832 200.193 242.242 207.337C231.488 221.079 209.949 220.373 203.096 220.148C196.695 219.938 175.924 219.257 165.752 205.339C164.648 203.829 160.87 198.516 160.496 190.896C159.982 180.439 166.239 172.977 168.193 170.85C178.311 159.837 194.362 159.839 203.448 159.84C211.228 159.841 233.042 159.843 243.111 173.972C248.397 181.391 248.261 189.638 248.223 190.896V190.896Z" fill="#C13838"/>
    <path d="M186.513 154.206C186.659 155.532 186.733 157.123 186.614 158.913C186.475 160.997 186.111 162.792 185.717 164.225L191.499 164.201C191.099 162.755 190.729 161.051 190.496 159.124C190.273 157.277 190.221 155.601 190.255 154.15L186.513 154.206L186.513 154.206Z" fill="#C13838"/>
    <path d="M224.179 153.905C224.033 155.231 223.959 156.822 224.078 158.612C224.217 160.697 224.581 162.491 224.975 163.925L219.194 163.9C219.593 162.455 219.963 160.75 220.196 158.823C220.419 156.977 220.471 155.301 220.437 153.85L224.179 153.905L224.179 153.905Z" fill="#C13838"/>
    <path d="M248.223 190.896C248.182 192.311 247.845 200.129 242.242 207.337C235.255 216.326 224.796 218.299 219.134 219.367C213.751 220.383 208.901 220.276 203.096 220.148C202.599 220.137 196.953 219.997 191.599 219.116C188.767 218.65 186.133 217.996 184.813 217.607C184.067 217.387 183.174 217.107 183.174 217.107C182.118 216.775 181.033 216.417 180.524 216.238C178.215 215.424 177.039 214.748 176.433 214.35C176.405 214.332 176.132 214.14 176.13 214.138C178.644 214.918 182.283 215.817 186.755 216.129C189.619 216.329 191.796 216.216 193.365 216.129C193.916 216.099 200.636 215.7 206.724 214.031C221.566 209.962 230.742 200.184 230.742 200.184C240.168 190.139 242.452 178.642 243.111 173.972C244.526 175.989 248.476 182.172 248.223 190.896L248.223 190.896Z" fill="#B23030"/>
    <path d="M226.447 130.466C225.339 130.008 222.267 128.792 218.605 129.914C213.755 131.399 211.864 135.761 211.635 136.315C210.328 139.473 210.862 142.342 211.203 143.614C211.392 144.322 212.722 148.971 217.474 151.152C218.302 151.532 221.993 153.104 226.152 151.46C230.197 149.86 231.804 146.356 232.287 145.303C232.808 144.167 234.439 140.61 232.945 136.642C231.389 132.509 227.573 130.932 226.447 130.466Z" fill="white"/>
    <path d="M199.738 142.201C199.84 141.003 200.071 137.703 197.898 134.544C195.022 130.361 190.299 129.871 189.703 129.819C186.303 129.524 183.733 130.899 182.625 131.608C182.009 132.003 177.984 134.675 177.341 139.871C177.229 140.776 176.846 144.775 179.666 148.251C182.409 151.631 186.229 152.109 187.377 152.252C188.616 152.407 192.493 152.892 195.82 150.268C199.285 147.535 199.635 143.416 199.738 142.201Z" fill="white"/>
    <path d="M224.226 135.412C223.623 135.163 221.954 134.502 219.964 135.111C217.328 135.919 216.3 138.289 216.175 138.59C215.465 140.306 215.756 141.866 215.941 142.557C216.044 142.942 216.767 145.469 219.349 146.654C219.799 146.861 221.805 147.715 224.066 146.821C226.264 145.952 227.137 144.048 227.4 143.475C227.683 142.858 228.569 140.925 227.757 138.768C226.911 136.522 224.838 135.665 224.226 135.412V135.412Z" fill="#5E1111"/>
    <path d="M190.686 135.695C190.083 135.446 188.414 134.785 186.424 135.395C183.788 136.202 182.76 138.573 182.635 138.874C181.925 140.59 182.216 142.15 182.401 142.841C182.504 143.225 183.227 145.752 185.809 146.938C186.259 147.144 188.265 147.999 190.525 147.105C192.724 146.235 193.597 144.331 193.859 143.759C194.143 143.141 195.029 141.208 194.217 139.051C193.371 136.805 191.298 135.948 190.686 135.695V135.695Z" fill="#5E1111"/>
    <path d="M220.99 137.659C221 137.433 221.017 136.811 220.583 136.234C220.009 135.471 219.117 135.416 219.004 135.411C218.363 135.383 217.89 135.662 217.687 135.804C217.575 135.883 216.839 136.418 216.76 137.4C216.746 137.571 216.706 138.326 217.264 138.957C217.806 139.571 218.528 139.631 218.745 139.648C218.98 139.668 219.713 139.728 220.317 139.208C220.947 138.666 220.98 137.889 220.99 137.659H220.99Z" fill="white"/>
    <path d="M187.266 138.136C187.275 137.91 187.293 137.288 186.859 136.711C186.285 135.947 185.393 135.893 185.28 135.888C184.639 135.86 184.166 136.139 183.963 136.281C183.851 136.36 183.115 136.895 183.036 137.877C183.022 138.048 182.981 138.803 183.539 139.434C184.082 140.048 184.804 140.107 185.021 140.125C185.256 140.144 185.988 140.205 186.593 139.685C187.223 139.143 187.256 138.366 187.266 138.136H187.266Z" fill="white"/>
    <path d="M165.003 147.525L165.311 147.402C165.492 147.303 165.899 147.049 166.188 146.544C166.51 145.983 166.497 145.446 166.481 145.244C166.414 143.546 166.078 140.843 164.648 137.917C163.831 136.244 162.875 134.944 162.048 133.992C161.868 133.776 161.46 133.345 160.849 133.128C160.657 133.06 160.359 132.957 159.979 133.014C159.86 133.031 159.74 133.063 159.624 133.11L159.315 133.233C159.277 133.243 158.629 133.434 158.438 134.091C158.308 134.537 158.439 135.023 158.778 135.349C159.672 136.419 160.856 138.083 161.754 140.35C162.746 142.857 162.987 145.086 163.031 146.548C163.048 146.625 163.189 147.212 163.777 147.507C164.373 147.806 164.933 147.557 165.003 147.525L165.003 147.525Z" fill="#DB8282"/>
    <path d="M156.024 132.285C156.683 132.992 157.789 133.03 158.495 132.37C159.2 131.71 159.238 130.602 158.579 129.895L158.263 129.556C157.604 128.85 156.498 128.812 155.792 129.472C155.087 130.132 155.049 131.24 155.708 131.946L156.024 132.285Z" fill="#DB8282"/>
    <path d="M244.265 148.726L243.954 148.608C243.772 148.513 243.361 148.267 243.061 147.767C242.729 147.212 242.732 146.675 242.744 146.473C242.78 144.774 243.064 142.065 244.438 139.112C245.224 137.424 246.156 136.106 246.964 135.139C247.141 134.92 247.54 134.481 248.147 134.253C248.337 134.181 248.634 134.072 249.014 134.122C249.134 134.137 249.254 134.167 249.372 134.211L249.683 134.329C249.72 134.338 250.372 134.516 250.576 135.17C250.714 135.613 250.592 136.102 250.26 136.434C249.386 137.521 248.233 139.207 247.379 141.491C246.434 144.016 246.235 146.249 246.218 147.712C246.203 147.789 246.073 148.378 245.49 148.684C244.901 148.994 244.336 148.757 244.265 148.726V148.726Z" fill="#DB8282"/>
    <path d="M253.265 132.974C253.91 132.255 253.852 131.148 253.134 130.502C252.416 129.855 251.311 129.914 250.666 130.632L250.356 130.978C249.71 131.696 249.769 132.803 250.487 133.45C251.204 134.096 252.309 134.038 252.955 133.319L253.265 132.974Z" fill="#DB8282"/>
    <path d="M130.314 152.598C130.315 152.599 130.639 153.323 131.018 154.035C132.97 157.696 135.449 159.97 135.449 159.97C135.98 160.457 138.94 163.116 142.88 164.169C144.524 164.608 146.111 164.707 146.272 164.716C146.599 164.735 147.608 164.784 148.927 164.66C149.253 164.63 150.644 164.491 152.545 163.956C153.034 163.818 154.477 163.396 156.554 162.436C158.623 161.48 161.326 160.231 163.754 157.838C164.871 156.737 165.537 155.794 165.792 155.416C166.42 154.485 166.843 153.632 167.121 152.987C165.53 154.672 161.959 157.987 156.345 159.603C149.273 161.64 143.415 159.699 141.124 158.904C135.31 156.887 131.604 153.358 129.808 151.374C129.935 151.707 130.102 152.124 130.314 152.599L130.314 152.598Z" fill="#B23030"/>
    <path d="M192.478 169.414C192.61 169.275 197.538 176.892 204.358 176.788C211.013 176.687 215.612 169.293 215.731 169.414C215.852 169.539 211.555 177.723 204.257 177.805C196.848 177.888 192.344 169.555 192.478 169.414Z" fill="#5E1111"/>
    <path d="M496.086 581.17C497.256 581.783 499.044 582.726 501.242 583.907C504.204 585.499 505.296 586.12 505.502 587.262C505.563 587.6 505.55 588.002 504.665 589.954C503.399 592.746 502.579 594 502.579 594.001C501.797 595.208 496.875 602.807 495.895 602.27C495.753 602.192 495.517 601.847 498.143 593.53C498.823 591.375 499.408 589.595 499.817 588.365C498.813 587.914 497.748 587.384 496.644 586.761C494.931 585.795 493.445 584.785 492.178 583.819L496.086 581.17V581.17Z" fill="#B23030"/>
    <path d="M446.418 581.343C445.248 581.956 443.46 582.898 441.262 584.08C438.3 585.672 437.209 586.293 437.002 587.435C436.941 587.773 436.954 588.175 437.839 590.127C439.105 592.919 439.925 594.173 439.925 594.173C440.708 595.381 445.63 602.98 446.609 602.443C446.751 602.365 446.987 602.02 444.362 593.703C443.682 591.548 443.097 589.768 442.687 588.538C443.692 588.087 444.756 587.557 445.86 586.934C447.573 585.968 449.059 584.957 450.326 583.992L446.418 581.343V581.343Z" fill="#B23030"/>
    <path d="M505.061 574.988C508.156 575.499 510.427 575.865 511.61 576.055C515.733 576.718 517.016 576.976 517.671 578.077C518.05 578.715 518.086 579.421 517.549 582.115C516.906 585.346 516.584 586.962 515.757 589.097C514.388 592.636 511.785 597.799 510.937 597.502C510.242 597.258 510.957 593.427 512.085 587.383C512.624 584.498 513.143 582.134 513.509 580.544C511.83 580.468 510.069 580.343 508.233 580.154C505.963 579.921 503.82 579.615 501.815 579.265L505.061 574.988H505.061Z" fill="#B23030"/>
    <path d="M435.928 574.851C432.833 575.362 430.562 575.729 429.379 575.919C425.256 576.582 423.973 576.84 423.318 577.941C422.939 578.578 422.903 579.284 423.44 581.979C424.084 585.21 424.405 586.826 425.232 588.961C426.602 592.5 429.204 597.663 430.052 597.365C430.748 597.122 430.032 593.291 428.904 587.247C428.365 584.361 427.846 581.998 427.48 580.407C429.159 580.332 430.92 580.206 432.756 580.018C435.026 579.784 437.169 579.479 439.174 579.129L435.928 574.851H435.928Z" fill="#B23030"/>
    <path d="M509.06 566.9C511.922 565.613 514.017 564.662 515.108 564.166C518.911 562.437 520.122 561.942 521.275 562.497C521.943 562.819 522.362 563.388 523.401 565.931C524.54 568.72 525.233 570.229 525.758 572.742C526.257 575.13 526.997 580.103 526.107 580.371C525.231 580.636 523.134 576.242 521.752 573.346C520.581 570.892 519.76 568.808 519.24 567.4C517.708 568.042 516.145 568.724 514.554 569.451C512.525 570.378 510.578 571.318 508.714 572.262C508.829 570.475 508.945 568.687 509.06 566.9V566.9Z" fill="#B23030"/>
    <path d="M431.877 566.992C429.015 565.705 426.92 564.754 425.829 564.258C422.026 562.529 420.815 562.034 419.662 562.589C418.994 562.911 418.575 563.48 417.536 566.023C416.397 568.812 415.704 570.32 415.179 572.834C414.68 575.222 413.94 580.195 414.83 580.463C415.706 580.728 417.803 576.334 419.185 573.438C420.356 570.984 421.177 568.9 421.697 567.492C423.229 568.134 424.792 568.816 426.383 569.543C428.412 570.47 430.359 571.41 432.223 572.354C432.108 570.567 431.992 568.779 431.877 566.992V566.992Z" fill="#B23030"/>
    <path d="M516.778 529.537C516.265 531.347 515.208 534.034 512.944 536.478C510.978 538.599 508.783 539.804 507.618 540.432C506.718 540.917 505.93 541.264 505.345 541.501L508.204 544.952C509.013 544.742 510.12 544.388 511.352 543.768C514.386 542.241 516.122 540.136 516.897 539.176C519.207 536.315 520.139 533.384 520.543 531.637L516.778 529.537V529.537Z" fill="#B23030"/>
    <path d="M424.18 527.946C424.693 529.756 425.751 532.443 428.015 534.887C429.98 537.008 432.176 538.213 433.341 538.841C434.24 539.325 435.029 539.673 435.613 539.91L432.754 543.361C431.946 543.151 430.838 542.797 429.607 542.177C426.573 540.65 424.836 538.544 424.061 537.584C421.752 534.723 420.819 531.793 420.416 530.046L424.18 527.946V527.946Z" fill="#C13838"/>
    <path d="M424.18 527.946C424.693 529.756 425.751 532.443 428.015 534.887C429.98 537.008 432.176 538.213 433.341 538.841C434.24 539.325 435.029 539.673 435.613 539.91L432.754 543.361C431.946 543.151 430.838 542.797 429.607 542.177C426.573 540.65 424.836 538.544 424.061 537.584C421.752 534.723 420.819 531.793 420.416 530.046L424.18 527.946V527.946Z" fill="#B23030"/>
    <path d="M396.18 520.162C396.911 521.758 400.458 529.499 408.745 531.732C414.884 533.386 420.064 531.058 422.419 529.999C424.939 528.867 430.384 526.419 433.012 520.55C436.33 513.137 432.703 505.739 431.598 503.485C427.767 495.672 420.827 492.416 418.647 491.497C418.288 494.665 417.659 498.315 416.571 502.288C415.676 505.557 414.628 508.465 413.57 510.988C410.946 510.248 407.919 509.198 404.669 507.685C401.073 506.01 398.073 504.172 395.667 502.483C395.048 504.157 392.393 511.9 396.18 520.162Z" fill="#C13838"/>
    <path d="M544.779 521.753C544.048 523.35 540.5 531.091 532.214 533.323C526.075 534.977 520.895 532.649 518.54 531.591C516.019 530.458 510.574 528.011 507.947 522.141C504.629 514.728 508.256 507.33 509.361 505.077C513.191 497.263 520.131 494.007 522.312 493.088C522.671 496.256 523.299 499.907 524.388 503.879C525.283 507.148 526.331 510.057 527.388 512.579C530.012 511.839 533.04 510.789 536.289 509.276C539.885 507.602 542.885 505.764 545.292 504.075C545.91 505.749 548.565 513.491 544.779 521.753L544.779 521.753Z" fill="#C13838"/>
    <path d="M544.779 521.753C544.779 521.753 544.455 522.478 544.075 523.19C542.123 526.851 539.644 529.125 539.644 529.125C539.113 529.612 536.154 532.271 532.214 533.323C530.569 533.763 528.983 533.862 528.821 533.871C528.494 533.89 527.485 533.938 526.166 533.815C525.84 533.784 524.45 533.645 522.549 533.111C522.059 532.973 520.617 532.55 518.54 531.591C516.47 530.635 513.767 529.386 511.339 526.993C510.214 525.884 509.528 524.903 509.301 524.57C508.67 523.643 508.237 522.793 507.947 522.141C509.543 523.828 513.123 527.143 518.748 528.758C525.829 530.792 531.69 528.85 533.969 528.059C539.784 526.041 543.489 522.513 545.285 520.529C545.159 520.862 544.991 521.279 544.779 521.753V521.753Z" fill="#B23030"/>
    <path d="M468.314 508.244C468.286 509.749 468.147 513.891 465.033 517.545C460.908 522.385 454.961 522.384 454.21 522.371C449.937 522.298 446.911 520.251 445.622 519.224C444.906 518.653 440.237 514.801 440.107 508.244C440.084 507.101 440.124 502.068 444.086 498.103C447.941 494.247 452.762 494.147 454.21 494.117C455.774 494.085 460.668 493.983 464.474 497.684C468.438 501.538 468.342 506.716 468.314 508.244V508.244Z" fill="#C13838"/>
    <path d="M473.993 507.849C474.021 509.354 474.159 513.496 477.274 517.151C481.399 521.99 487.346 521.989 488.097 521.976C492.37 521.903 495.396 519.856 496.684 518.829C497.401 518.258 502.07 514.406 502.2 507.849C502.223 506.706 502.183 501.674 498.221 497.709C494.366 493.852 489.545 493.752 488.097 493.722C486.533 493.69 481.639 493.589 477.833 497.289C473.869 501.143 473.964 506.321 473.993 507.849V507.849Z" fill="#C13838"/>
    <path d="M514.095 558.494C514.059 559.708 513.705 567.791 508.114 574.935C497.361 588.677 475.821 587.971 468.969 587.746C462.568 587.536 441.797 586.855 431.624 572.938C430.521 571.427 426.743 566.114 426.369 558.494C425.855 548.037 432.111 540.575 434.066 538.448C444.184 527.435 460.235 527.437 469.321 527.438C477.101 527.439 498.915 527.441 508.983 541.57C514.27 548.989 514.133 557.236 514.095 558.494V558.494Z" fill="#C13838"/>
    <path d="M452.386 521.804C452.532 523.13 452.606 524.721 452.487 526.511C452.348 528.595 451.984 530.39 451.59 531.823L457.371 531.799C456.972 530.353 456.602 528.649 456.369 526.722C456.146 524.875 456.094 523.199 456.128 521.748L452.386 521.804L452.386 521.804Z" fill="#C13838"/>
    <path d="M490.052 521.503C489.906 522.829 489.831 524.42 489.951 526.21C490.09 528.295 490.454 530.089 490.848 531.523L485.066 531.498C485.466 530.053 485.836 528.348 486.069 526.421C486.292 524.575 486.344 522.899 486.31 521.448L490.052 521.503L490.052 521.503Z" fill="#C13838"/>
    <path d="M514.096 558.494C514.055 559.909 513.717 567.727 508.115 574.935C501.128 583.924 490.669 585.897 485.007 586.966C479.624 587.981 474.774 587.874 468.969 587.746C468.471 587.735 462.826 587.595 457.472 586.714C454.639 586.248 452.005 585.594 450.686 585.205C449.94 584.985 449.047 584.705 449.047 584.705C447.991 584.373 446.905 584.015 446.397 583.836C444.088 583.022 442.912 582.346 442.306 581.948C442.278 581.93 442.005 581.738 442.003 581.736C444.516 582.516 448.156 583.415 452.628 583.727C455.492 583.927 457.669 583.814 459.238 583.727C459.789 583.697 466.508 583.298 472.597 581.629C487.439 577.56 496.615 567.782 496.615 567.782C506.041 557.737 508.325 546.24 508.984 541.57C510.399 543.587 514.349 549.77 514.096 558.494L514.096 558.494Z" fill="#B23030"/>
    <path d="M492.32 498.064C491.211 497.606 488.14 496.39 484.477 497.512C479.628 498.997 477.737 503.359 477.507 503.913C476.201 507.071 476.735 509.941 477.076 511.212C477.265 511.92 478.595 516.569 483.347 518.75C484.175 519.13 487.866 520.702 492.025 519.058C496.07 517.458 497.677 513.954 498.159 512.901C498.681 511.765 500.312 508.209 498.817 504.24C497.261 500.107 493.446 498.53 492.32 498.064Z" fill="white"/>
    <path d="M465.611 509.799C465.713 508.602 465.943 505.301 463.771 502.142C460.894 497.959 456.172 497.469 455.576 497.417C452.176 497.122 449.605 498.497 448.498 499.206C447.881 499.601 443.857 502.273 443.214 507.469C443.102 508.374 442.719 512.373 445.539 515.849C448.282 519.229 452.101 519.707 453.249 519.85C454.488 520.005 458.366 520.49 461.692 517.866C465.157 515.133 465.508 511.014 465.611 509.799Z" fill="white"/>
    <path d="M490.099 503.01C489.496 502.761 487.826 502.1 485.836 502.71C483.2 503.517 482.173 505.887 482.048 506.189C481.338 507.905 481.628 509.464 481.813 510.155C481.916 510.54 482.639 513.067 485.222 514.252C485.672 514.459 487.678 515.313 489.938 514.419C492.136 513.55 493.01 511.646 493.272 511.074C493.555 510.456 494.442 508.523 493.63 506.366C492.784 504.12 490.71 503.263 490.099 503.01V503.01Z" fill="#5E1111"/>
    <path d="M456.559 503.293C455.956 503.044 454.287 502.383 452.296 502.993C449.661 503.8 448.633 506.171 448.508 506.472C447.798 508.188 448.088 509.748 448.274 510.439C448.377 510.823 449.099 513.35 451.682 514.536C452.132 514.742 454.138 515.597 456.398 514.703C458.597 513.833 459.47 511.929 459.732 511.357C460.016 510.739 460.902 508.806 460.09 506.65C459.244 504.403 457.171 503.546 456.559 503.293V503.293Z" fill="#5E1111"/>
    <path d="M486.863 505.257C486.872 505.031 486.89 504.409 486.456 503.832C485.882 503.069 484.99 503.014 484.877 503.009C484.235 502.981 483.763 503.26 483.56 503.402C483.448 503.481 482.712 504.016 482.632 504.998C482.619 505.169 482.578 505.924 483.136 506.556C483.679 507.169 484.401 507.229 484.618 507.246C484.852 507.266 485.585 507.326 486.19 506.806C486.82 506.264 486.853 505.487 486.863 505.257H486.863Z" fill="white"/>
    <path d="M453.139 505.734C453.148 505.508 453.165 504.886 452.732 504.309C452.157 503.545 451.266 503.491 451.153 503.486C450.511 503.458 450.039 503.737 449.836 503.879C449.723 503.958 448.988 504.493 448.908 505.475C448.894 505.646 448.854 506.401 449.412 507.032C449.955 507.646 450.677 507.705 450.894 507.723C451.128 507.742 451.861 507.803 452.466 507.283C453.096 506.741 453.129 505.964 453.139 505.734H453.139Z" fill="white"/>
    <path d="M430.875 515.123L431.184 515C431.365 514.901 431.771 514.647 432.061 514.142C432.383 513.581 432.37 513.044 432.354 512.842C432.286 511.144 431.951 508.441 430.521 505.515C429.704 503.842 428.747 502.542 427.921 501.59C427.74 501.374 427.333 500.943 426.722 500.726C426.53 500.658 426.231 500.555 425.852 500.612C425.732 500.629 425.613 500.661 425.496 500.708L425.188 500.831C425.15 500.841 424.502 501.032 424.31 501.689C424.181 502.135 424.312 502.621 424.651 502.947C425.545 504.017 426.729 505.681 427.626 507.949C428.619 510.455 428.86 512.684 428.904 514.146C428.921 514.223 429.061 514.81 429.65 515.105C430.245 515.404 430.806 515.156 430.875 515.123L430.875 515.123Z" fill="#DB8282"/>
    <path d="M421.897 499.883C422.556 500.59 423.662 500.628 424.368 499.968C425.073 499.308 425.111 498.2 424.452 497.493L424.135 497.154C423.476 496.448 422.37 496.41 421.665 497.07C420.96 497.73 420.922 498.838 421.581 499.544L421.897 499.883Z" fill="#DB8282"/>
    <path d="M510.138 516.324L509.827 516.206C509.645 516.111 509.233 515.865 508.934 515.365C508.602 514.81 508.605 514.273 508.617 514.071C508.652 512.372 508.937 509.663 510.311 506.71C511.097 505.022 512.029 503.705 512.837 502.737C513.013 502.518 513.412 502.079 514.019 501.851C514.21 501.779 514.507 501.67 514.887 501.72C515.007 501.735 515.127 501.765 515.245 501.809L515.556 501.927C515.593 501.936 516.245 502.114 516.449 502.768C516.587 503.211 516.464 503.7 516.132 504.032C515.258 505.119 514.106 506.805 513.251 509.089C512.307 511.614 512.107 513.847 512.091 515.31C512.076 515.387 511.946 515.976 511.363 516.282C510.773 516.592 510.208 516.355 510.138 516.324V516.324Z" fill="#DB8282"/>
    <path d="M519.137 500.572C519.783 499.853 519.724 498.746 519.007 498.1C518.289 497.453 517.184 497.512 516.538 498.231L516.229 498.576C515.583 499.294 515.642 500.401 516.359 501.048C517.077 501.695 518.182 501.636 518.828 500.917L519.137 500.572Z" fill="#DB8282"/>
    <path d="M396.187 520.197C396.187 520.197 396.512 520.921 396.891 521.633C398.843 525.294 401.322 527.568 401.322 527.568C401.853 528.055 404.813 530.714 408.753 531.767C410.397 532.206 411.983 532.305 412.145 532.314C412.472 532.333 413.481 532.382 414.8 532.258C415.126 532.228 416.516 532.089 418.417 531.554C418.907 531.416 420.35 530.994 422.427 530.034C424.496 529.078 427.199 527.829 429.627 525.436C430.744 524.335 431.41 523.392 431.665 523.014C432.293 522.083 432.715 521.23 432.994 520.585C431.403 522.27 427.832 525.585 422.218 527.201C415.146 529.238 409.288 527.297 406.997 526.502C401.183 524.485 397.477 520.956 395.681 518.972C395.808 519.305 395.975 519.722 396.187 520.197L396.187 520.197Z" fill="#B23030"/>
    <path d="M458.351 537.012C458.483 536.873 463.411 544.49 470.231 544.386C476.886 544.285 481.485 536.891 481.603 537.012C481.725 537.137 477.428 545.321 470.129 545.403C462.721 545.486 458.217 537.153 458.351 537.012Z" fill="#5E1111"/>
    <path d="M810.51 341.885C811.679 342.498 813.468 343.44 815.666 344.621C818.628 346.214 819.719 346.835 819.926 347.976C819.987 348.315 819.974 348.717 819.088 350.669C817.822 353.46 817.002 354.715 817.002 354.715C816.22 355.923 811.298 363.521 810.319 362.984C810.177 362.906 809.941 362.561 812.566 354.244C813.246 352.09 813.831 350.31 814.241 349.08C813.236 348.628 812.171 348.099 811.068 347.476C809.355 346.509 807.869 345.499 806.602 344.533L810.51 341.885V341.885Z" fill="#B23030"/>
    <path d="M760.842 342.058C759.672 342.67 757.883 343.613 755.686 344.794C752.724 346.387 751.632 347.008 751.426 348.149C751.364 348.487 751.378 348.89 752.263 350.842C753.529 353.633 754.349 354.888 754.349 354.888C755.131 356.096 760.053 363.694 761.033 363.157C761.175 363.079 761.411 362.734 758.785 354.417C758.105 352.263 757.52 350.482 757.111 349.253C758.115 348.801 759.18 348.272 760.284 347.649C761.997 346.682 763.482 345.672 764.749 344.706L760.842 342.058V342.058Z" fill="#B23030"/>
    <path d="M819.485 335.702C822.579 336.213 824.851 336.58 826.033 336.77C830.157 337.432 831.44 337.691 832.094 338.791C832.474 339.429 832.509 340.135 831.972 342.83C831.329 346.061 831.007 347.676 830.181 349.811C828.811 353.351 826.208 358.514 825.36 358.216C824.665 357.972 825.38 354.142 826.508 348.098C827.047 345.212 827.566 342.849 827.932 341.258C826.254 341.182 824.492 341.057 822.657 340.868C820.386 340.635 818.243 340.33 816.238 339.98L819.485 335.702H819.485Z" fill="#B23030"/>
    <path d="M750.351 335.566C747.257 336.077 744.985 336.443 743.803 336.634C739.679 337.296 738.396 337.554 737.742 338.655C737.363 339.293 737.327 339.999 737.864 342.693C738.507 345.924 738.829 347.54 739.655 349.675C741.025 353.215 743.628 358.378 744.476 358.08C745.171 357.836 744.456 354.005 743.328 347.962C742.789 345.076 742.27 342.712 741.904 341.122C743.582 341.046 745.344 340.921 747.179 340.732C749.45 340.499 751.593 340.193 753.598 339.844L750.351 335.566H750.351Z" fill="#B23030"/>
    <path d="M823.484 327.614C826.346 326.328 828.441 325.377 829.532 324.881C833.334 323.151 834.546 322.656 835.699 323.212C836.367 323.534 836.786 324.103 837.825 326.645C838.964 329.435 839.657 330.943 840.182 333.457C840.681 335.844 841.42 340.817 840.53 341.086C839.655 341.35 837.558 336.957 836.176 334.06C835.004 331.606 834.184 329.523 833.664 328.114C832.132 328.756 830.569 329.439 828.978 330.165C826.949 331.092 825.002 332.033 823.138 332.977C823.253 331.189 823.369 329.402 823.484 327.614V327.614Z" fill="#B23030"/>
    <path d="M746.3 327.706C743.439 326.42 741.343 325.469 740.253 324.973C736.45 323.243 735.238 322.748 734.086 323.304C733.418 323.625 732.999 324.195 731.96 326.737C730.82 329.527 730.128 331.035 729.602 333.548C729.104 335.936 728.364 340.909 729.254 341.178C730.129 341.442 732.226 337.049 733.609 334.152C734.78 331.698 735.601 329.615 736.121 328.206C737.653 328.848 739.216 329.531 740.807 330.257C742.835 331.184 744.782 332.124 746.647 333.068C746.531 331.281 746.416 329.494 746.3 327.706V327.706Z" fill="#B23030"/>
    <path d="M831.202 290.252C830.689 292.062 829.631 294.749 827.367 297.192C825.402 299.314 823.206 300.519 822.041 301.147C821.142 301.631 820.353 301.979 819.769 302.216L822.628 305.667C823.436 305.457 824.544 305.102 825.775 304.483C828.809 302.956 830.546 300.85 831.321 299.89C833.63 297.029 834.563 294.098 834.966 292.352L831.202 290.252V290.252Z" fill="#B23030"/>
    <path d="M738.604 288.66C739.117 290.47 740.174 293.157 742.439 295.601C744.404 297.722 746.599 298.927 747.764 299.555C748.664 300.04 749.452 300.387 750.037 300.624L747.178 304.075C746.369 303.865 745.262 303.511 744.03 302.891C740.996 301.365 739.26 299.259 738.485 298.299C736.175 295.438 735.243 292.507 734.839 290.76L738.604 288.66V288.66Z" fill="#C13838"/>
    <path d="M738.604 288.66C739.117 290.47 740.174 293.157 742.439 295.601C744.404 297.722 746.599 298.927 747.764 299.555C748.664 300.04 749.452 300.387 750.037 300.624L747.178 304.075C746.369 303.865 745.262 303.511 744.03 302.891C740.996 301.365 739.26 299.259 738.485 298.299C736.175 295.438 735.243 292.507 734.839 290.76L738.604 288.66V288.66Z" fill="#B23030"/>
    <path d="M710.603 280.876C711.335 282.473 714.882 290.214 723.168 292.447C729.307 294.101 734.488 291.772 736.842 290.714C739.363 289.581 744.808 287.134 747.435 281.264C750.754 273.851 747.126 266.453 746.022 264.2C742.191 256.386 735.251 253.13 733.071 252.211C732.712 255.379 732.083 259.03 730.995 263.002C730.099 266.271 729.051 269.18 727.994 271.702C725.37 270.962 722.342 269.912 719.093 268.399C715.497 266.725 712.497 264.887 710.09 263.198C709.472 264.872 706.817 272.614 710.603 280.876Z" fill="#C13838"/>
    <path d="M859.202 282.468C858.471 284.064 854.923 291.805 846.637 294.038C840.498 295.692 835.318 293.364 832.963 292.305C830.443 291.172 824.997 288.725 822.37 282.856C819.052 275.443 822.679 268.044 823.784 265.791C827.615 257.978 834.555 254.721 836.735 253.803C837.094 256.971 837.723 260.621 838.811 264.594C839.706 267.863 840.754 270.771 841.811 273.294C844.436 272.554 847.463 271.504 850.713 269.991C854.309 268.316 857.309 266.478 859.715 264.789C860.334 266.463 862.989 274.206 859.202 282.468L859.202 282.468Z" fill="#C13838"/>
    <path d="M859.202 282.468C859.202 282.468 858.878 283.193 858.498 283.904C856.547 287.566 854.068 289.84 854.068 289.84C853.537 290.327 850.577 292.985 846.637 294.038C844.993 294.477 843.406 294.576 843.245 294.585C842.917 294.604 841.908 294.653 840.59 294.529C840.264 294.499 838.873 294.36 836.972 293.825C836.483 293.687 835.04 293.265 832.963 292.305C830.894 291.349 828.191 290.1 825.763 287.707C824.638 286.598 823.951 285.618 823.724 285.285C823.093 284.358 822.661 283.507 822.37 282.856C823.966 284.542 827.547 287.858 833.171 289.473C840.253 291.506 846.113 289.564 848.392 288.773C854.207 286.756 857.912 283.227 859.709 281.243C859.582 281.576 859.415 281.994 859.202 282.468V282.468Z" fill="#B23030"/>
    <path d="M782.738 268.958C782.71 270.463 782.571 274.605 779.456 278.26C775.331 283.099 769.384 283.098 768.634 283.085C764.36 283.012 761.335 280.965 760.046 279.938C759.329 279.367 754.661 275.515 754.53 268.958C754.508 267.816 754.547 262.783 758.51 258.818C762.365 254.962 767.185 254.862 768.634 254.832C770.198 254.799 775.092 254.698 778.898 258.398C782.862 262.253 782.766 267.43 782.738 268.958V268.958Z" fill="#C13838"/>
    <path d="M788.416 268.564C788.444 270.069 788.583 274.211 791.698 277.865C795.823 282.705 801.77 282.703 802.52 282.691C806.794 282.618 809.819 280.57 811.108 279.544C811.825 278.972 816.494 275.121 816.624 268.564C816.646 267.421 816.607 262.388 812.644 258.423C808.79 254.567 803.969 254.467 802.52 254.437C800.956 254.404 796.062 254.303 792.256 258.004C788.292 261.858 788.388 267.036 788.416 268.564V268.564Z" fill="#C13838"/>
    <path d="M828.519 319.208C828.482 320.423 828.129 328.505 822.538 335.65C811.784 349.391 790.245 348.685 783.392 348.461C776.991 348.251 756.22 347.57 746.048 333.652C744.944 332.142 741.166 326.828 740.792 319.208C740.278 308.751 746.535 301.29 748.489 299.162C758.608 288.15 774.658 288.152 783.745 288.152C791.525 288.153 813.338 288.156 823.407 302.285C828.694 309.703 828.557 317.95 828.519 319.208V319.208Z" fill="#C13838"/>
    <path d="M766.809 282.518C766.955 283.844 767.03 285.435 766.911 287.225C766.772 289.31 766.407 291.104 766.014 292.538L771.795 292.513C771.396 291.068 771.026 289.363 770.793 287.436C770.57 285.59 770.518 283.914 770.551 282.463L766.809 282.518L766.809 282.518Z" fill="#C13838"/>
    <path d="M804.476 282.218C804.33 283.544 804.255 285.135 804.375 286.925C804.513 289.009 804.878 290.804 805.272 292.237L799.49 292.213C799.89 290.767 800.26 289.063 800.492 287.136C800.716 285.289 800.768 283.613 800.734 282.162L804.476 282.218L804.476 282.218Z" fill="#C13838"/>
    <path d="M828.519 319.208C828.478 320.624 828.141 328.441 822.538 335.649C815.551 344.638 805.093 346.612 799.43 347.68C794.048 348.696 789.197 348.589 783.393 348.461C782.895 348.45 777.249 348.31 771.895 347.429C769.063 346.963 766.429 346.309 765.109 345.919C764.364 345.699 763.471 345.419 763.471 345.419C762.414 345.087 761.329 344.73 760.82 344.55C758.511 343.736 757.335 343.061 756.73 342.662C756.702 342.644 756.428 342.453 756.427 342.451C758.94 343.23 762.58 344.13 767.052 344.442C769.915 344.641 772.092 344.528 773.661 344.442C774.212 344.411 780.932 344.013 787.02 342.344C801.863 338.275 811.039 328.496 811.039 328.496C820.464 318.452 822.748 306.955 823.407 302.285C824.822 304.301 828.773 310.485 828.519 319.208L828.519 319.208Z" fill="#B23030"/>
    <path d="M806.744 258.779C805.635 258.321 802.563 257.105 798.901 258.226C794.051 259.712 792.16 264.073 791.931 264.628C790.625 267.785 791.159 270.655 791.499 271.927C791.689 272.634 793.019 277.283 797.77 279.465C798.599 279.845 802.29 281.417 806.449 279.772C810.494 278.172 812.1 274.669 812.583 273.616C813.104 272.479 814.735 268.923 813.241 264.954C811.685 260.821 807.87 259.244 806.744 258.779Z" fill="white"/>
    <path d="M780.034 270.513C780.136 269.316 780.367 266.016 778.195 262.857C775.318 258.673 770.596 258.183 769.999 258.131C766.599 257.836 764.029 259.212 762.921 259.921C762.305 260.315 758.281 262.988 757.637 268.183C757.525 269.089 757.142 273.088 759.962 276.563C762.705 279.944 766.525 280.421 767.673 280.565C768.912 280.72 772.789 281.205 776.116 278.581C779.581 275.848 779.931 271.729 780.034 270.513Z" fill="white"/>
    <path d="M804.522 263.724C803.92 263.475 802.25 262.814 800.26 263.424C797.624 264.231 796.596 266.602 796.472 266.903C795.762 268.619 796.052 270.179 796.237 270.87C796.34 271.254 797.063 273.781 799.645 274.967C800.095 275.173 802.102 276.028 804.362 275.134C806.56 274.264 807.433 272.36 807.696 271.788C807.979 271.17 808.866 269.237 808.054 267.081C807.208 264.834 805.134 263.977 804.522 263.724V263.724Z" fill="#5E1111"/>
    <path d="M770.982 264.008C770.38 263.759 768.71 263.098 766.72 263.707C764.084 264.515 763.056 266.885 762.932 267.186C762.222 268.902 762.512 270.462 762.697 271.153C762.8 271.538 763.523 274.065 766.105 275.25C766.555 275.457 768.562 276.311 770.822 275.417C773.02 274.548 773.893 272.644 774.156 272.071C774.439 271.454 775.326 269.521 774.514 267.364C773.668 265.118 771.594 264.261 770.982 264.008V264.008Z" fill="#5E1111"/>
    <path d="M801.286 265.972C801.296 265.746 801.313 265.123 800.879 264.547C800.305 263.783 799.413 263.729 799.3 263.724C798.659 263.695 798.186 263.975 797.984 264.117C797.871 264.196 797.135 264.73 797.056 265.713C797.042 265.884 797.002 266.639 797.56 267.27C798.102 267.884 798.825 267.943 799.042 267.961C799.276 267.98 800.009 268.04 800.613 267.52C801.243 266.979 801.276 266.201 801.286 265.972H801.286Z" fill="white"/>
    <path d="M767.562 266.449C767.572 266.223 767.589 265.6 767.155 265.024C766.581 264.26 765.689 264.205 765.576 264.2C764.935 264.172 764.462 264.451 764.259 264.593C764.147 264.673 763.411 265.207 763.332 266.189C763.318 266.361 763.278 267.116 763.836 267.747C764.378 268.361 765.1 268.42 765.317 268.438C765.552 268.457 766.285 268.517 766.889 267.997C767.519 267.456 767.552 266.678 767.562 266.449H767.562Z" fill="white"/>
    <path d="M745.299 275.838L745.608 275.714C745.788 275.616 746.195 275.362 746.485 274.857C746.807 274.295 746.793 273.759 746.778 273.556C746.71 271.859 746.374 269.156 744.944 266.229C744.127 264.556 743.171 263.256 742.344 262.304C742.164 262.089 741.757 261.657 741.145 261.441C740.953 261.373 740.655 261.27 740.275 261.326C740.156 261.344 740.037 261.376 739.92 261.422L739.611 261.546C739.574 261.556 738.925 261.746 738.734 262.403C738.604 262.85 738.736 263.336 739.074 263.662C739.968 264.732 741.152 266.395 742.05 268.663C743.042 271.169 743.283 273.399 743.327 274.861C743.344 274.938 743.485 275.524 744.073 275.819C744.669 276.118 745.229 275.87 745.299 275.838L745.299 275.838Z" fill="#DB8282"/>
    <path d="M736.321 260.598C736.98 261.305 738.086 261.342 738.791 260.682C739.497 260.022 739.534 258.914 738.875 258.208L738.559 257.869C737.9 257.162 736.794 257.124 736.089 257.784C735.383 258.445 735.346 259.552 736.005 260.259L736.321 260.598Z" fill="#DB8282"/>
    <path d="M824.562 277.038L824.251 276.921C824.068 276.826 823.657 276.579 823.358 276.08C823.025 275.525 823.029 274.988 823.04 274.785C823.076 273.087 823.361 270.378 824.735 267.425C825.52 265.737 826.452 264.419 827.261 263.451C827.437 263.233 827.836 262.793 828.443 262.565C828.634 262.493 828.93 262.385 829.311 262.434C829.431 262.45 829.55 262.479 829.668 262.524L829.979 262.641C830.017 262.651 830.669 262.829 830.872 263.482C831.011 263.926 830.888 264.414 830.556 264.747C829.682 265.834 828.53 267.519 827.675 269.803C826.73 272.328 826.531 274.562 826.515 276.024C826.499 276.101 826.37 276.691 825.787 276.997C825.197 277.307 824.632 277.069 824.562 277.038V277.038Z" fill="#DB8282"/>
    <path d="M833.561 261.286C834.207 260.568 834.148 259.461 833.43 258.814C832.713 258.168 831.608 258.226 830.962 258.945L830.652 259.29C830.007 260.009 830.065 261.116 830.783 261.762C831.501 262.409 832.606 262.35 833.251 261.631L833.561 261.286Z" fill="#DB8282"/>
    <path d="M710.611 280.911C710.611 280.911 710.935 281.636 711.315 282.348C713.266 286.009 715.745 288.283 715.745 288.283C716.276 288.77 719.236 291.428 723.176 292.481C724.821 292.921 726.407 293.019 726.569 293.029C726.896 293.047 727.905 293.096 729.223 292.973C729.549 292.942 730.94 292.803 732.841 292.268C733.33 292.131 734.773 291.708 736.85 290.748C738.919 289.792 741.623 288.543 744.051 286.15C745.167 285.05 745.833 284.107 746.089 283.728C746.717 282.797 747.139 281.944 747.418 281.299C745.826 282.985 742.255 286.299 736.642 287.916C729.57 289.953 723.712 288.011 721.421 287.217C715.606 285.199 711.901 281.67 710.104 279.686C710.231 280.02 710.399 280.437 710.611 280.911L710.611 280.911Z" fill="#B23030"/>
    <path d="M772.774 297.727C772.907 297.588 777.835 305.204 784.655 305.101C791.31 304.999 795.908 297.605 796.027 297.727C796.149 297.851 791.852 306.036 784.553 306.118C777.145 306.201 772.641 297.868 772.774 297.727Z" fill="#5E1111"/>
</svg>
