<svg width="67" height="143" viewBox="0 0 67 143" fill="none" xmlns="http://www.w3.org/2000/svg">
<path d="M33.9897 53.374H31.5465V143H33.9897V53.374Z" fill="#016634"/>
<path d="M33.8361 0.00711124C35.113 2.14166 36.6894 4.98771 38.3123 8.4101C40.5707 13.2602 42.45 18.277 43.9334 23.4159C45.7595 29.6346 46.7867 33.185 46.6548 38.1692C46.5549 42.6126 45.6347 45.1029 44.5682 46.9315C43.4012 49.1013 41.6154 50.8772 39.4366 52.0347C37.2577 53.1922 34.7837 53.6795 32.3274 53.4348H32.3488C29.8824 53.5486 27.438 52.9277 25.3267 51.6511C23.2153 50.3745 21.5327 48.4999 20.4931 46.2663C19.5301 44.3807 18.749 41.8406 18.8988 37.4008C19.0664 32.4202 20.272 28.9302 22.4441 22.8147C24.2113 17.7641 26.371 12.8588 28.9034 8.14328C30.9792 4.31533 33.3867 0.672376 33.3867 0.672376L33.8361 0" fill="#DA3A3A"/>
<path d="M33.8361 0.0321368C34.1143 0.170882 31.7639 4.71035 28.9355 11.918C25.7255 20.1004 24.1204 24.2094 23.5141 29.9158C23.0183 34.5975 22.5333 39.8129 25.2974 45.3414C26.945 48.5769 29.3594 51.3624 32.331 53.4562H32.3524C29.8855 53.5681 27.4409 52.946 25.3293 51.6689C23.2177 50.3919 21.5343 48.5176 20.4931 46.2841C19.5301 44.3986 18.749 41.8585 18.8988 37.4187C19.0664 32.4381 20.272 28.9481 22.4441 22.8326C24.2368 17.7944 26.3956 12.8932 28.9034 8.1683C30.9614 4.25497 33.5615 -0.110166 33.8361 0.0321368Z" fill="#9F2D28"/>
<path d="M32.3308 76.7083C31.8136 75.3316 25.5969 67.0389 25.0226 66.4412C23.9526 65.3205 20.9744 62.318 16.8407 61.0586C15.1251 60.5356 13.784 60.4894 12.6783 61.1226C12.4465 61.2542 11.3301 61.9266 11.0555 63.154C10.9556 63.5987 10.813 64.7869 12.3966 66.6867C14.7577 69.5327 18.0783 70.4826 20.8567 71.5072C28.8212 74.4244 32.8444 78.0816 32.3308 76.7083Z" fill="#016634"/>
<path d="M29.8061 74.1898C29.6991 74.2325 27.9121 72.2366 24.456 69.7072C20.6004 66.886 17.4082 65.4061 17.4903 65.342C17.5723 65.278 21.3744 66.8398 24.9803 69.5293C28.1404 71.8738 29.9131 74.1435 29.8061 74.1898Z" fill="#004620"/>
<path d="M32.8733 95.6845C33.2549 93.9484 39.2933 82.9448 39.8711 82.1301C40.9697 80.6075 44.0192 76.4985 48.7593 74.3034C50.7317 73.3856 52.326 73.101 53.7527 73.6702C54.0487 73.7876 55.5039 74.4066 56.0425 75.8296C56.2387 76.3455 56.6167 77.7436 55.0403 80.2944C52.6934 84.0903 48.877 85.8122 45.7241 87.5021C36.6896 92.3653 32.4881 97.4241 32.8733 95.6845Z" fill="#016634"/>
<path d="M35.4691 92.2373C35.6011 92.2693 37.4022 89.5727 41.1187 85.9511C45.2596 81.9132 48.8335 79.5937 48.7265 79.5474C48.6195 79.5012 44.3252 82.0057 40.4446 85.8479C37.0777 89.1778 35.3229 92.2124 35.4691 92.2373Z" fill="#004620"/>
</svg>
