<svg viewBox="0 0 870 540" fill="none" xmlns="http://www.w3.org/2000/svg">
    <rect x="3" y="3" width="864" height="533.4" rx="77" fill="white" stroke="#844EA5" stroke-width="6"/>
    <path d="M458.877 301.223C458.679 298.105 458.499 293.65 458.617 287.999C458.04 287.456 457.463 286.913 456.885 286.371C453.195 286.354 449.944 286.358 447.23 286.371C445.593 286.378 444.712 286.386 442.409 286.399C439.041 286.42 436.056 286.432 433.534 286.441C431.011 286.432 428.028 286.42 424.66 286.399C422.357 286.386 421.476 286.378 419.839 286.371C417.124 286.358 413.873 286.354 410.183 286.371C409.606 286.913 409.028 287.456 408.451 287.999C408.568 293.65 408.39 298.103 408.191 301.223C408.038 303.628 407.801 306.361 408.308 310.114C408.567 312.009 408.972 313.881 409.52 315.714C411.104 320.815 413.695 325.546 417.141 329.626C419.424 332.428 421.998 335.541 426.494 338.122C428.704 339.387 431.07 340.355 433.533 341H433.538C436.001 340.355 438.367 339.387 440.577 338.122C445.073 335.543 447.647 332.43 449.93 329.626C453.376 325.545 455.967 320.814 457.55 315.714C458.099 313.881 458.504 312.009 458.763 310.114C459.266 306.361 459.031 303.628 458.877 301.223Z" fill="#A7A7A3"/>
    <path d="M438.834 215.675H428.038V276.642H438.834V215.675Z" fill="#D3D3D3"/>
    <path d="M438.241 311.079C437.848 312.047 437.356 312.972 436.774 313.839C435.786 315.287 434.732 316.833 433.365 316.809C432.072 316.787 431.125 315.372 430.145 313.909C429.394 312.755 428.789 311.511 428.346 310.207C427.452 307.741 426.846 305.019 426.429 301.157C426.111 298.128 425.969 295.084 426.002 292.038C426.012 285.057 426.041 279.408 426.073 275.197L440.869 275.127C440.752 282.371 440.778 288.061 440.822 291.934C440.903 295.117 440.785 298.303 440.467 301.472C440.151 304.456 439.596 307.831 438.241 311.079Z" fill="#808080"/>
    <path d="M448.678 201.182L446.954 199.141L420.124 199L418.348 200.775C418.33 201.809 418.312 203.327 418.324 205.168C418.353 209.395 418.508 210.039 418.627 210.45C419.233 212.512 420.495 214.321 422.221 215.601C422.693 215.938 423.71 216.594 426.508 217.247C432.375 218.617 437.016 217.864 440.841 217.204C441.944 217.058 443.014 216.722 444.001 216.209C445.786 215.212 447.2 213.662 448.028 211.793C448.582 210.497 448.636 209.006 448.721 206.077C448.781 204.016 448.732 202.321 448.678 201.182ZM443.092 209.21L440.898 211.606L425.714 211.635C425.125 210.951 424.536 210.266 423.947 209.582L423.752 203.985H443.121C443.111 205.726 443.102 207.468 443.092 209.21Z" fill="#808080"/>
</svg>
