<?xml version="1.0" encoding="UTF-8" standalone="no"?>
<svg viewBox="0 0 156 156" fill="none" xmlns="http://www.w3.org/2000/svg">
<rect x="2" y="2" width="152" height="152" rx="30" fill="white" stroke="#834EA5" stroke-width="4"/>
<path d="M121.25 105.583C121.25 93.1529 121.41 92.5196 121.33 85.0776C121.33 76.1314 121.011 70.4312 121.25 63.4642C121.25 62.7517 121.25 62.2767 121.33 61.3267C121.569 51.9846 121.25 50.1637 121.011 49.2137C120.692 47.7886 120.054 46.5219 118.858 43.9885C116.546 39.0008 113.916 35.0423 113.118 33.9339C109.212 28.7087 99.1667 26.1752 89.839 26.2544C85.5339 26.2544 81.3883 26.8086 77.9601 27.8378C74.532 26.8086 70.3864 26.2544 66.0813 26.2544C56.7536 26.1752 46.7084 28.7087 42.8019 33.9339C42.0047 35.0423 39.3738 39.0008 37.0618 43.9885C35.8659 46.4427 35.3079 47.7094 34.9092 49.1345C34.6701 50.1637 34.3512 51.9846 34.5904 61.2475C34.5904 62.1975 34.5904 62.6725 34.6701 63.3851C34.9092 70.352 34.6701 76.1314 34.5904 84.9985C34.5904 92.4404 34.7498 93.0738 34.6701 105.503C34.6701 107.087 34.6701 108.591 34.6701 110.174C34.5904 116.033 34.1917 120.862 34.989 126.8C35.1484 128.067 35.3876 129.334 36.2646 130.679C36.6632 131.234 37.0618 131.709 37.4604 132.105C38.8954 133.846 40.8088 135.034 42.1641 135.113C42.3236 135.113 42.8019 135.113 43.4397 135.113H43.5991H44.3167C44.9545 135.113 45.4328 135.113 45.5922 135.113H110.408C110.567 135.113 111.046 135.113 111.683 135.113H112.401H112.56C113.198 135.113 113.676 135.113 113.836 135.113C115.191 135.034 117.105 133.846 118.54 132.105C119.018 131.709 119.417 131.234 119.735 130.679C120.612 129.334 120.852 128.067 121.011 126.8C121.808 120.862 121.41 116.033 121.33 110.174C121.17 108.67 121.25 107.087 121.25 105.583Z" fill="#C890A7"/>
<path d="M114.314 36.784H41.4466C38.3373 36.784 35.7862 34.2506 35.7862 31.163V25.6211C35.7065 22.5334 38.2576 20 41.4466 20H114.314C117.423 20 119.975 22.5334 119.975 25.6211V31.163C119.975 34.2506 117.423 36.784 114.314 36.784Z" fill="#8A8C95"/>
<path d="M117.344 97.5073C117.344 83.7317 117.503 83.0192 117.423 74.7855C117.423 64.8893 117.184 58.5557 117.344 50.7971C117.344 50.7179 116.387 49.2928 116.148 48.6595C115.67 48.1845 114.872 47.4719 113.836 46.8386C110.328 44.7802 106.422 45.0177 101.718 45.4135C99.7248 45.5719 99.087 45.8094 94.7021 46.2052C91.8321 46.4427 90.7957 46.5219 89.5998 46.4427C87.8459 46.2844 87.6865 46.0469 84.0989 45.4135C80.9896 44.7802 79.3952 44.4635 77.5615 44.4635C75.409 44.3843 73.7348 44.6218 72.0606 44.9385C69.35 45.3343 68.8716 45.8885 66.0813 46.2844C65.284 46.3636 63.849 46.6011 62.0154 46.5219C59.5439 46.4427 58.1886 45.9677 56.4347 45.5719C55.5577 45.4135 49.9771 44.226 44.2369 45.8094C44.2369 45.8094 41.7655 46.5219 40.0116 48.1845C39.6927 48.5011 38.4968 49.6095 38.5765 50.8762C38.736 58.4765 38.4968 64.8893 38.4968 74.7064C38.4968 82.94 38.5765 83.6526 38.5765 97.4281C38.5765 99.1699 38.5765 100.832 38.5765 102.574C38.4968 109.066 38.1779 114.45 38.8157 120.942C38.9752 122.287 39.1346 123.713 39.9318 125.217C40.2507 125.85 40.6494 126.404 41.048 126.8C42.3236 128.779 44.0775 130.046 45.2733 130.125C45.3531 130.125 45.8314 130.125 46.3895 130.125H46.5489H47.1867C47.7448 130.125 48.1434 130.125 48.3029 130.125H107.299C107.458 130.125 107.857 130.125 108.415 130.125H109.052H109.212C109.77 130.125 110.248 130.125 110.328 130.125C111.604 130.046 113.278 128.779 114.553 126.8C114.952 126.325 115.351 125.771 115.67 125.217C116.467 123.713 116.626 122.287 116.786 120.942C117.503 114.37 117.105 109.066 117.025 102.574C117.264 100.912 117.344 99.1699 117.344 97.5073Z" fill="#B44276"/>
<path d="M110.966 104.87V69.7187C108.096 69.7187 105.784 67.8186 105.784 65.5227H49.977C49.977 67.8186 47.6651 69.7187 44.795 69.7187V104.949C47.6651 104.949 49.977 106.849 49.977 109.145H105.784C105.784 106.77 108.096 104.87 110.966 104.87Z" fill="white"/>
<path opacity="0.39" d="M47.5056 120.862V64.6518C47.5056 62.1975 49.5784 60.1391 52.0498 60.1391C54.5213 60.1391 56.5941 62.1975 56.5941 64.6518V120.942C56.5941 123.396 54.5213 125.454 52.0498 125.454C49.4987 125.375 47.5056 123.396 47.5056 120.862Z" fill="white"/>
<path opacity="0.39" d="M47.5056 51.5888V46.1261C47.5056 43.6718 49.5784 41.6134 52.0498 41.6134C54.5213 41.6134 56.5941 43.6718 56.5941 46.1261V51.5888C56.5941 54.043 54.5213 56.1015 52.0498 56.1015C49.4987 56.1015 47.5056 54.043 47.5056 51.5888Z" fill="white"/>
</svg>
