<svg width="870" height="540" viewBox="0 0 870 540" fill="none" xmlns="http://www.w3.org/2000/svg">
<rect x="2.5" y="2.5" width="865" height="534.4" rx="77.5" fill="#F3F3F3" stroke="#83C1CA" stroke-width="5"/>
<path d="M212.104 398.104C212.92 397.021 210.744 394.99 209.52 391.334C208.908 389.507 208.772 388.153 208.568 385.445C208.296 382.06 207.82 375.154 210.812 367.166C211.356 365.609 213.464 360.329 218.359 354.845C221.419 351.392 228.967 342.862 240.934 341.576C253.65 340.222 263.169 347.94 267.249 351.325C269.289 352.949 280.441 362.427 282.685 377.727C284.248 388.559 280.645 398.172 280.373 398.51C280.373 398.51 280.237 398.713 280.237 398.917C280.237 399.187 280.509 399.39 280.645 399.458C281.121 399.797 282.889 400.338 284.656 399.39C284.792 399.323 285.608 398.849 286.288 397.901C287.036 396.818 287.172 395.735 287.24 395.396C287.988 389.574 289.416 385.919 289.348 381.044C289.212 374.477 286.22 358.975 273.097 347.534C269.561 344.419 260.517 336.499 246.918 336.025C228.491 335.348 216.523 348.684 214.211 351.392C211.696 354.236 204.488 362.495 203.128 375.493C201.836 387.882 206.936 397.766 207.072 397.969C207.072 397.969 207.208 398.172 207.276 398.443C207.344 398.646 207.344 398.713 207.344 398.713C207.548 399.187 209.452 398.917 209.452 398.917C211.016 398.51 211.9 398.375 212.104 398.104Z" fill="#AB6F26"/>
<path d="M206.596 401.015C206.732 402.234 206.324 413.742 209.656 424.777C211.56 431.276 213.532 433.307 214.347 434.12C215.367 435.067 217.067 436.354 221.011 437.843C224.207 438.994 227.947 439.874 240.798 440.551C246.782 440.822 249.842 441.025 254.194 440.822C259.702 440.619 263.101 440.483 267.453 439.332C271.533 438.249 276.225 436.963 279.557 432.901C280.781 431.412 281.325 430.193 282.413 427.756C282.413 427.756 286.832 417.534 286.356 401.218C286.356 400.203 286.22 398.917 286.22 398.917C286.22 398.646 286.152 398.51 286.152 398.443C285.676 397.156 245.218 406.431 218.835 400.88C215.231 400.135 206.528 400 206.528 400.474C206.596 400.744 206.596 400.812 206.596 401.015Z" fill="#AB6F26"/>
<path d="M227.335 398.781C223.663 398.24 221.351 397.901 221.351 397.901C216.319 397.156 216.455 397.156 215.503 397.021C212.987 396.75 211.831 396.818 209.384 396.344C208.024 396.073 207.344 395.938 206.8 395.802C204.692 395.193 203.672 394.448 202.04 394.719C201.564 394.787 201.156 394.922 200.816 395.193C200.272 395.599 200 396.276 200 396.953C200.068 397.698 200.544 398.307 201.156 398.849C204.08 401.218 207.548 401.624 207.548 401.624C213.939 402.369 220.263 403.385 226.655 403.994C231.415 404.468 230.939 404.536 234.475 404.874C242.362 405.551 244.878 405.077 267.453 404.129C272.281 403.926 276.973 402.775 281.8 402.505C281.8 402.505 283.568 402.369 289.008 400.541C289.416 400.406 290.708 399.932 291.388 398.849C291.728 398.24 291.796 397.766 291.796 397.63C291.796 397.495 291.796 396.818 291.388 396.276C290.912 395.667 290.096 395.599 289.552 395.532C286.628 395.329 284.384 396.073 284.384 396.073C281.936 396.886 279.285 396.818 276.769 397.359C270.037 398.781 258.477 399.255 253.854 399.458C243.178 399.797 232.571 399.526 227.335 398.781Z" fill="#CE8F31"/>
<path d="M278.129 406.296C276.973 406.837 275.681 406.905 274.457 407.311C271.261 408.327 265.141 409.004 264.053 409.139C255.894 410.019 247.258 409.613 238.215 409.139C233.863 408.936 231.007 408.665 225.363 408.124C220.671 407.65 219.651 407.447 218.699 407.243C217.475 406.905 216.184 406.905 214.96 406.499C214.552 406.363 213.396 405.889 212.444 406.296C211.9 406.499 211.764 406.77 211.696 406.905C211.696 406.905 211.56 407.311 211.696 407.853C212.172 409.613 216.795 410.019 216.795 410.019C223.187 410.561 229.511 411.847 235.903 411.915C245.354 412.05 250.454 412.592 259.362 412.456C260.722 412.456 263.849 412.389 267.929 411.779C269.969 411.508 271.533 411.238 273.573 410.628C277.109 409.545 280.781 407.785 280.781 407.785C280.781 407.785 281.121 407.311 281.121 406.905C281.121 406.499 280.781 406.025 280.509 405.889C279.897 405.416 279.081 405.889 278.129 406.296Z" fill="#CE8F31"/>
<path d="M255.009 429.448C261.333 429.448 262.285 429.922 268.813 429.448C270.581 429.313 272.893 429.11 275.545 428.772C276.021 428.568 276.293 428.23 276.293 427.824C276.293 427.282 275.681 427.011 275.477 426.876C274.729 426.47 273.845 426.605 273.709 426.605C270.173 427.011 266.501 426.267 262.965 426.537C260.109 426.741 256.029 427.011 250.658 427.079C249.706 427.485 249.638 427.824 249.638 427.959C249.706 428.501 251.134 428.839 252.018 429.042C253.718 429.448 255.009 429.448 255.009 429.448Z" fill="#CE8F31"/>
<path d="M233.251 425.996C232.027 425.996 230.055 425.928 227.471 425.86C227.267 425.928 226.383 426.131 226.315 426.673C226.247 427.282 227.335 427.824 227.675 428.027C229.239 428.839 230.599 428.771 234.543 428.771C235.223 428.771 235.903 428.771 236.651 428.771C238.623 428.771 241.41 428.771 245.082 428.771C245.422 428.568 245.898 428.23 245.83 427.891C245.762 427.418 244.606 427.214 243.994 427.079C237.195 426.064 233.251 425.996 233.251 425.996Z" fill="#CE8F31"/>
<path d="M269.969 419.768C269.493 419.768 268.473 419.768 266.433 419.903C265.345 419.971 263.849 420.038 261.945 420.174C261.877 420.174 261.061 420.309 260.653 419.903C260.381 419.565 260.449 419.023 260.585 418.752C260.993 417.669 263.441 417.669 266.909 417.669C268.269 417.669 270.717 417.669 274.185 417.669C274.253 417.669 274.797 417.534 275.069 417.872C275.341 418.211 275.137 418.82 274.865 419.091C274.525 419.565 273.913 419.565 273.029 419.632C271.261 419.7 270.309 419.768 269.969 419.768Z" fill="#CE8F31"/>
<path d="M243.11 417.872C238.758 418.007 234.406 417.466 230.055 417.33C227.471 417.263 223.595 417.06 218.835 416.857C218.767 416.857 218.155 416.992 217.951 417.466C217.679 417.94 217.883 418.684 218.495 419.091C222.303 419.294 225.363 419.632 227.539 419.835C233.251 420.445 235.086 420.918 239.506 420.986C242.566 421.054 244.946 420.918 246.306 420.783C248.482 420.58 250.454 420.309 251.95 420.106C252.086 420.106 252.562 420.106 252.834 419.768C252.834 419.768 253.038 419.429 252.766 418.82C252.154 417.398 245.558 417.737 243.11 417.872Z" fill="#CE8F31"/>
<path d="M249.366 434.323C248.89 434.323 247.87 434.323 245.83 434.187C244.742 434.12 243.246 434.052 241.342 433.917C241.274 433.917 240.458 433.781 240.05 434.187C239.778 434.526 239.846 435.067 239.982 435.338C240.39 436.421 242.838 436.421 246.306 436.421C247.666 436.421 250.114 436.421 253.582 436.421C253.65 436.421 254.194 436.557 254.466 436.218C254.738 435.88 254.534 435.271 254.262 435C253.922 434.526 253.31 434.526 252.426 434.458C250.59 434.39 249.706 434.323 249.366 434.323Z" fill="#CE8F31"/>
<path d="M69.1036 398.104C69.9195 397.021 67.7436 394.99 66.5197 391.334C65.9077 389.507 65.7717 388.153 65.5677 385.445C65.2957 382.06 64.8198 375.154 67.8116 367.166C68.3556 365.609 70.4635 360.329 75.3593 354.845C78.4192 351.392 85.9668 342.862 97.9343 341.576C110.65 340.222 120.169 347.94 124.249 351.325C126.289 352.949 137.441 362.427 139.685 377.727C141.248 388.559 137.645 398.172 137.373 398.51C137.373 398.51 137.237 398.713 137.237 398.917C137.237 399.187 137.509 399.39 137.645 399.458C138.121 399.797 139.889 400.338 141.656 399.39C141.792 399.323 142.608 398.849 143.288 397.901C144.036 396.818 144.172 395.735 144.24 395.396C144.988 389.574 146.416 385.919 146.348 381.044C146.212 374.477 143.22 358.975 130.097 347.534C126.561 344.419 117.517 336.499 103.918 336.025C85.4909 335.348 73.5234 348.684 71.2115 351.392C68.6956 354.236 61.4879 362.495 60.128 375.493C58.836 387.882 63.9358 397.766 64.0718 397.969C64.0718 397.969 64.2078 398.172 64.2758 398.443C64.3438 398.646 64.3438 398.713 64.3438 398.713C64.5478 399.187 66.4517 398.917 66.4517 398.917C68.0156 398.51 68.8996 398.375 69.1036 398.104Z" fill="#AB6F26"/>
<path d="M63.5958 401.015C63.7318 402.234 63.3238 413.742 66.6557 424.777C68.5596 431.276 70.5315 433.307 71.3475 434.12C72.3674 435.067 74.0674 436.354 78.0112 437.843C81.2071 438.994 84.9469 439.874 97.7983 440.551C103.782 440.822 106.842 441.025 111.194 440.822C116.702 440.619 120.101 440.483 124.453 439.332C128.533 438.249 133.225 436.963 136.557 432.901C137.781 431.412 138.325 430.193 139.413 427.756C139.413 427.756 143.832 417.534 143.356 401.218C143.356 400.203 143.22 398.917 143.22 398.917C143.22 398.646 143.152 398.51 143.152 398.443C142.676 397.156 102.218 406.431 75.8353 400.88C72.2315 400.135 63.5278 400 63.5278 400.474C63.5958 400.744 63.5958 400.812 63.5958 401.015Z" fill="#AB6F26"/>
<path d="M84.3348 398.781C80.663 398.24 78.3511 397.901 78.3511 397.901C73.3193 397.156 73.4553 397.156 72.5033 397.021C69.9874 396.75 68.8315 396.818 66.3836 396.344C65.0237 396.073 64.3437 395.938 63.7997 395.802C61.6918 395.193 60.6718 394.448 59.0399 394.719C58.5639 394.787 58.1559 394.922 57.816 395.193C57.272 395.599 57 396.276 57 396.953C57.068 397.698 57.544 398.307 58.1559 398.849C61.0798 401.218 64.5477 401.624 64.5477 401.624C70.9394 402.369 77.2631 403.385 83.6548 403.994C88.4146 404.468 87.9387 404.536 91.4745 404.874C99.3622 405.551 101.878 405.077 124.453 404.129C129.281 403.926 133.973 402.775 138.8 402.505C138.8 402.505 140.568 402.369 146.008 400.541C146.416 400.406 147.708 399.932 148.388 398.849C148.728 398.24 148.796 397.766 148.796 397.63C148.796 397.495 148.796 396.818 148.388 396.276C147.912 395.667 147.096 395.599 146.552 395.532C143.628 395.329 141.384 396.073 141.384 396.073C138.936 396.886 136.285 396.818 133.769 397.359C127.037 398.781 115.477 399.255 110.854 399.458C100.178 399.797 89.5706 399.526 84.3348 398.781Z" fill="#CE8F31"/>
<path d="M135.129 406.296C133.973 406.837 132.681 406.905 131.457 407.311C128.261 408.327 122.141 409.004 121.053 409.139C112.894 410.019 104.258 409.613 95.2145 409.139C90.8627 408.936 88.0069 408.665 82.3631 408.124C77.6713 407.65 76.6514 407.447 75.6994 407.243C74.4754 406.905 73.1835 406.905 71.9596 406.499C71.5516 406.363 70.3956 405.889 69.4437 406.296C68.8997 406.499 68.7637 406.77 68.6957 406.905C68.6957 406.905 68.5597 407.311 68.6957 407.853C69.1717 409.613 73.7955 410.019 73.7955 410.019C80.1872 410.561 86.5109 411.847 92.9026 411.915C102.354 412.05 107.454 412.592 116.362 412.456C117.722 412.456 120.849 412.389 124.929 411.779C126.969 411.508 128.533 411.238 130.573 410.628C134.109 409.545 137.781 407.785 137.781 407.785C137.781 407.785 138.121 407.311 138.121 406.905C138.121 406.499 137.781 406.025 137.509 405.889C136.897 405.416 136.081 405.889 135.129 406.296Z" fill="#CE8F31"/>
<path d="M112.009 429.448C118.333 429.448 119.285 429.922 125.813 429.448C127.581 429.313 129.893 429.11 132.545 428.772C133.021 428.568 133.293 428.23 133.293 427.824C133.293 427.282 132.681 427.011 132.477 426.876C131.729 426.47 130.845 426.605 130.709 426.605C127.173 427.011 123.501 426.267 119.965 426.537C117.109 426.741 113.029 427.011 107.658 427.079C106.706 427.485 106.638 427.824 106.638 427.959C106.706 428.501 108.134 428.839 109.018 429.042C110.718 429.448 112.009 429.448 112.009 429.448Z" fill="#CE8F31"/>
<path d="M90.2508 425.996C89.0268 425.996 87.0549 425.928 84.471 425.86C84.267 425.928 83.3831 426.131 83.3151 426.673C83.2471 427.282 84.335 427.824 84.675 428.027C86.2389 428.839 87.5989 428.771 91.5427 428.771C92.2227 428.771 92.9026 428.771 93.6506 428.771C95.6225 428.771 98.4104 428.771 102.082 428.771C102.422 428.568 102.898 428.23 102.83 427.891C102.762 427.418 101.606 427.214 100.994 427.079C94.1946 426.064 90.2508 425.996 90.2508 425.996Z" fill="#CE8F31"/>
<path d="M126.969 419.768C126.493 419.768 125.473 419.768 123.433 419.903C122.345 419.971 120.849 420.038 118.945 420.174C118.877 420.174 118.061 420.309 117.653 419.903C117.381 419.565 117.449 419.023 117.585 418.752C117.993 417.669 120.441 417.669 123.909 417.669C125.269 417.669 127.717 417.669 131.185 417.669C131.253 417.669 131.797 417.534 132.069 417.872C132.341 418.211 132.137 418.82 131.865 419.091C131.525 419.565 130.913 419.565 130.029 419.632C128.261 419.7 127.309 419.768 126.969 419.768Z" fill="#CE8F31"/>
<path d="M100.11 417.872C95.7583 418.007 91.4065 417.466 87.0547 417.33C84.4708 417.263 80.595 417.06 75.8352 416.857C75.7672 416.857 75.1552 416.992 74.9512 417.466C74.6792 417.94 74.8832 418.684 75.4952 419.091C79.303 419.294 82.3629 419.632 84.5388 419.835C90.2505 420.445 92.0865 420.918 96.5063 420.986C99.5661 421.054 101.946 420.918 103.306 420.783C105.482 420.58 107.454 420.309 108.95 420.106C109.086 420.106 109.562 420.106 109.834 419.768C109.834 419.768 110.038 419.429 109.766 418.82C109.154 417.398 102.558 417.737 100.11 417.872Z" fill="#CE8F31"/>
<path d="M106.366 434.323C105.89 434.323 104.87 434.323 102.83 434.187C101.742 434.12 100.246 434.052 98.3422 433.917C98.2742 433.917 97.4583 433.781 97.0503 434.187C96.7783 434.526 96.8463 435.067 96.9823 435.338C97.3903 436.421 99.8382 436.421 103.306 436.421C104.666 436.421 107.114 436.421 110.582 436.421C110.65 436.421 111.194 436.557 111.466 436.218C111.738 435.88 111.534 435.271 111.262 435C110.922 434.526 110.31 434.526 109.426 434.458C107.59 434.39 106.706 434.323 106.366 434.323Z" fill="#CE8F31"/>
<path d="M69.1036 242.104C69.9195 241.021 67.7436 238.99 66.5197 235.334C65.9077 233.507 65.7717 232.153 65.5677 229.445C65.2957 226.06 64.8198 219.154 67.8116 211.166C68.3556 209.609 70.4635 204.329 75.3593 198.845C78.4192 195.392 85.9668 186.862 97.9343 185.576C110.65 184.222 120.169 191.94 124.249 195.325C126.289 196.949 137.441 206.427 139.685 221.727C141.248 232.559 137.645 242.172 137.373 242.51C137.373 242.51 137.237 242.713 137.237 242.917C137.237 243.187 137.509 243.39 137.645 243.458C138.121 243.797 139.889 244.338 141.656 243.39C141.792 243.323 142.608 242.849 143.288 241.901C144.036 240.818 144.172 239.735 144.24 239.396C144.988 233.574 146.416 229.919 146.348 225.044C146.212 218.477 143.22 202.975 130.097 191.534C126.561 188.419 117.517 180.499 103.918 180.025C85.4909 179.348 73.5234 192.684 71.2115 195.392C68.6956 198.236 61.4879 206.495 60.128 219.493C58.836 231.882 63.9358 241.766 64.0718 241.969C64.0718 241.969 64.2078 242.172 64.2758 242.443C64.3438 242.646 64.3438 242.713 64.3438 242.713C64.5478 243.187 66.4517 242.917 66.4517 242.917C68.0156 242.51 68.8996 242.375 69.1036 242.104Z" fill="#AB6F26"/>
<path d="M63.5958 245.015C63.7318 246.234 63.3238 257.742 66.6557 268.777C68.5596 275.276 70.5315 277.307 71.3475 278.12C72.3674 279.067 74.0674 280.354 78.0112 281.843C81.2071 282.994 84.9469 283.874 97.7983 284.551C103.782 284.822 106.842 285.025 111.194 284.822C116.702 284.619 120.101 284.483 124.453 283.332C128.533 282.249 133.225 280.963 136.557 276.901C137.781 275.412 138.325 274.193 139.413 271.756C139.413 271.756 143.832 261.534 143.356 245.218C143.356 244.203 143.22 242.917 143.22 242.917C143.22 242.646 143.152 242.51 143.152 242.443C142.676 241.156 102.218 250.431 75.8353 244.88C72.2315 244.135 63.5278 244 63.5278 244.474C63.5958 244.744 63.5958 244.812 63.5958 245.015Z" fill="#AB6F26"/>
<path d="M84.3348 242.781C80.663 242.24 78.3511 241.901 78.3511 241.901C73.3193 241.156 73.4553 241.156 72.5033 241.021C69.9874 240.75 68.8315 240.818 66.3836 240.344C65.0237 240.073 64.3437 239.938 63.7997 239.802C61.6918 239.193 60.6718 238.448 59.0399 238.719C58.5639 238.787 58.1559 238.922 57.816 239.193C57.272 239.599 57 240.276 57 240.953C57.068 241.698 57.544 242.307 58.1559 242.849C61.0798 245.218 64.5477 245.624 64.5477 245.624C70.9394 246.369 77.2631 247.385 83.6548 247.994C88.4146 248.468 87.9387 248.536 91.4745 248.874C99.3622 249.551 101.878 249.077 124.453 248.129C129.281 247.926 133.973 246.775 138.8 246.505C138.8 246.505 140.568 246.369 146.008 244.541C146.416 244.406 147.708 243.932 148.388 242.849C148.728 242.24 148.796 241.766 148.796 241.63C148.796 241.495 148.796 240.818 148.388 240.276C147.912 239.667 147.096 239.599 146.552 239.532C143.628 239.329 141.384 240.073 141.384 240.073C138.936 240.886 136.285 240.818 133.769 241.359C127.037 242.781 115.477 243.255 110.854 243.458C100.178 243.797 89.5706 243.526 84.3348 242.781Z" fill="#CE8F31"/>
<path d="M135.129 250.296C133.973 250.837 132.681 250.905 131.457 251.311C128.261 252.327 122.141 253.004 121.053 253.139C112.894 254.019 104.258 253.613 95.2145 253.139C90.8627 252.936 88.0069 252.665 82.3631 252.124C77.6713 251.65 76.6514 251.447 75.6994 251.243C74.4754 250.905 73.1835 250.905 71.9596 250.499C71.5516 250.363 70.3956 249.889 69.4437 250.296C68.8997 250.499 68.7637 250.77 68.6957 250.905C68.6957 250.905 68.5597 251.311 68.6957 251.853C69.1717 253.613 73.7955 254.019 73.7955 254.019C80.1872 254.561 86.5109 255.847 92.9026 255.915C102.354 256.05 107.454 256.592 116.362 256.456C117.722 256.456 120.849 256.389 124.929 255.779C126.969 255.508 128.533 255.238 130.573 254.628C134.109 253.545 137.781 251.785 137.781 251.785C137.781 251.785 138.121 251.311 138.121 250.905C138.121 250.499 137.781 250.025 137.509 249.889C136.897 249.416 136.081 249.889 135.129 250.296Z" fill="#CE8F31"/>
<path d="M112.009 273.448C118.333 273.448 119.285 273.922 125.813 273.448C127.581 273.313 129.893 273.11 132.545 272.772C133.021 272.568 133.293 272.23 133.293 271.824C133.293 271.282 132.681 271.011 132.477 270.876C131.729 270.47 130.845 270.605 130.709 270.605C127.173 271.011 123.501 270.267 119.965 270.537C117.109 270.741 113.029 271.011 107.658 271.079C106.706 271.485 106.638 271.824 106.638 271.959C106.706 272.501 108.134 272.839 109.018 273.042C110.718 273.448 112.009 273.448 112.009 273.448Z" fill="#CE8F31"/>
<path d="M90.2508 269.996C89.0268 269.996 87.0549 269.928 84.471 269.86C84.267 269.928 83.3831 270.131 83.3151 270.673C83.2471 271.282 84.335 271.824 84.675 272.027C86.2389 272.839 87.5989 272.771 91.5427 272.771C92.2227 272.771 92.9026 272.771 93.6506 272.771C95.6225 272.771 98.4104 272.771 102.082 272.771C102.422 272.568 102.898 272.23 102.83 271.891C102.762 271.418 101.606 271.214 100.994 271.079C94.1946 270.064 90.2508 269.996 90.2508 269.996Z" fill="#CE8F31"/>
<path d="M126.969 263.768C126.493 263.768 125.473 263.768 123.433 263.903C122.345 263.971 120.849 264.038 118.945 264.174C118.877 264.174 118.061 264.309 117.653 263.903C117.381 263.565 117.449 263.023 117.585 262.752C117.993 261.669 120.441 261.669 123.909 261.669C125.269 261.669 127.717 261.669 131.185 261.669C131.253 261.669 131.797 261.534 132.069 261.872C132.341 262.211 132.137 262.82 131.865 263.091C131.525 263.565 130.913 263.565 130.029 263.632C128.261 263.7 127.309 263.768 126.969 263.768Z" fill="#CE8F31"/>
<path d="M100.11 261.872C95.7583 262.007 91.4065 261.466 87.0547 261.33C84.4708 261.263 80.595 261.06 75.8352 260.857C75.7672 260.857 75.1552 260.992 74.9512 261.466C74.6792 261.94 74.8832 262.684 75.4952 263.091C79.303 263.294 82.3629 263.632 84.5388 263.835C90.2505 264.445 92.0865 264.918 96.5063 264.986C99.5661 265.054 101.946 264.918 103.306 264.783C105.482 264.58 107.454 264.309 108.95 264.106C109.086 264.106 109.562 264.106 109.834 263.768C109.834 263.768 110.038 263.429 109.766 262.82C109.154 261.398 102.558 261.737 100.11 261.872Z" fill="#CE8F31"/>
<path d="M106.366 278.323C105.89 278.323 104.87 278.323 102.83 278.187C101.742 278.12 100.246 278.052 98.3422 277.917C98.2742 277.917 97.4583 277.781 97.0503 278.187C96.7783 278.526 96.8463 279.067 96.9823 279.338C97.3903 280.421 99.8382 280.421 103.306 280.421C104.666 280.421 107.114 280.421 110.582 280.421C110.65 280.421 111.194 280.557 111.466 280.218C111.738 279.88 111.534 279.271 111.262 279C110.922 278.526 110.31 278.526 109.426 278.458C107.59 278.39 106.706 278.323 106.366 278.323Z" fill="#CE8F31"/>
<path d="M212.104 242.104C212.92 241.021 210.744 238.99 209.52 235.334C208.908 233.507 208.772 232.153 208.568 229.445C208.296 226.06 207.82 219.154 210.812 211.166C211.356 209.609 213.464 204.329 218.359 198.845C221.419 195.392 228.967 186.862 240.934 185.576C253.65 184.222 263.169 191.94 267.249 195.325C269.289 196.949 280.441 206.427 282.685 221.727C284.248 232.559 280.645 242.172 280.373 242.51C280.373 242.51 280.237 242.713 280.237 242.917C280.237 243.187 280.509 243.39 280.645 243.458C281.121 243.797 282.889 244.338 284.656 243.39C284.792 243.323 285.608 242.849 286.288 241.901C287.036 240.818 287.172 239.735 287.24 239.396C287.988 233.574 289.416 229.919 289.348 225.044C289.212 218.477 286.22 202.975 273.097 191.534C269.561 188.419 260.517 180.499 246.918 180.025C228.491 179.348 216.523 192.684 214.211 195.392C211.696 198.236 204.488 206.495 203.128 219.493C201.836 231.882 206.936 241.766 207.072 241.969C207.072 241.969 207.208 242.172 207.276 242.443C207.344 242.646 207.344 242.713 207.344 242.713C207.548 243.187 209.452 242.917 209.452 242.917C211.016 242.51 211.9 242.375 212.104 242.104Z" fill="#AB6F26"/>
<path d="M206.596 245.015C206.732 246.234 206.324 257.742 209.656 268.777C211.56 275.276 213.532 277.307 214.347 278.12C215.367 279.067 217.067 280.354 221.011 281.843C224.207 282.994 227.947 283.874 240.798 284.551C246.782 284.822 249.842 285.025 254.194 284.822C259.702 284.619 263.101 284.483 267.453 283.332C271.533 282.249 276.225 280.963 279.557 276.901C280.781 275.412 281.325 274.193 282.413 271.756C282.413 271.756 286.832 261.534 286.356 245.218C286.356 244.203 286.22 242.917 286.22 242.917C286.22 242.646 286.152 242.51 286.152 242.443C285.676 241.156 245.218 250.431 218.835 244.88C215.231 244.135 206.528 244 206.528 244.474C206.596 244.744 206.596 244.812 206.596 245.015Z" fill="#AB6F26"/>
<path d="M227.335 242.781C223.663 242.24 221.351 241.901 221.351 241.901C216.319 241.156 216.455 241.156 215.503 241.021C212.987 240.75 211.831 240.818 209.384 240.344C208.024 240.073 207.344 239.938 206.8 239.802C204.692 239.193 203.672 238.448 202.04 238.719C201.564 238.787 201.156 238.922 200.816 239.193C200.272 239.599 200 240.276 200 240.953C200.068 241.698 200.544 242.307 201.156 242.849C204.08 245.218 207.548 245.624 207.548 245.624C213.939 246.369 220.263 247.385 226.655 247.994C231.415 248.468 230.939 248.536 234.475 248.874C242.362 249.551 244.878 249.077 267.453 248.129C272.281 247.926 276.973 246.775 281.8 246.505C281.8 246.505 283.568 246.369 289.008 244.541C289.416 244.406 290.708 243.932 291.388 242.849C291.728 242.24 291.796 241.766 291.796 241.63C291.796 241.495 291.796 240.818 291.388 240.276C290.912 239.667 290.096 239.599 289.552 239.532C286.628 239.329 284.384 240.073 284.384 240.073C281.936 240.886 279.285 240.818 276.769 241.359C270.037 242.781 258.477 243.255 253.854 243.458C243.178 243.797 232.571 243.526 227.335 242.781Z" fill="#CE8F31"/>
<path d="M278.129 250.296C276.973 250.837 275.681 250.905 274.457 251.311C271.261 252.327 265.141 253.004 264.053 253.139C255.894 254.019 247.258 253.613 238.215 253.139C233.863 252.936 231.007 252.665 225.363 252.124C220.671 251.65 219.651 251.447 218.699 251.243C217.475 250.905 216.184 250.905 214.96 250.499C214.552 250.363 213.396 249.889 212.444 250.296C211.9 250.499 211.764 250.77 211.696 250.905C211.696 250.905 211.56 251.311 211.696 251.853C212.172 253.613 216.795 254.019 216.795 254.019C223.187 254.561 229.511 255.847 235.903 255.915C245.354 256.05 250.454 256.592 259.362 256.456C260.722 256.456 263.849 256.389 267.929 255.779C269.969 255.508 271.533 255.238 273.573 254.628C277.109 253.545 280.781 251.785 280.781 251.785C280.781 251.785 281.121 251.311 281.121 250.905C281.121 250.499 280.781 250.025 280.509 249.889C279.897 249.416 279.081 249.889 278.129 250.296Z" fill="#CE8F31"/>
<path d="M255.009 273.448C261.333 273.448 262.285 273.922 268.813 273.448C270.581 273.313 272.893 273.11 275.545 272.772C276.021 272.568 276.293 272.23 276.293 271.824C276.293 271.282 275.681 271.011 275.477 270.876C274.729 270.47 273.845 270.605 273.709 270.605C270.173 271.011 266.501 270.267 262.965 270.537C260.109 270.741 256.029 271.011 250.658 271.079C249.706 271.485 249.638 271.824 249.638 271.959C249.706 272.501 251.134 272.839 252.018 273.042C253.718 273.448 255.009 273.448 255.009 273.448Z" fill="#CE8F31"/>
<path d="M233.251 269.996C232.027 269.996 230.055 269.928 227.471 269.86C227.267 269.928 226.383 270.131 226.315 270.673C226.247 271.282 227.335 271.824 227.675 272.027C229.239 272.839 230.599 272.771 234.543 272.771C235.223 272.771 235.903 272.771 236.651 272.771C238.623 272.771 241.41 272.771 245.082 272.771C245.422 272.568 245.898 272.23 245.83 271.891C245.762 271.418 244.606 271.214 243.994 271.079C237.195 270.064 233.251 269.996 233.251 269.996Z" fill="#CE8F31"/>
<path d="M269.969 263.768C269.493 263.768 268.473 263.768 266.433 263.903C265.345 263.971 263.849 264.038 261.945 264.174C261.877 264.174 261.061 264.309 260.653 263.903C260.381 263.565 260.449 263.023 260.585 262.752C260.993 261.669 263.441 261.669 266.909 261.669C268.269 261.669 270.717 261.669 274.185 261.669C274.253 261.669 274.797 261.534 275.069 261.872C275.341 262.211 275.137 262.82 274.865 263.091C274.525 263.565 273.913 263.565 273.029 263.632C271.261 263.7 270.309 263.768 269.969 263.768Z" fill="#CE8F31"/>
<path d="M243.11 261.872C238.758 262.007 234.406 261.466 230.055 261.33C227.471 261.263 223.595 261.06 218.835 260.857C218.767 260.857 218.155 260.992 217.951 261.466C217.679 261.94 217.883 262.684 218.495 263.091C222.303 263.294 225.363 263.632 227.539 263.835C233.251 264.445 235.086 264.918 239.506 264.986C242.566 265.054 244.946 264.918 246.306 264.783C248.482 264.58 250.454 264.309 251.95 264.106C252.086 264.106 252.562 264.106 252.834 263.768C252.834 263.768 253.038 263.429 252.766 262.82C252.154 261.398 245.558 261.737 243.11 261.872Z" fill="#CE8F31"/>
<path d="M249.366 278.323C248.89 278.323 247.87 278.323 245.83 278.187C244.742 278.12 243.246 278.052 241.342 277.917C241.274 277.917 240.458 277.781 240.05 278.187C239.778 278.526 239.846 279.067 239.982 279.338C240.39 280.421 242.838 280.421 246.306 280.421C247.666 280.421 250.114 280.421 253.582 280.421C253.65 280.421 254.194 280.557 254.466 280.218C254.738 279.88 254.534 279.271 254.262 279C253.922 278.526 253.31 278.526 252.426 278.458C250.59 278.39 249.706 278.323 249.366 278.323Z" fill="#CE8F31"/>
<path d="M355.104 398.104C355.92 397.021 353.744 394.99 352.52 391.334C351.908 389.507 351.772 388.153 351.568 385.445C351.296 382.06 350.82 375.154 353.812 367.166C354.356 365.609 356.464 360.329 361.359 354.845C364.419 351.392 371.967 342.862 383.934 341.576C396.65 340.222 406.169 347.94 410.249 351.325C412.289 352.949 423.441 362.427 425.685 377.727C427.248 388.559 423.645 398.172 423.373 398.51C423.373 398.51 423.237 398.713 423.237 398.917C423.237 399.187 423.509 399.39 423.645 399.458C424.121 399.797 425.889 400.338 427.656 399.39C427.792 399.323 428.608 398.849 429.288 397.901C430.036 396.818 430.172 395.735 430.24 395.396C430.988 389.574 432.416 385.919 432.348 381.044C432.212 374.477 429.22 358.975 416.097 347.534C412.561 344.419 403.517 336.499 389.918 336.025C371.491 335.348 359.523 348.684 357.211 351.392C354.696 354.236 347.488 362.495 346.128 375.493C344.836 387.882 349.936 397.766 350.072 397.969C350.072 397.969 350.208 398.172 350.276 398.443C350.344 398.646 350.344 398.713 350.344 398.713C350.548 399.187 352.452 398.917 352.452 398.917C354.016 398.51 354.9 398.375 355.104 398.104Z" fill="#AB6F26"/>
<path d="M349.596 401.015C349.732 402.234 349.324 413.742 352.656 424.777C354.56 431.276 356.532 433.307 357.347 434.12C358.367 435.067 360.067 436.354 364.011 437.843C367.207 438.994 370.947 439.874 383.798 440.551C389.782 440.822 392.842 441.025 397.194 440.822C402.702 440.619 406.101 440.483 410.453 439.332C414.533 438.249 419.225 436.963 422.557 432.901C423.781 431.412 424.325 430.193 425.413 427.756C425.413 427.756 429.832 417.534 429.356 401.218C429.356 400.203 429.22 398.917 429.22 398.917C429.22 398.646 429.152 398.51 429.152 398.443C428.676 397.156 388.218 406.431 361.835 400.88C358.231 400.135 349.528 400 349.528 400.474C349.596 400.744 349.596 400.812 349.596 401.015Z" fill="#AB6F26"/>
<path d="M370.335 398.781C366.663 398.24 364.351 397.901 364.351 397.901C359.319 397.156 359.455 397.156 358.503 397.021C355.987 396.75 354.831 396.818 352.384 396.344C351.024 396.073 350.344 395.938 349.8 395.802C347.692 395.193 346.672 394.448 345.04 394.719C344.564 394.787 344.156 394.922 343.816 395.193C343.272 395.599 343 396.276 343 396.953C343.068 397.698 343.544 398.307 344.156 398.849C347.08 401.218 350.548 401.624 350.548 401.624C356.939 402.369 363.263 403.385 369.655 403.994C374.415 404.468 373.939 404.536 377.475 404.874C385.362 405.551 387.878 405.077 410.453 404.129C415.281 403.926 419.973 402.775 424.8 402.505C424.8 402.505 426.568 402.369 432.008 400.541C432.416 400.406 433.708 399.932 434.388 398.849C434.728 398.24 434.796 397.766 434.796 397.63C434.796 397.495 434.796 396.818 434.388 396.276C433.912 395.667 433.096 395.599 432.552 395.532C429.628 395.329 427.384 396.073 427.384 396.073C424.936 396.886 422.285 396.818 419.769 397.359C413.037 398.781 401.477 399.255 396.854 399.458C386.178 399.797 375.571 399.526 370.335 398.781Z" fill="#CE8F31"/>
<path d="M421.129 406.296C419.973 406.837 418.681 406.905 417.457 407.311C414.261 408.327 408.141 409.004 407.053 409.139C398.894 410.019 390.258 409.613 381.215 409.139C376.863 408.936 374.007 408.665 368.363 408.124C363.671 407.65 362.651 407.447 361.699 407.243C360.475 406.905 359.184 406.905 357.96 406.499C357.552 406.363 356.396 405.889 355.444 406.296C354.9 406.499 354.764 406.77 354.696 406.905C354.696 406.905 354.56 407.311 354.696 407.853C355.172 409.613 359.795 410.019 359.795 410.019C366.187 410.561 372.511 411.847 378.903 411.915C388.354 412.05 393.454 412.592 402.362 412.456C403.722 412.456 406.849 412.389 410.929 411.779C412.969 411.508 414.533 411.238 416.573 410.628C420.109 409.545 423.781 407.785 423.781 407.785C423.781 407.785 424.121 407.311 424.121 406.905C424.121 406.499 423.781 406.025 423.509 405.889C422.897 405.416 422.081 405.889 421.129 406.296Z" fill="#CE8F31"/>
<path d="M398.009 429.448C404.333 429.448 405.285 429.922 411.813 429.448C413.581 429.313 415.893 429.11 418.545 428.772C419.021 428.568 419.293 428.23 419.293 427.824C419.293 427.282 418.681 427.011 418.477 426.876C417.729 426.47 416.845 426.605 416.709 426.605C413.173 427.011 409.501 426.267 405.965 426.537C403.109 426.741 399.029 427.011 393.658 427.079C392.706 427.485 392.638 427.824 392.638 427.959C392.706 428.501 394.134 428.839 395.018 429.042C396.718 429.448 398.009 429.448 398.009 429.448Z" fill="#CE8F31"/>
<path d="M376.251 425.996C375.027 425.996 373.055 425.928 370.471 425.86C370.267 425.928 369.383 426.131 369.315 426.673C369.247 427.282 370.335 427.824 370.675 428.027C372.239 428.839 373.599 428.771 377.543 428.771C378.223 428.771 378.903 428.771 379.651 428.771C381.623 428.771 384.41 428.771 388.082 428.771C388.422 428.568 388.898 428.23 388.83 427.891C388.762 427.418 387.606 427.214 386.994 427.079C380.195 426.064 376.251 425.996 376.251 425.996Z" fill="#CE8F31"/>
<path d="M412.969 419.768C412.493 419.768 411.473 419.768 409.433 419.903C408.345 419.971 406.849 420.038 404.945 420.174C404.877 420.174 404.061 420.309 403.653 419.903C403.381 419.565 403.449 419.023 403.585 418.752C403.993 417.669 406.441 417.669 409.909 417.669C411.269 417.669 413.717 417.669 417.185 417.669C417.253 417.669 417.797 417.534 418.069 417.872C418.341 418.211 418.137 418.82 417.865 419.091C417.525 419.565 416.913 419.565 416.029 419.632C414.261 419.7 413.309 419.768 412.969 419.768Z" fill="#CE8F31"/>
<path d="M386.11 417.872C381.758 418.007 377.406 417.466 373.055 417.33C370.471 417.263 366.595 417.06 361.835 416.857C361.767 416.857 361.155 416.992 360.951 417.466C360.679 417.94 360.883 418.684 361.495 419.091C365.303 419.294 368.363 419.632 370.539 419.835C376.251 420.445 378.086 420.918 382.506 420.986C385.566 421.054 387.946 420.918 389.306 420.783C391.482 420.58 393.454 420.309 394.95 420.106C395.086 420.106 395.562 420.106 395.834 419.768C395.834 419.768 396.038 419.429 395.766 418.82C395.154 417.398 388.558 417.737 386.11 417.872Z" fill="#CE8F31"/>
<path d="M392.366 434.323C391.89 434.323 390.87 434.323 388.83 434.187C387.742 434.12 386.246 434.052 384.342 433.917C384.274 433.917 383.458 433.781 383.05 434.187C382.778 434.526 382.846 435.067 382.982 435.338C383.39 436.421 385.838 436.421 389.306 436.421C390.666 436.421 393.114 436.421 396.582 436.421C396.65 436.421 397.194 436.557 397.466 436.218C397.738 435.88 397.534 435.271 397.262 435C396.922 434.526 396.31 434.526 395.426 434.458C393.59 434.39 392.706 434.323 392.366 434.323Z" fill="#CE8F31"/>
<path d="M610.868 414.834C610.868 403.82 611.009 403.259 610.939 396.664C610.939 388.737 610.656 383.686 610.868 377.513C610.868 376.882 610.868 376.461 610.939 375.619C611.151 367.341 610.868 365.728 610.656 364.886C610.374 363.623 609.809 362.501 608.749 360.256C606.7 355.836 604.369 352.329 603.663 351.347C600.201 346.717 591.3 344.472 583.035 344.542C579.22 344.542 575.547 345.033 572.509 345.945C569.472 345.033 565.798 344.542 561.984 344.542C553.719 344.472 544.818 346.717 541.356 351.347C540.65 352.329 538.319 355.836 536.27 360.256C535.21 362.431 534.716 363.553 534.363 364.816C534.151 365.728 533.868 367.341 534.08 375.549C534.08 376.391 534.08 376.812 534.151 377.443C534.363 383.616 534.151 388.737 534.08 396.594C534.08 403.188 534.221 403.75 534.151 414.763C534.151 416.166 534.151 417.499 534.151 418.902C534.08 424.094 533.727 428.373 534.433 433.634C534.575 434.757 534.786 435.879 535.564 437.072C535.917 437.563 536.27 437.983 536.623 438.334C537.895 439.878 539.59 440.93 540.791 441C540.932 441 541.356 441 541.921 441H542.063H542.698C543.264 441 543.687 441 543.829 441H601.261C601.402 441 601.826 441 602.391 441H603.027H603.168C603.733 441 604.157 441 604.298 441C605.499 440.93 607.195 439.878 608.466 438.334C608.89 437.983 609.243 437.563 609.526 437.072C610.303 435.879 610.515 434.757 610.656 433.634C611.363 428.373 611.009 424.094 610.939 418.902C610.797 417.569 610.868 416.166 610.868 414.834Z" fill="#C890A7"/>
<path d="M604.722 353.872H540.155C537.4 353.872 535.14 351.627 535.14 348.891V343.981C535.069 341.245 537.33 339 540.155 339H604.722C607.477 339 609.738 341.245 609.738 343.981V348.891C609.738 351.627 607.477 353.872 604.722 353.872Z" fill="#8A8C95"/>
<path d="M607.407 407.678C607.407 395.472 607.548 394.84 607.477 387.545C607.477 378.776 607.265 373.164 607.407 366.289C607.407 366.219 606.559 364.956 606.347 364.395C605.923 363.974 605.217 363.342 604.298 362.781C601.19 360.957 597.729 361.168 593.561 361.519C591.795 361.659 591.23 361.869 587.344 362.22C584.801 362.431 583.883 362.501 582.823 362.431C581.269 362.29 581.128 362.08 577.949 361.519C575.194 360.957 573.781 360.677 572.156 360.677C570.249 360.607 568.765 360.817 567.282 361.098C564.88 361.448 564.456 361.939 561.984 362.29C561.277 362.36 560.006 362.571 558.381 362.501C556.191 362.431 554.99 362.01 553.436 361.659C552.659 361.519 547.714 360.466 542.628 361.869C542.628 361.869 540.438 362.501 538.884 363.974C538.601 364.254 537.542 365.237 537.612 366.359C537.753 373.094 537.542 378.776 537.542 387.475C537.542 394.77 537.612 395.402 537.612 407.608C537.612 409.151 537.612 410.624 537.612 412.168C537.542 417.92 537.259 422.69 537.824 428.443C537.965 429.635 538.107 430.898 538.813 432.231C539.096 432.792 539.449 433.283 539.802 433.634C540.932 435.388 542.486 436.51 543.546 436.58C543.617 436.58 544.041 436.58 544.535 436.58H544.676H545.242C545.736 436.58 546.089 436.58 546.231 436.58H598.506C598.647 436.58 599 436.58 599.495 436.58H600.06H600.201C600.696 436.58 601.12 436.58 601.19 436.58C602.32 436.51 603.804 435.388 604.934 433.634C605.287 433.213 605.641 432.722 605.923 432.231C606.63 430.898 606.771 429.635 606.912 428.443C607.548 422.62 607.195 417.92 607.124 412.168C607.336 410.695 607.407 409.151 607.407 407.678Z" fill="#B44276"/>
<path d="M601.755 414.202V383.055C599.212 383.055 597.163 381.371 597.163 379.337H547.714C547.714 381.371 545.665 383.055 543.122 383.055V414.272C545.665 414.272 547.714 415.956 547.714 417.99H597.163C597.163 415.886 599.212 414.202 601.755 414.202Z" fill="#F3F3F3"/>
<path opacity="0.39" d="M545.524 428.373V378.565C545.524 376.391 547.361 374.567 549.551 374.567C551.74 374.567 553.577 376.391 553.577 378.565V428.443C553.577 430.618 551.74 432.442 549.551 432.442C547.29 432.371 545.524 430.618 545.524 428.373Z" fill="#F3F3F3"/>
<path opacity="0.39" d="M545.524 366.99V362.15C545.524 359.975 547.361 358.151 549.551 358.151C551.74 358.151 553.577 359.975 553.577 362.15V366.99C553.577 369.165 551.74 370.989 549.551 370.989C547.29 370.989 545.524 369.165 545.524 366.99Z" fill="#F3F3F3"/>
<path d="M580 407C584.971 407 589 402.971 589 398C589 393.029 584.971 389 580 389C575.029 389 571 393.029 571 398C571 402.971 575.029 407 580 407Z" fill="#B32646"/>
<path d="M582.1 399.95C581.65 400.4 581.05 400.4 580.6 399.95L577.75 397.25C577.3 396.8 577.3 396.2 577.75 395.75C578.2 395.3 578.8 395.3 579.25 395.75L582.1 398.45C582.55 398.9 582.55 399.65 582.1 399.95Z" fill="#6C1626"/>
<path d="M581.95 395.75C582.4 396.2 582.4 396.8 581.95 397.25L579.4 400.1C578.95 400.55 578.35 400.55 577.9 400.1C577.45 399.65 577.45 399.05 577.9 398.6L580.6 395.75C580.9 395.45 581.5 395.45 581.95 395.75Z" fill="#6C1626"/>
<path d="M566.5 404C572.299 404 577 399.299 577 393.5C577 387.701 572.299 383 566.5 383C560.701 383 556 387.701 556 393.5C556 399.299 560.701 404 566.5 404Z" fill="#B32646"/>
<path d="M568.95 395.775C568.425 396.3 567.725 396.3 567.2 395.775L563.875 392.625C563.35 392.1 563.35 391.4 563.875 390.875C564.4 390.35 565.1 390.35 565.625 390.875L568.95 394.025C569.475 394.55 569.475 395.425 568.95 395.775Z" fill="#6C1626"/>
<path d="M568.775 390.875C569.3 391.4 569.3 392.1 568.775 392.625L565.8 395.95C565.275 396.475 564.575 396.475 564.05 395.95C563.525 395.425 563.525 394.725 564.05 394.2L567.2 390.875C567.55 390.525 568.25 390.525 568.775 390.875Z" fill="#6C1626"/>
<path d="M562.3 388.6C562.825 388.25 563.7 387.55 564.4 387.025C564.575 386.85 564.925 386.675 564.925 386.325C564.925 386.325 565.1 385.625 564.75 385.275C564.4 384.925 563.7 384.925 563.525 384.925C563.35 384.925 563 385.1 562.65 385.275C562.125 385.625 561.95 385.8 561.775 385.975C561.075 386.5 560.725 386.85 560.2 387.2C559.5 387.9 559.15 388.425 558.975 388.6C558.625 389.125 558.275 389.65 557.75 390.7C557.4 391.225 557.225 391.75 557.225 392.45C557.225 392.8 557.4 392.975 557.4 393.15C557.75 393.5 558.1 393.5 558.275 393.5C558.625 393.5 558.975 393.325 558.975 393.325C559.325 393.15 559.325 392.8 559.675 392.275C559.85 391.75 559.85 391.75 560.025 391.225C560.025 391.05 560.2 390.875 560.55 390.35C561.075 389.65 561.6 389.125 562.3 388.6Z" fill="#C8637A"/>
<path d="M571 414C575.418 414 579 410.418 579 406C579 401.582 575.418 398 571 398C566.582 398 563 401.582 563 406C563 410.418 566.582 414 571 414Z" fill="#761F36"/>
<path d="M573 407.875C572.625 408.25 572.125 408.25 571.75 407.875L569.25 405.5C568.875 405.125 568.875 404.625 569.25 404.25C569.625 403.875 570.125 403.875 570.5 404.25L573 406.625C573.25 406.875 573.25 407.5 573 407.875Z" fill="#49131F"/>
<path d="M572.75 404.125C573.125 404.5 573.125 405 572.75 405.375L570.375 407.875C570 408.25 569.5 408.25 569.125 407.875C568.75 407.5 568.75 407 569.125 406.625L571.5 404.125C571.875 403.75 572.375 403.75 572.75 404.125Z" fill="#49131F"/>
<path d="M567.75 402.25C568.125 401.875 568.75 401.5 569.375 401C569.5 400.875 569.75 400.75 569.875 400.5C569.875 400.5 570 400 569.75 399.75C569.5 399.375 569 399.5 568.875 399.5C568.75 399.5 568.5 399.625 568.25 399.875C567.875 400.125 567.625 400.25 567.625 400.375C567.125 400.875 566.75 401 566.5 401.375C566 401.875 565.625 402.25 565.625 402.375C565.375 402.75 565.125 403.125 564.75 403.875C564.5 404.375 564.375 404.75 564.375 405.125C564.375 405.375 564.5 405.5 564.5 405.625C564.75 405.875 565 405.875 565.125 405.875C565.375 405.875 565.625 405.75 565.625 405.75C565.875 405.625 566 405.375 566.125 405C566.25 404.625 566.25 404.5 566.375 404.25C566.375 404.125 566.5 403.875 566.875 403.625C566.875 403.125 567.25 402.75 567.75 402.25Z" fill="#A05062"/>
<path d="M749.868 283.834C749.868 272.82 750.009 272.259 749.939 265.664C749.939 257.737 749.656 252.686 749.868 246.513C749.868 245.882 749.868 245.461 749.939 244.619C750.151 236.341 749.868 234.728 749.656 233.886C749.374 232.623 748.809 231.501 747.749 229.256C745.7 224.836 743.369 221.329 742.663 220.347C739.201 215.717 730.3 213.472 722.035 213.542C718.22 213.542 714.547 214.033 711.509 214.945C708.472 214.033 704.798 213.542 700.984 213.542C692.719 213.472 683.818 215.717 680.356 220.347C679.65 221.329 677.319 224.836 675.27 229.256C674.21 231.431 673.716 232.553 673.363 233.816C673.151 234.728 672.868 236.341 673.08 244.549C673.08 245.391 673.08 245.812 673.151 246.443C673.363 252.616 673.151 257.737 673.08 265.594C673.08 272.188 673.221 272.75 673.151 283.763C673.151 285.166 673.151 286.499 673.151 287.902C673.08 293.094 672.727 297.373 673.433 302.634C673.575 303.757 673.786 304.879 674.564 306.072C674.917 306.563 675.27 306.983 675.623 307.334C676.895 308.878 678.59 309.93 679.791 310C679.932 310 680.356 310 680.921 310H681.063H681.698C682.264 310 682.687 310 682.829 310H740.261C740.402 310 740.826 310 741.391 310H742.027H742.168C742.733 310 743.157 310 743.298 310C744.499 309.93 746.195 308.878 747.466 307.334C747.89 306.983 748.243 306.563 748.526 306.072C749.303 304.879 749.515 303.757 749.656 302.634C750.363 297.373 750.009 293.094 749.939 287.902C749.797 286.569 749.868 285.166 749.868 283.834Z" fill="#C890A7"/>
<path d="M743.722 222.872H679.155C676.4 222.872 674.14 220.627 674.14 217.891V212.981C674.069 210.245 676.33 208 679.155 208H743.722C746.477 208 748.738 210.245 748.738 212.981V217.891C748.738 220.627 746.477 222.872 743.722 222.872Z" fill="#8A8C95"/>
<path d="M746.407 276.678C746.407 264.472 746.548 263.84 746.477 256.545C746.477 247.776 746.265 242.164 746.407 235.289C746.407 235.219 745.559 233.956 745.347 233.395C744.923 232.974 744.217 232.342 743.298 231.781C740.19 229.957 736.729 230.168 732.561 230.519C730.795 230.659 730.23 230.869 726.344 231.22C723.801 231.431 722.883 231.501 721.823 231.431C720.269 231.29 720.128 231.08 716.949 230.519C714.194 229.957 712.781 229.677 711.156 229.677C709.249 229.607 707.765 229.817 706.282 230.098C703.88 230.448 703.456 230.939 700.984 231.29C700.277 231.36 699.006 231.571 697.381 231.501C695.191 231.431 693.99 231.01 692.436 230.659C691.659 230.519 686.714 229.466 681.628 230.869C681.628 230.869 679.438 231.501 677.884 232.974C677.601 233.254 676.542 234.237 676.612 235.359C676.753 242.094 676.542 247.776 676.542 256.475C676.542 263.77 676.612 264.402 676.612 276.608C676.612 278.151 676.612 279.624 676.612 281.168C676.542 286.92 676.259 291.69 676.824 297.443C676.965 298.635 677.107 299.898 677.813 301.231C678.096 301.792 678.449 302.283 678.802 302.634C679.932 304.388 681.486 305.51 682.546 305.58C682.617 305.58 683.041 305.58 683.535 305.58H683.676H684.242C684.736 305.58 685.089 305.58 685.231 305.58H737.506C737.647 305.58 738 305.58 738.495 305.58H739.06H739.201C739.696 305.58 740.12 305.58 740.19 305.58C741.32 305.51 742.804 304.388 743.934 302.634C744.287 302.213 744.641 301.722 744.923 301.231C745.63 299.898 745.771 298.635 745.912 297.443C746.548 291.62 746.195 286.92 746.124 281.168C746.336 279.695 746.407 278.151 746.407 276.678Z" fill="#B44276"/>
<path d="M740.755 283.202V252.055C738.212 252.055 736.163 250.371 736.163 248.337H686.714C686.714 250.371 684.665 252.055 682.122 252.055V283.272C684.665 283.272 686.714 284.956 686.714 286.99H736.163C736.163 284.886 738.212 283.202 740.755 283.202Z" fill="#F3F3F3"/>
<path opacity="0.39" d="M684.524 297.373V247.565C684.524 245.391 686.361 243.567 688.551 243.567C690.74 243.567 692.577 245.391 692.577 247.565V297.443C692.577 299.618 690.74 301.442 688.551 301.442C686.29 301.371 684.524 299.618 684.524 297.373Z" fill="#F3F3F3"/>
<path opacity="0.39" d="M684.524 235.99V231.15C684.524 228.975 686.361 227.151 688.551 227.151C690.74 227.151 692.577 228.975 692.577 231.15V235.99C692.577 238.165 690.74 239.989 688.551 239.989C686.29 239.989 684.524 238.165 684.524 235.99Z" fill="#F3F3F3"/>
<path d="M719 276C723.971 276 728 271.971 728 267C728 262.029 723.971 258 719 258C714.029 258 710 262.029 710 267C710 271.971 714.029 276 719 276Z" fill="#B32646"/>
<path d="M721.1 268.95C720.65 269.4 720.05 269.4 719.6 268.95L716.75 266.25C716.3 265.8 716.3 265.2 716.75 264.75C717.2 264.3 717.8 264.3 718.25 264.75L721.1 267.45C721.55 267.9 721.55 268.65 721.1 268.95Z" fill="#6C1626"/>
<path d="M720.95 264.75C721.4 265.2 721.4 265.8 720.95 266.25L718.4 269.1C717.95 269.55 717.35 269.55 716.9 269.1C716.45 268.65 716.45 268.05 716.9 267.6L719.6 264.75C719.9 264.45 720.5 264.45 720.95 264.75Z" fill="#6C1626"/>
<path d="M705.5 273C711.299 273 716 268.299 716 262.5C716 256.701 711.299 252 705.5 252C699.701 252 695 256.701 695 262.5C695 268.299 699.701 273 705.5 273Z" fill="#B32646"/>
<path d="M707.95 264.775C707.425 265.3 706.725 265.3 706.2 264.775L702.875 261.625C702.35 261.1 702.35 260.4 702.875 259.875C703.4 259.35 704.1 259.35 704.625 259.875L707.95 263.025C708.475 263.55 708.475 264.425 707.95 264.775Z" fill="#6C1626"/>
<path d="M707.775 259.875C708.3 260.4 708.3 261.1 707.775 261.625L704.8 264.95C704.275 265.475 703.575 265.475 703.05 264.95C702.525 264.425 702.525 263.725 703.05 263.2L706.2 259.875C706.55 259.525 707.25 259.525 707.775 259.875Z" fill="#6C1626"/>
<path d="M701.3 257.6C701.825 257.25 702.7 256.55 703.4 256.025C703.575 255.85 703.925 255.675 703.925 255.325C703.925 255.325 704.1 254.625 703.75 254.275C703.4 253.925 702.7 253.925 702.525 253.925C702.35 253.925 702 254.1 701.65 254.275C701.125 254.625 700.95 254.8 700.775 254.975C700.075 255.5 699.725 255.85 699.2 256.2C698.5 256.9 698.15 257.425 697.975 257.6C697.625 258.125 697.275 258.65 696.75 259.7C696.4 260.225 696.225 260.75 696.225 261.45C696.225 261.8 696.4 261.975 696.4 262.15C696.75 262.5 697.1 262.5 697.275 262.5C697.625 262.5 697.975 262.325 697.975 262.325C698.325 262.15 698.325 261.8 698.675 261.275C698.85 260.75 698.85 260.75 699.025 260.225C699.025 260.05 699.2 259.875 699.55 259.35C700.075 258.65 700.6 258.125 701.3 257.6Z" fill="#C8637A"/>
<path d="M710 283C714.418 283 718 279.418 718 275C718 270.582 714.418 267 710 267C705.582 267 702 270.582 702 275C702 279.418 705.582 283 710 283Z" fill="#761F36"/>
<path d="M712 276.875C711.625 277.25 711.125 277.25 710.75 276.875L708.25 274.5C707.875 274.125 707.875 273.625 708.25 273.25C708.625 272.875 709.125 272.875 709.5 273.25L712 275.625C712.25 275.875 712.25 276.5 712 276.875Z" fill="#49131F"/>
<path d="M711.75 273.125C712.125 273.5 712.125 274 711.75 274.375L709.375 276.875C709 277.25 708.5 277.25 708.125 276.875C707.75 276.5 707.75 276 708.125 275.625L710.5 273.125C710.875 272.75 711.375 272.75 711.75 273.125Z" fill="#49131F"/>
<path d="M706.75 271.25C707.125 270.875 707.75 270.5 708.375 270C708.5 269.875 708.75 269.75 708.875 269.5C708.875 269.5 709 269 708.75 268.75C708.5 268.375 708 268.5 707.875 268.5C707.75 268.5 707.5 268.625 707.25 268.875C706.875 269.125 706.625 269.25 706.625 269.375C706.125 269.875 705.75 270 705.5 270.375C705 270.875 704.625 271.25 704.625 271.375C704.375 271.75 704.125 272.125 703.75 272.875C703.5 273.375 703.375 273.75 703.375 274.125C703.375 274.375 703.5 274.5 703.5 274.625C703.75 274.875 704 274.875 704.125 274.875C704.375 274.875 704.625 274.75 704.625 274.75C704.875 274.625 705 274.375 705.125 274C705.25 273.625 705.25 273.5 705.375 273.25C705.375 273.125 705.5 272.875 705.875 272.625C705.875 272.125 706.25 271.75 706.75 271.25Z" fill="#A05062"/>
<path d="M750.868 414.834C750.868 403.82 751.009 403.259 750.939 396.664C750.939 388.737 750.656 383.686 750.868 377.513C750.868 376.882 750.868 376.461 750.939 375.619C751.151 367.341 750.868 365.728 750.656 364.886C750.374 363.623 749.809 362.501 748.749 360.256C746.7 355.836 744.369 352.329 743.663 351.347C740.201 346.717 731.3 344.472 723.035 344.542C719.22 344.542 715.547 345.033 712.509 345.945C709.472 345.033 705.798 344.542 701.984 344.542C693.719 344.472 684.818 346.717 681.356 351.347C680.65 352.329 678.319 355.836 676.27 360.256C675.21 362.431 674.716 363.553 674.363 364.816C674.151 365.728 673.868 367.341 674.08 375.549C674.08 376.391 674.08 376.812 674.151 377.443C674.363 383.616 674.151 388.737 674.08 396.594C674.08 403.188 674.221 403.75 674.151 414.763C674.151 416.166 674.151 417.499 674.151 418.902C674.08 424.094 673.727 428.373 674.433 433.634C674.575 434.757 674.786 435.879 675.564 437.072C675.917 437.563 676.27 437.983 676.623 438.334C677.895 439.878 679.59 440.93 680.791 441C680.932 441 681.356 441 681.921 441H682.063H682.698C683.264 441 683.687 441 683.829 441H741.261C741.402 441 741.826 441 742.391 441H743.027H743.168C743.733 441 744.157 441 744.298 441C745.499 440.93 747.195 439.878 748.466 438.334C748.89 437.983 749.243 437.563 749.526 437.072C750.303 435.879 750.515 434.757 750.656 433.634C751.363 428.373 751.009 424.094 750.939 418.902C750.797 417.569 750.868 416.166 750.868 414.834Z" fill="#C890A7"/>
<path d="M744.722 353.872H680.155C677.4 353.872 675.14 351.627 675.14 348.891V343.981C675.069 341.245 677.33 339 680.155 339H744.722C747.477 339 749.738 341.245 749.738 343.981V348.891C749.738 351.627 747.477 353.872 744.722 353.872Z" fill="#8A8C95"/>
<path d="M747.407 407.678C747.407 395.472 747.548 394.84 747.477 387.545C747.477 378.776 747.265 373.164 747.407 366.289C747.407 366.219 746.559 364.956 746.347 364.395C745.923 363.974 745.217 363.342 744.298 362.781C741.19 360.957 737.729 361.168 733.561 361.519C731.795 361.659 731.23 361.869 727.344 362.22C724.801 362.431 723.883 362.501 722.823 362.431C721.269 362.29 721.128 362.08 717.949 361.519C715.194 360.957 713.781 360.677 712.156 360.677C710.249 360.607 708.765 360.817 707.282 361.098C704.88 361.448 704.456 361.939 701.984 362.29C701.277 362.36 700.006 362.571 698.381 362.501C696.191 362.431 694.99 362.01 693.436 361.659C692.659 361.519 687.714 360.466 682.628 361.869C682.628 361.869 680.438 362.501 678.884 363.974C678.601 364.254 677.542 365.237 677.612 366.359C677.753 373.094 677.542 378.776 677.542 387.475C677.542 394.77 677.612 395.402 677.612 407.608C677.612 409.151 677.612 410.624 677.612 412.168C677.542 417.92 677.259 422.69 677.824 428.443C677.965 429.635 678.107 430.898 678.813 432.231C679.096 432.792 679.449 433.283 679.802 433.634C680.932 435.388 682.486 436.51 683.546 436.58C683.617 436.58 684.041 436.58 684.535 436.58H684.676H685.242C685.736 436.58 686.089 436.58 686.231 436.58H738.506C738.647 436.58 739 436.58 739.495 436.58H740.06H740.201C740.696 436.58 741.12 436.58 741.19 436.58C742.32 436.51 743.804 435.388 744.934 433.634C745.287 433.213 745.641 432.722 745.923 432.231C746.63 430.898 746.771 429.635 746.912 428.443C747.548 422.62 747.195 417.92 747.124 412.168C747.336 410.695 747.407 409.151 747.407 407.678Z" fill="#B44276"/>
<path d="M741.755 414.202V383.055C739.212 383.055 737.163 381.371 737.163 379.337H687.714C687.714 381.371 685.665 383.055 683.122 383.055V414.272C685.665 414.272 687.714 415.956 687.714 417.99H737.163C737.163 415.886 739.212 414.202 741.755 414.202Z" fill="#F3F3F3"/>
<path opacity="0.39" d="M685.524 428.373V378.565C685.524 376.391 687.361 374.567 689.551 374.567C691.74 374.567 693.577 376.391 693.577 378.565V428.443C693.577 430.618 691.74 432.442 689.551 432.442C687.29 432.371 685.524 430.618 685.524 428.373Z" fill="#F3F3F3"/>
<path opacity="0.39" d="M685.524 366.99V362.15C685.524 359.975 687.361 358.151 689.551 358.151C691.74 358.151 693.577 359.975 693.577 362.15V366.99C693.577 369.165 691.74 370.989 689.551 370.989C687.29 370.989 685.524 369.165 685.524 366.99Z" fill="#F3F3F3"/>
<path d="M720 407C724.971 407 729 402.971 729 398C729 393.029 724.971 389 720 389C715.029 389 711 393.029 711 398C711 402.971 715.029 407 720 407Z" fill="#B32646"/>
<path d="M722.1 399.95C721.65 400.4 721.05 400.4 720.6 399.95L717.75 397.25C717.3 396.8 717.3 396.2 717.75 395.75C718.2 395.3 718.8 395.3 719.25 395.75L722.1 398.45C722.55 398.9 722.55 399.65 722.1 399.95Z" fill="#6C1626"/>
<path d="M721.95 395.75C722.4 396.2 722.4 396.8 721.95 397.25L719.4 400.1C718.95 400.55 718.35 400.55 717.9 400.1C717.45 399.65 717.45 399.05 717.9 398.6L720.6 395.75C720.9 395.45 721.5 395.45 721.95 395.75Z" fill="#6C1626"/>
<path d="M706.5 404C712.299 404 717 399.299 717 393.5C717 387.701 712.299 383 706.5 383C700.701 383 696 387.701 696 393.5C696 399.299 700.701 404 706.5 404Z" fill="#B32646"/>
<path d="M708.95 395.775C708.425 396.3 707.725 396.3 707.2 395.775L703.875 392.625C703.35 392.1 703.35 391.4 703.875 390.875C704.4 390.35 705.1 390.35 705.625 390.875L708.95 394.025C709.475 394.55 709.475 395.425 708.95 395.775Z" fill="#6C1626"/>
<path d="M708.775 390.875C709.3 391.4 709.3 392.1 708.775 392.625L705.8 395.95C705.275 396.475 704.575 396.475 704.05 395.95C703.525 395.425 703.525 394.725 704.05 394.2L707.2 390.875C707.55 390.525 708.25 390.525 708.775 390.875Z" fill="#6C1626"/>
<path d="M702.3 388.6C702.825 388.25 703.7 387.55 704.4 387.025C704.575 386.85 704.925 386.675 704.925 386.325C704.925 386.325 705.1 385.625 704.75 385.275C704.4 384.925 703.7 384.925 703.525 384.925C703.35 384.925 703 385.1 702.65 385.275C702.125 385.625 701.95 385.8 701.775 385.975C701.075 386.5 700.725 386.85 700.2 387.2C699.5 387.9 699.15 388.425 698.975 388.6C698.625 389.125 698.275 389.65 697.75 390.7C697.4 391.225 697.225 391.75 697.225 392.45C697.225 392.8 697.4 392.975 697.4 393.15C697.75 393.5 698.1 393.5 698.275 393.5C698.625 393.5 698.975 393.325 698.975 393.325C699.325 393.15 699.325 392.8 699.675 392.275C699.85 391.75 699.85 391.75 700.025 391.225C700.025 391.05 700.2 390.875 700.55 390.35C701.075 389.65 701.6 389.125 702.3 388.6Z" fill="#C8637A"/>
<path d="M711 414C715.418 414 719 410.418 719 406C719 401.582 715.418 398 711 398C706.582 398 703 401.582 703 406C703 410.418 706.582 414 711 414Z" fill="#761F36"/>
<path d="M713 407.875C712.625 408.25 712.125 408.25 711.75 407.875L709.25 405.5C708.875 405.125 708.875 404.625 709.25 404.25C709.625 403.875 710.125 403.875 710.5 404.25L713 406.625C713.25 406.875 713.25 407.5 713 407.875Z" fill="#49131F"/>
<path d="M712.75 404.125C713.125 404.5 713.125 405 712.75 405.375L710.375 407.875C710 408.25 709.5 408.25 709.125 407.875C708.75 407.5 708.75 407 709.125 406.625L711.5 404.125C711.875 403.75 712.375 403.75 712.75 404.125Z" fill="#49131F"/>
<path d="M707.75 402.25C708.125 401.875 708.75 401.5 709.375 401C709.5 400.875 709.75 400.75 709.875 400.5C709.875 400.5 710 400 709.75 399.75C709.5 399.375 709 399.5 708.875 399.5C708.75 399.5 708.5 399.625 708.25 399.875C707.875 400.125 707.625 400.25 707.625 400.375C707.125 400.875 706.75 401 706.5 401.375C706 401.875 705.625 402.25 705.625 402.375C705.375 402.75 705.125 403.125 704.75 403.875C704.5 404.375 704.375 404.75 704.375 405.125C704.375 405.375 704.5 405.5 704.5 405.625C704.75 405.875 705 405.875 705.125 405.875C705.375 405.875 705.625 405.75 705.625 405.75C705.875 405.625 706 405.375 706.125 405C706.25 404.625 706.25 404.5 706.375 404.25C706.375 404.125 706.5 403.875 706.875 403.625C706.875 403.125 707.25 402.75 707.75 402.25Z" fill="#A05062"/>
</svg>
