<svg viewBox="0 0 870 540" fill="none" xmlns="http://www.w3.org/2000/svg">
    <rect x="3" y="3" width="864" height="533.4" rx="77" fill="white" stroke="#116619" stroke-width="6"/>
    <path d="M236.152 449.574C237.164 450.105 238.711 450.92 240.612 451.942C243.175 453.319 244.119 453.857 244.297 454.844C244.35 455.137 244.339 455.485 243.573 457.173C242.478 459.588 241.769 460.674 241.769 460.674C241.092 461.718 236.834 468.292 235.987 467.827C235.864 467.76 235.66 467.461 237.931 460.266C238.519 458.402 239.025 456.862 239.38 455.799C238.511 455.408 237.59 454.95 236.635 454.411C235.153 453.575 233.868 452.701 232.772 451.865L236.152 449.574V449.574Z" fill="#B23030"/>
    <path d="M193.185 449.724C192.173 450.254 190.626 451.069 188.725 452.091C186.163 453.469 185.218 454.006 185.04 454.993C184.987 455.286 184.998 455.634 185.764 457.323C186.859 459.738 187.569 460.823 187.569 460.823C188.245 461.868 192.503 468.441 193.351 467.977C193.473 467.909 193.677 467.611 191.406 460.416C190.818 458.552 190.312 457.012 189.958 455.948C190.827 455.558 191.748 455.1 192.703 454.561C194.184 453.724 195.47 452.851 196.566 452.015L193.185 449.724V449.724Z" fill="#B23030"/>
    <path d="M243.916 444.226C246.593 444.668 248.558 444.985 249.581 445.15C253.148 445.723 254.258 445.946 254.824 446.898C255.152 447.45 255.183 448.061 254.719 450.392C254.162 453.187 253.884 454.585 253.169 456.432C251.984 459.494 249.733 463.96 248.999 463.702C248.397 463.491 249.016 460.178 249.992 454.949C250.458 452.453 250.907 450.408 251.224 449.032C249.772 448.967 248.248 448.858 246.66 448.695C244.696 448.493 242.842 448.229 241.108 447.927L243.916 444.226H243.916Z" fill="#B23030"/>
    <path d="M184.11 444.108C181.433 444.55 179.468 444.867 178.445 445.032C174.878 445.605 173.768 445.828 173.202 446.78C172.874 447.332 172.843 447.943 173.308 450.274C173.864 453.069 174.143 454.467 174.857 456.314C176.042 459.376 178.294 463.842 179.028 463.585C179.629 463.374 179.01 460.06 178.034 454.831C177.568 452.335 177.119 450.291 176.803 448.914C178.255 448.849 179.778 448.741 181.366 448.577C183.331 448.375 185.185 448.111 186.919 447.809L184.11 444.108H184.11Z" fill="#B23030"/>
    <path d="M247.376 437.229C249.851 436.117 251.664 435.294 252.607 434.865C255.897 433.369 256.945 432.94 257.942 433.421C258.52 433.699 258.883 434.191 259.781 436.391C260.767 438.804 261.366 440.109 261.82 442.283C262.252 444.349 262.892 448.651 262.122 448.883C261.365 449.112 259.551 445.311 258.355 442.806C257.342 440.683 256.631 438.88 256.182 437.662C254.856 438.217 253.504 438.808 252.128 439.436C250.373 440.238 248.689 441.051 247.076 441.868C247.176 440.322 247.276 438.776 247.376 437.229V437.229Z" fill="#B23030"/>
    <path d="M180.606 437.309C178.13 436.196 176.318 435.373 175.374 434.944C172.085 433.448 171.036 433.02 170.039 433.5C169.461 433.779 169.099 434.271 168.2 436.471C167.215 438.884 166.615 440.188 166.161 442.363C165.729 444.428 165.09 448.73 165.86 448.963C166.617 449.192 168.431 445.391 169.627 442.885C170.64 440.762 171.35 438.96 171.8 437.741C173.125 438.297 174.477 438.887 175.853 439.516C177.608 440.318 179.293 441.131 180.906 441.948C180.806 440.401 180.706 438.855 180.606 437.309V437.309Z" fill="#B23030"/>
    <path d="M254.052 404.908C253.608 406.474 252.694 408.798 250.735 410.912C249.035 412.747 247.136 413.79 246.128 414.333C245.35 414.752 244.667 415.053 244.162 415.258L246.635 418.243C247.334 418.062 248.293 417.755 249.358 417.219C251.982 415.898 253.485 414.076 254.155 413.246C256.153 410.771 256.96 408.236 257.309 406.725L254.052 404.908V404.908Z" fill="#B23030"/>
    <path d="M173.948 403.531C174.392 405.097 175.306 407.421 177.265 409.535C178.965 411.37 180.864 412.413 181.872 412.956C182.65 413.375 183.333 413.676 183.838 413.881L181.365 416.866C180.666 416.685 179.707 416.378 178.642 415.842C176.018 414.521 174.515 412.7 173.845 411.869C171.847 409.394 171.04 406.859 170.691 405.348L173.948 403.531V403.531Z" fill="#C13838"/>
    <path d="M173.948 403.531C174.392 405.097 175.306 407.421 177.265 409.535C178.965 411.37 180.864 412.413 181.872 412.956C182.65 413.375 183.333 413.676 183.838 413.881L181.365 416.866C180.666 416.685 179.707 416.378 178.642 415.842C176.018 414.521 174.515 412.7 173.845 411.869C171.847 409.394 171.04 406.859 170.691 405.348L173.948 403.531V403.531Z" fill="#B23030"/>
    <path d="M149.725 396.798C150.358 398.178 153.427 404.875 160.595 406.807C165.906 408.237 170.387 406.223 172.424 405.308C174.604 404.328 179.315 402.211 181.588 397.133C184.458 390.72 181.32 384.32 180.365 382.371C177.051 375.612 171.047 372.795 169.161 372C168.851 374.741 168.307 377.898 167.365 381.335C166.591 384.163 165.684 386.679 164.77 388.861C162.5 388.221 159.88 387.313 157.069 386.004C153.959 384.555 151.363 382.965 149.282 381.504C148.747 382.952 146.45 389.65 149.725 396.798Z" fill="#C13838"/>
    <path d="M278.275 398.174C277.642 399.555 274.573 406.252 267.405 408.183C262.094 409.614 257.613 407.6 255.576 406.684C253.396 405.704 248.685 403.587 246.412 398.51C243.542 392.097 246.679 385.697 247.635 383.748C250.949 376.989 256.953 374.172 258.839 373.377C259.149 376.117 259.693 379.275 260.635 382.712C261.409 385.54 262.316 388.056 263.23 390.238C265.5 389.598 268.12 388.69 270.931 387.381C274.041 385.932 276.637 384.342 278.718 382.881C279.253 384.329 281.55 391.027 278.275 398.174L278.275 398.174Z" fill="#C13838"/>
    <path d="M278.275 398.174C278.275 398.174 277.994 398.801 277.666 399.417C275.978 402.584 273.833 404.551 273.833 404.551C273.374 404.973 270.813 407.272 267.405 408.183C265.982 408.563 264.61 408.649 264.47 408.657C264.187 408.673 263.314 408.715 262.174 408.608C261.892 408.582 260.689 408.462 259.044 407.999C258.621 407.88 257.373 407.514 255.576 406.684C253.786 405.857 251.447 404.777 249.347 402.707C248.374 401.747 247.78 400.899 247.584 400.611C247.038 399.809 246.663 399.073 246.412 398.51C247.793 399.969 250.89 402.837 255.756 404.234C261.882 405.993 266.952 404.313 268.923 403.629C273.953 401.884 277.159 398.831 278.713 397.115C278.603 397.403 278.458 397.764 278.275 398.174V398.174Z" fill="#B23030"/>
    <path d="M212.127 386.488C212.103 387.789 211.983 391.373 209.288 394.534C205.72 398.721 200.575 398.72 199.926 398.708C196.229 398.645 193.612 396.874 192.497 395.986C191.877 395.492 187.838 392.16 187.725 386.488C187.706 385.499 187.74 381.145 191.168 377.715C194.502 374.379 198.673 374.293 199.926 374.267C201.279 374.239 205.512 374.151 208.805 377.352C212.235 380.687 212.152 385.166 212.127 386.488V386.488Z" fill="#C13838"/>
    <path d="M217.039 386.146C217.063 387.448 217.184 391.031 219.878 394.193C223.447 398.379 228.591 398.378 229.24 398.367C232.937 398.304 235.555 396.533 236.669 395.645C237.29 395.15 241.328 391.818 241.441 386.146C241.461 385.157 241.426 380.804 237.998 377.374C234.664 374.038 230.493 373.951 229.24 373.925C227.887 373.897 223.654 373.81 220.361 377.011C216.932 380.345 217.015 384.824 217.039 386.146V386.146Z" fill="#C13838"/>
    <path d="M251.731 429.958C251.7 431.008 251.394 438 246.557 444.18C237.255 456.068 218.622 455.457 212.693 455.263C207.156 455.082 189.188 454.492 180.388 442.452C179.433 441.146 176.165 436.549 175.841 429.958C175.396 420.911 180.809 414.457 182.5 412.616C191.253 403.09 205.138 403.091 212.998 403.092C219.728 403.093 238.599 403.095 247.309 415.317C251.882 421.735 251.764 428.869 251.731 429.958V429.958Z" fill="#C13838"/>
    <path d="M198.348 398.218C198.474 399.365 198.538 400.741 198.435 402.29C198.315 404.093 198 405.645 197.659 406.886L202.661 406.864C202.315 405.614 201.995 404.139 201.794 402.472C201.601 400.875 201.556 399.425 201.585 398.17L198.348 398.218L198.348 398.218Z" fill="#C13838"/>
    <path d="M230.932 397.958C230.806 399.105 230.741 400.481 230.844 402.03C230.965 403.833 231.28 405.385 231.62 406.626L226.619 406.604C226.965 405.354 227.285 403.879 227.486 402.212C227.679 400.615 227.724 399.165 227.695 397.91L230.932 397.958L230.932 397.958Z" fill="#C13838"/>
    <path d="M251.731 429.958C251.696 431.182 251.404 437.945 246.557 444.18C240.513 451.956 231.466 453.663 226.567 454.588C221.911 455.466 217.715 455.374 212.693 455.263C212.263 455.253 207.379 455.132 202.747 454.37C200.297 453.967 198.019 453.402 196.877 453.065C196.232 452.874 195.46 452.632 195.459 452.632C194.546 452.345 193.607 452.035 193.167 451.88C191.169 451.176 190.152 450.592 189.628 450.247C189.604 450.231 189.367 450.066 189.366 450.064C191.54 450.738 194.689 451.516 198.557 451.786C201.035 451.959 202.918 451.861 204.275 451.786C204.752 451.76 210.565 451.415 215.832 449.971C228.672 446.451 236.609 437.993 236.609 437.992C244.763 429.303 246.739 419.357 247.309 415.317C248.533 417.062 251.951 422.411 251.731 429.958L251.731 429.958Z" fill="#B23030"/>
    <path d="M232.894 377.682C231.935 377.285 229.278 376.233 226.11 377.204C221.914 378.489 220.278 382.262 220.08 382.741C218.95 385.473 219.412 387.955 219.706 389.055C219.87 389.667 221.021 393.689 225.131 395.576C225.848 395.905 229.041 397.265 232.639 395.842C236.138 394.458 237.528 391.427 237.945 390.517C238.396 389.533 239.807 386.457 238.515 383.024C237.169 379.448 233.868 378.084 232.894 377.682Z" fill="white"/>
    <path d="M209.789 387.832C209.877 386.797 210.076 383.942 208.197 381.209C205.708 377.59 201.623 377.166 201.107 377.121C198.166 376.866 195.943 378.056 194.984 378.669C194.451 379.01 190.97 381.322 190.414 385.817C190.317 386.6 189.985 390.06 192.425 393.066C194.798 395.991 198.102 396.404 199.095 396.528C200.167 396.662 203.521 397.081 206.399 394.812C209.396 392.448 209.699 388.884 209.789 387.832Z" fill="white"/>
    <path d="M230.972 381.96C230.451 381.744 229.007 381.173 227.285 381.7C225.005 382.398 224.116 384.449 224.008 384.71C223.394 386.194 223.645 387.543 223.805 388.141C223.894 388.474 224.519 390.66 226.753 391.685C227.143 391.864 228.878 392.603 230.833 391.83C232.735 391.078 233.491 389.43 233.718 388.935C233.963 388.401 234.729 386.729 234.027 384.863C233.295 382.92 231.502 382.179 230.972 381.96V381.96Z" fill="#5E1111"/>
    <path d="M201.958 382.205C201.436 381.989 199.992 381.418 198.27 381.945C195.99 382.643 195.101 384.694 194.993 384.955C194.379 386.439 194.63 387.788 194.79 388.386C194.879 388.719 195.505 390.905 197.739 391.93C198.128 392.109 199.864 392.848 201.819 392.075C203.721 391.323 204.476 389.676 204.703 389.181C204.948 388.646 205.715 386.974 205.012 385.108C204.281 383.165 202.487 382.424 201.958 382.205V382.205Z" fill="#5E1111"/>
    <path d="M228.173 383.904C228.181 383.709 228.196 383.17 227.821 382.671C227.324 382.011 226.553 381.963 226.455 381.959C225.9 381.935 225.491 382.176 225.316 382.299C225.219 382.368 224.582 382.83 224.513 383.68C224.501 383.828 224.467 384.481 224.949 385.027C225.419 385.558 226.044 385.609 226.231 385.625C226.434 385.641 227.068 385.693 227.591 385.244C228.136 384.775 228.165 384.103 228.173 383.904H228.173Z" fill="white"/>
    <path d="M198.999 384.317C199.007 384.121 199.022 383.583 198.647 383.084C198.15 382.423 197.379 382.376 197.281 382.372C196.726 382.347 196.317 382.589 196.142 382.712C196.045 382.78 195.408 383.243 195.34 384.092C195.328 384.24 195.293 384.894 195.775 385.439C196.245 385.97 196.87 386.022 197.057 386.037C197.26 386.054 197.894 386.106 198.417 385.656C198.962 385.188 198.991 384.515 198.999 384.317H198.999Z" fill="white"/>
    <path d="M179.74 392.439L180.007 392.332C180.163 392.247 180.515 392.027 180.765 391.59C181.044 391.105 181.032 390.64 181.019 390.465C180.96 388.997 180.67 386.658 179.433 384.127C178.726 382.679 177.899 381.555 177.184 380.731C177.028 380.545 176.675 380.171 176.147 379.984C175.98 379.925 175.722 379.836 175.394 379.885C175.291 379.901 175.187 379.928 175.086 379.968L174.819 380.075C174.787 380.084 174.226 380.249 174.061 380.817C173.948 381.203 174.062 381.623 174.355 381.906C175.128 382.831 176.152 384.27 176.929 386.232C177.787 388.4 177.996 390.329 178.034 391.594C178.049 391.66 178.17 392.168 178.679 392.423C179.195 392.681 179.679 392.467 179.74 392.439L179.74 392.439Z" fill="#DB8282"/>
    <path d="M171.973 379.255C172.543 379.866 173.5 379.899 174.11 379.328C174.72 378.757 174.753 377.799 174.183 377.187L173.909 376.894C173.339 376.283 172.382 376.25 171.772 376.821C171.162 377.392 171.129 378.351 171.699 378.962L171.973 379.255Z" fill="#DB8282"/>
    <path d="M248.308 393.477L248.039 393.376C247.881 393.293 247.525 393.08 247.266 392.648C246.979 392.168 246.982 391.703 246.992 391.528C247.023 390.059 247.269 387.716 248.458 385.161C249.137 383.701 249.943 382.561 250.643 381.724C250.795 381.534 251.141 381.154 251.666 380.957C251.831 380.895 252.087 380.801 252.416 380.844C252.52 380.857 252.624 380.883 252.725 380.921L252.994 381.023C253.027 381.031 253.591 381.185 253.767 381.75C253.887 382.134 253.781 382.557 253.493 382.844C252.737 383.784 251.741 385.243 251.001 387.219C250.184 389.403 250.012 391.335 249.997 392.6C249.984 392.667 249.872 393.177 249.368 393.441C248.857 393.71 248.369 393.504 248.308 393.477V393.477Z" fill="#DB8282"/>
    <path d="M256.093 379.851C256.651 379.229 256.601 378.271 255.98 377.712C255.359 377.153 254.403 377.203 253.845 377.825L253.577 378.124C253.018 378.746 253.069 379.703 253.69 380.262C254.31 380.822 255.267 380.771 255.825 380.149L256.093 379.851Z" fill="#DB8282"/>
    <path d="M149.732 396.828C149.732 396.828 150.012 397.454 150.341 398.07C152.029 401.237 154.174 403.205 154.174 403.205C154.633 403.626 157.193 405.926 160.602 406.837C162.024 407.217 163.397 407.302 163.536 407.31C163.819 407.326 164.692 407.369 165.833 407.262C166.115 407.235 167.318 407.115 168.963 406.652C169.386 406.533 170.634 406.168 172.431 405.338C174.221 404.511 176.559 403.43 178.66 401.36C179.626 400.408 180.202 399.592 180.423 399.264C180.966 398.459 181.331 397.721 181.573 397.163C180.196 398.621 177.107 401.489 172.25 402.887C166.133 404.649 161.065 402.97 159.083 402.282C154.053 400.537 150.848 397.484 149.294 395.768C149.403 396.056 149.548 396.417 149.732 396.828L149.732 396.828Z" fill="#B23030"/>
    <path d="M203.508 411.375C203.622 411.254 207.886 417.843 213.785 417.753C219.542 417.666 223.52 411.269 223.623 411.375C223.728 411.482 220.011 418.562 213.697 418.633C207.288 418.705 203.392 411.496 203.508 411.375Z" fill="#5E1111"/>
    <path d="M345.152 259.574C346.164 260.105 347.711 260.92 349.612 261.942C352.175 263.319 353.119 263.857 353.297 264.844C353.35 265.137 353.339 265.485 352.573 267.173C351.478 269.588 350.769 270.674 350.769 270.674C350.092 271.718 345.834 278.292 344.987 277.827C344.864 277.76 344.66 277.461 346.931 270.266C347.519 268.402 348.025 266.862 348.38 265.799C347.511 265.408 346.59 264.95 345.635 264.411C344.153 263.575 342.868 262.701 341.772 261.865L345.152 259.574V259.574Z" fill="#B23030"/>
    <path d="M302.185 259.724C301.173 260.254 299.626 261.069 297.725 262.091C295.163 263.469 294.218 264.006 294.04 264.993C293.987 265.286 293.998 265.634 294.764 267.323C295.859 269.738 296.569 270.823 296.569 270.823C297.245 271.868 301.503 278.441 302.351 277.977C302.473 277.909 302.677 277.611 300.406 270.416C299.818 268.552 299.312 267.012 298.958 265.948C299.827 265.558 300.748 265.1 301.703 264.561C303.184 263.724 304.47 262.851 305.566 262.015L302.185 259.724V259.724Z" fill="#B23030"/>
    <path d="M352.916 254.226C355.593 254.668 357.558 254.985 358.581 255.15C362.148 255.723 363.258 255.946 363.824 256.898C364.152 257.45 364.183 258.061 363.719 260.392C363.162 263.187 362.884 264.584 362.169 266.432C360.984 269.493 358.733 273.96 357.999 273.702C357.397 273.491 358.016 270.178 358.992 264.949C359.458 262.453 359.907 260.408 360.224 259.032C358.772 258.967 357.248 258.858 355.66 258.695C353.696 258.493 351.842 258.229 350.108 257.927L352.916 254.226H352.916Z" fill="#B23030"/>
    <path d="M293.11 254.108C290.433 254.55 288.468 254.867 287.445 255.032C283.878 255.605 282.768 255.828 282.202 256.78C281.874 257.332 281.843 257.943 282.308 260.274C282.864 263.069 283.143 264.467 283.857 266.314C285.042 269.376 287.294 273.842 288.028 273.584C288.629 273.373 288.01 270.06 287.034 264.831C286.568 262.335 286.119 260.29 285.803 258.914C287.255 258.849 288.778 258.741 290.366 258.577C292.331 258.375 294.185 258.111 295.919 257.809L293.11 254.108H293.11Z" fill="#B23030"/>
    <path d="M356.376 247.23C358.851 246.117 360.664 245.294 361.607 244.865C364.897 243.369 365.945 242.94 366.942 243.421C367.52 243.699 367.883 244.191 368.781 246.391C369.767 248.804 370.366 250.109 370.82 252.283C371.252 254.349 371.892 258.651 371.122 258.883C370.365 259.112 368.551 255.311 367.355 252.806C366.342 250.683 365.631 248.88 365.182 247.662C363.856 248.217 362.504 248.808 361.128 249.436C359.373 250.238 357.689 251.051 356.076 251.868C356.176 250.322 356.276 248.776 356.376 247.23V247.23Z" fill="#B23030"/>
    <path d="M289.606 247.309C287.13 246.196 285.318 245.373 284.374 244.944C281.085 243.448 280.036 243.02 279.039 243.5C278.461 243.779 278.099 244.271 277.2 246.471C276.215 248.884 275.615 250.188 275.161 252.363C274.729 254.428 274.09 258.73 274.86 258.963C275.617 259.192 277.431 255.391 278.627 252.885C279.64 250.762 280.35 248.96 280.8 247.741C282.125 248.297 283.477 248.887 284.853 249.516C286.608 250.318 288.293 251.131 289.906 251.948C289.806 250.401 289.706 248.855 289.606 247.309V247.309Z" fill="#B23030"/>
    <path d="M363.052 214.908C362.608 216.474 361.694 218.798 359.735 220.912C358.035 222.747 356.136 223.79 355.128 224.333C354.35 224.752 353.667 225.053 353.162 225.258L355.635 228.243C356.334 228.062 357.293 227.755 358.358 227.219C360.982 225.898 362.485 224.076 363.155 223.246C365.153 220.771 365.96 218.236 366.309 216.725L363.052 214.908V214.908Z" fill="#B23030"/>
    <path d="M282.948 213.531C283.392 215.097 284.306 217.421 286.265 219.535C287.965 221.37 289.864 222.413 290.872 222.956C291.65 223.375 292.333 223.676 292.838 223.881L290.365 226.866C289.666 226.685 288.707 226.378 287.642 225.842C285.018 224.521 283.515 222.7 282.845 221.869C280.847 219.394 280.04 216.859 279.691 215.348L282.948 213.531V213.531Z" fill="#C13838"/>
    <path d="M282.948 213.531C283.392 215.097 284.306 217.421 286.265 219.535C287.965 221.37 289.864 222.413 290.872 222.956C291.65 223.375 292.333 223.676 292.838 223.881L290.365 226.866C289.666 226.685 288.707 226.378 287.642 225.842C285.018 224.521 283.515 222.7 282.845 221.869C280.847 219.394 280.04 216.859 279.691 215.348L282.948 213.531V213.531Z" fill="#B23030"/>
    <path d="M258.725 206.798C259.358 208.178 262.427 214.875 269.595 216.807C274.906 218.237 279.387 216.223 281.424 215.308C283.604 214.328 288.315 212.211 290.588 207.133C293.458 200.72 290.32 194.32 289.365 192.371C286.051 185.612 280.047 182.795 278.161 182C277.851 184.741 277.307 187.898 276.365 191.335C275.591 194.163 274.684 196.679 273.77 198.861C271.5 198.221 268.88 197.313 266.069 196.004C262.959 194.555 260.363 192.965 258.282 191.504C257.747 192.952 255.45 199.65 258.725 206.798Z" fill="#C13838"/>
    <path d="M387.275 208.174C386.642 209.555 383.573 216.252 376.405 218.183C371.094 219.614 366.613 217.6 364.576 216.684C362.396 215.704 357.685 213.587 355.412 208.51C352.542 202.097 355.679 195.697 356.635 193.748C359.949 186.989 365.953 184.172 367.839 183.377C368.149 186.117 368.693 189.275 369.635 192.712C370.409 195.54 371.316 198.056 372.23 200.238C374.5 199.598 377.12 198.69 379.931 197.381C383.041 195.932 385.637 194.342 387.718 192.881C388.253 194.329 390.55 201.027 387.275 208.174L387.275 208.174Z" fill="#C13838"/>
    <path d="M387.275 208.174C387.275 208.174 386.994 208.801 386.666 209.417C384.978 212.584 382.833 214.551 382.833 214.551C382.374 214.973 379.813 217.272 376.405 218.183C374.982 218.563 373.61 218.649 373.47 218.657C373.187 218.673 372.314 218.715 371.174 218.608C370.892 218.582 369.689 218.462 368.044 217.999C367.621 217.88 366.373 217.515 364.576 216.684C362.786 215.857 360.447 214.777 358.347 212.707C357.374 211.747 356.78 210.899 356.584 210.611C356.038 209.809 355.663 209.073 355.412 208.51C356.793 209.969 359.89 212.837 364.756 214.234C370.882 215.993 375.952 214.313 377.923 213.629C382.953 211.884 386.159 208.831 387.713 207.115C387.603 207.403 387.458 207.764 387.275 208.174V208.174Z" fill="#B23030"/>
    <path d="M321.127 196.488C321.103 197.789 320.983 201.373 318.288 204.534C314.72 208.721 309.575 208.72 308.926 208.708C305.229 208.645 302.612 206.874 301.497 205.986C300.877 205.492 296.838 202.16 296.725 196.488C296.706 195.499 296.74 191.145 300.168 187.715C303.502 184.379 307.673 184.293 308.926 184.267C310.279 184.239 314.512 184.151 317.805 187.352C321.235 190.687 321.152 195.166 321.127 196.488V196.488Z" fill="#C13838"/>
    <path d="M326.039 196.146C326.063 197.448 326.184 201.031 328.878 204.193C332.447 208.379 337.591 208.378 338.24 208.367C341.937 208.304 344.555 206.533 345.669 205.645C346.29 205.15 350.328 201.818 350.441 196.146C350.461 195.157 350.426 190.804 346.998 187.374C343.664 184.038 339.493 183.951 338.24 183.925C336.887 183.897 332.654 183.81 329.361 187.011C325.932 190.345 326.015 194.824 326.039 196.146V196.146Z" fill="#C13838"/>
    <path d="M360.731 239.958C360.7 241.008 360.394 248 355.557 254.18C346.255 266.068 327.622 265.457 321.693 265.263C316.156 265.082 298.188 264.492 289.388 252.452C288.433 251.146 285.165 246.549 284.841 239.958C284.396 230.911 289.809 224.457 291.5 222.616C300.253 213.09 314.138 213.091 321.998 213.092C328.728 213.093 347.599 213.095 356.309 225.317C360.882 231.735 360.764 238.869 360.731 239.958V239.958Z" fill="#C13838"/>
    <path d="M307.348 208.218C307.474 209.365 307.538 210.741 307.435 212.29C307.315 214.093 307 215.645 306.659 216.886L311.661 216.864C311.315 215.614 310.995 214.139 310.794 212.472C310.601 210.875 310.556 209.425 310.585 208.17L307.348 208.218L307.348 208.218Z" fill="#C13838"/>
    <path d="M339.932 207.958C339.806 209.105 339.741 210.481 339.844 212.03C339.965 213.833 340.28 215.385 340.62 216.626L335.619 216.604C335.965 215.354 336.285 213.879 336.486 212.212C336.679 210.615 336.724 209.165 336.695 207.91L339.932 207.958L339.932 207.958Z" fill="#C13838"/>
    <path d="M360.731 239.958C360.696 241.182 360.404 247.945 355.557 254.18C349.513 261.956 340.466 263.663 335.567 264.588C330.911 265.466 326.715 265.374 321.693 265.263C321.263 265.253 316.379 265.132 311.747 264.37C309.297 263.967 307.019 263.402 305.877 263.065C305.232 262.874 304.46 262.632 304.459 262.632C303.546 262.345 302.607 262.035 302.167 261.88C300.169 261.176 299.152 260.592 298.628 260.247C298.604 260.231 298.367 260.066 298.366 260.064C300.54 260.738 303.689 261.516 307.557 261.786C310.035 261.959 311.918 261.861 313.275 261.786C313.752 261.76 319.565 261.415 324.832 259.971C337.672 256.451 345.609 247.993 345.609 247.992C353.763 239.303 355.739 229.357 356.309 225.317C357.533 227.062 360.951 232.411 360.731 239.958L360.731 239.958Z" fill="#B23030"/>
    <path d="M341.894 187.682C340.935 187.285 338.278 186.233 335.11 187.204C330.914 188.489 329.278 192.262 329.08 192.741C327.95 195.473 328.412 197.955 328.706 199.055C328.87 199.667 330.021 203.689 334.131 205.576C334.848 205.905 338.041 207.265 341.639 205.842C345.138 204.458 346.528 201.427 346.945 200.517C347.396 199.533 348.807 196.457 347.515 193.024C346.169 189.448 342.868 188.084 341.894 187.682Z" fill="white"/>
    <path d="M318.789 197.833C318.877 196.797 319.076 193.942 317.197 191.209C314.708 187.59 310.623 187.166 310.107 187.121C307.166 186.866 304.943 188.056 303.984 188.669C303.451 189.01 299.97 191.322 299.414 195.817C299.317 196.6 298.985 200.06 301.425 203.067C303.798 205.991 307.102 206.404 308.095 206.528C309.167 206.662 312.521 207.081 315.399 204.812C318.396 202.448 318.699 198.884 318.789 197.833Z" fill="white"/>
    <path d="M339.972 191.96C339.451 191.744 338.007 191.173 336.285 191.7C334.005 192.398 333.116 194.449 333.008 194.71C332.394 196.194 332.645 197.543 332.805 198.141C332.894 198.474 333.519 200.66 335.753 201.685C336.143 201.864 337.878 202.603 339.833 201.83C341.735 201.078 342.491 199.43 342.718 198.935C342.963 198.401 343.729 196.729 343.027 194.863C342.295 192.92 340.502 192.179 339.972 191.96V191.96Z" fill="#5E1111"/>
    <path d="M310.958 192.205C310.436 191.989 308.992 191.418 307.27 191.945C304.99 192.643 304.101 194.694 303.993 194.955C303.379 196.439 303.63 197.788 303.79 198.386C303.879 198.719 304.505 200.905 306.739 201.93C307.128 202.109 308.864 202.848 310.819 202.075C312.721 201.323 313.476 199.676 313.703 199.181C313.948 198.646 314.715 196.974 314.012 195.108C313.281 193.165 311.487 192.424 310.958 192.205V192.205Z" fill="#5E1111"/>
    <path d="M337.173 193.904C337.181 193.709 337.196 193.17 336.821 192.671C336.324 192.011 335.553 191.963 335.455 191.959C334.9 191.935 334.491 192.176 334.316 192.299C334.219 192.368 333.582 192.83 333.513 193.68C333.501 193.828 333.467 194.481 333.949 195.027C334.419 195.558 335.044 195.609 335.231 195.625C335.434 195.641 336.068 195.693 336.591 195.244C337.136 194.775 337.165 194.103 337.173 193.904H337.173Z" fill="white"/>
    <path d="M307.999 194.317C308.007 194.121 308.022 193.583 307.647 193.084C307.15 192.423 306.379 192.376 306.281 192.372C305.726 192.347 305.317 192.589 305.142 192.712C305.045 192.78 304.408 193.243 304.34 194.092C304.328 194.24 304.293 194.894 304.775 195.439C305.245 195.97 305.87 196.022 306.057 196.037C306.26 196.054 306.894 196.106 307.417 195.656C307.962 195.188 307.991 194.515 307.999 194.317H307.999Z" fill="white"/>
    <path d="M288.74 202.439L289.007 202.332C289.163 202.247 289.515 202.027 289.765 201.59C290.044 201.105 290.032 200.64 290.019 200.465C289.96 198.997 289.67 196.658 288.433 194.127C287.726 192.679 286.899 191.555 286.184 190.731C286.028 190.545 285.675 190.171 285.147 189.984C284.98 189.925 284.722 189.836 284.394 189.885C284.291 189.901 284.187 189.928 284.086 189.968L283.819 190.075C283.787 190.084 283.226 190.249 283.061 190.817C282.948 191.203 283.062 191.623 283.355 191.906C284.128 192.831 285.152 194.27 285.929 196.232C286.787 198.4 286.996 200.329 287.034 201.594C287.049 201.66 287.17 202.168 287.679 202.423C288.195 202.681 288.679 202.467 288.74 202.439L288.74 202.439Z" fill="#DB8282"/>
    <path d="M280.973 189.255C281.543 189.866 282.5 189.899 283.11 189.328C283.72 188.757 283.753 187.799 283.183 187.187L282.909 186.894C282.339 186.283 281.382 186.25 280.772 186.821C280.162 187.392 280.129 188.351 280.699 188.962L280.973 189.255Z" fill="#DB8282"/>
    <path d="M357.308 203.477L357.039 203.376C356.881 203.293 356.525 203.08 356.266 202.648C355.979 202.168 355.982 201.703 355.992 201.528C356.023 200.059 356.269 197.716 357.458 195.161C358.137 193.701 358.943 192.561 359.643 191.724C359.795 191.534 360.141 191.154 360.666 190.957C360.831 190.895 361.087 190.801 361.416 190.844C361.52 190.857 361.624 190.883 361.725 190.921L361.994 191.023C362.027 191.031 362.591 191.185 362.767 191.75C362.887 192.134 362.781 192.557 362.493 192.844C361.737 193.784 360.741 195.243 360.001 197.219C359.184 199.403 359.012 201.335 358.997 202.6C358.984 202.667 358.872 203.177 358.368 203.441C357.857 203.71 357.369 203.504 357.308 203.477V203.477Z" fill="#DB8282"/>
    <path d="M365.093 189.851C365.651 189.229 365.601 188.271 364.98 187.712C364.359 187.153 363.403 187.203 362.845 187.825L362.577 188.124C362.018 188.746 362.069 189.703 362.69 190.262C363.31 190.822 364.267 190.771 364.825 190.149L365.093 189.851Z" fill="#DB8282"/>
    <path d="M258.732 206.828C258.732 206.828 259.012 207.454 259.341 208.07C261.029 211.237 263.174 213.205 263.174 213.205C263.633 213.626 266.193 215.926 269.602 216.837C271.024 217.217 272.397 217.302 272.536 217.31C272.819 217.326 273.692 217.369 274.833 217.262C275.115 217.235 276.318 217.115 277.963 216.652C278.386 216.533 279.634 216.168 281.431 215.338C283.221 214.511 285.559 213.43 287.66 211.36C288.626 210.408 289.202 209.592 289.423 209.264C289.966 208.459 290.331 207.721 290.573 207.163C289.196 208.621 286.107 211.489 281.25 212.887C275.133 214.649 270.065 212.97 268.083 212.282C263.053 210.537 259.848 207.484 258.294 205.768C258.403 206.056 258.548 206.417 258.732 206.828L258.732 206.828Z" fill="#B23030"/>
    <path d="M312.508 221.375C312.622 221.254 316.886 227.843 322.785 227.753C328.542 227.666 332.52 221.269 332.623 221.375C332.728 221.482 329.011 228.562 322.697 228.633C316.288 228.705 312.392 221.496 312.508 221.375Z" fill="#5E1111"/>
    <path d="M741.152 401.574C742.164 402.105 743.711 402.92 745.612 403.942C748.175 405.319 749.119 405.857 749.297 406.844C749.35 407.137 749.339 407.485 748.573 409.173C747.478 411.588 746.769 412.674 746.769 412.674C746.092 413.718 741.834 420.292 740.987 419.827C740.864 419.76 740.66 419.461 742.931 412.266C743.519 410.402 744.025 408.862 744.38 407.799C743.511 407.408 742.59 406.95 741.635 406.411C740.153 405.575 738.868 404.701 737.772 403.865L741.152 401.574V401.574Z" fill="#B23030"/>
    <path d="M698.185 401.724C697.173 402.254 695.626 403.069 693.725 404.091C691.163 405.469 690.218 406.006 690.04 406.993C689.987 407.286 689.998 407.634 690.764 409.323C691.859 411.738 692.569 412.823 692.569 412.823C693.245 413.868 697.503 420.441 698.351 419.977C698.473 419.909 698.677 419.611 696.406 412.416C695.818 410.552 695.312 409.012 694.958 407.948C695.827 407.558 696.748 407.1 697.703 406.561C699.184 405.724 700.47 404.851 701.566 404.015L698.185 401.724V401.724Z" fill="#B23030"/>
    <path d="M748.916 396.226C751.593 396.668 753.558 396.985 754.581 397.15C758.148 397.723 759.258 397.946 759.824 398.898C760.152 399.45 760.183 400.061 759.719 402.392C759.162 405.187 758.884 406.585 758.169 408.432C756.984 411.494 754.733 415.96 753.999 415.702C753.397 415.491 754.016 412.178 754.992 406.949C755.458 404.453 755.907 402.408 756.224 401.032C754.772 400.967 753.248 400.858 751.66 400.695C749.696 400.493 747.842 400.229 746.108 399.927L748.916 396.226H748.916Z" fill="#B23030"/>
    <path d="M689.11 396.108C686.433 396.55 684.468 396.867 683.445 397.032C679.878 397.605 678.768 397.828 678.202 398.78C677.874 399.332 677.843 399.943 678.308 402.274C678.864 405.069 679.143 406.467 679.857 408.314C681.042 411.376 683.294 415.842 684.028 415.585C684.629 415.374 684.01 412.06 683.034 406.831C682.568 404.335 682.119 402.291 681.803 400.914C683.255 400.849 684.778 400.741 686.366 400.577C688.331 400.375 690.185 400.111 691.919 399.809L689.11 396.108H689.11Z" fill="#B23030"/>
    <path d="M752.376 389.229C754.851 388.117 756.664 387.294 757.607 386.865C760.897 385.369 761.945 384.94 762.942 385.421C763.52 385.699 763.883 386.191 764.781 388.391C765.767 390.804 766.366 392.109 766.82 394.283C767.252 396.349 767.892 400.651 767.122 400.883C766.365 401.112 764.551 397.311 763.355 394.806C762.342 392.683 761.631 390.88 761.182 389.662C759.856 390.217 758.504 390.808 757.128 391.436C755.373 392.238 753.689 393.051 752.076 393.868C752.176 392.322 752.276 390.776 752.376 389.229V389.229Z" fill="#B23030"/>
    <path d="M685.606 389.309C683.13 388.196 681.318 387.373 680.374 386.944C677.085 385.448 676.036 385.02 675.039 385.5C674.461 385.779 674.099 386.271 673.2 388.471C672.215 390.884 671.615 392.188 671.161 394.363C670.729 396.428 670.09 400.73 670.86 400.963C671.617 401.192 673.431 397.391 674.627 394.885C675.64 392.762 676.35 390.96 676.8 389.741C678.125 390.297 679.477 390.887 680.853 391.516C682.608 392.318 684.293 393.131 685.906 393.948C685.806 392.401 685.706 390.855 685.606 389.309V389.309Z" fill="#B23030"/>
    <path d="M759.052 356.908C758.608 358.474 757.694 360.798 755.735 362.912C754.035 364.747 752.136 365.79 751.128 366.333C750.35 366.752 749.667 367.053 749.162 367.258L751.635 370.243C752.334 370.062 753.293 369.755 754.358 369.219C756.982 367.898 758.485 366.076 759.155 365.246C761.153 362.771 761.96 360.236 762.309 358.725L759.052 356.908V356.908Z" fill="#B23030"/>
    <path d="M678.948 355.531C679.392 357.097 680.306 359.421 682.265 361.535C683.965 363.37 685.864 364.413 686.872 364.956C687.65 365.375 688.333 365.676 688.838 365.881L686.365 368.866C685.666 368.685 684.707 368.378 683.642 367.842C681.018 366.521 679.515 364.7 678.845 363.869C676.847 361.394 676.04 358.859 675.691 357.348L678.948 355.531V355.531Z" fill="#C13838"/>
    <path d="M678.948 355.531C679.392 357.097 680.306 359.421 682.265 361.535C683.965 363.37 685.864 364.413 686.872 364.956C687.65 365.375 688.333 365.676 688.838 365.881L686.365 368.866C685.666 368.685 684.707 368.378 683.642 367.842C681.018 366.521 679.515 364.7 678.845 363.869C676.847 361.394 676.04 358.859 675.691 357.348L678.948 355.531V355.531Z" fill="#B23030"/>
    <path d="M654.725 348.798C655.358 350.178 658.427 356.875 665.595 358.807C670.906 360.237 675.387 358.223 677.424 357.308C679.604 356.328 684.315 354.211 686.588 349.133C689.458 342.72 686.32 336.32 685.365 334.371C682.051 327.612 676.047 324.795 674.161 324C673.851 326.741 673.307 329.898 672.365 333.335C671.591 336.163 670.684 338.679 669.77 340.861C667.5 340.221 664.88 339.313 662.069 338.004C658.959 336.555 656.363 334.965 654.282 333.504C653.747 334.952 651.45 341.65 654.725 348.798Z" fill="#C13838"/>
    <path d="M783.275 350.174C782.642 351.555 779.573 358.252 772.405 360.183C767.094 361.614 762.613 359.6 760.576 358.684C758.396 357.704 753.685 355.587 751.412 350.51C748.542 344.097 751.679 337.697 752.635 335.748C755.949 328.989 761.953 326.172 763.839 325.377C764.149 328.117 764.693 331.275 765.635 334.712C766.409 337.54 767.316 340.056 768.23 342.238C770.5 341.598 773.12 340.69 775.931 339.381C779.041 337.932 781.637 336.342 783.718 334.881C784.253 336.329 786.55 343.027 783.275 350.174L783.275 350.174Z" fill="#C13838"/>
    <path d="M783.275 350.174C783.275 350.174 782.994 350.801 782.666 351.417C780.978 354.584 778.833 356.551 778.833 356.551C778.374 356.973 775.813 359.272 772.405 360.183C770.982 360.563 769.61 360.649 769.47 360.657C769.187 360.673 768.314 360.715 767.174 360.608C766.892 360.582 765.689 360.462 764.044 359.999C763.621 359.88 762.373 359.514 760.576 358.684C758.786 357.857 756.447 356.777 754.347 354.707C753.374 353.747 752.78 352.899 752.584 352.611C752.038 351.809 751.663 351.073 751.412 350.51C752.793 351.969 755.89 354.837 760.756 356.234C766.882 357.993 771.952 356.313 773.923 355.629C778.953 353.884 782.159 350.831 783.713 349.115C783.603 349.403 783.458 349.764 783.275 350.174V350.174Z" fill="#B23030"/>
    <path d="M717.127 338.488C717.103 339.789 716.983 343.373 714.288 346.534C710.72 350.721 705.575 350.72 704.926 350.708C701.229 350.645 698.612 348.874 697.497 347.986C696.877 347.492 692.838 344.16 692.725 338.488C692.706 337.499 692.74 333.145 696.168 329.715C699.502 326.379 703.673 326.293 704.926 326.267C706.279 326.239 710.512 326.151 713.805 329.352C717.235 332.687 717.152 337.166 717.127 338.488V338.488Z" fill="#C13838"/>
    <path d="M722.039 338.146C722.063 339.448 722.184 343.031 724.878 346.193C728.447 350.379 733.591 350.378 734.24 350.367C737.937 350.304 740.555 348.533 741.669 347.645C742.29 347.15 746.328 343.818 746.441 338.146C746.461 337.157 746.426 332.804 742.998 329.374C739.664 326.038 735.493 325.951 734.24 325.925C732.887 325.897 728.654 325.81 725.361 329.011C721.932 332.345 722.015 336.824 722.039 338.146V338.146Z" fill="#C13838"/>
    <path d="M756.731 381.958C756.7 383.008 756.394 390 751.557 396.18C742.255 408.068 723.622 407.457 717.693 407.263C712.156 407.082 694.188 406.492 685.388 394.452C684.433 393.146 681.165 388.549 680.841 381.958C680.396 372.911 685.809 366.457 687.5 364.616C696.253 355.09 710.138 355.091 717.998 355.092C724.728 355.093 743.599 355.095 752.309 367.317C756.882 373.735 756.764 380.869 756.731 381.958V381.958Z" fill="#C13838"/>
    <path d="M703.348 350.218C703.474 351.365 703.538 352.741 703.435 354.29C703.315 356.093 703 357.645 702.659 358.886L707.661 358.864C707.315 357.614 706.995 356.139 706.794 354.472C706.601 352.875 706.556 351.425 706.585 350.17L703.348 350.218L703.348 350.218Z" fill="#C13838"/>
    <path d="M735.932 349.958C735.806 351.105 735.741 352.481 735.844 354.03C735.965 355.833 736.28 357.385 736.62 358.626L731.619 358.604C731.965 357.354 732.285 355.879 732.486 354.212C732.679 352.615 732.724 351.165 732.695 349.91L735.932 349.958L735.932 349.958Z" fill="#C13838"/>
    <path d="M756.731 381.958C756.696 383.182 756.404 389.945 751.557 396.18C745.513 403.956 736.466 405.663 731.567 406.588C726.911 407.466 722.715 407.374 717.693 407.263C717.263 407.253 712.379 407.132 707.747 406.37C705.297 405.967 703.019 405.402 701.877 405.065C701.232 404.874 700.46 404.632 700.459 404.632C699.546 404.345 698.607 404.035 698.167 403.88C696.169 403.176 695.152 402.592 694.628 402.247C694.604 402.231 694.367 402.066 694.366 402.064C696.54 402.738 699.689 403.516 703.557 403.786C706.035 403.959 707.918 403.861 709.275 403.786C709.752 403.76 715.565 403.415 720.832 401.971C733.672 398.451 741.609 389.993 741.609 389.992C749.763 381.303 751.739 371.357 752.309 367.317C753.533 369.062 756.951 374.411 756.731 381.958L756.731 381.958Z" fill="#B23030"/>
    <path d="M737.894 329.682C736.935 329.285 734.278 328.233 731.11 329.204C726.914 330.489 725.278 334.262 725.08 334.741C723.95 337.473 724.412 339.955 724.706 341.055C724.87 341.667 726.021 345.689 730.131 347.576C730.848 347.905 734.041 349.265 737.639 347.842C741.138 346.458 742.528 343.427 742.945 342.517C743.396 341.533 744.807 338.457 743.515 335.024C742.169 331.448 738.868 330.084 737.894 329.682Z" fill="white"/>
    <path d="M714.789 339.832C714.877 338.797 715.076 335.942 713.197 333.209C710.708 329.59 706.623 329.166 706.107 329.121C703.166 328.866 700.943 330.056 699.984 330.669C699.451 331.01 695.97 333.322 695.414 337.817C695.317 338.6 694.985 342.06 697.425 345.066C699.798 347.991 703.102 348.404 704.095 348.528C705.167 348.662 708.521 349.081 711.399 346.812C714.396 344.448 714.699 340.884 714.789 339.832Z" fill="white"/>
    <path d="M735.972 333.96C735.451 333.744 734.007 333.173 732.285 333.7C730.005 334.398 729.116 336.449 729.008 336.71C728.394 338.194 728.645 339.543 728.805 340.141C728.894 340.474 729.519 342.66 731.753 343.685C732.143 343.864 733.878 344.603 735.833 343.83C737.735 343.078 738.491 341.43 738.718 340.935C738.963 340.401 739.729 338.729 739.027 336.863C738.295 334.92 736.502 334.179 735.972 333.96V333.96Z" fill="#5E1111"/>
    <path d="M706.958 334.205C706.436 333.989 704.992 333.418 703.27 333.945C700.99 334.643 700.101 336.694 699.993 336.955C699.379 338.439 699.63 339.788 699.79 340.386C699.879 340.719 700.505 342.905 702.739 343.93C703.128 344.109 704.864 344.848 706.819 344.075C708.721 343.323 709.476 341.676 709.703 341.181C709.948 340.646 710.715 338.974 710.012 337.108C709.281 335.165 707.487 334.424 706.958 334.205V334.205Z" fill="#5E1111"/>
    <path d="M733.173 335.904C733.181 335.709 733.196 335.17 732.821 334.671C732.324 334.011 731.553 333.963 731.455 333.959C730.9 333.935 730.491 334.176 730.316 334.299C730.219 334.368 729.582 334.83 729.513 335.68C729.501 335.828 729.467 336.481 729.949 337.027C730.419 337.558 731.044 337.609 731.231 337.625C731.434 337.641 732.068 337.693 732.591 337.244C733.136 336.775 733.165 336.103 733.173 335.904H733.173Z" fill="white"/>
    <path d="M703.999 336.317C704.007 336.121 704.022 335.583 703.647 335.084C703.15 334.423 702.379 334.376 702.281 334.372C701.726 334.347 701.317 334.589 701.142 334.712C701.045 334.78 700.408 335.243 700.34 336.092C700.328 336.24 700.293 336.894 700.775 337.439C701.245 337.97 701.87 338.022 702.057 338.037C702.26 338.054 702.894 338.106 703.417 337.656C703.962 337.188 703.991 336.515 703.999 336.317H703.999Z" fill="white"/>
    <path d="M684.74 344.439L685.007 344.332C685.163 344.247 685.515 344.027 685.765 343.59C686.044 343.105 686.032 342.64 686.019 342.465C685.96 340.997 685.67 338.658 684.433 336.127C683.726 334.679 682.899 333.555 682.184 332.731C682.028 332.545 681.675 332.171 681.147 331.984C680.98 331.925 680.722 331.836 680.394 331.885C680.291 331.901 680.187 331.928 680.086 331.968L679.819 332.075C679.787 332.084 679.226 332.249 679.061 332.817C678.948 333.203 679.062 333.623 679.355 333.906C680.128 334.831 681.152 336.27 681.929 338.232C682.787 340.4 682.996 342.329 683.034 343.594C683.049 343.66 683.17 344.168 683.679 344.423C684.195 344.681 684.679 344.467 684.74 344.439L684.74 344.439Z" fill="#DB8282"/>
    <path d="M676.973 331.255C677.543 331.866 678.5 331.899 679.11 331.328C679.72 330.757 679.753 329.799 679.183 329.187L678.909 328.894C678.339 328.283 677.382 328.25 676.772 328.821C676.162 329.392 676.129 330.351 676.699 330.962L676.973 331.255Z" fill="#DB8282"/>
    <path d="M753.308 345.477L753.039 345.376C752.881 345.293 752.525 345.08 752.266 344.648C751.979 344.168 751.982 343.703 751.992 343.528C752.023 342.059 752.269 339.716 753.458 337.161C754.137 335.701 754.943 334.561 755.643 333.724C755.795 333.534 756.141 333.154 756.666 332.957C756.831 332.895 757.087 332.801 757.416 332.844C757.52 332.857 757.624 332.883 757.725 332.921L757.994 333.023C758.027 333.031 758.591 333.185 758.767 333.75C758.887 334.134 758.781 334.557 758.493 334.844C757.737 335.784 756.741 337.243 756.001 339.219C755.184 341.403 755.012 343.335 754.997 344.6C754.984 344.667 754.872 345.177 754.368 345.441C753.857 345.71 753.369 345.504 753.308 345.477V345.477Z" fill="#DB8282"/>
    <path d="M761.093 331.851C761.651 331.229 761.601 330.271 760.98 329.712C760.359 329.153 759.403 329.203 758.845 329.825L758.577 330.124C758.018 330.746 758.069 331.703 758.69 332.262C759.31 332.822 760.267 332.771 760.825 332.149L761.093 331.851Z" fill="#DB8282"/>
    <path d="M654.732 348.828C654.732 348.828 655.012 349.454 655.341 350.07C657.029 353.237 659.174 355.205 659.174 355.205C659.633 355.626 662.193 357.926 665.602 358.837C667.024 359.217 668.397 359.302 668.536 359.31C668.819 359.326 669.692 359.369 670.833 359.262C671.115 359.235 672.318 359.115 673.963 358.652C674.386 358.533 675.634 358.168 677.431 357.338C679.221 356.511 681.559 355.43 683.66 353.36C684.626 352.408 685.202 351.592 685.423 351.264C685.966 350.459 686.331 349.721 686.573 349.163C685.196 350.621 682.107 353.489 677.25 354.887C671.133 356.649 666.065 354.97 664.083 354.282C659.053 352.537 655.848 349.484 654.294 347.768C654.403 348.056 654.548 348.417 654.732 348.828L654.732 348.828Z" fill="#B23030"/>
    <path d="M708.508 363.375C708.622 363.254 712.886 369.843 718.785 369.753C724.542 369.666 728.52 363.269 728.623 363.375C728.728 363.482 725.011 370.562 718.697 370.633C712.288 370.705 708.392 363.496 708.508 363.375Z" fill="#5E1111"/>
    <path d="M625.152 163.574C626.164 164.105 627.711 164.92 629.612 165.942C632.175 167.319 633.119 167.857 633.297 168.844C633.35 169.137 633.339 169.485 632.573 171.173C631.478 173.588 630.769 174.674 630.769 174.674C630.092 175.718 625.834 182.292 624.987 181.827C624.864 181.76 624.66 181.461 626.931 174.266C627.519 172.402 628.025 170.862 628.38 169.799C627.511 169.408 626.59 168.95 625.635 168.411C624.153 167.575 622.868 166.701 621.772 165.865L625.152 163.574V163.574Z" fill="#B23030"/>
    <path d="M582.185 163.724C581.173 164.254 579.626 165.069 577.725 166.091C575.163 167.469 574.218 168.006 574.04 168.993C573.987 169.286 573.998 169.634 574.764 171.323C575.859 173.738 576.569 174.823 576.569 174.823C577.245 175.868 581.503 182.441 582.351 181.977C582.473 181.909 582.677 181.611 580.406 174.416C579.818 172.552 579.312 171.012 578.958 169.948C579.827 169.558 580.748 169.1 581.703 168.561C583.184 167.724 584.47 166.851 585.566 166.015L582.185 163.724V163.724Z" fill="#B23030"/>
    <path d="M632.916 158.226C635.593 158.668 637.558 158.985 638.581 159.15C642.148 159.723 643.258 159.946 643.824 160.898C644.152 161.45 644.183 162.061 643.719 164.392C643.162 167.187 642.884 168.584 642.169 170.432C640.984 173.493 638.733 177.96 637.999 177.702C637.397 177.491 638.016 174.178 638.992 168.949C639.458 166.453 639.907 164.408 640.224 163.032C638.772 162.967 637.248 162.858 635.66 162.695C633.696 162.493 631.842 162.229 630.108 161.927L632.916 158.226H632.916Z" fill="#B23030"/>
    <path d="M573.11 158.108C570.433 158.55 568.468 158.867 567.445 159.032C563.878 159.605 562.768 159.828 562.202 160.78C561.874 161.332 561.843 161.943 562.308 164.274C562.864 167.069 563.143 168.467 563.857 170.314C565.042 173.376 567.294 177.842 568.028 177.584C568.629 177.373 568.01 174.06 567.034 168.831C566.568 166.335 566.119 164.29 565.803 162.914C567.255 162.849 568.778 162.741 570.366 162.577C572.331 162.375 574.185 162.111 575.919 161.809L573.11 158.108H573.11Z" fill="#B23030"/>
    <path d="M636.376 151.23C638.851 150.117 640.664 149.294 641.607 148.865C644.897 147.369 645.945 146.94 646.942 147.421C647.52 147.699 647.883 148.191 648.781 150.391C649.767 152.804 650.366 154.109 650.82 156.283C651.252 158.349 651.892 162.651 651.122 162.883C650.365 163.112 648.551 159.311 647.355 156.806C646.342 154.683 645.631 152.88 645.182 151.662C643.856 152.217 642.504 152.808 641.128 153.436C639.373 154.238 637.689 155.051 636.076 155.868C636.176 154.322 636.276 152.776 636.376 151.23V151.23Z" fill="#B23030"/>
    <path d="M569.606 151.309C567.13 150.196 565.318 149.373 564.374 148.944C561.085 147.448 560.036 147.02 559.039 147.5C558.461 147.779 558.099 148.271 557.2 150.471C556.215 152.884 555.615 154.188 555.161 156.363C554.729 158.428 554.09 162.73 554.86 162.963C555.617 163.192 557.431 159.391 558.627 156.885C559.64 154.762 560.35 152.96 560.8 151.741C562.125 152.297 563.477 152.887 564.853 153.516C566.608 154.318 568.293 155.131 569.906 155.948C569.806 154.401 569.706 152.855 569.606 151.309V151.309Z" fill="#B23030"/>
    <path d="M643.052 118.908C642.608 120.474 641.694 122.798 639.735 124.912C638.035 126.747 636.136 127.79 635.128 128.333C634.35 128.752 633.667 129.053 633.162 129.258L635.635 132.243C636.334 132.062 637.293 131.755 638.358 131.219C640.982 129.898 642.485 128.076 643.155 127.246C645.153 124.771 645.96 122.236 646.309 120.725L643.052 118.908V118.908Z" fill="#B23030"/>
    <path d="M562.948 117.531C563.392 119.097 564.306 121.421 566.265 123.535C567.965 125.37 569.864 126.413 570.872 126.956C571.65 127.375 572.333 127.676 572.838 127.881L570.365 130.866C569.666 130.685 568.707 130.378 567.642 129.842C565.018 128.521 563.515 126.7 562.845 125.869C560.847 123.394 560.04 120.859 559.691 119.348L562.948 117.531V117.531Z" fill="#C13838"/>
    <path d="M562.948 117.531C563.392 119.097 564.306 121.421 566.265 123.535C567.965 125.37 569.864 126.413 570.872 126.956C571.65 127.375 572.333 127.676 572.838 127.881L570.365 130.866C569.666 130.685 568.707 130.378 567.642 129.842C565.018 128.521 563.515 126.7 562.845 125.869C560.847 123.394 560.04 120.859 559.691 119.348L562.948 117.531V117.531Z" fill="#B23030"/>
    <path d="M538.725 110.798C539.358 112.178 542.427 118.875 549.595 120.807C554.906 122.237 559.387 120.223 561.424 119.308C563.604 118.328 568.315 116.211 570.588 111.133C573.458 104.72 570.32 98.3203 569.365 96.371C566.051 89.6119 560.047 86.7949 558.161 86C557.851 88.7405 557.307 91.8984 556.365 95.3353C555.591 98.163 554.684 100.679 553.77 102.861C551.5 102.221 548.88 101.313 546.069 100.004C542.959 98.5553 540.363 96.9652 538.282 95.5042C537.747 96.9523 535.45 103.65 538.725 110.798Z" fill="#C13838"/>
    <path d="M667.275 112.174C666.642 113.555 663.573 120.252 656.405 122.183C651.094 123.614 646.613 121.6 644.576 120.684C642.396 119.704 637.685 117.587 635.412 112.51C632.542 106.097 635.679 99.697 636.635 97.7478C639.949 90.9886 645.953 88.1716 647.839 87.3767C648.149 90.1172 648.693 93.2751 649.635 96.712C650.409 99.5398 651.316 102.056 652.23 104.238C654.5 103.598 657.12 102.69 659.931 101.381C663.041 99.932 665.637 98.3419 667.718 96.8809C668.253 98.329 670.55 105.027 667.275 112.174L667.275 112.174Z" fill="#C13838"/>
    <path d="M667.275 112.174C667.275 112.174 666.994 112.801 666.666 113.417C664.978 116.584 662.833 118.551 662.833 118.551C662.374 118.973 659.813 121.272 656.405 122.183C654.982 122.563 653.61 122.649 653.47 122.657C653.187 122.673 652.314 122.715 651.174 122.608C650.892 122.582 649.689 122.462 648.044 121.999C647.621 121.88 646.373 121.515 644.576 120.684C642.786 119.857 640.447 118.777 638.347 116.707C637.374 115.747 636.78 114.899 636.584 114.611C636.038 113.809 635.663 113.073 635.412 112.51C636.793 113.969 639.89 116.837 644.756 118.234C650.882 119.993 655.952 118.313 657.923 117.629C662.953 115.884 666.159 112.831 667.713 111.115C667.603 111.403 667.458 111.764 667.275 112.174V112.174Z" fill="#B23030"/>
    <path d="M601.127 100.488C601.103 101.789 600.983 105.373 598.288 108.534C594.72 112.721 589.575 112.72 588.926 112.708C585.229 112.645 582.612 110.874 581.497 109.986C580.877 109.492 576.838 106.16 576.725 100.488C576.706 99.4989 576.74 95.1452 580.168 91.7153C583.502 88.3793 587.673 88.2928 588.926 88.2669C590.279 88.2388 594.512 88.151 597.805 91.3523C601.235 94.6865 601.152 99.1657 601.127 100.488V100.488Z" fill="#C13838"/>
    <path d="M606.039 100.146C606.063 101.448 606.184 105.031 608.878 108.193C612.447 112.379 617.591 112.378 618.24 112.367C621.937 112.304 624.555 110.533 625.669 109.645C626.29 109.15 630.328 105.818 630.441 100.146C630.461 99.1575 630.426 94.8038 626.998 91.3739C623.664 88.0379 619.493 87.9514 618.24 87.9254C616.887 87.8974 612.654 87.8096 609.361 91.0109C605.932 94.3451 606.015 98.8243 606.039 100.146V100.146Z" fill="#C13838"/>
    <path d="M640.731 143.958C640.7 145.008 640.394 152 635.557 158.18C626.255 170.068 607.622 169.457 601.693 169.263C596.156 169.082 578.188 168.492 569.388 156.452C568.433 155.146 565.165 150.549 564.841 143.958C564.396 134.911 569.809 128.457 571.5 126.616C580.253 117.09 594.138 117.091 601.998 117.092C608.728 117.093 627.599 117.095 636.309 129.317C640.882 135.735 640.764 142.869 640.731 143.958V143.958Z" fill="#C13838"/>
    <path d="M587.348 112.218C587.474 113.365 587.538 114.741 587.435 116.29C587.315 118.093 587 119.645 586.659 120.886L591.661 120.864C591.315 119.614 590.995 118.139 590.794 116.472C590.601 114.875 590.556 113.425 590.585 112.17L587.348 112.218L587.348 112.218Z" fill="#C13838"/>
    <path d="M619.932 111.958C619.806 113.105 619.741 114.481 619.844 116.03C619.965 117.833 620.28 119.385 620.62 120.626L615.619 120.604C615.965 119.354 616.285 117.879 616.486 116.212C616.679 114.615 616.724 113.165 616.695 111.91L619.932 111.958L619.932 111.958Z" fill="#C13838"/>
    <path d="M640.731 143.958C640.696 145.182 640.404 151.945 635.557 158.18C629.513 165.956 620.466 167.663 615.567 168.588C610.911 169.466 606.715 169.374 601.693 169.263C601.263 169.253 596.379 169.132 591.747 168.37C589.297 167.967 587.019 167.402 585.877 167.065C585.232 166.874 584.46 166.632 584.459 166.632C583.546 166.345 582.607 166.035 582.167 165.88C580.169 165.176 579.152 164.592 578.628 164.247C578.604 164.231 578.367 164.066 578.366 164.064C580.54 164.738 583.689 165.516 587.557 165.786C590.035 165.959 591.918 165.861 593.275 165.786C593.752 165.76 599.565 165.415 604.832 163.971C617.672 160.451 625.609 151.993 625.609 151.992C633.763 143.303 635.739 133.357 636.309 129.317C637.533 131.062 640.951 136.411 640.731 143.958L640.731 143.958Z" fill="#B23030"/>
    <path d="M621.894 91.6815C620.935 91.2851 618.278 90.2332 615.11 91.2036C610.914 92.4886 609.278 96.2617 609.08 96.7411C607.95 99.4725 608.412 101.955 608.706 103.055C608.87 103.667 610.021 107.689 614.131 109.576C614.848 109.905 618.041 111.265 621.639 109.842C625.138 108.458 626.528 105.427 626.945 104.517C627.396 103.533 628.807 100.457 627.515 97.0239C626.169 93.4482 622.868 92.0841 621.894 91.6815Z" fill="white"/>
    <path d="M598.789 101.833C598.877 100.797 599.076 97.9419 597.197 95.2092C594.708 91.5903 590.623 91.1662 590.107 91.1214C587.166 90.8661 584.943 92.0561 583.984 92.6693C583.451 93.0104 579.97 95.3225 579.414 99.8168C579.317 100.6 578.985 104.06 581.425 107.067C583.798 109.991 587.102 110.404 588.095 110.528C589.167 110.662 592.521 111.081 595.399 108.812C598.396 106.448 598.699 102.884 598.789 101.833Z" fill="white"/>
    <path d="M619.972 95.9597C619.451 95.7443 618.007 95.1726 616.285 95.7C614.005 96.3983 613.116 98.449 613.008 98.7096C612.394 100.194 612.645 101.543 612.805 102.141C612.894 102.474 613.519 104.66 615.753 105.685C616.143 105.864 617.878 106.603 619.833 105.83C621.735 105.078 622.491 103.43 622.718 102.935C622.963 102.401 623.729 100.729 623.027 98.8632C622.295 96.9199 620.502 96.1785 619.972 95.9597V95.9597Z" fill="#5E1111"/>
    <path d="M590.958 96.2048C590.436 95.9894 588.992 95.4177 587.27 95.9451C584.99 96.6435 584.101 98.6941 583.993 98.9547C583.379 100.439 583.63 101.788 583.79 102.386C583.879 102.719 584.505 104.905 586.739 105.93C587.128 106.109 588.864 106.848 590.819 106.075C592.721 105.323 593.476 103.676 593.703 103.181C593.948 102.646 594.715 100.974 594.012 99.1083C593.281 97.165 591.487 96.4236 590.958 96.2049V96.2048Z" fill="#5E1111"/>
    <path d="M617.173 97.9041C617.181 97.7086 617.196 97.1701 616.821 96.6712C616.324 96.0106 615.553 95.9634 615.455 95.9591C614.9 95.9346 614.491 96.1762 614.316 96.2991C614.219 96.3676 613.582 96.8301 613.513 97.6798C613.501 97.8279 613.467 98.4811 613.949 99.027C614.419 99.558 615.044 99.6093 615.231 99.6247C615.434 99.6413 616.068 99.6934 616.591 99.2436C617.136 98.7751 617.165 98.1025 617.173 97.9041H617.173Z" fill="white"/>
    <path d="M587.999 98.3165C588.007 98.1211 588.022 97.5826 587.647 97.0837C587.15 96.423 586.379 96.3759 586.281 96.3716C585.726 96.3471 585.317 96.5886 585.142 96.7116C585.045 96.78 584.408 97.2426 584.34 98.0922C584.328 98.2403 584.293 98.8936 584.775 99.4395C585.245 99.9704 585.87 100.022 586.057 100.037C586.26 100.054 586.894 100.106 587.417 99.656C587.962 99.1875 587.991 98.515 587.999 98.3165H587.999Z" fill="white"/>
    <path d="M568.74 106.439L569.007 106.332C569.163 106.247 569.515 106.027 569.765 105.59C570.044 105.105 570.032 104.64 570.019 104.465C569.96 102.997 569.67 100.658 568.433 98.1267C567.726 96.6794 566.899 95.555 566.184 94.7312C566.028 94.5449 565.675 94.1714 565.147 93.9841C564.98 93.9252 564.722 93.8362 564.394 93.8851C564.291 93.9005 564.187 93.928 564.086 93.9684L563.819 94.075C563.787 94.0839 563.226 94.2485 563.061 94.8171C562.948 95.203 563.062 95.6234 563.355 95.9058C564.128 96.8313 565.152 98.2705 565.929 100.232C566.787 102.4 566.996 104.329 567.034 105.594C567.049 105.66 567.17 106.168 567.679 106.423C568.195 106.681 568.679 106.467 568.74 106.439L568.74 106.439Z" fill="#DB8282"/>
    <path d="M560.973 93.2552C561.543 93.8664 562.5 93.899 563.11 93.328C563.72 92.7571 563.753 91.7987 563.183 91.1875L562.909 90.8942C562.339 90.2829 561.382 90.2503 560.772 90.8213C560.162 91.3923 560.129 92.3507 560.699 92.9619L560.973 93.2552Z" fill="#DB8282"/>
    <path d="M637.308 107.477L637.039 107.376C636.881 107.293 636.525 107.08 636.266 106.648C635.979 106.168 635.982 105.703 635.992 105.528C636.023 104.059 636.269 101.716 637.458 99.161C638.137 97.7006 638.943 96.5607 639.643 95.7236C639.795 95.5343 640.141 95.1543 640.666 94.957C640.831 94.895 641.087 94.8011 641.416 94.8438C641.52 94.8572 641.624 94.8827 641.725 94.9212L641.994 95.0228C642.027 95.031 642.591 95.185 642.767 95.7503C642.887 96.1341 642.781 96.5566 642.493 96.8444C641.737 97.7844 640.741 99.2427 640.001 101.219C639.184 103.403 639.012 105.335 638.997 106.6C638.984 106.667 638.872 107.177 638.368 107.441C637.857 107.71 637.369 107.504 637.308 107.477V107.477Z" fill="#DB8282"/>
    <path d="M645.093 93.8508C645.651 93.2289 645.601 92.2713 644.98 91.712C644.359 91.1527 643.403 91.2034 642.845 91.8252L642.577 92.1237C642.018 92.7456 642.069 93.7032 642.69 94.2625C643.31 94.8218 644.267 94.7711 644.825 94.1493L645.093 93.8508Z" fill="#DB8282"/>
    <path d="M538.732 110.828C538.732 110.828 539.012 111.454 539.341 112.07C541.029 115.237 543.174 117.205 543.174 117.205C543.633 117.626 546.193 119.926 549.602 120.837C551.024 121.217 552.397 121.302 552.536 121.31C552.819 121.326 553.692 121.369 554.833 121.262C555.115 121.235 556.318 121.115 557.963 120.652C558.386 120.533 559.634 120.168 561.431 119.338C563.221 118.511 565.559 117.43 567.66 115.36C568.626 114.408 569.202 113.592 569.423 113.264C569.966 112.459 570.331 111.721 570.573 111.163C569.196 112.621 566.107 115.489 561.25 116.887C555.133 118.649 550.065 116.97 548.083 116.282C543.053 114.537 539.848 111.484 538.294 109.768C538.403 110.056 538.548 110.417 538.732 110.828L538.732 110.828Z" fill="#B23030"/>
    <path d="M592.508 125.375C592.622 125.254 596.886 131.843 602.785 131.753C608.542 131.666 612.52 125.269 612.623 125.375C612.728 125.482 609.011 132.562 602.697 132.633C596.288 132.705 592.392 125.496 592.508 125.375Z" fill="#5E1111"/>
</svg>
