<svg width="156" height="156" viewBox="0 0 156 156" fill="none" xmlns="http://www.w3.org/2000/svg">
<rect x="2" y="2" width="152" height="152" rx="30" fill="white" stroke="#834EA5" stroke-width="4"/>
<path d="M117.639 30.1643C112.797 29.3439 109.159 32.7479 105.647 34.7593C99.971 38.0104 97.9721 35.2703 78.4188 34.8133C68.151 34.5722 59.5024 34.6658 51.1902 34.7593C48.5077 34.7899 41.1149 31.8807 32.9305 35.1588C31.9024 36.0497 30.6638 36.6634 29.3322 36.9417C28.8937 37.0006 28.4498 37.0072 28.0098 36.9615C28.3696 40.666 28.886 45.5723 29.5642 51.3441C30.1238 56.0975 30.615 59.9531 30.874 61.8512C32.1676 71.3238 33.508 78.8605 34.7081 85.8143C36.3921 95.5568 38.767 109.743 41.5449 127.87C42.9113 129.397 44.4098 130.801 46.023 132.065C49.8788 134.993 54.3117 137.07 59.0292 138.159C59.9647 138.404 61.3897 138.767 63.2122 139.118C73.3108 140.397 83.5304 140.397 93.6289 139.118C95.4515 138.758 96.8674 138.398 97.812 138.159C102.529 137.07 106.962 134.993 110.818 132.065C112.431 130.801 113.93 129.397 115.296 127.87C118.065 109.741 120.44 95.5568 122.133 85.8143C123.333 78.8605 124.674 71.3274 125.967 61.8584C126.636 56.9521 127.093 52.9543 127.277 51.3441C127.971 45.2431 128.459 39.9212 128.808 35.6283C127.862 34.8571 126.867 34.1474 125.83 33.5035C123.321 31.9103 120.547 30.7793 117.639 30.1643Z" fill="#48AB85"/>
<path d="M110.92 20.8698C103.785 17.9152 96.2267 16.1122 88.5262 15.528C81.6274 14.7957 74.6689 14.8252 67.7765 15.6162C60.3264 16.1415 53.018 17.9175 46.1577 20.8698C39.1572 24.0597 26.8239 31.5982 28.0905 37.4779C28.2218 38.0824 28.7616 39.9085 36.5897 43.5123C43.7496 46.7362 51.3159 48.968 59.0793 50.1458C65.8688 51.4167 72.7581 52.079 79.6654 52.1249C87.6948 52.1724 95.702 51.2763 103.522 49.4549C110.473 47.8324 117.086 45.0084 123.065 41.1104C128.169 37.7441 128.675 36.2364 128.784 35.3171C129.558 28.8706 114.423 22.3739 110.92 20.8698Z" fill="#3E705B"/>
<path d="M124.529 52.1411C124.652 52.4739 105.223 64.8827 78.7083 65.4639C51.4689 66.0594 31.0502 53.8593 31.1636 53.5192C46.0346 60.491 62.285 64.0238 78.7083 63.8554C94.6528 63.334 110.291 59.336 124.529 52.1411Z" fill="#3E705B"/>
<path d="M110.804 36.0043C104.629 33.0002 98.0383 30.9382 91.2522 29.8872C85.8167 29.0835 80.3093 28.8807 74.8294 29.2827C69.9321 29.4221 65.0631 30.077 60.303 31.2366C54.7329 32.412 49.4319 34.6191 44.6736 37.7441C42.0596 39.5238 39.663 41.6034 37.5327 43.9405C39.7749 44.9497 42.0663 45.8456 44.3983 46.6248C44.3983 46.6248 47.6548 47.6899 51.5068 48.6237C52.6115 48.8918 53.6119 49.0987 55.1501 49.4261C56.6884 49.7536 57.0447 49.8165 57.2947 49.8561C58.2483 50.0055 58.5218 50.054 59.0705 50.153C59.1353 50.1638 66.0045 51.3908 71.8194 51.8316C72.2872 51.8676 72.6758 51.8928 72.9817 51.9126C73.8435 51.9701 76.4199 52.1249 79.6566 52.1339C84.3704 52.1447 88.1576 51.8388 89.0428 51.774C93.5911 51.3926 96.9897 50.8097 97.8839 50.6532C97.8839 50.6532 101.824 49.9623 106.228 48.7802C107.769 48.3664 108.882 47.9886 109.177 47.8806C109.692 47.7007 110.143 47.5388 110.647 47.3409C112.018 46.8173 113.695 46.1768 115.742 45.2161C117.624 44.3302 119.458 43.3471 121.237 42.2708C117.95 39.8793 114.459 37.7824 110.804 36.0043Z" fill="#67C7EE"/>
<path d="M111.88 41.5152C104.947 38.1264 97.6173 35.6216 90.061 34.0594C80.3908 32.3406 70.4899 32.3796 60.8336 34.1746C60.794 33.8417 74.259 29.4805 90.4047 32.6813C103.001 35.1713 112.004 41.2363 111.88 41.5152Z" fill="#DEF0F8"/>
<path d="M104.247 42.0333C98.3482 39.4714 92.1582 37.6395 85.8149 36.5782C80.3425 35.8069 74.8089 35.5605 69.2896 35.8424C74.7919 34.7216 80.4552 34.6398 85.9876 35.6013C92.4599 36.4328 98.6828 38.6249 104.247 42.0333Z" fill="#DEF0F8"/>
<path d="M95.917 42.3194C93.1588 41.2181 90.325 40.3162 87.4376 39.6207C83.5506 38.8068 79.5777 38.4786 75.6099 38.6437C79.5947 37.8927 83.6961 38.0278 87.6229 39.0395C90.554 39.6531 93.359 40.7623 95.917 42.3194Z" fill="#DEF0F8"/>
<path d="M104.852 135.687L104.928 135.655C101.99 135.813 97.981 135.948 93.2186 135.856C88.591 135.856 83.9684 135.549 79.3812 134.939C72.7405 133.992 68.5179 133.391 63.7915 130.775C60.267 128.714 57.1444 126.032 54.5743 122.859C50.2563 117.731 48.0973 112.795 44.0672 100.809C40.3142 89.6537 37.6946 80.5985 35.6273 73.4198C33.8803 67.3548 31.7807 60.0538 29.7944 53.1306C30.2658 57.069 30.6688 60.2193 30.8955 61.8764C32.1891 71.349 33.5295 78.8839 34.7295 85.8395C36.4136 95.5819 38.7885 109.768 41.5664 127.895C42.9328 129.422 44.4313 130.826 46.0445 132.091C49.9003 135.019 54.3332 137.096 59.0507 138.184C59.9862 138.429 61.4112 138.793 63.2337 139.143C73.3323 140.423 83.5519 140.423 93.6504 139.143C95.7482 138.739 97.8335 138.184 97.8335 138.184C99.7799 137.648 101.695 137.002 103.569 136.252C103.679 136.207 104.336 135.93 104.514 135.842C104.514 135.842 104.679 135.759 104.843 135.689L104.852 135.687Z" fill="#3E705B"/>
<path d="M72.905 80.8007C72.6388 82.2411 72.0606 83.6058 71.2109 84.7991C70.3389 86.5853 68.9485 88.0669 67.2212 89.0504C65.6474 89.6487 63.9313 89.7659 62.2907 89.3872C60.6501 89.0085 59.1591 88.1509 58.0067 86.9233C56.5361 85.3579 55.686 83.3105 55.6152 81.1639C55.6769 79.468 56.1534 77.813 57.003 76.3439C57.8525 74.8748 59.0492 73.6364 60.4883 72.7369C61.5756 71.8862 62.8494 71.3058 64.2048 71.0436C65.5603 70.7814 66.9586 70.8449 68.2847 71.2288C69.6726 71.9538 70.7926 73.1032 71.4812 74.5095C72.6792 76.3746 73.1832 78.6015 72.905 80.8007Z" fill="#1D1D1B"/>
<path d="M106.865 85.5781C105.818 86.6521 104.548 87.4826 103.144 88.0106C101.383 89.0335 99.3541 89.5015 97.3229 89.3534C95.6423 88.9638 94.1153 88.0836 92.9358 86.8246C91.7563 85.5656 90.9775 83.9845 90.6982 82.2821C90.3433 80.1152 90.7877 77.8932 91.9487 76.0295C92.9674 74.6224 94.3152 73.4862 95.8743 72.7202C97.4335 71.9541 99.1564 71.5815 100.893 71.6349C102.304 71.5322 103.719 71.7661 105.022 72.3174C106.325 72.8687 107.478 73.7216 108.387 74.8058C109.152 76.2131 109.447 77.828 109.229 79.4149C109.187 81.6826 108.351 83.8637 106.865 85.5781Z" fill="#1D1D1B"/>
<path d="M58.5649 108.125C59.6981 107.397 60.9778 106.927 62.3129 106.749C64.0623 106.209 65.9339 106.209 67.6833 106.749C69.0758 107.431 70.2346 108.511 71.0128 109.852C71.7911 111.193 72.1538 112.735 72.0551 114.283C71.9298 116.257 71.0894 118.117 69.6912 119.517C68.512 120.541 67.0999 121.262 65.578 121.615C64.0562 121.969 62.471 121.944 60.961 121.543C60.1123 121.345 56.126 120.416 55.0364 117.26C54.6521 115.871 54.7206 114.396 55.2319 113.049C55.7303 111.067 56.9103 109.324 58.5649 108.125Z" fill="#1D1D1B"/>
<path d="M94.882 122.007C93.7563 121.129 92.8371 120.014 92.1892 118.742C91.036 117.183 90.38 115.312 90.3071 113.373C90.5005 111.743 91.1733 110.206 92.2404 108.957C93.3076 107.709 94.7211 106.806 96.3021 106.361C98.3191 105.795 100.473 105.982 102.362 106.888C103.799 107.707 105.014 108.866 105.9 110.263C106.786 111.66 107.316 113.252 107.444 114.901C107.69 116.225 107.618 117.589 107.233 118.879C106.849 120.17 106.164 121.351 105.234 122.325C103.981 123.195 102.484 123.643 100.959 123.606C98.8088 123.801 96.6582 123.235 94.882 122.007Z" fill="#1D1D1B"/>
</svg>
