<svg viewBox="0 0 1041 673" fill="none" xmlns="http://www.w3.org/2000/svg">
    <path d="M930.275 31.5285H109.538C60.3791 31.5285 20.5282 71.3795 20.5282 120.538V559.113C20.5282 608.271 60.3791 648.122 109.538 648.122H930.275C979.434 648.122 1019.29 608.271 1019.29 559.113V120.538C1019.29 71.3795 979.434 31.5285 930.275 31.5285Z" fill="#B6CEE1" stroke="#116619" stroke-width="6"/>
    <path d="M10.3469 40.3962C14.0803 43.5191 30.3873 57.8544 33.3678 82.5644C35.0452 97.2366 31.7442 112.047 23.9945 124.618C23.9917 129.075 23.989 133.532 23.9862 137.989C25.0232 137.01 49.8969 112.69 42.0007 79.7975C35.744 53.7353 13.6633 42.0771 10.3469 40.3962Z" fill="#48964E"/>
    <path d="M17.0569 128.701C8.9823 135.637 6.59974 141.986 5.91973 146.508C3.13445 165.034 25.505 175.593 28.6391 200.181C30.0691 211.399 26.9366 221.162 23.9805 227.768L23.9875 239.712C41.4527 218.375 42.4272 204.688 40.0084 196.092C35.2337 179.124 13.756 169.631 15.3641 150.788C15.5785 148.344 16.1464 145.945 17.05 143.665C17.0523 138.677 17.0547 133.689 17.0569 128.701Z" fill="#48964E"/>
    <path d="M17.0604 232.674C5.48571 244.641 4.28572 252.946 5.18191 258.219C6.62856 266.731 13.6659 268.101 22.5952 285.077C28.1058 295.553 28.5785 301.026 28.6456 303.67C28.7256 309.923 27.1173 316.082 23.9902 321.497L23.991 330.539C41.6305 318.739 42.9887 308.886 42.9599 304.851C42.9091 297.746 38.4361 291.725 29.6048 279.838C21.4098 268.807 15.4084 264.258 14.9216 255.415C14.7655 251.724 15.4991 248.049 17.0604 244.7V232.674Z" fill="#48964E"/>
    <path d="M17.0604 325.22V335.103C13.8048 340.271 12.0902 346.261 12.1177 352.369C12.5845 369.455 28.9968 376.064 34.1056 392.065C36.8704 400.725 36.9913 414.222 23.998 434.822C23.9945 430.933 23.991 427.045 23.9876 423.156C26.0384 415.924 26.4201 408.32 25.1039 400.919C20.7622 377.867 0.685835 370.851 0.0169104 353.992C-0.233507 347.682 2.15076 337.868 17.0604 325.22Z" fill="#48964E"/>
    <path d="M17.05 427.831C4.9767 444.271 4.77019 454.633 6.80512 461.054C10.6863 473.3 24.3095 476.221 27.465 490.052C29.351 498.318 26.4773 506.012 23.9944 510.935C23.9956 514.078 23.9968 517.22 23.9979 520.363C37.3567 504.069 38.2159 493.78 36.1716 487.248C32.6197 475.899 19.2638 472.709 15.9545 458.324C14.7897 452.761 15.1722 446.984 17.0604 441.623L17.05 427.831Z" fill="#48964E"/>
    <path d="M17.0612 515.065C8.99151 525.759 9.0124 531.824 10.4206 535.356C13.1376 542.17 22.1154 542.287 25.5465 550.039C28.053 555.702 26.0884 562.023 24.2826 566.146C24.3981 567.501 24.5498 568.909 24.7375 570.368C24.9274 571.825 25.1416 573.223 25.3799 574.563C36.23 556.687 35.4077 548.633 32.7037 544.579C28.6327 538.476 17.7069 537.555 16.3971 530.191C16.1254 528.432 16.3546 526.631 17.0587 524.996L17.0612 515.065Z" fill="#48964E"/>
    <path d="M18.0222 572.507C13.0892 583.935 14.5023 589.32 16.4895 592.115C20.584 597.873 29.2555 595.641 37.1308 602.851C40.4592 606 42.9026 609.968 44.2168 614.358C44.9419 615.213 45.7119 616.085 46.5267 616.972C47.3524 617.869 48.1675 618.718 48.972 619.52C49.211 604.959 45.11 599.01 41.3366 596.265C34.4535 591.258 24.7423 594.061 20.6399 587.632C19.2122 585.118 18.7262 582.177 19.2688 579.337C19.0586 578.382 18.8583 577.399 18.6681 576.389C18.4184 575.057 18.2031 573.763 18.0222 572.507Z" fill="#48964E"/>
    <path d="M42.0031 622.283C46.7911 638.508 53.2136 643.192 57.9382 644.631C66.9854 647.388 73.8136 639.441 88.7123 639.365C96.1929 639.413 103.556 641.227 110.203 644.66L119.037 644.657C102.87 630.479 91.01 628.438 82.73 629.801C72.3763 631.505 63.8322 639.154 54.9499 635.224C51.4655 633.513 48.6522 630.688 46.9564 627.196C46.2082 626.514 45.4495 625.795 44.6803 625.04C43.7328 624.108 42.8404 623.189 42.0031 622.283Z" fill="#48964E"/>
    <path d="M115.106 651.591C127.369 659.207 134.715 658.829 139.176 657.027C145.937 654.296 147.67 647.647 156.146 644.779C160.852 643.316 165.884 643.273 170.614 644.655H177.173C165.138 636.785 157.597 636.827 152.826 638.581C144.69 641.572 140.989 650.87 130.321 652.01C128.053 652.244 125.761 652.1 123.54 651.584L115.106 651.591Z" fill="#48964E"/>
    <path d="M176.174 651.59C191.651 661.554 201.029 661.231 206.763 659.02C215.799 655.534 218.489 646.308 229.636 643.525C235.059 642.31 240.718 642.705 245.919 644.66L253.388 644.657C239.944 633.895 230.994 633.305 225.357 634.671C213.782 637.475 209.318 650.187 194.515 652.342C190.476 652.902 186.366 652.647 182.428 651.591L176.174 651.59Z" fill="#48964E"/>
    <path d="M249.258 651.582C265.838 664.48 276.984 665.311 284.237 663.447C296.849 660.205 300.696 648.04 316.407 643.82C324.23 641.89 332.436 642.182 340.102 644.66L351.961 644.655C333.752 633.539 321.409 633.567 313.345 635.888C299.746 639.802 293.8 651.537 277.043 653.596C270.737 654.311 264.351 653.625 258.341 651.587L249.258 651.582Z" fill="#48964E"/>
    <path d="M345.465 651.591C365.599 662.904 377.705 661.874 385.027 658.872C394.833 654.852 399.56 645.86 412.771 643.525C418.459 642.583 424.289 642.969 429.804 644.655L443.017 644.658C425.156 629.441 413.953 628.334 406.868 630.539C395.057 634.214 392.044 647.915 376.764 652.231C370.046 653.964 362.974 653.737 356.381 651.577L345.465 651.591Z" fill="#48964E"/>
    <path d="M436.307 651.584C442.658 655.453 452.538 660.082 464.273 659.315C481.079 658.216 487.83 646.955 505.592 642.197C514.149 639.904 527.156 638.613 545.113 644.65L557.538 644.652C526.411 625.02 509.136 625.608 498.952 630.686C488.018 636.138 480.788 648.994 462.926 651.881C457.708 652.701 452.387 652.6 447.203 651.584H436.307Z" fill="#48964E"/>
    <path d="M562.702 651.585C568.452 653.494 574.507 654.314 580.558 654.002C600.049 652.891 608.674 639.807 623.353 634.671C633.854 630.996 650.008 630.496 674.713 644.655L660.42 644.66C650.354 641.913 639.791 641.525 629.551 643.525C608.509 647.856 601.319 660.833 583.509 662.119C576.428 662.63 565.421 661.455 551.171 651.587L562.702 651.585Z" fill="#48964E"/>
    <path d="M678.232 651.584C690.721 656.031 703.969 657.957 717.208 657.249C748.6 655.366 762.648 638.53 787.599 631.572C805.047 626.706 831.514 625.641 869.511 644.671L852.521 644.66C835.629 641.292 818.247 641.207 801.323 644.41C765.319 651.434 753.078 670.21 724.734 672.301C710.686 673.337 690.342 670.448 664.51 651.591L678.232 651.584Z" fill="#48964E"/>
    <path d="M863.063 651.567C886.607 667.621 902.874 668.248 913.514 665.66C932.602 661.019 935.367 645.599 956.862 642.787C972.959 640.681 980.122 648.188 995.268 643.23C1005.77 639.793 1012.88 632.731 1017.11 627.587C1009.96 632.466 1001.87 635.785 993.35 637.327C976.852 640.181 972.486 633.405 958.485 634.671C935.888 636.714 931.904 655.755 909.678 658.725C898.771 660.182 888.074 657.154 877.949 651.549L863.063 651.567Z" fill="#48964E"/>
    <path d="M999.208 69.8698C997.078 77.8959 996.929 86.3192 998.772 94.4161C1003.46 113.868 1018.27 119.09 1024.6 136.621C1027.5 144.66 1029.28 157.114 1022.75 175.443L1022.76 186.227C1042.99 157.86 1042.88 141.801 1038.91 132.342C1033.64 119.792 1018.97 112.695 1008.05 87.2683C1006.39 83.4222 1005.27 80.1954 1004.61 78.1808C1004.06 77.2256 1003.48 76.2551 1002.86 75.2693C1001.65 73.3353 1000.43 71.5367 999.208 69.8698Z" fill="#48964E"/>
    <path d="M1015.82 180.961C1011.89 187.507 1007.1 197.909 1008.95 209.578C1011.34 224.602 1022.78 229.453 1027.25 244.773C1029.47 252.361 1030.52 264.371 1022.75 281.839V294.295C1042.18 265.974 1041.87 250.456 1037.66 241.453C1032.33 230.076 1018.31 223.862 1015.52 206.479C1014.82 201.997 1014.92 197.427 1015.82 192.98V180.961Z" fill="#48964E"/>
    <path d="M1015.82 288.046C1006.9 300.577 1006.59 308.452 1008.44 313.504C1011.7 322.443 1022.43 324.583 1024.6 334.976C1025.36 339.343 1024.71 343.839 1022.75 347.816L1022.76 356.235C1032.27 345.732 1033.16 338.662 1032.12 334.09C1029.58 322.9 1013.72 319.142 1013.31 307.528C1013.28 304.468 1014.15 301.468 1015.81 298.9L1015.82 288.046Z" fill="#48964E"/>
    <path d="M1015.82 351.992C1005.73 364.487 1004.91 372.978 1006.3 378.586C1009.03 389.572 1021.11 392.861 1024.01 406.33C1025.05 411.659 1024.61 417.171 1022.75 422.272V434.384C1035.55 419.748 1036.56 410.288 1034.93 404.264C1031.75 392.556 1017.13 388.512 1014.86 373.569C1014.29 369.557 1014.62 365.469 1015.82 361.6L1015.82 351.992Z" fill="#48964E"/>
    <path d="M1015.82 426.515C1004.79 443.25 1004.97 453.074 1007.55 459.062C1011.73 468.749 1023.75 471.98 1025.04 483.19C1025.39 487.06 1024.59 490.946 1022.75 494.368L1022.75 503.382C1032.03 494.909 1033.54 488.412 1033.23 484.075C1032.34 471.543 1015.58 466.621 1013.75 451.093C1013.29 446.597 1014.01 442.06 1015.82 437.921L1015.82 426.515Z" fill="#48964E"/>
    <path d="M1015.82 499.014C1007.02 507.596 1005.4 514.24 1005.86 518.975C1006.87 529.57 1018.51 532.74 1023.27 545.39C1026.88 554.982 1024.61 564.882 1021.83 572.165C1021.6 573.851 1021.3 575.628 1020.93 577.483C1020.57 579.278 1020.17 580.978 1019.75 582.576C1036.03 561.403 1036.46 549.678 1033.45 542.808C1028.98 532.623 1014.59 527.777 1014.27 515.286C1014.22 512.647 1014.75 510.03 1015.82 507.617L1015.82 499.014Z" fill="#48964E"/>
    <path d="M1014.2 575.757C1009.84 580.03 1006.56 585.276 1004.62 591.064C1001.29 601.346 1004.9 606.523 1000.52 615.745C999.569 617.76 996.178 624.913 989.124 628.141C977.107 633.64 963.034 623.823 962.617 624.765C962.192 625.726 975.865 638.171 990.342 634.283C997.405 632.386 1005.59 626.476 1007.66 618.456C1009.61 610.929 1007.55 596.224 1009.29 592.035C1009.35 591.892 1009.8 590.836 1010.36 589.358C1010.98 587.685 1011.45 586.25 1011.78 585.179C1012.3 583.51 1012.81 581.738 1013.27 579.868C1013.63 578.455 1013.94 577.085 1014.2 575.757Z" fill="#48964E"/>
    <path d="M1001.47 61.5114C1001.37 56.6351 1000.25 51.8343 998.181 47.4151C991.658 33.5863 977.938 28.8425 974.865 27.862C988.36 26.1976 1001.09 32.6254 1006.59 43.5783C1012.43 55.2029 1007.59 66.8654 1006.81 68.643C1005.94 67.3385 1004.98 65.9914 1003.94 64.6156C1003.11 63.5224 1002.29 62.4876 1001.47 61.5114Z" fill="#48964E"/>
    <path d="M43.1074 75.3058C44.178 75.238 38.4338 54.3328 49.1947 41.4384C57.8654 31.0486 73.9217 29.8507 87.2125 30.7765C89.4119 30.2335 91.3744 29.8335 93.0296 29.5356C94.0802 29.3464 95.6591 29.081 97.592 28.8307C98.9585 28.6539 100.173 28.5271 101.193 28.4349C76.8268 18.8415 53.2042 23.3874 43.6608 37.2327C33.201 52.4074 41.9815 75.377 43.1074 75.3058Z" fill="#48964E"/>
    <path d="M93.9102 36.4152C102.92 41.8453 116.869 48.1998 132.092 45.3122C149.99 41.9171 155.559 28.4282 174.15 22.9922C183.451 20.2727 198.036 18.9772 219.103 28.0634H236.353C199.711 5.44149 178.684 6.07507 165.96 12.2196C151.449 19.2267 139.936 37.1661 118.258 37.0115C114.152 36.9709 110.076 36.3133 106.166 35.0608C103.849 35.1485 101.363 35.337 98.7344 35.6677C97.0497 35.8796 95.4402 36.1331 93.9102 36.4152Z" fill="#48964E"/>
    <path d="M228.079 34.994C228.944 35.3655 230.199 35.8987 231.72 36.5247C233.329 37.2753 234.978 37.935 236.661 38.5009C240.168 39.6001 245.142 41.035 251.186 42.359C257.024 43.638 276.468 46.4508 289.033 46.3082C320.503 45.951 334.661 25.56 366.507 19.7456C380.473 17.1958 400.921 16.8869 427.844 28.053C437.861 28.0582 447.878 28.0634 457.896 28.0685C399.445 -5.47043 365.669 -2.9533 345.479 6.02161C327.021 14.2264 308.788 32.7752 274.516 36.1947C264.406 37.1846 254.208 36.7811 244.207 34.9957L228.079 34.994Z" fill="#48964E"/>
    <path d="M437.286 34.9914C465.596 51.2299 483.707 50.326 495.115 46.3082C510.947 40.7325 518.143 27.6528 538.058 24.6155C547.925 23.263 557.975 24.4497 567.256 28.0634H586.506C555.693 5.68429 537.191 4.95595 525.662 9.56331C510.09 15.7864 504.033 33.0253 483.162 37.0114C474.91 38.4536 466.427 37.7578 458.521 34.9905C451.443 34.9908 444.364 34.9911 437.286 34.9914Z" fill="#48964E"/>
    <path d="M571.485 34.9957C596.982 49.3601 614.019 48.7852 625.05 45.3121C642.733 39.7448 651.283 24.7466 672.199 23.5087C680.314 23.1283 688.403 24.6898 695.793 28.0634H718.178C696.641 9.28632 680.986 6.98964 670.428 8.67782C649.18 12.0756 638.772 33.1835 609.666 35.9045C603.46 36.4718 597.205 36.1641 591.084 34.9904C584.551 34.9922 578.018 34.994 571.485 34.9957Z" fill="#48964E"/>
    <path d="M703.477 34.994C726.783 49.3467 740.366 48.8083 748.64 44.9801C759.428 39.9895 761.813 29.122 774.613 24.9106C784.974 21.5015 795.456 24.6605 802.943 28.0599C808.95 28.0605 814.957 28.0611 820.964 28.0617C789.526 7.85254 773.908 8.26014 765.463 13.4001C755.427 19.5093 753.178 33.732 739.786 37.3065C732.496 39.2524 725.543 37.0715 720.901 34.9957L703.477 34.994Z" fill="#48964E"/>
    <path d="M809.739 34.9931C815.789 39.6486 825.205 45.3045 836.74 45.2753C856.236 45.2261 864.499 28.9799 885.881 23.2874C895.544 20.7147 910.126 19.7014 930.432 28.0634C933.816 28.0668 937.197 28.2546 940.56 28.6259C943.741 28.9771 946.679 29.4677 949.349 30.0244C907.174 3.31472 886.881 4.66513 876.141 11.039C865.409 17.408 857.069 33.0336 838.068 35.5357C833.569 36.1109 829.005 35.9275 824.567 34.9931H809.739Z" fill="#48964E"/>
    <path d="M934.578 35.0669C941.184 39.498 948.551 42.6711 956.309 44.4268C966.959 46.7913 978.032 46.4488 988.516 43.4307C979.796 43.5594 971.096 42.5926 962.617 40.553C959.399 39.7762 956.384 38.8836 953.578 37.9281C947.375 36.2526 941 35.2927 934.578 35.0669V35.0669Z" fill="#48964E"/>
    <path d="M101.41 35.4048C107.838 38.3593 117.565 41.6527 128.908 40.4694C152.537 38.0046 160.464 18.485 181.344 14.101C191.498 11.9689 206.67 13.0066 227.939 28.0634C226.906 28.0455 225.873 28.0275 224.84 28.0096C205.872 15.3877 191.931 14.5196 182.672 16.0932C160.602 19.8442 152.631 39.5941 129.016 42.2109C116.358 43.6134 105.462 39.3998 98.4162 35.7754L101.41 35.4048Z" fill="#76B779"/>
    <path d="M95.3166 29.1536C85.4727 25.4876 74.7352 24.9592 64.5788 27.6407C59.6373 29.0252 51.9161 31.1809 46.4277 38.2288C39.199 47.5115 40.6058 58.6408 41.0045 61.2498C40.6717 58.7011 39.5176 47.6986 46.8534 38.7216C52.3326 32.0165 60.2123 29.9397 64.8739 28.7106C73.9135 26.4302 83.4148 26.7632 92.2725 29.6711C93.2873 29.4985 94.302 29.3261 95.3166 29.1536Z" fill="#76B779"/>
    <path d="M237.66 34.9823C252 39.4528 273.205 43.7283 297.002 38.7822C330.164 31.8895 340.922 12.7916 368.942 7.64491C385.526 4.59893 410.17 6.06971 443.834 28.0613L439.167 28.0649C408.29 9.14934 385.263 7.93983 369.975 10.3012C340.724 14.8193 329.915 33.9371 297.666 40.8482C271.862 46.3781 248.691 40.5865 233.399 34.9946C234.82 34.9906 236.24 34.9864 237.66 34.9823Z" fill="#76B779"/>
    <path d="M444.941 34.9912C452.929 40.0391 465.38 46.0804 479.841 44.6481C504.225 42.2332 513.083 20.6748 537.726 17.8641C546.079 16.9114 558.71 17.8318 575.226 28.0738L578.428 28.0634C560.424 15.2718 546.765 13.831 537.394 15.0972C514.3 18.2174 505.779 39.3249 480.948 41.9918C467.882 43.3952 456.562 39.0194 448.925 35.0007C447.597 34.9976 446.269 34.9944 444.941 34.9912Z" fill="#76B779"/>
    <path d="M578.18 34.9873C595.154 43.6952 608.029 44.0214 616.417 42.8772C642.702 39.292 652.867 17.4572 676.737 17.5321C689.165 17.5711 699.182 23.5302 705.282 28.0599C706.237 28.0611 707.192 28.0623 708.147 28.0634C694.849 16.8455 684.006 14.7085 676.847 14.6545C653.408 14.4776 643.263 36.4358 616.085 40.3317C601.595 42.4089 589.063 38.3766 581.209 34.9905L578.18 34.9873Z" fill="#76B779"/>
    <path d="M710.788 34.9947C718.061 40.2465 728.459 45.7932 739.491 43.7627C755.801 40.7608 759.939 23.6929 776.605 19.5981C783.78 17.8351 794.554 18.163 809.898 28.0606L812.55 28.0609C794.731 15.2624 782.829 14.6367 774.982 16.9418C759.326 21.5405 755.487 39.0733 739.159 41.8811C729.507 43.5409 720.566 39.1829 714.296 34.9957C713.126 34.9953 711.957 34.995 710.788 34.9947Z" fill="#76B779"/>
    <path d="M814.955 34.9931C819.827 38.1992 827.321 42.0445 836.555 42.2132C858.284 42.6099 867.535 22.245 889.127 16.9787C899.451 14.4606 914.822 14.852 936.534 28.2863C937.876 28.3995 939.218 28.5127 940.56 28.6259C915.515 11.7737 898.952 11.6916 888.574 14.5438C868.697 20.0065 859.238 39.606 836.887 39.6676C830.25 39.6106 823.717 38.0112 817.804 34.9957C816.854 34.9949 815.905 34.994 814.955 34.9931Z" fill="#76B779"/>
    <path d="M942.44 35.713C946.569 38.605 951.123 40.8354 955.94 42.3239C963.469 44.634 970.024 44.5734 970.051 44.3714C965.338 43.7267 960.69 42.6713 956.161 41.2171C952.257 39.881 948.499 38.1504 944.946 36.0521C944.11 35.9391 943.275 35.826 942.44 35.713Z" fill="#76B779"/>
    <path d="M988.516 31.625C991.866 32.7214 994.959 34.4872 997.607 36.8153C1000.25 39.1435 1002.4 41.9854 1003.92 45.1685C1005.43 48.3515 1006.28 51.8094 1006.42 55.3321C1006.56 58.8548 1005.98 62.3689 1004.72 65.6609L1003.26 63.7362C1005.12 57.5055 1004.64 50.8135 1001.93 44.9062C999.217 38.999 994.45 34.279 988.516 31.625V31.625Z" fill="#76B779"/>
    <path d="M1000.89 72.2494C1000.26 82.8465 1002.22 93.4377 1006.61 103.106C1014.89 120.768 1027.3 124.15 1031.79 138.06C1034.42 146.21 1034.63 158.89 1022.75 178.194L1022.75 180.961C1037.32 159.553 1037.47 145.875 1034.56 137.175C1030.09 123.821 1017.69 120.015 1008.88 100.872C1005.12 92.5862 1002.93 83.6725 1002.43 74.5864C1001.92 73.8075 1001.4 73.0284 1000.89 72.2494Z" fill="#76B779"/>
    <path d="M1015.82 184.986C1013.41 189.821 1010.25 197.931 1011.24 207.509C1013.17 226.011 1028.77 232.242 1032.34 249.345C1033.89 256.745 1033.67 268.5 1022.75 285.279V288.046C1036.28 269.414 1036.85 256.783 1034.85 248.681C1030.95 232.842 1015.36 226.727 1013.09 207.878C1012.36 201.084 1013.32 194.216 1015.89 187.882L1015.82 184.986Z" fill="#76B779"/>
    <path d="M1015.82 292.088C1009.52 300.359 1009.12 306.243 1009.77 309.963C1011.78 321.513 1026.15 324.672 1027.58 336.083C1028.33 342.038 1025.19 347.306 1022.75 350.54L1022.75 351.993C1029 345.097 1029.85 339.901 1029.47 336.415C1028.21 325.102 1012.73 321.778 1010.98 309.852C1010.1 303.818 1013.13 298.335 1015.81 294.662L1015.82 292.088Z" fill="#76B779"/>
    <path d="M1015.82 354.877C1009.05 365.795 1009 373.435 1010.13 378.341C1013.12 391.204 1026.44 394.586 1028.43 407.117C1029.67 414.86 1025.9 421.893 1022.75 426.431V429.612C1031.05 419.546 1031.86 412.226 1031.16 407.486C1029.35 395.193 1016.11 391.535 1012.94 377.603C1011.09 369.49 1013.6 362.01 1015.82 357.202L1015.82 354.877Z" fill="#76B779"/>
    <path d="M1015.82 431.54C1008.4 442.61 1008.31 450.201 1009.4 454.93C1012.39 467.941 1027.27 472.146 1027.7 484.296C1027.89 489.927 1024.89 494.552 1022.75 497.237L1022.75 499.561C1026.34 495.827 1030.01 490.629 1029.76 484.592C1029.27 472.672 1013.94 468.563 1011.09 454.856C1010.08 449.965 1010.53 443.248 1015.82 434.381V431.54Z" fill="#76B779"/>
    <path d="M1015.82 501.71C1012.2 505.779 1008.04 511.875 1008.73 518.754C1009.91 530.546 1024.14 533.781 1028.14 546.46C1029.93 552.144 1030.12 561.166 1021.39 575.016L1020.97 577.285C1032.6 561.775 1032.9 552.126 1030.91 546.128C1027.02 534.456 1012.63 531.24 1011.32 519.049C1010.67 513.035 1013.52 507.801 1015.82 504.514V501.71Z" fill="#76B779"/>
    <path d="M1013.28 579.796C1009.56 584.263 1006.96 589.556 1005.71 595.232C1003.78 604.436 1007.17 608.128 1004.05 616.335C1002.26 621.337 998.873 625.614 994.418 628.509C990.52 630.91 986.009 632.127 981.432 632.014C986.042 632.394 990.662 631.406 994.714 629.174C999.559 626.322 1003.26 621.875 1005.19 616.593C1008.15 608.792 1005.06 604.977 1007.15 595.343C1008.18 590.641 1010.06 586.164 1012.68 582.125L1013.28 579.796Z" fill="#76B779"/>
    <path d="M997.001 639.983C997.064 640.333 990.231 642.707 981.801 642.934C972.39 643.188 966.73 640.613 962.47 639.688C942.876 635.435 931.042 661.361 907.498 664.948C898.802 666.273 885.711 664.976 867.933 651.561L872.47 651.556C887.78 663.167 899.182 664.259 906.393 663.447C930.198 660.764 941.56 633.571 961.584 637.474C966.077 638.35 970.601 640.712 979.883 641.164C989.645 641.638 996.936 639.623 997.001 639.983Z" fill="#76B779"/>
    <path d="M859.281 644.664C846.215 639.293 824.975 632.842 800.917 637.437C768.848 643.563 757.616 664.379 727.649 667.652C715.114 669.021 695.5 667.736 669.584 651.59L674.313 651.588C685.418 658.133 703.568 666.516 724.992 664.553C755.92 661.72 767.454 639.729 798.925 633.453C812.761 630.694 834.433 630.178 864.262 644.667L859.281 644.664Z" fill="#76B779"/>
    <path d="M664.037 644.687C651.154 638.458 640.62 637.651 632.355 638.876C610.917 642.054 603.216 659.13 583.214 660.348C572.328 661.011 562.681 656.679 555.065 651.586L558.275 651.567C563.675 654.63 572.348 658.476 582.771 657.913C602.953 656.821 610.581 640.23 630.473 636.441C638.605 634.893 651.06 635.05 668.132 644.663L664.037 644.687Z" fill="#76B779"/>
    <path d="M549.273 644.651C527.307 632.848 512.883 633.741 503.748 636.773C488.389 641.872 482.538 654.827 465.564 656.917C455.012 658.215 445.881 654.611 440.071 651.584H443.613C450.165 654.716 457.453 655.987 464.678 655.256C482.171 653.136 488.125 638.533 502.641 633.066C511.819 629.609 527.077 628.802 552.323 644.651L549.273 644.651Z" fill="#76B779"/>
    <path d="M436.493 644.699C425.159 635.342 416.761 634.257 411.147 635.039C396.579 637.07 392.128 652.885 376.026 656.068C366.737 657.905 358.204 654.622 352.47 651.582L349.186 651.586C361.832 658.828 370.85 658.786 376.542 657.618C392.27 654.389 397.166 639.573 412.18 637.991C421.167 637.044 428.928 641.349 433.652 644.656L436.493 644.699Z" fill="#76B779"/>
    <path d="M343.431 644.659C338.235 642.101 329.583 638.814 319.691 640.37C302.42 643.088 297.038 658.105 281.064 660.569C274.988 661.506 265.331 660.943 252.012 651.579L255.498 651.583C261.237 655.047 270.054 659.071 280.068 657.747C296.509 655.573 301.906 640.871 318.473 638.046C324.612 637 333.915 637.306 346.475 644.657L343.431 644.659Z" fill="#76B779"/>
    <path d="M247.944 644.659C242.921 641.619 235.444 638.27 227.644 640.094C217.346 642.502 214.939 651.951 204.641 655.533C199.415 657.351 191.182 657.998 178.634 651.591L180.69 651.591C186.805 654.03 195.311 656.168 203.756 653.264C214.324 649.631 216.651 640.901 226.316 638.323C231.472 636.947 239.267 637.176 250.6 644.659H247.944Z" fill="#76B779"/>
    <path d="M175.127 644.655C166.239 639.155 160.08 639.112 156.054 640.149C146.567 642.594 143.858 652.346 133.808 653.984C129.396 654.556 124.916 653.717 121.011 651.586L118.41 651.588C125.345 655.862 130.57 656.207 134.25 655.533C144.054 653.738 146.739 644.014 156.829 641.754C162.921 640.389 168.708 642.419 172.988 644.655H175.127Z" fill="#76B779"/>
    <path d="M113.48 644.655C100.881 635.725 91.2151 634.611 84.6116 635.335C72.9819 636.61 67.4533 643.96 59.0089 641.91C50.9138 639.944 46.2258 630.817 43.6255 623.984L45.2295 625.576C47.9039 631.28 52.4118 638.401 59.5984 640.094C68.0881 642.094 73.6296 634.944 84.0212 633.269C91.1384 632.121 101.672 633.358 116.069 644.659L113.48 644.655Z" fill="#76B779"/>
    <path d="M45.3947 615.708C45.0881 611.126 43.8752 604.984 39.3444 600.729C31.9806 593.815 21.6087 597.29 17.4301 591.064C15.7766 588.6 14.7742 584.141 18.4904 575.414C18.6191 576.098 18.7477 576.782 18.8762 577.465C17.2405 581.599 15.9684 586.871 18.4262 590.621C22.4531 596.765 32.7686 593.143 40.156 599.475C43.5126 602.352 46.5172 607.5 46.7931 617.26C46.3269 616.743 45.8608 616.225 45.3947 615.708Z" fill="#76B779"/>
    <path d="M24.5267 568.625C30.1619 559.396 29.8582 553.748 28.498 550.279C25.3031 542.13 14.6376 541.809 12.2284 534.009C10.5306 528.513 13.9362 522.549 17.0604 518.385L17.0598 520.986C15.0042 524.117 12.5214 529.002 13.8886 533.788C16.1852 541.828 27.2138 542.118 30.4902 549.892C32.026 553.536 32.245 559.742 24.7701 570.615L24.5267 568.625Z" fill="#76B779"/>
    <path d="M23.9954 513.617C27.8757 508.27 32.3657 500.169 30.8776 491.398C28.5162 477.48 13.1498 473.942 9.8488 459.745C8.55186 454.166 8.79209 445.544 17.0541 433.163L17.0568 436.816C13.8066 442.419 10.3751 450.579 12.2284 459.246C15.3589 473.887 30.8829 477.417 33.3125 490.9C34.2915 496.333 33.3424 504.481 23.9963 515.83L23.9954 513.617Z" fill="#76B779"/>
    <path d="M23.9879 426.901C27.3632 419.487 31.1935 407.891 28.0553 395.533C22.9748 375.526 3.68727 369.495 3.33725 353.254C3.2183 347.736 5.24806 339.291 17.0604 328.665V331.654C12.0455 336.702 6.43255 344.146 6.53753 353.096C6.72924 369.433 25.7937 375.553 30.7853 394.5C32.8483 402.331 32.9074 413.871 24.0156 430.083C24.0063 429.022 23.9971 427.962 23.9879 426.901Z" fill="#76B779"/>
    <path d="M23.9904 324.704C33.2302 315.786 34.4585 308.487 34.4745 304.519C34.4838 302.232 34.1043 297.556 21.7466 278.953C12.536 265.087 9.34725 262.567 8.90797 256.485C8.33726 248.583 12.9182 241.727 17.0604 237.043V240.621C14.4345 244.232 11.4841 249.593 11.7856 255.932C12.1125 262.803 16.0476 266.351 23.4068 276.85C32.9914 290.523 37.7837 297.36 37.7948 304.519C37.8022 309.238 35.9793 317.228 23.9906 327.001L23.9904 324.704Z" fill="#76B779"/>
    <path d="M23.9829 231.693C32.8396 219.498 34.1486 209.883 33.7367 203.397C32.2585 180.113 6.81397 168.925 9.46146 148.722C10.3856 142.973 13.0399 137.642 17.0705 133.439C17.0637 134.7 17.0568 135.96 17.0501 137.22C14.3671 140.553 12.5691 144.509 11.8226 148.722C8.58694 168.77 34.9488 180.476 36.9095 202.806C37.5483 210.082 35.8002 220.798 23.9846 234.682L23.9829 231.693Z" fill="#76B779"/>
    <path d="M23.9916 129.261C32.5178 118.862 37.3702 105.938 37.7949 92.4977C38.0244 81.6521 35.3223 70.9457 29.9737 61.5079C36.3822 70.5913 39.9282 81.3835 40.1561 92.4977C40.4759 114.728 26.8922 129.321 23.9897 132.305L23.9916 129.261Z" fill="#76B779"/>
    <path d="M393.818 295.595C401.224 296.224 403.417 295.398 404.787 294.628C407.865 292.902 407.24 291.07 411.455 286.897C413.425 284.948 415.419 283.32 420.274 280.777C421.438 280.167 429.92 276.778 430.813 276.482C436.916 274.453 442.541 271.07 444.255 270.039C450.306 266.4 453.353 264.51 454.364 261.019C455.192 258.164 454.971 253.921 452.321 252C450.072 250.369 447.064 251.123 445.922 251.409C442.983 252.146 441.333 253.836 438.018 257.046C432.871 262.03 430.301 264.528 429.307 265.207C425.212 268.001 417.995 269.589 416.079 270.254C414.054 270.956 410.93 272.04 408.121 270.719C405.036 269.268 404.098 265.747 403.963 265.207C403.27 262.44 404.268 260.067 406.293 255.436C412.592 241.028 413.347 239.808 415.434 238.255C416.909 237.158 418.819 236.307 422.639 234.604C429.877 231.379 430.842 232.174 434.469 229.88C437.712 227.829 436.763 227.207 443.072 221.719C445.797 219.35 447.531 217.855 450.17 216.243C453.955 213.931 454.84 214.285 458.881 212.055C462.962 209.803 468.044 206.999 467.7 204.216C467.409 201.873 463.346 200.178 460.494 200.029C457.396 199.867 454.203 201.437 453.181 201.962C452.296 202.416 450.267 203.421 446.729 206.579C443.979 209.033 441.696 211.071 438.878 214.417C435.13 218.869 435.565 219.544 432.748 222.041C429.724 224.723 427.153 225.779 425.22 226.551C423.182 227.365 420.822 228.307 420.166 227.517C419.426 226.628 421.425 224.225 423.607 220.323C424.826 218.143 425.926 215.327 428.124 209.693C429.911 205.111 431.727 200.458 433.286 194.338C435.456 185.818 436.63 180.93 433.931 177.694C433.737 177.461 431.466 174.82 428.232 175.01C425.522 175.169 423.809 177.217 423.5 177.587C421.806 179.613 421.681 181.998 421.564 183.707C421.262 188.132 420.376 192.5 419.951 196.915C419.951 196.915 419.342 203.231 417.262 210.444C416.829 211.948 415.877 215.038 409.519 227.732C403.43 239.891 402.708 240.241 400.808 245.449C399.285 249.626 397.737 253.872 396.722 259.838C395.338 267.974 396.152 272.223 394.033 273.046C391.264 274.121 386.612 268.129 385.753 267.032C381.792 261.978 380.814 256.613 380.375 254.04C379.667 249.885 380.547 250.525 380.375 239.973C380.253 232.484 379.788 230.833 381.021 227.732C381.898 225.524 383.362 223.719 386.29 220.108C390.129 215.375 391.066 215.02 393.065 212.055C393.54 211.351 395.908 207.776 397.367 202.606C398.154 199.818 401.132 189.264 396.507 185.747C394.877 184.509 392.439 184.246 390.484 184.888C387.738 185.791 386.545 188.285 386.29 188.861C385.383 190.915 385.905 192.344 385.968 195.304C386.021 197.8 385.644 199.724 384.892 203.572C383.941 208.438 381.194 217.759 378.547 217.639C377.075 217.572 376.804 214.635 374.246 208.726C372.714 205.19 369.767 198.527 364.352 193.049C362.347 191.021 355.598 184.195 350.801 186.177C348.681 187.053 347.397 189.764 347.145 191.975C346.85 194.57 348.018 196.559 348.543 197.452C349.263 198.676 350.121 199.563 352.199 201.21C355.455 203.789 357.179 204.649 359.62 206.364C361.547 207.718 363.981 209.428 366.287 212.055C367.151 213.038 370.014 216.448 371.772 221.826C373.304 226.511 374.664 230.671 372.632 233.531C369.445 238.018 360.294 235.943 358.652 235.571C356.915 235.177 348.165 233.193 344.779 226.229C343.113 222.803 343.493 219.71 340.262 213.021C339.648 211.749 338.862 210.263 337.251 209.585C334.873 208.585 331.639 209.746 330.046 211.84C329.618 212.403 328.364 214.275 329.401 219.464C329.916 222.044 331.419 229.02 337.896 234.712C344.23 240.277 351.642 241.383 353.167 241.584C360.742 242.581 366.174 240.086 368.653 243.302C369.45 244.335 369.415 245.274 369.621 247.382C370.203 253.321 371.844 259.74 373.815 264.026C376.869 270.665 380.91 272.611 379.838 276.267C379.333 277.988 378.018 278.994 377.364 279.488C373.742 282.225 368.208 281.469 364.674 279.273C361.427 277.255 362.253 275.505 358.007 270.254C355.63 267.314 353.028 265.263 347.826 261.162C341.782 256.398 338.723 254.034 336.875 254.917C335.031 255.797 334.396 259.05 334.993 261.449C335.535 263.628 336.981 264.648 340.585 267.462C347.446 272.82 350.877 275.499 352.952 277.878C353.203 278.165 355.417 280.72 358.017 283.56C358.168 283.726 358.203 283.763 358.222 283.783C359.842 285.52 361.074 286.821 363.061 287.971C365.15 289.18 366.826 289.5 368.976 290.011C374.623 291.353 373.588 291.644 379.515 293.125C383.265 294.062 386.734 294.993 393.818 295.595L393.818 295.595Z" fill="#D75047"/>
    <path d="M438.743 261.558C439.99 263.856 441.774 266.658 444.296 269.543C444.388 269.648 444.48 269.745 444.572 269.848C444.912 269.644 445.243 269.444 445.563 269.25C443.29 266.686 441.016 264.122 438.743 261.558Z" fill="#9D413B"/>
    <path d="M404.879 258.78C404.895 258.739 404.91 258.699 404.926 258.657L397.285 256.962C397.278 256.995 397.27 257.028 397.263 257.062C398.264 257.459 399.419 257.848 400.733 258.16C402.266 258.524 403.661 258.7 404.879 258.78V258.78Z" fill="#9D413B"/>
    <path d="M407.358 245.81C408.366 246.233 409.312 246.512 410.169 246.709C410.228 246.58 410.286 246.454 410.343 246.33C408.058 245.407 405.772 244.484 403.486 243.561C404.401 244.265 405.691 245.112 407.358 245.81V245.81Z" fill="#9D413B"/>
    <path d="M420.622 268.921C420.423 268.982 420.223 269.043 420.03 269.101C420.929 271.052 422.055 272.491 422.939 273.44C422.167 271.934 421.395 270.428 420.622 268.921Z" fill="#9D413B"/>
    <path d="M432.037 262.806C431.928 262.908 431.823 263.007 431.721 263.103C432.662 264.653 433.922 266.423 435.601 268.212C437.211 269.928 438.834 271.263 440.297 272.298C440.484 272.198 440.672 272.097 440.85 272C437.912 268.935 434.974 265.87 432.037 262.806Z" fill="#9D413B"/>
    <path d="M427.795 183.991C429.069 184.37 430.8 184.747 432.872 184.815C433.769 184.844 434.597 184.808 435.358 184.738C435.375 184.594 435.391 184.451 435.405 184.31C432.868 184.204 430.331 184.097 427.795 183.991L427.795 183.991Z" fill="#9D413B"/>
    <path d="M432.262 222.449C432.752 223.233 433.431 224.148 434.364 225.056C435.434 226.097 436.517 226.816 437.425 227.312C437.489 227.239 437.551 227.169 437.618 227.092C435.892 225.495 434.165 223.897 432.439 222.3C432.38 222.351 432.321 222.399 432.262 222.449Z" fill="#9D413B"/>
    <path d="M439.909 215.931C440.958 216.991 442.011 217.691 442.813 218.141C441.556 216.836 440.299 215.532 439.042 214.228C438.987 214.293 438.934 214.351 438.878 214.417C438.833 214.471 438.795 214.518 438.751 214.571C439.082 215.014 439.454 215.47 439.909 215.931Z" fill="#9D413B"/>
    <path d="M451.262 206.092C451.732 207.097 452.535 208.507 453.88 209.894C455.207 211.263 456.598 212.133 457.697 212.68C457.808 212.625 457.919 212.568 458.035 212.508C455.777 210.369 453.52 208.231 451.262 206.092V206.092Z" fill="#9D413B"/>
    <path d="M452.894 202.109C453.208 202.691 453.606 203.318 454.118 203.953C455.499 205.667 457.049 206.633 458.021 207.138C456.459 205.386 454.897 203.635 453.335 201.883C453.282 201.911 453.227 201.938 453.181 201.961C453.097 202.005 452.999 202.055 452.894 202.109V202.109Z" fill="#9D413B"/>
    <path d="M467.209 206.028C466.003 204.846 464.797 203.663 463.591 202.48C463.92 203.076 464.426 203.846 465.185 204.619C465.867 205.312 466.553 205.803 467.132 206.152C467.16 206.111 467.184 206.069 467.209 206.028Z" fill="#9D413B"/>
    <path d="M372.993 225.796C373.686 225.845 374.434 225.868 375.242 225.84C376.767 225.788 378.101 225.582 379.193 225.341C377.11 225.434 375.028 225.527 372.945 225.619C372.961 225.678 372.977 225.737 372.993 225.796H372.993Z" fill="#9D413B"/>
    <path d="M382.601 211.824C383.154 212.308 383.834 212.828 384.668 213.316C385.915 214.046 387.075 214.456 387.952 214.695C386.191 213.676 384.429 212.657 382.668 211.638C382.646 211.7 382.624 211.762 382.601 211.824H382.601Z" fill="#9D413B"/>
    <path d="M392.236 205.522C393.774 205.786 395.143 205.835 396.29 205.797C396.313 205.738 396.335 205.68 396.358 205.621C393.239 205.034 390.119 204.446 387 203.858C388.261 204.459 390.034 205.143 392.236 205.522Z" fill="#9D413B"/>
    <path d="M388.047 191.406C389.702 191.616 391.773 191.738 394.14 191.548C395.963 191.402 397.56 191.1 398.923 190.759C398.918 190.721 398.917 190.682 398.912 190.644C395.291 190.898 391.669 191.152 388.047 191.406Z" fill="#9D413B"/>
    <path d="M385.902 193.901C386.931 194.075 388.127 194.206 389.475 194.21C391.377 194.215 393.01 193.971 394.283 193.687C391.487 193.716 388.69 193.746 385.893 193.775L385.902 193.901L385.902 193.901Z" fill="#9D413B"/>
    <path d="M417.646 209.064C418.407 209.373 419.278 209.669 420.273 209.894C422.113 210.311 423.712 210.349 424.875 210.29C422.496 209.761 420.118 209.231 417.739 208.701C417.708 208.823 417.678 208.942 417.646 209.064H417.646Z" fill="#9D413B"/>
    <path d="M421.917 180.88C423.264 181.39 425.036 181.909 427.16 182.153C429.66 182.441 431.778 182.248 433.285 181.995C429.509 181.566 425.733 181.137 421.957 180.708C421.943 180.766 421.931 180.823 421.917 180.88Z" fill="#9D413B"/>
    <path d="M421.077 188.321C422.835 188.902 424.962 189.459 427.445 189.79C430.075 190.14 432.418 190.147 434.357 190.022L434.401 189.835C429.965 189.288 425.53 188.74 421.094 188.192C421.088 188.235 421.083 188.278 421.077 188.321V188.321Z" fill="#9D413B"/>
    <path d="M376.417 252.211C377.815 252.216 379.06 252.083 380.115 251.901C380.111 251.833 380.108 251.767 380.106 251.7C377.321 251.691 374.536 251.682 371.752 251.672C372.975 251.953 374.561 252.203 376.417 252.211L376.417 252.211Z" fill="#9D413B"/>
    <path d="M350.49 193.592C351.701 192.856 353.27 191.732 354.821 190.075C355.769 189.063 356.5 188.069 357.081 187.166C356.985 187.113 356.889 187.062 356.793 187.012C354.692 189.205 352.591 191.399 350.49 193.592Z" fill="#9D413B"/>
    <path d="M349.554 198.838C350.446 198.341 351.457 197.68 352.489 196.776C354.138 195.332 355.208 193.833 355.869 192.737C353.698 194.694 351.528 196.651 349.357 198.609C349.421 198.685 349.486 198.762 349.554 198.838H349.554Z" fill="#9D413B"/>
    <path d="M370.664 201.462C370.643 201.424 370.619 201.386 370.597 201.348C368.607 203.23 366.617 205.113 364.627 206.995C365.65 206.448 366.992 205.592 368.34 204.286C369.366 203.292 370.112 202.308 370.664 201.462L370.664 201.462Z" fill="#9D413B"/>
    <path d="M329.019 216.49C329.022 216.536 329.024 216.581 329.026 216.628C330.109 216.386 331.296 216.061 332.56 215.614C334.377 214.97 335.925 214.227 337.193 213.522C334.468 214.512 331.744 215.501 329.019 216.49H329.019Z" fill="#9D413B"/>
    <path d="M343.635 260.132C343.972 259.555 344.218 259.005 344.411 258.498C344.353 258.454 344.297 258.411 344.24 258.368C343.166 259.97 342.091 261.572 341.017 263.174C341.759 262.574 342.784 261.591 343.635 260.132Z" fill="#9D413B"/>
    <path d="M341.571 256.435C339.916 259.017 338.262 261.6 336.608 264.183C336.647 264.222 336.689 264.262 336.73 264.302C337.711 263.206 338.769 261.864 339.779 260.227C340.59 258.914 341.214 257.663 341.705 256.526C341.66 256.496 341.614 256.464 341.571 256.435Z" fill="#9D413B"/>
    <path d="M345.083 270.986C345.679 270.54 346.323 269.992 346.967 269.305C348.299 267.885 349.105 266.454 349.585 265.408C348.024 267.22 346.463 269.031 344.901 270.843C344.961 270.89 345.025 270.94 345.083 270.986Z" fill="#9D413B"/>
    <path d="M361.302 275.209C360.491 276.346 359.679 277.484 358.867 278.621C359.295 278.363 359.98 277.876 360.581 277.052C361.015 276.459 361.261 275.884 361.414 275.415C361.378 275.349 361.339 275.277 361.302 275.209H361.302Z" fill="#9D413B"/>
    <path d="M377.374 269.891C377.822 269.816 378.337 269.687 378.892 269.448C379.888 269.02 380.567 268.439 380.955 268.054C379.705 268.59 378.456 269.125 377.207 269.661C377.263 269.737 377.319 269.817 377.374 269.891L377.374 269.891Z" fill="#9D413B"/>
    <path d="M347.253 232.566C347.805 231.962 348.203 231.374 348.495 230.868C348.472 230.85 348.449 230.832 348.427 230.813C347.38 231.946 346.332 233.08 345.285 234.213C345.838 233.863 346.549 233.334 347.253 232.566L347.253 232.566Z" fill="#9D413B"/>
    <path d="M339.865 236.271C340.642 235.748 341.495 235.097 342.366 234.277C343.584 233.129 344.482 231.989 345.127 231.045C343.319 232.747 341.512 234.45 339.704 236.152C339.758 236.192 339.811 236.232 339.865 236.271Z" fill="#9D413B"/>
    <path d="M342.33 218.129C340.216 218.991 338.101 219.853 335.987 220.715C336.879 220.675 338.255 220.506 339.795 219.86C340.9 219.396 341.76 218.825 342.394 218.323C342.374 218.26 342.351 218.193 342.33 218.129Z" fill="#9D413B"/>
    <path d="M432.031 199.771L427.842 199.042C428.363 199.279 429.088 199.546 429.984 199.691C430.792 199.823 431.495 199.815 432.031 199.771Z" fill="#9D413B"/>
    <path d="M420.226 223.076C420.776 223.303 421.282 223.427 421.718 223.502L421.806 223.358C420.597 222.831 419.388 222.304 418.179 221.776C418.595 222.156 419.273 222.682 420.226 223.076V223.076Z" fill="#9D413B"/>
    <path d="M365.936 201.22C366.396 201.041 367.164 200.672 367.888 199.937C368.357 199.461 368.662 198.979 368.864 198.59C368.842 198.558 368.822 198.526 368.8 198.494C367.846 199.403 366.891 200.312 365.936 201.22H365.936Z" fill="#9D413B"/>
    <path d="M359.756 237.73C359.482 239.088 359.208 240.445 358.935 241.802L359.038 241.798C359.243 241.371 359.451 240.838 359.597 240.202C359.829 239.194 359.814 238.326 359.756 237.73Z" fill="#9D413B"/>
    <path d="M378.479 254.524C379.242 254.519 379.895 254.407 380.417 254.277L380.398 254.17L375.845 254.112C376.452 254.311 377.362 254.532 378.479 254.524Z" fill="#9D413B"/>
    <path d="M443.247 252.531C443.839 253.423 444.516 254.357 445.312 255.316C446.935 257.272 448.578 258.791 450.009 259.942C447.827 257.43 445.646 254.918 443.465 252.406C443.392 252.447 443.319 252.487 443.247 252.531Z" fill="#9D413B"/>
    <path d="M637.534 295.595C644.94 296.224 647.133 295.398 648.504 294.628C651.581 292.902 650.956 291.07 655.171 286.897C657.141 284.948 659.135 283.32 663.99 280.777C665.154 280.167 673.637 276.778 674.529 276.482C680.632 274.453 686.258 271.07 687.972 270.039C694.023 266.4 697.069 264.51 698.081 261.019C698.908 258.164 698.687 253.921 696.037 252C693.788 250.369 690.78 251.123 689.639 251.409C686.7 252.146 685.05 253.836 681.734 257.046C676.587 262.03 674.018 264.528 673.023 265.207C668.929 268.001 661.712 269.589 659.796 270.254C657.771 270.956 654.646 272.04 651.838 270.719C648.752 269.268 647.814 265.747 647.679 265.207C646.986 262.44 647.984 260.067 650.009 255.436C656.309 241.028 657.063 239.808 659.15 238.255C660.625 237.158 662.535 236.307 666.356 234.604C673.593 231.379 674.558 232.174 678.185 229.88C681.428 227.829 680.48 227.207 686.789 221.719C689.513 219.35 691.247 217.855 693.886 216.243C697.671 213.931 698.556 214.285 702.597 212.055C706.678 209.803 711.761 206.999 711.416 204.216C711.125 201.873 707.062 200.178 704.211 200.029C701.112 199.867 697.919 201.437 696.898 201.962C696.012 202.416 693.983 203.421 690.445 206.579C687.695 209.033 685.413 211.071 682.595 214.417C678.846 218.869 679.281 219.544 676.465 222.041C673.44 224.723 670.87 225.779 668.937 226.551C666.898 227.365 664.538 228.307 663.882 227.517C663.143 226.628 665.142 224.225 667.324 220.323C668.542 218.143 669.642 215.327 671.84 209.693C673.628 205.111 675.443 200.458 677.002 194.338C679.173 185.818 680.346 180.93 677.648 177.694C677.453 177.461 675.182 174.82 671.948 175.01C669.238 175.169 667.525 177.217 667.216 177.587C665.522 179.613 665.397 181.998 665.28 183.707C664.978 188.132 664.093 192.5 663.667 196.915C663.667 196.915 663.058 203.231 660.979 210.444C660.545 211.948 659.593 215.038 653.236 227.732C647.146 239.891 646.424 240.241 644.525 245.449C643.001 249.626 641.453 253.872 640.438 259.838C639.054 267.974 639.869 272.223 637.75 273.046C634.98 274.121 630.328 268.129 629.469 267.032C625.508 261.978 624.53 256.613 624.092 254.04C623.383 249.885 624.264 250.525 624.092 239.973C623.97 232.484 623.504 230.833 624.737 227.732C625.615 225.524 627.079 223.719 630.007 220.108C633.845 215.375 634.782 215.02 636.782 212.055C637.256 211.351 639.625 207.776 641.083 202.606C641.87 199.818 644.848 189.264 640.223 185.747C638.593 184.509 636.155 184.246 634.201 184.888C631.454 185.791 630.261 188.285 630.007 188.861C629.099 190.915 629.621 192.344 629.684 195.304C629.737 197.8 629.361 199.724 628.608 203.572C627.657 208.438 624.91 217.759 622.264 217.639C620.791 217.572 620.52 214.635 617.962 208.726C616.431 205.19 613.483 198.527 608.068 193.049C606.063 191.021 599.314 184.195 594.518 186.177C592.398 187.053 591.113 189.764 590.861 191.975C590.566 194.57 591.735 196.559 592.259 197.452C592.979 198.676 593.837 199.563 595.916 201.21C599.171 203.789 600.895 204.649 603.336 206.364C605.263 207.718 607.697 209.428 610.004 212.055C610.867 213.038 613.73 216.448 615.488 221.826C617.02 226.511 618.38 230.671 616.349 233.531C613.161 238.018 604.01 235.943 602.368 235.571C600.631 235.177 591.882 233.193 588.495 226.229C586.829 222.803 587.21 219.71 583.979 213.021C583.364 211.749 582.578 210.263 580.967 209.585C578.589 208.585 575.355 209.746 573.762 211.84C573.334 212.403 572.08 214.275 573.117 219.464C573.632 222.044 575.135 229.02 581.613 234.712C587.946 240.277 595.358 241.383 596.884 241.584C604.459 242.581 609.89 240.086 612.37 243.302C613.166 244.335 613.131 245.274 613.338 247.382C613.919 253.321 615.56 259.74 617.532 264.026C620.585 270.665 624.626 272.611 623.554 276.267C623.049 277.988 621.735 278.994 621.081 279.488C617.458 282.225 611.924 281.469 608.391 279.273C605.143 277.255 605.969 275.505 601.723 270.254C599.346 267.314 596.745 265.263 591.542 261.162C585.499 256.398 582.439 254.034 580.591 254.917C578.747 255.797 578.112 259.05 578.709 261.449C579.251 263.628 580.697 264.648 584.301 267.462C591.163 272.82 594.593 275.499 596.668 277.878C596.919 278.165 599.134 280.72 601.733 283.56C601.885 283.726 601.919 283.763 601.938 283.783C603.558 285.52 604.79 286.821 606.777 287.971C608.867 289.18 610.542 289.5 612.692 290.011C618.339 291.353 617.305 291.644 623.231 293.125C626.981 294.062 630.45 294.993 637.534 295.595L637.534 295.595Z" fill="#D75047"/>
    <path d="M682.459 261.558C683.706 263.856 685.49 266.658 688.013 269.543C688.105 269.648 688.197 269.745 688.289 269.848C688.628 269.644 688.959 269.444 689.279 269.25C687.006 266.686 684.732 264.122 682.459 261.558Z" fill="#9D413B"/>
    <path d="M648.595 258.78C648.611 258.739 648.626 258.699 648.643 258.657L641.002 256.962C640.994 256.995 640.987 257.028 640.979 257.062C641.98 257.459 643.135 257.848 644.449 258.16C645.982 258.524 647.378 258.7 648.595 258.78V258.78Z" fill="#9D413B"/>
    <path d="M651.074 245.81C652.082 246.233 653.028 246.512 653.886 246.709C653.945 246.58 654.002 246.454 654.06 246.33C651.774 245.407 649.488 244.484 647.202 243.561C648.118 244.265 649.407 245.112 651.074 245.81V245.81Z" fill="#9D413B"/>
    <path d="M664.339 268.921C664.14 268.982 663.939 269.043 663.746 269.101C664.645 271.052 665.771 272.491 666.655 273.44C665.883 271.934 665.111 270.428 664.339 268.921Z" fill="#9D413B"/>
    <path d="M675.753 262.806C675.644 262.908 675.54 263.007 675.437 263.103C676.378 264.653 677.639 266.423 679.317 268.212C680.928 269.928 682.551 271.263 684.013 272.298C684.2 272.198 684.388 272.097 684.566 272C681.628 268.935 678.691 265.87 675.753 262.806Z" fill="#9D413B"/>
    <path d="M671.511 183.991C672.785 184.37 674.516 184.747 676.588 184.815C677.485 184.844 678.313 184.808 679.074 184.738C679.091 184.594 679.107 184.451 679.121 184.31C676.584 184.204 674.047 184.097 671.511 183.991L671.511 183.991Z" fill="#9D413B"/>
    <path d="M675.978 222.449C676.469 223.233 677.147 224.148 678.08 225.056C679.15 226.097 680.233 226.816 681.141 227.312C681.205 227.239 681.267 227.169 681.334 227.092C679.608 225.495 677.882 223.897 676.156 222.3C676.096 222.351 676.037 222.399 675.978 222.449Z" fill="#9D413B"/>
    <path d="M683.625 215.931C684.674 216.991 685.727 217.691 686.529 218.141C685.272 216.836 684.015 215.532 682.758 214.228C682.703 214.293 682.65 214.351 682.595 214.417C682.549 214.471 682.512 214.518 682.467 214.571C682.799 215.014 683.17 215.47 683.625 215.931Z" fill="#9D413B"/>
    <path d="M694.978 206.092C695.448 207.097 696.251 208.507 697.596 209.894C698.923 211.263 700.314 212.133 701.414 212.68C701.524 212.625 701.635 212.568 701.751 212.508C699.493 210.369 697.236 208.231 694.978 206.092V206.092Z" fill="#9D413B"/>
    <path d="M696.61 202.109C696.925 202.691 697.322 203.318 697.834 203.953C699.215 205.667 700.765 206.633 701.738 207.138C700.176 205.386 698.614 203.635 697.052 201.883C696.998 201.911 696.943 201.938 696.898 201.961C696.814 202.005 696.716 202.055 696.61 202.109V202.109Z" fill="#9D413B"/>
    <path d="M710.925 206.028C709.719 204.846 708.513 203.663 707.307 202.48C707.636 203.076 708.142 203.846 708.902 204.619C709.583 205.312 710.269 205.803 710.849 206.152C710.876 206.111 710.9 206.069 710.925 206.028Z" fill="#9D413B"/>
    <path d="M616.709 225.796C617.403 225.845 618.15 225.868 618.959 225.84C620.484 225.788 621.817 225.582 622.91 225.341C620.827 225.434 618.744 225.527 616.661 225.619C616.677 225.678 616.693 225.737 616.709 225.796H616.709Z" fill="#9D413B"/>
    <path d="M626.317 211.824C626.87 212.308 627.55 212.828 628.384 213.316C629.631 214.046 630.791 214.456 631.668 214.695C629.907 213.676 628.146 212.657 626.384 211.638C626.362 211.7 626.34 211.762 626.317 211.824H626.317Z" fill="#9D413B"/>
    <path d="M635.952 205.522C637.49 205.786 638.859 205.835 640.006 205.797C640.029 205.738 640.052 205.68 640.075 205.621C636.955 205.034 633.836 204.446 630.716 203.858C631.977 204.459 633.75 205.143 635.952 205.522Z" fill="#9D413B"/>
    <path d="M631.763 191.406C633.419 191.616 635.489 191.738 637.856 191.548C639.679 191.402 641.276 191.1 642.639 190.759C642.635 190.721 642.633 190.682 642.629 190.644C639.007 190.898 635.385 191.152 631.763 191.406Z" fill="#9D413B"/>
    <path d="M629.618 193.901C630.647 194.075 631.843 194.206 633.192 194.21C635.093 194.215 636.726 193.971 637.999 193.687C635.203 193.716 632.406 193.746 629.61 193.775L629.618 193.901L629.618 193.901Z" fill="#9D413B"/>
    <path d="M661.362 209.064C662.124 209.373 662.994 209.669 663.99 209.894C665.83 210.311 667.428 210.349 668.591 210.29C666.213 209.761 663.834 209.231 661.456 208.701C661.424 208.823 661.395 208.942 661.362 209.064H661.362Z" fill="#9D413B"/>
    <path d="M665.634 180.88C666.981 181.39 668.752 181.909 670.876 182.153C673.376 182.441 675.494 182.248 677.001 181.995C673.225 181.566 669.449 181.137 665.673 180.708C665.659 180.766 665.647 180.823 665.634 180.88Z" fill="#9D413B"/>
    <path d="M664.794 188.321C666.552 188.902 668.679 189.459 671.162 189.79C673.792 190.14 676.134 190.147 678.073 190.022L678.117 189.835C673.682 189.288 669.246 188.74 664.81 188.192C664.804 188.235 664.799 188.278 664.794 188.321V188.321Z" fill="#9D413B"/>
    <path d="M620.133 252.211C621.531 252.216 622.777 252.083 623.831 251.901C623.828 251.833 623.825 251.767 623.822 251.7C621.037 251.691 618.253 251.682 615.468 251.672C616.692 251.953 618.277 252.203 620.133 252.211L620.133 252.211Z" fill="#9D413B"/>
    <path d="M594.206 193.592C595.417 192.856 596.986 191.732 598.538 190.075C599.485 189.063 600.216 188.069 600.797 187.166C600.702 187.113 600.605 187.062 600.509 187.012C598.408 189.205 596.307 191.399 594.206 193.592Z" fill="#9D413B"/>
    <path d="M593.271 198.838C594.163 198.341 595.174 197.68 596.205 196.776C597.854 195.332 598.924 193.833 599.585 192.737C597.414 194.694 595.244 196.651 593.074 198.609C593.137 198.685 593.202 198.762 593.271 198.838H593.271Z" fill="#9D413B"/>
    <path d="M614.381 201.462C614.359 201.424 614.335 201.386 614.313 201.348C612.323 203.23 610.333 205.113 608.344 206.995C609.366 206.448 610.709 205.592 612.056 204.286C613.082 203.292 613.828 202.308 614.381 201.462L614.381 201.462Z" fill="#9D413B"/>
    <path d="M572.736 216.49C572.738 216.536 572.74 216.581 572.742 216.628C573.825 216.386 575.012 216.061 576.276 215.614C578.093 214.97 579.642 214.227 580.909 213.522C578.185 214.512 575.46 215.501 572.736 216.49H572.736Z" fill="#9D413B"/>
    <path d="M587.351 260.132C587.688 259.555 587.935 259.005 588.127 258.498C588.069 258.454 588.013 258.411 587.956 258.368C586.882 259.97 585.807 261.572 584.733 263.174C585.475 262.574 586.5 261.591 587.351 260.132Z" fill="#9D413B"/>
    <path d="M585.287 256.435C583.633 259.017 581.978 261.6 580.324 264.183C580.363 264.222 580.405 264.262 580.446 264.302C581.427 263.206 582.486 261.864 583.496 260.227C584.306 258.914 584.93 257.663 585.421 256.526C585.377 256.496 585.331 256.464 585.287 256.435Z" fill="#9D413B"/>
    <path d="M588.8 270.986C589.396 270.54 590.039 269.992 590.683 269.305C592.016 267.885 592.821 266.454 593.301 265.408C591.74 267.22 590.179 269.031 588.618 270.843C588.677 270.89 588.741 270.94 588.8 270.986Z" fill="#9D413B"/>
    <path d="M605.019 275.209C604.207 276.346 603.395 277.484 602.584 278.621C603.011 278.363 603.696 277.876 604.297 277.052C604.731 276.459 604.977 275.884 605.13 275.415C605.094 275.349 605.055 275.277 605.019 275.209H605.019Z" fill="#9D413B"/>
    <path d="M621.09 269.891C621.539 269.816 622.053 269.687 622.608 269.448C623.604 269.02 624.284 268.439 624.671 268.054C623.422 268.59 622.173 269.125 620.924 269.661C620.979 269.737 621.036 269.817 621.09 269.891L621.09 269.891Z" fill="#9D413B"/>
    <path d="M590.969 232.566C591.521 231.962 591.919 231.374 592.211 230.868C592.188 230.85 592.165 230.832 592.143 230.813C591.096 231.946 590.049 233.08 589.001 234.213C589.555 233.863 590.266 233.334 590.969 232.566L590.969 232.566Z" fill="#9D413B"/>
    <path d="M583.582 236.271C584.358 235.748 585.211 235.097 586.082 234.277C587.3 233.129 588.199 231.989 588.843 231.045C587.035 232.747 585.228 234.45 583.42 236.152C583.474 236.192 583.528 236.232 583.582 236.271Z" fill="#9D413B"/>
    <path d="M586.046 218.129C583.932 218.991 581.818 219.853 579.703 220.715C580.595 220.675 581.971 220.506 583.511 219.86C584.616 219.396 585.477 218.825 586.11 218.323C586.091 218.26 586.067 218.193 586.046 218.129Z" fill="#9D413B"/>
    <path d="M675.747 199.771L671.558 199.042C672.079 199.279 672.804 199.546 673.7 199.691C674.508 199.823 675.212 199.815 675.747 199.771Z" fill="#9D413B"/>
    <path d="M663.942 223.076C664.492 223.303 664.998 223.427 665.434 223.502L665.522 223.358C664.313 222.831 663.104 222.304 661.895 221.776C662.311 222.156 662.989 222.682 663.942 223.076V223.076Z" fill="#9D413B"/>
    <path d="M609.653 201.22C610.112 201.041 610.88 200.672 611.604 199.937C612.074 199.461 612.379 198.979 612.58 198.59C612.558 198.558 612.538 198.526 612.516 198.494C611.562 199.403 610.607 200.312 609.653 201.22H609.653Z" fill="#9D413B"/>
    <path d="M603.472 237.73C603.199 239.088 602.925 240.445 602.651 241.802L602.754 241.798C602.959 241.371 603.167 240.838 603.314 240.202C603.545 239.194 603.53 238.326 603.472 237.73Z" fill="#9D413B"/>
    <path d="M622.196 254.524C622.959 254.519 623.611 254.407 624.133 254.277L624.114 254.17L619.562 254.112C620.168 254.311 621.078 254.532 622.196 254.524Z" fill="#9D413B"/>
    <path d="M686.963 252.531C687.556 253.423 688.233 254.357 689.028 255.316C690.651 257.272 692.295 258.791 693.725 259.942C691.544 257.43 689.363 254.918 687.181 252.406C687.109 252.447 687.035 252.487 686.963 252.531Z" fill="#9D413B"/>
    <path d="M393.818 496.412C401.224 497.041 403.417 496.215 404.787 495.446C407.865 493.719 407.24 491.887 411.455 487.715C413.425 485.765 415.419 484.137 420.274 481.594C421.438 480.984 429.92 477.596 430.813 477.299C436.916 475.27 442.541 471.887 444.255 470.856C450.306 467.218 453.353 465.327 454.364 461.837C455.192 458.981 454.971 454.738 452.321 452.817C450.072 451.186 447.064 451.94 445.922 452.226C442.983 452.963 441.333 454.653 438.018 457.864C432.871 462.848 430.301 465.346 429.307 466.024C425.212 468.818 417.995 470.407 416.079 471.071C414.054 471.773 410.93 472.857 408.121 471.536C405.036 470.086 404.098 466.564 403.963 466.024C403.27 463.257 404.268 460.885 406.293 456.253C412.592 441.845 413.347 440.626 415.434 439.073C416.909 437.975 418.819 437.124 422.639 435.422C429.877 432.196 430.842 432.991 434.469 430.697C437.712 428.646 436.763 428.024 443.072 422.536C445.797 420.167 447.531 418.672 450.17 417.06C453.955 414.749 454.84 415.102 458.881 412.872C462.962 410.621 468.044 407.816 467.7 405.034C467.409 402.69 463.346 400.995 460.494 400.846C457.396 400.684 454.203 402.255 453.181 402.779C452.296 403.233 450.267 404.238 446.729 407.396C443.979 409.851 441.696 411.888 438.878 415.235C435.13 419.686 435.565 420.361 432.748 422.859C429.724 425.541 427.153 426.597 425.22 427.368C423.182 428.182 420.822 429.124 420.166 428.335C419.426 427.445 421.425 425.043 423.607 421.14C424.826 418.961 425.926 416.144 428.124 410.51C429.911 405.929 431.727 401.275 433.286 395.155C435.456 386.636 436.63 381.748 433.931 378.512C433.737 378.279 431.466 375.638 428.232 375.827C425.522 375.986 423.809 378.034 423.5 378.404C421.806 380.43 421.681 382.815 421.564 384.525C421.262 388.95 420.376 393.317 419.951 397.732C419.951 397.732 419.342 404.049 417.262 411.262C416.829 412.766 415.877 415.855 409.519 428.55C403.43 440.708 402.708 441.058 400.808 446.267C399.285 450.444 397.737 454.689 396.722 460.655C395.338 468.792 396.152 473.04 394.033 473.863C391.264 474.938 386.612 468.946 385.753 467.85C381.792 462.796 380.814 457.43 380.375 454.857C379.667 450.702 380.547 451.342 380.375 440.791C380.253 433.301 379.788 431.65 381.021 428.55C381.898 426.342 383.362 424.536 386.29 420.926C390.129 416.192 391.066 415.837 393.065 412.872C393.54 412.169 395.908 408.593 397.367 403.423C398.154 400.635 401.132 390.081 396.507 386.565C394.877 385.326 392.439 385.063 390.484 385.706C387.738 386.609 386.545 389.102 386.29 389.679C385.383 391.733 385.905 393.162 385.968 396.121C386.021 398.618 385.644 400.542 384.892 404.39C383.941 409.256 381.194 418.577 378.547 418.456C377.075 418.389 376.804 415.453 374.246 409.544C372.714 406.007 369.767 399.344 364.352 393.867C362.347 391.838 355.598 385.012 350.801 386.994C348.681 387.871 347.397 390.581 347.145 392.793C346.85 395.388 348.018 397.376 348.543 398.269C349.263 399.494 350.121 400.38 352.199 402.027C355.455 404.607 357.179 405.467 359.62 407.181C361.547 408.535 363.981 410.245 366.287 412.872C367.151 413.856 370.014 417.265 371.772 422.644C373.304 427.328 374.664 431.488 372.632 434.348C369.445 438.835 360.294 436.76 358.652 436.388C356.915 435.994 348.165 434.01 344.779 427.046C343.113 423.62 343.493 420.527 340.262 413.839C339.648 412.566 338.862 411.08 337.251 410.403C334.873 409.403 331.639 410.563 330.046 412.658C329.618 413.22 328.364 415.092 329.401 420.281C329.916 422.861 331.419 429.837 337.896 435.529C344.23 441.095 351.642 442.2 353.167 442.401C360.742 443.398 366.174 440.903 368.653 444.119C369.45 445.153 369.415 446.092 369.621 448.2C370.203 454.139 371.844 460.557 373.815 464.843C376.869 471.482 380.91 473.429 379.838 477.084C379.333 478.805 378.018 479.811 377.364 480.306C373.742 483.042 368.208 482.287 364.674 480.091C361.427 478.073 362.253 476.322 358.007 471.071C355.63 468.131 353.028 466.081 347.826 461.98C341.782 457.215 338.723 454.851 336.875 455.734C335.031 456.615 334.396 459.867 334.993 462.266C335.535 464.445 336.981 465.465 340.585 468.279C347.446 473.637 350.877 476.316 352.952 478.695C353.203 478.982 355.417 481.537 358.017 484.378C358.168 484.543 358.203 484.58 358.222 484.601C359.842 486.337 361.074 487.638 363.061 488.788C365.15 489.998 366.826 490.318 368.976 490.829C374.623 492.17 373.588 492.462 379.515 493.943C383.265 494.879 386.734 495.811 393.818 496.412L393.818 496.412Z" fill="#D75047"/>
    <path d="M438.743 462.375C439.99 464.673 441.774 467.475 444.296 470.36C444.388 470.465 444.48 470.562 444.572 470.665C444.912 470.461 445.243 470.261 445.563 470.067C443.29 467.503 441.016 464.939 438.743 462.375Z" fill="#9D413B"/>
    <path d="M404.879 459.597C404.895 459.556 404.91 459.516 404.926 459.475L397.285 457.779C397.278 457.813 397.27 457.845 397.263 457.879C398.264 458.277 399.419 458.665 400.733 458.977C402.266 459.341 403.661 459.517 404.879 459.597V459.597Z" fill="#9D413B"/>
    <path d="M407.358 446.628C408.366 447.05 409.312 447.33 410.169 447.526C410.228 447.397 410.286 447.271 410.343 447.147C408.058 446.224 405.772 445.301 403.486 444.378C404.401 445.083 405.691 445.93 407.358 446.628V446.628Z" fill="#9D413B"/>
    <path d="M420.622 469.739C420.423 469.799 420.223 469.861 420.03 469.918C420.929 471.87 422.055 473.308 422.939 474.258C422.167 472.751 421.395 471.245 420.622 469.739Z" fill="#9D413B"/>
    <path d="M432.037 463.623C431.928 463.726 431.823 463.824 431.721 463.92C432.662 465.47 433.922 467.241 435.601 469.03C437.211 470.746 438.834 472.08 440.297 473.115C440.484 473.015 440.672 472.914 440.85 472.817C437.912 469.753 434.974 466.688 432.037 463.623Z" fill="#9D413B"/>
    <path d="M427.795 384.809C429.069 385.187 430.8 385.565 432.872 385.632C433.769 385.662 434.597 385.626 435.358 385.556C435.375 385.411 435.391 385.268 435.405 385.127C432.868 385.021 430.331 384.915 427.795 384.809L427.795 384.809Z" fill="#9D413B"/>
    <path d="M432.262 423.266C432.752 424.051 433.431 424.965 434.364 425.873C435.434 426.915 436.517 427.634 437.425 428.129C437.489 428.057 437.551 427.986 437.618 427.909C435.892 426.312 434.165 424.715 432.439 423.117C432.38 423.169 432.321 423.216 432.262 423.266Z" fill="#9D413B"/>
    <path d="M439.909 416.748C440.958 417.808 442.011 418.509 442.813 418.958C441.556 417.654 440.299 416.349 439.042 415.045C438.987 415.11 438.934 415.168 438.878 415.235C438.833 415.289 438.795 415.336 438.751 415.388C439.082 415.832 439.454 416.288 439.909 416.748Z" fill="#9D413B"/>
    <path d="M451.262 406.909C451.732 407.915 452.535 409.324 453.88 410.712C455.207 412.081 456.598 412.951 457.697 413.498C457.808 413.442 457.919 413.385 458.035 413.325C455.777 411.186 453.52 409.048 451.262 406.909V406.909Z" fill="#9D413B"/>
    <path d="M452.894 402.927C453.208 403.508 453.606 404.135 454.118 404.771C455.499 406.485 457.049 407.45 458.021 407.955C456.459 406.204 454.897 404.452 453.335 402.701C453.282 402.728 453.227 402.756 453.181 402.779C453.097 402.822 452.999 402.872 452.894 402.927V402.927Z" fill="#9D413B"/>
    <path d="M467.209 406.846C466.003 405.663 464.797 404.48 463.591 403.297C463.92 403.893 464.426 404.664 465.185 405.436C465.867 406.129 466.553 406.621 467.132 406.969C467.16 406.928 467.184 406.887 467.209 406.846Z" fill="#9D413B"/>
    <path d="M372.993 426.613C373.686 426.662 374.434 426.685 375.242 426.658C376.767 426.606 378.101 426.4 379.193 426.159C377.11 426.251 375.028 426.344 372.945 426.437C372.961 426.496 372.977 426.555 372.993 426.613H372.993Z" fill="#9D413B"/>
    <path d="M382.601 412.641C383.154 413.125 383.834 413.646 384.668 414.134C385.915 414.864 387.075 415.274 387.952 415.512C386.191 414.493 384.429 413.474 382.668 412.456C382.646 412.517 382.624 412.58 382.601 412.641H382.601Z" fill="#9D413B"/>
    <path d="M392.236 406.339C393.774 406.604 395.143 406.652 396.29 406.614C396.313 406.556 396.335 406.498 396.358 406.439C393.239 405.851 390.119 405.263 387 404.676C388.261 405.276 390.034 405.96 392.236 406.339Z" fill="#9D413B"/>
    <path d="M388.047 392.223C389.702 392.434 391.773 392.555 394.14 392.366C395.963 392.22 397.56 391.917 398.923 391.577C398.918 391.539 398.917 391.499 398.912 391.461C395.291 391.715 391.669 391.969 388.047 392.223Z" fill="#9D413B"/>
    <path d="M385.902 394.718C386.931 394.892 388.127 395.023 389.475 395.027C391.377 395.033 393.01 394.788 394.283 394.504C391.487 394.534 388.69 394.563 385.893 394.593L385.902 394.718L385.902 394.718Z" fill="#9D413B"/>
    <path d="M417.646 409.881C418.407 410.191 419.278 410.486 420.273 410.712C422.113 411.128 423.712 411.167 424.875 411.108C422.496 410.578 420.118 410.049 417.739 409.519C417.708 409.64 417.678 409.759 417.646 409.881H417.646Z" fill="#9D413B"/>
    <path d="M421.917 381.698C423.264 382.207 425.036 382.727 427.16 382.971C429.66 383.258 431.778 383.065 433.285 382.812C429.509 382.383 425.733 381.955 421.957 381.526C421.943 381.583 421.931 381.64 421.917 381.698Z" fill="#9D413B"/>
    <path d="M421.077 389.138C422.835 389.719 424.962 390.277 427.445 390.607C430.075 390.957 432.418 390.965 434.357 390.839L434.401 390.653C429.965 390.105 425.53 389.557 421.094 389.009C421.088 389.052 421.083 389.095 421.077 389.138V389.138Z" fill="#9D413B"/>
    <path d="M376.417 453.028C377.815 453.034 379.06 452.9 380.115 452.718C380.111 452.651 380.108 452.584 380.106 452.518C377.321 452.508 374.536 452.499 371.752 452.49C372.975 452.771 374.561 453.021 376.417 453.028L376.417 453.028Z" fill="#9D413B"/>
    <path d="M350.49 394.409C351.701 393.674 353.27 392.55 354.821 390.892C355.769 389.88 356.5 388.887 357.081 387.983C356.985 387.931 356.889 387.88 356.793 387.83C354.692 390.023 352.591 392.216 350.49 394.409Z" fill="#9D413B"/>
    <path d="M349.554 399.656C350.446 399.158 351.457 398.497 352.489 397.594C354.138 396.149 355.208 394.651 355.869 393.554C353.698 395.511 351.528 397.469 349.357 399.426C349.421 399.502 349.486 399.579 349.554 399.656H349.554Z" fill="#9D413B"/>
    <path d="M370.664 402.279C370.643 402.242 370.619 402.203 370.597 402.165C368.607 404.048 366.617 405.93 364.627 407.812C365.65 407.265 366.992 406.409 368.34 405.103C369.366 404.109 370.112 403.125 370.664 402.279L370.664 402.279Z" fill="#9D413B"/>
    <path d="M329.019 417.307C329.022 417.353 329.024 417.399 329.026 417.445C330.109 417.204 331.296 416.878 332.56 416.431C334.377 415.787 335.925 415.045 337.193 414.34C334.468 415.329 331.744 416.318 329.019 417.307H329.019Z" fill="#9D413B"/>
    <path d="M343.635 460.95C343.972 460.372 344.218 459.822 344.411 459.316C344.353 459.272 344.297 459.229 344.24 459.186C343.166 460.788 342.091 462.39 341.017 463.991C341.759 463.391 342.784 462.408 343.635 460.95Z" fill="#9D413B"/>
    <path d="M341.571 457.252C339.916 459.835 338.262 462.417 336.608 465C336.647 465.04 336.689 465.08 336.73 465.12C337.711 464.024 338.769 462.681 339.779 461.045C340.59 459.731 341.214 458.48 341.705 457.344C341.66 457.314 341.614 457.281 341.571 457.252Z" fill="#9D413B"/>
    <path d="M345.083 471.804C345.679 471.357 346.323 470.809 346.967 470.123C348.299 468.703 349.105 467.271 349.585 466.225C348.024 468.037 346.463 469.849 344.901 471.66C344.961 471.707 345.025 471.757 345.083 471.804Z" fill="#9D413B"/>
    <path d="M361.302 476.026C360.491 477.164 359.679 478.301 358.867 479.438C359.295 479.181 359.98 478.694 360.581 477.87C361.015 477.276 361.261 476.702 361.414 476.232C361.378 476.166 361.339 476.094 361.302 476.026H361.302Z" fill="#9D413B"/>
    <path d="M377.374 470.709C377.822 470.633 378.337 470.504 378.892 470.265C379.888 469.837 380.567 469.256 380.955 468.871C379.705 469.407 378.456 469.943 377.207 470.478C377.263 470.555 377.319 470.634 377.374 470.709L377.374 470.709Z" fill="#9D413B"/>
    <path d="M347.253 433.383C347.805 432.78 348.203 432.191 348.495 431.686C348.472 431.667 348.449 431.649 348.427 431.63C347.38 432.764 346.332 433.897 345.285 435.031C345.838 434.68 346.549 434.151 347.253 433.383L347.253 433.383Z" fill="#9D413B"/>
    <path d="M339.865 437.088C340.642 436.565 341.495 435.914 342.366 435.094C343.584 433.946 344.482 432.807 345.127 431.862C343.319 433.565 341.512 435.267 339.704 436.969C339.758 437.009 339.811 437.049 339.865 437.088Z" fill="#9D413B"/>
    <path d="M342.33 418.947C340.216 419.809 338.101 420.671 335.987 421.532C336.879 421.492 338.255 421.323 339.795 420.677C340.9 420.213 341.76 419.642 342.394 419.14C342.374 419.077 342.351 419.01 342.33 418.947Z" fill="#9D413B"/>
    <path d="M432.031 400.588L427.842 399.859C428.363 400.097 429.088 400.364 429.984 400.509C430.792 400.64 431.495 400.633 432.031 400.588Z" fill="#9D413B"/>
    <path d="M420.226 423.893C420.776 424.12 421.282 424.245 421.718 424.319L421.806 424.176C420.597 423.648 419.388 423.121 418.179 422.594C418.595 422.973 419.273 423.499 420.226 423.893V423.893Z" fill="#9D413B"/>
    <path d="M365.936 402.038C366.396 401.858 367.164 401.489 367.888 400.754C368.357 400.278 368.662 399.796 368.864 399.407C368.842 399.375 368.822 399.343 368.8 399.311C367.846 400.22 366.891 401.129 365.936 402.038H365.936Z" fill="#9D413B"/>
    <path d="M359.756 438.548C359.482 439.905 359.208 441.262 358.935 442.619L359.038 442.615C359.243 442.188 359.451 441.655 359.597 441.019C359.829 440.011 359.814 439.143 359.756 438.548Z" fill="#9D413B"/>
    <path d="M378.479 455.341C379.242 455.336 379.895 455.225 380.417 455.094L380.398 454.988L375.845 454.929C376.452 455.128 377.362 455.349 378.479 455.341Z" fill="#9D413B"/>
    <path d="M443.247 453.348C443.839 454.24 444.516 455.174 445.312 456.133C446.935 458.089 448.578 459.608 450.009 460.759C447.827 458.247 445.646 455.735 443.465 453.223C443.392 453.265 443.319 453.305 443.247 453.348Z" fill="#9D413B"/>
    <path d="M637.534 496.412C644.94 497.041 647.133 496.215 648.504 495.446C651.581 493.719 650.956 491.887 655.171 487.715C657.141 485.765 659.135 484.137 663.99 481.594C665.154 480.984 673.637 477.596 674.529 477.299C680.632 475.27 686.258 471.887 687.972 470.856C694.023 467.218 697.069 465.327 698.081 461.837C698.908 458.981 698.687 454.738 696.037 452.817C693.788 451.186 690.78 451.94 689.639 452.226C686.7 452.963 685.05 454.653 681.734 457.864C676.587 462.848 674.018 465.346 673.023 466.024C668.929 468.818 661.712 470.407 659.796 471.071C657.771 471.773 654.646 472.857 651.838 471.536C648.752 470.086 647.814 466.564 647.679 466.024C646.986 463.257 647.984 460.885 650.009 456.253C656.309 441.845 657.063 440.626 659.15 439.073C660.625 437.975 662.535 437.124 666.356 435.422C673.593 432.196 674.558 432.991 678.185 430.697C681.428 428.646 680.48 428.024 686.789 422.536C689.513 420.167 691.247 418.672 693.886 417.06C697.671 414.749 698.556 415.102 702.597 412.872C706.678 410.621 711.761 407.816 711.416 405.034C711.125 402.69 707.062 400.995 704.21 400.846C701.112 400.684 697.919 402.255 696.898 402.779C696.012 403.233 693.983 404.238 690.445 407.396C687.695 409.851 685.413 411.888 682.595 415.235C678.846 419.686 679.281 420.361 676.465 422.859C673.44 425.541 670.87 426.597 668.937 427.368C666.898 428.182 664.538 429.124 663.882 428.335C663.143 427.445 665.142 425.043 667.324 421.14C668.542 418.961 669.642 416.144 671.84 410.51C673.628 405.929 675.443 401.275 677.002 395.155C679.173 386.636 680.346 381.748 677.648 378.512C677.453 378.279 675.182 375.638 671.948 375.827C669.238 375.986 667.525 378.034 667.216 378.404C665.522 380.43 665.397 382.815 665.28 384.525C664.978 388.95 664.093 393.317 663.667 397.732C663.667 397.732 663.058 404.049 660.979 411.262C660.545 412.766 659.593 415.855 653.236 428.55C647.146 440.708 646.424 441.058 644.525 446.267C643.001 450.444 641.453 454.689 640.438 460.655C639.054 468.792 639.869 473.04 637.75 473.863C634.98 474.938 630.328 468.946 629.469 467.85C625.508 462.796 624.53 457.43 624.092 454.857C623.383 450.702 624.264 451.342 624.092 440.791C623.97 433.301 623.504 431.65 624.737 428.55C625.615 426.342 627.079 424.536 630.007 420.926C633.845 416.192 634.782 415.837 636.782 412.872C637.256 412.169 639.625 408.593 641.083 403.423C641.87 400.635 644.848 390.081 640.223 386.565C638.593 385.326 636.155 385.063 634.201 385.706C631.454 386.609 630.261 389.102 630.007 389.679C629.099 391.733 629.621 393.162 629.684 396.121C629.737 398.618 629.361 400.542 628.608 404.39C627.657 409.256 624.91 418.577 622.263 418.456C620.791 418.389 620.52 415.453 617.962 409.544C616.431 406.007 613.483 399.344 608.068 393.867C606.063 391.838 599.314 385.012 594.518 386.994C592.398 387.871 591.113 390.581 590.861 392.793C590.566 395.388 591.735 397.376 592.259 398.269C592.979 399.494 593.837 400.38 595.916 402.027C599.171 404.607 600.895 405.467 603.336 407.181C605.263 408.535 607.697 410.245 610.004 412.872C610.867 413.856 613.73 417.265 615.488 422.644C617.02 427.328 618.38 431.488 616.349 434.348C613.161 438.835 604.01 436.76 602.368 436.388C600.631 435.994 591.882 434.01 588.495 427.046C586.829 423.62 587.21 420.527 583.979 413.839C583.364 412.566 582.578 411.08 580.967 410.403C578.589 409.403 575.355 410.563 573.762 412.658C573.334 413.22 572.08 415.092 573.117 420.281C573.632 422.861 575.135 429.837 581.613 435.529C587.946 441.095 595.358 442.2 596.884 442.401C604.459 443.398 609.89 440.903 612.37 444.119C613.166 445.153 613.131 446.092 613.337 448.2C613.919 454.139 615.56 460.557 617.532 464.843C620.585 471.482 624.626 473.429 623.554 477.084C623.049 478.805 621.735 479.811 621.081 480.306C617.458 483.042 611.924 482.287 608.391 480.091C605.143 478.073 605.969 476.322 601.723 471.071C599.346 468.131 596.745 466.081 591.542 461.98C585.499 457.215 582.439 454.851 580.591 455.734C578.747 456.615 578.112 459.867 578.709 462.266C579.251 464.445 580.697 465.465 584.301 468.279C591.163 473.637 594.593 476.316 596.668 478.695C596.919 478.982 599.134 481.537 601.733 484.378C601.885 484.543 601.919 484.58 601.938 484.601C603.558 486.337 604.79 487.638 606.777 488.788C608.867 489.998 610.542 490.318 612.692 490.829C618.339 492.17 617.305 492.462 623.231 493.943C626.981 494.879 630.45 495.811 637.534 496.412L637.534 496.412Z" fill="#D75047"/>
    <path d="M682.459 462.375C683.706 464.673 685.49 467.475 688.013 470.36C688.105 470.466 688.197 470.562 688.289 470.665C688.628 470.461 688.959 470.261 689.279 470.067C687.006 467.503 684.732 464.939 682.459 462.375Z" fill="#9D413B"/>
    <path d="M648.595 459.597C648.611 459.556 648.626 459.516 648.643 459.475L641.002 457.779C640.994 457.813 640.987 457.845 640.979 457.879C641.98 458.277 643.135 458.665 644.449 458.977C645.982 459.341 647.378 459.517 648.595 459.597V459.597Z" fill="#9D413B"/>
    <path d="M651.074 446.628C652.082 447.05 653.028 447.33 653.886 447.526C653.945 447.397 654.002 447.271 654.06 447.147C651.774 446.224 649.488 445.301 647.202 444.378C648.118 445.083 649.407 445.93 651.074 446.628V446.628Z" fill="#9D413B"/>
    <path d="M664.339 469.739C664.14 469.799 663.939 469.861 663.746 469.918C664.645 471.87 665.771 473.308 666.655 474.258C665.883 472.751 665.111 471.245 664.339 469.739Z" fill="#9D413B"/>
    <path d="M675.753 463.623C675.644 463.726 675.54 463.824 675.437 463.92C676.378 465.47 677.639 467.241 679.317 469.03C680.928 470.746 682.551 472.08 684.013 473.115C684.2 473.015 684.388 472.914 684.566 472.817C681.628 469.753 678.691 466.688 675.753 463.623Z" fill="#9D413B"/>
    <path d="M671.511 384.809C672.785 385.187 674.516 385.565 676.588 385.632C677.485 385.662 678.313 385.626 679.074 385.556C679.091 385.411 679.107 385.268 679.121 385.127C676.584 385.021 674.047 384.915 671.511 384.809L671.511 384.809Z" fill="#9D413B"/>
    <path d="M675.978 423.266C676.469 424.051 677.147 424.965 678.08 425.873C679.15 426.915 680.233 427.634 681.141 428.129C681.205 428.057 681.267 427.986 681.334 427.909C679.608 426.312 677.882 424.715 676.156 423.117C676.096 423.169 676.037 423.216 675.978 423.266Z" fill="#9D413B"/>
    <path d="M683.625 416.748C684.674 417.808 685.727 418.509 686.529 418.958C685.272 417.654 684.015 416.349 682.758 415.045C682.703 415.11 682.65 415.168 682.595 415.235C682.549 415.289 682.512 415.336 682.467 415.388C682.799 415.832 683.17 416.288 683.625 416.748Z" fill="#9D413B"/>
    <path d="M694.978 406.909C695.448 407.915 696.251 409.324 697.596 410.712C698.923 412.081 700.314 412.951 701.414 413.498C701.524 413.442 701.635 413.385 701.751 413.325C699.493 411.186 697.236 409.048 694.978 406.909V406.909Z" fill="#9D413B"/>
    <path d="M696.61 402.927C696.925 403.508 697.322 404.135 697.834 404.771C699.215 406.485 700.765 407.45 701.738 407.955C700.176 406.204 698.614 404.452 697.051 402.701C696.998 402.728 696.943 402.756 696.898 402.779C696.813 402.822 696.716 402.872 696.61 402.927V402.927Z" fill="#9D413B"/>
    <path d="M710.925 406.846C709.719 405.663 708.513 404.48 707.307 403.297C707.636 403.893 708.142 404.664 708.902 405.436C709.583 406.129 710.269 406.621 710.849 406.969C710.876 406.928 710.9 406.887 710.925 406.846Z" fill="#9D413B"/>
    <path d="M616.709 426.613C617.403 426.662 618.15 426.685 618.959 426.658C620.484 426.606 621.817 426.4 622.91 426.159C620.827 426.251 618.744 426.344 616.661 426.437C616.677 426.496 616.693 426.555 616.709 426.613H616.709Z" fill="#9D413B"/>
    <path d="M626.317 412.641C626.87 413.125 627.55 413.646 628.384 414.134C629.631 414.864 630.791 415.274 631.668 415.512C629.907 414.493 628.146 413.474 626.384 412.456C626.362 412.517 626.34 412.58 626.317 412.641H626.317Z" fill="#9D413B"/>
    <path d="M635.952 406.339C637.49 406.604 638.859 406.652 640.006 406.614C640.029 406.556 640.052 406.498 640.075 406.439C636.955 405.851 633.836 405.263 630.716 404.676C631.977 405.276 633.75 405.96 635.952 406.339Z" fill="#9D413B"/>
    <path d="M631.763 392.223C633.419 392.434 635.489 392.555 637.856 392.366C639.679 392.22 641.276 391.917 642.639 391.577C642.635 391.539 642.633 391.499 642.628 391.461C639.007 391.715 635.385 391.969 631.763 392.223Z" fill="#9D413B"/>
    <path d="M629.618 394.718C630.647 394.892 631.843 395.023 633.192 395.027C635.093 395.033 636.726 394.788 637.999 394.504C635.203 394.534 632.406 394.563 629.61 394.593L629.618 394.718L629.618 394.718Z" fill="#9D413B"/>
    <path d="M661.362 409.881C662.124 410.191 662.994 410.486 663.99 410.712C665.83 411.128 667.428 411.167 668.591 411.108C666.213 410.578 663.834 410.049 661.456 409.519C661.424 409.64 661.395 409.759 661.362 409.881H661.362Z" fill="#9D413B"/>
    <path d="M665.634 381.698C666.981 382.207 668.752 382.727 670.876 382.971C673.376 383.258 675.494 383.065 677.001 382.812C673.225 382.383 669.449 381.955 665.673 381.526C665.659 381.583 665.647 381.64 665.634 381.698Z" fill="#9D413B"/>
    <path d="M664.794 389.138C666.552 389.719 668.679 390.277 671.162 390.607C673.792 390.957 676.134 390.965 678.073 390.839L678.117 390.653C673.682 390.105 669.246 389.557 664.81 389.009C664.804 389.052 664.799 389.095 664.794 389.138V389.138Z" fill="#9D413B"/>
    <path d="M620.133 453.028C621.531 453.034 622.777 452.9 623.831 452.718C623.828 452.651 623.825 452.584 623.822 452.518C621.037 452.508 618.253 452.499 615.468 452.49C616.692 452.771 618.277 453.021 620.133 453.028L620.133 453.028Z" fill="#9D413B"/>
    <path d="M594.206 394.409C595.417 393.674 596.986 392.55 598.538 390.892C599.485 389.88 600.216 388.887 600.797 387.983C600.701 387.931 600.605 387.88 600.509 387.83C598.408 390.023 596.307 392.216 594.206 394.409Z" fill="#9D413B"/>
    <path d="M593.271 399.656C594.163 399.158 595.174 398.497 596.205 397.594C597.854 396.149 598.924 394.651 599.585 393.554C597.414 395.511 595.244 397.469 593.074 399.426C593.137 399.502 593.202 399.579 593.271 399.656H593.271Z" fill="#9D413B"/>
    <path d="M614.381 402.279C614.359 402.242 614.335 402.203 614.313 402.165C612.323 404.048 610.333 405.93 608.343 407.812C609.366 407.265 610.709 406.409 612.056 405.103C613.082 404.109 613.828 403.125 614.381 402.279L614.381 402.279Z" fill="#9D413B"/>
    <path d="M572.736 417.307C572.738 417.353 572.74 417.399 572.742 417.445C573.825 417.204 575.012 416.879 576.276 416.431C578.093 415.788 579.642 415.045 580.909 414.34C578.185 415.329 575.46 416.318 572.736 417.307H572.736Z" fill="#9D413B"/>
    <path d="M587.351 460.95C587.688 460.372 587.935 459.822 588.127 459.316C588.069 459.272 588.013 459.229 587.956 459.186C586.882 460.788 585.807 462.39 584.733 463.991C585.475 463.391 586.5 462.408 587.351 460.95Z" fill="#9D413B"/>
    <path d="M585.287 457.252C583.633 459.835 581.978 462.417 580.324 465C580.363 465.04 580.405 465.08 580.446 465.12C581.427 464.024 582.486 462.681 583.496 461.045C584.306 459.731 584.93 458.48 585.421 457.344C585.377 457.314 585.331 457.281 585.287 457.252Z" fill="#9D413B"/>
    <path d="M588.8 471.804C589.396 471.357 590.039 470.809 590.683 470.123C592.016 468.703 592.821 467.271 593.301 466.225C591.74 468.037 590.179 469.849 588.618 471.66C588.677 471.707 588.741 471.757 588.8 471.804Z" fill="#9D413B"/>
    <path d="M605.019 476.026C604.207 477.164 603.395 478.301 602.584 479.438C603.011 479.181 603.696 478.694 604.297 477.87C604.731 477.276 604.977 476.702 605.13 476.232C605.094 476.166 605.055 476.094 605.019 476.026H605.019Z" fill="#9D413B"/>
    <path d="M621.09 470.709C621.538 470.633 622.053 470.504 622.608 470.265C623.604 469.837 624.284 469.256 624.671 468.871C623.422 469.407 622.173 469.943 620.924 470.478C620.979 470.555 621.035 470.634 621.09 470.709L621.09 470.709Z" fill="#9D413B"/>
    <path d="M590.969 433.383C591.521 432.78 591.919 432.191 592.211 431.686C592.188 431.667 592.165 431.649 592.143 431.63C591.096 432.764 590.049 433.897 589.001 435.031C589.555 434.68 590.266 434.151 590.969 433.383L590.969 433.383Z" fill="#9D413B"/>
    <path d="M583.582 437.088C584.358 436.565 585.211 435.914 586.082 435.094C587.3 433.946 588.198 432.807 588.843 431.862C587.035 433.565 585.228 435.267 583.42 436.969C583.474 437.009 583.528 437.049 583.582 437.088Z" fill="#9D413B"/>
    <path d="M586.046 418.947C583.932 419.809 581.818 420.671 579.703 421.532C580.595 421.492 581.971 421.323 583.511 420.677C584.616 420.213 585.477 419.642 586.11 419.14C586.091 419.077 586.067 419.01 586.046 418.947Z" fill="#9D413B"/>
    <path d="M675.747 400.588L671.558 399.859C672.079 400.097 672.804 400.364 673.7 400.509C674.508 400.64 675.212 400.633 675.747 400.588Z" fill="#9D413B"/>
    <path d="M663.942 423.893C664.492 424.12 664.998 424.245 665.434 424.319L665.522 424.176C664.313 423.648 663.104 423.121 661.895 422.594C662.311 422.973 662.989 423.499 663.942 423.893V423.893Z" fill="#9D413B"/>
    <path d="M609.653 402.038C610.112 401.858 610.88 401.489 611.604 400.754C612.074 400.278 612.379 399.796 612.58 399.407C612.558 399.375 612.538 399.343 612.516 399.311C611.562 400.22 610.607 401.129 609.653 402.038H609.653Z" fill="#9D413B"/>
    <path d="M603.472 438.548C603.199 439.905 602.925 441.262 602.651 442.619L602.754 442.615C602.959 442.188 603.167 441.655 603.314 441.019C603.545 440.011 603.53 439.143 603.472 438.548Z" fill="#9D413B"/>
    <path d="M622.196 455.341C622.959 455.336 623.611 455.225 624.133 455.094L624.114 454.988L619.562 454.929C620.168 455.128 621.078 455.349 622.196 455.341Z" fill="#9D413B"/>
    <path d="M686.963 453.348C687.556 454.24 688.233 455.174 689.028 456.133C690.651 458.089 692.294 459.608 693.725 460.759C691.544 458.247 689.363 455.735 687.181 453.223C687.109 453.265 687.035 453.305 686.963 453.348Z" fill="#9D413B"/>
</svg>
