<svg width="175" height="95" viewBox="0 0 175 95" fill="none" xmlns="http://www.w3.org/2000/svg">
<path d="M161.73 46.6211C161.957 45.5995 162.071 44.5241 162.071 43.395C162.071 35.007 155.191 28.0707 146.436 27.4793C146.663 26.1888 146.777 24.8983 146.777 23.6079C146.777 10.6495 135.633 0.110718 121.931 0.110718C110.674 0.110718 101.179 7.20826 98.1089 16.9405C95.6073 15.5963 92.7645 14.7897 89.6943 14.7897C80.3701 14.7897 72.8084 21.941 72.8084 30.7592C72.8084 31.6195 72.8652 32.4798 73.0358 33.3401C72.6378 33.2863 72.183 33.2863 71.785 33.2863C64.0527 33.2863 57.5144 38.2331 55.5244 44.9543C43.7554 45.1693 34.2606 54.3101 34.2606 65.4941C34.2606 76.8394 43.9828 86.0877 56.0361 86.0877C56.6615 86.0877 57.3438 86.034 57.9692 85.9802H151.041C151.723 86.034 152.406 86.0877 153.145 86.0877C165.141 86.0877 174.92 76.8932 174.92 65.4941C174.92 57.0523 169.519 49.7397 161.73 46.6211Z" fill="#417D3B"/>
<path d="M161.843 46.6209C162.071 45.5993 162.185 44.5239 162.185 43.3948C162.185 35.0068 155.305 28.0705 146.549 27.4791C146.493 27.4791 146.436 27.5328 146.379 27.5328C147.573 28.5545 151.041 31.8881 152.008 37.2113C153.315 44.6852 148.596 50.1697 147.857 50.9762C149.563 51.6752 153.031 53.3421 154.85 56.8909C157.693 62.3753 154.395 68.3437 152.974 70.9784C146.095 83.5066 128.356 85.6574 125.513 85.98C134.098 85.98 140.182 86.0338 143.536 85.98C144.73 85.98 147.914 85.9262 152.178 86.0338C152.86 86.0338 153.145 86.0338 153.202 86.0338C165.198 86.0338 174.977 76.8392 174.977 65.4402C175.034 57.0522 169.576 49.7395 161.843 46.6209Z" fill="#326437"/>
<path d="M92.8214 54.7944C91.798 54.7944 90.8315 54.8481 89.865 55.0094C88.6141 47.9119 82.1327 42.4812 74.2298 42.4812C71.4439 42.4812 68.8286 43.1802 66.5544 44.3631C66.1564 33.8243 57.0027 25.4363 45.7454 25.4363C34.2607 25.4363 24.9364 34.2545 24.9364 45.1159C24.9364 47.1054 25.2207 48.9873 25.8461 50.8154C24.9933 50.7079 24.0836 50.6541 23.1739 50.6541C10.4952 50.6541 0.204468 60.3864 0.204468 72.3769C0.204468 84.3674 10.4952 94.0997 23.1739 94.0997H23.2308H91.9117C92.196 94.0997 92.4803 94.0997 92.7646 94.0997C104.249 94.0997 113.574 85.2815 113.574 74.4201C113.63 63.5587 104.306 54.7944 92.8214 54.7944Z" fill="#326437"/>
<path d="M92.7645 54.7402C92.0254 54.7402 91.2863 54.7939 91.2863 54.7939C90.7746 54.8477 90.3197 54.9015 89.808 54.9552C88.5572 47.8577 82.0757 42.427 74.1729 42.427C71.387 42.427 68.7716 43.126 66.4974 44.3089C68.3168 44.4165 74.4572 44.9004 79.9152 49.4708C85.3165 53.9336 86.7379 59.4719 87.079 61.1925C88.2161 61.7839 93.4468 64.7412 95.1524 70.7634C96.6306 75.9253 94.5839 80.173 93.731 81.8936C89.1826 91.357 77.8116 93.7766 76.106 94.0993C79.4604 94.153 82.5306 94.153 85.5439 94.2068C85.5439 94.2068 86.6241 94.2068 92.6508 94.153C92.9919 94.153 93.6173 94.153 94.4133 94.0993C94.4133 94.0993 96.3464 93.938 98.052 93.5078C101.691 92.6475 104.931 90.3892 104.931 90.3892C106.694 89.1525 110.617 86.0876 112.493 80.8183C112.721 80.173 113.517 77.7534 113.517 74.4197C113.517 71.785 113.005 69.7956 112.834 69.2041C111.072 62.9669 106.41 59.4719 105.5 58.8266C104.875 58.3427 102.942 57.0522 100.099 56.0306C100.156 56.0306 96.5169 54.7402 92.7645 54.7402Z" fill="#27522C"/>
<path d="M43.5849 43.879C45.3119 43.879 46.7119 42.5549 46.7119 40.9217C46.7119 39.2884 45.3119 37.9644 43.5849 37.9644C41.8579 37.9644 40.4579 39.2884 40.4579 40.9217C40.4579 42.5549 41.8579 43.879 43.5849 43.879Z" fill="#B32646"/>
<path d="M44.324 41.6204C44.2103 41.7817 43.9829 41.7817 43.8123 41.6204L42.7889 40.7601C42.6184 40.6525 42.6184 40.4374 42.7889 40.2761C42.9026 40.1148 43.1301 40.1148 43.3006 40.2761L44.324 41.1364C44.4377 41.244 44.4946 41.4591 44.324 41.6204Z" fill="#6C1626"/>
<path d="M44.2672 40.2226C44.4377 40.3302 44.4377 40.5452 44.2672 40.7066L43.3575 41.6206C43.2438 41.7819 43.0164 41.7819 42.8458 41.6206C42.6752 41.5131 42.6752 41.298 42.8458 41.1367L43.7555 40.1689C43.926 40.1151 44.1535 40.1151 44.2672 40.2226Z" fill="#6C1626"/>
<path d="M42.3341 39.5239C42.5047 39.4164 42.7321 39.2551 42.9595 39.0938C43.0164 39.04 43.0732 38.9862 43.1301 38.8787C43.1301 38.8787 43.1869 38.7174 43.0732 38.5561C42.9595 38.4485 42.7889 38.4485 42.7321 38.5023C42.6752 38.5023 42.6184 38.5561 42.5047 38.6098C42.391 38.7174 42.2772 38.7711 42.2204 38.7711C41.993 38.9325 41.8793 39.04 41.7655 39.1475C41.595 39.3088 41.4244 39.4701 41.4244 39.5239C41.3107 39.6852 41.197 39.7928 41.0833 40.1154C40.9696 40.2767 40.9127 40.438 40.9127 40.5993C40.9127 40.7068 40.9696 40.7606 40.9696 40.7606C41.0264 40.8681 41.197 40.8681 41.197 40.8681C41.3107 40.8681 41.3676 40.8144 41.4244 40.8144C41.5381 40.7606 41.5381 40.6531 41.6518 40.4918C41.7087 40.3305 41.7087 40.3305 41.7655 40.2229C41.7655 40.1691 41.8224 40.1154 41.9361 39.9541C41.993 39.9003 42.1067 39.739 42.3341 39.5239Z" fill="#C8637A"/>
<path d="M48.1901 65.333C49.5403 65.333 50.6349 64.2978 50.6349 63.0209C50.6349 61.744 49.5403 60.7088 48.1901 60.7088C46.8399 60.7088 45.7454 61.744 45.7454 63.0209C45.7454 64.2978 46.8399 65.333 48.1901 65.333Z" fill="#B32646"/>
<path d="M48.7587 63.5045C48.645 63.612 48.4744 63.612 48.3607 63.5045L47.5647 62.8055C47.451 62.698 47.451 62.5366 47.5647 62.4291C47.6784 62.3216 47.849 62.3216 47.9627 62.4291L48.7587 63.1281C48.8724 63.2356 48.8724 63.4507 48.7587 63.5045Z" fill="#6C1626"/>
<path d="M48.7018 62.4294C48.8155 62.5369 48.8155 62.6982 48.7018 62.8058L47.9627 63.5586C47.849 63.6661 47.6784 63.6661 47.5647 63.5586C47.451 63.451 47.451 63.2897 47.5647 63.1822L48.3038 62.4294C48.4175 62.3756 48.5881 62.3219 48.7018 62.4294Z" fill="#6C1626"/>
<path d="M47.1667 61.8914C47.2804 61.7839 47.451 61.6763 47.6784 61.515C47.7353 61.4612 47.7921 61.4612 47.7921 61.3537C47.7921 61.3537 47.849 61.1924 47.7353 61.1386C47.6216 61.0311 47.5079 61.0849 47.451 61.0849C47.3942 61.0849 47.3373 61.1386 47.2804 61.1924C47.1667 61.2462 47.1099 61.2999 47.053 61.3537C46.8825 61.4612 46.7688 61.5688 46.7119 61.6225C46.5413 61.7839 46.4276 61.8914 46.4276 61.9452C46.3139 62.0527 46.2571 62.1602 46.1433 62.3753C46.0865 62.4829 46.0296 62.5904 46.0296 62.7517C46.0296 62.8055 46.0296 62.8592 46.0865 62.913C46.1433 62.9668 46.2571 62.9668 46.2571 62.9668C46.3139 62.9668 46.4276 62.913 46.4276 62.913C46.4845 62.8592 46.5413 62.8055 46.5982 62.6979C46.655 62.5904 46.655 62.5904 46.7119 62.4829C46.7119 62.4291 46.7688 62.3753 46.8256 62.2678C46.8825 62.1602 46.9962 62.0527 47.1667 61.8914Z" fill="#C8637A"/>
<path d="M76.504 76.8393C78.388 76.8393 79.9153 75.3949 79.9153 73.6132C79.9153 71.8314 78.388 70.387 76.504 70.387C74.6199 70.387 73.0927 71.8314 73.0927 73.6132C73.0927 75.3949 74.6199 76.8393 76.504 76.8393Z" fill="#B32646"/>
<path d="M77.3568 74.3662C77.1862 74.5275 76.9588 74.5275 76.7882 74.3662L75.708 73.3984C75.5374 73.2371 75.5374 73.022 75.708 72.8607C75.8785 72.6994 76.106 72.6994 76.2765 72.8607L77.3568 73.8285C77.4705 73.9898 77.4705 74.2049 77.3568 74.3662Z" fill="#6C1626"/>
<path d="M77.2999 72.8607C77.4705 73.022 77.4705 73.237 77.2999 73.3984L76.2765 74.42C76.106 74.5813 75.8785 74.5813 75.708 74.42C75.5374 74.2587 75.5374 74.0436 75.708 73.8823L76.7314 72.8607C76.8451 72.6994 77.1294 72.6994 77.2999 72.8607Z" fill="#6C1626"/>
<path d="M75.1394 72.1079C75.31 72.0003 75.5943 71.7852 75.8217 71.6239C75.8785 71.5702 75.9922 71.5164 75.9922 71.4089C75.9922 71.4089 76.0491 71.1938 75.9354 71.0862C75.8217 70.9787 75.5943 70.9787 75.5374 70.9787C75.4806 70.9787 75.3668 71.0325 75.2531 71.0862C75.0826 71.1938 75.0257 71.2475 74.9689 71.3013C74.7414 71.4626 74.6277 71.5702 74.4572 71.6777C74.2297 71.8928 74.116 72.0541 74.0592 72.1079C73.9455 72.2692 73.8318 72.4305 73.6612 72.7531C73.5475 72.9144 73.4906 73.0757 73.4906 73.2908C73.4906 73.3983 73.5475 73.4521 73.5475 73.5059C73.6612 73.6134 73.7749 73.6134 73.8318 73.6134C73.9455 73.6134 74.0592 73.5596 74.0592 73.5596C74.1729 73.5059 74.1729 73.3983 74.2866 73.237C74.3435 73.0757 74.3435 73.0757 74.4003 72.9144C74.4003 72.8606 74.4572 72.8069 74.5709 72.6455C74.7414 72.4842 74.912 72.2692 75.1394 72.1079Z" fill="#C8637A"/>
<path d="M38.9797 85.9805C40.9893 85.9805 42.6184 84.4398 42.6184 82.5393C42.6184 80.6387 40.9893 79.098 38.9797 79.098C36.9701 79.098 35.3409 80.6387 35.3409 82.5393C35.3409 84.4398 36.9701 85.9805 38.9797 85.9805Z" fill="#B32646"/>
<path d="M39.8894 83.3459C39.7188 83.5072 39.4914 83.5072 39.3208 83.3459L38.1837 82.3243C38.0131 82.163 38.0131 81.9479 38.1837 81.7866C38.3543 81.6253 38.5817 81.6253 38.7523 81.7866L39.8894 82.8082C40.0031 82.9157 40.0031 83.1846 39.8894 83.3459Z" fill="#6C1626"/>
<path d="M39.7757 81.7327C39.9462 81.894 39.9462 82.1091 39.7757 82.2704L38.6954 83.3458C38.5248 83.5071 38.2974 83.5071 38.1269 83.3458C37.9563 83.1844 37.9563 82.9694 38.1269 82.8081L39.2071 81.7327C39.3777 81.5714 39.6051 81.5714 39.7757 81.7327Z" fill="#6C1626"/>
<path d="M37.5014 80.9261C37.672 80.7648 37.9563 80.6035 38.2405 80.3884C38.2974 80.3347 38.4111 80.2809 38.468 80.1734C38.468 80.1734 38.5248 79.9583 38.4111 79.8508C38.2974 79.6895 38.07 79.7432 38.0131 79.7432C37.9563 79.7432 37.8426 79.797 37.7288 79.9045C37.5583 80.0121 37.4446 80.0658 37.4446 80.1196C37.2172 80.3347 37.0466 80.3885 36.9329 80.5498C36.7055 80.7648 36.5349 80.9261 36.5349 80.9799C36.4212 81.1412 36.3075 81.3025 36.1369 81.6251C36.0232 81.8402 35.9663 82.0015 35.9663 82.1628C35.9663 82.2704 36.0232 82.3241 36.0232 82.3779C36.1369 82.4854 36.2506 82.4854 36.3075 82.4854C36.4212 82.4854 36.5349 82.4317 36.5349 82.4317C36.6486 82.3779 36.7055 82.2704 36.7623 82.1091C36.8192 81.9478 36.8192 81.894 36.876 81.7864C36.876 81.7327 36.9329 81.6251 37.1034 81.5176C37.1034 81.3025 37.274 81.1412 37.5014 80.9261Z" fill="#C8637A"/>
<path d="M19.5352 66.9996C20.8854 66.9996 21.98 65.9645 21.98 64.6876C21.98 63.4106 20.8854 62.3755 19.5352 62.3755C18.185 62.3755 17.0905 63.4106 17.0905 64.6876C17.0905 65.9645 18.185 66.9996 19.5352 66.9996Z" fill="#B32646"/>
<path d="M20.1038 65.2251C19.9901 65.3326 19.8195 65.3326 19.7058 65.2251L18.9098 64.5261C18.7961 64.4185 18.7961 64.2572 18.9098 64.1497C19.0235 64.0421 19.1941 64.0421 19.3078 64.1497L20.1038 64.8487C20.2175 64.9025 20.2175 65.1175 20.1038 65.2251Z" fill="#6C1626"/>
<path d="M20.0469 64.096C20.1606 64.2036 20.1606 64.3649 20.0469 64.4724L19.3078 65.2252C19.1941 65.3327 19.0235 65.3327 18.9098 65.2252C18.7961 65.1176 18.7961 64.9563 18.9098 64.8488L19.6489 64.096C19.7626 64.0423 19.9332 63.9885 20.0469 64.096Z" fill="#6C1626"/>
<path d="M18.5118 63.5587C18.6255 63.4511 18.7961 63.3436 19.0235 63.1823C19.0804 63.1285 19.1372 63.1285 19.1372 63.021C19.1372 63.021 19.1941 62.8597 19.0804 62.8059C18.9667 62.6984 18.853 62.7521 18.7961 62.7521C18.7392 62.7521 18.6824 62.8059 18.6255 62.8597C18.5118 62.9135 18.455 62.9672 18.3981 63.021C18.2276 63.1285 18.1138 63.2361 18.057 63.2898C17.8864 63.4511 17.7727 63.5587 17.7727 63.6125C17.659 63.72 17.6021 63.8275 17.4884 64.0426C17.4316 64.1501 17.3747 64.2577 17.3747 64.419C17.3747 64.4728 17.3747 64.5265 17.4316 64.5803C17.4884 64.6341 17.6021 64.6341 17.6021 64.6341C17.659 64.6341 17.7727 64.5803 17.7727 64.5803C17.8296 64.5265 17.8864 64.4728 17.9433 64.3652C18.0001 64.2577 18.0001 64.2577 18.057 64.1501C18.057 64.0964 18.1138 64.0426 18.1707 63.9351C18.2276 63.8275 18.3413 63.72 18.5118 63.5587Z" fill="#C8637A"/>
<path d="M95.1524 38.9858C96.5026 38.9858 97.5972 37.9507 97.5972 36.6738C97.5972 35.3968 96.5026 34.3617 95.1524 34.3617C93.8022 34.3617 92.7076 35.3968 92.7076 36.6738C92.7076 37.9507 93.8022 38.9858 95.1524 38.9858Z" fill="#B32646"/>
<path d="M95.7778 37.2113C95.6641 37.3188 95.4935 37.3188 95.3798 37.2113L94.5839 36.5123C94.4702 36.4047 94.4702 36.2434 94.5839 36.1359C94.6976 36.0284 94.8681 36.0284 94.9818 36.1359L95.7778 36.8349C95.8915 36.9424 95.8915 37.1037 95.7778 37.2113Z" fill="#6C1626"/>
<path d="M95.721 36.1359C95.8347 36.2434 95.8347 36.4047 95.721 36.5123L94.9818 37.2651C94.8681 37.3726 94.6976 37.3726 94.5839 37.2651C94.4702 37.1575 94.4702 36.9962 94.5839 36.8887L95.323 36.1359C95.4367 36.0284 95.6073 36.0284 95.721 36.1359Z" fill="#6C1626"/>
<path d="M94.1859 35.5989C94.2996 35.4913 94.4702 35.3838 94.6976 35.2225C94.7544 35.1687 94.8113 35.1687 94.8113 35.0612C94.8113 35.0612 94.8681 34.8999 94.7544 34.8461C94.6407 34.7385 94.527 34.7923 94.4701 34.7923C94.4133 34.7923 94.3564 34.8461 94.2996 34.8999C94.1859 34.9536 94.129 35.0074 94.0722 35.0612C93.9016 35.1687 93.7879 35.2762 93.731 35.33C93.5605 35.4913 93.4468 35.5989 93.4468 35.6526C93.333 35.7602 93.2762 35.8677 93.1625 36.0828C93.1056 36.1903 93.0488 36.2979 93.0488 36.4592C93.0488 36.5129 93.0488 36.5667 93.1056 36.6205C93.1625 36.6742 93.2762 36.6742 93.2762 36.6742C93.333 36.6742 93.4468 36.6205 93.4468 36.6205C93.5036 36.5667 93.5605 36.5129 93.6173 36.4054C93.6742 36.2979 93.6742 36.2979 93.731 36.1903C93.731 36.1365 93.7879 36.0828 93.8447 35.9752C93.9016 35.8677 94.0153 35.7064 94.1859 35.5989Z" fill="#C8637A"/>
<path d="M123.409 50.6537C125.231 50.6537 126.707 49.2574 126.707 47.5351C126.707 45.8127 125.231 44.4164 123.409 44.4164C121.588 44.4164 120.112 45.8127 120.112 47.5351C120.112 49.2574 121.588 50.6537 123.409 50.6537Z" fill="#B32646"/>
<path d="M124.205 48.2341C124.092 48.3954 123.807 48.3954 123.694 48.2341L122.613 47.3201C122.443 47.2125 122.443 46.9437 122.613 46.8361C122.727 46.6748 123.011 46.6748 123.125 46.8361L124.205 47.7502C124.319 47.8577 124.376 48.0728 124.205 48.2341Z" fill="#6C1626"/>
<path d="M124.149 46.7825C124.319 46.8901 124.319 47.1589 124.149 47.2665L123.182 48.2881C123.068 48.4494 122.784 48.4494 122.67 48.2881C122.5 48.1805 122.5 47.9117 122.67 47.8041L123.637 46.7825C123.751 46.675 123.978 46.6212 124.149 46.7825Z" fill="#6C1626"/>
<path d="M122.102 46.0834C122.272 45.9759 122.5 45.7608 122.784 45.5995C122.841 45.5457 122.955 45.492 122.955 45.3844C122.955 45.3844 123.011 45.1694 122.898 45.0618C122.784 44.9543 122.557 44.9543 122.557 44.9543C122.5 44.9543 122.443 45.0081 122.272 45.0618C122.159 45.1694 122.045 45.2231 121.988 45.2231C121.761 45.3844 121.647 45.492 121.533 45.5995C121.306 45.8146 121.192 45.9759 121.135 46.0297C121.022 46.191 120.908 46.3523 120.737 46.6211C120.624 46.7824 120.567 46.9437 120.567 47.105C120.567 47.2126 120.624 47.2664 120.624 47.3201C120.737 47.4277 120.851 47.4277 120.908 47.4277C121.022 47.4277 121.078 47.3739 121.135 47.3739C121.249 47.3201 121.249 47.2126 121.363 47.0513C121.419 46.89 121.419 46.89 121.476 46.7824C121.476 46.7287 121.533 46.6749 121.647 46.5136C121.704 46.4061 121.874 46.2447 122.102 46.0834Z" fill="#C8637A"/>
<path d="M136.316 32.4259C137.666 32.4259 138.76 31.3908 138.76 30.1138C138.76 28.8369 137.666 27.8018 136.316 27.8018C134.965 27.8018 133.871 28.8369 133.871 30.1138C133.871 31.3908 134.965 32.4259 136.316 32.4259Z" fill="#B32646"/>
<path d="M136.941 30.6513C136.827 30.7588 136.657 30.7588 136.543 30.6513L135.747 29.9523C135.633 29.8447 135.633 29.6834 135.747 29.5759C135.861 29.4684 136.031 29.4684 136.145 29.5759L136.941 30.2749C137.055 30.3824 137.055 30.5437 136.941 30.6513Z" fill="#6C1626"/>
<path d="M136.884 29.5228C136.998 29.6303 136.998 29.7917 136.884 29.8992L136.145 30.652C136.031 30.7595 135.861 30.7595 135.747 30.652C135.633 30.5444 135.633 30.3831 135.747 30.2756L136.486 29.5228C136.6 29.469 136.77 29.469 136.884 29.5228Z" fill="#6C1626"/>
<path d="M135.349 29.0389C135.463 28.9314 135.633 28.8238 135.861 28.6625C135.918 28.6088 135.974 28.6088 135.974 28.5012C135.974 28.5012 136.031 28.3399 135.918 28.2861C135.804 28.1786 135.69 28.2324 135.633 28.2324C135.576 28.2324 135.52 28.2861 135.463 28.3399C135.349 28.3937 135.292 28.4475 135.235 28.5012C135.065 28.6088 134.951 28.7163 134.894 28.7701C134.724 28.9314 134.61 29.0389 134.61 29.0927C134.496 29.2002 134.439 29.3078 134.326 29.5228C134.269 29.6304 134.212 29.7379 134.212 29.8992C134.212 29.953 134.212 30.0068 134.269 30.0605C134.326 30.1143 134.439 30.1143 134.439 30.1143C134.496 30.1143 134.61 30.0605 134.61 30.0605C134.667 30.0068 134.724 29.953 134.78 29.8455C134.837 29.7379 134.837 29.7379 134.894 29.6304C134.894 29.5766 134.951 29.5228 135.008 29.4153C135.065 29.254 135.178 29.1465 135.349 29.0389Z" fill="#C8637A"/>
<path d="M126.707 72.699C128.057 72.699 129.152 71.6639 129.152 70.387C129.152 69.11 128.057 68.0749 126.707 68.0749C125.357 68.0749 124.262 69.11 124.262 70.387C124.262 71.6639 125.357 72.699 126.707 72.699Z" fill="#B32646"/>
<path d="M127.276 70.925C127.162 71.0326 126.991 71.0326 126.878 70.925L126.082 70.226C125.968 70.1185 125.968 69.9572 126.082 69.8496C126.195 69.7421 126.366 69.7421 126.48 69.8496L127.276 70.5486C127.389 70.6562 127.389 70.8175 127.276 70.925Z" fill="#6C1626"/>
<path d="M127.219 69.8496C127.333 69.9572 127.333 70.1185 127.219 70.226L126.48 70.9788C126.366 71.0863 126.195 71.0863 126.082 70.9788C125.968 70.8713 125.968 70.71 126.082 70.6024L126.821 69.8496C126.935 69.7421 127.105 69.7421 127.219 69.8496Z" fill="#6C1626"/>
<path d="M125.684 69.312C125.797 69.2044 125.968 69.0969 126.195 68.9356C126.252 68.8818 126.309 68.8818 126.309 68.7743C126.309 68.7743 126.366 68.613 126.252 68.5592C126.139 68.4517 126.025 68.5054 125.968 68.5054C125.911 68.5054 125.854 68.5592 125.797 68.613C125.684 68.6668 125.627 68.7205 125.57 68.7743C125.399 68.8818 125.286 68.9894 125.229 69.0431C125.058 69.2044 124.945 69.312 124.945 69.3658C124.831 69.4733 124.774 69.5808 124.66 69.7959C124.603 69.9035 124.547 70.011 124.547 70.1723C124.547 70.2261 124.547 70.2798 124.603 70.3336C124.66 70.3874 124.774 70.3874 124.774 70.3874C124.831 70.3874 124.945 70.3336 124.945 70.3336C125.001 70.2798 125.058 70.2261 125.115 70.1185C125.172 70.011 125.172 70.011 125.229 69.9035C125.229 69.8497 125.286 69.7959 125.343 69.6884C125.399 69.5808 125.513 69.4195 125.684 69.312Z" fill="#C8637A"/>
<path d="M119.032 18.4459C121.167 18.4459 122.898 16.8089 122.898 14.7895C122.898 12.7702 121.167 11.1332 119.032 11.1332C116.896 11.1332 115.165 12.7702 115.165 14.7895C115.165 16.8089 116.896 18.4459 119.032 18.4459Z" fill="#B32646"/>
<path d="M119.941 15.5964C119.771 15.7577 119.486 15.7577 119.316 15.5964L118.065 14.521C117.894 14.3597 117.894 14.0909 118.065 13.9296C118.236 13.7683 118.52 13.7683 118.69 13.9296L119.941 15.005C120.112 15.1663 120.112 15.4351 119.941 15.5964Z" fill="#6C1626"/>
<path d="M119.884 13.9296C120.055 14.0909 120.055 14.3597 119.884 14.521L118.747 15.704C118.577 15.8653 118.292 15.8653 118.122 15.704C117.951 15.5427 117.951 15.2738 118.122 15.1125L119.259 13.9296C119.43 13.7683 119.714 13.7683 119.884 13.9296Z" fill="#6C1626"/>
<path d="M117.44 13.069C117.61 12.9077 117.951 12.6926 118.236 12.5313C118.292 12.4775 118.406 12.4237 118.463 12.2624C118.463 12.2624 118.52 12.0473 118.406 11.886C118.292 11.7247 118.008 11.7785 117.951 11.7785C117.838 11.7785 117.781 11.8323 117.667 11.9398C117.496 12.0473 117.383 12.1549 117.326 12.1549C117.042 12.37 116.928 12.4775 116.757 12.585C116.53 12.8001 116.359 13.0152 116.303 13.069C116.132 13.2303 116.075 13.4453 115.848 13.768C115.734 13.983 115.62 14.1443 115.677 14.3594C115.677 14.467 115.734 14.5207 115.734 14.5745C115.848 14.682 116.018 14.682 116.018 14.682C116.132 14.682 116.246 14.6283 116.303 14.5745C116.416 14.5207 116.473 14.4132 116.53 14.1981C116.644 14.0368 116.587 13.983 116.7 13.8755C116.7 13.8217 116.757 13.7142 116.928 13.5529C117.042 13.4991 117.212 13.284 117.44 13.069Z" fill="#C8637A"/>
</svg>
