<svg viewBox="0 0 1041 673" fill="none" xmlns="http://www.w3.org/2000/svg">
    <path d="M930.275 31.5285H109.538C60.3791 31.5285 20.5282 71.3795 20.5282 120.538V559.113C20.5282 608.271 60.3791 648.122 109.538 648.122H930.275C979.434 648.122 1019.29 608.271 1019.29 559.113V120.538C1019.29 71.3795 979.434 31.5285 930.275 31.5285Z" fill="#B6CEE1" stroke="#116619" stroke-width="6"/>
    <path d="M10.3469 40.3962C14.0803 43.5191 30.3873 57.8544 33.3678 82.5644C35.0452 97.2366 31.7442 112.047 23.9945 124.618C23.9917 129.075 23.989 133.532 23.9862 137.989C25.0232 137.01 49.8969 112.69 42.0007 79.7975C35.744 53.7353 13.6633 42.0771 10.3469 40.3962Z" fill="#48964E"/>
    <path d="M17.0569 128.701C8.9823 135.637 6.59974 141.986 5.91973 146.508C3.13445 165.034 25.505 175.593 28.6391 200.181C30.0691 211.399 26.9366 221.162 23.9805 227.768L23.9875 239.712C41.4527 218.375 42.4272 204.688 40.0084 196.092C35.2337 179.124 13.756 169.631 15.3641 150.788C15.5785 148.344 16.1464 145.945 17.05 143.665C17.0523 138.677 17.0547 133.689 17.0569 128.701Z" fill="#48964E"/>
    <path d="M17.0604 232.674C5.48571 244.641 4.28572 252.946 5.18191 258.219C6.62856 266.731 13.6659 268.101 22.5952 285.077C28.1058 295.553 28.5785 301.026 28.6456 303.67C28.7256 309.923 27.1173 316.082 23.9902 321.497L23.991 330.539C41.6305 318.739 42.9887 308.886 42.9599 304.851C42.9091 297.746 38.4361 291.725 29.6048 279.838C21.4098 268.807 15.4084 264.258 14.9216 255.415C14.7655 251.724 15.4991 248.049 17.0604 244.7V232.674Z" fill="#48964E"/>
    <path d="M17.0604 325.22V335.103C13.8048 340.271 12.0902 346.261 12.1177 352.369C12.5845 369.455 28.9968 376.064 34.1056 392.065C36.8704 400.725 36.9913 414.222 23.998 434.822C23.9945 430.933 23.991 427.045 23.9876 423.156C26.0384 415.924 26.4201 408.32 25.1039 400.919C20.7622 377.867 0.685835 370.851 0.0169104 353.992C-0.233507 347.682 2.15076 337.868 17.0604 325.22Z" fill="#48964E"/>
    <path d="M17.05 427.831C4.9767 444.271 4.77019 454.633 6.80512 461.054C10.6863 473.3 24.3095 476.221 27.465 490.052C29.351 498.318 26.4773 506.012 23.9944 510.935C23.9956 514.078 23.9968 517.22 23.9979 520.363C37.3567 504.069 38.2159 493.78 36.1716 487.248C32.6197 475.899 19.2638 472.709 15.9545 458.324C14.7897 452.761 15.1722 446.984 17.0604 441.623L17.05 427.831Z" fill="#48964E"/>
    <path d="M17.0612 515.065C8.99151 525.759 9.0124 531.824 10.4206 535.356C13.1376 542.17 22.1154 542.287 25.5465 550.039C28.053 555.702 26.0884 562.023 24.2826 566.146C24.3981 567.501 24.5498 568.909 24.7375 570.368C24.9274 571.825 25.1416 573.223 25.3799 574.563C36.23 556.687 35.4077 548.633 32.7037 544.579C28.6327 538.476 17.7069 537.555 16.3971 530.191C16.1254 528.432 16.3546 526.631 17.0587 524.996L17.0612 515.065Z" fill="#48964E"/>
    <path d="M18.0222 572.507C13.0892 583.935 14.5023 589.32 16.4895 592.115C20.584 597.873 29.2555 595.641 37.1308 602.851C40.4592 606 42.9026 609.968 44.2168 614.358C44.942 615.213 45.7119 616.085 46.5267 616.972C47.3524 617.869 48.1675 618.718 48.972 619.52C49.211 604.959 45.11 599.01 41.3366 596.265C34.4535 591.258 24.7423 594.061 20.6399 587.632C19.2122 585.118 18.7262 582.177 19.2688 579.337C19.0586 578.382 18.8583 577.399 18.6681 576.389C18.4184 575.057 18.2031 573.763 18.0222 572.507Z" fill="#48964E"/>
    <path d="M42.0031 622.283C46.7911 638.508 53.2136 643.192 57.9382 644.631C66.9854 647.388 73.8136 639.441 88.7123 639.365C96.1929 639.413 103.556 641.227 110.203 644.66L119.037 644.657C102.87 630.479 91.01 628.438 82.73 629.801C72.3763 631.505 63.8322 639.154 54.9499 635.224C51.4655 633.513 48.6522 630.688 46.9564 627.196C46.2082 626.514 45.4495 625.795 44.6803 625.04C43.7328 624.108 42.8404 623.189 42.0031 622.283Z" fill="#48964E"/>
    <path d="M115.106 651.591C127.369 659.207 134.715 658.829 139.176 657.027C145.937 654.296 147.67 647.647 156.146 644.779C160.852 643.316 165.884 643.273 170.614 644.655H177.173C165.138 636.785 157.597 636.827 152.826 638.581C144.69 641.572 140.989 650.87 130.321 652.01C128.053 652.244 125.761 652.1 123.54 651.584L115.106 651.591Z" fill="#48964E"/>
    <path d="M176.174 651.59C191.651 661.554 201.029 661.231 206.763 659.02C215.799 655.534 218.489 646.308 229.636 643.525C235.059 642.31 240.718 642.705 245.919 644.66L253.388 644.657C239.944 633.895 230.994 633.305 225.357 634.671C213.782 637.475 209.318 650.187 194.515 652.342C190.476 652.902 186.366 652.647 182.428 651.591L176.174 651.59Z" fill="#48964E"/>
    <path d="M249.258 651.582C265.838 664.48 276.984 665.311 284.237 663.447C296.849 660.205 300.696 648.04 316.407 643.82C324.23 641.89 332.436 642.182 340.102 644.66L351.961 644.655C333.752 633.539 321.409 633.567 313.345 635.888C299.746 639.802 293.8 651.537 277.043 653.596C270.737 654.311 264.351 653.625 258.341 651.587L249.258 651.582Z" fill="#48964E"/>
    <path d="M345.465 651.591C365.599 662.904 377.705 661.874 385.027 658.872C394.833 654.852 399.56 645.86 412.771 643.525C418.459 642.583 424.289 642.969 429.804 644.655L443.017 644.658C425.156 629.441 413.953 628.334 406.868 630.539C395.057 634.214 392.044 647.915 376.764 652.231C370.046 653.964 362.974 653.737 356.381 651.577L345.465 651.591Z" fill="#48964E"/>
    <path d="M436.307 651.584C442.658 655.453 452.538 660.082 464.273 659.315C481.079 658.216 487.83 646.955 505.592 642.197C514.149 639.904 527.156 638.613 545.113 644.65L557.538 644.652C526.411 625.02 509.136 625.608 498.952 630.686C488.018 636.138 480.788 648.994 462.926 651.881C457.708 652.701 452.387 652.6 447.203 651.584H436.307Z" fill="#48964E"/>
    <path d="M562.702 651.585C568.452 653.494 574.507 654.314 580.558 654.002C600.049 652.891 608.674 639.807 623.353 634.671C633.854 630.996 650.008 630.496 674.713 644.655L660.42 644.66C650.354 641.913 639.791 641.525 629.551 643.525C608.509 647.856 601.319 660.833 583.509 662.119C576.428 662.63 565.421 661.455 551.171 651.587L562.702 651.585Z" fill="#48964E"/>
    <path d="M678.232 651.584C690.721 656.031 703.969 657.957 717.208 657.249C748.6 655.366 762.648 638.53 787.599 631.572C805.047 626.706 831.514 625.641 869.511 644.671L852.521 644.66C835.629 641.292 818.247 641.207 801.323 644.41C765.319 651.434 753.078 670.21 724.734 672.301C710.686 673.337 690.342 670.448 664.51 651.591L678.232 651.584Z" fill="#48964E"/>
    <path d="M863.063 651.567C886.607 667.621 902.874 668.248 913.514 665.66C932.602 661.019 935.367 645.599 956.862 642.787C972.959 640.681 980.122 648.188 995.268 643.23C1005.77 639.793 1012.88 632.731 1017.11 627.587C1009.96 632.466 1001.87 635.785 993.35 637.327C976.852 640.181 972.486 633.405 958.485 634.671C935.888 636.714 931.904 655.755 909.678 658.725C898.771 660.182 888.074 657.154 877.949 651.549L863.063 651.567Z" fill="#48964E"/>
    <path d="M999.208 69.8698C997.078 77.8959 996.929 86.3192 998.772 94.4161C1003.46 113.868 1018.27 119.09 1024.6 136.621C1027.5 144.66 1029.28 157.114 1022.75 175.443L1022.76 186.227C1042.99 157.86 1042.88 141.801 1038.91 132.342C1033.64 119.792 1018.97 112.695 1008.05 87.2683C1006.39 83.4222 1005.27 80.1954 1004.61 78.1808C1004.06 77.2256 1003.48 76.2551 1002.86 75.2693C1001.65 73.3353 1000.43 71.5367 999.208 69.8698Z" fill="#48964E"/>
    <path d="M1015.82 180.961C1011.89 187.507 1007.1 197.909 1008.95 209.578C1011.34 224.602 1022.78 229.453 1027.25 244.773C1029.47 252.361 1030.52 264.371 1022.75 281.839V294.295C1042.18 265.974 1041.87 250.456 1037.66 241.453C1032.33 230.076 1018.31 223.862 1015.52 206.479C1014.82 201.997 1014.92 197.427 1015.82 192.98V180.961Z" fill="#48964E"/>
    <path d="M1015.82 288.046C1006.9 300.577 1006.59 308.452 1008.44 313.504C1011.7 322.443 1022.43 324.583 1024.6 334.976C1025.36 339.343 1024.71 343.839 1022.75 347.816L1022.76 356.235C1032.27 345.732 1033.16 338.662 1032.12 334.09C1029.58 322.9 1013.72 319.142 1013.31 307.528C1013.28 304.468 1014.15 301.468 1015.81 298.9L1015.82 288.046Z" fill="#48964E"/>
    <path d="M1015.82 351.992C1005.73 364.487 1004.91 372.978 1006.3 378.586C1009.03 389.572 1021.11 392.861 1024.01 406.33C1025.05 411.659 1024.61 417.171 1022.75 422.272V434.384C1035.55 419.748 1036.56 410.288 1034.93 404.264C1031.75 392.556 1017.13 388.512 1014.86 373.569C1014.29 369.557 1014.62 365.469 1015.82 361.6L1015.82 351.992Z" fill="#48964E"/>
    <path d="M1015.82 426.515C1004.79 443.25 1004.97 453.074 1007.55 459.062C1011.73 468.749 1023.75 471.98 1025.04 483.19C1025.39 487.06 1024.59 490.946 1022.75 494.368L1022.75 503.382C1032.03 494.909 1033.54 488.412 1033.23 484.075C1032.34 471.543 1015.58 466.621 1013.75 451.093C1013.29 446.597 1014.01 442.06 1015.82 437.921L1015.82 426.515Z" fill="#48964E"/>
    <path d="M1015.82 499.014C1007.02 507.596 1005.4 514.24 1005.86 518.975C1006.87 529.57 1018.51 532.74 1023.27 545.39C1026.88 554.982 1024.61 564.882 1021.83 572.165C1021.6 573.851 1021.3 575.628 1020.93 577.483C1020.57 579.278 1020.17 580.978 1019.75 582.576C1036.03 561.403 1036.46 549.678 1033.45 542.808C1028.98 532.623 1014.59 527.777 1014.27 515.286C1014.22 512.647 1014.75 510.03 1015.82 507.617L1015.82 499.014Z" fill="#48964E"/>
    <path d="M1014.2 575.757C1009.84 580.03 1006.56 585.276 1004.62 591.064C1001.29 601.346 1004.9 606.523 1000.52 615.745C999.569 617.76 996.178 624.913 989.124 628.141C977.107 633.64 963.034 623.823 962.617 624.765C962.192 625.726 975.865 638.171 990.342 634.283C997.405 632.386 1005.59 626.476 1007.66 618.456C1009.61 610.929 1007.55 596.224 1009.29 592.035C1009.35 591.892 1009.8 590.836 1010.36 589.358C1010.98 587.685 1011.45 586.25 1011.78 585.179C1012.3 583.51 1012.81 581.738 1013.27 579.868C1013.63 578.455 1013.94 577.085 1014.2 575.757Z" fill="#48964E"/>
    <path d="M1001.47 61.5114C1001.37 56.6351 1000.25 51.8343 998.181 47.4151C991.658 33.5863 977.938 28.8425 974.865 27.862C988.36 26.1976 1001.09 32.6254 1006.59 43.5783C1012.43 55.2029 1007.59 66.8654 1006.81 68.643C1005.94 67.3385 1004.98 65.9914 1003.94 64.6156C1003.11 63.5224 1002.29 62.4876 1001.47 61.5114Z" fill="#48964E"/>
    <path d="M43.1074 75.3058C44.178 75.238 38.4338 54.3328 49.1947 41.4384C57.8654 31.0486 73.9217 29.8507 87.2125 30.7765C89.4119 30.2335 91.3744 29.8335 93.0296 29.5356C94.0802 29.3464 95.6591 29.081 97.592 28.8307C98.9585 28.6539 100.173 28.5271 101.193 28.4349C76.8268 18.8415 53.2042 23.3874 43.6608 37.2327C33.201 52.4074 41.9815 75.377 43.1074 75.3058Z" fill="#48964E"/>
    <path d="M93.9102 36.4152C102.92 41.8453 116.869 48.1998 132.092 45.3122C149.99 41.9171 155.559 28.4282 174.15 22.9922C183.451 20.2727 198.036 18.9772 219.103 28.0634H236.353C199.711 5.44149 178.684 6.07507 165.96 12.2196C151.449 19.2267 139.936 37.1661 118.258 37.0115C114.152 36.9709 110.076 36.3133 106.166 35.0608C103.849 35.1485 101.363 35.337 98.7344 35.6677C97.0497 35.8796 95.4402 36.1331 93.9102 36.4152Z" fill="#48964E"/>
    <path d="M228.079 34.994C228.944 35.3655 230.199 35.8987 231.72 36.5247C233.329 37.2753 234.978 37.935 236.661 38.5009C240.168 39.6001 245.142 41.035 251.186 42.359C257.024 43.638 276.468 46.4508 289.033 46.3082C320.503 45.951 334.661 25.56 366.507 19.7456C380.473 17.1958 400.921 16.8869 427.844 28.053C437.861 28.0582 447.878 28.0634 457.896 28.0685C399.445 -5.47043 365.669 -2.9533 345.479 6.02161C327.021 14.2264 308.788 32.7752 274.516 36.1947C264.406 37.1846 254.208 36.7811 244.207 34.9957L228.079 34.994Z" fill="#48964E"/>
    <path d="M437.286 34.9914C465.596 51.2299 483.707 50.326 495.115 46.3082C510.947 40.7325 518.143 27.6528 538.058 24.6155C547.925 23.263 557.975 24.4497 567.256 28.0634H586.506C555.693 5.68429 537.191 4.95595 525.662 9.56331C510.09 15.7864 504.033 33.0253 483.162 37.0114C474.91 38.4536 466.427 37.7578 458.521 34.9905C451.443 34.9908 444.364 34.9911 437.286 34.9914Z" fill="#48964E"/>
    <path d="M571.485 34.9957C596.982 49.3601 614.019 48.7852 625.05 45.3121C642.733 39.7448 651.283 24.7466 672.199 23.5087C680.314 23.1283 688.403 24.6898 695.793 28.0634H718.178C696.641 9.28632 680.986 6.98964 670.428 8.67782C649.18 12.0756 638.772 33.1835 609.666 35.9045C603.46 36.4718 597.205 36.1641 591.084 34.9904C584.551 34.9922 578.018 34.994 571.485 34.9957Z" fill="#48964E"/>
    <path d="M703.477 34.994C726.783 49.3467 740.366 48.8083 748.64 44.9801C759.428 39.9895 761.813 29.122 774.613 24.9106C784.974 21.5015 795.456 24.6605 802.943 28.0599C808.95 28.0605 814.957 28.0611 820.964 28.0617C789.526 7.85254 773.908 8.26014 765.463 13.4001C755.427 19.5093 753.178 33.732 739.786 37.3065C732.496 39.2524 725.543 37.0715 720.901 34.9957L703.477 34.994Z" fill="#48964E"/>
    <path d="M809.739 34.9931C815.789 39.6486 825.205 45.3045 836.74 45.2753C856.236 45.2261 864.499 28.9799 885.881 23.2874C895.544 20.7147 910.126 19.7014 930.432 28.0634C933.816 28.0668 937.197 28.2546 940.56 28.6259C943.741 28.9771 946.679 29.4677 949.349 30.0244C907.174 3.31472 886.881 4.66513 876.141 11.039C865.409 17.408 857.069 33.0336 838.068 35.5357C833.569 36.1109 829.005 35.9275 824.567 34.9931H809.739Z" fill="#48964E"/>
    <path d="M934.578 35.0669C941.184 39.498 948.551 42.6711 956.309 44.4268C966.959 46.7913 978.032 46.4488 988.516 43.4307C979.796 43.5594 971.096 42.5926 962.617 40.553C959.399 39.7762 956.384 38.8836 953.578 37.9281C947.375 36.2526 941 35.2927 934.578 35.0669V35.0669Z" fill="#48964E"/>
    <path d="M101.41 35.4048C107.838 38.3593 117.565 41.6527 128.908 40.4694C152.537 38.0046 160.464 18.485 181.344 14.101C191.498 11.9689 206.67 13.0066 227.939 28.0634C226.906 28.0455 225.873 28.0275 224.84 28.0096C205.872 15.3877 191.931 14.5196 182.672 16.0932C160.602 19.8442 152.631 39.5941 129.016 42.2109C116.358 43.6134 105.462 39.3998 98.4162 35.7754L101.41 35.4048Z" fill="#76B779"/>
    <path d="M95.3166 29.1536C85.4727 25.4876 74.7352 24.9592 64.5788 27.6407C59.6373 29.0252 51.9161 31.1809 46.4277 38.2288C39.199 47.5115 40.6058 58.6408 41.0045 61.2498C40.6717 58.7011 39.5176 47.6986 46.8534 38.7216C52.3326 32.0165 60.2123 29.9397 64.8739 28.7106C73.9135 26.4302 83.4148 26.7632 92.2725 29.6711C93.2873 29.4985 94.302 29.3261 95.3166 29.1536Z" fill="#76B779"/>
    <path d="M237.66 34.9823C252 39.4528 273.205 43.7283 297.002 38.7822C330.164 31.8895 340.922 12.7916 368.942 7.64491C385.526 4.59893 410.17 6.06971 443.834 28.0613L439.167 28.0649C408.29 9.14934 385.263 7.93983 369.975 10.3012C340.724 14.8193 329.915 33.9371 297.666 40.8482C271.862 46.3781 248.691 40.5865 233.399 34.9946C234.82 34.9906 236.24 34.9864 237.66 34.9823Z" fill="#76B779"/>
    <path d="M444.941 34.9912C452.929 40.0391 465.38 46.0804 479.841 44.6481C504.225 42.2332 513.083 20.6748 537.726 17.8641C546.079 16.9114 558.71 17.8318 575.226 28.0738L578.428 28.0634C560.424 15.2718 546.765 13.831 537.394 15.0972C514.3 18.2174 505.779 39.3249 480.948 41.9918C467.882 43.3952 456.562 39.0194 448.925 35.0007C447.597 34.9976 446.269 34.9944 444.941 34.9912Z" fill="#76B779"/>
    <path d="M578.18 34.9873C595.154 43.6952 608.029 44.0214 616.417 42.8772C642.702 39.292 652.867 17.4572 676.737 17.5321C689.165 17.5711 699.182 23.5302 705.282 28.0599C706.237 28.0611 707.192 28.0623 708.147 28.0634C694.849 16.8455 684.006 14.7085 676.847 14.6545C653.408 14.4776 643.263 36.4358 616.085 40.3317C601.595 42.4089 589.063 38.3766 581.209 34.9905L578.18 34.9873Z" fill="#76B779"/>
    <path d="M710.788 34.9947C718.061 40.2465 728.459 45.7932 739.491 43.7627C755.801 40.7608 759.939 23.6929 776.605 19.5981C783.78 17.8351 794.554 18.163 809.898 28.0606L812.55 28.0609C794.731 15.2624 782.829 14.6367 774.982 16.9418C759.326 21.5405 755.487 39.0733 739.159 41.8811C729.507 43.5409 720.566 39.1829 714.296 34.9957C713.126 34.9953 711.957 34.995 710.788 34.9947Z" fill="#76B779"/>
    <path d="M814.955 34.9931C819.827 38.1992 827.321 42.0445 836.555 42.2132C858.284 42.6099 867.535 22.245 889.127 16.9787C899.451 14.4606 914.822 14.852 936.534 28.2863C937.876 28.3995 939.218 28.5127 940.56 28.6259C915.515 11.7737 898.952 11.6916 888.574 14.5438C868.697 20.0065 859.238 39.606 836.887 39.6676C830.25 39.6106 823.717 38.0112 817.804 34.9957C816.854 34.9949 815.905 34.994 814.955 34.9931Z" fill="#76B779"/>
    <path d="M942.44 35.713C946.569 38.605 951.123 40.8354 955.94 42.3239C963.469 44.634 970.024 44.5734 970.051 44.3714C965.338 43.7267 960.69 42.6713 956.161 41.2171C952.257 39.881 948.499 38.1504 944.946 36.0521C944.11 35.9391 943.275 35.826 942.44 35.713Z" fill="#76B779"/>
    <path d="M988.516 31.625C991.866 32.7214 994.959 34.4872 997.607 36.8153C1000.25 39.1435 1002.4 41.9854 1003.92 45.1685C1005.43 48.3515 1006.28 51.8094 1006.42 55.3321C1006.56 58.8548 1005.98 62.3689 1004.72 65.6609L1003.26 63.7362C1005.12 57.5055 1004.64 50.8135 1001.93 44.9062C999.217 38.999 994.45 34.279 988.516 31.625V31.625Z" fill="#76B779"/>
    <path d="M1000.89 72.2494C1000.26 82.8465 1002.22 93.4377 1006.61 103.106C1014.89 120.768 1027.3 124.15 1031.79 138.06C1034.42 146.21 1034.63 158.89 1022.75 178.194L1022.75 180.961C1037.32 159.553 1037.47 145.875 1034.56 137.175C1030.09 123.821 1017.69 120.015 1008.88 100.872C1005.12 92.5862 1002.93 83.6725 1002.43 74.5864C1001.92 73.8075 1001.4 73.0284 1000.89 72.2494Z" fill="#76B779"/>
    <path d="M1015.82 184.986C1013.41 189.821 1010.25 197.931 1011.24 207.509C1013.17 226.011 1028.77 232.242 1032.34 249.345C1033.89 256.745 1033.67 268.5 1022.75 285.279V288.046C1036.28 269.414 1036.85 256.783 1034.85 248.681C1030.95 232.842 1015.36 226.727 1013.09 207.878C1012.36 201.084 1013.32 194.216 1015.89 187.882L1015.82 184.986Z" fill="#76B779"/>
    <path d="M1015.82 292.088C1009.52 300.359 1009.12 306.243 1009.77 309.963C1011.78 321.513 1026.15 324.672 1027.58 336.083C1028.33 342.038 1025.19 347.306 1022.75 350.54L1022.75 351.993C1029 345.097 1029.85 339.901 1029.47 336.415C1028.21 325.102 1012.73 321.778 1010.98 309.852C1010.1 303.818 1013.13 298.335 1015.81 294.662L1015.82 292.088Z" fill="#76B779"/>
    <path d="M1015.82 354.877C1009.05 365.795 1009 373.435 1010.13 378.341C1013.12 391.204 1026.44 394.586 1028.43 407.117C1029.67 414.86 1025.9 421.893 1022.75 426.431V429.612C1031.05 419.546 1031.86 412.226 1031.16 407.486C1029.35 395.193 1016.11 391.535 1012.94 377.603C1011.09 369.49 1013.6 362.01 1015.82 357.202L1015.82 354.877Z" fill="#76B779"/>
    <path d="M1015.82 431.54C1008.4 442.61 1008.31 450.201 1009.4 454.93C1012.39 467.941 1027.27 472.146 1027.7 484.296C1027.89 489.927 1024.89 494.552 1022.75 497.237L1022.75 499.561C1026.34 495.827 1030.01 490.629 1029.76 484.592C1029.27 472.672 1013.94 468.563 1011.09 454.856C1010.08 449.965 1010.53 443.248 1015.82 434.381V431.54Z" fill="#76B779"/>
    <path d="M1015.82 501.71C1012.2 505.779 1008.04 511.875 1008.73 518.754C1009.91 530.546 1024.14 533.781 1028.14 546.46C1029.93 552.144 1030.12 561.166 1021.39 575.016L1020.97 577.285C1032.6 561.775 1032.9 552.126 1030.91 546.128C1027.02 534.456 1012.63 531.24 1011.32 519.049C1010.67 513.035 1013.52 507.801 1015.82 504.514V501.71Z" fill="#76B779"/>
    <path d="M1013.28 579.796C1009.56 584.263 1006.96 589.556 1005.71 595.232C1003.78 604.436 1007.17 608.128 1004.05 616.335C1002.26 621.337 998.873 625.614 994.418 628.509C990.52 630.91 986.009 632.127 981.432 632.014C986.042 632.394 990.662 631.406 994.714 629.174C999.559 626.322 1003.26 621.875 1005.19 616.593C1008.15 608.792 1005.06 604.977 1007.15 595.343C1008.18 590.641 1010.06 586.164 1012.68 582.125L1013.28 579.796Z" fill="#76B779"/>
    <path d="M997.001 639.983C997.064 640.333 990.231 642.707 981.801 642.934C972.39 643.188 966.73 640.613 962.47 639.688C942.876 635.435 931.042 661.361 907.498 664.948C898.802 666.273 885.711 664.976 867.933 651.561L872.47 651.556C887.78 663.167 899.182 664.259 906.393 663.447C930.198 660.764 941.56 633.571 961.584 637.474C966.077 638.35 970.601 640.712 979.883 641.164C989.645 641.638 996.936 639.623 997.001 639.983Z" fill="#76B779"/>
    <path d="M859.281 644.664C846.215 639.293 824.975 632.842 800.917 637.437C768.848 643.563 757.616 664.379 727.649 667.652C715.114 669.021 695.5 667.736 669.584 651.59L674.313 651.588C685.418 658.133 703.568 666.516 724.992 664.553C755.92 661.72 767.454 639.729 798.925 633.453C812.761 630.694 834.433 630.178 864.262 644.667L859.281 644.664Z" fill="#76B779"/>
    <path d="M664.037 644.687C651.154 638.458 640.62 637.651 632.355 638.876C610.917 642.054 603.216 659.13 583.214 660.348C572.328 661.011 562.681 656.679 555.065 651.586L558.275 651.567C563.675 654.63 572.348 658.476 582.771 657.913C602.953 656.821 610.581 640.23 630.473 636.441C638.605 634.893 651.06 635.05 668.132 644.663L664.037 644.687Z" fill="#76B779"/>
    <path d="M549.273 644.651C527.307 632.848 512.883 633.741 503.748 636.773C488.389 641.872 482.538 654.827 465.564 656.917C455.012 658.215 445.881 654.611 440.071 651.584H443.613C450.165 654.716 457.453 655.987 464.678 655.256C482.171 653.136 488.125 638.533 502.641 633.066C511.819 629.609 527.077 628.802 552.323 644.651L549.273 644.651Z" fill="#76B779"/>
    <path d="M436.493 644.699C425.159 635.342 416.761 634.257 411.147 635.039C396.579 637.07 392.128 652.885 376.026 656.068C366.737 657.905 358.204 654.622 352.47 651.582L349.186 651.586C361.832 658.828 370.85 658.786 376.542 657.618C392.27 654.389 397.166 639.573 412.18 637.991C421.167 637.044 428.928 641.349 433.652 644.656L436.493 644.699Z" fill="#76B779"/>
    <path d="M343.431 644.659C338.235 642.101 329.583 638.814 319.691 640.37C302.42 643.088 297.038 658.105 281.064 660.569C274.988 661.506 265.331 660.943 252.012 651.579L255.498 651.583C261.237 655.047 270.054 659.071 280.068 657.747C296.509 655.573 301.906 640.871 318.473 638.046C324.612 637 333.915 637.306 346.475 644.657L343.431 644.659Z" fill="#76B779"/>
    <path d="M247.944 644.659C242.921 641.619 235.444 638.27 227.644 640.094C217.346 642.502 214.939 651.951 204.641 655.533C199.415 657.351 191.182 657.998 178.634 651.591L180.69 651.591C186.805 654.03 195.311 656.168 203.756 653.264C214.324 649.631 216.651 640.901 226.316 638.323C231.472 636.947 239.267 637.176 250.6 644.659H247.944Z" fill="#76B779"/>
    <path d="M175.127 644.655C166.239 639.155 160.08 639.112 156.054 640.149C146.567 642.594 143.858 652.346 133.808 653.984C129.396 654.556 124.916 653.717 121.011 651.586L118.41 651.588C125.345 655.862 130.57 656.207 134.25 655.533C144.054 653.738 146.739 644.014 156.829 641.754C162.921 640.389 168.708 642.419 172.988 644.655H175.127Z" fill="#76B779"/>
    <path d="M113.48 644.655C100.881 635.725 91.2151 634.611 84.6116 635.335C72.9819 636.61 67.4533 643.96 59.0089 641.91C50.9138 639.944 46.2258 630.817 43.6255 623.984L45.2295 625.576C47.9039 631.28 52.4118 638.401 59.5984 640.094C68.0881 642.094 73.6296 634.944 84.0212 633.269C91.1384 632.121 101.672 633.358 116.069 644.659L113.48 644.655Z" fill="#76B779"/>
    <path d="M45.3947 615.708C45.0881 611.126 43.8752 604.984 39.3444 600.729C31.9806 593.815 21.6087 597.29 17.4301 591.064C15.7766 588.6 14.7742 584.141 18.4904 575.414C18.6191 576.098 18.7477 576.782 18.8762 577.465C17.2405 581.599 15.9684 586.871 18.4262 590.621C22.4531 596.765 32.7686 593.143 40.156 599.475C43.5126 602.352 46.5172 607.5 46.7931 617.26C46.3269 616.743 45.8608 616.225 45.3947 615.708Z" fill="#76B779"/>
    <path d="M24.5267 568.625C30.1619 559.396 29.8582 553.748 28.498 550.279C25.3031 542.13 14.6376 541.809 12.2284 534.009C10.5306 528.513 13.9362 522.549 17.0604 518.385L17.0598 520.986C15.0042 524.117 12.5214 529.002 13.8886 533.788C16.1852 541.828 27.2138 542.118 30.4902 549.892C32.026 553.536 32.245 559.742 24.7701 570.615L24.5267 568.625Z" fill="#76B779"/>
    <path d="M23.9954 513.617C27.8757 508.27 32.3657 500.169 30.8776 491.398C28.5162 477.48 13.1498 473.942 9.8488 459.745C8.55186 454.166 8.79209 445.544 17.0541 433.163L17.0568 436.816C13.8066 442.419 10.3751 450.579 12.2284 459.246C15.3589 473.887 30.8828 477.417 33.3125 490.9C34.2915 496.333 33.3424 504.481 23.9963 515.83L23.9954 513.617Z" fill="#76B779"/>
    <path d="M23.9879 426.901C27.3632 419.487 31.1935 407.891 28.0553 395.533C22.9748 375.526 3.68727 369.495 3.33725 353.254C3.2183 347.736 5.24806 339.291 17.0604 328.665V331.654C12.0455 336.702 6.43255 344.146 6.53753 353.096C6.72924 369.433 25.7937 375.553 30.7853 394.5C32.8483 402.331 32.9074 413.871 24.0156 430.083C24.0063 429.022 23.9971 427.962 23.9879 426.901Z" fill="#76B779"/>
    <path d="M23.9904 324.704C33.2302 315.786 34.4585 308.487 34.4745 304.519C34.4838 302.232 34.1043 297.556 21.7466 278.953C12.536 265.087 9.34725 262.567 8.90797 256.485C8.33726 248.583 12.9182 241.727 17.0604 237.043V240.621C14.4345 244.232 11.4841 249.593 11.7856 255.932C12.1125 262.803 16.0476 266.351 23.4068 276.85C32.9914 290.523 37.7837 297.36 37.7948 304.519C37.8022 309.238 35.9793 317.228 23.9906 327.001L23.9904 324.704Z" fill="#76B779"/>
    <path d="M23.9829 231.693C32.8396 219.498 34.1486 209.883 33.7367 203.397C32.2585 180.113 6.81397 168.925 9.46146 148.722C10.3856 142.973 13.0399 137.642 17.0705 133.439C17.0637 134.7 17.0568 135.96 17.0501 137.22C14.3671 140.553 12.5691 144.509 11.8226 148.722C8.58694 168.77 34.9488 180.476 36.9095 202.806C37.5483 210.082 35.8002 220.798 23.9846 234.682L23.9829 231.693Z" fill="#76B779"/>
    <path d="M23.9916 129.261C32.5178 118.862 37.3702 105.938 37.7949 92.4977C38.0244 81.6521 35.3223 70.9457 29.9737 61.5079C36.3822 70.5913 39.9282 81.3835 40.1561 92.4977C40.4759 114.728 26.8922 129.321 23.9897 132.305L23.9916 129.261Z" fill="#76B779"/>
    <path d="M538.309 508.01C538.807 500.949 537.207 493.898 533.709 487.737C530.244 486.194 526.627 485.012 522.917 484.211C511.416 481.731 502.258 483.658 492.929 485.621C485.836 487.114 477.683 488.903 468.956 494.347C465.996 496.166 463.238 498.294 460.73 500.694C456.829 504.488 453.626 508.933 451.264 513.828C452.377 515.163 453.765 516.246 455.334 517.001C462.619 510.324 471.33 505.381 480.81 502.545C494.454 498.541 505.942 500.228 514.514 501.487C522.682 502.689 530.673 504.88 538.309 508.01Z" fill="#057FD3"/>
    <path d="M538.398 505.552C537.91 501.581 536.141 497.875 533.356 494.994C531.887 493.559 530.181 492.386 528.313 491.527C526.639 490.695 522.792 489.035 512.169 488.971C501.977 488.746 491.834 490.436 482.27 493.951C477.115 495.817 472.153 498.173 467.453 500.988C467.453 500.988 464.63 502.859 458.371 507.863C458.178 508.017 457.684 508.414 457.065 508.974C456.202 509.765 455.388 510.605 454.626 511.492C453.136 513.155 453.109 513.431 453.13 513.637C453.234 514.682 454.95 515.269 455.304 515.385L454.363 516.477C453.188 515.775 452.14 514.879 451.264 513.828C452.59 511.072 454.188 508.454 456.034 506.014C460.033 500.921 464.967 496.633 470.573 493.376C478.705 488.536 485.747 487.089 494.921 485.204C502.079 483.733 507.229 482.674 514.337 483.092C521.018 483.497 527.575 485.069 533.709 487.737C534.81 489.675 535.728 491.711 536.451 493.818C537.741 497.596 538.399 501.561 538.398 505.552Z" fill="#1C1C1C"/>
    <path d="M499.918 560.192C492.563 563.332 484.516 564.517 476.564 563.63C474.325 562.965 472.138 562.14 470.018 561.162C465.772 559.222 461.837 556.667 458.341 553.581C453.9 549.89 450.438 545.168 448.257 539.831C447.117 536.876 446.426 533.768 446.206 530.61C447.199 529.922 448.316 529.431 449.495 529.165C450.921 528.905 452.385 528.935 453.798 529.253C455.212 529.571 456.547 530.171 457.722 531.016C459.376 534.813 461.582 538.348 464.268 541.505C469.923 548.135 476.229 551.28 482.049 554.11C487.73 556.865 493.732 558.908 499.918 560.192Z" fill="#057FD3"/>
    <path d="M487.312 561.69C482.38 561.609 477.5 560.67 472.893 558.914C470.35 557.903 467.92 556.633 465.639 555.124C461.773 552.463 458.329 549.239 455.422 545.56C453.483 543.228 451.723 540.752 450.159 538.156C449.112 536.371 448.39 534.417 448.025 532.382C447.896 531.996 447.854 531.587 447.902 531.183C447.949 530.78 448.086 530.392 448.301 530.046C448.587 529.713 448.941 529.446 449.341 529.264C449.74 529.081 450.174 528.987 450.614 528.989C449.028 529.139 447.51 529.698 446.206 530.61C446.441 534.065 447.245 537.457 448.588 540.651C450.03 543.993 452.014 547.076 454.46 549.777C456.481 552.074 458.741 554.152 461.201 555.976C463.434 557.627 465.807 559.082 468.293 560.323C470.109 561.268 471.985 562.093 473.91 562.792C474.774 563.132 475.661 563.412 476.564 563.63C478.507 563.998 480.493 564.092 482.462 563.909C485.079 563.808 486.388 563.757 487.975 563.552C491.11 563.142 494.188 562.377 497.148 561.27C493.889 561.705 490.597 561.845 487.312 561.69Z" fill="#1C1C1C"/>
    <path d="M562.459 541.329C562.149 540.056 561.667 538.251 560.955 536.128C558.544 528.852 554.828 522.072 549.986 516.119C546.093 511.314 541.358 507.252 536.009 504.132C525.272 498.028 515.082 498.166 504.164 498.314C496.405 498.419 482.303 498.764 467.364 506.511C460.9 509.864 452.177 514.534 451.176 522.378C450.681 526.261 452.255 529.481 453.83 532.602C456.731 538.352 461.271 543.34 469.576 548.821C477.554 554.293 486.403 558.381 495.749 560.913C499.758 561.98 503.843 562.741 507.967 563.189C514.206 563.854 523.385 565.025 533.798 561.602C540.322 559.243 546.508 556.043 552.198 552.083C555.169 550.121 558.034 548.002 560.778 545.736L559.097 543.092L562.459 541.329Z" fill="#008BFF"/>
    <path d="M544.649 520.556C544.274 518.528 543.599 516.568 542.644 514.738C539.147 508.066 532.894 505.241 530.141 504.043C526.197 502.328 523.153 501.995 517.226 501.399C510.356 500.804 503.445 500.863 496.586 501.575C490.727 501.79 484.902 502.557 479.188 503.867C474.456 504.902 469.877 506.541 465.566 508.745C461.362 510.957 457.491 513.746 454.066 517.03L451.294 516.736C450.726 516.114 449.859 515.156 448.817 513.974C446.913 511.816 444.327 508.885 441.268 505.101C439.341 502.717 436.9 500.795 434.781 498.578C434.534 498.279 434.229 498.031 433.885 497.85C433.541 497.668 433.164 497.556 432.776 497.521C432.358 497.525 431.949 497.648 431.597 497.873C431.096 498.312 430.699 498.856 430.434 499.465C430.169 500.075 430.042 500.735 430.064 501.399C429.951 503.736 430.21 506.077 430.83 508.333C431.38 510.688 431.715 513.088 431.833 515.502C431.893 517.944 431.525 517.398 431.066 523.024C430.729 527.156 430.895 527.842 430.653 530.957C430.568 532.051 430.667 533.153 430.594 534.248C430.528 535.236 430.529 535.468 430.712 535.717C431.411 536.664 433.925 536.189 435.713 535.249C436.665 534.652 437.541 533.941 438.32 533.131C440.15 531.62 442.224 530.428 444.453 529.605C446.094 528.895 447.854 528.496 449.643 528.43C451.679 528.404 451.923 528.926 455.422 529.605C457.006 529.913 458.857 530.085 462.558 530.428C464.418 530.646 466.288 530.763 468.16 530.781C470.246 530.757 470.696 530.57 472.937 530.428C475.551 530.296 478.172 530.335 480.781 530.546C484.615 530.761 484.995 530.963 488.329 531.192C491.507 531.459 494.698 531.518 497.883 531.368C501.813 531.223 505.704 530.531 509.442 529.312C511.936 528.632 514.198 527.292 515.988 525.433C516.813 524.504 517.49 523.454 517.993 522.319C516.608 522.977 515.191 523.566 513.747 524.082C510.908 525.129 507.961 525.859 504.96 526.256C502.488 526.553 502.727 526.22 495.465 526.021C491.985 525.925 488.508 525.717 485.027 525.668C482.768 525.73 480.52 525.33 478.422 524.493C477.223 523.989 475.309 523.157 475.178 521.79C475.123 521.215 475.377 520.471 476.829 519.204C478.685 517.61 480.885 516.464 483.258 515.855C492.774 513.605 490.372 513.429 496.468 512.388C504 511.101 507.766 510.458 512.037 511.036C515.542 511.511 518.693 512.554 522.475 512.094C523.805 511.923 525.151 511.903 526.485 512.035C527.917 512.119 529.319 512.478 530.613 513.093C531.647 513.643 532.583 514.357 533.385 515.208C535.348 517.084 535.698 518.192 537.867 520.615C538.678 521.521 539.383 522.207 539.813 522.613L544.649 520.556Z" fill="#1C1C1C"/>
    <path d="M458.739 524.361C458.82 523.933 458.12 523.655 455.378 521.716C453.625 520.477 454.066 520.701 451.662 518.984C448.96 517.054 448.735 517.051 447.638 516.163C446.326 515.065 445.119 513.848 444.033 512.527C437.202 504.813 438.58 506.816 436.469 504.22C434.275 501.52 432.579 499.1 431.449 499.504C431.057 499.72 430.737 500.046 430.528 500.441C430.15 501.119 429.969 501.888 430.004 502.662C429.99 503.683 430.09 504.701 430.302 505.7C430.461 506.614 430.543 506.93 430.797 508.175C431.172 510.011 431.359 510.929 431.538 512.167C431.538 512.167 431.762 513.724 431.833 515.502C431.862 516.004 431.85 516.508 431.796 517.008C431.767 517.257 431.742 517.368 431.634 518.081C431.634 518.081 431.573 518.48 431.479 519.141C431.177 521.248 430.992 523.861 430.992 523.861C430.942 524.579 430.866 525.664 430.833 527.07C430.816 527.771 430.826 527.907 430.801 528.54C430.752 529.778 430.679 530.201 430.637 531.213C430.617 531.679 430.599 532.375 430.623 533.234C431.337 532.74 432.372 532.031 433.631 531.192C436.202 529.48 437.495 528.636 438.29 528.195C440.772 526.894 443.488 526.095 446.281 525.845C448.289 525.582 448.195 525.822 452.473 525.521C458.214 525.119 458.682 524.666 458.739 524.361Z" fill="#D7CC00"/>
    <path d="M543.816 527.446C546.271 527.446 548.261 525.463 548.261 523.017C548.261 520.57 546.271 518.587 543.816 518.587C541.361 518.587 539.371 520.57 539.371 523.017C539.371 525.463 541.361 527.446 543.816 527.446Z" fill="#F9F9F9"/>
    <path d="M543.816 526.381C545.681 526.381 547.192 524.875 547.192 523.017C547.192 521.159 545.681 519.652 543.816 519.652C541.951 519.652 540.44 521.159 540.44 523.017C540.44 524.875 541.951 526.381 543.816 526.381Z" fill="#1C1C1C"/>
    <path d="M544.904 523.759C545.978 523.759 546.85 522.891 546.85 521.82C546.85 520.749 545.978 519.88 544.904 519.88C543.829 519.88 542.957 520.749 542.957 521.82C542.957 522.891 543.829 523.759 544.904 523.759Z" fill="#F9F9F9"/>
    <path d="M529.795 538.427C529.531 538.338 528.904 538.078 527.843 536.616C526.877 535.218 526.072 533.715 525.445 532.137C524.879 530.793 525.061 531.531 522.253 526.473C521.028 524.267 520.163 522.632 518.57 519.921C517.617 518.225 516.357 516.719 514.854 515.48C514.201 514.864 513.356 514.491 512.46 514.423C511.575 514.432 510.724 514.761 510.064 515.348C508.888 516.369 508.679 517.867 508.485 519.976C508.184 522.384 508.054 524.81 508.098 527.236C508.322 530.402 508.798 533.545 509.522 536.636C509.522 536.636 510.841 543.289 512.757 544.062C513.193 544.234 513.606 544.46 513.985 544.734C514.238 544.911 514.473 545.113 514.686 545.337C515.248 545.938 515.183 546.233 515.543 546.538C515.795 546.701 516.078 546.811 516.373 546.862C516.669 546.914 516.972 546.905 517.264 546.836C518.221 546.726 518.445 546.336 519.429 545.959C520.424 545.65 521.465 545.512 522.507 545.55C524.444 545.471 524.316 545.734 525.318 545.588C527.663 545.039 529.735 543.676 531.162 541.743C531.625 541.05 530.257 538.584 529.795 538.427Z" fill="#057FD3"/>
    <path opacity="0.77" d="M526.133 533.689C524.606 531.471 523.038 529.243 521.432 527.006C521.005 526.413 520.578 525.822 520.151 525.234C520.48 526.427 520.621 527.664 520.568 528.9C520.475 530.866 519.904 532.78 518.904 534.477C519.15 533.639 519.316 532.779 519.399 531.91C519.502 529.941 519.286 527.968 518.761 526.068C518.371 524.032 517.781 522.039 517 520.117C516.244 518.319 515.304 516.604 514.193 514.999C514.259 515.042 514.352 515.104 514.461 515.18C514.877 515.476 515.27 515.803 515.637 516.157C516.143 516.629 516.499 517.029 516.639 517.188C517.062 517.67 517.349 518.064 517.523 518.304C517.555 518.347 517.812 518.703 518.076 519.112C519.048 520.622 521.236 524.627 521.421 524.966C521.932 525.901 522.608 527.128 523.311 528.356C523.796 529.202 524.038 529.625 524.263 529.991C524.684 530.678 524.817 530.847 525.079 531.353C525.267 531.716 525.408 532.033 525.69 532.667C525.878 533.089 526.029 533.442 526.133 533.689Z" fill="#1C1C1C"/>
    <path d="M514.803 515.918C514.559 515.534 514.346 515.22 514.193 514.999C513.833 514.746 513.425 514.571 512.993 514.484C512.471 514.38 511.932 514.405 511.421 514.556C510.911 514.706 510.445 514.978 510.064 515.348C509.581 515.904 509.274 516.984 511.029 521.452C512.57 525.375 513.266 525.709 514.644 529.249C515.565 531.357 516.133 533.6 516.326 535.891C516.4 537.44 516.258 538.991 515.904 540.5C517.911 538.053 519.129 535.059 519.399 531.91C519.467 530.446 519.374 528.98 519.124 527.537C518.777 525.294 518.181 523.097 517.347 520.986C516.662 519.22 515.811 517.523 514.803 515.918Z" fill="#D7CC00"/>
    <path d="M529.11 528.283C528.485 532.003 529.042 535.824 530.702 539.213C532.719 543.181 536.114 546.282 540.256 547.94C538.021 547.386 535.932 546.359 534.131 544.93C532.33 543.5 530.858 541.701 529.817 539.654C528.155 536.087 527.903 532.027 529.11 528.283Z" fill="#0472AF"/>
    <path d="M803.309 421.01C803.807 413.949 802.207 406.898 798.709 400.737C795.244 399.194 791.627 398.012 787.917 397.211C776.416 394.731 767.258 396.658 757.929 398.621C750.836 400.114 742.683 401.903 733.956 407.347C730.996 409.166 728.238 411.294 725.73 413.694C721.829 417.488 718.626 421.933 716.264 426.828C717.377 428.163 718.765 429.246 720.334 430.001C727.619 423.324 736.33 418.381 745.81 415.545C759.454 411.541 770.942 413.228 779.514 414.487C787.682 415.689 795.673 417.88 803.309 421.01Z" fill="#057FD3"/>
    <path d="M803.398 418.552C802.91 414.581 801.141 410.875 798.356 407.994C796.887 406.559 795.181 405.386 793.313 404.527C791.639 403.695 787.792 402.035 777.169 401.971C766.977 401.746 756.834 403.436 747.27 406.951C742.115 408.817 737.153 411.173 732.453 413.988C732.453 413.988 729.63 415.859 723.371 420.863C723.178 421.017 722.684 421.414 722.065 421.974C721.202 422.765 720.388 423.605 719.626 424.492C718.136 426.155 718.109 426.431 718.13 426.637C718.234 427.682 719.95 428.269 720.304 428.385L719.363 429.477C718.188 428.775 717.14 427.879 716.264 426.828C717.59 424.072 719.188 421.454 721.034 419.014C725.033 413.921 729.967 409.633 735.573 406.376C743.705 401.536 750.747 400.089 759.921 398.204C767.079 396.733 772.229 395.674 779.337 396.092C786.018 396.497 792.575 398.069 798.709 400.737C799.81 402.675 800.728 404.711 801.451 406.818C802.741 410.596 803.399 414.561 803.398 418.552Z" fill="#1C1C1C"/>
    <path d="M764.918 473.192C757.563 476.332 749.516 477.517 741.564 476.63C739.325 475.965 737.138 475.14 735.018 474.162C730.772 472.222 726.837 469.667 723.341 466.581C718.9 462.89 715.438 458.168 713.257 452.831C712.117 449.876 711.426 446.768 711.206 443.61C712.199 442.922 713.316 442.431 714.495 442.165C715.921 441.905 717.385 441.935 718.798 442.253C720.212 442.571 721.547 443.171 722.722 444.016C724.376 447.813 726.582 451.348 729.268 454.505C734.923 461.135 741.229 464.28 747.049 467.11C752.73 469.865 758.732 471.908 764.918 473.192Z" fill="#057FD3"/>
    <path d="M752.312 474.69C747.38 474.609 742.5 473.67 737.893 471.914C735.35 470.903 732.92 469.633 730.639 468.124C726.773 465.463 723.329 462.239 720.422 458.56C718.483 456.228 716.723 453.752 715.159 451.156C714.112 449.371 713.39 447.417 713.025 445.382C712.896 444.996 712.854 444.587 712.902 444.183C712.949 443.78 713.086 443.392 713.301 443.046C713.587 442.713 713.941 442.446 714.341 442.264C714.74 442.081 715.174 441.987 715.614 441.989C714.028 442.139 712.51 442.698 711.206 443.61C711.441 447.065 712.245 450.457 713.588 453.651C715.03 456.993 717.014 460.076 719.46 462.777C721.481 465.074 723.741 467.152 726.201 468.976C728.434 470.627 730.807 472.082 733.293 473.323C735.109 474.268 736.985 475.093 738.91 475.792C739.774 476.132 740.661 476.412 741.564 476.63C743.507 476.998 745.493 477.092 747.462 476.909C750.079 476.808 751.388 476.757 752.975 476.552C756.11 476.142 759.188 475.377 762.148 474.27C758.889 474.705 755.597 474.845 752.312 474.69Z" fill="#1C1C1C"/>
    <path d="M827.459 454.329C827.149 453.056 826.667 451.251 825.955 449.128C823.544 441.852 819.828 435.072 814.986 429.119C811.093 424.314 806.358 420.252 801.009 417.132C790.272 411.028 780.082 411.166 769.164 411.314C761.405 411.419 747.303 411.764 732.364 419.511C725.9 422.864 717.177 427.534 716.176 435.378C715.681 439.261 717.255 442.481 718.83 445.602C721.731 451.352 726.271 456.34 734.576 461.821C742.554 467.293 751.403 471.381 760.749 473.913C764.758 474.98 768.843 475.741 772.967 476.189C779.206 476.854 788.385 478.025 798.798 474.602C805.322 472.243 811.508 469.043 817.198 465.083C820.169 463.121 823.034 461.002 825.778 458.736L824.097 456.092L827.459 454.329Z" fill="#008BFF"/>
    <path d="M809.649 433.556C809.274 431.528 808.599 429.568 807.644 427.738C804.147 421.066 797.894 418.241 795.141 417.043C791.197 415.328 788.153 414.995 782.226 414.399C775.356 413.804 768.445 413.863 761.586 414.575C755.727 414.79 749.902 415.557 744.188 416.867C739.456 417.902 734.877 419.541 730.566 421.745C726.362 423.957 722.491 426.746 719.066 430.03L716.294 429.736C715.726 429.114 714.859 428.156 713.817 426.974C711.913 424.816 709.327 421.885 706.268 418.101C704.341 415.717 701.9 413.795 699.781 411.578C699.534 411.279 699.229 411.031 698.885 410.85C698.541 410.668 698.164 410.556 697.776 410.521C697.358 410.525 696.949 410.648 696.597 410.873C696.096 411.312 695.699 411.856 695.434 412.465C695.169 413.075 695.042 413.735 695.064 414.399C694.951 416.736 695.21 419.077 695.83 421.333C696.38 423.688 696.715 426.088 696.833 428.502C696.893 430.944 696.525 430.398 696.066 436.024C695.729 440.156 695.895 440.842 695.653 443.957C695.568 445.051 695.667 446.153 695.594 447.248C695.528 448.236 695.529 448.468 695.712 448.717C696.411 449.664 698.925 449.189 700.713 448.249C701.665 447.652 702.541 446.941 703.32 446.131C705.15 444.62 707.224 443.428 709.453 442.605C711.094 441.895 712.854 441.496 714.643 441.43C716.679 441.404 716.923 441.926 720.422 442.605C722.006 442.913 723.857 443.085 727.558 443.428C729.418 443.646 731.288 443.763 733.16 443.781C735.246 443.757 735.696 443.57 737.937 443.428C740.551 443.296 743.172 443.335 745.781 443.546C749.615 443.761 749.995 443.963 753.329 444.192C756.507 444.459 759.698 444.518 762.883 444.368C766.813 444.223 770.704 443.531 774.442 442.312C776.936 441.632 779.198 440.292 780.988 438.433C781.813 437.504 782.49 436.454 782.993 435.319C781.608 435.977 780.191 436.566 778.747 437.082C775.908 438.129 772.961 438.859 769.96 439.256C767.488 439.553 767.727 439.22 760.465 439.021C756.985 438.925 753.508 438.717 750.027 438.668C747.768 438.73 745.52 438.33 743.422 437.493C742.223 436.989 740.309 436.157 740.178 434.79C740.123 434.215 740.377 433.471 741.829 432.204C743.685 430.61 745.885 429.464 748.258 428.855C757.774 426.605 755.372 426.429 761.468 425.388C769 424.101 772.766 423.458 777.037 424.036C780.542 424.511 783.693 425.554 787.475 425.094C788.805 424.923 790.151 424.903 791.485 425.035C792.917 425.119 794.319 425.478 795.613 426.093C796.647 426.643 797.583 427.357 798.385 428.208C800.348 430.084 800.698 431.192 802.867 433.615C803.678 434.521 804.383 435.207 804.813 435.613L809.649 433.556Z" fill="#1C1C1C"/>
    <path d="M723.739 437.361C723.82 436.933 723.12 436.655 720.378 434.716C718.625 433.477 719.066 433.701 716.662 431.984C713.96 430.054 713.735 430.051 712.638 429.163C711.326 428.065 710.119 426.848 709.033 425.527C702.202 417.813 703.58 419.816 701.469 417.22C699.275 414.52 697.579 412.1 696.449 412.504C696.057 412.72 695.737 413.046 695.528 413.441C695.15 414.119 694.969 414.888 695.004 415.662C694.99 416.683 695.09 417.701 695.302 418.7C695.461 419.614 695.543 419.93 695.797 421.175C696.172 423.011 696.359 423.929 696.538 425.167C696.538 425.167 696.762 426.724 696.833 428.502C696.862 429.004 696.85 429.508 696.796 430.008C696.767 430.257 696.742 430.368 696.634 431.081C696.634 431.081 696.573 431.48 696.479 432.141C696.177 434.248 695.992 436.861 695.992 436.861C695.942 437.579 695.866 438.664 695.833 440.07C695.816 440.771 695.826 440.907 695.801 441.54C695.752 442.778 695.679 443.201 695.637 444.213C695.617 444.679 695.599 445.375 695.623 446.234C696.337 445.74 697.372 445.031 698.631 444.192C701.202 442.48 702.495 441.636 703.29 441.195C705.772 439.894 708.488 439.095 711.281 438.845C713.289 438.582 713.195 438.822 717.473 438.521C723.214 438.119 723.682 437.666 723.739 437.361Z" fill="#D7CC00"/>
    <path d="M808.816 440.446C811.271 440.446 813.261 438.463 813.261 436.017C813.261 433.57 811.271 431.587 808.816 431.587C806.361 431.587 804.371 433.57 804.371 436.017C804.371 438.463 806.361 440.446 808.816 440.446Z" fill="#F9F9F9"/>
    <path d="M808.816 439.381C810.681 439.381 812.192 437.875 812.192 436.017C812.192 434.159 810.681 432.652 808.816 432.652C806.951 432.652 805.44 434.159 805.44 436.017C805.44 437.875 806.951 439.381 808.816 439.381Z" fill="#1C1C1C"/>
    <path d="M809.904 436.759C810.978 436.759 811.85 435.891 811.85 434.82C811.85 433.749 810.978 432.88 809.904 432.88C808.829 432.88 807.957 433.749 807.957 434.82C807.957 435.891 808.829 436.759 809.904 436.759Z" fill="#F9F9F9"/>
    <path d="M794.795 451.427C794.531 451.338 793.904 451.078 792.843 449.616C791.877 448.218 791.072 446.715 790.445 445.137C789.879 443.793 790.061 444.531 787.253 439.473C786.028 437.267 785.163 435.632 783.57 432.921C782.617 431.225 781.357 429.719 779.854 428.48C779.201 427.864 778.356 427.491 777.46 427.423C776.575 427.432 775.724 427.761 775.064 428.348C773.888 429.369 773.679 430.867 773.485 432.976C773.184 435.384 773.054 437.81 773.098 440.236C773.322 443.402 773.798 446.545 774.522 449.636C774.522 449.636 775.841 456.289 777.757 457.062C778.193 457.234 778.606 457.46 778.985 457.734C779.238 457.911 779.473 458.113 779.686 458.337C780.248 458.938 780.183 459.233 780.543 459.538C780.795 459.701 781.078 459.811 781.373 459.862C781.669 459.914 781.972 459.905 782.264 459.836C783.22 459.726 783.445 459.336 784.429 458.959C785.424 458.65 786.465 458.512 787.507 458.55C789.444 458.471 789.316 458.734 790.318 458.588C792.663 458.039 794.735 456.676 796.162 454.743C796.625 454.05 795.257 451.584 794.795 451.427Z" fill="#057FD3"/>
    <path opacity="0.77" d="M791.133 446.689C789.606 444.471 788.038 442.243 786.432 440.006C786.005 439.413 785.578 438.822 785.151 438.234C785.48 439.427 785.621 440.664 785.568 441.9C785.475 443.866 784.904 445.78 783.904 447.477C784.15 446.639 784.316 445.779 784.399 444.91C784.502 442.941 784.286 440.968 783.761 439.068C783.371 437.032 782.781 435.039 782 433.117C781.244 431.319 780.304 429.604 779.193 427.999C779.259 428.042 779.352 428.104 779.461 428.18C779.877 428.476 780.27 428.803 780.637 429.157C781.142 429.629 781.499 430.029 781.639 430.188C782.062 430.67 782.349 431.064 782.523 431.304C782.555 431.347 782.812 431.703 783.076 432.112C784.048 433.622 786.236 437.627 786.421 437.966C786.932 438.901 787.608 440.128 788.311 441.356C788.796 442.202 789.038 442.625 789.263 442.991C789.684 443.678 789.817 443.847 790.079 444.353C790.267 444.716 790.408 445.033 790.69 445.667C790.878 446.089 791.029 446.442 791.133 446.689Z" fill="#1C1C1C"/>
    <path d="M779.803 428.918C779.559 428.534 779.346 428.22 779.193 427.999C778.833 427.746 778.425 427.571 777.993 427.484C777.471 427.38 776.932 427.405 776.421 427.556C775.911 427.706 775.445 427.978 775.064 428.348C774.581 428.904 774.274 429.984 776.029 434.452C777.57 438.375 778.266 438.709 779.644 442.249C780.565 444.357 781.133 446.6 781.326 448.891C781.4 450.44 781.258 451.991 780.904 453.5C782.911 451.053 784.129 448.059 784.399 444.91C784.467 443.446 784.374 441.98 784.124 440.537C783.777 438.294 783.181 436.097 782.347 433.986C781.662 432.22 780.811 430.523 779.803 428.918Z" fill="#D7CC00"/>
    <path d="M794.11 441.283C793.485 445.003 794.042 448.824 795.702 452.213C797.719 456.181 801.114 459.282 805.256 460.94C803.021 460.386 800.932 459.359 799.131 457.93C797.33 456.5 795.858 454.701 794.817 452.654C793.155 449.087 792.903 445.027 794.11 441.283Z" fill="#0472AF"/>
    <path d="M379.309 325.01C379.807 317.949 378.207 310.898 374.709 304.737C371.244 303.194 367.627 302.012 363.917 301.211C352.416 298.731 343.258 300.658 333.929 302.621C326.836 304.114 318.683 305.903 309.956 311.347C306.996 313.166 304.238 315.294 301.73 317.694C297.829 321.488 294.626 325.933 292.264 330.828C293.377 332.163 294.765 333.246 296.334 334.001C303.619 327.324 312.33 322.381 321.81 319.545C335.454 315.541 346.942 317.228 355.514 318.487C363.682 319.689 371.673 321.88 379.309 325.01Z" fill="#057FD3"/>
    <path d="M379.398 322.552C378.91 318.581 377.141 314.875 374.356 311.994C372.887 310.559 371.181 309.386 369.313 308.527C367.639 307.695 363.792 306.035 353.169 305.971C342.977 305.746 332.834 307.436 323.27 310.951C318.115 312.817 313.153 315.173 308.453 317.988C308.453 317.988 305.63 319.859 299.371 324.863C299.178 325.017 298.684 325.414 298.065 325.974C297.202 326.765 296.388 327.605 295.626 328.492C294.136 330.155 294.109 330.431 294.13 330.637C294.234 331.682 295.95 332.269 296.304 332.385L295.363 333.477C294.188 332.775 293.14 331.879 292.264 330.828C293.59 328.072 295.188 325.454 297.034 323.014C301.033 317.921 305.967 313.633 311.573 310.376C319.705 305.536 326.747 304.089 335.921 302.204C343.079 300.733 348.229 299.674 355.337 300.092C362.018 300.497 368.575 302.069 374.709 304.737C375.81 306.675 376.728 308.711 377.451 310.818C378.741 314.596 379.399 318.561 379.398 322.552Z" fill="#1C1C1C"/>
    <path d="M340.918 377.192C333.563 380.332 325.516 381.517 317.564 380.63C315.325 379.965 313.138 379.14 311.018 378.162C306.772 376.222 302.837 373.667 299.341 370.581C294.9 366.89 291.438 362.168 289.257 356.831C288.117 353.876 287.426 350.768 287.206 347.61C288.199 346.922 289.316 346.431 290.495 346.165C291.921 345.905 293.385 345.935 294.798 346.253C296.212 346.571 297.547 347.171 298.722 348.016C300.376 351.813 302.582 355.348 305.268 358.505C310.923 365.135 317.229 368.28 323.049 371.11C328.73 373.865 334.732 375.908 340.918 377.192Z" fill="#057FD3"/>
    <path d="M328.312 378.69C323.38 378.609 318.5 377.67 313.893 375.914C311.35 374.903 308.92 373.633 306.639 372.124C302.773 369.463 299.329 366.239 296.422 362.56C294.483 360.228 292.723 357.752 291.159 355.156C290.112 353.371 289.39 351.417 289.025 349.382C288.896 348.996 288.854 348.587 288.902 348.183C288.949 347.78 289.086 347.392 289.301 347.046C289.587 346.713 289.941 346.446 290.341 346.264C290.74 346.081 291.174 345.987 291.614 345.989C290.028 346.139 288.51 346.698 287.206 347.61C287.441 351.065 288.245 354.457 289.588 357.651C291.03 360.993 293.014 364.076 295.46 366.777C297.481 369.074 299.741 371.152 302.201 372.976C304.434 374.627 306.807 376.082 309.293 377.323C311.109 378.268 312.985 379.093 314.91 379.792C315.774 380.132 316.661 380.412 317.564 380.63C319.507 380.998 321.493 381.092 323.462 380.909C326.079 380.808 327.388 380.757 328.975 380.552C332.11 380.142 335.188 379.377 338.148 378.27C334.889 378.705 331.597 378.845 328.312 378.69Z" fill="#1C1C1C"/>
    <path d="M403.459 358.329C403.149 357.056 402.667 355.251 401.955 353.128C399.544 345.852 395.828 339.072 390.986 333.119C387.093 328.314 382.358 324.252 377.009 321.132C366.272 315.028 356.082 315.166 345.164 315.314C337.405 315.419 323.303 315.764 308.364 323.511C301.9 326.864 293.177 331.534 292.176 339.378C291.681 343.261 293.255 346.481 294.83 349.602C297.731 355.352 302.271 360.34 310.576 365.821C318.554 371.293 327.403 375.381 336.749 377.913C340.758 378.98 344.843 379.741 348.967 380.189C355.206 380.854 364.385 382.025 374.798 378.602C381.322 376.243 387.508 373.043 393.198 369.083C396.169 367.121 399.034 365.002 401.778 362.736L400.097 360.092L403.459 358.329Z" fill="#008BFF"/>
    <path d="M385.649 337.556C385.274 335.528 384.599 333.568 383.644 331.738C380.147 325.066 373.894 322.241 371.141 321.043C367.197 319.328 364.153 318.995 358.226 318.399C351.356 317.804 344.445 317.863 337.586 318.575C331.727 318.79 325.902 319.557 320.188 320.867C315.456 321.902 310.877 323.541 306.566 325.745C302.362 327.957 298.491 330.746 295.066 334.03L292.294 333.736C291.726 333.114 290.859 332.156 289.817 330.974C287.913 328.816 285.327 325.885 282.268 322.101C280.341 319.717 277.9 317.795 275.781 315.578C275.534 315.279 275.229 315.031 274.885 314.85C274.541 314.668 274.164 314.556 273.776 314.521C273.358 314.525 272.949 314.648 272.597 314.873C272.096 315.312 271.699 315.856 271.434 316.465C271.169 317.075 271.042 317.735 271.064 318.399C270.951 320.736 271.21 323.077 271.83 325.333C272.38 327.688 272.715 330.088 272.833 332.502C272.893 334.944 272.525 334.398 272.066 340.024C271.729 344.156 271.895 344.842 271.653 347.957C271.568 349.051 271.667 350.153 271.594 351.248C271.528 352.236 271.529 352.468 271.712 352.717C272.411 353.664 274.925 353.189 276.713 352.249C277.665 351.652 278.541 350.941 279.32 350.131C281.15 348.62 283.224 347.428 285.453 346.605C287.094 345.895 288.854 345.496 290.643 345.43C292.679 345.404 292.923 345.926 296.422 346.605C298.006 346.913 299.857 347.085 303.558 347.428C305.418 347.646 307.288 347.763 309.16 347.781C311.246 347.757 311.696 347.57 313.937 347.428C316.551 347.296 319.172 347.335 321.781 347.546C325.615 347.761 325.995 347.963 329.329 348.192C332.507 348.459 335.698 348.518 338.883 348.368C342.813 348.223 346.704 347.531 350.442 346.312C352.936 345.632 355.198 344.292 356.988 342.433C357.813 341.504 358.49 340.454 358.993 339.319C357.608 339.977 356.191 340.566 354.747 341.082C351.908 342.129 348.961 342.859 345.96 343.256C343.488 343.553 343.727 343.22 336.465 343.021C332.985 342.925 329.508 342.717 326.027 342.668C323.768 342.73 321.52 342.33 319.422 341.493C318.223 340.989 316.309 340.157 316.178 338.79C316.123 338.215 316.377 337.471 317.829 336.204C319.685 334.61 321.885 333.464 324.258 332.855C333.774 330.605 331.372 330.429 337.468 329.388C345 328.101 348.766 327.458 353.037 328.036C356.542 328.511 359.693 329.554 363.475 329.094C364.805 328.923 366.151 328.903 367.485 329.035C368.917 329.119 370.319 329.478 371.613 330.093C372.647 330.643 373.583 331.357 374.385 332.208C376.348 334.084 376.698 335.192 378.867 337.615C379.678 338.521 380.383 339.207 380.813 339.613L385.649 337.556Z" fill="#1C1C1C"/>
    <path d="M299.739 341.361C299.82 340.933 299.12 340.655 296.378 338.716C294.625 337.477 295.066 337.701 292.662 335.984C289.96 334.054 289.735 334.051 288.638 333.163C287.326 332.065 286.119 330.848 285.033 329.527C278.202 321.813 279.58 323.816 277.469 321.22C275.275 318.52 273.579 316.1 272.449 316.504C272.057 316.72 271.737 317.046 271.528 317.441C271.15 318.119 270.969 318.888 271.004 319.662C270.99 320.683 271.09 321.701 271.302 322.7C271.461 323.614 271.543 323.93 271.797 325.175C272.172 327.011 272.359 327.929 272.538 329.167C272.538 329.167 272.762 330.724 272.833 332.502C272.862 333.004 272.85 333.508 272.796 334.008C272.767 334.257 272.742 334.368 272.634 335.081C272.634 335.081 272.573 335.48 272.479 336.141C272.177 338.248 271.992 340.861 271.992 340.861C271.942 341.579 271.866 342.664 271.833 344.07C271.816 344.771 271.826 344.907 271.801 345.54C271.752 346.778 271.679 347.201 271.637 348.213C271.617 348.679 271.599 349.375 271.623 350.234C272.337 349.74 273.372 349.031 274.631 348.192C277.202 346.48 278.495 345.636 279.29 345.195C281.772 343.894 284.488 343.095 287.281 342.845C289.289 342.582 289.195 342.822 293.473 342.521C299.214 342.119 299.682 341.666 299.739 341.361Z" fill="#D7CC00"/>
    <path d="M384.816 344.446C387.271 344.446 389.261 342.463 389.261 340.017C389.261 337.57 387.271 335.587 384.816 335.587C382.361 335.587 380.371 337.57 380.371 340.017C380.371 342.463 382.361 344.446 384.816 344.446Z" fill="#F9F9F9"/>
    <path d="M384.816 343.381C386.681 343.381 388.192 341.875 388.192 340.017C388.192 338.159 386.681 336.652 384.816 336.652C382.951 336.652 381.44 338.159 381.44 340.017C381.44 341.875 382.951 343.381 384.816 343.381Z" fill="#1C1C1C"/>
    <path d="M385.904 340.759C386.978 340.759 387.85 339.891 387.85 338.82C387.85 337.749 386.978 336.88 385.904 336.88C384.829 336.88 383.957 337.749 383.957 338.82C383.957 339.891 384.829 340.759 385.904 340.759Z" fill="#F9F9F9"/>
    <path d="M370.795 355.427C370.531 355.338 369.904 355.078 368.843 353.616C367.877 352.218 367.072 350.715 366.445 349.137C365.879 347.793 366.061 348.531 363.253 343.473C362.028 341.267 361.163 339.632 359.57 336.921C358.617 335.225 357.357 333.719 355.854 332.48C355.201 331.864 354.356 331.491 353.46 331.423C352.575 331.432 351.724 331.761 351.064 332.348C349.888 333.369 349.679 334.867 349.485 336.976C349.184 339.384 349.054 341.81 349.098 344.236C349.322 347.402 349.798 350.545 350.522 353.636C350.522 353.636 351.841 360.289 353.757 361.062C354.193 361.234 354.606 361.46 354.985 361.734C355.238 361.911 355.473 362.113 355.686 362.337C356.248 362.938 356.183 363.233 356.543 363.538C356.795 363.701 357.078 363.811 357.373 363.862C357.669 363.914 357.972 363.905 358.264 363.836C359.22 363.726 359.445 363.336 360.429 362.959C361.424 362.65 362.465 362.512 363.507 362.55C365.444 362.471 365.316 362.734 366.318 362.588C368.663 362.039 370.735 360.676 372.162 358.743C372.625 358.05 371.257 355.584 370.795 355.427Z" fill="#057FD3"/>
    <path opacity="0.77" d="M367.133 350.689C365.606 348.471 364.038 346.243 362.432 344.006C362.005 343.413 361.578 342.822 361.151 342.234C361.48 343.427 361.621 344.664 361.568 345.9C361.475 347.866 360.904 349.78 359.904 351.477C360.15 350.639 360.316 349.779 360.399 348.91C360.502 346.941 360.286 344.968 359.761 343.068C359.371 341.032 358.781 339.039 358 337.117C357.244 335.319 356.304 333.604 355.193 331.999C355.259 332.042 355.352 332.104 355.461 332.18C355.877 332.476 356.27 332.803 356.637 333.157C357.142 333.629 357.499 334.029 357.639 334.188C358.062 334.67 358.349 335.064 358.523 335.304C358.555 335.347 358.812 335.703 359.076 336.112C360.048 337.622 362.236 341.627 362.421 341.966C362.932 342.901 363.608 344.128 364.311 345.356C364.796 346.202 365.038 346.625 365.263 346.991C365.684 347.678 365.817 347.847 366.079 348.353C366.267 348.716 366.408 349.033 366.69 349.667C366.878 350.089 367.029 350.442 367.133 350.689Z" fill="#1C1C1C"/>
    <path d="M355.803 332.918C355.559 332.534 355.346 332.22 355.193 331.999C354.833 331.746 354.425 331.571 353.993 331.484C353.471 331.38 352.932 331.405 352.421 331.556C351.911 331.706 351.445 331.978 351.064 332.348C350.581 332.904 350.274 333.984 352.029 338.452C353.57 342.375 354.266 342.709 355.644 346.249C356.565 348.357 357.133 350.6 357.326 352.891C357.4 354.44 357.258 355.991 356.904 357.5C358.911 355.053 360.129 352.059 360.399 348.91C360.467 347.446 360.374 345.98 360.124 344.537C359.777 342.294 359.181 340.097 358.347 337.986C357.662 336.22 356.811 334.523 355.803 332.918Z" fill="#D7CC00"/>
    <path d="M370.11 345.283C369.485 349.003 370.042 352.824 371.702 356.213C373.719 360.181 377.114 363.282 381.256 364.94C379.021 364.386 376.932 363.359 375.131 361.93C373.33 360.5 371.858 358.701 370.817 356.654C369.155 353.087 368.903 349.027 370.11 345.283Z" fill="#0472AF"/>
    <path d="M504.309 181.01C504.807 173.949 503.207 166.898 499.709 160.737C496.244 159.194 492.627 158.012 488.917 157.211C477.416 154.731 468.258 156.658 458.929 158.621C451.836 160.114 443.683 161.903 434.956 167.347C431.996 169.166 429.238 171.294 426.73 173.694C422.829 177.488 419.626 181.933 417.264 186.828C418.377 188.163 419.765 189.246 421.334 190.001C428.619 183.324 437.33 178.381 446.81 175.545C460.454 171.541 471.942 173.228 480.514 174.487C488.682 175.689 496.673 177.88 504.309 181.01Z" fill="#057FD3"/>
    <path d="M504.398 178.552C503.91 174.581 502.141 170.875 499.356 167.994C497.887 166.559 496.181 165.386 494.313 164.527C492.639 163.695 488.792 162.035 478.169 161.971C467.977 161.746 457.834 163.436 448.27 166.951C443.115 168.817 438.153 171.173 433.453 173.988C433.453 173.988 430.63 175.859 424.371 180.863C424.178 181.017 423.684 181.414 423.065 181.974C422.202 182.765 421.388 183.605 420.626 184.492C419.136 186.155 419.109 186.431 419.13 186.637C419.234 187.682 420.95 188.269 421.304 188.385L420.363 189.477C419.188 188.775 418.14 187.879 417.264 186.828C418.59 184.072 420.188 181.454 422.034 179.014C426.033 173.921 430.967 169.633 436.573 166.376C444.705 161.536 451.747 160.089 460.921 158.204C468.079 156.733 473.229 155.674 480.337 156.092C487.018 156.497 493.575 158.069 499.709 160.737C500.81 162.675 501.728 164.711 502.451 166.818C503.741 170.596 504.399 174.561 504.398 178.552Z" fill="#1C1C1C"/>
    <path d="M465.918 233.192C458.563 236.332 450.516 237.517 442.564 236.63C440.325 235.965 438.138 235.14 436.018 234.162C431.772 232.222 427.837 229.667 424.341 226.581C419.9 222.89 416.438 218.168 414.257 212.83C413.117 209.876 412.426 206.768 412.206 203.61C413.199 202.922 414.316 202.431 415.495 202.165C416.921 201.905 418.385 201.935 419.798 202.253C421.212 202.571 422.547 203.171 423.722 204.016C425.376 207.813 427.582 211.348 430.268 214.505C435.923 221.135 442.229 224.28 448.049 227.11C453.73 229.865 459.732 231.908 465.918 233.192Z" fill="#057FD3"/>
    <path d="M453.312 234.69C448.38 234.609 443.5 233.67 438.893 231.914C436.35 230.903 433.92 229.633 431.639 228.124C427.773 225.463 424.329 222.239 421.422 218.56C419.483 216.228 417.723 213.752 416.159 211.156C415.112 209.371 414.39 207.417 414.025 205.382C413.896 204.996 413.854 204.587 413.902 204.183C413.949 203.78 414.086 203.392 414.301 203.046C414.587 202.713 414.941 202.446 415.341 202.264C415.74 202.081 416.174 201.987 416.614 201.989C415.028 202.139 413.51 202.698 412.206 203.61C412.441 207.065 413.245 210.457 414.588 213.651C416.03 216.993 418.014 220.076 420.46 222.777C422.481 225.074 424.741 227.152 427.201 228.976C429.434 230.627 431.807 232.082 434.293 233.323C436.109 234.268 437.985 235.093 439.91 235.792C440.774 236.132 441.661 236.412 442.564 236.63C444.507 236.998 446.493 237.092 448.462 236.909C451.079 236.808 452.388 236.757 453.975 236.552C457.11 236.142 460.188 235.377 463.148 234.27C459.889 234.705 456.597 234.845 453.312 234.69Z" fill="#1C1C1C"/>
    <path d="M528.459 214.329C528.149 213.056 527.667 211.251 526.955 209.128C524.544 201.852 520.828 195.072 515.986 189.119C512.093 184.314 507.358 180.252 502.009 177.132C491.272 171.028 481.082 171.166 470.164 171.314C462.405 171.419 448.303 171.764 433.364 179.511C426.9 182.864 418.177 187.534 417.176 195.378C416.681 199.261 418.255 202.481 419.83 205.602C422.731 211.352 427.271 216.34 435.576 221.821C443.554 227.293 452.403 231.381 461.749 233.913C465.758 234.98 469.843 235.741 473.967 236.189C480.206 236.854 489.385 238.025 499.798 234.602C506.322 232.243 512.508 229.043 518.198 225.083C521.169 223.121 524.034 221.002 526.778 218.736L525.097 216.092L528.459 214.329Z" fill="#008BFF"/>
    <path d="M510.649 193.556C510.274 191.528 509.599 189.568 508.644 187.738C505.147 181.066 498.894 178.241 496.141 177.043C492.197 175.328 489.153 174.995 483.226 174.399C476.356 173.804 469.445 173.863 462.586 174.575C456.727 174.79 450.902 175.557 445.188 176.867C440.456 177.902 435.877 179.541 431.566 181.745C427.362 183.957 423.491 186.746 420.066 190.03L417.294 189.736C416.726 189.114 415.859 188.156 414.817 186.974C412.913 184.816 410.327 181.885 407.268 178.101C405.341 175.717 402.9 173.795 400.781 171.578C400.534 171.279 400.229 171.031 399.885 170.85C399.541 170.668 399.164 170.556 398.776 170.521C398.358 170.525 397.949 170.648 397.597 170.873C397.096 171.312 396.699 171.856 396.434 172.465C396.169 173.075 396.042 173.735 396.064 174.399C395.951 176.736 396.21 179.077 396.83 181.333C397.38 183.688 397.715 186.088 397.833 188.502C397.893 190.944 397.525 190.398 397.066 196.024C396.729 200.156 396.895 200.842 396.653 203.957C396.568 205.051 396.667 206.153 396.594 207.248C396.528 208.236 396.529 208.468 396.712 208.717C397.411 209.664 399.925 209.189 401.713 208.249C402.665 207.652 403.541 206.941 404.32 206.131C406.15 204.62 408.224 203.428 410.453 202.605C412.094 201.895 413.854 201.496 415.643 201.43C417.679 201.404 417.923 201.926 421.422 202.605C423.006 202.913 424.857 203.085 428.558 203.428C430.418 203.646 432.288 203.763 434.16 203.781C436.246 203.757 436.696 203.57 438.937 203.428C441.551 203.296 444.172 203.335 446.781 203.546C450.615 203.761 450.995 203.963 454.329 204.192C457.507 204.459 460.698 204.518 463.883 204.368C467.813 204.223 471.704 203.531 475.442 202.312C477.936 201.632 480.198 200.292 481.988 198.433C482.813 197.504 483.49 196.454 483.993 195.319C482.608 195.977 481.191 196.566 479.747 197.082C476.908 198.129 473.961 198.859 470.96 199.256C468.488 199.553 468.727 199.22 461.465 199.021C457.985 198.925 454.508 198.717 451.027 198.668C448.768 198.73 446.52 198.33 444.422 197.493C443.223 196.989 441.309 196.157 441.178 194.79C441.123 194.215 441.377 193.471 442.829 192.204C444.685 190.61 446.885 189.464 449.258 188.855C458.774 186.605 456.372 186.429 462.468 185.388C470 184.101 473.766 183.458 478.037 184.036C481.542 184.511 484.693 185.554 488.475 185.094C489.805 184.923 491.151 184.903 492.485 185.035C493.917 185.119 495.319 185.478 496.613 186.093C497.647 186.643 498.583 187.357 499.385 188.208C501.348 190.084 501.698 191.192 503.867 193.615C504.678 194.521 505.383 195.207 505.813 195.613L510.649 193.556Z" fill="#1C1C1C"/>
    <path d="M424.739 197.361C424.82 196.933 424.12 196.655 421.378 194.717C419.625 193.477 420.066 193.701 417.662 191.984C414.96 190.054 414.735 190.051 413.638 189.163C412.326 188.065 411.119 186.848 410.033 185.527C403.202 177.813 404.58 179.816 402.469 177.22C400.275 174.52 398.579 172.101 397.449 172.504C397.057 172.72 396.737 173.046 396.528 173.441C396.15 174.119 395.969 174.888 396.004 175.663C395.99 176.683 396.09 177.701 396.302 178.7C396.461 179.614 396.543 179.93 396.797 181.175C397.172 183.011 397.359 183.929 397.538 185.168C397.538 185.168 397.762 186.724 397.833 188.502C397.862 189.004 397.85 189.508 397.796 190.008C397.767 190.257 397.742 190.368 397.634 191.081C397.634 191.081 397.573 191.48 397.479 192.141C397.177 194.248 396.992 196.861 396.992 196.861C396.942 197.579 396.866 198.664 396.833 200.071C396.816 200.771 396.826 200.907 396.801 201.54C396.752 202.778 396.679 203.201 396.637 204.213C396.617 204.679 396.599 205.375 396.623 206.234C397.337 205.74 398.372 205.031 399.631 204.192C402.202 202.48 403.495 201.636 404.29 201.195C406.772 199.894 409.488 199.095 412.281 198.845C414.289 198.582 414.195 198.822 418.473 198.522C424.214 198.119 424.682 197.666 424.739 197.361Z" fill="#D7CC00"/>
    <path d="M509.816 200.446C512.271 200.446 514.261 198.463 514.261 196.017C514.261 193.57 512.271 191.587 509.816 191.587C507.361 191.587 505.371 193.57 505.371 196.017C505.371 198.463 507.361 200.446 509.816 200.446Z" fill="#F9F9F9"/>
    <path d="M509.816 199.381C511.681 199.381 513.192 197.875 513.192 196.017C513.192 194.159 511.681 192.652 509.816 192.652C507.951 192.652 506.44 194.159 506.44 196.017C506.44 197.875 507.951 199.381 509.816 199.381Z" fill="#1C1C1C"/>
    <path d="M510.904 196.759C511.978 196.759 512.85 195.891 512.85 194.82C512.85 193.749 511.978 192.88 510.904 192.88C509.829 192.88 508.957 193.749 508.957 194.82C508.957 195.891 509.829 196.759 510.904 196.759Z" fill="#F9F9F9"/>
    <path d="M495.795 211.427C495.531 211.338 494.904 211.078 493.843 209.616C492.877 208.218 492.072 206.715 491.445 205.137C490.879 203.793 491.061 204.531 488.253 199.473C487.028 197.267 486.163 195.632 484.57 192.922C483.617 191.225 482.357 189.719 480.854 188.48C480.201 187.864 479.356 187.491 478.46 187.423C477.575 187.432 476.724 187.761 476.064 188.348C474.888 189.369 474.679 190.867 474.485 192.976C474.184 195.384 474.054 197.81 474.098 200.236C474.322 203.402 474.798 206.545 475.522 209.636C475.522 209.636 476.841 216.29 478.757 217.062C479.193 217.234 479.606 217.46 479.985 217.734C480.238 217.911 480.473 218.113 480.686 218.337C481.248 218.939 481.183 219.233 481.543 219.538C481.795 219.701 482.078 219.811 482.373 219.862C482.669 219.914 482.972 219.905 483.264 219.836C484.221 219.726 484.445 219.336 485.429 218.959C486.424 218.65 487.465 218.512 488.507 218.55C490.444 218.471 490.316 218.734 491.318 218.588C493.663 218.039 495.735 216.676 497.162 214.743C497.625 214.05 496.257 211.584 495.795 211.427Z" fill="#057FD3"/>
    <path opacity="0.77" d="M492.133 206.689C490.606 204.471 489.038 202.243 487.432 200.006C487.005 199.413 486.578 198.822 486.151 198.234C486.48 199.427 486.621 200.664 486.568 201.9C486.475 203.866 485.904 205.78 484.904 207.477C485.15 206.639 485.316 205.779 485.399 204.91C485.502 202.941 485.286 200.968 484.761 199.068C484.371 197.032 483.781 195.039 483 193.117C482.244 191.319 481.304 189.604 480.193 187.999C480.259 188.042 480.352 188.104 480.461 188.18C480.877 188.476 481.27 188.803 481.637 189.157C482.143 189.629 482.499 190.029 482.639 190.188C483.062 190.67 483.349 191.064 483.523 191.304C483.555 191.347 483.812 191.703 484.076 192.112C485.048 193.622 487.236 197.627 487.421 197.966C487.932 198.901 488.608 200.128 489.311 201.356C489.796 202.202 490.038 202.625 490.263 202.991C490.684 203.678 490.817 203.847 491.079 204.353C491.267 204.716 491.408 205.033 491.69 205.667C491.878 206.089 492.029 206.442 492.133 206.689Z" fill="#1C1C1C"/>
    <path d="M480.803 188.918C480.559 188.534 480.346 188.22 480.193 187.999C479.833 187.746 479.425 187.571 478.993 187.484C478.471 187.38 477.932 187.405 477.421 187.556C476.911 187.706 476.445 187.978 476.064 188.348C475.581 188.904 475.274 189.984 477.029 194.452C478.57 198.375 479.266 198.709 480.644 202.249C481.565 204.357 482.133 206.6 482.326 208.891C482.4 210.44 482.258 211.991 481.904 213.5C483.911 211.053 485.129 208.059 485.399 204.91C485.467 203.446 485.374 201.98 485.124 200.537C484.777 198.294 484.181 196.097 483.347 193.986C482.662 192.22 481.811 190.523 480.803 188.918Z" fill="#D7CC00"/>
    <path d="M495.11 201.283C494.485 205.003 495.042 208.824 496.702 212.213C498.719 216.181 502.114 219.282 506.256 220.94C504.021 220.386 501.932 219.359 500.131 217.93C498.33 216.5 496.858 214.701 495.817 212.654C494.155 209.087 493.903 205.028 495.11 201.283Z" fill="#0472AF"/>
</svg>
