<svg width="201" height="112" viewBox="0 0 201 112" fill="none" xmlns="http://www.w3.org/2000/svg">
<path d="M75 30.3551C75 22.9607 68.8455 16.9365 61.2022 16.9365C58.5249 16.9354 55.9032 17.6982 53.6464 19.1349C51.2993 12.6541 44.9155 8.00044 37.4442 8.00044C33.9359 7.97532 30.5043 9.02385 27.6122 11.0046C24.72 12.9854 22.5065 15.8031 21.2702 19.0777C19.0319 17.6749 16.4413 16.9323 13.7978 16.9358C6.18313 16.9358 2.35409e-07 22.9321 2.35409e-07 30.3551C-0.000388606 32.4082 0.480936 34.4328 1.40548 36.2671C2.33002 38.1015 3.67212 39.6946 5.32444 40.919C8.58797 44.4018 21.7273 47 37.4431 47C52.529 47 65.2388 44.6019 69.1321 41.3184C70.9378 40.1122 72.4177 38.481 73.4412 36.5689C74.4646 34.6567 75 32.5226 75 30.3551Z" fill="#A3D3E8"/>
<path d="M201 35.246C201 24.2489 191.809 15.2898 180.395 15.2898C176.396 15.2878 172.48 16.4222 169.11 18.5591C165.604 8.92092 156.071 2 144.914 2C133.757 2 124.31 8.87843 120.762 18.4741C117.419 16.3886 113.551 15.2847 109.604 15.2898C98.2334 15.2898 89 24.2064 89 35.246C88.9994 38.2992 89.7181 41.3102 91.0988 44.0381C92.4794 46.766 94.4836 49.1351 96.9511 50.956C101.824 56.1362 121.446 60 144.914 60C167.443 60 186.423 56.4333 192.236 51.5505C194.933 49.7568 197.143 47.3309 198.672 44.4872C200.2 41.6435 201 38.4696 201 35.246Z" fill="#86B9DC"/>
<path d="M129.966 75.1817C129.89 74.3643 129.642 73.5753 129.241 72.8729C128.376 71.2501 127.341 69.078 126.001 66V66.0021C124.66 69.0801 123.626 71.2522 122.761 72.8749C122.359 73.5768 122.11 74.3649 122.034 75.1817C121.895 76.348 122.19 77.5255 122.856 78.4651C123.218 78.9129 123.662 79.2787 124.16 79.5405C124.66 79.8024 125.202 79.9548 125.758 79.9889C125.833 79.9958 125.915 80 126.003 80C126.09 80 126.168 79.9958 126.242 79.9889C126.798 79.957 127.342 79.8055 127.841 79.5435C128.34 79.2815 128.783 78.9146 129.145 78.4651C129.81 77.5255 130.105 76.348 129.966 75.1817Z" fill="#208ABD"/>
<path d="M187.967 68.5268C187.89 67.7679 187.642 67.0354 187.24 66.3831C186.375 64.8764 185.34 62.8598 184 60.0019V60C182.659 62.8578 181.625 64.8745 180.759 66.3812C180.358 67.0334 180.11 67.7657 180.034 68.5245C179.894 69.6079 180.189 70.7022 180.855 71.5753C181.217 71.9911 181.661 72.3307 182.16 72.5738C182.658 72.8169 183.202 72.9585 183.758 72.99C183.833 72.9962 183.914 73 184.002 73C184.088 73 184.168 72.9962 184.242 72.99C184.798 72.9603 185.341 72.8195 185.841 72.5764C186.34 72.3331 186.783 71.9925 187.144 71.5753C187.81 70.7029 188.105 69.6096 187.967 68.5268Z" fill="#208ABD"/>
<path d="M158.967 104.527C158.89 103.767 158.642 103.035 158.241 102.382C157.375 100.875 156.341 98.8584 155 96C153.659 98.8584 152.625 100.875 151.76 102.382C151.358 103.035 151.11 103.767 151.033 104.526C150.895 105.609 151.19 106.702 151.856 107.576C152.218 107.991 152.662 108.331 153.161 108.574C153.659 108.818 154.203 108.959 154.759 108.99C154.834 108.997 154.915 109 155.003 109C155.089 109 155.169 108.997 155.242 108.99C155.798 108.961 156.342 108.82 156.842 108.577C157.34 108.334 157.784 107.993 158.145 107.576C158.81 106.702 159.105 105.609 158.967 104.527Z" fill="#208ABD"/>
<path d="M11.9668 59.5266C11.8899 58.7672 11.6425 58.0346 11.2413 57.382C10.3753 55.8753 9.3414 53.8584 7.99999 51C6.65947 53.8584 5.62471 55.8753 4.7596 57.382C4.35752 58.0346 4.11009 58.7672 4.03323 59.5258C3.89538 60.6093 4.18962 61.7025 4.85593 62.5758C5.2182 62.9911 5.66182 63.3309 6.16109 63.5742C6.65947 63.8175 7.20292 63.9592 7.75874 63.9904C7.83387 63.9965 7.91515 64 8.00263 64C8.08925 64 8.16878 63.9965 8.24213 63.9904C8.79795 63.9609 9.34229 63.8201 9.84156 63.5768C10.3399 63.3335 10.7835 62.9929 11.1449 62.5758C11.8104 61.7025 12.1046 60.6093 11.9668 59.5266Z" fill="#208ABD"/>
<path d="M57.9668 81.1825C57.8899 80.3646 57.6425 79.5757 57.2413 78.873C56.3753 77.2503 55.3414 75.0783 54 72C52.6595 75.0783 51.6247 77.2503 50.7596 78.873C50.3575 79.5757 50.1101 80.3646 50.0332 81.1816C49.8954 82.3485 50.1896 83.5258 50.8559 84.4662C51.2182 84.9135 51.6618 85.2794 52.1611 85.5415C52.6595 85.8035 53.2029 85.956 53.7587 85.9897C53.8339 85.9963 53.9152 86 54.0026 86C54.0893 86 54.1688 85.9963 54.2421 85.9897C54.798 85.9579 55.3423 85.8063 55.8416 85.5443C56.3399 85.2822 56.7835 84.9154 57.1449 84.4662C57.8104 83.5258 58.1046 82.3485 57.9668 81.1825Z" fill="#208ABD"/>
<path d="M147.979 70.902C147.932 70.3765 147.776 69.8693 147.526 69.4178C146.985 68.373 146.338 66.9801 145.5 65C144.662 66.9787 144.015 68.3748 143.475 69.4178C143.224 69.8693 143.069 70.3765 143.021 70.902C142.934 71.6516 143.119 72.4086 143.535 73.0127C143.761 73.3008 144.039 73.536 144.35 73.7044C144.662 73.8729 145.002 73.971 145.349 73.993C145.396 73.9972 145.447 74 145.502 74C145.557 74 145.606 73.9972 145.652 73.993C146 73.9722 146.339 73.8747 146.651 73.7061C146.963 73.5376 147.24 73.3017 147.466 73.0127C147.881 72.4085 148.066 71.6515 147.979 70.902Z" fill="#208ABD"/>
<path d="M110.979 63.9019C110.931 63.3765 110.776 62.8695 110.526 62.418C109.985 61.3732 109.338 59.9802 108.5 58C107.662 59.9784 107.015 61.3746 106.474 62.418C106.224 62.8695 106.069 63.3766 106.021 63.9019C105.934 64.6515 106.118 65.4087 106.535 66.0127C106.761 66.3007 107.039 66.536 107.351 66.7044C107.662 66.8729 108.002 66.971 108.349 66.993C108.396 66.9972 108.447 67 108.501 67C108.556 67 108.605 66.9972 108.652 66.993C108.999 66.9723 109.339 66.8748 109.651 66.7062C109.963 66.5377 110.24 66.3017 110.465 66.0127C110.882 65.4085 111.066 64.6515 110.979 63.9019Z" fill="#208ABD"/>
<path d="M24.9791 75.2462C24.9308 74.7791 24.7761 74.3284 24.5256 73.9271C23.9847 72.9984 23.3376 71.7602 22.4996 70C21.6624 71.7586 21.0153 72.9997 20.4744 73.9271C20.2239 74.3284 20.0692 74.7792 20.0209 75.2462C19.9345 75.9125 20.1185 76.5855 20.5349 77.1224C20.7613 77.3784 21.0386 77.5875 21.3505 77.7373C21.6624 77.887 22.0019 77.9742 22.3492 77.9938C22.3959 77.9975 22.4469 78 22.5013 78C22.5557 78 22.605 77.9975 22.6516 77.9938C22.9989 77.9754 23.3393 77.8887 23.6512 77.7389C23.9631 77.5891 24.2396 77.3793 24.4651 77.1224C24.8815 76.5853 25.0655 75.9125 24.9791 75.2462Z" fill="#208ABD"/>
<path d="M44.9791 67.9019C44.9308 67.3765 44.7761 66.8695 44.5256 66.418C43.9847 65.3732 43.3376 63.9802 42.4996 62C41.6624 63.9784 41.0153 65.3746 40.4744 66.418C40.2239 66.8695 40.0692 67.3766 40.0209 67.9019C39.9345 68.6515 40.1185 69.4087 40.5349 70.0127C40.7613 70.3007 41.0386 70.536 41.3505 70.7044C41.6624 70.8729 42.0019 70.971 42.3492 70.993C42.3959 70.9972 42.4469 71 42.5013 71C42.5557 71 42.605 70.9972 42.6516 70.993C42.9989 70.9723 43.3393 70.8748 43.6512 70.7062C43.9631 70.5377 44.2396 70.3017 44.4651 70.0127C44.8815 69.4085 45.0655 68.6515 44.9791 67.9019Z" fill="#208ABD"/>
<path d="M174.979 86.9023C174.931 86.3767 174.777 85.8695 174.525 85.4179C173.985 84.3749 173.338 82.9802 172.5 81C171.662 82.9785 171.015 84.3749 170.474 85.4179C170.224 85.8696 170.068 86.3768 170.021 86.9023C169.934 87.6519 170.118 88.4088 170.535 89.0127C170.761 89.3007 171.039 89.536 171.351 89.7046C171.662 89.8731 172.001 89.9713 172.349 89.9934C172.396 89.9975 172.447 90.0003 172.502 90C172.556 89.9996 172.605 89.9975 172.652 89.9934C172.999 89.9727 173.34 89.875 173.651 89.7064C173.963 89.5378 174.24 89.3017 174.466 89.0127C174.882 88.4086 175.066 87.6518 174.979 86.9023Z" fill="#208ABD"/>
<path d="M115.979 92.9019C115.932 92.3765 115.776 91.8695 115.526 91.4179C114.985 90.3732 114.339 88.9784 113.5 87C112.662 88.9784 112.015 90.3746 111.474 91.4179C111.224 91.8694 111.068 92.3765 111.021 92.9019C110.934 93.6516 111.118 94.4087 111.535 95.0127C111.761 95.3005 112.039 95.5356 112.35 95.7041C112.661 95.8725 113 95.9707 113.348 95.993C113.394 95.9972 113.445 96 113.5 96C113.554 96 113.603 95.9972 113.65 95.993C113.997 95.9723 114.337 95.8748 114.649 95.7062C114.961 95.5377 115.238 95.3017 115.463 95.0127C115.88 94.4089 116.066 93.6518 115.979 92.9019Z" fill="#208ABD"/>
<path d="M162.983 80.9346C162.945 80.5844 162.82 80.2463 162.62 79.9453C162.187 79.2498 161.669 78.3191 160.999 77C160.328 78.3191 159.811 79.2498 159.378 79.9453C159.178 80.2465 159.055 80.5845 159.017 80.9346C158.947 81.4344 159.095 81.9391 159.428 82.3419C159.61 82.534 159.832 82.6909 160.081 82.8031C160.33 82.9154 160.602 82.9809 160.88 82.9955C160.916 82.9984 160.958 83 161.002 83C161.046 83 161.085 82.9984 161.122 82.9955C161.401 82.9817 161.672 82.9166 161.922 82.8043C162.171 82.6919 162.393 82.5346 162.574 82.3419C162.906 81.9389 163.053 81.4342 162.983 80.9346Z" fill="#208ABD"/>
<path d="M140.983 88.2788C140.945 87.9871 140.822 87.7053 140.622 87.4544C140.189 86.8748 139.671 86.0993 139.001 85C138.33 86.0993 137.812 86.8748 137.38 87.4544C137.179 87.7053 137.055 87.9869 137.017 88.2788C136.947 88.6954 137.095 89.116 137.428 89.4516C137.61 89.6116 137.832 89.7424 138.081 89.8359C138.33 89.9295 138.601 89.984 138.88 89.9962C138.916 89.9986 138.958 90 139.002 90C139.045 90 139.085 90 139.122 89.9962C139.401 89.9847 139.672 89.9305 139.922 89.8369C140.171 89.7432 140.393 89.6122 140.574 89.4516C140.906 89.1158 141.053 88.6952 140.983 88.2788Z" fill="#208ABD"/>
<path d="M58.9832 51.9346C58.9451 51.5845 58.822 51.2464 58.6217 50.9452C58.1889 50.2498 57.6711 49.3191 57.0009 48C56.3298 49.3191 55.812 50.2498 55.3802 50.9452C55.179 51.2463 55.0549 51.5843 55.0168 51.9346C54.9474 52.4345 55.0949 52.9392 55.428 53.3419C55.6098 53.5339 55.8315 53.6908 56.0806 53.803C56.3298 53.9154 56.6014 53.9808 56.8798 53.9954C56.9159 53.9983 56.958 54 57.0019 54C57.0449 54 57.085 54 57.1221 53.9954C57.4005 53.9817 57.6721 53.9166 57.9222 53.8043C58.1713 53.6919 58.3931 53.5346 58.5738 53.3419C58.906 52.9389 59.0525 52.4342 58.9832 51.9346Z" fill="#208ABD"/>
<path d="M29.9832 54.9346C29.9451 54.5845 29.8219 54.2464 29.6217 53.9452C29.1889 53.2498 28.6711 52.3191 28.0009 51C27.3298 52.3191 26.812 53.2498 26.3802 53.9452C26.179 54.2463 26.0549 54.5843 26.0168 54.9346C25.9474 55.4345 26.0949 55.9392 26.428 56.3419C26.6098 56.5339 26.8315 56.6908 27.0806 56.803C27.3298 56.9154 27.6014 56.9808 27.8798 56.9954C27.9159 56.9983 27.958 57 28.0019 57C28.0449 57 28.085 57 28.1221 56.9954C28.4005 56.9817 28.6721 56.9166 28.9222 56.8043C29.1713 56.6919 29.3931 56.5346 29.5738 56.3419C29.906 55.9389 30.0525 55.4342 29.9832 54.9346Z" fill="#208ABD"/>
</svg>
