<svg viewBox="0 0 1041 673" fill="none" xmlns="http://www.w3.org/2000/svg">
    <path d="M930.275 31.5285H109.538C60.3791 31.5285 20.5282 71.3795 20.5282 120.538V559.113C20.5282 608.271 60.3791 648.122 109.538 648.122H930.275C979.434 648.122 1019.29 608.271 1019.29 559.113V120.538C1019.29 71.3795 979.434 31.5285 930.275 31.5285Z" fill="#B6CEE1" stroke="#116619" stroke-width="6"/>
    <path d="M10.3469 40.3962C14.0803 43.5191 30.3873 57.8544 33.3678 82.5644C35.0452 97.2366 31.7442 112.047 23.9945 124.618C23.9917 129.075 23.989 133.532 23.9862 137.989C25.0232 137.01 49.8969 112.69 42.0007 79.7975C35.744 53.7353 13.6633 42.0771 10.3469 40.3962Z" fill="#48964E"/>
    <path d="M17.0569 128.701C8.9823 135.637 6.59974 141.986 5.91973 146.508C3.13445 165.034 25.505 175.593 28.6391 200.181C30.0691 211.399 26.9366 221.162 23.9805 227.768L23.9875 239.712C41.4527 218.375 42.4272 204.688 40.0084 196.092C35.2337 179.124 13.756 169.631 15.3641 150.788C15.5785 148.344 16.1464 145.945 17.05 143.665C17.0523 138.677 17.0547 133.689 17.0569 128.701Z" fill="#48964E"/>
    <path d="M17.0604 232.674C5.48571 244.641 4.28572 252.946 5.18191 258.219C6.62856 266.731 13.6659 268.101 22.5952 285.077C28.1058 295.553 28.5785 301.026 28.6456 303.67C28.7256 309.923 27.1173 316.082 23.9902 321.497L23.991 330.539C41.6305 318.739 42.9887 308.886 42.9599 304.851C42.9091 297.746 38.4361 291.725 29.6048 279.838C21.4098 268.807 15.4084 264.258 14.9216 255.415C14.7655 251.724 15.4991 248.049 17.0604 244.7V232.674Z" fill="#48964E"/>
    <path d="M17.0604 325.22V335.103C13.8048 340.271 12.0902 346.261 12.1177 352.369C12.5845 369.455 28.9968 376.064 34.1056 392.065C36.8704 400.725 36.9913 414.222 23.998 434.822C23.9945 430.933 23.991 427.045 23.9876 423.156C26.0384 415.924 26.4201 408.32 25.1039 400.919C20.7622 377.867 0.685835 370.851 0.0169104 353.992C-0.233507 347.682 2.15076 337.868 17.0604 325.22Z" fill="#48964E"/>
    <path d="M17.05 427.831C4.9767 444.271 4.77019 454.633 6.80512 461.054C10.6863 473.3 24.3095 476.221 27.465 490.052C29.351 498.318 26.4773 506.012 23.9944 510.935C23.9956 514.078 23.9968 517.22 23.9979 520.363C37.3567 504.069 38.2159 493.78 36.1716 487.248C32.6197 475.899 19.2638 472.709 15.9545 458.324C14.7897 452.761 15.1722 446.984 17.0604 441.623L17.05 427.831Z" fill="#48964E"/>
    <path d="M17.0612 515.065C8.99151 525.759 9.0124 531.824 10.4206 535.356C13.1376 542.17 22.1154 542.287 25.5465 550.039C28.053 555.702 26.0884 562.023 24.2826 566.146C24.3981 567.501 24.5498 568.909 24.7375 570.368C24.9274 571.825 25.1416 573.223 25.3799 574.563C36.23 556.687 35.4077 548.633 32.7037 544.579C28.6327 538.476 17.7069 537.555 16.3971 530.191C16.1254 528.432 16.3546 526.631 17.0587 524.996L17.0612 515.065Z" fill="#48964E"/>
    <path d="M18.0222 572.507C13.0892 583.935 14.5023 589.32 16.4895 592.115C20.584 597.873 29.2555 595.641 37.1308 602.851C40.4592 606 42.9026 609.968 44.2168 614.358C44.942 615.213 45.7119 616.085 46.5267 616.972C47.3524 617.869 48.1675 618.718 48.972 619.52C49.211 604.959 45.11 599.01 41.3366 596.265C34.4535 591.258 24.7423 594.061 20.6399 587.632C19.2122 585.118 18.7262 582.177 19.2688 579.337C19.0586 578.382 18.8583 577.399 18.6681 576.389C18.4184 575.057 18.2031 573.763 18.0222 572.507Z" fill="#48964E"/>
    <path d="M42.0031 622.283C46.7911 638.508 53.2136 643.192 57.9382 644.631C66.9854 647.388 73.8136 639.441 88.7123 639.365C96.1929 639.413 103.556 641.227 110.203 644.66L119.037 644.657C102.87 630.479 91.01 628.438 82.73 629.801C72.3763 631.505 63.8322 639.154 54.9499 635.224C51.4655 633.513 48.6522 630.688 46.9564 627.196C46.2082 626.514 45.4495 625.795 44.6803 625.04C43.7328 624.108 42.8404 623.189 42.0031 622.283Z" fill="#48964E"/>
    <path d="M115.106 651.591C127.369 659.207 134.715 658.829 139.176 657.027C145.937 654.296 147.67 647.647 156.146 644.779C160.852 643.316 165.884 643.273 170.614 644.655H177.173C165.138 636.785 157.597 636.827 152.826 638.581C144.69 641.572 140.989 650.87 130.321 652.01C128.053 652.244 125.761 652.1 123.54 651.584L115.106 651.591Z" fill="#48964E"/>
    <path d="M176.174 651.59C191.651 661.554 201.029 661.231 206.763 659.02C215.799 655.534 218.489 646.308 229.636 643.525C235.059 642.31 240.718 642.705 245.919 644.66L253.388 644.657C239.944 633.895 230.994 633.305 225.357 634.671C213.782 637.475 209.318 650.187 194.515 652.342C190.476 652.902 186.366 652.647 182.428 651.591L176.174 651.59Z" fill="#48964E"/>
    <path d="M249.258 651.582C265.838 664.48 276.984 665.311 284.237 663.447C296.849 660.205 300.696 648.04 316.407 643.82C324.23 641.89 332.436 642.182 340.102 644.66L351.961 644.655C333.752 633.539 321.409 633.567 313.345 635.888C299.746 639.802 293.8 651.537 277.043 653.596C270.737 654.311 264.351 653.625 258.341 651.587L249.258 651.582Z" fill="#48964E"/>
    <path d="M345.465 651.591C365.599 662.904 377.705 661.874 385.027 658.872C394.833 654.852 399.56 645.86 412.771 643.525C418.459 642.583 424.289 642.969 429.804 644.655L443.017 644.658C425.156 629.441 413.953 628.334 406.868 630.539C395.057 634.214 392.044 647.915 376.764 652.231C370.046 653.964 362.974 653.737 356.381 651.577L345.465 651.591Z" fill="#48964E"/>
    <path d="M436.307 651.584C442.658 655.453 452.538 660.082 464.273 659.315C481.079 658.216 487.83 646.955 505.592 642.197C514.149 639.904 527.156 638.613 545.113 644.65L557.538 644.652C526.411 625.02 509.136 625.608 498.952 630.686C488.018 636.138 480.788 648.994 462.926 651.881C457.708 652.701 452.387 652.6 447.203 651.584H436.307Z" fill="#48964E"/>
    <path d="M562.702 651.585C568.452 653.494 574.507 654.314 580.558 654.002C600.049 652.891 608.674 639.807 623.353 634.671C633.854 630.996 650.008 630.496 674.713 644.655L660.42 644.66C650.354 641.913 639.791 641.525 629.551 643.525C608.509 647.856 601.319 660.833 583.509 662.119C576.428 662.63 565.421 661.455 551.171 651.587L562.702 651.585Z" fill="#48964E"/>
    <path d="M678.232 651.584C690.721 656.031 703.969 657.957 717.208 657.249C748.6 655.366 762.648 638.53 787.599 631.572C805.047 626.706 831.514 625.641 869.511 644.671L852.521 644.66C835.629 641.292 818.247 641.207 801.323 644.41C765.319 651.434 753.078 670.21 724.734 672.301C710.686 673.337 690.342 670.448 664.51 651.591L678.232 651.584Z" fill="#48964E"/>
    <path d="M863.063 651.567C886.607 667.621 902.874 668.248 913.514 665.66C932.602 661.019 935.367 645.599 956.862 642.787C972.959 640.681 980.122 648.188 995.268 643.23C1005.77 639.793 1012.88 632.731 1017.11 627.587C1009.96 632.466 1001.87 635.785 993.35 637.327C976.852 640.181 972.486 633.405 958.485 634.671C935.888 636.714 931.904 655.755 909.678 658.725C898.771 660.182 888.074 657.154 877.949 651.549L863.063 651.567Z" fill="#48964E"/>
    <path d="M999.208 69.8698C997.078 77.8959 996.929 86.3192 998.772 94.4161C1003.46 113.868 1018.27 119.09 1024.6 136.621C1027.5 144.66 1029.28 157.114 1022.75 175.443L1022.76 186.227C1042.99 157.86 1042.88 141.801 1038.91 132.342C1033.64 119.792 1018.97 112.695 1008.05 87.2683C1006.39 83.4222 1005.27 80.1954 1004.61 78.1808C1004.06 77.2256 1003.48 76.2551 1002.86 75.2693C1001.65 73.3353 1000.43 71.5367 999.208 69.8698Z" fill="#48964E"/>
    <path d="M1015.82 180.961C1011.89 187.507 1007.1 197.909 1008.95 209.578C1011.34 224.602 1022.78 229.453 1027.25 244.773C1029.47 252.361 1030.52 264.371 1022.75 281.839V294.295C1042.18 265.974 1041.87 250.456 1037.66 241.453C1032.33 230.076 1018.31 223.862 1015.52 206.479C1014.82 201.997 1014.92 197.427 1015.82 192.98V180.961Z" fill="#48964E"/>
    <path d="M1015.82 288.046C1006.9 300.577 1006.59 308.452 1008.44 313.504C1011.7 322.443 1022.43 324.583 1024.6 334.976C1025.36 339.343 1024.71 343.839 1022.75 347.816L1022.76 356.235C1032.27 345.732 1033.16 338.662 1032.12 334.09C1029.58 322.9 1013.72 319.142 1013.31 307.528C1013.28 304.468 1014.15 301.468 1015.81 298.9L1015.82 288.046Z" fill="#48964E"/>
    <path d="M1015.82 351.992C1005.73 364.487 1004.91 372.978 1006.3 378.586C1009.03 389.572 1021.11 392.861 1024.01 406.33C1025.05 411.659 1024.61 417.171 1022.75 422.272V434.384C1035.55 419.748 1036.56 410.288 1034.93 404.264C1031.75 392.556 1017.13 388.512 1014.86 373.569C1014.29 369.557 1014.62 365.469 1015.82 361.6L1015.82 351.992Z" fill="#48964E"/>
    <path d="M1015.82 426.515C1004.79 443.25 1004.97 453.074 1007.55 459.062C1011.73 468.749 1023.75 471.98 1025.04 483.19C1025.39 487.06 1024.59 490.946 1022.75 494.368L1022.75 503.382C1032.03 494.909 1033.54 488.412 1033.23 484.075C1032.34 471.543 1015.58 466.621 1013.75 451.093C1013.29 446.597 1014.01 442.06 1015.82 437.921L1015.82 426.515Z" fill="#48964E"/>
    <path d="M1015.82 499.014C1007.02 507.596 1005.4 514.24 1005.86 518.975C1006.87 529.57 1018.51 532.74 1023.27 545.39C1026.88 554.982 1024.61 564.882 1021.83 572.165C1021.6 573.851 1021.3 575.628 1020.93 577.483C1020.57 579.278 1020.17 580.978 1019.75 582.576C1036.03 561.403 1036.46 549.678 1033.45 542.808C1028.98 532.623 1014.59 527.777 1014.27 515.286C1014.22 512.647 1014.75 510.03 1015.82 507.617L1015.82 499.014Z" fill="#48964E"/>
    <path d="M1014.2 575.757C1009.84 580.03 1006.56 585.276 1004.62 591.064C1001.29 601.346 1004.9 606.523 1000.52 615.745C999.569 617.76 996.178 624.913 989.124 628.141C977.107 633.64 963.034 623.823 962.617 624.765C962.192 625.726 975.865 638.171 990.342 634.283C997.405 632.386 1005.59 626.476 1007.66 618.456C1009.61 610.929 1007.55 596.224 1009.29 592.035C1009.35 591.892 1009.8 590.836 1010.36 589.358C1010.98 587.685 1011.45 586.25 1011.78 585.179C1012.3 583.51 1012.81 581.738 1013.27 579.868C1013.63 578.455 1013.94 577.085 1014.2 575.757Z" fill="#48964E"/>
    <path d="M1001.47 61.5114C1001.37 56.6351 1000.25 51.8343 998.181 47.4151C991.658 33.5863 977.938 28.8425 974.865 27.862C988.36 26.1976 1001.09 32.6254 1006.59 43.5783C1012.43 55.2029 1007.59 66.8654 1006.81 68.643C1005.94 67.3385 1004.98 65.9914 1003.94 64.6156C1003.11 63.5224 1002.29 62.4876 1001.47 61.5114Z" fill="#48964E"/>
    <path d="M43.1074 75.3058C44.178 75.238 38.4338 54.3328 49.1947 41.4384C57.8654 31.0486 73.9217 29.8507 87.2125 30.7765C89.4119 30.2335 91.3744 29.8335 93.0296 29.5356C94.0802 29.3464 95.6591 29.081 97.592 28.8307C98.9585 28.6539 100.173 28.5271 101.193 28.4349C76.8268 18.8415 53.2042 23.3874 43.6608 37.2327C33.201 52.4074 41.9815 75.377 43.1074 75.3058Z" fill="#48964E"/>
    <path d="M93.9102 36.4152C102.92 41.8453 116.869 48.1998 132.092 45.3122C149.99 41.9171 155.559 28.4282 174.15 22.9922C183.451 20.2727 198.036 18.9772 219.103 28.0634H236.353C199.711 5.44149 178.684 6.07507 165.96 12.2196C151.449 19.2267 139.936 37.1661 118.258 37.0115C114.152 36.9709 110.076 36.3133 106.166 35.0608C103.849 35.1485 101.363 35.337 98.7344 35.6677C97.0497 35.8796 95.4402 36.1331 93.9102 36.4152Z" fill="#48964E"/>
    <path d="M228.079 34.994C228.944 35.3655 230.199 35.8987 231.72 36.5247C233.329 37.2753 234.978 37.935 236.661 38.5009C240.168 39.6001 245.142 41.035 251.186 42.359C257.024 43.638 276.468 46.4508 289.033 46.3082C320.503 45.951 334.661 25.56 366.507 19.7456C380.473 17.1958 400.921 16.8869 427.844 28.053C437.861 28.0582 447.878 28.0634 457.896 28.0685C399.445 -5.47043 365.669 -2.9533 345.479 6.02161C327.021 14.2264 308.788 32.7752 274.516 36.1947C264.406 37.1846 254.208 36.7811 244.207 34.9957L228.079 34.994Z" fill="#48964E"/>
    <path d="M437.286 34.9914C465.596 51.2299 483.707 50.326 495.115 46.3082C510.947 40.7325 518.143 27.6528 538.058 24.6155C547.925 23.263 557.975 24.4497 567.256 28.0634H586.506C555.693 5.68429 537.191 4.95595 525.662 9.56331C510.09 15.7864 504.033 33.0253 483.162 37.0114C474.91 38.4536 466.427 37.7578 458.521 34.9905C451.443 34.9908 444.364 34.9911 437.286 34.9914Z" fill="#48964E"/>
    <path d="M571.485 34.9957C596.982 49.3601 614.019 48.7852 625.05 45.3121C642.733 39.7448 651.283 24.7466 672.199 23.5087C680.314 23.1283 688.403 24.6898 695.793 28.0634H718.178C696.641 9.28632 680.986 6.98964 670.428 8.67782C649.18 12.0756 638.772 33.1835 609.666 35.9045C603.46 36.4718 597.205 36.1641 591.084 34.9904C584.551 34.9922 578.018 34.994 571.485 34.9957Z" fill="#48964E"/>
    <path d="M703.477 34.994C726.783 49.3467 740.366 48.8083 748.64 44.9801C759.428 39.9895 761.813 29.122 774.613 24.9106C784.974 21.5015 795.456 24.6605 802.943 28.0599C808.95 28.0605 814.957 28.0611 820.964 28.0617C789.526 7.85254 773.908 8.26014 765.463 13.4001C755.427 19.5093 753.178 33.732 739.786 37.3065C732.496 39.2524 725.543 37.0715 720.901 34.9957L703.477 34.994Z" fill="#48964E"/>
    <path d="M809.739 34.9931C815.789 39.6486 825.205 45.3045 836.74 45.2753C856.236 45.2261 864.499 28.9799 885.881 23.2874C895.544 20.7147 910.126 19.7014 930.432 28.0634C933.816 28.0668 937.197 28.2546 940.56 28.6259C943.741 28.9771 946.679 29.4677 949.349 30.0244C907.174 3.31472 886.881 4.66513 876.141 11.039C865.409 17.408 857.069 33.0336 838.068 35.5357C833.569 36.1109 829.005 35.9275 824.567 34.9931H809.739Z" fill="#48964E"/>
    <path d="M934.578 35.0669C941.184 39.498 948.551 42.6711 956.309 44.4268C966.959 46.7913 978.032 46.4488 988.516 43.4307C979.796 43.5594 971.096 42.5926 962.617 40.553C959.399 39.7762 956.384 38.8836 953.578 37.9281C947.375 36.2526 941 35.2927 934.578 35.0669V35.0669Z" fill="#48964E"/>
    <path d="M101.41 35.4048C107.838 38.3593 117.565 41.6527 128.908 40.4694C152.537 38.0046 160.464 18.485 181.344 14.101C191.498 11.9689 206.67 13.0066 227.939 28.0634C226.906 28.0455 225.873 28.0275 224.84 28.0096C205.872 15.3877 191.931 14.5196 182.672 16.0932C160.602 19.8442 152.631 39.5941 129.016 42.2109C116.358 43.6134 105.462 39.3998 98.4162 35.7754L101.41 35.4048Z" fill="#76B779"/>
    <path d="M95.3166 29.1536C85.4727 25.4876 74.7352 24.9592 64.5788 27.6407C59.6373 29.0252 51.9161 31.1809 46.4277 38.2288C39.199 47.5115 40.6058 58.6408 41.0045 61.2498C40.6717 58.7011 39.5176 47.6986 46.8534 38.7216C52.3326 32.0165 60.2123 29.9397 64.8739 28.7106C73.9135 26.4302 83.4148 26.7632 92.2725 29.6711C93.2873 29.4985 94.302 29.3261 95.3166 29.1536Z" fill="#76B779"/>
    <path d="M237.66 34.9823C252 39.4528 273.205 43.7283 297.002 38.7822C330.164 31.8895 340.922 12.7916 368.942 7.64491C385.526 4.59893 410.17 6.06971 443.834 28.0613L439.167 28.0649C408.29 9.14934 385.263 7.93983 369.975 10.3012C340.724 14.8193 329.915 33.9371 297.666 40.8482C271.862 46.3781 248.691 40.5865 233.399 34.9946C234.82 34.9906 236.24 34.9864 237.66 34.9823Z" fill="#76B779"/>
    <path d="M444.941 34.9912C452.929 40.0391 465.38 46.0804 479.841 44.6481C504.225 42.2332 513.083 20.6748 537.726 17.8641C546.079 16.9114 558.71 17.8318 575.226 28.0738L578.428 28.0634C560.424 15.2718 546.765 13.831 537.394 15.0972C514.3 18.2174 505.779 39.3249 480.948 41.9918C467.882 43.3952 456.562 39.0194 448.925 35.0007C447.597 34.9976 446.269 34.9944 444.941 34.9912Z" fill="#76B779"/>
    <path d="M578.18 34.9873C595.154 43.6952 608.029 44.0214 616.417 42.8772C642.702 39.292 652.867 17.4572 676.737 17.5321C689.165 17.5711 699.182 23.5302 705.282 28.0599C706.237 28.0611 707.192 28.0623 708.147 28.0634C694.849 16.8455 684.006 14.7085 676.847 14.6545C653.408 14.4776 643.263 36.4358 616.085 40.3317C601.595 42.4089 589.063 38.3766 581.209 34.9905L578.18 34.9873Z" fill="#76B779"/>
    <path d="M710.788 34.9947C718.061 40.2465 728.459 45.7932 739.491 43.7627C755.801 40.7608 759.939 23.6929 776.605 19.5981C783.78 17.8351 794.554 18.163 809.898 28.0606L812.55 28.0609C794.731 15.2624 782.829 14.6367 774.982 16.9418C759.326 21.5405 755.487 39.0733 739.159 41.8811C729.507 43.5409 720.566 39.1829 714.296 34.9957C713.126 34.9953 711.957 34.995 710.788 34.9947Z" fill="#76B779"/>
    <path d="M814.955 34.9931C819.827 38.1992 827.321 42.0445 836.555 42.2132C858.284 42.6099 867.535 22.245 889.127 16.9787C899.451 14.4606 914.822 14.852 936.534 28.2863C937.876 28.3995 939.218 28.5127 940.56 28.6259C915.515 11.7737 898.952 11.6916 888.574 14.5438C868.697 20.0065 859.238 39.606 836.887 39.6676C830.25 39.6106 823.717 38.0112 817.804 34.9957C816.854 34.9949 815.905 34.994 814.955 34.9931Z" fill="#76B779"/>
    <path d="M942.44 35.713C946.569 38.605 951.123 40.8354 955.94 42.3239C963.469 44.634 970.024 44.5734 970.051 44.3714C965.338 43.7267 960.69 42.6713 956.161 41.2171C952.257 39.881 948.499 38.1504 944.946 36.0521C944.11 35.9391 943.275 35.826 942.44 35.713Z" fill="#76B779"/>
    <path d="M988.516 31.625C991.866 32.7214 994.959 34.4872 997.607 36.8153C1000.25 39.1435 1002.4 41.9854 1003.92 45.1685C1005.43 48.3515 1006.28 51.8094 1006.42 55.3321C1006.56 58.8548 1005.98 62.3689 1004.72 65.6609L1003.26 63.7362C1005.12 57.5055 1004.64 50.8135 1001.93 44.9062C999.217 38.999 994.45 34.279 988.516 31.625V31.625Z" fill="#76B779"/>
    <path d="M1000.89 72.2494C1000.26 82.8465 1002.22 93.4377 1006.61 103.106C1014.89 120.768 1027.3 124.15 1031.79 138.06C1034.42 146.21 1034.63 158.89 1022.75 178.194L1022.75 180.961C1037.32 159.553 1037.47 145.875 1034.56 137.175C1030.09 123.821 1017.69 120.015 1008.88 100.872C1005.12 92.5862 1002.93 83.6725 1002.43 74.5864C1001.92 73.8075 1001.4 73.0284 1000.89 72.2494Z" fill="#76B779"/>
    <path d="M1015.82 184.986C1013.41 189.821 1010.25 197.931 1011.24 207.509C1013.17 226.011 1028.77 232.242 1032.34 249.345C1033.89 256.745 1033.67 268.5 1022.75 285.279V288.046C1036.28 269.414 1036.85 256.783 1034.85 248.681C1030.95 232.842 1015.36 226.727 1013.09 207.878C1012.36 201.084 1013.32 194.216 1015.89 187.882L1015.82 184.986Z" fill="#76B779"/>
    <path d="M1015.82 292.088C1009.52 300.359 1009.12 306.243 1009.77 309.963C1011.78 321.513 1026.15 324.672 1027.58 336.083C1028.33 342.038 1025.19 347.306 1022.75 350.54L1022.75 351.993C1029 345.097 1029.85 339.901 1029.47 336.415C1028.21 325.102 1012.73 321.778 1010.98 309.852C1010.1 303.818 1013.13 298.335 1015.81 294.662L1015.82 292.088Z" fill="#76B779"/>
    <path d="M1015.82 354.877C1009.05 365.795 1009 373.435 1010.13 378.341C1013.12 391.204 1026.44 394.586 1028.43 407.117C1029.67 414.86 1025.9 421.893 1022.75 426.431V429.612C1031.05 419.546 1031.86 412.226 1031.16 407.486C1029.35 395.193 1016.11 391.535 1012.94 377.603C1011.09 369.49 1013.6 362.01 1015.82 357.202L1015.82 354.877Z" fill="#76B779"/>
    <path d="M1015.82 431.54C1008.4 442.61 1008.31 450.201 1009.4 454.93C1012.39 467.941 1027.27 472.146 1027.7 484.296C1027.89 489.927 1024.89 494.552 1022.75 497.237L1022.75 499.561C1026.34 495.827 1030.01 490.629 1029.76 484.592C1029.27 472.672 1013.94 468.563 1011.09 454.856C1010.08 449.965 1010.53 443.248 1015.82 434.381V431.54Z" fill="#76B779"/>
    <path d="M1015.82 501.71C1012.2 505.779 1008.04 511.875 1008.73 518.754C1009.91 530.546 1024.14 533.781 1028.14 546.46C1029.93 552.144 1030.12 561.166 1021.39 575.016L1020.97 577.285C1032.6 561.775 1032.9 552.126 1030.91 546.128C1027.02 534.456 1012.63 531.24 1011.32 519.049C1010.67 513.035 1013.52 507.801 1015.82 504.514V501.71Z" fill="#76B779"/>
    <path d="M1013.28 579.796C1009.56 584.263 1006.96 589.556 1005.71 595.232C1003.78 604.436 1007.17 608.128 1004.05 616.335C1002.26 621.337 998.873 625.614 994.418 628.509C990.52 630.91 986.009 632.127 981.432 632.014C986.042 632.394 990.662 631.406 994.714 629.174C999.559 626.322 1003.26 621.875 1005.19 616.593C1008.15 608.792 1005.06 604.977 1007.15 595.343C1008.18 590.641 1010.06 586.164 1012.68 582.125L1013.28 579.796Z" fill="#76B779"/>
    <path d="M997.001 639.983C997.064 640.333 990.231 642.707 981.801 642.934C972.39 643.188 966.73 640.613 962.47 639.688C942.876 635.435 931.042 661.361 907.498 664.948C898.802 666.273 885.711 664.976 867.933 651.561L872.47 651.556C887.78 663.167 899.182 664.259 906.393 663.447C930.198 660.764 941.56 633.571 961.584 637.474C966.077 638.35 970.601 640.712 979.883 641.164C989.645 641.638 996.936 639.623 997.001 639.983Z" fill="#76B779"/>
    <path d="M859.281 644.664C846.215 639.293 824.975 632.842 800.917 637.437C768.848 643.563 757.616 664.379 727.649 667.652C715.114 669.021 695.5 667.736 669.584 651.59L674.313 651.588C685.418 658.133 703.568 666.516 724.992 664.553C755.92 661.72 767.454 639.729 798.925 633.453C812.761 630.694 834.433 630.178 864.262 644.667L859.281 644.664Z" fill="#76B779"/>
    <path d="M664.037 644.687C651.154 638.458 640.62 637.651 632.355 638.876C610.917 642.054 603.216 659.13 583.214 660.348C572.328 661.011 562.681 656.679 555.065 651.586L558.275 651.567C563.675 654.63 572.348 658.476 582.771 657.913C602.953 656.821 610.581 640.23 630.473 636.441C638.605 634.893 651.06 635.05 668.132 644.663L664.037 644.687Z" fill="#76B779"/>
    <path d="M549.273 644.651C527.307 632.848 512.883 633.741 503.748 636.773C488.389 641.872 482.538 654.827 465.564 656.917C455.012 658.215 445.881 654.611 440.071 651.584H443.613C450.165 654.716 457.453 655.987 464.678 655.256C482.171 653.136 488.125 638.533 502.641 633.066C511.819 629.609 527.077 628.802 552.323 644.651L549.273 644.651Z" fill="#76B779"/>
    <path d="M436.493 644.699C425.159 635.342 416.761 634.257 411.147 635.039C396.579 637.07 392.128 652.885 376.026 656.068C366.737 657.905 358.204 654.622 352.47 651.582L349.186 651.586C361.832 658.828 370.85 658.786 376.542 657.618C392.27 654.389 397.166 639.573 412.18 637.991C421.167 637.044 428.928 641.349 433.652 644.656L436.493 644.699Z" fill="#76B779"/>
    <path d="M343.431 644.659C338.235 642.101 329.583 638.814 319.691 640.37C302.42 643.088 297.038 658.105 281.064 660.569C274.988 661.506 265.331 660.943 252.012 651.579L255.498 651.583C261.237 655.047 270.054 659.071 280.068 657.747C296.509 655.573 301.906 640.871 318.473 638.046C324.612 637 333.915 637.306 346.475 644.657L343.431 644.659Z" fill="#76B779"/>
    <path d="M247.944 644.659C242.921 641.619 235.444 638.27 227.644 640.094C217.346 642.502 214.939 651.951 204.641 655.533C199.415 657.351 191.182 657.998 178.634 651.591L180.69 651.591C186.805 654.03 195.311 656.168 203.756 653.264C214.324 649.631 216.651 640.901 226.316 638.323C231.472 636.947 239.267 637.176 250.6 644.659H247.944Z" fill="#76B779"/>
    <path d="M175.127 644.655C166.239 639.155 160.08 639.112 156.054 640.149C146.567 642.594 143.858 652.346 133.808 653.984C129.396 654.556 124.916 653.717 121.011 651.586L118.41 651.588C125.345 655.862 130.57 656.207 134.25 655.533C144.054 653.738 146.739 644.014 156.829 641.754C162.921 640.389 168.708 642.419 172.988 644.655H175.127Z" fill="#76B779"/>
    <path d="M113.48 644.655C100.881 635.725 91.2151 634.611 84.6116 635.335C72.9819 636.61 67.4533 643.96 59.0089 641.91C50.9138 639.944 46.2258 630.817 43.6255 623.984L45.2295 625.576C47.9039 631.28 52.4118 638.401 59.5984 640.094C68.0881 642.094 73.6296 634.944 84.0212 633.269C91.1384 632.121 101.672 633.358 116.069 644.659L113.48 644.655Z" fill="#76B779"/>
    <path d="M45.3947 615.708C45.0881 611.126 43.8752 604.984 39.3444 600.729C31.9806 593.815 21.6087 597.29 17.4301 591.064C15.7766 588.6 14.7742 584.141 18.4904 575.414C18.6191 576.098 18.7477 576.782 18.8762 577.465C17.2405 581.599 15.9684 586.871 18.4262 590.621C22.4531 596.765 32.7686 593.143 40.156 599.475C43.5126 602.352 46.5172 607.5 46.7931 617.26C46.3269 616.743 45.8608 616.225 45.3947 615.708Z" fill="#76B779"/>
    <path d="M24.5267 568.625C30.1619 559.396 29.8582 553.748 28.498 550.279C25.3031 542.13 14.6376 541.809 12.2284 534.009C10.5306 528.513 13.9362 522.549 17.0604 518.385L17.0598 520.986C15.0042 524.117 12.5214 529.002 13.8886 533.788C16.1852 541.828 27.2138 542.118 30.4902 549.892C32.026 553.536 32.245 559.742 24.7701 570.615L24.5267 568.625Z" fill="#76B779"/>
    <path d="M23.9954 513.617C27.8757 508.27 32.3657 500.169 30.8776 491.398C28.5162 477.48 13.1498 473.942 9.8488 459.745C8.55186 454.166 8.79209 445.544 17.0541 433.163L17.0568 436.816C13.8066 442.419 10.3751 450.579 12.2284 459.246C15.3589 473.887 30.8828 477.417 33.3125 490.9C34.2915 496.333 33.3424 504.481 23.9963 515.83L23.9954 513.617Z" fill="#76B779"/>
    <path d="M23.9879 426.901C27.3632 419.487 31.1935 407.891 28.0553 395.533C22.9748 375.526 3.68727 369.495 3.33725 353.254C3.2183 347.736 5.24806 339.291 17.0604 328.665V331.654C12.0455 336.702 6.43255 344.146 6.53753 353.096C6.72924 369.433 25.7937 375.553 30.7853 394.5C32.8483 402.331 32.9074 413.871 24.0156 430.083C24.0063 429.022 23.9971 427.962 23.9879 426.901Z" fill="#76B779"/>
    <path d="M23.9904 324.704C33.2302 315.786 34.4585 308.487 34.4745 304.519C34.4838 302.232 34.1043 297.556 21.7466 278.953C12.536 265.087 9.34725 262.567 8.90797 256.485C8.33726 248.583 12.9182 241.727 17.0604 237.043V240.621C14.4345 244.232 11.4841 249.593 11.7856 255.932C12.1125 262.803 16.0476 266.351 23.4068 276.85C32.9914 290.523 37.7837 297.36 37.7948 304.519C37.8022 309.238 35.9793 317.228 23.9906 327.001L23.9904 324.704Z" fill="#76B779"/>
    <path d="M23.9829 231.693C32.8396 219.498 34.1486 209.883 33.7367 203.397C32.2585 180.113 6.81397 168.925 9.46146 148.722C10.3856 142.973 13.0399 137.642 17.0705 133.439C17.0637 134.7 17.0568 135.96 17.0501 137.22C14.3671 140.553 12.5691 144.509 11.8226 148.722C8.58694 168.77 34.9488 180.476 36.9095 202.806C37.5483 210.082 35.8002 220.798 23.9846 234.682L23.9829 231.693Z" fill="#76B779"/>
    <path d="M23.9916 129.261C32.5178 118.862 37.3702 105.938 37.7949 92.4977C38.0244 81.6521 35.3223 70.9457 29.9737 61.5079C36.3822 70.5913 39.9282 81.3835 40.1561 92.4977C40.4759 114.728 26.8922 129.321 23.9897 132.305L23.9916 129.261Z" fill="#76B779"/>
    <path d="M772.2 370.315C774.004 376.116 774.267 380.789 774.187 383.936C773.9 395.341 768.72 402.477 769.732 413.928C769.986 416.805 770.577 419.757 770.577 419.757C771.62 423.844 773.301 426.131 774.296 431.49C775.886 440.053 775.066 452.913 762.786 470.468C775.835 452.919 776.95 439.982 775.501 431.361C774.624 426.142 773.038 423.875 772.079 419.845C772.079 419.845 771.535 416.907 771.321 414.053C771.021 410.056 776.096 394.21 776.512 383.809C776.637 380.682 776.434 376.065 774.707 370.325C774.187 370.331 773.659 370.332 773.122 370.328C772.812 370.325 772.504 370.321 772.2 370.315V370.315Z" fill="#BD632F"/>
    <path d="M793.1 368.603C793.093 372.203 793.38 377.911 795.138 384.573C800.132 403.506 811.439 409.377 816.455 420.389C821.317 431.061 820.827 449.389 795.367 482.785C822.508 448.855 823.461 430.444 818.633 419.798C813.772 409.078 802.924 403.321 797.745 384.573C795.826 377.626 795.469 371.655 795.442 367.873L793.1 368.603V368.603Z" fill="#BD632F"/>
    <path d="M741.946 365.514C747.53 390.744 742.44 405.775 736.234 415.016C729.296 425.348 718.402 432.225 715.228 447.565C713.671 455.091 714.571 461.659 715.59 466.064C715.095 461.875 714.825 455.388 716.797 447.959C720.904 432.492 731.507 425.757 738.407 415.86C744.584 407 750.125 392.314 745.444 367.225L741.946 365.514Z" fill="#F38F56"/>
    <path d="M751.001 369.052C751.383 374.445 751.654 382.417 750.857 392.042C749.286 411.015 748.258 423.987 739.413 435.529C732.731 444.249 727.045 445.088 723.795 454.081C721.051 461.674 722.243 468.99 723.709 474.033C722.587 469.086 721.831 461.914 724.789 454.54C728.481 445.338 734.417 444.65 741.335 436.07C750.21 425.065 751.37 412.468 753.357 392.204C754.282 382.776 754.22 374.958 754.001 369.672L751.001 369.052H751.001Z" fill="#BD632F"/>
    <path d="M801.678 364.969C801.797 368.601 802.354 374.271 804.756 380.578C811.495 398.275 824.454 398.882 830.552 412.677C837.45 428.282 831.457 450.425 818.826 459.981C809.959 466.691 798.65 466.605 798.602 466.411C798.553 466.218 809.504 466.056 817.821 459.263C829.132 450.026 834.915 428.962 828.291 413.353C822.309 399.261 808.944 398.525 802.187 380.353C800.09 374.713 799.469 369.731 799.254 366.624C799.523 366.499 799.809 366.35 800.104 366.173C800.751 365.783 801.272 365.357 801.678 364.969V364.969Z" fill="#F38F56"/>
    <path d="M785.378 370.225C788.416 379.355 788.922 387.001 788.608 392.853C788.065 402.974 785.134 406.107 786.989 412.788C789.396 421.456 795.898 422.253 799.616 429.851C802.285 435.305 803.489 444.199 796.864 459.247C804.562 444.187 803.741 435.242 801.316 429.767C797.993 422.264 791.67 421.309 789.255 412.45C787.469 405.898 790.046 402.927 790.631 392.684C790.939 387.309 790.733 379.449 788.061 369.662C787.625 369.768 787.176 369.869 786.715 369.966C786.259 370.062 785.813 370.148 785.378 370.225H785.378Z" fill="#F38F56"/>
    <path d="M739.558 470.274C750.856 463.493 754.822 456.667 756.357 451.69C759.688 440.89 752.544 435.643 755.402 421.956C757.408 412.356 761.802 411.486 765.329 401.345C767.759 394.359 769.382 384.232 765.778 370.51L769.243 370.73C773.181 385.321 771.109 395.558 768.511 402.19C764.626 412.106 759.936 412.801 757.566 422.351C754.198 435.921 761.619 441.477 757.948 452.141C756.268 457.018 751.974 463.82 739.558 470.274Z" fill="#F38F56"/>
    <path d="M775.997 371.232C775.937 371.542 775.888 372.032 776.062 372.577C776.515 373.999 778.008 374.113 778.714 375.245C779.717 376.854 777.939 377.804 778.445 380.24C778.969 382.764 781.124 382.918 781.12 385.069C781.117 386.919 779.522 387.557 780.05 388.965C780.542 390.278 782.262 390.614 782.105 391.5C781.982 392.199 780.864 392.236 780.73 392.993C780.579 393.85 781.937 394.231 781.923 395.134C781.907 396.237 779.869 396.317 779.475 397.582C778.976 399.18 781.779 400.485 781.184 402.088C780.856 402.974 779.881 402.899 779.713 403.775C779.483 404.974 781.227 405.557 781.037 406.799C780.895 407.729 779.868 407.721 779.512 408.843C779.171 409.916 779.98 410.338 780.064 411.721C780.177 413.587 778.76 413.753 778.744 415.5C778.726 417.524 780.624 417.879 780.432 419.923C780.318 421.145 779.588 421.561 779.901 422.588C780.198 423.566 780.969 423.555 781.47 424.479C782.353 426.11 780.502 427.161 781.097 428.889C781.724 430.709 784.079 430.421 784.761 432.434C785.215 433.774 784.36 434.461 785.123 435.524C785.839 436.521 786.825 436.242 787.368 437.19C788.016 438.321 786.852 439.136 787.534 440.277C788.068 441.171 789.015 441.058 789.282 441.915C789.505 442.634 788.901 442.916 788.847 443.823C788.767 445.176 790.054 445.48 790.493 446.955C790.967 448.542 789.675 448.85 789.771 450.96C789.87 453.125 791.259 453.419 790.887 455.066C790.594 456.366 789.594 456.785 789.819 457.927C789.98 458.744 790.549 458.818 790.697 459.612C790.915 460.772 789.869 461.514 789.468 462.419C789.024 463.421 789.147 465.124 791.939 468.157C791.224 466.558 791.338 465.46 791.723 464.69C792.086 463.966 792.473 463.963 792.844 463.162C793.421 461.917 792.705 461.448 793.044 459.785C793.329 458.381 793.912 458.353 793.908 457.268C793.904 456.094 793.222 455.919 793.002 454.723C792.685 452.999 793.98 452.702 793.917 450.896C793.85 448.961 792.344 448.739 792.418 446.824C792.477 445.32 793.421 445.04 793.118 443.864C792.794 442.604 791.62 442.577 791.321 441.283C791.036 440.052 792.009 439.687 791.656 438.615C791.266 437.43 789.978 437.567 789.369 436.22C788.906 435.196 789.531 434.856 789.084 433.807C788.533 432.513 787.429 432.676 786.622 431.492C785.543 429.909 787.066 428.964 786.139 426.996C785.337 425.294 783.812 425.181 783.788 423.791C783.772 422.859 784.451 422.63 784.38 421.547C784.309 420.456 783.596 420.319 783.305 419.295C782.792 417.488 784.701 416.816 784.382 414.959C784.096 413.293 782.399 412.893 782.693 411.662C782.916 410.729 783.949 410.714 784.183 409.669C784.42 408.606 783.429 408.279 783.577 407.149C783.737 405.923 784.965 405.835 785.171 404.614C785.374 403.405 784.23 403.138 784.257 401.853C784.293 400.17 786.271 399.917 786.324 398.312C786.374 396.813 784.67 396.385 784.939 394.867C785.1 393.957 785.784 393.699 785.678 392.809C785.583 392.013 784.998 391.919 784.706 391.144C784.197 389.791 785.611 389.106 785.571 387.5C785.532 385.92 784.145 385.858 783.632 383.995C783.083 382.002 784.54 381.6 784.287 379.354C783.995 376.77 781.977 376.515 782.184 374.278C782.256 373.501 783.049 372.474 782.67 371.059C782.628 370.904 782.584 370.78 782.552 370.698L775.997 371.232L775.997 371.232Z" fill="#BD632F"/>
    <path d="M756.102 370.1C755.937 370.465 755.732 371.038 755.722 371.743C755.696 373.428 756.832 374.209 757.354 375.513C758.355 378.01 756.026 378.789 756.577 381.565C757.199 384.702 760.576 385.739 759.934 387.701C759.539 388.907 758.116 388.98 758.029 390.169C757.923 391.613 760.015 392.303 759.719 393.407C759.443 394.438 757.506 394.267 757.037 395.398C756.542 396.593 758.479 397.341 758.565 399.016C758.687 401.4 754.86 401.853 754.258 404.804C753.816 406.974 755.725 407.515 755.208 410.216C754.841 412.134 753.773 412.412 753.907 414.006C754.068 415.919 755.668 416.236 755.54 417.776C755.395 419.522 753.276 419.886 753.3 421.468C753.32 422.78 754.784 422.865 755.506 424.428C756.768 427.16 753.343 429.168 754.469 431.747C755.33 433.717 757.732 433.46 758.263 435.539C758.667 437.123 757.39 437.727 757.921 439.249C758.512 440.943 760.271 440.707 761.095 442.417C762.044 444.39 760.121 445.573 761.081 447.389C762.015 449.157 764.304 448.896 764.689 450.469C764.999 451.737 763.601 452.24 763.85 453.774C764.092 455.263 765.502 455.367 765.79 456.717C766.163 458.46 763.947 458.938 763.493 461.258C762.971 463.925 765.554 465.059 764.713 467.395C764.148 468.963 762.917 468.663 762.24 470.441C761.428 472.571 762.782 474.144 761.678 475.062C760.857 475.745 759.671 475.24 759.173 475.977C758.72 476.647 759.552 477.286 759.281 478.15C758.899 479.365 756.825 479.461 755.626 480.166C754.254 480.972 753.083 483.13 754.183 489.185C754.263 488.293 754.545 486.977 755.626 485.944C757.114 484.521 758.612 485.071 759.92 483.625C761.148 482.269 760.513 481.081 762.003 480.081C762.867 479.501 763.352 479.719 763.922 479.113C764.8 478.179 764.042 477.245 764.465 475.925C765.13 473.85 767.646 474.163 768.621 472.132C769.411 470.488 767.952 469.885 768.296 467.301C768.673 464.472 770.528 464.408 770.618 462.105C770.726 459.372 768.147 458.655 768.614 456.026C768.898 454.427 769.946 454.164 769.8 452.737C769.642 451.195 768.379 451.116 767.647 449.289C766.732 447.005 768.289 446.093 767.274 444.338C766.324 442.693 764.684 443.054 763.972 441.427C763.296 439.886 764.601 439.18 763.946 437.561C763.259 435.861 761.577 436.033 760.987 434.465C760.359 432.796 762.102 432.175 761.93 430.055C761.716 427.406 758.871 426.858 759.04 424.46C759.148 422.917 760.354 422.76 760.235 421.27C760.09 419.452 758.251 419.118 758.278 417.508C758.302 416.052 759.813 415.86 759.969 414.216C760.128 412.54 758.75 412.2 758.794 410.7C758.863 408.306 762.515 408.004 763.077 405.321C763.527 403.172 761.409 402.291 762.194 400.415C762.933 398.647 765.142 398.648 765.339 397.132C765.514 395.791 763.829 395.467 763.725 393.747C763.623 392.059 765.204 391.643 765.074 389.89C764.973 388.539 764.007 388.416 763.683 387.053C763.186 384.956 765.239 384.26 765.505 382.002C765.917 378.506 761.217 376.179 762.397 374.313C762.831 373.626 764.013 373.205 764.281 371.886C764.343 371.58 764.337 371.323 764.325 371.168L756.102 370.1L756.102 370.1Z" fill="#BD632F"/>
    <path d="M737.205 366.169C736.722 365.252 736.055 363.843 735.514 362.048C732.431 351.829 737.37 342.308 739.355 338.481C741.308 334.717 744.459 328.641 751.507 324.177C758.766 319.578 765.896 319.39 770.348 319.272C780.481 319.005 787.781 322.353 789.325 323.087C791.732 324.231 796.811 326.946 801.613 332.214C804.91 335.832 810.574 342.047 810.624 350.878C810.646 354.776 809.567 357.921 808.713 359.869C809.244 360.448 810.228 361.702 810.452 363.513C810.492 363.842 810.814 366.443 809.42 367.471C809.065 367.733 808.637 367.834 808.637 367.834C807.611 368.077 806.732 367.475 806.523 367.323C806.6 367.669 806.675 368.201 806.581 368.83C806.511 369.301 806.178 370.955 804.632 371.768C803.459 372.384 802.27 372.083 801.481 371.888C800.517 371.649 799.808 371.217 799.386 370.913C799.077 371.433 798.623 372.12 797.99 372.862C797.305 373.664 796.798 374.258 795.918 374.763C795.574 374.961 794.731 375.432 793.587 375.518C792.95 375.566 792.324 375.486 790.435 374.79C789.533 374.457 788.33 373.98 786.931 373.322C786.366 374.008 785.441 374.982 784.087 375.853C782.843 376.652 781.643 377.423 780.07 377.459C778.656 377.492 777.321 376.724 774.652 375.188C773.622 374.595 772.799 374.064 772.251 373.699C771.759 374.268 771.006 375.038 769.954 375.776C768.853 376.549 767.864 377.244 766.533 377.418C764.956 377.624 763.723 376.993 761.639 375.927C760.162 375.171 759.028 374.376 758.26 373.781C757.691 374.223 756.837 374.834 755.725 375.442C754.163 376.296 753.294 376.772 752.116 376.744C751.044 376.719 750.283 376.291 749.199 375.682C748.367 375.215 747.217 374.437 746.074 373.168C745.673 373.531 745.071 374.026 744.27 374.506C743.512 374.961 743.137 375.204 742.665 375.294C740.596 375.688 738.8 373.812 738.297 373.287C737.856 372.827 737.066 371.982 736.687 370.603C736.093 368.45 736.956 366.648 737.205 366.169H737.205Z" fill="#F38F56"/>
    <path d="M775.987 323.816C775.987 323.816 775.865 323.238 775.222 322.779C772.564 320.878 760.071 324.351 760.071 324.351C760.071 324.351 748.3 329.806 747.364 333.027C747.138 333.805 747.388 334.335 747.388 334.336C747.388 334.336 747.637 334.862 748.346 335.152C750.009 335.83 754.772 330.509 760.922 328.47C761.25 328.361 761.597 328.211 761.916 328.082C767.935 325.655 774.838 326.694 775.729 325.078C776.109 324.389 775.987 323.816 775.987 323.816H775.987Z" fill="#FCE4D6"/>
    <path d="M745.934 339.783C746.855 338.717 746.976 337.315 746.205 336.652C745.434 335.99 744.063 336.317 743.142 337.383C742.222 338.449 742.101 339.851 742.872 340.513C743.643 341.176 745.014 340.849 745.934 339.783Z" fill="#FCE4D6"/>
    <path d="M796.932 333.679C796.208 333.712 795.166 334.054 794.747 334.905C794.014 336.397 795.788 338.248 796.044 338.515C796.804 339.307 798.627 340.712 799.799 340.013C800.829 339.399 800.772 337.505 800.345 336.335C799.871 335.038 798.565 333.604 796.932 333.679H796.932Z" fill="#BD632F"/>
    <path d="M797.068 341.921C796.231 342.776 797.068 345.044 798.092 345.19C798.768 345.287 799.628 344.474 799.799 343.555C799.829 343.394 799.962 342.559 799.389 341.989C798.745 341.346 797.574 341.404 797.068 341.921V341.921Z" fill="#BD632F"/>
    <path d="M801.71 340.626C801.467 341.286 801.736 342.221 802.461 342.67C803.056 343.038 803.792 342.977 804.304 342.67C805.268 342.092 805.498 340.611 804.919 339.945C804.198 339.116 802.142 339.455 801.71 340.626Z" fill="#BD632F"/>
    <path d="M800.413 346.007C799.935 346.268 799.97 347.183 800.004 348.051C800.035 348.851 800.069 349.732 800.618 350.639C801.075 351.394 802.285 352.823 803.417 352.478C804.327 352.201 804.766 350.905 804.714 349.958C804.642 348.636 803.604 347.813 802.529 346.961C801.848 346.421 800.955 345.712 800.413 346.007H800.413Z" fill="#BD632F"/>
    <path d="M805.192 344.986C805.053 345.301 805.045 345.791 805.328 346.076C805.706 346.456 806.378 346.246 806.489 346.212C807.399 345.928 808.055 344.798 807.786 344.373C807.462 343.861 805.598 344.06 805.192 344.986Z" fill="#BD632F"/>
    <path d="M806.83 350.026C806.471 350.837 806.179 351.496 806.113 352.444C806.066 353.13 806.091 354.63 806.591 354.76C807.076 354.886 807.768 353.658 808.298 352.717C809.09 351.309 809.806 350.038 809.288 349.039C809.064 348.606 808.582 348.174 808.127 348.221C807.606 348.276 807.312 348.94 806.83 350.026H806.83Z" fill="#BD632F"/>
    <path d="M802.7 354.675C801.953 354.942 801.167 355.688 801.318 356.259C801.479 356.869 802.664 357.1 803.519 356.923C804.439 356.732 805.418 355.976 805.311 355.39C805.195 354.75 803.776 354.291 802.7 354.675Z" fill="#BD632F"/>
    <path d="M795.02 330.46C794.774 330.922 794.894 331.657 795.327 331.942C795.905 332.322 796.765 331.722 797.119 331.38C797.205 331.298 797.868 330.657 797.683 330.256C797.425 329.699 795.507 329.549 795.02 330.46H795.02Z" fill="#BD632F"/>
    <path d="M793.177 333.015C794.053 332.12 793.048 330.102 792.819 329.643C792.718 329.441 791.544 327.129 790.566 327.344C789.705 327.534 789.227 329.632 789.747 331.227C789.841 331.516 790.366 333.128 791.692 333.372C791.787 333.39 792.664 333.539 793.177 333.015L793.177 333.015Z" fill="#BD632F"/>
    <path d="M790.788 335.245C790.598 335.537 790.652 335.976 790.856 336.267C791.181 336.729 791.876 336.802 792.358 336.54C792.8 336.299 793.117 335.747 792.972 335.382C792.734 334.778 791.206 334.605 790.788 335.245H790.788Z" fill="#BD632F"/>
    <path d="M804.082 360.107C803.939 360.764 804.265 361.469 804.799 361.742C805.714 362.211 807.142 361.363 807.154 360.346C807.162 359.712 806.62 359.05 805.891 358.915C805.078 358.765 804.256 359.312 804.082 360.107Z" fill="#BD632F"/>
    <path d="M797.256 348.477C796.982 348.857 796.828 349.546 797.188 349.839C797.54 350.126 798.258 349.931 798.519 349.464C798.829 348.91 798.419 348.1 797.973 348.034C797.613 347.981 797.298 348.419 797.256 348.477L797.256 348.477Z" fill="#BD632F"/>
    <path d="M801.164 359.017C800.505 358.772 799.616 359.613 799.219 360.141C798.71 360.818 798.623 361.494 798.502 362.542C798.345 363.898 798.222 364.962 798.809 365.352C799.356 365.716 800.283 365.34 800.806 364.943C802.074 363.983 801.978 362.14 801.932 361.265C801.891 360.476 801.828 359.265 801.164 359.017Z" fill="#BD632F"/>
    <path d="M739.453 348.528C738.536 349.482 737.341 351.374 738.019 352.274C738.542 352.968 740.046 352.895 741.023 352.342C743.074 351.181 743.323 347.613 742.388 347.029C741.672 346.582 740.14 347.812 739.453 348.528L739.453 348.528Z" fill="#BD632F"/>
    <path d="M738.77 343.76C737.833 344.444 737.754 346.159 738.36 346.552C738.961 346.942 740.436 346.165 740.75 345.054C740.767 344.994 741.012 344.075 740.477 343.624C740.002 343.224 739.21 343.438 738.77 343.76H738.77Z" fill="#BD632F"/>
    <path d="M736.585 355.884C736.639 357.579 736.665 358.427 737.063 359.426C737.736 361.116 739.41 363.098 740.477 362.764C741.445 362.46 741.768 360.293 741.432 358.745C741.157 357.475 740.453 356.691 739.179 355.271C738.363 354.361 737.445 353.338 736.927 353.568C736.526 353.746 736.545 354.589 736.585 355.884Z" fill="#BD632F"/>
    <path d="M743.071 354.454C742.96 355.155 743.028 356.183 743.412 356.293C743.849 356.418 744.661 355.343 744.914 354.249C745.108 353.408 745.042 352.255 744.641 352.138C744.184 352.005 743.267 353.207 743.071 354.454V354.454Z" fill="#BD632F"/>
    <path d="M739.726 365.829C739.568 366.616 739.413 368.687 740.613 369.303C741.728 369.875 743.521 368.938 744.095 367.532C744.643 366.187 743.862 364.938 743.822 364.875C743.356 364.157 742.362 363.342 741.432 363.581C740.853 363.73 740.484 364.24 740.272 364.535C740.17 364.675 739.868 365.119 739.726 365.829Z" fill="#BD632F"/>
    <path d="M743.992 360.312C743.617 360.611 742.731 361.321 742.934 362.014C743.103 362.591 743.932 362.843 744.504 362.832C745.415 362.813 746.227 362.113 746.45 361.265C746.577 360.781 746.59 359.95 746.108 359.63C745.417 359.172 744.236 360.117 743.992 360.312L743.992 360.312Z" fill="#BD632F"/>
    <path d="M745.255 369.677C745.486 370.015 745.952 370.194 746.347 370.12C747.083 369.983 747.61 368.966 747.269 368.247C746.957 367.588 745.985 367.324 745.562 367.634C745.399 367.754 745.351 367.941 745.255 368.315C745.115 368.863 745.002 369.306 745.255 369.677V369.677Z" fill="#BD632F"/>
    <path d="M419.629 447.765C421.433 453.566 421.696 458.239 421.617 461.386C421.33 472.791 416.15 479.927 417.162 491.378C417.416 494.255 418.007 497.207 418.007 497.207C419.049 501.294 420.73 503.581 421.726 508.94C423.315 517.502 422.495 530.363 410.216 547.918C423.264 530.369 424.38 517.432 422.931 508.81C422.054 503.592 420.468 501.325 419.508 497.295C419.508 497.295 418.965 494.357 418.75 491.503C418.45 487.505 423.526 471.659 423.941 461.259C424.066 458.131 423.863 453.515 422.137 447.775C421.617 447.781 421.088 447.782 420.552 447.778C420.241 447.775 419.934 447.771 419.629 447.765V447.765Z" fill="#BD632F"/>
    <path d="M440.529 446.053C440.523 449.653 440.81 455.361 442.567 462.023C447.562 480.956 458.869 486.827 463.885 497.839C468.747 508.511 468.256 526.839 442.796 560.235C469.938 526.305 470.891 507.894 466.063 497.248C461.202 486.528 450.354 480.771 445.175 462.023C443.255 455.076 442.898 449.105 442.872 445.323L440.529 446.053V446.053Z" fill="#BD632F"/>
    <path d="M389.376 442.964C394.96 468.194 389.87 483.225 383.664 492.466C376.725 502.797 365.832 509.675 362.658 525.015C361.1 532.541 362.001 539.109 363.02 543.514C362.525 539.325 362.254 532.838 364.227 525.409C368.334 509.942 378.937 503.207 385.837 493.31C392.014 484.45 397.554 469.764 392.873 444.675L389.376 442.964Z" fill="#F38F56"/>
    <path d="M398.431 446.502C398.813 451.895 399.083 459.867 398.287 469.492C396.716 488.465 395.688 501.437 386.843 512.979C380.161 521.699 374.475 522.538 371.224 531.531C368.48 539.124 369.673 546.44 371.138 551.483C370.017 546.536 369.26 539.364 372.219 531.99C375.911 522.788 381.846 522.1 388.765 513.52C397.64 502.515 398.799 489.918 400.787 469.654C401.712 460.226 401.649 452.408 401.43 447.122L398.431 446.502H398.431Z" fill="#BD632F"/>
    <path d="M449.107 442.419C449.226 446.051 449.783 451.721 452.185 458.028C458.924 475.725 471.883 476.332 477.982 490.127C484.879 505.732 478.886 527.875 466.256 537.431C457.389 544.141 446.08 544.055 446.031 543.861C445.983 543.668 456.934 543.506 465.251 536.713C476.562 527.476 482.345 506.412 475.72 490.803C469.739 476.711 456.374 475.975 449.617 457.803C447.519 452.163 446.899 447.181 446.683 444.074C446.953 443.949 447.238 443.8 447.533 443.623C448.181 443.232 448.701 442.807 449.107 442.419V442.419Z" fill="#F38F56"/>
    <path d="M432.808 447.675C435.846 456.805 436.352 464.451 436.037 470.303C435.494 480.424 432.563 483.557 434.419 490.238C436.825 498.906 443.327 499.703 447.046 507.301C449.715 512.755 450.918 521.649 444.294 536.697C451.992 521.637 451.171 512.692 448.746 507.217C445.422 499.714 439.1 498.759 436.685 489.9C434.899 483.348 437.475 480.377 438.061 470.134C438.368 464.759 438.162 456.899 435.49 447.112C435.055 447.218 434.606 447.319 434.145 447.416C433.689 447.512 433.243 447.598 432.808 447.675H432.808Z" fill="#F38F56"/>
    <path d="M386.987 547.724C398.286 540.943 402.252 534.117 403.786 529.14C407.118 518.34 399.973 513.093 402.832 499.406C404.837 489.806 409.232 488.936 412.759 478.795C415.188 471.809 416.812 461.682 413.208 447.96L416.672 448.18C420.61 462.771 418.538 473.008 415.94 479.64C412.056 489.556 407.365 490.251 404.995 499.801C401.627 513.371 409.048 518.927 405.377 529.591C403.698 534.468 399.404 541.27 386.987 547.724Z" fill="#F38F56"/>
    <path d="M423.427 448.682C423.366 448.992 423.317 449.482 423.491 450.027C423.945 451.449 425.437 451.563 426.143 452.695C427.147 454.304 425.368 455.254 425.874 457.69C426.399 460.214 428.553 460.368 428.549 462.519C428.546 464.369 426.951 465.007 427.479 466.415C427.972 467.728 429.691 468.064 429.535 468.95C429.411 469.649 428.294 469.686 428.16 470.443C428.008 471.3 429.366 471.681 429.353 472.584C429.337 473.687 427.299 473.767 426.904 475.032C426.406 476.63 429.209 477.935 428.614 479.538C428.285 480.424 427.31 480.349 427.142 481.225C426.912 482.424 428.656 483.007 428.467 484.249C428.325 485.179 427.297 485.171 426.941 486.293C426.601 487.366 427.41 487.788 427.493 489.171C427.606 491.037 426.189 491.203 426.174 492.95C426.156 494.974 428.054 495.329 427.862 497.373C427.747 498.595 427.018 499.011 427.33 500.038C427.628 501.016 428.399 501.005 428.899 501.929C429.782 503.56 427.931 504.611 428.527 506.339C429.154 508.159 431.509 507.871 432.19 509.884C432.644 511.224 431.789 511.911 432.553 512.974C433.269 513.971 434.255 513.692 434.798 514.64C435.445 515.771 434.281 516.586 434.963 517.727C435.498 518.621 436.445 518.508 436.711 519.365C436.935 520.084 436.33 520.366 436.277 521.273C436.197 522.626 437.483 522.93 437.923 524.405C438.396 525.992 437.104 526.3 437.201 528.409C437.3 530.575 438.688 530.868 438.317 532.516C438.024 533.816 437.023 534.235 437.248 535.377C437.41 536.194 437.978 536.268 438.127 537.062C438.344 538.222 437.299 538.964 436.898 539.869C436.453 540.871 436.576 542.574 439.368 545.607C438.654 544.008 438.767 542.91 439.153 542.14C439.516 541.416 439.903 541.413 440.274 540.612C440.85 539.367 440.135 538.898 440.473 537.234C440.759 535.831 441.341 535.803 441.338 534.718C441.333 533.544 440.651 533.369 440.431 532.172C440.114 530.449 441.41 530.152 441.347 528.346C441.279 526.411 439.773 526.189 439.848 524.274C439.906 522.77 440.85 522.49 440.548 521.314C440.223 520.054 439.05 520.027 438.751 518.733C438.466 517.502 439.439 517.137 439.085 516.065C438.695 514.88 437.408 515.017 436.798 513.67C436.335 512.646 436.96 512.306 436.514 511.257C435.963 509.963 434.859 510.126 434.051 508.942C432.972 507.359 434.496 506.414 433.569 504.446C432.767 502.744 431.242 502.631 431.218 501.241C431.201 500.309 431.881 500.08 431.81 498.997C431.738 497.906 431.026 497.769 430.735 496.745C430.221 494.937 432.131 494.266 431.812 492.409C431.526 490.743 429.829 490.343 430.123 489.112C430.345 488.179 431.379 488.164 431.612 487.119C431.85 486.056 430.859 485.728 431.006 484.599C431.166 483.373 432.395 483.285 432.6 482.064C432.804 480.855 431.659 480.588 431.687 479.303C431.723 477.62 433.7 477.367 433.754 475.762C433.804 474.263 432.1 473.835 432.369 472.316C432.53 471.407 433.214 471.149 433.107 470.259C433.012 469.463 432.428 469.369 432.136 468.593C431.626 467.241 433.041 466.556 433.001 464.95C432.962 463.37 431.574 463.308 431.061 461.445C430.513 459.452 431.97 459.05 431.716 456.804C431.425 454.219 429.406 453.965 429.614 451.728C429.686 450.951 430.478 449.924 430.099 448.509C430.058 448.354 430.013 448.229 429.982 448.148L423.427 448.682L423.427 448.682Z" fill="#BD632F"/>
    <path d="M403.531 447.55C403.366 447.915 403.162 448.488 403.151 449.193C403.126 450.878 404.261 451.659 404.784 452.963C405.785 455.46 403.456 456.239 404.006 459.015C404.628 462.152 408.005 463.189 407.364 465.15C406.969 466.357 405.546 466.43 405.459 467.618C405.352 469.063 407.445 469.753 407.149 470.857C406.873 471.888 404.935 471.717 404.467 472.848C403.971 474.043 405.909 474.791 405.995 476.466C406.117 478.85 402.29 479.303 401.688 482.254C401.245 484.424 403.154 484.965 402.637 487.666C402.27 489.584 401.202 489.862 401.337 491.456C401.498 493.369 403.097 493.686 402.969 495.226C402.824 496.972 400.706 497.336 400.73 498.918C400.749 500.23 402.213 500.315 402.935 501.878C404.198 504.61 400.773 506.618 401.899 509.196C402.76 511.167 405.162 510.91 405.692 512.989C406.096 514.573 404.82 515.177 405.35 516.699C405.941 518.393 407.701 518.157 408.524 519.867C409.474 521.84 407.551 523.023 408.511 524.839C409.444 526.607 411.733 526.346 412.118 527.919C412.429 529.187 411.031 529.69 411.28 531.224C411.521 532.713 412.931 532.817 413.22 534.166C413.592 535.91 411.377 536.388 410.923 538.708C410.401 541.375 412.984 542.509 412.142 544.845C411.578 546.412 410.347 546.113 409.669 547.891C408.857 550.021 410.212 551.594 409.107 552.512C408.286 553.195 407.1 552.69 406.603 553.426C406.15 554.097 406.982 554.736 406.71 555.6C406.328 556.815 404.254 556.911 403.055 557.616C401.683 558.422 400.512 560.58 401.612 566.635C401.692 565.743 401.975 564.427 403.055 563.394C404.543 561.971 406.041 562.521 407.35 561.075C408.577 559.719 407.942 558.531 409.432 557.531C410.296 556.951 410.782 557.169 411.352 556.563C412.229 555.629 411.472 554.695 411.894 553.375C412.559 551.3 415.075 551.613 416.051 549.582C416.84 547.938 415.381 547.335 415.725 544.751C416.102 541.921 417.957 541.858 418.048 539.555C418.155 536.822 415.577 536.104 416.044 533.476C416.328 531.877 417.376 531.614 417.229 530.187C417.071 528.645 415.808 528.566 415.076 526.739C414.162 524.455 415.718 523.543 414.704 521.788C413.753 520.143 412.114 520.504 411.401 518.877C410.726 517.335 412.03 516.63 411.376 515.011C410.689 513.311 409.007 513.483 408.416 511.915C407.788 510.246 409.532 509.625 409.36 507.505C409.145 504.856 406.301 504.308 406.469 501.91C406.578 500.367 407.783 500.21 407.664 498.72C407.52 496.902 405.681 496.568 405.707 494.958C405.731 493.501 407.243 493.31 407.399 491.666C407.557 489.99 406.18 489.65 406.223 488.15C406.293 485.756 409.944 485.454 410.506 482.771C410.956 480.622 408.838 479.741 409.623 477.865C410.363 476.097 412.571 476.098 412.769 474.581C412.944 473.241 411.259 472.917 411.155 471.197C411.053 469.509 412.634 469.093 412.503 467.34C412.403 465.989 411.436 465.866 411.113 464.503C410.615 462.406 412.668 461.71 412.934 459.452C413.347 455.956 408.647 453.629 409.826 451.763C410.261 451.076 411.443 450.654 411.71 449.336C411.773 449.03 411.767 448.773 411.755 448.618L403.531 447.55L403.531 447.55Z" fill="#BD632F"/>
    <path d="M384.635 443.619C384.151 442.702 383.485 441.293 382.944 439.498C379.861 429.279 384.8 419.758 386.785 415.931C388.737 412.167 391.889 406.091 398.936 401.627C406.196 397.028 413.325 396.84 417.777 396.722C427.911 396.455 435.21 399.802 436.755 400.537C439.162 401.681 444.241 404.395 449.043 409.664C452.34 413.282 458.004 419.497 458.054 428.328C458.075 432.226 456.996 435.37 456.142 437.319C456.673 437.898 457.657 439.152 457.881 440.962C457.922 441.292 458.244 443.893 456.85 444.921C456.495 445.183 456.067 445.284 456.067 445.284C455.041 445.527 454.161 444.925 453.953 444.773C454.03 445.119 454.105 445.651 454.011 446.28C453.941 446.751 453.608 448.405 452.061 449.217C450.888 449.834 449.7 449.533 448.911 449.338C447.946 449.098 447.238 448.667 446.816 448.363C446.507 448.883 446.053 449.57 445.419 450.312C444.735 451.114 444.227 451.708 443.348 452.213C443.004 452.41 442.161 452.882 441.016 452.968C440.379 453.016 439.754 452.936 437.864 452.24C436.962 451.907 435.759 451.43 434.36 450.771C433.795 451.458 432.871 452.432 431.516 453.303C430.272 454.102 429.073 454.873 427.5 454.909C426.085 454.942 424.751 454.174 422.081 452.638C421.052 452.045 420.228 451.514 419.681 451.149C419.188 451.718 418.435 452.488 417.384 453.226C416.283 453.999 415.294 454.693 413.962 454.868C412.385 455.074 411.152 454.443 409.068 453.377C407.592 452.621 406.458 451.826 405.689 451.231C405.12 451.673 404.266 452.283 403.155 452.892C401.592 453.746 400.723 454.222 399.545 454.194C398.474 454.169 397.712 453.741 396.628 453.132C395.797 452.665 394.647 451.887 393.504 450.618C393.103 450.981 392.501 451.475 391.699 451.956C390.942 452.411 390.567 452.654 390.094 452.744C388.025 453.138 386.229 451.262 385.727 450.737C385.286 450.277 384.496 449.431 384.116 448.053C383.523 445.9 384.386 444.098 384.635 443.619H384.635Z" fill="#F38F56"/>
    <path d="M423.417 401.266C423.417 401.266 423.294 400.688 422.652 400.229C419.993 398.328 407.5 401.801 407.5 401.801C407.5 401.801 395.73 407.256 394.794 410.477C394.568 411.255 394.818 411.785 394.818 411.785C394.818 411.786 395.066 412.312 395.776 412.602C397.438 413.28 402.202 407.959 408.351 405.92C408.679 405.811 409.027 405.661 409.345 405.532C415.364 403.105 422.267 404.144 423.158 402.528C423.538 401.839 423.417 401.266 423.417 401.266H423.417Z" fill="#FCE4D6"/>
    <path d="M393.364 417.233C394.284 416.167 394.405 414.765 393.634 414.102C392.863 413.44 391.492 413.767 390.572 414.833C389.651 415.899 389.53 417.301 390.301 417.963C391.072 418.626 392.444 418.299 393.364 417.233Z" fill="#FCE4D6"/>
    <path d="M444.361 411.129C443.637 411.162 442.595 411.504 442.177 412.355C441.443 413.847 443.217 415.697 443.474 415.965C444.233 416.757 446.057 418.162 447.228 417.463C448.258 416.849 448.202 414.955 447.775 413.785C447.3 412.488 445.995 411.054 444.361 411.129H444.361Z" fill="#BD632F"/>
    <path d="M444.498 419.371C443.661 420.226 444.498 422.494 445.522 422.64C446.197 422.736 447.058 421.924 447.228 421.005C447.258 420.844 447.391 420.009 446.819 419.439C446.175 418.796 445.003 418.854 444.498 419.371V419.371Z" fill="#BD632F"/>
    <path d="M449.14 418.076C448.897 418.736 449.165 419.671 449.891 420.12C450.486 420.488 451.222 420.427 451.734 420.12C452.697 419.542 452.927 418.061 452.348 417.395C451.628 416.566 449.571 416.905 449.14 418.076Z" fill="#BD632F"/>
    <path d="M447.843 423.457C447.364 423.718 447.4 424.633 447.433 425.501C447.464 426.301 447.498 427.182 448.048 428.089C448.505 428.844 449.715 430.273 450.846 429.928C451.756 429.651 452.195 428.355 452.143 427.408C452.071 426.086 451.033 425.263 449.959 424.411C449.278 423.871 448.384 423.162 447.843 423.457H447.843Z" fill="#BD632F"/>
    <path d="M452.621 422.436C452.483 422.751 452.475 423.24 452.758 423.526C453.136 423.906 453.808 423.696 453.918 423.662C454.829 423.378 455.484 422.248 455.215 421.823C454.891 421.311 453.028 421.51 452.621 422.436Z" fill="#BD632F"/>
    <path d="M454.26 427.476C453.9 428.287 453.608 428.946 453.543 429.894C453.496 430.58 453.521 432.08 454.021 432.21C454.506 432.336 455.198 431.108 455.727 430.167C456.52 428.759 457.235 427.488 456.717 426.489C456.493 426.056 456.012 425.624 455.557 425.671C455.036 425.726 454.741 426.39 454.26 427.476H454.26Z" fill="#BD632F"/>
    <path d="M450.13 432.125C449.382 432.392 448.596 433.138 448.747 433.709C448.909 434.319 450.094 434.55 450.949 434.373C451.869 434.182 452.847 433.425 452.741 432.84C452.624 432.2 451.205 431.741 450.13 432.125Z" fill="#BD632F"/>
    <path d="M442.45 407.91C442.204 408.372 442.323 409.107 442.757 409.392C443.335 409.772 444.195 409.172 444.549 408.83C444.634 408.747 445.297 408.107 445.112 407.706C444.855 407.149 442.936 406.999 442.45 407.91H442.45Z" fill="#BD632F"/>
    <path d="M440.607 410.465C441.482 409.57 440.477 407.552 440.248 407.093C440.147 406.891 438.974 404.579 437.996 404.794C437.134 404.983 436.657 407.082 437.176 408.677C437.271 408.966 437.796 410.578 439.122 410.822C439.217 410.84 440.094 410.989 440.607 410.465L440.607 410.465Z" fill="#BD632F"/>
    <path d="M438.217 412.695C438.027 412.987 438.081 413.426 438.286 413.717C438.61 414.179 439.305 414.252 439.788 413.99C440.229 413.749 440.546 413.197 440.402 412.832C440.163 412.228 438.635 412.055 438.217 412.695H438.217Z" fill="#BD632F"/>
    <path d="M451.512 437.557C451.369 438.214 451.695 438.919 452.229 439.192C453.144 439.66 454.572 438.813 454.584 437.796C454.591 437.162 454.049 436.5 453.321 436.365C452.508 436.215 451.685 436.762 451.512 437.557Z" fill="#BD632F"/>
    <path d="M444.686 425.927C444.411 426.307 444.257 426.996 444.617 427.289C444.97 427.576 445.688 427.38 445.948 426.914C446.258 426.36 445.849 425.55 445.402 425.484C445.043 425.431 444.727 425.869 444.686 425.927L444.686 425.927Z" fill="#BD632F"/>
    <path d="M448.594 436.467C447.934 436.222 447.045 437.063 446.648 437.591C446.14 438.268 446.053 438.944 445.931 439.992C445.774 441.347 445.651 442.411 446.238 442.802C446.785 443.166 447.712 442.79 448.235 442.393C449.503 441.433 449.407 439.59 449.362 438.715C449.32 437.926 449.257 436.715 448.594 436.467Z" fill="#BD632F"/>
    <path d="M386.882 425.978C385.965 426.932 384.771 428.824 385.449 429.724C385.971 430.418 387.475 430.345 388.452 429.792C390.504 428.631 390.752 425.063 389.817 424.479C389.101 424.032 387.57 425.262 386.882 425.978L386.882 425.978Z" fill="#BD632F"/>
    <path d="M386.199 421.21C385.263 421.894 385.183 423.609 385.79 424.002C386.391 424.392 387.866 423.615 388.179 422.504C388.196 422.444 388.442 421.525 387.906 421.073C387.432 420.674 386.639 420.888 386.199 421.21H386.199Z" fill="#BD632F"/>
    <path d="M384.015 433.334C384.068 435.029 384.095 435.877 384.493 436.876C385.166 438.566 386.839 440.548 387.906 440.214C388.874 439.91 389.198 437.743 388.862 436.195C388.586 434.925 387.883 434.141 386.609 432.721C385.792 431.811 384.875 430.788 384.356 431.018C383.956 431.196 383.974 432.039 384.015 433.334Z" fill="#BD632F"/>
    <path d="M390.5 431.904C390.39 432.605 390.458 433.633 390.841 433.743C391.278 433.868 392.09 432.793 392.343 431.699C392.538 430.858 392.471 429.705 392.07 429.588C391.614 429.455 390.697 430.657 390.5 431.904V431.904Z" fill="#BD632F"/>
    <path d="M387.155 443.279C386.997 444.066 386.843 446.137 388.043 446.753C389.158 447.325 390.951 446.388 391.524 444.982C392.073 443.637 391.292 442.388 391.251 442.325C390.786 441.607 389.792 440.792 388.862 441.031C388.282 441.18 387.914 441.69 387.701 441.985C387.6 442.125 387.298 442.569 387.155 443.279Z" fill="#BD632F"/>
    <path d="M391.422 437.762C391.047 438.061 390.16 438.771 390.364 439.464C390.533 440.041 391.362 440.293 391.934 440.282C392.845 440.263 393.657 439.563 393.879 438.715C394.006 438.231 394.019 437.4 393.538 437.08C392.847 436.622 391.666 437.567 391.422 437.762L391.422 437.762Z" fill="#BD632F"/>
    <path d="M392.685 447.127C392.915 447.465 393.381 447.644 393.777 447.57C394.512 447.433 395.039 446.416 394.698 445.697C394.386 445.038 393.414 444.774 392.992 445.084C392.828 445.204 392.78 445.391 392.685 445.765C392.544 446.313 392.431 446.756 392.685 447.127V447.127Z" fill="#BD632F"/>
    <path d="M282.069 174.957C283.873 180.758 284.136 185.43 284.057 188.577C283.769 199.982 278.59 207.118 279.601 218.57C279.856 221.446 280.447 224.399 280.447 224.399C281.489 228.486 283.17 230.772 284.165 236.132C285.755 244.694 284.935 257.555 272.656 275.11C285.704 257.56 286.82 244.623 285.371 236.002C284.494 230.784 282.908 228.516 281.948 224.487C281.948 224.487 281.404 221.548 281.19 218.694C280.89 214.697 285.965 198.851 286.381 188.451C286.506 185.323 286.303 180.706 284.576 174.967C284.056 174.973 283.528 174.974 282.991 174.969C282.681 174.967 282.374 174.963 282.069 174.957V174.957Z" fill="#BD632F"/>
    <path d="M302.969 173.245C302.963 176.845 303.249 182.552 305.007 189.214C310.002 208.147 321.308 214.019 326.325 225.03C331.187 235.702 330.696 254.031 305.236 287.426C332.378 253.497 333.33 235.085 328.502 224.439C323.641 213.72 312.794 207.962 307.614 189.214C305.695 182.267 305.338 176.296 305.312 172.514L302.969 173.245V173.245Z" fill="#BD632F"/>
    <path d="M251.816 170.156C257.4 195.386 252.309 210.416 246.104 219.657C239.165 229.989 228.272 236.866 225.097 252.207C223.54 259.732 224.44 266.301 225.459 270.706C224.965 266.517 224.694 260.029 226.667 252.601C230.774 237.134 241.377 230.399 248.277 220.502C254.454 211.642 259.994 196.955 255.313 171.866L251.816 170.156Z" fill="#F38F56"/>
    <path d="M260.871 173.693C261.253 179.086 261.523 187.058 260.726 196.683C259.156 215.656 258.128 228.628 249.283 240.17C242.601 248.89 236.914 249.73 233.664 258.723C230.92 266.315 232.113 273.631 233.578 278.675C232.456 273.728 231.7 266.555 234.659 259.181C238.351 249.979 244.286 249.291 251.205 240.712C260.079 229.707 261.239 217.109 263.227 196.846C264.152 187.418 264.089 179.6 263.87 174.314L260.871 173.693H260.871Z" fill="#BD632F"/>
    <path d="M311.547 169.611C311.666 173.243 312.223 178.913 314.625 185.22C321.364 202.916 334.323 203.523 340.421 217.319C347.319 232.923 341.326 255.066 328.696 264.623C319.828 271.332 308.52 271.247 308.471 271.052C308.423 270.86 319.373 270.698 327.691 263.905C339.002 254.667 344.785 233.603 338.16 217.995C332.179 203.902 318.813 203.166 312.056 184.994C309.959 179.354 309.338 174.373 309.123 171.265C309.393 171.14 309.678 170.992 309.973 170.814C310.621 170.424 311.141 169.998 311.547 169.611V169.611Z" fill="#F38F56"/>
    <path d="M295.247 174.867C298.286 183.996 298.791 191.643 298.477 197.494C297.934 207.615 295.003 210.748 296.858 217.429C299.265 226.097 305.767 226.894 309.486 234.493C312.155 239.947 313.358 248.84 306.733 263.889C314.431 248.829 313.61 239.883 311.185 234.408C307.862 226.906 301.54 225.951 299.125 217.091C297.339 210.539 299.915 207.569 300.501 197.325C300.808 191.951 300.602 184.091 297.93 174.303C297.494 174.409 297.046 174.511 296.584 174.608C296.129 174.703 295.683 174.789 295.247 174.867H295.247Z" fill="#F38F56"/>
    <path d="M249.427 274.915C260.726 268.134 264.691 261.308 266.226 256.332C269.557 245.531 262.413 240.284 265.272 226.598C267.277 216.997 271.672 216.127 275.198 205.987C277.628 199 279.252 188.873 275.647 175.151L279.112 175.371C283.05 189.962 280.978 200.199 278.38 206.831C274.496 216.748 269.805 217.442 267.435 226.992C264.067 240.562 271.488 246.119 267.817 256.782C266.138 261.66 261.843 268.461 249.427 274.915Z" fill="#F38F56"/>
    <path d="M285.866 175.873C285.806 176.184 285.757 176.674 285.931 177.219C286.384 178.64 287.877 178.754 288.583 179.886C289.587 181.496 287.808 182.446 288.314 184.881C288.839 187.405 290.993 187.56 290.989 189.711C290.986 191.561 289.391 192.199 289.919 193.607C290.411 194.919 292.131 195.255 291.975 196.141C291.851 196.841 290.734 196.878 290.6 197.634C290.448 198.491 291.806 198.872 291.793 199.775C291.776 200.879 289.739 200.958 289.344 202.224C288.846 203.822 291.649 205.126 291.054 206.73C290.725 207.615 289.75 207.54 289.582 208.416C289.352 209.615 291.096 210.198 290.907 211.44C290.765 212.37 289.737 212.362 289.381 213.484C289.04 214.558 289.849 214.979 289.933 216.362C290.046 218.228 288.629 218.395 288.613 220.141C288.595 222.165 290.494 222.521 290.302 224.565C290.187 225.786 289.458 226.202 289.77 227.23C290.067 228.208 290.838 228.197 291.339 229.121C292.222 230.752 290.371 231.802 290.967 233.53C291.594 235.35 293.949 235.062 294.63 237.075C295.084 238.416 294.229 239.102 294.992 240.165C295.709 241.162 296.695 240.884 297.237 241.832C297.885 242.963 296.721 243.777 297.403 244.918C297.938 245.813 298.884 245.7 299.151 246.556C299.374 247.275 298.77 247.557 298.716 248.465C298.636 249.818 299.923 250.122 300.363 251.597C300.836 253.184 299.544 253.491 299.64 255.601C299.739 257.766 301.128 258.06 300.757 259.708C300.463 261.008 299.463 261.427 299.688 262.569C299.849 263.386 300.418 263.459 300.567 264.253C300.784 265.413 299.739 266.155 299.337 267.061C298.893 268.063 299.016 269.765 301.808 272.798C301.093 271.2 301.207 270.102 301.593 269.332C301.955 268.608 302.343 268.605 302.714 267.804C303.29 266.558 302.575 266.09 302.913 264.426C303.199 263.023 303.781 262.995 303.777 261.91C303.773 260.736 303.091 260.56 302.871 259.364C302.554 257.64 303.849 257.343 303.786 255.537C303.719 253.602 302.213 253.38 302.287 251.465C302.346 249.962 303.29 249.682 302.987 248.506C302.663 247.246 301.489 247.218 301.19 245.924C300.906 244.693 301.879 244.329 301.525 243.256C301.135 242.071 299.847 242.209 299.238 240.861C298.775 239.838 299.4 239.497 298.954 238.449C298.403 237.155 297.299 237.317 296.491 236.133C295.412 234.551 296.936 233.606 296.008 231.637C295.207 229.936 293.682 229.823 293.657 228.432C293.641 227.501 294.32 227.271 294.249 226.188C294.178 225.098 293.466 224.96 293.175 223.937C292.661 222.129 294.571 221.458 294.251 219.6C293.965 217.935 292.268 217.534 292.562 216.304C292.785 215.371 293.819 215.356 294.052 214.31C294.289 213.248 293.298 212.92 293.446 211.79C293.606 210.564 294.834 210.476 295.04 209.255C295.244 208.047 294.099 207.779 294.127 206.494C294.163 204.811 296.14 204.558 296.193 202.953C296.243 201.454 294.54 201.026 294.808 199.508C294.969 198.599 295.653 198.34 295.547 197.451C295.452 196.654 294.867 196.56 294.576 195.785C294.066 194.432 295.48 193.747 295.441 192.142C295.402 190.562 294.014 190.499 293.501 188.636C292.953 186.644 294.41 186.241 294.156 183.996C293.865 181.411 291.846 181.156 292.054 178.92C292.126 178.143 292.918 177.116 292.539 175.7C292.498 175.546 292.453 175.421 292.422 175.339L285.866 175.873L285.866 175.873Z" fill="#BD632F"/>
    <path d="M265.971 174.741C265.806 175.107 265.602 175.679 265.591 176.384C265.565 178.07 266.701 178.851 267.224 180.154C268.225 182.651 265.896 183.431 266.446 186.207C267.068 189.343 270.445 190.38 269.803 192.342C269.409 193.549 267.986 193.621 267.898 194.81C267.792 196.254 269.884 196.944 269.589 198.048C269.313 199.079 267.375 198.909 266.907 200.039C266.411 201.235 268.349 201.983 268.435 203.657C268.557 206.042 264.73 206.495 264.128 209.446C263.685 211.616 265.594 212.156 265.077 214.857C264.71 216.775 263.642 217.054 263.776 218.647C263.938 220.56 265.537 220.877 265.409 222.417C265.264 224.163 263.145 224.528 263.169 226.109C263.189 227.421 264.653 227.507 265.375 229.069C266.637 231.802 263.213 233.81 264.339 236.388C265.2 238.359 267.601 238.102 268.132 240.181C268.536 241.764 267.26 242.369 267.79 243.891C268.381 245.585 270.141 245.349 270.964 247.059C271.914 249.031 269.991 250.214 270.95 252.031C271.884 253.798 274.173 253.537 274.558 255.11C274.869 256.378 273.471 256.881 273.72 258.416C273.961 259.905 275.371 260.008 275.659 261.358C276.032 263.102 273.817 263.579 273.363 265.899C272.841 268.567 275.423 269.7 274.582 272.036C274.018 273.604 272.787 273.304 272.109 275.082C271.297 277.213 272.651 278.785 271.547 279.704C270.726 280.386 269.54 279.881 269.042 280.618C268.59 281.288 269.422 281.928 269.15 282.792C268.768 284.007 266.694 284.103 265.495 284.807C264.123 285.613 262.952 287.772 264.052 293.826C264.132 292.934 264.415 291.619 265.495 290.585C266.983 289.162 268.481 289.713 269.789 288.267C271.017 286.91 270.382 285.723 271.872 284.722C272.736 284.142 273.221 284.36 273.791 283.754C274.669 282.821 273.911 281.886 274.334 280.566C274.999 278.491 277.515 278.804 278.49 276.774C279.28 275.129 277.821 274.526 278.165 271.942C278.542 269.113 280.397 269.05 280.488 266.746C280.595 264.013 278.017 263.296 278.484 260.668C278.768 259.069 279.816 258.806 279.669 257.378C279.511 255.836 278.248 255.758 277.516 253.93C276.601 251.647 278.158 250.734 277.144 248.979C276.193 247.335 274.554 247.696 273.841 246.069C273.165 244.527 274.47 243.822 273.815 242.202C273.128 240.502 271.447 240.674 270.856 239.106C270.228 237.438 271.971 236.816 271.8 234.696C271.585 232.047 268.741 231.499 268.909 229.101C269.018 227.558 270.223 227.401 270.104 225.911C269.96 224.093 268.121 223.759 268.147 222.149C268.171 220.693 269.683 220.502 269.838 218.858C269.997 217.182 268.62 216.842 268.663 215.341C268.733 212.948 272.384 212.645 272.946 209.962C273.396 207.813 271.278 206.933 272.063 205.057C272.803 203.289 275.011 203.289 275.209 201.773C275.384 200.432 273.699 200.108 273.595 198.389C273.493 196.7 275.073 196.285 274.943 194.532C274.843 193.181 273.876 193.058 273.553 191.694C273.055 189.597 275.108 188.901 275.374 186.643C275.786 183.147 271.086 180.821 272.266 178.955C272.701 178.267 273.882 177.846 274.15 176.528C274.212 176.221 274.206 175.964 274.195 175.809L265.971 174.741L265.971 174.741Z" fill="#BD632F"/>
    <path d="M247.074 170.811C246.591 169.893 245.925 168.484 245.383 166.689C242.301 156.471 247.239 146.949 249.225 143.122C251.177 139.358 254.329 133.283 261.376 128.818C268.635 124.219 275.765 124.031 280.217 123.914C290.35 123.647 297.65 126.994 299.195 127.728C301.602 128.873 306.68 131.587 311.482 136.856C314.779 140.473 320.444 146.688 320.493 155.519C320.515 159.417 319.436 162.562 318.582 164.51C319.113 165.089 320.097 166.343 320.321 168.154C320.362 168.484 320.683 171.085 319.29 172.112C318.935 172.374 318.507 172.476 318.506 172.476C317.481 172.719 316.601 172.116 316.392 171.965C316.47 172.31 316.545 172.842 316.451 173.471C316.381 173.943 316.048 175.596 314.501 176.409C313.328 177.025 312.139 176.725 311.35 176.529C310.386 176.29 309.678 175.858 309.256 175.555C308.947 176.074 308.493 176.761 307.859 177.503C307.174 178.305 306.667 178.9 305.788 179.404C305.443 179.602 304.601 180.074 303.456 180.16C302.819 180.207 302.194 180.127 300.304 179.431C299.402 179.099 298.199 178.621 296.8 177.963C296.235 178.649 295.311 179.624 293.956 180.495C292.712 181.294 291.512 182.065 289.94 182.101C288.525 182.133 287.19 181.365 284.521 179.829C283.491 179.236 282.668 178.705 282.12 178.34C281.628 178.909 280.875 179.68 279.824 180.418C278.722 181.191 277.734 181.885 276.402 182.059C274.825 182.265 273.592 181.634 271.508 180.568C270.031 179.813 268.898 179.018 268.129 178.423C267.56 178.864 266.706 179.475 265.595 180.083C264.032 180.938 263.163 181.413 261.985 181.386C260.914 181.361 260.152 180.933 259.068 180.323C258.237 179.856 257.086 179.079 255.944 177.81C255.543 178.172 254.94 178.667 254.139 179.148C253.382 179.602 253.006 179.845 252.534 179.935C250.465 180.33 248.669 178.454 248.167 177.929C247.726 177.468 246.936 176.623 246.556 175.245C245.963 173.092 246.826 171.29 247.074 170.811H247.074Z" fill="#F38F56"/>
    <path d="M285.856 128.457C285.856 128.457 285.734 127.88 285.092 127.421C282.433 125.519 269.94 128.992 269.94 128.992C269.94 128.993 258.169 134.448 257.233 137.669C257.007 138.446 257.258 138.977 257.258 138.977C257.258 138.977 257.506 139.504 258.216 139.793C259.878 140.472 264.642 135.151 270.791 133.111C271.119 133.003 271.467 132.852 271.785 132.724C277.804 130.297 284.707 131.335 285.598 129.72C285.978 129.03 285.856 128.457 285.856 128.457H285.856Z" fill="#FCE4D6"/>
    <path d="M255.804 144.424C256.724 143.358 256.845 141.957 256.074 141.294C255.303 140.631 253.932 140.958 253.012 142.024C252.091 143.091 251.97 144.492 252.741 145.155C253.512 145.818 254.883 145.49 255.804 144.424Z" fill="#FCE4D6"/>
    <path d="M306.801 138.32C306.077 138.353 305.035 138.695 304.617 139.546C303.883 141.038 305.657 142.889 305.914 143.156C306.673 143.949 308.497 145.354 309.668 144.655C310.698 144.04 310.642 142.146 310.214 140.977C309.74 139.679 308.434 138.245 306.801 138.32H306.801Z" fill="#BD632F"/>
    <path d="M306.938 146.562C306.1 147.417 306.937 149.685 307.962 149.831C308.637 149.928 309.498 149.115 309.668 148.197C309.698 148.035 309.831 147.201 309.259 146.63C308.614 145.988 307.443 146.045 306.938 146.562V146.562Z" fill="#BD632F"/>
    <path d="M311.58 145.268C311.336 145.928 311.605 146.862 312.33 147.311C312.926 147.68 313.661 147.618 314.174 147.311C315.137 146.734 315.367 145.253 314.788 144.587C314.067 143.758 312.011 144.096 311.58 145.268Z" fill="#BD632F"/>
    <path d="M310.283 150.649C309.804 150.91 309.839 151.824 309.873 152.692C309.904 153.492 309.938 154.373 310.487 155.281C310.944 156.036 312.155 157.464 313.286 157.12C314.196 156.843 314.635 155.547 314.583 154.599C314.511 153.278 313.473 152.455 312.399 151.602C311.717 151.062 310.824 150.353 310.283 150.649H310.283Z" fill="#BD632F"/>
    <path d="M315.061 149.627C314.923 149.943 314.914 150.432 315.198 150.717C315.576 151.097 316.247 150.888 316.358 150.853C317.269 150.569 317.924 149.439 317.655 149.014C317.331 148.502 315.467 148.701 315.061 149.627Z" fill="#BD632F"/>
    <path d="M316.699 154.668C316.34 155.478 316.048 156.137 315.983 157.086C315.935 157.771 315.961 159.272 316.46 159.402C316.946 159.528 317.637 158.299 318.167 157.358C318.96 155.951 319.675 154.679 319.157 153.68C318.933 153.248 318.451 152.815 317.996 152.863C317.475 152.917 317.181 153.581 316.699 154.668H316.699Z" fill="#BD632F"/>
    <path d="M312.569 159.316C311.822 159.583 311.036 160.33 311.187 160.9C311.348 161.51 312.534 161.742 313.389 161.564C314.309 161.373 315.287 160.617 315.181 160.032C315.064 159.391 313.645 158.933 312.569 159.316Z" fill="#BD632F"/>
    <path d="M304.89 135.102C304.643 135.563 304.763 136.298 305.197 136.583C305.775 136.963 306.634 136.364 306.989 136.021C307.074 135.939 307.737 135.298 307.552 134.897C307.295 134.341 305.376 134.191 304.89 135.102H304.89Z" fill="#BD632F"/>
    <path d="M303.046 137.656C303.922 136.761 302.917 134.744 302.688 134.284C302.587 134.082 301.413 131.77 300.435 131.985C299.574 132.175 299.097 134.273 299.616 135.868C299.71 136.158 300.235 137.769 301.562 138.014C301.656 138.031 302.533 138.18 303.046 137.656L303.046 137.656Z" fill="#BD632F"/>
    <path d="M300.657 139.887C300.467 140.178 300.521 140.618 300.725 140.908C301.05 141.37 301.745 141.444 302.227 141.181C302.669 140.94 302.986 140.388 302.842 140.023C302.603 139.42 301.075 139.247 300.657 139.887H300.657Z" fill="#BD632F"/>
    <path d="M313.952 164.749C313.808 165.406 314.134 166.11 314.668 166.383C315.584 166.852 317.012 166.005 317.024 164.987C317.031 164.353 316.489 163.692 315.761 163.557C314.947 163.406 314.125 163.954 313.952 164.749Z" fill="#BD632F"/>
    <path d="M307.125 153.118C306.851 153.499 306.697 154.187 307.057 154.48C307.41 154.768 308.128 154.572 308.388 154.106C308.698 153.551 308.289 152.741 307.842 152.675C307.483 152.622 307.167 153.06 307.125 153.118L307.125 153.118Z" fill="#BD632F"/>
    <path d="M311.033 163.659C310.374 163.413 309.485 164.254 309.088 164.783C308.579 165.459 308.492 166.136 308.371 167.184C308.214 168.539 308.091 169.603 308.678 169.993C309.225 170.357 310.152 169.981 310.675 169.585C311.943 168.624 311.847 166.781 311.801 165.907C311.76 165.117 311.697 163.906 311.033 163.659Z" fill="#BD632F"/>
    <path d="M249.322 153.169C248.405 154.123 247.21 156.015 247.888 156.915C248.411 157.61 249.915 157.536 250.892 156.983C252.944 155.823 253.192 152.254 252.257 151.671C251.541 151.224 250.01 152.453 249.322 153.169L249.322 153.169Z" fill="#BD632F"/>
    <path d="M248.639 148.401C247.703 149.086 247.623 150.801 248.23 151.194C248.83 151.583 250.305 150.806 250.619 149.695C250.636 149.635 250.882 148.716 250.346 148.265C249.872 147.865 249.079 148.08 248.639 148.401H248.639Z" fill="#BD632F"/>
    <path d="M246.455 160.525C246.508 162.221 246.535 163.068 246.933 164.067C247.605 165.757 249.279 167.739 250.346 167.405C251.314 167.102 251.637 164.934 251.302 163.386C251.026 162.117 250.323 161.332 249.049 159.912C248.232 159.002 247.315 157.98 246.796 158.21C246.396 158.387 246.414 159.231 246.455 160.525Z" fill="#BD632F"/>
    <path d="M252.94 159.095C252.829 159.796 252.898 160.824 253.281 160.934C253.718 161.059 254.53 159.985 254.783 158.891C254.978 158.049 254.911 156.896 254.51 156.779C254.053 156.646 253.136 157.848 252.94 159.095V159.095Z" fill="#BD632F"/>
    <path d="M249.595 170.47C249.437 171.257 249.283 173.328 250.482 173.944C251.597 174.516 253.39 173.579 253.964 172.173C254.512 170.828 253.732 169.58 253.691 169.517C253.225 168.799 252.232 167.984 251.302 168.222C250.722 168.371 250.354 168.881 250.141 169.176C250.04 169.317 249.738 169.76 249.595 170.47Z" fill="#BD632F"/>
    <path d="M253.861 164.953C253.487 165.253 252.6 165.962 252.803 166.656C252.972 167.232 253.801 167.485 254.373 167.473C255.284 167.455 256.097 166.755 256.319 165.907C256.446 165.423 256.459 164.592 255.978 164.272C255.287 163.813 254.105 164.758 253.861 164.953L253.861 164.953Z" fill="#BD632F"/>
    <path d="M255.124 174.319C255.355 174.657 255.821 174.835 256.217 174.761C256.952 174.625 257.479 173.608 257.138 172.888C256.826 172.229 255.854 171.965 255.432 172.275C255.268 172.395 255.22 172.582 255.124 172.956C254.984 173.504 254.871 173.948 255.124 174.319V174.319Z" fill="#BD632F"/>
    <path d="M621.924 327.545C623.728 333.346 623.991 338.018 623.911 341.165C623.624 352.57 618.444 359.706 619.456 371.157C619.71 374.034 620.302 376.986 620.302 376.986C621.344 381.074 623.025 383.36 624.02 388.72C625.61 397.282 624.79 410.142 612.511 427.697C625.559 410.148 626.674 397.211 625.225 388.59C624.349 383.372 622.762 381.104 621.803 377.075C621.803 377.075 621.259 374.136 621.045 371.282C620.745 367.285 625.82 351.439 626.236 341.038C626.361 337.911 626.158 333.294 624.431 327.554C623.911 327.56 623.383 327.561 622.846 327.557C622.536 327.555 622.228 327.55 621.924 327.545V327.545Z" fill="#BD632F"/>
    <path d="M642.824 325.833C642.818 329.433 643.104 335.14 644.862 341.802C649.856 360.735 661.163 366.607 666.18 377.618C671.041 388.29 670.551 406.619 645.091 440.014C672.232 406.085 673.185 387.673 668.357 377.027C663.496 366.307 652.648 360.55 647.469 341.802C645.55 334.855 645.193 328.884 645.166 325.102L642.824 325.833V325.833Z" fill="#BD632F"/>
    <path d="M591.67 322.744C597.254 347.974 592.164 363.004 585.958 372.245C579.02 382.577 568.127 389.454 564.952 404.795C563.395 412.32 564.295 418.889 565.314 423.294C564.819 419.105 564.549 412.617 566.521 405.189C570.628 389.722 581.231 382.986 588.131 373.09C594.308 364.23 599.849 349.543 595.168 324.454L591.67 322.744Z" fill="#F38F56"/>
    <path d="M600.726 326.281C601.107 331.674 601.378 339.646 600.581 349.271C599.01 368.244 597.982 381.216 589.138 392.758C582.455 401.478 576.769 402.318 573.519 411.311C570.775 418.903 571.967 426.219 573.433 431.262C572.311 426.316 571.555 419.143 574.513 411.769C578.205 402.567 584.141 401.879 591.059 393.3C599.934 382.295 601.094 369.697 603.082 349.434C604.006 340.005 603.944 332.188 603.725 326.902L600.726 326.281H600.726Z" fill="#BD632F"/>
    <path d="M651.402 322.199C651.521 325.83 652.078 331.5 654.48 337.808C661.219 355.504 674.178 356.111 680.276 369.907C687.174 385.511 681.181 407.654 668.55 417.211C659.683 423.92 648.375 423.835 648.326 423.64C648.277 423.448 659.228 423.285 667.545 416.493C678.856 407.255 684.639 386.191 678.015 370.582C672.033 356.49 658.668 355.754 651.911 337.582C649.814 331.942 649.193 326.961 648.978 323.853C649.247 323.728 649.533 323.58 649.828 323.402C650.475 323.012 650.996 322.586 651.402 322.199V322.199Z" fill="#F38F56"/>
    <path d="M635.102 327.455C638.14 336.584 638.646 344.231 638.332 350.082C637.789 360.203 634.858 363.336 636.713 370.017C639.12 378.685 645.622 379.482 649.34 387.081C652.009 392.534 653.213 401.428 646.588 416.477C654.286 401.417 653.465 392.471 651.04 386.996C647.717 379.494 641.394 378.539 638.98 369.679C637.194 363.127 639.77 360.157 640.356 349.913C640.663 344.539 640.457 336.679 637.785 326.891C637.349 326.997 636.9 327.099 636.439 327.195C635.983 327.291 635.538 327.377 635.102 327.455H635.102Z" fill="#F38F56"/>
    <path d="M589.282 427.503C600.58 420.722 604.546 413.896 606.081 408.92C609.412 398.119 602.268 392.872 605.126 379.186C607.132 369.585 611.527 368.715 615.053 358.575C617.483 351.588 619.106 341.461 615.502 327.739L618.967 327.959C622.905 342.55 620.833 352.787 618.235 359.419C614.35 369.336 609.66 370.03 607.29 379.58C603.922 393.15 611.343 398.707 607.672 409.37C605.992 414.248 601.698 421.049 589.282 427.503Z" fill="#F38F56"/>
    <path d="M625.721 328.461C625.661 328.772 625.612 329.262 625.786 329.807C626.239 331.228 627.732 331.342 628.438 332.474C629.442 334.083 627.663 335.034 628.169 337.469C628.693 339.993 630.848 340.148 630.844 342.299C630.841 344.149 629.246 344.787 629.774 346.195C630.266 347.507 631.986 347.843 631.829 348.729C631.706 349.429 630.589 349.465 630.455 350.222C630.303 351.079 631.661 351.46 631.648 352.363C631.631 353.466 629.593 353.546 629.199 354.812C628.7 356.409 631.503 357.714 630.908 359.317C630.58 360.203 629.605 360.128 629.437 361.004C629.207 362.203 630.951 362.786 630.761 364.028C630.62 364.958 629.592 364.95 629.236 366.072C628.895 367.145 629.704 367.567 629.788 368.95C629.901 370.816 628.484 370.983 628.468 372.729C628.45 374.753 630.348 375.109 630.156 377.152C630.042 378.374 629.312 378.79 629.625 379.818C629.922 380.795 630.693 380.784 631.194 381.709C632.077 383.34 630.226 384.39 630.821 386.118C631.449 387.938 633.803 387.65 634.485 389.663C634.939 391.003 634.084 391.69 634.847 392.753C635.563 393.75 636.55 393.471 637.092 394.42C637.74 395.551 636.576 396.365 637.258 397.506C637.792 398.401 638.739 398.287 639.006 399.144C639.229 399.863 638.625 400.145 638.571 401.053C638.491 402.405 639.778 402.709 640.218 404.185C640.691 405.772 639.399 406.079 639.495 408.189C639.594 410.354 640.983 410.648 640.611 412.295C640.318 413.596 639.318 414.014 639.543 415.157C639.704 415.974 640.273 416.047 640.422 416.841C640.639 418.001 639.594 418.743 639.192 419.648C638.748 420.651 638.871 422.353 641.663 425.386C640.948 423.787 641.062 422.689 641.447 421.92C641.81 421.196 642.197 421.193 642.568 420.391C643.145 419.146 642.429 418.678 642.768 417.014C643.054 415.61 643.636 415.583 643.632 414.498C643.628 413.324 642.946 413.148 642.726 411.952C642.409 410.228 643.704 409.931 643.641 408.125C643.574 406.19 642.068 405.968 642.142 404.053C642.201 402.55 643.145 402.27 642.842 401.093C642.518 399.833 641.344 399.806 641.045 398.512C640.761 397.281 641.733 396.916 641.38 395.844C640.99 394.659 639.702 394.796 639.093 393.449C638.63 392.425 639.255 392.085 638.809 391.037C638.257 389.743 637.153 389.905 636.346 388.721C635.267 387.139 636.79 386.193 635.863 384.225C635.062 382.524 633.537 382.411 633.512 381.02C633.496 380.089 634.175 379.859 634.104 378.776C634.033 377.686 633.32 377.548 633.029 376.524C632.516 374.717 634.425 374.045 634.106 372.188C633.82 370.523 632.123 370.122 632.417 368.891C632.64 367.959 633.673 367.943 633.907 366.898C634.144 365.836 633.153 365.508 633.301 364.378C633.461 363.152 634.689 363.064 634.895 361.843C635.098 360.634 633.954 360.367 633.981 359.082C634.017 357.399 635.995 357.146 636.048 355.541C636.098 354.042 634.394 353.614 634.663 352.096C634.824 351.186 635.508 350.928 635.402 350.039C635.307 349.242 634.722 349.148 634.43 348.373C633.921 347.02 635.335 346.335 635.295 344.73C635.256 343.15 633.869 343.087 633.356 341.224C632.808 339.231 634.264 338.829 634.011 336.583C633.719 333.999 631.701 333.744 631.908 331.507C631.98 330.731 632.773 329.703 632.394 328.288C632.353 328.134 632.308 328.009 632.276 327.927L625.721 328.461L625.721 328.461Z" fill="#BD632F"/>
    <path d="M605.826 327.329C605.661 327.694 605.457 328.267 605.446 328.972C605.42 330.658 606.556 331.439 607.079 332.742C608.08 335.239 605.75 336.019 606.301 338.795C606.923 341.931 610.3 342.968 609.658 344.93C609.263 346.136 607.84 346.209 607.753 347.398C607.647 348.842 609.739 349.532 609.443 350.636C609.168 351.667 607.23 351.497 606.761 352.627C606.266 353.823 608.203 354.571 608.289 356.245C608.411 358.629 604.585 359.083 603.982 362.033C603.54 364.203 605.449 364.744 604.932 367.445C604.565 369.363 603.497 369.641 603.631 371.235C603.792 373.148 605.392 373.465 605.264 375.005C605.119 376.751 603 377.116 603.024 378.697C603.044 380.009 604.508 380.095 605.23 381.657C606.492 384.39 603.067 386.398 604.193 388.976C605.054 390.947 607.456 390.689 607.987 392.769C608.391 394.352 607.114 394.957 607.645 396.479C608.236 398.173 609.995 397.936 610.819 399.646C611.768 401.619 609.845 402.802 610.805 404.619C611.739 406.386 614.028 406.125 614.413 407.698C614.723 408.966 613.325 409.469 613.574 411.004C613.816 412.493 615.226 412.596 615.514 413.946C615.887 415.69 613.672 416.167 613.217 418.487C612.695 421.155 615.278 422.288 614.437 424.624C613.872 426.192 612.641 425.892 611.964 427.67C611.152 429.801 612.506 431.373 611.402 432.291C610.581 432.974 609.395 432.469 608.897 433.206C608.444 433.876 609.277 434.516 609.005 435.38C608.623 436.595 606.549 436.691 605.35 437.395C603.978 438.201 602.807 440.36 603.907 446.414C603.987 445.522 604.269 444.207 605.35 443.173C606.838 441.75 608.336 442.301 609.644 440.855C610.872 439.498 610.237 438.311 611.727 437.31C612.591 436.73 613.076 436.948 613.646 436.342C614.524 435.408 613.766 434.474 614.189 433.154C614.854 431.079 617.37 431.392 618.345 429.361C619.135 427.717 617.676 427.114 618.02 424.53C618.397 421.701 620.252 421.637 620.342 419.334C620.45 416.601 617.871 415.884 618.338 413.255C618.622 411.656 619.67 411.393 619.524 409.966C619.366 408.424 618.103 408.345 617.371 406.518C616.456 404.235 618.013 403.322 616.998 401.567C616.048 399.922 614.408 400.284 613.696 398.656C613.02 397.115 614.325 396.41 613.67 394.79C612.983 393.09 611.302 393.262 610.711 391.694C610.083 390.025 611.826 389.404 611.654 387.284C611.44 384.635 608.595 384.087 608.764 381.689C608.872 380.146 610.078 379.989 609.959 378.499C609.814 376.681 607.975 376.347 608.002 374.737C608.026 373.281 609.537 373.09 609.693 371.446C609.852 369.769 608.474 369.43 608.518 367.929C608.587 365.536 612.239 365.233 612.801 362.55C613.251 360.401 611.133 359.521 611.918 357.645C612.657 355.877 614.866 355.877 615.064 354.361C615.239 353.02 613.554 352.696 613.45 350.977C613.347 349.288 614.928 348.873 614.798 347.12C614.697 345.769 613.731 345.646 613.407 344.282C612.91 342.185 614.963 341.489 615.229 339.231C615.641 335.735 610.941 333.409 612.121 331.543C612.555 330.855 613.737 330.434 614.005 329.116C614.067 328.809 614.061 328.552 614.049 328.397L605.826 327.329L605.826 327.329Z" fill="#BD632F"/>
    <path d="M586.929 323.399C586.446 322.481 585.78 321.072 585.238 319.277C582.155 309.059 587.094 299.537 589.079 295.71C591.032 291.946 594.183 285.87 601.231 281.406C608.49 276.807 615.62 276.619 620.072 276.502C630.205 276.235 637.505 279.582 639.049 280.316C641.457 281.461 646.535 284.175 651.337 289.444C654.634 293.061 660.298 299.276 660.348 308.107C660.37 312.005 659.291 315.15 658.437 317.098C658.968 317.677 659.952 318.931 660.176 320.742C660.217 321.071 660.538 323.673 659.144 324.7C658.789 324.962 658.361 325.063 658.361 325.063C657.335 325.307 656.456 324.704 656.247 324.553C656.324 324.898 656.399 325.43 656.306 326.059C656.235 326.53 655.902 328.184 654.356 328.997C653.183 329.613 651.994 329.313 651.205 329.117C650.241 328.878 649.532 328.446 649.11 328.143C648.801 328.662 648.347 329.349 647.714 330.091C647.029 330.893 646.522 331.488 645.642 331.992C645.298 332.19 644.455 332.662 643.311 332.747C642.674 332.795 642.049 332.715 640.159 332.019C639.257 331.686 638.054 331.209 636.655 330.551C636.09 331.237 635.166 332.212 633.811 333.082C632.567 333.882 631.367 334.653 629.794 334.689C628.38 334.721 627.045 333.953 624.376 332.417C623.346 331.824 622.523 331.293 621.975 330.928C621.483 331.497 620.73 332.267 619.678 333.006C618.577 333.779 617.588 334.473 616.257 334.647C614.68 334.853 613.447 334.222 611.363 333.156C609.886 332.401 608.752 331.606 607.984 331.011C607.415 331.452 606.561 332.063 605.449 332.671C603.887 333.526 603.018 334.001 601.84 333.974C600.768 333.948 600.007 333.52 598.923 332.911C598.092 332.444 596.941 331.667 595.798 330.398C595.397 330.76 594.795 331.255 593.994 331.736C593.236 332.19 592.861 332.433 592.389 332.523C590.32 332.918 588.524 331.042 588.021 330.517C587.58 330.056 586.79 329.211 586.411 327.833C585.818 325.68 586.68 323.878 586.929 323.399H586.929Z" fill="#F38F56"/>
    <path d="M625.711 281.045C625.711 281.045 625.589 280.467 624.947 280.008C622.288 278.107 609.795 281.58 609.795 281.58C609.795 281.58 598.024 287.036 597.088 290.256C596.862 291.034 597.112 291.565 597.112 291.565C597.113 291.565 597.361 292.091 598.07 292.381C599.733 293.059 604.496 287.738 610.646 285.699C610.974 285.591 611.321 285.44 611.64 285.312C617.659 282.884 624.562 283.923 625.453 282.308C625.833 281.618 625.711 281.045 625.711 281.045H625.711Z" fill="#FCE4D6"/>
    <path d="M595.658 297.012C596.579 295.946 596.7 294.544 595.929 293.882C595.158 293.219 593.787 293.546 592.866 294.612C591.946 295.678 591.825 297.08 592.596 297.743C593.367 298.405 594.738 298.078 595.658 297.012Z" fill="#FCE4D6"/>
    <path d="M646.656 290.908C645.932 290.941 644.89 291.283 644.471 292.134C643.738 293.626 645.512 295.477 645.768 295.744C646.528 296.537 648.351 297.942 649.523 297.243C650.553 296.628 650.496 294.734 650.069 293.564C649.595 292.267 648.289 290.833 646.656 290.908H646.656Z" fill="#BD632F"/>
    <path d="M646.792 299.15C645.955 300.005 646.792 302.273 647.816 302.419C648.492 302.516 649.353 301.703 649.523 300.785C649.553 300.623 649.686 299.789 649.113 299.218C648.469 298.576 647.298 298.633 646.792 299.15V299.15Z" fill="#BD632F"/>
    <path d="M651.434 297.856C651.191 298.516 651.46 299.45 652.185 299.899C652.78 300.268 653.516 300.206 654.028 299.899C654.992 299.322 655.222 297.841 654.643 297.175C653.922 296.346 651.866 296.684 651.434 297.856Z" fill="#BD632F"/>
    <path d="M650.137 303.237C649.659 303.498 649.694 304.412 649.728 305.28C649.759 306.08 649.793 306.961 650.342 307.869C650.799 308.624 652.009 310.052 653.141 309.708C654.051 309.43 654.49 308.135 654.438 307.187C654.366 305.866 653.328 305.043 652.253 304.19C651.572 303.65 650.679 302.941 650.137 303.237H650.137Z" fill="#BD632F"/>
    <path d="M654.916 302.215C654.777 302.531 654.769 303.02 655.052 303.305C655.43 303.685 656.102 303.476 656.213 303.441C657.123 303.157 657.779 302.027 657.51 301.602C657.186 301.09 655.322 301.289 654.916 302.215Z" fill="#BD632F"/>
    <path d="M656.554 307.256C656.195 308.066 655.903 308.725 655.837 309.674C655.79 310.359 655.815 311.86 656.315 311.99C656.8 312.116 657.492 310.887 658.022 309.946C658.814 308.539 659.53 307.267 659.012 306.268C658.788 305.836 658.306 305.403 657.851 305.45C657.33 305.505 657.036 306.169 656.554 307.256H656.554Z" fill="#BD632F"/>
    <path d="M652.424 311.904C651.677 312.171 650.891 312.917 651.042 313.488C651.203 314.098 652.388 314.33 653.243 314.152C654.163 313.961 655.142 313.205 655.035 312.62C654.919 311.979 653.5 311.521 652.424 311.904Z" fill="#BD632F"/>
    <path d="M644.744 287.69C644.498 288.151 644.618 288.886 645.052 289.171C645.629 289.551 646.489 288.952 646.843 288.609C646.929 288.527 647.592 287.886 647.407 287.485C647.15 286.929 645.231 286.778 644.744 287.69H644.744Z" fill="#BD632F"/>
    <path d="M642.901 290.244C643.777 289.349 642.772 287.332 642.543 286.872C642.442 286.67 641.268 284.358 640.29 284.573C639.429 284.763 638.951 286.861 639.471 288.456C639.565 288.746 640.09 290.357 641.416 290.601C641.511 290.619 642.388 290.768 642.901 290.244L642.901 290.244Z" fill="#BD632F"/>
    <path d="M640.512 292.475C640.322 292.766 640.376 293.206 640.58 293.496C640.905 293.958 641.6 294.032 642.082 293.769C642.524 293.528 642.841 292.976 642.696 292.611C642.458 292.007 640.93 291.835 640.512 292.475H640.512Z" fill="#BD632F"/>
    <path d="M653.806 317.336C653.663 317.993 653.989 318.698 654.523 318.971C655.438 319.44 656.866 318.593 656.878 317.575C656.886 316.941 656.344 316.279 655.615 316.144C654.802 315.994 653.98 316.541 653.806 317.336Z" fill="#BD632F"/>
    <path d="M646.98 305.706C646.706 306.087 646.552 306.775 646.912 307.068C647.264 307.356 647.982 307.16 648.243 306.694C648.553 306.139 648.143 305.329 647.697 305.263C647.337 305.21 647.022 305.648 646.98 305.706L646.98 305.706Z" fill="#BD632F"/>
    <path d="M650.888 316.247C650.229 316.001 649.34 316.842 648.943 317.371C648.434 318.047 648.347 318.724 648.226 319.772C648.069 321.127 647.946 322.191 648.533 322.581C649.08 322.945 650.007 322.569 650.53 322.173C651.798 321.212 651.702 319.369 651.656 318.494C651.615 317.705 651.552 316.494 650.888 316.247Z" fill="#BD632F"/>
    <path d="M589.177 305.757C588.26 306.711 587.065 308.603 587.743 309.503C588.266 310.198 589.77 310.124 590.747 309.571C592.798 308.411 593.047 304.842 592.112 304.258C591.396 303.811 589.864 305.041 589.177 305.757L589.177 305.757Z" fill="#BD632F"/>
    <path d="M588.494 300.989C587.557 301.674 587.478 303.388 588.084 303.782C588.685 304.171 590.16 303.394 590.474 302.283C590.491 302.223 590.736 301.304 590.201 300.853C589.726 300.453 588.934 300.667 588.494 300.989H588.494Z" fill="#BD632F"/>
    <path d="M586.309 313.113C586.363 314.809 586.39 315.656 586.787 316.655C587.46 318.345 589.134 320.327 590.201 319.993C591.169 319.689 591.492 317.522 591.156 315.974C590.881 314.704 590.177 313.92 588.904 312.5C588.087 311.59 587.169 310.567 586.651 310.797C586.25 310.975 586.269 311.819 586.309 313.113Z" fill="#BD632F"/>
    <path d="M592.795 311.683C592.684 312.384 592.752 313.412 593.136 313.522C593.573 313.647 594.385 312.573 594.638 311.479C594.832 310.637 594.766 309.484 594.365 309.367C593.908 309.234 592.991 310.436 592.795 311.683V311.683Z" fill="#BD632F"/>
    <path d="M589.45 323.058C589.292 323.845 589.138 325.916 590.337 326.532C591.452 327.104 593.245 326.167 593.819 324.761C594.367 323.416 593.587 322.168 593.546 322.104C593.08 321.386 592.086 320.571 591.156 320.81C590.577 320.959 590.208 321.469 589.996 321.764C589.894 321.904 589.592 322.348 589.45 323.058Z" fill="#BD632F"/>
    <path d="M593.716 317.541C593.341 317.841 592.455 318.55 592.658 319.244C592.827 319.82 593.656 320.073 594.228 320.061C595.139 320.043 595.951 319.343 596.174 318.494C596.301 318.01 596.314 317.179 595.832 316.86C595.141 316.401 593.96 317.346 593.716 317.541L593.716 317.541Z" fill="#BD632F"/>
    <path d="M594.979 326.907C595.21 327.244 595.676 327.423 596.071 327.349C596.807 327.212 597.334 326.196 596.993 325.476C596.681 324.817 595.709 324.553 595.286 324.863C595.123 324.983 595.075 325.17 594.979 325.544C594.839 326.092 594.726 326.535 594.979 326.907V326.907Z" fill="#BD632F"/>
</svg>
