<svg viewBox="0 0 1041 673" fill="none" xmlns="http://www.w3.org/2000/svg">
    <path d="M930.275 31.5285H109.538C60.3791 31.5285 20.5282 71.3795 20.5282 120.538V559.113C20.5282 608.271 60.3791 648.122 109.538 648.122H930.275C979.434 648.122 1019.29 608.271 1019.29 559.113V120.538C1019.29 71.3795 979.434 31.5285 930.275 31.5285Z" fill="#B6CEE1" stroke="#116619" stroke-width="6"/>
    <path d="M10.3469 40.3962C14.0803 43.5191 30.3873 57.8544 33.3678 82.5644C35.0452 97.2366 31.7442 112.047 23.9945 124.618C23.9917 129.075 23.989 133.532 23.9862 137.989C25.0232 137.01 49.8969 112.69 42.0007 79.7975C35.744 53.7353 13.6633 42.0771 10.3469 40.3962Z" fill="#48964E"/>
    <path d="M17.0569 128.701C8.9823 135.637 6.59974 141.986 5.91973 146.508C3.13445 165.034 25.505 175.593 28.6391 200.181C30.0691 211.399 26.9366 221.162 23.9805 227.768L23.9875 239.712C41.4527 218.375 42.4272 204.688 40.0084 196.092C35.2337 179.124 13.756 169.631 15.3641 150.788C15.5785 148.344 16.1464 145.945 17.05 143.665C17.0523 138.677 17.0547 133.689 17.0569 128.701Z" fill="#48964E"/>
    <path d="M17.0604 232.674C5.48571 244.641 4.28572 252.946 5.18191 258.219C6.62856 266.731 13.6659 268.101 22.5952 285.077C28.1058 295.553 28.5785 301.026 28.6456 303.67C28.7256 309.923 27.1173 316.082 23.9902 321.497L23.991 330.539C41.6305 318.739 42.9887 308.886 42.9599 304.851C42.9091 297.746 38.4361 291.725 29.6048 279.838C21.4098 268.807 15.4084 264.258 14.9216 255.415C14.7655 251.724 15.4991 248.049 17.0604 244.7V232.674Z" fill="#48964E"/>
    <path d="M17.0604 325.22V335.103C13.8048 340.271 12.0902 346.261 12.1177 352.369C12.5845 369.455 28.9968 376.064 34.1056 392.065C36.8704 400.725 36.9913 414.222 23.998 434.822C23.9945 430.933 23.991 427.045 23.9876 423.156C26.0384 415.924 26.4201 408.32 25.1039 400.919C20.7622 377.867 0.685835 370.851 0.0169104 353.992C-0.233507 347.682 2.15076 337.868 17.0604 325.22Z" fill="#48964E"/>
    <path d="M17.05 427.831C4.9767 444.271 4.77019 454.633 6.80512 461.054C10.6863 473.3 24.3095 476.221 27.465 490.052C29.351 498.318 26.4773 506.012 23.9944 510.935C23.9956 514.078 23.9968 517.22 23.9979 520.363C37.3567 504.069 38.2159 493.78 36.1716 487.248C32.6197 475.899 19.2638 472.709 15.9545 458.324C14.7897 452.761 15.1722 446.984 17.0604 441.623L17.05 427.831Z" fill="#48964E"/>
    <path d="M17.0612 515.065C8.99151 525.759 9.0124 531.824 10.4206 535.356C13.1376 542.17 22.1154 542.287 25.5465 550.039C28.053 555.702 26.0884 562.023 24.2826 566.146C24.3981 567.501 24.5498 568.909 24.7375 570.368C24.9274 571.825 25.1416 573.223 25.3799 574.563C36.23 556.687 35.4077 548.633 32.7037 544.579C28.6327 538.476 17.7069 537.555 16.3971 530.191C16.1254 528.432 16.3546 526.631 17.0587 524.996L17.0612 515.065Z" fill="#48964E"/>
    <path d="M18.0222 572.507C13.0892 583.935 14.5023 589.32 16.4895 592.115C20.584 597.873 29.2555 595.641 37.1308 602.851C40.4592 606 42.9026 609.968 44.2168 614.358C44.9419 615.213 45.7119 616.085 46.5267 616.972C47.3524 617.869 48.1675 618.718 48.972 619.52C49.211 604.959 45.11 599.01 41.3366 596.265C34.4535 591.258 24.7423 594.061 20.6399 587.632C19.2122 585.118 18.7262 582.177 19.2688 579.337C19.0586 578.382 18.8583 577.399 18.6681 576.389C18.4184 575.057 18.2031 573.763 18.0222 572.507Z" fill="#48964E"/>
    <path d="M42.0031 622.283C46.7911 638.508 53.2136 643.192 57.9382 644.631C66.9854 647.388 73.8136 639.441 88.7123 639.365C96.1929 639.413 103.556 641.227 110.203 644.66L119.037 644.657C102.87 630.479 91.01 628.438 82.73 629.801C72.3763 631.505 63.8322 639.154 54.9499 635.224C51.4655 633.513 48.6522 630.688 46.9564 627.196C46.2082 626.514 45.4495 625.795 44.6803 625.04C43.7328 624.108 42.8404 623.189 42.0031 622.283Z" fill="#48964E"/>
    <path d="M115.106 651.591C127.369 659.207 134.715 658.829 139.176 657.027C145.937 654.296 147.67 647.647 156.146 644.779C160.852 643.316 165.884 643.273 170.614 644.655H177.173C165.138 636.785 157.597 636.827 152.826 638.581C144.69 641.572 140.989 650.87 130.321 652.01C128.053 652.244 125.761 652.1 123.54 651.584L115.106 651.591Z" fill="#48964E"/>
    <path d="M176.174 651.59C191.651 661.554 201.029 661.231 206.763 659.02C215.799 655.534 218.489 646.308 229.636 643.525C235.059 642.31 240.718 642.705 245.919 644.66L253.388 644.657C239.944 633.895 230.994 633.305 225.357 634.671C213.782 637.475 209.318 650.187 194.515 652.342C190.476 652.902 186.366 652.647 182.428 651.591L176.174 651.59Z" fill="#48964E"/>
    <path d="M249.258 651.582C265.838 664.48 276.984 665.311 284.237 663.447C296.849 660.205 300.696 648.04 316.407 643.82C324.23 641.89 332.436 642.182 340.102 644.66L351.961 644.655C333.752 633.539 321.409 633.567 313.345 635.888C299.746 639.802 293.8 651.537 277.043 653.596C270.737 654.311 264.351 653.625 258.341 651.587L249.258 651.582Z" fill="#48964E"/>
    <path d="M345.465 651.591C365.599 662.904 377.705 661.874 385.027 658.872C394.833 654.852 399.56 645.86 412.771 643.525C418.459 642.583 424.289 642.969 429.804 644.655L443.017 644.658C425.156 629.441 413.953 628.334 406.868 630.539C395.057 634.214 392.044 647.915 376.764 652.231C370.046 653.964 362.974 653.737 356.381 651.577L345.465 651.591Z" fill="#48964E"/>
    <path d="M436.307 651.584C442.658 655.453 452.538 660.082 464.273 659.315C481.079 658.216 487.83 646.955 505.592 642.197C514.149 639.904 527.156 638.613 545.113 644.65L557.538 644.652C526.411 625.02 509.136 625.608 498.952 630.686C488.018 636.138 480.788 648.994 462.926 651.881C457.708 652.701 452.387 652.6 447.203 651.584H436.307Z" fill="#48964E"/>
    <path d="M562.702 651.585C568.452 653.494 574.507 654.314 580.558 654.002C600.049 652.891 608.674 639.807 623.353 634.671C633.854 630.996 650.008 630.496 674.713 644.655L660.42 644.66C650.354 641.913 639.791 641.525 629.551 643.525C608.509 647.856 601.319 660.833 583.509 662.119C576.428 662.63 565.421 661.455 551.171 651.587L562.702 651.585Z" fill="#48964E"/>
    <path d="M678.232 651.584C690.721 656.031 703.969 657.957 717.208 657.249C748.6 655.366 762.648 638.53 787.599 631.572C805.047 626.706 831.514 625.641 869.511 644.671L852.521 644.66C835.629 641.292 818.247 641.207 801.323 644.41C765.319 651.434 753.078 670.21 724.734 672.301C710.686 673.337 690.342 670.448 664.51 651.591L678.232 651.584Z" fill="#48964E"/>
    <path d="M863.063 651.567C886.607 667.621 902.874 668.248 913.514 665.66C932.602 661.019 935.367 645.599 956.862 642.787C972.959 640.681 980.122 648.188 995.268 643.23C1005.77 639.793 1012.88 632.731 1017.11 627.587C1009.96 632.466 1001.87 635.785 993.35 637.327C976.852 640.181 972.486 633.405 958.485 634.671C935.888 636.714 931.904 655.755 909.678 658.725C898.771 660.182 888.074 657.154 877.949 651.549L863.063 651.567Z" fill="#48964E"/>
    <path d="M999.208 69.8698C997.078 77.8959 996.929 86.3192 998.772 94.4161C1003.46 113.868 1018.27 119.09 1024.6 136.621C1027.5 144.66 1029.28 157.114 1022.75 175.443L1022.76 186.227C1042.99 157.86 1042.88 141.801 1038.91 132.342C1033.64 119.792 1018.97 112.695 1008.05 87.2683C1006.39 83.4222 1005.27 80.1954 1004.61 78.1808C1004.06 77.2256 1003.48 76.2551 1002.86 75.2693C1001.65 73.3353 1000.43 71.5367 999.208 69.8698Z" fill="#48964E"/>
    <path d="M1015.82 180.961C1011.89 187.507 1007.1 197.909 1008.95 209.578C1011.34 224.602 1022.78 229.453 1027.25 244.773C1029.47 252.361 1030.52 264.371 1022.75 281.839V294.295C1042.18 265.974 1041.87 250.456 1037.66 241.453C1032.33 230.076 1018.31 223.862 1015.52 206.479C1014.82 201.997 1014.92 197.427 1015.82 192.98V180.961Z" fill="#48964E"/>
    <path d="M1015.82 288.046C1006.9 300.577 1006.59 308.452 1008.44 313.504C1011.7 322.443 1022.43 324.583 1024.6 334.976C1025.36 339.343 1024.71 343.839 1022.75 347.816L1022.76 356.235C1032.27 345.732 1033.16 338.662 1032.12 334.09C1029.58 322.9 1013.72 319.142 1013.31 307.528C1013.28 304.468 1014.15 301.468 1015.81 298.9L1015.82 288.046Z" fill="#48964E"/>
    <path d="M1015.82 351.992C1005.73 364.487 1004.91 372.978 1006.3 378.586C1009.03 389.572 1021.11 392.861 1024.01 406.33C1025.05 411.659 1024.61 417.171 1022.75 422.272V434.384C1035.55 419.748 1036.56 410.288 1034.93 404.264C1031.75 392.556 1017.13 388.512 1014.86 373.569C1014.29 369.557 1014.62 365.469 1015.82 361.6L1015.82 351.992Z" fill="#48964E"/>
    <path d="M1015.82 426.515C1004.79 443.25 1004.97 453.074 1007.55 459.062C1011.73 468.749 1023.75 471.98 1025.04 483.19C1025.39 487.06 1024.59 490.946 1022.75 494.368L1022.75 503.382C1032.03 494.909 1033.54 488.412 1033.23 484.075C1032.34 471.543 1015.58 466.621 1013.75 451.093C1013.29 446.597 1014.01 442.06 1015.82 437.921L1015.82 426.515Z" fill="#48964E"/>
    <path d="M1015.82 499.014C1007.02 507.596 1005.4 514.24 1005.86 518.975C1006.87 529.57 1018.51 532.74 1023.27 545.39C1026.88 554.982 1024.61 564.882 1021.83 572.165C1021.6 573.851 1021.3 575.628 1020.93 577.483C1020.57 579.278 1020.17 580.978 1019.75 582.576C1036.03 561.403 1036.46 549.678 1033.45 542.808C1028.98 532.623 1014.59 527.777 1014.27 515.286C1014.22 512.647 1014.75 510.03 1015.82 507.617L1015.82 499.014Z" fill="#48964E"/>
    <path d="M1014.2 575.757C1009.84 580.03 1006.56 585.276 1004.62 591.064C1001.29 601.346 1004.9 606.523 1000.52 615.745C999.569 617.76 996.178 624.913 989.124 628.141C977.107 633.64 963.034 623.823 962.617 624.765C962.192 625.726 975.865 638.171 990.342 634.283C997.405 632.386 1005.59 626.476 1007.66 618.456C1009.61 610.929 1007.55 596.224 1009.29 592.035C1009.35 591.892 1009.8 590.836 1010.36 589.358C1010.98 587.685 1011.45 586.25 1011.78 585.179C1012.3 583.51 1012.81 581.738 1013.27 579.868C1013.63 578.455 1013.94 577.085 1014.2 575.757Z" fill="#48964E"/>
    <path d="M1001.47 61.5114C1001.37 56.6351 1000.25 51.8343 998.181 47.4151C991.658 33.5863 977.938 28.8425 974.865 27.862C988.36 26.1976 1001.09 32.6254 1006.59 43.5783C1012.43 55.2029 1007.59 66.8654 1006.81 68.643C1005.94 67.3385 1004.98 65.9914 1003.94 64.6156C1003.11 63.5224 1002.29 62.4876 1001.47 61.5114Z" fill="#48964E"/>
    <path d="M43.1074 75.3058C44.178 75.238 38.4338 54.3328 49.1947 41.4384C57.8654 31.0486 73.9217 29.8507 87.2125 30.7765C89.4119 30.2335 91.3744 29.8335 93.0296 29.5356C94.0802 29.3464 95.6591 29.081 97.592 28.8307C98.9585 28.6539 100.173 28.5271 101.193 28.4349C76.8268 18.8415 53.2042 23.3874 43.6608 37.2327C33.201 52.4074 41.9815 75.377 43.1074 75.3058Z" fill="#48964E"/>
    <path d="M93.9102 36.4152C102.92 41.8453 116.869 48.1998 132.092 45.3122C149.99 41.9171 155.559 28.4282 174.15 22.9922C183.451 20.2727 198.036 18.9772 219.103 28.0634H236.353C199.711 5.44149 178.684 6.07507 165.96 12.2196C151.449 19.2267 139.936 37.1661 118.258 37.0115C114.152 36.9709 110.076 36.3133 106.166 35.0608C103.849 35.1485 101.363 35.337 98.7344 35.6677C97.0497 35.8796 95.4402 36.1331 93.9102 36.4152Z" fill="#48964E"/>
    <path d="M228.079 34.994C228.944 35.3655 230.199 35.8987 231.72 36.5247C233.329 37.2753 234.978 37.935 236.661 38.5009C240.168 39.6001 245.142 41.035 251.186 42.359C257.024 43.638 276.468 46.4508 289.033 46.3082C320.503 45.951 334.661 25.56 366.507 19.7456C380.473 17.1958 400.921 16.8869 427.844 28.053C437.861 28.0582 447.878 28.0634 457.896 28.0685C399.445 -5.47043 365.669 -2.9533 345.479 6.02161C327.021 14.2264 308.788 32.7752 274.516 36.1947C264.406 37.1846 254.208 36.7811 244.207 34.9957L228.079 34.994Z" fill="#48964E"/>
    <path d="M437.286 34.9914C465.596 51.2299 483.707 50.326 495.115 46.3082C510.947 40.7325 518.143 27.6528 538.058 24.6155C547.925 23.263 557.975 24.4497 567.256 28.0634H586.506C555.693 5.68429 537.191 4.95595 525.662 9.56331C510.09 15.7864 504.033 33.0253 483.162 37.0114C474.91 38.4536 466.427 37.7578 458.521 34.9905C451.443 34.9908 444.364 34.9911 437.286 34.9914Z" fill="#48964E"/>
    <path d="M571.485 34.9957C596.982 49.3601 614.019 48.7852 625.05 45.3121C642.733 39.7448 651.283 24.7466 672.199 23.5087C680.314 23.1283 688.403 24.6898 695.793 28.0634H718.178C696.641 9.28632 680.986 6.98964 670.428 8.67782C649.18 12.0756 638.772 33.1835 609.666 35.9045C603.46 36.4718 597.205 36.1641 591.084 34.9904C584.551 34.9922 578.018 34.994 571.485 34.9957Z" fill="#48964E"/>
    <path d="M703.477 34.994C726.783 49.3467 740.366 48.8083 748.64 44.9801C759.428 39.9895 761.813 29.122 774.613 24.9106C784.974 21.5015 795.456 24.6605 802.943 28.0599C808.95 28.0605 814.957 28.0611 820.964 28.0617C789.526 7.85254 773.908 8.26014 765.463 13.4001C755.427 19.5093 753.178 33.732 739.786 37.3065C732.496 39.2524 725.543 37.0715 720.901 34.9957L703.477 34.994Z" fill="#48964E"/>
    <path d="M809.739 34.9931C815.789 39.6486 825.205 45.3045 836.74 45.2753C856.236 45.2261 864.499 28.9799 885.881 23.2874C895.544 20.7147 910.126 19.7014 930.432 28.0634C933.816 28.0668 937.197 28.2546 940.56 28.6259C943.741 28.9771 946.679 29.4677 949.349 30.0244C907.174 3.31472 886.881 4.66513 876.141 11.039C865.409 17.408 857.069 33.0336 838.068 35.5357C833.569 36.1109 829.005 35.9275 824.567 34.9931H809.739Z" fill="#48964E"/>
    <path d="M934.578 35.0669C941.184 39.498 948.551 42.6711 956.309 44.4268C966.959 46.7913 978.032 46.4488 988.516 43.4307C979.796 43.5594 971.096 42.5926 962.617 40.553C959.399 39.7762 956.384 38.8836 953.578 37.9281C947.375 36.2526 941 35.2927 934.578 35.0669V35.0669Z" fill="#48964E"/>
    <path d="M101.41 35.4048C107.838 38.3593 117.565 41.6527 128.908 40.4694C152.537 38.0046 160.464 18.485 181.344 14.101C191.498 11.9689 206.67 13.0066 227.939 28.0634C226.906 28.0455 225.873 28.0275 224.84 28.0096C205.872 15.3877 191.931 14.5196 182.672 16.0932C160.602 19.8442 152.631 39.5941 129.016 42.2109C116.358 43.6134 105.462 39.3998 98.4162 35.7754L101.41 35.4048Z" fill="#76B779"/>
    <path d="M95.3166 29.1536C85.4727 25.4876 74.7352 24.9592 64.5788 27.6407C59.6373 29.0252 51.9161 31.1809 46.4277 38.2288C39.199 47.5115 40.6058 58.6408 41.0045 61.2498C40.6717 58.7011 39.5176 47.6986 46.8534 38.7216C52.3326 32.0165 60.2123 29.9397 64.8739 28.7106C73.9135 26.4302 83.4148 26.7632 92.2725 29.6711C93.2873 29.4985 94.302 29.3261 95.3166 29.1536Z" fill="#76B779"/>
    <path d="M237.66 34.9823C252 39.4528 273.205 43.7283 297.002 38.7822C330.164 31.8895 340.922 12.7916 368.942 7.64491C385.526 4.59893 410.17 6.06971 443.834 28.0613L439.167 28.0649C408.29 9.14934 385.263 7.93983 369.975 10.3012C340.724 14.8193 329.915 33.9371 297.666 40.8482C271.862 46.3781 248.691 40.5865 233.399 34.9946C234.82 34.9906 236.24 34.9864 237.66 34.9823Z" fill="#76B779"/>
    <path d="M444.941 34.9912C452.929 40.0391 465.38 46.0804 479.841 44.6481C504.225 42.2332 513.083 20.6748 537.726 17.8641C546.079 16.9114 558.71 17.8318 575.226 28.0738L578.428 28.0634C560.424 15.2718 546.765 13.831 537.394 15.0972C514.3 18.2174 505.779 39.3249 480.948 41.9918C467.882 43.3952 456.562 39.0194 448.925 35.0007C447.597 34.9976 446.269 34.9944 444.941 34.9912Z" fill="#76B779"/>
    <path d="M578.18 34.9873C595.154 43.6952 608.029 44.0214 616.417 42.8772C642.702 39.292 652.867 17.4572 676.737 17.5321C689.165 17.5711 699.182 23.5302 705.282 28.0599C706.237 28.0611 707.192 28.0623 708.147 28.0634C694.849 16.8455 684.006 14.7085 676.847 14.6545C653.408 14.4776 643.263 36.4358 616.085 40.3317C601.595 42.4089 589.063 38.3766 581.209 34.9905L578.18 34.9873Z" fill="#76B779"/>
    <path d="M710.788 34.9947C718.061 40.2465 728.459 45.7932 739.491 43.7627C755.801 40.7608 759.939 23.6929 776.605 19.5981C783.78 17.8351 794.554 18.163 809.898 28.0606L812.55 28.0609C794.731 15.2624 782.829 14.6367 774.982 16.9418C759.326 21.5405 755.487 39.0733 739.159 41.8811C729.507 43.5409 720.566 39.1829 714.296 34.9957C713.126 34.9953 711.957 34.995 710.788 34.9947Z" fill="#76B779"/>
    <path d="M814.955 34.9931C819.827 38.1992 827.321 42.0445 836.555 42.2132C858.284 42.6099 867.535 22.245 889.127 16.9787C899.451 14.4606 914.822 14.852 936.534 28.2863C937.876 28.3995 939.218 28.5127 940.56 28.6259C915.515 11.7737 898.952 11.6916 888.574 14.5438C868.697 20.0065 859.238 39.606 836.887 39.6676C830.25 39.6106 823.717 38.0112 817.804 34.9957C816.854 34.9949 815.905 34.994 814.955 34.9931Z" fill="#76B779"/>
    <path d="M942.44 35.713C946.569 38.605 951.123 40.8354 955.94 42.3239C963.469 44.634 970.024 44.5734 970.051 44.3714C965.338 43.7267 960.69 42.6713 956.161 41.2171C952.257 39.881 948.499 38.1504 944.946 36.0521C944.11 35.9391 943.275 35.826 942.44 35.713Z" fill="#76B779"/>
    <path d="M988.516 31.625C991.866 32.7214 994.959 34.4872 997.607 36.8153C1000.25 39.1435 1002.4 41.9854 1003.92 45.1685C1005.43 48.3515 1006.28 51.8094 1006.42 55.3321C1006.56 58.8548 1005.98 62.3689 1004.72 65.6609L1003.26 63.7362C1005.12 57.5055 1004.64 50.8135 1001.93 44.9062C999.217 38.999 994.45 34.279 988.516 31.625V31.625Z" fill="#76B779"/>
    <path d="M1000.89 72.2494C1000.26 82.8465 1002.22 93.4377 1006.61 103.106C1014.89 120.768 1027.3 124.15 1031.79 138.06C1034.42 146.21 1034.63 158.89 1022.75 178.194L1022.75 180.961C1037.32 159.553 1037.47 145.875 1034.56 137.175C1030.09 123.821 1017.69 120.015 1008.88 100.872C1005.12 92.5862 1002.93 83.6725 1002.43 74.5864C1001.92 73.8075 1001.4 73.0284 1000.89 72.2494Z" fill="#76B779"/>
    <path d="M1015.82 184.986C1013.41 189.821 1010.25 197.931 1011.24 207.509C1013.17 226.011 1028.77 232.242 1032.34 249.345C1033.89 256.745 1033.67 268.5 1022.75 285.279V288.046C1036.28 269.414 1036.85 256.783 1034.85 248.681C1030.95 232.842 1015.36 226.727 1013.09 207.878C1012.36 201.084 1013.32 194.216 1015.89 187.882L1015.82 184.986Z" fill="#76B779"/>
    <path d="M1015.82 292.088C1009.52 300.359 1009.12 306.243 1009.77 309.963C1011.78 321.513 1026.15 324.672 1027.58 336.083C1028.33 342.038 1025.19 347.306 1022.75 350.54L1022.75 351.993C1029 345.097 1029.85 339.901 1029.47 336.415C1028.21 325.102 1012.73 321.778 1010.98 309.852C1010.1 303.818 1013.13 298.335 1015.81 294.662L1015.82 292.088Z" fill="#76B779"/>
    <path d="M1015.82 354.877C1009.05 365.795 1009 373.435 1010.13 378.341C1013.12 391.204 1026.44 394.586 1028.43 407.117C1029.67 414.86 1025.9 421.893 1022.75 426.431V429.612C1031.05 419.546 1031.86 412.226 1031.16 407.486C1029.35 395.193 1016.11 391.535 1012.94 377.603C1011.09 369.49 1013.6 362.01 1015.82 357.202L1015.82 354.877Z" fill="#76B779"/>
    <path d="M1015.82 431.54C1008.4 442.61 1008.31 450.201 1009.4 454.93C1012.39 467.941 1027.27 472.146 1027.7 484.296C1027.89 489.927 1024.89 494.552 1022.75 497.237L1022.75 499.561C1026.34 495.827 1030.01 490.629 1029.76 484.592C1029.27 472.672 1013.94 468.563 1011.09 454.856C1010.08 449.965 1010.53 443.248 1015.82 434.381V431.54Z" fill="#76B779"/>
    <path d="M1015.82 501.71C1012.2 505.779 1008.04 511.875 1008.73 518.754C1009.91 530.546 1024.14 533.781 1028.14 546.46C1029.93 552.144 1030.12 561.166 1021.39 575.016L1020.97 577.285C1032.6 561.775 1032.9 552.126 1030.91 546.128C1027.02 534.456 1012.63 531.24 1011.32 519.049C1010.67 513.035 1013.52 507.801 1015.82 504.514V501.71Z" fill="#76B779"/>
    <path d="M1013.28 579.796C1009.56 584.263 1006.96 589.556 1005.71 595.232C1003.78 604.436 1007.17 608.128 1004.05 616.335C1002.26 621.337 998.873 625.614 994.418 628.509C990.52 630.91 986.009 632.127 981.432 632.014C986.042 632.394 990.662 631.406 994.714 629.174C999.559 626.322 1003.26 621.875 1005.19 616.593C1008.15 608.792 1005.06 604.977 1007.15 595.343C1008.18 590.641 1010.06 586.164 1012.68 582.125L1013.28 579.796Z" fill="#76B779"/>
    <path d="M997.001 639.983C997.064 640.333 990.231 642.707 981.801 642.934C972.39 643.188 966.73 640.613 962.47 639.688C942.876 635.435 931.042 661.361 907.498 664.948C898.802 666.273 885.711 664.976 867.933 651.561L872.47 651.556C887.78 663.167 899.182 664.259 906.393 663.447C930.198 660.764 941.56 633.571 961.584 637.474C966.077 638.35 970.601 640.712 979.883 641.164C989.645 641.638 996.936 639.623 997.001 639.983Z" fill="#76B779"/>
    <path d="M859.281 644.664C846.215 639.293 824.975 632.842 800.917 637.437C768.848 643.563 757.616 664.379 727.649 667.652C715.114 669.021 695.5 667.736 669.584 651.59L674.313 651.588C685.418 658.133 703.568 666.516 724.992 664.553C755.92 661.72 767.454 639.729 798.925 633.453C812.761 630.694 834.433 630.178 864.262 644.667L859.281 644.664Z" fill="#76B779"/>
    <path d="M664.037 644.687C651.154 638.458 640.62 637.651 632.355 638.876C610.917 642.054 603.216 659.13 583.214 660.348C572.328 661.011 562.681 656.679 555.065 651.586L558.275 651.567C563.675 654.63 572.348 658.476 582.771 657.913C602.953 656.821 610.581 640.23 630.473 636.441C638.605 634.893 651.06 635.05 668.132 644.663L664.037 644.687Z" fill="#76B779"/>
    <path d="M549.273 644.651C527.307 632.848 512.883 633.741 503.748 636.773C488.389 641.872 482.538 654.827 465.564 656.917C455.012 658.215 445.881 654.611 440.071 651.584H443.613C450.165 654.716 457.453 655.987 464.678 655.256C482.171 653.136 488.125 638.533 502.641 633.066C511.819 629.609 527.077 628.802 552.323 644.651L549.273 644.651Z" fill="#76B779"/>
    <path d="M436.493 644.699C425.159 635.342 416.761 634.257 411.147 635.039C396.579 637.07 392.128 652.885 376.026 656.068C366.737 657.905 358.204 654.622 352.47 651.582L349.186 651.586C361.832 658.828 370.85 658.786 376.542 657.618C392.27 654.389 397.166 639.573 412.18 637.991C421.167 637.044 428.928 641.349 433.652 644.656L436.493 644.699Z" fill="#76B779"/>
    <path d="M343.431 644.659C338.235 642.101 329.583 638.814 319.691 640.37C302.42 643.088 297.038 658.105 281.064 660.569C274.988 661.506 265.331 660.943 252.012 651.579L255.498 651.583C261.237 655.047 270.054 659.071 280.068 657.747C296.509 655.573 301.906 640.871 318.473 638.046C324.612 637 333.915 637.306 346.475 644.657L343.431 644.659Z" fill="#76B779"/>
    <path d="M247.944 644.659C242.921 641.619 235.444 638.27 227.644 640.094C217.346 642.502 214.939 651.951 204.641 655.533C199.415 657.351 191.182 657.998 178.634 651.591L180.69 651.591C186.805 654.03 195.311 656.168 203.756 653.264C214.324 649.631 216.651 640.901 226.316 638.323C231.472 636.947 239.267 637.176 250.6 644.659H247.944Z" fill="#76B779"/>
    <path d="M175.127 644.655C166.239 639.155 160.08 639.112 156.054 640.149C146.567 642.594 143.858 652.346 133.808 653.984C129.396 654.556 124.916 653.717 121.011 651.586L118.41 651.588C125.345 655.862 130.57 656.207 134.25 655.533C144.054 653.738 146.739 644.014 156.829 641.754C162.921 640.389 168.708 642.419 172.988 644.655H175.127Z" fill="#76B779"/>
    <path d="M113.48 644.655C100.881 635.725 91.2151 634.611 84.6116 635.335C72.9819 636.61 67.4533 643.96 59.0089 641.91C50.9138 639.944 46.2258 630.817 43.6255 623.984L45.2295 625.576C47.9039 631.28 52.4118 638.401 59.5984 640.094C68.0881 642.094 73.6296 634.944 84.0212 633.269C91.1384 632.121 101.672 633.358 116.069 644.659L113.48 644.655Z" fill="#76B779"/>
    <path d="M45.3947 615.708C45.0881 611.126 43.8752 604.984 39.3444 600.729C31.9806 593.815 21.6087 597.29 17.4301 591.064C15.7766 588.6 14.7742 584.141 18.4904 575.414C18.6191 576.098 18.7477 576.782 18.8762 577.465C17.2405 581.599 15.9684 586.871 18.4262 590.621C22.4531 596.765 32.7686 593.143 40.156 599.475C43.5126 602.352 46.5172 607.5 46.7931 617.26C46.3269 616.743 45.8608 616.225 45.3947 615.708Z" fill="#76B779"/>
    <path d="M24.5267 568.625C30.1619 559.396 29.8582 553.748 28.498 550.279C25.3031 542.13 14.6376 541.809 12.2284 534.009C10.5306 528.513 13.9362 522.549 17.0604 518.385L17.0598 520.986C15.0042 524.117 12.5214 529.002 13.8886 533.788C16.1852 541.828 27.2138 542.118 30.4902 549.892C32.026 553.536 32.245 559.742 24.7701 570.615L24.5267 568.625Z" fill="#76B779"/>
    <path d="M23.9954 513.617C27.8757 508.27 32.3657 500.169 30.8776 491.398C28.5162 477.48 13.1498 473.942 9.8488 459.745C8.55186 454.166 8.79209 445.544 17.0541 433.163L17.0568 436.816C13.8066 442.419 10.3751 450.579 12.2284 459.246C15.3589 473.887 30.8829 477.417 33.3125 490.9C34.2915 496.333 33.3424 504.481 23.9963 515.83L23.9954 513.617Z" fill="#76B779"/>
    <path d="M23.9879 426.901C27.3632 419.487 31.1935 407.891 28.0553 395.533C22.9748 375.526 3.68727 369.495 3.33725 353.254C3.2183 347.736 5.24806 339.291 17.0604 328.665V331.654C12.0455 336.702 6.43255 344.146 6.53753 353.096C6.72924 369.433 25.7937 375.553 30.7853 394.5C32.8483 402.331 32.9074 413.871 24.0156 430.083C24.0063 429.022 23.9971 427.962 23.9879 426.901Z" fill="#76B779"/>
    <path d="M23.9904 324.704C33.2302 315.786 34.4585 308.487 34.4745 304.519C34.4838 302.232 34.1043 297.556 21.7466 278.953C12.536 265.087 9.34725 262.567 8.90797 256.485C8.33726 248.583 12.9182 241.727 17.0604 237.043V240.621C14.4345 244.232 11.4841 249.593 11.7856 255.932C12.1125 262.803 16.0476 266.351 23.4068 276.85C32.9914 290.523 37.7837 297.36 37.7948 304.519C37.8022 309.238 35.9793 317.228 23.9906 327.001L23.9904 324.704Z" fill="#76B779"/>
    <path d="M23.9829 231.693C32.8396 219.498 34.1486 209.883 33.7367 203.397C32.2585 180.113 6.81397 168.925 9.46146 148.722C10.3856 142.973 13.0399 137.642 17.0705 133.439C17.0637 134.7 17.0568 135.96 17.0501 137.22C14.3671 140.553 12.5691 144.509 11.8226 148.722C8.58694 168.77 34.9488 180.476 36.9095 202.806C37.5483 210.082 35.8002 220.798 23.9846 234.682L23.9829 231.693Z" fill="#76B779"/>
    <path d="M23.9916 129.261C32.5178 118.862 37.3702 105.938 37.7949 92.4977C38.0244 81.6521 35.3223 70.9457 29.9737 61.5079C36.3822 70.5913 39.9282 81.3835 40.1561 92.4977C40.4759 114.728 26.8922 129.321 23.9897 132.305L23.9916 129.261Z" fill="#76B779"/>
    <path d="M432.396 219.963C430.341 216.857 427.303 213.097 422.897 209.738C405.176 196.232 382.194 202.063 377.629 203.39C371.368 205.21 366.434 207.78 363.161 209.738C365.114 209.891 368.194 210.371 371.601 211.986C374.883 213.543 377.15 215.528 378.501 216.908C383.9 214.922 393.054 212.328 404.574 212.778C417.358 213.278 427.08 217.292 432.396 219.963H432.396Z" fill="#594C9F"/>
    <path d="M422.069 281.454C418.38 283.956 413.321 286.767 406.931 288.723C392.796 293.05 380.502 290.634 374.56 289.016C375.511 288.859 376.916 288.542 378.506 287.844C380.3 287.058 381.704 286.456 382.525 284.988C383.139 283.888 383.173 282.762 383.128 282.077C387.615 283.34 393.726 284.565 401.018 284.622C409.864 284.692 417.117 283.019 422.069 281.454Z" fill="#594C9F"/>
    <path d="M310.221 285.009C311.277 284.049 315.361 279.951 317.456 276.384C321.704 269.147 317.719 264.165 321.182 257.267C322.507 254.628 325.227 251.172 331.352 248.366C325.226 245.56 322.506 242.104 321.181 239.465C317.718 232.567 321.703 227.585 317.455 220.348C315.36 216.781 311.275 212.683 310.22 211.723C309.366 210.946 308.522 210.35 308.522 210.35C306.922 209.221 305.974 208.972 306.001 208.867C306.129 208.367 329.197 207.927 341.02 222.069C345.541 227.477 347.169 233.524 347.84 237.484C350.573 234.13 368.23 213.187 398.674 211.668C414.845 210.862 427.878 216.569 432.234 218.627C442.778 223.61 449.381 229.896 451.285 231.775C457.429 237.835 461.261 243.974 463.562 248.368C461.251 252.744 457.413 258.904 451.286 264.958C429.825 286.163 401.398 285.2 398.675 285.064C368.231 283.545 350.574 262.602 347.841 259.248C347.17 263.208 345.542 269.255 341.021 274.663C329.198 288.805 306.13 288.365 306.002 287.865C305.975 287.761 306.923 287.512 308.523 286.382C308.523 286.382 309.367 285.786 310.221 285.009Z" fill="#756EBA"/>
    <path d="M310.221 285.009C311.277 284.049 315.361 279.951 317.456 276.384C321.704 269.147 317.719 264.165 321.182 257.267C322.507 254.628 325.227 251.172 331.352 248.366C325.226 245.56 322.506 242.104 321.181 239.465C317.718 232.567 321.703 227.585 317.455 220.348C315.36 216.781 311.275 212.683 310.22 211.723C309.366 210.946 308.522 210.35 308.522 210.35C307.926 209.93 307.421 209.631 307.023 209.417C306.242 208.997 305.99 208.953 306.001 208.867C306.045 208.501 310.691 208.548 315.573 209.303C316.424 209.435 317.852 209.676 319.606 210.081C323.074 210.882 325.556 211.801 326.343 212.1C327.905 212.694 329.034 213.217 329.366 213.372C329.753 213.554 331.037 214.162 332.67 215.099C332.957 215.263 333.248 215.431 333.616 215.657C333.989 215.886 335.262 216.68 336.752 217.888C339.097 219.788 340.672 221.653 341.02 222.069C342.493 223.834 343.443 225.387 343.915 226.205C344.195 226.69 345.108 228.305 346.005 230.658C346.631 232.299 347.68 235.06 347.84 237.484C348.172 242.503 344.728 246.665 343.117 248.375C344.652 250.137 347.521 253.969 347.841 259.248C348.298 266.788 343.129 272.142 341.021 274.663C329.198 288.805 306.13 288.365 306.002 287.865C305.975 287.761 306.923 287.512 308.523 286.382C308.523 286.382 309.367 285.786 310.221 285.009H310.221Z" fill="#8A89C6"/>
    <path d="M432.232 218.627C437.109 220.864 444.269 224.855 451.284 231.774C456.134 236.559 459.535 241.385 461.904 245.406C461.931 245.383 461.95 245.358 461.979 245.335C462.727 244.759 463.576 244.806 463.924 244.825C464.434 244.853 465.08 244.889 465.377 245.351C465.687 245.835 465.424 246.484 465.327 246.721C464.935 247.689 464.02 248.126 463.527 248.305C463.538 248.325 463.55 248.347 463.561 248.367C463.549 248.39 463.534 248.416 463.522 248.439C463.706 248.467 463.913 248.507 464.159 248.581C464.67 248.736 464.948 248.82 465.149 249.09C465.34 249.345 465.442 249.738 465.317 250.086C465.147 250.56 464.638 250.728 464.29 250.842C463.842 250.99 463.473 250.965 462.991 250.928C462.65 250.902 462.393 250.881 462.179 250.843C459.813 254.919 456.336 259.966 451.285 264.957C448.987 267.227 446.925 268.904 446.005 269.636C441.469 273.247 437.214 275.671 434.002 277.26C431.224 273.203 424.013 261.521 424.431 245.179C424.759 232.36 429.62 222.958 432.232 218.627L432.232 218.627Z" fill="#8A89C6"/>
    <path d="M394.979 229.323C391.613 228.737 388.486 231.069 388.052 234.186C387.662 236.983 389.524 239.816 392.467 240.603C390.066 239.481 388.654 236.991 388.952 234.514C389.296 231.647 391.866 229.347 394.979 229.323H394.979Z" fill="#594C9F"/>
    <path d="M392.309 242.413C388.902 242.144 386.006 244.76 385.864 247.903C385.737 250.724 387.855 253.371 390.859 253.878C388.363 252.986 386.725 250.639 386.791 248.146C386.866 245.259 389.21 242.728 392.309 242.413Z" fill="#594C9F"/>
    <path d="M400.597 217.537C397.469 216.157 393.875 217.669 392.706 220.59C391.658 223.211 392.786 226.41 395.455 227.882C393.392 226.214 392.619 223.457 393.501 221.125C394.523 218.424 397.568 216.81 400.597 217.537H400.597Z" fill="#594C9F"/>
    <path d="M395.173 267.777C392.066 269.202 390.803 272.898 392.203 275.715C393.46 278.242 396.594 279.524 399.465 278.504C396.851 278.94 394.282 277.686 393.13 275.475C391.797 272.915 392.618 269.561 395.173 267.777Z" fill="#594C9F"/>
    <path d="M391.07 255.614C387.856 256.778 386.295 260.358 387.46 263.28C388.505 265.903 391.524 267.438 394.468 266.658C391.828 266.877 389.37 265.416 388.403 263.118C387.284 260.457 388.377 257.182 391.07 255.614V255.614Z" fill="#594C9F"/>
    <path d="M405.736 230.911C402.843 230.408 400.155 232.412 399.782 235.09C399.448 237.494 401.048 239.929 403.577 240.604C401.513 239.64 400.3 237.5 400.556 235.372C400.852 232.908 403.06 230.932 405.736 230.911H405.736Z" fill="#594C9F"/>
    <path d="M403.44 242.16C400.513 241.929 398.024 244.177 397.903 246.878C397.794 249.302 399.613 251.577 402.194 252.013C400.05 251.246 398.643 249.229 398.699 247.086C398.764 244.605 400.778 242.43 403.44 242.16H403.44Z" fill="#594C9F"/>
    <path d="M410.563 220.783C407.875 219.598 404.786 220.896 403.782 223.406C402.881 225.659 403.851 228.408 406.144 229.673C404.372 228.24 403.707 225.87 404.465 223.866C405.343 221.546 407.96 220.159 410.563 220.783Z" fill="#594C9F"/>
    <path d="M405.902 263.956C403.232 265.181 402.146 268.357 403.35 270.777C404.43 272.949 407.123 274.05 409.59 273.174C407.344 273.549 405.136 272.472 404.146 270.571C403 268.372 403.706 265.49 405.902 263.956Z" fill="#594C9F"/>
    <path d="M402.376 253.504C399.614 254.504 398.272 257.581 399.274 260.092C400.172 262.345 402.766 263.665 405.297 262.994C403.028 263.183 400.915 261.928 400.084 259.952C399.122 257.666 400.062 254.852 402.376 253.504Z" fill="#594C9F"/>
    <path d="M416.101 233.257C413.604 232.822 411.286 234.552 410.964 236.863C410.675 238.937 412.056 241.038 414.238 241.621C412.457 240.789 411.41 238.942 411.631 237.106C411.886 234.98 413.792 233.274 416.101 233.257Z" fill="#594C9F"/>
    <path d="M414.12 242.963C411.594 242.764 409.447 244.703 409.342 247.034C409.248 249.126 410.818 251.088 413.045 251.464C411.195 250.803 409.98 249.062 410.029 247.214C410.085 245.073 411.823 243.196 414.12 242.963L414.12 242.963Z" fill="#594C9F"/>
    <path d="M420.266 224.518C417.947 223.495 415.281 224.615 414.415 226.781C413.638 228.725 414.474 231.096 416.453 232.188C414.924 230.952 414.35 228.907 415.004 227.178C415.762 225.176 418.02 223.979 420.266 224.518Z" fill="#594C9F"/>
    <path d="M416.244 261.77C413.94 262.827 413.003 265.567 414.042 267.656C414.974 269.53 417.298 270.48 419.426 269.724C417.488 270.047 415.583 269.118 414.729 267.478C413.74 265.58 414.35 263.093 416.244 261.77Z" fill="#594C9F"/>
    <path d="M413.201 252.751C410.819 253.615 409.661 256.269 410.525 258.436C411.3 260.38 413.538 261.519 415.722 260.94C413.764 261.103 411.941 260.02 411.224 258.316C410.394 256.342 411.205 253.914 413.201 252.751H413.201Z" fill="#594C9F"/>
    <path d="M382.095 231.987C379.238 231.489 376.584 233.469 376.215 236.114C375.885 238.487 377.465 240.892 379.963 241.559C377.925 240.607 376.727 238.494 376.979 236.392C377.271 233.959 379.452 232.007 382.095 231.987Z" fill="#594C9F"/>
    <path d="M379.828 243.095C376.937 242.867 374.479 245.087 374.359 247.755C374.251 250.149 376.048 252.395 378.597 252.826C376.48 252.069 375.09 250.076 375.145 247.96C375.209 245.51 377.199 243.363 379.828 243.095H379.828Z" fill="#594C9F"/>
    <path d="M386.862 221.985C384.207 220.814 381.157 222.096 380.165 224.575C379.276 226.799 380.233 229.514 382.498 230.764C380.748 229.349 380.091 227.008 380.84 225.029C381.707 222.738 384.291 221.368 386.862 221.985L386.862 221.985Z" fill="#594C9F"/>
    <path d="M382.259 264.62C379.622 265.83 378.55 268.967 379.738 271.357C380.805 273.502 383.464 274.589 385.901 273.724C383.683 274.094 381.502 273.03 380.525 271.153C379.393 268.981 380.091 266.135 382.259 264.62V264.62Z" fill="#594C9F"/>
    <path d="M378.776 254.298C376.049 255.286 374.724 258.324 375.713 260.804C376.6 263.03 379.162 264.332 381.661 263.67C379.42 263.857 377.334 262.617 376.514 260.667C375.564 258.408 376.492 255.629 378.776 254.298L378.776 254.298Z" fill="#594C9F"/>
    <path d="M369.897 234.996C367.538 234.585 365.346 236.22 365.042 238.404C364.769 240.364 366.074 242.35 368.137 242.901C366.454 242.115 365.464 240.37 365.673 238.634C365.914 236.624 367.715 235.012 369.897 234.996Z" fill="#594C9F"/>
    <path d="M368.025 244.17C365.638 243.981 363.608 245.814 363.509 248.018C363.42 249.995 364.904 251.85 367.009 252.205C365.26 251.58 364.112 249.935 364.158 248.187C364.211 246.164 365.854 244.39 368.025 244.17V244.17Z" fill="#594C9F"/>
    <path d="M373.834 226.736C371.642 225.769 369.123 226.828 368.304 228.875C367.569 230.712 368.36 232.954 370.23 233.986C368.785 232.817 368.243 230.885 368.861 229.25C369.577 227.358 371.712 226.226 373.834 226.736H373.834Z" fill="#594C9F"/>
    <path d="M370.033 261.946C367.855 262.944 366.97 265.535 367.951 267.509C368.832 269.28 371.029 270.178 373.041 269.464C371.209 269.769 369.408 268.891 368.601 267.341C367.667 265.547 368.242 263.196 370.033 261.946V261.946Z" fill="#594C9F"/>
    <path d="M367.157 253.421C364.905 254.237 363.811 256.747 364.627 258.795C365.36 260.632 367.475 261.708 369.539 261.161C367.689 261.315 365.966 260.291 365.288 258.681C364.504 256.816 365.27 254.521 367.157 253.421H367.157Z" fill="#594C9F"/>
    <path d="M442.59 243.238C440.088 243.238 438.059 241.204 438.059 238.696C438.059 236.188 440.088 234.155 442.59 234.155C445.092 234.155 447.12 236.188 447.12 238.696C447.12 241.204 445.092 243.238 442.59 243.238Z" fill="white"/>
    <path d="M443.083 241.37C441.983 241.37 441.092 240.476 441.092 239.374C441.092 238.271 441.983 237.378 443.083 237.378C444.183 237.378 445.074 238.271 445.074 239.374C445.074 240.476 444.183 241.37 443.083 241.37Z" fill="black"/>
    <path d="M442.404 239.147C441.766 239.147 441.248 238.629 441.248 237.991C441.248 237.353 441.766 236.835 442.404 236.835C443.043 236.835 443.56 237.353 443.56 237.991C443.56 238.629 443.043 239.147 442.404 239.147Z" fill="white"/>
    <path d="M701.92 219.963C699.865 216.857 696.827 213.097 692.421 209.738C674.7 196.232 651.718 202.063 647.153 203.39C640.892 205.21 635.958 207.78 632.685 209.738C634.637 209.891 637.718 210.371 641.124 211.986C644.407 213.543 646.673 215.528 648.024 216.908C653.424 214.922 662.578 212.328 674.097 212.778C686.882 213.278 696.603 217.292 701.92 219.963H701.92Z" fill="#594C9F"/>
    <path d="M691.592 281.454C687.904 283.956 682.845 286.767 676.454 288.723C662.32 293.05 650.025 290.634 644.084 289.016C645.034 288.859 646.44 288.542 648.03 287.844C649.823 287.058 651.228 286.456 652.049 284.988C652.663 283.888 652.697 282.762 652.652 282.077C657.139 283.34 663.249 284.565 670.542 284.622C679.387 284.692 686.641 283.019 691.592 281.454Z" fill="#594C9F"/>
    <path d="M579.745 285.009C580.8 284.049 584.885 279.951 586.979 276.384C591.228 269.147 587.243 264.165 590.706 257.267C592.031 254.628 594.751 251.172 600.876 248.366C594.75 245.56 592.03 242.104 590.705 239.465C587.242 232.567 591.227 227.585 586.978 220.348C584.884 216.781 580.799 212.683 579.744 211.723C578.89 210.946 578.045 210.35 578.045 210.35C576.445 209.221 575.497 208.972 575.524 208.867C575.652 208.367 598.721 207.927 610.544 222.069C615.065 227.477 616.693 233.524 617.364 237.484C620.096 234.13 637.753 213.187 668.197 211.668C684.369 210.862 697.402 216.569 701.757 218.627C712.301 223.61 718.905 229.896 720.809 231.775C726.953 237.835 730.785 243.974 733.086 248.368C730.775 252.744 726.937 258.904 720.81 264.958C699.349 286.163 670.921 285.2 668.198 285.064C637.754 283.545 620.097 262.602 617.365 259.248C616.694 263.208 615.066 269.255 610.545 274.663C598.722 288.805 575.653 288.365 575.525 287.865C575.499 287.761 576.447 287.512 578.046 286.382C578.046 286.382 578.891 285.786 579.745 285.009Z" fill="#756EBA"/>
    <path d="M579.745 285.009C580.8 284.049 584.885 279.951 586.979 276.384C591.228 269.147 587.243 264.165 590.706 257.267C592.031 254.628 594.751 251.172 600.876 248.366C594.75 245.56 592.03 242.104 590.705 239.465C587.242 232.567 591.227 227.585 586.978 220.348C584.884 216.781 580.799 212.683 579.744 211.723C578.89 210.946 578.045 210.35 578.045 210.35C577.45 209.93 576.944 209.631 576.546 209.417C575.766 208.997 575.514 208.953 575.524 208.867C575.568 208.501 580.215 208.548 585.097 209.303C585.947 209.435 587.376 209.676 589.129 210.081C592.598 210.882 595.08 211.801 595.867 212.1C597.429 212.694 598.558 213.217 598.889 213.372C599.277 213.554 600.561 214.162 602.194 215.099C602.48 215.263 602.772 215.431 603.14 215.657C603.512 215.886 604.786 216.68 606.276 217.888C608.621 219.788 610.196 221.653 610.544 222.069C612.016 223.834 612.966 225.387 613.438 226.205C613.718 226.69 614.632 228.305 615.529 230.658C616.155 232.299 617.204 235.06 617.364 237.484C617.696 242.503 614.252 246.665 612.641 248.375C614.176 250.137 617.045 253.969 617.365 259.248C617.822 266.788 612.653 272.142 610.545 274.663C598.722 288.805 575.653 288.365 575.525 287.865C575.499 287.761 576.447 287.512 578.046 286.382C578.046 286.382 578.891 285.786 579.745 285.009H579.745Z" fill="#8A89C6"/>
    <path d="M701.756 218.627C706.633 220.864 713.793 224.855 720.807 231.774C725.658 236.559 729.059 241.385 731.428 245.406C731.455 245.383 731.474 245.358 731.502 245.335C732.25 244.759 733.099 244.806 733.448 244.825C733.958 244.853 734.604 244.889 734.901 245.351C735.211 245.835 734.947 246.484 734.851 246.721C734.458 247.689 733.544 248.126 733.051 248.305C733.061 248.325 733.074 248.347 733.084 248.367C733.072 248.39 733.057 248.416 733.045 248.439C733.229 248.467 733.437 248.507 733.683 248.581C734.194 248.736 734.471 248.82 734.673 249.09C734.863 249.345 734.965 249.738 734.841 250.086C734.671 250.56 734.161 250.728 733.814 250.842C733.366 250.99 732.997 250.965 732.515 250.928C732.173 250.902 731.917 250.881 731.703 250.843C729.336 254.919 725.86 259.966 720.808 264.957C718.511 267.227 716.449 268.904 715.529 269.636C710.993 273.247 706.737 275.671 703.525 277.26C700.747 273.203 693.537 261.521 693.955 245.179C694.283 232.36 699.144 222.958 701.756 218.627L701.756 218.627Z" fill="#8A89C6"/>
    <path d="M664.503 229.323C661.137 228.737 658.009 231.069 657.575 234.186C657.186 236.983 659.048 239.816 661.991 240.603C659.59 239.481 658.178 236.991 658.475 234.514C658.82 231.647 661.389 229.347 664.503 229.323H664.503Z" fill="#594C9F"/>
    <path d="M661.832 242.413C658.426 242.144 655.53 244.76 655.388 247.903C655.261 250.724 657.379 253.371 660.382 253.878C657.887 252.986 656.249 250.639 656.314 248.146C656.39 245.259 658.734 242.728 661.832 242.413Z" fill="#594C9F"/>
    <path d="M670.12 217.537C666.993 216.157 663.398 217.669 662.23 220.59C661.182 223.211 662.31 226.41 664.978 227.882C662.916 226.214 662.143 223.457 663.025 221.125C664.046 218.424 667.092 216.81 670.12 217.537H670.12Z" fill="#594C9F"/>
    <path d="M664.697 267.777C661.589 269.202 660.326 272.898 661.727 275.715C662.983 278.242 666.117 279.524 668.988 278.504C666.375 278.94 663.806 277.686 662.654 275.475C661.32 272.915 662.142 269.561 664.697 267.777Z" fill="#594C9F"/>
    <path d="M660.593 255.614C657.38 256.778 655.818 260.358 656.983 263.28C658.029 265.903 661.047 267.438 663.992 266.658C661.352 266.877 658.894 265.416 657.927 263.118C656.807 260.457 657.901 257.182 660.593 255.614V255.614Z" fill="#594C9F"/>
    <path d="M675.259 230.911C672.366 230.408 669.679 232.412 669.306 235.09C668.972 237.494 670.572 239.929 673.101 240.604C671.037 239.64 669.824 237.5 670.079 235.372C670.375 232.908 672.583 230.932 675.259 230.911H675.259Z" fill="#594C9F"/>
    <path d="M672.964 242.16C670.037 241.929 667.548 244.177 667.426 246.878C667.317 249.302 669.137 251.577 671.718 252.013C669.574 251.246 668.166 249.229 668.222 247.086C668.287 244.605 670.302 242.43 672.964 242.16H672.964Z" fill="#594C9F"/>
    <path d="M680.086 220.783C677.399 219.598 674.31 220.896 673.306 223.406C672.405 225.659 673.375 228.408 675.668 229.673C673.896 228.24 673.231 225.87 673.989 223.866C674.867 221.546 677.484 220.159 680.086 220.783Z" fill="#594C9F"/>
    <path d="M675.426 263.956C672.756 265.181 671.67 268.357 672.873 270.777C673.953 272.949 676.647 274.05 679.114 273.174C676.868 273.549 674.66 272.472 673.67 270.571C672.524 268.372 673.23 265.49 675.426 263.956Z" fill="#594C9F"/>
    <path d="M671.9 253.504C669.138 254.504 667.796 257.581 668.797 260.092C669.696 262.345 672.29 263.665 674.82 262.994C672.551 263.183 670.439 261.928 669.608 259.952C668.646 257.666 669.586 254.852 671.9 253.504Z" fill="#594C9F"/>
    <path d="M685.624 233.257C683.128 232.822 680.809 234.552 680.487 236.863C680.199 238.937 681.579 241.038 683.762 241.621C681.981 240.789 680.934 238.942 681.155 237.106C681.41 234.98 683.315 233.274 685.624 233.257Z" fill="#594C9F"/>
    <path d="M683.644 242.963C681.118 242.764 678.97 244.703 678.865 247.034C678.771 249.126 680.342 251.088 682.569 251.464C680.718 250.803 679.504 249.062 679.552 247.214C679.608 245.073 681.347 243.196 683.644 242.963L683.644 242.963Z" fill="#594C9F"/>
    <path d="M689.789 224.518C687.47 223.495 684.805 224.615 683.939 226.781C683.161 228.725 683.998 231.096 685.977 232.188C684.447 230.952 683.874 228.907 684.528 227.178C685.285 225.176 687.544 223.979 689.789 224.518Z" fill="#594C9F"/>
    <path d="M685.768 261.77C683.464 262.827 682.527 265.567 683.566 267.656C684.497 269.53 686.821 270.48 688.95 269.724C687.012 270.047 685.107 269.118 684.253 267.478C683.264 265.58 683.873 263.093 685.768 261.77Z" fill="#594C9F"/>
    <path d="M682.725 252.751C680.342 253.615 679.184 256.269 680.048 258.436C680.824 260.38 683.062 261.519 685.245 260.94C683.288 261.103 681.465 260.02 680.748 258.316C679.918 256.342 680.729 253.914 682.725 252.751H682.725Z" fill="#594C9F"/>
    <path d="M651.618 231.987C648.761 231.489 646.107 233.469 645.739 236.114C645.409 238.487 646.989 240.892 649.486 241.559C647.448 240.607 646.25 238.494 646.503 236.392C646.795 233.959 648.976 232.007 651.618 231.987Z" fill="#594C9F"/>
    <path d="M649.352 243.095C646.461 242.867 644.003 245.087 643.883 247.755C643.775 250.149 645.572 252.395 648.121 252.826C646.003 252.069 644.613 250.076 644.669 247.96C644.733 245.51 646.722 243.363 649.352 243.095H649.352Z" fill="#594C9F"/>
    <path d="M656.385 221.985C653.731 220.814 650.681 222.096 649.689 224.575C648.799 226.799 649.757 229.514 652.021 230.764C650.271 229.349 649.615 227.008 650.364 225.029C651.23 222.738 653.815 221.368 656.385 221.985L656.385 221.985Z" fill="#594C9F"/>
    <path d="M651.782 264.62C649.146 265.83 648.074 268.967 649.262 271.357C650.328 273.502 652.988 274.589 655.425 273.724C653.207 274.094 651.026 273.03 650.049 271.153C648.917 268.981 649.614 266.135 651.782 264.62V264.62Z" fill="#594C9F"/>
    <path d="M648.3 254.298C645.573 255.286 644.248 258.324 645.237 260.804C646.124 263.03 648.685 264.332 651.185 263.67C648.944 263.857 646.858 262.617 646.037 260.667C645.087 258.408 646.015 255.629 648.3 254.298L648.3 254.298Z" fill="#594C9F"/>
    <path d="M639.421 234.996C637.062 234.585 634.87 236.22 634.566 238.404C634.293 240.364 635.598 242.35 637.66 242.901C635.977 242.115 634.988 240.37 635.196 238.634C635.438 236.624 637.239 235.012 639.421 234.996Z" fill="#594C9F"/>
    <path d="M637.549 244.17C635.162 243.981 633.132 245.814 633.033 248.018C632.944 249.995 634.428 251.85 636.533 252.205C634.784 251.58 633.636 249.935 633.682 248.187C633.735 246.164 635.378 244.39 637.549 244.17V244.17Z" fill="#594C9F"/>
    <path d="M643.358 226.736C641.166 225.769 638.647 226.828 637.828 228.875C637.093 230.712 637.884 232.954 639.754 233.986C638.309 232.817 637.767 230.885 638.385 229.25C639.101 227.358 641.235 226.226 643.358 226.736H643.358Z" fill="#594C9F"/>
    <path d="M639.557 261.946C637.379 262.944 636.494 265.535 637.475 267.509C638.356 269.28 640.552 270.178 642.564 269.464C640.733 269.769 638.932 268.891 638.125 267.341C637.19 265.547 637.766 263.196 639.557 261.946V261.946Z" fill="#594C9F"/>
    <path d="M636.681 253.421C634.429 254.237 633.334 256.747 634.151 258.795C634.883 260.632 636.999 261.708 639.063 261.161C637.212 261.315 635.49 260.291 634.812 258.681C634.028 256.816 634.794 254.521 636.681 253.421H636.681Z" fill="#594C9F"/>
    <path d="M712.113 243.238C709.611 243.238 707.583 241.204 707.583 238.696C707.583 236.188 709.611 234.155 712.113 234.155C714.616 234.155 716.644 236.188 716.644 238.696C716.644 241.204 714.616 243.238 712.113 243.238Z" fill="white"/>
    <path d="M712.607 241.37C711.507 241.37 710.615 240.476 710.615 239.374C710.615 238.271 711.507 237.378 712.607 237.378C713.706 237.378 714.598 238.271 714.598 239.374C714.598 240.476 713.706 241.37 712.607 241.37Z" fill="black"/>
    <path d="M711.928 239.147C711.29 239.147 710.772 238.629 710.772 237.991C710.772 237.353 711.29 236.835 711.928 236.835C712.566 236.835 713.084 237.353 713.084 237.991C713.084 238.629 712.566 239.147 711.928 239.147Z" fill="white"/>
    <path d="M432.396 400.128C430.341 397.023 427.303 393.262 422.897 389.904C405.176 376.397 382.194 382.229 377.629 383.556C371.368 385.376 366.434 387.945 363.161 389.904C365.114 390.056 368.194 390.536 371.601 392.152C374.883 393.708 377.15 395.694 378.501 397.074C383.9 395.087 393.054 392.494 404.574 392.944C417.358 393.443 427.08 397.458 432.396 400.128H432.396Z" fill="#594C9F"/>
    <path d="M422.069 461.62C418.38 464.121 413.321 466.933 406.931 468.889C392.796 473.216 380.502 470.8 374.56 469.182C375.511 469.024 376.916 468.707 378.506 468.01C380.3 467.223 381.704 466.622 382.525 465.153C383.139 464.054 383.173 462.928 383.128 462.242C387.615 463.505 393.726 464.73 401.018 464.788C409.864 464.858 417.117 463.184 422.069 461.62Z" fill="#594C9F"/>
    <path d="M310.221 465.174C311.277 464.215 315.361 460.117 317.456 456.55C321.704 449.313 317.719 444.331 321.182 437.432C322.507 434.794 325.227 431.338 331.352 428.532C325.226 425.726 322.506 422.27 321.181 419.631C317.718 412.733 321.703 407.751 317.455 400.514C315.36 396.946 311.275 392.849 310.22 391.889C309.366 391.112 308.522 390.516 308.522 390.516C306.922 389.386 305.974 389.137 306.001 389.032C306.129 388.533 329.197 388.093 341.02 402.235C345.541 407.643 347.169 413.689 347.84 417.65C350.573 414.295 368.23 393.352 398.674 391.834C414.845 391.027 427.878 396.735 432.234 398.793C442.778 403.775 449.381 410.062 451.285 411.94C457.429 418 461.261 424.14 463.562 428.533C461.251 432.909 457.413 439.069 451.286 445.123C429.825 466.328 401.398 465.365 398.675 465.229C368.231 463.711 350.574 442.768 347.841 439.414C347.17 443.374 345.542 449.42 341.021 454.828C329.198 468.97 306.13 468.531 306.002 468.031C305.975 467.926 306.923 467.677 308.523 466.548C308.523 466.548 309.367 465.952 310.221 465.174Z" fill="#756EBA"/>
    <path d="M310.221 465.174C311.277 464.215 315.361 460.117 317.456 456.55C321.704 449.313 317.719 444.331 321.182 437.432C322.507 434.794 325.227 431.338 331.352 428.532C325.226 425.726 322.506 422.27 321.181 419.631C317.718 412.733 321.703 407.751 317.455 400.514C315.36 396.946 311.275 392.849 310.22 391.889C309.366 391.112 308.522 390.516 308.522 390.516C307.926 390.095 307.421 389.797 307.023 389.582C306.242 389.163 305.99 389.119 306.001 389.032C306.045 388.667 310.691 388.713 315.573 389.469C316.424 389.6 317.852 389.842 319.606 390.246C323.074 391.047 325.556 391.967 326.343 392.266C327.905 392.86 329.034 393.383 329.366 393.538C329.753 393.719 331.037 394.328 332.67 395.265C332.957 395.429 333.248 395.596 333.616 395.822C333.989 396.051 335.262 396.846 336.752 398.053C339.097 399.954 340.672 401.818 341.02 402.235C342.493 404 343.443 405.553 343.915 406.37C344.195 406.856 345.108 408.47 346.005 410.824C346.631 412.465 347.68 415.225 347.84 417.65C348.172 422.669 344.728 426.831 343.117 428.541C344.652 430.302 347.521 434.134 347.841 439.414C348.298 446.953 343.129 452.307 341.021 454.828C329.198 468.97 306.13 468.531 306.002 468.031C305.975 467.926 306.923 467.677 308.523 466.548C308.523 466.548 309.367 465.952 310.221 465.174H310.221Z" fill="#8A89C6"/>
    <path d="M432.232 398.793C437.109 401.029 444.269 405.021 451.284 411.94C456.134 416.724 459.535 421.551 461.904 425.571C461.931 425.548 461.95 425.523 461.979 425.501C462.727 424.924 463.576 424.971 463.924 424.99C464.434 425.019 465.08 425.054 465.377 425.517C465.687 426 465.424 426.649 465.327 426.887C464.935 427.855 464.02 428.291 463.527 428.471C463.538 428.49 463.55 428.513 463.561 428.533C463.549 428.555 463.534 428.581 463.522 428.604C463.706 428.633 463.913 428.672 464.159 428.747C464.67 428.902 464.948 428.985 465.149 429.256C465.34 429.511 465.442 429.903 465.317 430.251C465.147 430.726 464.638 430.893 464.29 431.008C463.842 431.156 463.473 431.131 462.991 431.094C462.65 431.068 462.393 431.047 462.179 431.009C459.813 435.085 456.336 440.132 451.285 445.123C448.987 447.393 446.925 449.069 446.005 449.802C441.469 453.412 437.214 455.837 434.002 457.425C431.224 453.368 424.013 441.687 424.431 425.344C424.759 412.526 429.62 403.123 432.232 398.793L432.232 398.793Z" fill="#8A89C6"/>
    <path d="M394.979 409.489C391.613 408.902 388.486 411.235 388.052 414.352C387.662 417.148 389.524 419.982 392.467 420.768C390.066 419.647 388.654 417.156 388.952 414.68C389.296 411.813 391.866 409.512 394.979 409.489H394.979Z" fill="#594C9F"/>
    <path d="M392.309 422.578C388.902 422.31 386.006 424.925 385.864 428.069C385.737 430.89 387.855 433.537 390.859 434.044C388.363 433.152 386.725 430.805 386.791 428.311C386.866 425.424 389.21 422.893 392.309 422.578Z" fill="#594C9F"/>
    <path d="M400.597 397.703C397.469 396.323 393.875 397.834 392.706 400.755C391.658 403.376 392.786 406.575 395.455 408.047C393.392 406.38 392.619 403.622 393.501 401.29C394.523 398.59 397.568 396.976 400.597 397.703H400.597Z" fill="#594C9F"/>
    <path d="M395.173 447.942C392.066 449.367 390.803 453.064 392.203 455.88C393.46 458.408 396.594 459.689 399.465 458.669C396.851 459.105 394.282 457.852 393.13 455.641C391.797 453.081 392.618 449.727 395.173 447.942Z" fill="#594C9F"/>
    <path d="M391.07 435.779C387.856 436.944 386.295 440.524 387.46 443.446C388.505 446.068 391.524 447.603 394.468 446.823C391.828 447.043 389.37 445.582 388.403 443.283C387.284 440.622 388.377 437.347 391.07 435.779V435.779Z" fill="#594C9F"/>
    <path d="M405.736 411.077C402.843 410.573 400.155 412.578 399.782 415.256C399.448 417.659 401.048 420.094 403.577 420.77C401.513 419.806 400.3 417.666 400.556 415.538C400.852 413.074 403.06 411.097 405.736 411.077H405.736Z" fill="#594C9F"/>
    <path d="M403.44 422.325C400.513 422.095 398.024 424.342 397.903 427.044C397.794 429.468 399.613 431.742 402.194 432.178C400.05 431.412 398.643 429.394 398.699 427.252C398.764 424.771 400.778 422.596 403.44 422.325H403.44Z" fill="#594C9F"/>
    <path d="M410.563 400.949C407.875 399.763 404.786 401.062 403.782 403.572C402.881 405.824 403.851 408.573 406.144 409.838C404.372 408.406 403.707 406.036 404.465 404.032C405.343 401.711 407.96 400.324 410.563 400.949Z" fill="#594C9F"/>
    <path d="M405.902 444.122C403.232 445.346 402.146 448.523 403.35 450.943C404.43 453.115 407.123 454.216 409.59 453.34C407.344 453.714 405.136 452.637 404.146 450.737C403 448.537 403.706 445.655 405.902 444.122Z" fill="#594C9F"/>
    <path d="M402.376 433.669C399.614 434.67 398.272 437.746 399.274 440.258C400.172 442.511 402.766 443.83 405.297 443.16C403.028 443.348 400.915 442.093 400.084 440.118C399.122 437.831 400.062 435.017 402.376 433.669Z" fill="#594C9F"/>
    <path d="M416.101 413.422C413.604 412.988 411.286 414.717 410.964 417.028C410.675 419.102 412.056 421.203 414.238 421.786C412.457 420.954 411.41 419.108 411.631 417.271C411.886 415.145 413.792 413.44 416.101 413.422Z" fill="#594C9F"/>
    <path d="M414.12 423.128C411.594 422.929 409.447 424.868 409.342 427.199C409.248 429.291 410.818 431.254 413.045 431.63C411.195 430.969 409.98 429.228 410.029 427.379C410.085 425.239 411.823 423.362 414.12 423.128L414.12 423.128Z" fill="#594C9F"/>
    <path d="M420.266 404.683C417.947 403.66 415.281 404.781 414.415 406.947C413.638 408.89 414.474 411.262 416.453 412.354C414.924 411.117 414.35 409.073 415.004 407.343C415.762 405.341 418.02 404.144 420.266 404.683Z" fill="#594C9F"/>
    <path d="M416.244 441.936C413.94 442.992 413.003 445.733 414.042 447.821C414.974 449.695 417.298 450.646 419.426 449.89C417.488 450.213 415.583 449.283 414.729 447.644C413.74 445.746 414.35 443.259 416.244 441.936Z" fill="#594C9F"/>
    <path d="M413.201 432.917C410.819 433.78 409.661 436.435 410.525 438.602C411.3 440.546 413.538 441.684 415.722 441.106C413.764 441.269 411.941 440.185 411.224 438.481C410.394 436.508 411.205 434.08 413.201 432.917H413.201Z" fill="#594C9F"/>
    <path d="M382.095 412.152C379.238 411.655 376.584 413.634 376.215 416.279C375.885 418.653 377.465 421.057 379.963 421.725C377.925 420.773 376.727 418.659 376.979 416.558C377.271 414.124 379.452 412.172 382.095 412.152Z" fill="#594C9F"/>
    <path d="M379.828 423.261C376.937 423.033 374.479 425.252 374.359 427.92C374.251 430.314 376.048 432.56 378.597 432.991C376.48 432.234 375.09 430.242 375.145 428.126C375.209 425.676 377.199 423.528 379.828 423.261H379.828Z" fill="#594C9F"/>
    <path d="M386.862 402.15C384.207 400.979 381.157 402.262 380.165 404.741C379.276 406.965 380.233 409.68 382.498 410.929C380.748 409.514 380.091 407.174 380.84 405.195C381.707 402.903 384.291 401.533 386.862 402.15L386.862 402.15Z" fill="#594C9F"/>
    <path d="M382.259 444.786C379.622 445.995 378.55 449.132 379.738 451.522C380.805 453.667 383.464 454.755 385.901 453.889C383.683 454.259 381.502 453.195 380.525 451.319C379.393 449.147 380.091 446.3 382.259 444.786V444.786Z" fill="#594C9F"/>
    <path d="M378.776 434.464C376.049 435.452 374.724 438.49 375.713 440.97C376.6 443.195 379.162 444.498 381.661 443.836C379.42 444.022 377.334 442.783 376.514 440.832C375.564 438.574 376.492 435.795 378.776 434.464L378.776 434.464Z" fill="#594C9F"/>
    <path d="M369.897 415.161C367.538 414.75 365.346 416.385 365.042 418.57C364.769 420.53 366.074 422.516 368.137 423.067C366.454 422.28 365.464 420.535 365.673 418.799C365.914 416.79 367.715 415.178 369.897 415.161Z" fill="#594C9F"/>
    <path d="M368.025 424.335C365.638 424.147 363.608 425.98 363.509 428.183C363.42 430.16 364.904 432.015 367.009 432.371C365.26 431.746 364.112 430.1 364.158 428.353C364.211 426.33 365.854 424.556 368.025 424.335V424.335Z" fill="#594C9F"/>
    <path d="M373.834 406.901C371.642 405.934 369.123 406.993 368.304 409.041C367.569 410.877 368.36 413.119 370.23 414.151C368.785 412.983 368.243 411.05 368.861 409.415C369.577 407.523 371.712 406.392 373.834 406.901H373.834Z" fill="#594C9F"/>
    <path d="M370.033 442.111C367.855 443.11 366.97 445.701 367.951 447.675C368.832 449.446 371.029 450.344 373.041 449.629C371.209 449.935 369.408 449.056 368.601 447.507C367.667 445.713 368.242 443.362 370.033 442.111V442.111Z" fill="#594C9F"/>
    <path d="M367.157 433.587C364.905 434.403 363.811 436.912 364.627 438.96C365.36 440.798 367.475 441.874 369.539 441.327C367.689 441.481 365.966 440.457 365.288 438.846C364.504 436.981 365.27 434.686 367.157 433.587H367.157Z" fill="#594C9F"/>
    <path d="M442.59 423.403C440.088 423.403 438.059 421.37 438.059 418.862C438.059 416.354 440.088 414.321 442.59 414.321C445.092 414.321 447.12 416.354 447.12 418.862C447.12 421.37 445.092 423.403 442.59 423.403Z" fill="white"/>
    <path d="M443.083 421.535C441.983 421.535 441.092 420.642 441.092 419.539C441.092 418.437 441.983 417.543 443.083 417.543C444.183 417.543 445.074 418.437 445.074 419.539C445.074 420.642 444.183 421.535 443.083 421.535Z" fill="black"/>
    <path d="M442.404 419.312C441.766 419.312 441.248 418.795 441.248 418.156C441.248 417.518 441.766 417 442.404 417C443.043 417 443.56 417.518 443.56 418.156C443.56 418.795 443.043 419.312 442.404 419.312Z" fill="white"/>
    <path d="M701.92 400.128C699.865 397.023 696.827 393.262 692.421 389.904C674.7 376.397 651.718 382.229 647.153 383.556C640.892 385.376 635.958 387.945 632.685 389.904C634.637 390.056 637.718 390.536 641.124 392.152C644.407 393.708 646.673 395.694 648.024 397.074C653.424 395.087 662.578 392.494 674.097 392.944C686.882 393.443 696.603 397.458 701.92 400.128H701.92Z" fill="#594C9F"/>
    <path d="M691.592 461.62C687.904 464.121 682.845 466.933 676.454 468.889C662.32 473.216 650.025 470.8 644.084 469.182C645.034 469.024 646.44 468.707 648.03 468.01C649.823 467.223 651.228 466.622 652.049 465.153C652.663 464.054 652.697 462.928 652.652 462.242C657.139 463.505 663.249 464.73 670.542 464.788C679.387 464.858 686.641 463.184 691.592 461.62Z" fill="#594C9F"/>
    <path d="M579.745 465.174C580.8 464.215 584.885 460.117 586.979 456.55C591.228 449.313 587.243 444.331 590.706 437.432C592.031 434.794 594.751 431.338 600.876 428.532C594.75 425.726 592.03 422.27 590.705 419.631C587.242 412.733 591.227 407.751 586.978 400.514C584.884 396.946 580.799 392.849 579.744 391.889C578.89 391.112 578.045 390.516 578.045 390.516C576.445 389.386 575.497 389.137 575.524 389.032C575.652 388.533 598.721 388.093 610.544 402.235C615.065 407.643 616.693 413.689 617.364 417.65C620.096 414.295 637.753 393.352 668.197 391.834C684.369 391.027 697.402 396.735 701.757 398.793C712.301 403.775 718.905 410.062 720.809 411.94C726.953 418 730.785 424.14 733.086 428.533C730.775 432.909 726.937 439.069 720.81 445.123C699.349 466.328 670.921 465.365 668.198 465.229C637.754 463.711 620.097 442.768 617.365 439.414C616.694 443.374 615.066 449.42 610.545 454.828C598.722 468.97 575.653 468.531 575.525 468.031C575.499 467.926 576.447 467.677 578.046 466.548C578.046 466.548 578.891 465.952 579.745 465.174Z" fill="#756EBA"/>
    <path d="M579.745 465.174C580.8 464.215 584.885 460.117 586.979 456.55C591.228 449.313 587.243 444.331 590.706 437.432C592.031 434.794 594.751 431.338 600.876 428.532C594.75 425.726 592.03 422.27 590.705 419.631C587.242 412.733 591.227 407.751 586.978 400.514C584.884 396.946 580.799 392.849 579.744 391.889C578.89 391.112 578.045 390.516 578.045 390.516C577.45 390.095 576.944 389.797 576.546 389.582C575.766 389.163 575.514 389.119 575.524 389.032C575.568 388.667 580.215 388.713 585.097 389.469C585.947 389.6 587.376 389.842 589.129 390.246C592.598 391.047 595.08 391.967 595.867 392.266C597.429 392.86 598.558 393.383 598.889 393.538C599.277 393.719 600.561 394.328 602.194 395.265C602.48 395.429 602.772 395.596 603.14 395.822C603.512 396.051 604.786 396.846 606.276 398.053C608.621 399.954 610.196 401.818 610.544 402.235C612.016 404 612.966 405.553 613.438 406.37C613.718 406.856 614.632 408.47 615.529 410.824C616.155 412.465 617.204 415.225 617.364 417.65C617.696 422.669 614.252 426.831 612.641 428.541C614.176 430.302 617.045 434.134 617.365 439.414C617.822 446.953 612.653 452.307 610.545 454.828C598.722 468.97 575.653 468.531 575.525 468.031C575.499 467.926 576.447 467.677 578.046 466.548C578.046 466.548 578.891 465.952 579.745 465.174H579.745Z" fill="#8A89C6"/>
    <path d="M701.756 398.793C706.633 401.029 713.793 405.021 720.807 411.94C725.658 416.724 729.059 421.551 731.428 425.571C731.455 425.548 731.474 425.523 731.502 425.501C732.25 424.924 733.099 424.971 733.448 424.99C733.958 425.019 734.604 425.054 734.901 425.517C735.211 426 734.947 426.649 734.851 426.887C734.458 427.855 733.544 428.291 733.051 428.471C733.061 428.49 733.074 428.513 733.084 428.533C733.072 428.555 733.057 428.581 733.045 428.604C733.229 428.633 733.437 428.672 733.683 428.747C734.194 428.902 734.471 428.985 734.673 429.256C734.863 429.511 734.965 429.903 734.841 430.251C734.671 430.726 734.161 430.893 733.814 431.008C733.366 431.156 732.997 431.131 732.515 431.094C732.173 431.068 731.917 431.047 731.703 431.009C729.336 435.085 725.86 440.132 720.808 445.123C718.511 447.393 716.449 449.069 715.529 449.802C710.993 453.412 706.737 455.837 703.525 457.425C700.747 453.368 693.537 441.687 693.955 425.344C694.283 412.526 699.144 403.123 701.756 398.793L701.756 398.793Z" fill="#8A89C6"/>
    <path d="M664.503 409.489C661.137 408.902 658.009 411.235 657.575 414.352C657.186 417.148 659.048 419.982 661.991 420.768C659.59 419.647 658.178 417.156 658.475 414.68C658.82 411.813 661.389 409.512 664.503 409.489H664.503Z" fill="#594C9F"/>
    <path d="M661.832 422.578C658.426 422.31 655.53 424.925 655.388 428.069C655.261 430.89 657.379 433.537 660.382 434.044C657.887 433.152 656.249 430.805 656.314 428.311C656.39 425.424 658.734 422.893 661.832 422.578Z" fill="#594C9F"/>
    <path d="M670.12 397.703C666.993 396.323 663.398 397.834 662.23 400.755C661.182 403.376 662.31 406.575 664.978 408.047C662.916 406.38 662.143 403.622 663.025 401.29C664.046 398.59 667.092 396.976 670.12 397.703H670.12Z" fill="#594C9F"/>
    <path d="M664.697 447.942C661.589 449.367 660.326 453.064 661.727 455.88C662.983 458.408 666.117 459.689 668.988 458.669C666.375 459.105 663.806 457.852 662.654 455.641C661.32 453.081 662.142 449.727 664.697 447.942Z" fill="#594C9F"/>
    <path d="M660.593 435.779C657.38 436.944 655.818 440.524 656.983 443.446C658.029 446.068 661.047 447.603 663.992 446.823C661.352 447.043 658.894 445.582 657.927 443.283C656.807 440.622 657.901 437.347 660.593 435.779V435.779Z" fill="#594C9F"/>
    <path d="M675.259 411.077C672.366 410.573 669.679 412.578 669.306 415.256C668.972 417.659 670.572 420.094 673.101 420.77C671.037 419.806 669.824 417.666 670.079 415.538C670.375 413.074 672.583 411.097 675.259 411.077H675.259Z" fill="#594C9F"/>
    <path d="M672.964 422.325C670.037 422.095 667.548 424.342 667.426 427.044C667.317 429.468 669.137 431.742 671.718 432.178C669.574 431.412 668.166 429.394 668.222 427.252C668.287 424.771 670.302 422.596 672.964 422.325H672.964Z" fill="#594C9F"/>
    <path d="M680.086 400.949C677.399 399.763 674.31 401.062 673.306 403.572C672.405 405.824 673.375 408.573 675.668 409.838C673.896 408.406 673.231 406.036 673.989 404.032C674.867 401.711 677.484 400.324 680.086 400.949Z" fill="#594C9F"/>
    <path d="M675.426 444.122C672.756 445.346 671.67 448.523 672.873 450.943C673.953 453.115 676.647 454.216 679.114 453.34C676.868 453.714 674.66 452.637 673.67 450.737C672.524 448.537 673.23 445.655 675.426 444.122Z" fill="#594C9F"/>
    <path d="M671.9 433.669C669.138 434.67 667.796 437.746 668.797 440.258C669.696 442.511 672.29 443.83 674.82 443.16C672.551 443.348 670.439 442.093 669.608 440.118C668.646 437.831 669.586 435.017 671.9 433.669Z" fill="#594C9F"/>
    <path d="M685.624 413.422C683.128 412.988 680.809 414.717 680.487 417.028C680.199 419.102 681.579 421.203 683.762 421.786C681.981 420.954 680.934 419.108 681.155 417.271C681.41 415.145 683.315 413.44 685.624 413.422Z" fill="#594C9F"/>
    <path d="M683.644 423.128C681.118 422.929 678.97 424.868 678.865 427.199C678.771 429.291 680.342 431.254 682.569 431.63C680.718 430.969 679.504 429.228 679.552 427.379C679.608 425.239 681.347 423.362 683.644 423.128L683.644 423.128Z" fill="#594C9F"/>
    <path d="M689.789 404.683C687.47 403.66 684.805 404.781 683.939 406.947C683.161 408.89 683.998 411.262 685.977 412.354C684.447 411.117 683.874 409.073 684.528 407.343C685.285 405.341 687.544 404.144 689.789 404.683Z" fill="#594C9F"/>
    <path d="M685.768 441.936C683.464 442.992 682.527 445.733 683.566 447.821C684.497 449.695 686.821 450.646 688.95 449.89C687.012 450.213 685.107 449.283 684.253 447.644C683.264 445.746 683.873 443.259 685.768 441.936Z" fill="#594C9F"/>
    <path d="M682.725 432.917C680.342 433.78 679.184 436.435 680.048 438.602C680.824 440.546 683.062 441.684 685.245 441.106C683.288 441.269 681.465 440.185 680.748 438.481C679.918 436.508 680.729 434.08 682.725 432.917H682.725Z" fill="#594C9F"/>
    <path d="M651.618 412.152C648.761 411.655 646.107 413.634 645.739 416.279C645.409 418.653 646.989 421.057 649.486 421.725C647.448 420.773 646.25 418.659 646.503 416.558C646.795 414.124 648.976 412.172 651.618 412.152Z" fill="#594C9F"/>
    <path d="M649.352 423.261C646.461 423.033 644.003 425.252 643.883 427.92C643.775 430.314 645.572 432.56 648.121 432.991C646.003 432.234 644.613 430.242 644.669 428.126C644.733 425.676 646.722 423.528 649.352 423.261H649.352Z" fill="#594C9F"/>
    <path d="M656.385 402.15C653.731 400.979 650.681 402.262 649.689 404.741C648.799 406.965 649.757 409.68 652.021 410.929C650.271 409.514 649.615 407.174 650.364 405.195C651.23 402.903 653.815 401.533 656.385 402.15L656.385 402.15Z" fill="#594C9F"/>
    <path d="M651.782 444.786C649.146 445.995 648.074 449.132 649.262 451.522C650.328 453.667 652.988 454.755 655.425 453.889C653.207 454.259 651.026 453.195 650.049 451.319C648.917 449.147 649.614 446.3 651.782 444.786V444.786Z" fill="#594C9F"/>
    <path d="M648.3 434.464C645.573 435.452 644.248 438.49 645.237 440.97C646.124 443.195 648.685 444.498 651.185 443.836C648.944 444.022 646.858 442.783 646.037 440.832C645.087 438.574 646.015 435.795 648.3 434.464L648.3 434.464Z" fill="#594C9F"/>
    <path d="M639.421 415.161C637.062 414.75 634.87 416.385 634.566 418.57C634.293 420.53 635.598 422.516 637.66 423.067C635.977 422.28 634.988 420.535 635.196 418.799C635.438 416.79 637.239 415.178 639.421 415.161Z" fill="#594C9F"/>
    <path d="M637.549 424.335C635.162 424.147 633.132 425.98 633.033 428.183C632.944 430.16 634.428 432.015 636.533 432.371C634.784 431.746 633.636 430.1 633.682 428.353C633.735 426.33 635.378 424.556 637.549 424.335V424.335Z" fill="#594C9F"/>
    <path d="M643.358 406.901C641.166 405.934 638.647 406.993 637.828 409.041C637.093 410.877 637.884 413.119 639.754 414.151C638.309 412.983 637.767 411.05 638.385 409.415C639.101 407.523 641.235 406.392 643.358 406.901H643.358Z" fill="#594C9F"/>
    <path d="M639.557 442.111C637.379 443.11 636.494 445.701 637.475 447.675C638.356 449.446 640.552 450.344 642.564 449.629C640.733 449.935 638.932 449.056 638.125 447.507C637.19 445.713 637.766 443.362 639.557 442.111V442.111Z" fill="#594C9F"/>
    <path d="M636.681 433.587C634.429 434.403 633.334 436.912 634.151 438.96C634.883 440.798 636.999 441.874 639.063 441.327C637.212 441.481 635.49 440.457 634.812 438.846C634.028 436.981 634.794 434.686 636.681 433.587H636.681Z" fill="#594C9F"/>
    <path d="M712.113 423.403C709.611 423.403 707.583 421.37 707.583 418.862C707.583 416.354 709.611 414.321 712.113 414.321C714.616 414.321 716.644 416.354 716.644 418.862C716.644 421.37 714.616 423.403 712.113 423.403Z" fill="white"/>
    <path d="M712.607 421.535C711.507 421.535 710.615 420.642 710.615 419.539C710.615 418.437 711.507 417.543 712.607 417.543C713.706 417.543 714.598 418.437 714.598 419.539C714.598 420.642 713.706 421.535 712.607 421.535Z" fill="black"/>
    <path d="M711.928 419.312C711.29 419.312 710.772 418.795 710.772 418.156C710.772 417.518 711.29 417 711.928 417C712.566 417 713.084 417.518 713.084 418.156C713.084 418.795 712.566 419.312 711.928 419.312Z" fill="white"/>
</svg>
