<?xml version="1.0" encoding="UTF-8" standalone="no"?>
<!-- Created with Inkscape (http://www.inkscape.org/) -->

<svg width="63" height="120" viewBox="0 0 63 120" fill="none" xmlns="http://www.w3.org/2000/svg">
<g clip-path="url(#clip0_3_70)">
<path d="M24.707 120.027C23.2195 102.508 24.8054 84.8631 29.393 67.8895C31.7641 59.1905 34.9288 50.7275 38.8472 42.607" stroke="#006633" stroke-width="4" stroke-miterlimit="10"/>
<path d="M29.8315 66.7934C30.5988 64.7271 39.8886 52.3024 40.749 51.409C42.3494 49.7319 46.7778 45.2323 52.971 43.3469C55.5415 42.5632 57.5419 42.4974 59.1971 43.4456C59.7825 43.7665 60.2982 44.2007 60.7141 44.723C61.13 45.2452 61.4378 45.845 61.6196 46.4873C61.773 47.1505 61.9868 48.9317 59.6136 51.7817C56.0895 56.0183 51.1295 57.4652 46.9751 58.9998C35.0765 63.3898 29.0477 68.8541 29.8315 66.7934Z" fill="#006633" stroke="#006633" stroke-width="2" stroke-miterlimit="10"/>
<path d="M23.5069 71.2163C21.8627 62.7212 22.197 62.2115 20.9912 58.1886C19.928 54.6426 18.7277 50.7513 15.8229 46.4106C12.4852 41.4286 9.79417 40.1297 8.38563 39.6255C7.28949 39.2199 4.5875 38.2334 2.78435 39.5707C1.14014 40.8038 1.14014 43.3359 1.14014 44.7773C1.20042 49.3757 3.24473 52.9655 6.29748 57.5145C9.78869 62.7157 11.6138 64.7545 15.3735 69.7529C22.0764 78.6481 25.321 82.4298 25.321 82.4298C25.321 82.4298 25.1401 79.6401 23.5069 71.2163Z" fill="#006633" stroke="#006633" stroke-width="2" stroke-miterlimit="10"/>
<path d="M22.405 74.9925C22.1803 75.0637 20.6183 68.9637 16.5023 60.7426C11.915 51.6118 7.42078 46.3503 7.61808 46.2078C7.81539 46.0653 13.3345 51.7926 17.6039 60.496C21.3253 68.0758 22.6352 74.9157 22.405 74.9925Z" fill="#004620"/>
<path d="M33.6024 63.0281C33.7613 63.0938 36.4304 60.1069 41.6042 56.3142C47.3699 52.0667 52.1381 49.8744 52.0176 49.7648C51.897 49.6552 46.2135 52.0064 40.804 56.0402C36.0906 59.5533 33.4325 62.9513 33.6024 63.0281Z" fill="#004620"/>
<path d="M39.2527 43.4839C38.9129 44.454 37.8167 40.0804 35.8821 31.24C33.9474 22.3996 33.328 20.6184 33.0595 16.2338C32.5608 8.05662 34.2214 5.67799 35.0216 4.72435C35.5697 4.06667 38.1072 1.27151 41.3408 1.68804C42.781 1.9277 44.0949 2.65529 45.0622 3.74879C46.4105 5.18473 47.3806 7.37153 47.3148 12.4741C47.3148 13.899 47.1778 17.0614 45.3856 24.3124C43.9058 30.3412 43.7414 29.245 41.3902 37.5976C40.8753 39.6259 40.1593 41.5978 39.2527 43.4839Z" fill="#006633" stroke="#006633" stroke-width="2" stroke-miterlimit="10"/>
<path d="M39.1212 40.0749C38.9403 39.9159 40.4201 34.4791 41.023 25.277C41.6916 15.0226 40.7873 7.38797 40.9846 7.47566C41.1819 7.56335 42.6288 16.4695 41.8999 26.1429C41.286 34.5613 39.3185 40.2448 39.1212 40.0749Z" fill="#004620"/>
</g>
<defs>
<clipPath id="clip0_3_70">
<rect width="62.8034" height="120" fill="white"/>
</clipPath>
</defs>
</svg>
