<svg viewBox="0 0 1052 675" fill="none" xmlns="http://www.w3.org/2000/svg">
    <path d="M121.692 674.478C54.8668 674.478 0.5 620.112 0.5 553.287V121.192C0.5 54.3663 54.8668 0 121.692 0H930.302C997.131 0 1051.5 54.3663 1051.5 121.192V553.287C1051.5 620.112 997.131 674.478 930.302 674.478H121.692Z" fill="#666666"/>
    <path d="M121.692 670.537C57.0393 670.537 4.44043 617.939 4.44043 553.287V121.192C4.44043 56.5393 57.0393 3.94089 121.692 3.94089H930.302C994.957 3.94089 1047.56 56.5393 1047.56 121.192V553.287C1047.56 617.939 994.957 670.537 930.302 670.537H121.692Z" fill="#747474"/>
    <path d="M121.692 644.921C71.1643 644.921 30.0566 603.814 30.0566 553.287V121.192C30.0566 70.6638 71.1643 29.5567 121.692 29.5567H930.302C980.833 29.5567 1021.94 70.6638 1021.94 121.192V553.287C1021.94 603.814 980.833 644.921 930.302 644.921H121.692Z" fill="#666666"/>
    <path d="M930.302 33.4976H121.692C73.2592 33.4976 33.9971 72.7598 33.9971 121.192V553.287C33.9971 601.719 73.2592 640.981 121.692 640.981H930.302C978.735 640.981 1018 601.719 1018 553.287V121.192C1018 72.7598 978.735 33.4976 930.302 33.4976Z" fill="#B4DAF9"/>
    <path d="M11.1856 116.815L5.18262 106.417L11.1859 96.0197L23.1918 96.0198L29.1946 106.417L23.1917 116.815H11.1856Z" fill="#595959"/>
    <path d="M28.6041 106.417L22.8961 116.304L11.4803 116.304L5.77246 106.417L11.4804 96.5309L22.8962 96.5309L28.6041 106.417Z" fill="#666666"/>
    <path d="M27.4039 105.797L22.2639 114.699L11.984 114.699L6.88281 105.989L11.9842 96.8939L22.264 96.8939L27.4039 105.797H27.4039Z" fill="#747474"/>
    <path d="M17.189 114.437C21.4862 114.437 24.9698 110.954 24.9698 106.656C24.9698 102.359 21.4862 98.8757 17.189 98.8757C12.8918 98.8757 9.4082 102.359 9.4082 106.656C9.4082 110.954 12.8918 114.437 17.189 114.437Z" fill="#595959"/>
    <path d="M17.0281 112.762C20.7607 112.762 23.7866 109.736 23.7866 106.003C23.7866 102.271 20.7607 99.2448 17.0281 99.2448C13.2954 99.2448 10.2695 102.271 10.2695 106.003C10.2695 109.736 13.2954 112.762 17.0281 112.762Z" fill="#666666"/>
    <path d="M16.4629 110.784C19.5695 110.784 22.0879 108.265 22.0879 105.159C22.0879 102.052 19.5695 99.5336 16.4629 99.5336C13.3563 99.5336 10.8379 102.052 10.8379 105.159C10.8379 108.265 13.3563 110.784 16.4629 110.784Z" fill="#747474"/>
    <path d="M15.5939 107.471C17.5831 107.471 19.1956 105.858 19.1956 103.869C19.1956 101.88 17.5831 100.267 15.5939 100.267C13.6047 100.267 11.9922 101.88 11.9922 103.869C11.9922 105.858 13.6047 107.471 15.5939 107.471Z" fill="#999999"/>
    <path d="M11.1856 195.221L5.18262 184.823L11.1859 174.426L23.1918 174.426L29.1946 184.823L23.1917 195.221H11.1856Z" fill="#595959"/>
    <path d="M28.6041 184.823L22.8961 194.71L11.4803 194.71L5.77246 184.823L11.4804 174.937L22.8962 174.937L28.6041 184.823Z" fill="#666666"/>
    <path d="M27.4039 184.203L22.2639 193.105L11.984 193.105L6.88281 184.395L11.9842 175.3L22.264 175.3L27.4039 184.203H27.4039Z" fill="#747474"/>
    <path d="M17.189 192.843C21.4862 192.843 24.9698 189.36 24.9698 185.063C24.9698 180.765 21.4862 177.282 17.189 177.282C12.8918 177.282 9.4082 180.765 9.4082 185.063C9.4082 189.36 12.8918 192.843 17.189 192.843Z" fill="#595959"/>
    <path d="M17.0281 191.168C20.7607 191.168 23.7866 188.142 23.7866 184.409C23.7866 180.677 20.7607 177.651 17.0281 177.651C13.2954 177.651 10.2695 180.677 10.2695 184.409C10.2695 188.142 13.2954 191.168 17.0281 191.168Z" fill="#666666"/>
    <path d="M16.4629 189.19C19.5695 189.19 22.0879 186.671 22.0879 183.565C22.0879 180.458 19.5695 177.94 16.4629 177.94C13.3563 177.94 10.8379 180.458 10.8379 183.565C10.8379 186.671 13.3563 189.19 16.4629 189.19Z" fill="#747474"/>
    <path d="M15.5939 185.877C17.5831 185.877 19.1956 184.264 19.1956 182.275C19.1956 180.286 17.5831 178.673 15.5939 178.673C13.6047 178.673 11.9922 180.286 11.9922 182.275C11.9922 184.264 13.6047 185.877 15.5939 185.877Z" fill="#999999"/>
    <path d="M11.1856 273.627L5.18262 263.229L11.1859 252.832L23.1918 252.832L29.1946 263.229L23.1917 273.627H11.1856Z" fill="#595959"/>
    <path d="M28.6041 263.23L22.8961 273.116L11.4803 273.116L5.77246 263.229L11.4804 253.343L22.8962 253.343L28.6041 263.23Z" fill="#666666"/>
    <path d="M27.4039 262.609L22.2639 271.511L11.984 271.511L6.88281 262.801L11.9842 253.706L22.264 253.706L27.4039 262.609H27.4039Z" fill="#747474"/>
    <path d="M17.189 271.25C21.4862 271.25 24.9698 267.766 24.9698 263.469C24.9698 259.172 21.4862 255.688 17.189 255.688C12.8918 255.688 9.4082 259.172 9.4082 263.469C9.4082 267.766 12.8918 271.25 17.189 271.25Z" fill="#595959"/>
    <path d="M17.0281 269.574C20.7607 269.574 23.7866 266.548 23.7866 262.816C23.7866 259.083 20.7607 256.057 17.0281 256.057C13.2954 256.057 10.2695 259.083 10.2695 262.816C10.2695 266.548 13.2954 269.574 17.0281 269.574Z" fill="#666666"/>
    <path d="M16.4629 267.596C19.5695 267.596 22.0879 265.077 22.0879 261.971C22.0879 258.864 19.5695 256.346 16.4629 256.346C13.3563 256.346 10.8379 258.864 10.8379 261.971C10.8379 265.077 13.3563 267.596 16.4629 267.596Z" fill="#747474"/>
    <path d="M15.5939 264.283C17.5831 264.283 19.1956 262.67 19.1956 260.681C19.1956 258.692 17.5831 257.079 15.5939 257.079C13.6047 257.079 11.9922 258.692 11.9922 260.681C11.9922 262.67 13.6047 264.283 15.5939 264.283Z" fill="#999999"/>
    <path d="M11.1856 352.033L5.18262 341.635L11.1859 331.238L23.1918 331.238L29.1946 341.635L23.1917 352.033H11.1856Z" fill="#595959"/>
    <path d="M28.6041 341.636L22.8961 351.522L11.4803 351.522L5.77246 341.635L11.4804 331.749L22.8962 331.749L28.6041 341.636Z" fill="#666666"/>
    <path d="M27.4039 341.015L22.2639 349.917L11.984 349.917L6.88281 341.207L11.9842 332.112L22.264 332.112L27.4039 341.015H27.4039Z" fill="#747474"/>
    <path d="M17.189 349.656C21.4862 349.656 24.9698 346.172 24.9698 341.875C24.9698 337.578 21.4862 334.094 17.189 334.094C12.8918 334.094 9.4082 337.578 9.4082 341.875C9.4082 346.172 12.8918 349.656 17.189 349.656Z" fill="#595959"/>
    <path d="M17.0281 347.98C20.7607 347.98 23.7866 344.954 23.7866 341.222C23.7866 337.489 20.7607 334.463 17.0281 334.463C13.2954 334.463 10.2695 337.489 10.2695 341.222C10.2695 344.954 13.2954 347.98 17.0281 347.98Z" fill="#666666"/>
    <path d="M16.4629 346.002C19.5695 346.002 22.0879 343.483 22.0879 340.377C22.0879 337.27 19.5695 334.752 16.4629 334.752C13.3563 334.752 10.8379 337.27 10.8379 340.377C10.8379 343.483 13.3563 346.002 16.4629 346.002Z" fill="#747474"/>
    <path d="M15.5939 342.689C17.5831 342.689 19.1956 341.076 19.1956 339.087C19.1956 337.098 17.5831 335.485 15.5939 335.485C13.6047 335.485 11.9922 337.098 11.9922 339.087C11.9922 341.076 13.6047 342.689 15.5939 342.689Z" fill="#999999"/>
    <path d="M11.1856 430.439L5.18262 420.042L11.1859 409.644L23.1918 409.644L29.1946 420.042L23.1917 430.439H11.1856Z" fill="#595959"/>
    <path d="M28.6041 420.042L22.8961 429.928L11.4803 429.928L5.77246 420.042L11.4804 410.155L22.8962 410.155L28.6041 420.042Z" fill="#666666"/>
    <path d="M27.4039 419.421L22.2639 428.324L11.984 428.323L6.88281 419.613L11.9842 410.518L22.264 410.518L27.4039 419.421H27.4039Z" fill="#747474"/>
    <path d="M17.189 428.062C21.4862 428.062 24.9698 424.578 24.9698 420.281C24.9698 415.984 21.4862 412.5 17.189 412.5C12.8918 412.5 9.4082 415.984 9.4082 420.281C9.4082 424.578 12.8918 428.062 17.189 428.062Z" fill="#595959"/>
    <path d="M17.0281 426.386C20.7607 426.386 23.7866 423.36 23.7866 419.628C23.7866 415.895 20.7607 412.869 17.0281 412.869C13.2954 412.869 10.2695 415.895 10.2695 419.628C10.2695 423.36 13.2954 426.386 17.0281 426.386Z" fill="#666666"/>
    <path d="M16.4629 424.408C19.5695 424.408 22.0879 421.889 22.0879 418.783C22.0879 415.676 19.5695 413.158 16.4629 413.158C13.3563 413.158 10.8379 415.676 10.8379 418.783C10.8379 421.889 13.3563 424.408 16.4629 424.408Z" fill="#747474"/>
    <path d="M15.5939 421.095C17.5831 421.095 19.1956 419.482 19.1956 417.493C19.1956 415.504 17.5831 413.891 15.5939 413.891C13.6047 413.891 11.9922 415.504 11.9922 417.493C11.9922 419.482 13.6047 421.095 15.5939 421.095Z" fill="#999999"/>
    <path d="M11.1856 508.845L5.18262 498.448L11.1859 488.05L23.1918 488.05L29.1946 498.448L23.1917 508.845H11.1856Z" fill="#595959"/>
    <path d="M28.6041 498.448L22.8961 508.334L11.4803 508.334L5.77246 498.448L11.4804 488.561L22.8962 488.561L28.6041 498.448Z" fill="#666666"/>
    <path d="M27.4039 497.827L22.2639 506.73L11.984 506.73L6.88281 498.019L11.9842 488.924L22.264 488.925L27.4039 497.827H27.4039Z" fill="#747474"/>
    <path d="M17.189 506.468C21.4862 506.468 24.9698 502.984 24.9698 498.687C24.9698 494.39 21.4862 490.906 17.189 490.906C12.8918 490.906 9.4082 494.39 9.4082 498.687C9.4082 502.984 12.8918 506.468 17.189 506.468Z" fill="#595959"/>
    <path d="M17.0281 504.793C20.7607 504.793 23.7866 501.767 23.7866 498.034C23.7866 494.301 20.7607 491.275 17.0281 491.275C13.2954 491.275 10.2695 494.301 10.2695 498.034C10.2695 501.767 13.2954 504.793 17.0281 504.793Z" fill="#666666"/>
    <path d="M16.4629 502.814C19.5695 502.814 22.0879 500.296 22.0879 497.189C22.0879 494.083 19.5695 491.564 16.4629 491.564C13.3563 491.564 10.8379 494.083 10.8379 497.189C10.8379 500.296 13.3563 502.814 16.4629 502.814Z" fill="#747474"/>
    <path d="M15.5939 499.501C17.5831 499.501 19.1956 497.889 19.1956 495.899C19.1956 493.91 17.5831 492.298 15.5939 492.298C13.6047 492.298 11.9922 493.91 11.9922 495.899C11.9922 497.889 13.6047 499.501 15.5939 499.501Z" fill="#999999"/>
    <path d="M127.775 27.2026L121.772 16.8051L127.776 6.4075L139.782 6.40763L145.784 16.805L139.782 27.2026H127.775Z" fill="#595959"/>
    <path d="M145.195 16.8051L139.487 26.6915L128.071 26.6914L122.363 16.805L128.071 6.91864L139.487 6.91873L145.195 16.8051Z" fill="#666666"/>
    <path d="M143.994 16.1843L138.854 25.0869L128.574 25.0868L123.473 16.3766L128.574 7.28159L138.854 7.28165L143.994 16.1843H143.994Z" fill="#747474"/>
    <path d="M133.779 24.825C138.076 24.825 141.56 21.3414 141.56 17.0442C141.56 12.747 138.076 9.2634 133.779 9.2634C129.482 9.2634 125.998 12.747 125.998 17.0442C125.998 21.3414 129.482 24.825 133.779 24.825Z" fill="#595959"/>
    <path d="M133.618 23.1497C137.351 23.1497 140.376 20.1238 140.376 16.3912C140.376 12.6585 137.351 9.63263 133.618 9.63263C129.885 9.63263 126.859 12.6585 126.859 16.3912C126.859 20.1238 129.885 23.1497 133.618 23.1497Z" fill="#666666"/>
    <path d="M133.052 21.1714C136.158 21.1714 138.677 18.653 138.677 15.5464C138.677 12.4398 136.158 9.92145 133.052 9.92145C129.945 9.92145 127.427 12.4398 127.427 15.5464C127.427 18.653 129.945 21.1714 133.052 21.1714Z" fill="#747474"/>
    <path d="M132.184 17.8583C134.173 17.8583 135.785 16.2457 135.785 14.2566C135.785 12.2674 134.173 10.6549 132.184 10.6549C130.195 10.6549 128.582 12.2674 128.582 14.2566C128.582 16.2457 130.195 17.8583 132.184 17.8583Z" fill="#999999"/>
    <path d="M217.649 27.2026L211.646 16.805L217.65 6.40747L229.656 6.4076L235.659 16.8049L229.656 27.2026H217.649Z" fill="#595959"/>
    <path d="M235.068 16.8051L229.36 26.6915L217.944 26.6914L212.236 16.805L217.944 6.91861L229.36 6.9187L235.068 16.8051Z" fill="#666666"/>
    <path d="M233.868 16.1843L228.728 25.0868L218.448 25.0868L213.347 16.3766L218.448 7.28156L228.728 7.28162L233.868 16.1843Z" fill="#747474"/>
    <path d="M223.652 24.825C227.949 24.825 231.433 21.3414 231.433 17.0442C231.433 12.747 227.949 9.26337 223.652 9.26337C219.355 9.26337 215.871 12.747 215.871 17.0442C215.871 21.3414 219.355 24.825 223.652 24.825Z" fill="#595959"/>
    <path d="M223.491 23.1497C227.224 23.1497 230.249 20.1238 230.249 16.3911C230.249 12.6585 227.224 9.6326 223.491 9.6326C219.758 9.6326 216.732 12.6585 216.732 16.3911C216.732 20.1238 219.758 23.1497 223.491 23.1497Z" fill="#666666"/>
    <path d="M222.926 21.1714C226.032 21.1714 228.551 18.653 228.551 15.5464C228.551 12.4398 226.032 9.92142 222.926 9.92142C219.819 9.92142 217.301 12.4398 217.301 15.5464C217.301 18.653 219.819 21.1714 222.926 21.1714Z" fill="#747474"/>
    <path d="M222.057 17.8583C224.046 17.8583 225.658 16.2457 225.658 14.2566C225.658 12.2674 224.046 10.6548 222.057 10.6548C220.068 10.6548 218.455 12.2674 218.455 14.2566C218.455 16.2457 220.068 17.8583 222.057 17.8583Z" fill="#999999"/>
    <path d="M307.522 27.2026L301.52 16.805L307.523 6.40747L319.529 6.4076L325.532 16.8049L319.529 27.2026H307.522Z" fill="#595959"/>
    <path d="M324.941 16.8051L319.233 26.6915L307.817 26.6914L302.109 16.805L307.817 6.91861L319.233 6.9187L324.941 16.8051Z" fill="#666666"/>
    <path d="M323.741 16.1843L318.601 25.0868L308.321 25.0868L303.22 16.3766L308.321 7.28156L318.601 7.28162L323.741 16.1843Z" fill="#747474"/>
    <path d="M313.526 24.825C317.823 24.825 321.307 21.3414 321.307 17.0442C321.307 12.747 317.823 9.26337 313.526 9.26337C309.229 9.26337 305.745 12.747 305.745 17.0442C305.745 21.3414 309.229 24.825 313.526 24.825Z" fill="#595959"/>
    <path d="M313.365 23.1497C317.098 23.1497 320.123 20.1238 320.123 16.3911C320.123 12.6585 317.098 9.6326 313.365 9.6326C309.632 9.6326 306.606 12.6585 306.606 16.3911C306.606 20.1238 309.632 23.1497 313.365 23.1497Z" fill="#666666"/>
    <path d="M312.8 21.1714C315.906 21.1714 318.425 18.653 318.425 15.5464C318.425 12.4398 315.906 9.92142 312.8 9.92142C309.693 9.92142 307.175 12.4398 307.175 15.5464C307.175 18.653 309.693 21.1714 312.8 21.1714Z" fill="#747474"/>
    <path d="M311.931 17.8583C313.92 17.8583 315.533 16.2457 315.533 14.2566C315.533 12.2674 313.92 10.6548 311.931 10.6548C309.942 10.6548 308.329 12.2674 308.329 14.2566C308.329 16.2457 309.942 17.8583 311.931 17.8583Z" fill="#999999"/>
    <path d="M397.396 27.2026L391.394 16.805L397.397 6.40747L409.403 6.4076L415.406 16.8049L409.403 27.2026H397.396Z" fill="#595959"/>
    <path d="M414.816 16.8051L409.108 26.6915L397.692 26.6914L391.984 16.805L397.692 6.91861L409.108 6.9187L414.816 16.8051Z" fill="#666666"/>
    <path d="M413.615 16.1843L408.475 25.0868L398.195 25.0868L393.094 16.3766L398.195 7.28156L408.475 7.28162L413.615 16.1843Z" fill="#747474"/>
    <path d="M403.4 24.825C407.697 24.825 411.181 21.3414 411.181 17.0442C411.181 12.747 407.697 9.26337 403.4 9.26337C399.103 9.26337 395.619 12.747 395.619 17.0442C395.619 21.3414 399.103 24.825 403.4 24.825Z" fill="#595959"/>
    <path d="M403.239 23.1497C406.972 23.1497 409.998 20.1238 409.998 16.3911C409.998 12.6585 406.972 9.6326 403.239 9.6326C399.506 9.6326 396.48 12.6585 396.48 16.3911C396.48 20.1238 399.506 23.1497 403.239 23.1497Z" fill="#666666"/>
    <path d="M402.673 21.1714C405.779 21.1714 408.298 18.653 408.298 15.5464C408.298 12.4398 405.779 9.92142 402.673 9.92142C399.566 9.92142 397.048 12.4398 397.048 15.5464C397.048 18.653 399.566 21.1714 402.673 21.1714Z" fill="#747474"/>
    <path d="M401.805 17.8583C403.794 17.8583 405.407 16.2457 405.407 14.2566C405.407 12.2674 403.794 10.6548 401.805 10.6548C399.816 10.6548 398.203 12.2674 398.203 14.2566C398.203 16.2457 399.816 17.8583 401.805 17.8583Z" fill="#999999"/>
    <path d="M487.271 27.2026L481.268 16.805L487.271 6.40747L499.277 6.4076L505.28 16.8049L499.277 27.2026H487.271Z" fill="#595959"/>
    <path d="M504.689 16.8051L498.981 26.6915L487.565 26.6914L481.857 16.805L487.565 6.91861L498.981 6.9187L504.689 16.8051Z" fill="#666666"/>
    <path d="M503.489 16.1843L498.349 25.0868L488.069 25.0868L482.968 16.3766L488.069 7.28156L498.349 7.28162L503.489 16.1843Z" fill="#747474"/>
    <path d="M493.274 24.825C497.571 24.825 501.055 21.3414 501.055 17.0442C501.055 12.747 497.571 9.26337 493.274 9.26337C488.977 9.26337 485.493 12.747 485.493 17.0442C485.493 21.3414 488.977 24.825 493.274 24.825Z" fill="#595959"/>
    <path d="M493.113 23.1497C496.846 23.1497 499.872 20.1238 499.872 16.3911C499.872 12.6585 496.846 9.6326 493.113 9.6326C489.38 9.6326 486.354 12.6585 486.354 16.3911C486.354 20.1238 489.38 23.1497 493.113 23.1497Z" fill="#666666"/>
    <path d="M492.547 21.1714C495.653 21.1714 498.172 18.653 498.172 15.5464C498.172 12.4398 495.653 9.92142 492.547 9.92142C489.44 9.92142 486.922 12.4398 486.922 15.5464C486.922 18.653 489.44 21.1714 492.547 21.1714Z" fill="#747474"/>
    <path d="M491.679 17.8583C493.668 17.8583 495.281 16.2457 495.281 14.2566C495.281 12.2674 493.668 10.6548 491.679 10.6548C489.69 10.6548 488.077 12.2674 488.077 14.2566C488.077 16.2457 489.69 17.8583 491.679 17.8583Z" fill="#999999"/>
    <path d="M577.144 27.2026L571.142 16.805L577.145 6.40747L589.151 6.4076L595.154 16.8049L589.151 27.2026H577.144Z" fill="#595959"/>
    <path d="M594.563 16.8051L588.855 26.6915L577.439 26.6914L571.731 16.805L577.439 6.91861L588.855 6.9187L594.563 16.8051Z" fill="#666666"/>
    <path d="M593.363 16.1843L588.223 25.0868L577.943 25.0868L572.842 16.3766L577.943 7.28156L588.223 7.28162L593.363 16.1843H593.363Z" fill="#747474"/>
    <path d="M583.148 24.825C587.445 24.825 590.929 21.3414 590.929 17.0442C590.929 12.747 587.445 9.26337 583.148 9.26337C578.851 9.26337 575.367 12.747 575.367 17.0442C575.367 21.3414 578.851 24.825 583.148 24.825Z" fill="#595959"/>
    <path d="M582.987 23.1497C586.72 23.1497 589.746 20.1238 589.746 16.3911C589.746 12.6585 586.72 9.6326 582.987 9.6326C579.254 9.6326 576.229 12.6585 576.229 16.3911C576.229 20.1238 579.254 23.1497 582.987 23.1497Z" fill="#666666"/>
    <path d="M582.422 21.1714C585.528 21.1714 588.047 18.653 588.047 15.5464C588.047 12.4398 585.528 9.92142 582.422 9.92142C579.315 9.92142 576.797 12.4398 576.797 15.5464C576.797 18.653 579.315 21.1714 582.422 21.1714Z" fill="#747474"/>
    <path d="M581.553 17.8583C583.542 17.8583 585.155 16.2457 585.155 14.2566C585.155 12.2674 583.542 10.6548 581.553 10.6548C579.564 10.6548 577.951 12.2674 577.951 14.2566C577.951 16.2457 579.564 17.8583 581.553 17.8583Z" fill="#999999"/>
    <path d="M667.019 27.2026L661.016 16.805L667.019 6.40747L679.025 6.4076L685.028 16.8049L679.025 27.2026H667.019Z" fill="#595959"/>
    <path d="M684.437 16.8051L678.729 26.6915L667.313 26.6914L661.605 16.805L667.313 6.91861L678.729 6.9187L684.437 16.8051Z" fill="#666666"/>
    <path d="M683.237 16.1843L678.097 25.0868L667.817 25.0868L662.716 16.3766L667.817 7.28156L678.097 7.28162L683.237 16.1843Z" fill="#747474"/>
    <path d="M673.021 24.825C677.318 24.825 680.802 21.3414 680.802 17.0442C680.802 12.747 677.318 9.26337 673.021 9.26337C668.724 9.26337 665.24 12.747 665.24 17.0442C665.24 21.3414 668.724 24.825 673.021 24.825Z" fill="#595959"/>
    <path d="M672.86 23.1497C676.593 23.1497 679.619 20.1238 679.619 16.3911C679.619 12.6585 676.593 9.6326 672.86 9.6326C669.127 9.6326 666.102 12.6585 666.102 16.3911C666.102 20.1238 669.127 23.1497 672.86 23.1497Z" fill="#666666"/>
    <path d="M672.295 21.1714C675.402 21.1714 677.92 18.653 677.92 15.5464C677.92 12.4398 675.402 9.92142 672.295 9.92142C669.188 9.92142 666.67 12.4398 666.67 15.5464C666.67 18.653 669.188 21.1714 672.295 21.1714Z" fill="#747474"/>
    <path d="M671.426 17.8583C673.415 17.8583 675.028 16.2457 675.028 14.2566C675.028 12.2674 673.415 10.6548 671.426 10.6548C669.437 10.6548 667.824 12.2674 667.824 14.2566C667.824 16.2457 669.437 17.8583 671.426 17.8583Z" fill="#999999"/>
    <path d="M756.892 27.2026L750.889 16.805L756.892 6.40747L768.898 6.4076L774.901 16.8049L768.898 27.2026H756.892Z" fill="#595959"/>
    <path d="M774.31 16.8051L768.602 26.6915L757.186 26.6914L751.479 16.805L757.186 6.91861L768.602 6.9187L774.31 16.8051Z" fill="#666666"/>
    <path d="M773.11 16.1843L767.97 25.0868L757.69 25.0868L752.589 16.3766L757.69 7.28156L767.97 7.28162L773.11 16.1843Z" fill="#747474"/>
    <path d="M762.895 24.825C767.192 24.825 770.676 21.3414 770.676 17.0442C770.676 12.747 767.192 9.26337 762.895 9.26337C758.598 9.26337 755.114 12.747 755.114 17.0442C755.114 21.3414 758.598 24.825 762.895 24.825Z" fill="#595959"/>
    <path d="M762.734 23.1497C766.467 23.1497 769.493 20.1238 769.493 16.3911C769.493 12.6585 766.467 9.6326 762.734 9.6326C759.002 9.6326 755.976 12.6585 755.976 16.3911C755.976 20.1238 759.002 23.1497 762.734 23.1497Z" fill="#666666"/>
    <path d="M762.169 21.1714C765.276 21.1714 767.794 18.653 767.794 15.5464C767.794 12.4398 765.276 9.92142 762.169 9.92142C759.062 9.92142 756.544 12.4398 756.544 15.5464C756.544 18.653 759.062 21.1714 762.169 21.1714Z" fill="#747474"/>
    <path d="M761.3 17.8583C763.289 17.8583 764.902 16.2457 764.902 14.2566C764.902 12.2674 763.289 10.6548 761.3 10.6548C759.311 10.6548 757.698 12.2674 757.698 14.2566C757.698 16.2457 759.311 17.8583 761.3 17.8583Z" fill="#999999"/>
    <path d="M846.766 27.2026L840.763 16.805L846.766 6.40747L858.772 6.4076L864.775 16.8049L858.772 27.2026H846.766Z" fill="#595959"/>
    <path d="M864.185 16.8051L858.477 26.6915L847.061 26.6914L841.354 16.805L847.061 6.91861L858.477 6.9187L864.185 16.8051Z" fill="#666666"/>
    <path d="M862.984 16.1843L857.844 25.0868L847.564 25.0868L842.463 16.3766L847.564 7.28156L857.844 7.28162L862.984 16.1843Z" fill="#747474"/>
    <path d="M852.769 24.825C857.066 24.825 860.55 21.3414 860.55 17.0442C860.55 12.747 857.066 9.26337 852.769 9.26337C848.472 9.26337 844.988 12.747 844.988 17.0442C844.988 21.3414 848.472 24.825 852.769 24.825Z" fill="#595959"/>
    <path d="M852.608 23.1497C856.341 23.1497 859.367 20.1238 859.367 16.3911C859.367 12.6585 856.341 9.6326 852.608 9.6326C848.876 9.6326 845.85 12.6585 845.85 16.3911C845.85 20.1238 848.876 23.1497 852.608 23.1497Z" fill="#666666"/>
    <path d="M852.042 21.1714C855.149 21.1714 857.667 18.653 857.667 15.5464C857.667 12.4398 855.149 9.92142 852.042 9.92142C848.935 9.92142 846.417 12.4398 846.417 15.5464C846.417 18.653 848.935 21.1714 852.042 21.1714Z" fill="#747474"/>
    <path d="M851.174 17.8583C853.163 17.8583 854.776 16.2457 854.776 14.2566C854.776 12.2674 853.163 10.6548 851.174 10.6548C849.185 10.6548 847.572 12.2674 847.572 14.2566C847.572 16.2457 849.185 17.8583 851.174 17.8583Z" fill="#999999"/>
    <path d="M936.64 27.2026L930.637 16.805L936.64 6.40747L948.646 6.4076L954.649 16.8049L948.646 27.2026H936.64Z" fill="#595959"/>
    <path d="M954.058 16.8051L948.35 26.6915L936.934 26.6914L931.227 16.805L936.935 6.91861L948.35 6.9187L954.058 16.8051Z" fill="#666666"/>
    <path d="M952.858 16.1843L947.718 25.0868L937.438 25.0868L932.337 16.3766L937.438 7.28156L947.718 7.28162L952.858 16.1843Z" fill="#747474"/>
    <path d="M942.642 24.825C946.939 24.825 950.423 21.3414 950.423 17.0442C950.423 12.747 946.939 9.26337 942.642 9.26337C938.345 9.26337 934.861 12.747 934.861 17.0442C934.861 21.3414 938.345 24.825 942.642 24.825Z" fill="#595959"/>
    <path d="M942.481 23.1497C946.214 23.1497 949.24 20.1238 949.24 16.3911C949.24 12.6585 946.214 9.6326 942.481 9.6326C938.749 9.6326 935.723 12.6585 935.723 16.3911C935.723 20.1238 938.749 23.1497 942.481 23.1497Z" fill="#666666"/>
    <path d="M941.916 21.1714C945.023 21.1714 947.541 18.653 947.541 15.5464C947.541 12.4398 945.023 9.92142 941.916 9.92142C938.809 9.92142 936.291 12.4398 936.291 15.5464C936.291 18.653 938.809 21.1714 941.916 21.1714Z" fill="#747474"/>
    <path d="M941.047 17.8583C943.036 17.8583 944.649 16.2457 944.649 14.2566C944.649 12.2674 943.036 10.6548 941.047 10.6548C939.058 10.6548 937.445 12.2674 937.445 14.2566C937.445 16.2457 939.058 17.8583 941.047 17.8583Z" fill="#999999"/>
    <path d="M50.1631 50.2804L44.1602 39.8828L50.1634 29.4853L62.1694 29.4854L68.1722 39.8828L62.1693 50.2804H50.1631Z" fill="#595959"/>
    <path d="M67.5816 39.8828L61.8736 49.7691L50.4578 49.7691L44.75 39.8826L50.458 29.9963L61.8738 29.9964L67.5816 39.8828Z" fill="#666666"/>
    <path d="M66.3814 39.2622L61.2414 48.1648L50.9616 48.1647L45.8604 39.4545L50.9617 30.3595L61.2416 30.3596L66.3814 39.2622H66.3814Z" fill="#747474"/>
    <path d="M56.1665 47.9027C60.4638 47.9027 63.9473 44.4191 63.9473 40.1219C63.9473 35.8247 60.4638 32.3411 56.1665 32.3411C51.8693 32.3411 48.3857 35.8247 48.3857 40.1219C48.3857 44.4191 51.8693 47.9027 56.1665 47.9027Z" fill="#595959"/>
    <path d="M56.0056 46.2273C59.7382 46.2273 62.7641 43.2014 62.7641 39.4688C62.7641 35.7362 59.7382 32.7103 56.0056 32.7103C52.273 32.7103 49.2471 35.7362 49.2471 39.4688C49.2471 43.2014 52.273 46.2273 56.0056 46.2273Z" fill="#666666"/>
    <path d="M55.4404 44.2489C58.547 44.2489 61.0654 41.7305 61.0654 38.6239C61.0654 35.5174 58.547 32.999 55.4404 32.999C52.3338 32.999 49.8154 35.5174 49.8154 38.6239C49.8154 41.7305 52.3338 44.2489 55.4404 44.2489Z" fill="#747474"/>
    <path d="M54.5714 40.936C56.5606 40.936 58.1731 39.3234 58.1731 37.3343C58.1731 35.3451 56.5606 33.7326 54.5714 33.7326C52.5823 33.7326 50.9697 35.3451 50.9697 37.3343C50.9697 39.3234 52.5823 40.936 54.5714 40.936Z" fill="#999999"/>
    <path d="M51.9561 646.634L45.9531 636.236L51.9564 625.839L63.9623 625.839L69.9651 636.236L63.9622 646.634H51.9561Z" fill="#595959"/>
    <path d="M69.3746 636.236L63.6666 646.123L52.2508 646.122L46.543 636.236L52.2509 626.35L63.6668 626.35L69.3746 636.236Z" fill="#666666"/>
    <path d="M68.1744 635.615L63.0344 644.518L52.7545 644.518L47.6533 635.808L52.7547 626.713L63.0345 626.713L68.1744 635.615H68.1744Z" fill="#747474"/>
    <path d="M57.9595 644.256C62.2567 644.256 65.7403 640.773 65.7403 636.475C65.7403 632.178 62.2567 628.695 57.9595 628.695C53.6623 628.695 50.1787 632.178 50.1787 636.475C50.1787 640.773 53.6623 644.256 57.9595 644.256Z" fill="#595959"/>
    <path d="M57.7986 642.581C61.5312 642.581 64.5571 639.555 64.5571 635.822C64.5571 632.09 61.5312 629.064 57.7986 629.064C54.0659 629.064 51.04 632.09 51.04 635.822C51.04 639.555 54.0659 642.581 57.7986 642.581Z" fill="#666666"/>
    <path d="M57.2334 640.602C60.34 640.602 62.8584 638.084 62.8584 634.977C62.8584 631.871 60.34 629.352 57.2334 629.352C54.1268 629.352 51.6084 631.871 51.6084 634.977C51.6084 638.084 54.1268 640.602 57.2334 640.602Z" fill="#747474"/>
    <path d="M56.3644 637.289C58.3536 637.289 59.9661 635.677 59.9661 633.688C59.9661 631.699 58.3536 630.086 56.3644 630.086C54.3752 630.086 52.7627 631.699 52.7627 633.688C52.7627 635.677 54.3752 637.289 56.3644 637.289Z" fill="#999999"/>
    <path d="M1000.78 61.0191L994.775 50.6215L1000.78 40.2239L1012.78 40.2241L1018.79 50.6214L1012.78 61.0191H1000.78Z" fill="#595959"/>
    <path d="M1018.2 50.6215L1012.49 60.5078L1001.07 60.5077L995.365 50.6213L1001.07 40.735L1012.49 40.735L1018.2 50.6215Z" fill="#666666"/>
    <path d="M1017 50.0008L1011.86 58.9034L1001.58 58.9033L996.476 50.1932L1001.58 41.0981L1011.86 41.0982L1017 50.0008Z" fill="#747474"/>
    <path d="M1006.78 58.6416C1011.08 58.6416 1014.56 55.158 1014.56 50.8608C1014.56 46.5636 1011.08 43.08 1006.78 43.08C1002.48 43.08 999.001 46.5636 999.001 50.8608C999.001 55.158 1002.48 58.6416 1006.78 58.6416Z" fill="#595959"/>
    <path d="M1006.62 56.9662C1010.35 56.9662 1013.38 53.9403 1013.38 50.2077C1013.38 46.4751 1010.35 43.4492 1006.62 43.4492C1002.89 43.4492 999.862 46.4751 999.862 50.2077C999.862 53.9403 1002.89 56.9662 1006.62 56.9662Z" fill="#666666"/>
    <path d="M1006.06 54.9878C1009.16 54.9878 1011.68 52.4694 1011.68 49.3628C1011.68 46.2562 1009.16 43.7379 1006.06 43.7379C1002.95 43.7379 1000.43 46.2562 1000.43 49.3628C1000.43 52.4694 1002.95 54.9878 1006.06 54.9878Z" fill="#747474"/>
    <path d="M1005.19 51.6746C1007.18 51.6746 1008.79 50.0621 1008.79 48.0729C1008.79 46.0838 1007.18 44.4712 1005.19 44.4712C1003.2 44.4712 1001.58 46.0838 1001.58 48.0729C1001.58 50.0621 1003.2 51.6746 1005.19 51.6746Z" fill="#999999"/>
    <path d="M996.976 638.806L990.973 628.408L996.976 618.011L1008.98 618.011L1014.98 628.408L1008.98 638.806H996.976Z" fill="#595959"/>
    <path d="M1014.39 628.408L1008.69 638.295L997.27 638.295L991.562 628.408L997.27 618.522L1008.69 618.522L1014.39 628.408Z" fill="#666666"/>
    <path d="M1013.19 627.788L1008.05 636.69L997.774 636.69L992.673 627.98L997.774 618.885L1008.05 618.885L1013.19 627.788Z" fill="#747474"/>
    <path d="M1002.98 636.429C1007.28 636.429 1010.76 632.945 1010.76 628.648C1010.76 624.351 1007.28 620.867 1002.98 620.867C998.682 620.867 995.198 624.351 995.198 628.648C995.198 632.945 998.682 636.429 1002.98 636.429Z" fill="#595959"/>
    <path d="M1002.82 634.753C1006.55 634.753 1009.58 631.727 1009.58 627.995C1009.58 624.262 1006.55 621.236 1002.82 621.236C999.085 621.236 996.06 624.262 996.06 627.995C996.06 631.727 999.085 634.753 1002.82 634.753Z" fill="#666666"/>
    <path d="M1002.25 632.775C1005.36 632.775 1007.88 630.256 1007.88 627.15C1007.88 624.043 1005.36 621.525 1002.25 621.525C999.146 621.525 996.628 624.043 996.628 627.15C996.628 630.256 999.146 632.775 1002.25 632.775Z" fill="#747474"/>
    <path d="M1001.38 629.462C1003.37 629.462 1004.99 627.849 1004.99 625.86C1004.99 623.871 1003.37 622.258 1001.38 622.258C999.395 622.258 997.782 623.871 997.782 625.86C997.782 627.849 999.395 629.462 1001.38 629.462Z" fill="#999999"/>
    <path d="M126.9 668.183L120.897 657.786L126.901 647.388L138.907 647.388L144.909 657.786L138.907 668.183H126.9Z" fill="#595959"/>
    <path d="M144.319 657.786L138.611 667.672L127.195 667.672L121.487 657.786L127.195 647.899L138.611 647.899L144.319 657.786Z" fill="#666666"/>
    <path d="M143.119 657.165L137.979 666.068L127.699 666.068L122.598 657.357L127.699 648.262L137.979 648.262L143.119 657.165H143.119Z" fill="#747474"/>
    <path d="M132.904 665.806C137.201 665.806 140.685 662.322 140.685 658.025C140.685 653.728 137.201 650.244 132.904 650.244C128.607 650.244 125.123 653.728 125.123 658.025C125.123 662.322 128.607 665.806 132.904 665.806Z" fill="#595959"/>
    <path d="M132.743 664.13C136.476 664.13 139.501 661.104 139.501 657.372C139.501 653.639 136.476 650.613 132.743 650.613C129.01 650.613 125.984 653.639 125.984 657.372C125.984 661.104 129.01 664.13 132.743 664.13Z" fill="#666666"/>
    <path d="M132.178 662.152C135.284 662.152 137.803 659.634 137.803 656.527C137.803 653.42 135.284 650.902 132.178 650.902C129.071 650.902 126.553 653.42 126.553 656.527C126.553 659.634 129.071 662.152 132.178 662.152Z" fill="#747474"/>
    <path d="M131.309 658.839C133.298 658.839 134.91 657.226 134.91 655.237C134.91 653.248 133.298 651.635 131.309 651.635C129.32 651.635 127.707 653.248 127.707 655.237C127.707 657.226 129.32 658.839 131.309 658.839Z" fill="#999999"/>
    <path d="M216.774 668.183L210.771 657.786L216.775 647.388L228.781 647.388L234.783 657.786L228.781 668.183H216.774Z" fill="#595959"/>
    <path d="M234.193 657.786L228.485 667.672L217.069 667.672L211.361 657.786L217.069 647.899L228.485 647.899L234.193 657.786Z" fill="#666666"/>
    <path d="M232.993 657.165L227.853 666.068L217.573 666.068L212.472 657.357L217.573 648.262L227.853 648.262L232.993 657.165Z" fill="#747474"/>
    <path d="M222.778 665.806C227.075 665.806 230.559 662.322 230.559 658.025C230.559 653.728 227.075 650.244 222.778 650.244C218.481 650.244 214.997 653.728 214.997 658.025C214.997 662.322 218.481 665.806 222.778 665.806Z" fill="#595959"/>
    <path d="M222.617 664.13C226.35 664.13 229.375 661.104 229.375 657.372C229.375 653.639 226.35 650.613 222.617 650.613C218.884 650.613 215.858 653.639 215.858 657.372C215.858 661.104 218.884 664.13 222.617 664.13Z" fill="#666666"/>
    <path d="M222.052 662.152C225.158 662.152 227.677 659.634 227.677 656.527C227.677 653.42 225.158 650.902 222.052 650.902C218.945 650.902 216.427 653.42 216.427 656.527C216.427 659.634 218.945 662.152 222.052 662.152Z" fill="#747474"/>
    <path d="M221.183 658.839C223.172 658.839 224.784 657.226 224.784 655.237C224.784 653.248 223.172 651.635 221.183 651.635C219.194 651.635 217.581 653.248 217.581 655.237C217.581 657.226 219.194 658.839 221.183 658.839Z" fill="#999999"/>
    <path d="M306.648 668.183L300.646 657.786L306.649 647.388L318.655 647.388L324.658 657.786L318.655 668.183H306.648Z" fill="#595959"/>
    <path d="M324.067 657.786L318.359 667.672L306.943 667.672L301.235 657.786L306.943 647.899L318.359 647.899L324.067 657.786Z" fill="#666666"/>
    <path d="M322.867 657.165L317.727 666.068L307.447 666.068L302.346 657.357L307.447 648.262L317.727 648.262L322.867 657.165H322.867Z" fill="#747474"/>
    <path d="M312.652 665.806C316.949 665.806 320.433 662.322 320.433 658.025C320.433 653.728 316.949 650.244 312.652 650.244C308.355 650.244 304.871 653.728 304.871 658.025C304.871 662.322 308.355 665.806 312.652 665.806Z" fill="#595959"/>
    <path d="M312.491 664.13C316.224 664.13 319.249 661.104 319.249 657.372C319.249 653.639 316.224 650.613 312.491 650.613C308.758 650.613 305.732 653.639 305.732 657.372C305.732 661.104 308.758 664.13 312.491 664.13Z" fill="#666666"/>
    <path d="M311.926 662.152C315.032 662.152 317.551 659.634 317.551 656.527C317.551 653.42 315.032 650.902 311.926 650.902C308.819 650.902 306.301 653.42 306.301 656.527C306.301 659.634 308.819 662.152 311.926 662.152Z" fill="#747474"/>
    <path d="M311.057 658.839C313.046 658.839 314.659 657.226 314.659 655.237C314.659 653.248 313.046 651.635 311.057 651.635C309.068 651.635 307.455 653.248 307.455 655.237C307.455 657.226 309.068 658.839 311.057 658.839Z" fill="#999999"/>
    <path d="M396.521 668.183L390.519 657.786L396.522 647.388L408.528 647.388L414.531 657.786L408.528 668.183H396.521Z" fill="#595959"/>
    <path d="M413.941 657.786L408.233 667.672L396.817 667.672L391.109 657.786L396.817 647.899L408.233 647.899L413.941 657.786Z" fill="#666666"/>
    <path d="M412.74 657.165L407.6 666.068L397.32 666.068L392.219 657.357L397.32 648.262L407.6 648.262L412.74 657.165Z" fill="#747474"/>
    <path d="M402.525 665.806C406.822 665.806 410.306 662.322 410.306 658.025C410.306 653.728 406.822 650.244 402.525 650.244C398.228 650.244 394.744 653.728 394.744 658.025C394.744 662.322 398.228 665.806 402.525 665.806Z" fill="#595959"/>
    <path d="M402.364 664.13C406.097 664.13 409.123 661.104 409.123 657.372C409.123 653.639 406.097 650.613 402.364 650.613C398.631 650.613 395.605 653.639 395.605 657.372C395.605 661.104 398.631 664.13 402.364 664.13Z" fill="#666666"/>
    <path d="M401.798 662.152C404.904 662.152 407.423 659.634 407.423 656.527C407.423 653.42 404.904 650.902 401.798 650.902C398.691 650.902 396.173 653.42 396.173 656.527C396.173 659.634 398.691 662.152 401.798 662.152Z" fill="#747474"/>
    <path d="M400.93 658.839C402.919 658.839 404.532 657.226 404.532 655.237C404.532 653.248 402.919 651.635 400.93 651.635C398.941 651.635 397.328 653.248 397.328 655.237C397.328 657.226 398.941 658.839 400.93 658.839Z" fill="#999999"/>
    <path d="M486.396 668.183L480.393 657.786L486.396 647.388L498.402 647.388L504.405 657.786L498.402 668.183H486.396Z" fill="#595959"/>
    <path d="M503.814 657.786L498.106 667.672L486.69 667.672L480.982 657.786L486.69 647.899L498.106 647.899L503.814 657.786Z" fill="#666666"/>
    <path d="M502.614 657.165L497.474 666.068L487.194 666.068L482.093 657.357L487.194 648.262L497.474 648.262L502.614 657.165Z" fill="#747474"/>
    <path d="M492.399 665.806C496.696 665.806 500.18 662.322 500.18 658.025C500.18 653.728 496.696 650.244 492.399 650.244C488.102 650.244 484.618 653.728 484.618 658.025C484.618 662.322 488.102 665.806 492.399 665.806Z" fill="#595959"/>
    <path d="M492.238 664.13C495.971 664.13 498.997 661.104 498.997 657.372C498.997 653.639 495.971 650.613 492.238 650.613C488.505 650.613 485.479 653.639 485.479 657.372C485.479 661.104 488.505 664.13 492.238 664.13Z" fill="#666666"/>
    <path d="M491.673 662.152C494.779 662.152 497.298 659.634 497.298 656.527C497.298 653.42 494.779 650.902 491.673 650.902C488.566 650.902 486.048 653.42 486.048 656.527C486.048 659.634 488.566 662.152 491.673 662.152Z" fill="#747474"/>
    <path d="M490.804 658.839C492.793 658.839 494.406 657.226 494.406 655.237C494.406 653.248 492.793 651.635 490.804 651.635C488.815 651.635 487.202 653.248 487.202 655.237C487.202 657.226 488.815 658.839 490.804 658.839Z" fill="#999999"/>
    <path d="M576.27 668.183L570.267 657.786L576.27 647.388L588.276 647.388L594.279 657.786L588.276 668.183H576.27Z" fill="#595959"/>
    <path d="M593.688 657.786L587.98 667.672L576.564 667.672L570.856 657.786L576.564 647.899L587.98 647.899L593.688 657.786Z" fill="#666666"/>
    <path d="M592.488 657.165L587.348 666.068L577.068 666.068L571.967 657.357L577.068 648.262L587.348 648.262L592.488 657.165Z" fill="#747474"/>
    <path d="M582.273 665.806C586.57 665.806 590.054 662.322 590.054 658.025C590.054 653.728 586.57 650.244 582.273 650.244C577.976 650.244 574.492 653.728 574.492 658.025C574.492 662.322 577.976 665.806 582.273 665.806Z" fill="#595959"/>
    <path d="M582.112 664.13C585.845 664.13 588.871 661.104 588.871 657.372C588.871 653.639 585.845 650.613 582.112 650.613C578.379 650.613 575.354 653.639 575.354 657.372C575.354 661.104 578.379 664.13 582.112 664.13Z" fill="#666666"/>
    <path d="M581.547 662.152C584.653 662.152 587.172 659.634 587.172 656.527C587.172 653.42 584.653 650.902 581.547 650.902C578.44 650.902 575.922 653.42 575.922 656.527C575.922 659.634 578.44 662.152 581.547 662.152Z" fill="#747474"/>
    <path d="M580.678 658.839C582.667 658.839 584.28 657.226 584.28 655.237C584.28 653.248 582.667 651.635 580.678 651.635C578.689 651.635 577.076 653.248 577.076 655.237C577.076 657.226 578.689 658.839 580.678 658.839Z" fill="#999999"/>
    <path d="M666.143 668.183L660.141 657.786L666.144 647.388L678.15 647.388L684.153 657.786L678.15 668.183H666.143Z" fill="#595959"/>
    <path d="M683.562 657.786L677.854 667.672L666.438 667.672L660.73 657.786L666.438 647.899L677.854 647.899L683.562 657.786Z" fill="#666666"/>
    <path d="M682.362 657.165L677.222 666.068L666.942 666.068L661.841 657.357L666.942 648.262L677.222 648.262L682.362 657.165H682.362Z" fill="#747474"/>
    <path d="M672.147 665.806C676.444 665.806 679.928 662.322 679.928 658.025C679.928 653.728 676.444 650.244 672.147 650.244C667.85 650.244 664.366 653.728 664.366 658.025C664.366 662.322 667.85 665.806 672.147 665.806Z" fill="#595959"/>
    <path d="M671.986 664.13C675.719 664.13 678.745 661.104 678.745 657.372C678.745 653.639 675.719 650.613 671.986 650.613C668.253 650.613 665.228 653.639 665.228 657.372C665.228 661.104 668.253 664.13 671.986 664.13Z" fill="#666666"/>
    <path d="M671.42 662.152C674.527 662.152 677.045 659.634 677.045 656.527C677.045 653.42 674.527 650.902 671.42 650.902C668.313 650.902 665.795 653.42 665.795 656.527C665.795 659.634 668.313 662.152 671.42 662.152Z" fill="#747474"/>
    <path d="M670.552 658.839C672.541 658.839 674.154 657.226 674.154 655.237C674.154 653.248 672.541 651.635 670.552 651.635C668.563 651.635 666.95 653.248 666.95 655.237C666.95 657.226 668.563 658.839 670.552 658.839Z" fill="#999999"/>
    <path d="M756.017 668.183L750.014 657.786L756.017 647.388L768.023 647.388L774.026 657.786L768.023 668.183H756.017Z" fill="#595959"/>
    <path d="M773.435 657.786L767.727 667.672L756.311 667.672L750.604 657.786L756.311 647.899L767.727 647.899L773.435 657.786Z" fill="#666666"/>
    <path d="M772.235 657.165L767.095 666.068L756.815 666.068L751.714 657.357L756.815 648.262L767.095 648.262L772.235 657.165Z" fill="#747474"/>
    <path d="M762.02 665.806C766.317 665.806 769.801 662.322 769.801 658.025C769.801 653.728 766.317 650.244 762.02 650.244C757.723 650.244 754.239 653.728 754.239 658.025C754.239 662.322 757.723 665.806 762.02 665.806Z" fill="#595959"/>
    <path d="M761.859 664.13C765.592 664.13 768.618 661.104 768.618 657.372C768.618 653.639 765.592 650.613 761.859 650.613C758.126 650.613 755.101 653.639 755.101 657.372C755.101 661.104 758.126 664.13 761.859 664.13Z" fill="#666666"/>
    <path d="M761.294 662.152C764.401 662.152 766.919 659.634 766.919 656.527C766.919 653.42 764.401 650.902 761.294 650.902C758.187 650.902 755.669 653.42 755.669 656.527C755.669 659.634 758.187 662.152 761.294 662.152Z" fill="#747474"/>
    <path d="M760.425 658.839C762.414 658.839 764.027 657.226 764.027 655.237C764.027 653.248 762.414 651.635 760.425 651.635C758.436 651.635 756.823 653.248 756.823 655.237C756.823 657.226 758.436 658.839 760.425 658.839Z" fill="#999999"/>
    <path d="M845.891 668.183L839.888 657.786L845.891 647.388L857.897 647.388L863.9 657.786L857.897 668.183H845.891Z" fill="#595959"/>
    <path d="M863.309 657.786L857.601 667.672L846.185 667.672L840.478 657.786L846.186 647.899L857.601 647.899L863.309 657.786Z" fill="#666666"/>
    <path d="M862.109 657.165L856.969 666.068L846.689 666.068L841.588 657.357L846.689 648.262L856.969 648.262L862.109 657.165Z" fill="#747474"/>
    <path d="M851.894 665.806C856.191 665.806 859.675 662.322 859.675 658.025C859.675 653.728 856.191 650.244 851.894 650.244C847.597 650.244 844.113 653.728 844.113 658.025C844.113 662.322 847.597 665.806 851.894 665.806Z" fill="#595959"/>
    <path d="M851.733 664.13C855.466 664.13 858.492 661.104 858.492 657.372C858.492 653.639 855.466 650.613 851.733 650.613C848 650.613 844.975 653.639 844.975 657.372C844.975 661.104 848 664.13 851.733 664.13Z" fill="#666666"/>
    <path d="M851.168 662.152C854.275 662.152 856.793 659.634 856.793 656.527C856.793 653.42 854.275 650.902 851.168 650.902C848.061 650.902 845.543 653.42 845.543 656.527C845.543 659.634 848.061 662.152 851.168 662.152Z" fill="#747474"/>
    <path d="M850.299 658.839C852.288 658.839 853.901 657.226 853.901 655.237C853.901 653.248 852.288 651.635 850.299 651.635C848.31 651.635 846.697 653.248 846.697 655.237C846.697 657.226 848.31 658.839 850.299 658.839Z" fill="#999999"/>
    <path d="M935.765 668.183L929.762 657.786L935.765 647.388L947.771 647.388L953.774 657.786L947.771 668.183H935.765Z" fill="#595959"/>
    <path d="M953.184 657.786L947.476 667.672L936.06 667.672L930.353 657.786L936.061 647.899L947.476 647.899L953.184 657.786Z" fill="#666666"/>
    <path d="M951.983 657.165L946.843 666.068L936.563 666.068L931.462 657.357L936.563 648.262L946.843 648.262L951.983 657.165Z" fill="#747474"/>
    <path d="M941.768 665.806C946.065 665.806 949.549 662.322 949.549 658.025C949.549 653.728 946.065 650.244 941.768 650.244C937.471 650.244 933.987 653.728 933.987 658.025C933.987 662.322 937.471 665.806 941.768 665.806Z" fill="#595959"/>
    <path d="M941.607 664.13C945.34 664.13 948.366 661.104 948.366 657.372C948.366 653.639 945.34 650.613 941.607 650.613C937.875 650.613 934.849 653.639 934.849 657.372C934.849 661.104 937.875 664.13 941.607 664.13Z" fill="#666666"/>
    <path d="M941.042 662.152C944.149 662.152 946.667 659.634 946.667 656.527C946.667 653.42 944.149 650.902 941.042 650.902C937.935 650.902 935.417 653.42 935.417 656.527C935.417 659.634 937.935 662.152 941.042 662.152Z" fill="#747474"/>
    <path d="M940.173 658.839C942.162 658.839 943.775 657.226 943.775 655.237C943.775 653.248 942.162 651.635 940.173 651.635C938.184 651.635 936.571 653.248 936.571 655.237C936.571 657.226 938.184 658.839 940.173 658.839Z" fill="#999999"/>
    <path d="M1028.93 118.047L1022.93 107.65L1028.93 97.2521L1040.94 97.2523L1046.94 107.65L1040.94 118.047H1028.93Z" fill="#595959"/>
    <path d="M1046.35 107.65L1040.64 117.536L1029.22 117.536L1023.52 107.65L1029.22 97.7633L1040.64 97.7634L1046.35 107.65Z" fill="#666666"/>
    <path d="M1045.15 107.029L1040.01 115.932L1029.73 115.932L1024.63 107.221L1029.73 98.1264L1040.01 98.1265L1045.15 107.029H1045.15Z" fill="#747474"/>
    <path d="M1034.93 115.67C1039.23 115.67 1042.71 112.186 1042.71 107.889C1042.71 103.592 1039.23 100.108 1034.93 100.108C1030.64 100.108 1027.15 103.592 1027.15 107.889C1027.15 112.186 1030.64 115.67 1034.93 115.67Z" fill="#595959"/>
    <path d="M1034.77 113.994C1038.5 113.994 1041.53 110.968 1041.53 107.236C1041.53 103.503 1038.5 100.477 1034.77 100.477C1031.04 100.477 1028.01 103.503 1028.01 107.236C1028.01 110.968 1031.04 113.994 1034.77 113.994Z" fill="#666666"/>
    <path d="M1034.21 112.016C1037.31 112.016 1039.83 109.498 1039.83 106.391C1039.83 103.284 1037.31 100.766 1034.21 100.766C1031.1 100.766 1028.58 103.284 1028.58 106.391C1028.58 109.498 1031.1 112.016 1034.21 112.016Z" fill="#747474"/>
    <path d="M1033.34 108.703C1035.33 108.703 1036.94 107.091 1036.94 105.101C1036.94 103.112 1035.33 101.5 1033.34 101.5C1031.35 101.5 1029.74 103.112 1029.74 105.101C1029.74 107.091 1031.35 108.703 1033.34 108.703Z" fill="#999999"/>
    <path d="M1028.93 196.453L1022.93 186.056L1028.93 175.658L1040.94 175.658L1046.94 186.056L1040.94 196.453H1028.93Z" fill="#595959"/>
    <path d="M1046.35 186.056L1040.64 195.942L1029.22 195.942L1023.52 186.056L1029.22 176.169L1040.64 176.169L1046.35 186.056Z" fill="#666666"/>
    <path d="M1045.15 185.435L1040.01 194.338L1029.73 194.338L1024.63 185.627L1029.73 176.532L1040.01 176.532L1045.15 185.435H1045.15Z" fill="#747474"/>
    <path d="M1034.93 194.076C1039.23 194.076 1042.71 190.592 1042.71 186.295C1042.71 181.998 1039.23 178.514 1034.93 178.514C1030.64 178.514 1027.15 181.998 1027.15 186.295C1027.15 190.592 1030.64 194.076 1034.93 194.076Z" fill="#595959"/>
    <path d="M1034.77 192.4C1038.5 192.4 1041.53 189.374 1041.53 185.642C1041.53 181.909 1038.5 178.883 1034.77 178.883C1031.04 178.883 1028.01 181.909 1028.01 185.642C1028.01 189.374 1031.04 192.4 1034.77 192.4Z" fill="#666666"/>
    <path d="M1034.21 190.422C1037.31 190.422 1039.83 187.904 1039.83 184.797C1039.83 181.69 1037.31 179.172 1034.21 179.172C1031.1 179.172 1028.58 181.69 1028.58 184.797C1028.58 187.904 1031.1 190.422 1034.21 190.422Z" fill="#747474"/>
    <path d="M1033.34 187.109C1035.33 187.109 1036.94 185.496 1036.94 183.507C1036.94 181.518 1035.33 179.906 1033.34 179.906C1031.35 179.906 1029.74 181.518 1029.74 183.507C1029.74 185.496 1031.35 187.109 1033.34 187.109Z" fill="#999999"/>
    <path d="M1028.93 274.86L1022.93 264.462L1028.93 254.064L1040.94 254.065L1046.94 264.462L1040.94 274.86H1028.93Z" fill="#595959"/>
    <path d="M1046.35 264.462L1040.64 274.348L1029.22 274.348L1023.52 264.462L1029.22 254.576L1040.64 254.576L1046.35 264.462Z" fill="#666666"/>
    <path d="M1045.15 263.841L1040.01 272.744L1029.73 272.744L1024.63 264.034L1029.73 254.939L1040.01 254.939L1045.15 263.841H1045.15Z" fill="#747474"/>
    <path d="M1034.93 272.482C1039.23 272.482 1042.71 268.998 1042.71 264.701C1042.71 260.404 1039.23 256.92 1034.93 256.92C1030.64 256.92 1027.15 260.404 1027.15 264.701C1027.15 268.998 1030.64 272.482 1034.93 272.482Z" fill="#595959"/>
    <path d="M1034.77 270.807C1038.5 270.807 1041.53 267.781 1041.53 264.048C1041.53 260.315 1038.5 257.289 1034.77 257.289C1031.04 257.289 1028.01 260.315 1028.01 264.048C1028.01 267.781 1031.04 270.807 1034.77 270.807Z" fill="#666666"/>
    <path d="M1034.21 268.828C1037.31 268.828 1039.83 266.31 1039.83 263.203C1039.83 260.097 1037.31 257.578 1034.21 257.578C1031.1 257.578 1028.58 260.097 1028.58 263.203C1028.58 266.31 1031.1 268.828 1034.21 268.828Z" fill="#747474"/>
    <path d="M1033.34 265.515C1035.33 265.515 1036.94 263.903 1036.94 261.913C1036.94 259.924 1035.33 258.312 1033.34 258.312C1031.35 258.312 1029.74 259.924 1029.74 261.913C1029.74 263.903 1031.35 265.515 1033.34 265.515Z" fill="#999999"/>
    <path d="M1028.93 353.266L1022.93 342.868L1028.93 332.471L1040.94 332.471L1046.94 342.868L1040.94 353.266H1028.93Z" fill="#595959"/>
    <path d="M1046.35 342.868L1040.64 352.755L1029.22 352.755L1023.52 342.868L1029.22 332.982L1040.64 332.982L1046.35 342.868Z" fill="#666666"/>
    <path d="M1045.15 342.248L1040.01 351.15L1029.73 351.15L1024.63 342.44L1029.73 333.345L1040.01 333.345L1045.15 342.248H1045.15Z" fill="#747474"/>
    <path d="M1034.93 350.888C1039.23 350.888 1042.71 347.405 1042.71 343.107C1042.71 338.81 1039.23 335.327 1034.93 335.327C1030.64 335.327 1027.15 338.81 1027.15 343.107C1027.15 347.405 1030.64 350.888 1034.93 350.888Z" fill="#595959"/>
    <path d="M1034.77 349.213C1038.5 349.213 1041.53 346.187 1041.53 342.454C1041.53 338.722 1038.5 335.696 1034.77 335.696C1031.04 335.696 1028.01 338.722 1028.01 342.454C1028.01 346.187 1031.04 349.213 1034.77 349.213Z" fill="#666666"/>
    <path d="M1034.21 347.234C1037.31 347.234 1039.83 344.716 1039.83 341.609C1039.83 338.503 1037.31 335.984 1034.21 335.984C1031.1 335.984 1028.58 338.503 1028.58 341.609C1028.58 344.716 1031.1 347.234 1034.21 347.234Z" fill="#747474"/>
    <path d="M1033.34 343.921C1035.33 343.921 1036.94 342.309 1036.94 340.32C1036.94 338.33 1035.33 336.718 1033.34 336.718C1031.35 336.718 1029.74 338.33 1029.74 340.32C1029.74 342.309 1031.35 343.921 1033.34 343.921Z" fill="#999999"/>
    <path d="M1028.93 431.672L1022.93 421.274L1028.93 410.877L1040.94 410.877L1046.94 421.274L1040.94 431.672H1028.93Z" fill="#595959"/>
    <path d="M1046.35 421.274L1040.64 431.161L1029.22 431.16L1023.52 421.274L1029.22 411.388L1040.64 411.388L1046.35 421.274Z" fill="#666666"/>
    <path d="M1045.15 420.653L1040.01 429.556L1029.73 429.556L1024.63 420.846L1029.73 411.751L1040.01 411.751L1045.15 420.653H1045.15Z" fill="#747474"/>
    <path d="M1034.93 429.294C1039.23 429.294 1042.71 425.81 1042.71 421.513C1042.71 417.216 1039.23 413.732 1034.93 413.732C1030.64 413.732 1027.15 417.216 1027.15 421.513C1027.15 425.81 1030.64 429.294 1034.93 429.294Z" fill="#595959"/>
    <path d="M1034.77 427.619C1038.5 427.619 1041.53 424.593 1041.53 420.86C1041.53 417.127 1038.5 414.102 1034.77 414.102C1031.04 414.102 1028.01 417.127 1028.01 420.86C1028.01 424.593 1031.04 427.619 1034.77 427.619Z" fill="#666666"/>
    <path d="M1034.21 425.64C1037.31 425.64 1039.83 423.122 1039.83 420.015C1039.83 416.909 1037.31 414.39 1034.21 414.39C1031.1 414.39 1028.58 416.909 1028.58 420.015C1028.58 423.122 1031.1 425.64 1034.21 425.64Z" fill="#747474"/>
    <path d="M1033.34 422.327C1035.33 422.327 1036.94 420.715 1036.94 418.726C1036.94 416.736 1035.33 415.124 1033.34 415.124C1031.35 415.124 1029.74 416.736 1029.74 418.726C1029.74 420.715 1031.35 422.327 1033.34 422.327Z" fill="#999999"/>
    <path d="M1028.93 510.078L1022.93 499.68L1028.93 489.283L1040.94 489.283L1046.94 499.68L1040.94 510.078H1028.93Z" fill="#595959"/>
    <path d="M1046.35 499.68L1040.64 509.567L1029.22 509.567L1023.52 499.68L1029.22 489.794L1040.64 489.794L1046.35 499.68Z" fill="#666666"/>
    <path d="M1045.15 499.06L1040.01 507.962L1029.73 507.962L1024.63 499.252L1029.73 490.157L1040.01 490.157L1045.15 499.06H1045.15Z" fill="#747474"/>
    <path d="M1034.93 507.7C1039.23 507.7 1042.71 504.217 1042.71 499.92C1042.71 495.622 1039.23 492.139 1034.93 492.139C1030.64 492.139 1027.15 495.622 1027.15 499.92C1027.15 504.217 1030.64 507.7 1034.93 507.7Z" fill="#595959"/>
    <path d="M1034.77 506.025C1038.5 506.025 1041.53 502.999 1041.53 499.266C1041.53 495.534 1038.5 492.508 1034.77 492.508C1031.04 492.508 1028.01 495.534 1028.01 499.266C1028.01 502.999 1031.04 506.025 1034.77 506.025Z" fill="#666666"/>
    <path d="M1034.21 504.047C1037.31 504.047 1039.83 501.528 1039.83 498.422C1039.83 495.315 1037.31 492.797 1034.21 492.797C1031.1 492.797 1028.58 495.315 1028.58 498.422C1028.58 501.528 1031.1 504.047 1034.21 504.047Z" fill="#747474"/>
    <path d="M1033.34 500.734C1035.33 500.734 1036.94 499.121 1036.94 497.132C1036.94 495.143 1035.33 493.53 1033.34 493.53C1031.35 493.53 1029.74 495.143 1029.74 497.132C1029.74 499.121 1031.35 500.734 1033.34 500.734Z" fill="#999999"/>
    <path d="M13.251 583.527L7.24805 573.129L13.2513 562.732L25.2572 562.732L31.2601 573.129L25.2572 583.527H13.251Z" fill="#595959"/>
    <path d="M30.6695 573.129L24.9615 583.016L13.5457 583.016L7.83789 573.129L13.5459 563.243L24.9617 563.243L30.6695 573.129Z" fill="#666666"/>
    <path d="M29.4693 572.509L24.3293 581.411L14.0495 581.411L8.94824 572.701L14.0496 563.606L24.3294 563.606L29.4693 572.509H29.4693Z" fill="#747474"/>
    <path d="M19.2535 581.149C23.5507 581.149 27.0343 577.666 27.0343 573.368C27.0343 569.071 23.5507 565.588 19.2535 565.588C14.9562 565.588 11.4727 569.071 11.4727 573.368C11.4727 577.666 14.9562 581.149 19.2535 581.149Z" fill="#595959"/>
    <path d="M19.0925 579.474C22.8252 579.474 25.8511 576.448 25.8511 572.715C25.8511 568.983 22.8252 565.957 19.0925 565.957C15.3599 565.957 12.334 568.983 12.334 572.715C12.334 576.448 15.3599 579.474 19.0925 579.474Z" fill="#666666"/>
    <path d="M18.5273 577.496C21.6339 577.496 24.1523 574.977 24.1523 571.871C24.1523 568.764 21.6339 566.246 18.5273 566.246C15.4207 566.246 12.9023 568.764 12.9023 571.871C12.9023 574.977 15.4207 577.496 18.5273 577.496Z" fill="#747474"/>
    <path d="M17.6583 574.183C19.6475 574.183 21.2601 572.57 21.2601 570.581C21.2601 568.592 19.6475 566.979 17.6583 566.979C15.6692 566.979 14.0566 568.592 14.0566 570.581C14.0566 572.57 15.6692 574.183 17.6583 574.183Z" fill="#999999"/>
    <path d="M1026.44 584.643L1020.43 574.245L1026.44 563.848L1038.44 563.848L1044.45 574.245L1038.44 584.643H1026.44Z" fill="#595959"/>
    <path d="M1043.86 574.245L1038.15 584.132L1026.73 584.132L1021.02 574.245L1026.73 564.359L1038.15 564.359L1043.86 574.245Z" fill="#666666"/>
    <path d="M1042.65 573.625L1037.51 582.527L1027.24 582.527L1022.13 573.817L1027.24 564.722L1037.52 564.722L1042.65 573.625Z" fill="#747474"/>
    <path d="M1032.44 582.265C1036.74 582.265 1040.22 578.782 1040.22 574.485C1040.22 570.187 1036.74 566.704 1032.44 566.704C1028.14 566.704 1024.66 570.187 1024.66 574.485C1024.66 578.782 1028.14 582.265 1032.44 582.265Z" fill="#595959"/>
    <path d="M1032.28 580.59C1036.01 580.59 1039.04 577.564 1039.04 573.831C1039.04 570.099 1036.01 567.073 1032.28 567.073C1028.55 567.073 1025.52 570.099 1025.52 573.831C1025.52 577.564 1028.55 580.59 1032.28 580.59Z" fill="#666666"/>
    <path d="M1031.71 578.612C1034.82 578.612 1037.34 576.093 1037.34 572.987C1037.34 569.88 1034.82 567.362 1031.71 567.362C1028.61 567.362 1026.09 569.88 1026.09 572.987C1026.09 576.093 1028.61 578.612 1031.71 578.612Z" fill="#747474"/>
    <path d="M1030.84 575.299C1032.83 575.299 1034.45 573.686 1034.45 571.697C1034.45 569.708 1032.83 568.095 1030.84 568.095C1028.86 568.095 1027.24 569.708 1027.24 571.697C1027.24 573.686 1028.86 575.299 1030.84 575.299Z" fill="#999999"/>
    <path d="M356.812 304.391C356.916 302.394 364.606 301.358 365.275 301.271C368.441 300.861 373.792 300.63 380.819 302.764C388.898 305.218 394.838 309.478 398.666 312.88C394.227 314.393 389.167 316.471 383.802 319.363C380.057 321.382 376.75 323.481 373.872 325.511C373.919 321.402 373.271 315.745 369.42 311.656C364.458 306.387 356.706 306.403 356.812 304.391Z" fill="#55ABAF"/>
    <path d="M395.421 310.227C394.844 310.497 393.983 310.898 392.938 311.38C384.722 315.168 383.074 315.704 380.971 315.851C378.643 316.015 376.882 315.624 376.271 315.474C372.936 314.655 370.668 312.847 369.512 311.769C373.273 315.85 373.918 321.439 373.872 325.511C376.75 323.481 380.057 321.382 383.802 319.363C387.898 317.155 391.812 315.427 395.412 314.057C396.332 313.524 397.252 312.992 398.172 312.459C397.34 311.737 396.437 310.99 395.421 310.227H395.421Z" fill="#398A8D"/>
    <path d="M408.245 345.621C408.479 346.089 409.015 346.788 409.353 348.058C409.613 349.037 409.658 349.97 410.09 351.379C410.43 352.492 410.697 353.03 410.966 353.751C411.115 354.152 411.643 355.619 411.944 358.824C412.48 364.538 411.476 367.046 412.652 367.707C413.376 368.113 414.4 367.521 415.399 366.927C418.079 365.332 419.412 363.02 420.433 361.144C422.836 356.728 424.038 354.519 424.948 351.768C425.631 349.706 426.939 345.65 427.056 340.238C427.204 333.419 425.388 327.834 423.855 324.279C419.237 327.86 415.949 331.339 413.77 333.915C406.873 342.07 407.904 344.938 408.245 345.621L408.245 345.621Z" fill="#398A8D"/>
    <path d="M475.974 330.788C475.933 330.174 475.832 328.631 474.731 327.502C473.992 326.744 472.365 326.441 469.111 325.835C467.762 325.584 467.085 325.475 466.484 325.378C464.755 325.097 464.284 325.067 463.201 324.781C462.183 324.511 460.227 323.806 458.522 322.75C456.431 321.456 455.437 320.09 453.444 318.128C453.444 318.127 450.619 315.344 446.889 312.812C446.889 312.812 443.003 310.173 437.782 308.324C426.244 304.238 411.807 307.219 407.51 308.193C398.098 310.327 391.324 313.877 384.669 317.365C377.423 321.163 370.787 325.555 367.495 327.806C367.31 327.932 367.053 328.112 366.538 328.471C356.69 335.327 354.708 337.036 351.984 338.85C351.16 339.399 350.513 339.793 350.004 340.109C348.043 341.325 344.629 343.415 339.361 346.52C338.234 346.999 337.17 347.371 336.144 347.695C325.3 350.117 319.813 348.042 316.804 345.498C313.262 342.504 314.083 339.672 309.018 332.674C306.469 329.153 303.126 324.458 297.276 321.396C291.263 318.248 285.137 318.133 280.933 318.595C282.161 320.165 283.208 321.604 284.079 322.854C284.079 322.854 286.718 326.64 287.264 329.279C287.332 329.609 287.286 329.487 287.475 331.006C287.844 333.979 288.222 336.333 288.29 336.715C288.495 337.872 289.397 340.922 294.951 346.13C292.954 347.277 291.563 348.497 290.668 349.395C288.776 351.295 287.69 353.175 286.605 355.083C286.468 355.324 286.183 355.91 285.725 356.721C285.725 356.721 284.887 358.206 284.157 359.289C283.155 360.776 279.774 363.202 275 365.592C277.487 366.772 281.209 368.022 286.111 367.801C287.466 367.74 293.864 367.411 299.509 363.06C301.671 361.394 302.545 360.019 306.857 356.738C309.445 354.769 311.395 353.541 313.772 353.65C315.549 353.73 316.846 354.523 317.572 354.978C325.144 359.718 334.704 363.785 337.802 365.026C341.234 366.679 344.426 367.295 348.943 368.124C354.069 369.064 365.006 370.964 379.107 368.304C393.014 365.68 403.833 359.784 410.476 356.164C414.587 353.923 425.372 347.75 434.819 345.883C435.253 345.797 437.611 345.34 441.144 344.634C447.704 343.324 451.027 342.657 453.084 342.102C456.944 341.062 459.833 340.283 462.924 338.88C464.384 338.218 465.853 337.464 468.265 336.715C469.477 336.338 470.679 335.931 471.896 335.571C474 334.948 474.513 334.864 475.055 334.29C476.129 333.152 476.018 331.461 475.974 330.788L475.974 330.788Z" fill="#55ABAF"/>
    <path d="M475.526 333.61C475.628 333.424 475.694 333.25 475.704 333.223C475.727 333.163 475.747 333.103 475.766 333.043C475.811 332.904 475.849 332.765 475.878 332.627C475.888 332.583 475.898 332.538 475.906 332.494C475.939 332.316 475.963 332.14 475.977 331.973C472.968 332.672 468.371 333.527 462.737 333.684C448.852 334.071 443.855 329.797 434.32 330.775C428.28 331.394 427.515 333.394 413.034 341.335C398.586 349.257 390.149 353.884 378.998 356.958C363.667 361.186 350.72 360.407 344.422 359.975C333.025 359.195 323.644 356.804 316.929 354.594L316.929 354.594C317.177 354.732 317.393 354.865 317.572 354.978C325.144 359.718 334.704 363.785 337.802 365.026C341.234 366.679 344.425 367.295 348.943 368.124C354.069 369.064 365.005 370.964 379.106 368.304C393.014 365.68 403.832 359.784 410.476 356.164C414.587 353.923 425.371 347.75 434.819 345.883C435.253 345.797 437.611 345.34 441.144 344.634C447.704 343.324 451.027 342.657 453.084 342.102C456.944 341.061 459.833 340.283 462.924 338.88C463.373 338.656 464.701 337.999 466.518 337.314C466.532 337.308 466.55 337.303 466.564 337.298C467.08 337.104 467.638 336.909 468.265 336.715C469.477 336.338 470.679 335.931 471.896 335.571C472.191 335.483 472.448 335.408 472.685 335.339C473.345 335.147 473.815 335.008 474.154 334.874L474.156 334.873C474.309 334.812 474.44 334.751 474.557 334.684C474.599 334.655 474.662 334.611 474.736 334.554C474.767 334.529 475.222 334.165 475.526 333.61V333.61Z" fill="#79BCBF"/>
    <path d="M392.378 352.87C392.402 353.358 392.604 354.152 392.412 355.371C392.264 356.312 391.944 357.136 391.78 358.509C391.651 359.594 391.678 360.154 391.636 360.873C391.613 361.273 391.512 362.731 390.543 365.615C388.815 370.757 386.969 372.579 387.746 373.564C388.225 374.171 389.351 374.017 390.456 373.853C393.42 373.411 395.478 371.875 397.095 370.607C400.902 367.623 402.805 366.13 404.662 364.065C406.054 362.517 408.761 359.46 410.946 354.809C413.698 348.95 414.255 343.47 414.277 339.85C408.85 341.332 404.628 343.194 401.727 344.662C392.541 349.31 392.341 352.158 392.378 352.87V352.87Z" fill="#55ABAF"/>
    <path d="M433.694 329.154C435.311 329.154 436.622 327.846 436.622 326.234C436.622 324.621 435.311 323.314 433.694 323.314C432.077 323.314 430.766 324.621 430.766 326.234C430.766 327.846 432.077 329.154 433.694 329.154Z" fill="white"/>
    <path d="M433.694 328.259C434.815 328.259 435.724 327.352 435.724 326.234C435.724 325.115 434.815 324.209 433.694 324.209C432.572 324.209 431.663 325.115 431.663 326.234C431.663 327.352 432.572 328.259 433.694 328.259Z" fill="black"/>
    <path d="M433.086 326.782C433.779 326.782 434.341 326.222 434.341 325.531C434.341 324.84 433.779 324.279 433.086 324.279C432.393 324.279 431.831 324.84 431.831 325.531C431.831 326.222 432.393 326.782 433.086 326.782Z" fill="white"/>
    <path d="M293.993 342.678C292.682 341.277 291.523 340.039 290.613 338.353C289.237 335.805 289.205 333.671 288.969 332.07C288.574 329.381 287.221 325.595 282.831 321.111C283.275 321.72 283.701 322.312 284.079 322.854C284.079 322.854 286.717 326.64 287.264 329.278C287.332 329.609 287.286 329.487 287.475 331.006C287.844 333.979 288.222 336.333 288.29 336.715C288.495 337.872 289.397 340.922 294.951 346.13C292.954 347.277 291.562 348.497 290.668 349.395C288.776 351.295 287.69 353.175 286.605 355.083C286.468 355.324 286.183 355.91 285.725 356.721C285.725 356.721 284.887 358.206 284.157 359.289C284.032 359.475 283.869 359.675 283.672 359.889C282.757 360.876 281.069 362.139 278.836 363.484C278.638 363.604 278.451 363.721 278.243 363.842C277.256 364.418 276.172 365.005 275.003 365.591L275.001 365.593C275.095 365.637 275.204 365.682 275.302 365.727C275.843 365.975 276.427 366.223 277.076 366.458C281.213 365.139 283.665 363.17 285.157 361.565C287.993 358.513 288.505 355.543 292.018 351.625C293.964 349.454 295.901 348.029 296.367 347.692C297.083 347.174 297.705 346.777 298.15 346.507C297.058 345.643 295.581 344.376 293.993 342.678L293.993 342.678Z" fill="#398A8D"/>
    <path d="M399.719 368.538C395.8 370.328 394.333 369.937 393.694 369.35C391.897 367.698 395.051 363.024 395.206 354.696C395.253 352.187 395.013 350.155 394.828 348.931C392.66 351.141 392.284 352.257 392.378 352.87C392.399 353.011 392.517 353.646 392.492 354.523C392.484 354.78 392.461 355.062 392.412 355.372C392.264 356.312 391.944 357.136 391.78 358.509C391.651 359.594 391.678 360.154 391.636 360.873C391.613 361.273 391.512 362.731 390.543 365.615C388.815 370.757 386.969 372.579 387.746 373.564C388.225 374.171 389.351 374.017 390.456 373.853C393.42 373.411 395.478 371.875 397.095 370.607C398.091 369.827 398.951 369.152 399.719 368.538V368.538Z" fill="#398A8D"/>
    <path d="M433.492 309.476C433.533 309.027 426.436 307.117 418.005 307.86C409.511 308.607 402.829 311.768 402.95 312.206C403.06 312.603 408.757 310.634 418.329 309.799C427.665 308.985 433.455 309.879 433.492 309.476Z" fill="#79BCBF"/>
    <path d="M374.568 302.939C374.605 302.708 371.664 301.694 368.157 301.718C364.619 301.742 361.67 302.816 361.71 303.047C361.745 303.247 364.016 302.756 368.157 302.724C372.271 302.691 374.537 303.139 374.568 302.939V302.939Z" fill="#79BCBF"/>
    <path d="M307.793 334.402C308.013 334.271 306.712 330.612 303.687 327.435C300.686 324.282 297.132 322.804 296.988 323.017C296.855 323.212 299.65 324.774 303.003 328.333C306.245 331.773 307.596 334.52 307.793 334.402H307.793Z" fill="#79BCBF"/>
    <path d="M706.401 341.477C706.922 344.24 707.213 346.209 707.38 347.286C708.276 353.065 708.901 354.588 710.013 360.526C710.908 365.306 711.323 368.7 712.153 375.49C712.937 381.909 713.126 384.849 713.221 386.842C713.308 388.668 713.326 389.922 713.363 393.166C713.405 396.805 713.456 401.577 713.502 407.245C714.112 407.29 714.787 407.297 715.516 407.239C717.762 407.06 719.556 406.336 720.77 405.699C719.927 396.541 718.556 386.473 716.397 375.698C713.282 360.154 709.196 346.479 705.012 334.884C705.37 336.419 705.878 338.699 706.401 341.477V341.477Z" fill="#AD7144"/>
    <path d="M728.069 380.801C726.569 374.436 724.488 365.543 722.467 353.725C721.251 346.618 720.067 338.512 719.103 329.538C718.907 329.957 716.932 333.986 712.412 334.727C707.83 335.478 704.651 332.19 704.349 331.867C706.771 342.913 708.752 351.763 710.074 357.633C711.598 364.395 714.411 376.808 716.381 387.35C717.429 392.958 718.108 397.335 718.442 399.565C718.886 402.526 719.216 405.002 719.44 406.754C719.823 409.027 723.433 410.307 727.503 409.614C731.573 408.92 734.562 406.515 734.178 404.241C732.2 397.322 730.113 389.473 728.069 380.801H728.069Z" fill="#C18963"/>
    <path d="M712.413 334.727C716.483 334.033 719.471 331.628 719.088 329.355C718.704 327.081 715.094 325.801 711.024 326.494C706.954 327.188 703.966 329.593 704.35 331.866C704.733 334.14 708.343 335.42 712.413 334.727V334.727Z" fill="#CC9D7D"/>
    <path d="M713.597 329.255C713.605 329.219 713.171 329.093 712.75 329.037C712.508 329.005 711.211 328.832 710.056 329.579C709.703 329.808 709.183 330.144 709.176 330.611C709.169 331.076 709.674 331.4 709.924 331.561C711.019 332.264 712.377 332.058 712.795 331.994C713.323 331.914 714.69 331.706 715.571 330.643C715.806 330.359 716.349 329.705 716.186 329.027C715.957 328.074 714.487 327.718 713.809 327.555C710.711 326.806 708.048 328.545 707.831 328.692C707.109 329.179 706.201 329.792 706.064 330.808C705.97 331.5 706.254 332.232 706.76 332.726C707.218 333.173 707.722 333.327 707.983 333.392C710.795 334.094 712.851 333.912 712.851 333.912C714.155 333.796 716.018 333.495 718.174 332.662L718.87 330.864C718.636 331.196 718.315 331.562 717.884 331.884C717.486 332.182 717.135 332.338 716.794 332.486C716.31 332.697 715.887 332.818 715.468 332.92C714.317 333.198 713.337 333.286 712.885 333.321C712.288 333.367 709.904 333.533 708.005 332.952C707.792 332.887 707.431 332.753 707.105 332.416C706.657 331.952 706.519 331.317 706.585 330.823C706.711 329.883 707.596 329.304 708.244 328.881C708.416 328.768 710.843 327.233 713.663 327.913C714.274 328.06 715.482 328.351 715.668 329.127C715.805 329.7 715.317 330.261 715.109 330.5C714.321 331.404 713.125 331.558 712.646 331.619C712.273 331.668 711.276 331.752 710.315 331.283C710.025 331.142 709.539 330.905 709.541 330.563C709.544 330.234 710.001 329.989 710.405 329.772C711.406 329.234 712.421 329.213 712.752 329.216C713.213 329.221 713.589 329.288 713.597 329.255L713.597 329.255Z" fill="#C18963"/>
    <path d="M723.57 359.874C722.316 360.663 720.032 361.875 716.922 362.321C714.331 362.694 712.2 362.391 710.778 362.068C710.63 361.261 710.395 360.605 710.188 360.157C709.787 359.291 709.449 358.588 708.571 358.036C708.187 357.795 707.651 357.458 706.811 357.451C706.006 357.445 705.104 357.742 704.483 358.321C703.892 358.874 703.8 359.478 703.76 359.736C703.743 359.844 703.691 360.232 703.831 360.705C704.106 361.63 704.9 362.142 705.226 362.346C705.561 362.555 705.89 362.692 706.242 362.801C706.042 362.85 705.857 362.913 705.676 363.012C705.395 363.165 705.154 363.363 705.062 363.443C704.72 363.741 704.243 364.158 703.992 364.965C703.751 365.736 703.771 366.69 704.142 367.456C704.495 368.185 705.044 368.45 705.278 368.564C705.375 368.611 705.73 368.775 706.221 368.777C707.181 368.782 707.9 368.168 708.189 367.915C708.801 367.377 709.126 366.78 709.56 365.967C709.748 365.617 709.965 365.16 710.183 364.617C710.21 364.917 710.238 365.217 710.25 365.566C710.274 366.278 710.256 367.066 710.064 368.883C709.877 370.648 709.77 371.09 709.687 371.892C709.568 373.057 709.524 374.769 709.936 376.97C709.957 377.266 710.215 377.465 710.44 377.416C710.635 377.374 710.785 377.148 710.748 376.896C710.38 374.715 710.423 373.002 710.537 371.821C710.612 371.04 710.704 370.64 710.876 368.922C711.068 367.012 711.085 366.209 711.041 365.421C711.017 364.979 710.974 364.578 710.927 364.225C711.083 364.545 711.241 364.881 711.385 365.28C712.094 367.247 712.049 368.913 712.054 369.405C712.072 371.107 712.848 373.791 716.238 378.069C716.451 378.289 716.778 378.267 716.933 378.065C717.061 377.898 717.06 377.629 716.912 377.431C713.647 373.723 712.941 371.131 712.943 369.412C712.944 368.758 713.05 366.981 712.25 364.94C712.112 364.587 711.961 364.296 711.814 364.013C713.276 364.317 715.239 364.523 717.507 364.19C720.451 363.757 722.645 362.602 723.929 361.783C723.972 361.576 724.016 361.237 723.945 360.83C723.868 360.383 723.689 360.057 723.57 359.874L723.57 359.874V359.874ZM704.659 360.481C704.557 360.138 704.585 359.853 704.602 359.746C704.638 359.516 704.704 359.098 705.103 358.726C705.375 358.472 705.75 358.281 706.157 358.189C706.343 358.147 706.528 358.126 706.707 358.127C707.28 358.132 707.662 358.372 707.999 358.584C708.714 359.034 709.024 359.704 709.387 360.452C709.595 360.878 709.855 361.505 710.037 362.312L710.012 362.637L709.808 362.716C708.97 362.655 708.277 362.541 707.771 362.44C706.832 362.251 706.354 362.146 705.795 361.797C705.545 361.64 704.879 361.223 704.659 360.481H704.659H704.659ZM709.851 363.564C709.62 364.246 709.342 364.893 709.02 365.495C708.59 366.3 708.323 366.775 707.832 367.207C707.61 367.403 707.019 367.921 706.249 367.917C705.892 367.915 705.629 367.804 705.533 367.758C705.324 367.655 704.946 367.47 704.707 366.978C704.545 366.643 704.473 366.227 704.503 365.808C704.517 365.617 704.551 365.433 704.605 365.261C704.776 364.713 705.116 364.414 705.417 364.152C706.04 363.607 706.652 363.497 707.599 363.362C708.233 363.272 708.881 363.268 709.526 363.348L709.947 363.373L709.851 363.564V363.564Z" fill="#253082"/>
    <path d="M724.221 260.942C724.215 260.738 724.191 260.306 723.909 259.947C723.66 259.628 723.313 259.504 722.842 259.385C721.853 259.134 721.047 259.089 720.783 259.076C719.778 259.024 719.192 258.994 718.242 259.001C717.575 259.006 717.025 259.036 715.924 259.097C715.591 259.115 714.899 259.157 714.044 259.385C713.495 259.531 713.194 259.669 712.977 259.947C712.696 260.306 712.671 260.738 712.665 260.942C712.594 263.17 713.099 267.213 713.099 267.213C713.099 267.213 713.447 270.004 714.148 271.815C714.324 272.27 714.573 272.536 714.633 272.598C714.831 272.803 715.026 272.919 715.152 272.993C715.53 273.215 715.874 273.303 716.067 273.345C716.774 273.497 717.649 273.488 718.443 273.477C719.237 273.489 720.112 273.497 720.82 273.345C721.012 273.303 721.356 273.215 721.734 272.993C721.86 272.919 722.055 272.803 722.253 272.599C722.313 272.536 722.562 272.27 722.738 271.815C723.44 270.004 723.788 267.213 723.788 267.213C723.788 267.213 724.292 263.17 724.221 260.942H724.221H724.221Z" fill="#AD7144"/>
    <path opacity="0.3" d="M718.42 411.794C714.429 411.794 710.384 411.689 706.398 411.481C706.191 411.486 706.082 411.489 705.966 411.489C705.058 411.489 704.178 411.32 703.35 410.987C702.795 410.763 701.641 410.297 700.734 409.121C700.491 408.806 699.9 407.933 699.653 406.65C699.555 406.143 699.523 405.621 699.557 405.097C699.539 400.587 699.503 393.189 699.445 383.993C699.404 377.4 699.367 372.266 699.335 367.848C699.275 359.576 699.233 353.822 699.217 345.721C699.202 338.199 699.215 330.446 699.256 322.679C699.115 320.36 699.238 318.11 699.619 315.917C699.882 314.405 700.278 312.12 701.574 309.457C702.501 307.552 703.541 306.156 704.162 305.321C704.935 304.285 705.99 303.012 707.136 301.736C707.49 301.342 707.793 301.016 708.058 300.73C708.977 299.737 709.532 299.138 710.081 298.008C710.716 296.695 710.947 295.497 711.044 294.986C711.272 293.799 711.342 292.586 711.255 291.38C711.109 289.303 711.625 281.248 712.783 267.403L712.868 266.392L711.874 266.222C711.727 266.198 711.569 266.085 711.569 265.898C711.569 265.704 711.731 265.541 711.922 265.541H724.965C725.157 265.541 725.319 265.704 725.319 265.898C725.319 266.069 725.18 266.182 725.04 266.217L724.138 266.447L724.216 267.379C725.377 281.238 725.893 289.3 725.75 291.341C725.659 292.587 725.73 293.8 725.956 294.985C726.055 295.499 726.286 296.699 726.921 298.008C727.47 299.138 728.025 299.737 728.944 300.73C729.209 301.015 729.512 301.342 729.866 301.736C730.528 302.474 731.796 303.921 732.839 305.321C733.461 306.157 734.503 307.556 735.427 309.457C736.722 312.119 737.12 314.405 737.383 315.918C737.764 318.112 737.886 320.362 737.749 322.606C737.786 330.451 737.798 337.988 737.784 345.721C737.769 353.799 737.727 359.543 737.667 367.778C737.635 372.21 737.599 377.365 737.557 383.993C737.499 393.189 737.462 400.587 737.442 405.021C737.478 405.618 737.446 406.139 737.349 406.65C737.102 407.933 736.51 408.806 736.267 409.122C735.36 410.298 734.206 410.763 733.652 410.987C732.818 411.323 731.931 411.493 731.015 411.493C730.87 411.493 730.737 411.489 730.617 411.482L730.5 411.481C726.525 411.688 722.5 411.793 718.538 411.794H718.42L718.42 411.794Z" fill="#C9EBFF"/>
    <path opacity="0.6" d="M712.827 302.771C711.686 302.261 710.366 302.981 709.657 303.368C707.784 304.389 706.752 306.012 705.108 308.66C703.795 310.775 703.033 312.002 702.579 313.868C702.295 315.04 701.542 318.133 702.849 319.128C704.4 320.309 707.745 317.691 708.118 317.393C709.611 316.202 710.517 314.612 712.328 311.432C714.291 307.984 714.414 306.901 714.409 306.201C714.406 305.809 714.347 303.451 712.827 302.771V302.771Z" fill="#C9EBFF"/>
    <path opacity="0.6" d="M716.683 293.764C717.416 294.238 717.651 294.947 717.776 295.328C718.109 296.335 717.795 297.02 717.266 298.12C716.843 298.998 716.598 299.507 715.92 299.951C715.495 300.23 714.371 300.965 713.339 300.473C712.114 299.89 711.892 297.995 711.87 297.782C711.781 296.933 712.134 296.311 712.84 295.068C713.606 293.719 714.06 293.528 714.391 293.444C714.576 293.397 715.706 293.134 716.683 293.764Z" fill="#C9EBFF"/>
    <path opacity="0.6" d="M715.388 290.193C716.363 290.107 716.98 289.266 717.311 288.815C718.186 287.621 718.255 286.364 718.339 284.324C718.355 283.937 718.245 282.806 718.026 280.545C717.906 279.295 717.825 278.625 717.284 278.145C716.777 277.697 716.103 277.671 715.79 277.655C715.602 277.645 714.646 277.596 713.896 278.189C713.42 278.564 713.178 279.079 712.884 280.367C712.739 281.001 712.334 281.853 712.347 285.124C712.357 287.722 712.696 288.375 712.973 288.77C713.128 288.991 714.088 290.307 715.388 290.193L715.388 290.193Z" fill="#C9EBFF"/>
    <path opacity="0.6" d="M704.801 323.276C704.801 323.276 705.723 323.316 706.555 323.818C708.548 325.019 708.24 335.962 708.24 335.962C708.24 335.962 707.971 348.871 705.919 350.015C705.249 350.389 704.568 350.403 704.568 350.403C704.568 350.403 703.937 350.417 703.306 350.123C701.138 349.114 700.653 334.05 700.653 334.049C700.653 334.049 700.502 325.304 702.34 324.047C703.549 323.22 704.801 323.276 704.801 323.276Z" fill="#C9EBFF"/>
    <path d="M739.548 315.537C739.28 314.002 738.833 311.431 737.401 308.489C736.386 306.401 735.223 304.839 734.598 304C733.502 302.529 732.185 301.025 731.496 300.258C731.134 299.855 730.823 299.52 730.553 299.227C729.668 298.272 729.301 297.876 728.897 297.041C728.388 295.994 728.202 295.031 728.114 294.569C727.924 293.574 727.865 292.554 727.941 291.496C728.092 289.351 727.609 281.642 726.468 267.941C727.111 267.472 727.516 266.722 727.516 265.897C727.516 264.484 726.371 263.335 724.965 263.335H711.921C710.515 263.335 709.371 264.484 709.371 265.897C709.371 266.775 709.823 267.56 710.527 268.017C709.39 281.673 708.91 289.357 709.062 291.54C709.136 292.554 709.077 293.573 708.887 294.568C708.798 295.03 708.614 295.991 708.104 297.041C707.7 297.876 707.333 298.272 706.448 299.227C706.177 299.52 705.866 299.855 705.505 300.259C704.315 301.583 703.213 302.912 702.402 304C701.778 304.838 700.617 306.397 699.6 308.489C698.167 311.432 697.721 314.002 697.454 315.538C697.044 317.9 696.911 320.324 697.058 322.667C697.018 330.44 697.005 338.198 697.02 345.725C697.035 353.831 697.077 359.588 697.137 367.865C697.17 372.281 697.207 377.415 697.248 384.006C697.305 393.202 697.341 400.597 697.364 404.955C697.318 405.667 697.363 406.377 697.495 407.068C697.832 408.816 698.657 410.03 698.997 410.472C700.268 412.121 701.854 412.761 702.532 413.034C703.621 413.473 704.776 413.695 705.965 413.695C706.117 413.695 706.259 413.691 706.284 413.685C710.308 413.894 714.391 414 718.419 414H718.537C722.519 413.999 726.562 413.894 730.556 413.688C730.697 413.695 730.85 413.699 731.014 413.699C732.212 413.699 733.375 413.475 734.469 413.034C735.146 412.761 736.731 412.123 738.005 410.471C738.344 410.03 739.17 408.816 739.505 407.068C739.639 406.371 739.683 405.66 739.639 405.032C739.659 400.597 739.696 393.202 739.754 384.006C739.794 377.38 739.832 372.226 739.864 367.793C739.924 359.555 739.966 353.807 739.981 345.725C739.995 337.987 739.983 330.445 739.941 322.741C740.089 320.326 739.957 317.903 739.548 315.537L739.548 315.537ZM737.784 345.721C737.769 353.799 737.727 359.543 737.667 367.778C737.635 372.21 737.598 377.365 737.556 383.993C737.498 393.189 737.462 400.587 737.442 405.021C737.478 405.618 737.446 406.139 737.348 406.65C737.101 407.933 736.509 408.806 736.267 409.122C735.359 410.298 734.206 410.763 733.651 410.987C732.818 411.323 731.93 411.493 731.014 411.493C730.869 411.493 730.736 411.489 730.616 411.482L730.499 411.481C726.525 411.688 722.499 411.793 718.537 411.794H718.419C714.429 411.794 710.384 411.689 706.397 411.481C706.19 411.486 706.082 411.489 705.965 411.489C705.057 411.489 704.178 411.32 703.35 410.987C702.795 410.763 701.641 410.297 700.733 409.121C700.491 408.806 699.899 407.933 699.653 406.65C699.555 406.143 699.523 405.621 699.557 405.097C699.538 400.587 699.502 393.189 699.445 383.993C699.404 377.4 699.367 372.266 699.335 367.848C699.274 359.576 699.233 353.822 699.217 345.721C699.202 338.199 699.215 330.446 699.255 322.679C699.115 320.36 699.237 318.11 699.619 315.917C699.881 314.405 700.278 312.12 701.574 309.457C702.501 307.552 703.541 306.156 704.162 305.321C704.934 304.285 705.99 303.012 707.136 301.736C707.49 301.342 707.792 301.015 708.057 300.73C708.976 299.737 709.531 299.138 710.08 298.008C710.716 296.694 710.946 295.497 711.044 294.986C711.271 293.799 711.342 292.586 711.254 291.38C711.108 289.303 711.624 281.248 712.783 267.402L712.868 266.392L711.873 266.222C711.726 266.197 711.568 266.085 711.568 265.897C711.568 265.704 711.73 265.541 711.921 265.541H724.965C725.157 265.541 725.319 265.704 725.319 265.897C725.319 266.069 725.179 266.182 725.04 266.217L724.138 266.447L724.216 267.379C725.377 281.238 725.893 289.3 725.75 291.341C725.659 292.587 725.73 293.8 725.956 294.985C726.055 295.499 726.285 296.699 726.92 298.008C727.47 299.138 728.024 299.737 728.944 300.729C729.209 301.015 729.511 301.342 729.865 301.736C730.527 302.474 731.795 303.921 732.838 305.321C733.46 306.157 734.502 307.556 735.427 309.457C736.722 312.119 737.12 314.405 737.383 315.918C737.763 318.112 737.886 320.362 737.748 322.605C737.786 330.451 737.798 337.988 737.784 345.721L737.784 345.721Z" fill="#6197CA"/>
    <path d="M859.401 341.477C859.922 344.24 860.213 346.209 860.38 347.286C861.276 353.065 861.901 354.588 863.013 360.526C863.908 365.306 864.323 368.7 865.153 375.49C865.937 381.909 866.126 384.849 866.221 386.842C866.308 388.668 866.326 389.922 866.363 393.166C866.405 396.805 866.456 401.577 866.502 407.245C867.112 407.29 867.787 407.297 868.516 407.239C870.762 407.06 872.556 406.336 873.77 405.699C872.927 396.541 871.556 386.473 869.397 375.698C866.282 360.154 862.196 346.479 858.012 334.884C858.37 336.419 858.878 338.699 859.401 341.477V341.477Z" fill="#AD7144"/>
    <path d="M881.069 380.801C879.569 374.436 877.488 365.543 875.467 353.725C874.251 346.618 873.067 338.512 872.103 329.538C871.907 329.957 869.932 333.986 865.412 334.727C860.83 335.478 857.651 332.19 857.349 331.867C859.771 342.913 861.752 351.763 863.074 357.633C864.598 364.395 867.411 376.808 869.381 387.35C870.429 392.958 871.108 397.335 871.442 399.565C871.886 402.526 872.216 405.002 872.44 406.754C872.823 409.027 876.433 410.307 880.503 409.614C884.573 408.92 887.562 406.515 887.178 404.241C885.2 397.322 883.113 389.473 881.069 380.801H881.069Z" fill="#C18963"/>
    <path d="M865.413 334.727C869.483 334.033 872.471 331.628 872.088 329.355C871.704 327.081 868.094 325.801 864.024 326.494C859.954 327.188 856.966 329.593 857.35 331.866C857.733 334.14 861.343 335.42 865.413 334.727V334.727Z" fill="#CC9D7D"/>
    <path d="M866.597 329.255C866.605 329.219 866.171 329.093 865.75 329.037C865.508 329.005 864.211 328.832 863.056 329.579C862.703 329.808 862.183 330.144 862.176 330.611C862.169 331.076 862.674 331.4 862.924 331.561C864.019 332.264 865.377 332.058 865.795 331.994C866.323 331.914 867.69 331.706 868.571 330.643C868.806 330.359 869.349 329.705 869.186 329.027C868.957 328.074 867.487 327.718 866.809 327.555C863.711 326.806 861.048 328.545 860.831 328.692C860.109 329.179 859.201 329.792 859.064 330.808C858.97 331.5 859.254 332.232 859.76 332.726C860.218 333.173 860.722 333.327 860.983 333.392C863.795 334.094 865.851 333.912 865.851 333.912C867.155 333.796 869.018 333.495 871.174 332.662L871.87 330.864C871.636 331.196 871.315 331.562 870.884 331.884C870.486 332.182 870.135 332.338 869.794 332.486C869.31 332.697 868.887 332.818 868.468 332.92C867.317 333.198 866.337 333.286 865.885 333.321C865.288 333.367 862.904 333.533 861.005 332.952C860.792 332.887 860.431 332.753 860.105 332.416C859.657 331.952 859.519 331.317 859.585 330.823C859.711 329.883 860.596 329.304 861.244 328.881C861.416 328.768 863.843 327.233 866.663 327.913C867.274 328.06 868.482 328.351 868.668 329.127C868.805 329.7 868.317 330.261 868.109 330.5C867.321 331.404 866.125 331.558 865.646 331.619C865.273 331.668 864.276 331.752 863.315 331.283C863.025 331.142 862.539 330.905 862.541 330.563C862.544 330.234 863.001 329.989 863.405 329.772C864.406 329.234 865.421 329.213 865.752 329.216C866.213 329.221 866.589 329.288 866.597 329.255L866.597 329.255Z" fill="#C18963"/>
    <path d="M876.57 359.874C875.316 360.663 873.032 361.875 869.922 362.321C867.331 362.694 865.2 362.391 863.778 362.068C863.63 361.261 863.395 360.605 863.188 360.157C862.787 359.291 862.449 358.588 861.571 358.036C861.187 357.795 860.651 357.458 859.811 357.451C859.006 357.445 858.104 357.742 857.483 358.321C856.892 358.874 856.8 359.478 856.76 359.736C856.743 359.844 856.691 360.232 856.831 360.705C857.106 361.63 857.9 362.142 858.226 362.346C858.561 362.555 858.89 362.692 859.242 362.801C859.042 362.85 858.857 362.913 858.676 363.012C858.395 363.165 858.154 363.363 858.062 363.443C857.72 363.741 857.243 364.158 856.992 364.965C856.751 365.736 856.771 366.69 857.142 367.456C857.495 368.185 858.044 368.45 858.278 368.564C858.375 368.611 858.73 368.775 859.221 368.777C860.181 368.782 860.9 368.168 861.189 367.915C861.801 367.377 862.126 366.78 862.56 365.967C862.748 365.617 862.965 365.16 863.183 364.617C863.21 364.917 863.238 365.217 863.25 365.566C863.274 366.278 863.256 367.066 863.064 368.883C862.877 370.648 862.77 371.09 862.687 371.892C862.568 373.057 862.524 374.769 862.936 376.97C862.957 377.266 863.215 377.465 863.44 377.416C863.635 377.374 863.785 377.148 863.748 376.896C863.38 374.715 863.423 373.002 863.537 371.821C863.612 371.04 863.704 370.64 863.876 368.922C864.068 367.012 864.085 366.209 864.041 365.421C864.017 364.979 863.974 364.578 863.927 364.225C864.083 364.545 864.241 364.881 864.385 365.28C865.094 367.247 865.049 368.913 865.054 369.405C865.072 371.107 865.848 373.791 869.238 378.069C869.451 378.289 869.778 378.267 869.933 378.065C870.061 377.898 870.06 377.629 869.912 377.431C866.647 373.723 865.941 371.131 865.943 369.412C865.944 368.758 866.05 366.981 865.25 364.94C865.112 364.587 864.961 364.296 864.814 364.013C866.276 364.317 868.239 364.523 870.507 364.19C873.451 363.757 875.645 362.602 876.929 361.783C876.972 361.576 877.016 361.237 876.945 360.83C876.868 360.383 876.689 360.057 876.57 359.874L876.57 359.874V359.874ZM857.659 360.481C857.557 360.138 857.585 359.853 857.602 359.746C857.638 359.516 857.704 359.098 858.103 358.726C858.375 358.472 858.75 358.281 859.157 358.189C859.343 358.147 859.528 358.126 859.707 358.127C860.28 358.132 860.662 358.372 860.999 358.584C861.714 359.034 862.024 359.704 862.387 360.452C862.595 360.878 862.855 361.505 863.037 362.312L863.012 362.637L862.808 362.716C861.97 362.655 861.277 362.541 860.771 362.44C859.832 362.251 859.354 362.146 858.795 361.797C858.545 361.64 857.879 361.223 857.659 360.481H857.659H857.659ZM862.851 363.564C862.62 364.246 862.342 364.893 862.02 365.495C861.59 366.3 861.323 366.775 860.832 367.207C860.61 367.403 860.019 367.921 859.249 367.917C858.892 367.915 858.629 367.804 858.533 367.758C858.324 367.655 857.946 367.47 857.707 366.978C857.545 366.643 857.473 366.227 857.503 365.808C857.517 365.617 857.551 365.433 857.605 365.261C857.776 364.713 858.116 364.414 858.417 364.152C859.04 363.607 859.652 363.497 860.599 363.362C861.233 363.272 861.881 363.268 862.526 363.348L862.947 363.373L862.851 363.564V363.564Z" fill="#253082"/>
    <path d="M877.221 260.942C877.215 260.738 877.191 260.306 876.909 259.947C876.66 259.628 876.313 259.504 875.842 259.385C874.853 259.134 874.047 259.089 873.783 259.076C872.778 259.024 872.192 258.994 871.242 259.001C870.575 259.006 870.025 259.036 868.924 259.097C868.591 259.115 867.899 259.157 867.044 259.385C866.495 259.531 866.194 259.669 865.977 259.947C865.696 260.306 865.671 260.738 865.665 260.942C865.594 263.17 866.099 267.213 866.099 267.213C866.099 267.213 866.447 270.004 867.148 271.815C867.324 272.27 867.573 272.536 867.633 272.598C867.831 272.803 868.026 272.919 868.152 272.993C868.53 273.215 868.874 273.303 869.067 273.345C869.774 273.497 870.649 273.488 871.443 273.477C872.237 273.489 873.112 273.497 873.82 273.345C874.012 273.303 874.356 273.215 874.734 272.993C874.86 272.919 875.055 272.803 875.253 272.599C875.313 272.536 875.562 272.27 875.738 271.815C876.44 270.004 876.788 267.213 876.788 267.213C876.788 267.213 877.292 263.17 877.221 260.942H877.221H877.221Z" fill="#AD7144"/>
    <path opacity="0.3" d="M871.42 411.794C867.429 411.794 863.384 411.689 859.398 411.481C859.191 411.486 859.082 411.489 858.966 411.489C858.058 411.489 857.178 411.32 856.35 410.987C855.795 410.763 854.641 410.297 853.734 409.121C853.491 408.806 852.9 407.933 852.653 406.65C852.555 406.143 852.523 405.621 852.557 405.097C852.539 400.587 852.503 393.189 852.445 383.993C852.404 377.4 852.367 372.266 852.335 367.848C852.275 359.576 852.233 353.822 852.217 345.721C852.202 338.199 852.215 330.446 852.256 322.679C852.115 320.36 852.238 318.11 852.619 315.917C852.882 314.405 853.278 312.12 854.574 309.457C855.501 307.552 856.541 306.156 857.162 305.321C857.935 304.285 858.99 303.012 860.136 301.736C860.49 301.342 860.793 301.016 861.058 300.73C861.977 299.737 862.532 299.138 863.081 298.008C863.716 296.695 863.947 295.497 864.044 294.986C864.272 293.799 864.342 292.586 864.255 291.38C864.109 289.303 864.625 281.248 865.783 267.403L865.868 266.392L864.874 266.222C864.727 266.198 864.569 266.085 864.569 265.898C864.569 265.704 864.731 265.541 864.922 265.541H877.965C878.157 265.541 878.319 265.704 878.319 265.898C878.319 266.069 878.18 266.182 878.04 266.217L877.138 266.447L877.216 267.379C878.377 281.238 878.893 289.3 878.75 291.341C878.659 292.587 878.73 293.8 878.956 294.985C879.055 295.499 879.286 296.699 879.921 298.008C880.47 299.138 881.025 299.737 881.944 300.73C882.209 301.015 882.512 301.342 882.866 301.736C883.528 302.474 884.796 303.921 885.839 305.321C886.461 306.157 887.503 307.556 888.427 309.457C889.722 312.119 890.12 314.405 890.383 315.918C890.764 318.112 890.886 320.362 890.749 322.606C890.786 330.451 890.798 337.988 890.784 345.721C890.769 353.799 890.727 359.543 890.667 367.778C890.635 372.21 890.599 377.365 890.557 383.993C890.499 393.189 890.462 400.587 890.442 405.021C890.478 405.618 890.446 406.139 890.349 406.65C890.102 407.933 889.51 408.806 889.267 409.122C888.36 410.298 887.206 410.763 886.652 410.987C885.818 411.323 884.931 411.493 884.015 411.493C883.87 411.493 883.737 411.489 883.617 411.482L883.5 411.481C879.525 411.688 875.5 411.793 871.538 411.794H871.42L871.42 411.794Z" fill="#C9EBFF"/>
    <path opacity="0.6" d="M865.827 302.771C864.686 302.261 863.366 302.981 862.657 303.368C860.784 304.389 859.752 306.012 858.108 308.66C856.795 310.775 856.033 312.002 855.579 313.868C855.295 315.04 854.542 318.133 855.849 319.128C857.4 320.309 860.745 317.691 861.118 317.393C862.611 316.202 863.517 314.612 865.328 311.432C867.291 307.984 867.414 306.901 867.409 306.201C867.406 305.809 867.347 303.451 865.827 302.771V302.771Z" fill="#C9EBFF"/>
    <path opacity="0.6" d="M869.683 293.764C870.416 294.238 870.651 294.947 870.776 295.328C871.109 296.335 870.795 297.02 870.266 298.12C869.843 298.998 869.598 299.507 868.92 299.951C868.495 300.23 867.371 300.965 866.339 300.473C865.114 299.89 864.892 297.995 864.87 297.782C864.781 296.933 865.134 296.311 865.84 295.068C866.606 293.719 867.06 293.528 867.391 293.444C867.576 293.397 868.706 293.134 869.683 293.764Z" fill="#C9EBFF"/>
    <path opacity="0.6" d="M868.388 290.193C869.363 290.107 869.98 289.266 870.311 288.815C871.186 287.621 871.255 286.364 871.339 284.324C871.355 283.937 871.245 282.806 871.026 280.545C870.906 279.295 870.825 278.625 870.284 278.145C869.777 277.697 869.103 277.671 868.79 277.655C868.602 277.645 867.646 277.596 866.896 278.189C866.42 278.564 866.178 279.079 865.884 280.367C865.739 281.001 865.334 281.853 865.347 285.124C865.357 287.722 865.696 288.375 865.973 288.77C866.128 288.991 867.088 290.307 868.388 290.193L868.388 290.193Z" fill="#C9EBFF"/>
    <path opacity="0.6" d="M857.801 323.276C857.801 323.276 858.723 323.316 859.555 323.818C861.548 325.019 861.24 335.962 861.24 335.962C861.24 335.962 860.971 348.871 858.919 350.015C858.249 350.389 857.568 350.403 857.568 350.403C857.568 350.403 856.937 350.417 856.306 350.123C854.138 349.114 853.653 334.05 853.653 334.049C853.653 334.049 853.502 325.304 855.34 324.047C856.549 323.22 857.801 323.276 857.801 323.276Z" fill="#C9EBFF"/>
    <path d="M892.548 315.537C892.28 314.002 891.833 311.431 890.401 308.489C889.386 306.401 888.223 304.839 887.598 304C886.502 302.529 885.185 301.025 884.496 300.258C884.134 299.855 883.823 299.52 883.553 299.227C882.668 298.272 882.301 297.876 881.897 297.041C881.388 295.994 881.202 295.031 881.114 294.569C880.924 293.574 880.865 292.554 880.941 291.496C881.092 289.351 880.609 281.642 879.468 267.941C880.111 267.472 880.516 266.722 880.516 265.897C880.516 264.484 879.371 263.335 877.965 263.335H864.921C863.515 263.335 862.371 264.484 862.371 265.897C862.371 266.775 862.823 267.56 863.527 268.017C862.39 281.673 861.91 289.357 862.062 291.54C862.136 292.554 862.077 293.573 861.887 294.568C861.798 295.03 861.614 295.991 861.104 297.041C860.7 297.876 860.333 298.272 859.448 299.227C859.177 299.52 858.866 299.855 858.505 300.259C857.315 301.583 856.213 302.912 855.402 304C854.778 304.838 853.617 306.397 852.6 308.489C851.167 311.432 850.721 314.002 850.454 315.538C850.044 317.9 849.911 320.324 850.058 322.667C850.018 330.44 850.005 338.198 850.02 345.725C850.035 353.831 850.077 359.588 850.137 367.865C850.17 372.281 850.207 377.415 850.248 384.006C850.305 393.202 850.341 400.597 850.364 404.955C850.318 405.667 850.363 406.377 850.495 407.068C850.832 408.816 851.657 410.03 851.997 410.472C853.268 412.121 854.854 412.761 855.532 413.034C856.621 413.473 857.776 413.695 858.965 413.695C859.117 413.695 859.259 413.691 859.284 413.685C863.308 413.894 867.391 414 871.419 414H871.537C875.519 413.999 879.562 413.894 883.556 413.688C883.697 413.695 883.85 413.699 884.014 413.699C885.212 413.699 886.375 413.475 887.469 413.034C888.146 412.761 889.731 412.123 891.005 410.471C891.344 410.03 892.17 408.816 892.505 407.068C892.639 406.371 892.683 405.66 892.639 405.032C892.659 400.597 892.696 393.202 892.754 384.006C892.794 377.38 892.832 372.226 892.864 367.793C892.924 359.555 892.966 353.807 892.981 345.725C892.995 337.987 892.983 330.445 892.941 322.741C893.089 320.326 892.957 317.903 892.548 315.537L892.548 315.537ZM890.784 345.721C890.769 353.799 890.727 359.543 890.667 367.778C890.635 372.21 890.598 377.365 890.556 383.993C890.498 393.189 890.462 400.587 890.442 405.021C890.478 405.618 890.446 406.139 890.348 406.65C890.101 407.933 889.509 408.806 889.267 409.122C888.359 410.298 887.206 410.763 886.651 410.987C885.818 411.323 884.93 411.493 884.014 411.493C883.869 411.493 883.736 411.489 883.616 411.482L883.499 411.481C879.525 411.688 875.499 411.793 871.537 411.794H871.419C867.429 411.794 863.384 411.689 859.397 411.481C859.19 411.486 859.082 411.489 858.965 411.489C858.057 411.489 857.178 411.32 856.35 410.987C855.795 410.763 854.641 410.297 853.733 409.121C853.491 408.806 852.899 407.933 852.653 406.65C852.555 406.143 852.523 405.621 852.557 405.097C852.538 400.587 852.502 393.189 852.445 383.993C852.404 377.4 852.367 372.266 852.335 367.848C852.274 359.576 852.233 353.822 852.217 345.721C852.202 338.199 852.215 330.446 852.255 322.679C852.115 320.36 852.237 318.11 852.619 315.917C852.881 314.405 853.278 312.12 854.574 309.457C855.501 307.552 856.541 306.156 857.162 305.321C857.934 304.285 858.99 303.012 860.136 301.736C860.49 301.342 860.792 301.015 861.057 300.73C861.976 299.737 862.531 299.138 863.08 298.008C863.716 296.694 863.946 295.497 864.044 294.986C864.271 293.799 864.342 292.586 864.254 291.38C864.108 289.303 864.624 281.248 865.783 267.402L865.868 266.392L864.873 266.222C864.726 266.197 864.568 266.085 864.568 265.897C864.568 265.704 864.73 265.541 864.921 265.541H877.965C878.157 265.541 878.319 265.704 878.319 265.897C878.319 266.069 878.179 266.182 878.04 266.217L877.138 266.447L877.216 267.379C878.377 281.238 878.893 289.3 878.75 291.341C878.659 292.587 878.73 293.8 878.956 294.985C879.055 295.499 879.285 296.699 879.92 298.008C880.47 299.138 881.024 299.737 881.944 300.729C882.209 301.015 882.511 301.342 882.865 301.736C883.527 302.474 884.795 303.921 885.838 305.321C886.46 306.157 887.502 307.556 888.427 309.457C889.722 312.119 890.12 314.405 890.383 315.918C890.763 318.112 890.886 320.362 890.748 322.605C890.786 330.451 890.798 337.988 890.784 345.721L890.784 345.721Z" fill="#6197CA"/>
</svg>
