<?xml version="1.0" encoding="UTF-8" standalone="no"?>
<svg width="1100" height="682" viewBox="0 0 1100 682" fill="none" xmlns="http://www.w3.org/2000/svg">
<rect x="3" y="3" width="1094" height="676" rx="77" fill="white" stroke="#844EA5" stroke-width="6"/>
<circle cx="342" cy="191" r="40" fill="#F2A74E"/>
<circle cx="156" cy="418" r="40" fill="#F2A74E"/>
<circle cx="950" cy="121" r="40" fill="#F2A74E"/>
<circle cx="500" cy="500" r="40" fill="#F2A74E"/>
<path d="M629 522L644.267 568.987L693.672 568.987L653.702 598.026L668.969 645.013L629 615.974L589.031 645.013L604.298 598.026L564.328 568.987L613.733 568.987L629 522Z" fill="#164E82"/>
<path d="M354 261L369.267 307.987L418.672 307.987L378.702 337.026L393.969 384.013L354 354.974L314.031 384.013L329.298 337.026L289.328 307.987L338.733 307.987L354 261Z" fill="#164E82"/>
<path d="M766 235L781.267 281.987L830.672 281.987L790.702 311.026L805.969 358.013L766 328.974L726.031 358.013L741.298 311.026L701.328 281.987L750.733 281.987L766 235Z" fill="#164E82"/>
</svg>
