<svg width="870" height="540" viewBox="0 0 870 540" fill="none" xmlns="http://www.w3.org/2000/svg">
<rect x="2.5" y="2.5" width="865" height="534.4" rx="77.5" fill="#F3F3F3" stroke="#83C1CA" stroke-width="5"/>
<path d="M132.569 221.883C127.727 221.062 124.089 224.466 120.577 226.478C114.901 229.729 112.902 226.989 93.3487 226.532C83.0808 226.291 74.4322 226.384 66.1201 226.478C63.4375 226.508 56.0448 223.599 47.8604 226.877C46.8323 227.768 45.5937 228.382 44.262 228.66C43.8236 228.719 43.3797 228.726 42.9396 228.68C43.2995 232.384 43.8158 237.291 44.4941 243.062C45.0537 247.816 45.5448 251.671 45.8039 253.57C47.0975 263.042 48.4379 270.579 49.6379 277.533C51.3219 287.275 53.6968 301.462 56.4748 319.588C57.8412 321.116 59.3397 322.52 60.9529 323.784C64.8087 326.712 69.2416 328.789 73.9591 329.878C74.8946 330.122 76.3196 330.486 78.1421 330.836C88.2407 332.116 98.4603 332.116 108.559 330.836C110.381 330.477 111.797 330.117 112.742 329.878C117.459 328.789 121.892 326.712 125.748 323.784C127.361 322.52 128.86 321.116 130.226 319.588C132.995 301.46 135.37 287.275 137.063 277.533C138.263 270.579 139.603 263.046 140.897 253.577C141.566 248.67 142.023 244.673 142.207 243.062C142.901 236.961 143.389 231.64 143.738 227.347C142.792 226.575 141.797 225.866 140.76 225.222C138.251 223.629 135.477 222.498 132.569 221.883Z" fill="#48AB85"/>
<path d="M125.851 212.588C118.716 209.634 111.157 207.831 103.456 207.247C96.5575 206.514 89.599 206.544 82.7066 207.335C75.2565 207.86 67.9481 209.636 61.0878 212.588C54.0873 215.778 41.754 223.317 43.0206 229.196C43.1519 229.801 43.6917 231.627 51.5199 235.231C58.6797 238.455 66.246 240.686 74.0094 241.864C80.7989 243.135 87.6882 243.798 94.5955 243.843C102.625 243.891 110.632 242.995 118.452 241.173C125.403 239.551 132.016 236.727 137.995 232.829C143.099 229.463 143.605 227.955 143.714 227.036C144.488 220.589 129.354 214.092 125.851 212.588Z" fill="#3E705B"/>
<path d="M139.459 243.86C139.582 244.192 120.153 256.601 93.6384 257.182C66.399 257.778 45.9803 245.578 46.0936 245.238C60.9647 252.21 77.215 255.742 93.6384 255.574C109.583 255.053 125.221 251.055 139.459 243.86Z" fill="#3E705B"/>
<path d="M125.734 227.723C119.559 224.719 112.968 222.657 106.182 221.606C100.747 220.802 95.2392 220.599 89.7593 221.001C84.862 221.141 79.993 221.796 75.2329 222.955C69.6628 224.13 64.3619 226.338 59.6035 229.463C56.9896 231.242 54.593 233.322 52.4626 235.659C54.7048 236.668 56.9962 237.564 59.3283 238.343C59.3283 238.343 62.5848 239.408 66.4368 240.342C67.5415 240.61 68.5418 240.817 70.0801 241.145C71.6184 241.472 71.9746 241.535 72.2247 241.575C73.1782 241.724 73.4517 241.773 74.0005 241.871C74.0652 241.882 80.9344 243.109 86.7493 243.55C87.2171 243.586 87.6057 243.611 87.9116 243.631C88.7734 243.689 91.3498 243.843 94.5865 243.852C99.3003 243.863 103.088 243.557 103.973 243.493C108.521 243.111 111.92 242.528 112.814 242.372C112.814 242.372 116.754 241.681 121.158 240.499C122.698 240.085 123.812 239.707 124.107 239.599C124.622 239.419 125.073 239.257 125.577 239.059C126.948 238.536 128.625 237.895 130.672 236.935C132.554 236.049 134.388 235.066 136.167 233.989C132.88 231.598 129.389 229.501 125.734 227.723Z" fill="#67C7EE"/>
<path d="M126.809 233.234C119.877 229.845 112.547 227.34 104.991 225.778C95.3208 224.059 85.4199 224.098 75.7636 225.893C75.724 225.56 89.1889 221.199 105.335 224.4C117.931 226.89 126.934 232.955 126.809 233.234Z" fill="#DEF0F8"/>
<path d="M119.177 233.752C113.278 231.19 107.088 229.358 100.745 228.297C95.2726 227.525 89.739 227.279 84.2197 227.561C89.722 226.44 95.3854 226.358 100.918 227.32C107.39 228.151 113.613 230.343 119.177 233.752Z" fill="#DEF0F8"/>
<path d="M110.847 234.038C108.089 232.937 105.255 232.035 102.368 231.339C98.4809 230.525 94.508 230.197 90.5402 230.362C94.525 229.611 98.6264 229.746 102.553 230.758C105.484 231.372 108.289 232.481 110.847 234.038Z" fill="#DEF0F8"/>
<path d="M119.782 327.406L119.858 327.373C116.92 327.532 112.911 327.666 108.149 327.575C103.521 327.574 98.8984 327.268 94.3112 326.657C87.6705 325.711 83.4479 325.11 78.7215 322.494C75.197 320.432 72.0744 317.75 69.5043 314.578C65.1863 309.45 63.0273 304.513 58.9972 292.527C55.2441 281.372 52.6246 272.317 50.5573 265.138C48.8103 259.073 46.7107 251.772 44.7244 244.849C45.1958 248.787 45.5988 251.938 45.8255 253.595C47.1191 263.067 48.4595 270.602 49.6595 277.558C51.3436 287.3 53.7185 301.487 56.4964 319.613C57.8628 321.141 59.3613 322.545 60.9745 323.809C64.8303 326.737 69.2632 328.814 73.9807 329.903C74.9162 330.148 76.3412 330.511 78.1637 330.862C88.2623 332.141 98.4819 332.141 108.58 330.862C110.678 330.457 112.763 329.903 112.763 329.903C114.71 329.366 116.625 328.721 118.499 327.971C118.609 327.926 119.266 327.648 119.444 327.56C119.444 327.56 119.609 327.478 119.773 327.407L119.782 327.406Z" fill="#3E705B"/>
<path d="M92.3379 296.063C93.0206 297.343 93.4139 298.757 93.49 300.205C93.9203 302.128 93.7607 304.135 93.0321 305.966C92.1836 307.401 90.9283 308.553 89.425 309.275C87.9217 309.997 86.238 310.257 84.5871 310.021C82.4799 309.718 80.555 308.659 79.1722 307.04C78.1718 305.689 77.5176 304.114 77.2665 302.452C77.0155 300.79 77.1753 299.092 77.732 297.506C78.0201 296.611 79.3507 292.417 82.8388 291.515C84.3615 291.224 85.9375 291.426 87.3378 292.092C89.4187 292.788 91.1886 294.194 92.3379 296.063Z" fill="#1D1D1B"/>
<path d="M269.082 221.883C264.257 221.062 260.631 224.466 257.131 226.478C251.474 229.729 249.481 226.989 229.993 226.532C219.76 226.291 211.14 226.384 202.856 226.478C200.182 226.508 192.814 223.599 184.657 226.877C183.632 227.768 182.398 228.382 181.071 228.66C180.634 228.719 180.191 228.726 179.753 228.68C180.111 232.385 180.626 237.291 181.302 243.063C181.86 247.816 182.349 251.672 182.607 253.57C183.897 263.042 185.233 270.579 186.429 277.533C188.107 287.275 190.474 301.462 193.243 319.588C194.604 321.116 196.098 322.52 197.706 323.784C201.549 326.712 205.967 328.789 210.668 329.878C211.601 330.122 213.021 330.486 214.838 330.837C224.902 332.116 235.088 332.116 245.153 330.837C246.969 330.477 248.38 330.117 249.322 329.878C254.024 328.789 258.442 326.712 262.285 323.784C263.892 322.52 265.386 321.116 266.748 319.588C269.507 301.46 271.874 287.275 273.562 277.533C274.758 270.579 276.094 263.046 277.383 253.577C278.05 248.671 278.506 244.673 278.688 243.063C279.381 236.962 279.867 231.64 280.214 227.347C279.272 226.576 278.28 225.866 277.247 225.222C274.746 223.629 271.981 222.498 269.082 221.883Z" fill="#48AB85"/>
<path d="M262.387 212.588C255.276 209.634 247.742 207.831 240.067 207.247C233.191 206.514 226.256 206.544 219.387 207.335C211.962 207.86 204.678 209.636 197.84 212.588C190.863 215.778 178.571 223.317 179.833 229.196C179.964 229.801 180.502 231.627 188.304 235.231C195.44 238.455 202.981 240.686 210.719 241.864C217.485 243.135 224.352 243.798 231.236 243.843C239.239 243.891 247.219 242.995 255.013 241.173C261.94 239.551 268.532 236.727 274.491 232.829C279.578 229.463 280.082 227.955 280.191 227.036C280.962 220.589 265.878 214.092 262.387 212.588Z" fill="#3E705B"/>
<path d="M275.95 243.86C276.072 244.192 256.708 256.601 230.282 257.182C203.134 257.778 182.783 245.578 182.896 245.238C197.717 252.21 213.914 255.742 230.282 255.574C246.173 255.053 261.759 251.055 275.95 243.86Z" fill="#3E705B"/>
<path d="M262.27 227.723C256.116 224.719 249.547 222.657 242.784 221.606C237.367 220.802 231.878 220.599 226.416 221.001C221.535 221.141 216.682 221.796 211.938 222.955C206.387 224.13 201.103 226.338 196.361 229.463C193.756 231.242 191.367 233.322 189.244 235.659C191.478 236.668 193.762 237.564 196.086 238.343C196.086 238.343 199.332 239.408 203.171 240.342C204.272 240.61 205.269 240.817 206.802 241.145C208.336 241.472 208.691 241.535 208.94 241.575C209.89 241.724 210.163 241.773 210.71 241.871C210.774 241.882 217.621 243.109 223.416 243.55C223.882 243.586 224.27 243.611 224.574 243.631C225.433 243.689 228.001 243.843 231.227 243.852C235.925 243.863 239.7 243.557 240.582 243.493C245.115 243.111 248.502 242.528 249.394 242.372C249.394 242.372 253.321 241.681 257.71 240.499C259.245 240.085 260.355 239.707 260.649 239.599C261.162 239.419 261.612 239.257 262.114 239.059C263.481 238.536 265.152 237.895 267.192 236.935C269.067 236.049 270.895 235.066 272.669 233.989C269.393 231.598 265.913 229.501 262.27 227.723Z" fill="#67C7EE"/>
<path d="M263.343 233.234C256.434 229.845 249.128 227.34 241.597 225.778C231.959 224.059 222.091 224.098 212.467 225.893C212.428 225.56 225.848 221.199 241.939 224.4C254.493 226.89 263.466 232.955 263.343 233.234Z" fill="#DEF0F8"/>
<path d="M255.736 233.752C249.856 231.19 243.687 229.358 237.365 228.297C231.911 227.525 226.396 227.279 220.895 227.561C226.379 226.44 232.023 226.358 237.537 227.32C243.988 228.151 250.19 230.343 255.736 233.752Z" fill="#DEF0F8"/>
<path d="M247.434 234.038C244.685 232.937 241.86 232.035 238.982 231.339C235.108 230.525 231.149 230.197 227.194 230.362C231.166 229.611 235.253 229.746 239.167 230.758C242.089 231.372 244.884 232.481 247.434 234.038Z" fill="#DEF0F8"/>
<path d="M256.338 327.406L256.414 327.373C253.486 327.532 249.49 327.666 244.744 327.575C240.132 327.574 235.525 327.268 230.953 326.657C224.334 325.711 220.126 325.11 215.415 322.494C211.902 320.432 208.79 317.75 206.229 314.578C201.925 309.45 199.773 304.513 195.757 292.527C192.016 281.372 189.405 272.317 187.345 265.138C185.604 259.073 183.511 251.772 181.531 244.849C182.001 248.787 182.403 251.938 182.629 253.595C183.918 263.067 185.254 270.602 186.45 277.558C188.128 287.3 190.495 301.487 193.264 319.613C194.626 321.141 196.119 322.545 197.727 323.809C201.57 326.737 205.988 328.814 210.69 329.903C211.622 330.148 213.043 330.511 214.859 330.862C224.924 332.141 235.109 332.141 245.174 330.862C247.265 330.457 249.343 329.903 249.343 329.903C251.283 329.366 253.192 328.721 255.06 327.971C255.169 327.926 255.824 327.648 256.001 327.56C256.001 327.56 256.166 327.478 256.33 327.407L256.338 327.406Z" fill="#3E705B"/>
<path d="M262.778 273.554C262.511 274.995 261.933 276.359 261.083 277.553C260.211 279.339 258.821 280.82 257.094 281.804C255.52 282.402 253.804 282.52 252.163 282.141C250.523 281.762 249.032 280.905 247.879 279.677C246.409 278.112 245.558 276.064 245.488 273.918C245.549 272.222 246.026 270.567 246.875 269.098C247.725 267.628 248.922 266.39 250.361 265.491C251.448 264.64 252.722 264.059 254.077 263.797C255.433 263.535 256.831 263.598 258.157 263.982C259.545 264.707 260.665 265.857 261.354 267.263C262.552 269.128 263.056 271.355 262.778 273.554Z" fill="#1D1D1B"/>
<path d="M231.343 311.286C230.217 310.408 229.298 309.293 228.65 308.021C227.497 306.461 226.841 304.59 226.768 302.652C226.961 301.021 227.634 299.485 228.701 298.236C229.768 296.988 231.182 296.084 232.763 295.64C234.78 295.073 236.934 295.261 238.823 296.167C240.26 296.986 241.474 298.145 242.36 299.542C243.246 300.938 243.776 302.531 243.905 304.18C244.151 305.504 244.078 306.868 243.694 308.158C243.31 309.449 242.624 310.63 241.694 311.604C240.441 312.473 238.944 312.922 237.42 312.885C235.269 313.08 233.119 312.514 231.343 311.286Z" fill="#1D1D1B"/>
<path d="M542.671 221.883C537.83 221.062 534.192 224.466 530.68 226.478C525.003 229.729 523.004 226.989 503.451 226.532C493.183 226.291 484.535 226.384 476.223 226.478C473.54 226.508 466.147 223.599 457.963 226.877C456.935 227.768 455.696 228.382 454.365 228.66C453.926 228.719 453.482 228.726 453.042 228.68C453.402 232.385 453.918 237.291 454.597 243.063C455.156 247.816 455.647 251.672 455.906 253.57C457.2 263.042 458.54 270.579 459.74 277.533C461.424 287.275 463.799 301.462 466.577 319.588C467.944 321.116 469.442 322.52 471.055 323.784C474.911 326.712 479.344 328.789 484.062 329.878C484.997 330.122 486.422 330.486 488.245 330.837C498.343 332.116 508.563 332.116 518.661 330.837C520.484 330.477 521.9 330.117 522.844 329.878C527.562 328.789 531.995 326.712 535.851 323.784C537.464 322.52 538.962 321.116 540.329 319.588C543.098 301.46 545.472 287.275 547.165 277.533C548.366 270.579 549.706 263.046 551 253.577C551.669 248.671 552.126 244.673 552.309 243.063C553.004 236.962 553.491 231.64 553.84 227.347C552.894 226.576 551.9 225.866 550.863 225.222C548.354 223.629 545.579 222.498 542.671 221.883Z" fill="#48AB85"/>
<path d="M535.953 212.588C528.818 209.634 521.259 207.831 513.559 207.247C506.66 206.514 499.701 206.544 492.809 207.335C485.359 207.86 478.051 209.636 471.19 212.588C464.19 215.778 451.856 223.317 453.123 229.196C453.254 229.801 453.794 231.627 461.622 235.231C468.782 238.455 476.349 240.686 484.112 241.864C490.901 243.135 497.791 243.798 504.698 243.843C512.727 243.891 520.735 242.995 528.555 241.173C535.505 239.551 542.119 236.727 548.097 232.829C553.202 229.463 553.707 227.955 553.817 227.036C554.591 220.589 539.456 214.092 535.953 212.588Z" fill="#3E705B"/>
<path d="M549.562 243.86C549.684 244.192 530.255 256.601 503.741 257.182C476.501 257.778 456.083 245.578 456.196 245.238C471.067 252.21 487.318 255.742 503.741 255.574C519.685 255.053 535.324 251.055 549.562 243.86Z" fill="#3E705B"/>
<path d="M535.836 227.723C529.661 224.719 523.071 222.657 516.285 221.606C510.849 220.802 505.342 220.599 499.862 221.001C494.965 221.141 490.096 221.796 485.335 222.955C479.765 224.13 474.464 226.338 469.706 229.463C467.092 231.242 464.695 233.322 462.565 235.659C464.807 236.668 467.099 237.564 469.431 238.343C469.431 238.343 472.687 239.408 476.539 240.342C477.644 240.61 478.644 240.817 480.183 241.145C481.721 241.472 482.077 241.535 482.327 241.575C483.281 241.724 483.554 241.773 484.103 241.871C484.168 241.882 491.037 243.109 496.852 243.55C497.32 243.586 497.708 243.611 498.014 243.631C498.876 243.689 501.452 243.843 504.689 243.852C509.403 243.863 513.19 243.557 514.075 243.493C518.624 243.111 522.022 242.528 522.916 242.372C522.916 242.372 526.857 241.681 531.261 240.499C532.801 240.085 533.915 239.707 534.21 239.599C534.724 239.419 535.176 239.257 535.68 239.059C537.051 238.536 538.727 237.895 540.775 236.935C542.656 236.049 544.49 235.066 546.27 233.989C542.983 231.598 539.491 229.501 535.836 227.723Z" fill="#67C7EE"/>
<path d="M536.912 233.234C529.98 229.845 522.65 227.34 515.094 225.778C505.423 224.059 495.522 224.098 485.866 225.893C485.827 225.56 499.291 221.199 515.437 224.4C528.033 226.89 537.036 232.955 536.912 233.234Z" fill="#DEF0F8"/>
<path d="M529.28 233.752C523.381 231.19 517.191 229.358 510.848 228.297C505.375 227.525 499.841 227.279 494.322 227.561C499.824 226.44 505.488 226.358 511.02 227.32C517.493 228.151 523.715 230.343 529.28 233.752Z" fill="#DEF0F8"/>
<path d="M520.95 234.038C518.192 232.937 515.358 232.035 512.47 231.339C508.583 230.525 504.61 230.197 500.643 230.362C504.627 229.611 508.729 229.746 512.656 230.758C515.587 231.372 518.392 232.481 520.95 234.038Z" fill="#DEF0F8"/>
<path d="M529.885 327.406L529.96 327.373C527.022 327.532 523.014 327.666 518.251 327.575C513.623 327.574 509.001 327.268 504.414 326.657C497.773 325.711 493.55 325.11 488.824 322.494C485.3 320.432 482.177 317.75 479.607 314.578C475.289 309.45 473.13 304.513 469.1 292.527C465.347 281.372 462.727 272.317 460.66 265.138C458.913 259.073 456.813 251.772 454.827 244.849C455.298 248.787 455.701 251.938 455.928 253.595C457.222 263.067 458.562 270.602 459.762 277.558C461.446 287.3 463.821 301.487 466.599 319.613C467.965 321.141 469.464 322.545 471.077 323.809C474.933 326.737 479.366 328.814 484.083 329.903C485.019 330.148 486.444 330.511 488.266 330.862C498.365 332.141 508.584 332.141 518.683 330.862C520.781 330.457 522.866 329.903 522.866 329.903C524.812 329.366 526.727 328.721 528.602 327.971C528.711 327.926 529.368 327.648 529.546 327.56C529.546 327.56 529.712 327.478 529.876 327.407L529.885 327.406Z" fill="#3E705B"/>
<path d="M505.925 291.674C505.658 293.115 505.08 294.48 504.231 295.673C503.359 297.459 501.968 298.941 500.241 299.924C498.667 300.522 496.951 300.64 495.31 300.261C493.67 299.882 492.179 299.025 491.026 297.797C489.556 296.232 488.706 294.184 488.635 292.038C488.697 290.342 489.173 288.687 490.023 287.218C490.872 285.749 492.069 284.51 493.508 283.611C494.595 282.76 495.869 282.18 497.224 281.917C498.58 281.655 499.978 281.719 501.304 282.103C502.692 282.827 503.812 283.977 504.501 285.383C505.699 287.248 506.203 289.475 505.925 291.674Z" fill="#1D1D1B"/>
<path d="M536.601 291.405C535.554 292.479 534.283 293.31 532.879 293.838C531.118 294.861 529.09 295.329 527.059 295.181C525.378 294.791 523.851 293.911 522.672 292.652C521.492 291.393 520.713 289.812 520.434 288.109C520.079 285.942 520.523 283.721 521.684 281.857C522.703 280.45 524.051 279.313 525.61 278.547C527.169 277.781 528.892 277.409 530.629 277.462C532.04 277.359 533.455 277.593 534.758 278.145C536.061 278.696 537.214 279.549 538.123 280.633C538.888 282.04 539.183 283.655 538.965 285.242C538.923 287.51 538.086 289.691 536.601 291.405Z" fill="#1D1D1B"/>
<path d="M470.809 263.38C471.942 262.652 473.222 262.182 474.557 262.004C476.306 261.464 478.178 261.464 479.927 262.004C481.32 262.686 482.478 263.766 483.257 265.107C484.035 266.448 484.398 267.99 484.299 269.537C484.174 271.511 483.333 273.372 481.935 274.771C480.756 275.796 479.344 276.517 477.822 276.87C476.3 277.223 474.715 277.198 473.205 276.798C472.356 276.6 468.37 275.671 467.28 272.514C466.896 271.126 466.964 269.65 467.476 268.303C467.974 266.322 469.154 264.579 470.809 263.38Z" fill="#1D1D1B"/>
<path d="M510.49 319.326C509.364 318.448 508.445 317.333 507.797 316.061C506.644 314.501 505.988 312.63 505.915 310.692C506.108 309.061 506.781 307.524 507.848 306.276C508.915 305.028 510.329 304.124 511.91 303.68C513.927 303.113 516.081 303.301 517.97 304.207C519.407 305.026 520.621 306.185 521.507 307.582C522.393 308.978 522.924 310.571 523.052 312.22C523.298 313.544 523.225 314.907 522.841 316.198C522.457 317.489 521.771 318.67 520.841 319.644C519.589 320.513 518.092 320.962 516.567 320.925C514.416 321.12 512.266 320.554 510.49 319.326Z" fill="#1D1D1B"/>
<path d="M679.485 221.883C674.644 221.063 671.006 224.467 667.494 226.478C661.817 229.729 659.819 226.989 640.265 226.532C629.997 226.291 621.348 226.385 613.036 226.478C610.353 226.509 602.96 223.599 594.776 226.878C593.748 227.769 592.509 228.382 591.178 228.661C590.739 228.719 590.295 228.726 589.855 228.68C590.215 232.385 590.731 237.291 591.41 243.063C591.969 247.817 592.46 251.672 592.719 253.57C594.013 263.043 595.353 270.58 596.553 277.534C598.238 287.276 600.612 301.463 603.39 319.59C604.757 321.117 606.255 322.521 607.869 323.786C611.724 326.714 616.157 328.791 620.875 329.879C621.811 330.124 623.236 330.488 625.058 330.838C635.157 332.118 645.377 332.118 655.475 330.838C657.298 330.479 658.714 330.119 659.658 329.879C664.376 328.791 668.809 326.714 672.665 323.786C674.278 322.521 675.776 321.117 677.143 319.59C679.912 301.461 682.287 287.276 683.98 277.534C685.18 270.58 686.52 263.047 687.814 253.578C688.483 248.671 688.94 244.673 689.124 243.063C689.818 236.962 690.306 231.64 690.655 227.347C689.709 226.576 688.714 225.866 687.677 225.222C685.168 223.629 682.394 222.498 679.485 221.883Z" fill="#48AB85"/>
<path d="M672.767 212.588C665.632 209.634 658.073 207.831 650.373 207.247C643.474 206.514 636.515 206.544 629.623 207.335C622.172 207.86 614.864 209.636 608.004 212.588C601.003 215.778 588.669 223.317 589.936 229.197C590.067 229.801 590.607 231.627 598.435 235.231C605.595 238.455 613.162 240.687 620.925 241.865C627.715 243.136 634.604 243.798 641.512 243.844C649.541 243.891 657.549 242.995 665.369 241.174C672.319 239.551 678.933 236.727 684.912 232.829C690.016 229.463 690.522 227.955 690.631 227.036C691.405 220.589 676.27 214.092 672.767 212.588Z" fill="#3E705B"/>
<path d="M686.376 243.86C686.499 244.193 667.069 256.602 640.555 257.183C613.315 257.779 592.896 245.578 593.009 245.238C607.88 252.21 624.131 255.743 640.555 255.575C656.499 255.053 672.138 251.055 686.376 243.86Z" fill="#3E705B"/>
<path d="M672.65 227.723C666.475 224.719 659.885 222.657 653.099 221.606C647.663 220.802 642.155 220.599 636.675 221.001C631.778 221.141 626.909 221.796 622.149 222.955C616.579 224.131 611.278 226.338 606.519 229.463C603.905 231.243 601.509 233.322 599.378 235.659C601.62 236.669 603.912 237.565 606.244 238.344C606.244 238.344 609.5 239.409 613.353 240.343C614.457 240.611 615.458 240.818 616.996 241.145C618.534 241.473 618.89 241.536 619.141 241.575C620.094 241.725 620.368 241.773 620.916 241.872C620.981 241.883 627.85 243.11 633.665 243.551C634.133 243.587 634.522 243.612 634.828 243.632C635.69 243.689 638.266 243.844 641.503 243.853C646.217 243.864 650.004 243.558 650.889 243.493C655.437 243.112 658.836 242.529 659.73 242.372C659.73 242.372 663.671 241.681 668.075 240.499C669.615 240.085 670.729 239.708 671.024 239.6C671.538 239.42 671.99 239.258 672.494 239.06C673.865 238.536 675.542 237.896 677.589 236.935C679.47 236.049 681.305 235.066 683.084 233.99C679.797 231.598 676.306 229.501 672.65 227.723Z" fill="#67C7EE"/>
<path d="M673.726 233.234C666.794 229.845 659.464 227.34 651.907 225.778C642.237 224.059 632.336 224.098 622.68 225.893C622.64 225.561 636.105 221.199 652.251 224.4C664.847 226.89 673.85 232.955 673.726 233.234Z" fill="#DEF0F8"/>
<path d="M666.094 233.752C660.195 231.19 654.005 229.358 647.661 228.297C642.189 227.526 636.655 227.279 631.136 227.561C636.638 226.44 642.302 226.359 647.834 227.32C654.306 228.152 660.529 230.344 666.094 233.752Z" fill="#DEF0F8"/>
<path d="M657.764 234.038C655.005 232.937 652.172 232.035 649.284 231.34C645.397 230.526 641.424 230.197 637.456 230.363C641.441 229.611 645.543 229.747 649.47 230.758C652.401 231.372 655.206 232.481 657.764 234.038Z" fill="#DEF0F8"/>
<path d="M666.699 327.407L666.774 327.375C663.836 327.533 659.827 327.668 655.065 327.577C650.437 327.576 645.815 327.27 641.227 326.659C634.587 325.713 630.364 325.112 625.637 322.496C622.113 320.434 618.99 317.752 616.42 314.579C612.102 309.452 609.943 304.515 605.913 292.528C602.16 281.373 599.54 272.318 597.473 265.139C595.726 259.074 593.626 251.773 591.64 244.85C592.111 248.788 592.514 251.939 592.741 253.596C594.035 263.068 595.375 270.603 596.575 277.559C598.259 287.302 600.634 301.488 603.412 319.615C604.778 321.143 606.277 322.547 607.89 323.811C611.746 326.739 616.179 328.816 620.897 329.905C621.832 330.149 623.257 330.513 625.08 330.864C635.178 332.143 645.398 332.143 655.497 330.864C657.595 330.459 659.68 329.905 659.68 329.905C661.626 329.368 663.541 328.723 665.416 327.972C665.526 327.927 666.182 327.65 666.36 327.562C666.36 327.562 666.526 327.479 666.69 327.409L666.699 327.407Z" fill="#3E705B"/>
<path d="M671.835 301.223C672.517 302.502 672.911 303.916 672.987 305.364C673.417 307.287 673.257 309.295 672.529 311.125C671.68 312.561 670.425 313.712 668.922 314.434C667.418 315.156 665.735 315.416 664.084 315.18C661.976 314.878 660.052 313.818 658.669 312.199C657.668 310.849 657.014 309.273 656.763 307.612C656.512 305.95 656.672 304.251 657.229 302.666C657.517 301.77 658.847 297.576 662.335 296.675C663.858 296.383 665.434 296.585 666.834 297.251C668.915 297.947 670.685 299.353 671.835 301.223Z" fill="#1D1D1B"/>
<path d="M623.537 266.86C623.271 268.301 622.693 269.666 621.843 270.859C620.971 272.645 619.581 274.127 617.854 275.11C616.28 275.708 614.564 275.826 612.923 275.447C611.283 275.068 609.791 274.211 608.639 272.983C607.169 271.418 606.318 269.37 606.248 267.224C606.309 265.528 606.786 263.873 607.635 262.404C608.485 260.935 609.682 259.696 611.121 258.797C612.208 257.946 613.482 257.366 614.837 257.103C616.193 256.841 617.591 256.905 618.917 257.289C620.305 258.014 621.425 259.163 622.114 260.569C623.312 262.434 623.816 264.661 623.537 266.86Z" fill="#1D1D1B"/>
<path d="M670.534 284.112C669.487 285.186 668.216 286.016 666.812 286.544C665.051 287.567 663.023 288.035 660.991 287.887C659.311 287.497 657.784 286.617 656.604 285.358C655.425 284.099 654.646 282.518 654.367 280.816C654.012 278.649 654.456 276.427 655.617 274.563C656.636 273.156 657.984 272.02 659.543 271.254C661.102 270.488 662.825 270.115 664.561 270.168C665.972 270.066 667.388 270.3 668.69 270.851C669.993 271.402 671.147 272.255 672.055 273.339C672.82 274.747 673.116 276.361 672.898 277.948C672.856 280.216 672.019 282.397 670.534 284.112Z" fill="#1D1D1B"/>
<path d="M618.422 297.126C619.555 296.398 620.834 295.928 622.17 295.75C623.919 295.21 625.791 295.21 627.54 295.75C628.932 296.432 630.091 297.512 630.869 298.853C631.648 300.194 632.01 301.736 631.912 303.283C631.786 305.257 630.946 307.118 629.548 308.517C628.369 309.542 626.957 310.263 625.435 310.616C623.913 310.969 622.328 310.944 620.818 310.544C619.969 310.346 615.983 309.417 614.893 306.26C614.509 304.872 614.577 303.396 615.088 302.049C615.587 300.068 616.767 298.325 618.422 297.126Z" fill="#1D1D1B"/>
<path d="M642.023 322.112C640.897 321.234 639.978 320.119 639.33 318.847C638.176 317.288 637.521 315.416 637.448 313.478C637.641 311.847 638.314 310.311 639.381 309.062C640.448 307.814 641.862 306.91 643.443 306.466C645.46 305.899 647.614 306.087 649.503 306.993C650.94 307.812 652.154 308.971 653.04 310.368C653.926 311.765 654.456 313.357 654.585 315.006C654.831 316.33 654.758 317.694 654.374 318.984C653.99 320.275 653.304 321.456 652.374 322.43C651.121 323.3 649.624 323.748 648.1 323.711C645.949 323.906 643.799 323.34 642.023 322.112Z" fill="#1D1D1B"/>
<path d="M816.301 221.883C811.459 221.063 807.821 224.467 804.309 226.478C798.633 229.73 796.634 226.989 777.08 226.532C766.812 226.291 758.163 226.385 749.851 226.478C747.168 226.509 739.775 223.6 731.59 226.878C730.562 227.769 729.324 228.382 727.992 228.661C727.554 228.72 727.11 228.726 726.67 228.681C727.029 232.385 727.546 237.292 728.224 243.063C728.784 247.817 729.275 251.673 729.534 253.571C730.828 263.044 732.168 270.581 733.368 277.535C735.052 287.277 737.427 301.464 740.205 319.591C741.572 321.119 743.07 322.523 744.683 323.787C748.539 326.715 752.972 328.792 757.69 329.881C758.625 330.126 760.05 330.489 761.873 330.84C771.972 332.119 782.192 332.119 792.29 330.84C794.113 330.48 795.529 330.12 796.474 329.881C801.191 328.792 805.624 326.715 809.48 323.787C811.093 322.523 812.592 321.119 813.958 319.591C816.727 301.462 819.102 287.277 820.795 277.535C821.995 270.581 823.336 263.047 824.63 253.578C825.299 248.672 825.756 244.674 825.939 243.063C826.634 236.962 827.121 231.64 827.471 227.347C826.524 226.576 825.53 225.866 824.493 225.222C821.983 223.629 819.209 222.498 816.301 221.883Z" fill="#48AB85"/>
<path d="M809.583 212.588C802.448 209.634 794.889 207.831 787.188 207.247C780.289 206.514 773.33 206.544 766.438 207.335C758.987 207.86 751.679 209.636 744.818 212.588C737.818 215.778 725.484 223.317 726.751 229.197C726.882 229.801 727.422 231.628 735.25 235.232C742.41 238.456 749.977 240.687 757.74 241.865C764.53 243.136 771.419 243.799 778.327 243.844C786.356 243.892 794.364 242.996 802.184 241.174C809.135 239.552 815.749 236.728 821.727 232.83C826.832 229.463 827.337 227.955 827.447 227.036C828.221 220.59 813.086 214.093 809.583 212.588Z" fill="#3E705B"/>
<path d="M823.192 243.86C823.314 244.193 803.885 256.602 777.37 257.184C750.13 257.779 729.71 245.579 729.824 245.239C744.695 252.211 760.946 255.744 777.37 255.575C793.315 255.054 808.953 251.056 823.192 243.86Z" fill="#3E705B"/>
<path d="M809.466 227.723C803.291 224.719 796.7 222.657 789.914 221.606C784.478 220.802 778.971 220.6 773.491 221.002C768.593 221.141 763.724 221.796 758.964 222.956C753.393 224.131 748.092 226.338 743.334 229.463C740.72 231.243 738.323 233.323 736.193 235.66C738.435 236.669 740.727 237.565 743.059 238.344C743.059 238.344 746.315 239.409 750.167 240.343C751.272 240.611 752.272 240.818 753.811 241.146C755.349 241.473 755.705 241.536 755.955 241.576C756.909 241.725 757.182 241.774 757.731 241.872C757.796 241.883 764.665 243.11 770.48 243.551C770.948 243.587 771.337 243.612 771.643 243.632C772.505 243.69 775.081 243.844 778.318 243.853C783.032 243.864 786.819 243.558 787.704 243.494C792.253 243.112 795.651 242.529 796.546 242.373C796.546 242.373 800.486 241.682 804.89 240.5C806.431 240.086 807.544 239.708 807.839 239.6C808.354 239.42 808.805 239.258 809.309 239.06C810.68 238.537 812.357 237.896 814.405 236.935C816.286 236.05 818.12 235.066 819.899 233.99C816.613 231.599 813.121 229.502 809.466 227.723Z" fill="#67C7EE"/>
<path d="M810.542 233.234C803.609 229.846 796.279 227.341 788.723 225.778C779.052 224.06 769.151 224.099 759.494 225.894C759.455 225.561 772.92 221.199 789.066 224.4C801.663 226.89 810.666 232.955 810.542 233.234Z" fill="#DEF0F8"/>
<path d="M802.909 233.753C797.01 231.191 790.82 229.359 784.477 228.297C779.004 227.526 773.47 227.28 767.951 227.561C773.453 226.441 779.117 226.359 784.649 227.32C791.122 228.152 797.345 230.344 802.909 233.753Z" fill="#DEF0F8"/>
<path d="M794.579 234.039C791.821 232.937 788.987 232.035 786.099 231.34C782.212 230.526 778.239 230.198 774.271 230.363C778.256 229.612 782.358 229.747 786.285 230.759C789.216 231.372 792.021 232.482 794.579 234.039Z" fill="#DEF0F8"/>
<path d="M803.514 327.409L803.59 327.376C800.651 327.535 796.643 327.67 791.88 327.578C787.253 327.578 782.63 327.271 778.043 326.66C771.402 325.714 767.179 325.113 762.452 322.497C758.928 320.435 755.805 317.753 753.235 314.58C748.917 309.453 746.758 304.516 742.728 292.529C738.974 281.374 736.355 272.319 734.287 265.14C732.54 259.075 730.441 251.773 728.454 244.85C728.926 248.789 729.329 251.939 729.556 253.596C730.849 263.069 732.19 270.604 733.39 277.56C735.074 287.303 737.449 301.489 740.227 319.616C741.593 321.144 743.092 322.548 744.705 323.812C748.561 326.74 752.994 328.817 757.711 329.906C758.647 330.151 760.072 330.514 761.895 330.865C771.993 332.144 782.213 332.144 792.312 330.865C794.41 330.46 796.495 329.906 796.495 329.906C798.442 329.369 800.357 328.724 802.231 327.974C802.341 327.929 802.998 327.652 803.176 327.563C803.176 327.563 803.341 327.481 803.505 327.411L803.514 327.409Z" fill="#3E705B"/>
<path d="M796.034 274.06C795.791 275.501 795.264 276.865 794.489 278.059C793.693 279.845 792.425 281.326 790.849 282.31C789.413 282.908 787.848 283.025 786.352 282.647C784.855 282.268 783.495 281.41 782.444 280.183C781.102 278.617 780.327 276.57 780.262 274.423C780.318 272.727 780.753 271.072 781.528 269.603C782.303 268.134 783.395 266.896 784.707 265.996C785.699 265.146 786.861 264.565 788.098 264.303C789.334 264.041 790.61 264.104 791.819 264.488C793.085 265.213 794.107 266.363 794.735 267.769C795.828 269.634 796.288 271.861 796.034 274.06Z" fill="#1D1D1B"/>
<path d="M816.948 270.595C815.901 271.552 814.631 272.293 813.227 272.763C811.466 273.675 809.437 274.093 807.406 273.961C805.725 273.613 804.198 272.829 803.019 271.706C801.839 270.584 801.061 269.174 800.781 267.657C800.426 265.725 800.871 263.744 802.032 262.083C803.05 260.829 804.398 259.816 805.957 259.133C807.516 258.45 809.239 258.118 810.976 258.165C812.387 258.074 813.802 258.282 815.105 258.774C816.408 259.265 817.561 260.026 818.47 260.992C819.235 262.247 819.53 263.686 819.313 265.101C819.27 267.122 818.434 269.067 816.948 270.595Z" fill="#1D1D1B"/>
<path d="M761.236 305.562C762.369 304.819 763.649 304.34 764.984 304.158C766.733 303.607 768.605 303.607 770.354 304.158C771.747 304.854 772.906 305.956 773.684 307.325C774.462 308.694 774.825 310.268 774.726 311.847C774.601 313.862 773.76 315.761 772.362 317.189C771.183 318.235 769.771 318.971 768.249 319.331C766.727 319.692 765.142 319.667 763.632 319.258C762.783 319.056 758.797 318.107 757.708 314.886C757.323 313.468 757.392 311.963 757.903 310.588C758.401 308.565 759.581 306.786 761.236 305.562Z" fill="#1D1D1B"/>
<path d="M795.637 315.818C794.511 314.956 793.592 313.862 792.944 312.613C791.791 311.082 791.135 309.246 791.062 307.343C791.255 305.742 791.928 304.234 792.995 303.008C794.063 301.783 795.476 300.896 797.057 300.46C799.074 299.904 801.228 300.088 803.117 300.977C804.554 301.781 805.769 302.919 806.655 304.29C807.54 305.661 808.071 307.224 808.199 308.843C808.445 310.142 808.373 311.481 807.988 312.748C807.604 314.015 806.919 315.174 805.989 316.13C804.736 316.984 803.239 317.424 801.714 317.387C799.564 317.579 797.413 317.023 795.637 315.818Z" fill="#1D1D1B"/>
<path d="M752.238 284.738C750.92 284.874 749.59 284.709 748.341 284.255C746.571 283.935 744.934 283.069 743.645 281.769C742.73 280.505 742.197 278.987 742.114 277.408C742.03 275.829 742.399 274.26 743.175 272.899C744.163 271.162 745.729 269.86 747.576 269.237C749.063 268.85 750.618 268.847 752.106 269.227C753.594 269.608 754.97 270.361 756.113 271.42C757.126 272.179 757.95 273.177 758.518 274.332C759.087 275.487 759.383 276.766 759.382 278.063C759.1 279.502 758.383 280.809 757.335 281.796C756.021 283.367 754.216 284.408 752.238 284.738Z" fill="#1D1D1B"/>
<path d="M782.091 285.46C783.316 286.049 784.396 286.892 785.258 287.93C786.645 289.134 787.632 290.716 788.091 292.47C788.242 293.994 787.928 295.524 787.188 296.865C786.449 298.206 785.317 299.298 783.937 300.003C782.176 300.902 780.135 301.138 778.196 300.669C776.694 300.195 775.33 299.37 774.223 298.264C773.116 297.159 772.3 295.807 771.846 294.328C771.35 293.166 771.142 291.908 771.238 290.658C771.335 289.407 771.734 288.2 772.402 287.135C773.394 286.103 774.697 285.411 776.125 285.157C778.082 284.574 780.193 284.681 782.091 285.46Z" fill="#1D1D1B"/>
</svg>
