<svg viewBox="0 0 1041 673" fill="none" xmlns="http://www.w3.org/2000/svg">
    <path d="M930.275 31.5285H109.538C60.3791 31.5285 20.5282 71.3795 20.5282 120.538V559.113C20.5282 608.271 60.3791 648.122 109.538 648.122H930.275C979.434 648.122 1019.29 608.271 1019.29 559.113V120.538C1019.29 71.3795 979.434 31.5285 930.275 31.5285Z" fill="#B6CEE1" stroke="#116619" stroke-width="6"/>
    <path d="M10.3469 40.3962C14.0803 43.5191 30.3873 57.8544 33.3678 82.5644C35.0452 97.2366 31.7442 112.047 23.9945 124.618C23.9917 129.075 23.989 133.532 23.9862 137.989C25.0232 137.01 49.8969 112.69 42.0007 79.7975C35.744 53.7353 13.6633 42.0771 10.3469 40.3962Z" fill="#48964E"/>
    <path d="M17.0569 128.701C8.9823 135.637 6.59974 141.986 5.91973 146.508C3.13445 165.034 25.505 175.593 28.6391 200.181C30.0691 211.399 26.9366 221.162 23.9805 227.768L23.9875 239.712C41.4527 218.375 42.4272 204.688 40.0084 196.092C35.2337 179.124 13.756 169.631 15.3641 150.788C15.5785 148.344 16.1464 145.945 17.05 143.665C17.0523 138.677 17.0547 133.689 17.0569 128.701Z" fill="#48964E"/>
    <path d="M17.0604 232.674C5.48571 244.641 4.28572 252.946 5.18191 258.219C6.62856 266.731 13.6659 268.101 22.5952 285.077C28.1058 295.553 28.5785 301.026 28.6456 303.67C28.7256 309.923 27.1173 316.082 23.9902 321.497L23.991 330.539C41.6305 318.739 42.9887 308.886 42.9599 304.851C42.9091 297.746 38.4361 291.725 29.6048 279.838C21.4098 268.807 15.4084 264.258 14.9216 255.415C14.7655 251.724 15.4991 248.049 17.0604 244.7V232.674Z" fill="#48964E"/>
    <path d="M17.0604 325.22V335.103C13.8048 340.271 12.0902 346.261 12.1177 352.369C12.5845 369.455 28.9968 376.064 34.1056 392.065C36.8704 400.725 36.9913 414.222 23.998 434.822C23.9945 430.933 23.991 427.045 23.9876 423.156C26.0384 415.924 26.4201 408.32 25.1039 400.919C20.7622 377.867 0.685835 370.851 0.0169104 353.992C-0.233507 347.682 2.15076 337.868 17.0604 325.22Z" fill="#48964E"/>
    <path d="M17.05 427.831C4.9767 444.271 4.77019 454.633 6.80512 461.054C10.6863 473.3 24.3095 476.221 27.465 490.052C29.351 498.318 26.4773 506.012 23.9944 510.935C23.9956 514.078 23.9968 517.22 23.9979 520.363C37.3567 504.069 38.2159 493.78 36.1716 487.248C32.6197 475.899 19.2638 472.709 15.9545 458.324C14.7897 452.761 15.1722 446.984 17.0604 441.623L17.05 427.831Z" fill="#48964E"/>
    <path d="M17.0612 515.065C8.99151 525.759 9.0124 531.824 10.4206 535.356C13.1376 542.17 22.1154 542.287 25.5465 550.039C28.053 555.702 26.0884 562.023 24.2826 566.146C24.3981 567.501 24.5498 568.909 24.7375 570.368C24.9274 571.825 25.1416 573.223 25.3799 574.563C36.23 556.687 35.4077 548.633 32.7037 544.579C28.6327 538.476 17.7069 537.555 16.3971 530.191C16.1254 528.432 16.3546 526.631 17.0587 524.996L17.0612 515.065Z" fill="#48964E"/>
    <path d="M18.0222 572.507C13.0892 583.935 14.5023 589.32 16.4895 592.115C20.584 597.873 29.2555 595.641 37.1308 602.851C40.4592 606 42.9026 609.968 44.2168 614.358C44.9419 615.213 45.7119 616.085 46.5267 616.972C47.3524 617.869 48.1675 618.718 48.972 619.52C49.211 604.959 45.11 599.01 41.3366 596.265C34.4535 591.258 24.7423 594.061 20.6399 587.632C19.2122 585.118 18.7262 582.177 19.2688 579.337C19.0586 578.382 18.8583 577.399 18.6681 576.389C18.4184 575.057 18.2031 573.763 18.0222 572.507Z" fill="#48964E"/>
    <path d="M42.0031 622.283C46.7911 638.508 53.2136 643.192 57.9382 644.631C66.9854 647.388 73.8136 639.441 88.7123 639.365C96.1929 639.413 103.556 641.227 110.203 644.66L119.037 644.657C102.87 630.479 91.01 628.438 82.73 629.801C72.3763 631.505 63.8322 639.154 54.9499 635.224C51.4655 633.513 48.6522 630.688 46.9564 627.196C46.2082 626.514 45.4495 625.795 44.6803 625.04C43.7328 624.108 42.8404 623.189 42.0031 622.283Z" fill="#48964E"/>
    <path d="M115.106 651.591C127.369 659.207 134.715 658.829 139.176 657.027C145.937 654.296 147.67 647.647 156.146 644.779C160.852 643.316 165.884 643.273 170.614 644.655H177.173C165.138 636.785 157.597 636.827 152.826 638.581C144.69 641.572 140.989 650.87 130.321 652.01C128.053 652.244 125.761 652.1 123.54 651.584L115.106 651.591Z" fill="#48964E"/>
    <path d="M176.174 651.59C191.651 661.554 201.029 661.231 206.763 659.02C215.799 655.534 218.489 646.308 229.636 643.525C235.059 642.31 240.718 642.705 245.919 644.66L253.388 644.657C239.944 633.895 230.994 633.305 225.357 634.671C213.782 637.475 209.318 650.187 194.515 652.342C190.476 652.902 186.366 652.647 182.428 651.591L176.174 651.59Z" fill="#48964E"/>
    <path d="M249.258 651.582C265.838 664.48 276.984 665.311 284.237 663.447C296.849 660.205 300.696 648.04 316.407 643.82C324.23 641.89 332.436 642.182 340.102 644.66L351.961 644.655C333.752 633.539 321.409 633.567 313.345 635.888C299.746 639.802 293.8 651.537 277.043 653.596C270.737 654.311 264.351 653.625 258.341 651.587L249.258 651.582Z" fill="#48964E"/>
    <path d="M345.465 651.591C365.599 662.904 377.705 661.874 385.027 658.872C394.833 654.852 399.56 645.86 412.771 643.525C418.459 642.583 424.289 642.969 429.804 644.655L443.017 644.658C425.156 629.441 413.953 628.334 406.868 630.539C395.057 634.214 392.044 647.915 376.764 652.231C370.046 653.964 362.974 653.737 356.381 651.577L345.465 651.591Z" fill="#48964E"/>
    <path d="M436.307 651.584C442.658 655.453 452.538 660.082 464.273 659.315C481.079 658.216 487.83 646.955 505.592 642.197C514.149 639.904 527.156 638.613 545.113 644.65L557.538 644.652C526.411 625.02 509.136 625.608 498.952 630.686C488.018 636.138 480.788 648.994 462.926 651.881C457.708 652.701 452.387 652.6 447.203 651.584H436.307Z" fill="#48964E"/>
    <path d="M562.702 651.585C568.452 653.494 574.507 654.314 580.558 654.002C600.049 652.891 608.674 639.807 623.353 634.671C633.854 630.996 650.008 630.496 674.713 644.655L660.42 644.66C650.354 641.913 639.791 641.525 629.551 643.525C608.509 647.856 601.319 660.833 583.509 662.119C576.428 662.63 565.421 661.455 551.171 651.587L562.702 651.585Z" fill="#48964E"/>
    <path d="M678.232 651.584C690.721 656.031 703.969 657.957 717.208 657.249C748.6 655.366 762.648 638.53 787.599 631.572C805.047 626.706 831.514 625.641 869.511 644.671L852.521 644.66C835.629 641.292 818.247 641.207 801.323 644.41C765.319 651.434 753.078 670.21 724.734 672.301C710.686 673.337 690.342 670.448 664.51 651.591L678.232 651.584Z" fill="#48964E"/>
    <path d="M863.063 651.567C886.607 667.621 902.874 668.248 913.514 665.66C932.602 661.019 935.367 645.599 956.862 642.787C972.959 640.681 980.122 648.188 995.268 643.23C1005.77 639.793 1012.88 632.731 1017.11 627.587C1009.96 632.466 1001.87 635.785 993.35 637.327C976.852 640.181 972.486 633.405 958.485 634.671C935.888 636.714 931.904 655.755 909.678 658.725C898.771 660.182 888.074 657.154 877.949 651.549L863.063 651.567Z" fill="#48964E"/>
    <path d="M999.208 69.8698C997.078 77.8959 996.929 86.3192 998.772 94.4161C1003.46 113.868 1018.27 119.09 1024.6 136.621C1027.5 144.66 1029.28 157.114 1022.75 175.443L1022.76 186.227C1042.99 157.86 1042.88 141.801 1038.91 132.342C1033.64 119.792 1018.97 112.695 1008.05 87.2683C1006.39 83.4222 1005.27 80.1954 1004.61 78.1808C1004.06 77.2256 1003.48 76.2551 1002.86 75.2693C1001.65 73.3353 1000.43 71.5367 999.208 69.8698Z" fill="#48964E"/>
    <path d="M1015.82 180.961C1011.89 187.507 1007.1 197.909 1008.95 209.578C1011.34 224.602 1022.78 229.453 1027.25 244.773C1029.47 252.361 1030.52 264.371 1022.75 281.839V294.295C1042.18 265.974 1041.87 250.456 1037.66 241.453C1032.33 230.076 1018.31 223.862 1015.52 206.479C1014.82 201.997 1014.92 197.427 1015.82 192.98V180.961Z" fill="#48964E"/>
    <path d="M1015.82 288.046C1006.9 300.577 1006.59 308.452 1008.44 313.504C1011.7 322.443 1022.43 324.583 1024.6 334.976C1025.36 339.343 1024.71 343.839 1022.75 347.816L1022.76 356.235C1032.27 345.732 1033.16 338.662 1032.12 334.09C1029.58 322.9 1013.72 319.142 1013.31 307.528C1013.28 304.468 1014.15 301.468 1015.81 298.9L1015.82 288.046Z" fill="#48964E"/>
    <path d="M1015.82 351.992C1005.73 364.487 1004.91 372.978 1006.3 378.586C1009.03 389.572 1021.11 392.861 1024.01 406.33C1025.05 411.659 1024.61 417.171 1022.75 422.272V434.384C1035.55 419.748 1036.56 410.288 1034.93 404.264C1031.75 392.556 1017.13 388.512 1014.86 373.569C1014.29 369.557 1014.62 365.469 1015.82 361.6L1015.82 351.992Z" fill="#48964E"/>
    <path d="M1015.82 426.515C1004.79 443.25 1004.97 453.074 1007.55 459.062C1011.73 468.749 1023.75 471.98 1025.04 483.19C1025.39 487.06 1024.59 490.946 1022.75 494.368L1022.75 503.382C1032.03 494.909 1033.54 488.412 1033.23 484.075C1032.34 471.543 1015.58 466.621 1013.75 451.093C1013.29 446.597 1014.01 442.06 1015.82 437.921L1015.82 426.515Z" fill="#48964E"/>
    <path d="M1015.82 499.014C1007.02 507.596 1005.4 514.24 1005.86 518.975C1006.87 529.57 1018.51 532.74 1023.27 545.39C1026.88 554.982 1024.61 564.882 1021.83 572.165C1021.6 573.851 1021.3 575.628 1020.93 577.483C1020.57 579.278 1020.17 580.978 1019.75 582.576C1036.03 561.403 1036.46 549.678 1033.45 542.808C1028.98 532.623 1014.59 527.777 1014.27 515.286C1014.22 512.647 1014.75 510.03 1015.82 507.617L1015.82 499.014Z" fill="#48964E"/>
    <path d="M1014.2 575.757C1009.84 580.03 1006.56 585.276 1004.62 591.064C1001.29 601.346 1004.9 606.523 1000.52 615.745C999.569 617.76 996.178 624.913 989.124 628.141C977.107 633.64 963.034 623.823 962.617 624.765C962.192 625.726 975.865 638.171 990.342 634.283C997.405 632.386 1005.59 626.476 1007.66 618.456C1009.61 610.929 1007.55 596.224 1009.29 592.035C1009.35 591.892 1009.8 590.836 1010.36 589.358C1010.98 587.685 1011.45 586.25 1011.78 585.179C1012.3 583.51 1012.81 581.738 1013.27 579.868C1013.63 578.455 1013.94 577.085 1014.2 575.757Z" fill="#48964E"/>
    <path d="M1001.47 61.5114C1001.37 56.6351 1000.25 51.8343 998.181 47.4151C991.658 33.5863 977.938 28.8425 974.865 27.862C988.36 26.1976 1001.09 32.6254 1006.59 43.5783C1012.43 55.2029 1007.59 66.8654 1006.81 68.643C1005.94 67.3385 1004.98 65.9914 1003.94 64.6156C1003.11 63.5224 1002.29 62.4876 1001.47 61.5114Z" fill="#48964E"/>
    <path d="M43.1074 75.3058C44.178 75.238 38.4338 54.3328 49.1947 41.4384C57.8654 31.0486 73.9217 29.8507 87.2125 30.7765C89.4119 30.2335 91.3744 29.8335 93.0296 29.5356C94.0802 29.3464 95.6591 29.081 97.592 28.8307C98.9585 28.6539 100.173 28.5271 101.193 28.4349C76.8268 18.8415 53.2042 23.3874 43.6608 37.2327C33.201 52.4074 41.9815 75.377 43.1074 75.3058Z" fill="#48964E"/>
    <path d="M93.9102 36.4152C102.92 41.8453 116.869 48.1998 132.092 45.3122C149.99 41.9171 155.559 28.4282 174.15 22.9922C183.451 20.2727 198.036 18.9772 219.103 28.0634H236.353C199.711 5.44149 178.684 6.07507 165.96 12.2196C151.449 19.2267 139.936 37.1661 118.258 37.0115C114.152 36.9709 110.076 36.3133 106.166 35.0608C103.849 35.1485 101.363 35.337 98.7344 35.6677C97.0497 35.8796 95.4402 36.1331 93.9102 36.4152Z" fill="#48964E"/>
    <path d="M228.079 34.994C228.944 35.3655 230.199 35.8987 231.72 36.5247C233.329 37.2753 234.978 37.935 236.661 38.5009C240.168 39.6001 245.142 41.035 251.186 42.359C257.024 43.638 276.468 46.4508 289.033 46.3082C320.503 45.951 334.661 25.56 366.507 19.7456C380.473 17.1958 400.921 16.8869 427.844 28.053C437.861 28.0582 447.878 28.0634 457.896 28.0685C399.445 -5.47043 365.669 -2.9533 345.479 6.02161C327.021 14.2264 308.788 32.7752 274.516 36.1947C264.406 37.1846 254.208 36.7811 244.207 34.9957L228.079 34.994Z" fill="#48964E"/>
    <path d="M437.286 34.9914C465.596 51.2299 483.707 50.326 495.115 46.3082C510.947 40.7325 518.143 27.6528 538.058 24.6155C547.925 23.263 557.975 24.4497 567.256 28.0634H586.506C555.693 5.68429 537.191 4.95595 525.662 9.56331C510.09 15.7864 504.033 33.0253 483.162 37.0114C474.91 38.4536 466.427 37.7578 458.521 34.9905C451.443 34.9908 444.364 34.9911 437.286 34.9914Z" fill="#48964E"/>
    <path d="M571.485 34.9957C596.982 49.3601 614.019 48.7852 625.05 45.3121C642.733 39.7448 651.283 24.7466 672.199 23.5087C680.314 23.1283 688.403 24.6898 695.793 28.0634H718.178C696.641 9.28632 680.986 6.98964 670.428 8.67782C649.18 12.0756 638.772 33.1835 609.666 35.9045C603.46 36.4718 597.205 36.1641 591.084 34.9904C584.551 34.9922 578.018 34.994 571.485 34.9957Z" fill="#48964E"/>
    <path d="M703.477 34.994C726.783 49.3467 740.366 48.8083 748.64 44.9801C759.428 39.9895 761.813 29.122 774.613 24.9106C784.974 21.5015 795.456 24.6605 802.943 28.0599C808.95 28.0605 814.957 28.0611 820.964 28.0617C789.526 7.85254 773.908 8.26014 765.463 13.4001C755.427 19.5093 753.178 33.732 739.786 37.3065C732.496 39.2524 725.543 37.0715 720.901 34.9957L703.477 34.994Z" fill="#48964E"/>
    <path d="M809.739 34.9931C815.789 39.6486 825.205 45.3045 836.74 45.2753C856.236 45.2261 864.499 28.9799 885.881 23.2874C895.544 20.7147 910.126 19.7014 930.432 28.0634C933.816 28.0668 937.197 28.2546 940.56 28.6259C943.741 28.9771 946.679 29.4677 949.349 30.0244C907.174 3.31472 886.881 4.66513 876.141 11.039C865.409 17.408 857.069 33.0336 838.068 35.5357C833.569 36.1109 829.005 35.9275 824.567 34.9931H809.739Z" fill="#48964E"/>
    <path d="M934.578 35.0669C941.184 39.498 948.551 42.6711 956.309 44.4268C966.959 46.7913 978.032 46.4488 988.516 43.4307C979.796 43.5594 971.096 42.5926 962.617 40.553C959.399 39.7762 956.384 38.8836 953.578 37.9281C947.375 36.2526 941 35.2927 934.578 35.0669V35.0669Z" fill="#48964E"/>
    <path d="M101.41 35.4048C107.838 38.3593 117.565 41.6527 128.908 40.4694C152.537 38.0046 160.464 18.485 181.344 14.101C191.498 11.9689 206.67 13.0066 227.939 28.0634C226.906 28.0455 225.873 28.0275 224.84 28.0096C205.872 15.3877 191.931 14.5196 182.672 16.0932C160.602 19.8442 152.631 39.5941 129.016 42.2109C116.358 43.6134 105.462 39.3998 98.4162 35.7754L101.41 35.4048Z" fill="#76B779"/>
    <path d="M95.3166 29.1536C85.4727 25.4876 74.7352 24.9592 64.5788 27.6407C59.6373 29.0252 51.9161 31.1809 46.4277 38.2288C39.199 47.5115 40.6058 58.6408 41.0045 61.2498C40.6717 58.7011 39.5176 47.6986 46.8534 38.7216C52.3326 32.0165 60.2123 29.9397 64.8739 28.7106C73.9135 26.4302 83.4148 26.7632 92.2725 29.6711C93.2873 29.4985 94.302 29.3261 95.3166 29.1536Z" fill="#76B779"/>
    <path d="M237.66 34.9823C252 39.4528 273.205 43.7283 297.002 38.7822C330.164 31.8895 340.922 12.7916 368.942 7.64491C385.526 4.59893 410.17 6.06971 443.834 28.0613L439.167 28.0649C408.29 9.14934 385.263 7.93983 369.975 10.3012C340.724 14.8193 329.915 33.9371 297.666 40.8482C271.862 46.3781 248.691 40.5865 233.399 34.9946C234.82 34.9906 236.24 34.9864 237.66 34.9823Z" fill="#76B779"/>
    <path d="M444.941 34.9912C452.929 40.0391 465.38 46.0804 479.841 44.6481C504.225 42.2332 513.083 20.6748 537.726 17.8641C546.079 16.9114 558.71 17.8318 575.226 28.0738L578.428 28.0634C560.424 15.2718 546.765 13.831 537.394 15.0972C514.3 18.2174 505.779 39.3249 480.948 41.9918C467.882 43.3952 456.562 39.0194 448.925 35.0007C447.597 34.9976 446.269 34.9944 444.941 34.9912Z" fill="#76B779"/>
    <path d="M578.18 34.9873C595.154 43.6952 608.029 44.0214 616.417 42.8772C642.702 39.292 652.867 17.4572 676.737 17.5321C689.165 17.5711 699.182 23.5302 705.282 28.0599C706.237 28.0611 707.192 28.0623 708.147 28.0634C694.849 16.8455 684.006 14.7085 676.847 14.6545C653.408 14.4776 643.263 36.4358 616.085 40.3317C601.595 42.4089 589.063 38.3766 581.209 34.9905L578.18 34.9873Z" fill="#76B779"/>
    <path d="M710.788 34.9947C718.061 40.2465 728.459 45.7932 739.491 43.7627C755.801 40.7608 759.939 23.6929 776.605 19.5981C783.78 17.8351 794.554 18.163 809.898 28.0606L812.55 28.0609C794.731 15.2624 782.829 14.6367 774.982 16.9418C759.326 21.5405 755.487 39.0733 739.159 41.8811C729.507 43.5409 720.566 39.1829 714.296 34.9957C713.126 34.9953 711.957 34.995 710.788 34.9947Z" fill="#76B779"/>
    <path d="M814.955 34.9931C819.827 38.1992 827.321 42.0445 836.555 42.2132C858.284 42.6099 867.535 22.245 889.127 16.9787C899.451 14.4606 914.822 14.852 936.534 28.2863C937.876 28.3995 939.218 28.5127 940.56 28.6259C915.515 11.7737 898.952 11.6916 888.574 14.5438C868.697 20.0065 859.238 39.606 836.887 39.6676C830.25 39.6106 823.717 38.0112 817.804 34.9957C816.854 34.9949 815.905 34.994 814.955 34.9931Z" fill="#76B779"/>
    <path d="M942.44 35.713C946.569 38.605 951.123 40.8354 955.94 42.3239C963.469 44.634 970.024 44.5734 970.051 44.3714C965.338 43.7267 960.69 42.6713 956.161 41.2171C952.257 39.881 948.499 38.1504 944.946 36.0521C944.11 35.9391 943.275 35.826 942.44 35.713Z" fill="#76B779"/>
    <path d="M988.516 31.625C991.866 32.7214 994.959 34.4872 997.607 36.8153C1000.25 39.1435 1002.4 41.9854 1003.92 45.1685C1005.43 48.3515 1006.28 51.8094 1006.42 55.3321C1006.56 58.8548 1005.98 62.3689 1004.72 65.6609L1003.26 63.7362C1005.12 57.5055 1004.64 50.8135 1001.93 44.9062C999.217 38.999 994.45 34.279 988.516 31.625V31.625Z" fill="#76B779"/>
    <path d="M1000.89 72.2494C1000.26 82.8465 1002.22 93.4377 1006.61 103.106C1014.89 120.768 1027.3 124.15 1031.79 138.06C1034.42 146.21 1034.63 158.89 1022.75 178.194L1022.75 180.961C1037.32 159.553 1037.47 145.875 1034.56 137.175C1030.09 123.821 1017.69 120.015 1008.88 100.872C1005.12 92.5862 1002.93 83.6725 1002.43 74.5864C1001.92 73.8075 1001.4 73.0284 1000.89 72.2494Z" fill="#76B779"/>
    <path d="M1015.82 184.986C1013.41 189.821 1010.25 197.931 1011.24 207.509C1013.17 226.011 1028.77 232.242 1032.34 249.345C1033.89 256.745 1033.67 268.5 1022.75 285.279V288.046C1036.28 269.414 1036.85 256.783 1034.85 248.681C1030.95 232.842 1015.36 226.727 1013.09 207.878C1012.36 201.084 1013.32 194.216 1015.89 187.882L1015.82 184.986Z" fill="#76B779"/>
    <path d="M1015.82 292.088C1009.52 300.359 1009.12 306.243 1009.77 309.963C1011.78 321.513 1026.15 324.672 1027.58 336.083C1028.33 342.038 1025.19 347.306 1022.75 350.54L1022.75 351.993C1029 345.097 1029.85 339.901 1029.47 336.415C1028.21 325.102 1012.73 321.778 1010.98 309.852C1010.1 303.818 1013.13 298.335 1015.81 294.662L1015.82 292.088Z" fill="#76B779"/>
    <path d="M1015.82 354.877C1009.05 365.795 1009 373.435 1010.13 378.341C1013.12 391.204 1026.44 394.586 1028.43 407.117C1029.67 414.86 1025.9 421.893 1022.75 426.431V429.612C1031.05 419.546 1031.86 412.226 1031.16 407.486C1029.35 395.193 1016.11 391.535 1012.94 377.603C1011.09 369.49 1013.6 362.01 1015.82 357.202L1015.82 354.877Z" fill="#76B779"/>
    <path d="M1015.82 431.54C1008.4 442.61 1008.31 450.201 1009.4 454.93C1012.39 467.941 1027.27 472.146 1027.7 484.296C1027.89 489.927 1024.89 494.552 1022.75 497.237L1022.75 499.561C1026.34 495.827 1030.01 490.629 1029.76 484.592C1029.27 472.672 1013.94 468.563 1011.09 454.856C1010.08 449.965 1010.53 443.248 1015.82 434.381V431.54Z" fill="#76B779"/>
    <path d="M1015.82 501.71C1012.2 505.779 1008.04 511.875 1008.73 518.754C1009.91 530.546 1024.14 533.781 1028.14 546.46C1029.93 552.144 1030.12 561.166 1021.39 575.016L1020.97 577.285C1032.6 561.775 1032.9 552.126 1030.91 546.128C1027.02 534.456 1012.63 531.24 1011.32 519.049C1010.67 513.035 1013.52 507.801 1015.82 504.514V501.71Z" fill="#76B779"/>
    <path d="M1013.28 579.796C1009.56 584.263 1006.96 589.556 1005.71 595.232C1003.78 604.436 1007.17 608.128 1004.05 616.335C1002.26 621.337 998.873 625.614 994.418 628.509C990.52 630.91 986.009 632.127 981.432 632.014C986.042 632.394 990.662 631.406 994.714 629.174C999.559 626.322 1003.26 621.875 1005.19 616.593C1008.15 608.792 1005.06 604.977 1007.15 595.343C1008.18 590.641 1010.06 586.164 1012.68 582.125L1013.28 579.796Z" fill="#76B779"/>
    <path d="M997.001 639.983C997.064 640.333 990.231 642.707 981.801 642.934C972.39 643.188 966.73 640.613 962.47 639.688C942.876 635.435 931.042 661.361 907.498 664.948C898.802 666.273 885.711 664.976 867.933 651.561L872.47 651.556C887.78 663.167 899.182 664.259 906.393 663.447C930.198 660.764 941.56 633.571 961.584 637.474C966.077 638.35 970.601 640.712 979.883 641.164C989.645 641.638 996.936 639.623 997.001 639.983Z" fill="#76B779"/>
    <path d="M859.281 644.664C846.215 639.293 824.975 632.842 800.917 637.437C768.848 643.563 757.616 664.379 727.649 667.652C715.114 669.021 695.5 667.736 669.584 651.59L674.313 651.588C685.418 658.133 703.568 666.516 724.992 664.553C755.92 661.72 767.454 639.729 798.925 633.453C812.761 630.694 834.433 630.178 864.262 644.667L859.281 644.664Z" fill="#76B779"/>
    <path d="M664.037 644.687C651.154 638.458 640.62 637.651 632.355 638.876C610.917 642.054 603.216 659.13 583.214 660.348C572.328 661.011 562.681 656.679 555.065 651.586L558.275 651.567C563.675 654.63 572.348 658.476 582.771 657.913C602.953 656.821 610.581 640.23 630.473 636.441C638.605 634.893 651.06 635.05 668.132 644.663L664.037 644.687Z" fill="#76B779"/>
    <path d="M549.273 644.651C527.307 632.848 512.883 633.741 503.748 636.773C488.389 641.872 482.538 654.827 465.564 656.917C455.012 658.215 445.881 654.611 440.071 651.584H443.613C450.165 654.716 457.453 655.987 464.678 655.256C482.171 653.136 488.125 638.533 502.641 633.066C511.819 629.609 527.077 628.802 552.323 644.651L549.273 644.651Z" fill="#76B779"/>
    <path d="M436.493 644.699C425.159 635.342 416.761 634.257 411.147 635.039C396.579 637.07 392.128 652.885 376.026 656.068C366.737 657.905 358.204 654.622 352.47 651.582L349.186 651.586C361.832 658.828 370.85 658.786 376.542 657.618C392.27 654.389 397.166 639.573 412.18 637.991C421.167 637.044 428.928 641.349 433.652 644.656L436.493 644.699Z" fill="#76B779"/>
    <path d="M343.431 644.659C338.235 642.101 329.583 638.814 319.691 640.37C302.42 643.088 297.038 658.105 281.064 660.569C274.988 661.506 265.331 660.943 252.012 651.579L255.498 651.583C261.237 655.047 270.054 659.071 280.068 657.747C296.509 655.573 301.906 640.871 318.473 638.046C324.612 637 333.915 637.306 346.475 644.657L343.431 644.659Z" fill="#76B779"/>
    <path d="M247.944 644.659C242.921 641.619 235.444 638.27 227.644 640.094C217.346 642.502 214.939 651.951 204.641 655.533C199.415 657.351 191.182 657.998 178.634 651.591L180.69 651.591C186.805 654.03 195.311 656.168 203.756 653.264C214.324 649.631 216.651 640.901 226.316 638.323C231.472 636.947 239.267 637.176 250.6 644.659H247.944Z" fill="#76B779"/>
    <path d="M175.127 644.655C166.239 639.155 160.08 639.112 156.054 640.149C146.567 642.594 143.858 652.346 133.808 653.984C129.396 654.556 124.916 653.717 121.011 651.586L118.41 651.588C125.345 655.862 130.57 656.207 134.25 655.533C144.054 653.738 146.739 644.014 156.829 641.754C162.921 640.389 168.708 642.419 172.988 644.655H175.127Z" fill="#76B779"/>
    <path d="M113.48 644.655C100.881 635.725 91.2151 634.611 84.6116 635.335C72.9819 636.61 67.4533 643.96 59.0089 641.91C50.9138 639.944 46.2258 630.817 43.6255 623.984L45.2295 625.576C47.9039 631.28 52.4118 638.401 59.5984 640.094C68.0881 642.094 73.6296 634.944 84.0212 633.269C91.1384 632.121 101.672 633.358 116.069 644.659L113.48 644.655Z" fill="#76B779"/>
    <path d="M45.3947 615.708C45.0881 611.126 43.8752 604.984 39.3444 600.729C31.9806 593.815 21.6087 597.29 17.4301 591.064C15.7766 588.6 14.7742 584.141 18.4904 575.414C18.6191 576.098 18.7477 576.782 18.8762 577.465C17.2405 581.599 15.9684 586.871 18.4262 590.621C22.4531 596.765 32.7686 593.143 40.156 599.475C43.5126 602.352 46.5172 607.5 46.7931 617.26C46.3269 616.743 45.8608 616.225 45.3947 615.708Z" fill="#76B779"/>
    <path d="M24.5267 568.625C30.1619 559.396 29.8582 553.748 28.498 550.279C25.3031 542.13 14.6376 541.809 12.2284 534.009C10.5306 528.513 13.9362 522.549 17.0604 518.385L17.0598 520.986C15.0042 524.117 12.5214 529.002 13.8886 533.788C16.1852 541.828 27.2138 542.118 30.4902 549.892C32.026 553.536 32.245 559.742 24.7701 570.615L24.5267 568.625Z" fill="#76B779"/>
    <path d="M23.9954 513.617C27.8757 508.27 32.3657 500.169 30.8776 491.398C28.5162 477.48 13.1498 473.942 9.8488 459.745C8.55186 454.166 8.79209 445.544 17.0541 433.163L17.0568 436.816C13.8066 442.419 10.3751 450.579 12.2284 459.246C15.3589 473.887 30.8829 477.417 33.3125 490.9C34.2915 496.333 33.3424 504.481 23.9963 515.83L23.9954 513.617Z" fill="#76B779"/>
    <path d="M23.9879 426.901C27.3632 419.487 31.1935 407.891 28.0553 395.533C22.9748 375.526 3.68727 369.495 3.33725 353.254C3.2183 347.736 5.24806 339.291 17.0604 328.665V331.654C12.0455 336.702 6.43255 344.146 6.53753 353.096C6.72924 369.433 25.7937 375.553 30.7853 394.5C32.8483 402.331 32.9074 413.871 24.0156 430.083C24.0063 429.022 23.9971 427.962 23.9879 426.901Z" fill="#76B779"/>
    <path d="M23.9904 324.704C33.2302 315.786 34.4585 308.487 34.4745 304.519C34.4838 302.232 34.1043 297.556 21.7466 278.953C12.536 265.087 9.34725 262.567 8.90797 256.485C8.33726 248.583 12.9182 241.727 17.0604 237.043V240.621C14.4345 244.232 11.4841 249.593 11.7856 255.932C12.1125 262.803 16.0476 266.351 23.4068 276.85C32.9914 290.523 37.7837 297.36 37.7948 304.519C37.8022 309.238 35.9793 317.228 23.9906 327.001L23.9904 324.704Z" fill="#76B779"/>
    <path d="M23.9829 231.693C32.8396 219.498 34.1486 209.883 33.7367 203.397C32.2585 180.113 6.81397 168.925 9.46146 148.722C10.3856 142.973 13.0399 137.642 17.0705 133.439C17.0637 134.7 17.0568 135.96 17.0501 137.22C14.3671 140.553 12.5691 144.509 11.8226 148.722C8.58694 168.77 34.9488 180.476 36.9095 202.806C37.5483 210.082 35.8002 220.798 23.9846 234.682L23.9829 231.693Z" fill="#76B779"/>
    <path d="M23.9916 129.261C32.5178 118.862 37.3702 105.938 37.7949 92.4977C38.0244 81.6521 35.3223 70.9457 29.9737 61.5079C36.3822 70.5913 39.9282 81.3835 40.1561 92.4977C40.4759 114.728 26.8922 129.321 23.9897 132.305L23.9916 129.261Z" fill="#76B779"/>
    <path d="M419.901 275.673C421.071 276.286 422.859 277.229 425.057 278.41C428.019 280.002 429.11 280.624 429.317 281.765C429.378 282.103 429.365 282.505 428.48 284.458C427.214 287.249 426.394 288.504 426.394 288.504C425.611 289.711 420.689 297.31 419.71 296.773C419.568 296.695 419.332 296.35 421.957 288.033C422.637 285.878 423.222 284.098 423.632 282.868C422.627 282.417 421.563 281.888 420.459 281.265C418.746 280.298 417.26 279.288 415.993 278.322L419.901 275.673V275.673Z" fill="#B23030"/>
    <path d="M370.233 275.846C369.063 276.459 367.274 277.402 365.077 278.583C362.115 280.175 361.023 280.796 360.817 281.938C360.756 282.276 360.769 282.678 361.654 284.63C362.92 287.422 363.74 288.677 363.74 288.677C364.522 289.884 369.444 297.483 370.424 296.946C370.566 296.868 370.802 296.523 368.176 288.206C367.496 286.051 366.911 284.271 366.502 283.041C367.506 282.59 368.571 282.06 369.675 281.438C371.388 280.471 372.873 279.461 374.14 278.495L370.233 275.846V275.846Z" fill="#B23030"/>
    <path d="M428.876 269.491C431.971 270.002 434.242 270.369 435.425 270.559C439.548 271.221 440.831 271.479 441.486 272.58C441.865 273.218 441.9 273.924 441.364 276.618C440.72 279.85 440.398 281.465 439.572 283.6C438.202 287.14 435.6 292.303 434.751 292.005C434.056 291.761 434.771 287.93 435.9 281.887C436.438 279.001 436.957 276.638 437.323 275.047C435.645 274.971 433.884 274.846 432.048 274.657C429.777 274.424 427.634 274.118 425.63 273.769L428.876 269.491H428.876Z" fill="#B23030"/>
    <path d="M359.743 269.355C356.648 269.866 354.377 270.232 353.194 270.422C349.07 271.085 347.787 271.343 347.133 272.444C346.754 273.082 346.718 273.788 347.255 276.482C347.898 279.713 348.22 281.329 349.046 283.464C350.416 287.003 353.019 292.166 353.867 291.869C354.562 291.625 353.847 287.794 352.719 281.751C352.18 278.865 351.661 276.501 351.295 274.911C352.973 274.835 354.735 274.71 356.57 274.521C358.841 274.288 360.984 273.982 362.989 273.633L359.743 269.355H359.743Z" fill="#B23030"/>
    <path d="M432.875 261.403C435.737 260.117 437.832 259.166 438.923 258.67C442.725 256.94 443.937 256.445 445.09 257.001C445.758 257.322 446.177 257.891 447.216 260.434C448.355 263.224 449.048 264.732 449.573 267.245C450.072 269.633 450.811 274.606 449.921 274.875C449.046 275.139 446.949 270.746 445.567 267.849C444.395 265.395 443.575 263.311 443.055 261.903C441.523 262.545 439.96 263.228 438.369 263.954C436.34 264.881 434.393 265.821 432.529 266.765C432.644 264.978 432.76 263.191 432.875 261.403V261.403Z" fill="#B23030"/>
    <path d="M355.691 261.495C352.83 260.209 350.734 259.257 349.644 258.761C345.841 257.032 344.629 256.537 343.477 257.093C342.809 257.414 342.39 257.983 341.351 260.526C340.211 263.315 339.519 264.824 338.994 267.337C338.495 269.725 337.755 274.698 338.645 274.967C339.52 275.231 341.617 270.838 343 267.941C344.171 265.487 344.992 263.403 345.512 261.995C347.044 262.637 348.607 263.32 350.198 264.046C352.226 264.973 354.173 265.913 356.038 266.857C355.922 265.07 355.807 263.283 355.691 261.495V261.495Z" fill="#B23030"/>
    <path d="M440.593 224.041C440.08 225.851 439.023 228.537 436.758 230.981C434.793 233.102 432.598 234.307 431.433 234.935C430.533 235.42 429.744 235.768 429.16 236.005L432.019 239.456C432.827 239.246 433.935 238.891 435.166 238.272C438.2 236.745 439.937 234.639 440.712 233.679C443.021 230.818 443.954 227.887 444.357 226.141L440.593 224.041V224.041Z" fill="#B23030"/>
    <path d="M347.995 222.449C348.508 224.259 349.565 226.946 351.83 229.39C353.795 231.511 355.99 232.716 357.155 233.344C358.055 233.829 358.843 234.176 359.428 234.413L356.569 237.864C355.761 237.654 354.653 237.3 353.421 236.68C350.388 235.153 348.651 233.048 347.876 232.088C345.566 229.226 344.634 226.296 344.23 224.549L347.995 222.449V222.449Z" fill="#C13838"/>
    <path d="M347.995 222.449C348.508 224.259 349.565 226.946 351.83 229.39C353.795 231.511 355.99 232.716 357.155 233.344C358.055 233.829 358.843 234.176 359.428 234.413L356.569 237.864C355.761 237.654 354.653 237.3 353.421 236.68C350.388 235.153 348.651 233.048 347.876 232.088C345.566 229.226 344.634 226.296 344.23 224.549L347.995 222.449V222.449Z" fill="#B23030"/>
    <path d="M319.994 214.665C320.726 216.261 324.273 224.003 332.56 226.235C338.698 227.889 343.879 225.561 346.234 224.503C348.754 223.37 354.199 220.922 356.826 215.053C360.145 207.64 356.517 200.242 355.413 197.989C351.582 190.175 344.642 186.919 342.462 186C342.103 189.168 341.474 192.818 340.386 196.791C339.49 200.06 338.442 202.969 337.385 205.491C334.761 204.751 331.733 203.701 328.484 202.188C324.888 200.514 321.888 198.675 319.482 196.987C318.863 198.661 316.208 206.403 319.994 214.665Z" fill="#C13838"/>
    <path d="M468.594 216.257C467.862 217.853 464.315 225.594 456.028 227.827C449.889 229.481 444.709 227.152 442.354 226.094C439.834 224.961 434.389 222.514 431.761 216.645C428.443 209.231 432.07 201.833 433.175 199.58C437.006 191.767 443.946 188.51 446.126 187.591C446.485 190.759 447.114 194.41 448.202 198.383C449.098 201.652 450.146 204.56 451.203 207.083C453.827 206.343 456.854 205.293 460.104 203.78C463.7 202.105 466.7 200.267 469.106 198.578C469.725 200.252 472.38 207.994 468.594 216.257L468.594 216.257Z" fill="#C13838"/>
    <path d="M468.594 216.257C468.594 216.257 468.269 216.981 467.89 217.693C465.938 221.354 463.459 223.628 463.459 223.629C462.928 224.116 459.968 226.774 456.028 227.827C454.384 228.266 452.797 228.365 452.636 228.374C452.309 228.393 451.3 228.442 449.981 228.318C449.655 228.288 448.264 228.149 446.364 227.614C445.874 227.476 444.431 227.054 442.354 226.094C440.285 225.138 437.582 223.889 435.154 221.496C434.029 220.387 433.342 219.406 433.116 219.074C432.484 218.147 432.052 217.296 431.761 216.645C433.358 218.331 436.938 221.646 442.563 223.262C449.644 225.295 455.505 223.353 457.784 222.562C463.598 220.545 467.304 217.016 469.1 215.032C468.973 215.365 468.806 215.782 468.594 216.257V216.257Z" fill="#B23030"/>
    <path d="M392.129 202.747C392.101 204.252 391.962 208.394 388.847 212.049C384.722 216.888 378.775 216.887 378.025 216.874C373.751 216.801 370.726 214.754 369.437 213.727C368.72 213.156 364.051 209.304 363.921 202.747C363.899 201.604 363.938 196.572 367.901 192.607C371.755 188.75 376.576 188.65 378.025 188.62C379.589 188.588 384.483 188.487 388.289 192.187C392.253 196.041 392.157 201.219 392.129 202.747V202.747Z" fill="#C13838"/>
    <path d="M397.807 202.353C397.835 203.857 397.974 207.999 401.089 211.654C405.214 216.494 411.161 216.492 411.911 216.479C416.185 216.406 419.21 214.359 420.499 213.332C421.216 212.761 425.885 208.909 426.015 202.353C426.038 201.21 425.998 196.177 422.035 192.212C418.181 188.356 413.36 188.256 411.911 188.226C410.347 188.193 405.454 188.092 401.647 191.792C397.683 195.647 397.779 200.824 397.807 202.353V202.353Z" fill="#C13838"/>
    <path d="M437.91 252.997C437.874 254.212 437.52 262.294 431.929 269.438C421.176 283.18 399.636 282.474 392.783 282.249C386.382 282.04 365.611 281.359 355.439 267.441C354.335 265.931 350.558 260.617 350.183 252.997C349.669 242.54 355.926 235.078 357.881 232.951C367.999 221.939 384.049 221.94 393.136 221.941C400.916 221.942 422.73 221.944 432.798 236.073C438.085 243.492 437.948 251.739 437.91 252.997V252.997Z" fill="#C13838"/>
    <path d="M376.2 216.307C376.346 217.633 376.421 219.224 376.302 221.014C376.163 223.098 375.798 224.893 375.405 226.327L381.186 226.302C380.787 224.856 380.417 223.152 380.184 221.225C379.961 219.379 379.909 217.703 379.942 216.252L376.2 216.307L376.2 216.307Z" fill="#C13838"/>
    <path d="M413.867 216.006C413.721 217.333 413.646 218.924 413.766 220.714C413.904 222.798 414.269 224.592 414.662 226.026L408.881 226.001C409.281 224.556 409.651 222.852 409.883 220.924C410.107 219.078 410.159 217.402 410.125 215.951L413.867 216.006L413.867 216.006Z" fill="#C13838"/>
    <path d="M437.91 252.997C437.869 254.413 437.532 262.23 431.929 269.438C424.942 278.427 414.484 280.4 408.821 281.469C403.439 282.485 398.588 282.378 392.784 282.249C392.286 282.239 386.64 282.098 381.286 281.218C378.454 280.752 375.82 280.098 374.5 279.708C373.755 279.488 372.862 279.208 372.862 279.208C371.805 278.876 370.72 278.518 370.211 278.339C367.902 277.525 366.726 276.849 366.121 276.451C366.093 276.433 365.819 276.242 365.818 276.24C368.331 277.019 371.971 277.919 376.443 278.23C379.306 278.43 381.483 278.317 383.052 278.23C383.603 278.2 390.323 277.801 396.411 276.132C411.254 272.064 420.43 262.285 420.43 262.285C429.855 252.241 432.139 240.744 432.798 236.073C434.213 238.09 438.164 244.274 437.91 252.997L437.91 252.997Z" fill="#B23030"/>
    <path d="M416.135 192.568C415.026 192.109 411.954 190.894 408.292 192.015C403.442 193.501 401.551 197.862 401.322 198.416C400.016 201.574 400.55 204.444 400.89 205.716C401.08 206.423 402.41 211.072 407.161 213.254C407.99 213.634 411.681 215.206 415.84 213.561C419.885 211.961 421.491 208.458 421.974 207.405C422.495 206.268 424.126 202.712 422.632 198.743C421.076 194.61 417.261 193.033 416.135 192.568Z" fill="white"/>
    <path d="M389.426 204.302C389.527 203.105 389.758 199.805 387.586 196.646C384.709 192.462 379.987 191.972 379.39 191.92C375.991 191.625 373.42 193.001 372.312 193.71C371.696 194.104 367.672 196.777 367.029 201.972C366.917 202.877 366.534 206.877 369.354 210.352C372.097 213.733 375.916 214.21 377.064 214.354C378.303 214.509 382.18 214.993 385.507 212.37C388.972 209.637 389.322 205.518 389.426 204.302Z" fill="white"/>
    <path d="M413.913 197.513C413.311 197.264 411.641 196.603 409.651 197.213C407.015 198.02 405.987 200.391 405.863 200.692C405.153 202.408 405.443 203.968 405.628 204.659C405.731 205.043 406.454 207.57 409.036 208.756C409.486 208.962 411.493 209.817 413.753 208.923C415.951 208.053 416.824 206.149 417.087 205.577C417.37 204.959 418.257 203.026 417.445 200.869C416.599 198.623 414.525 197.766 413.913 197.513V197.513Z" fill="#5E1111"/>
    <path d="M380.373 197.797C379.771 197.547 378.101 196.887 376.111 197.496C373.475 198.304 372.447 200.674 372.323 200.975C371.613 202.691 371.903 204.251 372.088 204.942C372.191 205.327 372.914 207.853 375.496 209.039C375.947 209.246 377.953 210.1 380.213 209.206C382.411 208.337 383.285 206.432 383.547 205.86C383.83 205.243 384.717 203.31 383.905 201.153C383.059 198.906 380.985 198.049 380.373 197.797V197.797Z" fill="#5E1111"/>
    <path d="M410.677 199.761C410.687 199.535 410.704 198.912 410.271 198.336C409.696 197.572 408.804 197.517 408.692 197.512C408.05 197.484 407.578 197.763 407.375 197.905C407.262 197.985 406.527 198.519 406.447 199.501C406.433 199.673 406.393 200.428 406.951 201.059C407.494 201.673 408.216 201.732 408.433 201.75C408.667 201.769 409.4 201.829 410.005 201.309C410.635 200.768 410.668 199.99 410.677 199.761H410.677Z" fill="white"/>
    <path d="M376.953 200.237C376.963 200.012 376.98 199.389 376.546 198.812C375.972 198.049 375.08 197.994 374.968 197.989C374.326 197.961 373.854 198.24 373.651 198.382C373.538 198.461 372.803 198.996 372.723 199.978C372.709 200.149 372.669 200.905 373.227 201.536C373.77 202.149 374.492 202.209 374.709 202.226C374.943 202.246 375.676 202.306 376.281 201.786C376.911 201.244 376.944 200.467 376.953 200.237H376.953Z" fill="white"/>
    <path d="M354.69 209.626L354.999 209.503C355.179 209.405 355.586 209.151 355.876 208.645C356.198 208.084 356.184 207.547 356.169 207.345C356.101 205.648 355.765 202.945 354.336 200.018C353.519 198.345 352.562 197.045 351.735 196.093C351.555 195.878 351.148 195.446 350.537 195.229C350.345 195.161 350.046 195.058 349.667 195.115C349.547 195.133 349.428 195.164 349.311 195.211L349.002 195.334C348.965 195.345 348.317 195.535 348.125 196.192C347.995 196.638 348.127 197.124 348.465 197.451C349.36 198.521 350.543 200.184 351.441 202.452C352.433 204.958 352.674 207.188 352.718 208.65C352.735 208.726 352.876 209.313 353.464 209.608C354.06 209.907 354.62 209.659 354.69 209.626L354.69 209.626Z" fill="#DB8282"/>
    <path d="M345.712 194.387C346.371 195.093 347.477 195.131 348.182 194.471C348.888 193.811 348.925 192.703 348.266 191.997L347.95 191.657C347.291 190.951 346.185 190.913 345.48 191.573C344.774 192.233 344.737 193.341 345.396 194.048L345.712 194.387Z" fill="#DB8282"/>
    <path d="M433.953 210.827L433.642 210.71C433.46 210.614 433.048 210.368 432.749 209.869C432.416 209.314 432.42 208.777 432.431 208.574C432.467 206.876 432.752 204.167 434.126 201.214C434.911 199.526 435.843 198.208 436.652 197.24C436.828 197.021 437.227 196.582 437.834 196.354C438.025 196.282 438.322 196.174 438.702 196.223C438.822 196.239 438.942 196.268 439.059 196.313L439.37 196.43C439.408 196.44 440.06 196.618 440.263 197.271C440.402 197.715 440.279 198.203 439.947 198.536C439.073 199.622 437.921 201.308 437.066 203.592C436.121 206.117 435.922 208.351 435.906 209.813C435.89 209.89 435.761 210.48 435.178 210.786C434.588 211.096 434.023 210.858 433.953 210.827V210.827Z" fill="#DB8282"/>
    <path d="M442.952 195.075C443.598 194.356 443.539 193.25 442.821 192.603C442.104 191.956 440.999 192.015 440.353 192.734L440.043 193.079C439.398 193.798 439.456 194.905 440.174 195.551C440.892 196.198 441.997 196.139 442.642 195.42L442.952 195.075Z" fill="#DB8282"/>
    <path d="M320.002 214.7C320.002 214.7 320.326 215.425 320.706 216.136C322.657 219.798 325.137 222.072 325.137 222.072C325.668 222.559 328.627 225.217 332.567 226.27C334.212 226.709 335.798 226.808 335.96 226.817C336.287 226.836 337.296 226.885 338.615 226.761C338.94 226.731 340.331 226.592 342.232 226.057C342.721 225.919 344.164 225.497 346.241 224.537C348.311 223.581 351.014 222.332 353.442 219.939C354.558 218.838 355.224 217.896 355.48 217.517C356.108 216.586 356.53 215.733 356.809 215.088C355.217 216.773 351.646 220.088 346.033 221.705C338.961 223.742 333.103 221.8 330.812 221.005C324.997 218.988 321.292 215.459 319.496 213.475C319.622 213.808 319.79 214.226 320.002 214.7L320.002 214.7Z" fill="#B23030"/>
    <path d="M382.165 231.516C382.298 231.377 387.226 238.993 394.046 238.89C400.701 238.788 405.299 231.394 405.418 231.516C405.54 231.64 401.243 239.825 393.944 239.907C386.536 239.99 382.032 231.656 382.165 231.516Z" fill="#5E1111"/>
    <path d="M672.489 275.673C673.658 276.286 675.447 277.229 677.645 278.41C680.607 280.002 681.698 280.624 681.905 281.765C681.966 282.103 681.953 282.505 681.067 284.458C679.801 287.249 678.982 288.504 678.981 288.504C678.199 289.711 673.277 297.31 672.298 296.773C672.156 296.695 671.92 296.35 674.545 288.033C675.225 285.878 675.81 284.098 676.22 282.868C675.215 282.417 674.151 281.888 673.047 281.265C671.334 280.298 669.848 279.288 668.581 278.322L672.489 275.673V275.673Z" fill="#B23030"/>
    <path d="M622.821 275.846C621.651 276.459 619.862 277.402 617.665 278.583C614.703 280.175 613.611 280.796 613.405 281.938C613.343 282.276 613.357 282.678 614.242 284.63C615.508 287.422 616.328 288.677 616.328 288.677C617.11 289.884 622.032 297.483 623.012 296.946C623.154 296.868 623.389 296.523 620.764 288.206C620.084 286.051 619.499 284.271 619.09 283.041C620.094 282.59 621.159 282.06 622.263 281.438C623.976 280.471 625.461 279.461 626.728 278.495L622.821 275.846V275.846Z" fill="#B23030"/>
    <path d="M681.464 269.491C684.559 270.002 686.83 270.369 688.012 270.559C692.136 271.221 693.419 271.479 694.074 272.58C694.453 273.218 694.488 273.924 693.952 276.618C693.308 279.85 692.986 281.465 692.16 283.6C690.79 287.14 688.188 292.303 687.339 292.005C686.644 291.761 687.359 287.93 688.487 281.887C689.026 279.001 689.545 276.638 689.911 275.047C688.233 274.971 686.472 274.846 684.636 274.657C682.365 274.424 680.222 274.118 678.217 273.769L681.464 269.491H681.464Z" fill="#B23030"/>
    <path d="M612.33 269.355C609.236 269.866 606.964 270.232 605.782 270.422C601.658 271.085 600.375 271.343 599.721 272.444C599.341 273.082 599.306 273.788 599.843 276.482C600.486 279.713 600.808 281.329 601.634 283.464C603.004 287.003 605.607 292.166 606.455 291.869C607.15 291.625 606.435 287.794 605.307 281.751C604.768 278.865 604.249 276.501 603.883 274.911C605.561 274.835 607.323 274.71 609.158 274.521C611.429 274.288 613.572 273.982 615.577 273.633L612.33 269.355H612.33Z" fill="#B23030"/>
    <path d="M685.463 261.403C688.325 260.117 690.42 259.166 691.511 258.67C695.313 256.94 696.525 256.445 697.678 257.001C698.346 257.322 698.765 257.891 699.803 260.434C700.943 263.224 701.636 264.732 702.161 267.245C702.66 269.633 703.399 274.606 702.509 274.875C701.634 275.139 699.537 270.746 698.154 267.849C696.983 265.395 696.162 263.311 695.642 261.903C694.11 262.545 692.547 263.228 690.957 263.954C688.928 264.881 686.981 265.821 685.117 266.765C685.232 264.978 685.348 263.191 685.463 261.403V261.403Z" fill="#B23030"/>
    <path d="M608.279 261.495C605.418 260.209 603.322 259.257 602.232 258.761C598.429 257.032 597.217 256.537 596.064 257.093C595.397 257.414 594.978 257.983 593.939 260.526C592.799 263.315 592.107 264.824 591.581 267.337C591.083 269.725 590.343 274.698 591.233 274.967C592.108 275.231 594.205 270.838 595.588 267.941C596.759 265.487 597.58 263.403 598.1 261.995C599.632 262.637 601.195 263.32 602.785 264.046C604.814 264.973 606.761 265.913 608.626 266.857C608.51 265.07 608.395 263.283 608.279 261.495V261.495Z" fill="#B23030"/>
    <path d="M693.181 224.041C692.668 225.851 691.611 228.537 689.346 230.981C687.381 233.102 685.186 234.307 684.02 234.935C683.121 235.42 682.332 235.768 681.748 236.005L684.607 239.456C685.415 239.246 686.523 238.891 687.754 238.272C690.788 236.745 692.525 234.639 693.3 233.679C695.609 230.818 696.542 227.887 696.945 226.141L693.181 224.041V224.041Z" fill="#B23030"/>
    <path d="M600.583 222.449C601.096 224.259 602.153 226.946 604.417 229.39C606.383 231.511 608.578 232.716 609.743 233.344C610.643 233.829 611.431 234.176 612.016 234.413L609.157 237.864C608.348 237.654 607.241 237.3 606.009 236.68C602.975 235.153 601.239 233.048 600.464 232.088C598.154 229.226 597.222 226.296 596.818 224.549L600.583 222.449V222.449Z" fill="#C13838"/>
    <path d="M600.583 222.449C601.096 224.259 602.153 226.946 604.417 229.39C606.383 231.511 608.578 232.716 609.743 233.344C610.643 233.829 611.431 234.176 612.016 234.413L609.157 237.864C608.348 237.654 607.241 237.3 606.009 236.68C602.975 235.153 601.239 233.048 600.464 232.088C598.154 229.226 597.222 226.296 596.818 224.549L600.583 222.449V222.449Z" fill="#B23030"/>
    <path d="M572.582 214.665C573.314 216.261 576.861 224.003 585.147 226.235C591.286 227.889 596.466 225.561 598.821 224.503C601.342 223.37 606.787 220.922 609.414 215.053C612.732 207.64 609.105 200.242 608.001 197.989C604.17 190.175 597.23 186.919 595.05 186C594.691 189.168 594.062 192.818 592.974 196.791C592.078 200.06 591.03 202.969 589.973 205.491C587.349 204.751 584.321 203.701 581.072 202.188C577.476 200.514 574.476 198.675 572.069 196.987C571.451 198.661 568.796 206.403 572.582 214.665Z" fill="#C13838"/>
    <path d="M721.181 216.257C720.45 217.853 716.903 225.594 708.616 227.827C702.477 229.481 697.297 227.152 694.942 226.094C692.422 224.961 686.977 222.514 684.349 216.645C681.031 209.231 684.658 201.833 685.763 199.58C689.594 191.767 696.534 188.51 698.714 187.591C699.073 190.759 699.702 194.41 700.79 198.383C701.685 201.652 702.733 204.56 703.791 207.083C706.415 206.343 709.442 205.293 712.692 203.78C716.288 202.105 719.288 200.267 721.694 198.578C722.313 200.252 724.968 207.994 721.181 216.257L721.181 216.257Z" fill="#C13838"/>
    <path d="M721.181 216.257C721.181 216.257 720.857 216.981 720.478 217.693C718.526 221.354 716.047 223.628 716.047 223.629C715.516 224.116 712.556 226.774 708.616 227.827C706.972 228.266 705.385 228.365 705.224 228.374C704.897 228.393 703.888 228.442 702.569 228.318C702.243 228.288 700.852 228.149 698.951 227.614C698.462 227.476 697.019 227.054 694.942 226.094C692.873 225.138 690.17 223.889 687.742 221.496C686.617 220.387 685.93 219.406 685.703 219.074C685.072 218.147 684.64 217.296 684.349 216.645C685.946 218.331 689.526 221.646 695.151 223.262C702.232 225.295 708.093 223.353 710.372 222.562C716.186 220.545 719.891 217.016 721.688 215.032C721.561 215.365 721.394 215.782 721.181 216.257V216.257Z" fill="#B23030"/>
    <path d="M644.717 202.747C644.689 204.252 644.55 208.394 641.435 212.049C637.31 216.888 631.363 216.887 630.613 216.874C626.339 216.801 623.314 214.754 622.025 213.727C621.308 213.156 616.639 209.304 616.509 202.747C616.486 201.604 616.526 196.572 620.489 192.607C624.343 188.75 629.164 188.65 630.613 188.62C632.177 188.588 637.07 188.487 640.877 192.187C644.841 196.041 644.745 201.219 644.717 202.747V202.747Z" fill="#C13838"/>
    <path d="M650.395 202.353C650.423 203.857 650.562 207.999 653.677 211.654C657.802 216.494 663.749 216.492 664.499 216.479C668.773 216.406 671.798 214.359 673.087 213.332C673.804 212.761 678.473 208.909 678.603 202.353C678.625 201.21 678.586 196.177 674.623 192.212C670.769 188.356 665.948 188.256 664.499 188.226C662.935 188.193 658.042 188.092 654.235 191.792C650.271 195.647 650.367 200.824 650.395 202.353V202.353Z" fill="#C13838"/>
    <path d="M690.498 252.997C690.461 254.212 690.108 262.294 684.517 269.438C673.763 283.18 652.224 282.474 645.371 282.249C638.97 282.04 618.199 281.359 608.027 267.441C606.923 265.931 603.146 260.617 602.771 252.997C602.257 242.54 608.514 235.078 610.469 232.951C620.587 221.939 636.637 221.94 645.724 221.941C653.504 221.942 675.317 221.944 685.386 236.073C690.673 243.492 690.536 251.739 690.498 252.997V252.997Z" fill="#C13838"/>
    <path d="M628.788 216.307C628.934 217.633 629.009 219.224 628.889 221.014C628.751 223.098 628.386 224.893 627.993 226.327L633.774 226.302C633.375 224.856 633.004 223.152 632.772 221.225C632.548 219.379 632.496 217.703 632.53 216.252L628.788 216.307L628.788 216.307Z" fill="#C13838"/>
    <path d="M666.455 216.006C666.309 217.333 666.234 218.924 666.353 220.714C666.492 222.798 666.857 224.592 667.25 226.026L661.469 226.001C661.868 224.556 662.238 222.852 662.471 220.924C662.694 219.078 662.746 217.402 662.713 215.951L666.455 216.006L666.455 216.006Z" fill="#C13838"/>
    <path d="M690.498 252.997C690.457 254.413 690.12 262.23 684.517 269.438C677.53 278.427 667.071 280.4 661.409 281.469C656.027 282.485 651.176 282.378 645.371 282.249C644.874 282.239 639.228 282.098 633.874 281.218C631.042 280.752 628.408 280.098 627.088 279.708C626.342 279.488 625.45 279.208 625.45 279.208C624.393 278.876 623.308 278.518 622.799 278.339C620.49 277.525 619.314 276.849 618.709 276.451C618.681 276.433 618.407 276.242 618.406 276.24C620.919 277.019 624.559 277.919 629.03 278.23C631.894 278.43 634.071 278.317 635.64 278.23C636.191 278.2 642.911 277.801 648.999 276.132C663.842 272.064 673.017 262.285 673.018 262.285C682.443 252.241 684.727 240.744 685.386 236.073C686.801 238.09 690.752 244.274 690.498 252.997L690.498 252.997Z" fill="#B23030"/>
    <path d="M668.723 192.568C667.614 192.109 664.542 190.894 660.88 192.015C656.03 193.501 654.139 197.862 653.91 198.416C652.604 201.574 653.138 204.444 653.478 205.716C653.668 206.423 654.998 211.072 659.749 213.254C660.577 213.634 664.269 215.206 668.427 213.561C672.472 211.961 674.079 208.458 674.562 207.405C675.083 206.268 676.714 202.712 675.22 198.743C673.664 194.61 669.849 193.033 668.723 192.568Z" fill="white"/>
    <path d="M642.013 204.302C642.115 203.105 642.346 199.805 640.174 196.646C637.297 192.462 632.575 191.972 631.978 191.92C628.579 191.625 626.008 193.001 624.9 193.71C624.284 194.104 620.26 196.777 619.617 201.972C619.504 202.877 619.122 206.877 621.942 210.352C624.684 213.733 628.504 214.21 629.652 214.354C630.891 214.509 634.768 214.993 638.095 212.37C641.56 209.637 641.91 205.518 642.013 204.302Z" fill="white"/>
    <path d="M666.501 197.513C665.899 197.264 664.229 196.603 662.239 197.213C659.603 198.02 658.575 200.391 658.451 200.692C657.741 202.408 658.031 203.968 658.216 204.659C658.319 205.043 659.042 207.57 661.624 208.756C662.074 208.962 664.081 209.817 666.341 208.923C668.539 208.053 669.412 206.149 669.675 205.577C669.958 204.959 670.844 203.026 670.032 200.869C669.187 198.623 667.113 197.766 666.501 197.513V197.513Z" fill="#5E1111"/>
    <path d="M632.961 197.797C632.359 197.547 630.689 196.887 628.699 197.496C626.063 198.304 625.035 200.674 624.911 200.975C624.201 202.691 624.491 204.251 624.676 204.942C624.779 205.327 625.502 207.853 628.084 209.039C628.534 209.246 630.541 210.1 632.801 209.206C634.999 208.337 635.872 206.432 636.135 205.86C636.418 205.243 637.304 203.31 636.492 201.153C635.647 198.906 633.573 198.049 632.961 197.797V197.797Z" fill="#5E1111"/>
    <path d="M663.265 199.761C663.275 199.535 663.292 198.912 662.858 198.336C662.284 197.572 661.392 197.517 661.28 197.512C660.638 197.484 660.165 197.763 659.963 197.905C659.85 197.985 659.115 198.519 659.035 199.501C659.021 199.673 658.981 200.428 659.539 201.059C660.082 201.673 660.804 201.732 661.021 201.75C661.255 201.769 661.988 201.829 662.593 201.309C663.223 200.768 663.256 199.99 663.265 199.761H663.265Z" fill="white"/>
    <path d="M629.541 200.237C629.551 200.012 629.568 199.389 629.134 198.812C628.56 198.049 627.668 197.994 627.555 197.989C626.914 197.961 626.441 198.24 626.239 198.382C626.126 198.461 625.39 198.996 625.311 199.978C625.297 200.149 625.257 200.905 625.815 201.536C626.358 202.149 627.08 202.209 627.297 202.226C627.531 202.246 628.264 202.306 628.869 201.786C629.498 201.244 629.531 200.467 629.541 200.237H629.541Z" fill="white"/>
    <path d="M607.278 209.626L607.587 209.503C607.767 209.405 608.174 209.151 608.464 208.645C608.786 208.084 608.772 207.547 608.757 207.345C608.689 205.648 608.353 202.945 606.924 200.018C606.106 198.345 605.15 197.045 604.323 196.093C604.143 195.878 603.736 195.446 603.125 195.229C602.932 195.161 602.634 195.058 602.255 195.115C602.135 195.133 602.016 195.164 601.899 195.211L601.59 195.334C601.553 195.345 600.904 195.535 600.713 196.192C600.583 196.638 600.715 197.124 601.053 197.451C601.947 198.521 603.131 200.184 604.029 202.452C605.021 204.958 605.262 207.188 605.306 208.65C605.323 208.726 605.464 209.313 606.052 209.608C606.648 209.907 607.208 209.659 607.278 209.626L607.278 209.626Z" fill="#DB8282"/>
    <path d="M598.3 194.387C598.959 195.093 600.065 195.131 600.77 194.471C601.475 193.811 601.513 192.703 600.854 191.997L600.538 191.657C599.879 190.951 598.773 190.913 598.068 191.573C597.362 192.233 597.324 193.341 597.983 194.048L598.3 194.387Z" fill="#DB8282"/>
    <path d="M686.541 210.827L686.23 210.71C686.047 210.614 685.636 210.368 685.337 209.869C685.004 209.314 685.008 208.777 685.019 208.574C685.055 206.876 685.34 204.167 686.714 201.214C687.499 199.526 688.431 198.208 689.24 197.24C689.416 197.021 689.815 196.582 690.422 196.354C690.613 196.282 690.909 196.174 691.29 196.223C691.41 196.239 691.529 196.268 691.647 196.313L691.958 196.43C691.996 196.44 692.648 196.618 692.851 197.271C692.99 197.715 692.867 198.203 692.535 198.536C691.661 199.622 690.509 201.308 689.654 203.592C688.709 206.117 688.51 208.351 688.494 209.813C688.478 209.89 688.349 210.48 687.766 210.786C687.176 211.096 686.611 210.858 686.541 210.827V210.827Z" fill="#DB8282"/>
    <path d="M695.54 195.075C696.185 194.356 696.127 193.25 695.409 192.603C694.692 191.956 693.586 192.015 692.941 192.734L692.631 193.079C691.986 193.798 692.044 194.905 692.762 195.551C693.479 196.198 694.585 196.139 695.23 195.42L695.54 195.075Z" fill="#DB8282"/>
    <path d="M572.59 214.7C572.59 214.7 572.914 215.425 573.294 216.136C575.245 219.798 577.724 222.072 577.724 222.072C578.255 222.559 581.215 225.217 585.155 226.27C586.8 226.709 588.386 226.808 588.548 226.817C588.875 226.836 589.884 226.885 591.202 226.761C591.528 226.731 592.919 226.592 594.82 226.057C595.309 225.919 596.752 225.497 598.829 224.537C600.898 223.581 603.602 222.332 606.03 219.939C607.146 218.838 607.812 217.896 608.068 217.517C608.696 216.586 609.118 215.733 609.397 215.088C607.805 216.773 604.234 220.088 598.621 221.705C591.549 223.742 585.691 221.8 583.4 221.005C577.585 218.988 573.88 215.459 572.083 213.475C572.21 213.808 572.378 214.226 572.59 214.7L572.59 214.7Z" fill="#B23030"/>
    <path d="M634.753 231.516C634.886 231.377 639.814 238.993 646.634 238.89C653.288 238.788 657.887 231.394 658.006 231.516C658.127 231.64 653.83 239.825 646.532 239.907C639.123 239.99 634.619 231.656 634.753 231.516Z" fill="#5E1111"/>
    <path d="M419.901 466.647C421.071 467.259 422.859 468.202 425.057 469.383C428.019 470.975 429.11 471.597 429.317 472.738C429.378 473.076 429.365 473.478 428.48 475.431C427.214 478.222 426.394 479.477 426.394 479.477C425.611 480.684 420.689 488.283 419.71 487.746C419.568 487.668 419.332 487.323 421.957 479.006C422.637 476.851 423.222 475.071 423.632 473.841C422.627 473.39 421.563 472.861 420.459 472.238C418.746 471.271 417.26 470.261 415.993 469.295L419.901 466.646V466.647Z" fill="#B23030"/>
    <path d="M370.233 466.819C369.063 467.432 367.274 468.375 365.077 469.556C362.115 471.148 361.023 471.769 360.817 472.911C360.756 473.249 360.769 473.651 361.654 475.603C362.92 478.395 363.74 479.65 363.74 479.65C364.522 480.857 369.444 488.456 370.424 487.919C370.566 487.841 370.802 487.496 368.176 479.179C367.496 477.024 366.911 475.244 366.502 474.014C367.506 473.563 368.571 473.033 369.675 472.411C371.388 471.444 372.873 470.434 374.14 469.468L370.233 466.819V466.819Z" fill="#B23030"/>
    <path d="M428.876 460.464C431.971 460.975 434.242 461.342 435.425 461.532C439.548 462.194 440.831 462.452 441.486 463.553C441.865 464.191 441.9 464.897 441.364 467.592C440.72 470.823 440.398 472.438 439.572 474.573C438.202 478.113 435.6 483.276 434.751 482.978C434.056 482.734 434.771 478.903 435.9 472.86C436.438 469.974 436.957 467.611 437.323 466.02C435.645 465.944 433.884 465.819 432.048 465.63C429.777 465.397 427.634 465.091 425.63 464.742L428.876 460.464H428.876Z" fill="#B23030"/>
    <path d="M359.743 460.328C356.648 460.839 354.377 461.205 353.194 461.395C349.07 462.058 347.787 462.316 347.133 463.417C346.754 464.055 346.718 464.761 347.255 467.455C347.898 470.686 348.22 472.302 349.046 474.437C350.416 477.976 353.019 483.139 353.867 482.842C354.562 482.598 353.847 478.767 352.719 472.724C352.18 469.838 351.661 467.474 351.295 465.884C352.973 465.808 354.735 465.683 356.57 465.494C358.841 465.261 360.984 464.955 362.989 464.606L359.743 460.328H359.743Z" fill="#B23030"/>
    <path d="M432.875 452.376C435.737 451.09 437.832 450.139 438.923 449.643C442.725 447.913 443.937 447.418 445.09 447.974C445.758 448.295 446.177 448.864 447.216 451.407C448.355 454.197 449.048 455.705 449.573 458.218C450.072 460.606 450.811 465.579 449.921 465.848C449.046 466.112 446.949 461.719 445.567 458.822C444.395 456.368 443.575 454.284 443.055 452.876C441.523 453.518 439.96 454.201 438.369 454.927C436.34 455.854 434.393 456.794 432.529 457.738C432.644 455.951 432.76 454.164 432.875 452.376V452.376Z" fill="#B23030"/>
    <path d="M355.691 452.468C352.83 451.182 350.734 450.23 349.644 449.734C345.841 448.005 344.629 447.51 343.477 448.066C342.809 448.387 342.39 448.956 341.351 451.499C340.211 454.289 339.519 455.797 338.994 458.31C338.495 460.698 337.755 465.671 338.645 465.94C339.52 466.204 341.617 461.811 343 458.914C344.171 456.46 344.992 454.376 345.512 452.968C347.044 453.61 348.607 454.293 350.198 455.019C352.226 455.946 354.173 456.886 356.038 457.83C355.922 456.043 355.807 454.256 355.691 452.468V452.468Z" fill="#B23030"/>
    <path d="M440.593 415.014C440.08 416.824 439.023 419.51 436.758 421.954C434.793 424.075 432.598 425.28 431.433 425.908C430.533 426.393 429.744 426.741 429.16 426.978L432.019 430.429C432.827 430.219 433.935 429.864 435.166 429.245C438.2 427.718 439.937 425.612 440.712 424.652C443.021 421.791 443.954 418.86 444.357 417.114L440.593 415.014V415.014Z" fill="#B23030"/>
    <path d="M347.995 413.422C348.508 415.232 349.565 417.919 351.83 420.363C353.795 422.484 355.99 423.689 357.155 424.317C358.055 424.802 358.843 425.149 359.428 425.386L356.569 428.837C355.761 428.627 354.653 428.273 353.421 427.653C350.388 426.126 348.651 424.021 347.876 423.061C345.566 420.2 344.634 417.269 344.23 415.522L347.995 413.422V413.422Z" fill="#C13838"/>
    <path d="M347.995 413.422C348.508 415.232 349.565 417.919 351.83 420.363C353.795 422.484 355.99 423.689 357.155 424.317C358.055 424.802 358.843 425.149 359.428 425.386L356.569 428.837C355.761 428.627 354.653 428.273 353.421 427.653C350.388 426.126 348.651 424.021 347.876 423.061C345.566 420.2 344.634 417.269 344.23 415.522L347.995 413.422V413.422Z" fill="#B23030"/>
    <path d="M319.994 405.638C320.726 407.234 324.273 414.976 332.56 417.208C338.698 418.862 343.879 416.534 346.234 415.476C348.754 414.343 354.199 411.895 356.826 406.026C360.145 398.613 356.517 391.215 355.413 388.962C351.582 381.148 344.642 377.892 342.462 376.973C342.103 380.141 341.474 383.791 340.386 387.764C339.49 391.033 338.442 393.942 337.385 396.464C334.761 395.724 331.733 394.674 328.484 393.161C324.888 391.487 321.888 389.648 319.482 387.96C318.863 389.634 316.208 397.376 319.994 405.638Z" fill="#C13838"/>
    <path d="M468.594 407.23C467.862 408.826 464.315 416.567 456.028 418.8C449.889 420.454 444.709 418.125 442.354 417.067C439.834 415.934 434.389 413.487 431.761 407.618C428.443 400.204 432.07 392.806 433.175 390.553C437.006 382.74 443.946 379.483 446.126 378.564C446.485 381.732 447.114 385.383 448.202 389.356C449.098 392.625 450.146 395.533 451.203 398.056C453.827 397.316 456.854 396.266 460.104 394.753C463.7 393.078 466.7 391.24 469.106 389.551C469.725 391.225 472.38 398.967 468.594 407.23L468.594 407.23Z" fill="#C13838"/>
    <path d="M468.594 407.23C468.594 407.23 468.269 407.954 467.89 408.666C465.938 412.327 463.459 414.601 463.459 414.602C462.928 415.089 459.968 417.747 456.028 418.8C454.384 419.239 452.797 419.338 452.636 419.347C452.309 419.366 451.3 419.415 449.981 419.291C449.655 419.261 448.264 419.122 446.364 418.587C445.874 418.449 444.431 418.027 442.354 417.067C440.285 416.111 437.582 414.862 435.154 412.469C434.029 411.36 433.342 410.38 433.116 410.047C432.484 409.12 432.052 408.269 431.761 407.618C433.358 409.304 436.938 412.619 442.563 414.235C449.644 416.268 455.505 414.326 457.784 413.535C463.598 411.518 467.304 407.989 469.1 406.005C468.973 406.338 468.806 406.756 468.594 407.23V407.23Z" fill="#B23030"/>
    <path d="M392.129 393.72C392.101 395.225 391.962 399.367 388.847 403.022C384.722 407.861 378.775 407.86 378.025 407.847C373.751 407.774 370.726 405.727 369.437 404.7C368.72 404.129 364.051 400.277 363.921 393.72C363.899 392.577 363.938 387.545 367.901 383.58C371.755 379.723 376.576 379.623 378.025 379.593C379.589 379.561 384.483 379.46 388.289 383.16C392.253 387.014 392.157 392.192 392.129 393.72V393.72Z" fill="#C13838"/>
    <path d="M397.807 393.326C397.835 394.83 397.974 398.972 401.089 402.627C405.214 407.467 411.161 407.465 411.911 407.452C416.185 407.38 419.21 405.332 420.499 404.305C421.216 403.734 425.885 399.882 426.015 393.326C426.038 392.183 425.998 387.15 422.035 383.185C418.181 379.329 413.36 379.229 411.911 379.199C410.347 379.166 405.454 379.065 401.647 382.765C397.683 386.62 397.779 391.797 397.807 393.326V393.326Z" fill="#C13838"/>
    <path d="M437.91 443.97C437.874 445.185 437.52 453.267 431.929 460.411C421.176 474.153 399.636 473.447 392.783 473.222C386.382 473.013 365.611 472.332 355.439 458.414C354.335 456.904 350.558 451.59 350.183 443.97C349.669 433.513 355.926 426.051 357.881 423.924C367.999 412.912 384.049 412.913 393.136 412.914C400.916 412.915 422.73 412.917 432.798 427.046C438.085 434.465 437.948 442.712 437.91 443.97V443.97Z" fill="#C13838"/>
    <path d="M376.2 407.28C376.346 408.606 376.421 410.197 376.302 411.987C376.163 414.071 375.798 415.866 375.405 417.3L381.186 417.275C380.787 415.83 380.417 414.125 380.184 412.198C379.961 410.352 379.909 408.676 379.942 407.225L376.2 407.28L376.2 407.28Z" fill="#C13838"/>
    <path d="M413.867 406.979C413.721 408.306 413.646 409.897 413.766 411.687C413.904 413.771 414.269 415.565 414.662 416.999L408.881 416.974C409.281 415.529 409.651 413.825 409.883 411.897C410.107 410.051 410.159 408.375 410.125 406.924L413.867 406.979L413.867 406.979Z" fill="#C13838"/>
    <path d="M437.91 443.97C437.869 445.386 437.532 453.203 431.929 460.411C424.942 469.4 414.484 471.373 408.821 472.442C403.439 473.458 398.588 473.351 392.784 473.223C392.286 473.212 386.64 473.071 381.286 472.191C378.454 471.725 375.82 471.071 374.5 470.681C373.755 470.461 372.862 470.181 372.862 470.181C371.805 469.849 370.72 469.491 370.211 469.312C367.902 468.498 366.726 467.822 366.121 467.424C366.093 467.406 365.819 467.215 365.818 467.213C368.331 467.992 371.971 468.892 376.443 469.203C379.306 469.403 381.483 469.29 383.052 469.203C383.603 469.173 390.323 468.774 396.411 467.105C411.254 463.037 420.43 453.258 420.43 453.258C429.855 443.214 432.139 431.717 432.798 427.047C434.213 429.063 438.164 435.247 437.91 443.97L437.91 443.97Z" fill="#B23030"/>
    <path d="M416.135 383.541C415.026 383.082 411.954 381.867 408.292 382.988C403.442 384.474 401.551 388.835 401.322 389.389C400.016 392.547 400.55 395.417 400.89 396.689C401.08 397.396 402.41 402.045 407.161 404.226C407.99 404.607 411.681 406.179 415.84 404.534C419.885 402.934 421.491 399.431 421.974 398.378C422.495 397.241 424.126 393.685 422.632 389.716C421.076 385.583 417.261 384.006 416.135 383.541Z" fill="white"/>
    <path d="M389.426 395.275C389.527 394.078 389.758 390.778 387.586 387.619C384.709 383.435 379.987 382.945 379.39 382.893C375.991 382.598 373.42 383.974 372.312 384.683C371.696 385.077 367.672 387.75 367.029 392.945C366.917 393.85 366.534 397.85 369.354 401.325C372.097 404.706 375.916 405.183 377.064 405.327C378.303 405.482 382.18 405.966 385.507 403.343C388.972 400.61 389.322 396.491 389.426 395.275Z" fill="white"/>
    <path d="M413.913 388.486C413.311 388.237 411.641 387.576 409.651 388.186C407.015 388.993 405.987 391.364 405.863 391.665C405.153 393.381 405.443 394.941 405.628 395.632C405.731 396.016 406.454 398.543 409.036 399.729C409.486 399.935 411.493 400.79 413.753 399.896C415.951 399.026 416.824 397.122 417.087 396.55C417.37 395.932 418.257 393.999 417.445 391.842C416.599 389.596 414.525 388.739 413.913 388.486V388.486Z" fill="#5E1111"/>
    <path d="M380.373 388.769C379.771 388.52 378.101 387.86 376.111 388.469C373.475 389.276 372.447 391.647 372.323 391.948C371.613 393.664 371.903 395.224 372.088 395.915C372.191 396.3 372.914 398.826 375.496 400.012C375.947 400.219 377.953 401.073 380.213 400.179C382.411 399.31 383.285 397.405 383.547 396.833C383.83 396.215 384.717 394.283 383.905 392.126C383.059 389.879 380.985 389.022 380.373 388.769V388.769Z" fill="#5E1111"/>
    <path d="M410.677 390.734C410.687 390.508 410.704 389.885 410.271 389.309C409.696 388.545 408.804 388.491 408.692 388.486C408.05 388.457 407.578 388.736 407.375 388.879C407.262 388.958 406.527 389.492 406.447 390.475C406.433 390.646 406.393 391.401 406.951 392.032C407.494 392.646 408.216 392.705 408.433 392.723C408.667 392.742 409.4 392.802 410.005 392.282C410.635 391.741 410.668 390.963 410.677 390.734H410.677Z" fill="white"/>
    <path d="M376.953 391.21C376.963 390.985 376.98 390.362 376.546 389.785C375.972 389.022 375.08 388.967 374.968 388.962C374.326 388.934 373.854 389.213 373.651 389.355C373.538 389.434 372.803 389.969 372.723 390.951C372.709 391.122 372.669 391.878 373.227 392.509C373.77 393.122 374.492 393.182 374.709 393.199C374.943 393.219 375.676 393.279 376.281 392.759C376.911 392.217 376.944 391.44 376.953 391.21H376.953Z" fill="white"/>
    <path d="M354.69 400.6L354.999 400.476C355.179 400.378 355.586 400.124 355.876 399.618C356.198 399.057 356.184 398.52 356.169 398.318C356.101 396.621 355.765 393.918 354.336 390.991C353.519 389.318 352.562 388.018 351.735 387.066C351.555 386.851 351.148 386.419 350.537 386.202C350.345 386.134 350.046 386.031 349.667 386.088C349.547 386.106 349.428 386.138 349.311 386.184L349.002 386.308C348.965 386.318 348.317 386.508 348.125 387.165C347.995 387.611 348.127 388.097 348.465 388.424C349.36 389.494 350.543 391.157 351.441 393.425C352.433 395.931 352.674 398.161 352.718 399.623C352.735 399.699 352.876 400.286 353.464 400.581C354.06 400.88 354.62 400.632 354.69 400.6L354.69 400.6Z" fill="#DB8282"/>
    <path d="M345.712 385.36C346.371 386.066 347.477 386.104 348.182 385.444C348.888 384.784 348.925 383.676 348.266 382.97L347.95 382.631C347.291 381.924 346.185 381.886 345.48 382.546C344.774 383.206 344.737 384.314 345.396 385.021L345.712 385.36Z" fill="#DB8282"/>
    <path d="M433.953 401.8L433.642 401.683C433.46 401.588 433.048 401.341 432.749 400.842C432.416 400.287 432.42 399.75 432.431 399.547C432.467 397.849 432.752 395.14 434.126 392.187C434.911 390.499 435.843 389.181 436.652 388.213C436.828 387.994 437.227 387.555 437.834 387.327C438.025 387.255 438.322 387.147 438.702 387.196C438.822 387.212 438.942 387.241 439.059 387.286L439.37 387.403C439.408 387.413 440.06 387.591 440.263 388.244C440.402 388.688 440.279 389.176 439.947 389.509C439.073 390.595 437.921 392.281 437.066 394.565C436.121 397.09 435.922 399.324 435.906 400.786C435.89 400.863 435.761 401.453 435.178 401.759C434.588 402.069 434.023 401.831 433.953 401.8V401.8Z" fill="#DB8282"/>
    <path d="M442.952 386.048C443.598 385.329 443.539 384.222 442.821 383.576C442.104 382.929 440.999 382.988 440.353 383.707L440.043 384.052C439.398 384.771 439.456 385.878 440.174 386.524C440.892 387.171 441.997 387.112 442.642 386.393L442.952 386.048Z" fill="#DB8282"/>
    <path d="M320.002 405.673C320.002 405.673 320.326 406.398 320.706 407.109C322.657 410.771 325.137 413.045 325.137 413.045C325.668 413.532 328.627 416.19 332.567 417.243C334.212 417.682 335.798 417.781 335.96 417.79C336.287 417.809 337.296 417.858 338.615 417.734C338.94 417.704 340.331 417.565 342.232 417.03C342.721 416.892 344.164 416.47 346.241 415.51C348.311 414.554 351.014 413.305 353.442 410.912C354.558 409.811 355.224 408.869 355.48 408.49C356.108 407.559 356.53 406.706 356.809 406.061C355.217 407.746 351.646 411.061 346.033 412.678C338.961 414.715 333.103 412.773 330.812 411.978C324.997 409.961 321.292 406.432 319.496 404.448C319.622 404.781 319.79 405.199 320.002 405.673L320.002 405.673Z" fill="#B23030"/>
    <path d="M382.165 422.489C382.298 422.35 387.226 429.966 394.046 429.863C400.701 429.761 405.299 422.367 405.418 422.489C405.54 422.613 401.243 430.798 393.944 430.88C386.536 430.963 382.032 422.629 382.165 422.489Z" fill="#5E1111"/>
    <path d="M672.489 466.647C673.658 467.259 675.447 468.202 677.645 469.383C680.607 470.975 681.698 471.597 681.905 472.738C681.966 473.076 681.953 473.478 681.067 475.431C679.801 478.222 678.982 479.477 678.981 479.477C678.199 480.684 673.277 488.283 672.298 487.746C672.156 487.668 671.92 487.323 674.545 479.006C675.225 476.851 675.81 475.071 676.22 473.841C675.215 473.39 674.151 472.861 673.047 472.238C671.334 471.271 669.848 470.261 668.581 469.295L672.489 466.646V466.647Z" fill="#B23030"/>
    <path d="M622.821 466.819C621.651 467.432 619.862 468.375 617.665 469.556C614.703 471.148 613.611 471.769 613.405 472.911C613.343 473.249 613.357 473.651 614.242 475.603C615.508 478.395 616.328 479.65 616.328 479.65C617.11 480.857 622.032 488.456 623.012 487.919C623.154 487.841 623.389 487.496 620.764 479.179C620.084 477.024 619.499 475.244 619.09 474.014C620.094 473.563 621.159 473.033 622.263 472.411C623.976 471.444 625.461 470.434 626.728 469.468L622.821 466.819V466.819Z" fill="#B23030"/>
    <path d="M681.464 460.464C684.559 460.975 686.83 461.342 688.012 461.532C692.136 462.194 693.419 462.452 694.074 463.553C694.453 464.191 694.488 464.897 693.952 467.592C693.308 470.823 692.986 472.438 692.16 474.573C690.79 478.113 688.188 483.276 687.339 482.978C686.644 482.734 687.359 478.903 688.487 472.86C689.026 469.974 689.545 467.611 689.911 466.02C688.233 465.944 686.472 465.819 684.636 465.63C682.365 465.397 680.222 465.091 678.217 464.742L681.464 460.464H681.464Z" fill="#B23030"/>
    <path d="M612.33 460.328C609.236 460.839 606.964 461.205 605.782 461.395C601.658 462.058 600.375 462.316 599.721 463.417C599.341 464.055 599.306 464.761 599.843 467.455C600.486 470.686 600.808 472.302 601.634 474.437C603.004 477.976 605.607 483.139 606.455 482.842C607.15 482.598 606.435 478.767 605.307 472.724C604.768 469.838 604.249 467.474 603.883 465.884C605.561 465.808 607.323 465.683 609.158 465.494C611.429 465.261 613.572 464.955 615.577 464.606L612.33 460.328H612.33Z" fill="#B23030"/>
    <path d="M685.463 452.376C688.325 451.09 690.42 450.139 691.511 449.643C695.313 447.913 696.525 447.418 697.678 447.974C698.346 448.295 698.765 448.864 699.803 451.407C700.943 454.197 701.636 455.705 702.161 458.218C702.66 460.606 703.399 465.579 702.509 465.848C701.634 466.112 699.537 461.719 698.154 458.822C696.983 456.368 696.162 454.284 695.642 452.876C694.11 453.518 692.547 454.201 690.957 454.927C688.928 455.854 686.981 456.794 685.117 457.738C685.232 455.951 685.348 454.164 685.463 452.376V452.376Z" fill="#B23030"/>
    <path d="M608.279 452.468C605.418 451.182 603.322 450.23 602.232 449.734C598.429 448.005 597.217 447.51 596.064 448.066C595.397 448.387 594.978 448.956 593.939 451.499C592.799 454.289 592.107 455.797 591.581 458.31C591.083 460.698 590.343 465.671 591.233 465.94C592.108 466.204 594.205 461.811 595.588 458.914C596.759 456.46 597.58 454.376 598.1 452.968C599.632 453.61 601.195 454.293 602.785 455.019C604.814 455.946 606.761 456.886 608.626 457.83C608.51 456.043 608.395 454.256 608.279 452.468V452.468Z" fill="#B23030"/>
    <path d="M693.181 415.014C692.668 416.824 691.611 419.51 689.346 421.954C687.381 424.075 685.186 425.28 684.02 425.908C683.121 426.393 682.332 426.741 681.748 426.978L684.607 430.429C685.415 430.219 686.523 429.864 687.754 429.245C690.788 427.718 692.525 425.612 693.3 424.652C695.609 421.791 696.542 418.86 696.945 417.114L693.181 415.014V415.014Z" fill="#B23030"/>
    <path d="M600.583 413.422C601.096 415.232 602.153 417.919 604.417 420.363C606.383 422.484 608.578 423.689 609.743 424.317C610.643 424.802 611.431 425.149 612.016 425.386L609.157 428.837C608.348 428.627 607.241 428.273 606.009 427.653C602.975 426.126 601.239 424.021 600.464 423.061C598.154 420.2 597.222 417.269 596.818 415.522L600.583 413.422V413.422Z" fill="#C13838"/>
    <path d="M600.583 413.422C601.096 415.232 602.153 417.919 604.417 420.363C606.383 422.484 608.578 423.689 609.743 424.317C610.643 424.802 611.431 425.149 612.016 425.386L609.157 428.837C608.348 428.627 607.241 428.273 606.009 427.653C602.975 426.126 601.239 424.021 600.464 423.061C598.154 420.2 597.222 417.269 596.818 415.522L600.583 413.422V413.422Z" fill="#B23030"/>
    <path d="M572.582 405.638C573.314 407.234 576.861 414.976 585.147 417.208C591.286 418.862 596.466 416.534 598.821 415.476C601.342 414.343 606.787 411.895 609.414 406.026C612.732 398.613 609.105 391.215 608.001 388.962C604.17 381.148 597.23 377.892 595.05 376.973C594.691 380.141 594.062 383.791 592.974 387.764C592.078 391.033 591.03 393.942 589.973 396.464C587.349 395.724 584.321 394.674 581.072 393.161C577.476 391.487 574.476 389.648 572.069 387.96C571.451 389.634 568.796 397.376 572.582 405.638Z" fill="#C13838"/>
    <path d="M721.181 407.23C720.45 408.826 716.903 416.567 708.616 418.8C702.477 420.454 697.297 418.125 694.942 417.067C692.422 415.934 686.977 413.487 684.349 407.618C681.031 400.204 684.658 392.806 685.763 390.553C689.594 382.74 696.534 379.483 698.714 378.564C699.073 381.732 699.702 385.383 700.79 389.356C701.685 392.625 702.733 395.533 703.791 398.056C706.415 397.316 709.442 396.266 712.692 394.753C716.288 393.078 719.288 391.24 721.694 389.551C722.313 391.225 724.968 398.967 721.181 407.23L721.181 407.23Z" fill="#C13838"/>
    <path d="M721.181 407.23C721.181 407.23 720.857 407.954 720.478 408.666C718.526 412.327 716.047 414.601 716.047 414.602C715.516 415.089 712.556 417.747 708.616 418.8C706.972 419.239 705.385 419.338 705.224 419.347C704.897 419.366 703.888 419.415 702.569 419.291C702.243 419.261 700.852 419.122 698.951 418.587C698.462 418.449 697.019 418.027 694.942 417.067C692.873 416.111 690.17 414.862 687.742 412.469C686.617 411.36 685.93 410.38 685.703 410.047C685.072 409.12 684.64 408.269 684.349 407.618C685.946 409.304 689.526 412.619 695.151 414.235C702.232 416.268 708.093 414.326 710.372 413.535C716.186 411.518 719.891 407.989 721.688 406.005C721.561 406.338 721.394 406.756 721.181 407.23V407.23Z" fill="#B23030"/>
    <path d="M644.717 393.72C644.689 395.225 644.55 399.367 641.435 403.022C637.31 407.861 631.363 407.86 630.613 407.847C626.339 407.774 623.314 405.727 622.025 404.7C621.308 404.129 616.639 400.277 616.509 393.72C616.486 392.577 616.526 387.545 620.489 383.58C624.343 379.723 629.164 379.623 630.613 379.593C632.177 379.561 637.07 379.46 640.877 383.16C644.841 387.014 644.745 392.192 644.717 393.72V393.72Z" fill="#C13838"/>
    <path d="M650.395 393.326C650.423 394.83 650.562 398.972 653.677 402.627C657.802 407.467 663.749 407.465 664.499 407.452C668.773 407.38 671.798 405.332 673.087 404.305C673.804 403.734 678.473 399.882 678.603 393.326C678.625 392.183 678.586 387.15 674.623 383.185C670.769 379.329 665.948 379.229 664.499 379.199C662.935 379.166 658.042 379.065 654.235 382.765C650.271 386.62 650.367 391.797 650.395 393.326V393.326Z" fill="#C13838"/>
    <path d="M690.498 443.97C690.461 445.185 690.108 453.267 684.517 460.411C673.763 474.153 652.224 473.447 645.371 473.222C638.97 473.013 618.199 472.332 608.027 458.414C606.923 456.904 603.146 451.59 602.771 443.97C602.257 433.513 608.514 426.051 610.469 423.924C620.587 412.912 636.637 412.913 645.724 412.914C653.504 412.915 675.317 412.917 685.386 427.046C690.673 434.465 690.536 442.712 690.498 443.97V443.97Z" fill="#C13838"/>
    <path d="M628.788 407.28C628.934 408.606 629.009 410.197 628.889 411.987C628.751 414.071 628.386 415.866 627.993 417.3L633.774 417.275C633.375 415.83 633.004 414.125 632.772 412.198C632.548 410.352 632.496 408.676 632.53 407.225L628.788 407.28L628.788 407.28Z" fill="#C13838"/>
    <path d="M666.455 406.979C666.309 408.306 666.234 409.897 666.353 411.687C666.492 413.771 666.857 415.565 667.25 416.999L661.469 416.974C661.868 415.529 662.238 413.825 662.471 411.897C662.694 410.051 662.746 408.375 662.713 406.924L666.455 406.979L666.455 406.979Z" fill="#C13838"/>
    <path d="M690.498 443.97C690.457 445.386 690.12 453.203 684.517 460.411C677.53 469.4 667.071 471.373 661.409 472.442C656.027 473.458 651.176 473.351 645.371 473.223C644.874 473.212 639.228 473.071 633.874 472.191C631.042 471.725 628.408 471.071 627.088 470.681C626.342 470.461 625.45 470.181 625.45 470.181C624.393 469.849 623.308 469.491 622.799 469.312C620.49 468.498 619.314 467.822 618.709 467.424C618.681 467.406 618.407 467.215 618.406 467.213C620.919 467.992 624.559 468.892 629.03 469.203C631.894 469.403 634.071 469.29 635.64 469.203C636.191 469.173 642.911 468.774 648.999 467.105C663.842 463.037 673.017 453.258 673.018 453.258C682.443 443.214 684.727 431.717 685.386 427.047C686.801 429.063 690.752 435.247 690.498 443.97L690.498 443.97Z" fill="#B23030"/>
    <path d="M668.723 383.541C667.614 383.082 664.542 381.867 660.88 382.988C656.03 384.474 654.139 388.835 653.91 389.389C652.604 392.547 653.138 395.417 653.478 396.689C653.668 397.396 654.998 402.045 659.749 404.226C660.577 404.607 664.269 406.179 668.427 404.534C672.472 402.934 674.079 399.431 674.562 398.378C675.083 397.241 676.714 393.685 675.22 389.716C673.664 385.583 669.849 384.006 668.723 383.541Z" fill="white"/>
    <path d="M642.013 395.275C642.115 394.078 642.346 390.778 640.174 387.619C637.297 383.435 632.575 382.945 631.978 382.893C628.579 382.598 626.008 383.974 624.9 384.683C624.284 385.077 620.26 387.75 619.617 392.945C619.504 393.85 619.122 397.85 621.942 401.325C624.684 404.706 628.504 405.183 629.652 405.327C630.891 405.482 634.768 405.966 638.095 403.343C641.56 400.61 641.91 396.491 642.013 395.275Z" fill="white"/>
    <path d="M666.501 388.486C665.899 388.237 664.229 387.576 662.239 388.186C659.603 388.993 658.575 391.364 658.451 391.665C657.741 393.381 658.031 394.941 658.216 395.632C658.319 396.016 659.042 398.543 661.624 399.729C662.074 399.935 664.081 400.79 666.341 399.896C668.539 399.026 669.412 397.122 669.675 396.55C669.958 395.932 670.844 393.999 670.032 391.842C669.187 389.596 667.113 388.739 666.501 388.486V388.486Z" fill="#5E1111"/>
    <path d="M632.961 388.769C632.359 388.52 630.689 387.86 628.699 388.469C626.063 389.276 625.035 391.647 624.911 391.948C624.201 393.664 624.491 395.224 624.676 395.915C624.779 396.3 625.502 398.826 628.084 400.012C628.534 400.219 630.541 401.073 632.801 400.179C634.999 399.31 635.872 397.405 636.135 396.833C636.418 396.215 637.304 394.283 636.492 392.126C635.647 389.879 633.573 389.022 632.961 388.769V388.769Z" fill="#5E1111"/>
    <path d="M663.265 390.734C663.275 390.508 663.292 389.885 662.858 389.309C662.284 388.545 661.392 388.491 661.28 388.486C660.638 388.457 660.165 388.736 659.963 388.879C659.85 388.958 659.115 389.492 659.035 390.475C659.021 390.646 658.981 391.401 659.539 392.032C660.082 392.646 660.804 392.705 661.021 392.723C661.255 392.742 661.988 392.802 662.593 392.282C663.223 391.741 663.256 390.963 663.265 390.734H663.265Z" fill="white"/>
    <path d="M629.541 391.21C629.551 390.985 629.568 390.362 629.134 389.785C628.56 389.022 627.668 388.967 627.555 388.962C626.914 388.934 626.441 389.213 626.239 389.355C626.126 389.434 625.39 389.969 625.311 390.951C625.297 391.122 625.257 391.878 625.815 392.509C626.358 393.122 627.08 393.182 627.297 393.199C627.531 393.219 628.264 393.279 628.869 392.759C629.498 392.217 629.531 391.44 629.541 391.21H629.541Z" fill="white"/>
    <path d="M607.278 400.6L607.587 400.476C607.767 400.378 608.174 400.124 608.464 399.618C608.786 399.057 608.772 398.52 608.757 398.318C608.689 396.621 608.353 393.918 606.924 390.991C606.106 389.318 605.15 388.018 604.323 387.066C604.143 386.851 603.736 386.419 603.125 386.202C602.932 386.134 602.634 386.031 602.255 386.088C602.135 386.106 602.016 386.138 601.899 386.184L601.59 386.308C601.553 386.318 600.904 386.508 600.713 387.165C600.583 387.611 600.715 388.097 601.053 388.424C601.947 389.494 603.131 391.157 604.029 393.425C605.021 395.931 605.262 398.161 605.306 399.623C605.323 399.699 605.464 400.286 606.052 400.581C606.648 400.88 607.208 400.632 607.278 400.6L607.278 400.6Z" fill="#DB8282"/>
    <path d="M598.3 385.36C598.959 386.066 600.065 386.104 600.77 385.444C601.475 384.784 601.513 383.676 600.854 382.97L600.538 382.631C599.879 381.924 598.773 381.886 598.068 382.546C597.362 383.206 597.324 384.314 597.983 385.021L598.3 385.36Z" fill="#DB8282"/>
    <path d="M686.541 401.8L686.23 401.683C686.047 401.588 685.636 401.341 685.337 400.842C685.004 400.287 685.008 399.75 685.019 399.547C685.055 397.849 685.34 395.14 686.714 392.187C687.499 390.499 688.431 389.181 689.24 388.213C689.416 387.994 689.815 387.555 690.422 387.327C690.613 387.255 690.909 387.147 691.29 387.196C691.41 387.212 691.529 387.241 691.647 387.286L691.958 387.403C691.996 387.413 692.648 387.591 692.851 388.244C692.99 388.688 692.867 389.176 692.535 389.509C691.661 390.595 690.509 392.281 689.654 394.565C688.709 397.09 688.51 399.324 688.494 400.786C688.478 400.863 688.349 401.453 687.766 401.759C687.176 402.069 686.611 401.831 686.541 401.8V401.8Z" fill="#DB8282"/>
    <path d="M695.54 386.048C696.185 385.329 696.127 384.222 695.409 383.576C694.692 382.929 693.586 382.988 692.941 383.707L692.631 384.052C691.986 384.771 692.044 385.878 692.762 386.524C693.479 387.171 694.585 387.112 695.23 386.393L695.54 386.048Z" fill="#DB8282"/>
    <path d="M572.59 405.673C572.59 405.673 572.914 406.398 573.294 407.109C575.245 410.771 577.724 413.045 577.724 413.045C578.255 413.532 581.215 416.19 585.155 417.243C586.8 417.682 588.386 417.781 588.548 417.79C588.875 417.809 589.884 417.858 591.202 417.734C591.528 417.704 592.919 417.565 594.82 417.03C595.309 416.892 596.752 416.47 598.829 415.51C600.898 414.554 603.602 413.305 606.03 410.912C607.146 409.811 607.812 408.869 608.068 408.49C608.696 407.559 609.118 406.706 609.397 406.061C607.805 407.746 604.234 411.061 598.621 412.678C591.549 414.715 585.691 412.773 583.4 411.978C577.585 409.961 573.88 406.432 572.083 404.448C572.21 404.781 572.378 405.199 572.59 405.673L572.59 405.673Z" fill="#B23030"/>
    <path d="M634.753 422.489C634.886 422.35 639.814 429.966 646.634 429.863C653.288 429.761 657.887 422.367 658.006 422.489C658.127 422.613 653.83 430.798 646.532 430.88C639.123 430.963 634.619 422.629 634.753 422.489Z" fill="#5E1111"/>
</svg>
