<svg width="870" height="540" viewBox="0 0 870 540" fill="none" xmlns="http://www.w3.org/2000/svg">
<rect x="2.5" y="2.5" width="865" height="534.4" rx="77.5" fill="#F3F3F3" stroke="#83C1CA" stroke-width="5"/>
<path d="M163.913 170.336C161.156 170.028 158.381 169.917 155.608 170.004C154.299 170.084 152.998 170.267 151.717 170.551C149.578 171.08 147.512 171.87 145.566 172.904C139.398 177.964 135.479 185.251 134.662 193.181C131.667 205.202 132.74 217.875 137.713 229.224C140.558 235.807 144.762 241.717 150.049 246.567C155.336 251.417 161.589 255.099 168.398 257.372C175.207 259.644 182.419 260.457 189.564 259.756C196.708 259.055 203.625 256.857 209.861 253.304C216.104 250.196 221.659 245.867 226.196 240.574C230.733 235.282 234.159 229.133 236.272 222.492C238.83 212.968 238.515 202.901 235.368 193.554C233.884 186.737 230.23 180.583 224.952 176.014C222.056 173.57 218.604 171.873 214.897 171.073C210.107 170.487 205.283 170.214 200.457 170.256C198.951 170.243 197.454 170.01 196.016 169.565C194.801 169.116 193.614 168.594 192.462 168.002C190.419 167.071 188.219 166.533 185.977 166.416C183.997 166.525 182.039 166.897 180.157 167.522C176.349 168.519 176 168.849 173.86 169.377C170.606 170.16 167.257 170.483 163.913 170.336Z" fill="#C80D25"/>
<path d="M237.348 217.624C237.603 216.134 237.783 214.631 237.886 213.123L237.896 212.981C237.991 211.557 238.021 210.181 237.987 208.854V208.731C237.96 207.508 237.871 206.339 237.769 205.208L237.706 204.573C237.58 203.568 237.454 202.563 237.301 201.626L237.159 200.826C237.018 200.053 236.867 199.312 236.708 198.621L236.539 197.88C236.43 197.425 236.327 197.026 236.21 196.613C235.918 195.555 235.641 194.544 235.35 193.559C234.968 192.289 234.539 190.945 234.035 189.555C233.456 187.984 232.94 186.734 232.462 185.738L232.156 185.073L231.809 184.382C230.612 182.057 229.07 179.926 227.234 178.061L227.171 178.024C226.465 177.323 225.718 176.664 224.934 176.05C223.724 175.079 222.442 174.202 221.099 173.425L221.058 173.4C220.627 173.141 220.095 172.943 219.611 172.717C220.904 174.688 222.338 176.564 223.902 178.33C228.836 186.308 230.936 195.714 229.862 205.03C229.183 212.432 226.801 219.577 222.902 225.908C219.002 232.239 213.691 237.584 207.382 241.527C196.321 248.02 183.206 250.084 170.682 247.301C149.889 243.198 138.959 227.935 137.728 229.241C141.652 237.708 147.651 245.049 155.171 250.585C155.884 251.087 156.61 251.579 157.364 252.059L157.816 252.33C161.124 254.405 164.662 256.09 168.359 257.351C169.546 257.747 170.716 258.075 171.89 258.38C172.268 258.478 172.645 258.546 173.023 258.631C173.833 258.829 174.579 258.979 175.354 259.101C175.795 259.176 176.207 259.231 176.655 259.303C177.355 259.409 178.053 259.502 178.72 259.613L180.024 259.734C180.7 259.786 181.367 259.823 182.026 259.857C182.443 259.876 182.86 259.892 183.268 259.896C183.95 259.906 184.623 259.896 185.293 259.884C185.646 259.871 186.017 259.871 186.362 259.855C187.198 259.817 188.015 259.758 188.813 259.678L189.321 259.641C190.303 259.551 191.228 259.406 192.148 259.271L192.952 259.122C193.588 259.01 194.217 258.894 194.823 258.766C195.151 258.704 195.468 258.623 195.787 258.555L197.345 258.178L198.298 257.922C198.781 257.784 199.253 257.65 199.711 257.506L200.577 257.243C201.039 257.092 201.488 256.934 201.921 256.786L202.652 256.528C203.129 256.357 203.59 256.16 204.021 256L204.505 255.816C205.091 255.583 205.632 255.349 206.141 255.125L206.55 254.942L207.578 254.469L207.955 254.288L208.591 253.974L209.278 253.634L209.866 253.307C216.397 249.887 222.222 245.267 227.038 239.689C227.385 239.284 227.73 238.879 228.065 238.446C228.151 238.303 228.31 238.148 228.401 238.025C228.895 237.392 229.345 236.733 229.781 236.12C230.003 235.751 230.276 235.404 230.495 235.071C230.998 234.305 231.492 233.52 231.963 232.705L232.184 232.336C232.681 231.509 233.108 230.633 233.535 229.737C233.661 229.5 233.773 229.257 233.87 229.008C234.265 228.147 234.645 227.268 234.999 226.356L235.137 226.003C235.568 224.867 235.955 223.701 236.317 222.491C236.769 220.905 237.133 219.296 237.41 217.67L237.348 217.624Z" fill="#9F122D"/>
<path d="M154.358 176.652C152.24 176.74 150.206 177.504 148.555 178.833C144.874 182.432 142.146 186.887 140.614 191.799C139.082 196.711 138.795 201.925 139.778 206.975C139.847 208.639 140.288 210.267 141.07 211.738C141.853 213.209 142.955 214.486 144.297 215.476C145.54 216.048 146.883 216.37 148.251 216.423C149.619 216.477 150.984 216.26 152.268 215.785C157.188 213.948 158.734 208.808 161.7 198.92C163.305 193.454 163.613 187.691 162.6 182.085C162.295 180.808 161.635 179.643 160.696 178.724C158.928 177.247 156.659 176.505 154.358 176.652Z" fill="#D9766A"/>
<path d="M180.855 183.188C181.116 180.409 182.348 177.812 184.335 175.85C185.344 174.884 186.528 174.117 187.824 173.592C189.482 174.373 190.853 175.653 191.744 177.252C192.461 178.612 192.387 179.665 192.92 182.941C193.276 185.134 193.564 186.978 193.767 188.309C194.619 186.785 195.262 185.154 195.678 183.46C196.517 180.943 196.567 178.231 195.823 175.685C195.254 174.097 194.316 172.667 193.087 171.512C194.556 170.997 196.074 170.633 197.617 170.429C200.637 170.109 203.689 170.307 206.642 171.015C209.343 171.514 211.998 172.237 214.578 173.177C213.745 172.453 212.853 171.8 211.911 171.224C208.999 169.553 205.748 168.556 202.399 168.306C198.982 167.864 195.519 167.916 192.117 168.461C192.779 167.659 193.517 166.921 194.319 166.257C196.061 164.849 198.059 163.791 200.204 163.14C202.505 162.431 204.925 162.189 207.322 162.425C206.457 161.993 205.549 161.651 204.613 161.405C202.39 160.858 200.071 160.821 197.832 161.298C195.303 161.94 192.907 163.021 190.754 164.493C189.519 165.212 188.535 165.875 187.866 166.338C187.909 165.231 187.948 163.805 187.992 162.156C188.246 160.074 188.136 157.964 187.667 155.919C187.104 154.38 186.129 153.024 184.848 152C185.431 154.222 185.637 156.526 185.458 158.816C185.278 161.105 184.71 163.348 183.778 165.448C182.646 164.101 181.379 162.874 179.996 161.785C177.945 160.195 175.682 158.899 173.273 157.932C171.249 157.046 169.145 156.353 166.989 155.865C169.539 157.644 171.677 158.992 173.197 159.912C175.578 161.12 177.734 162.727 179.57 164.663C180.313 165.528 180.96 166.47 181.499 167.474C178.697 167.059 175.834 167.435 173.236 168.561C171.164 169.46 169.333 170.834 167.892 172.572C166.452 174.31 165.441 176.363 164.944 178.564C166.819 176.237 169.131 174.298 171.751 172.857C173.145 172.053 174.665 171.488 176.246 171.185C177.338 171.012 178.441 170.925 179.547 170.925C180.711 170.886 181.876 170.917 183.036 171.017C181.785 172.08 180.823 173.441 180.238 174.973C179.78 176.313 179.599 177.732 179.705 179.144C179.811 180.555 180.202 181.931 180.855 183.188Z" fill="#267237"/>
<path d="M163.913 307.336C161.156 307.028 158.381 306.917 155.608 307.004C154.299 307.084 152.998 307.267 151.717 307.551C149.578 308.08 147.512 308.87 145.566 309.905C139.398 314.964 135.479 322.251 134.662 330.181C131.667 342.202 132.74 354.875 137.713 366.224C140.558 372.807 144.762 378.717 150.049 383.567C155.336 388.418 161.589 392.099 168.398 394.372C175.207 396.644 182.419 397.457 189.564 396.756C196.708 396.055 203.625 393.857 209.861 390.304C216.104 387.196 221.659 382.867 226.196 377.574C230.733 372.282 234.159 366.133 236.272 359.493C238.83 349.968 238.515 339.901 235.368 330.554C233.884 323.737 230.23 317.583 224.952 313.015C222.056 310.57 218.604 308.873 214.897 308.073C210.107 307.487 205.283 307.215 200.457 307.256C198.951 307.243 197.454 307.011 196.016 306.565C194.801 306.116 193.614 305.594 192.462 305.002C190.419 304.071 188.219 303.533 185.977 303.416C183.997 303.526 182.039 303.897 180.157 304.522C176.349 305.519 176 305.849 173.86 306.377C170.606 307.16 167.257 307.483 163.913 307.336Z" fill="#C80D25"/>
<path d="M237.348 354.624C237.603 353.134 237.783 351.631 237.886 350.123L237.896 349.981C237.991 348.557 238.021 347.181 237.987 345.854V345.731C237.96 344.508 237.871 343.339 237.769 342.208L237.706 341.573C237.58 340.568 237.454 339.563 237.301 338.626L237.159 337.826C237.018 337.053 236.867 336.312 236.708 335.621L236.539 334.88C236.43 334.425 236.327 334.026 236.21 333.613C235.918 332.555 235.641 331.544 235.35 330.559C234.968 329.289 234.539 327.945 234.035 326.555C233.456 324.984 232.94 323.734 232.462 322.738L232.156 322.073L231.809 321.382C230.612 319.057 229.07 316.926 227.234 315.061L227.171 315.024C226.465 314.323 225.718 313.664 224.934 313.05C223.724 312.079 222.442 311.202 221.099 310.425L221.058 310.4C220.627 310.141 220.095 309.943 219.611 309.717C220.904 311.688 222.338 313.564 223.902 315.33C228.836 323.308 230.936 332.714 229.862 342.03C229.183 349.432 226.801 356.577 222.902 362.908C219.002 369.239 213.691 374.584 207.382 378.527C196.321 385.02 183.206 387.084 170.682 384.301C149.889 380.198 138.959 364.935 137.728 366.241C141.652 374.708 147.651 382.049 155.171 387.585C155.884 388.087 156.61 388.579 157.364 389.059L157.816 389.33C161.124 391.405 164.662 393.09 168.359 394.351C169.546 394.747 170.716 395.075 171.89 395.38C172.268 395.478 172.645 395.546 173.023 395.631C173.833 395.829 174.579 395.979 175.354 396.101C175.795 396.176 176.207 396.231 176.655 396.303C177.355 396.409 178.053 396.502 178.72 396.613L180.024 396.734C180.7 396.786 181.367 396.823 182.026 396.857C182.443 396.876 182.86 396.892 183.268 396.896C183.95 396.906 184.623 396.896 185.293 396.884C185.646 396.871 186.017 396.871 186.362 396.855C187.198 396.817 188.015 396.758 188.813 396.678L189.321 396.641C190.303 396.551 191.228 396.406 192.148 396.271L192.952 396.122C193.588 396.01 194.217 395.894 194.823 395.766C195.151 395.704 195.468 395.623 195.787 395.555L197.345 395.178L198.298 394.922C198.781 394.784 199.253 394.65 199.711 394.506L200.577 394.243C201.039 394.092 201.488 393.934 201.921 393.786L202.652 393.528C203.129 393.357 203.59 393.16 204.021 393L204.505 392.816C205.091 392.583 205.632 392.349 206.141 392.125L206.55 391.942L207.578 391.469L207.955 391.288L208.591 390.974L209.278 390.634L209.866 390.307C216.397 386.887 222.222 382.267 227.038 376.689C227.385 376.284 227.73 375.879 228.065 375.446C228.151 375.303 228.31 375.148 228.401 375.025C228.895 374.392 229.345 373.733 229.781 373.12C230.003 372.751 230.276 372.404 230.495 372.071C230.998 371.305 231.492 370.52 231.963 369.705L232.184 369.336C232.681 368.509 233.108 367.633 233.535 366.737C233.661 366.5 233.773 366.257 233.87 366.008C234.265 365.147 234.645 364.268 234.999 363.356L235.137 363.003C235.568 361.867 235.955 360.701 236.317 359.491C236.769 357.905 237.133 356.296 237.41 354.67L237.348 354.624Z" fill="#9F122D"/>
<path d="M154.358 313.652C152.24 313.74 150.206 314.504 148.555 315.833C144.874 319.432 142.146 323.887 140.614 328.799C139.082 333.711 138.795 338.925 139.778 343.975C139.847 345.639 140.288 347.267 141.07 348.738C141.853 350.209 142.955 351.486 144.297 352.476C145.54 353.048 146.883 353.37 148.251 353.423C149.619 353.477 150.984 353.26 152.268 352.785C157.188 350.948 158.734 345.808 161.7 335.92C163.305 330.454 163.613 324.691 162.6 319.085C162.295 317.808 161.635 316.643 160.696 315.724C158.928 314.247 156.659 313.505 154.358 313.652Z" fill="#D9766A"/>
<path d="M180.855 320.188C181.116 317.409 182.348 314.812 184.335 312.85C185.344 311.884 186.528 311.117 187.824 310.592C189.482 311.373 190.853 312.653 191.744 314.252C192.461 315.612 192.387 316.665 192.92 319.941C193.276 322.134 193.564 323.978 193.767 325.309C194.619 323.785 195.262 322.154 195.678 320.46C196.517 317.943 196.567 315.231 195.823 312.685C195.254 311.097 194.316 309.667 193.087 308.512C194.556 307.997 196.074 307.633 197.617 307.429C200.637 307.109 203.689 307.307 206.642 308.015C209.343 308.514 211.998 309.237 214.578 310.177C213.745 309.453 212.853 308.8 211.911 308.224C208.999 306.553 205.748 305.556 202.399 305.306C198.982 304.864 195.519 304.916 192.117 305.461C192.779 304.659 193.517 303.921 194.319 303.257C196.061 301.849 198.059 300.791 200.204 300.14C202.505 299.431 204.925 299.189 207.322 299.425C206.457 298.993 205.549 298.651 204.613 298.405C202.39 297.858 200.071 297.821 197.832 298.298C195.303 298.94 192.907 300.021 190.754 301.493C189.519 302.212 188.535 302.875 187.866 303.338C187.909 302.231 187.948 300.805 187.992 299.156C188.246 297.074 188.136 294.964 187.667 292.919C187.104 291.38 186.129 290.024 184.848 289C185.431 291.222 185.637 293.526 185.458 295.816C185.278 298.105 184.71 300.348 183.778 302.448C182.646 301.101 181.379 299.874 179.996 298.785C177.945 297.195 175.682 295.899 173.273 294.932C171.249 294.046 169.145 293.353 166.989 292.865C169.539 294.644 171.677 295.992 173.197 296.912C175.578 298.12 177.734 299.727 179.57 301.663C180.313 302.528 180.96 303.47 181.499 304.474C178.697 304.059 175.834 304.435 173.236 305.561C171.164 306.46 169.333 307.834 167.892 309.572C166.452 311.31 165.441 313.363 164.944 315.564C166.819 313.237 169.131 311.298 171.751 309.857C173.145 309.053 174.665 308.488 176.246 308.185C177.338 308.012 178.441 307.925 179.547 307.925C180.711 307.886 181.876 307.917 183.036 308.017C181.785 309.08 180.823 310.441 180.238 311.973C179.78 313.313 179.599 314.732 179.705 316.144C179.811 317.555 180.202 318.931 180.855 320.188Z" fill="#267237"/>
<path d="M310.913 307.336C308.156 307.028 305.381 306.917 302.608 307.004C301.299 307.084 299.998 307.267 298.717 307.551C296.578 308.08 294.512 308.87 292.566 309.905C286.398 314.964 282.479 322.251 281.662 330.181C278.667 342.202 279.74 354.875 284.713 366.224C287.558 372.807 291.762 378.717 297.049 383.567C302.336 388.418 308.589 392.099 315.398 394.372C322.207 396.644 329.419 397.457 336.564 396.756C343.708 396.055 350.625 393.857 356.861 390.304C363.104 387.196 368.659 382.867 373.196 377.574C377.733 372.282 381.159 366.133 383.272 359.493C385.83 349.968 385.515 339.901 382.368 330.554C380.884 323.737 377.23 317.583 371.952 313.015C369.056 310.57 365.604 308.873 361.897 308.073C357.107 307.487 352.283 307.215 347.457 307.256C345.951 307.243 344.454 307.011 343.016 306.565C341.801 306.116 340.614 305.594 339.462 305.002C337.419 304.071 335.219 303.533 332.977 303.416C330.997 303.526 329.039 303.897 327.157 304.522C323.349 305.519 323 305.849 320.86 306.377C317.606 307.16 314.257 307.483 310.913 307.336Z" fill="#C80D25"/>
<path d="M384.348 354.624C384.603 353.134 384.783 351.631 384.886 350.123L384.896 349.981C384.991 348.557 385.021 347.181 384.987 345.854V345.731C384.96 344.508 384.871 343.339 384.769 342.208L384.706 341.573C384.58 340.568 384.454 339.563 384.301 338.626L384.159 337.826C384.018 337.053 383.867 336.312 383.708 335.621L383.539 334.88C383.43 334.425 383.327 334.026 383.21 333.613C382.918 332.555 382.641 331.544 382.35 330.559C381.968 329.289 381.539 327.945 381.035 326.555C380.456 324.984 379.94 323.734 379.462 322.738L379.156 322.073L378.809 321.382C377.612 319.057 376.07 316.926 374.234 315.061L374.171 315.024C373.465 314.323 372.718 313.664 371.934 313.05C370.724 312.079 369.442 311.202 368.099 310.425L368.058 310.4C367.627 310.141 367.095 309.943 366.611 309.717C367.904 311.688 369.338 313.564 370.902 315.33C375.836 323.308 377.936 332.714 376.862 342.03C376.183 349.432 373.801 356.577 369.902 362.908C366.002 369.239 360.691 374.584 354.382 378.527C343.321 385.02 330.206 387.084 317.682 384.301C296.889 380.198 285.959 364.935 284.728 366.241C288.652 374.708 294.651 382.049 302.171 387.585C302.884 388.087 303.61 388.579 304.364 389.059L304.816 389.33C308.124 391.405 311.662 393.09 315.359 394.351C316.546 394.747 317.716 395.075 318.89 395.38C319.268 395.478 319.645 395.546 320.023 395.631C320.833 395.829 321.579 395.979 322.354 396.101C322.795 396.176 323.207 396.231 323.655 396.303C324.355 396.409 325.053 396.502 325.72 396.613L327.024 396.734C327.7 396.786 328.367 396.823 329.026 396.857C329.443 396.876 329.86 396.892 330.268 396.896C330.95 396.906 331.623 396.896 332.293 396.884C332.646 396.871 333.017 396.871 333.362 396.855C334.198 396.817 335.015 396.758 335.813 396.678L336.321 396.641C337.303 396.551 338.228 396.406 339.148 396.271L339.952 396.122C340.588 396.01 341.217 395.894 341.823 395.766C342.151 395.704 342.468 395.623 342.787 395.555L344.345 395.178L345.298 394.922C345.781 394.784 346.253 394.65 346.711 394.506L347.577 394.243C348.039 394.092 348.488 393.934 348.921 393.786L349.652 393.528C350.129 393.357 350.59 393.16 351.021 393L351.505 392.816C352.091 392.583 352.632 392.349 353.141 392.125L353.55 391.942L354.578 391.469L354.955 391.288L355.591 390.974L356.278 390.634L356.866 390.307C363.397 386.887 369.222 382.267 374.038 376.689C374.385 376.284 374.73 375.879 375.065 375.446C375.151 375.303 375.31 375.148 375.401 375.025C375.895 374.392 376.345 373.733 376.781 373.12C377.003 372.751 377.276 372.404 377.495 372.071C377.998 371.305 378.492 370.52 378.963 369.705L379.184 369.336C379.681 368.509 380.108 367.633 380.535 366.737C380.661 366.5 380.773 366.257 380.87 366.008C381.265 365.147 381.645 364.268 381.999 363.356L382.137 363.003C382.568 361.867 382.955 360.701 383.317 359.491C383.769 357.905 384.133 356.296 384.41 354.67L384.348 354.624Z" fill="#9F122D"/>
<path d="M301.358 313.652C299.24 313.74 297.206 314.504 295.555 315.833C291.874 319.432 289.146 323.887 287.614 328.799C286.082 333.711 285.795 338.925 286.778 343.975C286.847 345.639 287.288 347.267 288.07 348.738C288.853 350.209 289.955 351.486 291.297 352.476C292.54 353.048 293.883 353.37 295.251 353.423C296.619 353.477 297.984 353.26 299.268 352.785C304.188 350.948 305.734 345.808 308.7 335.92C310.305 330.454 310.613 324.691 309.6 319.085C309.295 317.808 308.635 316.643 307.696 315.724C305.928 314.247 303.659 313.505 301.358 313.652Z" fill="#D9766A"/>
<path d="M327.855 320.188C328.116 317.409 329.348 314.812 331.335 312.85C332.344 311.884 333.528 311.117 334.824 310.592C336.482 311.373 337.853 312.653 338.744 314.252C339.461 315.612 339.387 316.665 339.92 319.941C340.276 322.134 340.564 323.978 340.767 325.309C341.619 323.785 342.262 322.154 342.678 320.46C343.517 317.943 343.567 315.231 342.823 312.685C342.254 311.097 341.316 309.667 340.087 308.512C341.556 307.997 343.074 307.633 344.617 307.429C347.637 307.109 350.689 307.307 353.642 308.015C356.343 308.514 358.998 309.237 361.578 310.177C360.745 309.453 359.853 308.8 358.911 308.224C355.999 306.553 352.748 305.556 349.399 305.306C345.982 304.864 342.519 304.916 339.117 305.461C339.779 304.659 340.517 303.921 341.319 303.257C343.061 301.849 345.059 300.791 347.204 300.14C349.505 299.431 351.925 299.189 354.322 299.425C353.457 298.993 352.549 298.651 351.613 298.405C349.39 297.858 347.071 297.821 344.832 298.298C342.303 298.94 339.907 300.021 337.754 301.493C336.519 302.212 335.535 302.875 334.866 303.338C334.909 302.231 334.948 300.805 334.992 299.156C335.246 297.074 335.136 294.964 334.667 292.919C334.104 291.38 333.129 290.024 331.848 289C332.431 291.222 332.637 293.526 332.458 295.816C332.278 298.105 331.71 300.348 330.778 302.448C329.646 301.101 328.379 299.874 326.996 298.785C324.945 297.195 322.682 295.899 320.273 294.932C318.249 294.046 316.145 293.353 313.989 292.865C316.539 294.644 318.677 295.992 320.197 296.912C322.578 298.12 324.734 299.727 326.57 301.663C327.313 302.528 327.96 303.47 328.499 304.474C325.697 304.059 322.834 304.435 320.236 305.561C318.164 306.46 316.333 307.834 314.892 309.572C313.452 311.31 312.441 313.363 311.944 315.564C313.819 313.237 316.131 311.298 318.751 309.857C320.145 309.053 321.665 308.488 323.246 308.185C324.338 308.012 325.441 307.925 326.547 307.925C327.711 307.886 328.876 307.917 330.036 308.017C328.785 309.08 327.823 310.441 327.238 311.973C326.78 313.313 326.599 314.732 326.705 316.144C326.811 317.555 327.202 318.931 327.855 320.188Z" fill="#267237"/>
<path d="M591.194 314.088C591.397 310.913 591.579 306.377 591.459 300.623C592.047 300.07 592.634 299.517 593.223 298.965C596.98 298.948 600.291 298.952 603.055 298.965C604.721 298.972 605.619 298.98 607.964 298.994C611.393 299.015 614.432 299.027 617 299.036C619.569 299.027 622.607 299.015 626.036 298.994C628.381 298.98 629.278 298.972 630.945 298.965C633.709 298.952 637.02 298.948 640.777 298.965C641.365 299.517 641.953 300.07 642.541 300.623C642.422 306.377 642.603 310.911 642.806 314.088C642.962 316.537 643.202 319.32 642.687 323.141C642.423 325.071 642.01 326.977 641.452 328.843C639.84 334.037 637.201 338.854 633.692 343.009C631.367 345.863 628.747 349.032 624.168 351.66C621.919 352.948 619.509 353.934 617.001 354.591H616.996C614.489 353.934 612.078 352.948 609.829 351.66C605.251 349.034 602.63 345.864 600.305 343.009C596.797 338.854 594.158 334.037 592.545 328.843C591.987 326.977 591.575 325.071 591.311 323.141C590.799 319.32 591.038 316.537 591.194 314.088Z" fill="#838382"/>
<path d="M611.603 226.98H622.597V289.059H611.603V226.98Z" fill="#67461B"/>
<path d="M612.207 324.124C612.608 325.109 613.108 326.051 613.701 326.934C614.707 328.409 615.781 329.983 617.173 329.958C618.488 329.936 619.453 328.495 620.451 327.006C621.216 325.83 621.831 324.564 622.283 323.236C623.193 320.725 623.81 317.953 624.235 314.021C624.558 310.937 624.703 307.837 624.669 304.736C624.659 297.627 624.63 291.875 624.597 287.588L609.531 287.516C609.65 294.892 609.624 300.686 609.58 304.629C609.496 307.871 609.617 311.115 609.941 314.342C610.262 317.38 610.828 320.816 612.207 324.124Z" fill="#606060"/>
<path d="M601.58 212.222L603.336 210.144L630.655 210L632.463 211.808C632.482 212.861 632.5 214.406 632.488 216.28C632.458 220.585 632.3 221.241 632.179 221.659C631.562 223.759 630.277 225.6 628.519 226.904C628.039 227.248 627.003 227.915 624.154 228.58C618.18 229.975 613.455 229.208 609.56 228.536C608.437 228.388 607.348 228.045 606.342 227.523C604.524 226.508 603.085 224.93 602.242 223.026C601.678 221.707 601.623 220.189 601.536 217.206C601.475 215.107 601.525 213.382 601.58 212.222ZM607.268 220.397L609.502 222.836L624.963 222.866C625.562 222.169 626.162 221.472 626.762 220.775L626.96 215.076H607.239C607.248 216.849 607.258 218.623 607.268 220.397Z" fill="#606060"/>
</svg>
