<?xml version="1.0" encoding="UTF-8" standalone="no"?>
<svg viewBox="0 0 870 540" fill="none" xmlns="http://www.w3.org/2000/svg">
<rect x="3" y="3" width="864" height="533.4" rx="77" fill="white" stroke="#844EA5" stroke-width="6"/>
<path d="M207.103 403.104C207.919 402.021 205.744 399.99 204.52 396.334C203.908 394.507 203.772 393.153 203.568 390.445C203.296 387.06 202.82 380.154 205.812 372.166C206.355 370.609 208.463 365.329 213.359 359.845C216.419 356.392 223.967 347.862 235.934 346.576C248.65 345.222 258.169 352.94 262.249 356.325C264.289 357.949 275.44 367.427 277.684 382.727C279.248 393.559 275.644 403.172 275.372 403.51C275.372 403.51 275.236 403.713 275.236 403.917C275.236 404.187 275.508 404.39 275.644 404.458C276.12 404.797 277.888 405.338 279.656 404.39C279.792 404.323 280.608 403.849 281.288 402.901C282.036 401.818 282.172 400.735 282.24 400.396C282.988 394.574 284.416 390.919 284.348 386.044C284.212 379.477 281.22 363.975 268.097 352.534C264.561 349.419 255.517 341.499 241.918 341.025C223.491 340.348 211.523 353.684 209.211 356.392C206.695 359.236 199.488 367.495 198.128 380.493C196.836 392.882 201.936 402.766 202.072 402.969C202.072 402.969 202.208 403.172 202.276 403.443C202.344 403.646 202.344 403.713 202.344 403.713C202.548 404.187 204.452 403.917 204.452 403.917C206.016 403.51 206.899 403.375 207.103 403.104Z" fill="#AB6F26"/>
<path d="M201.596 406.015C201.732 407.234 201.324 418.742 204.656 429.777C206.559 436.276 208.531 438.307 209.347 439.12C210.367 440.067 212.067 441.354 216.011 442.843C219.207 443.994 222.947 444.874 235.798 445.551C241.782 445.822 244.842 446.025 249.194 445.822C254.701 445.619 258.101 445.483 262.453 444.332C266.533 443.249 271.225 441.963 274.557 437.901C275.78 436.412 276.324 435.193 277.412 432.756C277.412 432.756 281.832 422.534 281.356 406.218C281.356 405.203 281.22 403.917 281.22 403.917C281.22 403.646 281.152 403.51 281.152 403.443C280.676 402.156 240.218 411.431 213.835 405.88C210.231 405.135 201.528 405 201.528 405.474C201.596 405.744 201.596 405.812 201.596 406.015Z" fill="#AB6F26"/>
<path d="M222.335 403.781C218.663 403.24 216.351 402.901 216.351 402.901C211.319 402.156 211.455 402.156 210.503 402.021C207.987 401.75 206.831 401.818 204.384 401.344C203.024 401.073 202.344 400.938 201.8 400.802C199.692 400.193 198.672 399.448 197.04 399.719C196.564 399.787 196.156 399.922 195.816 400.193C195.272 400.599 195 401.276 195 401.953C195.068 402.698 195.544 403.307 196.156 403.849C199.08 406.218 202.548 406.624 202.548 406.624C208.939 407.369 215.263 408.385 221.655 408.994C226.415 409.468 225.939 409.535 229.475 409.874C237.362 410.551 239.878 410.077 262.453 409.129C267.281 408.926 271.973 407.775 276.8 407.505C276.8 407.505 278.568 407.369 284.008 405.541C284.416 405.406 285.708 404.932 286.388 403.849C286.728 403.24 286.796 402.766 286.796 402.63C286.796 402.495 286.796 401.818 286.388 401.276C285.912 400.667 285.096 400.599 284.552 400.532C281.628 400.329 279.384 401.073 279.384 401.073C276.936 401.886 274.285 401.818 271.769 402.359C265.037 403.781 253.477 404.255 248.854 404.458C238.178 404.797 227.571 404.526 222.335 403.781Z" fill="#CE8F31"/>
<path d="M273.129 411.296C271.973 411.837 270.681 411.905 269.457 412.311C266.261 413.327 260.141 414.004 259.053 414.139C250.894 415.019 242.258 414.613 233.214 414.139C228.862 413.936 226.007 413.665 220.363 413.123C215.671 412.65 214.651 412.446 213.699 412.243C212.475 411.905 211.183 411.905 209.959 411.499C209.551 411.363 208.395 410.889 207.443 411.296C206.899 411.499 206.763 411.77 206.695 411.905C206.695 411.905 206.559 412.311 206.695 412.853C207.171 414.613 211.795 415.019 211.795 415.019C218.187 415.561 224.511 416.847 230.902 416.915C240.354 417.05 245.454 417.592 254.361 417.456C255.721 417.456 258.849 417.388 262.929 416.779C264.969 416.508 266.533 416.238 268.573 415.628C272.109 414.545 275.78 412.785 275.78 412.785C275.78 412.785 276.12 412.311 276.12 411.905C276.12 411.499 275.78 411.025 275.508 410.889C274.896 410.416 274.081 410.889 273.129 411.296Z" fill="#CE8F31"/>
<path d="M250.01 434.448C256.333 434.448 257.285 434.922 263.813 434.448C265.581 434.313 267.893 434.11 270.545 433.771C271.021 433.568 271.293 433.23 271.293 432.824C271.293 432.282 270.681 432.011 270.477 431.876C269.729 431.47 268.845 431.605 268.709 431.605C265.173 432.011 261.501 431.267 257.965 431.537C255.109 431.741 251.03 432.011 245.658 432.079C244.706 432.485 244.638 432.824 244.638 432.959C244.706 433.501 246.134 433.839 247.018 434.042C248.718 434.448 250.01 434.448 250.01 434.448Z" fill="#CE8F31"/>
<path d="M228.251 430.996C227.027 430.996 225.055 430.928 222.471 430.86C222.267 430.928 221.383 431.131 221.315 431.673C221.247 432.282 222.335 432.824 222.675 433.027C224.239 433.839 225.599 433.771 229.542 433.771C230.222 433.771 230.902 433.771 231.65 433.771C233.622 433.771 236.41 433.771 240.082 433.771C240.422 433.568 240.898 433.23 240.83 432.891C240.762 432.418 239.606 432.214 238.994 432.079C232.194 431.064 228.251 430.996 228.251 430.996Z" fill="#CE8F31"/>
<path d="M264.969 424.768C264.493 424.768 263.473 424.768 261.433 424.903C260.345 424.971 258.849 425.038 256.945 425.174C256.877 425.174 256.061 425.309 255.653 424.903C255.381 424.565 255.449 424.023 255.585 423.752C255.993 422.669 258.441 422.669 261.909 422.669C263.269 422.669 265.717 422.669 269.185 422.669C269.253 422.669 269.797 422.534 270.069 422.872C270.341 423.211 270.137 423.82 269.865 424.091C269.525 424.565 268.913 424.565 268.029 424.632C266.261 424.7 265.309 424.768 264.969 424.768Z" fill="#CE8F31"/>
<path d="M238.11 422.872C233.758 423.007 229.406 422.466 225.055 422.33C222.471 422.263 218.595 422.06 213.835 421.857C213.767 421.857 213.155 421.992 212.951 422.466C212.679 422.94 212.883 423.684 213.495 424.091C217.303 424.294 220.363 424.632 222.539 424.835C228.251 425.445 230.086 425.918 234.506 425.986C237.566 426.054 239.946 425.918 241.306 425.783C243.482 425.58 245.454 425.309 246.95 425.106C247.086 425.106 247.562 425.106 247.834 424.768C247.834 424.768 248.038 424.429 247.766 423.82C247.154 422.398 240.558 422.737 238.11 422.872Z" fill="#CE8F31"/>
<path d="M244.366 439.323C243.89 439.323 242.87 439.323 240.83 439.187C239.742 439.12 238.246 439.052 236.342 438.917C236.274 438.917 235.458 438.781 235.05 439.187C234.778 439.526 234.846 440.067 234.982 440.338C235.39 441.421 237.838 441.421 241.306 441.421C242.666 441.421 245.114 441.421 248.582 441.421C248.65 441.421 249.194 441.557 249.466 441.218C249.738 440.88 249.534 440.271 249.262 440C248.922 439.526 248.31 439.526 247.426 439.458C245.59 439.39 244.706 439.323 244.366 439.323Z" fill="#CE8F31"/>
<path d="M64.1035 403.104C64.9194 402.021 62.7435 399.99 61.5196 396.334C60.9076 394.507 60.7716 393.153 60.5676 390.445C60.2956 387.06 59.8196 380.154 62.8115 372.166C63.3555 370.609 65.4634 365.329 70.3592 359.845C73.4191 356.392 80.9667 347.862 92.9342 346.576C105.65 345.222 115.169 352.94 119.249 356.325C121.289 357.949 132.44 367.427 134.684 382.727C136.248 393.559 132.644 403.172 132.372 403.51C132.372 403.51 132.236 403.713 132.236 403.917C132.236 404.187 132.508 404.39 132.644 404.458C133.12 404.797 134.888 405.338 136.656 404.39C136.792 404.323 137.608 403.849 138.288 402.901C139.036 401.818 139.172 400.735 139.24 400.396C139.988 394.574 141.416 390.919 141.348 386.044C141.212 379.477 138.22 363.975 125.097 352.534C121.561 349.419 112.517 341.499 98.9179 341.025C80.4907 340.348 68.5233 353.684 66.2114 356.392C63.6955 359.236 56.4878 367.495 55.1278 380.493C53.8359 392.882 58.9357 402.766 59.0717 402.969C59.0717 402.969 59.2077 403.172 59.2757 403.443C59.3437 403.646 59.3437 403.713 59.3437 403.713C59.5477 404.187 61.4516 403.917 61.4516 403.917C63.0155 403.51 63.8995 403.375 64.1035 403.104Z" fill="#AB6F26"/>
<path d="M58.5957 406.015C58.7317 407.234 58.3237 418.742 61.6556 429.777C63.5595 436.276 65.5314 438.307 66.3474 439.12C67.3673 440.067 69.0673 441.354 73.0111 442.843C76.2069 443.994 79.9468 444.874 92.7982 445.551C98.782 445.822 101.842 446.025 106.194 445.822C111.701 445.619 115.101 445.483 119.453 444.332C123.533 443.249 128.225 441.963 131.557 437.901C132.78 436.412 133.324 435.193 134.412 432.756C134.412 432.756 138.832 422.534 138.356 406.218C138.356 405.203 138.22 403.917 138.22 403.917C138.22 403.646 138.152 403.51 138.152 403.443C137.676 402.156 97.218 411.431 70.8352 405.88C67.2313 405.135 58.5277 405 58.5277 405.474C58.5957 405.744 58.5957 405.812 58.5957 406.015Z" fill="#AB6F26"/>
<path d="M79.3348 403.781C75.663 403.24 73.3511 402.901 73.3511 402.901C68.3193 402.156 68.4553 402.156 67.5033 402.021C64.9874 401.75 63.8315 401.818 61.3836 401.344C60.0237 401.073 59.3437 400.938 58.7997 400.802C56.6918 400.193 55.6718 399.448 54.0399 399.719C53.5639 399.787 53.1559 399.922 52.816 400.193C52.272 400.599 52 401.276 52 401.953C52.068 402.698 52.544 403.307 53.1559 403.849C56.0798 406.218 59.5477 406.624 59.5477 406.624C65.9394 407.369 72.2631 408.385 78.6548 408.994C83.4146 409.468 82.9387 409.535 86.4745 409.874C94.3622 410.551 96.8781 410.077 119.453 409.129C124.281 408.926 128.973 407.775 133.8 407.505C133.8 407.505 135.568 407.369 141.008 405.541C141.416 405.406 142.708 404.932 143.388 403.849C143.728 403.24 143.796 402.766 143.796 402.63C143.796 402.495 143.796 401.818 143.388 401.276C142.912 400.667 142.096 400.599 141.552 400.532C138.628 400.329 136.384 401.073 136.384 401.073C133.936 401.886 131.285 401.818 128.769 402.359C122.037 403.781 110.477 404.255 105.854 404.458C95.1781 404.797 84.5706 404.526 79.3348 403.781Z" fill="#CE8F31"/>
<path d="M130.129 411.296C128.973 411.837 127.681 411.905 126.457 412.311C123.261 413.327 117.141 414.004 116.053 414.139C107.894 415.019 99.2579 414.613 90.2143 414.139C85.8625 413.936 83.0066 413.665 77.3629 413.123C72.6711 412.65 71.6511 412.446 70.6991 412.243C69.4752 411.905 68.1833 411.905 66.9593 411.499C66.5513 411.363 65.3954 410.889 64.4434 411.296C63.8994 411.499 63.7634 411.77 63.6955 411.905C63.6955 411.905 63.5595 412.311 63.6955 412.853C64.1714 414.613 68.7952 415.019 68.7952 415.019C75.187 415.561 81.5107 416.847 87.9024 416.915C97.354 417.05 102.454 417.592 111.361 417.456C112.721 417.456 115.849 417.388 119.929 416.779C121.969 416.508 123.533 416.238 125.573 415.628C129.109 414.545 132.78 412.785 132.78 412.785C132.78 412.785 133.12 412.311 133.12 411.905C133.12 411.499 132.78 411.025 132.508 410.889C131.896 410.416 131.081 410.889 130.129 411.296Z" fill="#CE8F31"/>
<path d="M107.01 434.448C113.333 434.448 114.285 434.922 120.813 434.448C122.581 434.313 124.893 434.11 127.545 433.771C128.021 433.568 128.293 433.23 128.293 432.824C128.293 432.282 127.681 432.011 127.477 431.876C126.729 431.47 125.845 431.605 125.709 431.605C122.173 432.011 118.501 431.267 114.965 431.537C112.109 431.741 108.03 432.011 102.658 432.079C101.706 432.485 101.638 432.824 101.638 432.959C101.706 433.501 103.134 433.839 104.018 434.042C105.718 434.448 107.01 434.448 107.01 434.448Z" fill="#CE8F31"/>
<path d="M85.2505 430.996C84.0266 430.996 82.0547 430.928 79.4708 430.86C79.2668 430.928 78.3828 431.131 78.3148 431.673C78.2468 432.282 79.3348 432.824 79.6748 433.027C81.2387 433.839 82.5986 433.771 86.5425 433.771C87.2224 433.771 87.9024 433.771 88.6504 433.771C90.6223 433.771 93.4102 433.771 97.082 433.771C97.422 433.568 97.898 433.23 97.83 432.891C97.762 432.418 96.606 432.214 95.994 432.079C89.1943 431.064 85.2505 430.996 85.2505 430.996Z" fill="#CE8F31"/>
<path d="M121.969 424.768C121.493 424.768 120.473 424.768 118.433 424.903C117.345 424.971 115.849 425.038 113.945 425.174C113.877 425.174 113.061 425.309 112.653 424.903C112.381 424.565 112.449 424.023 112.585 423.752C112.993 422.669 115.441 422.669 118.909 422.669C120.269 422.669 122.717 422.669 126.185 422.669C126.253 422.669 126.797 422.534 127.069 422.872C127.341 423.211 127.137 423.82 126.865 424.091C126.525 424.565 125.913 424.565 125.029 424.632C123.261 424.7 122.309 424.768 121.969 424.768Z" fill="#CE8F31"/>
<path d="M95.1101 422.872C90.7583 423.007 86.4065 422.466 82.0547 422.33C79.4708 422.263 75.595 422.06 70.8352 421.857C70.7672 421.857 70.1552 421.992 69.9512 422.466C69.6792 422.94 69.8832 423.684 70.4952 424.091C74.303 424.294 77.3629 424.632 79.5388 424.835C85.2505 425.445 87.0865 425.918 91.5063 425.986C94.5661 426.054 96.946 425.918 98.306 425.783C100.482 425.58 102.454 425.309 103.95 425.106C104.086 425.106 104.562 425.106 104.834 424.768C104.834 424.768 105.038 424.429 104.766 423.82C104.154 422.398 97.558 422.737 95.1101 422.872Z" fill="#CE8F31"/>
<path d="M101.366 439.323C100.89 439.323 99.8699 439.323 97.83 439.187C96.7421 439.12 95.2461 439.052 93.3422 438.917C93.2742 438.917 92.4583 438.781 92.0503 439.187C91.7783 439.526 91.8463 440.067 91.9823 440.338C92.3903 441.421 94.8382 441.421 98.306 441.421C99.6659 441.421 102.114 441.421 105.582 441.421C105.65 441.421 106.194 441.557 106.466 441.218C106.738 440.88 106.534 440.271 106.262 440C105.922 439.526 105.31 439.526 104.426 439.458C102.59 439.39 101.706 439.323 101.366 439.323Z" fill="#CE8F31"/>
<path d="M64.1035 247.104C64.9194 246.021 62.7435 243.99 61.5196 240.334C60.9076 238.507 60.7716 237.153 60.5676 234.445C60.2956 231.06 59.8196 224.154 62.8115 216.166C63.3555 214.609 65.4634 209.329 70.3592 203.845C73.4191 200.392 80.9667 191.862 92.9342 190.576C105.65 189.222 115.169 196.94 119.249 200.325C121.289 201.949 132.44 211.427 134.684 226.727C136.248 237.559 132.644 247.172 132.372 247.51C132.372 247.51 132.236 247.713 132.236 247.917C132.236 248.187 132.508 248.39 132.644 248.458C133.12 248.797 134.888 249.338 136.656 248.39C136.792 248.323 137.608 247.849 138.288 246.901C139.036 245.818 139.172 244.735 139.24 244.396C139.988 238.574 141.416 234.919 141.348 230.044C141.212 223.477 138.22 207.975 125.097 196.534C121.561 193.419 112.517 185.499 98.9179 185.025C80.4907 184.348 68.5233 197.684 66.2114 200.392C63.6955 203.236 56.4878 211.495 55.1278 224.493C53.8359 236.882 58.9357 246.766 59.0717 246.969C59.0717 246.969 59.2077 247.172 59.2757 247.443C59.3437 247.646 59.3437 247.713 59.3437 247.713C59.5477 248.187 61.4516 247.917 61.4516 247.917C63.0155 247.51 63.8995 247.375 64.1035 247.104Z" fill="#AB6F26"/>
<path d="M58.5957 250.015C58.7317 251.234 58.3237 262.742 61.6556 273.777C63.5595 280.276 65.5314 282.307 66.3474 283.12C67.3673 284.067 69.0673 285.354 73.0111 286.843C76.2069 287.994 79.9468 288.874 92.7982 289.551C98.782 289.822 101.842 290.025 106.194 289.822C111.701 289.619 115.101 289.483 119.453 288.332C123.533 287.249 128.225 285.963 131.557 281.901C132.78 280.412 133.324 279.193 134.412 276.756C134.412 276.756 138.832 266.534 138.356 250.218C138.356 249.203 138.22 247.917 138.22 247.917C138.22 247.646 138.152 247.51 138.152 247.443C137.676 246.156 97.218 255.431 70.8352 249.88C67.2313 249.135 58.5277 249 58.5277 249.474C58.5957 249.744 58.5957 249.812 58.5957 250.015Z" fill="#AB6F26"/>
<path d="M79.3348 247.781C75.663 247.24 73.3511 246.901 73.3511 246.901C68.3193 246.156 68.4553 246.156 67.5033 246.021C64.9874 245.75 63.8315 245.818 61.3836 245.344C60.0237 245.073 59.3437 244.938 58.7997 244.802C56.6918 244.193 55.6718 243.448 54.0399 243.719C53.5639 243.787 53.1559 243.922 52.816 244.193C52.272 244.599 52 245.276 52 245.953C52.068 246.698 52.544 247.307 53.1559 247.849C56.0798 250.218 59.5477 250.624 59.5477 250.624C65.9394 251.369 72.2631 252.385 78.6548 252.994C83.4146 253.468 82.9387 253.535 86.4745 253.874C94.3622 254.551 96.8781 254.077 119.453 253.129C124.281 252.926 128.973 251.775 133.8 251.505C133.8 251.505 135.568 251.369 141.008 249.541C141.416 249.406 142.708 248.932 143.388 247.849C143.728 247.24 143.796 246.766 143.796 246.63C143.796 246.495 143.796 245.818 143.388 245.276C142.912 244.667 142.096 244.599 141.552 244.532C138.628 244.329 136.384 245.073 136.384 245.073C133.936 245.886 131.285 245.818 128.769 246.359C122.037 247.781 110.477 248.255 105.854 248.458C95.1781 248.797 84.5706 248.526 79.3348 247.781Z" fill="#CE8F31"/>
<path d="M130.129 255.296C128.973 255.837 127.681 255.905 126.457 256.311C123.261 257.327 117.141 258.004 116.053 258.139C107.894 259.019 99.2579 258.613 90.2143 258.139C85.8625 257.936 83.0066 257.665 77.3629 257.124C72.6711 256.65 71.6511 256.447 70.6991 256.243C69.4752 255.905 68.1833 255.905 66.9593 255.499C66.5513 255.363 65.3954 254.889 64.4434 255.296C63.8994 255.499 63.7634 255.77 63.6955 255.905C63.6955 255.905 63.5595 256.311 63.6955 256.853C64.1714 258.613 68.7952 259.019 68.7952 259.019C75.187 259.561 81.5107 260.847 87.9024 260.915C97.354 261.05 102.454 261.592 111.361 261.456C112.721 261.456 115.849 261.389 119.929 260.779C121.969 260.508 123.533 260.238 125.573 259.628C129.109 258.545 132.78 256.785 132.78 256.785C132.78 256.785 133.12 256.311 133.12 255.905C133.12 255.499 132.78 255.025 132.508 254.889C131.896 254.416 131.081 254.889 130.129 255.296Z" fill="#CE8F31"/>
<path d="M107.01 278.448C113.333 278.448 114.285 278.922 120.813 278.448C122.581 278.313 124.893 278.11 127.545 277.771C128.021 277.568 128.293 277.23 128.293 276.824C128.293 276.282 127.681 276.011 127.477 275.876C126.729 275.47 125.845 275.605 125.709 275.605C122.173 276.011 118.501 275.267 114.965 275.537C112.109 275.741 108.03 276.011 102.658 276.079C101.706 276.485 101.638 276.824 101.638 276.959C101.706 277.501 103.134 277.839 104.018 278.042C105.718 278.448 107.01 278.448 107.01 278.448Z" fill="#CE8F31"/>
<path d="M85.2505 274.996C84.0266 274.996 82.0547 274.928 79.4708 274.86C79.2668 274.928 78.3828 275.131 78.3148 275.673C78.2468 276.282 79.3348 276.824 79.6748 277.027C81.2387 277.839 82.5986 277.771 86.5425 277.771C87.2224 277.771 87.9024 277.771 88.6504 277.771C90.6223 277.771 93.4102 277.771 97.082 277.771C97.422 277.568 97.898 277.23 97.83 276.891C97.762 276.418 96.606 276.214 95.994 276.079C89.1943 275.064 85.2505 274.996 85.2505 274.996Z" fill="#CE8F31"/>
<path d="M121.969 268.768C121.493 268.768 120.473 268.768 118.433 268.903C117.345 268.971 115.849 269.038 113.945 269.174C113.877 269.174 113.061 269.309 112.653 268.903C112.381 268.565 112.449 268.023 112.585 267.752C112.993 266.669 115.441 266.669 118.909 266.669C120.269 266.669 122.717 266.669 126.185 266.669C126.253 266.669 126.797 266.534 127.069 266.872C127.341 267.211 127.137 267.82 126.865 268.091C126.525 268.565 125.913 268.565 125.029 268.632C123.261 268.7 122.309 268.768 121.969 268.768Z" fill="#CE8F31"/>
<path d="M95.1101 266.872C90.7583 267.007 86.4065 266.466 82.0547 266.33C79.4708 266.263 75.595 266.06 70.8352 265.857C70.7672 265.857 70.1552 265.992 69.9512 266.466C69.6792 266.94 69.8832 267.684 70.4952 268.091C74.303 268.294 77.3629 268.632 79.5388 268.835C85.2505 269.445 87.0865 269.918 91.5063 269.986C94.5661 270.054 96.946 269.918 98.306 269.783C100.482 269.58 102.454 269.309 103.95 269.106C104.086 269.106 104.562 269.106 104.834 268.768C104.834 268.768 105.038 268.429 104.766 267.82C104.154 266.398 97.558 266.737 95.1101 266.872Z" fill="#CE8F31"/>
<path d="M101.366 283.323C100.89 283.323 99.8699 283.323 97.83 283.187C96.7421 283.12 95.2461 283.052 93.3422 282.917C93.2742 282.917 92.4583 282.781 92.0503 283.187C91.7783 283.526 91.8463 284.067 91.9823 284.338C92.3903 285.421 94.8382 285.421 98.306 285.421C99.6659 285.421 102.114 285.421 105.582 285.421C105.65 285.421 106.194 285.557 106.466 285.218C106.738 284.88 106.534 284.271 106.262 284C105.922 283.526 105.31 283.526 104.426 283.458C102.59 283.39 101.706 283.323 101.366 283.323Z" fill="#CE8F31"/>
<path d="M207.103 247.104C207.919 246.021 205.744 243.99 204.52 240.334C203.908 238.507 203.772 237.153 203.568 234.445C203.296 231.06 202.82 224.154 205.812 216.166C206.355 214.609 208.463 209.329 213.359 203.845C216.419 200.392 223.967 191.862 235.934 190.576C248.65 189.222 258.169 196.94 262.249 200.325C264.289 201.949 275.44 211.427 277.684 226.727C279.248 237.559 275.644 247.172 275.372 247.51C275.372 247.51 275.236 247.713 275.236 247.917C275.236 248.187 275.508 248.39 275.644 248.458C276.12 248.797 277.888 249.338 279.656 248.39C279.792 248.323 280.608 247.849 281.288 246.901C282.036 245.818 282.172 244.735 282.24 244.396C282.988 238.574 284.416 234.919 284.348 230.044C284.212 223.477 281.22 207.975 268.097 196.534C264.561 193.419 255.517 185.499 241.918 185.025C223.491 184.348 211.523 197.684 209.211 200.392C206.695 203.236 199.488 211.495 198.128 224.493C196.836 236.882 201.936 246.766 202.072 246.969C202.072 246.969 202.208 247.172 202.276 247.443C202.344 247.646 202.344 247.713 202.344 247.713C202.548 248.187 204.452 247.917 204.452 247.917C206.016 247.51 206.899 247.375 207.103 247.104Z" fill="#AB6F26"/>
<path d="M201.596 250.015C201.732 251.234 201.324 262.742 204.656 273.777C206.559 280.276 208.531 282.307 209.347 283.12C210.367 284.067 212.067 285.354 216.011 286.843C219.207 287.994 222.947 288.874 235.798 289.551C241.782 289.822 244.842 290.025 249.194 289.822C254.701 289.619 258.101 289.483 262.453 288.332C266.533 287.249 271.225 285.963 274.557 281.901C275.78 280.412 276.324 279.193 277.412 276.756C277.412 276.756 281.832 266.534 281.356 250.218C281.356 249.203 281.22 247.917 281.22 247.917C281.22 247.646 281.152 247.51 281.152 247.443C280.676 246.156 240.218 255.431 213.835 249.88C210.231 249.135 201.528 249 201.528 249.474C201.596 249.744 201.596 249.812 201.596 250.015Z" fill="#AB6F26"/>
<path d="M222.335 247.781C218.663 247.24 216.351 246.901 216.351 246.901C211.319 246.156 211.455 246.156 210.503 246.021C207.987 245.75 206.831 245.818 204.384 245.344C203.024 245.073 202.344 244.938 201.8 244.802C199.692 244.193 198.672 243.448 197.04 243.719C196.564 243.787 196.156 243.922 195.816 244.193C195.272 244.599 195 245.276 195 245.953C195.068 246.698 195.544 247.307 196.156 247.849C199.08 250.218 202.548 250.624 202.548 250.624C208.939 251.369 215.263 252.385 221.655 252.994C226.415 253.468 225.939 253.535 229.475 253.874C237.362 254.551 239.878 254.077 262.453 253.129C267.281 252.926 271.973 251.775 276.8 251.505C276.8 251.505 278.568 251.369 284.008 249.541C284.416 249.406 285.708 248.932 286.388 247.849C286.728 247.24 286.796 246.766 286.796 246.63C286.796 246.495 286.796 245.818 286.388 245.276C285.912 244.667 285.096 244.599 284.552 244.532C281.628 244.329 279.384 245.073 279.384 245.073C276.936 245.886 274.285 245.818 271.769 246.359C265.037 247.781 253.477 248.255 248.854 248.458C238.178 248.797 227.571 248.526 222.335 247.781Z" fill="#CE8F31"/>
<path d="M273.129 255.296C271.973 255.837 270.681 255.905 269.457 256.311C266.261 257.327 260.141 258.004 259.053 258.139C250.894 259.019 242.258 258.613 233.214 258.139C228.862 257.936 226.007 257.665 220.363 257.124C215.671 256.65 214.651 256.447 213.699 256.243C212.475 255.905 211.183 255.905 209.959 255.499C209.551 255.363 208.395 254.889 207.443 255.296C206.899 255.499 206.763 255.77 206.695 255.905C206.695 255.905 206.559 256.311 206.695 256.853C207.171 258.613 211.795 259.019 211.795 259.019C218.187 259.561 224.511 260.847 230.902 260.915C240.354 261.05 245.454 261.592 254.361 261.456C255.721 261.456 258.849 261.389 262.929 260.779C264.969 260.508 266.533 260.238 268.573 259.628C272.109 258.545 275.78 256.785 275.78 256.785C275.78 256.785 276.12 256.311 276.12 255.905C276.12 255.499 275.78 255.025 275.508 254.889C274.896 254.416 274.081 254.889 273.129 255.296Z" fill="#CE8F31"/>
<path d="M250.01 278.448C256.333 278.448 257.285 278.922 263.813 278.448C265.581 278.313 267.893 278.11 270.545 277.771C271.021 277.568 271.293 277.23 271.293 276.824C271.293 276.282 270.681 276.011 270.477 275.876C269.729 275.47 268.845 275.605 268.709 275.605C265.173 276.011 261.501 275.267 257.965 275.537C255.109 275.741 251.03 276.011 245.658 276.079C244.706 276.485 244.638 276.824 244.638 276.959C244.706 277.501 246.134 277.839 247.018 278.042C248.718 278.448 250.01 278.448 250.01 278.448Z" fill="#CE8F31"/>
<path d="M228.251 274.996C227.027 274.996 225.055 274.928 222.471 274.86C222.267 274.928 221.383 275.131 221.315 275.673C221.247 276.282 222.335 276.824 222.675 277.027C224.239 277.839 225.599 277.771 229.542 277.771C230.222 277.771 230.902 277.771 231.65 277.771C233.622 277.771 236.41 277.771 240.082 277.771C240.422 277.568 240.898 277.23 240.83 276.891C240.762 276.418 239.606 276.214 238.994 276.079C232.194 275.064 228.251 274.996 228.251 274.996Z" fill="#CE8F31"/>
<path d="M264.969 268.768C264.493 268.768 263.473 268.768 261.433 268.903C260.345 268.971 258.849 269.038 256.945 269.174C256.877 269.174 256.061 269.309 255.653 268.903C255.381 268.565 255.449 268.023 255.585 267.752C255.993 266.669 258.441 266.669 261.909 266.669C263.269 266.669 265.717 266.669 269.185 266.669C269.253 266.669 269.797 266.534 270.069 266.872C270.341 267.211 270.137 267.82 269.865 268.091C269.525 268.565 268.913 268.565 268.029 268.632C266.261 268.7 265.309 268.768 264.969 268.768Z" fill="#CE8F31"/>
<path d="M238.11 266.872C233.758 267.007 229.406 266.466 225.055 266.33C222.471 266.263 218.595 266.06 213.835 265.857C213.767 265.857 213.155 265.992 212.951 266.466C212.679 266.94 212.883 267.684 213.495 268.091C217.303 268.294 220.363 268.632 222.539 268.835C228.251 269.445 230.086 269.918 234.506 269.986C237.566 270.054 239.946 269.918 241.306 269.783C243.482 269.58 245.454 269.309 246.95 269.106C247.086 269.106 247.562 269.106 247.834 268.768C247.834 268.768 248.038 268.429 247.766 267.82C247.154 266.398 240.558 266.737 238.11 266.872Z" fill="#CE8F31"/>
<path d="M244.366 283.323C243.89 283.323 242.87 283.323 240.83 283.187C239.742 283.12 238.246 283.052 236.342 282.917C236.274 282.917 235.458 282.781 235.05 283.187C234.778 283.526 234.846 284.067 234.982 284.338C235.39 285.421 237.838 285.421 241.306 285.421C242.666 285.421 245.114 285.421 248.582 285.421C248.65 285.421 249.194 285.557 249.466 285.218C249.738 284.88 249.534 284.271 249.262 284C248.922 283.526 248.31 283.526 247.426 283.458C245.59 283.39 244.706 283.323 244.366 283.323Z" fill="#CE8F31"/>
<path d="M350.103 403.104C350.919 402.021 348.744 399.99 347.52 396.334C346.908 394.507 346.772 393.153 346.568 390.445C346.296 387.06 345.82 380.154 348.812 372.166C349.355 370.609 351.463 365.329 356.359 359.845C359.419 356.392 366.967 347.862 378.934 346.576C391.65 345.222 401.169 352.94 405.249 356.325C407.289 357.949 418.44 367.427 420.684 382.727C422.248 393.559 418.644 403.172 418.372 403.51C418.372 403.51 418.236 403.713 418.236 403.917C418.236 404.187 418.508 404.39 418.644 404.458C419.12 404.797 420.888 405.338 422.656 404.39C422.792 404.323 423.608 403.849 424.288 402.901C425.036 401.818 425.172 400.735 425.24 400.396C425.988 394.574 427.416 390.919 427.348 386.044C427.212 379.477 424.22 363.975 411.097 352.534C407.561 349.419 398.517 341.499 384.918 341.025C366.491 340.348 354.523 353.684 352.211 356.392C349.695 359.236 342.488 367.495 341.128 380.493C339.836 392.882 344.936 402.766 345.072 402.969C345.072 402.969 345.208 403.172 345.276 403.443C345.344 403.646 345.344 403.713 345.344 403.713C345.548 404.187 347.452 403.917 347.452 403.917C349.016 403.51 349.899 403.375 350.103 403.104Z" fill="#AB6F26"/>
<path d="M344.596 406.015C344.732 407.234 344.324 418.742 347.656 429.777C349.559 436.276 351.531 438.307 352.347 439.12C353.367 440.067 355.067 441.354 359.011 442.843C362.207 443.994 365.947 444.874 378.798 445.551C384.782 445.822 387.842 446.025 392.194 445.822C397.701 445.619 401.101 445.483 405.453 444.332C409.533 443.249 414.225 441.963 417.557 437.901C418.78 436.412 419.324 435.193 420.412 432.756C420.412 432.756 424.832 422.534 424.356 406.218C424.356 405.203 424.22 403.917 424.22 403.917C424.22 403.646 424.152 403.51 424.152 403.443C423.676 402.156 383.218 411.431 356.835 405.88C353.231 405.135 344.528 405 344.528 405.474C344.596 405.744 344.596 405.812 344.596 406.015Z" fill="#AB6F26"/>
<path d="M365.335 403.781C361.663 403.24 359.351 402.901 359.351 402.901C354.319 402.156 354.455 402.156 353.503 402.021C350.987 401.75 349.831 401.818 347.384 401.344C346.024 401.073 345.344 400.938 344.8 400.802C342.692 400.193 341.672 399.448 340.04 399.719C339.564 399.787 339.156 399.922 338.816 400.193C338.272 400.599 338 401.276 338 401.953C338.068 402.698 338.544 403.307 339.156 403.849C342.08 406.218 345.548 406.624 345.548 406.624C351.939 407.369 358.263 408.385 364.655 408.994C369.415 409.468 368.939 409.535 372.475 409.874C380.362 410.551 382.878 410.077 405.453 409.129C410.281 408.926 414.973 407.775 419.8 407.505C419.8 407.505 421.568 407.369 427.008 405.541C427.416 405.406 428.708 404.932 429.388 403.849C429.728 403.24 429.796 402.766 429.796 402.63C429.796 402.495 429.796 401.818 429.388 401.276C428.912 400.667 428.096 400.599 427.552 400.532C424.628 400.329 422.384 401.073 422.384 401.073C419.936 401.886 417.285 401.818 414.769 402.359C408.037 403.781 396.477 404.255 391.854 404.458C381.178 404.797 370.571 404.526 365.335 403.781Z" fill="#CE8F31"/>
<path d="M416.129 411.296C414.973 411.837 413.681 411.905 412.457 412.311C409.261 413.327 403.141 414.004 402.053 414.139C393.894 415.019 385.258 414.613 376.214 414.139C371.862 413.936 369.007 413.665 363.363 413.123C358.671 412.65 357.651 412.446 356.699 412.243C355.475 411.905 354.183 411.905 352.959 411.499C352.551 411.363 351.395 410.889 350.443 411.296C349.899 411.499 349.763 411.77 349.695 411.905C349.695 411.905 349.559 412.311 349.695 412.853C350.171 414.613 354.795 415.019 354.795 415.019C361.187 415.561 367.511 416.847 373.902 416.915C383.354 417.05 388.454 417.592 397.361 417.456C398.721 417.456 401.849 417.388 405.929 416.779C407.969 416.508 409.533 416.238 411.573 415.628C415.109 414.545 418.78 412.785 418.78 412.785C418.78 412.785 419.12 412.311 419.12 411.905C419.12 411.499 418.78 411.025 418.508 410.889C417.896 410.416 417.081 410.889 416.129 411.296Z" fill="#CE8F31"/>
<path d="M393.01 434.448C399.333 434.448 400.285 434.922 406.813 434.448C408.581 434.313 410.893 434.11 413.545 433.771C414.021 433.568 414.293 433.23 414.293 432.824C414.293 432.282 413.681 432.011 413.477 431.876C412.729 431.47 411.845 431.605 411.709 431.605C408.173 432.011 404.501 431.267 400.965 431.537C398.109 431.741 394.03 432.011 388.658 432.079C387.706 432.485 387.638 432.824 387.638 432.959C387.706 433.501 389.134 433.839 390.018 434.042C391.718 434.448 393.01 434.448 393.01 434.448Z" fill="#CE8F31"/>
<path d="M371.251 430.996C370.027 430.996 368.055 430.928 365.471 430.86C365.267 430.928 364.383 431.131 364.315 431.673C364.247 432.282 365.335 432.824 365.675 433.027C367.239 433.839 368.599 433.771 372.542 433.771C373.222 433.771 373.902 433.771 374.65 433.771C376.622 433.771 379.41 433.771 383.082 433.771C383.422 433.568 383.898 433.23 383.83 432.891C383.762 432.418 382.606 432.214 381.994 432.079C375.194 431.064 371.251 430.996 371.251 430.996Z" fill="#CE8F31"/>
<path d="M407.969 424.768C407.493 424.768 406.473 424.768 404.433 424.903C403.345 424.971 401.849 425.038 399.945 425.174C399.877 425.174 399.061 425.309 398.653 424.903C398.381 424.565 398.449 424.023 398.585 423.752C398.993 422.669 401.441 422.669 404.909 422.669C406.269 422.669 408.717 422.669 412.185 422.669C412.253 422.669 412.797 422.534 413.069 422.872C413.341 423.211 413.137 423.82 412.865 424.091C412.525 424.565 411.913 424.565 411.029 424.632C409.261 424.7 408.309 424.768 407.969 424.768Z" fill="#CE8F31"/>
<path d="M381.11 422.872C376.758 423.007 372.406 422.466 368.055 422.33C365.471 422.263 361.595 422.06 356.835 421.857C356.767 421.857 356.155 421.992 355.951 422.466C355.679 422.94 355.883 423.684 356.495 424.091C360.303 424.294 363.363 424.632 365.539 424.835C371.251 425.445 373.086 425.918 377.506 425.986C380.566 426.054 382.946 425.918 384.306 425.783C386.482 425.58 388.454 425.309 389.95 425.106C390.086 425.106 390.562 425.106 390.834 424.768C390.834 424.768 391.038 424.429 390.766 423.82C390.154 422.398 383.558 422.737 381.11 422.872Z" fill="#CE8F31"/>
<path d="M387.366 439.323C386.89 439.323 385.87 439.323 383.83 439.187C382.742 439.12 381.246 439.052 379.342 438.917C379.274 438.917 378.458 438.781 378.05 439.187C377.778 439.526 377.846 440.067 377.982 440.338C378.39 441.421 380.838 441.421 384.306 441.421C385.666 441.421 388.114 441.421 391.582 441.421C391.65 441.421 392.194 441.557 392.466 441.218C392.738 440.88 392.534 440.271 392.262 440C391.922 439.526 391.31 439.526 390.426 439.458C388.59 439.39 387.706 439.323 387.366 439.323Z" fill="#CE8F31"/>
<path d="M281.868 132.834C281.868 121.82 282.009 121.259 281.939 114.664C281.939 106.737 281.656 101.686 281.868 95.5131C281.868 94.8817 281.868 94.4608 281.939 93.619C282.151 85.3411 281.868 83.7276 281.656 82.8858C281.374 81.6231 280.809 80.5007 279.749 78.2558C277.7 73.8363 275.369 70.3287 274.663 69.3466C271.201 64.7166 262.3 62.4718 254.035 62.5419C250.22 62.5419 246.547 63.033 243.509 63.945C240.472 63.033 236.798 62.5419 232.984 62.5419C224.719 62.4718 215.818 64.7166 212.356 69.3466C211.65 70.3287 209.319 73.8363 207.27 78.2558C206.21 80.4305 205.716 81.5529 205.363 82.8157C205.151 83.7276 204.868 85.3411 205.08 93.5488C205.08 94.3906 205.08 94.8115 205.151 95.4429C205.363 101.616 205.151 106.737 205.08 114.594C205.08 121.188 205.221 121.75 205.151 132.763C205.151 134.166 205.151 135.499 205.151 136.902C205.08 142.094 204.727 146.373 205.433 151.634C205.575 152.757 205.786 153.879 206.564 155.072C206.917 155.563 207.27 155.983 207.623 156.334C208.895 157.878 210.59 158.93 211.791 159C211.932 159 212.356 159 212.921 159H213.063H213.698C214.264 159 214.687 159 214.829 159H272.261C272.402 159 272.826 159 273.391 159H274.027H274.168C274.733 159 275.157 159 275.298 159C276.499 158.93 278.195 157.878 279.466 156.334C279.89 155.983 280.243 155.563 280.526 155.072C281.303 153.879 281.515 152.757 281.656 151.634C282.363 146.373 282.009 142.094 281.939 136.902C281.797 135.569 281.868 134.166 281.868 132.834Z" fill="#C890A7"/>
<path d="M275.722 71.8721H211.155C208.4 71.8721 206.14 69.6272 206.14 66.8913V61.9807C206.069 59.2448 208.33 57 211.155 57H275.722C278.477 57 280.738 59.2448 280.738 61.9807V66.8913C280.738 69.6272 278.477 71.8721 275.722 71.8721Z" fill="#8A8C95"/>
<path d="M278.407 125.678C278.407 113.472 278.548 112.84 278.477 105.545C278.477 96.7758 278.265 91.1637 278.407 84.2888C278.407 84.2187 277.559 82.956 277.347 82.3948C276.923 81.9739 276.217 81.3425 275.298 80.7813C272.19 78.9573 268.729 79.1678 264.561 79.5186C262.795 79.6589 262.23 79.8693 258.344 80.2201C255.801 80.4305 254.883 80.5007 253.823 80.4305C252.269 80.2902 252.128 80.0798 248.949 79.5186C246.194 78.9573 244.781 78.6767 243.156 78.6767C241.249 78.6066 239.765 78.817 238.282 79.0977C235.88 79.4484 235.456 79.9395 232.984 80.2902C232.277 80.3604 231.006 80.5708 229.381 80.5007C227.191 80.4305 225.99 80.0096 224.436 79.6589C223.659 79.5186 218.714 78.4663 213.628 79.8693C213.628 79.8693 211.438 80.5007 209.884 81.9739C209.601 82.2545 208.542 83.2366 208.612 84.359C208.753 91.0935 208.542 96.7758 208.542 105.475C208.542 112.77 208.612 113.402 208.612 125.608C208.612 127.151 208.612 128.624 208.612 130.168C208.542 135.92 208.259 140.69 208.824 146.443C208.965 147.635 209.107 148.898 209.813 150.231C210.096 150.792 210.449 151.283 210.802 151.634C211.932 153.388 213.486 154.51 214.546 154.58C214.617 154.58 215.041 154.58 215.535 154.58H215.676H216.242C216.736 154.58 217.089 154.58 217.231 154.58H269.506C269.647 154.58 270 154.58 270.495 154.58H271.06H271.201C271.696 154.58 272.12 154.58 272.19 154.58C273.32 154.51 274.804 153.388 275.934 151.634C276.287 151.213 276.641 150.722 276.923 150.231C277.63 148.898 277.771 147.635 277.912 146.443C278.548 140.62 278.195 135.92 278.124 130.168C278.336 128.695 278.407 127.151 278.407 125.678Z" fill="#B44276"/>
<path d="M272.755 132.202V101.055C270.212 101.055 268.164 99.3714 268.164 97.337H218.714C218.714 99.3714 216.665 101.055 214.122 101.055V132.272C216.665 132.272 218.714 133.956 218.714 135.99H268.164C268.164 133.886 270.212 132.202 272.755 132.202Z" fill="white"/>
<path opacity="0.39" d="M216.524 146.373V96.5653C216.524 94.3906 218.361 92.5667 220.551 92.5667C222.741 92.5667 224.577 94.3906 224.577 96.5653V146.443C224.577 148.618 222.741 150.442 220.551 150.442C218.29 150.371 216.524 148.618 216.524 146.373Z" fill="white"/>
<path opacity="0.39" d="M216.524 84.9904V80.1499C216.524 77.9752 218.361 76.1513 220.551 76.1513C222.741 76.1513 224.577 77.9752 224.577 80.1499V84.9904C224.577 87.1651 222.741 88.989 220.551 88.989C218.29 88.989 216.524 87.1651 216.524 84.9904Z" fill="white"/>
<path d="M421.868 132.834C421.868 121.82 422.009 121.259 421.939 114.664C421.939 106.737 421.656 101.686 421.868 95.5131C421.868 94.8817 421.868 94.4608 421.939 93.619C422.151 85.3411 421.868 83.7276 421.656 82.8858C421.374 81.6231 420.809 80.5007 419.749 78.2558C417.7 73.8363 415.369 70.3287 414.663 69.3466C411.201 64.7166 402.3 62.4718 394.035 62.5419C390.22 62.5419 386.547 63.033 383.509 63.945C380.472 63.033 376.798 62.5419 372.984 62.5419C364.719 62.4718 355.818 64.7166 352.356 69.3466C351.65 70.3287 349.319 73.8363 347.27 78.2558C346.21 80.4305 345.716 81.5529 345.363 82.8157C345.151 83.7276 344.868 85.3411 345.08 93.5488C345.08 94.3906 345.08 94.8115 345.151 95.4429C345.363 101.616 345.151 106.737 345.08 114.594C345.08 121.188 345.221 121.75 345.151 132.763C345.151 134.166 345.151 135.499 345.151 136.902C345.08 142.094 344.727 146.373 345.433 151.634C345.575 152.757 345.786 153.879 346.564 155.072C346.917 155.563 347.27 155.983 347.623 156.334C348.895 157.878 350.59 158.93 351.791 159C351.932 159 352.356 159 352.921 159H353.063H353.698C354.264 159 354.687 159 354.829 159H412.261C412.402 159 412.826 159 413.391 159H414.027H414.168C414.733 159 415.157 159 415.298 159C416.499 158.93 418.195 157.878 419.466 156.334C419.89 155.983 420.243 155.563 420.526 155.072C421.303 153.879 421.515 152.757 421.656 151.634C422.363 146.373 422.009 142.094 421.939 136.902C421.797 135.569 421.868 134.166 421.868 132.834Z" fill="#C890A7"/>
<path d="M415.722 71.8721H351.155C348.4 71.8721 346.14 69.6272 346.14 66.8913V61.9807C346.069 59.2448 348.33 57 351.155 57H415.722C418.477 57 420.738 59.2448 420.738 61.9807V66.8913C420.738 69.6272 418.477 71.8721 415.722 71.8721Z" fill="#8A8C95"/>
<path d="M418.407 125.678C418.407 113.472 418.548 112.84 418.477 105.545C418.477 96.7758 418.265 91.1637 418.407 84.2888C418.407 84.2187 417.559 82.956 417.347 82.3948C416.923 81.9739 416.217 81.3425 415.298 80.7813C412.19 78.9573 408.729 79.1678 404.561 79.5186C402.795 79.6589 402.23 79.8693 398.344 80.2201C395.801 80.4305 394.883 80.5007 393.823 80.4305C392.269 80.2902 392.128 80.0798 388.949 79.5186C386.194 78.9573 384.781 78.6767 383.156 78.6767C381.249 78.6066 379.765 78.817 378.282 79.0977C375.88 79.4484 375.456 79.9395 372.984 80.2902C372.277 80.3604 371.006 80.5708 369.381 80.5007C367.191 80.4305 365.99 80.0096 364.436 79.6589C363.659 79.5186 358.714 78.4663 353.628 79.8693C353.628 79.8693 351.438 80.5007 349.884 81.9739C349.601 82.2545 348.542 83.2366 348.612 84.359C348.753 91.0935 348.542 96.7758 348.542 105.475C348.542 112.77 348.612 113.402 348.612 125.608C348.612 127.151 348.612 128.624 348.612 130.168C348.542 135.92 348.259 140.69 348.824 146.443C348.965 147.635 349.107 148.898 349.813 150.231C350.096 150.792 350.449 151.283 350.802 151.634C351.932 153.388 353.486 154.51 354.546 154.58C354.617 154.58 355.041 154.58 355.535 154.58H355.676H356.242C356.736 154.58 357.089 154.58 357.231 154.58H409.506C409.647 154.58 410 154.58 410.495 154.58H411.06H411.201C411.696 154.58 412.12 154.58 412.19 154.58C413.32 154.51 414.804 153.388 415.934 151.634C416.287 151.213 416.641 150.722 416.923 150.231C417.63 148.898 417.771 147.635 417.912 146.443C418.548 140.62 418.195 135.92 418.124 130.168C418.336 128.695 418.407 127.151 418.407 125.678Z" fill="#B44276"/>
<path d="M412.755 132.202V101.055C410.212 101.055 408.164 99.3714 408.164 97.337H358.714C358.714 99.3714 356.665 101.055 354.122 101.055V132.272C356.665 132.272 358.714 133.956 358.714 135.99H408.164C408.164 133.886 410.212 132.202 412.755 132.202Z" fill="white"/>
<path opacity="0.39" d="M356.524 146.373V96.5653C356.524 94.3906 358.361 92.5667 360.551 92.5667C362.741 92.5667 364.577 94.3906 364.577 96.5653V146.443C364.577 148.618 362.741 150.442 360.551 150.442C358.29 150.371 356.524 148.618 356.524 146.373Z" fill="white"/>
<path opacity="0.39" d="M356.524 84.9904V80.1499C356.524 77.9752 358.361 76.1513 360.551 76.1513C362.741 76.1513 364.577 77.9752 364.577 80.1499V84.9904C364.577 87.1651 362.741 88.989 360.551 88.989C358.29 88.989 356.524 87.1651 356.524 84.9904Z" fill="white"/>
<path d="M561.868 132.834C561.868 121.82 562.009 121.259 561.939 114.664C561.939 106.737 561.656 101.686 561.868 95.5131C561.868 94.8817 561.868 94.4608 561.939 93.619C562.151 85.3411 561.868 83.7276 561.656 82.8858C561.374 81.6231 560.809 80.5007 559.749 78.2558C557.7 73.8363 555.369 70.3287 554.663 69.3466C551.201 64.7166 542.3 62.4718 534.035 62.5419C530.22 62.5419 526.547 63.033 523.509 63.945C520.472 63.033 516.798 62.5419 512.984 62.5419C504.719 62.4718 495.818 64.7166 492.356 69.3466C491.65 70.3287 489.319 73.8363 487.27 78.2558C486.21 80.4305 485.716 81.5529 485.363 82.8157C485.151 83.7276 484.868 85.3411 485.08 93.5488C485.08 94.3906 485.08 94.8115 485.151 95.4429C485.363 101.616 485.151 106.737 485.08 114.594C485.08 121.188 485.221 121.75 485.151 132.763C485.151 134.166 485.151 135.499 485.151 136.902C485.08 142.094 484.727 146.373 485.433 151.634C485.575 152.757 485.786 153.879 486.564 155.072C486.917 155.563 487.27 155.983 487.623 156.334C488.895 157.878 490.59 158.93 491.791 159C491.932 159 492.356 159 492.921 159H493.063H493.698C494.264 159 494.687 159 494.829 159H552.261C552.402 159 552.826 159 553.391 159H554.027H554.168C554.733 159 555.157 159 555.298 159C556.499 158.93 558.195 157.878 559.466 156.334C559.89 155.983 560.243 155.563 560.526 155.072C561.303 153.879 561.515 152.757 561.656 151.634C562.363 146.373 562.009 142.094 561.939 136.902C561.797 135.569 561.868 134.166 561.868 132.834Z" fill="#C890A7"/>
<path d="M555.722 71.8721H491.155C488.4 71.8721 486.14 69.6272 486.14 66.8913V61.9807C486.069 59.2448 488.33 57 491.155 57H555.722C558.477 57 560.738 59.2448 560.738 61.9807V66.8913C560.738 69.6272 558.477 71.8721 555.722 71.8721Z" fill="#8A8C95"/>
<path d="M558.407 125.678C558.407 113.472 558.548 112.84 558.477 105.545C558.477 96.7758 558.265 91.1637 558.407 84.2888C558.407 84.2187 557.559 82.956 557.347 82.3948C556.923 81.9739 556.217 81.3425 555.298 80.7813C552.19 78.9573 548.729 79.1678 544.561 79.5186C542.795 79.6589 542.23 79.8693 538.344 80.2201C535.801 80.4305 534.883 80.5007 533.823 80.4305C532.269 80.2902 532.128 80.0798 528.949 79.5186C526.194 78.9573 524.781 78.6767 523.156 78.6767C521.249 78.6066 519.765 78.817 518.282 79.0977C515.88 79.4484 515.456 79.9395 512.984 80.2902C512.277 80.3604 511.006 80.5708 509.381 80.5007C507.191 80.4305 505.99 80.0096 504.436 79.6589C503.659 79.5186 498.714 78.4663 493.628 79.8693C493.628 79.8693 491.438 80.5007 489.884 81.9739C489.601 82.2545 488.542 83.2366 488.612 84.359C488.753 91.0935 488.542 96.7758 488.542 105.475C488.542 112.77 488.612 113.402 488.612 125.608C488.612 127.151 488.612 128.624 488.612 130.168C488.542 135.92 488.259 140.69 488.824 146.443C488.965 147.635 489.107 148.898 489.813 150.231C490.096 150.792 490.449 151.283 490.802 151.634C491.932 153.388 493.486 154.51 494.546 154.58C494.617 154.58 495.041 154.58 495.535 154.58H495.676H496.242C496.736 154.58 497.089 154.58 497.231 154.58H549.506C549.647 154.58 550 154.58 550.495 154.58H551.06H551.201C551.696 154.58 552.12 154.58 552.19 154.58C553.32 154.51 554.804 153.388 555.934 151.634C556.287 151.213 556.641 150.722 556.923 150.231C557.63 148.898 557.771 147.635 557.912 146.443C558.548 140.62 558.195 135.92 558.124 130.168C558.336 128.695 558.407 127.151 558.407 125.678Z" fill="#B44276"/>
<path d="M552.755 132.202V101.055C550.212 101.055 548.164 99.3714 548.164 97.337H498.714C498.714 99.3714 496.665 101.055 494.122 101.055V132.272C496.665 132.272 498.714 133.956 498.714 135.99H548.164C548.164 133.886 550.212 132.202 552.755 132.202Z" fill="white"/>
<path opacity="0.39" d="M496.524 146.373V96.5653C496.524 94.3906 498.361 92.5667 500.551 92.5667C502.741 92.5667 504.577 94.3906 504.577 96.5653V146.443C504.577 148.618 502.741 150.442 500.551 150.442C498.29 150.371 496.524 148.618 496.524 146.373Z" fill="white"/>
<path opacity="0.39" d="M496.524 84.9904V80.1499C496.524 77.9752 498.361 76.1513 500.551 76.1513C502.741 76.1513 504.577 77.9752 504.577 80.1499V84.9904C504.577 87.1651 502.741 88.989 500.551 88.989C498.29 88.989 496.524 87.1651 496.524 84.9904Z" fill="white"/>
<path d="M701.868 132.834C701.868 121.82 702.009 121.259 701.939 114.664C701.939 106.737 701.656 101.686 701.868 95.5131C701.868 94.8817 701.868 94.4608 701.939 93.619C702.151 85.3411 701.868 83.7276 701.656 82.8858C701.374 81.6231 700.809 80.5007 699.749 78.2558C697.7 73.8363 695.369 70.3287 694.663 69.3466C691.201 64.7166 682.3 62.4718 674.035 62.5419C670.22 62.5419 666.547 63.033 663.509 63.945C660.472 63.033 656.798 62.5419 652.984 62.5419C644.719 62.4718 635.818 64.7166 632.356 69.3466C631.65 70.3287 629.319 73.8363 627.27 78.2558C626.21 80.4305 625.716 81.5529 625.363 82.8157C625.151 83.7276 624.868 85.3411 625.08 93.5488C625.08 94.3906 625.08 94.8115 625.151 95.4429C625.363 101.616 625.151 106.737 625.08 114.594C625.08 121.188 625.221 121.75 625.151 132.763C625.151 134.166 625.151 135.499 625.151 136.902C625.08 142.094 624.727 146.373 625.433 151.634C625.575 152.757 625.786 153.879 626.564 155.072C626.917 155.563 627.27 155.983 627.623 156.334C628.895 157.878 630.59 158.93 631.791 159C631.932 159 632.356 159 632.921 159H633.063H633.698C634.264 159 634.687 159 634.829 159H692.261C692.402 159 692.826 159 693.391 159H694.027H694.168C694.733 159 695.157 159 695.298 159C696.499 158.93 698.195 157.878 699.466 156.334C699.89 155.983 700.243 155.563 700.526 155.072C701.303 153.879 701.515 152.757 701.656 151.634C702.363 146.373 702.009 142.094 701.939 136.902C701.797 135.569 701.868 134.166 701.868 132.834Z" fill="#C890A7"/>
<path d="M695.722 71.8721H631.155C628.4 71.8721 626.14 69.6272 626.14 66.8913V61.9807C626.069 59.2448 628.33 57 631.155 57H695.722C698.477 57 700.738 59.2448 700.738 61.9807V66.8913C700.738 69.6272 698.477 71.8721 695.722 71.8721Z" fill="#8A8C95"/>
<path d="M698.407 125.678C698.407 113.472 698.548 112.84 698.477 105.545C698.477 96.7758 698.265 91.1637 698.407 84.2888C698.407 84.2187 697.559 82.956 697.347 82.3948C696.923 81.9739 696.217 81.3425 695.298 80.7813C692.19 78.9573 688.729 79.1678 684.561 79.5186C682.795 79.6589 682.23 79.8693 678.344 80.2201C675.801 80.4305 674.883 80.5007 673.823 80.4305C672.269 80.2902 672.128 80.0798 668.949 79.5186C666.194 78.9573 664.781 78.6767 663.156 78.6767C661.249 78.6066 659.765 78.817 658.282 79.0977C655.88 79.4484 655.456 79.9395 652.984 80.2902C652.277 80.3604 651.006 80.5708 649.381 80.5007C647.191 80.4305 645.99 80.0096 644.436 79.6589C643.659 79.5186 638.714 78.4663 633.628 79.8693C633.628 79.8693 631.438 80.5007 629.884 81.9739C629.601 82.2545 628.542 83.2366 628.612 84.359C628.753 91.0935 628.542 96.7758 628.542 105.475C628.542 112.77 628.612 113.402 628.612 125.608C628.612 127.151 628.612 128.624 628.612 130.168C628.542 135.92 628.259 140.69 628.824 146.443C628.965 147.635 629.107 148.898 629.813 150.231C630.096 150.792 630.449 151.283 630.802 151.634C631.932 153.388 633.486 154.51 634.546 154.58C634.617 154.58 635.041 154.58 635.535 154.58H635.676H636.242C636.736 154.58 637.089 154.58 637.231 154.58H689.506C689.647 154.58 690 154.58 690.495 154.58H691.06H691.201C691.696 154.58 692.12 154.58 692.19 154.58C693.32 154.51 694.804 153.388 695.934 151.634C696.287 151.213 696.641 150.722 696.923 150.231C697.63 148.898 697.771 147.635 697.912 146.443C698.548 140.62 698.195 135.92 698.124 130.168C698.336 128.695 698.407 127.151 698.407 125.678Z" fill="#B44276"/>
<path d="M692.755 132.202V101.055C690.212 101.055 688.164 99.3714 688.164 97.337H638.714C638.714 99.3714 636.665 101.055 634.122 101.055V132.272C636.665 132.272 638.714 133.956 638.714 135.99H688.164C688.164 133.886 690.212 132.202 692.755 132.202Z" fill="white"/>
<path opacity="0.39" d="M636.524 146.373V96.5653C636.524 94.3906 638.361 92.5667 640.551 92.5667C642.741 92.5667 644.577 94.3906 644.577 96.5653V146.443C644.577 148.618 642.741 150.442 640.551 150.442C638.29 150.371 636.524 148.618 636.524 146.373Z" fill="white"/>
<path opacity="0.39" d="M636.524 84.9904V80.1499C636.524 77.9752 638.361 76.1513 640.551 76.1513C642.741 76.1513 644.577 77.9752 644.577 80.1499V84.9904C644.577 87.1651 642.741 88.989 640.551 88.989C638.29 88.989 636.524 87.1651 636.524 84.9904Z" fill="white"/>
<path d="M561.868 263.834C561.868 252.82 562.009 252.259 561.939 245.664C561.939 237.737 561.656 232.686 561.868 226.513C561.868 225.882 561.868 225.461 561.939 224.619C562.151 216.341 561.868 214.728 561.656 213.886C561.374 212.623 560.809 211.501 559.749 209.256C557.7 204.836 555.369 201.329 554.663 200.347C551.201 195.717 542.3 193.472 534.035 193.542C530.22 193.542 526.547 194.033 523.509 194.945C520.472 194.033 516.798 193.542 512.984 193.542C504.719 193.472 495.818 195.717 492.356 200.347C491.65 201.329 489.319 204.836 487.27 209.256C486.21 211.431 485.716 212.553 485.363 213.816C485.151 214.728 484.868 216.341 485.08 224.549C485.08 225.391 485.08 225.812 485.151 226.443C485.363 232.616 485.151 237.737 485.08 245.594C485.08 252.188 485.221 252.75 485.151 263.763C485.151 265.166 485.151 266.499 485.151 267.902C485.08 273.094 484.727 277.373 485.433 282.634C485.575 283.757 485.786 284.879 486.564 286.072C486.917 286.563 487.27 286.983 487.623 287.334C488.895 288.878 490.59 289.93 491.791 290C491.932 290 492.356 290 492.921 290H493.063H493.698C494.264 290 494.687 290 494.829 290H552.261C552.402 290 552.826 290 553.391 290H554.027H554.168C554.733 290 555.157 290 555.298 290C556.499 289.93 558.195 288.878 559.466 287.334C559.89 286.983 560.243 286.563 560.526 286.072C561.303 284.879 561.515 283.757 561.656 282.634C562.363 277.373 562.009 273.094 561.939 267.902C561.797 266.569 561.868 265.166 561.868 263.834Z" fill="#C890A7"/>
<path d="M555.722 202.872H491.155C488.4 202.872 486.14 200.627 486.14 197.891V192.981C486.069 190.245 488.33 188 491.155 188H555.722C558.477 188 560.738 190.245 560.738 192.981V197.891C560.738 200.627 558.477 202.872 555.722 202.872Z" fill="#8A8C95"/>
<path d="M558.407 256.678C558.407 244.472 558.548 243.84 558.477 236.545C558.477 227.776 558.265 222.164 558.407 215.289C558.407 215.219 557.559 213.956 557.347 213.395C556.923 212.974 556.217 212.342 555.298 211.781C552.19 209.957 548.729 210.168 544.561 210.519C542.795 210.659 542.23 210.869 538.344 211.22C535.801 211.431 534.883 211.501 533.823 211.431C532.269 211.29 532.128 211.08 528.949 210.519C526.194 209.957 524.781 209.677 523.156 209.677C521.249 209.607 519.765 209.817 518.282 210.098C515.88 210.448 515.456 210.939 512.984 211.29C512.277 211.36 511.006 211.571 509.381 211.501C507.191 211.431 505.99 211.01 504.436 210.659C503.659 210.519 498.714 209.466 493.628 210.869C493.628 210.869 491.438 211.501 489.884 212.974C489.601 213.254 488.542 214.237 488.612 215.359C488.753 222.094 488.542 227.776 488.542 236.475C488.542 243.77 488.612 244.402 488.612 256.608C488.612 258.151 488.612 259.624 488.612 261.168C488.542 266.92 488.259 271.69 488.824 277.443C488.965 278.635 489.107 279.898 489.813 281.231C490.096 281.792 490.449 282.283 490.802 282.634C491.932 284.388 493.486 285.51 494.546 285.58C494.617 285.58 495.041 285.58 495.535 285.58H495.676H496.242C496.736 285.58 497.089 285.58 497.231 285.58H549.506C549.647 285.58 550 285.58 550.495 285.58H551.06H551.201C551.696 285.58 552.12 285.58 552.19 285.58C553.32 285.51 554.804 284.388 555.934 282.634C556.287 282.213 556.641 281.722 556.923 281.231C557.63 279.898 557.771 278.635 557.912 277.443C558.548 271.62 558.195 266.92 558.124 261.168C558.336 259.695 558.407 258.151 558.407 256.678Z" fill="#B44276"/>
<path d="M552.755 263.202V232.055C550.212 232.055 548.164 230.371 548.164 228.337H498.714C498.714 230.371 496.665 232.055 494.122 232.055V263.272C496.665 263.272 498.714 264.956 498.714 266.99H548.164C548.164 264.886 550.212 263.202 552.755 263.202Z" fill="white"/>
<path opacity="0.39" d="M496.524 277.373V227.565C496.524 225.391 498.361 223.567 500.551 223.567C502.741 223.567 504.577 225.391 504.577 227.565V277.443C504.577 279.618 502.741 281.442 500.551 281.442C498.29 281.371 496.524 279.618 496.524 277.373Z" fill="white"/>
<path opacity="0.39" d="M496.524 215.99V211.15C496.524 208.975 498.361 207.151 500.551 207.151C502.741 207.151 504.577 208.975 504.577 211.15V215.99C504.577 218.165 502.741 219.989 500.551 219.989C498.29 219.989 496.524 218.165 496.524 215.99Z" fill="white"/>
<path d="M701.868 263.834C701.868 252.82 702.009 252.259 701.939 245.664C701.939 237.737 701.656 232.686 701.868 226.513C701.868 225.882 701.868 225.461 701.939 224.619C702.151 216.341 701.868 214.728 701.656 213.886C701.374 212.623 700.809 211.501 699.749 209.256C697.7 204.836 695.369 201.329 694.663 200.347C691.201 195.717 682.3 193.472 674.035 193.542C670.22 193.542 666.547 194.033 663.509 194.945C660.472 194.033 656.798 193.542 652.984 193.542C644.719 193.472 635.818 195.717 632.356 200.347C631.65 201.329 629.319 204.836 627.27 209.256C626.21 211.431 625.716 212.553 625.363 213.816C625.151 214.728 624.868 216.341 625.08 224.549C625.08 225.391 625.08 225.812 625.151 226.443C625.363 232.616 625.151 237.737 625.08 245.594C625.08 252.188 625.221 252.75 625.151 263.763C625.151 265.166 625.151 266.499 625.151 267.902C625.08 273.094 624.727 277.373 625.433 282.634C625.575 283.757 625.786 284.879 626.564 286.072C626.917 286.563 627.27 286.983 627.623 287.334C628.895 288.878 630.59 289.93 631.791 290C631.932 290 632.356 290 632.921 290H633.063H633.698C634.264 290 634.687 290 634.829 290H692.261C692.402 290 692.826 290 693.391 290H694.027H694.168C694.733 290 695.157 290 695.298 290C696.499 289.93 698.195 288.878 699.466 287.334C699.89 286.983 700.243 286.563 700.526 286.072C701.303 284.879 701.515 283.757 701.656 282.634C702.363 277.373 702.009 273.094 701.939 267.902C701.797 266.569 701.868 265.166 701.868 263.834Z" fill="#C890A7"/>
<path d="M695.722 202.872H631.155C628.4 202.872 626.14 200.627 626.14 197.891V192.981C626.069 190.245 628.33 188 631.155 188H695.722C698.477 188 700.738 190.245 700.738 192.981V197.891C700.738 200.627 698.477 202.872 695.722 202.872Z" fill="#8A8C95"/>
<path d="M698.407 256.678C698.407 244.472 698.548 243.84 698.477 236.545C698.477 227.776 698.265 222.164 698.407 215.289C698.407 215.219 697.559 213.956 697.347 213.395C696.923 212.974 696.217 212.342 695.298 211.781C692.19 209.957 688.729 210.168 684.561 210.519C682.795 210.659 682.23 210.869 678.344 211.22C675.801 211.431 674.883 211.501 673.823 211.431C672.269 211.29 672.128 211.08 668.949 210.519C666.194 209.957 664.781 209.677 663.156 209.677C661.249 209.607 659.765 209.817 658.282 210.098C655.88 210.448 655.456 210.939 652.984 211.29C652.277 211.36 651.006 211.571 649.381 211.501C647.191 211.431 645.99 211.01 644.436 210.659C643.659 210.519 638.714 209.466 633.628 210.869C633.628 210.869 631.438 211.501 629.884 212.974C629.601 213.254 628.542 214.237 628.612 215.359C628.753 222.094 628.542 227.776 628.542 236.475C628.542 243.77 628.612 244.402 628.612 256.608C628.612 258.151 628.612 259.624 628.612 261.168C628.542 266.92 628.259 271.69 628.824 277.443C628.965 278.635 629.107 279.898 629.813 281.231C630.096 281.792 630.449 282.283 630.802 282.634C631.932 284.388 633.486 285.51 634.546 285.58C634.617 285.58 635.041 285.58 635.535 285.58H635.676H636.242C636.736 285.58 637.089 285.58 637.231 285.58H689.506C689.647 285.58 690 285.58 690.495 285.58H691.06H691.201C691.696 285.58 692.12 285.58 692.19 285.58C693.32 285.51 694.804 284.388 695.934 282.634C696.287 282.213 696.641 281.722 696.923 281.231C697.63 279.898 697.771 278.635 697.912 277.443C698.548 271.62 698.195 266.92 698.124 261.168C698.336 259.695 698.407 258.151 698.407 256.678Z" fill="#B44276"/>
<path d="M692.755 263.202V232.055C690.212 232.055 688.164 230.371 688.164 228.337H638.714C638.714 230.371 636.665 232.055 634.122 232.055V263.272C636.665 263.272 638.714 264.956 638.714 266.99H688.164C688.164 264.886 690.212 263.202 692.755 263.202Z" fill="white"/>
<path opacity="0.39" d="M636.524 277.373V227.565C636.524 225.391 638.361 223.567 640.551 223.567C642.741 223.567 644.577 225.391 644.577 227.565V277.443C644.577 279.618 642.741 281.442 640.551 281.442C638.29 281.371 636.524 279.618 636.524 277.373Z" fill="white"/>
<path opacity="0.39" d="M636.524 215.99V211.15C636.524 208.975 638.361 207.151 640.551 207.151C642.741 207.151 644.577 208.975 644.577 211.15V215.99C644.577 218.165 642.741 219.989 640.551 219.989C638.29 219.989 636.524 218.165 636.524 215.99Z" fill="white"/>
<path d="M701.868 394.833C701.868 383.82 702.009 383.259 701.939 376.664C701.939 368.737 701.656 363.686 701.868 357.513C701.868 356.882 701.868 356.461 701.939 355.619C702.151 347.341 701.868 345.728 701.656 344.886C701.374 343.623 700.809 342.501 699.749 340.256C697.7 335.836 695.369 332.329 694.663 331.347C691.201 326.717 682.3 324.472 674.035 324.542C670.22 324.542 666.547 325.033 663.509 325.945C660.472 325.033 656.798 324.542 652.984 324.542C644.719 324.472 635.818 326.717 632.356 331.347C631.65 332.329 629.319 335.836 627.27 340.256C626.21 342.43 625.716 343.553 625.363 344.816C625.151 345.728 624.868 347.341 625.08 355.549C625.08 356.391 625.08 356.811 625.151 357.443C625.363 363.616 625.151 368.737 625.08 376.594C625.08 383.188 625.221 383.75 625.151 394.763C625.151 396.166 625.151 397.499 625.151 398.902C625.08 404.093 624.727 408.373 625.433 413.634C625.575 414.756 625.786 415.879 626.564 417.071C626.917 417.563 627.27 417.983 627.623 418.334C628.895 419.878 630.59 420.93 631.791 421C631.932 421 632.356 421 632.921 421H633.063H633.698C634.264 421 634.687 421 634.829 421H692.261C692.402 421 692.826 421 693.391 421H694.027H694.168C694.733 421 695.157 421 695.298 421C696.499 420.93 698.195 419.878 699.466 418.334C699.89 417.983 700.243 417.563 700.526 417.071C701.303 415.879 701.515 414.756 701.656 413.634C702.363 408.373 702.009 404.093 701.939 398.902C701.797 397.569 701.868 396.166 701.868 394.833Z" fill="#C890A7"/>
<path d="M695.722 333.872H631.155C628.4 333.872 626.14 331.627 626.14 328.891V323.981C626.069 321.245 628.33 319 631.155 319H695.722C698.477 319 700.738 321.245 700.738 323.981V328.891C700.738 331.627 698.477 333.872 695.722 333.872Z" fill="#8A8C95"/>
<path d="M698.407 387.678C698.407 375.472 698.548 374.84 698.477 367.545C698.477 358.776 698.265 353.164 698.407 346.289C698.407 346.219 697.559 344.956 697.347 344.395C696.923 343.974 696.217 343.342 695.298 342.781C692.19 340.957 688.729 341.168 684.561 341.518C682.795 341.659 682.23 341.869 678.344 342.22C675.801 342.43 674.883 342.501 673.823 342.43C672.269 342.29 672.128 342.08 668.949 341.518C666.194 340.957 664.781 340.677 663.156 340.677C661.249 340.607 659.765 340.817 658.282 341.098C655.88 341.448 655.456 341.939 652.984 342.29C652.277 342.36 651.006 342.571 649.381 342.501C647.191 342.43 645.99 342.01 644.436 341.659C643.659 341.518 638.714 340.466 633.628 341.869C633.628 341.869 631.438 342.501 629.884 343.974C629.601 344.254 628.542 345.237 628.612 346.359C628.753 353.093 628.542 358.776 628.542 367.474C628.542 374.77 628.612 375.402 628.612 387.608C628.612 389.151 628.612 390.624 628.612 392.168C628.542 397.92 628.259 402.69 628.824 408.443C628.965 409.635 629.107 410.898 629.813 412.231C630.096 412.792 630.449 413.283 630.802 413.634C631.932 415.388 633.486 416.51 634.546 416.58C634.617 416.58 635.041 416.58 635.535 416.58H635.676H636.242C636.736 416.58 637.089 416.58 637.231 416.58H689.506C689.647 416.58 690 416.58 690.495 416.58H691.06H691.201C691.696 416.58 692.12 416.58 692.19 416.58C693.32 416.51 694.804 415.388 695.934 413.634C696.287 413.213 696.641 412.722 696.923 412.231C697.63 410.898 697.771 409.635 697.912 408.443C698.548 402.62 698.195 397.92 698.124 392.168C698.336 390.695 698.407 389.151 698.407 387.678Z" fill="#B44276"/>
<path d="M692.755 394.202V363.055C690.212 363.055 688.164 361.371 688.164 359.337H638.714C638.714 361.371 636.665 363.055 634.122 363.055V394.272C636.665 394.272 638.714 395.956 638.714 397.99H688.164C688.164 395.886 690.212 394.202 692.755 394.202Z" fill="white"/>
<path opacity="0.39" d="M636.524 408.373V358.565C636.524 356.391 638.361 354.567 640.551 354.567C642.741 354.567 644.577 356.391 644.577 358.565V408.443C644.577 410.618 642.741 412.441 640.551 412.441C638.29 412.371 636.524 410.618 636.524 408.373Z" fill="white"/>
<path opacity="0.39" d="M636.524 346.99V342.15C636.524 339.975 638.361 338.151 640.551 338.151C642.741 338.151 644.577 339.975 644.577 342.15V346.99C644.577 349.165 642.741 350.989 640.551 350.989C638.29 350.989 636.524 349.165 636.524 346.99Z" fill="white"/>
<path d="M350.103 247.104C350.919 246.021 348.744 243.99 347.52 240.334C346.908 238.507 346.772 237.153 346.568 234.445C346.296 231.06 345.82 224.154 348.812 216.166C349.355 214.609 351.463 209.329 356.359 203.845C359.419 200.392 366.967 191.862 378.934 190.576C391.65 189.222 401.169 196.94 405.249 200.325C407.289 201.949 418.44 211.427 420.684 226.727C422.248 237.559 418.644 247.172 418.372 247.51C418.372 247.51 418.236 247.713 418.236 247.917C418.236 248.187 418.508 248.39 418.644 248.458C419.12 248.797 420.888 249.338 422.656 248.39C422.792 248.323 423.608 247.849 424.288 246.901C425.036 245.818 425.172 244.735 425.24 244.396C425.988 238.574 427.416 234.919 427.348 230.044C427.212 223.477 424.22 207.975 411.097 196.534C407.561 193.419 398.517 185.499 384.918 185.025C366.491 184.348 354.523 197.684 352.211 200.392C349.695 203.236 342.488 211.495 341.128 224.493C339.836 236.882 344.936 246.766 345.072 246.969C345.072 246.969 345.208 247.172 345.276 247.443C345.344 247.646 345.344 247.713 345.344 247.713C345.548 248.187 347.452 247.917 347.452 247.917C349.016 247.51 349.899 247.375 350.103 247.104Z" fill="#AB6F26"/>
<path d="M344.596 250.015C344.732 251.234 344.324 262.742 347.656 273.777C349.559 280.276 351.531 282.307 352.347 283.12C353.367 284.067 355.067 285.354 359.011 286.843C362.207 287.994 365.947 288.874 378.798 289.551C384.782 289.822 387.842 290.025 392.194 289.822C397.701 289.619 401.101 289.483 405.453 288.332C409.533 287.249 414.225 285.963 417.557 281.901C418.78 280.412 419.324 279.193 420.412 276.756C420.412 276.756 424.832 266.534 424.356 250.218C424.356 249.203 424.22 247.917 424.22 247.917C424.22 247.646 424.152 247.51 424.152 247.443C423.676 246.156 383.218 255.431 356.835 249.88C353.231 249.135 344.528 249 344.528 249.474C344.596 249.744 344.596 249.812 344.596 250.015Z" fill="#AB6F26"/>
<path d="M365.335 247.781C361.663 247.24 359.351 246.901 359.351 246.901C354.319 246.156 354.455 246.156 353.503 246.021C350.987 245.75 349.831 245.818 347.384 245.344C346.024 245.073 345.344 244.938 344.8 244.802C342.692 244.193 341.672 243.448 340.04 243.719C339.564 243.787 339.156 243.922 338.816 244.193C338.272 244.599 338 245.276 338 245.953C338.068 246.698 338.544 247.307 339.156 247.849C342.08 250.218 345.548 250.624 345.548 250.624C351.939 251.369 358.263 252.385 364.655 252.994C369.415 253.468 368.939 253.535 372.475 253.874C380.362 254.551 382.878 254.077 405.453 253.129C410.281 252.926 414.973 251.775 419.8 251.505C419.8 251.505 421.568 251.369 427.008 249.541C427.416 249.406 428.708 248.932 429.388 247.849C429.728 247.24 429.796 246.766 429.796 246.63C429.796 246.495 429.796 245.818 429.388 245.276C428.912 244.667 428.096 244.599 427.552 244.532C424.628 244.329 422.384 245.073 422.384 245.073C419.936 245.886 417.285 245.818 414.769 246.359C408.037 247.781 396.477 248.255 391.854 248.458C381.178 248.797 370.571 248.526 365.335 247.781Z" fill="#CE8F31"/>
<path d="M416.129 255.296C414.973 255.837 413.681 255.905 412.457 256.311C409.261 257.327 403.141 258.004 402.053 258.139C393.894 259.019 385.258 258.613 376.214 258.139C371.862 257.936 369.007 257.665 363.363 257.124C358.671 256.65 357.651 256.447 356.699 256.243C355.475 255.905 354.183 255.905 352.959 255.499C352.551 255.363 351.395 254.889 350.443 255.296C349.899 255.499 349.763 255.77 349.695 255.905C349.695 255.905 349.559 256.311 349.695 256.853C350.171 258.613 354.795 259.019 354.795 259.019C361.187 259.561 367.511 260.847 373.902 260.915C383.354 261.05 388.454 261.592 397.361 261.456C398.721 261.456 401.849 261.389 405.929 260.779C407.969 260.508 409.533 260.238 411.573 259.628C415.109 258.545 418.78 256.785 418.78 256.785C418.78 256.785 419.12 256.311 419.12 255.905C419.12 255.499 418.78 255.025 418.508 254.889C417.896 254.416 417.081 254.889 416.129 255.296Z" fill="#CE8F31"/>
<path d="M393.01 278.448C399.333 278.448 400.285 278.922 406.813 278.448C408.581 278.313 410.893 278.11 413.545 277.771C414.021 277.568 414.293 277.23 414.293 276.824C414.293 276.282 413.681 276.011 413.477 275.876C412.729 275.47 411.845 275.605 411.709 275.605C408.173 276.011 404.501 275.267 400.965 275.537C398.109 275.741 394.03 276.011 388.658 276.079C387.706 276.485 387.638 276.824 387.638 276.959C387.706 277.501 389.134 277.839 390.018 278.042C391.718 278.448 393.01 278.448 393.01 278.448Z" fill="#CE8F31"/>
<path d="M371.251 274.996C370.027 274.996 368.055 274.928 365.471 274.86C365.267 274.928 364.383 275.131 364.315 275.673C364.247 276.282 365.335 276.824 365.675 277.027C367.239 277.839 368.599 277.771 372.542 277.771C373.222 277.771 373.902 277.771 374.65 277.771C376.622 277.771 379.41 277.771 383.082 277.771C383.422 277.568 383.898 277.23 383.83 276.891C383.762 276.418 382.606 276.214 381.994 276.079C375.194 275.064 371.251 274.996 371.251 274.996Z" fill="#CE8F31"/>
<path d="M407.969 268.768C407.493 268.768 406.473 268.768 404.433 268.903C403.345 268.971 401.849 269.038 399.945 269.174C399.877 269.174 399.061 269.309 398.653 268.903C398.381 268.565 398.449 268.023 398.585 267.752C398.993 266.669 401.441 266.669 404.909 266.669C406.269 266.669 408.717 266.669 412.185 266.669C412.253 266.669 412.797 266.534 413.069 266.872C413.341 267.211 413.137 267.82 412.865 268.091C412.525 268.565 411.913 268.565 411.029 268.632C409.261 268.7 408.309 268.768 407.969 268.768Z" fill="#CE8F31"/>
<path d="M381.11 266.872C376.758 267.007 372.406 266.466 368.055 266.33C365.471 266.263 361.595 266.06 356.835 265.857C356.767 265.857 356.155 265.992 355.951 266.466C355.679 266.94 355.883 267.684 356.495 268.091C360.303 268.294 363.363 268.632 365.539 268.835C371.251 269.445 373.086 269.918 377.506 269.986C380.566 270.054 382.946 269.918 384.306 269.783C386.482 269.58 388.454 269.309 389.95 269.106C390.086 269.106 390.562 269.106 390.834 268.768C390.834 268.768 391.038 268.429 390.766 267.82C390.154 266.398 383.558 266.737 381.11 266.872Z" fill="#CE8F31"/>
<path d="M387.366 283.323C386.89 283.323 385.87 283.323 383.83 283.187C382.742 283.12 381.246 283.052 379.342 282.917C379.274 282.917 378.458 282.781 378.05 283.187C377.778 283.526 377.846 284.067 377.982 284.338C378.39 285.421 380.838 285.421 384.306 285.421C385.666 285.421 388.114 285.421 391.582 285.421C391.65 285.421 392.194 285.557 392.466 285.218C392.738 284.88 392.534 284.271 392.262 284C391.922 283.526 391.31 283.526 390.426 283.458C388.59 283.39 387.706 283.323 387.366 283.323Z" fill="#CE8F31"/>
</svg>
