<svg viewBox="0 0 137 137" fill="none" xmlns="http://www.w3.org/2000/svg">
    <rect x="2.3811" y="2.02002" width="132.618" height="132.618" rx="30" fill="white" stroke="#116619" stroke-width="4"/>
    <path d="M34.383 120.97C33.5707 120.959 30.4902 120.918 29.0569 118.922C28.0569 117.529 28.1359 115.571 29.9787 110.011C31.4912 105.447 32.3795 103.925 34.7927 97.9244C37.0947 92.2005 37.9055 89.5597 38.0703 86.1454C38.1444 84.6098 38.2137 83.1757 37.8655 81.5363C37.5269 79.9424 36.3253 75.9485 26.8035 69.45C21.3051 65.6975 13.6307 61.5181 10.9738 57.6053C9.71053 55.7448 9.28871 53.6765 9.28871 53.6765C9.10365 52.5662 8.74391 51.0072 9.28871 49.7843C10.8105 46.3684 18.5489 46.8194 20.3523 46.9245C23.7948 47.1252 23.9954 47.7818 30.1835 48.6576C32.7336 49.0186 32.4934 48.8779 36.9436 49.3746C46.2826 50.417 47.1174 51.0116 49.4444 50.323C52.9254 49.293 55.0182 46.7905 56.7118 44.7655C59.5822 41.3332 60.5998 37.9453 61.9355 33.4986C63.2839 29.0097 63.8646 26.779 66.135 20.0809C67.5687 15.8509 68.677 12.9727 71.4508 11.6593C71.956 11.4201 73.441 10.7951 75.2508 11.0674C79.7372 11.7425 81.7504 17.259 82.1134 18.3396C82.4895 19.4594 82.5922 20.589 82.7977 22.8482C83.0269 25.3676 82.9297 27.0557 82.9297 34.4515C82.9297 34.4685 82.9297 34.451 82.9297 34.4515C82.9296 34.4585 82.9105 36.7335 83.3408 40.1648C83.555 41.8737 83.9813 43.8918 85.0432 47.9927C85.1399 48.3662 85.8944 49.7879 86.8302 50.8932C88.717 53.1218 92.0321 54.4501 102.803 54.3935C108.787 54.362 109.46 53.9431 116.221 53.9838C123.972 54.0304 127.275 54.6063 128.512 56.8517C129.144 57.9989 129.015 59.1785 128.922 60.0269C128.668 62.3403 127.261 65.0064 121.547 68.9379C119.995 70.0062 116.941 71.982 111.51 74.3665C104.438 77.4705 100.448 78.1455 98.5015 81.5363C97.3377 83.5639 97.1699 85.7357 97.1699 85.7357C97.1204 86.3779 97.0864 87.6812 97.7026 89.7179C98.6236 92.7618 99.9464 93.9724 102.086 97.5147C102.869 98.81 103.496 100.051 104.749 102.534C108.711 110.377 111.629 116.213 109.461 121.073C109.054 121.985 108.234 123.823 106.388 124.657C102.387 126.466 96.862 122.065 89.488 116.054C84.2806 111.808 81.5912 108.883 74.5339 103.66C70.0105 100.313 68.6524 99.6922 66.9543 99.5632C63.655 99.3126 61.1169 101.074 52.6148 108.679C42.842 117.421 39.5499 121.039 34.383 120.97Z" fill="#A35432"/>
    <path d="M50.6946 52.7019C53.0399 52.4741 53.7924 52.2218 54.324 51.9918C56.6894 50.9684 57.9733 48.9675 58.6161 47.8891C63.7183 39.3277 67.1371 27.7542 67.1371 27.7541C67.8577 25.2793 69.0714 22.9747 69.9696 20.5586C69.9982 20.4816 70.3931 19.4188 71.2477 18.2626C71.7316 17.608 72.0209 17.3861 72.1945 17.2685C72.3958 17.1322 73.2554 16.5522 74.3958 16.7478C75.461 16.9305 76.0691 17.686 76.242 17.9076C76.807 18.6319 76.9147 19.4268 76.9521 19.7301C78.7946 34.6722 79.1928 40.2832 79.1928 40.2832C79.3578 42.6074 79.6306 45.8091 81.0706 49.5302C82.0161 51.9735 82.8272 52.993 83.3429 53.554C84.445 54.7527 86.2507 56.09 90.1834 56.9387C92.926 57.5306 96.3965 57.3177 103.225 56.8677C104.002 56.8165 110.252 56.4006 113.971 56.3943C114.693 56.3931 114.865 56.3845 115.765 56.3998C117.297 56.4259 118.829 56.4925 120.362 56.489C120.627 56.4884 121.305 56.4852 121.933 56.9025C122.013 56.9553 122.408 57.2247 122.705 57.7435C123.17 58.5532 123.056 59.3742 123.013 59.6489C122.901 60.3664 122.559 60.9461 121.948 61.649C120.528 63.2829 118.966 64.0869 118.966 64.0869C114.722 66.2707 112.601 67.3626 108.385 69.4599C105.495 70.8982 103.101 72.2138 102.515 72.537C100.016 73.9159 100.35 73.823 98.8228 74.6199C95.6357 76.2829 94.7759 76.3768 93.4261 77.6496C92.0366 78.9599 91.4121 80.3082 91.2485 80.6793C91.084 81.0528 90.442 82.5797 90.4911 84.7505C90.5458 87.1676 91.4247 88.9385 92.0691 90.2418C96.6303 99.4665 95.4675 97.4663 96.5821 99.4572C98.3924 102.691 100.14 105.96 101.979 109.177C101.979 109.178 102.524 110.073 103.935 113.47C104.279 114.297 104.571 115.048 104.519 116.05C104.497 116.478 104.424 117.592 103.62 118.519C102.642 119.647 101.214 119.772 100.835 119.805C98.4851 120.011 96.6018 118.231 94.6885 116.531C92.1178 114.247 89.3243 112.225 86.7039 109.998C80.1198 104.402 81.8485 106.315 77.4255 102.487C77.1532 102.251 74.5203 99.858 70.8611 98.0054C70.0007 97.5698 68.9644 97.1034 67.5789 96.9877C65.761 96.8358 64.3625 97.3731 63.3657 97.7688C61.3438 98.5713 59.9903 99.7244 57.5904 101.769C57.0777 102.206 57.152 102.161 55.94 103.238C54.0289 104.936 52.5339 106.104 51.0102 107.505C49.5277 108.868 46.5013 111.479 39.6962 116.965C38.636 118.025 37.5983 118.634 36.9031 118.977C35.8892 119.476 35.0321 119.898 33.8498 119.829C33.484 119.807 32.073 119.725 31.0331 118.614C30.3177 117.849 30.1392 116.984 30.0548 116.578C29.8142 115.422 30.0739 114.443 30.3072 113.564C30.4111 113.173 30.5659 112.746 30.8753 111.892C31.1163 111.226 31.2999 110.765 31.5058 110.244C32.1317 108.658 32.3484 108.01 32.5479 107.568C33.5799 105.283 34.5021 103.639 34.9149 102.897C37.9068 97.5196 39.5348 93.8514 42.0473 88.1905C43.4356 85.0625 44.4033 82.6655 43.9725 79.6694C43.9311 79.3816 43.7215 78.0083 42.9626 76.3557C41.5125 73.198 39.1434 71.3863 37.4712 70.17C30.5077 65.1048 24.6581 62.1224 24.6581 62.1224C24.658 62.1223 21.4 60.4396 16.7051 56.5363C16.2383 56.1483 15.0526 55.1364 14.5906 53.4751C14.4514 52.9745 14.1194 51.7804 14.7314 50.6211C15.2 49.7336 15.9788 49.3268 16.2633 49.183C17.6317 48.4914 19.0594 48.7939 20.082 49.0252C22.7053 49.6186 24.017 49.9152 26.4705 50.671C27.4135 50.9614 29.9245 51.2839 34.9465 51.9287C40.9937 52.7051 42.8562 52.8211 43.8778 52.8755C44.4788 52.9074 47.1991 53.0414 50.6946 52.7019Z" fill="#C5643A"/>
    <path d="M42.0413 93.0552C45.2861 85.4404 44.8968 81.4702 44.7041 80.1301C44.5607 79.1327 44.1596 77.1105 43.0866 74.7735C40.7314 69.6447 36.818 66.7982 34.9371 65.4302C26.5473 59.3274 19.5264 55.7269 19.2316 55.5767C19.2316 55.5767 19.2316 55.5767 19.2316 55.5766C19.2349 55.5701 19.2057 55.5492 19.2047 55.5485C19.1775 55.5283 18.1673 54.0423 18.6537 53.0971C18.9837 52.4558 19.8906 52.2813 20.7298 52.2188C23.539 52.0096 25.5169 53.0615 28.1188 53.8029C30.9761 54.617 33.6446 54.6643 38.9726 54.9474C39.8393 54.9935 40.7722 55.0169 41.746 55.0169C41.746 55.0169 41.7463 55.0169 41.7465 55.0169C43.749 55.0169 45.7689 54.9193 47.7509 54.7269C50.9487 54.4163 52.3651 54.0192 53.6141 53.4786C57.2528 51.9039 59.3676 49.0917 61.1233 46.4929C64.0143 42.2137 65.4632 37.6982 68.0804 29.5416C68.5697 28.0167 69.3537 26.5968 69.8371 25.07C70.1147 24.1934 70.3184 23.4258 71.0349 22.7544C71.7033 22.1279 72.9071 21.5017 73.7497 21.876C74.7878 22.3372 74.8779 24.1389 74.9475 25.9484C75.143 31.0335 75.1768 34.9857 75.179 35.2237C75.1907 36.4899 75.4615 41.7483 77.7244 47.5985C79.1414 51.2616 80.5241 53.0107 81.441 54.0074C83.9759 56.7652 87.4172 58.5382 92.2701 59.5854C94.0166 59.9622 95.882 60.1304 98.3184 60.1304C101.147 60.1304 104.792 59.8901 109.012 59.6119L109.069 59.6082C111.026 59.9366 112.459 60.9346 112.716 62.2C112.893 63.0691 112.468 63.8282 112.291 64.1335C110.98 66.3993 107.762 66.4377 105.224 67.838C103.711 68.6725 103.02 69.0818 102.516 69.3807C102.05 69.6568 101.793 69.8089 101.017 70.2142C99.878 70.8082 99.0301 71.2095 98.2821 71.5635C96.5483 72.3844 95.1788 73.0326 93.5013 74.6145C91.3427 76.6494 90.2058 78.8037 89.72 79.9067C89.1878 81.1139 88.3035 83.6401 88.3788 86.9606C88.4688 90.9756 89.9126 93.8942 90.7753 95.6385C93.6902 101.533 94.5798 103.454 95.0072 104.378C95.4324 105.297 95.5472 105.528 96.1867 106.67C97.9162 109.759 98.3328 110.336 98.7316 111.272C99.4535 112.967 99.9483 114.128 99.3814 114.901C98.7526 115.757 97.0957 115.757 96.7915 115.47C96.7669 115.447 96.6354 115.31 96.4271 115.152C96.1272 114.925 95.9864 114.94 92.8286 112.256C88.5846 108.649 87.1266 107.57 85.9555 106.703C85.016 106.008 84.2738 105.459 82.0147 103.504C80.4683 102.141 77.3181 99.5914 73.2473 97.5302C71.763 96.7797 69.9123 95.9854 67.4227 95.778C67.0295 95.7449 66.6316 95.7285 66.2389 95.7285C63.3964 95.7285 61.2252 96.5902 60.0588 97.0528C56.8646 98.3208 54.8492 100.038 51.7982 102.638C51.4193 102.961 51.2756 103.09 50.9584 103.377C50.7366 103.577 50.4126 103.87 49.7841 104.429C48.8054 105.298 47.9169 106.049 47.0576 106.776C47.0576 106.776 47.0574 106.776 47.057 106.776C45.5776 107.969 44.5442 108.941 43.9509 109.48C42.1795 111.088 41.2938 111.892 41.1943 111.957C40.8532 112.177 37.8564 114.113 36.3291 113.083C35.3581 112.429 35.326 110.81 35.4158 109.557C35.8155 103.979 39.2256 99.6629 42.0413 93.0552Z" fill="#D77449"/>
    <path d="M120.079 61.2219C119.004 60.6755 117.401 60.0459 115.436 59.9928C112.568 59.9153 111.385 61.1323 107.925 62.3144C105.939 62.9927 101.899 64.3729 97.4091 63.6801C93.694 63.1069 93.1458 61.9442 90.171 61.9047C86.6151 61.8575 83.7257 63.6284 81.9087 65.0458C83.7252 63.9387 86.5416 62.6158 89.9491 62.7412C93.1127 62.8576 93.5566 63.9956 97.1701 64.5849C101.929 65.3608 106.314 63.7557 108.386 62.9972C111.235 61.9542 112.467 60.9447 115.351 60.7439C117.315 60.607 118.964 60.921 120.079 61.2219Z" fill="#A35432"/>
    <path d="M73.9878 18.886C72.9977 20.1628 71.8239 22.1139 71.7344 24.5535C71.6439 27.0221 72.7368 27.9937 72.8952 30.4942C73.098 33.6945 71.5132 35.3456 70.5736 37.9372C69.613 40.5868 69.1617 44.6752 71.6661 50.8428C69.7021 45.0352 70.2622 41.1057 71.1881 38.5517C72.2887 35.5164 74.0607 33.9975 73.8512 30.6991C73.695 28.2388 72.5964 27.3093 72.5538 24.5535C72.5166 22.1412 73.3169 20.1653 73.9878 18.886Z" fill="#A35432"/>
    <path d="M16.6973 52.823C20.5103 51.9854 22.9404 52.6605 24.4133 53.3692C27.9913 55.0906 27.9633 57.7846 31.4466 59.1733C34.7293 60.4822 36.3556 58.6828 40.7673 59.2416C43.2043 59.5503 46.2349 60.5461 49.5759 63.2362C47.3371 61.8536 44.3001 60.4626 40.5966 60.1635C35.9318 59.7867 34.3251 61.4748 31.1051 60.1976C27.7376 58.8618 27.7416 56.397 24.0036 54.3252C21.4086 52.8869 18.7015 52.7099 16.6973 52.823Z" fill="#A35432"/>
    <path d="M33.8369 117.419C33.8887 115.394 34.3108 112.683 36.1586 110.523C38.4128 107.888 40.8235 108.371 43.1235 105.811C45.364 103.318 44.7382 101.01 45.8549 97.344C46.7515 94.4008 48.8126 90.4471 54.0489 86.4186C49.7977 90.5813 47.9274 94.501 47.0157 97.4123C45.7428 101.477 46.3073 103.676 44.0453 106.187C41.7351 108.752 39.4516 108.339 36.8755 111.137C34.9543 113.224 34.1856 115.668 33.8369 117.419Z" fill="#A35432"/>
    <path d="M101.779 116.873C101.474 114.7 100.681 111.758 98.3649 109.601C95.383 106.824 92.4606 107.755 90.4611 104.94C88.5874 102.303 90.0085 100.229 88.7199 96.9512C87.805 94.6238 85.4907 91.7044 79.1431 89.5254C84.9926 92.0488 87.1017 95.0768 87.9517 97.361C89.2045 100.728 87.8266 102.561 89.5905 105.197C91.57 108.154 94.561 107.31 97.9211 110.352C100.22 112.433 101.261 115.038 101.779 116.873Z" fill="#A35432"/>
    <path d="M107.925 60.9082C108.773 60.9082 109.461 60.2204 109.461 59.3718C109.461 58.5233 108.773 57.8354 107.925 57.8354C107.076 57.8354 106.388 58.5233 106.388 59.3718C106.388 60.2204 107.076 60.9082 107.925 60.9082Z" fill="#A35432"/>
    <path d="M97.6482 70.9523C98.7607 70.9523 99.6625 70.0505 99.6625 68.938C99.6625 67.8254 98.7607 66.9236 97.6482 66.9236C96.5356 66.9236 95.6338 67.8254 95.6338 68.938C95.6338 70.0505 96.5356 70.9523 97.6482 70.9523Z" fill="#A35432"/>
    <path d="M98.6635 62.5363C99.0736 62.5363 99.4061 62.2039 99.4061 61.7937C99.4061 61.3836 99.0736 61.0511 98.6635 61.0511C98.2534 61.0511 97.9209 61.3836 97.9209 61.7937C97.9209 62.2039 98.2534 62.5363 98.6635 62.5363Z" fill="#A35432"/>
    <path d="M94.524 60.4365C95.1934 60.4365 95.7361 59.8939 95.7361 59.2245C95.7361 58.5551 95.1934 58.0125 94.524 58.0125C93.8547 58.0125 93.312 58.5551 93.312 59.2245C93.312 59.8939 93.8547 60.4365 94.524 60.4365Z" fill="#A35432"/>
    <path d="M106.883 66.3431C107.157 66.3431 107.378 66.1215 107.378 65.8481C107.378 65.5747 107.157 65.353 106.883 65.353C106.61 65.353 106.388 65.5747 106.388 65.8481C106.388 66.1215 106.61 66.3431 106.883 66.3431Z" fill="#A35432"/>
    <path d="M75.3449 25.8678C76.0945 25.8678 76.7021 25.2602 76.7021 24.5107C76.7021 23.7612 76.0945 23.1536 75.3449 23.1536C74.5954 23.1536 73.9878 23.7612 73.9878 24.5107C73.9878 25.2602 74.5954 25.8678 75.3449 25.8678Z" fill="#A35432"/>
    <path d="M69.23 30.938C69.7631 30.938 70.1953 30.5058 70.1953 29.9726C70.1953 29.4395 69.7631 29.0073 69.23 29.0073C68.6968 29.0073 68.2646 29.4395 68.2646 29.9726C68.2646 30.5058 68.6968 30.938 69.23 30.938Z" fill="#A35432"/>
    <path d="M76.0619 40.8733C77.2074 40.8733 78.136 39.9447 78.136 38.7992C78.136 37.6537 77.2074 36.7251 76.0619 36.7251C74.9164 36.7251 73.9878 37.6537 73.9878 38.7992C73.9878 39.9447 74.9164 40.8733 76.0619 40.8733Z" fill="#A35432"/>
    <path d="M72.319 44.2277C72.6796 44.2277 72.972 43.9353 72.972 43.5747C72.972 43.2141 72.6796 42.9218 72.319 42.9218C71.9584 42.9218 71.666 43.2141 71.666 43.5747C71.666 43.9353 71.9584 44.2277 72.319 44.2277Z" fill="#A35432"/>
    <path d="M65.9046 41.8463C66.8521 41.8463 67.6202 41.0782 67.6202 40.1307C67.6202 39.1832 66.8521 38.415 65.9046 38.415C64.9571 38.415 64.189 39.1832 64.189 40.1307C64.189 41.0782 64.9571 41.8463 65.9046 41.8463Z" fill="#A35432"/>
    <path d="M68.2345 52.8059C69.1396 52.8059 69.8733 52.0722 69.8733 51.1671C69.8733 50.262 69.1396 49.5283 68.2345 49.5283C67.3294 49.5283 66.5957 50.262 66.5957 51.1671C66.5957 52.0722 67.3294 52.8059 68.2345 52.8059Z" fill="#A35432"/>
    <path d="M82.7535 59.9757C83.8141 59.9757 84.674 59.1159 84.674 58.0553C84.674 56.9946 83.8141 56.1348 82.7535 56.1348C81.6928 56.1348 80.833 56.9946 80.833 58.0553C80.833 59.1159 81.6928 59.9757 82.7535 59.9757Z" fill="#A35432"/>
    <path d="M32.4879 56.9029C33.393 56.9029 34.1267 56.1692 34.1267 55.2641C34.1267 54.359 33.393 53.6252 32.4879 53.6252C31.5828 53.6252 30.8491 54.359 30.8491 55.2641C30.8491 56.1692 31.5828 56.9029 32.4879 56.9029Z" fill="#A35432"/>
    <path d="M20.125 57.2773C20.7561 57.2773 21.2676 56.7657 21.2676 56.1347C21.2676 55.5036 20.7561 54.9921 20.125 54.9921C19.494 54.9921 18.9824 55.5036 18.9824 56.1347C18.9824 56.7657 19.494 57.2773 20.125 57.2773Z" fill="#A35432"/>
    <path d="M18.328 51.6791C18.7664 51.6791 19.1218 51.3238 19.1218 50.8854C19.1218 50.4469 18.7664 50.0916 18.328 50.0916C17.8896 50.0916 17.5342 50.4469 17.5342 50.8854C17.5342 51.3238 17.8896 51.6791 18.328 51.6791Z" fill="#A35432"/>
    <path d="M24.1458 57.8355C24.5164 57.8355 24.8169 57.535 24.8169 57.1643C24.8169 56.7937 24.5164 56.4932 24.1458 56.4932C23.7751 56.4932 23.4746 56.7937 23.4746 57.1643C23.4746 57.535 23.7751 57.8355 24.1458 57.8355Z" fill="#A35432"/>
    <path d="M39.2227 56.1348C39.8308 56.1348 40.3237 55.6418 40.3237 55.0337C40.3237 54.4256 39.8308 53.9326 39.2227 53.9326C38.6146 53.9326 38.1216 54.4256 38.1216 55.0337C38.1216 55.6418 38.6146 56.1348 39.2227 56.1348Z" fill="#A35432"/>
    <path d="M40.2981 67.1454C41.5002 67.1454 42.4747 66.171 42.4747 64.9689C42.4747 63.7668 41.5002 62.7924 40.2981 62.7924C39.0961 62.7924 38.1216 63.7668 38.1216 64.9689C38.1216 66.171 39.0961 67.1454 40.2981 67.1454Z" fill="#A35432"/>
    <path d="M45.5045 65.1994C46.0466 65.1994 46.4861 64.7599 46.4861 64.2178C46.4861 63.6757 46.0466 63.2362 45.5045 63.2362C44.9624 63.2362 44.5229 63.6757 44.5229 64.2178C44.5229 64.7599 44.9624 65.1994 45.5045 65.1994Z" fill="#A35432"/>
    <path d="M53.6134 60.6414C54.6458 60.6414 55.4827 59.8045 55.4827 58.7721C55.4827 57.7397 54.6458 56.9028 53.6134 56.9028C52.581 56.9028 51.7441 57.7397 51.7441 58.7721C51.7441 59.8045 52.581 60.6414 53.6134 60.6414Z" fill="#A35432"/>
    <path d="M51.1039 100.28C52.0231 100.28 52.7683 99.5349 52.7683 98.6157C52.7683 97.6965 52.0231 96.9513 51.1039 96.9513C50.1846 96.9513 49.4395 97.6965 49.4395 98.6157C49.4395 99.5349 50.1846 100.28 51.1039 100.28Z" fill="#A35432"/>
    <path d="M40.1701 104.736C41.0752 104.736 41.8089 104.002 41.8089 103.097C41.8089 102.192 41.0752 101.458 40.1701 101.458C39.265 101.458 38.5312 102.192 38.5312 103.097C38.5312 104.002 39.265 104.736 40.1701 104.736Z" fill="#A35432"/>
    <path d="M49.1581 103.865C49.5965 103.865 49.9519 103.51 49.9519 103.071C49.9519 102.633 49.5965 102.277 49.1581 102.277C48.7197 102.277 48.3643 102.633 48.3643 103.071C48.3643 103.51 48.7197 103.865 49.1581 103.865Z" fill="#A35432"/>
    <path d="M44.4718 91.0618C44.8961 91.0618 45.24 90.7178 45.24 90.2936C45.24 89.8693 44.8961 89.5254 44.4718 89.5254C44.0475 89.5254 43.7036 89.8693 43.7036 90.2936C43.7036 90.7178 44.0475 91.0618 44.4718 91.0618Z" fill="#A35432"/>
    <path d="M50.0283 82.919C51.1173 82.919 52 82.0362 52 80.9473C52 79.8583 51.1173 78.9756 50.0283 78.9756C48.9394 78.9756 48.0566 79.8583 48.0566 80.9473C48.0566 82.0362 48.9394 82.919 50.0283 82.919Z" fill="#A35432"/>
    <path d="M41.1173 113.8C41.8952 113.8 42.5257 113.17 42.5257 112.392C42.5257 111.614 41.8952 110.984 41.1173 110.984C40.3395 110.984 39.709 111.614 39.709 112.392C39.709 113.17 40.3395 113.8 41.1173 113.8Z" fill="#A35432"/>
    <path d="M36.917 115.642C37.2417 115.642 37.5049 115.379 37.5049 115.054C37.5049 114.729 37.2417 114.466 36.917 114.466C36.5923 114.466 36.3291 114.729 36.3291 115.054C36.3291 115.379 36.5923 115.642 36.917 115.642Z" fill="#A35432"/>
    <path d="M35.2793 109.703C35.6611 109.703 35.9706 109.394 35.9706 109.012C35.9706 108.63 35.6611 108.321 35.2793 108.321C34.8974 108.321 34.5879 108.63 34.5879 109.012C34.5879 109.394 34.8974 109.703 35.2793 109.703Z" fill="#A35432"/>
    <path d="M71.8708 94.8516C73.2284 94.8516 74.329 93.751 74.329 92.3934C74.329 91.0358 73.2284 89.9352 71.8708 89.9352C70.5132 89.9352 69.4126 91.0358 69.4126 92.3934C69.4126 93.751 70.5132 94.8516 71.8708 94.8516Z" fill="#A35432"/>
    <path d="M88.3956 83.4825C89.3007 83.4825 90.0345 82.7487 90.0345 81.8436C90.0345 80.9386 89.3007 80.2048 88.3956 80.2048C87.4906 80.2048 86.7568 80.9386 86.7568 81.8436C86.7568 82.7487 87.4906 83.4825 88.3956 83.4825Z" fill="#A35432"/>
    <path d="M91.7413 101.919C92.4484 101.919 93.0216 101.346 93.0216 100.639C93.0216 99.9316 92.4484 99.3584 91.7413 99.3584C91.0342 99.3584 90.4609 99.9316 90.4609 100.639C90.4609 101.346 91.0342 101.919 91.7413 101.919Z" fill="#A35432"/>
    <path d="M95.9406 106.101C97.0531 106.101 97.955 105.2 97.955 104.087C97.955 102.974 97.0531 102.073 95.9406 102.073C94.8281 102.073 93.9263 102.974 93.9263 104.087C93.9263 105.2 94.8281 106.101 95.9406 106.101Z" fill="#A35432"/>
    <path d="M96.521 115.874C97.4827 115.874 98.2623 115.095 98.2623 114.133C98.2623 113.172 97.4827 112.392 96.521 112.392C95.5594 112.392 94.7798 113.172 94.7798 114.133C94.7798 115.095 95.5594 115.874 96.521 115.874Z" fill="#A35432"/>
    <path d="M91.8695 110.984C92.3173 110.984 92.6803 110.621 92.6803 110.173C92.6803 109.725 92.3173 109.362 91.8695 109.362C91.4216 109.362 91.0586 109.725 91.0586 110.173C91.0586 110.621 91.4216 110.984 91.8695 110.984Z" fill="#A35432"/>
    <path d="M84.2982 100.05C85.0902 100.05 85.7322 99.4077 85.7322 98.6157C85.7322 97.8238 85.0902 97.1818 84.2982 97.1818C83.5063 97.1818 82.8643 97.8238 82.8643 98.6157C82.8643 99.4077 83.5063 100.05 84.2982 100.05Z" fill="#A35432"/>
    <path d="M88.6941 92.3934C89.1608 92.3934 89.5391 92.0151 89.5391 91.5484C89.5391 91.0817 89.1608 90.7034 88.6941 90.7034C88.2274 90.7034 87.8491 91.0817 87.8491 91.5484C87.8491 92.0151 88.2274 92.3934 88.6941 92.3934Z" fill="#A35432"/>
    <path d="M79.3887 99.5845C79.6562 99.5845 79.8731 99.3676 79.8731 99.1001C79.8731 98.8326 79.6562 98.6157 79.3887 98.6157C79.1212 98.6157 78.9043 98.8326 78.9043 99.1001C78.9043 99.3676 79.1212 99.5845 79.3887 99.5845Z" fill="#A35432"/>
    <path d="M80.9012 94.2371C81.25 94.2371 81.5328 93.9543 81.5328 93.6055C81.5328 93.2567 81.25 92.9739 80.9012 92.9739C80.5523 92.9739 80.2695 93.2567 80.2695 93.6055C80.2695 93.9543 80.5523 94.2371 80.9012 94.2371Z" fill="#A35432"/>
    <path d="M85.5789 105.743C85.9089 105.743 86.1764 105.475 86.1764 105.145C86.1764 104.815 85.9089 104.548 85.5789 104.548C85.2489 104.548 84.9814 104.815 84.9814 105.145C84.9814 105.475 85.2489 105.743 85.5789 105.743Z" fill="#A35432"/>
    <path d="M115.316 63.6459C115.552 63.6459 115.743 63.4548 115.743 63.2191C115.743 62.9834 115.552 62.7924 115.316 62.7924C115.081 62.7924 114.89 62.9834 114.89 63.2191C114.89 63.4548 115.081 63.6459 115.316 63.6459Z" fill="#A35432"/>
    <path d="M69.7126 34.6688C69.9792 34.6688 70.1953 34.4527 70.1953 34.1861C70.1953 33.9196 69.9792 33.7035 69.7126 33.7035C69.4461 33.7035 69.23 33.9196 69.23 34.1861C69.23 34.4527 69.4461 34.6688 69.7126 34.6688Z" fill="#A35432"/>
    <path d="M71.2726 22.3426C71.4325 22.3426 71.5622 22.2129 71.5622 22.0529C71.5622 21.893 71.4325 21.7633 71.2726 21.7633C71.1126 21.7633 70.9829 21.893 70.9829 22.0529C70.9829 22.2129 71.1126 22.3426 71.2726 22.3426Z" fill="#A35432"/>
    <path d="M74.9905 34.8946C75.1861 34.8946 75.3447 34.736 75.3447 34.5404C75.3447 34.3447 75.1861 34.1862 74.9905 34.1862C74.7948 34.1862 74.6362 34.3447 74.6362 34.5404C74.6362 34.736 74.7948 34.8946 74.9905 34.8946Z" fill="#A35432"/>
    <path d="M35.7482 57.2772C35.8516 57.2772 35.9355 57.1934 35.9355 57.09C35.9355 56.9866 35.8516 56.9028 35.7482 56.9028C35.6449 56.9028 35.561 56.9866 35.561 57.09C35.561 57.1934 35.6449 57.2772 35.7482 57.2772Z" fill="#A35432"/>
    <path d="M48.0287 54.696C48.2395 54.696 48.4104 54.5251 48.4104 54.3143C48.4104 54.1035 48.2395 53.9326 48.0287 53.9326C47.8179 53.9326 47.647 54.1035 47.647 54.3143C47.647 54.5251 47.8179 54.696 48.0287 54.696Z" fill="#A35432"/>
    <path d="M43.4626 100.639C43.7537 100.639 43.9897 100.403 43.9897 100.112C43.9897 99.8204 43.7537 99.5845 43.4626 99.5845C43.1715 99.5845 42.9355 99.8204 42.9355 100.112C42.9355 100.403 43.1715 100.639 43.4626 100.639Z" fill="#A35432"/>
    <path d="M47.8262 89.5255C48.5615 89.5255 49.1577 88.9294 49.1577 88.194C49.1577 87.4586 48.5615 86.8624 47.8262 86.8624C47.0908 86.8624 46.4946 87.4586 46.4946 88.194C46.4946 88.9294 47.0908 89.5255 47.8262 89.5255Z" fill="#A35432"/>
    <path d="M51.6845 93.6055C51.8589 93.6055 52.0003 93.4641 52.0003 93.2897C52.0003 93.1153 51.8589 92.9739 51.6845 92.9739C51.51 92.9739 51.3687 93.1153 51.3687 93.2897C51.3687 93.4641 51.51 93.6055 51.6845 93.6055Z" fill="#A35432"/>
    <path d="M63.9267 67.0279C64.5499 66.9674 64.7499 66.9003 64.8912 66.8392C65.5197 66.5672 65.861 66.0355 66.0318 65.7489C67.3877 63.4738 68.2962 60.3982 68.2962 60.3981C68.4877 59.7405 68.8102 59.128 69.0489 58.486C69.0565 58.4655 69.1614 58.1831 69.3886 57.8758C69.5172 57.7019 69.594 57.6429 69.6402 57.6116C69.6937 57.5754 69.9221 57.4213 70.2252 57.4732C70.5082 57.5218 70.6698 57.7226 70.7158 57.7815C70.8659 57.9739 70.8945 58.1852 70.9045 58.2658C71.3941 62.2366 71.5 63.7277 71.5 63.7277C71.5438 64.3453 71.6163 65.1962 71.999 66.185C72.2502 66.8343 72.4658 67.1053 72.6028 67.2543C72.8957 67.5729 73.3756 67.9283 74.4207 68.1538C75.1495 68.3111 76.0717 68.2545 77.8865 68.135C78.093 68.1213 79.7539 68.0108 80.7422 68.0092C80.934 68.0088 80.9798 68.0065 81.2188 68.0106C81.626 68.0175 82.0332 68.0352 82.4405 68.0343C82.5109 68.0342 82.691 68.0333 82.8581 68.1442C82.8792 68.1582 82.9841 68.2298 83.0632 68.3677C83.1867 68.5829 83.1564 68.8011 83.145 68.874C83.1152 69.0647 83.0243 69.2188 82.8619 69.4056C82.4846 69.8398 82.0694 70.0534 82.0694 70.0534C80.9418 70.6338 80.378 70.9239 79.2577 71.4813C78.4895 71.8635 77.8535 72.2131 77.6978 72.299C77.0336 72.6654 77.1224 72.6408 76.7165 72.8525C75.8696 73.2945 75.6411 73.3194 75.2824 73.6577C74.9131 74.0058 74.7472 74.3642 74.7037 74.4628C74.66 74.562 74.4894 74.9678 74.5024 75.5447C74.5169 76.187 74.7505 76.6576 74.9218 77.004C76.1339 79.4554 75.8249 78.9239 76.1211 79.4529C76.6022 80.3123 77.0667 81.1809 77.5552 82.0361C77.5552 82.0361 77.7002 82.2739 78.0752 83.1766C78.1665 83.3965 78.2442 83.596 78.2303 83.8623C78.2244 83.9761 78.2049 84.2722 77.9913 84.5185C77.7316 84.8181 77.352 84.8515 77.2512 84.8603C76.6268 84.9151 76.1263 84.442 75.6178 83.9902C74.9347 83.3832 74.1923 82.8459 73.496 82.2541C71.7463 80.767 72.2057 81.2752 71.0303 80.2581C70.9579 80.1954 70.2582 79.5594 69.2858 79.0671C69.0572 78.9514 68.7818 78.8274 68.4136 78.7967C67.9305 78.7563 67.5588 78.8991 67.294 79.0042C66.7567 79.2175 66.3969 79.5239 65.7592 80.0673C65.6229 80.1833 65.6427 80.1714 65.3206 80.4576C64.8128 80.9088 64.4155 81.2192 64.0105 81.5916C63.6166 81.9539 62.8123 82.6476 61.0039 84.1055C60.7221 84.3873 60.4464 84.5492 60.2617 84.6402C59.9922 84.7728 59.7644 84.885 59.4502 84.8666C59.353 84.8609 58.9781 84.8389 58.7017 84.5437C58.5116 84.3406 58.4642 84.1106 58.4417 84.0028C58.3778 83.6955 58.4468 83.4355 58.5088 83.2018C58.5364 83.0978 58.5775 82.9843 58.6598 82.7573C58.7238 82.5805 58.7726 82.4581 58.8273 82.3194C58.9937 81.8981 59.0513 81.7258 59.1043 81.6083C59.3785 81.001 59.6236 80.5643 59.7333 80.3671C60.5284 78.938 60.961 77.9632 61.6287 76.4588C61.9976 75.6276 62.2548 74.9906 62.1403 74.1944C62.1293 74.1179 62.0736 73.753 61.8719 73.3138C61.4866 72.4747 60.857 71.9932 60.4126 71.67C58.5621 70.3239 57.0076 69.5314 57.0076 69.5314C57.0076 69.5314 56.1418 69.0842 54.8941 68.0469C54.7701 67.9438 54.455 67.6749 54.3322 67.2334C54.2952 67.1004 54.207 66.783 54.3696 66.4749C54.4941 66.2391 54.7011 66.131 54.7767 66.0928C55.1404 65.909 55.5198 65.9894 55.7915 66.0508C56.4887 66.2085 56.8372 66.2874 57.4892 66.4882C57.7398 66.5654 58.4071 66.6511 59.7417 66.8224C61.3487 67.0288 61.8437 67.0596 62.1151 67.074C62.2748 67.0825 62.9977 67.1181 63.9267 67.0279Z" fill="#DD8964"/>
</svg>
