<svg viewBox="0 0 150 83" fill="none" xmlns="http://www.w3.org/2000/svg">
<path d="M67.4103 28.6837C76.7811 28.6837 84.4157 37.6734 84.5558 48.7878H108.316C108.316 36.0724 104.007 23.8778 96.3354 14.8867C88.664 5.89558 78.2595 0.844421 67.4105 0.844421C56.5616 0.844421 46.157 5.89558 38.4857 14.8867C30.8144 23.8778 26.5046 36.0724 26.5046 48.7878H50.2653C50.4051 37.6744 58.04 28.6837 67.4103 28.6837Z" fill="#C70C0F"/>
<path d="M67.4102 28.6838C76.781 28.6838 84.4156 37.6734 84.5557 48.7878H104.357C104.357 24.91 87.783 5.48431 67.4102 5.48431C47.0374 5.48431 30.4636 24.91 30.4636 48.7878H50.2652C50.405 37.6744 58.0399 28.6838 67.4102 28.6838Z" fill="#D06103"/>
<path d="M67.41 28.6838C76.7808 28.6838 84.4154 37.6734 84.5555 48.7878H100.398C100.411 43.701 99.5666 38.6614 97.9144 33.9576C96.2622 29.2539 93.8344 24.9784 90.7699 21.3763C87.7055 17.7743 84.0647 14.9163 80.0561 12.9663C76.0476 11.0163 71.7502 10.0125 67.4101 10.0125C63.07 10.0125 58.7726 11.0163 54.7641 12.9663C50.7556 14.9163 47.1148 17.7743 44.0503 21.3763C40.9859 24.9784 38.558 29.2539 36.9058 33.9576C35.2537 38.6614 34.4097 43.701 34.4223 48.7878H50.265C50.4048 37.6744 58.0397 28.6838 67.41 28.6838Z" fill="#E3C600"/>
<path d="M67.41 28.6838C76.7808 28.6838 84.4154 37.6734 84.5555 48.7878H96.4392C96.4392 44.3198 95.6883 39.8956 94.2295 35.7677C92.7706 31.6399 90.6324 27.8892 87.9368 24.7299C85.2412 21.5706 82.0411 19.0644 78.5191 17.3546C74.9972 15.6448 71.2224 14.7648 67.4103 14.7648C63.5981 14.7648 59.8233 15.6448 56.3014 17.3546C52.7794 19.0644 49.5793 21.5706 46.8837 24.7299C44.1881 27.8892 42.0499 31.6399 40.591 35.7677C39.1322 39.8956 38.3813 44.3198 38.3813 48.7878H50.265C50.4048 37.6744 58.0397 28.6838 67.41 28.6838Z" fill="#008536"/>
<path d="M67.4101 28.6838C76.7809 28.6838 84.4155 37.6734 84.5557 48.7878H92.4802C92.4802 40.995 89.8389 33.5213 85.1374 28.011C80.4359 22.5006 74.0593 19.405 67.4104 19.405C60.7615 19.405 54.3849 22.5006 49.6834 28.011C44.9819 33.5213 42.3406 40.995 42.3406 48.7878H50.2651C50.405 37.6744 58.0399 28.6838 67.4101 28.6838Z" fill="#008DC5"/>
<path d="M67.4099 28.6837C76.7807 28.6837 84.4154 37.6734 84.5555 48.7877H88.5209C88.531 45.5309 87.9924 42.3038 86.936 39.2915C85.8795 36.2793 84.3261 33.541 82.3648 31.2339C80.4035 28.9269 78.0728 27.0963 75.5066 25.8472C72.9403 24.5982 70.1888 23.9552 67.4101 23.9552C64.6313 23.9552 61.8799 24.5982 59.3136 25.8472C56.7473 27.0963 54.4167 28.9269 52.4553 31.2339C50.494 33.541 48.9406 36.2793 47.8842 39.2915C46.8278 42.3038 46.2891 45.5309 46.2992 48.7877H50.2649C50.4048 37.6743 58.0397 28.6837 67.4099 28.6837Z" fill="#4F2074"/>
<path d="M55.795 57.2647C55.795 50.8002 51.2165 45.5337 45.5304 45.5337C43.5386 45.5327 41.5882 46.1996 39.9093 47.4556C38.1632 41.7898 33.4141 37.7215 27.856 37.7215C25.246 37.6995 22.6931 38.6162 20.5416 40.3478C18.3901 42.0795 16.7434 44.5428 15.8236 47.4056C14.1585 46.179 12.2313 45.5296 10.2646 45.5324C4.59983 45.5324 1.75433e-07 50.7753 1.75433e-07 57.2647C-0.000289349 59.0595 0.357786 60.8294 1.04558 62.433C1.73338 64.0366 2.73182 65.4293 3.96103 66.4997C6.38887 69.5448 16.1637 71.8162 27.8551 71.8162C39.0781 71.8162 48.5333 69.7197 51.4297 66.8508C52.7732 65.7962 53.8743 64.3698 54.6357 62.6979C55.397 61.0259 55.7952 59.1599 55.795 57.2647Z" fill="#7BBAE4"/>
<path d="M150 61.2577C150 51.5986 143.159 43.7296 134.663 43.7296C131.686 43.7276 128.771 44.724 126.262 46.6011C123.653 38.1355 116.557 32.0563 108.253 32.0563C99.9479 32.0563 92.9155 38.0982 90.2744 46.5264C87.7866 44.6945 84.9074 43.7249 81.9694 43.7296C73.5055 43.7296 66.6326 51.5613 66.6326 61.2577C66.6322 63.9395 67.1672 66.5841 68.1949 68.9801C69.2225 71.3761 70.7144 73.457 72.551 75.0563C76.1784 79.606 90.7836 83 108.253 83C125.022 83 139.149 79.8673 143.477 75.5785C145.484 74.003 147.129 71.8723 148.267 69.3746C149.405 66.8768 150 64.0891 150 61.2577Z" fill="#7BBAE4"/>
<path d="M32.8282 37.0967C31.4329 37.9029 30.2429 39.1248 29.3775 40.6399C28.5121 42.155 28.0017 43.9101 27.8975 45.7293C27.6415 43.5662 26.8867 41.526 25.7144 39.8286C24.9467 38.731 24.0159 37.8051 22.967 37.0957C24.1612 36.3639 25.2051 35.3363 26.0265 34.0843C27.0852 32.4514 27.7332 30.5042 27.8975 28.4624C28.139 30.2332 28.7048 31.9216 29.556 33.4118C30.4071 34.902 31.5234 36.1585 32.8282 37.0951V37.0967Z" fill="#E3C600"/>
<path d="M89.4063 43.8772C88.024 44.6755 86.8451 45.8858 85.988 47.3867C85.1308 48.8876 84.6254 50.6263 84.5226 52.4284C84.2687 50.2859 83.521 48.2652 82.36 46.5838C81.5996 45.4966 80.6777 44.5796 79.6387 43.8772C80.8215 43.1523 81.8555 42.1345 82.669 40.8944C83.7177 39.2769 84.3597 37.3481 84.5226 35.3257C84.7617 37.0798 85.322 38.7524 86.165 40.2286C87.008 41.7048 88.1138 42.9495 89.4063 43.8772Z" fill="#E3C600"/>
<path d="M49.7723 7.18619C48.6107 7.85722 47.6201 8.87441 46.8997 10.1358C46.1794 11.3971 45.7547 12.8583 45.6682 14.3727C45.4549 12.5723 44.8266 10.8741 43.8509 9.46119C43.2118 8.5475 42.437 7.77678 41.564 7.18619C42.5583 6.57735 43.4276 5.72208 44.1114 4.6798C44.9924 3.32043 45.5316 1.69951 45.6682 0C45.8879 1.59462 46.4211 3.10746 47.2257 4.41888C47.9103 5.52943 48.7758 6.46998 49.7723 7.18619Z" fill="#E3C600"/>
</svg>
