<svg width="169" height="79" viewBox="0 0 169 79" fill="none" xmlns="http://www.w3.org/2000/svg">
<path d="M75.9488 27.056C86.5066 27.056 95.1083 35.5355 95.2661 46.0192H122.036C122.036 34.0254 117.181 22.5228 108.538 14.0419C99.8948 5.561 88.1723 0.796478 75.9491 0.796478C63.726 0.796478 52.0035 5.561 43.3605 14.0419C34.7174 22.5228 29.8618 34.0254 29.8618 46.0192H56.6321C56.7897 35.5364 65.3917 27.056 75.9488 27.056Z" fill="#C70C0F"/>
<path d="M75.9487 27.056C86.5065 27.056 95.1081 35.5355 95.266 46.0192H117.576C117.576 23.4965 98.902 5.17311 75.9487 5.17311C52.9954 5.17311 34.3223 23.4965 34.3223 46.0192H56.632C56.7896 35.5365 65.3916 27.056 75.9487 27.056Z" fill="#D06103"/>
<path d="M75.9485 27.056C86.5063 27.056 95.108 35.5355 95.2658 46.0192H113.115C113.129 41.2211 112.178 36.4675 110.317 32.0306C108.455 27.5938 105.72 23.561 102.267 20.1633C98.8148 16.7656 94.7128 14.0699 90.1966 12.2305C85.6803 10.3911 80.8385 9.44434 75.9487 9.44434C71.0589 9.44434 66.2171 10.3911 61.7008 12.2305C57.1846 14.0699 53.0826 16.7656 49.63 20.1633C46.1774 23.561 43.442 27.5938 41.5805 32.0306C39.7191 36.4675 38.7682 41.2211 38.7824 46.0192H56.6319C56.7894 35.5365 65.3914 27.056 75.9485 27.056Z" fill="#E3C600"/>
<path d="M75.9485 27.056C86.5063 27.056 95.108 35.5355 95.2658 46.0192H108.655C108.655 41.8048 107.809 37.6316 106.165 33.738C104.522 29.8444 102.112 26.3066 99.0754 23.3265C96.0384 20.3465 92.4329 17.9826 88.4648 16.3698C84.4968 14.757 80.2438 13.9269 75.9488 13.9269C71.6538 13.9269 67.4009 14.757 63.4328 16.3698C59.4648 17.9826 55.8593 20.3465 52.8223 23.3265C49.7852 26.3066 47.3761 29.8444 45.7325 33.738C44.0889 37.6316 43.2429 41.8048 43.2429 46.0192H56.6318C56.7894 35.5365 65.3914 27.056 75.9485 27.056Z" fill="#008536"/>
<path d="M75.9486 27.056C86.5064 27.056 95.1081 35.5355 95.2659 46.0192H104.194C104.194 38.6686 101.218 31.6191 95.9214 26.4214C90.6244 21.2238 83.4401 18.3038 75.9489 18.3038C68.4578 18.3038 61.2735 21.2238 55.9765 26.4214C50.6794 31.6191 47.7036 38.6686 47.7036 46.0192H56.6319C56.7895 35.5364 65.3915 27.056 75.9486 27.056Z" fill="#008DC5"/>
<path d="M75.9485 27.056C86.5062 27.056 95.1079 35.5355 95.2658 46.0192H99.7335C99.7449 42.9472 99.138 39.9032 97.9478 37.0618C96.7576 34.2205 95.0074 31.6377 92.7976 29.4615C90.5879 27.2853 87.962 25.5586 85.0707 24.3805C82.1793 23.2023 79.0794 22.5958 75.9486 22.5958C72.8179 22.5958 69.7179 23.2023 66.8266 24.3805C63.9352 25.5586 61.3094 27.2853 59.0996 29.4615C56.8899 31.6377 55.1397 34.2205 53.9495 37.0618C52.7592 39.9032 52.1524 42.9472 52.1637 46.0192H56.6318C56.7893 35.5364 65.3913 27.056 75.9485 27.056Z" fill="#4F2074"/>
<path d="M62.8624 54.0151C62.8624 47.9175 57.7039 42.9498 51.2976 42.9498C49.0535 42.9488 46.8561 43.5779 44.9645 44.7626C42.9972 39.4184 37.6466 35.5809 31.3844 35.5809C28.4439 35.5602 25.5676 36.4248 23.1435 38.0582C20.7195 39.6916 18.8642 42.0151 17.828 44.7155C15.9519 43.5585 13.7806 42.9459 11.5648 42.9485C5.18248 42.9485 1.97655e-07 47.8939 1.97655e-07 54.0151C-0.000326 55.708 0.403105 57.3775 1.17803 58.8901C1.95295 60.4027 3.07785 61.7163 4.46276 62.726C7.19813 65.5983 18.2111 67.7408 31.3835 67.7408C44.028 67.7408 54.6809 65.7633 57.9441 63.0572C59.4578 62.0624 60.6984 60.717 61.5562 59.1399C62.414 57.5629 62.8626 55.8027 62.8624 54.0151Z" fill="#86B9DC"/>
<path d="M169 57.7815C169 48.6705 161.292 41.248 151.72 41.248C148.367 41.2462 145.082 42.1861 142.256 43.9566C139.316 35.9715 131.321 30.2372 121.965 30.2372C112.608 30.2372 104.685 35.9363 101.709 43.8862C98.9063 42.1582 95.6624 41.2436 92.3523 41.248C82.8162 41.248 75.0728 48.6353 75.0728 57.7815C75.0723 60.3111 75.6751 62.8056 76.8329 65.0657C77.9908 67.3257 79.6716 69.2885 81.7408 70.7971C85.8277 75.0886 102.283 78.29 121.965 78.29C140.858 78.29 156.775 75.335 161.651 71.2897C163.912 69.8036 165.766 67.7937 167.047 65.4378C168.329 63.0818 169 60.4522 169 57.7815Z" fill="#86B9DC"/>
<path d="M36.9865 34.9915C35.4144 35.752 34.0737 36.9045 33.0987 38.3337C32.1237 39.7628 31.5486 41.4184 31.4312 43.1343C31.1428 41.094 30.2924 39.1695 28.9716 37.5684C28.1066 36.5331 27.0579 35.6598 25.8762 34.9906C27.2216 34.3003 28.3978 33.3311 29.3232 32.1501C30.516 30.6099 31.2461 28.7731 31.4312 26.8472C31.7033 28.5175 32.3408 30.1102 33.2997 31.5158C34.2587 32.9214 35.5164 34.1066 36.9865 34.99V34.9915Z" fill="#E3C600"/>
<path d="M100.731 41.3873C99.1738 42.1403 97.8456 43.282 96.8798 44.6977C95.9141 46.1134 95.3447 47.7534 95.2289 49.4533C94.9428 47.4324 94.1004 45.5263 92.7924 43.9404C91.9357 42.9148 90.8969 42.0499 89.7263 41.3873C91.0589 40.7036 92.2239 39.7435 93.1405 38.5738C94.322 37.0481 95.0454 35.2288 95.2289 33.3211C95.4982 34.9756 96.1295 36.5533 97.0793 37.9458C98.0291 39.3382 99.275 40.5123 100.731 41.3873Z" fill="#E3C600"/>
<path d="M56.0767 6.7784C54.768 7.41135 53.6518 8.37082 52.8402 9.56059C52.0286 10.7504 51.5501 12.1286 51.4527 13.5571C51.2124 11.8588 50.5045 10.257 49.4052 8.9243C48.6852 8.06246 47.8123 7.33547 46.8286 6.7784C47.9489 6.2041 48.9283 5.39737 49.6988 4.41424C50.6913 3.13201 51.2988 1.60307 51.4527 0C51.7002 1.50413 52.301 2.93112 53.2075 4.16812C53.9788 5.21565 54.954 6.10283 56.0767 6.7784Z" fill="#E3C600"/>
</svg>
