<svg width="107" height="136" viewBox="0 0 107 136" fill="none" xmlns="http://www.w3.org/2000/svg">
<path d="M65.1636 134.793C64.8803 133.036 64.3708 131.322 63.6479 129.694C62.9876 127.851 62.4642 125.961 62.0817 124.04C61.7391 122.372 61.4861 120.687 61.3239 118.992C60.8692 114.246 61.1218 102.837 61.1218 102.786C61.0713 94.8603 61.526 89.1556 61.9807 88.3479C62.149 88.0835 62.3346 87.8305 62.5364 87.5906C62.8523 87.2315 63.2083 86.9097 63.5974 86.6314C64.911 85.5712 67.5381 83.8043 68.3465 82.9965C69.2655 82.1236 69.9738 81.0533 70.4179 79.8665C71.3273 77.5443 71.0747 74.9696 70.8221 74.9191C70.5694 74.8686 70.5694 77.1404 69.0538 79.0588C68.3465 79.9675 67.5886 80.4219 66.2245 81.1791C65.2925 81.7646 64.2379 82.1274 63.1427 82.2393C62.5364 82.2898 61.4249 82.3403 61.0713 81.583C60.9197 81.2801 60.9702 80.8257 61.0713 80.0685C61.1824 79.3327 61.3513 78.6069 61.5765 77.8976C61.5765 77.8976 61.8796 76.8375 62.2838 75.0705C62.5973 73.6278 62.7498 72.1547 62.7385 70.6784C62.789 68.1542 62.5869 65.4785 62.3343 65.4785C62.1828 65.4785 62.1322 66.5892 61.6775 69.7192C61.2228 73.0511 61.0713 73.8589 60.7682 74.8181C60.465 75.7773 59.9598 77.1909 59.9093 77.2918C59.7209 77.8422 59.5016 78.3816 59.2525 78.9073C59.0829 79.2182 58.9311 79.5384 58.7978 79.8665C58.3197 80.8424 57.7797 81.7867 57.1811 82.6936C56.5243 83.6528 56.1706 84.0567 55.6654 84.2587C55.2683 84.4016 54.8411 84.4395 54.425 84.3687C54.009 84.2979 53.6183 84.1209 53.2909 83.8548C52.8866 83.4927 52.5452 83.0662 52.2804 82.5927C51.8535 81.9083 51.4656 81.2004 51.1184 80.4723C50.648 79.4041 50.243 78.3083 49.9059 77.1909C49.6902 76.5133 49.5214 75.8217 49.4007 75.121C49.3501 74.7171 49.2491 74.2628 49.0975 72.5463C48.8954 70.2745 48.946 69.8706 48.7439 69.7697C48.3397 69.6182 47.5314 70.8298 47.1272 72.1929C46.9251 72.8997 46.824 73.7074 47.1777 76.686C47.3136 78.3284 47.5328 79.9628 47.8345 81.583C47.9355 81.9364 48.2387 83.6024 48.5418 85.7732C48.7422 86.5738 48.7072 87.4152 48.4408 88.1964C48.3263 88.4694 48.1542 88.7145 47.9362 88.9149C47.7182 89.1153 47.4595 89.2663 47.1777 89.3576C46.9756 89.4081 46.4704 89.4585 45.2579 88.7518C44.1647 88.0742 43.2056 87.2015 42.4286 86.1771C41.5192 85.1674 40.9635 84.4101 40.9635 84.4101C40.6518 83.9699 40.3144 83.5485 39.953 83.148C39.5489 82.7441 38.69 81.8354 38.3868 82.0878C38.0332 82.3907 38.6395 84.0062 38.791 84.5616C39.1539 85.5207 39.5932 86.4492 40.1046 87.3382C40.5088 88.0955 40.5593 88.1459 41.3676 89.509C41.8729 90.4177 42.176 90.9226 42.4286 91.3769V91.4274C43.237 92.9924 43.7927 93.6487 44.6011 95.1633C44.7122 95.3601 44.8133 95.5621 44.9042 95.7691C45.2538 96.5827 45.5245 97.428 45.7126 98.2933C45.7126 98.2933 45.8136 102.837 45.8641 106.371C46.0157 116.72 45.7126 113.741 45.8641 118.588C45.9146 120.759 46.0157 122.829 45.4094 125.353C45.1488 126.496 44.8283 127.625 44.4495 128.735C43.9948 130.048 43.6917 130.654 43.338 132.017C42.7318 134.39 43.0854 134.995 43.237 135.248C43.3261 135.371 43.4391 135.474 43.5694 135.552C43.6996 135.63 43.8443 135.681 43.9948 135.702C45.5198 136.109 47.1271 136.091 48.6428 135.652C52.533 134.238 59.3535 134.188 62.5869 135.45C63.0416 135.652 64.6078 136.308 65.1131 135.601C65.2016 135.341 65.219 135.062 65.1636 134.793Z" fill="#6A4527"/>
<path d="M0.949722 45.5877C0.939354 42.1565 2.08492 38.8216 4.20194 36.1201C6.31896 33.4186 9.28426 31.5076 12.6203 30.6949C12.5178 29.8743 12.4672 29.0481 12.4688 28.2211C12.4655 24.7963 13.3783 21.4329 15.1127 18.479C16.847 15.525 19.3399 13.0879 22.3333 11.4199C25.3266 9.75183 28.7117 8.91349 32.1382 8.99162C35.5647 9.06975 38.908 10.0615 41.8221 11.8642C43.3693 8.14563 46.0442 5.00529 49.4706 2.88502C52.897 0.764756 56.9025 -0.228732 60.9234 0.0443297C64.9443 0.317392 68.7784 1.84326 71.8862 4.40727C74.994 6.97127 77.2192 10.4444 78.2486 14.338C83.2745 14.4566 88.0545 16.5354 91.5667 20.1298C95.0788 23.7242 97.0442 28.5489 97.0428 33.5725C97.0443 34.9649 96.8918 36.3532 96.5881 37.7122C99.6619 38.7661 102.321 40.7686 104.182 43.4306C106.043 46.0927 107.009 49.2767 106.942 52.5232C106.875 55.7697 105.777 58.9109 103.807 61.4935C101.837 64.0761 99.0968 65.9665 95.9819 66.8921C96.0324 67.4979 96.0829 68.1542 96.0829 68.8105C96.0814 72.702 94.6877 76.4647 92.1535 79.4195C89.6192 82.3743 86.1114 84.3265 82.2631 84.9238C78.4149 85.521 74.4797 84.7239 71.168 82.6763C67.8562 80.6287 65.3861 77.4656 64.2034 73.7579C61.6967 75.9946 58.523 77.3448 55.172 77.6003C51.8211 77.8558 48.4792 77.0023 45.6618 75.1715C44.8646 77.7637 43.5277 80.1581 41.7389 82.1975C39.9501 84.2369 37.7499 85.8752 35.2826 87.0048C32.8154 88.1344 30.1369 88.7297 27.4231 88.7517C24.7093 88.7737 22.0216 88.2219 19.5363 87.1325C17.051 86.0431 14.8244 84.4407 13.0027 82.4306C11.181 80.4205 9.80541 78.0481 8.96621 75.4691C8.127 72.8902 7.84318 70.163 8.13336 67.4667C8.42355 64.7704 9.2812 62.1659 10.65 59.8243C7.79184 58.6955 5.33896 56.7348 3.60934 54.1963C1.87973 51.6578 0.95314 48.6587 0.949722 45.5877Z" fill="#00742C"/>
<path d="M10.5993 59.8748C11.054 59.2689 12.2666 57.6534 13.0244 57.9059C13.9338 58.2593 12.8728 61.2378 13.176 64.6203C13.4406 67.0869 14.2654 69.4606 15.5874 71.5604C16.9095 73.6602 18.694 75.4305 20.8048 76.7365C23.8673 78.5287 27.4439 79.2399 30.9597 78.7559C33.6374 77.7462 36.8708 76.0297 39.2454 72.8997C42.1251 69.1134 42.5798 64.9232 44.6007 64.8222C45.8638 64.7717 46.2679 66.4882 48.592 67.9017C50.4906 68.9883 52.6779 69.4642 54.8567 69.2648C56.8238 69.0504 58.694 68.2994 60.2626 67.094C62.5866 65.2766 62.5866 63.5601 63.9507 63.3582C66.2242 63.0553 66.9315 67.7503 71.428 70.0726C71.8321 70.2745 75.8739 72.2939 80.0167 70.5774C85.1195 68.5076 86.2815 62.8533 86.3825 62.399C88.4837 61.3956 90.274 59.8429 91.5637 57.9053C92.8534 55.9678 93.5944 53.7176 93.7082 51.3934C94.0114 44.3761 88.3024 40.4383 87.9992 40.2364C89.0602 35.6423 89.4644 29.9376 86.8372 24.6368C83.5028 17.9223 77.0864 15.4991 77.7432 14.338C78.4 13.1263 86.0289 14.6914 91.1316 19.6893C94.8244 23.3542 96.929 28.3217 96.9922 33.522C96.9812 34.9137 96.8288 36.3007 96.5375 37.6617C99.6035 38.7269 102.253 40.7363 104.104 43.4008C105.955 46.0653 106.913 49.2477 106.84 52.4906C106.767 55.7334 105.667 58.8696 103.698 61.4482C101.728 64.0269 98.9916 65.9151 95.8807 66.8416C95.9312 67.4474 95.9817 68.1037 95.9817 68.76C95.9802 72.6515 94.5865 76.4142 92.0523 79.369C89.518 82.3238 86.0102 84.276 82.1619 84.8733C78.3137 85.4705 74.3785 84.6734 71.0668 82.6258C67.755 80.5782 65.2849 77.4151 64.1023 73.7074C61.5955 75.9441 58.4218 77.2944 55.0709 77.5498C51.7199 77.8053 48.378 76.9518 45.5606 75.121C44.671 78.0173 43.1083 80.6622 41.0003 82.8397C38.8923 85.0172 36.2987 86.6656 33.4313 87.6502C30.564 88.6348 27.5043 88.9277 24.502 88.5049C21.4998 88.0822 18.6402 86.9559 16.1568 85.2178C13.1716 83.0358 10.8324 80.0878 9.3868 76.686C8.95637 75.5886 8.61838 74.4572 8.37635 73.3036C8.10032 72.0264 7.96479 70.7229 7.97218 69.4163C7.97218 67.5484 7.97217 63.3582 10.5993 59.8748Z" fill="#03622A"/>
<path d="M65.1633 134.743C65.1633 134.692 65.1633 134.692 65.1128 134.591C65.1102 134.521 65.093 134.452 65.0622 134.389C65.032 134.117 64.9813 133.847 64.9107 133.582C64.8279 133.334 64.7604 133.081 64.7086 132.824C64.587 132.344 64.4351 131.872 64.2539 131.411C63.9507 130.502 63.6476 129.795 63.5971 129.694C62.9161 127.857 62.3921 125.966 62.0309 124.04C61.6883 122.372 61.4353 120.687 61.2731 118.992C60.8184 114.246 61.071 102.837 61.071 102.786C61.0205 94.8603 61.4752 89.1556 61.9299 88.3478C62.0982 88.0834 62.2838 87.8304 62.4856 87.5906C62.8015 87.2314 63.1575 86.9096 63.5466 86.6313H63.5971C62.7474 86.7128 61.9037 86.8477 61.071 87.0352C58.2923 87.9439 58.1912 95.5166 58.1912 95.6175C58.1912 95.6175 57.787 132.421 61.9804 135.147C62.233 135.298 62.5361 135.45 62.5361 135.45C62.9805 135.675 63.458 135.829 63.9507 135.904C64.1008 135.934 64.2554 135.934 64.4054 135.904C64.5084 135.902 64.6105 135.885 64.7086 135.853C64.7469 135.848 64.7824 135.83 64.8096 135.803C64.837 135.776 64.8724 135.758 64.9107 135.753C64.9612 135.702 65.0117 135.702 65.0622 135.601C65.0659 135.562 65.0839 135.526 65.1128 135.5C65.1573 135.353 65.1744 135.199 65.1633 135.046V134.894C65.2138 134.894 65.2138 134.844 65.1633 134.743Z" fill="#503A23"/>
<path d="M49.0004 58.3593C49.0004 59.3869 49.3054 60.3915 49.8767 61.2459C50.4481 62.1004 51.2602 62.7664 52.2103 63.1596C53.1604 63.5529 54.2059 63.6558 55.2146 63.4553C56.2232 63.2548 57.1497 62.76 57.8769 62.0333C58.6041 61.3067 59.0994 60.3808 59.3 59.3729C59.5006 58.3651 59.3976 57.3203 59.0041 56.3709C58.6105 55.4215 57.9441 54.61 57.089 54.0391C56.2339 53.4682 55.2286 53.1635 54.2002 53.1635C53.6203 53.164 53.045 53.2654 52.5001 53.4633C51.4947 53.8376 50.6242 54.5038 50.0006 55.3762C49.3769 56.2487 49.0286 57.2875 49.0004 58.3593Z" fill="#62B22F"/>
<path d="M55.1747 63.4638C55.2868 63.4421 55.3767 63.4214 55.4414 63.4062C55.5126 63.3891 55.5278 63.384 55.6683 63.3492L55.8663 63.2987C55.9279 63.2831 56.0113 63.2598 56.1083 63.2265C56.1083 63.2265 56.2518 63.176 56.3998 63.1104C56.8891 62.8742 57.3433 62.5716 57.7498 62.2113C58.2487 61.7602 58.6561 61.2174 58.9497 60.6124C59.2739 59.8893 59.4443 59.1068 59.4498 58.3144C59.4571 57.7344 59.3553 57.1581 59.1497 56.6156C58.8826 55.8293 58.4178 55.1247 57.7998 54.5695C57.369 54.1794 56.8797 53.8592 56.3498 53.6204C56.0719 53.5063 55.788 53.4063 55.5 53.3205C55.4283 53.3008 55.3484 53.2821 55.2676 53.266C55.1868 53.2498 55.1014 53.2377 55.0266 53.2291C55.1277 53.323 55.2818 53.4619 55.4626 53.633C55.7713 53.9258 56.2038 54.3312 56.3998 54.5695C56.8868 55.1621 57.2597 55.8398 57.4997 56.5682C57.7432 57.2568 57.8453 57.9873 57.7998 58.7163C57.7108 59.5173 57.437 60.2869 57 60.9643C56.5122 61.8791 55.8977 62.7205 55.1747 63.4638Z" fill="#468123"/>
<path d="M54.2001 51.1654C54.0561 51.0501 53.8749 50.9917 53.6906 51.001C53.5064 51.0103 53.332 51.0867 53.2003 51.2158C53.0993 51.4153 53.3519 51.6152 53.5999 52.3649C53.85 53.0141 53.85 53.314 53.9501 53.314C54.0501 53.314 54.1522 52.7142 54.2502 52.1649C54.3502 51.3648 54.2502 51.2153 54.2001 51.1654Z" fill="#503A23"/>
<path d="M11.0004 43.3593C11.0004 44.3869 11.3054 45.3915 11.8767 46.2459C12.4481 47.1004 13.2602 47.7664 14.2103 48.1596C15.1604 48.5529 16.2059 48.6558 17.2146 48.4553C18.2232 48.2548 19.1497 47.76 19.8769 47.0333C20.6041 46.3067 21.0994 45.3808 21.3 44.3729C21.5006 43.3651 21.3976 42.3203 21.0041 41.3709C20.6105 40.4215 19.9441 39.61 19.089 39.0391C18.2339 38.4682 17.2286 38.1635 16.2002 38.1635C15.6203 38.164 15.045 38.2654 14.5001 38.4633C13.4947 38.8376 12.6242 39.5038 12.0006 40.3762C11.3769 41.2487 11.0286 42.2875 11.0004 43.3593Z" fill="#62B22F"/>
<path d="M17.1747 48.4638C17.2868 48.4421 17.3767 48.4214 17.4414 48.4062C17.5126 48.3891 17.5278 48.384 17.6683 48.3492L17.8663 48.2987C17.9279 48.2831 18.0113 48.2598 18.1083 48.2265C18.1083 48.2265 18.2518 48.176 18.3998 48.1104C18.8891 47.8742 19.3433 47.5716 19.7498 47.2113C20.2487 46.7602 20.6561 46.2174 20.9497 45.6124C21.2739 44.8893 21.4443 44.1068 21.4498 43.3144C21.4571 42.7344 21.3553 42.1581 21.1497 41.6156C20.8826 40.8293 20.4178 40.1247 19.7998 39.5695C19.369 39.1794 18.8797 38.8592 18.3498 38.6204C18.0719 38.5063 17.788 38.4063 17.5 38.3205C17.4283 38.3008 17.3484 38.2821 17.2676 38.266C17.1868 38.2498 17.1014 38.2377 17.0266 38.2291C17.1277 38.323 17.2818 38.4619 17.4626 38.633C17.7713 38.9258 18.2038 39.3312 18.3998 39.5695C18.8868 40.1621 19.2597 40.8398 19.4997 41.5682C19.7432 42.2568 19.8453 42.9873 19.7998 43.7163C19.7108 44.5173 19.437 45.2869 19 45.9643C18.5122 46.8791 17.8977 47.7205 17.1747 48.4638Z" fill="#468123"/>
<path d="M16.2001 36.1654C16.0561 36.0501 15.8749 35.9917 15.6906 36.001C15.5064 36.0103 15.332 36.0867 15.2003 36.2158C15.0993 36.4153 15.3519 36.6152 15.5999 37.3649C15.85 38.0141 15.85 38.314 15.9501 38.314C16.0501 38.314 16.1522 37.7142 16.2502 37.1649C16.3502 36.3648 16.2502 36.2153 16.2001 36.1654Z" fill="#503A23"/>
<path d="M58.0004 37.3593C58.0004 38.3869 58.3054 39.3915 58.8767 40.2459C59.4481 41.1004 60.2602 41.7664 61.2103 42.1596C62.1604 42.5529 63.2059 42.6558 64.2146 42.4553C65.2232 42.2548 66.1497 41.76 66.8769 41.0333C67.6041 40.3067 68.0994 39.3808 68.3 38.3729C68.5006 37.3651 68.3976 36.3203 68.0041 35.3709C67.6105 34.4215 66.9441 33.61 66.089 33.0391C65.2339 32.4682 64.2286 32.1635 63.2002 32.1635C62.6203 32.164 62.045 32.2654 61.5001 32.4633C60.4947 32.8376 59.6242 33.5038 59.0006 34.3762C58.3769 35.2487 58.0286 36.2875 58.0004 37.3593Z" fill="#62B22F"/>
<path d="M64.1747 42.4638C64.2868 42.4421 64.3767 42.4214 64.4414 42.4062C64.5126 42.3891 64.5278 42.384 64.6683 42.3492L64.8663 42.2987C64.9279 42.2831 65.0113 42.2598 65.1083 42.2265C65.1083 42.2265 65.2518 42.176 65.3998 42.1104C65.8891 41.8742 66.3433 41.5716 66.7498 41.2113C67.2487 40.7602 67.6561 40.2174 67.9497 39.6124C68.2739 38.8893 68.4443 38.1068 68.4498 37.3144C68.4571 36.7344 68.3553 36.1581 68.1497 35.6156C67.8826 34.8293 67.4178 34.1247 66.7998 33.5695C66.369 33.1794 65.8797 32.8592 65.3498 32.6204C65.0719 32.5063 64.788 32.4063 64.5 32.3205C64.4283 32.3008 64.3484 32.2821 64.2676 32.266C64.1868 32.2498 64.1014 32.2377 64.0266 32.2291C64.1277 32.323 64.2818 32.4619 64.4626 32.633C64.7713 32.9258 65.2038 33.3312 65.3998 33.5695C65.8868 34.1621 66.2597 34.8398 66.4997 35.5682C66.7432 36.2568 66.8453 36.9873 66.7998 37.7163C66.7108 38.5173 66.437 39.2869 66 39.9643C65.5122 40.8791 64.8977 41.7205 64.1747 42.4638Z" fill="#468123"/>
<path d="M63.2001 30.1654C63.0561 30.0501 62.8749 29.9917 62.6906 30.001C62.5064 30.0103 62.332 30.0867 62.2003 30.2158C62.0993 30.4153 62.3519 30.6152 62.5999 31.3649C62.85 32.0141 62.85 32.314 62.9501 32.314C63.0501 32.314 63.1522 31.7142 63.2502 31.1649C63.3502 30.3648 63.2502 30.2153 63.2001 30.1654Z" fill="#503A23"/>
</svg>
