<svg viewBox="0 0 870 540" fill="none" xmlns="http://www.w3.org/2000/svg">
    <rect x="3" y="3" width="864" height="533.4" rx="77" fill="white" stroke="#116619" stroke-width="6"/>
    <path d="M208.152 370.574C209.164 371.105 210.711 371.92 212.612 372.942C215.174 374.319 216.119 374.857 216.297 375.844C216.35 376.137 216.339 376.485 215.573 378.173C214.478 380.588 213.769 381.674 213.769 381.674C213.092 382.718 208.834 389.292 207.987 388.827C207.864 388.76 207.66 388.461 209.931 381.266C210.519 379.402 211.025 377.862 211.379 376.799C210.51 376.408 209.589 375.95 208.635 375.411C207.153 374.575 205.867 373.701 204.771 372.865L208.152 370.574V370.574Z" fill="#B23030"/>
    <path d="M165.185 370.724C164.173 371.254 162.626 372.069 160.725 373.091C158.163 374.469 157.218 375.006 157.04 375.993C156.987 376.286 156.998 376.634 157.764 378.323C158.859 380.738 159.569 381.823 159.569 381.823C160.245 382.868 164.503 389.441 165.351 388.977C165.473 388.909 165.677 388.611 163.406 381.416C162.818 379.552 162.312 378.012 161.958 376.948C162.827 376.558 163.748 376.1 164.703 375.561C166.184 374.724 167.47 373.851 168.566 373.015L165.185 370.724V370.724Z" fill="#B23030"/>
    <path d="M215.916 365.226C218.593 365.668 220.558 365.985 221.581 366.15C225.148 366.723 226.258 366.946 226.824 367.898C227.152 368.45 227.183 369.061 226.719 371.392C226.162 374.187 225.884 375.585 225.169 377.432C223.984 380.494 221.733 384.96 220.999 384.702C220.397 384.491 221.016 381.178 221.992 375.949C222.458 373.453 222.907 371.408 223.224 370.032C221.772 369.967 220.248 369.858 218.66 369.695C216.696 369.493 214.842 369.229 213.108 368.927L215.916 365.226H215.916Z" fill="#B23030"/>
    <path d="M156.11 365.108C153.433 365.55 151.468 365.867 150.445 366.032C146.878 366.605 145.768 366.828 145.202 367.78C144.874 368.332 144.843 368.943 145.308 371.274C145.864 374.069 146.143 375.467 146.857 377.314C148.042 380.376 150.294 384.842 151.028 384.585C151.629 384.374 151.01 381.06 150.034 375.831C149.568 373.335 149.119 371.291 148.803 369.914C150.255 369.849 151.778 369.741 153.366 369.577C155.331 369.375 157.185 369.111 158.919 368.809L156.11 365.108H156.11Z" fill="#B23030"/>
    <path d="M219.376 358.229C221.851 357.117 223.664 356.294 224.607 355.865C227.897 354.369 228.945 353.94 229.942 354.421C230.52 354.699 230.883 355.191 231.781 357.391C232.767 359.804 233.366 361.109 233.82 363.283C234.252 365.349 234.892 369.651 234.122 369.883C233.365 370.112 231.551 366.311 230.355 363.806C229.342 361.683 228.631 359.88 228.182 358.662C226.856 359.217 225.504 359.808 224.128 360.436C222.373 361.238 220.689 362.051 219.076 362.868C219.176 361.322 219.276 359.776 219.376 358.229V358.229Z" fill="#B23030"/>
    <path d="M152.606 358.309C150.13 357.196 148.318 356.373 147.374 355.944C144.085 354.448 143.036 354.02 142.039 354.5C141.461 354.779 141.099 355.271 140.2 357.471C139.215 359.884 138.615 361.188 138.161 363.363C137.729 365.428 137.09 369.73 137.86 369.963C138.617 370.192 140.431 366.391 141.627 363.885C142.64 361.762 143.35 359.96 143.8 358.741C145.125 359.297 146.477 359.887 147.853 360.516C149.608 361.318 151.293 362.131 152.906 362.948C152.806 361.401 152.706 359.855 152.606 358.309V358.309Z" fill="#B23030"/>
    <path d="M226.052 325.908C225.608 327.474 224.694 329.798 222.735 331.912C221.035 333.747 219.136 334.79 218.128 335.333C217.35 335.752 216.667 336.053 216.162 336.258L218.635 339.243C219.334 339.062 220.293 338.755 221.358 338.219C223.982 336.898 225.485 335.076 226.155 334.246C228.153 331.771 228.96 329.236 229.309 327.725L226.052 325.908V325.908Z" fill="#B23030"/>
    <path d="M145.948 324.531C146.392 326.097 147.306 328.421 149.265 330.535C150.965 332.37 152.864 333.413 153.872 333.956C154.65 334.375 155.333 334.676 155.838 334.881L153.365 337.866C152.666 337.685 151.707 337.378 150.642 336.842C148.018 335.521 146.515 333.7 145.845 332.869C143.847 330.394 143.04 327.859 142.691 326.348L145.948 324.531V324.531Z" fill="#C13838"/>
    <path d="M145.948 324.531C146.392 326.097 147.306 328.421 149.265 330.535C150.965 332.37 152.864 333.413 153.872 333.956C154.65 334.375 155.333 334.676 155.838 334.881L153.365 337.866C152.666 337.685 151.707 337.378 150.642 336.842C148.018 335.521 146.515 333.7 145.845 332.869C143.847 330.394 143.04 327.859 142.691 326.348L145.948 324.531V324.531Z" fill="#B23030"/>
    <path d="M121.725 317.798C122.358 319.178 125.427 325.875 132.595 327.807C137.906 329.237 142.387 327.223 144.424 326.308C146.604 325.328 151.315 323.211 153.588 318.133C156.458 311.72 153.32 305.32 152.365 303.371C149.051 296.612 143.047 293.795 141.161 293C140.851 295.741 140.307 298.898 139.365 302.335C138.591 305.163 137.684 307.679 136.77 309.861C134.5 309.221 131.88 308.313 129.069 307.004C125.959 305.555 123.363 303.965 121.282 302.504C120.747 303.952 118.45 310.65 121.725 317.798Z" fill="#C13838"/>
    <path d="M250.275 319.174C249.642 320.555 246.573 327.252 239.405 329.183C234.094 330.614 229.613 328.6 227.576 327.684C225.396 326.704 220.685 324.587 218.412 319.51C215.542 313.097 218.679 306.697 219.635 304.748C222.949 297.989 228.953 295.172 230.839 294.377C231.149 297.117 231.693 300.275 232.635 303.712C233.409 306.54 234.316 309.056 235.23 311.238C237.5 310.598 240.12 309.69 242.931 308.381C246.041 306.932 248.637 305.342 250.718 303.881C251.253 305.329 253.55 312.027 250.275 319.174L250.275 319.174Z" fill="#C13838"/>
    <path d="M250.275 319.174C250.275 319.174 249.994 319.801 249.666 320.417C247.978 323.584 245.833 325.551 245.833 325.551C245.374 325.973 242.813 328.272 239.405 329.183C237.982 329.563 236.61 329.649 236.47 329.657C236.187 329.673 235.314 329.715 234.174 329.608C233.892 329.582 232.689 329.462 231.044 328.999C230.621 328.88 229.373 328.514 227.576 327.684C225.786 326.857 223.447 325.777 221.347 323.707C220.374 322.747 219.78 321.899 219.584 321.611C219.038 320.809 218.663 320.073 218.412 319.51C219.793 320.969 222.89 323.837 227.756 325.234C233.882 326.993 238.952 325.313 240.923 324.629C245.953 322.884 249.159 319.831 250.713 318.115C250.603 318.403 250.458 318.764 250.275 319.174V319.174Z" fill="#B23030"/>
    <path d="M184.127 307.488C184.103 308.789 183.983 312.373 181.288 315.534C177.72 319.721 172.575 319.72 171.926 319.708C168.229 319.645 165.612 317.874 164.497 316.986C163.877 316.492 159.838 313.16 159.725 307.488C159.706 306.499 159.74 302.145 163.168 298.715C166.502 295.379 170.673 295.293 171.926 295.267C173.279 295.239 177.512 295.151 180.805 298.352C184.235 301.687 184.152 306.166 184.127 307.488V307.488Z" fill="#C13838"/>
    <path d="M189.039 307.146C189.063 308.448 189.184 312.031 191.878 315.193C195.447 319.379 200.591 319.378 201.24 319.367C204.937 319.304 207.555 317.533 208.669 316.645C209.29 316.15 213.328 312.818 213.441 307.146C213.461 306.157 213.426 301.804 209.998 298.374C206.664 295.038 202.493 294.951 201.24 294.925C199.887 294.897 195.654 294.81 192.361 298.011C188.932 301.345 189.015 305.824 189.039 307.146V307.146Z" fill="#C13838"/>
    <path d="M223.731 350.958C223.7 352.008 223.394 359 218.557 365.18C209.255 377.068 190.622 376.457 184.693 376.263C179.156 376.082 161.188 375.492 152.388 363.452C151.433 362.146 148.165 357.549 147.841 350.958C147.397 341.911 152.809 335.457 154.5 333.616C163.253 324.09 177.138 324.091 184.998 324.092C191.728 324.093 210.599 324.095 219.309 336.317C223.883 342.735 223.764 349.869 223.731 350.958V350.958Z" fill="#C13838"/>
    <path d="M170.348 319.218C170.474 320.365 170.539 321.741 170.435 323.29C170.315 325.093 170 326.645 169.659 327.886L174.661 327.864C174.315 326.614 173.995 325.139 173.794 323.472C173.601 321.875 173.556 320.425 173.585 319.17L170.348 319.218L170.348 319.218Z" fill="#C13838"/>
    <path d="M202.932 318.958C202.806 320.105 202.741 321.481 202.844 323.03C202.965 324.833 203.28 326.385 203.62 327.626L198.619 327.604C198.965 326.354 199.285 324.879 199.486 323.212C199.679 321.615 199.724 320.165 199.695 318.91L202.932 318.958L202.932 318.958Z" fill="#C13838"/>
    <path d="M223.731 350.958C223.696 352.182 223.404 358.945 218.557 365.18C212.513 372.956 203.466 374.663 198.567 375.588C193.911 376.466 189.715 376.374 184.693 376.263C184.263 376.253 179.379 376.132 174.747 375.37C172.297 374.967 170.019 374.402 168.877 374.065C168.232 373.874 167.46 373.632 167.459 373.632C166.546 373.345 165.607 373.035 165.167 372.88C163.169 372.176 162.152 371.592 161.628 371.247C161.604 371.231 161.367 371.066 161.366 371.064C163.54 371.738 166.689 372.516 170.557 372.786C173.035 372.959 174.918 372.861 176.275 372.786C176.752 372.76 182.565 372.415 187.832 370.971C200.672 367.451 208.609 358.993 208.609 358.992C216.763 350.303 218.739 340.357 219.309 336.317C220.533 338.062 223.951 343.411 223.731 350.958L223.731 350.958Z" fill="#B23030"/>
    <path d="M204.894 298.682C203.935 298.285 201.278 297.233 198.11 298.204C193.914 299.489 192.278 303.262 192.08 303.741C190.95 306.473 191.412 308.955 191.706 310.055C191.87 310.667 193.021 314.689 197.131 316.576C197.848 316.905 201.041 318.265 204.639 316.842C208.138 315.458 209.528 312.427 209.945 311.517C210.396 310.533 211.807 307.457 210.515 304.024C209.169 300.448 205.868 299.084 204.894 298.682Z" fill="white"/>
    <path d="M181.788 308.832C181.877 307.797 182.076 304.942 180.197 302.209C177.708 298.59 173.623 298.166 173.107 298.121C170.166 297.866 167.942 299.056 166.984 299.669C166.451 300.01 162.97 302.322 162.413 306.817C162.316 307.6 161.985 311.06 164.425 314.066C166.798 316.991 170.102 317.404 171.095 317.528C172.167 317.662 175.521 318.081 178.399 315.812C181.396 313.448 181.699 309.884 181.788 308.832Z" fill="white"/>
    <path d="M202.972 302.96C202.451 302.744 201.007 302.173 199.285 302.7C197.005 303.398 196.116 305.449 196.008 305.71C195.394 307.194 195.645 308.543 195.805 309.141C195.894 309.474 196.519 311.66 198.753 312.685C199.143 312.864 200.878 313.603 202.833 312.83C204.735 312.078 205.491 310.43 205.718 309.935C205.963 309.401 206.729 307.729 206.027 305.863C205.295 303.92 203.502 303.179 202.972 302.96V302.96Z" fill="#5E1111"/>
    <path d="M173.958 303.205C173.436 302.989 171.992 302.418 170.27 302.945C167.99 303.643 167.101 305.694 166.993 305.955C166.379 307.439 166.63 308.788 166.79 309.386C166.88 309.719 167.505 311.905 169.739 312.93C170.128 313.109 171.864 313.848 173.819 313.075C175.721 312.323 176.476 310.676 176.703 310.181C176.948 309.646 177.715 307.974 177.013 306.108C176.281 304.165 174.487 303.424 173.958 303.205V303.205Z" fill="#5E1111"/>
    <path d="M200.173 304.904C200.181 304.709 200.196 304.17 199.821 303.671C199.324 303.011 198.553 302.963 198.455 302.959C197.9 302.935 197.491 303.176 197.316 303.299C197.219 303.368 196.582 303.83 196.513 304.68C196.501 304.828 196.467 305.481 196.949 306.027C197.419 306.558 198.044 306.609 198.231 306.625C198.434 306.641 199.068 306.693 199.591 306.244C200.136 305.775 200.165 305.103 200.173 304.904H200.173Z" fill="white"/>
    <path d="M170.999 305.317C171.007 305.121 171.022 304.583 170.647 304.084C170.15 303.423 169.379 303.376 169.281 303.372C168.726 303.347 168.318 303.589 168.142 303.712C168.045 303.78 167.408 304.243 167.34 305.092C167.328 305.24 167.293 305.894 167.776 306.439C168.245 306.97 168.87 307.022 169.057 307.037C169.26 307.054 169.894 307.106 170.417 306.656C170.962 306.188 170.991 305.515 170.999 305.317H170.999Z" fill="white"/>
    <path d="M151.74 313.439L152.007 313.332C152.163 313.247 152.515 313.027 152.765 312.59C153.044 312.105 153.032 311.64 153.019 311.465C152.96 309.997 152.67 307.658 151.433 305.127C150.726 303.679 149.899 302.555 149.184 301.731C149.028 301.545 148.675 301.171 148.147 300.984C147.98 300.925 147.722 300.836 147.394 300.885C147.291 300.901 147.187 300.928 147.086 300.968L146.819 301.075C146.787 301.084 146.226 301.249 146.06 301.817C145.948 302.203 146.062 302.623 146.355 302.906C147.128 303.831 148.152 305.27 148.929 307.232C149.787 309.4 149.996 311.329 150.034 312.594C150.049 312.66 150.17 313.168 150.679 313.423C151.195 313.681 151.679 313.467 151.74 313.439L151.74 313.439Z" fill="#DB8282"/>
    <path d="M143.973 300.255C144.543 300.866 145.5 300.899 146.11 300.328C146.72 299.757 146.753 298.799 146.183 298.187L145.909 297.894C145.339 297.283 144.382 297.25 143.772 297.821C143.162 298.392 143.129 299.351 143.699 299.962L143.973 300.255Z" fill="#DB8282"/>
    <path d="M220.308 314.477L220.039 314.376C219.881 314.293 219.525 314.08 219.266 313.648C218.979 313.168 218.982 312.703 218.992 312.528C219.023 311.059 219.269 308.716 220.458 306.161C221.137 304.701 221.943 303.561 222.643 302.724C222.795 302.534 223.141 302.154 223.666 301.957C223.831 301.895 224.087 301.801 224.416 301.844C224.52 301.857 224.624 301.883 224.725 301.921L224.994 302.023C225.027 302.031 225.591 302.185 225.767 302.75C225.887 303.134 225.781 303.557 225.493 303.844C224.737 304.784 223.741 306.243 223.001 308.219C222.184 310.403 222.012 312.335 221.997 313.6C221.984 313.667 221.872 314.177 221.368 314.441C220.857 314.71 220.369 314.504 220.308 314.477V314.477Z" fill="#DB8282"/>
    <path d="M228.093 300.851C228.651 300.229 228.601 299.271 227.98 298.712C227.359 298.153 226.403 298.203 225.845 298.825L225.577 299.124C225.018 299.746 225.069 300.703 225.69 301.262C226.31 301.822 227.267 301.771 227.825 301.149L228.093 300.851Z" fill="#DB8282"/>
    <path d="M121.732 317.828C121.732 317.828 122.012 318.454 122.341 319.07C124.029 322.237 126.174 324.205 126.174 324.205C126.633 324.626 129.193 326.926 132.602 327.837C134.024 328.217 135.397 328.302 135.536 328.31C135.819 328.326 136.692 328.369 137.833 328.262C138.115 328.235 139.318 328.115 140.963 327.652C141.386 327.533 142.634 327.168 144.431 326.338C146.221 325.511 148.559 324.43 150.66 322.36C151.626 321.408 152.202 320.592 152.423 320.264C152.966 319.459 153.331 318.721 153.573 318.163C152.196 319.621 149.107 322.489 144.25 323.887C138.133 325.649 133.065 323.97 131.083 323.282C126.053 321.537 122.848 318.484 121.294 316.768C121.403 317.056 121.548 317.417 121.732 317.828L121.732 317.828Z" fill="#B23030"/>
    <path d="M175.508 332.375C175.622 332.254 179.886 338.843 185.785 338.753C191.542 338.666 195.52 332.269 195.623 332.375C195.728 332.482 192.011 339.562 185.697 339.633C179.288 339.705 175.392 332.496 175.508 332.375Z" fill="#5E1111"/>
    <path d="M390.152 311.574C391.164 312.105 392.711 312.92 394.612 313.942C397.174 315.319 398.119 315.857 398.297 316.844C398.35 317.137 398.339 317.485 397.573 319.173C396.478 321.588 395.769 322.674 395.769 322.674C395.092 323.718 390.834 330.292 389.987 329.827C389.864 329.76 389.66 329.461 391.931 322.266C392.519 320.402 393.025 318.862 393.379 317.799C392.51 317.408 391.589 316.95 390.635 316.411C389.153 315.575 387.867 314.701 386.771 313.865L390.152 311.574V311.574Z" fill="#B23030"/>
    <path d="M347.185 311.724C346.173 312.254 344.626 313.069 342.725 314.091C340.163 315.469 339.218 316.006 339.04 316.993C338.987 317.286 338.998 317.634 339.764 319.323C340.859 321.738 341.569 322.823 341.569 322.823C342.245 323.868 346.503 330.441 347.351 329.977C347.473 329.909 347.677 329.611 345.406 322.416C344.818 320.552 344.312 319.012 343.958 317.948C344.827 317.558 345.748 317.1 346.703 316.561C348.184 315.724 349.47 314.851 350.566 314.015L347.185 311.724V311.724Z" fill="#B23030"/>
    <path d="M397.916 306.226C400.593 306.668 402.558 306.985 403.581 307.15C407.148 307.723 408.258 307.946 408.824 308.898C409.152 309.45 409.183 310.061 408.719 312.392C408.162 315.187 407.884 316.585 407.169 318.432C405.984 321.494 403.733 325.96 402.999 325.702C402.397 325.491 403.016 322.178 403.992 316.949C404.458 314.453 404.907 312.408 405.224 311.032C403.772 310.967 402.248 310.858 400.66 310.695C398.696 310.493 396.842 310.229 395.108 309.927L397.916 306.226H397.916Z" fill="#B23030"/>
    <path d="M338.11 306.108C335.433 306.55 333.468 306.867 332.445 307.032C328.878 307.605 327.768 307.828 327.202 308.78C326.874 309.332 326.843 309.943 327.308 312.274C327.864 315.069 328.143 316.467 328.857 318.314C330.042 321.376 332.294 325.842 333.028 325.585C333.629 325.374 333.01 322.06 332.034 316.831C331.568 314.335 331.119 312.291 330.803 310.914C332.255 310.849 333.778 310.741 335.366 310.577C337.331 310.375 339.185 310.111 340.919 309.809L338.11 306.108H338.11Z" fill="#B23030"/>
    <path d="M401.376 299.229C403.851 298.117 405.664 297.294 406.607 296.865C409.897 295.369 410.945 294.94 411.942 295.421C412.52 295.699 412.883 296.191 413.781 298.391C414.767 300.804 415.366 302.109 415.82 304.283C416.252 306.349 416.892 310.651 416.122 310.883C415.365 311.112 413.551 307.311 412.355 304.806C411.342 302.683 410.631 300.88 410.182 299.662C408.856 300.217 407.504 300.808 406.128 301.436C404.373 302.238 402.689 303.051 401.076 303.868C401.176 302.322 401.276 300.776 401.376 299.229V299.229Z" fill="#B23030"/>
    <path d="M334.606 299.309C332.13 298.196 330.318 297.373 329.374 296.944C326.085 295.448 325.036 295.02 324.039 295.5C323.461 295.779 323.099 296.271 322.2 298.471C321.215 300.884 320.615 302.188 320.161 304.363C319.729 306.428 319.09 310.73 319.86 310.963C320.617 311.192 322.431 307.391 323.627 304.885C324.64 302.762 325.35 300.96 325.8 299.741C327.125 300.297 328.477 300.887 329.853 301.516C331.608 302.318 333.293 303.131 334.906 303.948C334.806 302.401 334.706 300.855 334.606 299.309V299.309Z" fill="#B23030"/>
    <path d="M408.052 266.908C407.608 268.474 406.694 270.798 404.735 272.912C403.035 274.747 401.136 275.79 400.128 276.333C399.35 276.752 398.667 277.053 398.162 277.258L400.635 280.243C401.334 280.062 402.293 279.755 403.358 279.219C405.982 277.898 407.485 276.076 408.155 275.246C410.153 272.771 410.96 270.236 411.309 268.725L408.052 266.908V266.908Z" fill="#B23030"/>
    <path d="M327.948 265.531C328.392 267.097 329.306 269.421 331.265 271.535C332.965 273.37 334.864 274.413 335.872 274.956C336.65 275.375 337.333 275.676 337.838 275.881L335.365 278.866C334.666 278.685 333.707 278.378 332.642 277.842C330.018 276.521 328.515 274.7 327.845 273.869C325.847 271.394 325.04 268.859 324.691 267.348L327.948 265.531V265.531Z" fill="#C13838"/>
    <path d="M327.948 265.531C328.392 267.097 329.306 269.421 331.265 271.535C332.965 273.37 334.864 274.413 335.872 274.956C336.65 275.375 337.333 275.676 337.838 275.881L335.365 278.866C334.666 278.685 333.707 278.378 332.642 277.842C330.018 276.521 328.515 274.7 327.845 273.869C325.847 271.394 325.04 268.859 324.691 267.348L327.948 265.531V265.531Z" fill="#B23030"/>
    <path d="M303.725 258.798C304.358 260.178 307.427 266.875 314.595 268.807C319.906 270.237 324.387 268.223 326.424 267.308C328.604 266.328 333.315 264.211 335.588 259.133C338.458 252.72 335.32 246.32 334.365 244.371C331.051 237.612 325.047 234.795 323.161 234C322.851 236.741 322.307 239.898 321.365 243.335C320.591 246.163 319.684 248.679 318.77 250.861C316.5 250.221 313.88 249.313 311.069 248.004C307.959 246.555 305.363 244.965 303.282 243.504C302.747 244.952 300.45 251.65 303.725 258.798Z" fill="#C13838"/>
    <path d="M432.275 260.174C431.642 261.555 428.573 268.252 421.405 270.183C416.094 271.614 411.613 269.6 409.576 268.684C407.396 267.704 402.685 265.587 400.412 260.51C397.542 254.097 400.679 247.697 401.635 245.748C404.949 238.989 410.953 236.172 412.839 235.377C413.149 238.117 413.693 241.275 414.635 244.712C415.409 247.54 416.316 250.056 417.23 252.238C419.5 251.598 422.12 250.69 424.931 249.381C428.041 247.932 430.637 246.342 432.718 244.881C433.253 246.329 435.55 253.027 432.275 260.174L432.275 260.174Z" fill="#C13838"/>
    <path d="M432.275 260.174C432.275 260.174 431.994 260.801 431.666 261.417C429.978 264.584 427.833 266.551 427.833 266.551C427.374 266.973 424.813 269.272 421.405 270.183C419.982 270.563 418.61 270.649 418.47 270.657C418.187 270.673 417.314 270.715 416.174 270.608C415.892 270.582 414.689 270.462 413.044 269.999C412.621 269.88 411.373 269.515 409.576 268.684C407.786 267.857 405.447 266.777 403.347 264.707C402.374 263.747 401.78 262.899 401.584 262.611C401.038 261.809 400.663 261.073 400.412 260.51C401.793 261.969 404.89 264.837 409.756 266.234C415.882 267.993 420.952 266.313 422.923 265.629C427.953 263.884 431.159 260.831 432.713 259.115C432.603 259.403 432.458 259.764 432.275 260.174V260.174Z" fill="#B23030"/>
    <path d="M366.127 248.488C366.103 249.789 365.983 253.373 363.288 256.534C359.72 260.721 354.575 260.72 353.926 260.708C350.229 260.645 347.612 258.874 346.497 257.986C345.877 257.492 341.838 254.16 341.725 248.488C341.706 247.499 341.74 243.145 345.168 239.715C348.502 236.379 352.673 236.293 353.926 236.267C355.279 236.239 359.512 236.151 362.805 239.352C366.235 242.687 366.152 247.166 366.127 248.488V248.488Z" fill="#C13838"/>
    <path d="M371.039 248.146C371.063 249.448 371.184 253.031 373.878 256.193C377.447 260.379 382.591 260.378 383.24 260.367C386.937 260.304 389.555 258.533 390.669 257.645C391.29 257.15 395.328 253.818 395.441 248.146C395.461 247.157 395.426 242.804 391.998 239.374C388.664 236.038 384.493 235.951 383.24 235.925C381.887 235.897 377.654 235.81 374.361 239.011C370.932 242.345 371.015 246.824 371.039 248.146V248.146Z" fill="#C13838"/>
    <path d="M405.731 291.958C405.7 293.008 405.394 300 400.557 306.18C391.255 318.068 372.622 317.457 366.693 317.263C361.156 317.082 343.188 316.492 334.388 304.452C333.433 303.146 330.165 298.549 329.841 291.958C329.397 282.911 334.809 276.457 336.5 274.616C345.253 265.09 359.138 265.091 366.998 265.092C373.728 265.093 392.599 265.095 401.309 277.317C405.883 283.735 405.764 290.869 405.731 291.958V291.958Z" fill="#C13838"/>
    <path d="M352.348 260.218C352.474 261.365 352.539 262.741 352.435 264.29C352.315 266.093 352 267.645 351.659 268.886L356.661 268.864C356.315 267.614 355.995 266.139 355.794 264.472C355.601 262.875 355.556 261.425 355.585 260.17L352.348 260.218L352.348 260.218Z" fill="#C13838"/>
    <path d="M384.932 259.958C384.806 261.105 384.741 262.481 384.844 264.03C384.965 265.833 385.28 267.385 385.62 268.626L380.619 268.604C380.965 267.354 381.285 265.879 381.486 264.212C381.679 262.615 381.724 261.165 381.695 259.91L384.932 259.958L384.932 259.958Z" fill="#C13838"/>
    <path d="M405.731 291.958C405.696 293.182 405.404 299.945 400.557 306.18C394.513 313.956 385.466 315.663 380.567 316.588C375.911 317.466 371.715 317.374 366.693 317.263C366.263 317.253 361.379 317.132 356.747 316.37C354.297 315.967 352.019 315.402 350.877 315.065C350.232 314.874 349.46 314.632 349.459 314.632C348.546 314.345 347.607 314.035 347.167 313.88C345.169 313.176 344.152 312.592 343.628 312.247C343.604 312.231 343.367 312.066 343.366 312.064C345.54 312.738 348.689 313.516 352.557 313.786C355.035 313.959 356.918 313.861 358.275 313.786C358.752 313.76 364.565 313.415 369.832 311.971C382.672 308.451 390.609 299.993 390.609 299.992C398.763 291.303 400.739 281.357 401.309 277.317C402.533 279.062 405.951 284.411 405.731 291.958L405.731 291.958Z" fill="#B23030"/>
    <path d="M386.894 239.682C385.935 239.285 383.278 238.233 380.11 239.204C375.914 240.489 374.278 244.262 374.08 244.741C372.95 247.473 373.412 249.955 373.706 251.055C373.87 251.667 375.021 255.689 379.131 257.576C379.848 257.905 383.041 259.265 386.639 257.842C390.138 256.458 391.528 253.427 391.945 252.517C392.396 251.533 393.807 248.457 392.515 245.024C391.169 241.448 387.868 240.084 386.894 239.682Z" fill="white"/>
    <path d="M363.788 249.833C363.877 248.797 364.076 245.942 362.197 243.209C359.708 239.59 355.623 239.166 355.107 239.121C352.166 238.866 349.942 240.056 348.984 240.669C348.451 241.01 344.97 243.322 344.413 247.817C344.316 248.6 343.985 252.06 346.425 255.067C348.798 257.991 352.102 258.404 353.095 258.528C354.167 258.662 357.521 259.081 360.399 256.812C363.396 254.448 363.699 250.884 363.788 249.833Z" fill="white"/>
    <path d="M384.972 243.96C384.451 243.744 383.007 243.173 381.285 243.7C379.005 244.398 378.116 246.449 378.008 246.71C377.394 248.194 377.645 249.543 377.805 250.141C377.894 250.474 378.519 252.66 380.753 253.685C381.143 253.864 382.878 254.603 384.833 253.83C386.735 253.078 387.491 251.43 387.718 250.935C387.963 250.401 388.729 248.729 388.027 246.863C387.295 244.92 385.502 244.179 384.972 243.96V243.96Z" fill="#5E1111"/>
    <path d="M355.958 244.205C355.436 243.989 353.992 243.418 352.27 243.945C349.99 244.643 349.101 246.694 348.993 246.955C348.379 248.439 348.63 249.788 348.79 250.386C348.88 250.719 349.505 252.905 351.739 253.93C352.128 254.109 353.864 254.848 355.819 254.075C357.721 253.323 358.476 251.676 358.703 251.181C358.948 250.646 359.715 248.974 359.013 247.108C358.281 245.165 356.487 244.424 355.958 244.205V244.205Z" fill="#5E1111"/>
    <path d="M382.173 245.904C382.181 245.709 382.196 245.17 381.821 244.671C381.324 244.011 380.553 243.963 380.455 243.959C379.9 243.935 379.491 244.176 379.316 244.299C379.219 244.368 378.582 244.83 378.513 245.68C378.501 245.828 378.467 246.481 378.949 247.027C379.419 247.558 380.044 247.609 380.231 247.625C380.434 247.641 381.068 247.693 381.591 247.244C382.136 246.775 382.165 246.103 382.173 245.904H382.173Z" fill="white"/>
    <path d="M352.999 246.317C353.007 246.121 353.022 245.583 352.647 245.084C352.15 244.423 351.379 244.376 351.281 244.372C350.726 244.347 350.318 244.589 350.142 244.712C350.045 244.78 349.408 245.243 349.34 246.092C349.328 246.24 349.293 246.894 349.776 247.439C350.245 247.97 350.87 248.022 351.057 248.037C351.26 248.054 351.894 248.106 352.417 247.656C352.962 247.188 352.991 246.515 352.999 246.317H352.999Z" fill="white"/>
    <path d="M333.74 254.439L334.007 254.332C334.163 254.247 334.515 254.027 334.765 253.59C335.044 253.105 335.032 252.64 335.019 252.465C334.96 250.997 334.67 248.658 333.433 246.127C332.726 244.679 331.899 243.555 331.184 242.731C331.028 242.545 330.675 242.171 330.147 241.984C329.98 241.925 329.722 241.836 329.394 241.885C329.291 241.901 329.187 241.928 329.086 241.968L328.819 242.075C328.787 242.084 328.226 242.249 328.06 242.817C327.948 243.203 328.062 243.623 328.355 243.906C329.128 244.831 330.152 246.27 330.929 248.232C331.787 250.4 331.996 252.329 332.034 253.594C332.049 253.66 332.17 254.168 332.679 254.423C333.195 254.681 333.679 254.467 333.74 254.439L333.74 254.439Z" fill="#DB8282"/>
    <path d="M325.973 241.255C326.543 241.866 327.5 241.899 328.11 241.328C328.72 240.757 328.753 239.799 328.183 239.187L327.909 238.894C327.339 238.283 326.382 238.25 325.772 238.821C325.162 239.392 325.129 240.351 325.699 240.962L325.973 241.255Z" fill="#DB8282"/>
    <path d="M402.308 255.477L402.039 255.376C401.881 255.293 401.525 255.08 401.266 254.648C400.979 254.168 400.982 253.703 400.992 253.528C401.023 252.059 401.269 249.716 402.458 247.161C403.137 245.701 403.943 244.561 404.643 243.724C404.795 243.534 405.141 243.154 405.666 242.957C405.831 242.895 406.087 242.801 406.416 242.844C406.52 242.857 406.624 242.883 406.725 242.921L406.994 243.023C407.027 243.031 407.591 243.185 407.767 243.75C407.887 244.134 407.781 244.557 407.493 244.844C406.737 245.784 405.741 247.243 405.001 249.219C404.184 251.403 404.012 253.335 403.997 254.6C403.984 254.667 403.872 255.177 403.368 255.441C402.857 255.71 402.369 255.504 402.308 255.477V255.477Z" fill="#DB8282"/>
    <path d="M410.093 241.851C410.651 241.229 410.601 240.271 409.98 239.712C409.359 239.153 408.403 239.203 407.845 239.825L407.577 240.124C407.018 240.746 407.069 241.703 407.69 242.262C408.31 242.822 409.267 242.771 409.825 242.149L410.093 241.851Z" fill="#DB8282"/>
    <path d="M303.732 258.828C303.732 258.828 304.012 259.454 304.341 260.07C306.029 263.237 308.174 265.205 308.174 265.205C308.633 265.626 311.193 267.926 314.602 268.837C316.024 269.217 317.397 269.302 317.536 269.31C317.819 269.326 318.692 269.369 319.833 269.262C320.115 269.235 321.318 269.115 322.963 268.652C323.386 268.533 324.634 268.168 326.431 267.338C328.221 266.511 330.559 265.43 332.66 263.36C333.626 262.408 334.202 261.592 334.423 261.264C334.966 260.459 335.331 259.721 335.573 259.163C334.196 260.621 331.107 263.489 326.25 264.887C320.133 266.649 315.065 264.97 313.083 264.282C308.053 262.537 304.848 259.484 303.294 257.768C303.403 258.056 303.548 258.417 303.732 258.828L303.732 258.828Z" fill="#B23030"/>
    <path d="M357.508 273.375C357.622 273.254 361.886 279.843 367.785 279.753C373.542 279.666 377.52 273.269 377.623 273.375C377.728 273.482 374.011 280.562 367.697 280.633C361.288 280.705 357.392 273.496 357.508 273.375Z" fill="#5E1111"/>
    <path d="M465.152 450.574C466.164 451.105 467.711 451.92 469.612 452.942C472.174 454.319 473.119 454.857 473.297 455.844C473.35 456.137 473.339 456.485 472.573 458.173C471.478 460.588 470.769 461.674 470.769 461.674C470.092 462.718 465.834 469.292 464.987 468.827C464.864 468.76 464.66 468.461 466.931 461.266C467.519 459.402 468.025 457.862 468.379 456.799C467.51 456.408 466.589 455.95 465.635 455.411C464.153 454.575 462.867 453.701 461.771 452.865L465.152 450.574V450.574Z" fill="#B23030"/>
    <path d="M422.185 450.724C421.173 451.254 419.626 452.069 417.725 453.091C415.163 454.469 414.218 455.006 414.04 455.993C413.987 456.286 413.998 456.634 414.764 458.323C415.859 460.738 416.569 461.823 416.569 461.823C417.245 462.868 421.503 469.441 422.351 468.977C422.473 468.909 422.677 468.611 420.406 461.416C419.818 459.552 419.312 458.012 418.958 456.948C419.827 456.558 420.748 456.1 421.703 455.561C423.184 454.724 424.47 453.851 425.566 453.015L422.185 450.724V450.724Z" fill="#B23030"/>
    <path d="M472.916 445.226C475.593 445.668 477.558 445.985 478.581 446.15C482.148 446.723 483.258 446.946 483.824 447.898C484.152 448.45 484.183 449.061 483.719 451.392C483.162 454.187 482.884 455.585 482.169 457.432C480.984 460.494 478.733 464.96 477.999 464.702C477.397 464.491 478.016 461.178 478.992 455.949C479.458 453.453 479.907 451.408 480.224 450.032C478.772 449.967 477.248 449.858 475.66 449.695C473.696 449.493 471.842 449.229 470.108 448.927L472.916 445.226H472.916Z" fill="#B23030"/>
    <path d="M413.11 445.108C410.433 445.55 408.468 445.867 407.445 446.032C403.878 446.605 402.768 446.828 402.202 447.78C401.874 448.332 401.843 448.943 402.308 451.274C402.864 454.069 403.143 455.467 403.857 457.314C405.042 460.376 407.294 464.842 408.028 464.585C408.629 464.374 408.01 461.06 407.034 455.831C406.568 453.335 406.119 451.291 405.803 449.914C407.255 449.849 408.778 449.741 410.366 449.577C412.331 449.375 414.185 449.111 415.919 448.809L413.11 445.108H413.11Z" fill="#B23030"/>
    <path d="M476.376 438.229C478.851 437.117 480.664 436.294 481.607 435.865C484.897 434.369 485.945 433.94 486.942 434.421C487.52 434.699 487.883 435.191 488.781 437.391C489.767 439.804 490.366 441.109 490.82 443.283C491.252 445.349 491.892 449.651 491.122 449.883C490.365 450.112 488.551 446.311 487.355 443.806C486.342 441.683 485.631 439.88 485.182 438.662C483.856 439.217 482.504 439.808 481.128 440.436C479.373 441.238 477.689 442.051 476.076 442.868C476.176 441.322 476.276 439.776 476.376 438.229V438.229Z" fill="#B23030"/>
    <path d="M409.606 438.309C407.13 437.196 405.318 436.373 404.374 435.944C401.085 434.448 400.036 434.02 399.039 434.5C398.461 434.779 398.099 435.271 397.2 437.471C396.215 439.884 395.615 441.188 395.161 443.363C394.729 445.428 394.09 449.73 394.86 449.963C395.617 450.192 397.431 446.391 398.627 443.885C399.64 441.762 400.35 439.96 400.8 438.741C402.125 439.297 403.477 439.887 404.853 440.516C406.608 441.318 408.293 442.131 409.906 442.948C409.806 441.401 409.706 439.855 409.606 438.309V438.309Z" fill="#B23030"/>
    <path d="M483.052 405.908C482.608 407.474 481.694 409.798 479.735 411.912C478.035 413.747 476.136 414.79 475.128 415.333C474.35 415.752 473.667 416.053 473.162 416.258L475.635 419.243C476.334 419.062 477.293 418.755 478.358 418.219C480.982 416.898 482.485 415.076 483.155 414.246C485.153 411.771 485.96 409.236 486.309 407.725L483.052 405.908V405.908Z" fill="#B23030"/>
    <path d="M402.948 404.531C403.392 406.097 404.306 408.421 406.265 410.535C407.965 412.37 409.864 413.413 410.872 413.956C411.65 414.375 412.333 414.676 412.838 414.881L410.365 417.866C409.666 417.685 408.707 417.378 407.642 416.842C405.018 415.521 403.515 413.7 402.845 412.869C400.847 410.394 400.04 407.859 399.691 406.348L402.948 404.531V404.531Z" fill="#C13838"/>
    <path d="M402.948 404.531C403.392 406.097 404.306 408.421 406.265 410.535C407.965 412.37 409.864 413.413 410.872 413.956C411.65 414.375 412.333 414.676 412.838 414.881L410.365 417.866C409.666 417.685 408.707 417.378 407.642 416.842C405.018 415.521 403.515 413.7 402.845 412.869C400.847 410.394 400.04 407.859 399.691 406.348L402.948 404.531V404.531Z" fill="#B23030"/>
    <path d="M378.725 397.798C379.358 399.178 382.427 405.875 389.595 407.807C394.906 409.237 399.387 407.223 401.424 406.308C403.604 405.328 408.315 403.211 410.588 398.133C413.458 391.72 410.32 385.32 409.365 383.371C406.051 376.612 400.047 373.795 398.161 373C397.851 375.741 397.307 378.898 396.365 382.335C395.591 385.163 394.684 387.679 393.77 389.861C391.5 389.221 388.88 388.313 386.069 387.004C382.959 385.555 380.363 383.965 378.282 382.504C377.747 383.952 375.45 390.65 378.725 397.798Z" fill="#C13838"/>
    <path d="M507.275 399.174C506.642 400.555 503.573 407.252 496.405 409.183C491.094 410.614 486.613 408.6 484.576 407.684C482.396 406.704 477.685 404.587 475.412 399.51C472.542 393.097 475.679 386.697 476.635 384.748C479.949 377.989 485.953 375.172 487.839 374.377C488.149 377.117 488.693 380.275 489.635 383.712C490.409 386.54 491.316 389.056 492.23 391.238C494.5 390.598 497.12 389.69 499.931 388.381C503.041 386.932 505.637 385.342 507.718 383.881C508.253 385.329 510.55 392.027 507.275 399.174L507.275 399.174Z" fill="#C13838"/>
    <path d="M507.275 399.174C507.275 399.174 506.994 399.801 506.666 400.417C504.978 403.584 502.833 405.551 502.833 405.551C502.374 405.973 499.813 408.272 496.405 409.183C494.982 409.563 493.61 409.649 493.47 409.657C493.187 409.673 492.314 409.715 491.174 409.608C490.892 409.582 489.689 409.462 488.044 408.999C487.621 408.88 486.373 408.514 484.576 407.684C482.786 406.857 480.447 405.777 478.347 403.707C477.374 402.747 476.78 401.899 476.584 401.611C476.038 400.809 475.663 400.073 475.412 399.51C476.793 400.969 479.89 403.837 484.756 405.234C490.882 406.993 495.952 405.313 497.923 404.629C502.953 402.884 506.159 399.831 507.713 398.115C507.603 398.403 507.458 398.764 507.275 399.174V399.174Z" fill="#B23030"/>
    <path d="M441.127 387.488C441.103 388.789 440.983 392.373 438.288 395.534C434.72 399.721 429.575 399.72 428.926 399.708C425.229 399.645 422.612 397.874 421.497 396.986C420.877 396.492 416.838 393.16 416.725 387.488C416.706 386.499 416.74 382.145 420.168 378.715C423.502 375.379 427.673 375.293 428.926 375.267C430.279 375.239 434.512 375.151 437.805 378.352C441.235 381.687 441.152 386.166 441.127 387.488V387.488Z" fill="#C13838"/>
    <path d="M446.039 387.146C446.063 388.448 446.184 392.031 448.878 395.193C452.447 399.379 457.591 399.378 458.24 399.367C461.937 399.304 464.555 397.533 465.669 396.645C466.29 396.15 470.328 392.818 470.441 387.146C470.461 386.157 470.426 381.804 466.998 378.374C463.664 375.038 459.493 374.951 458.24 374.925C456.887 374.897 452.654 374.81 449.361 378.011C445.932 381.345 446.015 385.824 446.039 387.146V387.146Z" fill="#C13838"/>
    <path d="M480.731 430.958C480.7 432.008 480.394 439 475.557 445.18C466.255 457.068 447.622 456.457 441.693 456.263C436.156 456.082 418.188 455.492 409.388 443.452C408.433 442.146 405.165 437.549 404.841 430.958C404.397 421.911 409.809 415.457 411.5 413.616C420.253 404.09 434.138 404.091 441.998 404.092C448.728 404.093 467.599 404.095 476.309 416.317C480.883 422.735 480.764 429.869 480.731 430.958V430.958Z" fill="#C13838"/>
    <path d="M427.348 399.218C427.474 400.365 427.539 401.741 427.435 403.29C427.315 405.093 427 406.645 426.659 407.886L431.661 407.864C431.315 406.614 430.995 405.139 430.794 403.472C430.601 401.875 430.556 400.425 430.585 399.17L427.348 399.218L427.348 399.218Z" fill="#C13838"/>
    <path d="M459.932 398.958C459.806 400.105 459.741 401.481 459.844 403.03C459.965 404.833 460.28 406.385 460.62 407.626L455.619 407.604C455.965 406.354 456.285 404.879 456.486 403.212C456.679 401.615 456.724 400.165 456.695 398.91L459.932 398.958L459.932 398.958Z" fill="#C13838"/>
    <path d="M480.731 430.958C480.696 432.182 480.404 438.945 475.557 445.18C469.513 452.956 460.466 454.663 455.567 455.588C450.911 456.466 446.715 456.374 441.693 456.263C441.263 456.253 436.379 456.132 431.747 455.37C429.297 454.967 427.019 454.402 425.877 454.065C425.232 453.874 424.46 453.632 424.459 453.632C423.546 453.345 422.607 453.035 422.167 452.88C420.169 452.176 419.152 451.592 418.628 451.247C418.604 451.231 418.367 451.066 418.366 451.064C420.54 451.738 423.689 452.516 427.557 452.786C430.035 452.959 431.918 452.861 433.275 452.786C433.752 452.76 439.565 452.415 444.832 450.971C457.672 447.451 465.609 438.993 465.609 438.992C473.763 430.303 475.739 420.357 476.309 416.317C477.533 418.062 480.951 423.411 480.731 430.958L480.731 430.958Z" fill="#B23030"/>
    <path d="M461.894 378.682C460.935 378.285 458.278 377.233 455.11 378.204C450.914 379.489 449.278 383.262 449.08 383.741C447.95 386.473 448.412 388.955 448.706 390.055C448.87 390.667 450.021 394.689 454.131 396.576C454.848 396.905 458.041 398.265 461.639 396.842C465.138 395.458 466.528 392.427 466.945 391.517C467.396 390.533 468.807 387.457 467.515 384.024C466.169 380.448 462.868 379.084 461.894 378.682Z" fill="white"/>
    <path d="M438.788 388.832C438.877 387.797 439.076 384.942 437.197 382.209C434.708 378.59 430.623 378.166 430.107 378.121C427.166 377.866 424.942 379.056 423.984 379.669C423.451 380.01 419.97 382.322 419.413 386.817C419.316 387.6 418.985 391.06 421.425 394.066C423.798 396.991 427.102 397.404 428.095 397.528C429.167 397.662 432.521 398.081 435.399 395.812C438.396 393.448 438.699 389.884 438.788 388.832Z" fill="white"/>
    <path d="M459.972 382.96C459.451 382.744 458.007 382.173 456.285 382.7C454.005 383.398 453.116 385.449 453.008 385.71C452.394 387.194 452.645 388.543 452.805 389.141C452.894 389.474 453.519 391.66 455.753 392.685C456.143 392.864 457.878 393.603 459.833 392.83C461.735 392.078 462.491 390.43 462.718 389.935C462.963 389.401 463.729 387.729 463.027 385.863C462.295 383.92 460.502 383.179 459.972 382.96V382.96Z" fill="#5E1111"/>
    <path d="M430.958 383.205C430.436 382.989 428.992 382.418 427.27 382.945C424.99 383.643 424.101 385.694 423.993 385.955C423.379 387.439 423.63 388.788 423.79 389.386C423.88 389.719 424.505 391.905 426.739 392.93C427.128 393.109 428.864 393.848 430.819 393.075C432.721 392.323 433.476 390.676 433.703 390.181C433.948 389.646 434.715 387.974 434.013 386.108C433.281 384.165 431.487 383.424 430.958 383.205V383.205Z" fill="#5E1111"/>
    <path d="M457.173 384.904C457.181 384.709 457.196 384.17 456.821 383.671C456.324 383.011 455.553 382.963 455.455 382.959C454.9 382.935 454.491 383.176 454.316 383.299C454.219 383.368 453.582 383.83 453.513 384.68C453.501 384.828 453.467 385.481 453.949 386.027C454.419 386.558 455.044 386.609 455.231 386.625C455.434 386.641 456.068 386.693 456.591 386.244C457.136 385.775 457.165 385.103 457.173 384.904H457.173Z" fill="white"/>
    <path d="M427.999 385.317C428.007 385.121 428.022 384.583 427.647 384.084C427.15 383.423 426.379 383.376 426.281 383.372C425.726 383.347 425.318 383.589 425.142 383.712C425.045 383.78 424.408 384.243 424.34 385.092C424.328 385.24 424.293 385.894 424.776 386.439C425.245 386.97 425.87 387.022 426.057 387.037C426.26 387.054 426.894 387.106 427.417 386.656C427.962 386.188 427.991 385.515 427.999 385.317H427.999Z" fill="white"/>
    <path d="M408.74 393.439L409.007 393.332C409.163 393.247 409.515 393.027 409.765 392.59C410.044 392.105 410.032 391.64 410.019 391.465C409.96 389.997 409.67 387.658 408.433 385.127C407.726 383.679 406.899 382.555 406.184 381.731C406.028 381.545 405.675 381.171 405.147 380.984C404.98 380.925 404.722 380.836 404.394 380.885C404.291 380.901 404.187 380.928 404.086 380.968L403.819 381.075C403.787 381.084 403.226 381.249 403.06 381.817C402.948 382.203 403.062 382.623 403.355 382.906C404.128 383.831 405.152 385.27 405.929 387.232C406.787 389.4 406.996 391.329 407.034 392.594C407.049 392.66 407.17 393.168 407.679 393.423C408.195 393.681 408.679 393.467 408.74 393.439L408.74 393.439Z" fill="#DB8282"/>
    <path d="M400.973 380.255C401.543 380.866 402.5 380.899 403.11 380.328C403.72 379.757 403.753 378.799 403.183 378.187L402.909 377.894C402.339 377.283 401.382 377.25 400.772 377.821C400.162 378.392 400.129 379.351 400.699 379.962L400.973 380.255Z" fill="#DB8282"/>
    <path d="M477.308 394.477L477.039 394.376C476.881 394.293 476.525 394.08 476.266 393.648C475.979 393.168 475.982 392.703 475.992 392.528C476.023 391.059 476.269 388.716 477.458 386.161C478.137 384.701 478.943 383.561 479.643 382.724C479.795 382.534 480.141 382.154 480.666 381.957C480.831 381.895 481.087 381.801 481.416 381.844C481.52 381.857 481.624 381.883 481.725 381.921L481.994 382.023C482.027 382.031 482.591 382.185 482.767 382.75C482.887 383.134 482.781 383.557 482.493 383.844C481.737 384.784 480.741 386.243 480.001 388.219C479.184 390.403 479.012 392.335 478.997 393.6C478.984 393.667 478.872 394.177 478.368 394.441C477.857 394.71 477.369 394.504 477.308 394.477V394.477Z" fill="#DB8282"/>
    <path d="M485.093 380.851C485.651 380.229 485.601 379.271 484.98 378.712C484.359 378.153 483.403 378.203 482.845 378.825L482.577 379.124C482.018 379.746 482.069 380.703 482.69 381.262C483.31 381.822 484.267 381.771 484.825 381.149L485.093 380.851Z" fill="#DB8282"/>
    <path d="M378.732 397.828C378.732 397.828 379.012 398.454 379.341 399.07C381.029 402.237 383.174 404.205 383.174 404.205C383.633 404.626 386.193 406.926 389.602 407.837C391.024 408.217 392.397 408.302 392.536 408.31C392.819 408.326 393.692 408.369 394.833 408.262C395.115 408.235 396.318 408.115 397.963 407.652C398.386 407.533 399.634 407.168 401.431 406.338C403.221 405.511 405.559 404.43 407.66 402.36C408.626 401.408 409.202 400.592 409.423 400.264C409.966 399.459 410.331 398.721 410.573 398.163C409.196 399.621 406.107 402.489 401.25 403.887C395.133 405.649 390.065 403.97 388.083 403.282C383.053 401.537 379.848 398.484 378.294 396.768C378.403 397.056 378.548 397.417 378.732 397.828L378.732 397.828Z" fill="#B23030"/>
    <path d="M432.508 412.375C432.622 412.254 436.886 418.843 442.785 418.753C448.542 418.666 452.52 412.269 452.623 412.375C452.728 412.482 449.011 419.562 442.697 419.633C436.288 419.705 432.392 412.496 432.508 412.375Z" fill="#5E1111"/>
    <path d="M738.152 162.574C739.164 163.105 740.711 163.92 742.612 164.942C745.174 166.319 746.119 166.857 746.297 167.844C746.35 168.137 746.339 168.485 745.573 170.173C744.478 172.588 743.769 173.674 743.769 173.674C743.092 174.718 738.834 181.292 737.987 180.827C737.864 180.76 737.66 180.461 739.931 173.266C740.519 171.402 741.025 169.862 741.379 168.799C740.51 168.408 739.589 167.95 738.635 167.411C737.153 166.575 735.867 165.701 734.771 164.865L738.152 162.574V162.574Z" fill="#B23030"/>
    <path d="M695.185 162.724C694.173 163.254 692.626 164.069 690.725 165.091C688.163 166.469 687.218 167.006 687.04 167.993C686.987 168.286 686.998 168.634 687.764 170.323C688.859 172.738 689.569 173.823 689.569 173.823C690.245 174.868 694.503 181.441 695.351 180.977C695.473 180.909 695.677 180.611 693.406 173.416C692.818 171.552 692.312 170.012 691.958 168.948C692.827 168.558 693.748 168.1 694.703 167.561C696.184 166.724 697.47 165.851 698.566 165.015L695.185 162.724V162.724Z" fill="#B23030"/>
    <path d="M745.916 157.226C748.593 157.668 750.558 157.985 751.581 158.15C755.148 158.723 756.258 158.946 756.824 159.898C757.152 160.45 757.183 161.061 756.719 163.392C756.162 166.187 755.884 167.584 755.169 169.432C753.984 172.493 751.733 176.96 750.999 176.702C750.397 176.491 751.016 173.178 751.992 167.949C752.458 165.453 752.907 163.408 753.224 162.032C751.772 161.967 750.248 161.858 748.66 161.695C746.696 161.493 744.842 161.229 743.108 160.927L745.916 157.226H745.916Z" fill="#B23030"/>
    <path d="M686.11 157.108C683.433 157.55 681.468 157.867 680.445 158.032C676.878 158.605 675.768 158.828 675.202 159.78C674.874 160.332 674.843 160.943 675.308 163.274C675.864 166.069 676.143 167.467 676.857 169.314C678.042 172.376 680.294 176.842 681.028 176.584C681.629 176.373 681.01 173.06 680.034 167.831C679.568 165.335 679.119 163.29 678.803 161.914C680.255 161.849 681.778 161.741 683.366 161.577C685.331 161.375 687.185 161.111 688.919 160.809L686.11 157.108H686.11Z" fill="#B23030"/>
    <path d="M749.376 150.23C751.851 149.117 753.664 148.294 754.607 147.865C757.897 146.369 758.945 145.94 759.942 146.421C760.52 146.699 760.883 147.191 761.781 149.391C762.767 151.804 763.366 153.109 763.82 155.283C764.252 157.349 764.892 161.651 764.122 161.883C763.365 162.112 761.551 158.311 760.355 155.806C759.342 153.683 758.631 151.88 758.182 150.662C756.856 151.217 755.504 151.808 754.128 152.436C752.373 153.238 750.689 154.051 749.076 154.868C749.176 153.322 749.276 151.776 749.376 150.23V150.23Z" fill="#B23030"/>
    <path d="M682.606 150.309C680.13 149.196 678.318 148.373 677.374 147.944C674.085 146.448 673.036 146.02 672.039 146.5C671.461 146.779 671.099 147.271 670.2 149.471C669.215 151.884 668.615 153.188 668.161 155.363C667.729 157.428 667.09 161.73 667.86 161.963C668.617 162.192 670.431 158.391 671.627 155.885C672.64 153.762 673.35 151.96 673.8 150.741C675.125 151.297 676.477 151.887 677.853 152.516C679.608 153.318 681.293 154.131 682.906 154.948C682.806 153.401 682.706 151.855 682.606 150.309V150.309Z" fill="#B23030"/>
    <path d="M756.052 117.908C755.608 119.474 754.694 121.798 752.735 123.912C751.035 125.747 749.136 126.79 748.128 127.333C747.35 127.752 746.667 128.053 746.162 128.258L748.635 131.243C749.334 131.062 750.293 130.755 751.358 130.219C753.982 128.898 755.485 127.076 756.155 126.246C758.153 123.771 758.96 121.236 759.309 119.725L756.052 117.908V117.908Z" fill="#B23030"/>
    <path d="M675.948 116.531C676.392 118.097 677.306 120.421 679.265 122.535C680.965 124.37 682.864 125.413 683.872 125.956C684.65 126.375 685.333 126.676 685.838 126.881L683.365 129.866C682.666 129.685 681.707 129.378 680.642 128.842C678.018 127.521 676.515 125.7 675.845 124.869C673.847 122.394 673.04 119.859 672.691 118.348L675.948 116.531V116.531Z" fill="#C13838"/>
    <path d="M675.948 116.531C676.392 118.097 677.306 120.421 679.265 122.535C680.965 124.37 682.864 125.413 683.872 125.956C684.65 126.375 685.333 126.676 685.838 126.881L683.365 129.866C682.666 129.685 681.707 129.378 680.642 128.842C678.018 127.521 676.515 125.7 675.845 124.869C673.847 122.394 673.04 119.859 672.691 118.348L675.948 116.531V116.531Z" fill="#B23030"/>
    <path d="M651.725 109.798C652.358 111.178 655.427 117.875 662.595 119.807C667.906 121.237 672.387 119.223 674.424 118.308C676.604 117.328 681.315 115.211 683.588 110.133C686.458 103.72 683.32 97.3203 682.365 95.371C679.051 88.6119 673.047 85.7949 671.161 85C670.851 87.7405 670.307 90.8984 669.365 94.3353C668.591 97.163 667.684 99.6791 666.77 101.861C664.5 101.221 661.88 100.313 659.069 99.004C655.959 97.5553 653.363 95.9652 651.282 94.5042C650.747 95.9523 648.45 102.65 651.725 109.798Z" fill="#C13838"/>
    <path d="M780.275 111.174C779.642 112.555 776.573 119.252 769.405 121.183C764.094 122.614 759.613 120.6 757.576 119.684C755.396 118.704 750.685 116.587 748.412 111.51C745.542 105.097 748.679 98.697 749.635 96.7478C752.949 89.9886 758.953 87.1716 760.839 86.3767C761.149 89.1172 761.693 92.2751 762.635 95.712C763.409 98.5398 764.316 101.056 765.23 103.238C767.5 102.598 770.12 101.69 772.931 100.381C776.041 98.932 778.637 97.3419 780.718 95.8809C781.253 97.329 783.55 104.027 780.275 111.174L780.275 111.174Z" fill="#C13838"/>
    <path d="M780.275 111.174C780.275 111.174 779.994 111.801 779.666 112.417C777.978 115.584 775.833 117.551 775.833 117.551C775.374 117.973 772.813 120.272 769.405 121.183C767.982 121.563 766.61 121.649 766.47 121.657C766.187 121.673 765.314 121.715 764.174 121.608C763.892 121.582 762.689 121.462 761.044 120.999C760.621 120.88 759.373 120.515 757.576 119.684C755.786 118.857 753.447 117.777 751.347 115.707C750.374 114.747 749.78 113.899 749.584 113.611C749.038 112.809 748.663 112.073 748.412 111.51C749.793 112.969 752.89 115.837 757.756 117.234C763.882 118.993 768.952 117.313 770.923 116.629C775.953 114.884 779.159 111.831 780.713 110.115C780.603 110.403 780.458 110.764 780.275 111.174V111.174Z" fill="#B23030"/>
    <path d="M714.127 99.4876C714.103 100.789 713.983 104.373 711.288 107.534C707.72 111.721 702.575 111.72 701.926 111.708C698.229 111.645 695.612 109.874 694.497 108.986C693.877 108.492 689.838 105.16 689.725 99.4877C689.706 98.4989 689.74 94.1452 693.168 90.7153C696.502 87.3793 700.673 87.2928 701.926 87.2669C703.279 87.2388 707.512 87.151 710.805 90.3523C714.235 93.6865 714.152 98.1657 714.127 99.4877V99.4876Z" fill="#C13838"/>
    <path d="M719.039 99.1462C719.063 100.448 719.184 104.031 721.878 107.193C725.447 111.379 730.591 111.378 731.24 111.367C734.937 111.304 737.555 109.533 738.669 108.645C739.29 108.15 743.328 104.818 743.441 99.1462C743.461 98.1575 743.426 93.8038 739.998 90.3739C736.664 87.0379 732.493 86.9514 731.24 86.9254C729.887 86.8974 725.654 86.8096 722.361 90.0109C718.932 93.3451 719.015 97.8243 719.039 99.1462V99.1462Z" fill="#C13838"/>
    <path d="M753.731 142.958C753.7 144.008 753.394 151 748.557 157.18C739.255 169.068 720.622 168.457 714.693 168.263C709.156 168.082 691.188 167.492 682.388 155.452C681.433 154.146 678.165 149.549 677.841 142.958C677.397 133.911 682.809 127.457 684.5 125.616C693.253 116.09 707.138 116.091 714.998 116.092C721.728 116.093 740.599 116.095 749.309 128.317C753.883 134.735 753.764 141.869 753.731 142.958V142.958Z" fill="#C13838"/>
    <path d="M700.348 111.218C700.474 112.365 700.539 113.741 700.435 115.29C700.315 117.093 700 118.645 699.659 119.886L704.661 119.864C704.315 118.614 703.995 117.139 703.794 115.472C703.601 113.875 703.556 112.425 703.585 111.17L700.348 111.218L700.348 111.218Z" fill="#C13838"/>
    <path d="M732.932 110.958C732.806 112.105 732.741 113.481 732.844 115.03C732.965 116.833 733.28 118.385 733.62 119.626L728.619 119.604C728.965 118.354 729.285 116.879 729.486 115.212C729.679 113.615 729.724 112.165 729.695 110.91L732.932 110.958L732.932 110.958Z" fill="#C13838"/>
    <path d="M753.731 142.958C753.696 144.182 753.404 150.945 748.557 157.18C742.513 164.956 733.466 166.663 728.567 167.588C723.911 168.466 719.715 168.374 714.693 168.263C714.263 168.253 709.379 168.132 704.747 167.37C702.297 166.967 700.019 166.402 698.877 166.065C698.232 165.874 697.46 165.632 697.459 165.632C696.546 165.345 695.607 165.035 695.167 164.88C693.169 164.176 692.152 163.592 691.628 163.247C691.604 163.231 691.367 163.066 691.366 163.064C693.54 163.738 696.689 164.516 700.557 164.786C703.035 164.959 704.918 164.861 706.275 164.786C706.752 164.76 712.565 164.415 717.832 162.971C730.672 159.451 738.609 150.993 738.609 150.992C746.763 142.303 748.739 132.357 749.309 128.317C750.533 130.062 753.951 135.411 753.731 142.958L753.731 142.958Z" fill="#B23030"/>
    <path d="M734.894 90.6815C733.935 90.2851 731.278 89.2332 728.11 90.2036C723.914 91.4886 722.278 95.2617 722.08 95.7411C720.95 98.4725 721.412 100.955 721.706 102.055C721.87 102.667 723.021 106.689 727.131 108.576C727.848 108.905 731.041 110.265 734.639 108.842C738.138 107.458 739.528 104.427 739.945 103.517C740.396 102.533 741.807 99.457 740.515 96.0239C739.169 92.4482 735.868 91.0841 734.894 90.6815Z" fill="white"/>
    <path d="M711.788 100.833C711.877 99.797 712.076 96.9419 710.197 94.2092C707.708 90.5903 703.623 90.1662 703.107 90.1214C700.166 89.8661 697.942 91.0561 696.984 91.6693C696.451 92.0104 692.97 94.3225 692.413 98.8168C692.316 99.6003 691.985 103.06 694.425 106.067C696.798 108.991 700.102 109.404 701.095 109.528C702.167 109.662 705.521 110.081 708.399 107.812C711.396 105.448 711.699 101.884 711.788 100.833Z" fill="white"/>
    <path d="M732.972 94.9597C732.451 94.7443 731.007 94.1726 729.285 94.7C727.005 95.3983 726.116 97.449 726.008 97.7096C725.394 99.194 725.645 100.543 725.805 101.141C725.894 101.474 726.519 103.66 728.753 104.685C729.143 104.864 730.878 105.603 732.833 104.83C734.735 104.078 735.491 102.43 735.718 101.935C735.963 101.401 736.729 99.729 736.027 97.8632C735.295 95.9199 733.502 95.1785 732.972 94.9597V94.9597Z" fill="#5E1111"/>
    <path d="M703.958 95.2048C703.436 94.9894 701.992 94.4177 700.27 94.9451C697.99 95.6435 697.101 97.6941 696.993 97.9547C696.379 99.4392 696.63 100.788 696.79 101.386C696.88 101.719 697.505 103.905 699.739 104.93C700.128 105.109 701.864 105.848 703.819 105.075C705.721 104.323 706.476 102.676 706.703 102.181C706.948 101.646 707.715 99.9742 707.013 98.1083C706.281 96.165 704.487 95.4236 703.958 95.2049V95.2048Z" fill="#5E1111"/>
    <path d="M730.173 96.9041C730.181 96.7086 730.196 96.1701 729.821 95.6712C729.324 95.0106 728.553 94.9634 728.455 94.9591C727.9 94.9346 727.491 95.1762 727.316 95.2991C727.219 95.3676 726.582 95.8301 726.513 96.6798C726.501 96.8279 726.467 97.4811 726.949 98.027C727.419 98.558 728.044 98.6093 728.231 98.6247C728.434 98.6413 729.068 98.6934 729.591 98.2436C730.136 97.7751 730.165 97.1025 730.173 96.9041H730.173Z" fill="white"/>
    <path d="M700.999 97.3165C701.007 97.1211 701.022 96.5826 700.647 96.0837C700.15 95.423 699.379 95.3759 699.281 95.3716C698.726 95.3471 698.318 95.5886 698.142 95.7116C698.045 95.78 697.408 96.2426 697.34 97.0922C697.328 97.2403 697.293 97.8936 697.776 98.4395C698.245 98.9704 698.87 99.0217 699.057 99.0372C699.26 99.0538 699.894 99.1059 700.417 98.656C700.962 98.1875 700.991 97.515 700.999 97.3165H700.999Z" fill="white"/>
    <path d="M681.74 105.439L682.007 105.332C682.163 105.247 682.515 105.027 682.765 104.59C683.044 104.105 683.032 103.64 683.019 103.465C682.96 101.997 682.67 99.6583 681.433 97.1267C680.726 95.6794 679.899 94.555 679.184 93.7312C679.028 93.5449 678.675 93.1714 678.147 92.9841C677.98 92.9252 677.722 92.8362 677.394 92.8851C677.291 92.9005 677.187 92.928 677.086 92.9684L676.819 93.075C676.787 93.0839 676.226 93.2485 676.06 93.8171C675.948 94.203 676.062 94.6234 676.355 94.9058C677.128 95.8313 678.152 97.2705 678.929 99.232C679.787 101.4 679.996 103.329 680.034 104.594C680.049 104.66 680.17 105.168 680.679 105.423C681.195 105.681 681.679 105.467 681.74 105.439L681.74 105.439Z" fill="#DB8282"/>
    <path d="M673.973 92.2552C674.543 92.8664 675.5 92.899 676.11 92.328C676.72 91.7571 676.753 90.7987 676.183 90.1875L675.909 89.8942C675.339 89.2829 674.382 89.2503 673.772 89.8213C673.162 90.3923 673.129 91.3507 673.699 91.9619L673.973 92.2552Z" fill="#DB8282"/>
    <path d="M750.308 106.477L750.039 106.376C749.881 106.293 749.525 106.08 749.266 105.648C748.979 105.168 748.982 104.703 748.992 104.528C749.023 103.059 749.269 100.716 750.458 98.161C751.137 96.7006 751.943 95.5607 752.643 94.7236C752.795 94.5343 753.141 94.1543 753.666 93.957C753.831 93.895 754.087 93.8011 754.416 93.8438C754.52 93.8572 754.624 93.8827 754.725 93.9212L754.994 94.0228C755.027 94.031 755.591 94.185 755.767 94.7503C755.887 95.1341 755.781 95.5566 755.493 95.8444C754.737 96.7844 753.741 98.2427 753.001 100.219C752.184 102.403 752.012 104.335 751.997 105.6C751.984 105.667 751.872 106.177 751.368 106.441C750.857 106.71 750.369 106.504 750.308 106.477V106.477Z" fill="#DB8282"/>
    <path d="M758.093 92.8508C758.651 92.2289 758.601 91.2713 757.98 90.712C757.359 90.1527 756.403 90.2034 755.845 90.8252L755.577 91.1237C755.018 91.7456 755.069 92.7032 755.69 93.2625C756.31 93.8218 757.267 93.7711 757.825 93.1493L758.093 92.8508Z" fill="#DB8282"/>
    <path d="M651.732 109.828C651.732 109.828 652.012 110.454 652.341 111.07C654.029 114.237 656.174 116.205 656.174 116.205C656.633 116.626 659.193 118.926 662.602 119.837C664.024 120.217 665.397 120.302 665.536 120.31C665.819 120.326 666.692 120.369 667.833 120.262C668.115 120.235 669.318 120.115 670.963 119.652C671.386 119.533 672.634 119.168 674.431 118.338C676.221 117.511 678.559 116.43 680.66 114.36C681.626 113.408 682.202 112.592 682.423 112.264C682.966 111.459 683.331 110.721 683.573 110.163C682.196 111.621 679.107 114.489 674.25 115.887C668.133 117.649 663.065 115.97 661.083 115.282C656.053 113.537 652.848 110.484 651.294 108.768C651.403 109.056 651.548 109.417 651.732 109.828L651.732 109.828Z" fill="#B23030"/>
    <path d="M705.508 124.375C705.622 124.254 709.886 130.843 715.785 130.753C721.542 130.666 725.52 124.269 725.623 124.375C725.728 124.482 722.011 131.562 715.697 131.633C709.288 131.705 705.392 124.496 705.508 124.375Z" fill="#5E1111"/>
    <path d="M231.152 166.574C232.164 167.105 233.711 167.92 235.612 168.942C238.174 170.319 239.119 170.857 239.297 171.844C239.35 172.137 239.339 172.485 238.573 174.173C237.478 176.588 236.769 177.674 236.769 177.674C236.092 178.718 231.834 185.292 230.987 184.827C230.864 184.76 230.66 184.461 232.931 177.266C233.519 175.402 234.025 173.862 234.379 172.799C233.51 172.408 232.589 171.95 231.635 171.411C230.153 170.575 228.867 169.701 227.771 168.865L231.152 166.574V166.574Z" fill="#B23030"/>
    <path d="M188.185 166.724C187.173 167.254 185.626 168.069 183.725 169.091C181.163 170.469 180.218 171.006 180.04 171.993C179.987 172.286 179.998 172.634 180.764 174.323C181.859 176.738 182.569 177.823 182.569 177.823C183.245 178.868 187.503 185.441 188.351 184.977C188.473 184.909 188.677 184.611 186.406 177.416C185.818 175.552 185.312 174.012 184.958 172.948C185.827 172.558 186.748 172.1 187.703 171.561C189.184 170.724 190.47 169.851 191.566 169.015L188.185 166.724V166.724Z" fill="#B23030"/>
    <path d="M238.916 161.226C241.593 161.668 243.558 161.985 244.581 162.15C248.148 162.723 249.258 162.946 249.824 163.898C250.152 164.45 250.183 165.061 249.719 167.392C249.162 170.187 248.884 171.584 248.169 173.432C246.984 176.493 244.733 180.96 243.999 180.702C243.397 180.491 244.016 177.178 244.992 171.949C245.458 169.453 245.907 167.408 246.224 166.032C244.772 165.967 243.248 165.858 241.66 165.695C239.696 165.493 237.842 165.229 236.108 164.927L238.916 161.226H238.916Z" fill="#B23030"/>
    <path d="M179.11 161.108C176.433 161.55 174.468 161.867 173.445 162.032C169.878 162.605 168.768 162.828 168.202 163.78C167.874 164.332 167.843 164.943 168.308 167.274C168.864 170.069 169.143 171.467 169.857 173.314C171.042 176.376 173.294 180.842 174.028 180.584C174.629 180.373 174.01 177.06 173.034 171.831C172.568 169.335 172.119 167.29 171.803 165.914C173.255 165.849 174.778 165.741 176.366 165.577C178.331 165.375 180.185 165.111 181.919 164.809L179.11 161.108H179.11Z" fill="#B23030"/>
    <path d="M242.376 154.23C244.851 153.117 246.664 152.294 247.607 151.865C250.897 150.369 251.945 149.94 252.942 150.421C253.52 150.699 253.883 151.191 254.781 153.391C255.767 155.804 256.366 157.109 256.82 159.283C257.252 161.349 257.892 165.651 257.122 165.883C256.365 166.112 254.551 162.311 253.355 159.806C252.342 157.683 251.631 155.88 251.182 154.662C249.856 155.217 248.504 155.808 247.128 156.436C245.373 157.238 243.689 158.051 242.076 158.868C242.176 157.322 242.276 155.776 242.376 154.23V154.23Z" fill="#B23030"/>
    <path d="M175.606 154.309C173.13 153.196 171.318 152.373 170.374 151.944C167.085 150.448 166.036 150.02 165.039 150.5C164.461 150.779 164.099 151.271 163.2 153.471C162.215 155.884 161.615 157.188 161.161 159.363C160.729 161.428 160.09 165.73 160.86 165.963C161.617 166.192 163.431 162.391 164.627 159.885C165.64 157.762 166.35 155.96 166.8 154.741C168.125 155.297 169.477 155.887 170.853 156.516C172.608 157.318 174.293 158.131 175.906 158.948C175.806 157.401 175.706 155.855 175.606 154.309V154.309Z" fill="#B23030"/>
    <path d="M249.052 121.908C248.608 123.474 247.694 125.798 245.735 127.912C244.035 129.747 242.136 130.79 241.128 131.333C240.35 131.752 239.667 132.053 239.162 132.258L241.635 135.243C242.334 135.062 243.293 134.755 244.358 134.219C246.982 132.898 248.485 131.076 249.155 130.246C251.153 127.771 251.96 125.236 252.309 123.725L249.052 121.908V121.908Z" fill="#B23030"/>
    <path d="M168.948 120.531C169.392 122.097 170.306 124.421 172.265 126.535C173.965 128.37 175.864 129.413 176.872 129.956C177.65 130.375 178.333 130.676 178.838 130.881L176.365 133.866C175.666 133.685 174.707 133.378 173.642 132.842C171.018 131.521 169.515 129.7 168.845 128.869C166.847 126.394 166.04 123.859 165.691 122.348L168.948 120.531V120.531Z" fill="#C13838"/>
    <path d="M168.948 120.531C169.392 122.097 170.306 124.421 172.265 126.535C173.965 128.37 175.864 129.413 176.872 129.956C177.65 130.375 178.333 130.676 178.838 130.881L176.365 133.866C175.666 133.685 174.707 133.378 173.642 132.842C171.018 131.521 169.515 129.7 168.845 128.869C166.847 126.394 166.04 123.859 165.691 122.348L168.948 120.531V120.531Z" fill="#B23030"/>
    <path d="M144.725 113.798C145.358 115.178 148.427 121.875 155.595 123.807C160.906 125.237 165.387 123.223 167.424 122.308C169.604 121.328 174.315 119.211 176.588 114.133C179.458 107.72 176.32 101.32 175.365 99.371C172.051 92.6119 166.047 89.7949 164.161 89C163.851 91.7405 163.307 94.8984 162.365 98.3353C161.591 101.163 160.684 103.679 159.77 105.861C157.5 105.221 154.88 104.313 152.069 103.004C148.959 101.555 146.363 99.9652 144.282 98.5042C143.747 99.9523 141.45 106.65 144.725 113.798Z" fill="#C13838"/>
    <path d="M273.275 115.174C272.642 116.555 269.573 123.252 262.405 125.183C257.094 126.614 252.613 124.6 250.576 123.684C248.396 122.704 243.685 120.587 241.412 115.51C238.542 109.097 241.679 102.697 242.635 100.748C245.949 93.9886 251.953 91.1716 253.839 90.3767C254.149 93.1172 254.693 96.2751 255.635 99.712C256.409 102.54 257.316 105.056 258.23 107.238C260.5 106.598 263.12 105.69 265.931 104.381C269.041 102.932 271.637 101.342 273.718 99.8809C274.253 101.329 276.55 108.027 273.275 115.174L273.275 115.174Z" fill="#C13838"/>
    <path d="M273.275 115.174C273.275 115.174 272.994 115.801 272.666 116.417C270.978 119.584 268.833 121.551 268.833 121.551C268.374 121.973 265.813 124.272 262.405 125.183C260.982 125.563 259.61 125.649 259.47 125.657C259.187 125.673 258.314 125.715 257.174 125.608C256.892 125.582 255.689 125.462 254.044 124.999C253.621 124.88 252.373 124.515 250.576 123.684C248.786 122.857 246.447 121.777 244.347 119.707C243.374 118.747 242.78 117.899 242.584 117.611C242.038 116.809 241.663 116.073 241.412 115.51C242.793 116.969 245.89 119.837 250.756 121.234C256.882 122.993 261.952 121.313 263.923 120.629C268.953 118.884 272.159 115.831 273.713 114.115C273.603 114.403 273.458 114.764 273.275 115.174V115.174Z" fill="#B23030"/>
    <path d="M207.127 103.488C207.103 104.789 206.983 108.373 204.288 111.534C200.72 115.721 195.575 115.72 194.926 115.708C191.229 115.645 188.612 113.874 187.497 112.986C186.877 112.492 182.838 109.16 182.725 103.488C182.706 102.499 182.74 98.1452 186.168 94.7153C189.502 91.3793 193.673 91.2928 194.926 91.2669C196.279 91.2388 200.512 91.151 203.805 94.3523C207.235 97.6865 207.152 102.166 207.127 103.488V103.488Z" fill="#C13838"/>
    <path d="M212.039 103.146C212.063 104.448 212.184 108.031 214.878 111.193C218.447 115.379 223.591 115.378 224.24 115.367C227.937 115.304 230.555 113.533 231.669 112.645C232.29 112.15 236.328 108.818 236.441 103.146C236.461 102.157 236.426 97.8038 232.998 94.3739C229.664 91.0379 225.493 90.9514 224.24 90.9254C222.887 90.8974 218.654 90.8096 215.361 94.0109C211.932 97.3451 212.015 101.824 212.039 103.146V103.146Z" fill="#C13838"/>
    <path d="M246.731 146.958C246.7 148.008 246.394 155 241.557 161.18C232.255 173.068 213.622 172.457 207.693 172.263C202.156 172.082 184.188 171.492 175.388 159.452C174.433 158.146 171.165 153.549 170.841 146.958C170.397 137.911 175.809 131.457 177.5 129.616C186.253 120.09 200.138 120.091 207.998 120.092C214.728 120.093 233.599 120.095 242.309 132.317C246.883 138.735 246.764 145.869 246.731 146.958V146.958Z" fill="#C13838"/>
    <path d="M193.348 115.218C193.474 116.365 193.539 117.741 193.435 119.29C193.315 121.093 193 122.645 192.659 123.886L197.661 123.864C197.315 122.614 196.995 121.139 196.794 119.472C196.601 117.875 196.556 116.425 196.585 115.17L193.348 115.218L193.348 115.218Z" fill="#C13838"/>
    <path d="M225.932 114.958C225.806 116.105 225.741 117.481 225.844 119.03C225.965 120.833 226.28 122.385 226.62 123.626L221.619 123.604C221.965 122.354 222.285 120.879 222.486 119.212C222.679 117.615 222.724 116.165 222.695 114.91L225.932 114.958L225.932 114.958Z" fill="#C13838"/>
    <path d="M246.731 146.958C246.696 148.182 246.404 154.945 241.557 161.18C235.513 168.956 226.466 170.663 221.567 171.588C216.911 172.466 212.715 172.374 207.693 172.263C207.263 172.253 202.379 172.132 197.747 171.37C195.297 170.967 193.019 170.402 191.877 170.065C191.232 169.874 190.46 169.632 190.459 169.632C189.546 169.345 188.607 169.035 188.167 168.88C186.169 168.176 185.152 167.592 184.628 167.247C184.604 167.231 184.367 167.066 184.366 167.064C186.54 167.738 189.689 168.516 193.557 168.786C196.035 168.959 197.918 168.861 199.275 168.786C199.752 168.76 205.565 168.415 210.832 166.971C223.672 163.451 231.609 154.993 231.609 154.992C239.763 146.303 241.739 136.357 242.309 132.317C243.533 134.062 246.951 139.411 246.731 146.958L246.731 146.958Z" fill="#B23030"/>
    <path d="M227.894 94.6815C226.935 94.2851 224.278 93.2332 221.11 94.2036C216.914 95.4886 215.278 99.2617 215.08 99.7411C213.95 102.473 214.412 104.955 214.706 106.055C214.87 106.667 216.021 110.689 220.131 112.576C220.848 112.905 224.041 114.265 227.639 112.842C231.138 111.458 232.528 108.427 232.945 107.517C233.396 106.533 234.807 103.457 233.515 100.024C232.169 96.4482 228.868 95.0841 227.894 94.6815Z" fill="white"/>
    <path d="M204.788 104.833C204.877 103.797 205.076 100.942 203.197 98.2092C200.708 94.5903 196.623 94.1662 196.107 94.1214C193.166 93.8661 190.942 95.0561 189.984 95.6693C189.451 96.0104 185.97 98.3225 185.413 102.817C185.316 103.6 184.985 107.06 187.425 110.067C189.798 112.991 193.102 113.404 194.095 113.528C195.167 113.662 198.521 114.081 201.399 111.812C204.396 109.448 204.699 105.884 204.788 104.833Z" fill="white"/>
    <path d="M225.972 98.9597C225.451 98.7443 224.007 98.1726 222.285 98.7C220.005 99.3983 219.116 101.449 219.008 101.71C218.394 103.194 218.645 104.543 218.805 105.141C218.894 105.474 219.519 107.66 221.753 108.685C222.143 108.864 223.878 109.603 225.833 108.83C227.735 108.078 228.491 106.43 228.718 105.935C228.963 105.401 229.729 103.729 229.027 101.863C228.295 99.9199 226.502 99.1785 225.972 98.9597V98.9597Z" fill="#5E1111"/>
    <path d="M196.958 99.2048C196.436 98.9894 194.992 98.4177 193.27 98.9451C190.99 99.6435 190.101 101.694 189.993 101.955C189.379 103.439 189.63 104.788 189.79 105.386C189.88 105.719 190.505 107.905 192.739 108.93C193.128 109.109 194.864 109.848 196.819 109.075C198.721 108.323 199.476 106.676 199.703 106.181C199.948 105.646 200.715 103.974 200.013 102.108C199.281 100.165 197.487 99.4236 196.958 99.2049V99.2048Z" fill="#5E1111"/>
    <path d="M223.173 100.904C223.181 100.709 223.196 100.17 222.821 99.6712C222.324 99.0106 221.553 98.9634 221.455 98.9591C220.9 98.9346 220.491 99.1762 220.316 99.2991C220.219 99.3676 219.582 99.8301 219.513 100.68C219.501 100.828 219.467 101.481 219.949 102.027C220.419 102.558 221.044 102.609 221.231 102.625C221.434 102.641 222.068 102.693 222.591 102.244C223.136 101.775 223.165 101.103 223.173 100.904H223.173Z" fill="white"/>
    <path d="M193.999 101.317C194.007 101.121 194.022 100.583 193.647 100.084C193.15 99.423 192.379 99.3759 192.281 99.3716C191.726 99.3471 191.318 99.5886 191.142 99.7116C191.045 99.78 190.408 100.243 190.34 101.092C190.328 101.24 190.293 101.894 190.776 102.439C191.245 102.97 191.87 103.022 192.057 103.037C192.26 103.054 192.894 103.106 193.417 102.656C193.962 102.188 193.991 101.515 193.999 101.317H193.999Z" fill="white"/>
    <path d="M174.74 109.439L175.007 109.332C175.163 109.247 175.515 109.027 175.765 108.59C176.044 108.105 176.032 107.64 176.019 107.465C175.96 105.997 175.67 103.658 174.433 101.127C173.726 99.6794 172.899 98.555 172.184 97.7312C172.028 97.5449 171.675 97.1714 171.147 96.9841C170.98 96.9252 170.722 96.8362 170.394 96.8851C170.291 96.9005 170.187 96.928 170.086 96.9684L169.819 97.075C169.787 97.0839 169.226 97.2485 169.06 97.8171C168.948 98.203 169.062 98.6234 169.355 98.9058C170.128 99.8313 171.152 101.27 171.929 103.232C172.787 105.4 172.996 107.329 173.034 108.594C173.049 108.66 173.17 109.168 173.679 109.423C174.195 109.681 174.679 109.467 174.74 109.439L174.74 109.439Z" fill="#DB8282"/>
    <path d="M166.973 96.2552C167.543 96.8664 168.5 96.899 169.11 96.328C169.72 95.7571 169.753 94.7987 169.183 94.1875L168.909 93.8942C168.339 93.2829 167.382 93.2503 166.772 93.8213C166.162 94.3923 166.129 95.3507 166.699 95.9619L166.973 96.2552Z" fill="#DB8282"/>
    <path d="M243.308 110.477L243.039 110.376C242.881 110.293 242.525 110.08 242.266 109.648C241.979 109.168 241.982 108.703 241.992 108.528C242.023 107.059 242.269 104.716 243.458 102.161C244.137 100.701 244.943 99.5607 245.643 98.7236C245.795 98.5343 246.141 98.1543 246.666 97.957C246.831 97.895 247.087 97.8011 247.416 97.8438C247.52 97.8572 247.624 97.8827 247.725 97.9212L247.994 98.0228C248.027 98.031 248.591 98.185 248.767 98.7503C248.887 99.1341 248.781 99.5566 248.493 99.8444C247.737 100.784 246.741 102.243 246.001 104.219C245.184 106.403 245.012 108.335 244.997 109.6C244.984 109.667 244.872 110.177 244.368 110.441C243.857 110.71 243.369 110.504 243.308 110.477V110.477Z" fill="#DB8282"/>
    <path d="M251.093 96.8508C251.651 96.2289 251.601 95.2713 250.98 94.712C250.359 94.1527 249.403 94.2034 248.845 94.8252L248.577 95.1237C248.018 95.7456 248.069 96.7032 248.69 97.2625C249.31 97.8218 250.267 97.7711 250.825 97.1493L251.093 96.8508Z" fill="#DB8282"/>
    <path d="M144.732 113.828C144.732 113.828 145.012 114.454 145.341 115.07C147.029 118.237 149.174 120.205 149.174 120.205C149.633 120.626 152.193 122.926 155.602 123.837C157.024 124.217 158.397 124.302 158.536 124.31C158.819 124.326 159.692 124.369 160.833 124.262C161.115 124.235 162.318 124.115 163.963 123.652C164.386 123.533 165.634 123.168 167.431 122.338C169.221 121.511 171.559 120.43 173.66 118.36C174.626 117.408 175.202 116.592 175.423 116.264C175.966 115.459 176.331 114.721 176.573 114.163C175.196 115.621 172.107 118.489 167.25 119.887C161.133 121.649 156.065 119.97 154.083 119.282C149.053 117.537 145.848 114.484 144.294 112.768C144.403 113.056 144.548 113.417 144.732 113.828L144.732 113.828Z" fill="#B23030"/>
    <path d="M198.508 128.375C198.622 128.254 202.886 134.843 208.785 134.753C214.542 134.666 218.52 128.269 218.623 128.375C218.728 128.482 215.011 135.562 208.697 135.633C202.288 135.705 198.392 128.496 198.508 128.375Z" fill="#5E1111"/>
</svg>
