<svg viewBox="0 0 870 540" fill="none" xmlns="http://www.w3.org/2000/svg">
    <rect x="3" y="3" width="864" height="533.4" rx="77" fill="white" stroke="#844EA5" stroke-width="6"/>
    <path d="M637.868 148.834C637.868 137.82 638.009 137.259 637.939 130.664C637.939 122.737 637.656 117.686 637.868 111.513C637.868 110.882 637.868 110.461 637.939 109.619C638.151 101.341 637.868 99.7276 637.656 98.8858C637.374 97.6231 636.809 96.5007 635.749 94.2558C633.7 89.8363 631.369 86.3287 630.663 85.3466C627.201 80.7166 618.3 78.4718 610.035 78.5419C606.22 78.5419 602.547 79.033 599.509 79.945C596.472 79.033 592.798 78.5419 588.984 78.5419C580.719 78.4718 571.818 80.7166 568.356 85.3466C567.65 86.3287 565.319 89.8363 563.27 94.2558C562.21 96.4305 561.716 97.5529 561.363 98.8157C561.151 99.7276 560.868 101.341 561.08 109.549C561.08 110.391 561.08 110.812 561.151 111.443C561.363 117.616 561.151 122.737 561.08 130.594C561.08 137.188 561.221 137.75 561.151 148.763C561.151 150.166 561.151 151.499 561.151 152.902C561.08 158.094 560.727 162.373 561.433 167.634C561.575 168.757 561.786 169.879 562.564 171.072C562.917 171.563 563.27 171.983 563.623 172.334C564.895 173.878 566.59 174.93 567.791 175C567.932 175 568.356 175 568.921 175H569.063H569.698C570.264 175 570.687 175 570.829 175H628.261C628.402 175 628.826 175 629.391 175H630.027H630.168C630.733 175 631.157 175 631.298 175C632.499 174.93 634.195 173.878 635.466 172.334C635.89 171.983 636.243 171.563 636.526 171.072C637.303 169.879 637.515 168.757 637.656 167.634C638.363 162.373 638.009 158.094 637.939 152.902C637.797 151.569 637.868 150.166 637.868 148.834Z" fill="#C890A7"/>
    <path d="M631.722 87.8721H567.155C564.4 87.8721 562.14 85.6272 562.14 82.8913V77.9807C562.069 75.2448 564.33 73 567.155 73H631.722C634.477 73 636.738 75.2448 636.738 77.9807V82.8913C636.738 85.6272 634.477 87.8721 631.722 87.8721Z" fill="#8A8C95"/>
    <path d="M634.407 141.678C634.407 129.472 634.548 128.84 634.477 121.545C634.477 112.776 634.265 107.164 634.407 100.289C634.407 100.219 633.559 98.956 633.347 98.3948C632.923 97.9739 632.217 97.3425 631.298 96.7813C628.19 94.9573 624.729 95.1678 620.561 95.5186C618.795 95.6589 618.23 95.8693 614.344 96.2201C611.801 96.4305 610.883 96.5007 609.823 96.4305C608.269 96.2902 608.128 96.0798 604.949 95.5186C602.194 94.9573 600.781 94.6767 599.156 94.6767C597.249 94.6066 595.765 94.817 594.282 95.0977C591.88 95.4484 591.456 95.9395 588.984 96.2902C588.277 96.3604 587.006 96.5708 585.381 96.5007C583.191 96.4305 581.99 96.0096 580.436 95.6589C579.659 95.5186 574.714 94.4663 569.628 95.8693C569.628 95.8693 567.438 96.5007 565.884 97.9739C565.601 98.2545 564.542 99.2366 564.612 100.359C564.753 107.094 564.542 112.776 564.542 121.475C564.542 128.77 564.612 129.402 564.612 141.608C564.612 143.151 564.612 144.624 564.612 146.168C564.542 151.92 564.259 156.69 564.824 162.443C564.965 163.635 565.107 164.898 565.813 166.231C566.096 166.792 566.449 167.283 566.802 167.634C567.932 169.388 569.486 170.51 570.546 170.58C570.617 170.58 571.041 170.58 571.535 170.58H571.676H572.242C572.736 170.58 573.089 170.58 573.231 170.58H625.506C625.647 170.58 626 170.58 626.495 170.58H627.06H627.201C627.696 170.58 628.12 170.58 628.19 170.58C629.32 170.51 630.804 169.388 631.934 167.634C632.287 167.213 632.641 166.722 632.923 166.231C633.63 164.898 633.771 163.635 633.912 162.443C634.548 156.62 634.195 151.92 634.124 146.168C634.336 144.695 634.407 143.151 634.407 141.678Z" fill="#B44276"/>
    <path d="M628.755 148.202V117.055C626.212 117.055 624.164 115.371 624.164 113.337H574.714C574.714 115.371 572.665 117.055 570.122 117.055V148.272C572.665 148.272 574.714 149.956 574.714 151.99H624.164C624.164 149.886 626.212 148.202 628.755 148.202Z" fill="white"/>
    <path opacity="0.39" d="M572.524 162.373V112.565C572.524 110.391 574.361 108.567 576.551 108.567C578.74 108.567 580.577 110.391 580.577 112.565V162.443C580.577 164.618 578.74 166.442 576.551 166.442C574.29 166.371 572.524 164.618 572.524 162.373Z" fill="white"/>
    <path opacity="0.39" d="M572.524 100.99V96.1499C572.524 93.9752 574.361 92.1513 576.551 92.1513C578.74 92.1513 580.577 93.9752 580.577 96.1499V100.99C580.577 103.165 578.74 104.989 576.551 104.989C574.29 104.989 572.524 103.165 572.524 100.99Z" fill="white"/>
    <path d="M607 141C611.971 141 616 136.971 616 132C616 127.029 611.971 123 607 123C602.029 123 598 127.029 598 132C598 136.971 602.029 141 607 141Z" fill="#B32646"/>
    <path d="M609.1 133.95C608.65 134.4 608.05 134.4 607.6 133.95L604.75 131.25C604.3 130.8 604.3 130.2 604.75 129.75C605.2 129.3 605.8 129.3 606.25 129.75L609.1 132.45C609.55 132.9 609.55 133.65 609.1 133.95Z" fill="#6C1626"/>
    <path d="M608.95 129.75C609.4 130.2 609.4 130.8 608.95 131.25L606.4 134.1C605.95 134.55 605.35 134.55 604.9 134.1C604.45 133.65 604.45 133.05 604.9 132.6L607.6 129.75C607.9 129.45 608.5 129.45 608.95 129.75Z" fill="#6C1626"/>
    <path d="M593.5 138C599.299 138 604 133.299 604 127.5C604 121.701 599.299 117 593.5 117C587.701 117 583 121.701 583 127.5C583 133.299 587.701 138 593.5 138Z" fill="#B32646"/>
    <path d="M595.95 129.775C595.425 130.3 594.725 130.3 594.2 129.775L590.875 126.625C590.35 126.1 590.35 125.4 590.875 124.875C591.4 124.35 592.1 124.35 592.625 124.875L595.95 128.025C596.475 128.55 596.475 129.425 595.95 129.775Z" fill="#6C1626"/>
    <path d="M595.775 124.875C596.3 125.4 596.3 126.1 595.775 126.625L592.8 129.95C592.275 130.475 591.575 130.475 591.05 129.95C590.525 129.425 590.525 128.725 591.05 128.2L594.2 124.875C594.55 124.525 595.25 124.525 595.775 124.875Z" fill="#6C1626"/>
    <path d="M589.3 122.6C589.825 122.25 590.7 121.55 591.4 121.025C591.575 120.85 591.925 120.675 591.925 120.325C591.925 120.325 592.1 119.625 591.75 119.275C591.4 118.925 590.7 118.925 590.525 118.925C590.35 118.925 590 119.1 589.65 119.275C589.125 119.625 588.95 119.8 588.775 119.975C588.075 120.5 587.725 120.85 587.2 121.2C586.5 121.9 586.15 122.425 585.975 122.6C585.625 123.125 585.275 123.65 584.75 124.7C584.4 125.225 584.225 125.75 584.225 126.45C584.225 126.8 584.4 126.975 584.4 127.15C584.75 127.5 585.1 127.5 585.275 127.5C585.625 127.5 585.975 127.325 585.975 127.325C586.325 127.15 586.325 126.8 586.675 126.275C586.85 125.75 586.85 125.75 587.025 125.225C587.025 125.05 587.2 124.875 587.55 124.35C588.075 123.65 588.6 123.125 589.3 122.6Z" fill="#C8637A"/>
    <path d="M598 148C602.418 148 606 144.418 606 140C606 135.582 602.418 132 598 132C593.582 132 590 135.582 590 140C590 144.418 593.582 148 598 148Z" fill="#761F36"/>
    <path d="M600 141.875C599.625 142.25 599.125 142.25 598.75 141.875L596.25 139.5C595.875 139.125 595.875 138.625 596.25 138.25C596.625 137.875 597.125 137.875 597.5 138.25L600 140.625C600.25 140.875 600.25 141.5 600 141.875Z" fill="#49131F"/>
    <path d="M599.75 138.125C600.125 138.5 600.125 139 599.75 139.375L597.375 141.875C597 142.25 596.5 142.25 596.125 141.875C595.75 141.5 595.75 141 596.125 140.625L598.5 138.125C598.875 137.75 599.375 137.75 599.75 138.125Z" fill="#49131F"/>
    <path d="M594.75 136.25C595.125 135.875 595.75 135.5 596.375 135C596.5 134.875 596.75 134.75 596.875 134.5C596.875 134.5 597 134 596.75 133.75C596.5 133.375 596 133.5 595.875 133.5C595.75 133.5 595.5 133.625 595.25 133.875C594.875 134.125 594.625 134.25 594.625 134.375C594.125 134.875 593.75 135 593.5 135.375C593 135.875 592.625 136.25 592.625 136.375C592.375 136.75 592.125 137.125 591.75 137.875C591.5 138.375 591.375 138.75 591.375 139.125C591.375 139.375 591.5 139.5 591.5 139.625C591.75 139.875 592 139.875 592.125 139.875C592.375 139.875 592.625 139.75 592.625 139.75C592.875 139.625 593 139.375 593.125 139C593.25 138.625 593.25 138.5 593.375 138.25C593.375 138.125 593.5 137.875 593.875 137.625C593.875 137.125 594.25 136.75 594.75 136.25Z" fill="#A05062"/>
    <path d="M777.868 148.834C777.868 137.82 778.009 137.259 777.939 130.664C777.939 122.737 777.656 117.686 777.868 111.513C777.868 110.882 777.868 110.461 777.939 109.619C778.151 101.341 777.868 99.7276 777.656 98.8858C777.374 97.6231 776.809 96.5007 775.749 94.2558C773.7 89.8363 771.369 86.3287 770.663 85.3466C767.201 80.7166 758.3 78.4718 750.035 78.5419C746.22 78.5419 742.547 79.033 739.509 79.945C736.472 79.033 732.798 78.5419 728.984 78.5419C720.719 78.4718 711.818 80.7166 708.356 85.3466C707.65 86.3287 705.319 89.8363 703.27 94.2558C702.21 96.4305 701.716 97.5529 701.363 98.8157C701.151 99.7276 700.868 101.341 701.08 109.549C701.08 110.391 701.08 110.812 701.151 111.443C701.363 117.616 701.151 122.737 701.08 130.594C701.08 137.188 701.221 137.75 701.151 148.763C701.151 150.166 701.151 151.499 701.151 152.902C701.08 158.094 700.727 162.373 701.433 167.634C701.575 168.757 701.786 169.879 702.564 171.072C702.917 171.563 703.27 171.983 703.623 172.334C704.895 173.878 706.59 174.93 707.791 175C707.932 175 708.356 175 708.921 175H709.063H709.698C710.264 175 710.687 175 710.829 175H768.261C768.402 175 768.826 175 769.391 175H770.027H770.168C770.733 175 771.157 175 771.298 175C772.499 174.93 774.195 173.878 775.466 172.334C775.89 171.983 776.243 171.563 776.526 171.072C777.303 169.879 777.515 168.757 777.656 167.634C778.363 162.373 778.009 158.094 777.939 152.902C777.797 151.569 777.868 150.166 777.868 148.834Z" fill="#C890A7"/>
    <path d="M771.722 87.8721H707.155C704.4 87.8721 702.14 85.6272 702.14 82.8913V77.9807C702.069 75.2448 704.33 73 707.155 73H771.722C774.477 73 776.738 75.2448 776.738 77.9807V82.8913C776.738 85.6272 774.477 87.8721 771.722 87.8721Z" fill="#8A8C95"/>
    <path d="M774.407 141.678C774.407 129.472 774.548 128.84 774.477 121.545C774.477 112.776 774.265 107.164 774.407 100.289C774.407 100.219 773.559 98.956 773.347 98.3948C772.923 97.9739 772.217 97.3425 771.298 96.7813C768.19 94.9573 764.729 95.1678 760.561 95.5186C758.795 95.6589 758.23 95.8693 754.344 96.2201C751.801 96.4305 750.883 96.5007 749.823 96.4305C748.269 96.2902 748.128 96.0798 744.949 95.5186C742.194 94.9573 740.781 94.6767 739.156 94.6767C737.249 94.6066 735.765 94.817 734.282 95.0977C731.88 95.4484 731.456 95.9395 728.984 96.2902C728.277 96.3604 727.006 96.5708 725.381 96.5007C723.191 96.4305 721.99 96.0096 720.436 95.6589C719.659 95.5186 714.714 94.4663 709.628 95.8693C709.628 95.8693 707.438 96.5007 705.884 97.9739C705.601 98.2545 704.542 99.2366 704.612 100.359C704.753 107.094 704.542 112.776 704.542 121.475C704.542 128.77 704.612 129.402 704.612 141.608C704.612 143.151 704.612 144.624 704.612 146.168C704.542 151.92 704.259 156.69 704.824 162.443C704.965 163.635 705.107 164.898 705.813 166.231C706.096 166.792 706.449 167.283 706.802 167.634C707.932 169.388 709.486 170.51 710.546 170.58C710.617 170.58 711.041 170.58 711.535 170.58H711.676H712.242C712.736 170.58 713.089 170.58 713.231 170.58H765.506C765.647 170.58 766 170.58 766.495 170.58H767.06H767.201C767.696 170.58 768.12 170.58 768.19 170.58C769.32 170.51 770.804 169.388 771.934 167.634C772.287 167.213 772.641 166.722 772.923 166.231C773.63 164.898 773.771 163.635 773.912 162.443C774.548 156.62 774.195 151.92 774.124 146.168C774.336 144.695 774.407 143.151 774.407 141.678Z" fill="#B44276"/>
    <path d="M768.755 148.202V117.055C766.212 117.055 764.164 115.371 764.164 113.337H714.714C714.714 115.371 712.665 117.055 710.122 117.055V148.272C712.665 148.272 714.714 149.956 714.714 151.99H764.164C764.164 149.886 766.212 148.202 768.755 148.202Z" fill="white"/>
    <path opacity="0.39" d="M712.524 162.373V112.565C712.524 110.391 714.361 108.567 716.551 108.567C718.74 108.567 720.577 110.391 720.577 112.565V162.443C720.577 164.618 718.74 166.442 716.551 166.442C714.29 166.371 712.524 164.618 712.524 162.373Z" fill="white"/>
    <path opacity="0.39" d="M712.524 100.99V96.1499C712.524 93.9752 714.361 92.1513 716.551 92.1513C718.74 92.1513 720.577 93.9752 720.577 96.1499V100.99C720.577 103.165 718.74 104.989 716.551 104.989C714.29 104.989 712.524 103.165 712.524 100.99Z" fill="white"/>
    <path d="M747 141C751.971 141 756 136.971 756 132C756 127.029 751.971 123 747 123C742.029 123 738 127.029 738 132C738 136.971 742.029 141 747 141Z" fill="#B32646"/>
    <path d="M749.1 133.95C748.65 134.4 748.05 134.4 747.6 133.95L744.75 131.25C744.3 130.8 744.3 130.2 744.75 129.75C745.2 129.3 745.8 129.3 746.25 129.75L749.1 132.45C749.55 132.9 749.55 133.65 749.1 133.95Z" fill="#6C1626"/>
    <path d="M748.95 129.75C749.4 130.2 749.4 130.8 748.95 131.25L746.4 134.1C745.95 134.55 745.35 134.55 744.9 134.1C744.45 133.65 744.45 133.05 744.9 132.6L747.6 129.75C747.9 129.45 748.5 129.45 748.95 129.75Z" fill="#6C1626"/>
    <path d="M733.5 138C739.299 138 744 133.299 744 127.5C744 121.701 739.299 117 733.5 117C727.701 117 723 121.701 723 127.5C723 133.299 727.701 138 733.5 138Z" fill="#B32646"/>
    <path d="M735.95 129.775C735.425 130.3 734.725 130.3 734.2 129.775L730.875 126.625C730.35 126.1 730.35 125.4 730.875 124.875C731.4 124.35 732.1 124.35 732.625 124.875L735.95 128.025C736.475 128.55 736.475 129.425 735.95 129.775Z" fill="#6C1626"/>
    <path d="M735.775 124.875C736.3 125.4 736.3 126.1 735.775 126.625L732.8 129.95C732.275 130.475 731.575 130.475 731.05 129.95C730.525 129.425 730.525 128.725 731.05 128.2L734.2 124.875C734.55 124.525 735.25 124.525 735.775 124.875Z" fill="#6C1626"/>
    <path d="M729.3 122.6C729.825 122.25 730.7 121.55 731.4 121.025C731.575 120.85 731.925 120.675 731.925 120.325C731.925 120.325 732.1 119.625 731.75 119.275C731.4 118.925 730.7 118.925 730.525 118.925C730.35 118.925 730 119.1 729.65 119.275C729.125 119.625 728.95 119.8 728.775 119.975C728.075 120.5 727.725 120.85 727.2 121.2C726.5 121.9 726.15 122.425 725.975 122.6C725.625 123.125 725.275 123.65 724.75 124.7C724.4 125.225 724.225 125.75 724.225 126.45C724.225 126.8 724.4 126.975 724.4 127.15C724.75 127.5 725.1 127.5 725.275 127.5C725.625 127.5 725.975 127.325 725.975 127.325C726.325 127.15 726.325 126.8 726.675 126.275C726.85 125.75 726.85 125.75 727.025 125.225C727.025 125.05 727.2 124.875 727.55 124.35C728.075 123.65 728.6 123.125 729.3 122.6Z" fill="#C8637A"/>
    <path d="M738 148C742.418 148 746 144.418 746 140C746 135.582 742.418 132 738 132C733.582 132 730 135.582 730 140C730 144.418 733.582 148 738 148Z" fill="#761F36"/>
    <path d="M740 141.875C739.625 142.25 739.125 142.25 738.75 141.875L736.25 139.5C735.875 139.125 735.875 138.625 736.25 138.25C736.625 137.875 737.125 137.875 737.5 138.25L740 140.625C740.25 140.875 740.25 141.5 740 141.875Z" fill="#49131F"/>
    <path d="M739.75 138.125C740.125 138.5 740.125 139 739.75 139.375L737.375 141.875C737 142.25 736.5 142.25 736.125 141.875C735.75 141.5 735.75 141 736.125 140.625L738.5 138.125C738.875 137.75 739.375 137.75 739.75 138.125Z" fill="#49131F"/>
    <path d="M734.75 136.25C735.125 135.875 735.75 135.5 736.375 135C736.5 134.875 736.75 134.75 736.875 134.5C736.875 134.5 737 134 736.75 133.75C736.5 133.375 736 133.5 735.875 133.5C735.75 133.5 735.5 133.625 735.25 133.875C734.875 134.125 734.625 134.25 734.625 134.375C734.125 134.875 733.75 135 733.5 135.375C733 135.875 732.625 136.25 732.625 136.375C732.375 136.75 732.125 137.125 731.75 137.875C731.5 138.375 731.375 138.75 731.375 139.125C731.375 139.375 731.5 139.5 731.5 139.625C731.75 139.875 732 139.875 732.125 139.875C732.375 139.875 732.625 139.75 732.625 139.75C732.875 139.625 733 139.375 733.125 139C733.25 138.625 733.25 138.5 733.375 138.25C733.375 138.125 733.5 137.875 733.875 137.625C733.875 137.125 734.25 136.75 734.75 136.25Z" fill="#A05062"/>
    <path d="M637.868 279.834C637.868 268.82 638.009 268.259 637.939 261.664C637.939 253.737 637.656 248.686 637.868 242.513C637.868 241.882 637.868 241.461 637.939 240.619C638.151 232.341 637.868 230.728 637.656 229.886C637.374 228.623 636.809 227.501 635.749 225.256C633.7 220.836 631.369 217.329 630.663 216.347C627.201 211.717 618.3 209.472 610.035 209.542C606.22 209.542 602.547 210.033 599.509 210.945C596.472 210.033 592.798 209.542 588.984 209.542C580.719 209.472 571.818 211.717 568.356 216.347C567.65 217.329 565.319 220.836 563.27 225.256C562.21 227.431 561.716 228.553 561.363 229.816C561.151 230.728 560.868 232.341 561.08 240.549C561.08 241.391 561.08 241.812 561.151 242.443C561.363 248.616 561.151 253.737 561.08 261.594C561.08 268.188 561.221 268.75 561.151 279.763C561.151 281.166 561.151 282.499 561.151 283.902C561.08 289.094 560.727 293.373 561.433 298.634C561.575 299.757 561.786 300.879 562.564 302.072C562.917 302.563 563.27 302.983 563.623 303.334C564.895 304.878 566.59 305.93 567.791 306C567.932 306 568.356 306 568.921 306H569.063H569.698C570.264 306 570.687 306 570.829 306H628.261C628.402 306 628.826 306 629.391 306H630.027H630.168C630.733 306 631.157 306 631.298 306C632.499 305.93 634.195 304.878 635.466 303.334C635.89 302.983 636.243 302.563 636.526 302.072C637.303 300.879 637.515 299.757 637.656 298.634C638.363 293.373 638.009 289.094 637.939 283.902C637.797 282.569 637.868 281.166 637.868 279.834Z" fill="#C890A7"/>
    <path d="M631.722 218.872H567.155C564.4 218.872 562.14 216.627 562.14 213.891V208.981C562.069 206.245 564.33 204 567.155 204H631.722C634.477 204 636.738 206.245 636.738 208.981V213.891C636.738 216.627 634.477 218.872 631.722 218.872Z" fill="#8A8C95"/>
    <path d="M634.407 272.678C634.407 260.472 634.548 259.84 634.477 252.545C634.477 243.776 634.265 238.164 634.407 231.289C634.407 231.219 633.559 229.956 633.347 229.395C632.923 228.974 632.217 228.342 631.298 227.781C628.19 225.957 624.729 226.168 620.561 226.519C618.795 226.659 618.23 226.869 614.344 227.22C611.801 227.431 610.883 227.501 609.823 227.431C608.269 227.29 608.128 227.08 604.949 226.519C602.194 225.957 600.781 225.677 599.156 225.677C597.249 225.607 595.765 225.817 594.282 226.098C591.88 226.448 591.456 226.939 588.984 227.29C588.277 227.36 587.006 227.571 585.381 227.501C583.191 227.431 581.99 227.01 580.436 226.659C579.659 226.519 574.714 225.466 569.628 226.869C569.628 226.869 567.438 227.501 565.884 228.974C565.601 229.254 564.542 230.237 564.612 231.359C564.753 238.094 564.542 243.776 564.542 252.475C564.542 259.77 564.612 260.402 564.612 272.608C564.612 274.151 564.612 275.624 564.612 277.168C564.542 282.92 564.259 287.69 564.824 293.443C564.965 294.635 565.107 295.898 565.813 297.231C566.096 297.792 566.449 298.283 566.802 298.634C567.932 300.388 569.486 301.51 570.546 301.58C570.617 301.58 571.041 301.58 571.535 301.58H571.676H572.242C572.736 301.58 573.089 301.58 573.231 301.58H625.506C625.647 301.58 626 301.58 626.495 301.58H627.06H627.201C627.696 301.58 628.12 301.58 628.19 301.58C629.32 301.51 630.804 300.388 631.934 298.634C632.287 298.213 632.641 297.722 632.923 297.231C633.63 295.898 633.771 294.635 633.912 293.443C634.548 287.62 634.195 282.92 634.124 277.168C634.336 275.695 634.407 274.151 634.407 272.678Z" fill="#B44276"/>
    <path d="M628.755 279.202V248.055C626.212 248.055 624.164 246.371 624.164 244.337H574.714C574.714 246.371 572.665 248.055 570.122 248.055V279.272C572.665 279.272 574.714 280.956 574.714 282.99H624.164C624.164 280.886 626.212 279.202 628.755 279.202Z" fill="white"/>
    <path opacity="0.39" d="M572.524 293.373V243.565C572.524 241.391 574.361 239.567 576.551 239.567C578.74 239.567 580.577 241.391 580.577 243.565V293.443C580.577 295.618 578.74 297.442 576.551 297.442C574.29 297.371 572.524 295.618 572.524 293.373Z" fill="white"/>
    <path opacity="0.39" d="M572.524 231.99V227.15C572.524 224.975 574.361 223.151 576.551 223.151C578.74 223.151 580.577 224.975 580.577 227.15V231.99C580.577 234.165 578.74 235.989 576.551 235.989C574.29 235.989 572.524 234.165 572.524 231.99Z" fill="white"/>
    <path d="M607 272C611.971 272 616 267.971 616 263C616 258.029 611.971 254 607 254C602.029 254 598 258.029 598 263C598 267.971 602.029 272 607 272Z" fill="#B32646"/>
    <path d="M609.1 264.95C608.65 265.4 608.05 265.4 607.6 264.95L604.75 262.25C604.3 261.8 604.3 261.2 604.75 260.75C605.2 260.3 605.8 260.3 606.25 260.75L609.1 263.45C609.55 263.9 609.55 264.65 609.1 264.95Z" fill="#6C1626"/>
    <path d="M608.95 260.75C609.4 261.2 609.4 261.8 608.95 262.25L606.4 265.1C605.95 265.55 605.35 265.55 604.9 265.1C604.45 264.65 604.45 264.05 604.9 263.6L607.6 260.75C607.9 260.45 608.5 260.45 608.95 260.75Z" fill="#6C1626"/>
    <path d="M593.5 269C599.299 269 604 264.299 604 258.5C604 252.701 599.299 248 593.5 248C587.701 248 583 252.701 583 258.5C583 264.299 587.701 269 593.5 269Z" fill="#B32646"/>
    <path d="M595.95 260.775C595.425 261.3 594.725 261.3 594.2 260.775L590.875 257.625C590.35 257.1 590.35 256.4 590.875 255.875C591.4 255.35 592.1 255.35 592.625 255.875L595.95 259.025C596.475 259.55 596.475 260.425 595.95 260.775Z" fill="#6C1626"/>
    <path d="M595.775 255.875C596.3 256.4 596.3 257.1 595.775 257.625L592.8 260.95C592.275 261.475 591.575 261.475 591.05 260.95C590.525 260.425 590.525 259.725 591.05 259.2L594.2 255.875C594.55 255.525 595.25 255.525 595.775 255.875Z" fill="#6C1626"/>
    <path d="M589.3 253.6C589.825 253.25 590.7 252.55 591.4 252.025C591.575 251.85 591.925 251.675 591.925 251.325C591.925 251.325 592.1 250.625 591.75 250.275C591.4 249.925 590.7 249.925 590.525 249.925C590.35 249.925 590 250.1 589.65 250.275C589.125 250.625 588.95 250.8 588.775 250.975C588.075 251.5 587.725 251.85 587.2 252.2C586.5 252.9 586.15 253.425 585.975 253.6C585.625 254.125 585.275 254.65 584.75 255.7C584.4 256.225 584.225 256.75 584.225 257.45C584.225 257.8 584.4 257.975 584.4 258.15C584.75 258.5 585.1 258.5 585.275 258.5C585.625 258.5 585.975 258.325 585.975 258.325C586.325 258.15 586.325 257.8 586.675 257.275C586.85 256.75 586.85 256.75 587.025 256.225C587.025 256.05 587.2 255.875 587.55 255.35C588.075 254.65 588.6 254.125 589.3 253.6Z" fill="#C8637A"/>
    <path d="M598 279C602.418 279 606 275.418 606 271C606 266.582 602.418 263 598 263C593.582 263 590 266.582 590 271C590 275.418 593.582 279 598 279Z" fill="#761F36"/>
    <path d="M600 272.875C599.625 273.25 599.125 273.25 598.75 272.875L596.25 270.5C595.875 270.125 595.875 269.625 596.25 269.25C596.625 268.875 597.125 268.875 597.5 269.25L600 271.625C600.25 271.875 600.25 272.5 600 272.875Z" fill="#49131F"/>
    <path d="M599.75 269.125C600.125 269.5 600.125 270 599.75 270.375L597.375 272.875C597 273.25 596.5 273.25 596.125 272.875C595.75 272.5 595.75 272 596.125 271.625L598.5 269.125C598.875 268.75 599.375 268.75 599.75 269.125Z" fill="#49131F"/>
    <path d="M594.75 267.25C595.125 266.875 595.75 266.5 596.375 266C596.5 265.875 596.75 265.75 596.875 265.5C596.875 265.5 597 265 596.75 264.75C596.5 264.375 596 264.5 595.875 264.5C595.75 264.5 595.5 264.625 595.25 264.875C594.875 265.125 594.625 265.25 594.625 265.375C594.125 265.875 593.75 266 593.5 266.375C593 266.875 592.625 267.25 592.625 267.375C592.375 267.75 592.125 268.125 591.75 268.875C591.5 269.375 591.375 269.75 591.375 270.125C591.375 270.375 591.5 270.5 591.5 270.625C591.75 270.875 592 270.875 592.125 270.875C592.375 270.875 592.625 270.75 592.625 270.75C592.875 270.625 593 270.375 593.125 270C593.25 269.625 593.25 269.5 593.375 269.25C593.375 269.125 593.5 268.875 593.875 268.625C593.875 268.125 594.25 267.75 594.75 267.25Z" fill="#A05062"/>
    <path d="M777.868 279.834C777.868 268.82 778.009 268.259 777.939 261.664C777.939 253.737 777.656 248.686 777.868 242.513C777.868 241.882 777.868 241.461 777.939 240.619C778.151 232.341 777.868 230.728 777.656 229.886C777.374 228.623 776.809 227.501 775.749 225.256C773.7 220.836 771.369 217.329 770.663 216.347C767.201 211.717 758.3 209.472 750.035 209.542C746.22 209.542 742.547 210.033 739.509 210.945C736.472 210.033 732.798 209.542 728.984 209.542C720.719 209.472 711.818 211.717 708.356 216.347C707.65 217.329 705.319 220.836 703.27 225.256C702.21 227.431 701.716 228.553 701.363 229.816C701.151 230.728 700.868 232.341 701.08 240.549C701.08 241.391 701.08 241.812 701.151 242.443C701.363 248.616 701.151 253.737 701.08 261.594C701.08 268.188 701.221 268.75 701.151 279.763C701.151 281.166 701.151 282.499 701.151 283.902C701.08 289.094 700.727 293.373 701.433 298.634C701.575 299.757 701.786 300.879 702.564 302.072C702.917 302.563 703.27 302.983 703.623 303.334C704.895 304.878 706.59 305.93 707.791 306C707.932 306 708.356 306 708.921 306H709.063H709.698C710.264 306 710.687 306 710.829 306H768.261C768.402 306 768.826 306 769.391 306H770.027H770.168C770.733 306 771.157 306 771.298 306C772.499 305.93 774.195 304.878 775.466 303.334C775.89 302.983 776.243 302.563 776.526 302.072C777.303 300.879 777.515 299.757 777.656 298.634C778.363 293.373 778.009 289.094 777.939 283.902C777.797 282.569 777.868 281.166 777.868 279.834Z" fill="#C890A7"/>
    <path d="M771.722 218.872H707.155C704.4 218.872 702.14 216.627 702.14 213.891V208.981C702.069 206.245 704.33 204 707.155 204H771.722C774.477 204 776.738 206.245 776.738 208.981V213.891C776.738 216.627 774.477 218.872 771.722 218.872Z" fill="#8A8C95"/>
    <path d="M774.407 272.678C774.407 260.472 774.548 259.84 774.477 252.545C774.477 243.776 774.265 238.164 774.407 231.289C774.407 231.219 773.559 229.956 773.347 229.395C772.923 228.974 772.217 228.342 771.298 227.781C768.19 225.957 764.729 226.168 760.561 226.519C758.795 226.659 758.23 226.869 754.344 227.22C751.801 227.431 750.883 227.501 749.823 227.431C748.269 227.29 748.128 227.08 744.949 226.519C742.194 225.957 740.781 225.677 739.156 225.677C737.249 225.607 735.765 225.817 734.282 226.098C731.88 226.448 731.456 226.939 728.984 227.29C728.277 227.36 727.006 227.571 725.381 227.501C723.191 227.431 721.99 227.01 720.436 226.659C719.659 226.519 714.714 225.466 709.628 226.869C709.628 226.869 707.438 227.501 705.884 228.974C705.601 229.254 704.542 230.237 704.612 231.359C704.753 238.094 704.542 243.776 704.542 252.475C704.542 259.77 704.612 260.402 704.612 272.608C704.612 274.151 704.612 275.624 704.612 277.168C704.542 282.92 704.259 287.69 704.824 293.443C704.965 294.635 705.107 295.898 705.813 297.231C706.096 297.792 706.449 298.283 706.802 298.634C707.932 300.388 709.486 301.51 710.546 301.58C710.617 301.58 711.041 301.58 711.535 301.58H711.676H712.242C712.736 301.58 713.089 301.58 713.231 301.58H765.506C765.647 301.58 766 301.58 766.495 301.58H767.06H767.201C767.696 301.58 768.12 301.58 768.19 301.58C769.32 301.51 770.804 300.388 771.934 298.634C772.287 298.213 772.641 297.722 772.923 297.231C773.63 295.898 773.771 294.635 773.912 293.443C774.548 287.62 774.195 282.92 774.124 277.168C774.336 275.695 774.407 274.151 774.407 272.678Z" fill="#B44276"/>
    <path d="M768.755 279.202V248.055C766.212 248.055 764.164 246.371 764.164 244.337H714.714C714.714 246.371 712.665 248.055 710.122 248.055V279.272C712.665 279.272 714.714 280.956 714.714 282.99H764.164C764.164 280.886 766.212 279.202 768.755 279.202Z" fill="white"/>
    <path opacity="0.39" d="M712.524 293.373V243.565C712.524 241.391 714.361 239.567 716.551 239.567C718.74 239.567 720.577 241.391 720.577 243.565V293.443C720.577 295.618 718.74 297.442 716.551 297.442C714.29 297.371 712.524 295.618 712.524 293.373Z" fill="white"/>
    <path opacity="0.39" d="M712.524 231.99V227.15C712.524 224.975 714.361 223.151 716.551 223.151C718.74 223.151 720.577 224.975 720.577 227.15V231.99C720.577 234.165 718.74 235.989 716.551 235.989C714.29 235.989 712.524 234.165 712.524 231.99Z" fill="white"/>
    <path d="M747 272C751.971 272 756 267.971 756 263C756 258.029 751.971 254 747 254C742.029 254 738 258.029 738 263C738 267.971 742.029 272 747 272Z" fill="#B32646"/>
    <path d="M749.1 264.95C748.65 265.4 748.05 265.4 747.6 264.95L744.75 262.25C744.3 261.8 744.3 261.2 744.75 260.75C745.2 260.3 745.8 260.3 746.25 260.75L749.1 263.45C749.55 263.9 749.55 264.65 749.1 264.95Z" fill="#6C1626"/>
    <path d="M748.95 260.75C749.4 261.2 749.4 261.8 748.95 262.25L746.4 265.1C745.95 265.55 745.35 265.55 744.9 265.1C744.45 264.65 744.45 264.05 744.9 263.6L747.6 260.75C747.9 260.45 748.5 260.45 748.95 260.75Z" fill="#6C1626"/>
    <path d="M733.5 269C739.299 269 744 264.299 744 258.5C744 252.701 739.299 248 733.5 248C727.701 248 723 252.701 723 258.5C723 264.299 727.701 269 733.5 269Z" fill="#B32646"/>
    <path d="M735.95 260.775C735.425 261.3 734.725 261.3 734.2 260.775L730.875 257.625C730.35 257.1 730.35 256.4 730.875 255.875C731.4 255.35 732.1 255.35 732.625 255.875L735.95 259.025C736.475 259.55 736.475 260.425 735.95 260.775Z" fill="#6C1626"/>
    <path d="M735.775 255.875C736.3 256.4 736.3 257.1 735.775 257.625L732.8 260.95C732.275 261.475 731.575 261.475 731.05 260.95C730.525 260.425 730.525 259.725 731.05 259.2L734.2 255.875C734.55 255.525 735.25 255.525 735.775 255.875Z" fill="#6C1626"/>
    <path d="M729.3 253.6C729.825 253.25 730.7 252.55 731.4 252.025C731.575 251.85 731.925 251.675 731.925 251.325C731.925 251.325 732.1 250.625 731.75 250.275C731.4 249.925 730.7 249.925 730.525 249.925C730.35 249.925 730 250.1 729.65 250.275C729.125 250.625 728.95 250.8 728.775 250.975C728.075 251.5 727.725 251.85 727.2 252.2C726.5 252.9 726.15 253.425 725.975 253.6C725.625 254.125 725.275 254.65 724.75 255.7C724.4 256.225 724.225 256.75 724.225 257.45C724.225 257.8 724.4 257.975 724.4 258.15C724.75 258.5 725.1 258.5 725.275 258.5C725.625 258.5 725.975 258.325 725.975 258.325C726.325 258.15 726.325 257.8 726.675 257.275C726.85 256.75 726.85 256.75 727.025 256.225C727.025 256.05 727.2 255.875 727.55 255.35C728.075 254.65 728.6 254.125 729.3 253.6Z" fill="#C8637A"/>
    <path d="M738 279C742.418 279 746 275.418 746 271C746 266.582 742.418 263 738 263C733.582 263 730 266.582 730 271C730 275.418 733.582 279 738 279Z" fill="#761F36"/>
    <path d="M740 272.875C739.625 273.25 739.125 273.25 738.75 272.875L736.25 270.5C735.875 270.125 735.875 269.625 736.25 269.25C736.625 268.875 737.125 268.875 737.5 269.25L740 271.625C740.25 271.875 740.25 272.5 740 272.875Z" fill="#49131F"/>
    <path d="M739.75 269.125C740.125 269.5 740.125 270 739.75 270.375L737.375 272.875C737 273.25 736.5 273.25 736.125 272.875C735.75 272.5 735.75 272 736.125 271.625L738.5 269.125C738.875 268.75 739.375 268.75 739.75 269.125Z" fill="#49131F"/>
    <path d="M734.75 267.25C735.125 266.875 735.75 266.5 736.375 266C736.5 265.875 736.75 265.75 736.875 265.5C736.875 265.5 737 265 736.75 264.75C736.5 264.375 736 264.5 735.875 264.5C735.75 264.5 735.5 264.625 735.25 264.875C734.875 265.125 734.625 265.25 734.625 265.375C734.125 265.875 733.75 266 733.5 266.375C733 266.875 732.625 267.25 732.625 267.375C732.375 267.75 732.125 268.125 731.75 268.875C731.5 269.375 731.375 269.75 731.375 270.125C731.375 270.375 731.5 270.5 731.5 270.625C731.75 270.875 732 270.875 732.125 270.875C732.375 270.875 732.625 270.75 732.625 270.75C732.875 270.625 733 270.375 733.125 270C733.25 269.625 733.25 269.5 733.375 269.25C733.375 269.125 733.5 268.875 733.875 268.625C733.875 268.125 734.25 267.75 734.75 267.25Z" fill="#A05062"/>
    <path d="M497.868 148.834C497.868 137.82 498.009 137.259 497.939 130.664C497.939 122.737 497.656 117.686 497.868 111.513C497.868 110.882 497.868 110.461 497.939 109.619C498.151 101.341 497.868 99.7276 497.656 98.8858C497.374 97.6231 496.809 96.5007 495.749 94.2558C493.7 89.8363 491.369 86.3287 490.663 85.3466C487.201 80.7166 478.3 78.4718 470.035 78.5419C466.22 78.5419 462.547 79.033 459.509 79.945C456.472 79.033 452.798 78.5419 448.984 78.5419C440.719 78.4718 431.818 80.7166 428.356 85.3466C427.65 86.3287 425.319 89.8363 423.27 94.2558C422.21 96.4305 421.716 97.5529 421.363 98.8157C421.151 99.7276 420.868 101.341 421.08 109.549C421.08 110.391 421.08 110.812 421.151 111.443C421.363 117.616 421.151 122.737 421.08 130.594C421.08 137.188 421.221 137.75 421.151 148.763C421.151 150.166 421.151 151.499 421.151 152.902C421.08 158.094 420.727 162.373 421.433 167.634C421.575 168.757 421.786 169.879 422.564 171.072C422.917 171.563 423.27 171.983 423.623 172.334C424.895 173.878 426.59 174.93 427.791 175C427.932 175 428.356 175 428.921 175H429.063H429.698C430.264 175 430.687 175 430.829 175H488.261C488.402 175 488.826 175 489.391 175H490.027H490.168C490.733 175 491.157 175 491.298 175C492.499 174.93 494.195 173.878 495.466 172.334C495.89 171.983 496.243 171.563 496.526 171.072C497.303 169.879 497.515 168.757 497.656 167.634C498.363 162.373 498.009 158.094 497.939 152.902C497.797 151.569 497.868 150.166 497.868 148.834Z" fill="#C890A7"/>
    <path d="M491.722 87.8721H427.155C424.4 87.8721 422.14 85.6272 422.14 82.8913V77.9807C422.069 75.2448 424.33 73 427.155 73H491.722C494.477 73 496.738 75.2448 496.738 77.9807V82.8913C496.738 85.6272 494.477 87.8721 491.722 87.8721Z" fill="#8A8C95"/>
    <path d="M494.407 141.678C494.407 129.472 494.548 128.84 494.477 121.545C494.477 112.776 494.265 107.164 494.407 100.289C494.407 100.219 493.559 98.956 493.347 98.3948C492.923 97.9739 492.217 97.3425 491.298 96.7813C488.19 94.9573 484.729 95.1678 480.561 95.5186C478.795 95.6589 478.23 95.8693 474.344 96.2201C471.801 96.4305 470.883 96.5007 469.823 96.4305C468.269 96.2902 468.128 96.0798 464.949 95.5186C462.194 94.9573 460.781 94.6767 459.156 94.6767C457.249 94.6066 455.765 94.817 454.282 95.0977C451.88 95.4484 451.456 95.9395 448.984 96.2902C448.277 96.3604 447.006 96.5708 445.381 96.5007C443.191 96.4305 441.99 96.0096 440.436 95.6589C439.659 95.5186 434.714 94.4663 429.628 95.8693C429.628 95.8693 427.438 96.5007 425.884 97.9739C425.601 98.2545 424.542 99.2366 424.612 100.359C424.753 107.094 424.542 112.776 424.542 121.475C424.542 128.77 424.612 129.402 424.612 141.608C424.612 143.151 424.612 144.624 424.612 146.168C424.542 151.92 424.259 156.69 424.824 162.443C424.965 163.635 425.107 164.898 425.813 166.231C426.096 166.792 426.449 167.283 426.802 167.634C427.932 169.388 429.486 170.51 430.546 170.58C430.617 170.58 431.041 170.58 431.535 170.58H431.676H432.242C432.736 170.58 433.089 170.58 433.231 170.58H485.506C485.647 170.58 486 170.58 486.495 170.58H487.06H487.201C487.696 170.58 488.12 170.58 488.19 170.58C489.32 170.51 490.804 169.388 491.934 167.634C492.287 167.213 492.641 166.722 492.923 166.231C493.63 164.898 493.771 163.635 493.912 162.443C494.548 156.62 494.195 151.92 494.124 146.168C494.336 144.695 494.407 143.151 494.407 141.678Z" fill="#B44276"/>
    <path d="M488.755 148.202V117.055C486.212 117.055 484.164 115.371 484.164 113.337H434.714C434.714 115.371 432.665 117.055 430.122 117.055V148.272C432.665 148.272 434.714 149.956 434.714 151.99H484.164C484.164 149.886 486.212 148.202 488.755 148.202Z" fill="white"/>
    <path opacity="0.39" d="M432.524 162.373V112.565C432.524 110.391 434.361 108.567 436.551 108.567C438.74 108.567 440.577 110.391 440.577 112.565V162.443C440.577 164.618 438.74 166.442 436.551 166.442C434.29 166.371 432.524 164.618 432.524 162.373Z" fill="white"/>
    <path opacity="0.39" d="M432.524 100.99V96.1499C432.524 93.9752 434.361 92.1513 436.551 92.1513C438.74 92.1513 440.577 93.9752 440.577 96.1499V100.99C440.577 103.165 438.74 104.989 436.551 104.989C434.29 104.989 432.524 103.165 432.524 100.99Z" fill="white"/>
    <path d="M467 141C471.971 141 476 136.971 476 132C476 127.029 471.971 123 467 123C462.029 123 458 127.029 458 132C458 136.971 462.029 141 467 141Z" fill="#B32646"/>
    <path d="M469.1 133.95C468.65 134.4 468.05 134.4 467.6 133.95L464.75 131.25C464.3 130.8 464.3 130.2 464.75 129.75C465.2 129.3 465.8 129.3 466.25 129.75L469.1 132.45C469.55 132.9 469.55 133.65 469.1 133.95Z" fill="#6C1626"/>
    <path d="M468.95 129.75C469.4 130.2 469.4 130.8 468.95 131.25L466.4 134.1C465.95 134.55 465.35 134.55 464.9 134.1C464.45 133.65 464.45 133.05 464.9 132.6L467.6 129.75C467.9 129.45 468.5 129.45 468.95 129.75Z" fill="#6C1626"/>
    <path d="M453.5 138C459.299 138 464 133.299 464 127.5C464 121.701 459.299 117 453.5 117C447.701 117 443 121.701 443 127.5C443 133.299 447.701 138 453.5 138Z" fill="#B32646"/>
    <path d="M455.95 129.775C455.425 130.3 454.725 130.3 454.2 129.775L450.875 126.625C450.35 126.1 450.35 125.4 450.875 124.875C451.4 124.35 452.1 124.35 452.625 124.875L455.95 128.025C456.475 128.55 456.475 129.425 455.95 129.775Z" fill="#6C1626"/>
    <path d="M455.775 124.875C456.3 125.4 456.3 126.1 455.775 126.625L452.8 129.95C452.275 130.475 451.575 130.475 451.05 129.95C450.525 129.425 450.525 128.725 451.05 128.2L454.2 124.875C454.55 124.525 455.25 124.525 455.775 124.875Z" fill="#6C1626"/>
    <path d="M449.3 122.6C449.825 122.25 450.7 121.55 451.4 121.025C451.575 120.85 451.925 120.675 451.925 120.325C451.925 120.325 452.1 119.625 451.75 119.275C451.4 118.925 450.7 118.925 450.525 118.925C450.35 118.925 450 119.1 449.65 119.275C449.125 119.625 448.95 119.8 448.775 119.975C448.075 120.5 447.725 120.85 447.2 121.2C446.5 121.9 446.15 122.425 445.975 122.6C445.625 123.125 445.275 123.65 444.75 124.7C444.4 125.225 444.225 125.75 444.225 126.45C444.225 126.8 444.4 126.975 444.4 127.15C444.75 127.5 445.1 127.5 445.275 127.5C445.625 127.5 445.975 127.325 445.975 127.325C446.325 127.15 446.325 126.8 446.675 126.275C446.85 125.75 446.85 125.75 447.025 125.225C447.025 125.05 447.2 124.875 447.55 124.35C448.075 123.65 448.6 123.125 449.3 122.6Z" fill="#C8637A"/>
    <path d="M458 148C462.418 148 466 144.418 466 140C466 135.582 462.418 132 458 132C453.582 132 450 135.582 450 140C450 144.418 453.582 148 458 148Z" fill="#761F36"/>
    <path d="M460 141.875C459.625 142.25 459.125 142.25 458.75 141.875L456.25 139.5C455.875 139.125 455.875 138.625 456.25 138.25C456.625 137.875 457.125 137.875 457.5 138.25L460 140.625C460.25 140.875 460.25 141.5 460 141.875Z" fill="#49131F"/>
    <path d="M459.75 138.125C460.125 138.5 460.125 139 459.75 139.375L457.375 141.875C457 142.25 456.5 142.25 456.125 141.875C455.75 141.5 455.75 141 456.125 140.625L458.5 138.125C458.875 137.75 459.375 137.75 459.75 138.125Z" fill="#49131F"/>
    <path d="M454.75 136.25C455.125 135.875 455.75 135.5 456.375 135C456.5 134.875 456.75 134.75 456.875 134.5C456.875 134.5 457 134 456.75 133.75C456.5 133.375 456 133.5 455.875 133.5C455.75 133.5 455.5 133.625 455.25 133.875C454.875 134.125 454.625 134.25 454.625 134.375C454.125 134.875 453.75 135 453.5 135.375C453 135.875 452.625 136.25 452.625 136.375C452.375 136.75 452.125 137.125 451.75 137.875C451.5 138.375 451.375 138.75 451.375 139.125C451.375 139.375 451.5 139.5 451.5 139.625C451.75 139.875 452 139.875 452.125 139.875C452.375 139.875 452.625 139.75 452.625 139.75C452.875 139.625 453 139.375 453.125 139C453.25 138.625 453.25 138.5 453.375 138.25C453.375 138.125 453.5 137.875 453.875 137.625C453.875 137.125 454.25 136.75 454.75 136.25Z" fill="#A05062"/>
    <path d="M253.104 429.104C253.92 428.021 251.744 425.99 250.52 422.334C249.908 420.507 249.772 419.153 249.568 416.445C249.296 413.06 248.82 406.154 251.812 398.166C252.356 396.609 254.464 391.329 259.359 385.845C262.419 382.392 269.967 373.862 281.934 372.576C294.65 371.222 304.169 378.94 308.249 382.325C310.289 383.949 321.441 393.427 323.685 408.727C325.248 419.559 321.645 429.172 321.373 429.51C321.373 429.51 321.237 429.713 321.237 429.917C321.237 430.187 321.509 430.39 321.645 430.458C322.121 430.797 323.889 431.338 325.656 430.39C325.792 430.323 326.608 429.849 327.288 428.901C328.036 427.818 328.172 426.735 328.24 426.396C328.988 420.574 330.416 416.919 330.348 412.044C330.212 405.477 327.22 389.975 314.097 378.534C310.561 375.419 301.517 367.499 287.918 367.025C269.491 366.348 257.523 379.684 255.211 382.392C252.696 385.236 245.488 393.495 244.128 406.493C242.836 418.882 247.936 428.766 248.072 428.969C248.072 428.969 248.208 429.172 248.276 429.443C248.344 429.646 248.344 429.713 248.344 429.713C248.548 430.187 250.452 429.917 250.452 429.917C252.016 429.51 252.9 429.375 253.104 429.104Z" fill="#AB6F26"/>
    <path d="M247.596 432.015C247.732 433.234 247.324 444.742 250.656 455.777C252.56 462.276 254.532 464.307 255.347 465.12C256.367 466.067 258.067 467.354 262.011 468.843C265.207 469.994 268.947 470.874 281.798 471.551C287.782 471.822 290.842 472.025 295.194 471.822C300.702 471.619 304.101 471.483 308.453 470.332C312.533 469.249 317.225 467.963 320.557 463.901C321.781 462.412 322.325 461.193 323.413 458.756C323.413 458.756 327.832 448.534 327.356 432.218C327.356 431.203 327.22 429.917 327.22 429.917C327.22 429.646 327.152 429.51 327.152 429.443C326.676 428.156 286.218 437.431 259.835 431.88C256.231 431.135 247.528 431 247.528 431.474C247.596 431.744 247.596 431.812 247.596 432.015Z" fill="#AB6F26"/>
    <path d="M268.335 429.781C264.663 429.24 262.351 428.901 262.351 428.901C257.319 428.156 257.455 428.156 256.503 428.021C253.987 427.75 252.831 427.818 250.384 427.344C249.024 427.073 248.344 426.938 247.8 426.802C245.692 426.193 244.672 425.448 243.04 425.719C242.564 425.787 242.156 425.922 241.816 426.193C241.272 426.599 241 427.276 241 427.953C241.068 428.698 241.544 429.307 242.156 429.849C245.08 432.218 248.548 432.624 248.548 432.624C254.939 433.369 261.263 434.385 267.655 434.994C272.415 435.468 271.939 435.535 275.475 435.874C283.362 436.551 285.878 436.077 308.453 435.129C313.281 434.926 317.973 433.775 322.8 433.505C322.8 433.505 324.568 433.369 330.008 431.541C330.416 431.406 331.708 430.932 332.388 429.849C332.728 429.24 332.796 428.766 332.796 428.63C332.796 428.495 332.796 427.818 332.388 427.276C331.912 426.667 331.096 426.599 330.552 426.532C327.628 426.329 325.384 427.073 325.384 427.073C322.936 427.886 320.285 427.818 317.769 428.359C311.037 429.781 299.477 430.255 294.854 430.458C284.178 430.797 273.571 430.526 268.335 429.781Z" fill="#CE8F31"/>
    <path d="M319.129 437.296C317.973 437.837 316.681 437.905 315.457 438.311C312.261 439.327 306.141 440.004 305.053 440.139C296.894 441.019 288.258 440.613 279.214 440.139C274.862 439.936 272.007 439.665 266.363 439.123C261.671 438.65 260.651 438.446 259.699 438.243C258.475 437.905 257.183 437.905 255.959 437.499C255.551 437.363 254.395 436.889 253.443 437.296C252.899 437.499 252.763 437.77 252.695 437.905C252.695 437.905 252.559 438.311 252.695 438.853C253.171 440.613 257.795 441.019 257.795 441.019C264.187 441.561 270.511 442.847 276.902 442.915C286.354 443.05 291.454 443.592 300.361 443.456C301.721 443.456 304.849 443.388 308.929 442.779C310.969 442.508 312.533 442.238 314.573 441.628C318.109 440.545 321.78 438.785 321.78 438.785C321.78 438.785 322.12 438.311 322.12 437.905C322.12 437.499 321.78 437.025 321.508 436.889C320.896 436.416 320.081 436.889 319.129 437.296Z" fill="#CE8F31"/>
    <path d="M296.009 460.448C302.333 460.448 303.285 460.922 309.813 460.448C311.581 460.313 313.893 460.11 316.545 459.771C317.021 459.568 317.293 459.23 317.293 458.824C317.293 458.282 316.681 458.011 316.477 457.876C315.729 457.47 314.845 457.605 314.709 457.605C311.173 458.011 307.501 457.267 303.965 457.537C301.109 457.741 297.029 458.011 291.658 458.079C290.706 458.485 290.638 458.824 290.638 458.959C290.706 459.501 292.134 459.839 293.018 460.042C294.718 460.448 296.009 460.448 296.009 460.448Z" fill="#CE8F31"/>
    <path d="M274.251 456.996C273.027 456.996 271.055 456.928 268.471 456.86C268.267 456.928 267.383 457.131 267.315 457.673C267.247 458.282 268.335 458.824 268.675 459.027C270.239 459.839 271.599 459.771 275.542 459.771C276.222 459.771 276.902 459.771 277.65 459.771C279.622 459.771 282.41 459.771 286.082 459.771C286.422 459.568 286.898 459.23 286.83 458.891C286.762 458.418 285.606 458.214 284.994 458.079C278.194 457.064 274.251 456.996 274.251 456.996Z" fill="#CE8F31"/>
    <path d="M310.969 450.768C310.493 450.768 309.473 450.768 307.433 450.903C306.345 450.971 304.849 451.038 302.945 451.174C302.877 451.174 302.061 451.309 301.653 450.903C301.381 450.565 301.449 450.023 301.585 449.752C301.993 448.669 304.441 448.669 307.909 448.669C309.269 448.669 311.717 448.669 315.185 448.669C315.253 448.669 315.797 448.534 316.069 448.872C316.341 449.211 316.137 449.82 315.865 450.091C315.525 450.565 314.913 450.565 314.029 450.632C312.261 450.7 311.309 450.768 310.969 450.768Z" fill="#CE8F31"/>
    <path d="M284.11 448.872C279.758 449.007 275.406 448.466 271.055 448.33C268.471 448.263 264.595 448.06 259.835 447.857C259.767 447.857 259.155 447.992 258.951 448.466C258.679 448.94 258.883 449.684 259.495 450.091C263.303 450.294 266.363 450.632 268.539 450.835C274.251 451.445 276.086 451.918 280.506 451.986C283.566 452.054 285.946 451.918 287.306 451.783C289.482 451.58 291.454 451.309 292.95 451.106C293.086 451.106 293.562 451.106 293.834 450.768C293.834 450.768 294.038 450.429 293.766 449.82C293.154 448.398 286.558 448.737 284.11 448.872Z" fill="#CE8F31"/>
    <path d="M290.366 465.323C289.89 465.323 288.87 465.323 286.83 465.187C285.742 465.12 284.246 465.052 282.342 464.917C282.274 464.917 281.458 464.781 281.05 465.187C280.778 465.526 280.846 466.067 280.982 466.338C281.39 467.421 283.838 467.421 287.306 467.421C288.666 467.421 291.114 467.421 294.582 467.421C294.65 467.421 295.194 467.557 295.466 467.218C295.738 466.88 295.534 466.271 295.262 466C294.922 465.526 294.31 465.526 293.426 465.458C291.59 465.39 290.706 465.323 290.366 465.323Z" fill="#CE8F31"/>
    <path d="M110.104 429.104C110.92 428.021 108.744 425.99 107.52 422.334C106.908 420.507 106.772 419.153 106.568 416.445C106.296 413.06 105.82 406.154 108.812 398.166C109.356 396.609 111.464 391.329 116.359 385.845C119.419 382.392 126.967 373.862 138.934 372.576C151.65 371.222 161.169 378.94 165.249 382.325C167.289 383.949 178.441 393.427 180.685 408.727C182.248 419.559 178.645 429.172 178.373 429.51C178.373 429.51 178.237 429.713 178.237 429.917C178.237 430.187 178.509 430.39 178.645 430.458C179.121 430.797 180.889 431.338 182.656 430.39C182.792 430.323 183.608 429.849 184.288 428.901C185.036 427.818 185.172 426.735 185.24 426.396C185.988 420.574 187.416 416.919 187.348 412.044C187.212 405.477 184.22 389.975 171.097 378.534C167.561 375.419 158.517 367.499 144.918 367.025C126.491 366.348 114.523 379.684 112.211 382.392C109.696 385.236 102.488 393.495 101.128 406.493C99.836 418.882 104.936 428.766 105.072 428.969C105.072 428.969 105.208 429.172 105.276 429.443C105.344 429.646 105.344 429.713 105.344 429.713C105.548 430.187 107.452 429.917 107.452 429.917C109.016 429.51 109.9 429.375 110.104 429.104Z" fill="#AB6F26"/>
    <path d="M104.596 432.015C104.732 433.234 104.324 444.742 107.656 455.777C109.56 462.276 111.532 464.307 112.347 465.12C113.367 466.067 115.067 467.354 119.011 468.843C122.207 469.994 125.947 470.874 138.798 471.551C144.782 471.822 147.842 472.025 152.194 471.822C157.702 471.619 161.101 471.483 165.453 470.332C169.533 469.249 174.225 467.963 177.557 463.901C178.781 462.412 179.325 461.193 180.413 458.756C180.413 458.756 184.832 448.534 184.356 432.218C184.356 431.203 184.22 429.917 184.22 429.917C184.22 429.646 184.152 429.51 184.152 429.443C183.676 428.156 143.218 437.431 116.835 431.88C113.231 431.135 104.528 431 104.528 431.474C104.596 431.744 104.596 431.812 104.596 432.015Z" fill="#AB6F26"/>
    <path d="M125.335 429.781C121.663 429.24 119.351 428.901 119.351 428.901C114.319 428.156 114.455 428.156 113.503 428.021C110.987 427.75 109.831 427.818 107.384 427.344C106.024 427.073 105.344 426.938 104.8 426.802C102.692 426.193 101.672 425.448 100.04 425.719C99.5639 425.787 99.1559 425.922 98.816 426.193C98.272 426.599 98 427.276 98 427.953C98.068 428.698 98.544 429.307 99.1559 429.849C102.08 432.218 105.548 432.624 105.548 432.624C111.939 433.369 118.263 434.385 124.655 434.994C129.415 435.468 128.939 435.535 132.475 435.874C140.362 436.551 142.878 436.077 165.453 435.129C170.281 434.926 174.973 433.775 179.8 433.505C179.8 433.505 181.568 433.369 187.008 431.541C187.416 431.406 188.708 430.932 189.388 429.849C189.728 429.24 189.796 428.766 189.796 428.63C189.796 428.495 189.796 427.818 189.388 427.276C188.912 426.667 188.096 426.599 187.552 426.532C184.628 426.329 182.384 427.073 182.384 427.073C179.936 427.886 177.285 427.818 174.769 428.359C168.037 429.781 156.477 430.255 151.854 430.458C141.178 430.797 130.571 430.526 125.335 429.781Z" fill="#CE8F31"/>
    <path d="M176.129 437.296C174.973 437.837 173.681 437.905 172.457 438.311C169.261 439.327 163.141 440.004 162.053 440.139C153.894 441.019 145.258 440.613 136.214 440.139C131.862 439.936 129.007 439.665 123.363 439.123C118.671 438.65 117.651 438.446 116.699 438.243C115.475 437.905 114.183 437.905 112.959 437.499C112.551 437.363 111.395 436.889 110.443 437.296C109.899 437.499 109.763 437.77 109.695 437.905C109.695 437.905 109.559 438.311 109.695 438.853C110.171 440.613 114.795 441.019 114.795 441.019C121.187 441.561 127.511 442.847 133.902 442.915C143.354 443.05 148.454 443.592 157.361 443.456C158.721 443.456 161.849 443.388 165.929 442.779C167.969 442.508 169.533 442.238 171.573 441.628C175.109 440.545 178.78 438.785 178.78 438.785C178.78 438.785 179.12 438.311 179.12 437.905C179.12 437.499 178.78 437.025 178.508 436.889C177.896 436.416 177.081 436.889 176.129 437.296Z" fill="#CE8F31"/>
    <path d="M153.009 460.448C159.333 460.448 160.285 460.922 166.813 460.448C168.581 460.313 170.893 460.11 173.545 459.771C174.021 459.568 174.293 459.23 174.293 458.824C174.293 458.282 173.681 458.011 173.477 457.876C172.729 457.47 171.845 457.605 171.709 457.605C168.173 458.011 164.501 457.267 160.965 457.537C158.109 457.741 154.029 458.011 148.658 458.079C147.706 458.485 147.638 458.824 147.638 458.959C147.706 459.501 149.134 459.839 150.018 460.042C151.718 460.448 153.009 460.448 153.009 460.448Z" fill="#CE8F31"/>
    <path d="M131.251 456.996C130.027 456.996 128.055 456.928 125.471 456.86C125.267 456.928 124.383 457.131 124.315 457.673C124.247 458.282 125.335 458.824 125.675 459.027C127.239 459.839 128.599 459.771 132.542 459.771C133.222 459.771 133.902 459.771 134.65 459.771C136.622 459.771 139.41 459.771 143.082 459.771C143.422 459.568 143.898 459.23 143.83 458.891C143.762 458.418 142.606 458.214 141.994 458.079C135.194 457.064 131.251 456.996 131.251 456.996Z" fill="#CE8F31"/>
    <path d="M167.969 450.768C167.493 450.768 166.473 450.768 164.433 450.903C163.345 450.971 161.849 451.038 159.945 451.174C159.877 451.174 159.061 451.309 158.653 450.903C158.381 450.565 158.449 450.023 158.585 449.752C158.993 448.669 161.441 448.669 164.909 448.669C166.269 448.669 168.717 448.669 172.185 448.669C172.253 448.669 172.797 448.534 173.069 448.872C173.341 449.211 173.137 449.82 172.865 450.091C172.525 450.565 171.913 450.565 171.029 450.632C169.261 450.7 168.309 450.768 167.969 450.768Z" fill="#CE8F31"/>
    <path d="M141.11 448.872C136.758 449.007 132.406 448.466 128.055 448.33C125.471 448.263 121.595 448.06 116.835 447.857C116.767 447.857 116.155 447.992 115.951 448.466C115.679 448.94 115.883 449.684 116.495 450.091C120.303 450.294 123.363 450.632 125.539 450.835C131.251 451.445 133.086 451.918 137.506 451.986C140.566 452.054 142.946 451.918 144.306 451.783C146.482 451.58 148.454 451.309 149.95 451.106C150.086 451.106 150.562 451.106 150.834 450.768C150.834 450.768 151.038 450.429 150.766 449.82C150.154 448.398 143.558 448.737 141.11 448.872Z" fill="#CE8F31"/>
    <path d="M147.366 465.323C146.89 465.323 145.87 465.323 143.83 465.187C142.742 465.12 141.246 465.052 139.342 464.917C139.274 464.917 138.458 464.781 138.05 465.187C137.778 465.526 137.846 466.067 137.982 466.338C138.39 467.421 140.838 467.421 144.306 467.421C145.666 467.421 148.114 467.421 151.582 467.421C151.65 467.421 152.194 467.557 152.466 467.218C152.738 466.88 152.534 466.271 152.262 466C151.922 465.526 151.31 465.526 150.426 465.458C148.59 465.39 147.706 465.323 147.366 465.323Z" fill="#CE8F31"/>
    <path d="M110.104 273.104C110.92 272.021 108.744 269.99 107.52 266.334C106.908 264.507 106.772 263.153 106.568 260.445C106.296 257.06 105.82 250.154 108.812 242.166C109.356 240.609 111.464 235.329 116.359 229.845C119.419 226.392 126.967 217.862 138.934 216.576C151.65 215.222 161.169 222.94 165.249 226.325C167.289 227.949 178.441 237.427 180.685 252.727C182.248 263.559 178.645 273.172 178.373 273.51C178.373 273.51 178.237 273.713 178.237 273.917C178.237 274.187 178.509 274.39 178.645 274.458C179.121 274.797 180.889 275.338 182.656 274.39C182.792 274.323 183.608 273.849 184.288 272.901C185.036 271.818 185.172 270.735 185.24 270.396C185.988 264.574 187.416 260.919 187.348 256.044C187.212 249.477 184.22 233.975 171.097 222.534C167.561 219.419 158.517 211.499 144.918 211.025C126.491 210.348 114.523 223.684 112.211 226.392C109.696 229.236 102.488 237.495 101.128 250.493C99.836 262.882 104.936 272.766 105.072 272.969C105.072 272.969 105.208 273.172 105.276 273.443C105.344 273.646 105.344 273.713 105.344 273.713C105.548 274.187 107.452 273.917 107.452 273.917C109.016 273.51 109.9 273.375 110.104 273.104Z" fill="#AB6F26"/>
    <path d="M104.596 276.015C104.732 277.234 104.324 288.742 107.656 299.777C109.56 306.276 111.532 308.307 112.347 309.12C113.367 310.067 115.067 311.354 119.011 312.843C122.207 313.994 125.947 314.874 138.798 315.551C144.782 315.822 147.842 316.025 152.194 315.822C157.702 315.619 161.101 315.483 165.453 314.332C169.533 313.249 174.225 311.963 177.557 307.901C178.781 306.412 179.325 305.193 180.413 302.756C180.413 302.756 184.832 292.534 184.356 276.218C184.356 275.203 184.22 273.917 184.22 273.917C184.22 273.646 184.152 273.51 184.152 273.443C183.676 272.156 143.218 281.431 116.835 275.88C113.231 275.135 104.528 275 104.528 275.474C104.596 275.744 104.596 275.812 104.596 276.015Z" fill="#AB6F26"/>
    <path d="M125.335 273.781C121.663 273.24 119.351 272.901 119.351 272.901C114.319 272.156 114.455 272.156 113.503 272.021C110.987 271.75 109.831 271.818 107.384 271.344C106.024 271.073 105.344 270.938 104.8 270.802C102.692 270.193 101.672 269.448 100.04 269.719C99.5639 269.787 99.1559 269.922 98.816 270.193C98.272 270.599 98 271.276 98 271.953C98.068 272.698 98.544 273.307 99.1559 273.849C102.08 276.218 105.548 276.624 105.548 276.624C111.939 277.369 118.263 278.385 124.655 278.994C129.415 279.468 128.939 279.535 132.475 279.874C140.362 280.551 142.878 280.077 165.453 279.129C170.281 278.926 174.973 277.775 179.8 277.505C179.8 277.505 181.568 277.369 187.008 275.541C187.416 275.406 188.708 274.932 189.388 273.849C189.728 273.24 189.796 272.766 189.796 272.63C189.796 272.495 189.796 271.818 189.388 271.276C188.912 270.667 188.096 270.599 187.552 270.532C184.628 270.329 182.384 271.073 182.384 271.073C179.936 271.886 177.285 271.818 174.769 272.359C168.037 273.781 156.477 274.255 151.854 274.458C141.178 274.797 130.571 274.526 125.335 273.781Z" fill="#CE8F31"/>
    <path d="M176.129 281.296C174.973 281.837 173.681 281.905 172.457 282.311C169.261 283.327 163.141 284.004 162.053 284.139C153.894 285.019 145.258 284.613 136.214 284.139C131.862 283.936 129.007 283.665 123.363 283.124C118.671 282.65 117.651 282.447 116.699 282.243C115.475 281.905 114.183 281.905 112.959 281.499C112.551 281.363 111.395 280.889 110.443 281.296C109.899 281.499 109.763 281.77 109.695 281.905C109.695 281.905 109.559 282.311 109.695 282.853C110.171 284.613 114.795 285.019 114.795 285.019C121.187 285.561 127.511 286.847 133.902 286.915C143.354 287.05 148.454 287.592 157.361 287.456C158.721 287.456 161.849 287.389 165.929 286.779C167.969 286.508 169.533 286.238 171.573 285.628C175.109 284.545 178.78 282.785 178.78 282.785C178.78 282.785 179.12 282.311 179.12 281.905C179.12 281.499 178.78 281.025 178.508 280.889C177.896 280.416 177.081 280.889 176.129 281.296Z" fill="#CE8F31"/>
    <path d="M153.009 304.448C159.333 304.448 160.285 304.922 166.813 304.448C168.581 304.313 170.893 304.11 173.545 303.771C174.021 303.568 174.293 303.23 174.293 302.824C174.293 302.282 173.681 302.011 173.477 301.876C172.729 301.47 171.845 301.605 171.709 301.605C168.173 302.011 164.501 301.267 160.965 301.537C158.109 301.741 154.029 302.011 148.658 302.079C147.706 302.485 147.638 302.824 147.638 302.959C147.706 303.501 149.134 303.839 150.018 304.042C151.718 304.448 153.009 304.448 153.009 304.448Z" fill="#CE8F31"/>
    <path d="M131.251 300.996C130.027 300.996 128.055 300.928 125.471 300.86C125.267 300.928 124.383 301.131 124.315 301.673C124.247 302.282 125.335 302.824 125.675 303.027C127.239 303.839 128.599 303.771 132.542 303.771C133.222 303.771 133.902 303.771 134.65 303.771C136.622 303.771 139.41 303.771 143.082 303.771C143.422 303.568 143.898 303.23 143.83 302.891C143.762 302.418 142.606 302.214 141.994 302.079C135.194 301.064 131.251 300.996 131.251 300.996Z" fill="#CE8F31"/>
    <path d="M167.969 294.768C167.493 294.768 166.473 294.768 164.433 294.903C163.345 294.971 161.849 295.038 159.945 295.174C159.877 295.174 159.061 295.309 158.653 294.903C158.381 294.565 158.449 294.023 158.585 293.752C158.993 292.669 161.441 292.669 164.909 292.669C166.269 292.669 168.717 292.669 172.185 292.669C172.253 292.669 172.797 292.534 173.069 292.872C173.341 293.211 173.137 293.82 172.865 294.091C172.525 294.565 171.913 294.565 171.029 294.632C169.261 294.7 168.309 294.768 167.969 294.768Z" fill="#CE8F31"/>
    <path d="M141.11 292.872C136.758 293.007 132.406 292.466 128.055 292.33C125.471 292.263 121.595 292.06 116.835 291.857C116.767 291.857 116.155 291.992 115.951 292.466C115.679 292.94 115.883 293.684 116.495 294.091C120.303 294.294 123.363 294.632 125.539 294.835C131.251 295.445 133.086 295.918 137.506 295.986C140.566 296.054 142.946 295.918 144.306 295.783C146.482 295.58 148.454 295.309 149.95 295.106C150.086 295.106 150.562 295.106 150.834 294.768C150.834 294.768 151.038 294.429 150.766 293.82C150.154 292.398 143.558 292.737 141.11 292.872Z" fill="#CE8F31"/>
    <path d="M147.366 309.323C146.89 309.323 145.87 309.323 143.83 309.187C142.742 309.12 141.246 309.052 139.342 308.917C139.274 308.917 138.458 308.781 138.05 309.187C137.778 309.526 137.846 310.067 137.982 310.338C138.39 311.421 140.838 311.421 144.306 311.421C145.666 311.421 148.114 311.421 151.582 311.421C151.65 311.421 152.194 311.557 152.466 311.218C152.738 310.88 152.534 310.271 152.262 310C151.922 309.526 151.31 309.526 150.426 309.458C148.59 309.39 147.706 309.323 147.366 309.323Z" fill="#CE8F31"/>
    <path d="M253.104 273.104C253.92 272.021 251.744 269.99 250.52 266.334C249.908 264.507 249.772 263.153 249.568 260.445C249.296 257.06 248.82 250.154 251.812 242.166C252.356 240.609 254.464 235.329 259.359 229.845C262.419 226.392 269.967 217.862 281.934 216.576C294.65 215.222 304.169 222.94 308.249 226.325C310.289 227.949 321.441 237.427 323.685 252.727C325.248 263.559 321.645 273.172 321.373 273.51C321.373 273.51 321.237 273.713 321.237 273.917C321.237 274.187 321.509 274.39 321.645 274.458C322.121 274.797 323.889 275.338 325.656 274.39C325.792 274.323 326.608 273.849 327.288 272.901C328.036 271.818 328.172 270.735 328.24 270.396C328.988 264.574 330.416 260.919 330.348 256.044C330.212 249.477 327.22 233.975 314.097 222.534C310.561 219.419 301.517 211.499 287.918 211.025C269.491 210.348 257.523 223.684 255.211 226.392C252.696 229.236 245.488 237.495 244.128 250.493C242.836 262.882 247.936 272.766 248.072 272.969C248.072 272.969 248.208 273.172 248.276 273.443C248.344 273.646 248.344 273.713 248.344 273.713C248.548 274.187 250.452 273.917 250.452 273.917C252.016 273.51 252.9 273.375 253.104 273.104Z" fill="#AB6F26"/>
    <path d="M247.596 276.015C247.732 277.234 247.324 288.742 250.656 299.777C252.56 306.276 254.532 308.307 255.347 309.12C256.367 310.067 258.067 311.354 262.011 312.843C265.207 313.994 268.947 314.874 281.798 315.551C287.782 315.822 290.842 316.025 295.194 315.822C300.702 315.619 304.101 315.483 308.453 314.332C312.533 313.249 317.225 311.963 320.557 307.901C321.781 306.412 322.325 305.193 323.413 302.756C323.413 302.756 327.832 292.534 327.356 276.218C327.356 275.203 327.22 273.917 327.22 273.917C327.22 273.646 327.152 273.51 327.152 273.443C326.676 272.156 286.218 281.431 259.835 275.88C256.231 275.135 247.528 275 247.528 275.474C247.596 275.744 247.596 275.812 247.596 276.015Z" fill="#AB6F26"/>
    <path d="M268.335 273.781C264.663 273.24 262.351 272.901 262.351 272.901C257.319 272.156 257.455 272.156 256.503 272.021C253.987 271.75 252.831 271.818 250.384 271.344C249.024 271.073 248.344 270.938 247.8 270.802C245.692 270.193 244.672 269.448 243.04 269.719C242.564 269.787 242.156 269.922 241.816 270.193C241.272 270.599 241 271.276 241 271.953C241.068 272.698 241.544 273.307 242.156 273.849C245.08 276.218 248.548 276.624 248.548 276.624C254.939 277.369 261.263 278.385 267.655 278.994C272.415 279.468 271.939 279.535 275.475 279.874C283.362 280.551 285.878 280.077 308.453 279.129C313.281 278.926 317.973 277.775 322.8 277.505C322.8 277.505 324.568 277.369 330.008 275.541C330.416 275.406 331.708 274.932 332.388 273.849C332.728 273.24 332.796 272.766 332.796 272.63C332.796 272.495 332.796 271.818 332.388 271.276C331.912 270.667 331.096 270.599 330.552 270.532C327.628 270.329 325.384 271.073 325.384 271.073C322.936 271.886 320.285 271.818 317.769 272.359C311.037 273.781 299.477 274.255 294.854 274.458C284.178 274.797 273.571 274.526 268.335 273.781Z" fill="#CE8F31"/>
    <path d="M319.129 281.296C317.973 281.837 316.681 281.905 315.457 282.311C312.261 283.327 306.141 284.004 305.053 284.139C296.894 285.019 288.258 284.613 279.214 284.139C274.862 283.936 272.007 283.665 266.363 283.124C261.671 282.65 260.651 282.447 259.699 282.243C258.475 281.905 257.183 281.905 255.959 281.499C255.551 281.363 254.395 280.889 253.443 281.296C252.899 281.499 252.763 281.77 252.695 281.905C252.695 281.905 252.559 282.311 252.695 282.853C253.171 284.613 257.795 285.019 257.795 285.019C264.187 285.561 270.511 286.847 276.902 286.915C286.354 287.05 291.454 287.592 300.361 287.456C301.721 287.456 304.849 287.389 308.929 286.779C310.969 286.508 312.533 286.238 314.573 285.628C318.109 284.545 321.78 282.785 321.78 282.785C321.78 282.785 322.12 282.311 322.12 281.905C322.12 281.499 321.78 281.025 321.508 280.889C320.896 280.416 320.081 280.889 319.129 281.296Z" fill="#CE8F31"/>
    <path d="M296.009 304.448C302.333 304.448 303.285 304.922 309.813 304.448C311.581 304.313 313.893 304.11 316.545 303.771C317.021 303.568 317.293 303.23 317.293 302.824C317.293 302.282 316.681 302.011 316.477 301.876C315.729 301.47 314.845 301.605 314.709 301.605C311.173 302.011 307.501 301.267 303.965 301.537C301.109 301.741 297.029 302.011 291.658 302.079C290.706 302.485 290.638 302.824 290.638 302.959C290.706 303.501 292.134 303.839 293.018 304.042C294.718 304.448 296.009 304.448 296.009 304.448Z" fill="#CE8F31"/>
    <path d="M274.251 300.996C273.027 300.996 271.055 300.928 268.471 300.86C268.267 300.928 267.383 301.131 267.315 301.673C267.247 302.282 268.335 302.824 268.675 303.027C270.239 303.839 271.599 303.771 275.542 303.771C276.222 303.771 276.902 303.771 277.65 303.771C279.622 303.771 282.41 303.771 286.082 303.771C286.422 303.568 286.898 303.23 286.83 302.891C286.762 302.418 285.606 302.214 284.994 302.079C278.194 301.064 274.251 300.996 274.251 300.996Z" fill="#CE8F31"/>
    <path d="M310.969 294.768C310.493 294.768 309.473 294.768 307.433 294.903C306.345 294.971 304.849 295.038 302.945 295.174C302.877 295.174 302.061 295.309 301.653 294.903C301.381 294.565 301.449 294.023 301.585 293.752C301.993 292.669 304.441 292.669 307.909 292.669C309.269 292.669 311.717 292.669 315.185 292.669C315.253 292.669 315.797 292.534 316.069 292.872C316.341 293.211 316.137 293.82 315.865 294.091C315.525 294.565 314.913 294.565 314.029 294.632C312.261 294.7 311.309 294.768 310.969 294.768Z" fill="#CE8F31"/>
    <path d="M284.11 292.872C279.758 293.007 275.406 292.466 271.055 292.33C268.471 292.263 264.595 292.06 259.835 291.857C259.767 291.857 259.155 291.992 258.951 292.466C258.679 292.94 258.883 293.684 259.495 294.091C263.303 294.294 266.363 294.632 268.539 294.835C274.251 295.445 276.086 295.918 280.506 295.986C283.566 296.054 285.946 295.918 287.306 295.783C289.482 295.58 291.454 295.309 292.95 295.106C293.086 295.106 293.562 295.106 293.834 294.768C293.834 294.768 294.038 294.429 293.766 293.82C293.154 292.398 286.558 292.737 284.11 292.872Z" fill="#CE8F31"/>
    <path d="M290.366 309.323C289.89 309.323 288.87 309.323 286.83 309.187C285.742 309.12 284.246 309.052 282.342 308.917C282.274 308.917 281.458 308.781 281.05 309.187C280.778 309.526 280.846 310.067 280.982 310.338C281.39 311.421 283.838 311.421 287.306 311.421C288.666 311.421 291.114 311.421 294.582 311.421C294.65 311.421 295.194 311.557 295.466 311.218C295.738 310.88 295.534 310.271 295.262 310C294.922 309.526 294.31 309.526 293.426 309.458C291.59 309.39 290.706 309.323 290.366 309.323Z" fill="#CE8F31"/>
    <path d="M396.104 429.104C396.92 428.021 394.744 425.99 393.52 422.334C392.908 420.507 392.772 419.153 392.568 416.445C392.296 413.06 391.82 406.154 394.812 398.166C395.356 396.609 397.464 391.329 402.359 385.845C405.419 382.392 412.967 373.862 424.934 372.576C437.65 371.222 447.169 378.94 451.249 382.325C453.289 383.949 464.441 393.427 466.685 408.727C468.248 419.559 464.645 429.172 464.373 429.51C464.373 429.51 464.237 429.713 464.237 429.917C464.237 430.187 464.509 430.39 464.645 430.458C465.121 430.797 466.889 431.338 468.656 430.39C468.792 430.323 469.608 429.849 470.288 428.901C471.036 427.818 471.172 426.735 471.24 426.396C471.988 420.574 473.416 416.919 473.348 412.044C473.212 405.477 470.22 389.975 457.097 378.534C453.561 375.419 444.517 367.499 430.918 367.025C412.491 366.348 400.523 379.684 398.211 382.392C395.696 385.236 388.488 393.495 387.128 406.493C385.836 418.882 390.936 428.766 391.072 428.969C391.072 428.969 391.208 429.172 391.276 429.443C391.344 429.646 391.344 429.713 391.344 429.713C391.548 430.187 393.452 429.917 393.452 429.917C395.016 429.51 395.9 429.375 396.104 429.104Z" fill="#AB6F26"/>
    <path d="M390.596 432.015C390.732 433.234 390.324 444.742 393.656 455.777C395.56 462.276 397.532 464.307 398.347 465.12C399.367 466.067 401.067 467.354 405.011 468.843C408.207 469.994 411.947 470.874 424.798 471.551C430.782 471.822 433.842 472.025 438.194 471.822C443.702 471.619 447.101 471.483 451.453 470.332C455.533 469.249 460.225 467.963 463.557 463.901C464.781 462.412 465.325 461.193 466.413 458.756C466.413 458.756 470.832 448.534 470.356 432.218C470.356 431.203 470.22 429.917 470.22 429.917C470.22 429.646 470.152 429.51 470.152 429.443C469.676 428.156 429.218 437.431 402.835 431.88C399.231 431.135 390.528 431 390.528 431.474C390.596 431.744 390.596 431.812 390.596 432.015Z" fill="#AB6F26"/>
    <path d="M411.335 429.781C407.663 429.24 405.351 428.901 405.351 428.901C400.319 428.156 400.455 428.156 399.503 428.021C396.987 427.75 395.831 427.818 393.384 427.344C392.024 427.073 391.344 426.938 390.8 426.802C388.692 426.193 387.672 425.448 386.04 425.719C385.564 425.787 385.156 425.922 384.816 426.193C384.272 426.599 384 427.276 384 427.953C384.068 428.698 384.544 429.307 385.156 429.849C388.08 432.218 391.548 432.624 391.548 432.624C397.939 433.369 404.263 434.385 410.655 434.994C415.415 435.468 414.939 435.535 418.475 435.874C426.362 436.551 428.878 436.077 451.453 435.129C456.281 434.926 460.973 433.775 465.8 433.505C465.8 433.505 467.568 433.369 473.008 431.541C473.416 431.406 474.708 430.932 475.388 429.849C475.728 429.24 475.796 428.766 475.796 428.63C475.796 428.495 475.796 427.818 475.388 427.276C474.912 426.667 474.096 426.599 473.552 426.532C470.628 426.329 468.384 427.073 468.384 427.073C465.936 427.886 463.285 427.818 460.769 428.359C454.037 429.781 442.477 430.255 437.854 430.458C427.178 430.797 416.571 430.526 411.335 429.781Z" fill="#CE8F31"/>
    <path d="M462.129 437.296C460.973 437.837 459.681 437.905 458.457 438.311C455.261 439.327 449.141 440.004 448.053 440.139C439.894 441.019 431.258 440.613 422.214 440.139C417.862 439.936 415.007 439.665 409.363 439.123C404.671 438.65 403.651 438.446 402.699 438.243C401.475 437.905 400.183 437.905 398.959 437.499C398.551 437.363 397.395 436.889 396.443 437.296C395.899 437.499 395.763 437.77 395.695 437.905C395.695 437.905 395.559 438.311 395.695 438.853C396.171 440.613 400.795 441.019 400.795 441.019C407.187 441.561 413.511 442.847 419.902 442.915C429.354 443.05 434.454 443.592 443.361 443.456C444.721 443.456 447.849 443.388 451.929 442.779C453.969 442.508 455.533 442.238 457.573 441.628C461.109 440.545 464.78 438.785 464.78 438.785C464.78 438.785 465.12 438.311 465.12 437.905C465.12 437.499 464.78 437.025 464.508 436.889C463.896 436.416 463.081 436.889 462.129 437.296Z" fill="#CE8F31"/>
    <path d="M439.009 460.448C445.333 460.448 446.285 460.922 452.813 460.448C454.581 460.313 456.893 460.11 459.545 459.771C460.021 459.568 460.293 459.23 460.293 458.824C460.293 458.282 459.681 458.011 459.477 457.876C458.729 457.47 457.845 457.605 457.709 457.605C454.173 458.011 450.501 457.267 446.965 457.537C444.109 457.741 440.029 458.011 434.658 458.079C433.706 458.485 433.638 458.824 433.638 458.959C433.706 459.501 435.134 459.839 436.018 460.042C437.718 460.448 439.009 460.448 439.009 460.448Z" fill="#CE8F31"/>
    <path d="M417.251 456.996C416.027 456.996 414.055 456.928 411.471 456.86C411.267 456.928 410.383 457.131 410.315 457.673C410.247 458.282 411.335 458.824 411.675 459.027C413.239 459.839 414.599 459.771 418.542 459.771C419.222 459.771 419.902 459.771 420.65 459.771C422.622 459.771 425.41 459.771 429.082 459.771C429.422 459.568 429.898 459.23 429.83 458.891C429.762 458.418 428.606 458.214 427.994 458.079C421.194 457.064 417.251 456.996 417.251 456.996Z" fill="#CE8F31"/>
    <path d="M453.969 450.768C453.493 450.768 452.473 450.768 450.433 450.903C449.345 450.971 447.849 451.038 445.945 451.174C445.877 451.174 445.061 451.309 444.653 450.903C444.381 450.565 444.449 450.023 444.585 449.752C444.993 448.669 447.441 448.669 450.909 448.669C452.269 448.669 454.717 448.669 458.185 448.669C458.253 448.669 458.797 448.534 459.069 448.872C459.341 449.211 459.137 449.82 458.865 450.091C458.525 450.565 457.913 450.565 457.029 450.632C455.261 450.7 454.309 450.768 453.969 450.768Z" fill="#CE8F31"/>
    <path d="M427.11 448.872C422.758 449.007 418.406 448.466 414.055 448.33C411.471 448.263 407.595 448.06 402.835 447.857C402.767 447.857 402.155 447.992 401.951 448.466C401.679 448.94 401.883 449.684 402.495 450.091C406.303 450.294 409.363 450.632 411.539 450.835C417.251 451.445 419.086 451.918 423.506 451.986C426.566 452.054 428.946 451.918 430.306 451.783C432.482 451.58 434.454 451.309 435.95 451.106C436.086 451.106 436.562 451.106 436.834 450.768C436.834 450.768 437.038 450.429 436.766 449.82C436.154 448.398 429.558 448.737 427.11 448.872Z" fill="#CE8F31"/>
    <path d="M433.366 465.323C432.89 465.323 431.87 465.323 429.83 465.187C428.742 465.12 427.246 465.052 425.342 464.917C425.274 464.917 424.458 464.781 424.05 465.187C423.778 465.526 423.846 466.067 423.982 466.338C424.39 467.421 426.838 467.421 430.306 467.421C431.666 467.421 434.114 467.421 437.582 467.421C437.65 467.421 438.194 467.557 438.466 467.218C438.738 466.88 438.534 466.271 438.262 466C437.922 465.526 437.31 465.526 436.426 465.458C434.59 465.39 433.706 465.323 433.366 465.323Z" fill="#CE8F31"/>
    <path d="M396.104 273.104C396.92 272.021 394.744 269.99 393.52 266.334C392.908 264.507 392.772 263.153 392.568 260.445C392.296 257.06 391.82 250.154 394.812 242.166C395.356 240.609 397.464 235.329 402.359 229.845C405.419 226.392 412.967 217.862 424.934 216.576C437.65 215.222 447.169 222.94 451.249 226.325C453.289 227.949 464.441 237.427 466.685 252.727C468.248 263.559 464.645 273.172 464.373 273.51C464.373 273.51 464.237 273.713 464.237 273.917C464.237 274.187 464.509 274.39 464.645 274.458C465.121 274.797 466.889 275.338 468.656 274.39C468.792 274.323 469.608 273.849 470.288 272.901C471.036 271.818 471.172 270.735 471.24 270.396C471.988 264.574 473.416 260.919 473.348 256.044C473.212 249.477 470.22 233.975 457.097 222.534C453.561 219.419 444.517 211.499 430.918 211.025C412.491 210.348 400.523 223.684 398.211 226.392C395.696 229.236 388.488 237.495 387.128 250.493C385.836 262.882 390.936 272.766 391.072 272.969C391.072 272.969 391.208 273.172 391.276 273.443C391.344 273.646 391.344 273.713 391.344 273.713C391.548 274.187 393.452 273.917 393.452 273.917C395.016 273.51 395.9 273.375 396.104 273.104Z" fill="#AB6F26"/>
    <path d="M390.596 276.015C390.732 277.234 390.324 288.742 393.656 299.777C395.56 306.276 397.532 308.307 398.347 309.12C399.367 310.067 401.067 311.354 405.011 312.843C408.207 313.994 411.947 314.874 424.798 315.551C430.782 315.822 433.842 316.025 438.194 315.822C443.702 315.619 447.101 315.483 451.453 314.332C455.533 313.249 460.225 311.963 463.557 307.901C464.781 306.412 465.325 305.193 466.413 302.756C466.413 302.756 470.832 292.534 470.356 276.218C470.356 275.203 470.22 273.917 470.22 273.917C470.22 273.646 470.152 273.51 470.152 273.443C469.676 272.156 429.218 281.431 402.835 275.88C399.231 275.135 390.528 275 390.528 275.474C390.596 275.744 390.596 275.812 390.596 276.015Z" fill="#AB6F26"/>
    <path d="M411.335 273.781C407.663 273.24 405.351 272.901 405.351 272.901C400.319 272.156 400.455 272.156 399.503 272.021C396.987 271.75 395.831 271.818 393.384 271.344C392.024 271.073 391.344 270.938 390.8 270.802C388.692 270.193 387.672 269.448 386.04 269.719C385.564 269.787 385.156 269.922 384.816 270.193C384.272 270.599 384 271.276 384 271.953C384.068 272.698 384.544 273.307 385.156 273.849C388.08 276.218 391.548 276.624 391.548 276.624C397.939 277.369 404.263 278.385 410.655 278.994C415.415 279.468 414.939 279.535 418.475 279.874C426.362 280.551 428.878 280.077 451.453 279.129C456.281 278.926 460.973 277.775 465.8 277.505C465.8 277.505 467.568 277.369 473.008 275.541C473.416 275.406 474.708 274.932 475.388 273.849C475.728 273.24 475.796 272.766 475.796 272.63C475.796 272.495 475.796 271.818 475.388 271.276C474.912 270.667 474.096 270.599 473.552 270.532C470.628 270.329 468.384 271.073 468.384 271.073C465.936 271.886 463.285 271.818 460.769 272.359C454.037 273.781 442.477 274.255 437.854 274.458C427.178 274.797 416.571 274.526 411.335 273.781Z" fill="#CE8F31"/>
    <path d="M462.129 281.296C460.973 281.837 459.681 281.905 458.457 282.311C455.261 283.327 449.141 284.004 448.053 284.139C439.894 285.019 431.258 284.613 422.214 284.139C417.862 283.936 415.007 283.665 409.363 283.124C404.671 282.65 403.651 282.447 402.699 282.243C401.475 281.905 400.183 281.905 398.959 281.499C398.551 281.363 397.395 280.889 396.443 281.296C395.899 281.499 395.763 281.77 395.695 281.905C395.695 281.905 395.559 282.311 395.695 282.853C396.171 284.613 400.795 285.019 400.795 285.019C407.187 285.561 413.511 286.847 419.902 286.915C429.354 287.05 434.454 287.592 443.361 287.456C444.721 287.456 447.849 287.389 451.929 286.779C453.969 286.508 455.533 286.238 457.573 285.628C461.109 284.545 464.78 282.785 464.78 282.785C464.78 282.785 465.12 282.311 465.12 281.905C465.12 281.499 464.78 281.025 464.508 280.889C463.896 280.416 463.081 280.889 462.129 281.296Z" fill="#CE8F31"/>
    <path d="M439.009 304.448C445.333 304.448 446.285 304.922 452.813 304.448C454.581 304.313 456.893 304.11 459.545 303.771C460.021 303.568 460.293 303.23 460.293 302.824C460.293 302.282 459.681 302.011 459.477 301.876C458.729 301.47 457.845 301.605 457.709 301.605C454.173 302.011 450.501 301.267 446.965 301.537C444.109 301.741 440.029 302.011 434.658 302.079C433.706 302.485 433.638 302.824 433.638 302.959C433.706 303.501 435.134 303.839 436.018 304.042C437.718 304.448 439.009 304.448 439.009 304.448Z" fill="#CE8F31"/>
    <path d="M417.251 300.996C416.027 300.996 414.055 300.928 411.471 300.86C411.267 300.928 410.383 301.131 410.315 301.673C410.247 302.282 411.335 302.824 411.675 303.027C413.239 303.839 414.599 303.771 418.542 303.771C419.222 303.771 419.902 303.771 420.65 303.771C422.622 303.771 425.41 303.771 429.082 303.771C429.422 303.568 429.898 303.23 429.83 302.891C429.762 302.418 428.606 302.214 427.994 302.079C421.194 301.064 417.251 300.996 417.251 300.996Z" fill="#CE8F31"/>
    <path d="M453.969 294.768C453.493 294.768 452.473 294.768 450.433 294.903C449.345 294.971 447.849 295.038 445.945 295.174C445.877 295.174 445.061 295.309 444.653 294.903C444.381 294.565 444.449 294.023 444.585 293.752C444.993 292.669 447.441 292.669 450.909 292.669C452.269 292.669 454.717 292.669 458.185 292.669C458.253 292.669 458.797 292.534 459.069 292.872C459.341 293.211 459.137 293.82 458.865 294.091C458.525 294.565 457.913 294.565 457.029 294.632C455.261 294.7 454.309 294.768 453.969 294.768Z" fill="#CE8F31"/>
    <path d="M427.11 292.872C422.758 293.007 418.406 292.466 414.055 292.33C411.471 292.263 407.595 292.06 402.835 291.857C402.767 291.857 402.155 291.992 401.951 292.466C401.679 292.94 401.883 293.684 402.495 294.091C406.303 294.294 409.363 294.632 411.539 294.835C417.251 295.445 419.086 295.918 423.506 295.986C426.566 296.054 428.946 295.918 430.306 295.783C432.482 295.58 434.454 295.309 435.95 295.106C436.086 295.106 436.562 295.106 436.834 294.768C436.834 294.768 437.038 294.429 436.766 293.82C436.154 292.398 429.558 292.737 427.11 292.872Z" fill="#CE8F31"/>
    <path d="M433.366 309.323C432.89 309.323 431.87 309.323 429.83 309.187C428.742 309.12 427.246 309.052 425.342 308.917C425.274 308.917 424.458 308.781 424.05 309.187C423.778 309.526 423.846 310.067 423.982 310.338C424.39 311.421 426.838 311.421 430.306 311.421C431.666 311.421 434.114 311.421 437.582 311.421C437.65 311.421 438.194 311.557 438.466 311.218C438.738 310.88 438.534 310.271 438.262 310C437.922 309.526 437.31 309.526 436.426 309.458C434.59 309.39 433.706 309.323 433.366 309.323Z" fill="#CE8F31"/>
</svg>
