<svg width="870" height="540" viewBox="0 0 870 540" fill="none" xmlns="http://www.w3.org/2000/svg">
<rect x="2.5" y="2.5" width="865" height="534.4" rx="77.5" fill="#F3F3F3" stroke="#83C1CA" stroke-width="5"/>
<path d="M336.103 274.104C336.919 273.021 334.744 270.99 333.52 267.334C332.908 265.507 332.772 264.153 332.568 261.445C332.296 258.06 331.82 251.154 334.812 243.166C335.355 241.609 337.463 236.329 342.359 230.845C345.419 227.392 352.967 218.862 364.934 217.576C377.65 216.222 387.169 223.94 391.249 227.325C393.289 228.949 404.44 238.427 406.684 253.727C408.248 264.559 404.644 274.172 404.372 274.51C404.372 274.51 404.236 274.713 404.236 274.917C404.236 275.187 404.508 275.39 404.644 275.458C405.12 275.797 406.888 276.338 408.656 275.39C408.792 275.323 409.608 274.849 410.288 273.901C411.036 272.818 411.172 271.735 411.24 271.396C411.988 265.574 413.416 261.919 413.348 257.044C413.212 250.477 410.22 234.975 397.097 223.534C393.561 220.419 384.517 212.499 370.918 212.025C352.491 211.348 340.523 224.684 338.211 227.392C335.695 230.236 328.488 238.495 327.128 251.493C325.836 263.882 330.936 273.766 331.072 273.969C331.072 273.969 331.208 274.172 331.276 274.443C331.344 274.646 331.344 274.713 331.344 274.713C331.548 275.187 333.452 274.917 333.452 274.917C335.016 274.51 335.899 274.375 336.103 274.104Z" fill="#AB6F26"/>
<path d="M330.596 277.015C330.732 278.234 330.324 289.742 333.656 300.777C335.559 307.276 337.531 309.307 338.347 310.12C339.367 311.067 341.067 312.354 345.011 313.843C348.207 314.994 351.947 315.874 364.798 316.551C370.782 316.822 373.842 317.025 378.194 316.822C383.701 316.619 387.101 316.483 391.453 315.332C395.533 314.249 400.225 312.963 403.557 308.901C404.78 307.412 405.324 306.193 406.412 303.756C406.412 303.756 410.832 293.534 410.356 277.218C410.356 276.203 410.22 274.917 410.22 274.917C410.22 274.646 410.152 274.51 410.152 274.443C409.676 273.156 369.218 282.431 342.835 276.88C339.231 276.135 330.528 276 330.528 276.474C330.596 276.744 330.596 276.812 330.596 277.015Z" fill="#AB6F26"/>
<path d="M351.335 274.781C347.663 274.24 345.351 273.901 345.351 273.901C340.319 273.156 340.455 273.156 339.503 273.021C336.987 272.75 335.831 272.818 333.384 272.344C332.024 272.073 331.344 271.938 330.8 271.802C328.692 271.193 327.672 270.448 326.04 270.719C325.564 270.787 325.156 270.922 324.816 271.193C324.272 271.599 324 272.276 324 272.953C324.068 273.698 324.544 274.307 325.156 274.849C328.08 277.218 331.548 277.624 331.548 277.624C337.939 278.369 344.263 279.385 350.655 279.994C355.415 280.468 354.939 280.535 358.475 280.874C366.362 281.551 368.878 281.077 391.453 280.129C396.281 279.926 400.973 278.775 405.8 278.505C405.8 278.505 407.568 278.369 413.008 276.541C413.416 276.406 414.708 275.932 415.388 274.849C415.728 274.24 415.796 273.766 415.796 273.63C415.796 273.495 415.796 272.818 415.388 272.276C414.912 271.667 414.096 271.599 413.552 271.532C410.628 271.329 408.384 272.073 408.384 272.073C405.936 272.886 403.285 272.818 400.769 273.359C394.037 274.781 382.477 275.255 377.854 275.458C367.178 275.797 356.571 275.526 351.335 274.781Z" fill="#CE8F31"/>
<path d="M402.129 282.296C400.973 282.837 399.681 282.905 398.457 283.311C395.261 284.327 389.141 285.004 388.053 285.139C379.894 286.019 371.258 285.613 362.214 285.139C357.863 284.936 355.007 284.665 349.363 284.123C344.671 283.65 343.651 283.446 342.699 283.243C341.475 282.905 340.183 282.905 338.959 282.499C338.551 282.363 337.395 281.889 336.443 282.296C335.9 282.499 335.764 282.77 335.696 282.905C335.696 282.905 335.56 283.311 335.696 283.853C336.171 285.613 340.795 286.019 340.795 286.019C347.187 286.561 353.511 287.847 359.902 287.915C369.354 288.05 374.454 288.592 383.361 288.456C384.721 288.456 387.849 288.388 391.929 287.779C393.969 287.508 395.533 287.238 397.573 286.628C401.109 285.545 404.781 283.785 404.781 283.785C404.781 283.785 405.12 283.311 405.12 282.905C405.12 282.499 404.781 282.025 404.509 281.889C403.897 281.416 403.081 281.889 402.129 282.296Z" fill="#CE8F31"/>
<path d="M379.01 305.448C385.333 305.448 386.285 305.922 392.813 305.448C394.581 305.313 396.893 305.11 399.545 304.771C400.021 304.568 400.293 304.23 400.293 303.824C400.293 303.282 399.681 303.011 399.477 302.876C398.729 302.47 397.845 302.605 397.709 302.605C394.173 303.011 390.501 302.267 386.965 302.537C384.109 302.741 380.03 303.011 374.658 303.079C373.706 303.485 373.638 303.824 373.638 303.959C373.706 304.501 375.134 304.839 376.018 305.042C377.718 305.448 379.01 305.448 379.01 305.448Z" fill="#CE8F31"/>
<path d="M357.251 301.996C356.027 301.996 354.055 301.928 351.471 301.86C351.267 301.928 350.383 302.131 350.315 302.673C350.247 303.282 351.335 303.824 351.675 304.027C353.239 304.839 354.599 304.771 358.543 304.771C359.222 304.771 359.902 304.771 360.65 304.771C362.622 304.771 365.41 304.771 369.082 304.771C369.422 304.568 369.898 304.23 369.83 303.891C369.762 303.418 368.606 303.214 367.994 303.079C361.194 302.064 357.251 301.996 357.251 301.996Z" fill="#CE8F31"/>
<path d="M393.969 295.768C393.493 295.768 392.473 295.768 390.433 295.903C389.345 295.971 387.849 296.038 385.945 296.174C385.877 296.174 385.061 296.309 384.653 295.903C384.381 295.565 384.449 295.023 384.585 294.752C384.993 293.669 387.441 293.669 390.909 293.669C392.269 293.669 394.717 293.669 398.185 293.669C398.253 293.669 398.797 293.534 399.069 293.872C399.341 294.211 399.137 294.82 398.865 295.091C398.525 295.565 397.913 295.565 397.029 295.632C395.261 295.7 394.309 295.768 393.969 295.768Z" fill="#CE8F31"/>
<path d="M367.11 293.872C362.758 294.007 358.406 293.466 354.055 293.33C351.471 293.263 347.595 293.06 342.835 292.857C342.767 292.857 342.155 292.992 341.951 293.466C341.679 293.94 341.883 294.684 342.495 295.091C346.303 295.294 349.363 295.632 351.539 295.835C357.251 296.445 359.086 296.918 363.506 296.986C366.566 297.054 368.946 296.918 370.306 296.783C372.482 296.58 374.454 296.309 375.95 296.106C376.086 296.106 376.562 296.106 376.834 295.768C376.834 295.768 377.038 295.429 376.766 294.82C376.154 293.398 369.558 293.737 367.11 293.872Z" fill="#CE8F31"/>
<path d="M373.366 310.323C372.89 310.323 371.87 310.323 369.83 310.187C368.742 310.12 367.246 310.052 365.342 309.917C365.274 309.917 364.458 309.781 364.05 310.187C363.778 310.526 363.846 311.067 363.982 311.338C364.39 312.421 366.838 312.421 370.306 312.421C371.666 312.421 374.114 312.421 377.582 312.421C377.65 312.421 378.194 312.557 378.466 312.218C378.738 311.88 378.534 311.271 378.262 311C377.922 310.526 377.31 310.526 376.426 310.458C374.59 310.39 373.706 310.323 373.366 310.323Z" fill="#CE8F31"/>
<path d="M193.103 274.104C193.919 273.021 191.744 270.99 190.52 267.334C189.908 265.507 189.772 264.153 189.568 261.445C189.296 258.06 188.82 251.154 191.812 243.166C192.355 241.609 194.463 236.329 199.359 230.845C202.419 227.392 209.967 218.862 221.934 217.576C234.65 216.222 244.169 223.94 248.249 227.325C250.289 228.949 261.44 238.427 263.684 253.727C265.248 264.559 261.644 274.172 261.372 274.51C261.372 274.51 261.236 274.713 261.236 274.917C261.236 275.187 261.508 275.39 261.644 275.458C262.12 275.797 263.888 276.338 265.656 275.39C265.792 275.323 266.608 274.849 267.288 273.901C268.036 272.818 268.172 271.735 268.24 271.396C268.988 265.574 270.416 261.919 270.348 257.044C270.212 250.477 267.22 234.975 254.097 223.534C250.561 220.419 241.517 212.499 227.918 212.025C209.491 211.348 197.523 224.684 195.211 227.392C192.695 230.236 185.488 238.495 184.128 251.493C182.836 263.882 187.936 273.766 188.072 273.969C188.072 273.969 188.208 274.172 188.276 274.443C188.344 274.646 188.344 274.713 188.344 274.713C188.548 275.187 190.452 274.917 190.452 274.917C192.016 274.51 192.899 274.375 193.103 274.104Z" fill="#AB6F26"/>
<path d="M187.596 277.015C187.732 278.234 187.324 289.742 190.656 300.777C192.559 307.276 194.531 309.307 195.347 310.12C196.367 311.067 198.067 312.354 202.011 313.843C205.207 314.994 208.947 315.874 221.798 316.551C227.782 316.822 230.842 317.025 235.194 316.822C240.701 316.619 244.101 316.483 248.453 315.332C252.533 314.249 257.225 312.963 260.557 308.901C261.78 307.412 262.324 306.193 263.412 303.756C263.412 303.756 267.832 293.534 267.356 277.218C267.356 276.203 267.22 274.917 267.22 274.917C267.22 274.646 267.152 274.51 267.152 274.443C266.676 273.156 226.218 282.431 199.835 276.88C196.231 276.135 187.528 276 187.528 276.474C187.596 276.744 187.596 276.812 187.596 277.015Z" fill="#AB6F26"/>
<path d="M208.335 274.781C204.663 274.24 202.351 273.901 202.351 273.901C197.319 273.156 197.455 273.156 196.503 273.021C193.987 272.75 192.831 272.818 190.384 272.344C189.024 272.073 188.344 271.938 187.8 271.802C185.692 271.193 184.672 270.448 183.04 270.719C182.564 270.787 182.156 270.922 181.816 271.193C181.272 271.599 181 272.276 181 272.953C181.068 273.698 181.544 274.307 182.156 274.849C185.08 277.218 188.548 277.624 188.548 277.624C194.939 278.369 201.263 279.385 207.655 279.994C212.415 280.468 211.939 280.535 215.475 280.874C223.362 281.551 225.878 281.077 248.453 280.129C253.281 279.926 257.973 278.775 262.8 278.505C262.8 278.505 264.568 278.369 270.008 276.541C270.416 276.406 271.708 275.932 272.388 274.849C272.728 274.24 272.796 273.766 272.796 273.63C272.796 273.495 272.796 272.818 272.388 272.276C271.912 271.667 271.096 271.599 270.552 271.532C267.628 271.329 265.384 272.073 265.384 272.073C262.936 272.886 260.285 272.818 257.769 273.359C251.037 274.781 239.477 275.255 234.854 275.458C224.178 275.797 213.571 275.526 208.335 274.781Z" fill="#CE8F31"/>
<path d="M259.129 282.296C257.973 282.837 256.681 282.905 255.457 283.311C252.261 284.327 246.141 285.004 245.053 285.139C236.894 286.019 228.258 285.613 219.214 285.139C214.863 284.936 212.007 284.665 206.363 284.123C201.671 283.65 200.651 283.446 199.699 283.243C198.475 282.905 197.183 282.905 195.959 282.499C195.551 282.363 194.395 281.889 193.443 282.296C192.9 282.499 192.764 282.77 192.696 282.905C192.696 282.905 192.56 283.311 192.696 283.853C193.171 285.613 197.795 286.019 197.795 286.019C204.187 286.561 210.511 287.847 216.902 287.915C226.354 288.05 231.454 288.592 240.361 288.456C241.721 288.456 244.849 288.388 248.929 287.779C250.969 287.508 252.533 287.238 254.573 286.628C258.109 285.545 261.781 283.785 261.781 283.785C261.781 283.785 262.12 283.311 262.12 282.905C262.12 282.499 261.781 282.025 261.509 281.889C260.897 281.416 260.081 281.889 259.129 282.296Z" fill="#CE8F31"/>
<path d="M236.01 305.448C242.333 305.448 243.285 305.922 249.813 305.448C251.581 305.313 253.893 305.11 256.545 304.771C257.021 304.568 257.293 304.23 257.293 303.824C257.293 303.282 256.681 303.011 256.477 302.876C255.729 302.47 254.845 302.605 254.709 302.605C251.173 303.011 247.501 302.267 243.965 302.537C241.109 302.741 237.03 303.011 231.658 303.079C230.706 303.485 230.638 303.824 230.638 303.959C230.706 304.501 232.134 304.839 233.018 305.042C234.718 305.448 236.01 305.448 236.01 305.448Z" fill="#CE8F31"/>
<path d="M214.251 301.996C213.027 301.996 211.055 301.928 208.471 301.86C208.267 301.928 207.383 302.131 207.315 302.673C207.247 303.282 208.335 303.824 208.675 304.027C210.239 304.839 211.599 304.771 215.543 304.771C216.222 304.771 216.902 304.771 217.65 304.771C219.622 304.771 222.41 304.771 226.082 304.771C226.422 304.568 226.898 304.23 226.83 303.891C226.762 303.418 225.606 303.214 224.994 303.079C218.194 302.064 214.251 301.996 214.251 301.996Z" fill="#CE8F31"/>
<path d="M250.969 295.768C250.493 295.768 249.473 295.768 247.433 295.903C246.345 295.971 244.849 296.038 242.945 296.174C242.877 296.174 242.061 296.309 241.653 295.903C241.381 295.565 241.449 295.023 241.585 294.752C241.993 293.669 244.441 293.669 247.909 293.669C249.269 293.669 251.717 293.669 255.185 293.669C255.253 293.669 255.797 293.534 256.069 293.872C256.341 294.211 256.137 294.82 255.865 295.091C255.525 295.565 254.913 295.565 254.029 295.632C252.261 295.7 251.309 295.768 250.969 295.768Z" fill="#CE8F31"/>
<path d="M224.11 293.872C219.758 294.007 215.406 293.466 211.055 293.33C208.471 293.263 204.595 293.06 199.835 292.857C199.767 292.857 199.155 292.992 198.951 293.466C198.679 293.94 198.883 294.684 199.495 295.091C203.303 295.294 206.363 295.632 208.539 295.835C214.251 296.445 216.086 296.918 220.506 296.986C223.566 297.054 225.946 296.918 227.306 296.783C229.482 296.58 231.454 296.309 232.95 296.106C233.086 296.106 233.562 296.106 233.834 295.768C233.834 295.768 234.038 295.429 233.766 294.82C233.154 293.398 226.558 293.737 224.11 293.872Z" fill="#CE8F31"/>
<path d="M230.366 310.323C229.89 310.323 228.87 310.323 226.83 310.187C225.742 310.12 224.246 310.052 222.342 309.917C222.274 309.917 221.458 309.781 221.05 310.187C220.778 310.526 220.846 311.067 220.982 311.338C221.39 312.421 223.838 312.421 227.306 312.421C228.666 312.421 231.114 312.421 234.582 312.421C234.65 312.421 235.194 312.557 235.466 312.218C235.738 311.88 235.534 311.271 235.262 311C234.922 310.526 234.31 310.526 233.426 310.458C231.59 310.39 230.706 310.323 230.366 310.323Z" fill="#CE8F31"/>
<path d="M666.868 292.834C666.868 281.82 667.009 281.259 666.939 274.664C666.939 266.737 666.656 261.686 666.868 255.513C666.868 254.882 666.868 254.461 666.939 253.619C667.151 245.341 666.868 243.728 666.656 242.886C666.374 241.623 665.809 240.501 664.749 238.256C662.7 233.836 660.369 230.329 659.663 229.347C656.201 224.717 647.3 222.472 639.035 222.542C635.22 222.542 631.547 223.033 628.509 223.945C625.472 223.033 621.798 222.542 617.984 222.542C609.719 222.472 600.818 224.717 597.356 229.347C596.65 230.329 594.319 233.836 592.27 238.256C591.21 240.431 590.716 241.553 590.363 242.816C590.151 243.728 589.868 245.341 590.08 253.549C590.08 254.391 590.08 254.812 590.151 255.443C590.363 261.616 590.151 266.737 590.08 274.594C590.08 281.188 590.221 281.75 590.151 292.763C590.151 294.166 590.151 295.499 590.151 296.902C590.08 302.094 589.727 306.373 590.433 311.634C590.575 312.757 590.786 313.879 591.564 315.072C591.917 315.563 592.27 315.983 592.623 316.334C593.895 317.878 595.59 318.93 596.791 319C596.932 319 597.356 319 597.921 319H598.063H598.698C599.264 319 599.687 319 599.829 319H657.261C657.402 319 657.826 319 658.391 319H659.027H659.168C659.733 319 660.157 319 660.298 319C661.499 318.93 663.195 317.878 664.466 316.334C664.89 315.983 665.243 315.563 665.526 315.072C666.303 313.879 666.515 312.757 666.656 311.634C667.363 306.373 667.009 302.094 666.939 296.902C666.797 295.569 666.868 294.166 666.868 292.834Z" fill="#C890A7"/>
<path d="M660.722 231.872H596.155C593.4 231.872 591.14 229.627 591.14 226.891V221.981C591.069 219.245 593.33 217 596.155 217H660.722C663.477 217 665.738 219.245 665.738 221.981V226.891C665.738 229.627 663.477 231.872 660.722 231.872Z" fill="#8A8C95"/>
<path d="M663.407 285.678C663.407 273.472 663.548 272.84 663.477 265.545C663.477 256.776 663.265 251.164 663.407 244.289C663.407 244.219 662.559 242.956 662.347 242.395C661.923 241.974 661.217 241.342 660.298 240.781C657.19 238.957 653.729 239.168 649.561 239.518C647.795 239.659 647.23 239.869 643.344 240.22C640.801 240.43 639.883 240.501 638.823 240.43C637.269 240.29 637.128 240.08 633.949 239.518C631.194 238.957 629.781 238.677 628.156 238.677C626.249 238.607 624.765 238.817 623.282 239.098C620.88 239.448 620.456 239.939 617.984 240.29C617.277 240.36 616.006 240.571 614.381 240.501C612.191 240.43 610.99 240.01 609.436 239.659C608.659 239.518 603.714 238.466 598.628 239.869C598.628 239.869 596.438 240.501 594.884 241.974C594.601 242.254 593.542 243.237 593.612 244.359C593.753 251.093 593.542 256.776 593.542 265.474C593.542 272.77 593.612 273.402 593.612 285.608C593.612 287.151 593.612 288.624 593.612 290.168C593.542 295.92 593.259 300.69 593.824 306.443C593.965 307.635 594.107 308.898 594.813 310.231C595.096 310.792 595.449 311.283 595.802 311.634C596.932 313.388 598.486 314.51 599.546 314.58C599.617 314.58 600.041 314.58 600.535 314.58H600.676H601.242C601.736 314.58 602.089 314.58 602.231 314.58H654.506C654.647 314.58 655 314.58 655.495 314.58H656.06H656.201C656.696 314.58 657.12 314.58 657.19 314.58C658.32 314.51 659.804 313.388 660.934 311.634C661.287 311.213 661.641 310.722 661.923 310.231C662.63 308.898 662.771 307.635 662.912 306.443C663.548 300.62 663.195 295.92 663.124 290.168C663.336 288.695 663.407 287.151 663.407 285.678Z" fill="#B44276"/>
<path d="M657.755 292.202V261.055C655.212 261.055 653.164 259.371 653.164 257.337H603.714C603.714 259.371 601.665 261.055 599.122 261.055V292.272C601.665 292.272 603.714 293.956 603.714 295.99H653.164C653.164 293.886 655.212 292.202 657.755 292.202Z" fill="#F3F3F3"/>
<path opacity="0.39" d="M601.524 306.373V256.565C601.524 254.391 603.361 252.567 605.551 252.567C607.741 252.567 609.577 254.391 609.577 256.565V306.443C609.577 308.618 607.741 310.441 605.551 310.441C603.29 310.371 601.524 308.618 601.524 306.373Z" fill="#F3F3F3"/>
<path opacity="0.39" d="M601.524 244.99V240.15C601.524 237.975 603.361 236.151 605.551 236.151C607.741 236.151 609.577 237.975 609.577 240.15V244.99C609.577 247.165 607.741 248.989 605.551 248.989C603.29 248.989 601.524 247.165 601.524 244.99Z" fill="#F3F3F3"/>
<path d="M636.009 285C640.98 285 645.009 280.971 645.009 276C645.009 271.029 640.98 267 636.009 267C631.039 267 627.009 271.029 627.009 276C627.009 280.971 631.039 285 636.009 285Z" fill="#B32646"/>
<path d="M638.109 277.95C637.659 278.4 637.059 278.4 636.609 277.95L633.759 275.25C633.309 274.8 633.309 274.2 633.759 273.75C634.209 273.3 634.809 273.3 635.259 273.75L638.109 276.45C638.559 276.9 638.559 277.65 638.109 277.95Z" fill="#6C1626"/>
<path d="M637.959 273.75C638.409 274.2 638.409 274.8 637.959 275.25L635.409 278.1C634.959 278.55 634.359 278.55 633.909 278.1C633.459 277.65 633.459 277.05 633.909 276.6L636.609 273.75C636.909 273.45 637.509 273.45 637.959 273.75Z" fill="#6C1626"/>
<path d="M622.509 282C628.308 282 633.009 277.299 633.009 271.5C633.009 265.701 628.308 261 622.509 261C616.71 261 612.009 265.701 612.009 271.5C612.009 277.299 616.71 282 622.509 282Z" fill="#B32646"/>
<path d="M624.959 273.775C624.434 274.3 623.734 274.3 623.209 273.775L619.884 270.625C619.359 270.1 619.359 269.4 619.884 268.875C620.409 268.35 621.109 268.35 621.634 268.875L624.959 272.025C625.484 272.55 625.484 273.425 624.959 273.775Z" fill="#6C1626"/>
<path d="M624.784 268.875C625.309 269.4 625.309 270.1 624.784 270.625L621.809 273.95C621.284 274.475 620.584 274.475 620.059 273.95C619.534 273.425 619.534 272.725 620.059 272.2L623.209 268.875C623.559 268.525 624.259 268.525 624.784 268.875Z" fill="#6C1626"/>
<path d="M618.309 266.6C618.834 266.25 619.709 265.55 620.409 265.025C620.584 264.85 620.934 264.675 620.934 264.325C620.934 264.325 621.109 263.625 620.759 263.275C620.409 262.925 619.709 262.925 619.534 262.925C619.359 262.925 619.009 263.1 618.659 263.275C618.134 263.625 617.959 263.8 617.784 263.975C617.084 264.5 616.734 264.85 616.209 265.2C615.509 265.9 615.159 266.425 614.984 266.6C614.634 267.125 614.284 267.65 613.759 268.7C613.409 269.225 613.234 269.75 613.234 270.45C613.234 270.8 613.409 270.975 613.409 271.15C613.759 271.5 614.109 271.5 614.284 271.5C614.634 271.5 614.984 271.325 614.984 271.325C615.334 271.15 615.334 270.8 615.684 270.275C615.859 269.75 615.859 269.75 616.034 269.225C616.034 269.05 616.209 268.875 616.559 268.35C617.084 267.65 617.609 267.125 618.309 266.6Z" fill="#C8637A"/>
<path d="M627.009 292C631.428 292 635.009 288.418 635.009 284C635.009 279.582 631.428 276 627.009 276C622.591 276 619.009 279.582 619.009 284C619.009 288.418 622.591 292 627.009 292Z" fill="#761F36"/>
<path d="M629.009 285.875C628.634 286.25 628.134 286.25 627.759 285.875L625.259 283.5C624.884 283.125 624.884 282.625 625.259 282.25C625.634 281.875 626.134 281.875 626.509 282.25L629.009 284.625C629.259 284.875 629.259 285.5 629.009 285.875Z" fill="#49131F"/>
<path d="M628.759 282.125C629.134 282.5 629.134 283 628.759 283.375L626.384 285.875C626.009 286.25 625.509 286.25 625.134 285.875C624.759 285.5 624.759 285 625.134 284.625L627.509 282.125C627.884 281.75 628.384 281.75 628.759 282.125Z" fill="#49131F"/>
<path d="M623.759 280.25C624.134 279.875 624.759 279.5 625.384 279C625.509 278.875 625.759 278.75 625.884 278.5C625.884 278.5 626.009 278 625.759 277.75C625.509 277.375 625.009 277.5 624.884 277.5C624.759 277.5 624.509 277.625 624.259 277.875C623.884 278.125 623.634 278.25 623.634 278.375C623.134 278.875 622.759 279 622.509 279.375C622.009 279.875 621.634 280.25 621.634 280.375C621.384 280.75 621.134 281.125 620.759 281.875C620.509 282.375 620.384 282.75 620.384 283.125C620.384 283.375 620.509 283.5 620.509 283.625C620.759 283.875 621.009 283.875 621.134 283.875C621.384 283.875 621.634 283.75 621.634 283.75C621.884 283.625 622.009 283.375 622.134 283C622.259 282.625 622.259 282.5 622.384 282.25C622.384 282.125 622.509 281.875 622.884 281.625C622.884 281.125 623.259 280.75 623.759 280.25Z" fill="#A05062"/>
</svg>
