<svg viewBox="0 0 1041 673" fill="none" xmlns="http://www.w3.org/2000/svg">
    <path d="M930.276 31.5285H109.538C60.3792 31.5285 20.5282 71.3795 20.5282 120.538V559.113C20.5282 608.271 60.3792 648.122 109.538 648.122H930.276C979.434 648.122 1019.29 608.271 1019.29 559.113V120.538C1019.29 71.3795 979.434 31.5285 930.276 31.5285Z" fill="#B6CEE1" stroke="#116619" stroke-width="6"/>
    <path d="M10.3468 40.3962C14.0802 43.5191 30.3872 57.8544 33.3678 82.5644C35.0452 97.2366 31.7441 112.047 23.9944 124.618C23.9917 129.075 23.9889 133.532 23.9861 137.989C25.0232 137.01 49.8968 112.69 42.0006 79.7975C35.744 53.7353 13.6632 42.0771 10.3468 40.3962Z" fill="#48964E"/>
    <path d="M17.0569 128.701C8.9823 135.637 6.59974 141.986 5.91973 146.508C3.13445 165.034 25.505 175.593 28.6391 200.181C30.0691 211.399 26.9366 221.162 23.9805 227.768L23.9875 239.712C41.4527 218.375 42.4272 204.688 40.0084 196.092C35.2337 179.124 13.756 169.631 15.3641 150.788C15.5785 148.344 16.1464 145.945 17.05 143.665C17.0523 138.677 17.0547 133.689 17.0569 128.701Z" fill="#48964E"/>
    <path d="M17.0604 232.674C5.48565 244.641 4.28566 252.946 5.18185 258.219C6.6285 266.731 13.6658 268.101 22.5951 285.077C28.1058 295.553 28.5784 301.026 28.6455 303.67C28.7255 309.923 27.1172 316.082 23.9901 321.497L23.991 330.539C41.6305 318.739 42.9887 308.886 42.9598 304.851C42.909 297.746 38.4361 291.725 29.6047 279.838C21.4098 268.807 15.4083 264.258 14.9215 255.415C14.7654 251.724 15.499 248.049 17.0604 244.7V232.674Z" fill="#48964E"/>
    <path d="M17.0604 325.22V335.103C13.8048 340.271 12.0902 346.261 12.1177 352.369C12.5845 369.455 28.9968 376.064 34.1056 392.065C36.8704 400.725 36.9913 414.222 23.998 434.822C23.9945 430.933 23.991 427.045 23.9876 423.156C26.0384 415.924 26.4201 408.32 25.1039 400.919C20.7622 377.867 0.685835 370.851 0.0169104 353.992C-0.233507 347.682 2.15076 337.868 17.0604 325.22Z" fill="#48964E"/>
    <path d="M17.0501 427.831C4.97676 444.271 4.77025 454.633 6.80518 461.054C10.6864 473.3 24.3096 476.221 27.465 490.052C29.351 498.318 26.4774 506.012 23.9945 510.935C23.9957 514.078 23.9969 517.22 23.998 520.363C37.3567 504.069 38.216 493.78 36.1717 487.248C32.6197 475.899 19.2639 472.709 15.9546 458.324C14.7898 452.761 15.1723 446.984 17.0605 441.623L17.0501 427.831Z" fill="#48964E"/>
    <path d="M17.0612 515.065C8.99151 525.759 9.0124 531.824 10.4206 535.356C13.1376 542.17 22.1154 542.287 25.5465 550.039C28.053 555.702 26.0884 562.023 24.2826 566.146C24.3981 567.501 24.5498 568.909 24.7375 570.368C24.9274 571.825 25.1416 573.223 25.3799 574.563C36.23 556.687 35.4077 548.633 32.7037 544.579C28.6327 538.476 17.7069 537.555 16.3971 530.191C16.1254 528.432 16.3546 526.631 17.0587 524.996L17.0612 515.065Z" fill="#48964E"/>
    <path d="M18.0222 572.507C13.0891 583.935 14.5022 589.32 16.4894 592.115C20.5839 597.873 29.2555 595.641 37.1308 602.851C40.4592 606 42.9026 609.968 44.2167 614.358C44.9419 615.213 45.7119 616.085 46.5267 616.972C47.3524 617.869 48.1675 618.718 48.9719 619.52C49.211 604.959 45.11 599.01 41.3366 596.265C34.4535 591.258 24.7422 594.061 20.6398 587.632C19.2122 585.118 18.7262 582.177 19.2687 579.337C19.0586 578.382 18.8583 577.399 18.668 576.389C18.4183 575.057 18.2031 573.763 18.0222 572.507Z" fill="#48964E"/>
    <path d="M42.0031 622.283C46.7911 638.508 53.2136 643.192 57.9382 644.631C66.9854 647.388 73.8136 639.441 88.7123 639.365C96.1929 639.413 103.556 641.227 110.203 644.66L119.037 644.657C102.87 630.479 91.01 628.438 82.73 629.801C72.3763 631.505 63.8322 639.154 54.9499 635.224C51.4655 633.513 48.6522 630.688 46.9564 627.196C46.2082 626.514 45.4495 625.795 44.6803 625.04C43.7328 624.108 42.8404 623.189 42.0031 622.283Z" fill="#48964E"/>
    <path d="M115.106 651.591C127.369 659.207 134.715 658.829 139.176 657.027C145.937 654.296 147.67 647.647 156.146 644.779C160.852 643.316 165.884 643.273 170.614 644.655H177.173C165.138 636.785 157.597 636.827 152.826 638.581C144.69 641.572 140.989 650.87 130.321 652.01C128.053 652.244 125.761 652.1 123.54 651.584L115.106 651.591Z" fill="#48964E"/>
    <path d="M176.174 651.59C191.651 661.554 201.029 661.231 206.763 659.02C215.799 655.534 218.489 646.308 229.636 643.525C235.059 642.31 240.718 642.705 245.919 644.66L253.388 644.657C239.944 633.895 230.994 633.305 225.357 634.671C213.782 637.475 209.318 650.187 194.515 652.342C190.476 652.902 186.366 652.647 182.428 651.591L176.174 651.59Z" fill="#48964E"/>
    <path d="M249.258 651.582C265.838 664.48 276.984 665.311 284.237 663.447C296.849 660.205 300.696 648.04 316.407 643.82C324.23 641.89 332.436 642.182 340.102 644.66L351.961 644.655C333.752 633.539 321.409 633.567 313.345 635.888C299.746 639.802 293.8 651.537 277.043 653.596C270.737 654.311 264.351 653.625 258.341 651.587L249.258 651.582Z" fill="#48964E"/>
    <path d="M345.465 651.591C365.599 662.904 377.705 661.874 385.027 658.872C394.833 654.852 399.56 645.86 412.771 643.525C418.459 642.583 424.289 642.969 429.804 644.655L443.017 644.658C425.156 629.441 413.953 628.334 406.868 630.539C395.057 634.214 392.044 647.915 376.764 652.231C370.046 653.964 362.974 653.737 356.381 651.577L345.465 651.591Z" fill="#48964E"/>
    <path d="M436.307 651.584C442.658 655.453 452.538 660.082 464.273 659.315C481.079 658.216 487.83 646.955 505.592 642.197C514.149 639.904 527.157 638.613 545.113 644.65L557.538 644.652C526.411 625.02 509.136 625.608 498.952 630.686C488.018 636.138 480.788 648.994 462.926 651.881C457.708 652.701 452.387 652.6 447.203 651.584H436.307Z" fill="#48964E"/>
    <path d="M562.702 651.585C568.452 653.494 574.507 654.314 580.558 654.002C600.049 652.891 608.674 639.807 623.353 634.671C633.854 630.996 650.007 630.496 674.713 644.655L660.42 644.66C650.354 641.913 639.791 641.525 629.551 643.525C608.509 647.856 601.319 660.833 583.509 662.119C576.428 662.63 565.421 661.455 551.171 651.587L562.702 651.585Z" fill="#48964E"/>
    <path d="M678.232 651.584C690.721 656.031 703.969 657.957 717.208 657.249C748.6 655.366 762.648 638.53 787.599 631.572C805.047 626.706 831.514 625.641 869.511 644.671L852.521 644.66C835.629 641.292 818.247 641.207 801.323 644.41C765.319 651.434 753.078 670.21 724.734 672.301C710.686 673.337 690.342 670.448 664.51 651.591L678.232 651.584Z" fill="#48964E"/>
    <path d="M863.063 651.567C886.607 667.621 902.874 668.248 913.515 665.66C932.602 661.019 935.367 645.599 956.862 642.787C972.959 640.681 980.122 648.188 995.268 643.23C1005.77 639.793 1012.88 632.731 1017.11 627.587C1009.96 632.466 1001.87 635.785 993.35 637.327C976.852 640.181 972.486 633.405 958.485 634.671C935.888 636.714 931.904 655.755 909.678 658.725C898.771 660.182 888.074 657.154 877.949 651.549L863.063 651.567Z" fill="#48964E"/>
    <path d="M999.208 69.8698C997.078 77.8959 996.928 86.3192 998.772 94.4161C1003.46 113.868 1018.27 119.09 1024.6 136.621C1027.5 144.66 1029.28 157.114 1022.75 175.443L1022.76 186.227C1042.99 157.86 1042.88 141.801 1038.91 132.342C1033.64 119.792 1018.97 112.695 1008.05 87.2683C1006.39 83.4222 1005.27 80.1954 1004.61 78.1808C1004.06 77.2256 1003.48 76.2551 1002.86 75.2693C1001.65 73.3353 1000.43 71.5367 999.208 69.8698Z" fill="#48964E"/>
    <path d="M1015.82 180.961C1011.89 187.507 1007.1 197.909 1008.95 209.578C1011.34 224.602 1022.78 229.453 1027.25 244.773C1029.47 252.361 1030.52 264.371 1022.75 281.839V294.295C1042.18 265.974 1041.87 250.456 1037.66 241.453C1032.33 230.076 1018.31 223.862 1015.52 206.479C1014.82 201.997 1014.92 197.427 1015.82 192.98V180.961Z" fill="#48964E"/>
    <path d="M1015.82 288.046C1006.9 300.577 1006.59 308.452 1008.44 313.504C1011.7 322.443 1022.43 324.583 1024.6 334.976C1025.36 339.343 1024.71 343.839 1022.75 347.816L1022.76 356.235C1032.27 345.732 1033.16 338.662 1032.12 334.09C1029.58 322.9 1013.72 319.142 1013.31 307.528C1013.28 304.468 1014.15 301.468 1015.81 298.9L1015.82 288.046Z" fill="#48964E"/>
    <path d="M1015.82 351.992C1005.73 364.487 1004.91 372.978 1006.3 378.586C1009.03 389.572 1021.11 392.861 1024.01 406.33C1025.05 411.659 1024.61 417.171 1022.75 422.272V434.384C1035.55 419.748 1036.56 410.288 1034.93 404.264C1031.75 392.556 1017.13 388.512 1014.86 373.569C1014.29 369.557 1014.62 365.469 1015.82 361.6L1015.82 351.992Z" fill="#48964E"/>
    <path d="M1015.82 426.515C1004.79 443.25 1004.97 453.074 1007.55 459.062C1011.73 468.749 1023.75 471.98 1025.04 483.19C1025.39 487.06 1024.59 490.946 1022.75 494.368L1022.75 503.382C1032.03 494.909 1033.54 488.412 1033.23 484.075C1032.34 471.543 1015.58 466.621 1013.75 451.093C1013.29 446.597 1014.01 442.06 1015.82 437.921L1015.82 426.515Z" fill="#48964E"/>
    <path d="M1015.82 499.014C1007.02 507.596 1005.4 514.24 1005.86 518.975C1006.87 529.57 1018.51 532.74 1023.27 545.39C1026.88 554.982 1024.61 564.882 1021.83 572.165C1021.6 573.851 1021.3 575.628 1020.93 577.483C1020.57 579.278 1020.17 580.978 1019.75 582.576C1036.03 561.403 1036.46 549.678 1033.45 542.808C1028.98 532.623 1014.59 527.777 1014.27 515.286C1014.22 512.647 1014.75 510.03 1015.82 507.617L1015.82 499.014Z" fill="#48964E"/>
    <path d="M1014.2 575.757C1009.84 580.03 1006.56 585.276 1004.62 591.064C1001.29 601.346 1004.9 606.523 1000.52 615.745C999.569 617.76 996.178 624.913 989.124 628.141C977.107 633.64 963.034 623.823 962.617 624.765C962.191 625.726 975.865 638.171 990.342 634.283C997.405 632.386 1005.59 626.476 1007.66 618.456C1009.61 610.929 1007.55 596.224 1009.29 592.035C1009.35 591.892 1009.8 590.836 1010.36 589.358C1010.98 587.685 1011.45 586.25 1011.78 585.179C1012.3 583.51 1012.81 581.738 1013.27 579.868C1013.63 578.455 1013.94 577.085 1014.2 575.757Z" fill="#48964E"/>
    <path d="M1001.47 61.5114C1001.37 56.6351 1000.25 51.8343 998.181 47.4151C991.658 33.5863 977.938 28.8425 974.865 27.862C988.36 26.1976 1001.09 32.6254 1006.59 43.5783C1012.43 55.2029 1007.59 66.8654 1006.81 68.643C1005.94 67.3385 1004.98 65.9914 1003.94 64.6156C1003.11 63.5224 1002.29 62.4876 1001.47 61.5114Z" fill="#48964E"/>
    <path d="M43.1074 75.3058C44.178 75.238 38.4338 54.3328 49.1947 41.4384C57.8654 31.0486 73.9217 29.8507 87.2125 30.7765C89.4119 30.2335 91.3744 29.8335 93.0296 29.5356C94.0802 29.3464 95.6591 29.081 97.592 28.8307C98.9585 28.6539 100.173 28.5271 101.193 28.4349C76.8268 18.8415 53.2042 23.3874 43.6608 37.2327C33.201 52.4074 41.9815 75.377 43.1074 75.3058Z" fill="#48964E"/>
    <path d="M93.9102 36.4152C102.92 41.8453 116.869 48.1998 132.092 45.3122C149.99 41.9171 155.559 28.4282 174.15 22.9922C183.451 20.2727 198.036 18.9772 219.103 28.0634H236.353C199.711 5.44149 178.684 6.07507 165.96 12.2196C151.449 19.2267 139.936 37.1661 118.258 37.0115C114.152 36.9709 110.076 36.3133 106.166 35.0608C103.849 35.1485 101.363 35.337 98.7344 35.6677C97.0497 35.8796 95.4401 36.1331 93.9102 36.4152Z" fill="#48964E"/>
    <path d="M228.079 34.994C228.944 35.3655 230.199 35.8987 231.72 36.5247C233.329 37.2753 234.978 37.935 236.661 38.5009C240.168 39.6001 245.142 41.035 251.186 42.359C257.024 43.638 276.468 46.4508 289.033 46.3082C320.503 45.951 334.661 25.56 366.507 19.7456C380.473 17.1958 400.921 16.8869 427.844 28.053C437.861 28.0582 447.878 28.0634 457.896 28.0685C399.445 -5.47043 365.669 -2.9533 345.479 6.02161C327.021 14.2264 308.788 32.7752 274.516 36.1947C264.406 37.1846 254.208 36.7811 244.207 34.9957L228.079 34.994Z" fill="#48964E"/>
    <path d="M437.286 34.9914C465.596 51.2299 483.707 50.326 495.115 46.3082C510.947 40.7325 518.143 27.6528 538.058 24.6155C547.925 23.263 557.975 24.4497 567.256 28.0634H586.506C555.693 5.68429 537.191 4.95595 525.662 9.56331C510.09 15.7864 504.033 33.0253 483.162 37.0114C474.91 38.4536 466.427 37.7578 458.521 34.9905C451.443 34.9908 444.364 34.9911 437.286 34.9914Z" fill="#48964E"/>
    <path d="M571.485 34.9957C596.982 49.3601 614.019 48.7852 625.05 45.3121C642.733 39.7448 651.283 24.7466 672.199 23.5087C680.314 23.1283 688.403 24.6898 695.793 28.0634H718.178C696.641 9.28632 680.986 6.98964 670.428 8.67782C649.18 12.0756 638.772 33.1835 609.666 35.9045C603.46 36.4718 597.205 36.1641 591.084 34.9904C584.551 34.9922 578.018 34.994 571.485 34.9957Z" fill="#48964E"/>
    <path d="M703.477 34.994C726.783 49.3467 740.366 48.8083 748.64 44.9801C759.428 39.9895 761.813 29.122 774.613 24.9106C784.975 21.5015 795.456 24.6605 802.943 28.0599C808.95 28.0605 814.957 28.0611 820.964 28.0617C789.526 7.85254 773.908 8.26014 765.463 13.4001C755.427 19.5093 753.178 33.732 739.786 37.3065C732.496 39.2524 725.544 37.0715 720.901 34.9957L703.477 34.994Z" fill="#48964E"/>
    <path d="M809.739 34.9931C815.789 39.6486 825.205 45.3045 836.74 45.2753C856.236 45.2261 864.499 28.9799 885.881 23.2874C895.544 20.7147 910.126 19.7014 930.432 28.0634C933.816 28.0668 937.197 28.2546 940.56 28.6259C943.741 28.9771 946.679 29.4677 949.349 30.0244C907.174 3.31472 886.881 4.66513 876.141 11.039C865.409 17.408 857.069 33.0336 838.068 35.5357C833.569 36.1109 829.005 35.9275 824.567 34.9931H809.739Z" fill="#48964E"/>
    <path d="M934.578 35.0669C941.184 39.498 948.551 42.6711 956.309 44.4268C966.959 46.7913 978.032 46.4488 988.516 43.4307C979.796 43.5594 971.096 42.5926 962.617 40.553C959.399 39.7762 956.384 38.8836 953.578 37.9281C947.375 36.2526 941 35.2927 934.578 35.0669V35.0669Z" fill="#48964E"/>
    <path d="M101.41 35.4048C107.838 38.3593 117.566 41.6527 128.908 40.4694C152.537 38.0046 160.464 18.485 181.344 14.101C191.498 11.9689 206.67 13.0066 227.939 28.0634C226.906 28.0455 225.873 28.0275 224.84 28.0096C205.872 15.3877 191.931 14.5196 182.672 16.0932C160.602 19.8442 152.632 39.5941 129.016 42.2109C116.358 43.6134 105.462 39.3998 98.4163 35.7754L101.41 35.4048Z" fill="#76B779"/>
    <path d="M95.3166 29.1536C85.4727 25.4876 74.7352 24.9592 64.5788 27.6407C59.6373 29.0252 51.9161 31.1809 46.4277 38.2288C39.199 47.5115 40.6058 58.6408 41.0045 61.2498C40.6717 58.7011 39.5176 47.6986 46.8534 38.7216C52.3326 32.0165 60.2123 29.9397 64.8739 28.7106C73.9135 26.4302 83.4148 26.7632 92.2725 29.6711C93.2873 29.4985 94.302 29.3261 95.3166 29.1536Z" fill="#76B779"/>
    <path d="M237.66 34.9823C252 39.4528 273.205 43.7283 297.002 38.7822C330.164 31.8895 340.922 12.7916 368.942 7.64491C385.526 4.59893 410.17 6.06971 443.834 28.0613L439.167 28.0649C408.29 9.14934 385.263 7.93983 369.975 10.3012C340.724 14.8193 329.915 33.9371 297.666 40.8482C271.862 46.3781 248.691 40.5865 233.399 34.9946C234.82 34.9906 236.24 34.9864 237.66 34.9823Z" fill="#76B779"/>
    <path d="M444.941 34.9912C452.929 40.0391 465.38 46.0804 479.841 44.6481C504.225 42.2332 513.083 20.6748 537.726 17.8641C546.079 16.9114 558.71 17.8318 575.226 28.0738L578.428 28.0634C560.424 15.2718 546.765 13.831 537.394 15.0972C514.299 18.2174 505.779 39.3249 480.948 41.9918C467.881 43.3952 456.562 39.0194 448.925 35.0007C447.597 34.9976 446.269 34.9944 444.941 34.9912Z" fill="#76B779"/>
    <path d="M578.18 34.9873C595.154 43.6952 608.029 44.0214 616.418 42.8772C642.702 39.292 652.867 17.4572 676.737 17.5321C689.165 17.5711 699.182 23.5302 705.283 28.0599C706.237 28.0611 707.192 28.0623 708.147 28.0634C694.849 16.8455 684.006 14.7085 676.848 14.6545C653.408 14.4776 643.263 36.4358 616.085 40.3317C601.595 42.4089 589.063 38.3766 581.209 34.9905L578.18 34.9873Z" fill="#76B779"/>
    <path d="M710.788 34.9947C718.062 40.2465 728.459 45.7932 739.491 43.7627C755.802 40.7608 759.94 23.6929 776.605 19.5981C783.78 17.8351 794.554 18.163 809.898 28.0606L812.55 28.0609C794.731 15.2624 782.829 14.6367 774.982 16.9418C759.326 21.5405 755.488 39.0733 739.159 41.8811C729.507 43.5409 720.566 39.1829 714.296 34.9957C713.126 34.9953 711.957 34.995 710.788 34.9947Z" fill="#76B779"/>
    <path d="M814.955 34.9931C819.827 38.1992 827.321 42.0445 836.555 42.2132C858.284 42.6099 867.535 22.245 889.127 16.9787C899.452 14.4606 914.822 14.852 936.534 28.2863C937.876 28.3995 939.218 28.5127 940.56 28.6259C915.515 11.7737 898.952 11.6916 888.574 14.5438C868.698 20.0065 859.238 39.606 836.888 39.6676C830.25 39.6106 823.717 38.0112 817.804 34.9957C816.854 34.9949 815.905 34.994 814.955 34.9931Z" fill="#76B779"/>
    <path d="M942.44 35.713C946.569 38.605 951.124 40.8354 955.94 42.3239C963.469 44.634 970.024 44.5734 970.051 44.3714C965.338 43.7267 960.69 42.6713 956.161 41.2171C952.257 39.881 948.499 38.1504 944.946 36.0521C944.11 35.9391 943.275 35.826 942.44 35.713Z" fill="#76B779"/>
    <path d="M988.516 31.625C991.866 32.7214 994.959 34.4872 997.606 36.8153C1000.25 39.1435 1002.4 41.9854 1003.92 45.1685C1005.43 48.3515 1006.28 51.8094 1006.42 55.3321C1006.56 58.8548 1005.98 62.3689 1004.72 65.6609L1003.26 63.7362C1005.12 57.5055 1004.64 50.8135 1001.93 44.9062C999.217 38.999 994.45 34.279 988.516 31.625V31.625Z" fill="#76B779"/>
    <path d="M1000.89 72.2494C1000.26 82.8465 1002.22 93.4377 1006.61 103.106C1014.89 120.768 1027.3 124.15 1031.79 138.06C1034.42 146.21 1034.63 158.89 1022.75 178.194L1022.75 180.961C1037.32 159.553 1037.47 145.875 1034.56 137.175C1030.09 123.821 1017.69 120.015 1008.88 100.872C1005.12 92.5862 1002.93 83.6725 1002.43 74.5864C1001.92 73.8075 1001.4 73.0284 1000.89 72.2494Z" fill="#76B779"/>
    <path d="M1015.82 184.986C1013.41 189.821 1010.24 197.931 1011.24 207.509C1013.17 226.011 1028.77 232.242 1032.34 249.345C1033.89 256.745 1033.67 268.5 1022.75 285.279V288.046C1036.28 269.414 1036.85 256.783 1034.85 248.681C1030.95 232.842 1015.36 226.727 1013.09 207.878C1012.36 201.084 1013.32 194.216 1015.89 187.882L1015.82 184.986Z" fill="#76B779"/>
    <path d="M1015.82 292.088C1009.52 300.359 1009.12 306.243 1009.77 309.963C1011.78 321.513 1026.15 324.672 1027.58 336.083C1028.33 342.038 1025.19 347.306 1022.75 350.54L1022.75 351.993C1029 345.097 1029.85 339.901 1029.47 336.415C1028.21 325.102 1012.73 321.778 1010.98 309.852C1010.1 303.818 1013.13 298.335 1015.81 294.662L1015.82 292.088Z" fill="#76B779"/>
    <path d="M1015.82 354.877C1009.05 365.795 1009 373.435 1010.13 378.341C1013.12 391.204 1026.44 394.586 1028.43 407.117C1029.67 414.86 1025.9 421.893 1022.75 426.431V429.612C1031.05 419.546 1031.86 412.226 1031.16 407.486C1029.35 395.193 1016.11 391.535 1012.94 377.603C1011.09 369.49 1013.6 362.01 1015.82 357.202L1015.82 354.877Z" fill="#76B779"/>
    <path d="M1015.82 431.54C1008.4 442.61 1008.31 450.201 1009.4 454.93C1012.39 467.941 1027.27 472.146 1027.7 484.296C1027.89 489.927 1024.89 494.552 1022.75 497.237L1022.75 499.561C1026.34 495.827 1030.01 490.629 1029.76 484.592C1029.27 472.672 1013.94 468.563 1011.09 454.856C1010.08 449.965 1010.53 443.248 1015.82 434.381V431.54Z" fill="#76B779"/>
    <path d="M1015.82 501.71C1012.2 505.779 1008.04 511.875 1008.73 518.754C1009.91 530.546 1024.14 533.781 1028.14 546.46C1029.93 552.144 1030.12 561.166 1021.39 575.016L1020.97 577.285C1032.6 561.775 1032.9 552.126 1030.91 546.128C1027.02 534.456 1012.63 531.24 1011.32 519.049C1010.67 513.035 1013.52 507.801 1015.82 504.514V501.71Z" fill="#76B779"/>
    <path d="M1013.28 579.796C1009.56 584.263 1006.96 589.556 1005.71 595.232C1003.78 604.436 1007.17 608.128 1004.05 616.335C1002.26 621.337 998.873 625.614 994.419 628.509C990.52 630.91 986.009 632.127 981.432 632.014C986.043 632.394 990.662 631.406 994.714 629.174C999.559 626.322 1003.26 621.875 1005.19 616.593C1008.15 608.792 1005.06 604.977 1007.15 595.343C1008.18 590.641 1010.06 586.164 1012.68 582.125L1013.28 579.796Z" fill="#76B779"/>
    <path d="M997.001 639.983C997.064 640.333 990.231 642.707 981.801 642.934C972.39 643.188 966.73 640.613 962.47 639.688C942.876 635.435 931.042 661.361 907.498 664.948C898.802 666.273 885.711 664.976 867.933 651.561L872.47 651.556C887.78 663.167 899.182 664.259 906.393 663.447C930.198 660.764 941.56 633.571 961.584 637.474C966.077 638.35 970.601 640.712 979.883 641.164C989.645 641.638 996.936 639.623 997.001 639.983Z" fill="#76B779"/>
    <path d="M859.281 644.664C846.215 639.293 824.975 632.842 800.917 637.437C768.848 643.563 757.616 664.379 727.649 667.652C715.114 669.021 695.5 667.736 669.584 651.59L674.313 651.588C685.418 658.133 703.568 666.516 724.992 664.553C755.92 661.72 767.454 639.729 798.925 633.453C812.761 630.694 834.433 630.178 864.262 644.667L859.281 644.664Z" fill="#76B779"/>
    <path d="M664.037 644.687C651.154 638.458 640.62 637.651 632.355 638.876C610.917 642.054 603.216 659.13 583.214 660.348C572.328 661.011 562.681 656.679 555.065 651.586L558.275 651.567C563.675 654.63 572.348 658.476 582.771 657.913C602.953 656.821 610.581 640.23 630.473 636.441C638.605 634.893 651.06 635.05 668.132 644.663L664.037 644.687Z" fill="#76B779"/>
    <path d="M549.273 644.651C527.307 632.848 512.883 633.741 503.748 636.773C488.389 641.872 482.538 654.827 465.564 656.917C455.012 658.215 445.882 654.611 440.071 651.584H443.613C450.165 654.716 457.453 655.987 464.679 655.256C482.171 653.136 488.125 638.533 502.641 633.066C511.819 629.609 527.077 628.802 552.323 644.651L549.273 644.651Z" fill="#76B779"/>
    <path d="M436.493 644.699C425.159 635.342 416.761 634.257 411.147 635.039C396.579 637.07 392.128 652.885 376.026 656.068C366.737 657.905 358.204 654.622 352.47 651.582L349.186 651.586C361.832 658.828 370.85 658.786 376.542 657.618C392.27 654.389 397.166 639.573 412.18 637.991C421.167 637.044 428.928 641.349 433.652 644.656L436.493 644.699Z" fill="#76B779"/>
    <path d="M343.431 644.659C338.235 642.101 329.583 638.814 319.691 640.37C302.42 643.088 297.038 658.105 281.064 660.569C274.988 661.506 265.331 660.943 252.012 651.579L255.498 651.583C261.237 655.047 270.054 659.071 280.068 657.747C296.509 655.573 301.906 640.871 318.473 638.046C324.612 637 333.915 637.306 346.475 644.657L343.431 644.659Z" fill="#76B779"/>
    <path d="M247.944 644.659C242.921 641.619 235.444 638.27 227.644 640.094C217.346 642.502 214.939 651.951 204.641 655.533C199.415 657.351 191.183 657.998 178.634 651.591L180.69 651.591C186.805 654.03 195.311 656.168 203.756 653.264C214.324 649.631 216.651 640.901 226.316 638.323C231.473 636.947 239.267 637.176 250.6 644.659H247.944Z" fill="#76B779"/>
    <path d="M175.127 644.655C166.239 639.155 160.08 639.112 156.054 640.149C146.567 642.594 143.858 652.346 133.808 653.984C129.396 654.556 124.916 653.717 121.011 651.586L118.41 651.588C125.345 655.862 130.57 656.207 134.25 655.533C144.054 653.738 146.739 644.014 156.829 641.754C162.921 640.389 168.707 642.419 172.988 644.655H175.127Z" fill="#76B779"/>
    <path d="M113.48 644.655C100.881 635.725 91.215 634.611 84.6115 635.335C72.9818 636.61 67.4532 643.96 59.0088 641.91C50.9137 639.944 46.2258 630.817 43.6255 623.984L45.2295 625.576C47.9039 631.28 52.4117 638.401 59.5984 640.094C68.0881 642.094 73.6296 634.944 84.0212 633.269C91.1383 632.121 101.672 633.358 116.069 644.659L113.48 644.655Z" fill="#76B779"/>
    <path d="M45.3947 615.708C45.0881 611.126 43.8752 604.984 39.3443 600.729C31.9806 593.815 21.6086 597.29 17.4301 591.064C15.7766 588.6 14.7741 584.141 18.4904 575.414C18.619 576.098 18.7476 576.782 18.8762 577.465C17.2405 581.599 15.9684 586.871 18.4262 590.621C22.453 596.765 32.7686 593.143 40.1559 599.475C43.5126 602.352 46.5171 607.5 46.7931 617.26C46.3269 616.743 45.8608 616.225 45.3947 615.708Z" fill="#76B779"/>
    <path d="M24.5267 568.625C30.1619 559.396 29.8582 553.748 28.498 550.279C25.3031 542.13 14.6376 541.809 12.2284 534.009C10.5306 528.513 13.9362 522.549 17.0604 518.385L17.0598 520.986C15.0042 524.117 12.5214 529.002 13.8886 533.788C16.1852 541.828 27.2138 542.118 30.4902 549.892C32.026 553.536 32.245 559.742 24.7701 570.615L24.5267 568.625Z" fill="#76B779"/>
    <path d="M23.9954 513.617C27.8757 508.27 32.3657 500.169 30.8776 491.398C28.5162 477.48 13.1498 473.942 9.8488 459.745C8.55186 454.166 8.79209 445.544 17.0541 433.163L17.0568 436.816C13.8066 442.419 10.3751 450.579 12.2284 459.246C15.3589 473.887 30.8829 477.417 33.3125 490.9C34.2915 496.333 33.3424 504.481 23.9963 515.83L23.9954 513.617Z" fill="#76B779"/>
    <path d="M23.9878 426.901C27.3631 419.487 31.1934 407.891 28.0552 395.533C22.9747 375.526 3.68721 369.495 3.33719 353.254C3.21824 347.736 5.248 339.291 17.0604 328.665V331.654C12.0454 336.702 6.43249 344.146 6.53747 353.096C6.72918 369.433 25.7936 375.553 30.7852 394.5C32.8483 402.331 32.9074 413.871 24.0155 430.083C24.0063 429.022 23.997 427.962 23.9878 426.901Z" fill="#76B779"/>
    <path d="M23.9903 324.704C33.2302 315.786 34.4585 308.487 34.4745 304.519C34.4837 302.232 34.1043 297.556 21.7466 278.953C12.536 265.087 9.34719 262.567 8.90791 256.485C8.3372 248.583 12.9182 241.727 17.0603 237.043V240.621C14.4345 244.232 11.484 249.593 11.7856 255.932C12.1124 262.803 16.0476 266.351 23.4067 276.85C32.9914 290.523 37.7836 297.36 37.7948 304.519C37.8021 309.238 35.9792 317.228 23.9905 327.001L23.9903 324.704Z" fill="#76B779"/>
    <path d="M23.9829 231.693C32.8395 219.498 34.1485 209.883 33.7367 203.397C32.2584 180.113 6.81391 168.925 9.4614 148.722C10.3856 142.973 13.0398 137.642 17.0705 133.439C17.0636 134.7 17.0568 135.96 17.05 137.22C14.3671 140.553 12.569 144.509 11.8225 148.722C8.58688 168.77 34.9487 180.476 36.9095 202.806C37.5483 210.082 35.8001 220.798 23.9846 234.682L23.9829 231.693Z" fill="#76B779"/>
    <path d="M23.9916 129.261C32.5178 118.862 37.3702 105.938 37.7949 92.4977C38.0244 81.6521 35.3223 70.9457 29.9737 61.5079C36.3822 70.5913 39.9282 81.3835 40.1561 92.4977C40.4759 114.728 26.8922 129.321 23.9897 132.305L23.9916 129.261Z" fill="#76B779"/>
    <path d="M545.901 179.673C547.071 180.286 548.859 181.229 551.057 182.41C554.019 184.002 555.11 184.624 555.317 185.765C555.378 186.103 555.365 186.505 554.48 188.458C553.214 191.249 552.394 192.504 552.394 192.504C551.611 193.711 546.689 201.31 545.71 200.773C545.568 200.695 545.332 200.35 547.957 192.033C548.637 189.878 549.222 188.098 549.632 186.868C548.627 186.417 547.563 185.888 546.459 185.265C544.746 184.298 543.26 183.288 541.993 182.322L545.901 179.673V179.673Z" fill="#B23030"/>
    <path d="M496.233 179.846C495.063 180.459 493.274 181.402 491.077 182.583C488.115 184.175 487.023 184.796 486.817 185.938C486.756 186.276 486.769 186.678 487.654 188.63C488.92 191.422 489.74 192.677 489.74 192.677C490.522 193.884 495.444 201.483 496.424 200.946C496.566 200.868 496.802 200.523 494.176 192.206C493.496 190.051 492.911 188.271 492.502 187.041C493.506 186.59 494.571 186.06 495.675 185.438C497.388 184.471 498.873 183.461 500.14 182.495L496.233 179.846V179.846Z" fill="#B23030"/>
    <path d="M554.876 173.491C557.971 174.002 560.242 174.369 561.425 174.559C565.548 175.221 566.831 175.479 567.486 176.58C567.865 177.218 567.9 177.924 567.364 180.619C566.72 183.85 566.399 185.465 565.572 187.6C564.202 191.14 561.6 196.303 560.751 196.005C560.056 195.761 560.771 191.931 561.9 185.887C562.438 183.001 562.957 180.638 563.323 179.047C561.645 178.971 559.884 178.846 558.048 178.657C555.777 178.424 553.634 178.118 551.63 177.769L554.876 173.491H554.876Z" fill="#B23030"/>
    <path d="M485.742 173.355C482.648 173.866 480.376 174.232 479.194 174.422C475.07 175.085 473.787 175.343 473.133 176.444C472.754 177.082 472.718 177.788 473.255 180.482C473.898 183.713 474.22 185.329 475.046 187.464C476.416 191.003 479.019 196.166 479.867 195.869C480.562 195.625 479.847 191.794 478.719 185.75C478.18 182.865 477.661 180.501 477.295 178.911C478.973 178.835 480.735 178.71 482.57 178.521C484.841 178.288 486.984 177.982 488.989 177.632L485.742 173.355H485.742Z" fill="#B23030"/>
    <path d="M558.875 165.403C561.737 164.117 563.832 163.166 564.923 162.67C568.725 160.94 569.937 160.445 571.09 161.001C571.758 161.322 572.177 161.891 573.216 164.434C574.355 167.224 575.048 168.732 575.573 171.245C576.072 173.633 576.811 178.606 575.921 178.875C575.046 179.139 572.949 174.746 571.567 171.849C570.395 169.395 569.575 167.311 569.055 165.903C567.523 166.545 565.96 167.228 564.369 167.954C562.34 168.881 560.393 169.821 558.529 170.765C558.644 168.978 558.76 167.191 558.875 165.403V165.403Z" fill="#B23030"/>
    <path d="M481.691 165.495C478.83 164.209 476.734 163.258 475.644 162.761C471.841 161.032 470.629 160.537 469.477 161.093C468.809 161.414 468.39 161.983 467.351 164.526C466.211 167.316 465.519 168.824 464.994 171.337C464.495 173.725 463.755 178.698 464.645 178.967C465.521 179.231 467.617 174.838 469 171.941C470.171 169.487 470.992 167.403 471.512 165.995C473.044 166.637 474.607 167.32 476.198 168.046C478.226 168.973 480.173 169.913 482.038 170.857C481.922 169.07 481.807 167.283 481.691 165.495V165.495Z" fill="#B23030"/>
    <path d="M566.593 128.041C566.08 129.851 565.023 132.537 562.758 134.981C560.793 137.102 558.598 138.307 557.433 138.935C556.533 139.42 555.744 139.768 555.16 140.005L558.019 143.456C558.827 143.246 559.935 142.891 561.166 142.272C564.2 140.745 565.937 138.639 566.712 137.679C569.021 134.818 569.954 131.887 570.358 130.141L566.593 128.041V128.041Z" fill="#B23030"/>
    <path d="M473.995 126.449C474.508 128.259 475.565 130.946 477.83 133.39C479.795 135.511 481.99 136.716 483.155 137.344C484.055 137.829 484.844 138.176 485.428 138.413L482.569 141.864C481.761 141.654 480.653 141.3 479.422 140.68C476.388 139.153 474.651 137.048 473.876 136.088C471.567 133.226 470.634 130.296 470.23 128.549L473.995 126.449V126.449Z" fill="#C13838"/>
    <path d="M473.995 126.449C474.508 128.259 475.565 130.946 477.83 133.39C479.795 135.511 481.99 136.716 483.155 137.344C484.055 137.829 484.844 138.176 485.428 138.413L482.569 141.864C481.761 141.654 480.653 141.3 479.422 140.68C476.388 139.153 474.651 137.048 473.876 136.088C471.567 133.226 470.634 130.296 470.23 128.549L473.995 126.449V126.449Z" fill="#B23030"/>
    <path d="M445.994 118.665C446.726 120.261 450.273 128.003 458.56 130.235C464.698 131.889 469.879 129.561 472.234 128.503C474.754 127.37 480.199 124.922 482.826 119.053C486.145 111.64 482.517 104.242 481.413 101.989C477.582 94.1752 470.642 90.9188 468.462 90C468.103 93.168 467.474 96.8184 466.386 100.791C465.49 104.06 464.442 106.969 463.385 109.491C460.761 108.751 457.733 107.701 454.484 106.188C450.888 104.514 447.888 102.675 445.482 100.987C444.863 102.661 442.208 110.403 445.994 118.665Z" fill="#C13838"/>
    <path d="M594.594 120.257C593.862 121.853 590.315 129.594 582.028 131.827C575.889 133.481 570.709 131.152 568.354 130.094C565.834 128.961 560.389 126.514 557.761 120.645C554.443 113.231 558.07 105.833 559.175 103.58C563.006 95.7666 569.946 92.5103 572.126 91.5914C572.485 94.7594 573.114 98.4098 574.202 102.383C575.098 105.652 576.146 108.56 577.203 111.083C579.827 110.343 582.854 109.293 586.104 107.78C589.7 106.105 592.7 104.267 595.106 102.578C595.725 104.252 598.38 111.994 594.594 120.257L594.594 120.257Z" fill="#C13838"/>
    <path d="M594.594 120.257C594.594 120.257 594.269 120.981 593.89 121.693C591.938 125.354 589.459 127.628 589.459 127.628C588.928 128.115 585.968 130.774 582.028 131.827C580.384 132.266 578.797 132.365 578.636 132.374C578.309 132.393 577.3 132.442 575.981 132.318C575.655 132.288 574.264 132.149 572.364 131.614C571.874 131.476 570.431 131.054 568.354 130.094C566.285 129.138 563.582 127.889 561.154 125.496C560.029 124.387 559.342 123.406 559.116 123.074C558.484 122.147 558.052 121.296 557.761 120.645C559.358 122.331 562.938 125.646 568.563 127.262C575.644 129.295 581.505 127.353 583.784 126.562C589.598 124.545 593.304 121.016 595.1 119.032C594.973 119.365 594.806 119.782 594.594 120.257V120.257Z" fill="#B23030"/>
    <path d="M518.129 106.747C518.101 108.252 517.962 112.394 514.847 116.049C510.722 120.888 504.775 120.887 504.025 120.874C499.751 120.801 496.726 118.754 495.437 117.727C494.72 117.156 490.051 113.304 489.921 106.747C489.899 105.604 489.938 100.572 493.901 96.6067C497.755 92.7504 502.576 92.6505 504.025 92.6204C505.589 92.588 510.483 92.4866 514.289 96.1871C518.253 100.041 518.157 105.219 518.129 106.747V106.747Z" fill="#C13838"/>
    <path d="M523.807 106.353C523.835 107.857 523.974 111.999 527.089 115.654C531.214 120.494 537.161 120.492 537.911 120.479C542.185 120.406 545.21 118.359 546.499 117.332C547.216 116.761 551.885 112.909 552.015 106.353C552.038 105.21 551.998 100.177 548.035 96.212C544.181 92.3557 539.36 92.2557 537.911 92.2257C536.347 92.1933 531.454 92.0918 527.647 95.7924C523.683 99.6466 523.779 104.824 523.807 106.353V106.353Z" fill="#C13838"/>
    <path d="M563.91 156.997C563.874 158.212 563.52 166.294 557.929 173.438C547.176 187.18 525.636 186.474 518.784 186.249C512.382 186.04 491.612 185.359 481.439 171.441C480.335 169.931 476.558 164.617 476.183 156.997C475.67 146.54 481.926 139.078 483.881 136.951C493.999 125.939 510.049 125.94 519.136 125.941C526.916 125.942 548.73 125.944 558.798 140.073C564.085 147.492 563.948 155.739 563.91 156.997V156.997Z" fill="#C13838"/>
    <path d="M502.2 120.307C502.346 121.633 502.421 123.224 502.302 125.014C502.163 127.098 501.798 128.893 501.405 130.327L507.186 130.302C506.787 128.857 506.417 127.152 506.184 125.225C505.961 123.379 505.909 121.703 505.942 120.252L502.2 120.307L502.2 120.307Z" fill="#C13838"/>
    <path d="M539.867 120.006C539.721 121.333 539.646 122.924 539.766 124.714C539.904 126.798 540.269 128.592 540.663 130.026L534.881 130.001C535.281 128.556 535.651 126.852 535.883 124.925C536.107 123.078 536.159 121.402 536.125 119.951L539.867 120.006L539.867 120.006Z" fill="#C13838"/>
    <path d="M563.91 156.997C563.869 158.413 563.532 166.23 557.929 173.438C550.942 182.427 540.484 184.4 534.821 185.469C529.439 186.484 524.588 186.377 518.784 186.249C518.286 186.238 512.64 186.098 507.286 185.218C504.454 184.752 501.82 184.098 500.5 183.708C499.755 183.488 498.862 183.208 498.862 183.208C497.805 182.876 496.72 182.518 496.211 182.339C493.902 181.525 492.726 180.849 492.121 180.451C492.093 180.433 491.819 180.242 491.818 180.24C494.331 181.019 497.971 181.919 502.443 182.23C505.306 182.43 507.483 182.317 509.052 182.23C509.603 182.2 516.323 181.801 522.411 180.132C537.254 176.063 546.43 166.285 546.43 166.285C555.855 156.241 558.139 144.744 558.798 140.073C560.213 142.09 564.164 148.274 563.91 156.997L563.91 156.997Z" fill="#B23030"/>
    <path d="M542.135 96.5677C541.026 96.1094 537.954 94.8936 534.292 96.0152C529.442 97.5006 527.551 101.862 527.322 102.416C526.016 105.574 526.55 108.444 526.89 109.716C527.08 110.423 528.41 115.072 533.161 117.254C533.989 117.634 537.681 119.206 541.84 117.561C545.885 115.961 547.491 112.458 547.974 111.405C548.495 110.268 550.126 106.712 548.632 102.743C547.076 98.61 543.261 97.0331 542.135 96.5677Z" fill="white"/>
    <path d="M515.426 108.302C515.527 107.105 515.758 103.805 513.586 100.646C510.709 96.4622 505.987 95.972 505.39 95.9202C501.991 95.625 499.42 97.0007 498.312 97.7095C497.696 98.1039 493.672 100.777 493.029 105.972C492.917 106.877 492.534 110.877 495.354 114.352C498.097 117.733 501.916 118.21 503.064 118.354C504.303 118.509 508.18 118.993 511.507 116.37C514.972 113.637 515.322 109.518 515.426 108.302Z" fill="white"/>
    <path d="M539.913 101.513C539.311 101.264 537.641 100.603 535.651 101.213C533.015 102.02 531.987 104.391 531.863 104.692C531.153 106.408 531.443 107.968 531.628 108.659C531.731 109.043 532.454 111.57 535.036 112.756C535.486 112.962 537.493 113.817 539.753 112.923C541.951 112.053 542.824 110.149 543.087 109.577C543.37 108.959 544.257 107.026 543.445 104.869C542.599 102.623 540.525 101.766 539.913 101.513V101.513Z" fill="#5E1111"/>
    <path d="M506.373 101.797C505.771 101.547 504.101 100.887 502.111 101.496C499.475 102.304 498.448 104.674 498.323 104.975C497.613 106.691 497.903 108.251 498.088 108.942C498.191 109.327 498.914 111.853 501.496 113.039C501.947 113.246 503.953 114.1 506.213 113.206C508.411 112.337 509.285 110.432 509.547 109.86C509.83 109.243 510.717 107.31 509.905 105.153C509.059 102.906 506.985 102.049 506.373 101.797V101.797Z" fill="#5E1111"/>
    <path d="M536.677 103.761C536.687 103.535 536.704 102.912 536.271 102.336C535.696 101.572 534.804 101.517 534.692 101.512C534.05 101.484 533.578 101.763 533.375 101.905C533.262 101.985 532.527 102.519 532.447 103.501C532.433 103.673 532.393 104.428 532.951 105.059C533.494 105.673 534.216 105.732 534.433 105.75C534.667 105.769 535.4 105.829 536.005 105.309C536.635 104.768 536.668 103.99 536.678 103.761H536.677Z" fill="white"/>
    <path d="M502.953 104.237C502.963 104.012 502.98 103.389 502.546 102.812C501.972 102.049 501.08 101.994 500.968 101.989C500.326 101.961 499.854 102.24 499.651 102.382C499.538 102.461 498.803 102.996 498.723 103.978C498.709 104.149 498.669 104.905 499.227 105.536C499.77 106.149 500.492 106.209 500.709 106.226C500.943 106.246 501.676 106.306 502.281 105.786C502.911 105.244 502.944 104.467 502.953 104.237H502.953Z" fill="white"/>
    <path d="M480.69 113.626L480.999 113.503C481.179 113.405 481.586 113.151 481.876 112.645C482.198 112.084 482.184 111.547 482.169 111.345C482.101 109.648 481.765 106.945 480.336 104.018C479.519 102.345 478.562 101.045 477.735 100.093C477.555 99.8776 477.148 99.4459 476.537 99.2294C476.344 99.1613 476.046 99.0584 475.667 99.1149C475.547 99.1327 475.428 99.1645 475.311 99.2111L475.002 99.3344C474.965 99.3447 474.316 99.535 474.125 100.192C473.995 100.638 474.127 101.124 474.465 101.451C475.36 102.521 476.543 104.184 477.441 106.452C478.433 108.958 478.674 111.188 478.718 112.65C478.735 112.726 478.876 113.313 479.464 113.608C480.06 113.907 480.62 113.659 480.69 113.626L480.69 113.626Z" fill="#DB8282"/>
    <path d="M471.712 98.3868C472.371 99.0933 473.477 99.131 474.182 98.471C474.888 97.8109 474.925 96.7031 474.266 95.9966L473.95 95.6575C473.291 94.9509 472.185 94.9132 471.48 95.5733C470.774 96.2333 470.737 97.3412 471.396 98.0477L471.712 98.3868Z" fill="#DB8282"/>
    <path d="M559.953 114.827L559.642 114.71C559.46 114.614 559.048 114.368 558.749 113.869C558.416 113.314 558.42 112.777 558.431 112.574C558.467 110.876 558.752 108.167 560.126 105.214C560.911 103.526 561.843 102.208 562.652 101.24C562.828 101.021 563.227 100.582 563.834 100.354C564.025 100.282 564.322 100.174 564.702 100.223C564.822 100.239 564.941 100.268 565.059 100.313L565.37 100.43C565.408 100.44 566.06 100.618 566.263 101.271C566.402 101.715 566.279 102.203 565.947 102.536C565.073 103.622 563.921 105.308 563.066 107.592C562.121 110.117 561.922 112.351 561.906 113.813C561.89 113.89 561.761 114.48 561.178 114.786C560.588 115.096 560.023 114.858 559.953 114.827V114.827Z" fill="#DB8282"/>
    <path d="M568.952 99.0753C569.598 98.3564 569.539 97.2495 568.821 96.6029C568.104 95.9563 566.999 96.015 566.353 96.7338L566.043 97.0788C565.398 97.7977 565.456 98.9046 566.174 99.5512C566.892 100.198 567.997 100.139 568.642 99.4203L568.952 99.0753Z" fill="#DB8282"/>
    <path d="M446.002 118.7C446.002 118.7 446.326 119.425 446.706 120.136C448.657 123.798 451.137 126.072 451.137 126.072C451.668 126.559 454.627 129.217 458.567 130.27C460.212 130.709 461.798 130.808 461.96 130.817C462.287 130.836 463.296 130.885 464.615 130.761C464.94 130.731 466.331 130.592 468.232 130.057C468.721 129.919 470.164 129.497 472.241 128.537C474.31 127.581 477.014 126.332 479.442 123.939C480.558 122.838 481.224 121.896 481.48 121.517C482.108 120.586 482.53 119.733 482.809 119.088C481.217 120.773 477.646 124.088 472.033 125.705C464.961 127.742 459.103 125.8 456.812 125.005C450.997 122.988 447.292 119.459 445.496 117.475C445.622 117.808 445.79 118.226 446.002 118.7L446.002 118.7Z" fill="#B23030"/>
    <path d="M508.165 135.516C508.298 135.377 513.226 142.993 520.046 142.89C526.701 142.788 531.299 135.394 531.418 135.516C531.54 135.64 527.243 143.825 519.944 143.907C512.536 143.99 508.032 135.656 508.165 135.516Z" fill="#5E1111"/>
    <path d="M419.901 370.673C421.071 371.286 422.859 372.229 425.057 373.41C428.019 375.002 429.11 375.624 429.317 376.765C429.378 377.103 429.365 377.505 428.48 379.458C427.214 382.249 426.394 383.504 426.394 383.504C425.611 384.711 420.689 392.31 419.71 391.773C419.568 391.695 419.332 391.35 421.957 383.033C422.637 380.878 423.222 379.098 423.632 377.868C422.627 377.417 421.563 376.888 420.459 376.265C418.746 375.298 417.26 374.288 415.993 373.322L419.901 370.673V370.673Z" fill="#B23030"/>
    <path d="M370.233 370.846C369.063 371.459 367.274 372.402 365.077 373.583C362.115 375.175 361.023 375.796 360.817 376.938C360.756 377.276 360.769 377.678 361.654 379.63C362.92 382.422 363.74 383.677 363.74 383.677C364.522 384.884 369.444 392.483 370.424 391.946C370.566 391.868 370.802 391.523 368.176 383.206C367.496 381.051 366.911 379.271 366.502 378.041C367.506 377.59 368.571 377.06 369.675 376.438C371.388 375.471 372.873 374.461 374.14 373.495L370.233 370.846V370.846Z" fill="#B23030"/>
    <path d="M428.876 364.491C431.971 365.002 434.242 365.369 435.425 365.559C439.548 366.221 440.831 366.479 441.486 367.58C441.865 368.218 441.9 368.924 441.364 371.618C440.72 374.85 440.399 376.465 439.572 378.6C438.202 382.14 435.6 387.303 434.751 387.005C434.056 386.761 434.771 382.93 435.9 376.887C436.438 374.001 436.957 371.638 437.323 370.047C435.645 369.971 433.884 369.846 432.048 369.657C429.777 369.424 427.634 369.118 425.63 368.769L428.876 364.491H428.876Z" fill="#B23030"/>
    <path d="M359.742 364.355C356.648 364.866 354.376 365.232 353.194 365.422C349.07 366.085 347.787 366.343 347.133 367.444C346.754 368.082 346.718 368.788 347.255 371.482C347.898 374.713 348.22 376.329 349.046 378.464C350.416 382.003 353.019 387.166 353.867 386.869C354.562 386.625 353.847 382.794 352.719 376.751C352.18 373.865 351.661 371.501 351.295 369.911C352.973 369.835 354.735 369.71 356.57 369.521C358.841 369.288 360.984 368.982 362.989 368.633L359.742 364.355H359.742Z" fill="#B23030"/>
    <path d="M432.875 356.403C435.737 355.117 437.832 354.166 438.923 353.67C442.725 351.94 443.937 351.445 445.09 352.001C445.758 352.322 446.177 352.891 447.216 355.434C448.355 358.224 449.048 359.732 449.573 362.245C450.072 364.633 450.811 369.606 449.921 369.875C449.046 370.139 446.949 365.746 445.567 362.849C444.395 360.395 443.575 358.311 443.055 356.903C441.523 357.545 439.96 358.228 438.369 358.954C436.34 359.881 434.393 360.821 432.529 361.765C432.644 359.978 432.76 358.191 432.875 356.403V356.403Z" fill="#B23030"/>
    <path d="M355.691 356.495C352.83 355.209 350.734 354.257 349.644 353.761C345.841 352.032 344.629 351.537 343.477 352.093C342.809 352.414 342.39 352.983 341.351 355.526C340.211 358.315 339.519 359.824 338.994 362.337C338.495 364.725 337.755 369.698 338.645 369.967C339.521 370.231 341.617 365.838 343 362.941C344.171 360.487 344.992 358.403 345.512 356.995C347.044 357.637 348.607 358.32 350.198 359.046C352.226 359.973 354.173 360.913 356.038 361.857C355.922 360.07 355.807 358.283 355.691 356.495V356.495Z" fill="#B23030"/>
    <path d="M440.593 319.041C440.08 320.851 439.023 323.537 436.758 325.981C434.793 328.102 432.598 329.307 431.433 329.935C430.533 330.42 429.744 330.768 429.16 331.005L432.019 334.456C432.827 334.246 433.935 333.891 435.166 333.272C438.2 331.745 439.937 329.639 440.712 328.679C443.021 325.818 443.954 322.887 444.358 321.141L440.593 319.041V319.041Z" fill="#B23030"/>
    <path d="M347.995 317.449C348.508 319.259 349.565 321.946 351.83 324.39C353.795 326.511 355.99 327.716 357.155 328.344C358.055 328.829 358.844 329.176 359.428 329.413L356.569 332.864C355.761 332.654 354.653 332.3 353.422 331.68C350.388 330.153 348.651 328.048 347.876 327.088C345.567 324.226 344.634 321.296 344.23 319.549L347.995 317.449V317.449Z" fill="#C13838"/>
    <path d="M347.995 317.449C348.508 319.259 349.565 321.946 351.83 324.39C353.795 326.511 355.99 327.716 357.155 328.344C358.055 328.829 358.844 329.176 359.428 329.413L356.569 332.864C355.761 332.654 354.653 332.3 353.422 331.68C350.388 330.153 348.651 328.048 347.876 327.088C345.567 324.226 344.634 321.296 344.23 319.549L347.995 317.449V317.449Z" fill="#B23030"/>
    <path d="M319.994 309.665C320.726 311.261 324.273 319.003 332.56 321.235C338.698 322.889 343.879 320.561 346.234 319.503C348.754 318.37 354.199 315.922 356.826 310.053C360.145 302.64 356.517 295.242 355.413 292.989C351.582 285.175 344.642 281.919 342.462 281C342.103 284.168 341.474 287.818 340.386 291.791C339.49 295.06 338.442 297.969 337.385 300.491C334.761 299.751 331.733 298.701 328.484 297.188C324.888 295.514 321.888 293.675 319.482 291.987C318.863 293.661 316.208 301.403 319.994 309.665Z" fill="#C13838"/>
    <path d="M468.594 311.257C467.862 312.853 464.315 320.594 456.028 322.827C449.889 324.481 444.709 322.152 442.354 321.094C439.834 319.961 434.389 317.514 431.761 311.645C428.443 304.231 432.07 296.833 433.175 294.58C437.006 286.767 443.946 283.51 446.126 282.591C446.485 285.759 447.114 289.41 448.202 293.383C449.098 296.652 450.146 299.56 451.203 302.083C453.827 301.343 456.854 300.293 460.104 298.78C463.7 297.105 466.7 295.267 469.106 293.578C469.725 295.252 472.38 302.994 468.594 311.257L468.594 311.257Z" fill="#C13838"/>
    <path d="M468.594 311.257C468.594 311.257 468.269 311.981 467.89 312.693C465.938 316.354 463.459 318.628 463.459 318.629C462.928 319.116 459.968 321.774 456.028 322.827C454.384 323.266 452.797 323.365 452.636 323.374C452.309 323.393 451.3 323.442 449.981 323.318C449.655 323.288 448.264 323.149 446.364 322.614C445.874 322.476 444.431 322.054 442.354 321.094C440.285 320.138 437.582 318.889 435.154 316.496C434.029 315.387 433.342 314.406 433.116 314.074C432.484 313.147 432.052 312.296 431.761 311.645C433.358 313.331 436.938 316.646 442.563 318.262C449.644 320.295 455.505 318.353 457.784 317.562C463.598 315.545 467.304 312.016 469.1 310.032C468.973 310.365 468.806 310.782 468.594 311.257V311.257Z" fill="#B23030"/>
    <path d="M392.129 297.747C392.101 299.252 391.962 303.394 388.847 307.049C384.722 311.888 378.775 311.887 378.025 311.874C373.751 311.801 370.726 309.754 369.437 308.727C368.72 308.156 364.051 304.304 363.921 297.747C363.899 296.604 363.938 291.571 367.901 287.607C371.755 283.75 376.576 283.65 378.025 283.62C379.589 283.588 384.483 283.486 388.289 287.187C392.253 291.041 392.157 296.219 392.129 297.747V297.747Z" fill="#C13838"/>
    <path d="M397.807 297.353C397.835 298.857 397.974 302.999 401.089 306.654C405.214 311.494 411.161 311.492 411.911 311.479C416.185 311.406 419.21 309.359 420.499 308.332C421.216 307.761 425.885 303.909 426.015 297.353C426.038 296.21 425.998 291.177 422.035 287.212C418.181 283.356 413.36 283.256 411.911 283.226C410.347 283.193 405.454 283.092 401.647 286.792C397.683 290.647 397.779 295.824 397.807 297.353V297.353Z" fill="#C13838"/>
    <path d="M437.91 347.997C437.874 349.212 437.52 357.294 431.929 364.438C421.176 378.18 399.636 377.474 392.784 377.249C386.382 377.04 365.612 376.359 355.439 362.441C354.335 360.931 350.558 355.617 350.183 347.997C349.67 337.54 355.926 330.078 357.881 327.951C367.999 316.939 384.049 316.94 393.136 316.941C400.916 316.942 422.73 316.944 432.798 331.073C438.085 338.492 437.948 346.739 437.91 347.997V347.997Z" fill="#C13838"/>
    <path d="M376.2 311.307C376.346 312.633 376.421 314.224 376.302 316.014C376.163 318.098 375.798 319.893 375.405 321.327L381.186 321.302C380.787 319.856 380.417 318.152 380.184 316.225C379.961 314.379 379.909 312.703 379.942 311.252L376.2 311.307L376.2 311.307Z" fill="#C13838"/>
    <path d="M413.867 311.006C413.721 312.333 413.646 313.924 413.766 315.714C413.904 317.798 414.269 319.592 414.663 321.026L408.881 321.001C409.281 319.556 409.651 317.852 409.883 315.924C410.107 314.078 410.159 312.402 410.125 310.951L413.867 311.006L413.867 311.006Z" fill="#C13838"/>
    <path d="M437.91 347.997C437.869 349.413 437.532 357.23 431.929 364.438C424.942 373.427 414.484 375.4 408.821 376.469C403.439 377.485 398.588 377.378 392.784 377.25C392.286 377.239 386.64 377.098 381.286 376.218C378.454 375.752 375.82 375.098 374.5 374.708C373.755 374.488 372.862 374.208 372.862 374.208C371.805 373.876 370.72 373.518 370.211 373.339C367.902 372.525 366.726 371.849 366.121 371.451C366.093 371.433 365.819 371.242 365.818 371.24C368.331 372.019 371.971 372.919 376.443 373.23C379.306 373.43 381.483 373.317 383.052 373.23C383.603 373.2 390.323 372.801 396.411 371.132C411.254 367.064 420.43 357.285 420.43 357.285C429.855 347.241 432.139 335.744 432.798 331.073C434.213 333.09 438.164 339.274 437.91 347.997L437.91 347.997Z" fill="#B23030"/>
    <path d="M416.135 287.568C415.026 287.109 411.954 285.894 408.292 287.015C403.442 288.501 401.551 292.862 401.322 293.416C400.016 296.574 400.55 299.444 400.89 300.715C401.08 301.423 402.41 306.072 407.161 308.253C407.989 308.634 411.681 310.206 415.84 308.561C419.885 306.961 421.491 303.458 421.974 302.405C422.495 301.268 424.126 297.712 422.632 293.743C421.076 289.61 417.261 288.033 416.135 287.568Z" fill="white"/>
    <path d="M389.426 299.302C389.527 298.105 389.758 294.805 387.586 291.646C384.709 287.462 379.987 286.972 379.39 286.92C375.991 286.625 373.42 288.001 372.312 288.71C371.696 289.104 367.672 291.777 367.029 296.972C366.917 297.877 366.534 301.877 369.354 305.352C372.097 308.733 375.916 309.21 377.064 309.354C378.303 309.509 382.18 309.993 385.507 307.37C388.972 304.637 389.322 300.518 389.426 299.302Z" fill="white"/>
    <path d="M413.913 292.513C413.311 292.264 411.641 291.603 409.651 292.213C407.015 293.02 405.987 295.391 405.863 295.692C405.153 297.408 405.443 298.968 405.628 299.659C405.731 300.043 406.454 302.57 409.036 303.756C409.486 303.962 411.493 304.817 413.753 303.923C415.951 303.053 416.824 301.149 417.087 300.577C417.37 299.959 418.257 298.026 417.445 295.869C416.599 293.623 414.525 292.766 413.913 292.513V292.513Z" fill="#5E1111"/>
    <path d="M380.373 292.796C379.771 292.547 378.101 291.887 376.111 292.496C373.475 293.303 372.448 295.674 372.323 295.975C371.613 297.691 371.903 299.251 372.088 299.942C372.191 300.327 372.914 302.853 375.496 304.039C375.947 304.246 377.953 305.1 380.213 304.206C382.411 303.337 383.285 301.432 383.547 300.86C383.83 300.242 384.717 298.31 383.905 296.153C383.059 293.906 380.985 293.049 380.373 292.796V292.796Z" fill="#5E1111"/>
    <path d="M410.677 294.761C410.687 294.535 410.704 293.912 410.271 293.336C409.696 292.572 408.804 292.517 408.692 292.513C408.05 292.484 407.578 292.763 407.375 292.906C407.262 292.985 406.527 293.519 406.447 294.502C406.433 294.673 406.393 295.428 406.951 296.059C407.494 296.673 408.216 296.732 408.433 296.75C408.667 296.769 409.4 296.829 410.005 296.309C410.635 295.768 410.668 294.99 410.678 294.761H410.677Z" fill="white"/>
    <path d="M376.953 295.237C376.963 295.012 376.98 294.389 376.546 293.812C375.972 293.049 375.08 292.994 374.968 292.989C374.326 292.961 373.854 293.24 373.651 293.382C373.538 293.461 372.803 293.996 372.723 294.978C372.709 295.149 372.669 295.905 373.227 296.536C373.77 297.149 374.492 297.209 374.709 297.226C374.943 297.246 375.676 297.306 376.281 296.786C376.911 296.244 376.944 295.467 376.953 295.237H376.953Z" fill="white"/>
    <path d="M354.69 304.627L354.999 304.503C355.179 304.405 355.586 304.151 355.876 303.645C356.198 303.084 356.184 302.547 356.169 302.345C356.101 300.648 355.765 297.945 354.336 295.018C353.519 293.345 352.562 292.045 351.735 291.093C351.555 290.878 351.148 290.446 350.537 290.229C350.344 290.161 350.046 290.058 349.667 290.115C349.547 290.133 349.428 290.165 349.311 290.211L349.002 290.334C348.965 290.345 348.316 290.535 348.125 291.192C347.995 291.638 348.127 292.124 348.465 292.451C349.36 293.521 350.543 295.184 351.441 297.452C352.433 299.958 352.674 302.188 352.718 303.65C352.735 303.726 352.876 304.313 353.464 304.608C354.06 304.907 354.62 304.659 354.69 304.627L354.69 304.627Z" fill="#DB8282"/>
    <path d="M345.712 289.387C346.371 290.093 347.477 290.131 348.182 289.471C348.888 288.811 348.925 287.703 348.266 286.997L347.95 286.657C347.291 285.951 346.185 285.913 345.48 286.573C344.774 287.233 344.737 288.341 345.396 289.048L345.712 289.387Z" fill="#DB8282"/>
    <path d="M433.953 305.827L433.642 305.71C433.46 305.615 433.048 305.368 432.749 304.869C432.416 304.314 432.42 303.777 432.431 303.574C432.467 301.876 432.752 299.167 434.126 296.214C434.911 294.526 435.843 293.208 436.652 292.24C436.828 292.021 437.227 291.582 437.834 291.354C438.025 291.282 438.322 291.174 438.702 291.223C438.822 291.239 438.941 291.268 439.059 291.313L439.37 291.43C439.408 291.44 440.06 291.618 440.263 292.271C440.402 292.715 440.279 293.203 439.947 293.536C439.073 294.622 437.921 296.308 437.066 298.592C436.121 301.117 435.922 303.351 435.906 304.813C435.89 304.89 435.761 305.48 435.178 305.786C434.588 306.096 434.023 305.858 433.953 305.827V305.827Z" fill="#DB8282"/>
    <path d="M442.952 290.075C443.598 289.356 443.539 288.249 442.821 287.603C442.104 286.956 440.999 287.015 440.353 287.734L440.043 288.079C439.398 288.798 439.456 289.905 440.174 290.551C440.892 291.198 441.997 291.139 442.642 290.42L442.952 290.075Z" fill="#DB8282"/>
    <path d="M320.002 309.7C320.002 309.7 320.326 310.425 320.706 311.136C322.657 314.798 325.137 317.072 325.137 317.072C325.668 317.559 328.627 320.217 332.567 321.27C334.212 321.709 335.798 321.808 335.96 321.817C336.287 321.836 337.296 321.885 338.615 321.761C338.94 321.731 340.331 321.592 342.232 321.057C342.721 320.919 344.164 320.497 346.241 319.537C348.31 318.581 351.014 317.332 353.442 314.939C354.558 313.838 355.224 312.896 355.48 312.517C356.108 311.586 356.53 310.733 356.809 310.088C355.217 311.773 351.646 315.088 346.033 316.705C338.961 318.742 333.103 316.8 330.812 316.005C324.997 313.988 321.292 310.459 319.496 308.475C319.622 308.808 319.79 309.226 320.002 309.7L320.002 309.7Z" fill="#B23030"/>
    <path d="M382.165 326.516C382.298 326.377 387.226 333.993 394.046 333.89C400.701 333.788 405.299 326.394 405.418 326.516C405.54 326.64 401.243 334.825 393.944 334.907C386.536 334.99 382.032 326.656 382.165 326.516Z" fill="#5E1111"/>
    <path d="M672.489 370.673C673.658 371.286 675.447 372.229 677.645 373.41C680.607 375.002 681.698 375.624 681.905 376.765C681.966 377.103 681.953 377.505 681.067 379.458C679.801 382.249 678.981 383.504 678.981 383.504C678.199 384.711 673.277 392.31 672.298 391.773C672.156 391.695 671.92 391.35 674.545 383.033C675.225 380.878 675.81 379.098 676.22 377.868C675.215 377.417 674.15 376.888 673.047 376.265C671.334 375.298 669.848 374.288 668.581 373.322L672.489 370.673V370.673Z" fill="#B23030"/>
    <path d="M622.821 370.846C621.651 371.459 619.862 372.402 617.665 373.583C614.703 375.175 613.611 375.796 613.405 376.938C613.343 377.276 613.357 377.678 614.242 379.63C615.508 382.422 616.328 383.677 616.328 383.677C617.11 384.884 622.032 392.483 623.012 391.946C623.154 391.868 623.39 391.523 620.764 383.206C620.084 381.051 619.499 379.271 619.09 378.041C620.094 377.59 621.159 377.06 622.263 376.438C623.976 375.471 625.461 374.461 626.728 373.495L622.821 370.846V370.846Z" fill="#B23030"/>
    <path d="M681.464 364.491C684.559 365.002 686.83 365.369 688.013 365.559C692.136 366.221 693.419 366.479 694.074 367.58C694.453 368.218 694.488 368.924 693.952 371.618C693.308 374.85 692.986 376.465 692.16 378.6C690.79 382.14 688.188 387.303 687.339 387.005C686.644 386.761 687.359 382.93 688.488 376.887C689.026 374.001 689.545 371.638 689.911 370.047C688.233 369.971 686.472 369.846 684.636 369.657C682.365 369.424 680.222 369.118 678.218 368.769L681.464 364.491H681.464Z" fill="#B23030"/>
    <path d="M612.33 364.355C609.236 364.866 606.964 365.232 605.782 365.422C601.658 366.085 600.375 366.343 599.721 367.444C599.341 368.082 599.306 368.788 599.843 371.482C600.486 374.713 600.808 376.329 601.634 378.464C603.004 382.003 605.607 387.166 606.455 386.869C607.15 386.625 606.435 382.794 605.307 376.751C604.768 373.865 604.249 371.501 603.883 369.911C605.561 369.835 607.323 369.71 609.158 369.521C611.429 369.288 613.572 368.982 615.577 368.633L612.33 364.355H612.33Z" fill="#B23030"/>
    <path d="M685.463 356.403C688.325 355.117 690.42 354.166 691.511 353.67C695.313 351.94 696.525 351.445 697.678 352.001C698.345 352.322 698.765 352.891 699.803 355.434C700.943 358.224 701.636 359.732 702.161 362.245C702.66 364.633 703.399 369.606 702.509 369.875C701.634 370.139 699.537 365.746 698.154 362.849C696.983 360.395 696.162 358.311 695.642 356.903C694.11 357.545 692.547 358.228 690.957 358.954C688.928 359.881 686.981 360.821 685.116 361.765C685.232 359.978 685.347 358.191 685.463 356.403V356.403Z" fill="#B23030"/>
    <path d="M608.279 356.495C605.418 355.209 603.322 354.257 602.232 353.761C598.429 352.032 597.217 351.537 596.065 352.093C595.397 352.414 594.978 352.983 593.939 355.526C592.799 358.315 592.107 359.824 591.582 362.337C591.083 364.725 590.343 369.698 591.233 369.967C592.108 370.231 594.205 365.838 595.588 362.941C596.759 360.487 597.58 358.403 598.1 356.995C599.632 357.637 601.195 358.32 602.786 359.046C604.814 359.973 606.761 360.913 608.626 361.857C608.51 360.07 608.395 358.283 608.279 356.495V356.495Z" fill="#B23030"/>
    <path d="M693.181 319.041C692.668 320.851 691.61 323.537 689.346 325.981C687.381 328.102 685.185 329.307 684.02 329.935C683.121 330.42 682.332 330.768 681.748 331.005L684.607 334.456C685.415 334.246 686.523 333.891 687.754 333.272C690.788 331.745 692.525 329.639 693.3 328.679C695.609 325.818 696.542 322.887 696.945 321.141L693.181 319.041V319.041Z" fill="#B23030"/>
    <path d="M600.583 317.449C601.096 319.259 602.153 321.946 604.418 324.39C606.383 326.511 608.578 327.716 609.743 328.344C610.643 328.829 611.431 329.176 612.016 329.413L609.157 332.864C608.348 332.654 607.241 332.3 606.009 331.68C602.975 330.153 601.239 328.048 600.464 327.088C598.154 324.226 597.222 321.296 596.818 319.549L600.583 317.449V317.449Z" fill="#C13838"/>
    <path d="M600.583 317.449C601.096 319.259 602.153 321.946 604.418 324.39C606.383 326.511 608.578 327.716 609.743 328.344C610.643 328.829 611.431 329.176 612.016 329.413L609.157 332.864C608.348 332.654 607.241 332.3 606.009 331.68C602.975 330.153 601.239 328.048 600.464 327.088C598.154 324.226 597.222 321.296 596.818 319.549L600.583 317.449V317.449Z" fill="#B23030"/>
    <path d="M572.582 309.665C573.314 311.261 576.861 319.003 585.147 321.235C591.286 322.889 596.467 320.561 598.821 319.503C601.342 318.37 606.787 315.922 609.414 310.053C612.733 302.64 609.105 295.242 608.001 292.989C604.17 285.175 597.23 281.919 595.05 281C594.691 284.168 594.062 287.818 592.974 291.791C592.078 295.06 591.03 297.969 589.973 300.491C587.349 299.751 584.321 298.701 581.072 297.188C577.476 295.514 574.476 293.675 572.069 291.987C571.451 293.661 568.796 301.403 572.582 309.665Z" fill="#C13838"/>
    <path d="M721.182 311.257C720.45 312.853 716.903 320.594 708.616 322.827C702.477 324.481 697.297 322.152 694.942 321.094C692.422 319.961 686.977 317.514 684.349 311.645C681.031 304.231 684.658 296.833 685.763 294.58C689.594 286.767 696.534 283.51 698.714 282.591C699.073 285.759 699.702 289.41 700.79 293.383C701.686 296.652 702.734 299.56 703.791 302.083C706.415 301.343 709.442 300.293 712.692 298.78C716.288 297.105 719.288 295.267 721.694 293.578C722.313 295.252 724.968 302.994 721.182 311.257L721.182 311.257Z" fill="#C13838"/>
    <path d="M721.181 311.257C721.181 311.257 720.857 311.981 720.478 312.693C718.526 316.354 716.047 318.628 716.047 318.629C715.516 319.116 712.556 321.774 708.616 322.827C706.972 323.266 705.385 323.365 705.224 323.374C704.897 323.393 703.888 323.442 702.569 323.318C702.243 323.288 700.852 323.149 698.951 322.614C698.462 322.476 697.019 322.054 694.942 321.094C692.873 320.138 690.17 318.889 687.742 316.496C686.617 315.387 685.93 314.406 685.704 314.074C685.072 313.147 684.64 312.296 684.349 311.645C685.946 313.331 689.526 316.646 695.151 318.262C702.232 320.295 708.093 318.353 710.372 317.562C716.186 315.545 719.891 312.016 721.688 310.032C721.561 310.365 721.394 310.782 721.181 311.257V311.257Z" fill="#B23030"/>
    <path d="M644.717 297.747C644.689 299.252 644.55 303.394 641.435 307.049C637.31 311.888 631.363 311.887 630.613 311.874C626.339 311.801 623.314 309.754 622.025 308.727C621.308 308.156 616.639 304.304 616.509 297.747C616.486 296.604 616.526 291.571 620.489 287.607C624.343 283.75 629.164 283.65 630.613 283.62C632.177 283.588 637.07 283.486 640.877 287.187C644.841 291.041 644.745 296.219 644.717 297.747V297.747Z" fill="#C13838"/>
    <path d="M650.395 297.353C650.423 298.857 650.562 302.999 653.677 306.654C657.802 311.494 663.749 311.492 664.499 311.479C668.773 311.406 671.798 309.359 673.087 308.332C673.804 307.761 678.473 303.909 678.603 297.353C678.626 296.21 678.586 291.177 674.623 287.212C670.769 283.356 665.948 283.256 664.499 283.226C662.935 283.193 658.042 283.092 654.235 286.792C650.271 290.647 650.367 295.824 650.395 297.353V297.353Z" fill="#C13838"/>
    <path d="M690.498 347.997C690.462 349.212 690.108 357.294 684.517 364.438C673.763 378.18 652.224 377.474 645.371 377.249C638.97 377.04 618.199 376.359 608.027 362.441C606.923 360.931 603.146 355.617 602.771 347.997C602.257 337.54 608.514 330.078 610.469 327.951C620.587 316.939 636.637 316.94 645.724 316.941C653.504 316.942 675.318 316.944 685.386 331.073C690.673 338.492 690.536 346.739 690.498 347.997V347.997Z" fill="#C13838"/>
    <path d="M628.788 311.307C628.934 312.633 629.009 314.224 628.89 316.014C628.751 318.098 628.386 319.893 627.993 321.327L633.774 321.302C633.375 319.856 633.005 318.152 632.772 316.225C632.549 314.379 632.497 312.703 632.53 311.252L628.788 311.307L628.788 311.307Z" fill="#C13838"/>
    <path d="M666.454 311.006C666.309 312.333 666.234 313.924 666.353 315.714C666.492 317.798 666.857 319.592 667.25 321.026L661.469 321.001C661.868 319.556 662.238 317.852 662.471 315.924C662.694 314.078 662.746 312.402 662.712 310.951L666.454 311.006L666.454 311.006Z" fill="#C13838"/>
    <path d="M690.498 347.997C690.457 349.413 690.12 357.23 684.517 364.438C677.53 373.427 667.072 375.4 661.409 376.469C656.027 377.485 651.176 377.378 645.372 377.25C644.874 377.239 639.228 377.098 633.874 376.218C631.042 375.752 628.408 375.098 627.088 374.708C626.343 374.488 625.45 374.208 625.45 374.208C624.393 373.876 623.308 373.518 622.799 373.339C620.49 372.525 619.314 371.849 618.709 371.451C618.681 371.433 618.407 371.242 618.406 371.24C620.919 372.019 624.559 372.919 629.031 373.23C631.894 373.43 634.071 373.317 635.64 373.23C636.191 373.2 642.911 372.801 648.999 371.132C663.842 367.064 673.018 357.285 673.018 357.285C682.443 347.241 684.727 335.744 685.386 331.073C686.801 333.09 690.752 339.274 690.498 347.997L690.498 347.997Z" fill="#B23030"/>
    <path d="M668.723 287.568C667.614 287.109 664.542 285.894 660.88 287.015C656.03 288.501 654.139 292.862 653.91 293.416C652.604 296.574 653.138 299.444 653.478 300.715C653.668 301.423 654.998 306.072 659.749 308.253C660.577 308.634 664.269 310.206 668.427 308.561C672.472 306.961 674.079 303.458 674.562 302.405C675.083 301.268 676.714 297.712 675.22 293.743C673.664 289.61 669.849 288.033 668.723 287.568Z" fill="white"/>
    <path d="M642.014 299.302C642.115 298.105 642.346 294.805 640.174 291.646C637.297 287.462 632.575 286.972 631.978 286.92C628.579 286.625 626.008 288.001 624.9 288.71C624.284 289.104 620.26 291.777 619.617 296.972C619.504 297.877 619.122 301.877 621.942 305.352C624.684 308.733 628.504 309.21 629.652 309.354C630.891 309.509 634.768 309.993 638.095 307.37C641.56 304.637 641.91 300.518 642.014 299.302Z" fill="white"/>
    <path d="M666.501 292.513C665.899 292.264 664.229 291.603 662.239 292.213C659.603 293.02 658.575 295.391 658.451 295.692C657.741 297.408 658.031 298.968 658.216 299.659C658.319 300.043 659.042 302.57 661.624 303.756C662.074 303.962 664.081 304.817 666.341 303.923C668.539 303.053 669.412 301.149 669.675 300.577C669.958 299.959 670.845 298.026 670.033 295.869C669.187 293.623 667.113 292.766 666.501 292.513V292.513Z" fill="#5E1111"/>
    <path d="M632.961 292.796C632.359 292.547 630.689 291.887 628.699 292.496C626.063 293.303 625.035 295.674 624.911 295.975C624.201 297.691 624.491 299.251 624.676 299.942C624.779 300.327 625.502 302.853 628.084 304.039C628.534 304.246 630.541 305.1 632.801 304.206C634.999 303.337 635.872 301.432 636.135 300.86C636.418 300.242 637.305 298.31 636.493 296.153C635.647 293.906 633.573 293.049 632.961 292.796V292.796Z" fill="#5E1111"/>
    <path d="M663.265 294.761C663.275 294.535 663.292 293.912 662.858 293.336C662.284 292.572 661.392 292.517 661.28 292.513C660.638 292.484 660.166 292.763 659.963 292.906C659.85 292.985 659.115 293.519 659.035 294.502C659.021 294.673 658.981 295.428 659.539 296.059C660.082 296.673 660.804 296.732 661.021 296.75C661.255 296.769 661.988 296.829 662.593 296.309C663.223 295.768 663.256 294.99 663.265 294.761H663.265Z" fill="white"/>
    <path d="M629.541 295.237C629.551 295.012 629.568 294.389 629.134 293.812C628.56 293.049 627.668 292.994 627.556 292.989C626.914 292.961 626.441 293.24 626.239 293.382C626.126 293.461 625.391 293.996 625.311 294.978C625.297 295.149 625.257 295.905 625.815 296.536C626.358 297.149 627.08 297.209 627.297 297.226C627.531 297.246 628.264 297.306 628.869 296.786C629.498 296.244 629.532 295.467 629.541 295.237H629.541Z" fill="white"/>
    <path d="M607.278 304.627L607.587 304.503C607.767 304.405 608.174 304.151 608.464 303.645C608.786 303.084 608.772 302.547 608.757 302.345C608.689 300.648 608.353 297.945 606.924 295.018C606.106 293.345 605.15 292.045 604.323 291.093C604.143 290.878 603.736 290.446 603.124 290.229C602.932 290.161 602.634 290.058 602.255 290.115C602.135 290.133 602.016 290.165 601.899 290.211L601.59 290.334C601.553 290.345 600.904 290.535 600.713 291.192C600.583 291.638 600.715 292.124 601.053 292.451C601.947 293.521 603.131 295.184 604.029 297.452C605.021 299.958 605.262 302.188 605.306 303.65C605.323 303.726 605.464 304.313 606.052 304.608C606.648 304.907 607.208 304.659 607.278 304.627L607.278 304.627Z" fill="#DB8282"/>
    <path d="M598.3 289.387C598.959 290.093 600.065 290.131 600.77 289.471C601.476 288.811 601.513 287.703 600.854 286.997L600.538 286.657C599.879 285.951 598.773 285.913 598.068 286.573C597.362 287.233 597.325 288.341 597.984 289.048L598.3 289.387Z" fill="#DB8282"/>
    <path d="M686.541 305.827L686.23 305.71C686.047 305.615 685.636 305.368 685.337 304.869C685.004 304.314 685.008 303.777 685.019 303.574C685.055 301.876 685.34 299.167 686.714 296.214C687.499 294.526 688.431 293.208 689.24 292.24C689.416 292.021 689.815 291.582 690.422 291.354C690.613 291.282 690.909 291.174 691.29 291.223C691.41 291.239 691.529 291.268 691.647 291.313L691.958 291.43C691.996 291.44 692.648 291.618 692.851 292.271C692.99 292.715 692.867 293.203 692.535 293.536C691.661 294.622 690.509 296.308 689.654 298.592C688.709 301.117 688.51 303.351 688.494 304.813C688.478 304.89 688.349 305.48 687.766 305.786C687.176 306.096 686.611 305.858 686.541 305.827V305.827Z" fill="#DB8282"/>
    <path d="M695.54 290.075C696.186 289.356 696.127 288.249 695.409 287.603C694.692 286.956 693.587 287.015 692.941 287.734L692.631 288.079C691.986 288.798 692.044 289.905 692.762 290.551C693.48 291.198 694.585 291.139 695.23 290.42L695.54 290.075Z" fill="#DB8282"/>
    <path d="M572.59 309.7C572.59 309.7 572.914 310.425 573.294 311.136C575.245 314.798 577.724 317.072 577.724 317.072C578.255 317.559 581.215 320.217 585.155 321.27C586.8 321.709 588.386 321.808 588.548 321.817C588.875 321.836 589.884 321.885 591.202 321.761C591.528 321.731 592.919 321.592 594.82 321.057C595.309 320.919 596.752 320.497 598.829 319.537C600.898 318.581 603.602 317.332 606.03 314.939C607.146 313.838 607.812 312.896 608.068 312.517C608.696 311.586 609.118 310.733 609.397 310.088C607.805 311.773 604.234 315.088 598.621 316.705C591.549 318.742 585.691 316.8 583.4 316.005C577.585 313.988 573.88 310.459 572.083 308.475C572.21 308.808 572.378 309.226 572.59 309.7L572.59 309.7Z" fill="#B23030"/>
    <path d="M634.753 326.516C634.886 326.377 639.814 333.993 646.633 333.89C653.288 333.788 657.887 326.394 658.006 326.516C658.127 326.64 653.83 334.825 646.532 334.907C639.123 334.99 634.619 326.656 634.753 326.516Z" fill="#5E1111"/>
    <path d="M419.901 561.647C421.071 562.259 422.859 563.202 425.057 564.383C428.019 565.975 429.11 566.597 429.317 567.738C429.378 568.076 429.365 568.478 428.48 570.431C427.214 573.222 426.394 574.477 426.394 574.477C425.611 575.684 420.689 583.283 419.71 582.746C419.568 582.668 419.332 582.323 421.957 574.006C422.637 571.851 423.222 570.071 423.632 568.841C422.627 568.39 421.563 567.861 420.459 567.238C418.746 566.271 417.26 565.261 415.993 564.295L419.901 561.646V561.647Z" fill="#B23030"/>
    <path d="M370.233 561.819C369.063 562.432 367.274 563.375 365.077 564.556C362.115 566.148 361.023 566.769 360.817 567.911C360.756 568.249 360.769 568.651 361.654 570.603C362.92 573.395 363.74 574.65 363.74 574.65C364.522 575.857 369.444 583.456 370.424 582.919C370.566 582.841 370.802 582.496 368.176 574.179C367.496 572.024 366.911 570.244 366.502 569.014C367.506 568.563 368.571 568.033 369.675 567.411C371.388 566.444 372.873 565.434 374.14 564.468L370.233 561.819V561.819Z" fill="#B23030"/>
    <path d="M428.876 555.464C431.971 555.975 434.242 556.342 435.425 556.532C439.548 557.194 440.831 557.452 441.486 558.553C441.865 559.191 441.9 559.897 441.364 562.592C440.72 565.823 440.399 567.438 439.572 569.573C438.202 573.113 435.6 578.276 434.751 577.978C434.056 577.734 434.771 573.903 435.9 567.86C436.438 564.974 436.957 562.611 437.323 561.02C435.645 560.944 433.884 560.819 432.048 560.63C429.777 560.397 427.634 560.091 425.63 559.742L428.876 555.464H428.876Z" fill="#B23030"/>
    <path d="M359.742 555.328C356.648 555.839 354.376 556.205 353.194 556.395C349.07 557.058 347.787 557.316 347.133 558.417C346.754 559.055 346.718 559.761 347.255 562.455C347.898 565.686 348.22 567.302 349.046 569.437C350.416 572.976 353.019 578.139 353.867 577.842C354.562 577.598 353.847 573.767 352.719 567.724C352.18 564.838 351.661 562.474 351.295 560.884C352.973 560.808 354.735 560.683 356.57 560.494C358.841 560.261 360.984 559.955 362.989 559.606L359.742 555.328H359.742Z" fill="#B23030"/>
    <path d="M432.875 547.376C435.737 546.09 437.832 545.139 438.923 544.643C442.725 542.913 443.937 542.418 445.09 542.974C445.758 543.295 446.177 543.864 447.216 546.407C448.355 549.197 449.048 550.705 449.573 553.218C450.072 555.606 450.811 560.579 449.921 560.848C449.046 561.112 446.949 556.719 445.567 553.822C444.395 551.368 443.575 549.284 443.055 547.876C441.523 548.518 439.96 549.201 438.369 549.927C436.34 550.854 434.393 551.794 432.529 552.738C432.644 550.951 432.76 549.164 432.875 547.376V547.376Z" fill="#B23030"/>
    <path d="M355.691 547.468C352.83 546.182 350.734 545.23 349.644 544.734C345.841 543.005 344.629 542.51 343.477 543.066C342.809 543.387 342.39 543.956 341.351 546.499C340.211 549.289 339.519 550.797 338.994 553.31C338.495 555.698 337.755 560.671 338.645 560.94C339.521 561.204 341.617 556.811 343 553.914C344.171 551.46 344.992 549.376 345.512 547.968C347.044 548.61 348.607 549.293 350.198 550.019C352.226 550.946 354.173 551.886 356.038 552.83C355.922 551.043 355.807 549.256 355.691 547.468V547.468Z" fill="#B23030"/>
    <path d="M440.593 510.014C440.08 511.824 439.023 514.51 436.758 516.954C434.793 519.075 432.598 520.28 431.433 520.908C430.533 521.393 429.744 521.741 429.16 521.978L432.019 525.429C432.827 525.219 433.935 524.864 435.166 524.245C438.2 522.718 439.937 520.612 440.712 519.652C443.021 516.791 443.954 513.86 444.358 512.114L440.593 510.014V510.014Z" fill="#B23030"/>
    <path d="M347.995 508.422C348.508 510.232 349.565 512.919 351.83 515.363C353.795 517.484 355.99 518.689 357.155 519.317C358.055 519.802 358.844 520.149 359.428 520.386L356.569 523.837C355.761 523.627 354.653 523.273 353.422 522.653C350.388 521.126 348.651 519.021 347.876 518.061C345.567 515.2 344.634 512.269 344.23 510.522L347.995 508.422V508.422Z" fill="#C13838"/>
    <path d="M347.995 508.422C348.508 510.232 349.565 512.919 351.83 515.363C353.795 517.484 355.99 518.689 357.155 519.317C358.055 519.802 358.844 520.149 359.428 520.386L356.569 523.837C355.761 523.627 354.653 523.273 353.422 522.653C350.388 521.126 348.651 519.021 347.876 518.061C345.567 515.2 344.634 512.269 344.23 510.522L347.995 508.422V508.422Z" fill="#B23030"/>
    <path d="M319.994 500.638C320.726 502.234 324.273 509.976 332.56 512.208C338.698 513.862 343.879 511.534 346.234 510.476C348.754 509.343 354.199 506.895 356.826 501.026C360.145 493.613 356.517 486.215 355.413 483.962C351.582 476.148 344.642 472.892 342.462 471.973C342.103 475.141 341.474 478.791 340.386 482.764C339.49 486.033 338.442 488.942 337.385 491.464C334.761 490.724 331.733 489.674 328.484 488.161C324.888 486.487 321.888 484.648 319.482 482.96C318.863 484.634 316.208 492.376 319.994 500.638Z" fill="#C13838"/>
    <path d="M468.594 502.23C467.862 503.826 464.315 511.567 456.028 513.8C449.889 515.454 444.709 513.125 442.354 512.067C439.834 510.934 434.389 508.487 431.761 502.618C428.443 495.204 432.07 487.806 433.175 485.553C437.006 477.74 443.946 474.483 446.126 473.564C446.485 476.732 447.114 480.383 448.202 484.356C449.098 487.625 450.146 490.533 451.203 493.056C453.827 492.316 456.854 491.266 460.104 489.753C463.7 488.078 466.7 486.24 469.106 484.551C469.725 486.225 472.38 493.967 468.594 502.23L468.594 502.23Z" fill="#C13838"/>
    <path d="M468.594 502.23C468.594 502.23 468.269 502.954 467.89 503.666C465.938 507.327 463.459 509.601 463.459 509.602C462.928 510.089 459.968 512.747 456.028 513.8C454.384 514.239 452.797 514.338 452.636 514.347C452.309 514.366 451.3 514.415 449.981 514.291C449.655 514.261 448.264 514.122 446.364 513.587C445.874 513.449 444.431 513.027 442.354 512.067C440.285 511.111 437.582 509.862 435.154 507.469C434.029 506.36 433.342 505.38 433.116 505.047C432.484 504.12 432.052 503.269 431.761 502.618C433.358 504.304 436.938 507.619 442.563 509.235C449.644 511.268 455.505 509.326 457.784 508.535C463.598 506.518 467.304 502.989 469.1 501.005C468.973 501.338 468.806 501.756 468.594 502.23V502.23Z" fill="#B23030"/>
    <path d="M392.129 488.72C392.101 490.225 391.962 494.367 388.847 498.022C384.722 502.861 378.775 502.86 378.025 502.847C373.751 502.774 370.726 500.727 369.437 499.7C368.72 499.129 364.051 495.277 363.921 488.72C363.899 487.577 363.938 482.545 367.901 478.58C371.755 474.723 376.576 474.623 378.025 474.593C379.589 474.561 384.483 474.46 388.289 478.16C392.253 482.014 392.157 487.192 392.129 488.72V488.72Z" fill="#C13838"/>
    <path d="M397.807 488.326C397.835 489.83 397.974 493.972 401.089 497.627C405.214 502.467 411.161 502.465 411.911 502.452C416.185 502.38 419.21 500.332 420.499 499.305C421.216 498.734 425.885 494.882 426.015 488.326C426.038 487.183 425.998 482.15 422.035 478.185C418.181 474.329 413.36 474.229 411.911 474.199C410.347 474.166 405.454 474.065 401.647 477.765C397.683 481.62 397.779 486.797 397.807 488.326V488.326Z" fill="#C13838"/>
    <path d="M437.91 538.97C437.874 540.185 437.52 548.267 431.929 555.411C421.176 569.153 399.636 568.447 392.784 568.222C386.382 568.013 365.612 567.332 355.439 553.414C354.335 551.904 350.558 546.59 350.183 538.97C349.67 528.513 355.926 521.051 357.881 518.924C367.999 507.912 384.049 507.913 393.136 507.914C400.916 507.915 422.73 507.917 432.798 522.046C438.085 529.465 437.948 537.712 437.91 538.97V538.97Z" fill="#C13838"/>
    <path d="M376.2 502.28C376.346 503.606 376.421 505.197 376.302 506.987C376.163 509.071 375.798 510.866 375.405 512.3L381.186 512.275C380.787 510.83 380.417 509.125 380.184 507.198C379.961 505.352 379.909 503.676 379.942 502.225L376.2 502.28L376.2 502.28Z" fill="#C13838"/>
    <path d="M413.867 501.979C413.721 503.306 413.646 504.897 413.766 506.687C413.904 508.771 414.269 510.565 414.663 511.999L408.881 511.974C409.281 510.529 409.651 508.825 409.883 506.897C410.107 505.051 410.159 503.375 410.125 501.924L413.867 501.979L413.867 501.979Z" fill="#C13838"/>
    <path d="M437.91 538.97C437.869 540.386 437.532 548.203 431.929 555.411C424.942 564.4 414.484 566.373 408.821 567.442C403.439 568.458 398.588 568.351 392.784 568.223C392.286 568.212 386.64 568.071 381.286 567.191C378.454 566.725 375.82 566.071 374.5 565.681C373.755 565.461 372.862 565.181 372.862 565.181C371.805 564.849 370.72 564.491 370.211 564.312C367.902 563.498 366.726 562.822 366.121 562.424C366.093 562.406 365.819 562.215 365.818 562.213C368.331 562.992 371.971 563.892 376.443 564.203C379.306 564.403 381.483 564.29 383.052 564.203C383.603 564.173 390.323 563.774 396.411 562.105C411.254 558.037 420.43 548.258 420.43 548.258C429.855 538.214 432.139 526.717 432.798 522.047C434.213 524.063 438.164 530.247 437.91 538.97L437.91 538.97Z" fill="#B23030"/>
    <path d="M416.135 478.541C415.026 478.082 411.954 476.867 408.292 477.988C403.442 479.474 401.551 483.835 401.322 484.389C400.016 487.547 400.55 490.417 400.89 491.689C401.08 492.396 402.41 497.045 407.161 499.226C407.989 499.607 411.681 501.179 415.84 499.534C419.885 497.934 421.491 494.431 421.974 493.378C422.495 492.241 424.126 488.685 422.632 484.716C421.076 480.583 417.261 479.006 416.135 478.541Z" fill="white"/>
    <path d="M389.426 490.275C389.527 489.078 389.758 485.778 387.586 482.619C384.709 478.435 379.987 477.945 379.39 477.893C375.991 477.598 373.42 478.974 372.312 479.683C371.696 480.077 367.672 482.75 367.029 487.945C366.917 488.85 366.534 492.85 369.354 496.325C372.097 499.706 375.916 500.183 377.064 500.327C378.303 500.482 382.18 500.966 385.507 498.343C388.972 495.61 389.322 491.491 389.426 490.275Z" fill="white"/>
    <path d="M413.913 483.486C413.311 483.237 411.641 482.576 409.651 483.186C407.015 483.993 405.987 486.364 405.863 486.665C405.153 488.381 405.443 489.941 405.628 490.632C405.731 491.016 406.454 493.543 409.036 494.729C409.486 494.935 411.493 495.79 413.753 494.896C415.951 494.026 416.824 492.122 417.087 491.55C417.37 490.932 418.257 488.999 417.445 486.842C416.599 484.596 414.525 483.739 413.913 483.486V483.486Z" fill="#5E1111"/>
    <path d="M380.373 483.769C379.771 483.52 378.101 482.86 376.111 483.469C373.475 484.276 372.448 486.647 372.323 486.948C371.613 488.664 371.903 490.224 372.088 490.915C372.191 491.3 372.914 493.826 375.496 495.012C375.947 495.219 377.953 496.073 380.213 495.179C382.411 494.31 383.285 492.405 383.547 491.833C383.83 491.215 384.717 489.283 383.905 487.126C383.059 484.879 380.985 484.022 380.373 483.769V483.769Z" fill="#5E1111"/>
    <path d="M410.677 485.734C410.687 485.508 410.704 484.885 410.271 484.309C409.696 483.545 408.804 483.491 408.692 483.486C408.05 483.457 407.578 483.736 407.375 483.879C407.262 483.958 406.527 484.492 406.447 485.475C406.433 485.646 406.393 486.401 406.951 487.032C407.494 487.646 408.216 487.705 408.433 487.723C408.667 487.742 409.4 487.802 410.005 487.282C410.635 486.741 410.668 485.963 410.678 485.734H410.677Z" fill="white"/>
    <path d="M376.953 486.21C376.963 485.985 376.98 485.362 376.546 484.785C375.972 484.022 375.08 483.967 374.968 483.962C374.326 483.934 373.854 484.213 373.651 484.355C373.538 484.434 372.803 484.969 372.723 485.951C372.709 486.122 372.669 486.878 373.227 487.509C373.77 488.122 374.492 488.182 374.709 488.199C374.943 488.219 375.676 488.279 376.281 487.759C376.911 487.217 376.944 486.44 376.953 486.21H376.953Z" fill="white"/>
    <path d="M354.69 495.6L354.999 495.476C355.179 495.378 355.586 495.124 355.876 494.618C356.198 494.057 356.184 493.52 356.169 493.318C356.101 491.621 355.765 488.918 354.336 485.991C353.519 484.318 352.562 483.018 351.735 482.066C351.555 481.851 351.148 481.419 350.537 481.202C350.344 481.134 350.046 481.031 349.667 481.088C349.547 481.106 349.428 481.138 349.311 481.184L349.002 481.308C348.965 481.318 348.316 481.508 348.125 482.165C347.995 482.611 348.127 483.097 348.465 483.424C349.36 484.494 350.543 486.157 351.441 488.425C352.433 490.931 352.674 493.161 352.718 494.623C352.735 494.699 352.876 495.286 353.464 495.581C354.06 495.88 354.62 495.632 354.69 495.6L354.69 495.6Z" fill="#DB8282"/>
    <path d="M345.712 480.36C346.371 481.066 347.477 481.104 348.182 480.444C348.888 479.784 348.925 478.676 348.266 477.97L347.95 477.631C347.291 476.924 346.185 476.886 345.48 477.546C344.774 478.206 344.737 479.314 345.396 480.021L345.712 480.36Z" fill="#DB8282"/>
    <path d="M433.953 496.8L433.642 496.683C433.46 496.588 433.048 496.341 432.749 495.842C432.416 495.287 432.42 494.75 432.431 494.547C432.467 492.849 432.752 490.14 434.126 487.187C434.911 485.499 435.843 484.181 436.652 483.213C436.828 482.994 437.227 482.555 437.834 482.327C438.025 482.255 438.322 482.147 438.702 482.196C438.822 482.212 438.941 482.241 439.059 482.286L439.37 482.403C439.408 482.413 440.06 482.591 440.263 483.244C440.402 483.688 440.279 484.176 439.947 484.509C439.073 485.595 437.921 487.281 437.066 489.565C436.121 492.09 435.922 494.324 435.906 495.786C435.89 495.863 435.761 496.453 435.178 496.759C434.588 497.069 434.023 496.831 433.953 496.8V496.8Z" fill="#DB8282"/>
    <path d="M442.952 481.048C443.598 480.329 443.539 479.222 442.821 478.576C442.104 477.929 440.999 477.988 440.353 478.707L440.043 479.052C439.398 479.771 439.456 480.878 440.174 481.524C440.892 482.171 441.997 482.112 442.642 481.393L442.952 481.048Z" fill="#DB8282"/>
    <path d="M320.002 500.673C320.002 500.673 320.326 501.398 320.706 502.109C322.657 505.771 325.137 508.045 325.137 508.045C325.668 508.532 328.627 511.19 332.567 512.243C334.212 512.682 335.798 512.781 335.96 512.79C336.287 512.809 337.296 512.858 338.615 512.734C338.94 512.704 340.331 512.565 342.232 512.03C342.721 511.892 344.164 511.47 346.241 510.51C348.31 509.554 351.014 508.305 353.442 505.912C354.558 504.811 355.224 503.869 355.48 503.49C356.108 502.559 356.53 501.706 356.809 501.061C355.217 502.746 351.646 506.061 346.033 507.678C338.961 509.715 333.103 507.773 330.812 506.978C324.997 504.961 321.292 501.432 319.496 499.448C319.622 499.781 319.79 500.199 320.002 500.673L320.002 500.673Z" fill="#B23030"/>
    <path d="M382.165 517.489C382.298 517.35 387.226 524.966 394.046 524.863C400.701 524.761 405.299 517.367 405.418 517.489C405.54 517.613 401.243 525.798 393.944 525.88C386.536 525.963 382.032 517.629 382.165 517.489Z" fill="#5E1111"/>
    <path d="M672.489 561.647C673.658 562.259 675.447 563.202 677.645 564.383C680.607 565.975 681.698 566.597 681.905 567.738C681.966 568.076 681.953 568.478 681.067 570.431C679.801 573.222 678.981 574.477 678.981 574.477C678.199 575.684 673.277 583.283 672.298 582.746C672.156 582.668 671.92 582.323 674.545 574.006C675.225 571.851 675.81 570.071 676.22 568.841C675.215 568.39 674.15 567.861 673.047 567.238C671.334 566.271 669.848 565.261 668.581 564.295L672.489 561.646V561.647Z" fill="#B23030"/>
    <path d="M622.821 561.819C621.651 562.432 619.862 563.375 617.665 564.556C614.703 566.148 613.611 566.769 613.405 567.911C613.343 568.249 613.357 568.651 614.242 570.603C615.508 573.395 616.328 574.65 616.328 574.65C617.11 575.857 622.032 583.456 623.012 582.919C623.154 582.841 623.39 582.496 620.764 574.179C620.084 572.024 619.499 570.244 619.09 569.014C620.094 568.563 621.159 568.033 622.263 567.411C623.976 566.444 625.461 565.434 626.728 564.468L622.821 561.819V561.819Z" fill="#B23030"/>
    <path d="M681.464 555.464C684.559 555.975 686.83 556.342 688.013 556.532C692.136 557.194 693.419 557.452 694.074 558.553C694.453 559.191 694.488 559.897 693.952 562.592C693.308 565.823 692.986 567.438 692.16 569.573C690.79 573.113 688.188 578.276 687.339 577.978C686.644 577.734 687.359 573.903 688.488 567.86C689.026 564.974 689.545 562.611 689.911 561.02C688.233 560.944 686.472 560.819 684.636 560.63C682.365 560.397 680.222 560.091 678.218 559.742L681.464 555.464H681.464Z" fill="#B23030"/>
    <path d="M612.33 555.328C609.236 555.839 606.964 556.205 605.782 556.395C601.658 557.058 600.375 557.316 599.721 558.417C599.341 559.055 599.306 559.761 599.843 562.455C600.486 565.686 600.808 567.302 601.634 569.437C603.004 572.976 605.607 578.139 606.455 577.842C607.15 577.598 606.435 573.767 605.307 567.724C604.768 564.838 604.249 562.474 603.883 560.884C605.561 560.808 607.323 560.683 609.158 560.494C611.429 560.261 613.572 559.955 615.577 559.606L612.33 555.328H612.33Z" fill="#B23030"/>
    <path d="M685.463 547.376C688.325 546.09 690.42 545.139 691.511 544.643C695.313 542.913 696.525 542.418 697.678 542.974C698.345 543.295 698.765 543.864 699.803 546.407C700.943 549.197 701.636 550.705 702.161 553.218C702.66 555.606 703.399 560.579 702.509 560.848C701.634 561.112 699.537 556.719 698.154 553.822C696.983 551.368 696.162 549.284 695.642 547.876C694.11 548.518 692.547 549.201 690.957 549.927C688.928 550.854 686.981 551.794 685.116 552.738C685.232 550.951 685.347 549.164 685.463 547.376V547.376Z" fill="#B23030"/>
    <path d="M608.279 547.468C605.418 546.182 603.322 545.23 602.232 544.734C598.429 543.005 597.217 542.51 596.065 543.066C595.397 543.387 594.978 543.956 593.939 546.499C592.799 549.289 592.107 550.797 591.582 553.31C591.083 555.698 590.343 560.671 591.233 560.94C592.108 561.204 594.205 556.811 595.588 553.914C596.759 551.46 597.58 549.376 598.1 547.968C599.632 548.61 601.195 549.293 602.786 550.019C604.814 550.946 606.761 551.886 608.626 552.83C608.51 551.043 608.395 549.256 608.279 547.468V547.468Z" fill="#B23030"/>
    <path d="M693.181 510.014C692.668 511.824 691.61 514.51 689.346 516.954C687.381 519.075 685.185 520.28 684.02 520.908C683.121 521.393 682.332 521.741 681.748 521.978L684.607 525.429C685.415 525.219 686.523 524.864 687.754 524.245C690.788 522.718 692.525 520.612 693.3 519.652C695.609 516.791 696.542 513.86 696.945 512.114L693.181 510.014V510.014Z" fill="#B23030"/>
    <path d="M600.583 508.422C601.096 510.232 602.153 512.919 604.418 515.363C606.383 517.484 608.578 518.689 609.743 519.317C610.643 519.802 611.431 520.149 612.016 520.386L609.157 523.837C608.348 523.627 607.241 523.273 606.009 522.653C602.975 521.126 601.239 519.021 600.464 518.061C598.154 515.2 597.222 512.269 596.818 510.522L600.583 508.422V508.422Z" fill="#C13838"/>
    <path d="M600.583 508.422C601.096 510.232 602.153 512.919 604.418 515.363C606.383 517.484 608.578 518.689 609.743 519.317C610.643 519.802 611.431 520.149 612.016 520.386L609.157 523.837C608.348 523.627 607.241 523.273 606.009 522.653C602.975 521.126 601.239 519.021 600.464 518.061C598.154 515.2 597.222 512.269 596.818 510.522L600.583 508.422V508.422Z" fill="#B23030"/>
    <path d="M572.582 500.638C573.314 502.234 576.861 509.976 585.147 512.208C591.286 513.862 596.467 511.534 598.821 510.476C601.342 509.343 606.787 506.895 609.414 501.026C612.733 493.613 609.105 486.215 608.001 483.962C604.17 476.148 597.23 472.892 595.05 471.973C594.691 475.141 594.062 478.791 592.974 482.764C592.078 486.033 591.03 488.942 589.973 491.464C587.349 490.724 584.321 489.674 581.072 488.161C577.476 486.487 574.476 484.648 572.069 482.96C571.451 484.634 568.796 492.376 572.582 500.638Z" fill="#C13838"/>
    <path d="M721.182 502.23C720.45 503.826 716.903 511.567 708.616 513.8C702.477 515.454 697.297 513.125 694.942 512.067C692.422 510.934 686.977 508.487 684.349 502.618C681.031 495.204 684.658 487.806 685.763 485.553C689.594 477.74 696.534 474.483 698.714 473.564C699.073 476.732 699.702 480.383 700.79 484.356C701.686 487.625 702.734 490.533 703.791 493.056C706.415 492.316 709.442 491.266 712.692 489.753C716.288 488.078 719.288 486.24 721.694 484.551C722.313 486.225 724.968 493.967 721.182 502.23L721.182 502.23Z" fill="#C13838"/>
    <path d="M721.181 502.23C721.181 502.23 720.857 502.954 720.478 503.666C718.526 507.327 716.047 509.601 716.047 509.602C715.516 510.089 712.556 512.747 708.616 513.8C706.972 514.239 705.385 514.338 705.224 514.347C704.897 514.366 703.888 514.415 702.569 514.291C702.243 514.261 700.852 514.122 698.951 513.587C698.462 513.449 697.019 513.027 694.942 512.067C692.873 511.111 690.17 509.862 687.742 507.469C686.617 506.36 685.93 505.38 685.704 505.047C685.072 504.12 684.64 503.269 684.349 502.618C685.946 504.304 689.526 507.619 695.151 509.235C702.232 511.268 708.093 509.326 710.372 508.535C716.186 506.518 719.891 502.989 721.688 501.005C721.561 501.338 721.394 501.756 721.181 502.23V502.23Z" fill="#B23030"/>
    <path d="M644.717 488.72C644.689 490.225 644.55 494.367 641.435 498.022C637.31 502.861 631.363 502.86 630.613 502.847C626.339 502.774 623.314 500.727 622.025 499.7C621.308 499.129 616.639 495.277 616.509 488.72C616.486 487.577 616.526 482.545 620.489 478.58C624.343 474.723 629.164 474.623 630.613 474.593C632.177 474.561 637.07 474.46 640.877 478.16C644.841 482.014 644.745 487.192 644.717 488.72V488.72Z" fill="#C13838"/>
    <path d="M650.395 488.326C650.423 489.83 650.562 493.972 653.677 497.627C657.802 502.467 663.749 502.465 664.499 502.452C668.773 502.38 671.798 500.332 673.087 499.305C673.804 498.734 678.473 494.882 678.603 488.326C678.626 487.183 678.586 482.15 674.623 478.185C670.769 474.329 665.948 474.229 664.499 474.199C662.935 474.166 658.042 474.065 654.235 477.765C650.271 481.62 650.367 486.797 650.395 488.326V488.326Z" fill="#C13838"/>
    <path d="M690.498 538.97C690.462 540.185 690.108 548.267 684.517 555.411C673.763 569.153 652.224 568.447 645.371 568.222C638.97 568.013 618.199 567.332 608.027 553.414C606.923 551.904 603.146 546.59 602.771 538.97C602.257 528.513 608.514 521.051 610.469 518.924C620.587 507.912 636.637 507.913 645.724 507.914C653.504 507.915 675.318 507.917 685.386 522.046C690.673 529.465 690.536 537.712 690.498 538.97V538.97Z" fill="#C13838"/>
    <path d="M628.788 502.28C628.934 503.606 629.009 505.197 628.89 506.987C628.751 509.071 628.386 510.866 627.993 512.3L633.774 512.275C633.375 510.83 633.005 509.125 632.772 507.198C632.549 505.352 632.497 503.676 632.53 502.225L628.788 502.28L628.788 502.28Z" fill="#C13838"/>
    <path d="M666.454 501.979C666.309 503.306 666.234 504.897 666.353 506.687C666.492 508.771 666.857 510.565 667.25 511.999L661.469 511.974C661.868 510.529 662.238 508.825 662.471 506.897C662.694 505.051 662.746 503.375 662.712 501.924L666.454 501.979L666.454 501.979Z" fill="#C13838"/>
    <path d="M690.498 538.97C690.457 540.386 690.12 548.203 684.517 555.411C677.53 564.4 667.072 566.373 661.409 567.442C656.027 568.458 651.176 568.351 645.372 568.223C644.874 568.212 639.228 568.071 633.874 567.191C631.042 566.725 628.408 566.071 627.088 565.681C626.343 565.461 625.45 565.181 625.45 565.181C624.393 564.849 623.308 564.491 622.799 564.312C620.49 563.498 619.314 562.822 618.709 562.424C618.681 562.406 618.407 562.215 618.406 562.213C620.919 562.992 624.559 563.892 629.031 564.203C631.894 564.403 634.071 564.29 635.64 564.203C636.191 564.173 642.911 563.774 648.999 562.105C663.842 558.037 673.018 548.258 673.018 548.258C682.443 538.214 684.727 526.717 685.386 522.047C686.801 524.063 690.752 530.247 690.498 538.97L690.498 538.97Z" fill="#B23030"/>
    <path d="M668.723 478.541C667.614 478.082 664.542 476.867 660.88 477.988C656.03 479.474 654.139 483.835 653.91 484.389C652.604 487.547 653.138 490.417 653.478 491.689C653.668 492.396 654.998 497.045 659.749 499.226C660.577 499.607 664.269 501.179 668.427 499.534C672.472 497.934 674.079 494.431 674.562 493.378C675.083 492.241 676.714 488.685 675.22 484.716C673.664 480.583 669.849 479.006 668.723 478.541Z" fill="white"/>
    <path d="M642.014 490.275C642.115 489.078 642.346 485.778 640.174 482.619C637.297 478.435 632.575 477.945 631.978 477.893C628.579 477.598 626.008 478.974 624.9 479.683C624.284 480.077 620.26 482.75 619.617 487.945C619.504 488.85 619.122 492.85 621.942 496.325C624.684 499.706 628.504 500.183 629.652 500.327C630.891 500.482 634.768 500.966 638.095 498.343C641.56 495.61 641.91 491.491 642.014 490.275Z" fill="white"/>
    <path d="M666.501 483.486C665.899 483.237 664.229 482.576 662.239 483.186C659.603 483.993 658.575 486.364 658.451 486.665C657.741 488.381 658.031 489.941 658.216 490.632C658.319 491.016 659.042 493.543 661.624 494.729C662.074 494.935 664.081 495.79 666.341 494.896C668.539 494.026 669.412 492.122 669.675 491.55C669.958 490.932 670.845 488.999 670.033 486.842C669.187 484.596 667.113 483.739 666.501 483.486V483.486Z" fill="#5E1111"/>
    <path d="M632.961 483.769C632.359 483.52 630.689 482.86 628.699 483.469C626.063 484.276 625.035 486.647 624.911 486.948C624.201 488.664 624.491 490.224 624.676 490.915C624.779 491.3 625.502 493.826 628.084 495.012C628.534 495.219 630.541 496.073 632.801 495.179C634.999 494.31 635.872 492.405 636.135 491.833C636.418 491.215 637.305 489.283 636.493 487.126C635.647 484.879 633.573 484.022 632.961 483.769V483.769Z" fill="#5E1111"/>
    <path d="M663.265 485.734C663.275 485.508 663.292 484.885 662.858 484.309C662.284 483.545 661.392 483.491 661.28 483.486C660.638 483.457 660.166 483.736 659.963 483.879C659.85 483.958 659.115 484.492 659.035 485.475C659.021 485.646 658.981 486.401 659.539 487.032C660.082 487.646 660.804 487.705 661.021 487.723C661.255 487.742 661.988 487.802 662.593 487.282C663.223 486.741 663.256 485.963 663.265 485.734H663.265Z" fill="white"/>
    <path d="M629.541 486.21C629.551 485.985 629.568 485.362 629.134 484.785C628.56 484.022 627.668 483.967 627.556 483.962C626.914 483.934 626.441 484.213 626.239 484.355C626.126 484.434 625.391 484.969 625.311 485.951C625.297 486.122 625.257 486.878 625.815 487.509C626.358 488.122 627.08 488.182 627.297 488.199C627.531 488.219 628.264 488.279 628.869 487.759C629.498 487.217 629.532 486.44 629.541 486.21H629.541Z" fill="white"/>
    <path d="M607.278 495.6L607.587 495.476C607.767 495.378 608.174 495.124 608.464 494.618C608.786 494.057 608.772 493.52 608.757 493.318C608.689 491.621 608.353 488.918 606.924 485.991C606.106 484.318 605.15 483.018 604.323 482.066C604.143 481.851 603.736 481.419 603.124 481.202C602.932 481.134 602.634 481.031 602.255 481.088C602.135 481.106 602.016 481.138 601.899 481.184L601.59 481.308C601.553 481.318 600.904 481.508 600.713 482.165C600.583 482.611 600.715 483.097 601.053 483.424C601.947 484.494 603.131 486.157 604.029 488.425C605.021 490.931 605.262 493.161 605.306 494.623C605.323 494.699 605.464 495.286 606.052 495.581C606.648 495.88 607.208 495.632 607.278 495.6L607.278 495.6Z" fill="#DB8282"/>
    <path d="M598.3 480.36C598.959 481.066 600.065 481.104 600.77 480.444C601.476 479.784 601.513 478.676 600.854 477.97L600.538 477.631C599.879 476.924 598.773 476.886 598.068 477.546C597.362 478.206 597.325 479.314 597.984 480.021L598.3 480.36Z" fill="#DB8282"/>
    <path d="M686.541 496.8L686.23 496.683C686.047 496.588 685.636 496.341 685.337 495.842C685.004 495.287 685.008 494.75 685.019 494.547C685.055 492.849 685.34 490.14 686.714 487.187C687.499 485.499 688.431 484.181 689.24 483.213C689.416 482.994 689.815 482.555 690.422 482.327C690.613 482.255 690.909 482.147 691.29 482.196C691.41 482.212 691.529 482.241 691.647 482.286L691.958 482.403C691.996 482.413 692.648 482.591 692.851 483.244C692.99 483.688 692.867 484.176 692.535 484.509C691.661 485.595 690.509 487.281 689.654 489.565C688.709 492.09 688.51 494.324 688.494 495.786C688.478 495.863 688.349 496.453 687.766 496.759C687.176 497.069 686.611 496.831 686.541 496.8V496.8Z" fill="#DB8282"/>
    <path d="M695.54 481.048C696.186 480.329 696.127 479.222 695.409 478.576C694.692 477.929 693.587 477.988 692.941 478.707L692.631 479.052C691.986 479.771 692.044 480.878 692.762 481.524C693.48 482.171 694.585 482.112 695.23 481.393L695.54 481.048Z" fill="#DB8282"/>
    <path d="M572.59 500.673C572.59 500.673 572.914 501.398 573.294 502.109C575.245 505.771 577.724 508.045 577.724 508.045C578.255 508.532 581.215 511.19 585.155 512.243C586.8 512.682 588.386 512.781 588.548 512.79C588.875 512.809 589.884 512.858 591.202 512.734C591.528 512.704 592.919 512.565 594.82 512.03C595.309 511.892 596.752 511.47 598.829 510.51C600.898 509.554 603.602 508.305 606.03 505.912C607.146 504.811 607.812 503.869 608.068 503.49C608.696 502.559 609.118 501.706 609.397 501.061C607.805 502.746 604.234 506.061 598.621 507.678C591.549 509.715 585.691 507.773 583.4 506.978C577.585 504.961 573.88 501.432 572.083 499.448C572.21 499.781 572.378 500.199 572.59 500.673L572.59 500.673Z" fill="#B23030"/>
    <path d="M634.753 517.489C634.886 517.35 639.814 524.966 646.633 524.863C653.288 524.761 657.887 517.367 658.006 517.489C658.127 517.613 653.83 525.798 646.532 525.88C639.123 525.963 634.619 517.629 634.753 517.489Z" fill="#5E1111"/>
</svg>
