<svg viewBox="0 0 870 540" fill="none" xmlns="http://www.w3.org/2000/svg">
<rect x="3" y="3" width="864" height="533.4" rx="77" fill="white" stroke="#844EA5" stroke-width="6"/>
<path d="M405.032 252.782C400.998 252.099 397.966 254.935 395.039 256.612C390.309 259.321 388.643 257.037 372.348 256.657C363.791 256.456 356.584 256.534 349.657 256.612C347.422 256.637 341.261 254.213 334.44 256.944C333.583 257.687 332.551 258.198 331.441 258.43C331.076 258.479 330.706 258.485 330.339 258.447C330.639 261.534 331.07 265.623 331.635 270.432C332.101 274.394 332.511 277.607 332.726 279.189C333.804 287.083 334.921 293.363 335.922 299.158C337.325 307.277 339.304 319.1 341.619 334.206C342.758 335.479 344.007 336.649 345.351 337.702C348.564 340.142 352.258 341.873 356.19 342.78C356.969 342.984 358.157 343.287 359.676 343.579C368.091 344.646 376.608 344.646 385.024 343.579C386.542 343.28 387.722 342.98 388.51 342.78C392.441 341.873 396.135 340.142 399.348 337.702C400.693 336.649 401.941 335.479 403.08 334.206C405.388 319.098 407.367 307.277 408.778 299.158C409.778 293.363 410.895 287.086 411.973 279.195C412.531 275.106 412.911 271.774 413.064 270.432C413.643 265.348 414.049 260.913 414.34 257.336C413.552 256.693 412.723 256.102 411.859 255.565C409.768 254.237 407.456 253.295 405.032 252.782Z" fill="#48AB85"/>
<path d="M399.434 245.037C393.488 242.574 387.189 241.072 380.772 240.585C375.022 239.975 369.223 239.999 363.48 240.659C357.271 241.096 351.181 242.576 345.463 245.037C339.63 247.695 329.352 253.977 330.407 258.877C330.517 259.381 330.966 260.903 337.49 263.906C343.457 266.593 349.762 268.452 356.232 269.434C361.89 270.493 367.631 271.045 373.387 271.083C380.079 271.123 386.751 270.376 393.269 268.858C399.061 267.506 404.572 265.153 409.554 261.904C413.808 259.099 414.229 257.843 414.321 257.076C414.966 251.704 402.353 246.29 399.434 245.037Z" fill="#3E705B"/>
<path d="M410.775 271.097C410.877 271.374 394.685 281.715 372.59 282.199C349.89 282.696 332.873 272.529 332.968 272.245C345.361 278.055 358.903 280.999 372.59 280.859C385.877 280.424 398.909 277.093 410.775 271.097Z" fill="#3E705B"/>
<path d="M399.336 257.649C394.19 255.146 388.698 253.427 383.043 252.551C378.513 251.882 373.924 251.713 369.357 252.048C365.276 252.164 361.218 252.71 357.251 253.676C352.609 254.655 348.192 256.495 344.227 259.099C342.048 260.582 340.051 262.315 338.276 264.263C340.144 265.104 342.054 265.85 343.997 266.5C343.997 266.5 346.711 267.387 349.921 268.166C350.842 268.389 351.675 268.561 352.957 268.834C354.239 269.107 354.536 269.16 354.744 269.193C355.539 269.317 355.767 269.358 356.224 269.44C356.278 269.449 362.003 270.472 366.849 270.839C367.238 270.869 367.562 270.89 367.817 270.906C368.535 270.954 370.682 271.083 373.38 271.091C377.308 271.1 380.464 270.845 381.202 270.791C384.992 270.473 387.824 269.987 388.57 269.857C388.57 269.857 391.853 269.281 395.524 268.296C396.807 267.951 397.735 267.636 397.981 267.546C398.41 267.396 398.786 267.261 399.206 267.097C400.348 266.66 401.746 266.126 403.452 265.326C405.02 264.588 406.548 263.768 408.031 262.871C405.292 260.878 402.383 259.131 399.336 257.649Z" fill="#67C7EE"/>
<path d="M400.233 262.242C394.456 259.418 388.347 257.33 382.05 256.028C373.992 254.596 365.741 254.628 357.694 256.124C357.661 255.847 368.882 252.212 382.337 254.88C392.834 256.955 400.336 262.009 400.233 262.242Z" fill="#DEF0F8"/>
<path d="M393.873 262.673C388.957 260.538 383.798 259.012 378.512 258.127C373.951 257.485 369.34 257.279 364.74 257.514C369.326 256.58 374.045 256.512 378.656 257.313C384.05 258.006 389.236 259.833 393.873 262.673Z" fill="#DEF0F8"/>
<path d="M386.931 262.912C384.632 261.994 382.271 261.242 379.864 260.663C376.625 259.985 373.314 259.711 370.008 259.849C373.329 259.223 376.746 259.335 380.019 260.179C382.462 260.69 384.799 261.614 386.931 262.912Z" fill="#DEF0F8"/>
<path d="M420.767 249.731C420.674 246.493 420.226 243.275 419.431 240.135C417.487 232.884 402.361 206.797 373.825 205.965C348.158 205.216 332.344 227.175 328.591 233.223C325.372 239.103 323.47 245.614 323.018 252.302C322.966 253.996 323.027 255.692 323.201 257.378C323.325 258.732 323.533 260.077 323.823 261.405C324.084 263.159 324.673 264.848 325.56 266.384C326.192 267.372 327.026 268.213 328.008 268.854C328.711 269.411 329.52 269.821 330.385 270.058C331.251 270.295 332.155 270.355 333.044 270.233C333.51 270.179 333.957 270.023 334.355 269.775C334.752 269.526 335.089 269.193 335.341 268.798C335.562 268.18 335.58 267.508 335.391 266.879C335.202 266.25 334.817 265.699 334.292 265.305C333.86 265.011 333.375 264.807 332.863 264.705C331.759 264.387 331.311 264.521 330.11 264.15C329.676 264.054 329.28 263.833 328.969 263.516C328.689 263.159 328.517 262.729 328.476 262.278C328.104 260.412 327.876 258.82 327.738 257.616C327.35 254.304 327.383 250.955 327.837 247.651C327.863 247.532 327.881 247.445 327.894 247.385C328.942 243.542 330.515 239.863 332.568 236.45C349.296 210.421 373.93 211.256 373.93 211.256C396.975 212.038 410.836 232.465 414.336 241.065C416.282 246.23 416.789 251.827 415.804 257.258C415.294 260.61 414.921 261.744 414.004 262.534C413.041 263.209 411.95 263.68 410.799 263.921C409.18 264.425 408.428 264.392 407.784 265.141C407.312 265.728 407.081 266.472 407.137 267.222C407.187 267.668 407.332 268.098 407.563 268.483C407.795 268.867 408.107 269.197 408.478 269.449C409.13 269.845 409.892 270.021 410.652 269.953C411.408 269.903 412.151 269.737 412.856 269.461C413.554 269.243 414.236 268.976 414.897 268.662C415.86 268.093 416.713 267.354 417.414 266.482C418.9 264.612 419.174 262.688 419.599 259.402C420.381 253.365 420.767 250.35 420.767 249.731Z" fill="#ECAE44"/>
<path d="M374.11 204.001C369.011 203.962 363.962 205.009 359.299 207.072C358.877 207.276 358.425 207.546 358.425 207.546C358.222 207.653 358.028 207.779 357.847 207.92C357.013 208.782 359.398 214.604 360.958 214.329C361.099 214.305 361.15 214.245 361.832 213.991C361.832 213.991 362.432 213.769 363.192 213.541C364.995 212.974 366.828 212.503 368.681 212.128C371.788 211.656 374.95 211.687 378.047 212.219C381.188 212.715 384.239 213.668 387.105 215.047C387.573 215.302 388.056 215.529 388.552 215.727C388.672 215.784 388.798 215.83 388.926 215.864C390.252 215.976 391.972 209.904 391.168 209.276C391.151 209.262 391.06 209.21 390.879 209.103C390.376 208.803 390.009 208.603 389.997 208.597C385.09 205.948 379.673 204.381 374.11 204.001Z" fill="#D37F39"/>
<path d="M394.377 340.72L394.44 340.693C391.991 340.825 388.651 340.938 384.682 340.861C380.825 340.861 376.973 340.605 373.15 340.097C367.616 339.308 364.097 338.807 360.159 336.627C357.221 334.909 354.619 332.674 352.477 330.03C348.879 325.757 347.08 321.643 343.721 311.654C340.594 302.358 338.411 294.812 336.688 288.829C335.232 283.775 333.482 277.691 331.827 271.921C332.22 275.203 332.556 277.829 332.745 279.21C333.823 287.104 334.94 293.383 335.94 299.179C337.343 307.298 339.322 319.121 341.637 334.227C342.776 335.5 344.025 336.67 345.369 337.723C348.582 340.163 352.276 341.894 356.208 342.801C356.987 343.005 358.175 343.308 359.694 343.601C368.109 344.667 376.626 344.667 385.042 343.601C386.79 343.263 388.528 342.801 388.528 342.801C390.15 342.354 391.745 341.816 393.308 341.191C393.399 341.154 393.946 340.923 394.095 340.849C394.095 340.849 394.233 340.78 394.369 340.722L394.377 340.72Z" fill="#3E705B"/>
<path d="M397.546 291.248C398.021 292.137 398.294 293.119 398.347 294.125C398.645 295.46 398.534 296.854 398.028 298.125C397.439 299.122 396.568 299.922 395.524 300.423C394.48 300.925 393.31 301.105 392.164 300.941C390.701 300.731 389.364 299.995 388.404 298.871C387.709 297.933 387.255 296.839 387.08 295.685C386.906 294.531 387.017 293.352 387.403 292.251C387.603 291.628 388.528 288.716 390.95 288.09C392.007 287.888 393.102 288.028 394.074 288.49C395.519 288.974 396.748 289.95 397.546 291.248Z" fill="#1D1D1B"/>
<path d="M373.007 298.886C372.822 299.886 372.42 300.834 371.83 301.663C371.225 302.903 370.259 303.932 369.06 304.615C367.967 305.03 366.775 305.112 365.636 304.849C364.496 304.586 363.461 303.99 362.661 303.138C361.64 302.051 361.049 300.629 361 299.138C361.043 297.96 361.374 296.811 361.964 295.791C362.554 294.771 363.385 293.911 364.384 293.286C365.139 292.695 366.024 292.292 366.965 292.11C367.906 291.928 368.877 291.972 369.798 292.239C370.762 292.742 371.54 293.54 372.018 294.517C372.85 295.812 373.2 297.359 373.007 298.886Z" fill="#1D1D1B"/>
<path d="M370.177 326.088C369.395 325.479 368.757 324.704 368.307 323.821C367.506 322.738 367.051 321.439 367 320.093C367.134 318.96 367.601 317.893 368.343 317.026C369.084 316.159 370.065 315.532 371.163 315.223C372.564 314.83 374.06 314.96 375.372 315.589C376.369 316.158 377.213 316.963 377.828 317.933C378.443 318.903 378.812 320.009 378.901 321.154C379.072 322.073 379.021 323.02 378.754 323.916C378.487 324.813 378.011 325.633 377.366 326.309C376.496 326.913 375.456 327.225 374.397 327.199C372.904 327.334 371.41 326.941 370.177 326.088Z" fill="#1D1D1B"/>
<path d="M777.032 252.782C772.998 252.099 769.966 254.935 767.039 256.612C762.309 259.321 760.643 257.037 744.348 256.657C735.791 256.456 728.584 256.534 721.657 256.612C719.422 256.637 713.261 254.213 706.44 256.944C705.584 257.687 704.551 258.198 703.442 258.43C703.076 258.479 702.706 258.485 702.34 258.447C702.639 261.534 703.07 265.623 703.635 270.432C704.101 274.394 704.511 277.607 704.727 279.189C705.805 287.083 706.922 293.363 707.922 299.158C709.325 307.277 711.304 319.1 713.619 334.206C714.758 335.479 716.007 336.649 717.351 337.702C720.564 340.142 724.258 341.873 728.19 342.78C728.969 342.984 730.157 343.287 731.676 343.579C740.091 344.646 748.608 344.646 757.024 343.579C758.543 343.28 759.722 342.98 760.51 342.78C764.441 341.873 768.135 340.142 771.348 337.702C772.693 336.649 773.942 335.479 775.08 334.206C777.388 319.098 779.367 307.277 780.778 299.158C781.778 293.363 782.895 287.086 783.973 279.195C784.531 275.106 784.911 271.774 785.064 270.432C785.643 265.348 786.049 260.913 786.34 257.336C785.552 256.693 784.723 256.102 783.859 255.565C781.768 254.237 779.456 253.295 777.032 252.782Z" fill="#48AB85"/>
<path d="M771.434 245.037C765.488 242.574 759.189 241.072 752.772 240.585C747.022 239.975 741.223 239.999 735.48 240.659C729.271 241.096 723.181 242.576 717.463 245.037C711.63 247.695 701.352 253.977 702.407 258.877C702.517 259.381 702.966 260.903 709.49 263.906C715.457 266.593 721.762 268.452 728.232 269.434C733.89 270.493 739.631 271.045 745.387 271.083C752.079 271.123 758.751 270.376 765.269 268.858C771.061 267.506 776.572 265.153 781.554 261.904C785.808 259.099 786.229 257.843 786.321 257.076C786.966 251.704 774.353 246.29 771.434 245.037Z" fill="#3E705B"/>
<path d="M782.775 271.097C782.877 271.374 766.685 281.715 744.59 282.199C721.89 282.696 704.873 272.529 704.968 272.245C717.361 278.055 730.903 280.999 744.59 280.859C757.877 280.424 770.909 277.093 782.775 271.097Z" fill="#3E705B"/>
<path d="M771.336 257.649C766.19 255.146 760.698 253.427 755.043 252.551C750.513 251.882 745.924 251.713 741.357 252.048C737.276 252.164 733.218 252.71 729.251 253.676C724.609 254.655 720.192 256.495 716.227 259.099C714.048 260.582 712.051 262.315 710.276 264.263C712.144 265.104 714.054 265.85 715.997 266.5C715.997 266.5 718.711 267.387 721.921 268.166C722.842 268.389 723.675 268.561 724.957 268.834C726.239 269.107 726.536 269.16 726.744 269.193C727.539 269.317 727.767 269.358 728.224 269.44C728.278 269.449 734.003 270.472 738.849 270.839C739.238 270.869 739.562 270.89 739.817 270.906C740.535 270.954 742.682 271.083 745.38 271.091C749.308 271.1 752.464 270.845 753.202 270.791C756.992 270.473 759.824 269.987 760.57 269.857C760.57 269.857 763.853 269.281 767.524 268.296C768.807 267.951 769.735 267.636 769.981 267.546C770.41 267.396 770.786 267.261 771.206 267.097C772.348 266.66 773.746 266.126 775.452 265.326C777.02 264.588 778.548 263.768 780.031 262.871C777.292 260.878 774.383 259.131 771.336 257.649Z" fill="#67C7EE"/>
<path d="M772.233 262.242C766.456 259.418 760.347 257.33 754.05 256.028C745.992 254.596 737.741 254.628 729.694 256.124C729.661 255.847 740.882 252.212 754.337 254.88C764.834 256.955 772.336 262.009 772.233 262.242Z" fill="#DEF0F8"/>
<path d="M765.873 262.673C760.957 260.538 755.798 259.012 750.512 258.127C745.952 257.485 741.34 257.279 736.741 257.514C741.326 256.58 746.046 256.512 750.656 257.313C756.05 258.006 761.236 259.833 765.873 262.673Z" fill="#DEF0F8"/>
<path d="M758.931 262.912C756.632 261.994 754.271 261.242 751.864 260.663C748.625 259.985 745.314 259.711 742.008 259.849C745.329 259.223 748.746 259.335 752.019 260.179C754.462 260.69 756.799 261.614 758.931 262.912Z" fill="#DEF0F8"/>
<path d="M792.767 249.731C792.674 246.493 792.226 243.275 791.431 240.135C789.487 232.884 774.361 206.797 745.825 205.965C720.158 205.215 704.344 227.175 700.591 233.223C697.372 239.103 695.47 245.614 695.018 252.302C694.966 253.996 695.027 255.692 695.201 257.378C695.325 258.732 695.533 260.077 695.823 261.405C696.084 263.159 696.673 264.848 697.56 266.384C698.192 267.372 699.026 268.213 700.008 268.854C700.711 269.411 701.52 269.821 702.385 270.058C703.251 270.295 704.155 270.355 705.044 270.233C705.51 270.179 705.957 270.023 706.355 269.775C706.752 269.526 707.089 269.193 707.341 268.798C707.562 268.18 707.58 267.508 707.391 266.879C707.202 266.25 706.817 265.699 706.292 265.305C705.86 265.011 705.375 264.807 704.863 264.705C703.759 264.387 703.311 264.521 702.11 264.15C701.676 264.054 701.28 263.833 700.969 263.516C700.689 263.159 700.517 262.729 700.476 262.278C700.104 260.412 699.876 258.82 699.738 257.616C699.35 254.304 699.383 250.955 699.837 247.651C699.863 247.531 699.881 247.444 699.894 247.385C700.942 243.542 702.515 239.863 704.568 236.45C721.296 210.421 745.93 211.256 745.93 211.256C768.975 212.037 782.836 232.465 786.336 241.065C788.282 246.23 788.789 251.827 787.804 257.258C787.294 260.61 786.921 261.744 786.004 262.534C785.041 263.208 783.95 263.68 782.799 263.921C781.18 264.425 780.428 264.392 779.784 265.141C779.312 265.728 779.081 266.472 779.137 267.222C779.187 267.668 779.332 268.098 779.563 268.483C779.795 268.867 780.107 269.197 780.478 269.449C781.13 269.845 781.892 270.021 782.652 269.953C783.408 269.903 784.151 269.737 784.856 269.461C785.554 269.243 786.236 268.976 786.897 268.662C787.86 268.093 788.713 267.354 789.414 266.482C790.9 264.612 791.174 262.688 791.599 259.402C792.381 253.365 792.767 250.35 792.767 249.731Z" fill="#ECAE44"/>
<path d="M746.11 204.001C741.011 203.962 735.962 205.009 731.299 207.072C730.877 207.276 730.425 207.546 730.425 207.546C730.222 207.653 730.028 207.779 729.847 207.92C729.013 208.782 731.398 214.604 732.958 214.329C733.099 214.305 733.15 214.245 733.832 213.991C733.832 213.991 734.432 213.769 735.192 213.541C736.995 212.974 738.828 212.503 740.681 212.128C743.788 211.656 746.95 211.687 750.047 212.219C753.188 212.715 756.239 213.668 759.105 215.047C759.573 215.302 760.056 215.529 760.552 215.727C760.672 215.784 760.798 215.83 760.926 215.864C762.252 215.976 763.972 209.904 763.168 209.276C763.151 209.262 763.06 209.21 762.879 209.103C762.376 208.803 762.009 208.603 761.997 208.597C757.09 205.948 751.673 204.381 746.11 204.001Z" fill="#D37F39"/>
<path d="M766.377 340.72L766.44 340.693C763.991 340.825 760.651 340.938 756.682 340.861C752.825 340.861 748.973 340.605 745.15 340.097C739.616 339.308 736.097 338.807 732.159 336.627C729.221 334.909 726.619 332.674 724.477 330.03C720.879 325.757 719.08 321.643 715.721 311.654C712.594 302.358 710.411 294.812 708.688 288.829C707.232 283.775 705.482 277.691 703.827 271.921C704.22 275.203 704.556 277.829 704.745 279.21C705.823 287.104 706.94 293.383 707.94 299.179C709.343 307.298 711.322 319.121 713.637 334.227C714.776 335.5 716.025 336.67 717.369 337.723C720.582 340.163 724.276 341.894 728.208 342.801C728.987 343.005 730.175 343.308 731.694 343.601C740.109 344.667 748.626 344.667 757.042 343.601C758.79 343.263 760.528 342.801 760.528 342.801C762.15 342.354 763.745 341.816 765.308 341.191C765.399 341.154 765.946 340.923 766.095 340.849C766.095 340.849 766.233 340.78 766.369 340.722L766.377 340.72Z" fill="#3E705B"/>
<path d="M726.953 293.886C726.784 294.886 726.418 295.834 725.88 296.663C725.327 297.903 724.446 298.932 723.352 299.615C722.355 300.03 721.268 300.112 720.229 299.849C719.189 299.586 718.245 298.99 717.515 298.138C716.583 297.051 716.045 295.629 716 294.138C716.039 292.96 716.341 291.811 716.879 290.791C717.417 289.771 718.175 288.911 719.087 288.286C719.776 287.695 720.583 287.292 721.441 287.11C722.3 286.928 723.186 286.972 724.026 287.239C724.905 287.742 725.614 288.54 726.051 289.517C726.81 290.812 727.129 292.359 726.953 293.886Z" fill="#1D1D1B"/>
<path d="M770.31 295.646C769.583 296.311 768.7 296.825 767.725 297.152C766.502 297.785 765.094 298.075 763.683 297.983C762.516 297.742 761.456 297.197 760.637 296.418C759.818 295.639 759.277 294.66 759.083 293.606C758.836 292.264 759.145 290.889 759.951 289.735C760.659 288.864 761.595 288.161 762.677 287.686C763.76 287.212 764.956 286.982 766.162 287.015C767.142 286.951 768.125 287.096 769.03 287.437C769.935 287.778 770.735 288.306 771.367 288.978C771.898 289.849 772.103 290.848 771.952 291.831C771.922 293.235 771.341 294.585 770.31 295.646Z" fill="#1D1D1B"/>
<path d="M735.621 323.262C736.408 322.746 737.296 322.413 738.224 322.287C739.438 321.904 740.738 321.904 741.953 322.287C742.92 322.771 743.725 323.536 744.265 324.487C744.806 325.437 745.058 326.53 744.989 327.627C744.902 329.026 744.318 330.345 743.347 331.337C742.528 332.063 741.548 332.574 740.491 332.824C739.434 333.075 738.333 333.057 737.285 332.773C736.695 332.633 733.927 331.974 733.17 329.737C732.904 328.753 732.951 327.707 733.306 326.752C733.652 325.348 734.472 324.112 735.621 323.262Z" fill="#1D1D1B"/>
<path d="M764.177 318.885C763.395 318.286 762.757 317.526 762.307 316.659C761.506 315.596 761.051 314.32 761 312.999C761.134 311.887 761.601 310.84 762.343 309.989C763.084 309.138 764.065 308.522 765.163 308.219C766.564 307.833 768.06 307.961 769.372 308.578C770.369 309.137 771.213 309.926 771.828 310.879C772.443 311.831 772.812 312.916 772.901 314.041C773.072 314.943 773.021 315.873 772.754 316.752C772.487 317.632 772.011 318.437 771.366 319.101C770.496 319.694 769.456 320 768.397 319.974C766.904 320.107 765.41 319.722 764.177 318.885Z" fill="#1D1D1B"/>
<path d="M736.039 318.968C735.124 319.063 734.2 318.948 733.333 318.632C732.103 318.41 730.967 317.809 730.072 316.906C729.436 316.028 729.066 314.974 729.008 313.878C728.95 312.781 729.206 311.691 729.745 310.746C730.432 309.54 731.518 308.636 732.802 308.203C733.834 307.935 734.914 307.932 735.947 308.197C736.98 308.461 737.936 308.984 738.73 309.719C739.433 310.246 740.006 310.94 740.4 311.742C740.795 312.544 741 313.431 741 314.332C740.804 315.331 740.306 316.24 739.579 316.925C738.666 318.016 737.413 318.739 736.039 318.968Z" fill="#1D1D1B"/>
<path d="M748.684 303.105C749.6 303.332 750.455 303.751 751.188 304.334C752.301 304.956 753.197 305.891 753.758 307.018C754.077 308.033 754.081 309.118 753.768 310.134C753.456 311.151 752.841 312.054 752.003 312.729C750.934 313.59 749.58 314.041 748.195 313.997C747.107 313.888 746.062 313.52 745.153 312.926C744.244 312.332 743.497 311.529 742.979 310.587C742.477 309.868 742.156 309.043 742.044 308.179C741.933 307.315 742.032 306.437 742.336 305.619C742.863 304.777 743.651 304.121 744.586 303.746C745.834 303.072 747.283 302.845 748.684 303.105Z" fill="#1D1D1B"/>
<path d="M157.03 252.781C152.996 252.097 149.964 254.934 147.037 256.61C142.307 259.319 140.641 257.036 124.347 256.655C115.79 256.454 108.583 256.532 101.656 256.61C99.4209 256.636 93.2603 254.211 86.44 256.943C85.5832 257.686 84.5511 258.197 83.4413 258.429C83.076 258.478 82.706 258.483 82.3394 258.445C82.6392 261.532 83.0695 265.621 83.6348 270.431C84.101 274.392 84.5103 277.605 84.7262 279.187C85.8042 287.081 86.9212 293.361 87.9213 299.156C89.3246 307.275 91.3037 319.097 93.6186 334.202C94.7573 335.475 96.0061 336.645 97.3504 337.699C100.564 340.139 104.258 341.869 108.189 342.777C108.969 342.981 110.156 343.284 111.675 343.576C120.09 344.642 128.607 344.642 137.022 343.576C138.541 343.276 139.721 342.976 140.508 342.777C144.439 341.869 148.133 340.139 151.346 337.699C152.691 336.645 153.939 335.475 155.078 334.202C157.386 319.095 159.365 307.275 160.775 299.156C161.776 293.361 162.892 287.084 163.97 279.193C164.528 275.104 164.909 271.773 165.062 270.431C165.641 265.347 166.047 260.912 166.338 257.334C165.55 256.692 164.721 256.1 163.857 255.564C161.765 254.236 159.454 253.294 157.03 252.781Z" fill="#48AB85"/>
<path d="M151.432 245.036C145.486 242.573 139.187 241.071 132.77 240.584C127.021 239.974 121.222 239.998 115.478 240.658C109.27 241.095 103.18 242.575 97.4628 245.036C91.629 247.694 81.3513 253.976 82.4068 258.876C82.5163 259.379 82.9661 260.901 89.4895 263.904C95.4561 266.591 101.761 268.451 108.231 269.432C113.889 270.491 119.63 271.043 125.386 271.081C132.077 271.121 138.75 270.374 145.267 268.856C151.059 267.504 156.57 265.151 161.552 261.903C165.806 259.097 166.227 257.841 166.318 257.075C166.963 251.703 154.351 246.289 151.432 245.036Z" fill="#3E705B"/>
<path d="M162.773 271.095C162.875 271.372 146.684 281.713 124.588 282.197C101.889 282.694 84.8732 272.527 84.9677 272.243C97.3602 278.053 110.902 280.997 124.588 280.857C137.875 280.422 150.907 277.091 162.773 271.095Z" fill="#3E705B"/>
<path d="M151.334 257.648C146.189 255.144 140.697 253.426 135.042 252.55C130.512 251.88 125.922 251.711 121.356 252.046C117.275 252.163 113.217 252.708 109.25 253.675C104.609 254.654 100.191 256.493 96.226 259.098C94.0477 260.581 92.0505 262.314 90.2753 264.261C92.1437 265.102 94.0532 265.849 95.9966 266.498C95.9966 266.498 98.7104 267.386 101.92 268.164C102.841 268.387 103.675 268.56 104.956 268.833C106.238 269.105 106.535 269.158 106.744 269.191C107.538 269.315 107.766 269.356 108.223 269.438C108.277 269.447 114.002 270.47 118.848 270.837C119.237 270.867 119.561 270.888 119.816 270.905C120.534 270.953 122.681 271.082 125.378 271.089C129.307 271.098 132.463 270.843 133.2 270.789C136.991 270.471 139.823 269.986 140.568 269.855C140.568 269.855 143.851 269.279 147.522 268.294C148.805 267.949 149.733 267.635 149.979 267.545C150.408 267.395 150.784 267.26 151.204 267.095C152.346 266.659 153.744 266.125 155.45 265.324C157.018 264.586 158.546 263.767 160.029 262.87C157.29 260.877 154.381 259.129 151.334 257.648Z" fill="#67C7EE"/>
<path d="M152.231 262.24C146.454 259.416 140.346 257.329 134.049 256.027C125.99 254.595 117.74 254.627 109.693 256.123C109.66 255.846 120.881 252.211 134.335 254.879C144.832 256.954 152.334 262.008 152.231 262.24Z" fill="#DEF0F8"/>
<path d="M145.871 262.672C140.955 260.537 135.797 259.01 130.511 258.126C125.95 257.483 121.339 257.278 116.74 257.513C121.325 256.579 126.044 256.511 130.655 257.312C136.048 258.005 141.234 259.832 145.871 262.672Z" fill="#DEF0F8"/>
<path d="M138.929 262.91C136.631 261.992 134.269 261.241 131.863 260.661C128.624 259.983 125.313 259.71 122.006 259.847C125.327 259.221 128.745 259.334 132.017 260.177C134.46 260.688 136.797 261.613 138.929 262.91Z" fill="#DEF0F8"/>
<path d="M172.764 249.73C172.672 246.492 172.224 243.274 171.428 240.134C169.485 232.884 154.358 206.797 125.824 205.965C100.157 205.215 84.344 227.174 80.5912 233.223C77.3716 239.103 75.47 245.613 75.0183 252.301C74.9656 253.995 75.0267 255.691 75.2012 257.376C75.3249 258.73 75.5328 260.075 75.8234 261.403C76.0842 263.157 76.6732 264.847 77.5596 266.383C78.1915 267.37 79.0261 268.212 80.008 268.852C80.711 269.41 81.5196 269.819 82.3851 270.056C83.2505 270.293 84.155 270.353 85.0441 270.231C85.5095 270.178 85.957 270.021 86.3543 269.773C86.7516 269.525 87.0887 269.191 87.3411 268.797C87.5621 268.178 87.5794 267.506 87.3905 266.877C87.2017 266.249 86.8166 265.697 86.2916 265.303C85.8602 265.01 85.3743 264.806 84.8627 264.703C83.7592 264.386 83.3109 264.519 82.11 264.149C81.6763 264.052 81.28 263.832 80.969 263.514C80.6885 263.158 80.5172 262.728 80.4757 262.276C80.1039 260.411 79.876 258.819 79.7381 257.615C79.3499 254.302 79.3831 250.954 79.837 247.65C79.8625 247.53 79.8805 247.443 79.894 247.383C80.9421 243.541 82.5146 239.862 84.5674 236.449C101.295 210.421 125.929 211.256 125.929 211.256C148.973 212.037 162.834 232.464 166.333 241.064C168.279 246.229 168.786 251.825 167.801 257.256C167.291 260.609 166.918 261.742 166.002 262.532C165.039 263.207 163.948 263.679 162.797 263.919C161.177 264.423 160.426 264.39 159.781 265.14C159.31 265.726 159.079 266.47 159.135 267.221C159.184 267.667 159.33 268.097 159.561 268.481C159.792 268.866 160.104 269.195 160.476 269.447C161.128 269.843 161.89 270.02 162.65 269.951C163.405 269.902 164.149 269.736 164.854 269.459C165.552 269.241 166.234 268.974 166.894 268.66C167.858 268.091 168.711 267.353 169.411 266.48C170.897 264.61 171.172 262.687 171.596 259.4C172.379 253.364 172.764 250.349 172.764 249.73Z" fill="#ECAE44"/>
<path d="M126.109 204.001C121.01 203.962 115.961 205.009 111.299 207.072C110.876 207.276 110.424 207.545 110.424 207.545C110.221 207.653 110.027 207.778 109.846 207.92C109.012 208.782 111.397 214.604 112.957 214.328C113.098 214.304 113.149 214.244 113.831 213.991C113.831 213.991 114.431 213.769 115.191 213.541C116.994 212.974 118.827 212.502 120.68 212.127C123.786 211.656 126.949 211.687 130.046 212.219C133.187 212.715 136.238 213.668 139.103 215.046C139.571 215.302 140.055 215.529 140.55 215.727C140.671 215.784 140.796 215.829 140.925 215.864C142.25 215.976 143.97 209.904 143.166 209.276C143.15 209.262 143.058 209.21 142.877 209.103C142.375 208.803 142.007 208.602 141.995 208.596C137.089 205.948 131.672 204.381 126.109 204.001Z" fill="#D37F39"/>
<path d="M146.375 340.717L146.438 340.69C143.989 340.822 140.649 340.934 136.68 340.858C132.824 340.857 128.972 340.602 125.149 340.093C119.615 339.304 116.096 338.804 112.158 336.624C109.221 334.906 106.618 332.671 104.477 330.027C100.878 325.754 99.0792 321.64 95.7208 311.651C92.5932 302.355 90.4102 294.809 88.6875 288.827C87.2317 283.773 85.482 277.689 83.8268 271.92C84.2196 275.202 84.5554 277.827 84.7444 279.208C85.8224 287.102 86.9393 293.381 87.9394 299.177C89.3427 307.296 91.3218 319.118 93.6367 334.223C94.7754 335.496 96.0242 336.666 97.3685 337.72C100.582 340.16 104.276 341.89 108.207 342.798C108.987 343.002 110.174 343.304 111.693 343.597C120.108 344.663 128.625 344.663 137.04 343.597C138.788 343.259 140.526 342.798 140.526 342.798C142.148 342.35 143.744 341.813 145.306 341.187C145.397 341.15 145.944 340.919 146.093 340.846C146.093 340.846 146.231 340.777 146.367 340.718L146.375 340.717Z" fill="#3E705B"/>
<path d="M143.546 299.248C144.021 300.137 144.294 301.119 144.347 302.125C144.645 303.46 144.534 304.854 144.028 306.125C143.439 307.122 142.568 307.922 141.524 308.423C140.48 308.925 139.31 309.105 138.164 308.941C136.701 308.731 135.364 307.995 134.404 306.871C133.709 305.933 133.255 304.839 133.08 303.685C132.906 302.531 133.017 301.352 133.403 300.251C133.603 299.628 134.528 296.716 136.95 296.09C138.007 295.888 139.102 296.028 140.074 296.49C141.519 296.974 142.748 297.95 143.546 299.248Z" fill="#1D1D1B"/>
<path d="M280.756 252.781C276.735 252.097 273.714 254.934 270.797 256.61C266.082 259.319 264.422 257.036 248.182 256.655C239.654 256.454 232.471 256.532 225.568 256.61C223.34 256.636 217.199 254.211 210.402 256.943C209.548 257.686 208.519 258.197 207.413 258.429C207.049 258.478 206.68 258.483 206.315 258.445C206.614 261.532 207.043 265.621 207.606 270.431C208.071 274.392 208.479 277.605 208.694 279.187C209.768 287.081 210.882 293.361 211.878 299.156C213.277 307.275 215.249 319.097 217.557 334.202C218.691 335.475 219.936 336.645 221.276 337.699C224.478 340.139 228.16 341.869 232.078 342.777C232.855 342.981 234.039 343.284 235.552 343.576C243.94 344.642 252.428 344.642 260.815 343.576C262.329 343.276 263.505 342.976 264.289 342.777C268.207 341.869 271.889 340.139 275.092 337.699C276.431 336.645 277.676 335.475 278.811 334.202C281.111 319.095 283.083 307.275 284.489 299.156C285.486 293.361 286.599 287.084 287.674 279.193C288.229 275.104 288.609 271.773 288.761 270.431C289.338 265.347 289.743 260.912 290.033 257.334C289.247 256.692 288.421 256.1 287.56 255.564C285.476 254.236 283.172 253.294 280.756 252.781Z" fill="#48AB85"/>
<path d="M275.177 245.036C269.251 242.573 262.973 241.071 256.577 240.584C250.847 239.974 245.068 239.998 239.343 240.658C233.156 241.095 227.086 242.575 221.388 245.036C215.574 247.694 205.33 253.976 206.382 258.876C206.491 259.379 206.94 260.901 213.441 263.904C219.388 266.591 225.672 268.451 232.12 269.432C237.759 270.491 243.481 271.043 249.218 271.081C255.887 271.121 262.537 270.374 269.032 268.856C274.805 267.504 280.298 265.151 285.263 261.903C289.503 259.097 289.922 257.841 290.014 257.075C290.656 251.703 278.086 246.289 275.177 245.036Z" fill="#3E705B"/>
<path d="M286.48 271.095C286.581 271.372 270.444 281.713 248.423 282.197C225.799 282.694 208.84 272.527 208.934 272.243C221.286 278.053 234.782 280.997 248.423 280.857C261.665 280.422 274.654 277.091 286.48 271.095Z" fill="#3E705B"/>
<path d="M275.08 257.648C269.951 255.144 264.477 253.426 258.841 252.55C254.327 251.88 249.752 251.711 245.201 252.046C241.134 252.163 237.09 252.708 233.136 253.675C228.51 254.654 224.107 256.493 220.155 259.098C217.984 260.581 215.994 262.314 214.224 264.261C216.086 265.102 217.99 265.849 219.926 266.498C219.926 266.498 222.631 267.386 225.83 268.164C226.748 268.387 227.579 268.56 228.856 268.833C230.134 269.105 230.43 269.158 230.638 269.191C231.43 269.315 231.657 269.356 232.113 269.438C232.166 269.447 237.872 270.47 242.701 270.837C243.09 270.867 243.412 270.888 243.666 270.905C244.382 270.953 246.522 271.082 249.21 271.089C253.125 271.098 256.271 270.843 257.006 270.789C260.784 270.471 263.606 269.986 264.349 269.855C264.349 269.855 267.622 269.279 271.28 268.294C272.559 267.949 273.484 267.635 273.729 267.545C274.156 267.395 274.531 267.26 274.95 267.095C276.088 266.659 277.481 266.125 279.181 265.324C280.744 264.586 282.267 263.767 283.745 262.87C281.015 260.877 278.116 259.129 275.08 257.648Z" fill="#67C7EE"/>
<path d="M275.973 262.24C270.216 259.416 264.128 257.329 257.852 256.027C249.82 254.595 241.597 254.627 233.577 256.123C233.544 255.846 244.727 252.211 258.137 254.879C268.599 256.954 276.076 262.008 275.973 262.24Z" fill="#DEF0F8"/>
<path d="M269.634 262.672C264.735 260.537 259.594 259.01 254.325 258.126C249.78 257.483 245.184 257.278 240.6 257.513C245.17 256.579 249.874 256.511 254.469 257.312C259.844 258.005 265.013 259.832 269.634 262.672Z" fill="#DEF0F8"/>
<path d="M262.716 262.91C260.425 261.992 258.071 261.241 255.673 260.661C252.445 259.983 249.145 259.71 245.85 259.847C249.159 259.221 252.566 259.334 255.827 260.177C258.262 260.688 260.591 261.613 262.716 262.91Z" fill="#DEF0F8"/>
<path d="M296.438 249.73C296.346 246.492 295.899 243.274 295.106 240.134C293.17 232.884 278.094 206.797 249.654 205.965C224.073 205.215 208.313 227.174 204.573 233.223C201.364 239.103 199.468 245.613 199.018 252.301C198.966 253.995 199.027 255.691 199.201 257.376C199.324 258.73 199.531 260.075 199.821 261.403C200.081 263.157 200.668 264.847 201.551 266.383C202.181 267.37 203.013 268.212 203.991 268.852C204.692 269.41 205.498 269.819 206.36 270.056C207.223 270.293 208.124 270.353 209.011 270.231C209.474 270.178 209.92 270.021 210.316 269.773C210.712 269.525 211.048 269.191 211.3 268.797C211.52 268.178 211.537 267.506 211.349 266.877C211.161 266.249 210.777 265.697 210.254 265.303C209.824 265.01 209.34 264.806 208.83 264.703C207.73 264.386 207.283 264.519 206.086 264.149C205.654 264.052 205.259 263.832 204.949 263.514C204.67 263.158 204.499 262.728 204.457 262.276C204.087 260.411 203.86 258.819 203.722 257.615C203.335 254.302 203.369 250.954 203.821 247.65C203.846 247.53 203.864 247.443 203.878 247.383C204.922 243.541 206.49 239.862 208.535 236.449C225.207 210.421 249.759 211.256 249.759 211.256C272.726 212.037 286.541 232.464 290.029 241.064C291.968 246.229 292.473 251.825 291.491 257.256C290.983 260.609 290.611 261.742 289.698 262.532C288.738 263.207 287.651 263.679 286.504 263.919C284.89 264.423 284.141 264.39 283.498 265.14C283.029 265.726 282.798 266.47 282.854 267.221C282.903 267.667 283.048 268.097 283.279 268.481C283.509 268.866 283.82 269.195 284.19 269.447C284.84 269.843 285.6 270.02 286.357 269.951C287.11 269.902 287.851 269.736 288.554 269.459C289.25 269.241 289.929 268.974 290.587 268.66C291.548 268.091 292.398 267.353 293.096 266.48C294.577 264.61 294.851 262.687 295.274 259.4C296.054 253.364 296.438 250.349 296.438 249.73Z" fill="#ECAE44"/>
<path d="M249.938 204.001C244.856 203.962 239.825 205.009 235.177 207.072C234.756 207.276 234.306 207.545 234.306 207.545C234.103 207.653 233.91 207.778 233.729 207.92C232.899 208.782 235.276 214.604 236.83 214.328C236.971 214.304 237.021 214.244 237.701 213.991C237.701 213.991 238.299 213.769 239.057 213.541C240.854 212.974 242.68 212.502 244.527 212.127C247.624 211.656 250.775 211.687 253.862 212.219C256.992 212.715 260.033 213.668 262.889 215.046C263.356 215.302 263.837 215.529 264.331 215.727C264.451 215.784 264.576 215.829 264.705 215.864C266.026 215.976 267.74 209.904 266.939 209.276C266.922 209.262 266.831 209.21 266.65 209.103C266.15 208.803 265.784 208.602 265.772 208.596C260.881 205.948 255.482 204.381 249.938 204.001Z" fill="#D37F39"/>
<path d="M270.136 340.717L270.199 340.69C267.759 340.822 264.43 340.934 260.474 340.858C256.631 340.857 252.792 340.602 248.982 340.093C243.466 339.304 239.959 338.804 236.034 336.624C233.106 334.906 230.513 332.671 228.378 330.027C224.792 325.754 222.999 321.64 219.652 311.651C216.534 302.355 214.359 294.809 212.642 288.827C211.191 283.773 209.447 277.689 207.797 271.92C208.189 275.202 208.523 277.827 208.712 279.208C209.786 287.102 210.899 293.381 211.896 299.177C213.295 307.296 215.267 319.118 217.574 334.223C218.709 335.496 219.954 336.666 221.294 337.72C224.496 340.16 228.178 341.89 232.096 342.798C232.873 343.002 234.057 343.304 235.57 343.597C243.958 344.663 252.446 344.663 260.833 343.597C262.575 343.259 264.307 342.798 264.307 342.798C265.924 342.35 267.514 341.813 269.071 341.187C269.162 341.15 269.708 340.919 269.856 340.846C269.856 340.846 269.993 340.777 270.129 340.718L270.136 340.717Z" fill="#3E705B"/>
<path d="M250.007 316.886C249.822 317.886 249.42 318.834 248.83 319.663C248.225 320.903 247.259 321.932 246.06 322.615C244.967 323.03 243.775 323.112 242.636 322.849C241.496 322.586 240.461 321.99 239.661 321.138C238.64 320.051 238.049 318.629 238 317.138C238.043 315.96 238.374 314.811 238.964 313.791C239.554 312.771 240.385 311.911 241.384 311.286C242.139 310.695 243.024 310.292 243.965 310.11C244.906 309.928 245.877 309.972 246.798 310.239C247.762 310.742 248.54 311.54 249.018 312.517C249.85 313.812 250.2 315.359 250.007 316.886Z" fill="#1D1D1B"/>
<path d="M238.177 300.088C237.395 299.479 236.757 298.704 236.307 297.821C235.506 296.738 235.051 295.439 235 294.093C235.134 292.96 235.601 291.893 236.343 291.026C237.084 290.159 238.065 289.532 239.163 289.223C240.564 288.83 242.06 288.96 243.372 289.589C244.369 290.158 245.213 290.963 245.828 291.933C246.443 292.903 246.812 294.009 246.901 295.154C247.072 296.073 247.021 297.02 246.754 297.916C246.487 298.813 246.011 299.633 245.366 300.309C244.496 300.913 243.456 301.225 242.397 301.199C240.904 301.334 239.41 300.941 238.177 300.088Z" fill="#1D1D1B"/>
<path d="M529.03 252.781C524.996 252.097 521.964 254.934 519.037 256.61C514.307 259.319 512.641 257.036 496.347 256.655C487.79 256.454 480.583 256.532 473.656 256.61C471.421 256.636 465.26 254.211 458.44 256.943C457.583 257.686 456.551 258.197 455.441 258.429C455.076 258.478 454.706 258.483 454.339 258.445C454.639 261.532 455.07 265.621 455.635 270.431C456.101 274.392 456.51 277.605 456.726 279.187C457.804 287.081 458.921 293.361 459.921 299.156C461.325 307.275 463.304 319.097 465.619 334.202C466.757 335.475 468.006 336.645 469.35 337.699C472.564 340.139 476.258 341.869 480.189 342.777C480.969 342.981 482.156 343.284 483.675 343.576C492.09 344.642 500.607 344.642 509.022 343.576C510.541 343.276 511.721 342.976 512.508 342.777C516.439 341.869 520.133 340.139 523.346 337.699C524.691 336.645 525.939 335.475 527.078 334.202C529.386 319.095 531.365 307.275 532.775 299.156C533.776 293.361 534.892 287.084 535.97 279.193C536.528 275.104 536.909 271.773 537.062 270.431C537.641 265.347 538.047 260.912 538.338 257.334C537.55 256.692 536.721 256.1 535.857 255.564C533.765 254.236 531.454 253.294 529.03 252.781Z" fill="#48AB85"/>
<path d="M523.432 245.036C517.486 242.573 511.187 241.071 504.77 240.584C499.021 239.974 493.222 239.998 487.478 240.658C481.27 241.095 475.18 242.575 469.463 245.036C463.629 247.694 453.351 253.976 454.407 258.876C454.516 259.379 454.966 260.901 461.49 263.904C467.456 266.591 473.761 268.451 480.231 269.432C485.889 270.491 491.63 271.043 497.386 271.081C504.077 271.121 510.75 270.374 517.267 268.856C523.059 267.504 528.57 265.151 533.552 261.903C537.806 259.097 538.227 257.841 538.318 257.075C538.963 251.703 526.351 246.289 523.432 245.036Z" fill="#3E705B"/>
<path d="M534.773 271.095C534.875 271.372 518.684 281.713 496.588 282.197C473.889 282.694 456.873 272.527 456.968 272.243C469.36 278.053 482.902 280.997 496.588 280.857C509.875 280.422 522.907 277.091 534.773 271.095Z" fill="#3E705B"/>
<path d="M523.334 257.648C518.189 255.144 512.697 253.426 507.042 252.55C502.512 251.88 497.922 251.711 493.356 252.046C489.275 252.163 485.217 252.708 481.25 253.675C476.609 254.654 472.191 256.493 468.226 259.098C466.048 260.581 464.051 262.314 462.275 264.261C464.144 265.102 466.053 265.849 467.997 266.498C467.997 266.498 470.71 267.386 473.92 268.164C474.841 268.387 475.675 268.56 476.956 268.833C478.238 269.105 478.535 269.158 478.744 269.191C479.538 269.315 479.766 269.356 480.223 269.438C480.277 269.447 486.002 270.47 490.848 270.837C491.237 270.867 491.561 270.888 491.816 270.905C492.534 270.953 494.681 271.082 497.378 271.089C501.307 271.098 504.463 270.843 505.2 270.789C508.991 270.471 511.823 269.986 512.568 269.855C512.568 269.855 515.851 269.279 519.522 268.294C520.805 267.949 521.733 267.635 521.979 267.545C522.408 267.395 522.784 267.26 523.204 267.095C524.346 266.659 525.744 266.125 527.45 265.324C529.018 264.586 530.546 263.767 532.029 262.87C529.29 260.877 526.381 259.129 523.334 257.648Z" fill="#67C7EE"/>
<path d="M524.231 262.24C518.454 259.416 512.346 257.329 506.049 256.027C497.99 254.595 489.74 254.627 481.693 256.123C481.66 255.846 492.881 252.211 506.335 254.879C516.832 256.954 524.334 262.008 524.231 262.24Z" fill="#DEF0F8"/>
<path d="M517.871 262.672C512.955 260.537 507.797 259.01 502.511 258.126C497.95 257.483 493.339 257.278 488.74 257.513C493.325 256.579 498.044 256.511 502.655 257.312C508.048 258.005 513.234 259.832 517.871 262.672Z" fill="#DEF0F8"/>
<path d="M510.929 262.91C508.631 261.992 506.269 261.241 503.863 260.661C500.624 259.983 497.313 259.71 494.006 259.847C497.327 259.221 500.745 259.334 504.017 260.177C506.46 260.688 508.797 261.613 510.929 262.91Z" fill="#DEF0F8"/>
<path d="M544.764 249.73C544.672 246.492 544.224 243.274 543.428 240.134C541.485 232.884 526.358 206.797 497.824 205.965C472.157 205.215 456.344 227.174 452.591 233.223C449.372 239.103 447.47 245.613 447.018 252.301C446.966 253.995 447.027 255.691 447.201 257.376C447.325 258.73 447.533 260.075 447.823 261.403C448.084 263.157 448.673 264.847 449.56 266.383C450.191 267.37 451.026 268.212 452.008 268.852C452.711 269.41 453.52 269.819 454.385 270.056C455.251 270.293 456.155 270.353 457.044 270.231C457.509 270.178 457.957 270.021 458.354 269.773C458.752 269.525 459.089 269.191 459.341 268.797C459.562 268.178 459.579 267.506 459.391 266.877C459.202 266.249 458.817 265.697 458.292 265.303C457.86 265.01 457.374 264.806 456.863 264.703C455.759 264.386 455.311 264.519 454.11 264.149C453.676 264.052 453.28 263.832 452.969 263.514C452.689 263.158 452.517 262.728 452.476 262.276C452.104 260.411 451.876 258.819 451.738 257.615C451.35 254.302 451.383 250.954 451.837 247.65C451.863 247.53 451.881 247.443 451.894 247.383C452.942 243.541 454.515 239.862 456.567 236.449C473.295 210.421 497.929 211.256 497.929 211.256C520.973 212.037 534.834 232.464 538.333 241.064C540.279 246.229 540.786 251.825 539.801 257.256C539.291 260.609 538.918 261.742 538.002 262.532C537.039 263.207 535.948 263.679 534.797 263.919C533.177 264.423 532.426 264.39 531.781 265.14C531.31 265.726 531.079 266.47 531.135 267.221C531.184 267.667 531.33 268.097 531.561 268.481C531.792 268.866 532.104 269.195 532.476 269.447C533.128 269.843 533.89 270.02 534.65 269.951C535.405 269.902 536.149 269.736 536.854 269.459C537.552 269.241 538.234 268.974 538.894 268.66C539.858 268.091 540.711 267.353 541.411 266.48C542.897 264.61 543.172 262.687 543.596 259.4C544.379 253.364 544.764 250.349 544.764 249.73Z" fill="#ECAE44"/>
<path d="M498.109 204.001C493.01 203.962 487.961 205.009 483.299 207.072C482.876 207.276 482.424 207.545 482.424 207.545C482.221 207.653 482.027 207.778 481.846 207.92C481.012 208.782 483.397 214.604 484.957 214.328C485.098 214.304 485.149 214.244 485.831 213.991C485.831 213.991 486.431 213.769 487.191 213.541C488.994 212.974 490.827 212.502 492.68 212.127C495.786 211.656 498.949 211.687 502.046 212.219C505.187 212.715 508.238 213.668 511.103 215.046C511.571 215.302 512.055 215.529 512.55 215.727C512.671 215.784 512.796 215.829 512.925 215.864C514.25 215.976 515.97 209.904 515.166 209.276C515.15 209.262 515.058 209.21 514.877 209.103C514.375 208.803 514.007 208.602 513.995 208.596C509.089 205.948 503.672 204.381 498.109 204.001Z" fill="#D37F39"/>
<path d="M518.375 340.717L518.438 340.69C515.989 340.822 512.649 340.934 508.68 340.858C504.824 340.857 500.972 340.602 497.149 340.093C491.615 339.304 488.096 338.804 484.158 336.624C481.221 334.906 478.618 332.671 476.477 330.027C472.878 325.754 471.079 321.64 467.721 311.651C464.593 302.355 462.41 294.809 460.688 288.827C459.232 283.773 457.482 277.689 455.827 271.92C456.22 275.202 456.555 277.827 456.744 279.208C457.822 287.102 458.939 293.381 459.939 299.177C461.343 307.296 463.322 319.118 465.637 334.223C466.775 335.496 468.024 336.666 469.368 337.72C472.582 340.16 476.276 341.89 480.207 342.798C480.987 343.002 482.174 343.304 483.693 343.597C492.108 344.663 500.625 344.663 509.04 343.597C510.788 343.259 512.526 342.798 512.526 342.798C514.148 342.35 515.744 341.813 517.306 341.187C517.397 341.15 517.944 340.919 518.093 340.846C518.093 340.846 518.231 340.777 518.367 340.718L518.375 340.717Z" fill="#3E705B"/>
<path d="M509.007 305.886C508.822 306.886 508.42 307.834 507.83 308.663C507.225 309.903 506.259 310.932 505.06 311.615C503.967 312.03 502.775 312.112 501.636 311.849C500.496 311.586 499.461 310.99 498.661 310.138C497.64 309.051 497.049 307.629 497 306.138C497.043 304.96 497.374 303.811 497.964 302.791C498.554 301.771 499.385 300.911 500.384 300.286C501.139 299.695 502.024 299.292 502.965 299.11C503.906 298.928 504.877 298.972 505.798 299.239C506.762 299.742 507.54 300.54 508.018 301.517C508.85 302.812 509.2 304.359 509.007 305.886Z" fill="#1D1D1B"/>
<path d="M527.31 292.699C526.583 293.445 525.7 294.022 524.725 294.388C523.502 295.099 522.094 295.424 520.683 295.321C519.516 295.05 518.456 294.439 517.637 293.565C516.818 292.69 516.277 291.592 516.083 290.41C515.836 288.905 516.145 287.362 516.951 286.068C517.659 285.091 518.595 284.302 519.677 283.77C520.76 283.238 521.956 282.979 523.162 283.016C524.142 282.945 525.125 283.107 526.03 283.49C526.935 283.873 527.735 284.465 528.367 285.218C528.898 286.196 529.103 287.317 528.952 288.419C528.922 289.994 528.341 291.509 527.31 292.699Z" fill="#1D1D1B"/>
<path d="M481.621 311.237C482.408 310.731 483.296 310.405 484.224 310.281C485.438 309.906 486.738 309.906 487.953 310.281C488.92 310.755 489.725 311.505 490.265 312.436C490.806 313.368 491.058 314.438 490.989 315.513C490.902 316.884 490.318 318.176 489.347 319.148C488.528 319.859 487.548 320.36 486.491 320.605C485.434 320.85 484.333 320.833 483.285 320.555C482.695 320.417 479.927 319.772 479.17 317.58C478.904 316.616 478.951 315.591 479.306 314.656C479.652 313.28 480.472 312.069 481.621 311.237Z" fill="#1D1D1B"/>
<path d="M509.177 332.088C508.395 331.479 507.757 330.704 507.307 329.821C506.506 328.738 506.051 327.439 506 326.093C506.134 324.96 506.601 323.893 507.343 323.026C508.084 322.159 509.065 321.532 510.163 321.223C511.564 320.83 513.06 320.96 514.372 321.589C515.369 322.158 516.213 322.963 516.828 323.933C517.443 324.903 517.812 326.009 517.901 327.154C518.072 328.073 518.021 329.02 517.754 329.916C517.487 330.813 517.011 331.633 516.366 332.309C515.496 332.913 514.456 333.225 513.397 333.199C511.904 333.334 510.41 332.941 509.177 332.088Z" fill="#1D1D1B"/>
</svg>
