<svg width="870" height="540" viewBox="0 0 870 540" fill="none" xmlns="http://www.w3.org/2000/svg">
<rect x="2.5" y="2.5" width="865" height="534.4" rx="77.5" fill="#F3F3F3" stroke="#83C1CA" stroke-width="5"/>
<path d="M395.608 281.39C396.559 280.128 394.023 277.76 392.596 273.499C391.883 271.369 391.724 269.79 391.487 266.634C391.17 262.688 390.615 254.64 394.102 245.328C394.736 243.513 397.193 237.358 402.9 230.966C406.467 226.942 415.264 216.999 429.214 215.5C444.036 213.921 455.132 222.917 459.887 226.863C462.265 228.757 475.264 239.804 477.879 257.638C479.702 270.264 475.502 281.469 475.184 281.864C475.184 281.864 475.026 282.101 475.026 282.337C475.026 282.653 475.343 282.89 475.502 282.969C476.056 283.363 478.117 283.994 480.178 282.89C480.336 282.811 481.287 282.258 482.08 281.154C482.952 279.891 483.11 278.629 483.19 278.234C484.062 271.448 485.726 267.186 485.647 261.505C485.488 253.85 482.001 235.78 466.704 222.444C462.582 218.814 452.041 209.581 436.189 209.029C414.71 208.24 400.76 223.785 398.065 226.942C395.133 230.256 386.731 239.883 385.146 255.034C383.64 269.475 389.584 280.996 389.743 281.233C389.743 281.233 389.902 281.469 389.981 281.785C390.06 282.022 390.06 282.101 390.06 282.101C390.298 282.653 392.517 282.337 392.517 282.337C394.34 281.864 395.37 281.706 395.608 281.39Z" fill="#AB6F26"/>
<path d="M389.188 284.783C389.347 286.204 388.871 299.619 392.755 312.481C394.974 320.057 397.273 322.424 398.224 323.371C399.413 324.476 401.394 325.975 405.991 327.711C409.716 329.053 414.076 330.078 429.056 330.868C436.03 331.183 439.597 331.42 444.67 331.183C451.09 330.946 455.053 330.789 460.125 329.447C464.881 328.185 470.35 326.685 474.233 321.951C475.66 320.215 476.294 318.794 477.562 315.953C477.562 315.953 482.714 304.038 482.159 285.02C482.159 283.837 482.001 282.337 482.001 282.337C482.001 282.022 481.921 281.864 481.921 281.785C481.367 280.286 434.207 291.096 403.455 284.626C399.254 283.758 389.109 283.6 389.109 284.152C389.188 284.468 389.188 284.547 389.188 284.783Z" fill="#AB6F26"/>
<path d="M413.362 282.179C409.082 281.548 406.387 281.154 406.387 281.154C400.522 280.286 400.681 280.286 399.571 280.128C396.639 279.812 395.291 279.891 392.438 279.339C390.853 279.023 390.06 278.865 389.426 278.707C386.969 277.997 385.78 277.129 383.878 277.445C383.323 277.524 382.847 277.682 382.451 277.997C381.817 278.471 381.5 279.26 381.5 280.049C381.579 280.917 382.134 281.627 382.847 282.258C386.256 285.02 390.298 285.494 390.298 285.494C397.748 286.362 405.119 287.545 412.57 288.256C418.118 288.808 417.563 288.887 421.684 289.281C430.879 290.071 433.811 289.518 460.125 288.413C465.753 288.177 471.221 286.835 476.849 286.52C476.849 286.52 478.91 286.362 485.25 284.231C485.726 284.073 487.232 283.521 488.024 282.258C488.421 281.548 488.5 280.996 488.5 280.838C488.5 280.68 488.5 279.891 488.024 279.26C487.47 278.55 486.519 278.471 485.884 278.392C482.476 278.155 479.861 279.023 479.861 279.023C477.007 279.97 473.916 279.891 470.984 280.522C463.137 282.179 449.663 282.732 444.273 282.969C431.83 283.363 419.465 283.047 413.362 282.179Z" fill="#CE8F31"/>
<path d="M472.569 290.939C471.221 291.57 469.716 291.649 468.289 292.122C464.564 293.306 457.43 294.095 456.162 294.253C446.651 295.279 436.585 294.805 426.044 294.253C420.971 294.016 417.642 293.701 411.064 293.069C405.595 292.517 404.406 292.28 403.296 292.043C401.87 291.649 400.364 291.649 398.937 291.175C398.461 291.018 397.114 290.465 396.004 290.939C395.37 291.175 395.212 291.491 395.133 291.649C395.133 291.649 394.974 292.122 395.133 292.754C395.687 294.805 401.077 295.279 401.077 295.279C408.527 295.91 415.899 297.409 423.349 297.488C434.366 297.646 440.31 298.277 450.693 298.12C452.279 298.12 455.924 298.041 460.68 297.33C463.058 297.015 464.881 296.699 467.259 295.989C471.38 294.726 475.66 292.675 475.66 292.675C475.66 292.675 476.056 292.122 476.056 291.649C476.056 291.175 475.66 290.623 475.343 290.465C474.63 289.913 473.679 290.465 472.569 290.939Z" fill="#CE8F31"/>
<path d="M445.621 317.926C452.992 317.926 454.101 318.479 461.71 317.926C463.771 317.768 466.466 317.532 469.557 317.137C470.112 316.9 470.429 316.506 470.429 316.032C470.429 315.401 469.716 315.085 469.478 314.928C468.606 314.454 467.576 314.612 467.417 314.612C463.296 315.085 459.016 314.217 454.894 314.533C451.565 314.77 446.81 315.085 440.548 315.164C439.439 315.638 439.359 316.032 439.359 316.19C439.439 316.821 441.103 317.216 442.133 317.453C444.115 317.926 445.621 317.926 445.621 317.926Z" fill="#CE8F31"/>
<path d="M420.258 313.902C418.831 313.902 416.533 313.823 413.521 313.744C413.283 313.823 412.253 314.06 412.173 314.691C412.094 315.401 413.362 316.032 413.759 316.269C415.582 317.216 417.167 317.137 421.764 317.137C422.556 317.137 423.349 317.137 424.221 317.137C426.519 317.137 429.769 317.137 434.049 317.137C434.445 316.9 435 316.506 434.921 316.111C434.841 315.559 433.494 315.322 432.781 315.164C424.855 313.981 420.258 313.902 420.258 313.902Z" fill="#CE8F31"/>
<path d="M463.058 306.642C462.503 306.642 461.314 306.642 458.936 306.8C457.668 306.879 455.924 306.957 453.705 307.115C453.626 307.115 452.675 307.273 452.199 306.8C451.882 306.405 451.962 305.774 452.12 305.458C452.596 304.196 455.449 304.196 459.491 304.196C461.076 304.196 463.93 304.196 467.972 304.196C468.051 304.196 468.685 304.038 469.002 304.432C469.319 304.827 469.082 305.537 468.764 305.853C468.368 306.405 467.655 306.405 466.624 306.484C464.564 306.563 463.454 306.642 463.058 306.642Z" fill="#CE8F31"/>
<path d="M431.75 304.432C426.678 304.59 421.605 303.959 416.533 303.801C413.521 303.722 409.003 303.486 403.455 303.249C403.376 303.249 402.662 303.407 402.424 303.959C402.107 304.511 402.345 305.379 403.058 305.853C407.497 306.09 411.064 306.484 413.6 306.721C420.258 307.431 422.398 307.983 427.55 308.062C431.116 308.141 433.89 307.983 435.476 307.826C438.012 307.589 440.31 307.273 442.054 307.037C442.213 307.037 442.767 307.037 443.084 306.642C443.084 306.642 443.322 306.247 443.005 305.537C442.292 303.88 434.604 304.275 431.75 304.432Z" fill="#CE8F31"/>
<path d="M439.042 323.608C438.487 323.608 437.298 323.608 434.921 323.45C433.653 323.371 431.909 323.292 429.69 323.134C429.61 323.134 428.659 322.976 428.184 323.45C427.867 323.844 427.946 324.476 428.104 324.791C428.58 326.054 431.433 326.054 435.476 326.054C437.061 326.054 439.914 326.054 443.956 326.054C444.036 326.054 444.67 326.212 444.987 325.817C445.304 325.423 445.066 324.712 444.749 324.397C444.353 323.844 443.639 323.844 442.609 323.766C440.469 323.687 439.438 323.608 439.042 323.608Z" fill="#CE8F31"/>
</svg>
