<?xml version="1.0" encoding="UTF-8" standalone="no"?>
<svg width="870" height="540" viewBox="0 0 870 540" fill="none" xmlns="http://www.w3.org/2000/svg">
<rect x="3" y="3" width="864" height="533.4" rx="77" fill="white" stroke="#844EA5" stroke-width="6"/>
<path d="M762.832 143.945L782.808 205.427H847.454L795.155 243.425L815.131 304.907L762.832 266.909L710.532 304.907L730.509 243.425L678.209 205.427H742.855L762.832 143.945Z" fill="#164E82"/>
<path d="M599.905 26.1L619.881 87.5818H684.527L632.227 125.58L652.204 187.061L599.905 149.064L547.605 187.061L567.582 125.58L515.282 87.5818H579.928L599.905 26.1Z" fill="#164E82"/>
<path d="M119.032 26.1L139.008 87.5818H203.654L151.355 125.58L171.331 187.061L119.032 149.064L66.7322 187.061L86.7088 125.58L34.4093 87.5818H99.0551L119.032 26.1Z" fill="#164E82"/>
<path d="M463.077 165.3L483.054 226.782H547.7L495.4 264.78L515.377 326.261L463.077 288.264L410.778 326.261L430.754 264.78L378.455 226.782H443.101L463.077 165.3Z" fill="#164E82"/>
<path d="M138.014 343.255L157.99 404.736H222.636L170.337 442.734L190.313 504.216L138.014 466.218L85.7141 504.216L105.691 442.734L53.3912 404.736H118.037L138.014 343.255Z" fill="#164E82"/>
<circle cx="73.5546" cy="268.909" r="45.8727" fill="#F2A74E"/>
<circle cx="389.127" cy="74.3454" r="45.8727" fill="#F2A74E"/>
<circle cx="332.182" cy="347.209" r="45.8727" fill="#F2A74E"/>
<circle cx="273.654" cy="187.445" r="45.8727" fill="#F2A74E"/>
<circle cx="609" cy="347.209" r="45.8727" fill="#F2A74E"/>
<circle cx="794.863" cy="381.218" r="45.8727" fill="#F2A74E"/>
<circle cx="480.873" cy="478.5" r="45.8727" fill="#F2A74E"/>
</svg>
