<?xml version="1.0" encoding="UTF-8" standalone="no"?>
<svg width="1100" height="682" viewBox="0 0 1100 682" fill="none" xmlns="http://www.w3.org/2000/svg">
<rect x="3" y="3" width="1094" height="676" rx="77" fill="white" stroke="#844EA5" stroke-width="6"/>
<path d="M964.5 182L989.758 259.736H1071.49L1005.37 307.779L1030.63 385.514L964.5 337.471L898.374 385.514L923.632 307.779L857.506 259.736H939.242L964.5 182Z" fill="#164E82"/>
<path d="M758.5 33L783.758 110.736H865.494L799.368 158.779L824.626 236.514L758.5 188.471L692.374 236.514L717.632 158.779L651.506 110.736H733.242L758.5 33Z" fill="#164E82"/>
<path d="M373.5 116L398.758 193.736H480.494L414.368 241.779L439.626 319.514L373.5 271.471L307.374 319.514L332.632 241.779L266.506 193.736H348.242L373.5 116Z" fill="#164E82"/>
<path d="M150.5 33L175.758 110.736H257.494L191.368 158.779L216.626 236.514L150.5 188.471L84.3742 236.514L109.632 158.779L43.5061 110.736H125.242L150.5 33Z" fill="#164E82"/>
<path d="M778.5 345L803.758 422.736H885.494L819.368 470.779L844.626 548.514L778.5 500.471L712.374 548.514L737.632 470.779L671.506 422.736H753.242L778.5 345Z" fill="#164E82"/>
<path d="M424.5 366L449.758 443.736H531.494L465.368 491.779L490.626 569.514L424.5 521.471L358.374 569.514L383.632 491.779L317.506 443.736H399.242L424.5 366Z" fill="#164E82"/>
<path d="M174.5 434L199.758 511.736H281.494L215.368 559.779L240.626 637.514L174.5 589.471L108.374 637.514L133.632 559.779L67.5061 511.736H149.242L174.5 434Z" fill="#164E82"/>
<circle cx="93" cy="340" r="58" fill="#F2A74E"/>
<circle cx="492" cy="94" r="58" fill="#F2A74E"/>
<circle cx="602" cy="303" r="58" fill="#F2A74E"/>
<circle cx="1005" cy="482" r="58" fill="#F2A74E"/>
<circle cx="608" cy="605" r="58" fill="#F2A74E"/>
</svg>
