<svg viewBox="0 0 150 71" fill="none" xmlns="http://www.w3.org/2000/svg">
<path d="M67.41 24.3083C76.7808 24.3083 84.4155 31.9266 84.5556 41.3456H108.316C108.316 30.5698 104.007 20.2355 96.3352 12.6159C88.6638 4.99628 78.2592 0.715637 67.4103 0.715637C56.5614 0.715637 46.1568 4.99628 38.4855 12.6159C30.8141 20.2355 26.5044 30.5698 26.5044 41.3456H50.265C50.4049 31.9274 58.0398 24.3083 67.41 24.3083Z" fill="#C70C0F"/>
<path d="M67.4104 24.3083C76.7812 24.3083 84.4159 31.9266 84.556 41.3456H104.358C104.358 21.1102 87.7832 4.64777 67.4104 4.64777C47.0376 4.64777 30.4639 21.1102 30.4639 41.3456H50.2654C50.4053 31.9275 58.0402 24.3083 67.4104 24.3083Z" fill="#D06103"/>
<path d="M67.4102 24.3083C76.781 24.3083 84.4157 31.9266 84.5558 41.3456H100.398C100.411 37.0348 99.5668 32.7639 97.9147 28.7777C96.2625 24.7914 93.8346 21.1682 90.7702 18.1156C87.7057 15.063 84.0649 12.641 80.0564 10.9884C76.0479 9.33588 71.7505 8.48523 67.4104 8.48523C63.0703 8.48523 58.7729 9.33588 54.7643 10.9884C50.7558 12.641 47.115 15.063 44.0506 18.1156C40.9861 21.1682 38.5582 24.7914 36.9061 28.7777C35.2539 32.7639 34.4099 37.0348 34.4225 41.3456H50.2652C50.4051 31.9275 58.04 24.3083 67.4102 24.3083Z" fill="#E3C600"/>
<path d="M67.41 24.3083C76.7808 24.3083 84.4154 31.9266 84.5555 41.3456H96.4392C96.4392 37.5592 95.6883 33.8098 94.2295 30.3116C92.7706 26.8135 90.6324 23.6349 87.9368 20.9575C85.2412 18.2801 82.0411 16.1563 78.5191 14.7073C74.9972 13.2583 71.2224 12.5125 67.4103 12.5125C63.5981 12.5125 59.8233 13.2583 56.3014 14.7073C52.7794 16.1563 49.5793 18.2801 46.8837 20.9575C44.1881 23.6349 42.0499 26.8135 40.591 30.3116C39.1322 33.8098 38.3813 37.5592 38.3813 41.3456H50.265C50.4048 31.9274 58.0398 24.3083 67.41 24.3083Z" fill="#008536"/>
<path d="M67.4104 24.3082C76.7812 24.3082 84.4158 31.9265 84.5559 41.3455H92.4805C92.4805 34.7414 89.8392 28.4079 85.1377 23.7381C80.4362 19.0683 74.0596 16.4448 67.4106 16.4448C60.7617 16.4448 54.3851 19.0683 49.6836 23.7381C44.9821 28.4079 42.3408 34.7414 42.3408 41.3455H50.2654C50.4052 31.9274 58.0401 24.3082 67.4104 24.3082Z" fill="#008DC5"/>
<path d="M67.4097 24.3082C76.7805 24.3082 84.4151 31.9266 84.5552 41.3455H88.5207C88.5308 38.5855 87.9922 35.8507 86.9357 33.2979C85.8793 30.7451 84.3259 28.4246 82.3646 26.4695C80.4033 24.5143 78.0726 22.963 75.5063 21.9044C72.94 20.8459 70.1886 20.301 67.4098 20.301C64.6311 20.301 61.8796 20.8459 59.3133 21.9044C56.7471 22.963 54.4164 24.5143 52.4551 26.4695C50.4938 28.4246 48.9403 30.7451 47.8839 33.2979C46.8275 35.8507 46.2889 38.5855 46.299 41.3455H50.2647C50.4045 31.9274 58.0395 24.3082 67.4097 24.3082Z" fill="#4F2074"/>
<path d="M55.795 48.5294C55.795 43.051 51.2165 38.5878 45.5304 38.5878C43.5387 38.587 41.5882 39.1521 39.9094 40.2166C38.1632 35.4151 33.4142 31.9673 27.856 31.9673C25.246 31.9487 22.6932 32.7255 20.5416 34.193C18.3901 35.6605 16.7434 37.7481 15.8236 40.1742C14.1585 39.1347 12.2313 38.5843 10.2646 38.5867C4.59984 38.5867 1.75433e-07 43.0298 1.75433e-07 48.5294C-0.000289349 50.0504 0.357786 51.5503 1.04558 52.9093C1.73338 54.2683 2.73182 55.4485 3.96103 56.3556C6.38888 58.9362 16.1637 60.8612 27.8551 60.8612C39.0781 60.8612 48.5334 59.0845 51.4297 56.6532C52.7732 55.7594 53.8743 54.5507 54.6357 53.1337C55.397 51.7168 55.7952 50.1354 55.795 48.5294Z" fill="#7BBAE4"/>
<path d="M150 51.9133C150 43.7275 143.159 37.0589 134.663 37.0589C131.687 37.0573 128.772 37.9016 126.263 39.4924C123.653 32.3182 116.558 27.1663 108.253 27.1663C99.9481 27.1663 92.9157 32.2866 90.2747 39.4291C87.7869 37.8766 84.9077 37.0549 81.9697 37.0589C73.5057 37.0589 66.6328 43.6959 66.6328 51.9133C66.6324 54.1859 67.1674 56.4271 68.1951 58.4576C69.2228 60.4881 70.7146 62.2516 72.5512 63.607C76.1786 67.4626 90.7839 70.3389 108.253 70.3389C125.022 70.3389 139.15 67.684 143.477 64.0495C145.484 62.7144 147.13 60.9086 148.267 58.7919C149.405 56.6752 150 54.3127 150 51.9133Z" fill="#7BBAE4"/>
<path d="M32.828 31.4378C31.4327 32.1211 30.2427 33.1566 29.3773 34.4406C28.5119 35.7246 28.0015 37.212 27.8972 38.7536C27.6413 36.9205 26.8865 35.1915 25.7142 33.753C24.9464 32.8229 24.0157 32.0382 22.9668 31.437C24.1609 30.8168 25.2049 29.946 26.0262 28.885C27.0849 27.5012 27.733 25.851 27.8972 24.1207C28.1388 25.6213 28.7046 27.0522 29.5557 28.3151C30.4069 29.5779 31.5232 30.6428 32.828 31.4365V31.4378Z" fill="#E3C600"/>
<path d="M89.4063 37.1841C88.024 37.8607 86.8451 38.8863 85.988 40.1583C85.1308 41.4302 84.6254 42.9037 84.5226 44.4309C84.2687 42.6152 83.521 40.9028 82.36 39.4779C81.5996 38.5565 80.6777 37.7794 79.6387 37.1841C80.8215 36.5698 81.8555 35.7073 82.669 34.6563C83.7177 33.2856 84.3597 31.651 84.5226 29.9371C84.7617 31.4236 85.322 32.8411 86.165 34.0921C87.008 35.3431 88.1138 36.3979 89.4063 37.1841Z" fill="#E3C600"/>
<path d="M49.7723 6.08999C48.6107 6.65866 47.6201 7.52069 46.8997 8.58963C46.1794 9.65856 45.7547 10.8968 45.6682 12.1803C45.4549 10.6545 44.8266 9.21534 43.8509 8.01795C43.2118 7.24365 42.437 6.59049 41.564 6.08999C42.5583 5.57402 43.4276 4.84922 44.1114 3.96594C44.9924 2.81393 45.5316 1.44026 45.6682 0C45.8879 1.35137 46.4211 2.63344 47.2257 3.74481C47.9103 4.68595 48.7758 5.48303 49.7723 6.08999Z" fill="#E3C600"/>
<path d="M82.3835 29.4156C81.4639 29.8658 80.6797 30.5482 80.1094 31.3944C79.5392 32.2406 79.2029 33.2209 79.1344 34.2369C78.9656 33.029 78.4682 31.8897 77.6959 30.9417C77.19 30.3287 76.5766 29.8116 75.8853 29.4156C76.6722 29.007 77.3601 28.4332 77.9014 27.734C78.599 26.8221 79.026 25.7346 79.1344 24.5943C79.2935 25.5832 79.6663 26.5262 80.2272 27.3585C80.788 28.1907 81.5237 28.8925 82.3835 29.4156Z" fill="#E3C600"/>
<path d="M96.9844 10.9115C96.0651 11.3617 95.281 12.0439 94.7108 12.8899C94.1406 13.7359 93.8043 14.7159 93.7356 15.7317C93.5663 14.5236 93.0685 13.3842 92.2957 12.4363C91.7898 11.8235 91.1764 11.3065 90.4854 10.9104C91.2721 10.5017 91.96 9.92779 92.5012 9.22861C93.199 8.31671 93.6261 7.22919 93.7345 6.08887C93.8936 7.07782 94.2663 8.02084 94.8271 8.85313C95.388 9.68543 96.1235 10.3873 96.9833 10.9104L96.9844 10.9115Z" fill="#E3C600"/>
<path d="M43.1633 12.1803C42.2437 12.6305 41.4595 13.3129 40.8892 14.1591C40.3189 15.0053 39.9827 15.9856 39.9142 17.0016C39.7453 15.7937 39.248 14.6544 38.4757 13.7064C37.9698 13.0934 37.3563 12.5763 36.665 12.1803C37.4519 11.7717 38.1399 11.1979 38.6811 10.4988C39.3788 9.58679 39.8058 8.49929 39.9142 7.35901C40.0733 8.34795 40.4461 9.29094 41.007 10.1232C41.5678 10.9554 42.3035 11.6572 43.1633 12.1803Z" fill="#E3C600"/>
<path d="M55.224 34.2369C54.3044 34.6871 53.5202 35.3695 52.9499 36.2157C52.3796 37.0619 52.0434 38.0421 51.9748 39.0581C51.8056 37.8501 51.3077 36.7109 50.535 35.763C50.0291 35.15 49.4158 34.633 48.7246 34.2369C49.5114 33.8283 50.1993 33.2545 50.7404 32.5553C51.4382 31.6434 51.8654 30.5559 51.9737 29.4156C52.1328 30.4046 52.5055 31.3476 53.0664 32.1799C53.6273 33.0121 54.363 33.7139 55.2229 34.2369H55.224Z" fill="#E3C600"/>
</svg>
