<?xml version="1.0" encoding="UTF-8" standalone="no"?>
<svg width="1100" height="682" viewBox="0 0 1100 682" fill="none" xmlns="http://www.w3.org/2000/svg">
<rect x="3" y="3" width="1094" height="676" rx="77" fill="white" stroke="#844EA5" stroke-width="6"/>
<path d="M550 193L565.267 239.987L614.672 239.987L574.702 269.026L589.969 316.013L550 286.974L510.031 316.013L525.298 269.026L485.328 239.987L534.733 239.987L550 193Z" fill="#164E82"/>
<circle cx="718" cy="334" r="100" fill="#F2A74E"/>
<circle cx="935" cy="534" r="100" fill="#F2A74E"/>
<circle cx="163" cy="172" r="100" fill="#F2A74E"/>
<circle cx="906" cy="146" r="100" fill="#F2A74E"/>
<circle cx="431" cy="124" r="100" fill="#F2A74E"/>
<circle cx="268" cy="556" r="100" fill="#F2A74E"/>
<path d="M987 271L1002.27 317.987L1051.67 317.987L1011.7 347.026L1026.97 394.013L987 364.974L947.031 394.013L962.298 347.026L922.328 317.987L971.733 317.987L987 271Z" fill="#164E82"/>
<path d="M467 388L482.267 434.987L531.672 434.987L491.702 464.026L506.969 511.013L467 481.974L427.031 511.013L442.298 464.026L402.328 434.987L451.733 434.987L467 388Z" fill="#164E82"/>
<path d="M280 272L295.267 318.987L344.672 318.987L304.702 348.026L319.969 395.013L280 365.974L240.031 395.013L255.298 348.026L215.328 318.987L264.733 318.987L280 272Z" fill="#164E82"/>
<path d="M716 507L731.267 553.987L780.672 553.987L740.702 583.026L755.969 630.013L716 600.974L676.031 630.013L691.298 583.026L651.328 553.987L700.733 553.987L716 507Z" fill="#164E82"/>
<path d="M699 28L714.267 74.9868L763.672 74.9868L723.702 104.026L738.969 151.013L699 121.974L659.031 151.013L674.298 104.026L634.328 74.9868L683.733 74.9868L699 28Z" fill="#164E82"/>
<path d="M92 349L107.267 395.987L156.672 395.987L116.702 425.026L131.969 472.013L92 442.974L52.0306 472.013L67.2976 425.026L27.3282 395.987L76.733 395.987L92 349Z" fill="#164E82"/>
</svg>
