<svg width="167" height="79" viewBox="0 0 167 79" fill="none" xmlns="http://www.w3.org/2000/svg">
<path d="M75.0498 27.056C85.4826 27.056 93.9825 35.5355 94.1384 46.0192H120.592C120.592 34.0254 115.794 22.5228 107.253 14.0419C98.7123 5.56103 87.1285 0.796509 75.0501 0.796509C62.9716 0.796509 51.3879 5.56103 42.8471 14.0419C34.3064 22.5228 29.5082 34.0254 29.5082 46.0192H55.9617C56.1174 35.5364 64.6176 27.056 75.0498 27.056Z" fill="#C70C0F"/>
<path d="M75.0499 27.0561C85.4827 27.0561 93.9826 35.5356 94.1386 46.0193H116.184C116.184 23.4965 97.7316 5.17316 75.0499 5.17316C52.3682 5.17316 33.9161 23.4965 33.9161 46.0193H55.9618C56.1175 35.5365 64.6177 27.0561 75.0499 27.0561Z" fill="#D06103"/>
<path d="M75.05 27.0561C85.4828 27.0561 93.9827 35.5356 94.1386 46.0193H111.777C111.791 41.2212 110.851 36.4675 109.012 32.0307C107.172 27.5938 104.469 23.561 101.057 20.1634C97.6456 16.7657 93.5922 14.0699 89.1294 12.2306C84.6666 10.3912 79.8821 9.4444 75.0501 9.4444C70.2182 9.4444 65.4337 10.3912 60.9709 12.2306C56.5081 14.0699 52.4547 16.7657 49.0429 20.1634C45.6312 23.561 42.9281 27.5938 41.0887 32.0307C39.2493 36.4675 38.3097 41.2212 38.3237 46.0193H55.9619C56.1176 35.5365 64.6178 27.0561 75.05 27.0561Z" fill="#E3C600"/>
<path d="M75.0495 27.056C85.4823 27.056 93.9821 35.5355 94.1381 46.0192H107.369C107.369 41.8048 106.533 37.6316 104.908 33.738C103.284 29.8444 100.904 26.3066 97.9026 23.3265C94.9015 20.3465 91.3387 17.9826 87.4176 16.3698C83.4965 14.757 79.2939 13.9269 75.0498 13.9269C70.8056 13.9269 66.603 14.757 62.6819 16.3698C58.7608 17.9826 55.198 20.3465 52.1969 23.3265C49.1958 26.3066 46.8153 29.8444 45.1911 33.738C43.5669 37.6316 42.731 41.8048 42.731 46.0192H55.9614C56.1171 35.5365 64.6173 27.056 75.0495 27.056Z" fill="#008536"/>
<path d="M75.0501 27.056C85.4829 27.056 93.9827 35.5355 94.1387 46.0191H102.961C102.961 38.6685 100.021 31.619 94.7864 26.4214C89.5521 21.2237 82.4528 18.3037 75.0504 18.3037C67.6479 18.3037 60.5486 21.2237 55.3143 26.4214C50.08 31.619 47.1393 38.6685 47.1393 46.0191H55.962C56.1177 35.5364 64.6179 27.056 75.0501 27.056Z" fill="#008DC5"/>
<path d="M75.0492 27.056C85.482 27.056 93.9819 35.5355 94.1378 46.0192H98.5527C98.5639 42.9472 97.9643 39.9032 96.7881 37.0619C95.612 34.2205 93.8825 31.6377 91.6989 29.4615C89.5153 27.2854 86.9205 25.5587 84.0634 24.3805C81.2063 23.2023 78.143 22.5958 75.0493 22.5958C71.9556 22.5958 68.8924 23.2023 66.0352 24.3805C63.1781 25.5587 60.5833 27.2854 58.3997 29.4615C56.2161 31.6377 54.4867 34.2205 53.3105 37.0619C52.1344 39.9032 51.5347 42.9472 51.5459 46.0192H55.9611C56.1168 35.5364 64.617 27.056 75.0492 27.056Z" fill="#4F2074"/>
<path d="M62.1183 54.015C62.1183 47.9174 57.0209 42.9497 50.6904 42.9497C48.4729 42.9488 46.3015 43.5778 44.4323 44.7626C42.4883 39.4183 37.201 35.5808 31.0129 35.5808C28.1072 35.5601 25.265 36.4248 22.8696 38.0582C20.4742 39.6915 18.6409 42.0151 17.6169 44.7154C15.7631 43.5584 13.6175 42.9459 11.4279 42.9485C5.12114 42.9485 1.95315e-07 47.8939 1.95315e-07 54.015C-0.000322142 55.708 0.398334 57.3775 1.16408 58.8901C1.92983 60.4027 3.04142 61.7163 4.40994 62.726C7.11294 65.5983 17.9955 67.7408 31.012 67.7408C43.5069 67.7408 54.0337 65.7633 57.2583 63.0572C58.7541 62.0624 59.98 60.717 60.8276 59.1399C61.6753 57.5628 62.1186 55.8027 62.1183 54.015Z" fill="#86B9DC"/>
<path d="M167 57.7815C167 48.6705 159.383 41.248 149.925 41.248C146.611 41.2462 143.366 42.186 140.572 43.9565C137.667 35.9714 129.767 30.2372 120.521 30.2372C111.276 30.2372 103.446 35.9362 100.506 43.8861C97.7361 42.1582 94.5306 41.2436 91.2596 41.248C81.8364 41.248 74.1846 48.6353 74.1846 57.7815C74.1841 60.311 74.7798 62.8056 75.9239 65.0656C77.0681 67.3257 78.729 69.2885 80.7737 70.7971C84.8122 75.0885 101.073 78.2899 120.521 78.2899C139.191 78.2899 154.92 75.335 159.738 71.2896C161.972 69.8035 163.804 67.7937 165.071 65.4377C166.337 63.0817 167 60.4522 167 57.7815Z" fill="#86B9DC"/>
<path d="M36.5485 34.9915C34.995 35.752 33.6702 36.9045 32.7067 38.3337C31.7432 39.7628 31.175 41.4184 31.0589 43.1343C30.7739 41.094 29.9336 39.1695 28.6285 37.5684C27.7737 36.5331 26.7374 35.6598 25.5697 34.9906C26.8991 34.3003 28.0614 33.3311 28.9759 32.1501C30.1545 30.6099 30.876 28.7731 31.0589 26.8472C31.3279 28.5175 31.9578 30.1102 32.9054 31.5158C33.853 32.9214 35.0958 34.1066 36.5485 34.99V34.9915Z" fill="#E3C600"/>
<path d="M99.539 41.3873C98.0001 42.1404 96.6876 43.282 95.7333 44.6977C94.779 46.1134 94.2163 47.7535 94.1019 49.4533C93.8192 47.4324 92.9868 45.5264 91.6942 43.9404C90.8476 42.9149 89.8212 42.0499 88.6644 41.3873C89.9813 40.7036 91.1325 39.7436 92.0382 38.5738C93.2057 37.0481 93.9205 35.2288 94.1019 33.3211C94.368 34.9757 94.9918 36.5534 95.9304 37.9458C96.869 39.3382 98.1 40.5123 99.539 41.3873Z" fill="#E3C600"/>
<path d="M55.413 6.7784C54.1197 7.41134 53.0168 8.37081 52.2148 9.56059C51.4128 10.7504 50.94 12.1286 50.8437 13.5571C50.6063 11.8588 49.9067 10.257 48.8204 8.92429C48.1089 8.06246 47.2464 7.33547 46.2744 6.7784C47.3813 6.2041 48.3491 5.39737 49.1105 4.41424C50.0913 3.13201 50.6916 1.60307 50.8437 0C51.0883 1.50413 51.682 2.93112 52.5777 4.16812C53.3399 5.21565 54.3035 6.10283 55.413 6.7784Z" fill="#E3C600"/>
<path d="M91.7203 32.7407C90.6965 33.2417 89.8234 34.0013 89.1885 34.9431C88.5536 35.885 88.1792 36.9761 88.103 38.1069C87.915 36.7625 87.3613 35.4944 86.5014 34.4393C85.9382 33.757 85.2552 33.1815 84.4856 32.7407C85.3617 32.2859 86.1276 31.6472 86.7302 30.869C87.5069 29.854 87.9823 28.6436 88.103 27.3744C88.2801 28.4751 88.6952 29.5247 89.3196 30.451C89.944 31.3774 90.763 32.1585 91.7203 32.7407Z" fill="#E3C600"/>
<path d="M107.976 12.145C106.952 12.646 106.08 13.4054 105.445 14.347C104.81 15.2886 104.435 16.3794 104.359 17.51C104.17 16.1653 103.616 14.8972 102.756 13.8421C102.193 13.16 101.51 12.5846 100.74 12.1437C101.616 11.6888 102.382 11.05 102.985 10.2718C103.761 9.25684 104.237 8.04638 104.358 6.77716C104.535 7.8779 104.95 8.92752 105.574 9.85389C106.199 10.7803 107.018 11.5614 107.975 12.1437L107.976 12.145Z" fill="#E3C600"/>
<path d="M48.055 13.5571C47.0312 14.0582 46.1581 14.8177 45.5232 15.7596C44.8883 16.7015 44.5139 17.7925 44.4377 18.9234C44.2497 17.579 43.696 16.3109 42.8362 15.2558C42.2729 14.5734 41.59 13.9979 40.8203 13.5571C41.6964 13.1023 42.4623 12.4637 43.0649 11.6855C43.8416 10.6705 44.3171 9.46003 44.4377 8.19086C44.6148 9.29158 45.0299 10.3412 45.6543 11.2675C46.2787 12.1938 47.0977 12.9749 48.055 13.5571Z" fill="#E3C600"/>
<path d="M61.4826 38.1069C60.4589 38.608 59.5857 39.3676 58.9508 40.3094C58.3159 41.2513 57.9416 42.3423 57.8653 43.4732C57.6768 42.1286 57.1226 40.8606 56.2622 39.8056C55.699 39.1233 55.0162 38.5479 54.2467 38.1069C55.1227 37.6522 55.8885 37.0135 56.491 36.2353C57.2678 35.2203 57.7434 34.0099 57.8641 32.7407C58.0411 33.8414 58.4561 34.8911 59.0806 35.8174C59.705 36.7437 60.524 37.5248 61.4814 38.1069H61.4826Z" fill="#E3C600"/>
</svg>
