<?xml version="1.0" encoding="UTF-8" standalone="no"?>
<svg width="870" height="540" viewBox="0 0 870 540" fill="none" xmlns="http://www.w3.org/2000/svg">
<rect x="3" y="3" width="864" height="533.4" rx="77" fill="white" stroke="#844EA5" stroke-width="6"/>
<path d="M404.782 249L416.857 286.162H455.931L424.319 309.13L436.394 346.292L404.782 323.325L373.17 346.292L385.244 309.13L353.632 286.162H392.707L404.782 249Z" fill="#164E82"/>
<path d="M296.782 41L308.857 78.1623H347.931L316.319 101.13L328.394 138.292L296.782 115.325L265.17 138.292L277.244 101.13L245.632 78.1623H284.707L296.782 41Z" fill="#164E82"/>
<path d="M577.782 108L589.857 145.162H628.931L597.319 168.13L609.394 205.292L577.782 182.325L546.17 205.292L558.244 168.13L526.632 145.162H565.707L577.782 108Z" fill="#164E82"/>
<path d="M673.782 332L685.857 369.162H724.931L693.319 392.13L705.394 429.292L673.782 406.325L642.17 429.292L654.244 392.13L622.632 369.162H661.707L673.782 332Z" fill="#164E82"/>
<circle cx="243.091" cy="386.091" r="79.0909" fill="#F2A74E"/>
<circle cx="733.091" cy="228.091" r="79.0909" fill="#F2A74E"/>
</svg>
