<svg width="83" height="141" viewBox="0 0 83 141" fill="none" xmlns="http://www.w3.org/2000/svg">
<path d="M46.2895 140.121L39.8296 139.987C42.0528 130.396 42.8046 120.522 42.0592 110.705C41.4533 103.192 40.2573 100.222 39.8902 89.8889C39.609 81.9761 40.2137 80.7388 39.8902 71.1271C39.5097 59.7983 38.6784 60.649 38.7765 53.0088C38.8795 44.9082 39.8356 42.269 39.7145 33.4255C39.6502 28.7178 39.3158 24.8777 39.048 22.3984H41.2073C41.4497 24.9225 41.789 28.845 42.0556 33.6606C42.5972 43.2844 42.3294 45.8255 42.8178 54.1236C43.3522 63.1913 43.8248 62.4085 44.284 70.8351C44.7954 80.1996 44.2561 81.9833 44.6354 89.4805C45.1516 99.6593 46.4628 102.689 47.3328 110.588C48.3758 120.433 48.0246 130.375 46.2895 140.121Z" fill="#267237"/>
<path d="M46.1558 14.8588C45.8316 15.1286 45.5565 15.4525 45.3427 15.8161C45.0738 16.2781 44.9115 16.7944 44.8677 17.3272C44.7566 17.8401 44.755 18.3708 44.863 18.8844C44.9709 19.3981 45.186 19.8832 45.4942 20.3081C45.8937 20.6257 46.3561 20.8547 46.8508 20.9801C47.3455 21.1054 47.8611 21.1242 48.3636 21.0352C49.5195 20.9909 50.6452 20.654 51.6354 20.056C51.3538 20.0373 51.0796 19.9577 50.8317 19.8228C50.5838 19.6879 50.3681 19.5008 50.1995 19.2745C50.5689 19.3851 50.9499 19.4526 51.3349 19.4756C51.6781 19.5076 52.0241 19.4905 52.3625 19.4247C52.92 19.2967 53.4308 19.0155 53.8372 18.6128C53.407 18.7966 52.9413 18.8823 52.4739 18.8637C52.2696 18.8551 52.0667 18.8263 51.8681 18.7776C52.7718 18.6733 53.6613 18.4702 54.5206 18.1718C55.5845 17.903 56.5671 17.3799 57.384 16.6474C58.0763 15.9444 58.5606 15.0637 58.7836 14.1026C57.1315 13.2622 55.2462 12.9969 53.4264 13.3489C52.6732 13.4502 51.95 13.71 51.3046 14.1111C51.009 14.3044 50.7355 14.5295 50.4891 14.7824C50.5244 14.656 50.574 14.5341 50.6369 14.4189C50.8953 13.9835 51.3066 13.66 51.7905 13.5113C51.2205 13.4406 50.6447 13.4285 50.0722 13.475C49.1124 13.5584 48.1736 13.8042 47.2961 14.202C46.8843 14.3605 46.4996 14.5821 46.1558 14.8588Z" fill="#175E26"/>
<path d="M55.1181 15.261C55.1375 15.3313 52.474 16.0741 50.2626 16.8691C49.7875 17.0387 49.1368 17.2835 47.9432 17.704C47.5276 17.8506 47.4501 17.876 47.2719 17.9463C46.5687 18.2293 45.8888 18.5672 45.2386 18.9569C44.5234 19.322 43.846 19.7567 43.2161 20.2547C42.6839 20.7155 42.2468 21.2757 41.9293 21.9039C41.5542 22.6753 41.376 23.5275 41.4106 24.3844L39.8184 22.717C40.0898 21.7425 40.5957 20.8493 41.2919 20.1154C42.0796 19.3733 43.0113 18.8008 44.0292 18.4334C45.2477 17.9183 46.5004 17.4883 47.7784 17.1465C48.411 16.9563 49.5137 16.6315 51.1096 16.2123C52.7455 15.7785 55.0999 15.1956 55.1181 15.261Z" fill="#267237"/>
<path d="M34.5919 12.4292C35.2023 11.3488 35.4214 10.091 35.2123 8.86781C34.9563 7.40605 34.1665 6.09151 32.996 5.17919C33.0961 5.59525 33.0848 6.03033 32.9633 6.44064C32.8803 6.7129 32.7494 6.96814 32.5767 7.19436C32.7191 6.46626 32.6804 5.71434 32.464 5.0047C32.3019 4.48944 32.0505 4.00669 31.7212 3.57845C31.1682 2.83291 30.4459 2.22944 29.614 1.81776C29.7619 2.20201 29.8834 2.59595 29.9775 2.99681C30.0357 3.23916 30.0817 3.48151 30.1168 3.69963C29.539 3.00957 28.8715 2.3999 28.132 1.88683C26.3982 0.713145 24.3473 0.0971392 22.2537 0.121289C20.9745 0.10544 19.7093 0.388859 18.559 0.948924C17.9718 1.24326 17.4249 1.61183 16.9316 2.04557C17.0389 2.60389 17.1925 3.1523 17.3909 3.68509C18.2866 5.95117 19.8687 7.8803 21.9156 9.20225C23.0315 9.95383 24.2581 10.5262 25.5509 10.8987C25.454 10.9835 25.3498 11.0696 25.2359 11.1532C24.9679 11.3525 24.6804 11.5243 24.3779 11.6658C24.8575 12.2704 25.5044 12.7205 26.238 12.9599C26.804 13.1229 27.3971 13.1699 27.9817 13.0981C28.51 13.0551 29.0295 12.9367 29.5243 12.7467C29.4357 12.9518 29.3081 13.1378 29.1486 13.2944C28.9446 13.4938 28.695 13.6406 28.4216 13.7221C29.104 14.1458 29.8792 14.3974 30.6803 14.4553C31.4786 14.5445 32.2854 14.3975 33.0009 14.0323C33.6721 13.6591 34.2238 13.1032 34.5919 12.4292Z" fill="#175E26"/>
<path d="M21.3228 2.99552C21.2925 3.04762 22.646 3.86799 26.8969 6.6199C27.5108 6.98028 28.1035 7.37556 28.6721 7.8038C28.7497 7.86439 29.0647 8.1128 29.4634 8.43876C29.816 8.72595 30.0596 8.92953 30.1723 9.02283C30.8593 9.59357 31.2762 9.88924 31.7779 10.2855C32.2795 10.6817 32.2626 10.6987 34.3856 12.6012C35.4859 13.5863 35.4325 13.5294 35.6373 13.7245C36.4687 14.4077 37.1879 15.2168 37.7688 16.1226C38.1669 16.9226 38.4422 17.778 38.5856 18.66C38.7164 19.2719 38.7722 19.7409 38.8025 19.9929C39.0678 22.2601 39.3163 24.5698 39.4011 25.3659L41.3254 25.1999C41.1606 23.6876 41.0091 22.4007 40.8867 21.3998C40.7965 20.4133 40.6398 19.434 40.4177 18.4685C40.2154 17.4572 39.8469 16.4863 39.3272 15.5954C38.7477 14.7982 38.068 14.079 37.3047 13.4555C35.9803 12.2279 34.8897 11.37 33.9942 10.6684C32.6516 9.6166 31.8009 9.03374 31.5561 8.86651C31.1926 8.6181 30.7079 8.29577 29.8378 7.76139C28.2322 6.77137 26.9417 6.05037 26.0474 5.55234C22.9211 3.81588 21.3458 2.94462 21.3228 2.99552Z" fill="#267237"/>
<path d="M36.1136 21.5332C35.9063 21.2365 35.6414 20.9844 35.3348 20.7921C35.0282 20.5998 34.686 20.471 34.3286 20.4135C33.8992 20.3623 33.4637 20.4017 33.0505 20.5292C32.6372 20.6567 32.2553 20.8696 31.9294 21.1539C32.1758 21.1706 32.4104 21.2662 32.5982 21.4265C32.7322 21.5409 32.8439 21.6789 32.9278 21.8337C32.575 21.5964 32.1594 21.4699 31.7343 21.4702C31.4212 21.477 31.113 21.5488 30.8291 21.681C30.3022 21.9181 29.84 22.2784 29.4816 22.7316C29.7147 22.7082 29.9494 22.7045 30.1832 22.7207C30.3262 22.7304 30.4607 22.7474 30.5867 22.768C30.0926 23.0259 29.6373 23.3523 29.2344 23.7374C28.2349 24.7133 27.5188 25.942 27.1623 27.2927C26.9065 28.1425 26.8152 29.0333 26.8933 29.9174C26.9366 30.3599 27.0285 30.7963 27.1671 31.2188C27.4888 31.2577 27.8136 31.2641 28.1365 31.2382C29.5892 31.0512 30.9354 30.3766 31.9548 29.3248C32.5874 28.7107 33.1278 28.0083 33.5592 27.2394C33.5858 27.3206 33.6113 27.4066 33.6355 27.4999C33.6907 27.7202 33.7272 27.9448 33.7446 28.1712C34.1823 27.954 34.547 27.6137 34.794 27.1921C34.992 26.8401 35.13 26.4576 35.2023 26.0603C35.2807 25.7002 35.3169 25.3322 35.3102 24.9637C35.4062 25.0697 35.4811 25.1931 35.5307 25.3272C35.5994 25.5089 35.6299 25.7027 35.6204 25.8967C35.9897 25.5091 36.2715 25.0467 36.4468 24.5408C36.6477 24.0233 36.7225 23.4655 36.6649 22.9134C36.6054 22.4129 36.4152 21.9369 36.1136 21.5332Z" fill="#175E26"/>
<path d="M28.98 28.1517C29.003 28.1833 29.7434 27.4017 32.167 24.9866C32.5462 24.6085 33.0515 24.1069 33.7519 23.478C33.8974 23.3483 34.0294 23.2356 34.1603 23.1144C34.3881 22.9169 34.7529 22.5982 35.1952 22.2456C35.469 22.0263 35.8604 21.7149 36.3984 21.3465C36.7381 21.1045 37.0953 20.8882 37.4672 20.6994C37.7604 20.5259 38.0848 20.4118 38.4221 20.3637C38.8126 20.3359 39.2025 20.4253 39.5418 20.6206L39.6629 19.5203C39.0086 19.4342 38.3433 19.4972 37.7168 19.7045C37.0108 19.985 36.3616 20.3915 35.801 20.9042C35.2791 21.3228 34.7788 21.7677 34.3021 22.2371C33.844 22.6697 33.5011 23.0175 33.3545 23.1678C32.5196 24.016 31.9743 24.674 31.3926 25.3574C29.781 27.2514 28.9558 28.1202 28.98 28.1517Z" fill="#267237"/>
<path d="M79.5106 72.0892C79.4573 72.1401 78.0952 70.7768 73.6093 66.549C72.9077 65.8886 71.9734 65.0101 70.6647 63.9025C69.7547 63.1318 69.1064 62.6205 67.9588 61.7286C66.3813 60.4393 64.7217 59.2537 62.9906 58.1793C61.6466 57.2842 60.1828 56.5833 58.6428 56.0975C56.9905 55.552 55.2333 55.4013 53.5122 55.6577C52.4541 55.8602 51.4285 56.2055 50.4634 56.684C46.1446 58.8773 44.0907 64.3836 43.749 65.3324L43.3467 62.2848C43.7672 61.2705 45.8562 56.5253 50.7639 54.8094C52.2903 54.291 53.9047 54.0817 55.5128 54.1938C57.8726 54.4347 60.1426 55.2281 62.1387 56.5095C63.6778 57.4259 65.1545 58.4432 66.5592 59.5547C67.9225 60.5665 68.9113 61.3723 69.6214 61.9782C70.1436 62.4181 70.6962 62.9016 71.3009 63.4541C72.6496 64.6865 73.5329 65.605 75.1131 67.247C77.2082 69.4148 79.5857 72.0189 79.5106 72.0892Z" fill="#267237"/>
<path d="M13.8783 79.7257C14.405 79.6951 14.933 79.7558 15.4391 79.9051C16.0781 80.0959 16.6664 80.4271 17.161 80.8745C17.7006 81.2479 18.1556 81.7309 18.4961 82.2919C18.8366 82.8529 19.0551 83.4794 19.1374 84.1305C19.0441 84.7616 18.8177 85.3656 18.4732 85.9025C18.1287 86.4394 17.674 86.897 17.1392 87.2447C16.0474 88.1943 14.7316 88.8499 13.316 89.1496C13.6177 88.8234 13.8268 88.4227 13.9219 87.9888C13.9763 87.7332 13.989 87.4704 13.9595 87.2108C13.718 87.628 13.428 88.0153 13.0955 88.3644C12.8096 88.6864 12.4796 88.9663 12.1152 89.1957C11.497 89.555 10.7905 89.7342 10.0758 89.7131C10.6234 89.5126 11.1199 89.1935 11.5299 88.7788C11.7082 88.5971 11.8681 88.3982 12.0073 88.1851C11.095 88.8625 10.1118 89.4386 9.07487 89.9033C7.87421 90.5659 6.5307 90.9273 5.15966 90.9564C3.9303 90.9065 2.73859 90.5182 1.71582 89.8343C2.50537 87.6571 3.99765 85.805 5.957 84.5704C6.73097 84.02 7.61266 83.6396 8.54411 83.4543C8.98065 83.3767 9.4245 83.3483 9.86736 83.3695C9.7261 83.2825 9.57524 83.2122 9.4178 83.1599C8.8099 82.9831 8.15795 83.0393 7.58924 83.3174C8.82529 81.8341 10.4481 80.7222 12.2776 80.105C12.7882 79.8963 13.3283 79.7683 13.8783 79.7257Z" fill="#175E26"/>
<path d="M6.04244 87.7476C6.08485 87.8288 9.15062 86.2317 11.8468 85.0672C12.4248 84.8175 13.2282 84.4843 14.6775 83.8554C15.0883 83.6748 15.4191 83.5355 15.4954 83.5028C17.1761 82.7854 18.8399 82.2219 18.8399 82.2219C19.4288 82.022 20.2673 81.7372 21.3688 81.4525C22.5588 81.1219 23.7714 80.8789 24.9969 80.7254C26.603 80.4974 28.2348 80.5195 29.8342 80.7908C31.6505 81.0536 33.3797 81.7393 34.8824 82.7927C35.876 83.5301 36.7467 84.42 37.4623 85.4295C38.6288 86.9798 39.5008 88.7312 40.0349 90.5964L39.9912 86.84C39.2862 85.081 38.1726 83.515 36.7425 82.2716C34.9026 80.7419 32.6671 79.7647 30.2947 79.4531C27.782 79.0785 25.2183 79.2438 22.7745 79.9378C21.4452 80.2604 20.1398 80.6746 18.8678 81.1774C17.3261 81.7722 15.8173 82.4489 14.3479 83.2047C13.6075 83.5682 12.323 84.2177 10.509 85.1968C8.64895 86.1929 6.00245 87.6725 6.04244 87.7476Z" fill="#267237"/>
<path d="M70.2596 107.137C69.6658 106.802 69.0184 106.573 68.3462 106.46C67.4944 106.319 66.6219 106.371 65.793 106.612C64.6515 106.929 62.497 107.492 61.6512 109.271C60.8902 110.871 61.5991 112.573 62.2026 114.022C62.9334 115.743 64.0897 117.249 65.5628 118.4C65.3964 117.849 65.3813 117.263 65.5191 116.704C65.6016 116.377 65.7357 116.064 65.9166 115.779C65.9608 116.401 66.0776 117.016 66.2644 117.61C66.4146 118.146 66.6389 118.658 66.9309 119.131C67.4449 119.899 68.1635 120.509 69.0054 120.891C68.4823 120.346 68.0856 119.693 67.8433 118.978C67.7396 118.666 67.6669 118.344 67.6264 118.018C68.3011 119.322 69.1162 120.549 70.0572 121.677C71.0748 123.128 72.4295 124.311 74.0051 125.123C75.4621 125.764 77.0676 125.99 78.645 125.778C78.9643 122.8 78.2821 119.801 76.7062 117.254C76.1201 116.176 75.3123 115.234 74.3359 114.49C73.8746 114.153 73.3772 113.869 72.8527 113.642C73.0662 113.621 73.2813 113.625 73.4938 113.654C74.2983 113.795 75.0217 114.231 75.5235 114.875C75.3024 113.973 74.9893 113.096 74.5892 112.258C73.9133 110.857 73.0055 109.58 71.9039 108.482C71.4284 107.952 70.8737 107.498 70.2596 107.137Z" fill="#175E26"/>
<path d="M74.8045 120.902C74.71 120.971 72.0562 117.375 69.5866 114.494C69.0559 113.874 68.3131 113.031 66.991 111.472C66.636 111.054 66.5063 110.897 66.3694 110.745C66.3027 110.668 66.2482 110.612 66.2397 110.599C65.7781 110.088 63.8162 107.812 63.7399 107.722C62.8274 106.675 61.7938 105.739 60.6608 104.935C59.1128 103.669 57.2212 102.896 55.2296 102.714C53.7969 102.65 52.3721 102.961 51.0963 103.616C50.0877 104.193 49.2057 104.968 48.5031 105.893C47.8004 106.819 47.2915 107.877 47.0066 109.003L46.5449 106.474C47.3596 104.743 48.6979 103.313 50.3705 102.385C52.3893 101.356 54.7052 101.069 56.914 101.574C57.9098 101.842 58.8605 102.256 59.735 102.803C61.1843 103.67 62.5006 104.742 63.6429 105.986C65.1144 107.535 66.483 109.179 67.7399 110.907C68.3906 111.755 69.5151 113.231 71.0662 115.399C72.6597 117.616 74.8942 120.836 74.8045 120.902Z" fill="#267237"/>
<path d="M16.8141 46.5549C15.5794 45.8423 14.1366 45.5774 12.7292 45.8048C11.0474 46.0843 9.52966 46.9792 8.47109 48.3156C8.94928 48.2039 9.44855 48.221 9.91794 48.3653C10.2309 48.4625 10.5236 48.6156 10.7819 48.8173C9.94689 48.6464 9.08269 48.6831 8.26509 48.9239C7.6718 49.1063 7.11491 49.3909 6.61952 49.7649C5.75685 50.3929 5.05577 51.2169 4.57406 52.169C5.01729 52.0001 5.47154 51.8616 5.93366 51.7546C6.216 51.6904 6.48622 51.6395 6.7419 51.6019C5.94265 52.2629 5.23628 53.0288 4.64192 53.8788C3.279 55.8587 2.55388 58.2078 2.56374 60.6114C2.53183 62.0826 2.84474 63.5409 3.47741 64.8695C3.81012 65.547 4.22836 66.1791 4.72189 66.7502C5.36377 66.6312 5.99479 66.4598 6.60861 66.2376C9.21979 65.2285 11.4495 63.4272 12.9849 61.0864C13.8591 59.8094 14.5276 58.4033 14.9662 56.9191C15.0619 57.0306 15.1588 57.1518 15.2558 57.2827C15.4814 57.5925 15.6754 57.9242 15.835 58.2727C16.5341 57.7275 17.0574 56.9888 17.34 56.1485C17.5325 55.4998 17.5919 54.8188 17.5145 54.1466C17.4705 53.5394 17.34 52.9416 17.1267 52.3714C17.3937 52.49 17.6313 52.6657 17.8229 52.8862C18.0145 53.1067 18.1553 53.3665 18.2355 53.6474C18.7292 52.8678 19.0261 51.98 19.1007 51.0603C19.2091 50.1454 19.0478 49.2188 18.6366 48.3944C18.2145 47.6218 17.5827 46.9841 16.8141 46.5549Z" fill="#175E26"/>
<path d="M6.51084 60.9228C6.57385 60.9604 7.58689 59.3209 10.9798 54.1745C11.5106 53.3699 12.217 52.2999 13.2361 50.9209C13.4433 50.6398 13.6336 50.3866 13.8226 50.1394C13.8226 50.1394 14.6151 49.0985 15.3688 48.1824C16.6048 46.554 18.0256 45.0746 19.6027 43.774C20.7998 42.7858 22.1556 42.0073 23.6125 41.4716C25.5649 40.6818 27.7098 40.4977 29.7682 40.9433C31.3491 41.3789 32.8032 42.1857 34.0094 43.2965C36.269 45.1808 38.019 47.6025 39.0988 50.3393L39.3218 47.1124C38.5172 45.5839 37.4746 44.1932 36.233 42.9924C34.7534 41.4064 32.8943 40.2233 30.831 39.5546C25.4786 38.0241 20.617 41.571 20.0463 41.9866C18.6158 43.0648 17.3347 44.328 16.2365 45.7431C14.9163 47.3068 13.6755 48.9359 12.5188 50.6241C11.49 52.1339 10.8405 53.2318 9.68082 55.1924C8.13824 57.7892 6.42602 60.872 6.51084 60.9228Z" fill="#267237"/>
<path d="M59.078 97.0455C58.9084 96.2227 59.0282 95.3666 59.4173 94.622C59.8847 93.7346 60.6657 93.0529 61.6081 92.7098C61.4811 92.9143 61.4018 93.1448 61.376 93.3841C61.3502 93.6235 61.3786 93.8655 61.4591 94.0924C61.519 93.5948 61.6995 93.1193 61.985 92.7074C62.1974 92.4103 62.4593 92.1521 62.7593 91.944C63.2699 91.5794 63.8595 91.3411 64.48 91.2484C64.303 91.4644 64.141 91.6924 63.9953 91.9306C63.9068 92.076 63.8293 92.2178 63.7602 92.3535C64.2771 92.0293 64.8356 91.7766 65.4203 91.6022C66.7772 91.2078 68.2223 91.237 69.5621 91.6859C70.3898 91.9398 71.1464 92.3843 71.7712 92.9837C72.0873 93.2954 72.3625 93.6459 72.5903 94.027C72.4056 94.3635 72.1932 94.6841 71.9554 94.9855C70.908 96.2572 69.489 97.1695 67.8972 97.5944C67.0226 97.8454 66.1141 97.9583 65.2046 97.9289C65.2483 98.0024 65.2979 98.0787 65.3537 98.1579C65.4845 98.3416 65.634 98.5113 65.7996 98.6644C65.3655 98.9536 64.8562 99.109 64.3346 99.1116C63.9369 99.0982 63.5459 99.0055 63.1846 98.8389C62.8537 98.7012 62.544 98.5172 62.2649 98.2924C62.2818 98.4636 62.336 98.629 62.4238 98.7771C62.5115 98.9251 62.6306 99.0521 62.7726 99.1491C62.2457 99.2784 61.6952 99.2784 61.1682 99.1491C60.6367 99.04 60.1486 98.778 59.7638 98.3954C59.4131 98.0186 59.1755 97.5509 59.078 97.0455Z" fill="#175E26"/>
<path d="M69.0069 93.9531C69.0166 93.9955 67.9163 94.2573 64.4119 95.1988C63.8642 95.3454 63.1359 95.5429 62.1774 95.8556C61.511 96.0737 61.0541 96.2397 60.2544 96.539C59.115 96.9123 58.0078 97.3775 56.9438 97.9301C56.2173 98.35 55.5902 98.9221 55.1056 99.6072C54.7306 100.159 54.4619 100.775 54.3131 101.425L53.4648 101.495C53.9186 100.159 54.7361 98.9761 55.8254 98.0792C56.7176 97.4393 57.6969 96.9309 58.7336 96.5693C59.8447 96.1048 60.985 95.7133 62.1471 95.3975C63.1808 95.1031 63.9139 94.9431 65.2238 94.6596C66.9554 94.2839 68.9948 93.8962 69.0069 93.9531Z" fill="#267237"/>
<path d="M21.9863 98.7238C22.0263 98.7395 22.471 97.6962 23.9797 94.4002C24.222 93.8852 24.531 93.1993 25 92.3063C25.0945 92.1245 25.1829 91.9597 25.2702 91.7998C25.2702 91.7998 25.6337 91.126 25.9972 90.5238C26.69 89.2081 27.5728 88.0015 28.6171 86.943C29.5566 86.0919 30.6514 85.4299 31.8416 84.9933C33.4247 84.4124 35.1266 84.2313 36.7965 84.4662L36.1906 83.7767C34.5967 83.6116 32.9863 83.8228 31.489 84.3934C30.2464 84.8655 29.1112 85.5821 28.1506 86.5007C27.404 87.2467 26.7712 88.0984 26.2723 89.0285C25.7101 89.9773 25.189 90.8546 24.548 92.1984C24.0851 93.1678 23.8064 93.8646 23.3083 95.1067C22.654 96.7559 21.9318 98.702 21.9863 98.7238Z" fill="#267237"/>
<path d="M60.4053 74.0002C60.3641 74.0171 59.9206 72.9738 58.3986 69.6839C58.1563 69.1688 57.8424 68.4842 57.3711 67.5923C57.0439 66.9731 56.8015 66.5514 56.3714 65.8135C55.8055 64.7558 55.1593 63.743 54.4386 62.7841C53.3015 61.5269 51.8044 60.6509 50.1514 60.2757C48.9267 59.9765 47.6524 59.9414 46.4131 60.1727L46.8239 59.4844C47.9928 59.2908 49.1892 59.3407 50.338 59.6311C51.7861 60.0179 53.1132 60.7639 54.1962 61.8001C54.9469 62.5415 55.5825 63.3911 56.0818 64.3206C56.714 65.345 57.2944 66.4006 57.8206 67.4833C58.2872 68.4527 58.5683 69.147 59.07 70.3915C59.7304 72.0347 60.4586 73.9783 60.4053 74.0002Z" fill="#267237"/>
<path d="M17.0089 35.9095C17.1449 35.0822 16.9908 34.2333 16.5726 33.5066C16.069 32.6411 15.2619 31.9933 14.3078 31.689C14.4681 31.9293 14.5622 32.2077 14.5805 32.496C14.5916 32.6884 14.5682 32.8813 14.5114 33.0655C14.4322 32.5703 14.2325 32.1021 13.9298 31.7023C13.7062 31.4151 13.4344 31.1691 13.1264 30.9752C12.6016 30.6312 12.0028 30.4165 11.379 30.3488C11.5637 30.5573 11.7338 30.7783 11.888 31.0104C11.9825 31.1522 12.0661 31.2915 12.14 31.4236C11.6104 31.1206 11.0421 30.8907 10.4508 30.7402C9.07967 30.3983 7.63687 30.4828 6.31505 30.9825C5.49887 31.2708 4.76116 31.7455 4.16053 32.3688C3.85731 32.6928 3.59632 33.054 3.38379 33.4436C3.58236 33.7726 3.8077 34.0847 4.05753 34.3767C5.15458 35.6056 6.60885 36.4603 8.21631 36.8208C9.10058 37.0365 10.0132 37.1126 10.921 37.0462C10.8798 37.1225 10.8325 37.2013 10.7804 37.2813C10.6569 37.4699 10.5148 37.6456 10.3563 37.806C10.8011 38.0778 11.3161 38.2126 11.8371 38.1937C12.2338 38.1647 12.6208 38.0563 12.9749 37.875C13.3 37.7249 13.602 37.529 13.8716 37.2934C13.8619 37.465 13.8145 37.6323 13.7328 37.7835C13.6512 37.9347 13.5372 38.0661 13.399 38.1683C13.9304 38.2785 14.4806 38.2577 15.0022 38.1077C15.5292 37.9781 16.0066 37.6967 16.3751 37.2982C16.7137 36.9047 16.9334 36.4231 17.0089 35.9095Z" fill="#175E26"/>
<path d="M6.9639 33.2182C6.95663 33.2606 8.06903 33.4775 11.605 34.2785C12.1587 34.3997 12.8943 34.5705 13.8637 34.8456C14.0612 34.9014 14.2405 34.9535 14.4163 35.0056C15.0609 35.1994 15.5468 35.3618 15.8134 35.4515C17.7522 36.1058 18.7217 36.4342 19.2585 36.6705C20.2245 37.0934 21.15 37.6032 22.0237 38.1937C22.8008 38.7244 23.5305 39.3212 24.2049 39.9774L25.436 39.626C24.5036 38.8948 23.5204 38.2306 22.4939 37.6387C21.5096 37.0678 20.4864 36.5669 19.4317 36.1398C18.9034 35.9314 18.3811 35.7617 17.3354 35.4212C15.9055 34.9583 15.033 34.6663 13.877 34.3876C12.8325 34.1343 12.0945 34.0046 10.7737 33.7732C9.02754 33.4666 6.97481 33.16 6.9639 33.2182Z" fill="#267237"/>
<path d="M64.4996 38.8978C64.0842 38.5734 63.6155 38.3237 63.1146 38.1598C62.479 37.9537 61.8052 37.8933 61.143 37.9829C60.4868 37.9835 59.8381 38.1225 59.2393 38.3908C58.6405 38.6591 58.1049 39.0507 57.6677 39.54C57.3865 40.1126 57.2303 40.7385 57.2094 41.3761C57.1886 42.0137 57.3035 42.6485 57.5465 43.2383C57.9083 44.6385 58.6196 45.924 59.6138 46.9742C59.5514 46.5345 59.607 46.0862 59.775 45.6751C59.8756 45.4341 60.0143 45.2107 60.1858 45.0135C60.148 45.4939 60.1667 45.9771 60.2415 46.4531C60.295 46.8803 60.408 47.298 60.5772 47.6939C60.8822 48.3406 61.3614 48.8895 61.961 49.2789C61.4683 48.5931 61.213 47.7651 61.2339 46.9208C61.598 47.9964 62.0787 49.0289 62.6674 49.9999C63.2792 51.2273 64.1794 52.288 65.2909 53.0912C66.3324 53.7484 67.5349 54.106 68.7663 54.1248C69.3526 51.8832 69.1761 49.5103 68.2646 47.3801C67.9405 46.4876 67.4309 45.674 66.7693 44.9929C66.4549 44.6827 66.107 44.4084 65.732 44.175C65.8962 44.1834 66.0589 44.211 66.2167 44.2574C66.8174 44.4572 67.322 44.8737 67.632 45.4255C67.458 43.5027 66.7542 41.6659 65.5987 40.1192C65.2969 39.6583 64.9262 39.2464 64.4996 38.8978Z" fill="#175E26"/>
<path d="M66.3936 49.9502C66.3136 49.9926 64.6971 46.9366 63.1388 44.4476C62.8043 43.9132 62.333 43.1825 61.5005 41.8375C61.2581 41.4546 61.0715 41.1528 61.0267 41.0825C60.0573 39.5375 59.0018 38.1283 59.0018 38.1283C58.6298 37.6302 58.1003 36.9165 57.3574 36.0598C56.5654 35.1121 55.7047 34.2239 54.7824 33.4024C53.5903 32.302 52.2343 31.3936 50.763 30.7098C48.9454 29.8883 47.3967 29.1345 45.4713 29.4896C44.0889 29.7717 42.832 30.4859 41.882 31.529L41.6396 29.4981C42.3829 28.8112 43.2707 28.2998 44.2377 28.0015C46.8296 27.226 49.1405 28.4184 51.1447 29.343C53.4257 30.4618 55.4423 32.0534 57.0606 34.0119C57.9716 35.0324 58.8109 36.1146 59.5725 37.2509C60.5038 38.6179 61.3614 40.0336 62.1415 41.4921C62.5426 42.2192 63.2321 43.4758 64.1688 45.3116C65.1309 47.1898 66.4699 49.9102 66.3936 49.9502Z" fill="#267237"/>
<path d="M23.496 58.4919C23.536 58.5076 23.9808 57.4655 25.5027 54.1744C25.7451 53.6594 26.0577 52.9759 26.5291 52.0841C26.8563 51.4637 27.0986 51.0432 27.53 50.304C28.1059 49.2524 28.7512 48.2404 29.4616 47.2746C30.2565 46.2652 31.7239 44.4124 33.8506 44.2682C34.3508 44.2364 34.8527 44.2964 35.3314 44.4451L34.8624 43.5799C34.3698 43.5114 33.8693 43.5262 33.3816 43.6235C32.3542 43.8892 31.4205 44.4345 30.6842 45.1988C30.1275 45.6983 29.6206 46.2506 29.1707 46.8481C28.6742 47.4701 28.2222 48.1265 27.8184 48.8123C27.1877 49.8377 26.609 50.894 26.0844 51.9774C25.6178 52.9469 25.3379 53.6412 24.835 54.8857C24.1698 56.5264 23.4415 58.4701 23.496 58.4919Z" fill="#267237"/>
<path d="M68.241 65.1179C67.8579 65.2933 67.4878 65.4958 67.1335 65.7238C66.9691 65.8366 66.8139 65.9622 66.6694 66.0994C66.4321 66.3356 66.225 66.6001 66.0526 66.8871C65.6451 68.0289 65.7052 69.2854 66.2198 70.383C66.7709 72.1846 67.9031 73.7531 69.4395 74.8435C70.3255 75.4794 71.3357 75.9213 72.4041 76.1403C73.4725 76.3593 74.575 76.3505 75.6398 76.1145C76.7045 75.8785 77.7075 75.4205 78.5833 74.7705C79.4591 74.1206 80.1879 73.2932 80.7222 72.3425C81.2921 71.4492 81.6768 70.4506 81.8533 69.4058C82.0298 68.3611 81.9946 67.2915 81.7498 66.2606C81.3371 64.8188 80.5079 63.531 79.3662 62.5587C78.6391 61.7859 77.6813 61.2694 76.6361 61.0864C76.0676 60.9939 75.485 61.0426 74.9397 61.2282C74.2699 61.5265 73.6202 61.8681 72.9948 62.2509C72.7975 62.3668 72.5844 62.4533 72.3622 62.5078C72.1688 62.5442 71.9734 62.5689 71.777 62.5817C71.4378 62.6202 71.109 62.7222 70.8075 62.8822C70.5583 63.0512 70.3326 63.2525 70.1362 63.4808C69.7182 63.9086 69.6988 63.9789 69.4613 64.2152C69.0988 64.5718 68.6881 64.8756 68.241 65.1179Z" fill="#C80D25"/>
<path d="M81.5091 65.542C81.4257 65.3278 81.3314 65.1179 81.2268 64.9131L81.2171 64.8937C81.1177 64.7007 81.0139 64.5189 80.9057 64.3484L80.896 64.3327C80.7966 64.1752 80.6936 64.0297 80.5918 63.8904L80.5337 63.8128C80.4391 63.6917 80.3434 63.5705 80.2501 63.4602L80.1689 63.3669C80.0901 63.2772 80.0126 63.1924 79.9375 63.1149L79.8575 63.0312C79.8078 62.9804 79.763 62.9367 79.7157 62.8919C79.5945 62.7768 79.4794 62.6665 79.3643 62.5611C79.2153 62.4254 79.0541 62.2836 78.8796 62.1418C78.6809 61.9819 78.5161 61.8595 78.3755 61.7674L78.2834 61.7044L78.184 61.6414C77.8461 61.4318 77.4784 61.2745 77.0935 61.1748H77.0826C76.9356 61.1387 76.7867 61.1112 76.6366 61.0924C76.403 61.0605 76.1672 61.0463 75.9314 61.05H75.9241C75.8478 61.05 75.7629 61.0658 75.6818 61.0742C76.0047 61.2301 76.3384 61.3625 76.6802 61.4705C77.9475 62.1248 78.9575 63.1868 79.5473 64.4854C80.0385 65.5034 80.2877 66.6212 80.2755 67.7514C80.2633 68.8817 79.9901 69.9938 79.477 71.001C78.5445 72.7125 76.9977 74.0068 75.1486 74.623C72.1192 75.7136 69.5005 74.5782 69.4424 74.8447C70.6164 75.6419 71.9727 76.13 73.3855 76.2637C73.5175 76.2734 73.6508 76.2807 73.7866 76.2843H73.8665C74.46 76.2964 75.0529 76.2394 75.6333 76.1147C75.8187 76.0735 75.9968 76.025 76.1737 75.9729C76.2307 75.9559 76.2852 75.9353 76.341 75.9172C76.4621 75.8796 76.5712 75.8408 76.6815 75.796C76.7445 75.7717 76.8026 75.7463 76.8669 75.7208C76.9662 75.6796 77.0644 75.6372 77.1601 75.5997L77.3395 75.5136C77.4315 75.4676 77.5212 75.4203 77.6097 75.3731C77.6654 75.3428 77.7212 75.3125 77.7745 75.281C77.8641 75.2289 77.9514 75.1756 78.0374 75.121C78.0823 75.0919 78.1307 75.0629 78.1744 75.0338C78.2802 74.9635 78.382 74.892 78.4797 74.8193L78.5427 74.7745C78.6639 74.686 78.773 74.5951 78.882 74.5054L78.9753 74.423C79.0492 74.3588 79.122 74.2946 79.191 74.2304C79.2286 74.1964 79.2637 74.1613 79.3001 74.1274L79.4734 73.9565L79.5776 73.8487C79.6297 73.7929 79.6806 73.7384 79.729 73.6839L79.8211 73.5821C79.8696 73.5263 79.9157 73.4706 79.9605 73.4173L80.0356 73.3264C80.0841 73.267 80.1289 73.2052 80.1726 73.1507L80.221 73.0889C80.2792 73.0126 80.3313 72.9398 80.3798 72.8708L80.4185 72.815L80.5155 72.6733L80.5506 72.6199L80.6088 72.5291L80.6718 72.4309L80.7227 72.3424C81.3054 71.386 81.7026 70.3282 81.8933 69.2246C81.9066 69.1446 81.9199 69.0646 81.9296 68.9822C81.9296 68.9568 81.9381 68.9241 81.9405 68.901C81.9551 68.7799 81.9623 68.6587 81.9708 68.5448C81.9708 68.4793 81.9793 68.4127 81.9817 68.3521C81.9878 68.2128 81.9902 68.0722 81.9878 67.9292V67.8638C81.9878 67.7171 81.9744 67.5693 81.9599 67.419C81.9599 67.3778 81.9514 67.3403 81.9466 67.2979C81.9308 67.1549 81.9114 67.0107 81.886 66.8641L81.8763 66.8071C81.8436 66.6253 81.8024 66.4436 81.7551 66.257C81.6897 66.015 81.6112 65.7767 81.52 65.5432L81.5091 65.542Z" fill="#9F122D"/>
<path d="M67.4914 66.6884C67.2222 66.8653 67.017 67.124 66.9061 67.4263C66.7085 68.1833 66.702 68.9775 66.8871 69.7376C67.0721 70.4977 67.443 71.2 67.9664 71.7814C68.1058 71.9929 68.2908 72.1705 68.5078 72.3011C68.7249 72.4317 68.9684 72.5121 69.2205 72.5363C69.6381 72.4906 70.0203 72.281 70.2833 71.9535C70.7801 71.3294 70.5789 70.5381 70.1912 69.0174C69.9723 68.1794 69.5611 67.404 68.9903 66.7526C68.8506 66.6097 68.6733 66.5093 68.4789 66.463C68.133 66.4088 67.7795 66.4895 67.4914 66.6884Z" fill="#D9766A"/>
<path d="M71.218 65.611C71.0345 65.2284 70.9916 64.7934 71.0968 64.3823C71.1526 64.1774 71.2467 63.9849 71.3743 63.8152C71.6514 63.7874 71.9302 63.8472 72.1716 63.986C72.3716 64.1072 72.4443 64.2502 72.7702 64.6355C72.9884 64.8936 73.1701 65.1118 73.301 65.2693C73.2925 65.0041 73.2485 64.7412 73.1701 64.4877C73.0822 64.0939 72.8764 63.7363 72.58 63.4626C72.3814 63.3003 72.1472 63.1873 71.8966 63.133C72.0476 62.9509 72.2169 62.7848 72.4019 62.6373C72.7702 62.3595 73.1833 62.1468 73.6233 62.0084C74.0142 61.8619 74.4167 61.7484 74.8266 61.6691C74.6614 61.6399 74.494 61.6245 74.3261 61.6231C73.816 61.633 73.3145 61.7573 72.8587 61.9866C72.3792 62.1962 71.9323 62.4737 71.5318 62.8106C71.555 62.6543 71.5932 62.5005 71.6457 62.3514C71.7623 62.0316 71.9396 61.7374 72.168 61.485C72.4124 61.2128 72.7086 60.992 73.0393 60.8354C72.8927 60.8467 72.7477 60.873 72.6067 60.9142C72.2742 61.0167 71.9693 61.1932 71.7148 61.4304C71.436 61.7117 71.2087 62.0399 71.0435 62.3998C70.9393 62.5901 70.8629 62.7537 70.812 62.8664C70.7308 62.7185 70.6242 62.5295 70.5006 62.3114C70.3707 62.02 70.1911 61.7535 69.9699 61.5237C69.7761 61.367 69.5431 61.2664 69.2961 61.2329C69.5459 61.4771 69.7532 61.7613 69.9093 62.0739C70.0653 62.3864 70.1669 62.7233 70.2098 63.0699C69.957 62.9828 69.6959 62.9219 69.4306 62.8882C69.0388 62.8413 68.6424 62.849 68.2528 62.9112C67.9197 62.9539 67.5915 63.0281 67.2725 63.133C67.7438 63.1657 68.128 63.1742 68.3982 63.1754C68.8029 63.1464 69.2095 63.1874 69.6003 63.2965C69.7647 63.3511 69.9228 63.4234 70.0716 63.5122C69.6741 63.677 69.3307 63.9499 69.0804 64.2999C68.8809 64.579 68.75 64.9012 68.6984 65.2404C68.6468 65.5796 68.676 65.9262 68.7835 66.252C68.8456 65.8021 68.995 65.3686 69.2234 64.976C69.342 64.7621 69.4956 64.5696 69.6778 64.4065C69.8065 64.2986 69.9434 64.201 70.0874 64.1145C70.2728 63.9933 70.4327 63.9121 70.5491 63.854C70.4694 64.0902 70.4506 64.3428 70.4945 64.5883C70.5398 64.7988 70.6272 64.9979 70.7515 65.1737C70.8759 65.3495 71.0345 65.4983 71.218 65.611Z" fill="#267237"/>
<path d="M28.0464 90.348C27.8287 90.2781 27.619 90.1851 27.4211 90.0705C26.7365 89.6961 26.7995 89.5531 26.4214 89.4028C25.9863 89.2698 25.5248 89.2473 25.0788 89.3374C24.6692 89.3774 24.6183 89.4295 24.2572 89.4743C23.7502 89.5094 23.2408 89.4866 22.7389 89.4065C21.9275 89.4809 21.172 89.8519 20.6171 90.4486C19.8665 91.1055 19.3051 91.9509 18.9909 92.8976C18.4572 94.4512 18.4406 96.1359 18.9436 97.6998C19.2244 98.9694 19.877 100.127 20.8182 101.024C21.4302 101.563 22.1458 101.972 22.9213 102.226C23.6968 102.48 24.5159 102.572 25.3284 102.498C26.9184 102.213 28.3511 101.361 29.3612 100.1C30.7271 98.9187 31.6126 97.2775 31.8501 95.4871C31.9158 94.7499 31.8353 94.0071 31.6133 93.3011C31.3912 92.5951 31.0319 91.9399 30.556 91.3732C30.2759 91.0928 29.9475 90.8654 29.5865 90.7018C29.3391 90.6073 29.0836 90.5355 28.8231 90.4874C28.562 90.4541 28.3028 90.4076 28.0464 90.348Z" fill="#C80D25"/>
<path d="M31.8499 95.4872C31.9181 94.5924 31.7826 93.6938 31.4536 92.8589C31.3304 92.5406 31.1774 92.2347 30.9968 91.9452C30.8719 91.7401 30.7253 91.5492 30.5593 91.3757C30.2795 91.095 29.951 90.8676 29.5899 90.7043C30.3848 91.8422 30.8507 93.1772 30.9362 94.5626C30.958 97.1594 28.4072 99.0619 27.954 99.3988C26.7131 100.474 25.0998 101.02 23.4608 100.918C20.6992 100.511 19.2705 97.4696 18.9434 97.7023C19.2241 98.9719 19.8767 100.129 20.818 101.026C21.4299 101.566 22.1455 101.975 22.921 102.228C23.6965 102.482 24.5156 102.575 25.3281 102.501C26.9182 102.215 28.3509 101.364 29.3609 100.103C29.5766 99.8835 29.8286 99.6266 30.088 99.3297C30.3697 99.0107 30.6281 98.6717 30.8611 98.3154C31.4233 97.4709 31.7634 96.4981 31.8499 95.4872Z" fill="#9F122D"/>
<path d="M22.622 90.4171C22.353 90.3518 22.0699 90.3765 21.8162 90.4874C21.6546 90.5762 21.4991 90.6758 21.3509 90.7854C20.4102 91.5245 19.8003 92.6058 19.6544 93.7931C19.6002 94.0079 19.5938 94.232 19.6357 94.4495C19.6776 94.667 19.7667 94.8728 19.8968 95.0521C20.0298 95.1705 20.1855 95.2608 20.3544 95.3174C20.5233 95.3741 20.7019 95.3959 20.8795 95.3817C21.5629 95.3235 21.9507 94.7176 22.6972 93.5519C23.1047 92.9057 23.3611 92.1759 23.4472 91.4168C23.4574 91.2422 23.4192 91.0682 23.337 90.9139C23.2563 90.7881 23.1517 90.6795 23.029 90.5942C22.9063 90.509 22.768 90.4488 22.622 90.4171Z" fill="#D9766A"/>
<path d="M24.5887 91.9815C24.7149 91.5217 24.9983 91.1208 25.3896 90.8485C25.5885 90.7162 25.8105 90.6225 26.044 90.5722C26.299 90.7512 26.4917 91.0054 26.5953 91.2993C26.6561 91.627 26.6655 91.9622 26.6232 92.2929C26.6232 92.6722 26.6123 92.9909 26.6075 93.2211C26.795 92.9897 26.9515 92.7346 27.0728 92.4625C27.2884 92.0631 27.3771 91.6074 27.3272 91.1563C27.2806 90.8713 27.1673 90.6014 26.9964 90.3686C27.2586 90.3248 27.5246 90.3086 27.7901 90.3201C28.3071 90.3562 28.8142 90.4791 29.2903 90.6837C29.7303 90.8505 30.1558 91.0532 30.5626 91.2896C30.4439 91.1427 30.3129 91.0061 30.1712 90.8812C29.7313 90.5131 29.2146 90.2481 28.659 90.1057C28.0979 89.9293 27.5142 89.8354 26.9261 89.827C27.0609 89.7106 27.2066 89.6075 27.3612 89.5192C27.6961 89.3345 28.0635 89.216 28.4433 89.1702C28.8512 89.1195 29.2652 89.1504 29.6611 89.2611C29.529 89.1624 29.3868 89.0779 29.237 89.009C28.879 88.8512 28.4901 88.7763 28.0991 88.7897C27.6552 88.8234 27.2206 88.9341 26.8147 89.1169C26.5856 89.2017 26.4015 89.2829 26.2754 89.3422C26.3142 89.1556 26.3639 88.9181 26.4184 88.6406C26.5241 88.2981 26.5684 87.9395 26.5493 87.5816C26.5007 87.3054 26.377 87.048 26.1918 86.8375C26.2595 87.6261 26.0556 88.4141 25.6138 89.0708C25.4632 88.8112 25.2866 88.5676 25.0867 88.3438C24.7891 88.0144 24.4464 87.7289 24.0688 87.4955C23.7509 87.2874 23.4132 87.1112 23.0606 86.9696C23.4363 87.344 23.7562 87.6349 23.9852 87.836C24.3517 88.1068 24.6682 88.4394 24.9207 88.8188C25.0206 88.9863 25.1019 89.1643 25.163 89.3495C24.704 89.1963 24.2112 89.1745 23.7404 89.2865C23.3646 89.3762 23.0152 89.5532 22.7204 89.8031C22.4257 90.053 22.194 90.3688 22.0439 90.7249C22.4287 90.3889 22.8753 90.1313 23.3587 89.9663C23.6168 89.8727 23.8888 89.8227 24.1633 89.8185C24.3527 89.8211 24.5416 89.8393 24.728 89.873C24.9246 89.9034 25.1196 89.9438 25.3121 89.9942C25.0699 90.1364 24.8673 90.3372 24.7232 90.5782C24.6069 90.7909 24.5351 91.0249 24.5119 91.2661C24.4888 91.5073 24.5149 91.7506 24.5887 91.9815Z" fill="#267237"/>
<path d="M24.4112 51.0894C24.0662 51.0895 23.7216 51.1138 23.38 51.1621C23.2193 51.1908 23.0609 51.2313 22.9062 51.2833C22.6494 51.3789 22.4053 51.5055 22.1791 51.6601C21.487 52.3707 21.1034 53.3257 21.1116 54.3175C20.9069 55.8459 21.2141 57.399 21.9853 58.7344C22.4279 59.5091 23.0288 60.1818 23.7488 60.7088C24.4688 61.2358 25.2918 61.6052 26.164 61.7929C27.0363 61.9806 27.9383 61.9824 28.8114 61.7983C29.6844 61.6141 30.5089 61.2481 31.231 60.7241C31.9596 60.2538 32.5864 59.642 33.0741 58.9249C33.5618 58.2078 33.9005 57.4001 34.0702 56.5496C34.2551 55.3362 34.0776 54.0951 33.56 52.9822C33.2831 52.1591 32.7464 51.4481 32.0308 50.9561C31.6398 50.693 31.1898 50.5307 30.7209 50.4835C30.1208 50.4758 29.5208 50.5082 28.925 50.5804C28.7386 50.5986 28.5506 50.5904 28.3664 50.5562C28.2099 50.5172 28.0561 50.4682 27.9059 50.4096C27.6398 50.3232 27.36 50.2871 27.0807 50.303C26.8374 50.3435 26.6006 50.4165 26.3767 50.5199C25.9199 50.6944 25.8811 50.7392 25.6242 50.8349C25.2337 50.976 24.8254 51.0617 24.4112 51.0894Z" fill="#C80D25"/>
<path d="M34.1391 55.9327C34.1488 55.7446 34.1488 55.5561 34.1391 55.368V55.3499C34.1319 55.173 34.1161 55.0021 34.0943 54.8385V54.824C34.0737 54.6725 34.0471 54.5283 34.018 54.3902L34.0022 54.3126C33.9731 54.1914 33.9428 54.0702 33.9113 53.9491L33.8823 53.8521C33.8544 53.7576 33.8253 53.6691 33.7962 53.5855C33.7853 53.5552 33.7756 53.525 33.7647 53.4959C33.7453 53.4413 33.7271 53.3929 33.7078 53.3444C33.6581 53.2172 33.6084 53.096 33.5587 52.9809C33.4933 52.8294 33.423 52.6682 33.343 52.5046C33.2509 52.318 33.1673 52.1702 33.1007 52.0539C33.0849 52.0284 33.0692 52.0018 33.0522 51.9763C33.0352 51.9509 33.0171 51.9194 33.0001 51.8963C32.8198 51.6221 32.5987 51.3769 32.3445 51.1693H32.3373C32.2404 51.092 32.1388 51.0208 32.0331 50.956C31.8706 50.8517 31.7 50.7605 31.5229 50.6834C31.466 50.6591 31.4018 50.6397 31.3351 50.6191C31.5219 50.8448 31.7244 51.057 31.941 51.2541C32.6609 52.1735 33.0502 53.3085 33.0461 54.4762C33.0642 55.4011 32.8682 56.3177 32.4735 57.1543C32.0787 57.9909 31.4958 58.7249 30.7704 59.299C29.4921 60.2556 27.8983 60.6913 26.3112 60.518C23.6877 60.2914 22.1257 58.5586 21.9912 58.7368C22.5921 59.7306 23.4345 60.5564 24.4402 61.1373C24.5359 61.1894 24.6329 61.2403 24.7322 61.2899L24.7904 61.319C25.2285 61.531 25.6902 61.6904 26.1657 61.794C26.3184 61.8268 26.4675 61.8522 26.6153 61.8728C26.6638 61.8801 26.7122 61.8837 26.7595 61.8898C26.8589 61.9007 26.957 61.9116 27.0528 61.9176L27.2163 61.9249C27.3048 61.9249 27.392 61.931 27.4781 61.931C27.5326 61.931 27.5871 61.931 27.6405 61.931C27.7253 61.931 27.8077 61.9249 27.8901 61.9188L28.044 61.9067C28.1288 61.8982 28.2112 61.8886 28.2936 61.8764L28.4257 61.8595C28.5287 61.8425 28.628 61.8243 28.7262 61.8037L28.788 61.7916C28.9092 61.7662 29.0207 61.7371 29.1321 61.7068C29.1649 61.6983 29.1964 61.6874 29.2291 61.6777C29.3066 61.6559 29.383 61.6329 29.4569 61.6086L29.572 61.5686C29.6362 61.5468 29.6992 61.5238 29.7598 61.5008L29.8737 61.456L30.0434 61.3857L30.1464 61.3408L30.3063 61.2657L30.3924 61.2245L30.5547 61.1409L30.6117 61.1106C30.6808 61.073 30.745 61.0379 30.8044 61.0028L30.8516 60.9737L30.9728 60.9022L31.0164 60.8743L31.0916 60.827L31.1715 60.7737L31.237 60.7301C31.9984 60.2177 32.6563 59.5661 33.1758 58.8095C33.2121 58.7549 33.2497 58.6992 33.2849 58.641L33.3212 58.5853C33.3709 58.5029 33.4181 58.4168 33.4642 58.3296C33.4896 58.2823 33.5163 58.2351 33.5381 58.1902C33.5902 58.0885 33.6399 57.9855 33.6872 57.8776L33.7078 57.8291C33.7538 57.7185 33.7974 57.6046 33.8386 57.4874C33.8495 57.4571 33.8592 57.4268 33.8689 57.3965C33.9065 57.2838 33.9404 57.1699 33.9719 57.0536L33.984 57.0076C34.0216 56.8609 34.0531 56.7107 34.0798 56.5556C34.1135 56.355 34.1362 56.1527 34.1476 55.9497L34.1391 55.9327Z" fill="#9F122D"/>
<path d="M23.3185 52.0018C23.058 52.0423 22.8173 52.165 22.6315 52.352C22.5216 52.4861 22.4208 52.6273 22.3297 52.7749C22.0534 53.2508 21.8759 53.7776 21.8078 54.3237C21.7397 54.8699 21.7825 55.4241 21.9335 55.9533C21.9656 56.1582 22.0429 56.3534 22.1599 56.5246C22.2768 56.6959 22.4305 56.8389 22.6097 56.9434C22.9361 57.0512 23.2921 57.0255 23.5997 56.8719C24.1813 56.5762 24.3013 55.9194 24.5327 54.6568C24.6555 53.9584 24.614 53.2411 24.4115 52.5616C24.3562 52.4078 24.2588 52.2726 24.1304 52.1714C23.8914 52.0133 23.6009 51.9526 23.3185 52.0018Z" fill="#D9766A"/>
<path d="M26.4585 52.4695C26.4525 52.1223 26.5682 51.7841 26.7857 51.5134C26.8974 51.3804 27.033 51.2694 27.1856 51.1862C27.4015 51.2602 27.5889 51.4 27.7212 51.5861C27.8312 51.802 27.9064 52.0338 27.9441 52.2732C28.0192 52.5398 28.0798 52.7639 28.1235 52.9251C28.2071 52.725 28.2641 52.5148 28.2931 52.2998C28.3628 51.9751 28.3315 51.6369 28.2034 51.3304C28.1127 51.1401 27.9782 50.974 27.8108 50.8457C27.9851 50.762 28.1674 50.6963 28.3549 50.6494C28.7238 50.5691 29.1036 50.5519 29.4782 50.5985C29.8193 50.6231 30.1578 50.6762 30.49 50.7573C30.3768 50.6787 30.2573 50.6098 30.1326 50.5513C29.751 50.3846 29.3369 50.3055 28.9208 50.3198C28.4924 50.3119 28.0651 50.3658 27.6521 50.4798C27.7228 50.3712 27.804 50.2697 27.8944 50.1768C28.0907 49.979 28.3232 49.8206 28.5791 49.7103C28.8535 49.5914 29.1489 49.5284 29.4479 49.5249C29.3358 49.4843 29.2196 49.4559 29.1014 49.4401C28.819 49.4031 28.5319 49.4305 28.2616 49.52C27.9584 49.6345 27.6775 49.801 27.4315 50.012C27.2898 50.1174 27.1771 50.2132 27.1007 50.2798C27.0898 50.1417 27.0753 49.9648 27.0571 49.7612C27.0625 49.5003 27.0214 49.2406 26.9359 48.9941C26.8459 48.8111 26.7071 48.6563 26.5348 48.547C26.7427 49.0845 26.7615 49.6768 26.5882 50.2265C26.4299 50.0745 26.2561 49.9397 26.0695 49.8242C25.7944 49.6557 25.497 49.5264 25.1861 49.4401C24.9209 49.3604 24.6486 49.3064 24.373 49.2789C24.7123 49.4643 24.9959 49.6024 25.197 49.6945C25.5084 49.8097 25.7978 49.9773 26.0526 50.1901C26.1556 50.2873 26.2482 50.3949 26.3288 50.5113C25.9776 50.4968 25.6292 50.5808 25.3231 50.7536C25.0793 50.8931 24.8719 51.0882 24.7178 51.3229C24.5636 51.5577 24.4671 51.8256 24.4361 52.1047C24.6353 51.7908 24.8943 51.5191 25.1983 51.305C25.3593 51.1864 25.5391 51.0959 25.7302 51.0372C25.8631 50.9998 25.9989 50.9739 26.1362 50.9596C26.2792 50.9402 26.4232 50.928 26.5676 50.9233C26.4278 51.0717 26.3278 51.253 26.2767 51.4504C26.2358 51.6237 26.2308 51.8035 26.262 51.9788C26.2933 52.154 26.3602 52.321 26.4585 52.4695Z" fill="#267237"/>
<path d="M58.8209 65.6014C58.5922 65.595 58.3647 65.5646 58.1423 65.5105C57.3801 65.3433 57.3995 65.1894 56.9948 65.147C56.54 65.141 56.0909 65.2489 55.6885 65.4608C55.3068 65.6147 55.2729 65.6801 54.9384 65.8243C54.4618 66.0011 53.9667 66.123 53.4625 66.1879C52.705 66.4879 52.0847 67.0565 51.72 67.785C51.1851 68.6267 50.8843 69.5959 50.8487 70.5926C50.7739 72.234 51.2326 73.8554 52.1562 75.2143C52.7817 76.3553 53.7336 77.2835 54.89 77.8802C55.6293 78.225 56.4311 78.4156 57.2465 78.4404C58.062 78.4652 58.8739 78.3236 59.6328 78.0244C61.0782 77.3036 62.2131 76.083 62.827 74.589C63.8055 73.0697 64.1935 71.2444 63.9176 69.4584C63.7734 68.7334 63.4875 68.0439 63.0764 67.4294C62.6653 66.815 62.1371 66.2877 61.5219 65.8777C61.1741 65.6874 60.7948 65.5614 60.4023 65.5056C60.1384 65.4855 59.8732 65.4884 59.6098 65.5141C59.3486 65.5573 59.0852 65.5864 58.8209 65.6014Z" fill="#C80D25"/>
<path d="M63.9172 69.4585C63.7309 68.5808 63.3481 67.7568 62.7975 67.0483C62.5889 66.7781 62.3556 66.5278 62.1008 66.3007C61.9258 66.1365 61.7312 65.9944 61.5215 65.8778C61.3757 65.8002 61.2227 65.7369 61.0647 65.6887L60.9956 65.696C61.2235 65.9554 61.4363 66.2277 61.633 66.5115C62.1505 67.2093 62.5391 67.9939 62.7806 68.8284C62.9284 69.7377 62.8898 70.6675 62.6671 71.5613C62.4445 72.4552 62.0423 73.2945 61.4852 74.0281C61.3967 74.1493 61.3252 74.2498 61.2804 74.3092C60.3936 75.6889 59.0016 76.6663 57.4028 77.032C54.6375 77.4186 52.4103 74.903 52.1631 75.2144C52.789 76.3551 53.7408 77.2832 54.8968 77.8803C55.6362 78.2251 56.438 78.4157 57.2534 78.4405C58.0688 78.4652 58.8807 78.3237 59.6397 78.0245C61.0851 77.3037 62.22 76.0831 62.8339 74.5891C62.9793 74.3177 63.1489 74.0002 63.3186 73.6415C63.4998 73.2566 63.6525 72.8589 63.7754 72.4516C64.0741 71.4818 64.1229 70.4522 63.9172 69.4585Z" fill="#9F122D"/>
<path d="M53.636 67.1937C53.3591 67.207 53.094 67.3104 52.8811 67.4881C52.7509 67.6194 52.6295 67.759 52.5176 67.9062C51.8225 68.8796 51.5415 70.0887 51.736 71.2688C51.7445 71.4903 51.8015 71.7073 51.9031 71.9043C52.0046 72.1014 52.1482 72.2737 52.3237 72.4091C52.485 72.4846 52.6597 72.5271 52.8377 72.534C53.0156 72.5408 53.1932 72.512 53.3598 72.4491C53.9984 72.1995 54.1995 71.51 54.5861 70.1819C54.796 69.4469 54.8374 68.674 54.7072 67.9207C54.669 67.7512 54.5852 67.5953 54.4649 67.4699C54.3516 67.3717 54.2202 67.2968 54.0779 67.2494C53.9357 67.202 53.7856 67.183 53.636 67.1937Z" fill="#D9766A"/>
<path d="M55.9624 68.1425C55.9547 67.6654 56.1142 67.2007 56.4132 66.8289C56.5665 66.6456 56.7531 66.493 56.9633 66.3794C57.2594 66.4812 57.5162 66.6731 57.6977 66.9283C57.8486 67.225 57.952 67.5435 58.0043 67.8723C58.1073 68.2358 58.1909 68.546 58.2466 68.7678C58.3618 68.4933 58.44 68.2048 58.4793 67.9098C58.5743 67.4659 58.532 67.0035 58.3581 66.5842C58.2333 66.3237 58.049 66.0962 57.8201 65.9201C58.059 65.8038 58.3096 65.7133 58.5677 65.6499C59.0742 65.5394 59.5957 65.5152 60.1103 65.5784C60.5788 65.6132 61.0436 65.6861 61.5002 65.7965C61.3446 65.6895 61.1804 65.5955 61.0094 65.5154C60.484 65.2859 59.9139 65.1766 59.3408 65.1955C58.7524 65.1856 58.1655 65.2603 57.5983 65.4172C57.6955 65.2677 57.8067 65.1277 57.9303 64.9992C58.1999 64.7277 58.5192 64.5105 58.8707 64.3594C59.2479 64.1965 59.6535 64.1096 60.0643 64.1037C59.9091 64.0476 59.7488 64.007 59.5856 63.9825C59.1981 63.9324 58.8042 63.97 58.4332 64.0928C58.0164 64.2498 57.6302 64.4782 57.2917 64.7677C57.0966 64.9131 56.9427 65.044 56.8385 65.1312C56.8228 64.941 56.8034 64.6999 56.7779 64.4187C56.7835 64.0598 56.7248 63.7028 56.6047 63.3645C56.4812 63.113 56.2903 62.9007 56.0533 62.7513C56.3389 63.4881 56.3649 64.3001 56.1272 65.0537C55.9096 64.8456 55.6708 64.6608 55.4147 64.5023C55.0375 64.2703 54.6296 64.0925 54.2029 63.974C53.8389 63.8649 53.4651 63.7911 53.0869 63.7535C53.5534 64.0079 53.9424 64.197 54.2175 64.3242C54.6457 64.4816 55.0434 64.712 55.3929 65.0052C55.5355 65.1378 55.6631 65.2858 55.7734 65.4463C55.2897 65.4281 54.8107 65.5461 54.3908 65.7868C54.0564 65.9788 53.772 66.2467 53.5604 66.569C53.3488 66.8913 53.2161 67.2589 53.1729 67.642C53.4471 67.2114 53.8027 66.8384 54.2199 66.5442C54.4406 66.3838 54.6863 66.261 54.947 66.1806C55.1292 66.1302 55.3152 66.0945 55.5032 66.074C55.7001 66.0475 55.8983 66.0309 56.0969 66.0243C55.9041 66.2288 55.7665 66.479 55.6971 66.7514C55.6448 66.9891 55.6414 67.235 55.687 67.4742C55.7326 67.7133 55.8263 67.9406 55.9624 68.1425Z" fill="#267237"/>
</svg>
