<svg width="176" height="95" viewBox="0 0 176 95" fill="none" xmlns="http://www.w3.org/2000/svg">
<path d="M162.276 46.621C162.504 45.5994 162.617 44.524 162.617 43.3948C162.617 35.0068 155.738 28.0706 146.982 27.4791C147.21 26.1887 147.323 24.8982 147.323 23.6078C147.323 10.6494 136.18 0.110596 122.478 0.110596C111.22 0.110596 101.725 7.20814 98.6553 16.9404C96.1537 15.5961 93.3109 14.7896 90.2407 14.7896C80.9165 14.7896 73.3548 21.9409 73.3548 30.7591C73.3548 31.6194 73.4116 32.4797 73.5822 33.34C73.1842 33.2862 72.7294 33.2862 72.3314 33.2862C64.5991 33.2862 58.0607 38.233 56.0708 44.9541C44.3018 45.1692 34.807 54.31 34.807 65.494C34.807 76.8393 44.5292 86.0876 56.5825 86.0876C57.2079 86.0876 57.8902 86.0338 58.5156 85.9801H151.587C152.27 86.0338 152.952 86.0876 153.691 86.0876C165.687 86.0876 175.467 76.8931 175.467 65.494C175.467 57.0522 170.065 49.7396 162.276 46.621Z" fill="#417D3B"/>
<path d="M162.389 46.6213C162.617 45.5997 162.731 44.5243 162.731 43.3951C162.731 35.0071 155.851 28.0709 147.095 27.4794C147.038 27.4794 146.982 27.5332 146.925 27.5332C148.119 28.5548 151.587 31.8885 152.553 37.2117C153.861 44.6856 149.142 50.1701 148.403 50.9766C150.109 51.6756 153.577 53.3424 155.396 56.8912C158.239 62.3757 154.941 68.3441 153.52 70.9787C146.641 83.507 128.902 85.6577 126.059 85.9804C134.644 85.9804 140.728 86.0341 144.082 85.9804C145.276 85.9804 148.46 85.9266 152.724 86.0341C153.406 86.0341 153.691 86.0341 153.747 86.0341C165.744 86.0341 175.523 76.8396 175.523 65.4405C175.58 57.0525 170.122 49.7399 162.389 46.6213Z" fill="#326437"/>
<path d="M93.3673 54.7942C92.3439 54.7942 91.3774 54.848 90.4109 55.0093C89.1601 47.9118 82.6786 42.4811 74.7757 42.4811C71.9898 42.4811 69.3745 43.1801 67.1003 44.363C66.7023 33.8242 57.5486 25.4362 46.2913 25.4362C34.8066 25.4362 25.4823 34.2544 25.4823 45.1158C25.4823 47.1052 25.7666 48.9872 26.392 50.8153C25.5392 50.7078 24.6295 50.654 23.7198 50.654C11.0411 50.654 0.750366 60.3862 0.750366 72.3768C0.750366 84.3673 11.0411 94.0996 23.7198 94.0996H23.7767H92.4576C92.7419 94.0996 93.0262 94.0996 93.3105 94.0996C104.795 94.0996 114.119 85.2814 114.119 74.42C114.176 63.5586 104.852 54.7942 93.3673 54.7942Z" fill="#326437"/>
<path d="M93.3104 54.7401C92.5713 54.7401 91.8322 54.7939 91.8322 54.7939C91.3205 54.8476 90.8656 54.9014 90.3539 54.9552C89.1031 47.8576 82.6216 42.4269 74.7188 42.4269C71.9329 42.4269 69.3175 43.1259 67.0433 44.3089C68.8627 44.4164 75.0031 44.9003 80.4611 49.4707C85.8624 53.9336 87.2837 59.4718 87.6249 61.1924C88.762 61.7839 93.9927 64.7412 95.6983 70.7633C97.1765 75.9252 95.1298 80.173 94.2769 81.8936C89.7285 91.357 78.3575 93.7766 76.6519 94.0992C80.0063 94.153 83.0765 94.153 86.0898 94.2067C86.0898 94.2067 87.17 94.2067 93.1967 94.153C93.5378 94.153 94.1632 94.153 94.9592 94.0992C94.9592 94.0992 96.8923 93.9379 98.5979 93.5077C102.237 92.6474 105.477 90.3891 105.477 90.3891C107.24 89.1524 111.163 86.0876 113.039 80.8182C113.267 80.173 114.062 77.7533 114.062 74.4196C114.062 71.785 113.551 69.7955 113.38 69.204C111.618 62.9668 106.956 59.4718 106.046 58.8266C105.421 58.3426 103.487 57.0522 100.645 56.0306C100.702 56.0306 97.0628 54.7401 93.3104 54.7401Z" fill="#27522C"/>
<path d="M44.1313 43.8789C45.8583 43.8789 47.2583 42.5548 47.2583 40.9215C47.2583 39.2883 45.8583 37.9642 44.1313 37.9642C42.4043 37.9642 41.0043 39.2883 41.0043 40.9215C41.0043 42.5548 42.4043 43.8789 44.1313 43.8789Z" fill="#761F36"/>
<path d="M44.8704 41.6203C44.7567 41.7816 44.5293 41.7816 44.3587 41.6203L43.3353 40.76C43.1648 40.6525 43.1648 40.4374 43.3353 40.2761C43.449 40.1148 43.6765 40.1148 43.847 40.2761L44.8704 41.1364C44.9841 41.2439 45.041 41.459 44.8704 41.6203Z" fill="#49131F"/>
<path d="M44.8136 40.2225C44.9841 40.3301 44.9841 40.5451 44.8136 40.7064L43.9039 41.6205C43.7902 41.7818 43.5628 41.7818 43.3922 41.6205C43.2216 41.513 43.2216 41.2979 43.3922 41.1366L44.3019 40.1687C44.4724 40.115 44.6999 40.115 44.8136 40.2225Z" fill="#49131F"/>
<path d="M42.8805 39.5238C43.051 39.4163 43.2785 39.2549 43.5059 39.0936C43.5627 39.0399 43.6196 38.9861 43.6765 38.8786C43.6765 38.8786 43.7333 38.7173 43.6196 38.5559C43.5059 38.4484 43.3353 38.4484 43.2785 38.5022C43.2216 38.5022 43.1648 38.5559 43.051 38.6097C42.9373 38.7173 42.8236 38.771 42.7668 38.771C42.5394 38.9323 42.4256 39.0399 42.3119 39.1474C42.1414 39.3087 41.9708 39.47 41.9708 39.5238C41.8571 39.6851 41.7434 39.7926 41.6297 40.1153C41.516 40.2766 41.4591 40.4379 41.4591 40.5992C41.4591 40.7067 41.516 40.7605 41.516 40.7605C41.5728 40.868 41.7434 40.868 41.7434 40.868C41.8571 40.868 41.9139 40.8143 41.9708 40.8143C42.0845 40.7605 42.0845 40.6529 42.1982 40.4916C42.2551 40.3303 42.2551 40.3303 42.3119 40.2228C42.3119 40.169 42.3688 40.1153 42.4825 39.9539C42.5394 39.9002 42.6531 39.7389 42.8805 39.5238Z" fill="#A05062"/>
<path d="M48.7362 65.3329C50.0864 65.3329 51.1809 64.2977 51.1809 63.0208C51.1809 61.7439 50.0864 60.7087 48.7362 60.7087C47.3859 60.7087 46.2914 61.7439 46.2914 63.0208C46.2914 64.2977 47.3859 65.3329 48.7362 65.3329Z" fill="#761F36"/>
<path d="M49.3047 63.5045C49.191 63.612 49.0204 63.612 48.9067 63.5045L48.1107 62.8055C47.997 62.698 47.997 62.5366 48.1107 62.4291C48.2245 62.3216 48.395 62.3216 48.5087 62.4291L49.3047 63.1281C49.4184 63.2357 49.4184 63.4507 49.3047 63.5045Z" fill="#49131F"/>
<path d="M49.2479 62.4301C49.3616 62.5377 49.3616 62.699 49.2479 62.8065L48.5087 63.5593C48.395 63.6668 48.2245 63.6668 48.1107 63.5593C47.997 63.4517 47.997 63.2904 48.1107 63.1829L48.8499 62.4301C48.9636 62.3764 49.1341 62.3226 49.2479 62.4301Z" fill="#49131F"/>
<path d="M47.7128 61.8913C47.8265 61.7838 47.997 61.6763 48.2245 61.5149C48.2813 61.4612 48.3382 61.4612 48.3382 61.3536C48.3382 61.3536 48.395 61.1923 48.2813 61.1386C48.1676 61.031 48.0539 61.0848 47.997 61.0848C47.9402 61.0848 47.8833 61.1386 47.8265 61.1923C47.7128 61.2461 47.6559 61.2999 47.599 61.3536C47.4285 61.4612 47.3148 61.5687 47.2579 61.6225C47.0874 61.7838 46.9736 61.8913 46.9736 61.9451C46.8599 62.0526 46.8031 62.1602 46.6894 62.3753C46.6325 62.4828 46.5757 62.5903 46.5757 62.7516C46.5757 62.8054 46.5757 62.8592 46.6325 62.9129C46.6894 62.9667 46.8031 62.9667 46.8031 62.9667C46.8599 62.9667 46.9736 62.9129 46.9736 62.9129C47.0305 62.8592 47.0873 62.8054 47.1442 62.6979C47.2011 62.5903 47.2011 62.5903 47.2579 62.4828C47.2579 62.429 47.3148 62.3753 47.3716 62.2677C47.4285 62.1602 47.5422 62.0526 47.7128 61.8913Z" fill="#A05062"/>
<path d="M77.0503 76.8393C78.9344 76.8393 80.4617 75.3949 80.4617 73.6132C80.4617 71.8314 78.9344 70.387 77.0503 70.387C75.1663 70.387 73.639 71.8314 73.639 73.6132C73.639 75.3949 75.1663 76.8393 77.0503 76.8393Z" fill="#761F36"/>
<path d="M77.9032 74.3661C77.7326 74.5274 77.5052 74.5274 77.3346 74.3661L76.2544 73.3982C76.0838 73.2369 76.0838 73.0219 76.2544 72.8605C76.4249 72.6992 76.6524 72.6992 76.8229 72.8605L77.9032 73.8284C78.0169 73.9897 78.0169 74.2048 77.9032 74.3661Z" fill="#49131F"/>
<path d="M77.8463 72.8605C78.0169 73.0219 78.0169 73.2369 77.8463 73.3982L76.8229 74.4199C76.6524 74.5812 76.4249 74.5812 76.2544 74.4199C76.0838 74.2585 76.0838 74.0435 76.2544 73.8822L77.2778 72.8605C77.3915 72.6992 77.6757 72.6992 77.8463 72.8605Z" fill="#49131F"/>
<path d="M75.6858 72.1077C75.8564 72.0002 76.1407 71.7851 76.3681 71.6238C76.4249 71.57 76.5386 71.5163 76.5386 71.4087C76.5386 71.4087 76.5955 71.1937 76.4818 71.0861C76.3681 70.9786 76.1407 70.9786 76.0838 70.9786C76.027 70.9786 75.9132 71.0323 75.7995 71.0861C75.629 71.1937 75.5721 71.2474 75.5153 71.3012C75.2878 71.4625 75.1741 71.57 75.0036 71.6776C74.7761 71.8927 74.6624 72.054 74.6056 72.1077C74.4919 72.269 74.3782 72.4303 74.2076 72.753C74.0939 72.9143 74.037 73.0756 74.037 73.2907C74.037 73.3982 74.0939 73.452 74.0939 73.5057C74.2076 73.6133 74.3213 73.6133 74.3782 73.6133C74.4919 73.6133 74.6056 73.5595 74.6056 73.5595C74.7193 73.5057 74.7193 73.3982 74.833 73.2369C74.8898 73.0756 74.8899 73.0756 74.9467 72.9143C74.9467 72.8605 75.0036 72.8067 75.1173 72.6454C75.2878 72.4841 75.4584 72.269 75.6858 72.1077Z" fill="#A05062"/>
<path d="M39.5258 85.9802C41.5354 85.9802 43.1645 84.4396 43.1645 82.539C43.1645 80.6385 41.5354 79.0978 39.5258 79.0978C37.5162 79.0978 35.8871 80.6385 35.8871 82.539C35.8871 84.4396 37.5162 85.9802 39.5258 85.9802Z" fill="#761F36"/>
<path d="M40.4355 83.3457C40.2649 83.507 40.0375 83.507 39.8669 83.3457L38.7298 82.3241C38.5593 82.1628 38.5593 81.9477 38.7298 81.7864C38.9004 81.6251 39.1278 81.6251 39.2984 81.7864L40.4355 82.808C40.5492 82.9155 40.5492 83.1844 40.4355 83.3457Z" fill="#49131F"/>
<path d="M40.3218 81.7324C40.4923 81.8937 40.4923 82.1088 40.3218 82.2701L39.2415 83.3455C39.071 83.5068 38.8435 83.5068 38.673 83.3455C38.5024 83.1842 38.5024 82.9691 38.673 82.8078L39.7532 81.7324C39.9238 81.5711 40.1512 81.5711 40.3218 81.7324Z" fill="#49131F"/>
<path d="M38.0476 80.9259C38.2181 80.7646 38.5024 80.6033 38.7867 80.3882C38.8435 80.3344 38.9573 80.2807 39.0141 80.1731C39.0141 80.1731 39.071 79.9581 38.9573 79.8505C38.8435 79.6892 38.6161 79.743 38.5593 79.743C38.5024 79.743 38.3887 79.7967 38.275 79.9043C38.1044 80.0118 37.9907 80.0656 37.9907 80.1194C37.7633 80.3344 37.5927 80.3882 37.479 80.5495C37.2516 80.7646 37.081 80.9259 37.081 80.9797C36.9673 81.141 36.8536 81.3023 36.683 81.6249C36.5693 81.84 36.5125 82.0013 36.5125 82.1626C36.5125 82.2701 36.5693 82.3239 36.5693 82.3777C36.683 82.4852 36.7968 82.4852 36.8536 82.4852C36.9673 82.4852 37.081 82.4314 37.081 82.4314C37.1947 82.3777 37.2516 82.2701 37.3085 82.1088C37.3653 81.9475 37.3653 81.8937 37.4222 81.7862C37.4222 81.7324 37.479 81.6249 37.6496 81.5174C37.6496 81.3023 37.8201 81.141 38.0476 80.9259Z" fill="#A05062"/>
<path d="M20.0814 66.9995C21.4316 66.9995 22.5261 65.9644 22.5261 64.6874C22.5261 63.4105 21.4316 62.3754 20.0814 62.3754C18.7312 62.3754 17.6366 63.4105 17.6366 64.6874C17.6366 65.9644 18.7312 66.9995 20.0814 66.9995Z" fill="#761F36"/>
<path d="M20.6499 65.2256C20.5362 65.3332 20.3656 65.3332 20.2519 65.2256L19.456 64.5266C19.3422 64.4191 19.3422 64.2578 19.456 64.1502C19.5697 64.0427 19.7402 64.0427 19.8539 64.1502L20.6499 64.8492C20.7636 64.903 20.7636 65.1181 20.6499 65.2256Z" fill="#49131F"/>
<path d="M20.5931 64.096C20.7068 64.2035 20.7068 64.3648 20.5931 64.4724L19.8539 65.2251C19.7402 65.3327 19.5697 65.3327 19.456 65.2251C19.3422 65.1176 19.3422 64.9563 19.456 64.8487L20.1951 64.096C20.3088 64.0422 20.4793 63.9884 20.5931 64.096Z" fill="#49131F"/>
<path d="M19.058 63.5586C19.1717 63.4511 19.3423 63.3436 19.5697 63.1822C19.6265 63.1285 19.6834 63.1285 19.6834 63.0209C19.6834 63.0209 19.7402 62.8596 19.6265 62.8059C19.5128 62.6983 19.3991 62.7521 19.3423 62.7521C19.2854 62.7521 19.2285 62.8059 19.1717 62.8596C19.058 62.9134 19.0011 62.9672 18.9443 63.0209C18.7737 63.1285 18.66 63.236 18.6031 63.2898C18.4326 63.4511 18.3189 63.5586 18.3189 63.6124C18.2052 63.7199 18.1483 63.8275 18.0346 64.0426C17.9777 64.1501 17.9209 64.2576 17.9209 64.4189C17.9209 64.4727 17.9209 64.5265 17.9777 64.5802C18.0346 64.634 18.1483 64.634 18.1483 64.634C18.2052 64.634 18.3189 64.5802 18.3189 64.5802C18.3757 64.5265 18.4326 64.4727 18.4894 64.3652C18.5463 64.2576 18.5463 64.2576 18.6031 64.1501C18.6031 64.0963 18.66 64.0426 18.7168 63.935C18.7737 63.8275 18.8874 63.7199 19.058 63.5586Z" fill="#A05062"/>
<path d="M95.6986 38.9858C97.0488 38.9858 98.1433 37.9506 98.1433 36.6737C98.1433 35.3968 97.0488 34.3616 95.6986 34.3616C94.3483 34.3616 93.2538 35.3968 93.2538 36.6737C93.2538 37.9506 94.3483 38.9858 95.6986 38.9858Z" fill="#761F36"/>
<path d="M96.324 37.2118C96.2102 37.3194 96.0397 37.3194 95.926 37.2118L95.13 36.5128C95.0163 36.4053 95.0163 36.244 95.13 36.1364C95.2437 36.0289 95.4143 36.0289 95.528 36.1364L96.324 36.8354C96.3808 36.943 96.4377 37.1043 96.324 37.2118Z" fill="#49131F"/>
<path d="M96.2671 36.1364C96.3808 36.244 96.3808 36.4053 96.2671 36.5128L95.528 37.2656C95.4143 37.3731 95.2437 37.3731 95.13 37.2656C95.0163 37.1581 95.0163 36.9968 95.13 36.8892L95.8691 36.1364C95.9828 36.0289 96.1534 36.0289 96.2671 36.1364Z" fill="#49131F"/>
<path d="M94.732 35.5988C94.8457 35.4912 95.0163 35.3837 95.2437 35.2224C95.3006 35.1686 95.3574 35.1686 95.3574 35.0611C95.3574 35.0611 95.4143 34.8998 95.3006 34.846C95.1869 34.7385 95.0731 34.7922 95.0163 34.7922C94.9594 34.7922 94.9026 34.846 94.8457 34.8998C94.732 34.9536 94.6752 35.0073 94.6183 35.0611C94.4477 35.1686 94.334 35.2762 94.2772 35.3299C94.1066 35.4912 93.9929 35.5988 93.9929 35.6526C93.8792 35.7601 93.8223 35.8676 93.7086 36.0827C93.6518 36.1902 93.5949 36.2978 93.5949 36.4591C93.5949 36.5129 93.5949 36.5666 93.6518 36.6204C93.7086 36.6742 93.8223 36.6742 93.8223 36.6742C93.8792 36.6742 93.9929 36.6204 93.9929 36.6204C94.0498 36.5666 94.1066 36.5129 94.1635 36.4053C94.2203 36.2978 94.2203 36.2978 94.2772 36.1902C94.2772 36.1365 94.334 36.0827 94.3909 35.9752C94.4477 35.8676 94.5614 35.7063 94.732 35.5988Z" fill="#A05062"/>
<path d="M123.956 50.6537C125.777 50.6537 127.253 49.2574 127.253 47.5351C127.253 45.8127 125.777 44.4164 123.956 44.4164C122.134 44.4164 120.658 45.8127 120.658 47.5351C120.658 49.2574 122.134 50.6537 123.956 50.6537Z" fill="#761F36"/>
<path d="M124.752 48.2342C124.638 48.3955 124.354 48.3955 124.24 48.2342L123.16 47.3201C122.989 47.2126 122.989 46.9437 123.16 46.8362C123.273 46.6749 123.558 46.6749 123.671 46.8362L124.752 47.7503C124.865 47.8578 124.922 48.0729 124.752 48.2342Z" fill="#49131F"/>
<path d="M124.695 46.7825C124.865 46.8901 124.865 47.1589 124.695 47.2665L123.728 48.2881C123.615 48.4494 123.33 48.4494 123.217 48.2881C123.046 48.1805 123.046 47.9117 123.217 47.8041L124.183 46.7825C124.297 46.675 124.524 46.6212 124.695 46.7825Z" fill="#49131F"/>
<path d="M122.648 46.0834C122.819 45.9758 123.046 45.7608 123.33 45.5995C123.387 45.5457 123.501 45.4919 123.501 45.3844C123.501 45.3844 123.558 45.1693 123.444 45.0618C123.33 44.9542 123.103 44.9542 123.103 44.9542C123.046 44.9542 122.989 45.008 122.819 45.0618C122.705 45.1693 122.591 45.2231 122.534 45.2231C122.307 45.3844 122.193 45.4919 122.079 45.5995C121.852 45.8145 121.738 45.9758 121.681 46.0296C121.568 46.1909 121.454 46.3522 121.283 46.6211C121.17 46.7824 121.113 46.9437 121.113 47.105C121.113 47.2125 121.17 47.2663 121.17 47.3201C121.283 47.4276 121.397 47.4276 121.454 47.4276C121.568 47.4276 121.625 47.3738 121.681 47.3738C121.795 47.3201 121.795 47.2125 121.909 47.0512C121.966 46.8899 121.966 46.8899 122.023 46.7824C122.023 46.7286 122.079 46.6748 122.193 46.5135C122.25 46.406 122.421 46.2447 122.648 46.0834Z" fill="#A05062"/>
<path d="M136.862 32.4259C138.212 32.4259 139.306 31.3907 139.306 30.1138C139.306 28.8368 138.212 27.8017 136.862 27.8017C135.511 27.8017 134.417 28.8368 134.417 30.1138C134.417 31.3907 135.511 32.4259 136.862 32.4259Z" fill="#761F36"/>
<path d="M137.487 30.6518C137.373 30.7594 137.203 30.7594 137.089 30.6518L136.293 29.9528C136.179 29.8453 136.179 29.684 136.293 29.5764C136.407 29.4689 136.577 29.4689 136.691 29.5764L137.487 30.2754C137.601 30.383 137.601 30.5443 137.487 30.6518Z" fill="#49131F"/>
<path d="M137.43 29.5227C137.544 29.6303 137.544 29.7916 137.43 29.8991L136.691 30.6519C136.577 30.7594 136.407 30.7594 136.293 30.6519C136.179 30.5444 136.179 30.3831 136.293 30.2755L137.032 29.5227C137.146 29.469 137.316 29.469 137.43 29.5227Z" fill="#49131F"/>
<path d="M135.895 29.0389C136.009 28.9313 136.179 28.8238 136.407 28.6625C136.464 28.6087 136.521 28.6087 136.521 28.5012C136.521 28.5012 136.577 28.3399 136.464 28.2861C136.35 28.1785 136.236 28.2323 136.179 28.2323C136.123 28.2323 136.066 28.2861 136.009 28.3399C135.895 28.3936 135.838 28.4474 135.781 28.5012C135.611 28.6087 135.497 28.7162 135.44 28.77C135.27 28.9313 135.156 29.0389 135.156 29.0926C135.042 29.2002 134.985 29.3077 134.872 29.5228C134.815 29.6303 134.758 29.7379 134.758 29.8992C134.758 29.9529 134.758 30.0067 134.815 30.0605C134.872 30.1142 134.985 30.1142 134.985 30.1142C135.042 30.1142 135.156 30.0605 135.156 30.0605C135.213 30.0067 135.27 29.9529 135.327 29.8454C135.383 29.7379 135.383 29.7379 135.44 29.6303C135.44 29.5765 135.497 29.5228 135.554 29.4152C135.611 29.2539 135.725 29.1464 135.895 29.0389Z" fill="#A05062"/>
<path d="M127.253 72.6994C128.603 72.6994 129.698 71.6643 129.698 70.3873C129.698 69.1104 128.603 68.0753 127.253 68.0753C125.903 68.0753 124.808 69.1104 124.808 70.3873C124.808 71.6643 125.903 72.6994 127.253 72.6994Z" fill="#761F36"/>
<path d="M127.822 70.9248C127.708 71.0323 127.538 71.0323 127.424 70.9248L126.628 70.2258C126.514 70.1182 126.514 69.9569 126.628 69.8494C126.742 69.7419 126.912 69.7419 127.026 69.8494L127.822 70.5484C127.936 70.6559 127.936 70.8172 127.822 70.9248Z" fill="#49131F"/>
<path d="M127.765 69.8494C127.879 69.9569 127.879 70.1182 127.765 70.2258L127.026 70.9786C126.912 71.0861 126.742 71.0861 126.628 70.9786C126.514 70.871 126.514 70.7097 126.628 70.6022L127.367 69.8494C127.481 69.7419 127.651 69.7419 127.765 69.8494Z" fill="#49131F"/>
<path d="M126.23 69.3117C126.344 69.2042 126.514 69.0967 126.742 68.9354C126.798 68.8816 126.855 68.8816 126.855 68.774C126.855 68.774 126.912 68.6127 126.798 68.559C126.685 68.4514 126.571 68.5052 126.514 68.5052C126.457 68.5052 126.4 68.559 126.344 68.6127C126.23 68.6665 126.173 68.7203 126.116 68.774C125.946 68.8816 125.832 68.9891 125.775 69.0429C125.604 69.2042 125.491 69.3117 125.491 69.3655C125.377 69.473 125.32 69.5806 125.206 69.7957C125.15 69.9032 125.093 70.0107 125.093 70.172C125.093 70.2258 125.093 70.2796 125.15 70.3334C125.206 70.3871 125.32 70.3871 125.32 70.3871C125.377 70.3871 125.491 70.3334 125.491 70.3334C125.548 70.2796 125.604 70.2258 125.661 70.1183C125.718 70.0107 125.718 70.0107 125.775 69.9032C125.775 69.8494 125.832 69.7957 125.889 69.6881C125.946 69.5806 126.059 69.4193 126.23 69.3117Z" fill="#A05062"/>
<path d="M119.577 18.4457C121.713 18.4457 123.444 16.8087 123.444 14.7894C123.444 12.7701 121.713 11.1331 119.577 11.1331C117.442 11.1331 115.711 12.7701 115.711 14.7894C115.711 16.8087 117.442 18.4457 119.577 18.4457Z" fill="#761F36"/>
<path d="M120.487 15.5964C120.317 15.7577 120.032 15.7577 119.862 15.5964L118.611 14.521C118.44 14.3597 118.44 14.0908 118.611 13.9295C118.781 13.7682 119.066 13.7682 119.236 13.9295L120.487 15.0049C120.658 15.1662 120.658 15.4351 120.487 15.5964Z" fill="#49131F"/>
<path d="M120.43 13.9295C120.601 14.0908 120.601 14.3597 120.43 14.521L119.293 15.7039C119.123 15.8652 118.838 15.8652 118.668 15.7039C118.497 15.5426 118.497 15.2737 118.668 15.1124L119.805 13.9295C119.975 13.7682 120.26 13.7682 120.43 13.9295Z" fill="#49131F"/>
<path d="M117.986 13.0695C118.156 12.9081 118.497 12.6931 118.781 12.5318C118.838 12.478 118.952 12.4242 119.009 12.2629C119.009 12.2629 119.066 12.0478 118.952 11.8865C118.838 11.7252 118.554 11.779 118.497 11.779C118.384 11.779 118.327 11.8328 118.213 11.9403C118.042 12.0478 117.929 12.1554 117.872 12.1554C117.588 12.3705 117.474 12.478 117.303 12.5855C117.076 12.8006 116.905 13.0157 116.848 13.0695C116.678 13.2308 116.621 13.4458 116.394 13.7685C116.28 13.9835 116.166 14.1448 116.223 14.3599C116.223 14.4675 116.28 14.5212 116.28 14.575C116.394 14.6825 116.564 14.6825 116.564 14.6825C116.678 14.6825 116.792 14.6288 116.848 14.575C116.962 14.5212 117.019 14.4137 117.076 14.1986C117.19 14.0373 117.133 13.9835 117.246 13.876C117.246 13.8222 117.303 13.7147 117.474 13.5534C117.588 13.4996 117.758 13.2845 117.986 13.0695Z" fill="#A05062"/>
<path d="M33.3287 58.1279C35.2127 58.1279 36.74 56.6835 36.74 54.9018C36.74 53.12 35.2127 51.6756 33.3287 51.6756C31.4447 51.6756 29.9174 53.12 29.9174 54.9018C29.9174 56.6835 31.4447 58.1279 33.3287 58.1279Z" fill="#B32646"/>
<path d="M34.1246 55.6008C33.9541 55.7621 33.7267 55.7621 33.5561 55.6008L32.4758 54.6329C32.3053 54.4716 32.3053 54.2565 32.4758 54.0952C32.6464 53.9339 32.8738 53.9339 33.0444 54.0952L34.1246 55.0631C34.2952 55.2244 34.2952 55.4932 34.1246 55.6008Z" fill="#6C1626"/>
<path d="M34.0678 54.0946C34.2384 54.2559 34.2384 54.471 34.0678 54.6323L33.1012 55.6539C32.9307 55.8152 32.7033 55.8152 32.5327 55.6539C32.3621 55.4926 32.3621 55.2776 32.5327 55.1162L33.5561 54.0946C33.6698 53.9871 33.8972 53.9871 34.0678 54.0946Z" fill="#6C1626"/>
<path d="M31.9641 53.3958C32.1347 53.2882 32.419 53.0731 32.6464 52.9118C32.7033 52.8581 32.817 52.8043 32.817 52.6968C32.817 52.6968 32.8738 52.4817 32.7601 52.3741C32.6464 52.2666 32.419 52.2666 32.3621 52.2666C32.3053 52.2666 32.1916 52.3204 32.0778 52.3741C31.9073 52.4817 31.8504 52.5355 31.7936 52.5892C31.5662 52.7505 31.4524 52.8581 31.2819 52.9656C31.0545 53.1807 30.9407 53.342 30.8839 53.3958C30.7702 53.5571 30.6565 53.7184 30.4859 54.041C30.3722 54.2023 30.3153 54.3636 30.3153 54.5787C30.3153 54.6862 30.3722 54.74 30.3722 54.7938C30.4859 54.9013 30.5996 54.9013 30.6565 54.9013C30.7702 54.9013 30.8839 54.8475 30.8839 54.8475C30.9976 54.7938 30.9976 54.6862 31.1113 54.5249C31.1682 54.3636 31.1682 54.3636 31.225 54.2023C31.225 54.1485 31.2819 54.0948 31.3956 53.9335C31.5662 53.7184 31.7367 53.5571 31.9641 53.3958Z" fill="#C8637A"/>
<path d="M58.9134 77.7537C60.2636 77.7537 61.3582 76.7186 61.3582 75.4417C61.3582 74.1647 60.2636 73.1296 58.9134 73.1296C57.5632 73.1296 56.4686 74.1647 56.4686 75.4417C56.4686 76.7186 57.5632 77.7537 58.9134 77.7537Z" fill="#B32646"/>
<path d="M59.4819 75.9791C59.3682 76.0866 59.1977 76.0866 59.084 75.9791L58.288 75.2801C58.1743 75.1726 58.1743 75.0113 58.288 74.9037C58.4017 74.7962 58.5723 74.7962 58.686 74.9037L59.4819 75.6027C59.5957 75.7103 59.5957 75.8716 59.4819 75.9791Z" fill="#6C1626"/>
<path d="M59.4819 74.9037C59.5957 75.0113 59.5957 75.1726 59.4819 75.2801L58.7428 76.0329C58.6291 76.1404 58.4585 76.1404 58.3448 76.0329C58.2311 75.9253 58.2311 75.764 58.3448 75.6565L59.084 74.9037C59.1408 74.7962 59.3682 74.7962 59.4819 74.9037Z" fill="#6C1626"/>
<path d="M57.89 74.3661C58.0037 74.2585 58.1743 74.151 58.4017 73.9897C58.4586 73.9359 58.5154 73.9359 58.5154 73.8284C58.5154 73.8284 58.5723 73.6671 58.4586 73.6133C58.3448 73.5058 58.2311 73.5595 58.1743 73.5595C58.1174 73.5595 58.0606 73.6133 58.0037 73.6671C57.89 73.7208 57.8331 73.7746 57.7763 73.8284C57.6057 73.9359 57.492 74.0434 57.4352 74.0972C57.2646 74.2585 57.1509 74.3661 57.1509 74.4198C57.0372 74.5274 56.9803 74.6349 56.8666 74.85C56.8098 74.9575 56.7529 75.0651 56.7529 75.2264C56.7529 75.2801 56.7529 75.3339 56.8098 75.3877C56.8666 75.4414 56.9803 75.4414 56.9803 75.4414C57.0372 75.4414 57.1509 75.3877 57.1509 75.3877C57.2077 75.3339 57.2646 75.2801 57.3215 75.1726C57.3783 75.0651 57.3783 75.0651 57.4352 74.9575C57.4352 74.9037 57.492 74.85 57.5489 74.7424C57.6626 74.6349 57.6626 74.5274 57.89 74.3661Z" fill="#C8637A"/>
<path d="M27.7567 90.6046C29.1069 90.6046 30.2014 89.5694 30.2014 88.2925C30.2014 87.0156 29.1069 85.9804 27.7567 85.9804C26.4064 85.9804 25.3119 87.0156 25.3119 88.2925C25.3119 89.5694 26.4064 90.6046 27.7567 90.6046Z" fill="#B32646"/>
<path d="M28.3821 88.8299C28.2684 88.9375 28.0978 88.9375 27.9841 88.8299L27.1881 88.1309C27.0744 88.0234 27.0744 87.8621 27.1881 87.7545C27.3018 87.647 27.4724 87.647 27.5861 87.7545L28.3821 88.4535C28.4389 88.5611 28.4958 88.7224 28.3821 88.8299Z" fill="#6C1626"/>
<path d="M28.3252 87.7545C28.4389 87.8621 28.4389 88.0234 28.3252 88.1309L27.5861 88.8837C27.4724 88.9912 27.3018 88.9912 27.1881 88.8837C27.0744 88.7762 27.0744 88.6149 27.1881 88.5073L27.9272 87.7545C28.0409 87.647 28.2115 87.647 28.3252 87.7545Z" fill="#6C1626"/>
<path d="M26.7901 87.2169C26.9038 87.1094 27.0744 87.0018 27.3018 86.8405C27.3587 86.7867 27.4155 86.7867 27.4155 86.6792C27.4155 86.6792 27.4724 86.5179 27.3587 86.4641C27.245 86.3566 27.1313 86.4104 27.0744 86.4104C27.0175 86.4104 26.9607 86.4641 26.9038 86.5179C26.7901 86.5717 26.7333 86.6254 26.6764 86.6792C26.5058 86.7867 26.3921 86.8943 26.3353 86.948C26.1647 87.1094 26.051 87.2169 26.051 87.2707C25.9373 87.3782 25.8804 87.4857 25.7667 87.7008C25.7099 87.8084 25.653 87.9159 25.653 88.0772C25.653 88.131 25.653 88.1847 25.7099 88.2385C25.7667 88.2923 25.8804 88.2923 25.8804 88.2923C25.9373 88.2923 26.051 88.2385 26.051 88.2385C26.1079 88.1847 26.1647 88.131 26.2216 88.0234C26.2784 87.9159 26.2784 87.9159 26.3353 87.8084C26.3353 87.7546 26.3921 87.7008 26.449 87.5933C26.5058 87.4857 26.6196 87.3244 26.7901 87.2169Z" fill="#C8637A"/>
<path d="M107.354 56.1381C108.704 56.1381 109.799 55.103 109.799 53.8261C109.799 52.5491 108.704 51.514 107.354 51.514C106.004 51.514 104.909 52.5491 104.909 53.8261C104.909 55.103 106.004 56.1381 107.354 56.1381Z" fill="#B32646"/>
<path d="M107.922 54.3642C107.809 54.4717 107.638 54.4717 107.524 54.3642L106.728 53.6652C106.615 53.5576 106.615 53.3963 106.728 53.2888C106.842 53.1812 107.013 53.1812 107.126 53.2888L107.922 53.9878C108.036 54.0953 108.036 54.2566 107.922 54.3642Z" fill="#6C1626"/>
<path d="M107.866 53.2888C107.979 53.3963 107.979 53.5576 107.866 53.6652L107.126 54.4179C107.013 54.5255 106.842 54.5255 106.728 54.4179C106.615 54.3104 106.615 54.1491 106.728 54.0416L107.468 53.2888C107.581 53.1812 107.752 53.1812 107.866 53.2888Z" fill="#6C1626"/>
<path d="M106.33 52.7511C106.444 52.6436 106.615 52.5361 106.842 52.3748C106.899 52.321 106.956 52.321 106.956 52.2134C106.956 52.2134 107.013 52.0521 106.899 51.9984C106.785 51.8908 106.672 51.9446 106.615 51.9446C106.558 51.9446 106.501 51.9984 106.444 52.0521C106.33 52.1059 106.274 52.1597 106.217 52.2134C106.046 52.321 105.932 52.4285 105.876 52.4823C105.705 52.6436 105.591 52.7511 105.591 52.8049C105.478 52.9124 105.421 53.02 105.307 53.2351C105.25 53.3426 105.193 53.4501 105.193 53.6114C105.193 53.6652 105.193 53.719 105.25 53.7728C105.307 53.8265 105.421 53.8265 105.421 53.8265C105.478 53.8265 105.591 53.7728 105.591 53.7728C105.648 53.719 105.705 53.6652 105.762 53.5577C105.819 53.4501 105.819 53.4501 105.876 53.3426C105.876 53.2888 105.932 53.2351 105.989 53.1275C106.046 53.02 106.16 52.8587 106.33 52.7511Z" fill="#C8637A"/>
<path d="M85.692 27.748C87.7331 27.748 89.3876 26.1832 89.3876 24.253C89.3876 22.3228 87.7331 20.758 85.692 20.758C83.651 20.758 81.9965 22.3228 81.9965 24.253C81.9965 26.1832 83.651 27.748 85.692 27.748Z" fill="#B32646"/>
<path d="M86.6017 25.0597C86.4312 25.221 86.1469 25.221 85.9763 25.0597L84.7824 24.0381C84.6118 23.8768 84.6118 23.6079 84.7824 23.4466C84.9529 23.2853 85.2372 23.2853 85.4078 23.4466L86.6017 24.4682C86.7154 24.6833 86.7723 24.8984 86.6017 25.0597Z" fill="#6C1626"/>
<path d="M86.488 23.4466C86.6586 23.6079 86.6586 23.8768 86.488 24.0381L85.4078 25.1672C85.2372 25.3285 84.9529 25.3285 84.7824 25.1672C84.6118 25.0059 84.6118 24.7371 84.7824 24.5758L85.8626 23.4466C86.09 23.2853 86.3174 23.2853 86.488 23.4466Z" fill="#6C1626"/>
<path d="M84.157 22.6399C84.3275 22.4786 84.6118 22.3173 84.8961 22.1023C84.9529 22.0485 85.0666 21.9947 85.1235 21.8872C85.1235 21.8872 85.1803 21.6721 85.0666 21.5108C84.9529 21.3495 84.7255 21.4033 84.6687 21.4033C84.5549 21.4033 84.4981 21.457 84.3844 21.5646C84.2138 21.6721 84.1001 21.7259 84.1001 21.7796C83.8158 21.9947 83.7021 22.1023 83.5884 22.2098C83.361 22.4249 83.1904 22.6399 83.1336 22.6937C83.0199 22.855 82.9062 23.0163 82.6787 23.3927C82.565 23.6078 82.4513 23.7691 82.5082 23.9304C82.5082 24.0379 82.565 24.0917 82.565 24.1455C82.6787 24.253 82.8493 24.253 82.8493 24.253C82.963 24.253 83.0767 24.1993 83.0767 24.1993C83.1904 24.1455 83.2473 24.0379 83.3041 23.8229C83.361 23.6616 83.361 23.6078 83.4747 23.5003C83.4747 23.4465 83.5316 23.3389 83.7021 23.1776C83.759 23.0163 83.9295 22.855 84.157 22.6399Z" fill="#C8637A"/>
<path d="M70.2842 89.9056C72.1682 89.9056 73.6955 88.4612 73.6955 86.6795C73.6955 84.8977 72.1682 83.4533 70.2842 83.4533C68.4002 83.4533 66.8729 84.8977 66.8729 86.6795C66.8729 88.4612 68.4002 89.9056 70.2842 89.9056Z" fill="#B32646"/>
<path d="M71.0802 87.3785C70.9096 87.5398 70.6822 87.5398 70.5117 87.3785L69.4314 86.4106C69.2608 86.2493 69.2608 86.0342 69.4314 85.8729C69.602 85.7116 69.8294 85.7116 70 85.8729L71.0802 86.8408C71.2508 87.0021 71.2508 87.2709 71.0802 87.3785Z" fill="#6C1626"/>
<path d="M71.0234 85.8723C71.1939 86.0336 71.1939 86.2487 71.0234 86.41L70.0568 87.4317C69.8862 87.593 69.6588 87.593 69.4883 87.4317C69.3177 87.2703 69.3177 87.0553 69.4883 86.894L70.5117 85.8723C70.6254 85.7648 70.8528 85.7648 71.0234 85.8723Z" fill="#6C1626"/>
<path d="M68.9197 85.1735C69.0903 85.0659 69.3745 84.8508 69.602 84.6895C69.6588 84.6358 69.7725 84.582 69.7725 84.4745C69.7725 84.4745 69.8294 84.2594 69.7157 84.1518C69.602 84.0443 69.3745 84.0443 69.3177 84.0443C69.2608 84.0443 69.1471 84.0981 69.0334 84.1518C68.8629 84.2594 68.806 84.3132 68.7491 84.3669C68.5217 84.5282 68.408 84.6358 68.2374 84.7433C68.01 84.9584 67.8963 85.1197 67.8395 85.1735C67.7257 85.3348 67.612 85.4961 67.4415 85.8187C67.3278 85.98 67.2709 86.1413 67.2709 86.3564C67.2709 86.4639 67.3278 86.5177 67.3278 86.5715C67.4415 86.679 67.5552 86.679 67.612 86.679C67.7257 86.679 67.8395 86.6252 67.8395 86.6252C67.9532 86.5715 67.9532 86.4639 68.0669 86.3026C68.1237 86.1413 68.1237 86.1413 68.1806 85.98C68.1806 85.9262 68.2374 85.8725 68.3512 85.7112C68.5217 85.4961 68.6923 85.3348 68.9197 85.1735Z" fill="#C8637A"/>
<path d="M12.69 80.9797C14.574 80.9797 16.1013 79.5353 16.1013 77.7535C16.1013 75.9717 14.574 74.5273 12.69 74.5273C10.806 74.5273 9.27869 75.9717 9.27869 77.7535C9.27869 79.5353 10.806 80.9797 12.69 80.9797Z" fill="#B32646"/>
<path d="M13.486 78.4526C13.3154 78.6139 13.088 78.6139 12.9174 78.4526L11.8372 77.4847C11.6666 77.3234 11.6666 77.1083 11.8372 76.947C12.0077 76.7857 12.2352 76.7857 12.4057 76.947L13.486 77.9149C13.6565 78.0762 13.6565 78.345 13.486 78.4526Z" fill="#6C1626"/>
<path d="M13.4291 76.9471C13.5997 77.1084 13.5997 77.3235 13.4291 77.4848L12.4626 78.5064C12.292 78.6677 12.0646 78.6677 11.894 78.5064C11.7235 78.3451 11.7235 78.13 11.894 77.9687L12.9174 76.9471C13.0311 76.8396 13.2585 76.8396 13.4291 76.9471Z" fill="#6C1626"/>
<path d="M11.3255 76.2481C11.496 76.1406 11.7803 75.9255 12.0077 75.7642C12.0646 75.7104 12.1783 75.6567 12.1783 75.5491C12.1783 75.5491 12.2352 75.334 12.1214 75.2265C12.0077 75.119 11.7803 75.119 11.7235 75.119C11.6666 75.119 11.5529 75.1727 11.4392 75.2265C11.2686 75.334 11.2118 75.3878 11.1549 75.4416C10.9275 75.6029 10.8138 75.7104 10.6432 75.818C10.4158 76.033 10.3021 76.1943 10.2452 76.2481C10.1315 76.4094 10.0178 76.5707 9.84724 76.8933C9.73353 77.0547 9.67667 77.216 9.67667 77.431C9.67667 77.5386 9.73353 77.5923 9.73353 77.6461C9.84724 77.7536 9.96095 77.7537 10.0178 77.7537C10.1315 77.7537 10.2452 77.6999 10.2452 77.6999C10.3589 77.6461 10.3589 77.5386 10.4726 77.3773C10.5295 77.216 10.5295 77.216 10.5864 77.0547C10.5864 77.0009 10.6432 76.9471 10.7569 76.7858C10.9275 76.5707 11.0981 76.4094 11.3255 76.2481Z" fill="#C8637A"/>
<path d="M81.0867 62.1069C82.4369 62.1069 83.5315 61.0717 83.5315 59.7948C83.5315 58.5179 82.4369 57.4827 81.0867 57.4827C79.7365 57.4827 78.642 58.5179 78.642 59.7948C78.642 61.0717 79.7365 62.1069 81.0867 62.1069Z" fill="#B32646"/>
<path d="M81.6553 60.3323C81.5416 60.4398 81.371 60.4398 81.2573 60.3323L80.4614 59.6333C80.3476 59.5257 80.3476 59.3644 80.4614 59.2569C80.5751 59.1493 80.7456 59.1493 80.8593 59.2569L81.6553 59.9559C81.8259 60.0634 81.8259 60.2247 81.6553 60.3323Z" fill="#6C1626"/>
<path d="M81.6553 59.2569C81.769 59.3644 81.769 59.5257 81.6553 59.6333L80.9162 60.386C80.8025 60.4936 80.6319 60.4936 80.5182 60.386C80.4045 60.2785 80.4045 60.1172 80.5182 60.0096L81.2573 59.2569C81.371 59.1493 81.5416 59.1493 81.6553 59.2569Z" fill="#6C1626"/>
<path d="M80.1202 58.7192C80.2339 58.6117 80.4045 58.5041 80.6319 58.3428C80.6888 58.2891 80.7456 58.2891 80.7456 58.1815C80.7456 58.1815 80.8025 58.0202 80.6887 57.9664C80.575 57.8589 80.4613 57.9127 80.4045 57.9127C80.3476 57.9127 80.2908 57.9664 80.2339 58.0202C80.1202 58.074 80.0633 58.1277 80.0065 58.1815C79.8359 58.2891 79.7222 58.3966 79.6654 58.4504C79.4948 58.6117 79.3811 58.7192 79.3811 58.773C79.2674 58.8805 79.2105 58.9881 79.0968 59.2031C79.0399 59.3107 78.9831 59.4182 78.9831 59.5795C78.9831 59.6333 78.9831 59.6871 79.04 59.7408C79.0968 59.7946 79.2105 59.7946 79.2105 59.7946C79.2674 59.7946 79.3811 59.7408 79.3811 59.7408C79.4379 59.6871 79.4948 59.6333 79.5516 59.5258C79.6085 59.4182 79.6085 59.4182 79.6654 59.3107C79.6654 59.2569 79.7222 59.2031 79.7791 59.0956C79.8359 58.9881 79.9496 58.8805 80.1202 58.7192Z" fill="#C8637A"/>
<path d="M143.4 63.0208C144.75 63.0208 145.845 61.9856 145.845 60.7087C145.845 59.4318 144.75 58.3966 143.4 58.3966C142.05 58.3966 140.955 59.4318 140.955 60.7087C140.955 61.9856 142.05 63.0208 143.4 63.0208Z" fill="#B32646"/>
<path d="M143.969 61.2462C143.855 61.3537 143.685 61.3537 143.571 61.2462L142.775 60.5472C142.661 60.4396 142.661 60.2783 142.775 60.1708C142.889 60.0633 143.059 60.0633 143.173 60.1708L143.969 60.8698C144.082 60.9773 144.082 61.1386 143.969 61.2462Z" fill="#6C1626"/>
<path d="M143.969 60.1708C144.082 60.2783 144.082 60.4396 143.969 60.5472L143.23 61.3C143.116 61.4075 142.945 61.4075 142.832 61.3C142.718 61.1924 142.718 61.0311 142.832 60.9236L143.571 60.1708C143.628 60.0633 143.855 60.0633 143.969 60.1708Z" fill="#6C1626"/>
<path d="M142.377 59.6332C142.491 59.5256 142.661 59.4181 142.889 59.2568C142.945 59.203 143.002 59.203 143.002 59.0955C143.002 59.0955 143.059 58.9342 142.945 58.8804C142.832 58.7728 142.718 58.8266 142.661 58.8266C142.604 58.8266 142.547 58.8804 142.491 58.9342C142.377 58.9879 142.32 59.0417 142.263 59.0955C142.093 59.203 141.979 59.3105 141.922 59.3643C141.751 59.5256 141.638 59.6332 141.638 59.6869C141.524 59.7945 141.467 59.902 141.353 60.1171C141.297 60.2246 141.24 60.3322 141.24 60.4935C141.24 60.5472 141.24 60.601 141.297 60.6548C141.353 60.7085 141.467 60.7085 141.467 60.7085C141.524 60.7085 141.638 60.6548 141.638 60.6548C141.695 60.601 141.751 60.5472 141.808 60.4397C141.865 60.3322 141.865 60.3322 141.922 60.2246C141.922 60.1708 141.979 60.1171 142.036 60.0095C142.149 59.902 142.206 59.7945 142.377 59.6332Z" fill="#C8637A"/>
<path d="M81.0867 39.6312C82.4369 39.6312 83.5315 38.5961 83.5315 37.3192C83.5315 36.0422 82.4369 35.0071 81.0867 35.0071C79.7365 35.0071 78.642 36.0422 78.642 37.3192C78.642 38.5961 79.7365 39.6312 81.0867 39.6312Z" fill="#B32646"/>
<path d="M81.6553 37.8566C81.5416 37.9641 81.371 37.9641 81.2573 37.8566L80.4614 37.1576C80.3476 37.0501 80.3476 36.8888 80.4614 36.7812C80.5751 36.6737 80.7456 36.6737 80.8593 36.7812L81.6553 37.4802C81.769 37.5878 81.769 37.7491 81.6553 37.8566Z" fill="#6C1626"/>
<path d="M81.6553 36.7812C81.769 36.8888 81.769 37.0501 81.6553 37.1576L80.9162 37.9104C80.8025 38.0179 80.6319 38.0179 80.5182 37.9104C80.4045 37.8028 80.4045 37.6415 80.5182 37.534L81.2573 36.7812C81.3142 36.6737 81.5416 36.6737 81.6553 36.7812Z" fill="#6C1626"/>
<path d="M80.0633 36.2436C80.1771 36.136 80.3476 36.0285 80.575 35.8672C80.6319 35.8134 80.6887 35.8134 80.6887 35.7059C80.6887 35.7059 80.7456 35.5446 80.6319 35.4908C80.5182 35.3833 80.4045 35.437 80.3476 35.437C80.2908 35.437 80.2339 35.4908 80.1771 35.5446C80.0633 35.5983 80.0065 35.6521 79.9496 35.7059C79.7791 35.8134 79.6654 35.9209 79.6085 35.9747C79.4379 36.136 79.3242 36.2436 79.3242 36.2973C79.2105 36.4049 79.1537 36.5124 79.0399 36.7275C78.9831 36.835 78.9262 36.9426 78.9262 37.1039C78.9262 37.1576 78.9262 37.2114 78.9831 37.2652C79.0399 37.3189 79.1537 37.3189 79.1537 37.3189C79.2105 37.3189 79.3242 37.2652 79.3242 37.2652C79.3811 37.2114 79.4379 37.1576 79.4948 37.0501C79.5516 36.9426 79.5516 36.9426 79.6085 36.835C79.6085 36.7813 79.6654 36.7275 79.7222 36.6199C79.8359 36.5124 79.8928 36.4049 80.0633 36.2436Z" fill="#C8637A"/>
<path d="M141.239 46.7288C142.903 46.7288 144.253 45.453 144.253 43.8791C144.253 42.3052 142.903 41.0293 141.239 41.0293C139.575 41.0293 138.226 42.3052 138.226 43.8791C138.226 45.453 139.575 46.7288 141.239 46.7288Z" fill="#B32646"/>
<path d="M141.922 44.524C141.808 44.6315 141.58 44.6853 141.41 44.524L140.443 43.6637C140.33 43.5561 140.273 43.3411 140.443 43.1797C140.557 43.0722 140.784 43.0184 140.955 43.1797L141.922 44.0401C142.092 44.2014 142.092 44.3627 141.922 44.524Z" fill="#6C1626"/>
<path d="M141.865 43.1801C141.978 43.2877 142.035 43.5028 141.865 43.6641L140.955 44.5781C140.841 44.6857 140.614 44.7395 140.443 44.5781C140.33 44.4706 140.273 44.2555 140.443 44.0942L141.353 43.1801C141.524 43.0726 141.751 43.0726 141.865 43.1801Z" fill="#6C1626"/>
<path d="M139.988 42.5351C140.102 42.4275 140.386 42.2662 140.614 42.1049C140.671 42.0512 140.728 41.9974 140.784 41.8899C140.784 41.8899 140.841 41.7285 140.728 41.621C140.614 41.5135 140.443 41.5135 140.386 41.5672C140.33 41.5672 140.273 41.621 140.159 41.6748C140.045 41.7285 139.932 41.8361 139.932 41.8361C139.704 41.9974 139.59 42.1049 139.477 42.2125C139.306 42.3738 139.192 42.5351 139.136 42.5889C139.022 42.7502 138.965 42.8577 138.795 43.1265C138.681 43.2879 138.624 43.3954 138.624 43.5567C138.624 43.6642 138.681 43.718 138.681 43.718C138.738 43.8256 138.908 43.8256 138.908 43.8256C139.022 43.8256 139.079 43.7718 139.136 43.7718C139.192 43.718 139.249 43.6642 139.306 43.5029C139.363 43.3416 139.363 43.3416 139.42 43.2341C139.42 43.1803 139.477 43.1266 139.59 42.9652C139.704 42.8577 139.818 42.6964 139.988 42.5351Z" fill="#C8637A"/>
<path d="M112.129 41.7282C113.731 41.7282 115.029 40.5005 115.029 38.986C115.029 37.4715 113.731 36.2438 112.129 36.2438C110.528 36.2438 109.23 37.4715 109.23 38.986C109.23 40.5005 110.528 41.7282 112.129 41.7282Z" fill="#761F36"/>
<path d="M112.812 39.5774C112.698 39.7387 112.471 39.7387 112.357 39.5774L111.39 38.7709C111.22 38.6633 111.22 38.4482 111.39 38.3407C111.504 38.1794 111.731 38.1794 111.845 38.3407L112.812 39.1472C112.869 39.2548 112.925 39.4699 112.812 39.5774Z" fill="#49131F"/>
<path d="M112.755 38.341C112.925 38.4485 112.925 38.6636 112.755 38.7712L111.902 39.6852C111.788 39.8465 111.561 39.8465 111.447 39.6852C111.277 39.5777 111.277 39.3626 111.447 39.2551L112.3 38.341C112.414 38.2335 112.584 38.1797 112.755 38.341Z" fill="#49131F"/>
<path d="M110.935 37.6955C111.106 37.588 111.277 37.4267 111.504 37.2654C111.561 37.2116 111.675 37.1578 111.675 37.104C111.675 37.104 111.731 36.9427 111.618 36.8352C111.504 36.7277 111.333 36.7277 111.333 36.7277C111.277 36.7277 111.22 36.7814 111.106 36.8352C110.992 36.9427 110.936 36.9965 110.879 36.9965C110.708 37.1578 110.594 37.2116 110.481 37.3191C110.31 37.4804 110.196 37.6417 110.14 37.6955C110.026 37.8568 109.969 37.9644 109.798 38.2332C109.685 38.3945 109.628 38.502 109.628 38.6634C109.628 38.7709 109.685 38.8247 109.685 38.8247C109.798 38.9322 109.855 38.9322 109.912 38.9322C110.026 38.9322 110.083 38.8784 110.083 38.8784C110.196 38.8247 110.196 38.7171 110.253 38.6096C110.31 38.4483 110.31 38.4483 110.367 38.3945C110.367 38.3407 110.424 38.287 110.538 38.1794C110.594 38.0181 110.765 37.8568 110.935 37.6955Z" fill="#A05062"/>
<path d="M34.807 73.2905C36.1572 73.2905 37.2517 72.2553 37.2517 70.9784C37.2517 69.7015 36.1572 68.6663 34.807 68.6663C33.4567 68.6663 32.3622 69.7015 32.3622 70.9784C32.3622 72.2553 33.4567 73.2905 34.807 73.2905Z" fill="#761F36"/>
<path d="M35.3755 71.4627C35.2618 71.5703 35.0912 71.5703 34.9775 71.4627L34.1816 70.7637C34.0678 70.6562 34.0678 70.4949 34.1816 70.3874C34.2953 70.2798 34.4658 70.2798 34.5795 70.3874L35.3755 71.0864C35.4892 71.1939 35.4892 71.409 35.3755 71.4627Z" fill="#49131F"/>
<path d="M35.3187 70.387C35.4324 70.4946 35.4324 70.6559 35.3187 70.7634L34.5795 71.5162C34.4658 71.6237 34.2953 71.6237 34.1816 71.5162C34.0678 71.4087 34.0678 71.2474 34.1816 71.1398L34.9207 70.387C35.0344 70.3333 35.2049 70.2795 35.3187 70.387Z" fill="#49131F"/>
<path d="M33.7836 69.8496C33.8973 69.742 34.0678 69.6345 34.2953 69.4732C34.3521 69.4194 34.409 69.4194 34.409 69.3119C34.409 69.3119 34.4658 69.1506 34.3521 69.0968C34.2384 68.9893 34.1247 69.043 34.0678 69.043C34.011 69.043 33.9541 69.0968 33.8973 69.1506C33.7836 69.2044 33.7267 69.2581 33.6698 69.3119C33.4993 69.4194 33.3856 69.527 33.3287 69.5807C33.1582 69.742 33.0444 69.8496 33.0444 69.9034C32.9307 70.0109 32.8739 70.1184 32.7602 70.3335C32.7033 70.441 32.6465 70.5486 32.6465 70.7099C32.6465 70.7637 32.6465 70.8174 32.7033 70.8712C32.7602 70.925 32.8739 70.925 32.8739 70.925C32.9307 70.925 33.0444 70.8712 33.0444 70.8712C33.1013 70.8174 33.1581 70.7637 33.215 70.6561C33.2719 70.5486 33.2719 70.5486 33.3287 70.441C33.3287 70.3873 33.3856 70.3335 33.4424 70.226C33.4993 70.1184 33.613 70.0109 33.7836 69.8496Z" fill="#A05062"/>
<path d="M65.9631 57.3749C67.6587 57.3749 69.0333 56.075 69.0333 54.4714C69.0333 52.8678 67.6587 51.5679 65.9631 51.5679C64.2675 51.5679 62.8929 52.8678 62.8929 54.4714C62.8929 56.075 64.2675 57.3749 65.9631 57.3749Z" fill="#761F36"/>
<path d="M66.7591 55.1168C66.5885 55.2781 66.418 55.2781 66.2474 55.1168L65.2808 54.2565C65.1103 54.0952 65.1103 53.9339 65.2808 53.7726C65.4514 53.6113 65.622 53.6113 65.7925 53.7726L66.7591 54.6329C66.8728 54.7942 66.8728 54.9555 66.7591 55.1168Z" fill="#49131F"/>
<path d="M66.7022 53.7726C66.8728 53.9339 66.8728 54.0952 66.7022 54.2565L65.7925 55.1706C65.622 55.3319 65.4514 55.3319 65.2808 55.1706C65.1103 55.0093 65.1103 54.848 65.2808 54.6867L66.1905 53.7726C66.3042 53.6113 66.5317 53.6113 66.7022 53.7726Z" fill="#49131F"/>
<path d="M64.7692 53.0734C64.9397 52.9658 65.1671 52.8045 65.3946 52.6432C65.4514 52.5894 65.5651 52.5357 65.5651 52.4281C65.5651 52.4281 65.622 52.2131 65.5083 52.1593C65.3946 52.0518 65.224 52.0518 65.1671 52.0518C65.1103 52.0518 64.9966 52.1055 64.8829 52.1593C64.7123 52.2668 64.6555 52.3206 64.5986 52.3744C64.3712 52.5357 64.3143 52.6432 64.1438 52.697C63.9163 52.9121 63.8595 53.0196 63.8026 53.0734C63.6889 53.2347 63.5752 53.3422 63.4615 53.6648C63.3478 53.8261 63.2909 53.9337 63.2909 54.1488C63.2909 54.2563 63.3478 54.3101 63.3478 54.3638C63.4615 54.4714 63.5752 54.4714 63.6321 54.4714C63.7458 54.4714 63.8595 54.4176 63.8595 54.4176C63.9732 54.3638 63.9732 54.2563 64.0869 54.1488C64.1438 53.9874 64.1438 53.9874 64.2006 53.8799C64.2006 53.8261 64.2575 53.7724 64.3712 53.6111C64.3712 53.396 64.5417 53.2347 64.7692 53.0734Z" fill="#A05062"/>
<path d="M121.113 30.5443C122.463 30.5443 123.558 29.5092 123.558 28.2322C123.558 26.9553 122.463 25.9202 121.113 25.9202C119.763 25.9202 118.668 26.9553 118.668 28.2322C118.668 29.5092 119.763 30.5443 121.113 30.5443Z" fill="#B32646"/>
<path d="M121.682 28.7697C121.568 28.8772 121.397 28.8772 121.284 28.7697L120.488 28.0707C120.374 27.9631 120.374 27.8018 120.488 27.6943C120.601 27.5868 120.772 27.5868 120.886 27.6943L121.682 28.3933C121.795 28.5008 121.795 28.6621 121.682 28.7697Z" fill="#6C1626"/>
<path d="M121.625 27.6943C121.739 27.8018 121.739 27.9631 121.625 28.0707L120.886 28.8235C120.772 28.931 120.601 28.931 120.488 28.8235C120.374 28.7159 120.374 28.5546 120.488 28.4471L121.227 27.6943C121.341 27.5868 121.511 27.5868 121.625 27.6943Z" fill="#6C1626"/>
<path d="M120.09 27.1567C120.203 27.0491 120.374 26.9416 120.601 26.7803C120.658 26.7265 120.715 26.7265 120.715 26.619C120.715 26.619 120.772 26.4577 120.658 26.4039C120.545 26.2963 120.431 26.3501 120.374 26.3501C120.317 26.3501 120.26 26.4039 120.203 26.4577C120.09 26.5114 120.033 26.5652 119.976 26.619C119.805 26.7265 119.692 26.834 119.635 26.8878C119.464 27.0491 119.351 27.1567 119.351 27.2104C119.237 27.318 119.18 27.4255 119.066 27.6406C119.009 27.7481 118.953 27.8557 118.953 28.017C118.953 28.0707 118.953 28.1245 119.009 28.1783C119.066 28.232 119.18 28.232 119.18 28.232C119.237 28.232 119.351 28.1783 119.351 28.1783C119.407 28.1245 119.464 28.0707 119.521 27.9632C119.578 27.8557 119.578 27.8557 119.635 27.7481C119.635 27.6943 119.692 27.6406 119.749 27.533C119.805 27.4255 119.919 27.2642 120.09 27.1567Z" fill="#C8637A"/>
</svg>
