<svg viewBox="0 0 1041 673" fill="none" xmlns="http://www.w3.org/2000/svg">
    <path d="M930.275 31.5285H109.538C60.379 31.5285 20.5281 71.3795 20.5281 120.538V559.113C20.5281 608.271 60.379 648.122 109.538 648.122H930.275C979.434 648.122 1019.29 608.271 1019.29 559.113V120.538C1019.29 71.3795 979.434 31.5285 930.275 31.5285Z" fill="#B6CEE1" stroke="#116619" stroke-width="6"/>
    <path d="M10.3469 40.3962C14.0803 43.5191 30.3874 57.8544 33.3679 82.5644C35.0453 97.2366 31.7442 112.047 23.9945 124.618C23.9918 129.075 23.989 133.532 23.9862 137.989C25.0233 137.01 49.8969 112.69 42.0007 79.7975C35.7441 53.7353 13.6634 42.0771 10.3469 40.3962Z" fill="#48964E"/>
    <path d="M17.0568 128.701C8.98218 135.637 6.59962 141.986 5.91961 146.508C3.13433 165.034 25.5049 175.593 28.639 200.181C30.069 211.399 26.9365 221.162 23.9804 227.768L23.9874 239.712C41.4525 218.375 42.4271 204.688 40.0083 196.092C35.2336 179.124 13.7559 169.631 15.364 150.788C15.5784 148.344 16.1462 145.945 17.0498 143.665C17.0522 138.677 17.0545 133.689 17.0568 128.701Z" fill="#48964E"/>
    <path d="M17.0604 232.674C5.48565 244.641 4.28566 252.946 5.18185 258.219C6.6285 266.731 13.6658 268.101 22.5951 285.077C28.1058 295.553 28.5784 301.026 28.6455 303.67C28.7255 309.923 27.1172 316.082 23.9901 321.497L23.991 330.539C41.6305 318.739 42.9887 308.886 42.9598 304.851C42.909 297.746 38.4361 291.725 29.6047 279.838C21.4098 268.807 15.4083 264.258 14.9215 255.415C14.7654 251.724 15.499 248.049 17.0604 244.7V232.674Z" fill="#48964E"/>
    <path d="M17.0604 325.22V335.103C13.8048 340.271 12.0902 346.261 12.1177 352.369C12.5845 369.455 28.9968 376.064 34.1056 392.065C36.8704 400.725 36.9913 414.222 23.998 434.822C23.9945 430.933 23.991 427.045 23.9876 423.156C26.0384 415.924 26.4201 408.32 25.1039 400.919C20.7622 377.867 0.685835 370.851 0.0169104 353.992C-0.233507 347.682 2.15076 337.868 17.0604 325.22Z" fill="#48964E"/>
    <path d="M17.0501 427.831C4.97676 444.271 4.77025 454.633 6.80518 461.054C10.6864 473.3 24.3096 476.221 27.465 490.052C29.351 498.318 26.4774 506.012 23.9945 510.935C23.9957 514.078 23.9969 517.22 23.998 520.363C37.3567 504.069 38.216 493.78 36.1717 487.248C32.6197 475.899 19.2639 472.709 15.9546 458.324C14.7898 452.761 15.1723 446.984 17.0605 441.623L17.0501 427.831Z" fill="#48964E"/>
    <path d="M17.0611 515.065C8.99139 525.759 9.01228 531.824 10.4205 535.356C13.1375 542.17 22.1153 542.287 25.5464 550.039C28.0529 555.702 26.0883 562.023 24.2825 566.146C24.398 567.501 24.5496 568.909 24.7374 570.368C24.9273 571.825 25.1414 573.223 25.3798 574.563C36.2299 556.687 35.4076 548.633 32.7036 544.579C28.6326 538.476 17.7067 537.555 16.397 530.191C16.1252 528.432 16.3545 526.631 17.0585 524.996L17.0611 515.065Z" fill="#48964E"/>
    <path d="M18.0223 572.507C13.0893 583.935 14.5024 589.32 16.4896 592.115C20.5841 597.873 29.2556 595.641 37.1309 602.851C40.4593 606 42.9027 609.968 44.2169 614.358C44.942 615.213 45.712 616.085 46.5268 616.972C47.3525 617.869 48.1676 618.718 48.972 619.52C49.2111 604.959 45.1101 599.01 41.3367 596.265C34.4536 591.258 24.7424 594.061 20.6399 587.632C19.2123 585.118 18.7263 582.177 19.2689 579.337C19.0587 578.382 18.8584 577.399 18.6682 576.389C18.4185 575.057 18.2032 573.763 18.0223 572.507Z" fill="#48964E"/>
    <path d="M42.0032 622.283C46.7912 638.508 53.2138 643.192 57.9383 644.631C66.9855 647.388 73.8137 639.441 88.7124 639.365C96.193 639.413 103.557 641.227 110.203 644.66L119.037 644.657C102.87 630.479 91.0101 628.438 82.7301 629.801C72.3764 631.505 63.8323 639.154 54.95 635.224C51.4656 633.513 48.6523 630.688 46.9565 627.196C46.2083 626.514 45.4496 625.795 44.6804 625.04C43.7329 624.108 42.8405 623.189 42.0032 622.283Z" fill="#48964E"/>
    <path d="M115.106 651.591C127.369 659.207 134.715 658.829 139.176 657.027C145.937 654.296 147.67 647.647 156.146 644.779C160.852 643.316 165.884 643.273 170.614 644.655H177.173C165.138 636.785 157.597 636.827 152.826 638.581C144.69 641.572 140.989 650.87 130.322 652.01C128.053 652.244 125.762 652.1 123.54 651.584L115.106 651.591Z" fill="#48964E"/>
    <path d="M176.174 651.59C191.651 661.554 201.029 661.231 206.763 659.02C215.799 655.534 218.489 646.308 229.636 643.525C235.059 642.31 240.718 642.705 245.919 644.66L253.388 644.657C239.944 633.895 230.994 633.305 225.357 634.671C213.782 637.475 209.318 650.187 194.515 652.342C190.476 652.902 186.366 652.647 182.428 651.591L176.174 651.59Z" fill="#48964E"/>
    <path d="M249.258 651.582C265.838 664.48 276.984 665.311 284.237 663.447C296.85 660.205 300.696 648.04 316.407 643.82C324.23 641.89 332.436 642.182 340.102 644.66L351.961 644.655C333.753 633.539 321.409 633.567 313.345 635.888C299.746 639.802 293.8 651.537 277.043 653.596C270.737 654.311 264.351 653.625 258.341 651.587L249.258 651.582Z" fill="#48964E"/>
    <path d="M345.465 651.591C365.599 662.904 377.706 661.874 385.028 658.872C394.833 654.852 399.56 645.86 412.771 643.525C418.46 642.583 424.289 642.969 429.804 644.655L443.018 644.658C425.156 629.441 413.953 628.334 406.868 630.539C395.058 634.214 392.044 647.915 376.764 652.231C370.047 653.964 362.974 653.737 356.382 651.577L345.465 651.591Z" fill="#48964E"/>
    <path d="M436.307 651.584C442.658 655.453 452.538 660.082 464.273 659.315C481.079 658.216 487.83 646.955 505.592 642.197C514.149 639.904 527.157 638.613 545.113 644.65L557.538 644.652C526.411 625.02 509.136 625.608 498.952 630.686C488.018 636.138 480.788 648.994 462.926 651.881C457.708 652.701 452.387 652.6 447.203 651.584H436.307Z" fill="#48964E"/>
    <path d="M562.702 651.585C568.452 653.494 574.507 654.314 580.558 654.002C600.049 652.891 608.674 639.807 623.353 634.671C633.854 630.996 650.007 630.496 674.713 644.655L660.42 644.66C650.354 641.913 639.791 641.525 629.551 643.525C608.509 647.856 601.319 660.833 583.509 662.119C576.428 662.63 565.421 661.455 551.171 651.587L562.702 651.585Z" fill="#48964E"/>
    <path d="M678.232 651.584C690.721 656.031 703.969 657.957 717.208 657.249C748.6 655.366 762.648 638.53 787.599 631.572C805.047 626.706 831.514 625.641 869.511 644.671L852.521 644.66C835.629 641.292 818.247 641.207 801.323 644.41C765.319 651.434 753.078 670.21 724.734 672.301C710.686 673.337 690.342 670.448 664.51 651.591L678.232 651.584Z" fill="#48964E"/>
    <path d="M863.062 651.567C886.607 667.621 902.874 668.248 913.514 665.66C932.602 661.019 935.367 645.599 956.862 642.787C972.958 640.681 980.122 648.188 995.268 643.23C1005.77 639.793 1012.88 632.731 1017.11 627.587C1009.96 632.466 1001.87 635.785 993.35 637.327C976.852 640.181 972.486 633.405 958.485 634.671C935.888 636.714 931.903 655.755 909.677 658.725C898.771 660.182 888.073 657.154 877.949 651.549L863.062 651.567Z" fill="#48964E"/>
    <path d="M999.209 69.8698C997.079 77.8959 996.929 86.3192 998.772 94.4161C1003.46 113.868 1018.27 119.09 1024.6 136.621C1027.5 144.66 1029.28 157.114 1022.75 175.443L1022.76 186.227C1042.99 157.86 1042.88 141.801 1038.91 132.342C1033.64 119.792 1018.97 112.695 1008.05 87.2683C1006.39 83.4222 1005.27 80.1954 1004.61 78.1808C1004.06 77.2256 1003.48 76.2551 1002.86 75.2693C1001.65 73.3353 1000.43 71.5367 999.209 69.8698Z" fill="#48964E"/>
    <path d="M1015.82 180.961C1011.89 187.507 1007.1 197.909 1008.95 209.578C1011.34 224.602 1022.78 229.453 1027.25 244.773C1029.47 252.361 1030.52 264.371 1022.75 281.839V294.295C1042.18 265.974 1041.87 250.456 1037.66 241.453C1032.33 230.076 1018.31 223.862 1015.52 206.479C1014.82 201.997 1014.92 197.427 1015.82 192.98V180.961Z" fill="#48964E"/>
    <path d="M1015.82 288.046C1006.9 300.577 1006.59 308.452 1008.44 313.504C1011.7 322.443 1022.43 324.583 1024.6 334.976C1025.36 339.343 1024.71 343.839 1022.75 347.816L1022.76 356.235C1032.27 345.732 1033.16 338.662 1032.12 334.09C1029.58 322.9 1013.72 319.142 1013.31 307.528C1013.28 304.468 1014.15 301.468 1015.81 298.9L1015.82 288.046Z" fill="#48964E"/>
    <path d="M1015.82 351.992C1005.73 364.487 1004.91 372.978 1006.3 378.586C1009.03 389.572 1021.11 392.861 1024.01 406.33C1025.05 411.659 1024.61 417.171 1022.75 422.272V434.384C1035.55 419.748 1036.56 410.288 1034.93 404.264C1031.75 392.556 1017.13 388.512 1014.86 373.569C1014.29 369.557 1014.62 365.469 1015.82 361.6L1015.82 351.992Z" fill="#48964E"/>
    <path d="M1015.82 426.515C1004.79 443.25 1004.97 453.074 1007.55 459.062C1011.73 468.749 1023.75 471.98 1025.04 483.19C1025.39 487.06 1024.59 490.946 1022.75 494.368L1022.75 503.382C1032.03 494.909 1033.54 488.412 1033.23 484.075C1032.34 471.543 1015.58 466.621 1013.75 451.093C1013.29 446.597 1014.01 442.06 1015.82 437.921L1015.82 426.515Z" fill="#48964E"/>
    <path d="M1015.82 499.014C1007.02 507.596 1005.4 514.24 1005.86 518.975C1006.87 529.57 1018.51 532.74 1023.27 545.39C1026.88 554.982 1024.61 564.882 1021.83 572.165C1021.6 573.851 1021.3 575.628 1020.93 577.483C1020.57 579.278 1020.17 580.978 1019.75 582.576C1036.03 561.403 1036.46 549.678 1033.45 542.808C1028.98 532.623 1014.59 527.777 1014.27 515.286C1014.22 512.647 1014.75 510.03 1015.82 507.617L1015.82 499.014Z" fill="#48964E"/>
    <path d="M1014.2 575.757C1009.84 580.03 1006.56 585.276 1004.62 591.064C1001.29 601.346 1004.9 606.523 1000.52 615.745C999.569 617.76 996.178 624.913 989.124 628.141C977.107 633.64 963.034 623.823 962.617 624.765C962.191 625.726 975.865 638.171 990.342 634.283C997.405 632.386 1005.59 626.476 1007.66 618.456C1009.61 610.929 1007.55 596.224 1009.29 592.035C1009.35 591.892 1009.8 590.836 1010.36 589.358C1010.98 587.685 1011.45 586.25 1011.78 585.179C1012.3 583.51 1012.81 581.738 1013.27 579.868C1013.63 578.455 1013.94 577.085 1014.2 575.757Z" fill="#48964E"/>
    <path d="M1001.47 61.5114C1001.37 56.6351 1000.25 51.8343 998.181 47.4151C991.658 33.5863 977.938 28.8425 974.865 27.862C988.36 26.1976 1001.09 32.6254 1006.59 43.5783C1012.43 55.2029 1007.59 66.8654 1006.81 68.643C1005.94 67.3385 1004.98 65.9914 1003.94 64.6156C1003.11 63.5224 1002.29 62.4876 1001.47 61.5114Z" fill="#48964E"/>
    <path d="M43.1074 75.3058C44.178 75.238 38.4338 54.3328 49.1947 41.4384C57.8654 31.0486 73.9217 29.8507 87.2125 30.7765C89.4119 30.2335 91.3744 29.8335 93.0296 29.5356C94.0802 29.3464 95.6591 29.081 97.592 28.8307C98.9585 28.6539 100.173 28.5271 101.193 28.4349C76.8268 18.8415 53.2042 23.3874 43.6608 37.2327C33.201 52.4074 41.9815 75.377 43.1074 75.3058Z" fill="#48964E"/>
    <path d="M93.9102 36.4152C102.92 41.8453 116.869 48.1998 132.092 45.3122C149.99 41.9171 155.559 28.4282 174.15 22.9922C183.451 20.2727 198.036 18.9772 219.103 28.0634H236.353C199.711 5.44149 178.684 6.07507 165.96 12.2196C151.449 19.2267 139.936 37.1661 118.258 37.0115C114.152 36.9709 110.076 36.3133 106.166 35.0608C103.849 35.1485 101.363 35.337 98.7344 35.6677C97.0497 35.8796 95.4401 36.1331 93.9102 36.4152Z" fill="#48964E"/>
    <path d="M228.079 34.994C228.944 35.3655 230.199 35.8987 231.72 36.5247C233.329 37.2753 234.978 37.935 236.661 38.5009C240.168 39.6001 245.142 41.035 251.185 42.359C257.024 43.638 276.468 46.4508 289.033 46.3082C320.503 45.951 334.661 25.56 366.507 19.7456C380.473 17.1958 400.921 16.8869 427.843 28.053C437.861 28.0582 447.878 28.0634 457.896 28.0685C399.445 -5.47043 365.669 -2.9533 345.478 6.02161C327.021 14.2264 308.788 32.7752 274.516 36.1947C264.406 37.1846 254.208 36.7811 244.207 34.9957L228.079 34.994Z" fill="#48964E"/>
    <path d="M437.286 34.9914C465.595 51.2299 483.707 50.326 495.115 46.3082C510.947 40.7325 518.143 27.6528 538.058 24.6155C547.925 23.263 557.975 24.4497 567.256 28.0634H586.506C555.693 5.68429 537.191 4.95595 525.662 9.56331C510.09 15.7864 504.033 33.0253 483.162 37.0114C474.91 38.4536 466.427 37.7578 458.521 34.9905C451.442 34.9908 444.364 34.9911 437.286 34.9914Z" fill="#48964E"/>
    <path d="M571.485 34.9957C596.982 49.3601 614.019 48.7852 625.05 45.3121C642.733 39.7448 651.283 24.7466 672.199 23.5087C680.314 23.1283 688.403 24.6898 695.793 28.0634H718.178C696.64 9.28632 680.985 6.98964 670.428 8.67782C649.18 12.0756 638.772 33.1835 609.666 35.9045C603.46 36.4718 597.205 36.1641 591.084 34.9904C584.551 34.9922 578.018 34.994 571.485 34.9957Z" fill="#48964E"/>
    <path d="M703.477 34.994C726.783 49.3467 740.366 48.8083 748.64 44.9801C759.428 39.9895 761.813 29.122 774.613 24.9106C784.975 21.5015 795.456 24.6605 802.943 28.0599C808.95 28.0605 814.957 28.0611 820.964 28.0617C789.526 7.85254 773.908 8.26014 765.463 13.4001C755.427 19.5093 753.178 33.732 739.786 37.3065C732.496 39.2524 725.544 37.0715 720.901 34.9957L703.477 34.994Z" fill="#48964E"/>
    <path d="M809.739 34.9931C815.789 39.6486 825.205 45.3045 836.74 45.2753C856.236 45.2261 864.499 28.9799 885.881 23.2874C895.544 20.7147 910.126 19.7014 930.432 28.0634C933.816 28.0668 937.197 28.2546 940.56 28.6259C943.741 28.9771 946.679 29.4677 949.349 30.0244C907.174 3.31472 886.881 4.66513 876.141 11.039C865.409 17.408 857.069 33.0336 838.068 35.5357C833.569 36.1109 829.005 35.9275 824.567 34.9931H809.739Z" fill="#48964E"/>
    <path d="M934.578 35.0669C941.184 39.498 948.55 42.6711 956.308 44.4268C966.959 46.7913 978.032 46.4488 988.515 43.4307C979.796 43.5594 971.095 42.5926 962.617 40.553C959.399 39.7762 956.383 38.8836 953.578 37.9281C947.375 36.2526 941 35.2927 934.578 35.0669V35.0669Z" fill="#48964E"/>
    <path d="M101.41 35.4048C107.838 38.3593 117.566 41.6527 128.908 40.4694C152.537 38.0046 160.464 18.485 181.344 14.101C191.498 11.9689 206.67 13.0066 227.939 28.0634C226.906 28.0455 225.873 28.0275 224.84 28.0096C205.872 15.3877 191.931 14.5196 182.672 16.0932C160.602 19.8442 152.632 39.5941 129.016 42.2109C116.358 43.6134 105.462 39.3998 98.4163 35.7754L101.41 35.4048Z" fill="#76B779"/>
    <path d="M95.3166 29.1536C85.4727 25.4876 74.7352 24.9592 64.5788 27.6407C59.6373 29.0252 51.9161 31.1809 46.4277 38.2288C39.199 47.5115 40.6058 58.6408 41.0045 61.2498C40.6717 58.7011 39.5176 47.6986 46.8534 38.7216C52.3326 32.0165 60.2123 29.9397 64.8739 28.7106C73.9135 26.4302 83.4148 26.7632 92.2725 29.6711C93.2873 29.4985 94.302 29.3261 95.3166 29.1536Z" fill="#76B779"/>
    <path d="M237.66 34.9823C252 39.4528 273.205 43.7283 297.002 38.7822C330.164 31.8895 340.922 12.7916 368.942 7.64491C385.526 4.59893 410.17 6.06971 443.834 28.0613L439.167 28.0649C408.29 9.14934 385.263 7.93983 369.975 10.3012C340.724 14.8193 329.915 33.9371 297.666 40.8482C271.862 46.3781 248.691 40.5865 233.399 34.9946C234.82 34.9906 236.24 34.9864 237.66 34.9823Z" fill="#76B779"/>
    <path d="M444.941 34.9912C452.929 40.0391 465.38 46.0804 479.841 44.6481C504.225 42.2332 513.083 20.6748 537.726 17.8641C546.079 16.9114 558.71 17.8318 575.226 28.0738L578.428 28.0634C560.424 15.2718 546.765 13.831 537.394 15.0972C514.299 18.2174 505.779 39.3249 480.948 41.9918C467.881 43.3952 456.562 39.0194 448.925 35.0007C447.597 34.9976 446.269 34.9944 444.941 34.9912Z" fill="#76B779"/>
    <path d="M578.18 34.9873C595.154 43.6952 608.029 44.0214 616.418 42.8772C642.702 39.292 652.867 17.4572 676.737 17.5321C689.165 17.5711 699.182 23.5302 705.283 28.0599C706.237 28.0611 707.192 28.0623 708.147 28.0634C694.849 16.8455 684.006 14.7085 676.848 14.6545C653.408 14.4776 643.263 36.4358 616.085 40.3317C601.595 42.4089 589.063 38.3766 581.209 34.9905L578.18 34.9873Z" fill="#76B779"/>
    <path d="M710.788 34.9947C718.061 40.2465 728.459 45.7932 739.491 43.7627C755.801 40.7608 759.939 23.6929 776.605 19.5981C783.78 17.8351 794.553 18.163 809.897 28.0606L812.55 28.0609C794.731 15.2624 782.829 14.6367 774.981 16.9418C759.326 21.5405 755.487 39.0733 739.159 41.8811C729.507 43.5409 720.566 39.1829 714.295 34.9957C713.126 34.9953 711.957 34.995 710.788 34.9947Z" fill="#76B779"/>
    <path d="M814.955 34.9931C819.827 38.1992 827.321 42.0445 836.555 42.2132C858.284 42.6099 867.535 22.245 889.127 16.9787C899.452 14.4606 914.822 14.852 936.534 28.2863C937.876 28.3995 939.218 28.5127 940.56 28.6259C915.515 11.7737 898.952 11.6916 888.574 14.5438C868.698 20.0065 859.238 39.606 836.888 39.6676C830.25 39.6106 823.717 38.0112 817.804 34.9957C816.854 34.9949 815.905 34.994 814.955 34.9931Z" fill="#76B779"/>
    <path d="M942.44 35.713C946.569 38.605 951.123 40.8354 955.939 42.3239C963.469 44.634 970.024 44.5734 970.051 44.3714C965.338 43.7267 960.69 42.6713 956.161 41.2171C952.256 39.881 948.499 38.1504 944.945 36.0521C944.11 35.9391 943.275 35.826 942.44 35.713Z" fill="#76B779"/>
    <path d="M988.516 31.625C991.866 32.7214 994.959 34.4872 997.606 36.8153C1000.25 39.1435 1002.4 41.9854 1003.92 45.1685C1005.43 48.3515 1006.28 51.8094 1006.42 55.3321C1006.56 58.8548 1005.98 62.3689 1004.72 65.6609L1003.26 63.7362C1005.12 57.5055 1004.64 50.8135 1001.93 44.9062C999.217 38.999 994.45 34.279 988.516 31.625V31.625Z" fill="#76B779"/>
    <path d="M1000.89 72.2494C1000.26 82.8465 1002.22 93.4377 1006.61 103.106C1014.89 120.768 1027.3 124.15 1031.79 138.06C1034.42 146.21 1034.63 158.89 1022.75 178.194L1022.75 180.961C1037.32 159.553 1037.47 145.875 1034.56 137.175C1030.09 123.821 1017.69 120.015 1008.88 100.872C1005.12 92.5862 1002.93 83.6725 1002.43 74.5864C1001.92 73.8075 1001.4 73.0284 1000.89 72.2494Z" fill="#76B779"/>
    <path d="M1015.82 184.986C1013.41 189.821 1010.25 197.931 1011.24 207.509C1013.17 226.011 1028.77 232.242 1032.34 249.345C1033.89 256.745 1033.67 268.5 1022.75 285.279V288.046C1036.28 269.414 1036.85 256.783 1034.85 248.681C1030.95 232.842 1015.36 226.727 1013.09 207.878C1012.36 201.084 1013.32 194.216 1015.89 187.882L1015.82 184.986Z" fill="#76B779"/>
    <path d="M1015.82 292.088C1009.52 300.359 1009.12 306.243 1009.77 309.963C1011.78 321.513 1026.15 324.672 1027.58 336.083C1028.33 342.038 1025.19 347.306 1022.75 350.54L1022.75 351.993C1029 345.097 1029.85 339.901 1029.47 336.415C1028.21 325.102 1012.73 321.778 1010.98 309.852C1010.1 303.818 1013.13 298.335 1015.81 294.662L1015.82 292.088Z" fill="#76B779"/>
    <path d="M1015.82 354.877C1009.05 365.795 1009 373.435 1010.13 378.341C1013.12 391.204 1026.44 394.586 1028.43 407.117C1029.67 414.86 1025.9 421.893 1022.75 426.431V429.612C1031.05 419.546 1031.86 412.226 1031.16 407.486C1029.35 395.193 1016.11 391.535 1012.94 377.603C1011.09 369.49 1013.6 362.01 1015.82 357.202L1015.82 354.877Z" fill="#76B779"/>
    <path d="M1015.82 431.54C1008.4 442.61 1008.31 450.201 1009.4 454.93C1012.39 467.941 1027.27 472.146 1027.7 484.296C1027.89 489.927 1024.89 494.552 1022.75 497.237L1022.75 499.561C1026.34 495.827 1030.01 490.629 1029.76 484.592C1029.27 472.672 1013.94 468.563 1011.09 454.856C1010.08 449.965 1010.53 443.248 1015.82 434.381V431.54Z" fill="#76B779"/>
    <path d="M1015.82 501.71C1012.2 505.779 1008.04 511.875 1008.73 518.754C1009.91 530.546 1024.14 533.781 1028.14 546.46C1029.93 552.144 1030.12 561.166 1021.39 575.016L1020.97 577.285C1032.6 561.775 1032.9 552.126 1030.91 546.128C1027.02 534.456 1012.63 531.24 1011.32 519.049C1010.67 513.035 1013.52 507.801 1015.82 504.514V501.71Z" fill="#76B779"/>
    <path d="M1013.28 579.796C1009.56 584.263 1006.96 589.556 1005.71 595.232C1003.78 604.436 1007.17 608.128 1004.05 616.335C1002.26 621.337 998.873 625.614 994.418 628.509C990.52 630.91 986.009 632.127 981.432 632.014C986.042 632.394 990.662 631.406 994.713 629.174C999.559 626.322 1003.26 621.875 1005.19 616.593C1008.15 608.792 1005.06 604.977 1007.15 595.343C1008.18 590.641 1010.06 586.164 1012.68 582.125L1013.28 579.796Z" fill="#76B779"/>
    <path d="M997.001 639.983C997.064 640.333 990.231 642.707 981.801 642.934C972.39 643.188 966.73 640.613 962.47 639.688C942.876 635.435 931.042 661.361 907.498 664.948C898.802 666.273 885.711 664.976 867.933 651.561L872.47 651.556C887.78 663.167 899.182 664.259 906.393 663.447C930.198 660.764 941.56 633.571 961.584 637.474C966.077 638.35 970.601 640.712 979.883 641.164C989.645 641.638 996.936 639.623 997.001 639.983Z" fill="#76B779"/>
    <path d="M859.281 644.664C846.215 639.293 824.975 632.842 800.917 637.437C768.848 643.563 757.616 664.379 727.649 667.652C715.114 669.021 695.5 667.736 669.584 651.59L674.313 651.588C685.418 658.133 703.568 666.516 724.992 664.553C755.92 661.72 767.454 639.729 798.925 633.453C812.761 630.694 834.433 630.178 864.262 644.667L859.281 644.664Z" fill="#76B779"/>
    <path d="M664.037 644.687C651.154 638.458 640.62 637.651 632.355 638.876C610.917 642.054 603.216 659.13 583.214 660.348C572.328 661.011 562.681 656.679 555.065 651.586L558.275 651.567C563.675 654.63 572.348 658.476 582.771 657.913C602.953 656.821 610.581 640.23 630.473 636.441C638.605 634.893 651.06 635.05 668.132 644.663L664.037 644.687Z" fill="#76B779"/>
    <path d="M549.273 644.651C527.307 632.848 512.883 633.741 503.748 636.773C488.389 641.872 482.538 654.827 465.564 656.917C455.012 658.215 445.881 654.611 440.071 651.584H443.613C450.165 654.716 457.453 655.987 464.678 655.256C482.171 653.136 488.125 638.533 502.641 633.066C511.819 629.609 527.077 628.802 552.323 644.651L549.273 644.651Z" fill="#76B779"/>
    <path d="M436.493 644.699C425.159 635.342 416.761 634.257 411.147 635.039C396.579 637.07 392.128 652.885 376.026 656.068C366.737 657.905 358.204 654.622 352.47 651.582L349.186 651.586C361.832 658.828 370.85 658.786 376.542 657.618C392.27 654.389 397.166 639.573 412.18 637.991C421.167 637.044 428.928 641.349 433.652 644.656L436.493 644.699Z" fill="#76B779"/>
    <path d="M343.431 644.659C338.235 642.101 329.583 638.814 319.691 640.37C302.42 643.088 297.038 658.105 281.064 660.569C274.988 661.506 265.331 660.943 252.012 651.579L255.498 651.583C261.237 655.047 270.054 659.071 280.068 657.747C296.509 655.573 301.906 640.871 318.473 638.046C324.612 637 333.915 637.306 346.475 644.657L343.431 644.659Z" fill="#76B779"/>
    <path d="M247.944 644.659C242.921 641.619 235.444 638.27 227.644 640.094C217.346 642.502 214.939 651.951 204.641 655.533C199.415 657.351 191.182 657.998 178.634 651.591L180.69 651.591C186.805 654.03 195.311 656.168 203.756 653.264C214.324 649.631 216.651 640.901 226.316 638.323C231.472 636.947 239.267 637.176 250.6 644.659H247.944Z" fill="#76B779"/>
    <path d="M175.127 644.655C166.239 639.155 160.08 639.112 156.054 640.149C146.567 642.594 143.858 652.346 133.808 653.984C129.396 654.556 124.916 653.717 121.011 651.586L118.41 651.588C125.345 655.862 130.57 656.207 134.25 655.533C144.054 653.738 146.739 644.014 156.829 641.754C162.921 640.389 168.708 642.419 172.988 644.655H175.127Z" fill="#76B779"/>
    <path d="M113.48 644.655C100.881 635.725 91.215 634.611 84.6115 635.335C72.9818 636.61 67.4532 643.96 59.0088 641.91C50.9137 639.944 46.2258 630.817 43.6255 623.984L45.2295 625.576C47.9039 631.28 52.4117 638.401 59.5984 640.094C68.0881 642.094 73.6296 634.944 84.0212 633.269C91.1383 632.121 101.672 633.358 116.069 644.659L113.48 644.655Z" fill="#76B779"/>
    <path d="M45.3947 615.708C45.0881 611.126 43.8752 604.984 39.3443 600.729C31.9806 593.815 21.6086 597.29 17.4301 591.064C15.7766 588.6 14.7741 584.141 18.4904 575.414C18.619 576.098 18.7476 576.782 18.8762 577.465C17.2405 581.599 15.9684 586.871 18.4262 590.621C22.453 596.765 32.7686 593.143 40.1559 599.475C43.5126 602.352 46.5171 607.5 46.7931 617.26C46.3269 616.743 45.8608 616.225 45.3947 615.708Z" fill="#76B779"/>
    <path d="M24.5268 568.625C30.162 559.396 29.8583 553.748 28.4981 550.279C25.3032 542.13 14.6377 541.809 12.2285 534.009C10.5307 528.513 13.9363 522.549 17.0605 518.385L17.0599 520.986C15.0043 524.117 12.5216 529.002 13.8887 533.788C16.1854 541.828 27.2139 542.118 30.4903 549.892C32.0261 553.536 32.2451 559.742 24.7703 570.615L24.5268 568.625Z" fill="#76B779"/>
    <path d="M23.9953 513.617C27.8755 508.27 32.3656 500.169 30.8774 491.398C28.516 477.48 13.1496 473.942 9.84868 459.745C8.55174 454.166 8.79197 445.544 17.0539 433.163L17.0567 436.816C13.8065 442.419 10.3749 450.579 12.2283 459.246C15.3588 473.887 30.8827 477.417 33.3124 490.9C34.2914 496.333 33.3423 504.481 23.9962 515.83L23.9953 513.617Z" fill="#76B779"/>
    <path d="M23.988 426.901C27.3632 419.487 31.1935 407.891 28.0553 395.533C22.9748 375.526 3.68733 369.495 3.33731 353.254C3.21836 347.736 5.24812 339.291 17.0605 328.665V331.654C12.0455 336.702 6.43261 344.146 6.53759 353.096C6.7293 369.433 25.7937 375.553 30.7854 394.5C32.8484 402.331 32.9075 413.871 24.0156 430.083C24.0064 429.022 23.9972 427.962 23.988 426.901Z" fill="#76B779"/>
    <path d="M23.9905 324.704C33.2303 315.786 34.4586 308.487 34.4746 304.519C34.4839 302.232 34.1044 297.556 21.7467 278.953C12.5361 265.087 9.34731 262.567 8.90803 256.485C8.33732 248.583 12.9183 241.727 17.0604 237.043V240.621C14.4346 244.232 11.4841 249.593 11.7857 255.932C12.1126 262.803 16.0477 266.351 23.4068 276.85C32.9915 290.523 37.7838 297.36 37.7949 304.519C37.8022 309.238 35.9793 317.228 23.9907 327.001L23.9905 324.704Z" fill="#76B779"/>
    <path d="M23.983 231.693C32.8396 219.498 34.1486 209.883 33.7368 203.397C32.2586 180.113 6.81403 168.925 9.46152 148.722C10.3857 142.973 13.0399 137.642 17.0706 133.439C17.0637 134.7 17.0569 135.96 17.0501 137.22C14.3672 140.553 12.5691 144.509 11.8226 148.722C8.587 168.77 34.9489 180.476 36.9096 202.806C37.5484 210.082 35.8002 220.798 23.9847 234.682L23.983 231.693Z" fill="#76B779"/>
    <path d="M23.9916 129.261C32.5178 118.862 37.3702 105.938 37.7949 92.4977C38.0244 81.6521 35.3223 70.9457 29.9737 61.5079C36.3822 70.5913 39.9282 81.3835 40.1561 92.4977C40.4759 114.728 26.8922 129.321 23.9897 132.305L23.9916 129.261Z" fill="#76B779"/>
    <path d="M688.24 278.11C686.184 275.004 683.147 271.244 678.74 267.885C661.02 254.379 638.038 260.21 633.473 261.537C627.212 263.357 622.278 265.927 619.004 267.885C620.957 268.038 624.037 268.518 627.444 270.133C630.726 271.69 632.993 273.675 634.344 275.055C639.743 273.069 648.898 270.475 660.417 270.925C673.202 271.425 682.923 275.439 688.24 278.11H688.24Z" fill="#594C9F"/>
    <path d="M677.912 339.601C674.223 342.103 669.165 344.914 662.774 346.87C648.64 351.197 636.345 348.781 630.404 347.163C631.354 347.006 632.759 346.689 634.349 345.991C636.143 345.205 637.548 344.603 638.368 343.135C638.983 342.035 639.016 340.909 638.972 340.224C643.459 341.487 649.569 342.712 656.862 342.769C665.707 342.839 672.961 341.166 677.912 339.601Z" fill="#594C9F"/>
    <path d="M566.065 343.156C567.12 342.196 571.205 338.098 573.299 334.531C577.548 327.294 573.563 322.312 577.026 315.414C578.35 312.775 581.071 309.319 587.196 306.513C581.07 303.707 578.349 300.251 577.025 297.612C573.561 290.714 577.547 285.732 573.298 278.495C571.204 274.928 567.119 270.83 566.064 269.87C565.209 269.093 564.365 268.497 564.365 268.497C562.765 267.368 561.817 267.119 561.844 267.014C561.972 266.514 585.041 266.074 596.864 280.216C601.385 285.624 603.013 291.671 603.684 295.631C606.416 292.277 624.073 271.334 654.517 269.815C670.688 269.009 683.722 274.716 688.077 276.774C698.621 281.757 705.224 288.043 707.129 289.922C713.273 295.981 717.104 302.121 719.406 306.514C717.095 310.891 713.257 317.051 707.13 323.105C685.669 344.31 657.241 343.347 654.518 343.211C624.074 341.692 606.417 320.749 603.685 317.395C603.014 321.355 601.386 327.402 596.865 332.81C585.042 346.952 561.973 346.512 561.845 346.012C561.818 345.908 562.766 345.659 564.366 344.529C564.366 344.529 565.21 343.933 566.065 343.156Z" fill="#756EBA"/>
    <path d="M566.065 343.156C567.12 342.196 571.205 338.099 573.299 334.531C577.548 327.294 573.563 322.312 577.026 315.414C578.35 312.775 581.071 309.319 587.196 306.513C581.07 303.708 578.349 300.251 577.025 297.612C573.561 290.714 577.547 285.732 573.298 278.495C571.204 274.928 567.119 270.83 566.064 269.87C565.209 269.093 564.365 268.497 564.365 268.497C563.769 268.077 563.264 267.778 562.866 267.564C562.086 267.144 561.834 267.1 561.844 267.014C561.888 266.648 566.534 266.695 571.417 267.45C572.267 267.582 573.696 267.823 575.449 268.228C578.918 269.029 581.4 269.948 582.186 270.247C583.749 270.841 584.878 271.364 585.209 271.519C585.597 271.701 586.881 272.309 588.514 273.246C588.8 273.41 589.092 273.578 589.46 273.804C589.832 274.033 591.105 274.827 592.595 276.035C594.941 277.935 596.516 279.8 596.864 280.216C598.336 281.981 599.286 283.534 599.758 284.352C600.038 284.837 600.952 286.452 601.849 288.805C602.474 290.446 603.523 293.207 603.684 295.631C604.015 300.65 600.571 304.812 598.96 306.522C600.495 308.284 603.365 312.116 603.685 317.395C604.141 324.935 598.973 330.289 596.865 332.81C585.042 346.952 561.973 346.512 561.845 346.012C561.818 345.908 562.766 345.659 564.366 344.529C564.366 344.529 565.21 343.933 566.065 343.156H566.065Z" fill="#8A89C6"/>
    <path d="M688.076 276.774C692.953 279.011 700.113 283.002 707.127 289.921C711.978 294.706 715.379 299.532 717.748 303.553C717.775 303.53 717.793 303.505 717.822 303.482C718.57 302.906 719.419 302.953 719.768 302.972C720.278 303 720.924 303.036 721.221 303.498C721.531 303.982 721.267 304.631 721.171 304.868C720.778 305.836 719.863 306.273 719.371 306.452C719.381 306.472 719.394 306.494 719.404 306.514C719.392 306.537 719.377 306.563 719.365 306.586C719.549 306.614 719.757 306.654 720.002 306.728C720.514 306.883 720.791 306.967 720.993 307.237C721.183 307.492 721.285 307.885 721.161 308.233C720.991 308.707 720.481 308.875 720.134 308.989C719.685 309.137 719.317 309.112 718.834 309.075C718.493 309.049 718.237 309.028 718.023 308.99C715.656 313.066 712.179 318.113 707.128 323.104C704.831 325.374 702.769 327.051 701.849 327.783C697.313 331.394 693.057 333.818 689.845 335.407C687.067 331.349 679.857 319.668 680.275 303.326C680.603 290.507 685.464 281.105 688.076 276.774L688.076 276.774Z" fill="#8A89C6"/>
    <path d="M650.823 287.47C647.456 286.884 644.329 289.216 643.895 292.333C643.506 295.13 645.368 297.963 648.311 298.75C645.909 297.628 644.498 295.138 644.795 292.661C645.139 289.794 647.709 287.493 650.823 287.47H650.823Z" fill="#594C9F"/>
    <path d="M648.152 300.56C644.746 300.291 641.85 302.907 641.708 306.05C641.581 308.871 643.699 311.518 646.702 312.025C644.207 311.133 642.569 308.786 642.634 306.292C642.71 303.406 645.054 300.875 648.152 300.56Z" fill="#594C9F"/>
    <path d="M656.44 275.684C653.313 274.304 649.718 275.816 648.55 278.737C647.502 281.358 648.63 284.557 651.298 286.029C649.236 284.361 648.462 281.604 649.345 279.272C650.366 276.571 653.412 274.957 656.44 275.684H656.44Z" fill="#594C9F"/>
    <path d="M651.017 325.924C647.909 327.349 646.646 331.045 648.046 333.862C649.303 336.389 652.437 337.671 655.308 336.651C652.695 337.087 650.125 335.833 648.973 333.622C647.64 331.062 648.462 327.708 651.017 325.924Z" fill="#594C9F"/>
    <path d="M646.913 313.761C643.7 314.925 642.138 318.505 643.303 321.427C644.349 324.05 647.367 325.585 650.312 324.805C647.672 325.024 645.214 323.563 644.247 321.265C643.127 318.604 644.221 315.329 646.913 313.761V313.761Z" fill="#594C9F"/>
    <path d="M661.579 289.058C658.686 288.555 655.999 290.559 655.626 293.237C655.291 295.641 656.891 298.076 659.42 298.751C657.357 297.787 656.143 295.647 656.399 293.519C656.695 291.055 658.903 289.079 661.579 289.058H661.579Z" fill="#594C9F"/>
    <path d="M659.284 300.307C656.357 300.076 653.868 302.323 653.746 305.025C653.637 307.449 655.457 309.724 658.038 310.16C655.894 309.393 654.486 307.376 654.542 305.233C654.607 302.752 656.622 300.577 659.284 300.307H659.284Z" fill="#594C9F"/>
    <path d="M666.406 278.93C663.719 277.745 660.63 279.043 659.626 281.553C658.725 283.806 659.694 286.555 661.987 287.82C660.215 286.387 659.551 284.017 660.309 282.013C661.187 279.693 663.804 278.306 666.406 278.93Z" fill="#594C9F"/>
    <path d="M661.745 322.103C659.075 323.327 657.99 326.504 659.193 328.924C660.273 331.096 662.966 332.197 665.433 331.321C663.188 331.696 660.98 330.618 659.99 328.718C658.844 326.519 659.55 323.637 661.745 322.103Z" fill="#594C9F"/>
    <path d="M658.219 311.651C655.458 312.651 654.116 315.728 655.117 318.239C656.016 320.492 658.61 321.812 661.14 321.141C658.871 321.33 656.759 320.074 655.928 318.099C654.966 315.813 655.906 312.998 658.219 311.651Z" fill="#594C9F"/>
    <path d="M671.944 291.404C669.448 290.969 667.129 292.699 666.807 295.01C666.519 297.083 667.899 299.185 670.081 299.768C668.301 298.936 667.254 297.089 667.474 295.253C667.73 293.127 669.635 291.421 671.944 291.404Z" fill="#594C9F"/>
    <path d="M669.964 301.11C667.438 300.911 665.29 302.85 665.185 305.181C665.091 307.273 666.661 309.235 668.888 309.611C667.038 308.95 665.824 307.209 665.872 305.361C665.928 303.22 667.666 301.343 669.964 301.11L669.964 301.11Z" fill="#594C9F"/>
    <path d="M676.109 282.665C673.79 281.642 671.125 282.762 670.258 284.928C669.481 286.871 670.318 289.243 672.296 290.335C670.767 289.099 670.194 287.054 670.848 285.325C671.605 283.322 673.864 282.126 676.109 282.665Z" fill="#594C9F"/>
    <path d="M672.088 319.917C669.784 320.974 668.847 323.714 669.885 325.803C670.817 327.677 673.141 328.627 675.27 327.871C673.332 328.194 671.427 327.265 670.573 325.625C669.584 323.727 670.193 321.24 672.088 319.917Z" fill="#594C9F"/>
    <path d="M669.045 310.898C666.662 311.762 665.504 314.416 666.368 316.583C667.143 318.527 669.382 319.666 671.565 319.087C669.607 319.25 667.785 318.167 667.068 316.463C666.238 314.489 667.049 312.061 669.045 310.898H669.045Z" fill="#594C9F"/>
    <path d="M637.938 290.134C635.081 289.636 632.427 291.616 632.059 294.261C631.728 296.634 633.309 299.039 635.806 299.706C633.768 298.754 632.57 296.641 632.822 294.539C633.115 292.106 635.295 290.154 637.938 290.134Z" fill="#594C9F"/>
    <path d="M635.671 301.242C632.781 301.014 630.323 303.234 630.203 305.902C630.095 308.296 631.892 310.542 634.441 310.972C632.323 310.215 630.933 308.223 630.989 306.107C631.053 303.657 633.042 301.51 635.671 301.242H635.671Z" fill="#594C9F"/>
    <path d="M642.705 280.132C640.051 278.961 637 280.243 636.009 282.722C635.119 284.946 636.077 287.661 638.341 288.91C636.591 287.496 635.935 285.155 636.683 283.176C637.55 280.885 640.135 279.515 642.705 280.132L642.705 280.132Z" fill="#594C9F"/>
    <path d="M638.102 322.767C635.465 323.977 634.393 327.114 635.582 329.504C636.648 331.649 639.308 332.736 641.744 331.871C639.527 332.241 637.346 331.177 636.369 329.3C635.237 327.128 635.934 324.282 638.102 322.767V322.767Z" fill="#594C9F"/>
    <path d="M634.62 312.445C631.893 313.433 630.568 316.471 631.556 318.951C632.444 321.177 635.005 322.479 637.504 321.817C635.264 322.004 633.178 320.764 632.357 318.814C631.407 316.555 632.335 313.776 634.62 312.445L634.62 312.445Z" fill="#594C9F"/>
    <path d="M625.741 293.143C623.381 292.732 621.19 294.367 620.886 296.551C620.613 298.511 621.918 300.497 623.98 301.048C622.297 300.262 621.308 298.516 621.516 296.781C621.757 294.771 623.558 293.159 625.741 293.143Z" fill="#594C9F"/>
    <path d="M623.869 302.317C621.482 302.128 619.452 303.961 619.353 306.165C619.263 308.142 620.748 309.997 622.853 310.352C621.104 309.727 619.956 308.082 620.002 306.334C620.055 304.311 621.698 302.537 623.869 302.317V302.317Z" fill="#594C9F"/>
    <path d="M629.677 284.883C627.486 283.916 624.966 284.975 624.148 287.022C623.413 288.859 624.204 291.101 626.074 292.133C624.628 290.964 624.086 289.031 624.705 287.397C625.42 285.504 627.555 284.373 629.677 284.883H629.677Z" fill="#594C9F"/>
    <path d="M625.876 320.093C623.699 321.091 622.813 323.682 623.795 325.656C624.675 327.427 626.872 328.325 628.884 327.611C627.052 327.916 625.252 327.038 624.444 325.488C623.51 323.694 624.086 321.343 625.876 320.093V320.093Z" fill="#594C9F"/>
    <path d="M623.001 311.568C620.748 312.384 619.654 314.894 620.471 316.942C621.203 318.779 623.319 319.855 625.383 319.308C623.532 319.462 621.809 318.438 621.132 316.828C620.347 314.963 621.114 312.668 623.001 311.568H623.001Z" fill="#594C9F"/>
    <path d="M698.433 301.385C695.931 301.385 693.903 299.351 693.903 296.843C693.903 294.335 695.931 292.302 698.433 292.302C700.936 292.302 702.964 294.335 702.964 296.843C702.964 299.351 700.936 301.385 698.433 301.385Z" fill="white"/>
    <path d="M698.927 299.517C697.827 299.517 696.936 298.623 696.936 297.521C696.936 296.418 697.827 295.525 698.927 295.525C700.026 295.525 700.918 296.418 700.918 297.521C700.918 298.623 700.026 299.517 698.927 299.517Z" fill="black"/>
    <path d="M698.248 297.294C697.609 297.294 697.092 296.776 697.092 296.138C697.092 295.499 697.609 294.982 698.248 294.982C698.886 294.982 699.404 295.499 699.404 296.138C699.404 296.776 698.886 297.294 698.248 297.294Z" fill="white"/>
    <path d="M395.78 423.762C393.725 420.656 390.687 416.896 386.281 413.537C368.56 400.031 345.578 405.863 341.013 407.189C334.752 409.009 329.818 411.579 326.544 413.537C328.497 413.69 331.577 414.17 334.984 415.785C338.266 417.342 340.533 419.327 341.884 420.707C347.283 418.721 356.438 416.127 367.957 416.577C380.742 417.077 390.463 421.091 395.78 423.762H395.78Z" fill="#594C9F"/>
    <path d="M385.452 485.253C381.764 487.755 376.705 490.566 370.314 492.522C356.18 496.849 343.885 494.433 337.944 492.815C338.894 492.658 340.299 492.341 341.89 491.643C343.683 490.857 345.088 490.255 345.908 488.787C346.523 487.687 346.557 486.562 346.512 485.876C350.999 487.139 357.109 488.364 364.402 488.421C373.247 488.491 380.501 486.818 385.452 485.253Z" fill="#594C9F"/>
    <path d="M273.605 488.808C274.66 487.848 278.745 483.751 280.839 480.183C285.088 472.946 281.103 467.964 284.566 461.066C285.891 458.427 288.611 454.971 294.736 452.165C288.61 449.36 285.889 445.903 284.565 443.264C281.101 436.366 285.087 431.384 280.838 424.147C278.744 420.58 274.659 416.482 273.604 415.522C272.749 414.745 271.905 414.149 271.905 414.149C270.305 413.02 269.357 412.771 269.384 412.666C269.512 412.166 292.581 411.727 304.404 425.869C308.925 431.276 310.553 437.323 311.224 441.283C313.956 437.929 331.613 416.986 362.057 415.468C378.228 414.661 391.262 420.368 395.617 422.427C406.161 427.409 412.764 433.695 414.669 435.574C420.813 441.634 424.644 447.773 426.946 452.167C424.635 456.543 420.797 462.703 414.67 468.757C393.209 489.962 364.781 488.999 362.058 488.863C331.614 487.344 313.957 466.402 311.225 463.047C310.554 467.007 308.926 473.054 304.405 478.462C292.582 492.604 269.513 492.164 269.385 491.665C269.358 491.56 270.306 491.311 271.906 490.181C271.906 490.181 272.75 489.585 273.605 488.808Z" fill="#756EBA"/>
    <path d="M273.605 488.808C274.66 487.848 278.745 483.751 280.839 480.183C285.088 472.946 281.103 467.964 284.566 461.066C285.891 458.427 288.611 454.971 294.736 452.166C288.61 449.36 285.889 445.903 284.565 443.264C281.101 436.366 285.087 431.384 280.838 424.147C278.744 420.58 274.659 416.482 273.604 415.523C272.749 414.745 271.905 414.149 271.905 414.149C271.309 413.729 270.804 413.43 270.406 413.216C269.626 412.796 269.374 412.752 269.384 412.666C269.428 412.3 274.074 412.347 278.957 413.102C279.807 413.234 281.236 413.475 282.989 413.88C286.458 414.681 288.94 415.6 289.727 415.899C291.289 416.493 292.418 417.016 292.749 417.171C293.137 417.353 294.421 417.961 296.054 418.898C296.34 419.063 296.632 419.23 297 419.456C297.372 419.685 298.645 420.479 300.135 421.687C302.481 423.587 304.056 425.452 304.404 425.869C305.876 427.633 306.826 429.187 307.298 430.004C307.578 430.489 308.492 432.104 309.389 434.457C310.014 436.098 311.063 438.859 311.224 441.283C311.555 446.303 308.111 450.465 306.5 452.174C308.036 453.936 310.905 457.768 311.225 463.047C311.682 470.587 306.513 475.941 304.405 478.462C292.582 492.604 269.513 492.164 269.385 491.665C269.358 491.56 270.306 491.311 271.906 490.181C271.906 490.181 272.75 489.585 273.605 488.808H273.605Z" fill="#8A89C6"/>
    <path d="M395.616 422.426C400.493 424.663 407.653 428.655 414.667 435.573C419.518 440.358 422.919 445.184 425.288 449.205C425.315 449.182 425.333 449.157 425.362 449.134C426.11 448.558 426.959 448.605 427.308 448.624C427.818 448.652 428.464 448.688 428.761 449.151C429.071 449.634 428.807 450.283 428.711 450.52C428.318 451.488 427.403 451.925 426.911 452.104C426.921 452.124 426.934 452.146 426.944 452.166C426.932 452.189 426.917 452.215 426.905 452.238C427.089 452.266 427.297 452.306 427.542 452.38C428.054 452.535 428.331 452.619 428.533 452.889C428.723 453.144 428.825 453.537 428.701 453.885C428.531 454.359 428.021 454.527 427.674 454.641C427.225 454.789 426.857 454.765 426.374 454.728C426.033 454.701 425.777 454.68 425.563 454.642C423.196 458.718 419.72 463.765 414.668 468.756C412.371 471.026 410.309 472.703 409.389 473.435C404.853 477.046 400.597 479.47 397.385 481.059C394.607 477.002 387.397 465.32 387.815 448.978C388.143 436.159 393.004 426.757 395.616 422.426L395.616 422.426Z" fill="#8A89C6"/>
    <path d="M358.363 433.122C354.996 432.536 351.869 434.869 351.435 437.985C351.046 440.782 352.908 443.615 355.851 444.402C353.45 443.28 352.038 440.79 352.335 438.313C352.679 435.446 355.249 433.146 358.363 433.122H358.363Z" fill="#594C9F"/>
    <path d="M355.692 446.212C352.286 445.943 349.39 448.559 349.248 451.702C349.121 454.523 351.239 457.17 354.242 457.677C351.747 456.785 350.109 454.438 350.174 451.945C350.25 449.058 352.594 446.527 355.692 446.212Z" fill="#594C9F"/>
    <path d="M363.98 421.336C360.853 419.957 357.258 421.468 356.09 424.389C355.042 427.01 356.17 430.209 358.838 431.681C356.776 430.013 356.002 427.256 356.885 424.924C357.906 422.223 360.952 420.609 363.98 421.336H363.98Z" fill="#594C9F"/>
    <path d="M358.557 471.576C355.449 473.001 354.186 476.697 355.586 479.514C356.843 482.041 359.977 483.323 362.848 482.303C360.235 482.739 357.665 481.485 356.514 479.274C355.18 476.714 356.002 473.36 358.557 471.576Z" fill="#594C9F"/>
    <path d="M354.453 459.413C351.24 460.577 349.678 464.157 350.843 467.079C351.889 469.702 354.907 471.237 357.852 470.457C355.212 470.676 352.754 469.215 351.787 466.917C350.667 464.256 351.761 460.981 354.453 459.413V459.413Z" fill="#594C9F"/>
    <path d="M369.119 434.71C366.226 434.207 363.539 436.211 363.166 438.89C362.831 441.293 364.431 443.728 366.96 444.404C364.897 443.44 363.684 441.299 363.939 439.171C364.235 436.707 366.443 434.731 369.119 434.71H369.119Z" fill="#594C9F"/>
    <path d="M366.824 445.959C363.897 445.728 361.408 447.976 361.286 450.677C361.177 453.101 362.997 455.376 365.578 455.812C363.434 455.045 362.026 453.028 362.082 450.885C362.147 448.405 364.162 446.23 366.824 445.959H366.824Z" fill="#594C9F"/>
    <path d="M373.946 424.582C371.259 423.397 368.17 424.695 367.166 427.205C366.265 429.458 367.235 432.207 369.528 433.472C367.755 432.039 367.091 429.669 367.849 427.665C368.727 425.345 371.344 423.958 373.946 424.582Z" fill="#594C9F"/>
    <path d="M369.285 467.755C366.615 468.98 365.53 472.156 366.733 474.576C367.813 476.748 370.506 477.849 372.973 476.973C370.728 477.348 368.52 476.271 367.53 474.371C366.384 472.171 367.09 469.289 369.285 467.755Z" fill="#594C9F"/>
    <path d="M365.759 457.303C362.998 458.304 361.656 461.38 362.657 463.891C363.556 466.144 366.15 467.464 368.68 466.793C366.411 466.982 364.299 465.727 363.468 463.752C362.506 461.465 363.446 458.651 365.759 457.303Z" fill="#594C9F"/>
    <path d="M379.484 437.056C376.988 436.621 374.669 438.351 374.347 440.662C374.059 442.736 375.439 444.837 377.621 445.42C375.841 444.588 374.794 442.741 375.014 440.905C375.27 438.779 377.175 437.073 379.484 437.056Z" fill="#594C9F"/>
    <path d="M377.504 446.762C374.978 446.563 372.83 448.502 372.725 450.833C372.631 452.925 374.201 454.887 376.429 455.264C374.578 454.602 373.364 452.862 373.412 451.013C373.468 448.872 375.206 446.995 377.504 446.762L377.504 446.762Z" fill="#594C9F"/>
    <path d="M383.649 428.317C381.33 427.294 378.665 428.414 377.799 430.58C377.021 432.524 377.858 434.896 379.836 435.987C378.307 434.751 377.734 432.706 378.388 430.977C379.145 428.975 381.404 427.778 383.649 428.317Z" fill="#594C9F"/>
    <path d="M379.628 465.569C377.324 466.626 376.387 469.367 377.425 471.455C378.357 473.329 380.681 474.279 382.81 473.523C380.872 473.846 378.967 472.917 378.113 471.277C377.124 469.379 377.733 466.892 379.628 465.569Z" fill="#594C9F"/>
    <path d="M376.585 456.55C374.202 457.414 373.044 460.068 373.908 462.235C374.683 464.179 376.922 465.318 379.105 464.739C377.147 464.902 375.325 463.819 374.608 462.115C373.778 460.142 374.589 457.713 376.585 456.55H376.585Z" fill="#594C9F"/>
    <path d="M345.478 435.786C342.621 435.288 339.967 437.268 339.599 439.913C339.268 442.286 340.849 444.691 343.346 445.358C341.308 444.406 340.11 442.293 340.362 440.191C340.655 437.758 342.835 435.806 345.478 435.786Z" fill="#594C9F"/>
    <path d="M343.211 446.894C340.321 446.667 337.863 448.886 337.743 451.554C337.635 453.948 339.432 456.194 341.981 456.625C339.863 455.868 338.473 453.876 338.529 451.759C338.593 449.31 340.582 447.162 343.211 446.894H343.211Z" fill="#594C9F"/>
    <path d="M350.245 425.784C347.591 424.613 344.54 425.895 343.549 428.374C342.659 430.599 343.617 433.313 345.881 434.563C344.131 433.148 343.475 430.808 344.223 428.828C345.09 426.537 347.675 425.167 350.245 425.784L350.245 425.784Z" fill="#594C9F"/>
    <path d="M345.642 468.419C343.005 469.629 341.933 472.766 343.122 475.156C344.188 477.301 346.848 478.388 349.284 477.523C347.067 477.893 344.886 476.829 343.909 474.953C342.777 472.78 343.474 469.934 345.642 468.419V468.419Z" fill="#594C9F"/>
    <path d="M342.16 458.097C339.433 459.085 338.108 462.124 339.096 464.603C339.984 466.829 342.545 468.131 345.044 467.47C342.804 467.656 340.718 466.416 339.897 464.466C338.947 462.207 339.875 459.428 342.16 458.097L342.16 458.097Z" fill="#594C9F"/>
    <path d="M333.281 438.795C330.921 438.384 328.73 440.019 328.426 442.203C328.153 444.163 329.458 446.149 331.52 446.7C329.837 445.914 328.848 444.169 329.056 442.433C329.297 440.424 331.098 438.811 333.281 438.795Z" fill="#594C9F"/>
    <path d="M331.409 447.969C329.022 447.781 326.992 449.613 326.893 451.817C326.804 453.794 328.288 455.649 330.393 456.004C328.644 455.379 327.496 453.734 327.542 451.986C327.595 449.963 329.238 448.189 331.409 447.969V447.969Z" fill="#594C9F"/>
    <path d="M337.218 430.535C335.026 429.568 332.506 430.627 331.688 432.674C330.953 434.511 331.744 436.753 333.614 437.785C332.168 436.616 331.626 434.684 332.245 433.049C332.96 431.157 335.095 430.025 337.218 430.535H337.218Z" fill="#594C9F"/>
    <path d="M333.416 465.745C331.239 466.743 330.353 469.334 331.335 471.308C332.215 473.079 334.412 473.977 336.424 473.263C334.592 473.568 332.792 472.69 331.985 471.14C331.05 469.346 331.626 466.996 333.416 465.745V465.745Z" fill="#594C9F"/>
    <path d="M330.541 457.22C328.288 458.037 327.194 460.546 328.011 462.594C328.743 464.431 330.859 465.507 332.923 464.961C331.072 465.114 329.349 464.091 328.672 462.48C327.887 460.615 328.654 458.32 330.541 457.22H330.541Z" fill="#594C9F"/>
    <path d="M405.973 447.037C403.471 447.037 401.443 445.003 401.443 442.495C401.443 439.987 403.471 437.954 405.973 437.954C408.475 437.954 410.504 439.987 410.504 442.495C410.504 445.003 408.475 447.037 405.973 447.037Z" fill="white"/>
    <path d="M406.467 445.169C405.367 445.169 404.475 444.275 404.475 443.173C404.475 442.07 405.367 441.177 406.467 441.177C407.566 441.177 408.458 442.07 408.458 443.173C408.458 444.275 407.566 445.169 406.467 445.169Z" fill="black"/>
    <path d="M405.788 442.946C405.149 442.946 404.632 442.428 404.632 441.79C404.632 441.152 405.149 440.634 405.788 440.634C406.426 440.634 406.944 441.152 406.944 441.79C406.944 442.428 406.426 442.946 405.788 442.946Z" fill="white"/>
    <path d="M463.982 102.403C461.927 99.297 458.889 95.5364 454.483 92.1779C436.762 78.6714 413.78 84.5032 409.215 85.8301C402.954 87.6498 398.02 90.2194 394.747 92.1779C396.699 92.3304 399.78 92.8105 403.186 94.426C406.469 95.9825 408.735 97.9678 410.086 99.3478C415.486 97.3613 424.64 94.7681 436.159 95.2181C448.944 95.7176 458.665 99.7322 463.982 102.403H463.982Z" fill="#594C9F"/>
    <path d="M453.654 163.894C449.966 166.395 444.907 169.207 438.517 171.163C424.382 175.49 412.087 173.074 406.146 171.456C407.096 171.298 408.502 170.982 410.092 170.284C411.885 169.498 413.29 168.896 414.111 167.428C414.725 166.328 414.759 165.202 414.714 164.516C419.201 165.779 425.312 167.004 432.604 167.062C441.449 167.132 448.703 165.458 453.654 163.894Z" fill="#594C9F"/>
    <path d="M341.807 167.449C342.862 166.489 346.947 162.391 349.041 158.824C353.29 151.587 349.305 146.605 352.768 139.707C354.093 137.068 356.813 133.612 362.938 130.806C356.812 128 354.092 124.544 352.767 121.905C349.304 115.007 353.289 110.025 349.04 102.788C346.946 99.2206 342.861 95.1228 341.806 94.1632C340.952 93.3859 340.107 92.79 340.107 92.7899C338.507 91.6604 337.559 91.4115 337.586 91.3066C337.714 90.8068 360.783 90.3672 372.606 104.509C377.127 109.917 378.755 115.964 379.426 119.924C382.158 116.57 399.815 95.6267 430.259 94.1082C446.431 93.3016 459.464 99.0091 463.819 101.067C474.363 106.05 480.967 112.336 482.871 114.214C489.015 120.274 492.846 126.414 495.148 130.807C492.837 135.183 488.999 141.344 482.872 147.398C461.411 168.603 432.983 167.639 430.26 167.504C399.816 165.985 382.159 145.042 379.427 141.688C378.756 145.648 377.128 151.695 372.607 157.103C360.784 171.245 337.715 170.805 337.587 170.305C337.56 170.2 338.508 169.951 340.108 168.822C340.108 168.822 340.953 168.226 341.807 167.449Z" fill="#756EBA"/>
    <path d="M341.807 167.449C342.862 166.489 346.947 162.391 349.041 158.824C353.29 151.587 349.305 146.605 352.768 139.707C354.093 137.068 356.813 133.612 362.938 130.806C356.812 128 354.092 124.544 352.767 121.905C349.304 115.007 353.289 110.025 349.04 102.788C346.946 99.2206 342.861 95.1228 341.806 94.1631C340.952 93.3859 340.107 92.79 340.107 92.7899C339.512 92.3694 339.006 92.071 338.608 91.8566C337.828 91.4367 337.576 91.3927 337.586 91.3066C337.63 90.9411 342.276 90.9877 347.159 91.7429C348.009 91.8744 349.438 92.1158 351.191 92.5207C354.66 93.3216 357.142 94.2411 357.929 94.54C359.491 95.1337 360.62 95.6568 360.951 95.8119C361.339 95.9934 362.623 96.6018 364.256 97.5388C364.542 97.7032 364.834 97.8705 365.202 98.0965C365.574 98.3254 366.848 99.1199 368.338 100.327C370.683 102.228 372.258 104.093 372.606 104.509C374.078 106.274 375.028 107.827 375.5 108.645C375.78 109.13 376.694 110.744 377.591 113.098C378.216 114.739 379.266 117.499 379.426 119.924C379.758 124.943 376.314 129.105 374.703 130.815C376.238 132.576 379.107 136.408 379.427 141.688C379.884 149.227 374.715 154.581 372.607 157.103C360.784 171.245 337.715 170.805 337.587 170.305C337.56 170.2 338.508 169.951 340.108 168.822C340.108 168.822 340.953 168.226 341.807 167.449H341.807Z" fill="#8A89C6"/>
    <path d="M463.818 101.067C468.695 103.303 475.855 107.295 482.869 114.214C487.72 118.999 491.121 123.825 493.49 127.845C493.517 127.823 493.536 127.797 493.564 127.775C494.313 127.198 495.161 127.245 495.51 127.265C496.02 127.293 496.666 127.328 496.963 127.791C497.273 128.275 497.01 128.924 496.913 129.161C496.52 130.129 495.606 130.565 495.113 130.745C495.123 130.765 495.136 130.787 495.146 130.807C495.134 130.83 495.119 130.856 495.107 130.879C495.291 130.907 495.499 130.947 495.745 131.021C496.256 131.176 496.533 131.26 496.735 131.53C496.925 131.785 497.027 132.177 496.903 132.526C496.733 133 496.223 133.168 495.876 133.282C495.428 133.43 495.059 133.405 494.577 133.368C494.235 133.342 493.979 133.321 493.765 133.283C491.398 137.359 487.922 142.406 482.87 147.397C480.573 149.667 478.511 151.343 477.591 152.076C473.055 155.687 468.799 158.111 465.587 159.7C462.809 155.642 455.599 143.961 456.017 127.618C456.345 114.8 461.206 105.397 463.818 101.067L463.818 101.067Z" fill="#8A89C6"/>
    <path d="M426.565 111.763C423.199 111.177 420.071 113.509 419.637 116.626C419.248 119.423 421.11 122.256 424.053 123.043C421.652 121.921 420.24 119.43 420.537 116.954C420.882 114.087 423.451 111.786 426.565 111.763H426.565Z" fill="#594C9F"/>
    <path d="M423.894 124.852C420.488 124.584 417.592 127.199 417.45 130.343C417.323 133.164 419.441 135.811 422.444 136.318C419.949 135.426 418.311 133.079 418.376 130.585C418.452 127.699 420.796 125.167 423.894 124.852Z" fill="#594C9F"/>
    <path d="M432.182 99.977C429.055 98.5973 425.46 100.109 424.292 103.029C423.244 105.65 424.372 108.849 427.04 110.322C424.978 108.654 424.205 105.897 425.087 103.564C426.108 100.864 429.154 99.25 432.182 99.977H432.182Z" fill="#594C9F"/>
    <path d="M426.759 150.217C423.651 151.641 422.388 155.338 423.789 158.154C425.045 160.682 428.179 161.963 431.05 160.944C428.437 161.38 425.867 160.126 424.716 157.915C423.382 155.355 424.204 152.001 426.759 150.217Z" fill="#594C9F"/>
    <path d="M422.655 138.053C419.442 139.218 417.88 142.798 419.045 145.72C420.091 148.342 423.109 149.877 426.054 149.097C423.414 149.317 420.956 147.856 419.989 145.558C418.87 142.897 419.963 139.622 422.655 138.053V138.053Z" fill="#594C9F"/>
    <path d="M437.321 113.351C434.428 112.847 431.741 114.852 431.368 117.53C431.033 119.934 432.633 122.369 435.163 123.044C433.099 122.08 431.886 119.94 432.141 117.812C432.437 115.348 434.645 113.371 437.321 113.351H437.321Z" fill="#594C9F"/>
    <path d="M435.026 124.6C432.099 124.369 429.61 126.616 429.488 129.318C429.379 131.742 431.199 134.016 433.78 134.452C431.636 133.686 430.228 131.669 430.284 129.526C430.349 127.045 432.364 124.87 435.026 124.6H435.026Z" fill="#594C9F"/>
    <path d="M442.148 103.223C439.461 102.038 436.372 103.336 435.368 105.846C434.467 108.099 435.437 110.848 437.73 112.113C435.958 110.68 435.293 108.31 436.051 106.306C436.929 103.986 439.546 102.598 442.148 103.223Z" fill="#594C9F"/>
    <path d="M437.488 146.396C434.817 147.62 433.732 150.797 434.935 153.217C436.015 155.389 438.708 156.49 441.176 155.614C438.93 155.989 436.722 154.911 435.732 153.011C434.586 150.812 435.292 147.929 437.488 146.396Z" fill="#594C9F"/>
    <path d="M433.962 135.944C431.2 136.944 429.858 140.021 430.859 142.532C431.758 144.785 434.352 146.104 436.882 145.434C434.613 145.623 432.501 144.367 431.67 142.392C430.708 140.106 431.648 137.291 433.962 135.944Z" fill="#594C9F"/>
    <path d="M447.686 115.697C445.19 115.262 442.871 116.992 442.549 119.303C442.261 121.376 443.641 123.477 445.824 124.061C444.043 123.229 442.996 121.382 443.217 119.546C443.472 117.42 445.377 115.714 447.686 115.697Z" fill="#594C9F"/>
    <path d="M445.706 125.403C443.18 125.204 441.032 127.143 440.927 129.474C440.833 131.566 442.404 133.528 444.631 133.904C442.78 133.243 441.566 131.502 441.614 129.653C441.67 127.513 443.409 125.636 445.706 125.403L445.706 125.403Z" fill="#594C9F"/>
    <path d="M451.851 106.958C449.532 105.935 446.867 107.055 446.001 109.221C445.223 111.164 446.06 113.536 448.039 114.628C446.509 113.392 445.936 111.347 446.59 109.618C447.347 107.615 449.606 106.418 451.851 106.958Z" fill="#594C9F"/>
    <path d="M447.83 144.21C445.526 145.266 444.589 148.007 445.627 150.096C446.559 151.97 448.883 152.92 451.012 152.164C449.074 152.487 447.169 151.558 446.315 149.918C445.326 148.02 445.935 145.533 447.83 144.21Z" fill="#594C9F"/>
    <path d="M444.787 135.191C442.404 136.054 441.247 138.709 442.11 140.876C442.886 142.82 445.124 143.958 447.307 143.38C445.35 143.543 443.527 142.46 442.81 140.755C441.98 138.782 442.791 136.354 444.787 135.191H444.787Z" fill="#594C9F"/>
    <path d="M413.68 114.426C410.823 113.929 408.169 115.909 407.801 118.554C407.471 120.927 409.051 123.332 411.548 123.999C409.51 123.047 408.312 120.933 408.565 118.832C408.857 116.399 411.038 114.446 413.68 114.426Z" fill="#594C9F"/>
    <path d="M411.414 125.535C408.523 125.307 406.065 127.527 405.945 130.194C405.837 132.588 407.634 134.835 410.183 135.265C408.065 134.508 406.675 132.516 406.731 130.4C406.795 127.95 408.784 125.802 411.414 125.535H411.414Z" fill="#594C9F"/>
    <path d="M418.447 104.425C415.793 103.254 412.743 104.536 411.751 107.015C410.861 109.239 411.819 111.954 414.083 113.203C412.333 111.788 411.677 109.448 412.426 107.469C413.292 105.177 415.877 103.807 418.447 104.424L418.447 104.425Z" fill="#594C9F"/>
    <path d="M413.845 147.06C411.208 148.269 410.136 151.406 411.324 153.797C412.39 155.941 415.05 157.029 417.487 156.164C415.269 156.534 413.088 155.47 412.111 153.593C410.979 151.421 411.676 148.575 413.845 147.06V147.06Z" fill="#594C9F"/>
    <path d="M410.362 136.738C407.635 137.726 406.31 140.764 407.299 143.244C408.186 145.47 410.748 146.772 413.247 146.11C411.006 146.297 408.92 145.057 408.099 143.106C407.149 140.848 408.077 138.069 410.362 136.738L410.362 136.738Z" fill="#594C9F"/>
    <path d="M401.483 117.436C399.123 117.025 396.932 118.66 396.628 120.844C396.355 122.804 397.66 124.79 399.722 125.341C398.039 124.555 397.05 122.809 397.258 121.074C397.5 119.064 399.301 117.452 401.483 117.436Z" fill="#594C9F"/>
    <path d="M399.611 126.609C397.224 126.421 395.194 128.254 395.095 130.457C395.006 132.434 396.49 134.289 398.595 134.645C396.846 134.02 395.698 132.375 395.744 130.627C395.797 128.604 397.44 126.83 399.611 126.609V126.609Z" fill="#594C9F"/>
    <path d="M405.42 109.176C403.228 108.209 400.709 109.268 399.89 111.315C399.155 113.152 399.946 115.394 401.816 116.425C400.371 115.257 399.828 113.324 400.447 111.69C401.163 109.797 403.297 108.666 405.42 109.176H405.42Z" fill="#594C9F"/>
    <path d="M401.618 144.386C399.441 145.384 398.555 147.975 399.537 149.949C400.418 151.72 402.614 152.618 404.626 151.904C402.795 152.209 400.994 151.331 400.187 149.781C399.252 147.987 399.828 145.636 401.618 144.386V144.386Z" fill="#594C9F"/>
    <path d="M398.743 135.861C396.491 136.677 395.396 139.186 396.213 141.234C396.945 143.072 399.061 144.148 401.125 143.601C399.274 143.755 397.552 142.731 396.874 141.12C396.089 139.256 396.856 136.96 398.743 135.861H398.743Z" fill="#594C9F"/>
    <path d="M474.175 125.677C471.673 125.677 469.645 123.644 469.645 121.136C469.645 118.628 471.673 116.595 474.175 116.595C476.677 116.595 478.706 118.628 478.706 121.136C478.706 123.644 476.677 125.677 474.175 125.677Z" fill="white"/>
    <path d="M474.669 123.81C473.569 123.81 472.678 122.916 472.678 121.814C472.678 120.711 473.569 119.818 474.669 119.818C475.768 119.818 476.66 120.711 476.66 121.814C476.66 122.916 475.768 123.81 474.669 123.81Z" fill="black"/>
    <path d="M473.99 121.587C473.352 121.587 472.834 121.069 472.834 120.431C472.834 119.792 473.352 119.275 473.99 119.275C474.628 119.275 475.146 119.792 475.146 120.431C475.146 121.069 474.628 121.587 473.99 121.587Z" fill="white"/>
    <path d="M214.293 293.137C212.237 290.032 209.2 286.271 204.793 282.913C187.073 269.406 164.091 275.238 159.526 276.565C153.265 278.385 148.33 280.954 145.057 282.913C147.01 283.065 150.09 283.545 153.497 285.161C156.779 286.717 159.046 288.703 160.397 290.083C165.796 288.096 174.951 285.503 186.47 285.953C199.254 286.452 208.976 290.467 214.293 293.137H214.293Z" fill="#594C9F"/>
    <path d="M203.965 354.629C200.276 357.13 195.218 359.942 188.827 361.898C174.693 366.225 162.398 363.809 156.457 362.191C157.407 362.033 158.812 361.716 160.402 361.019C162.196 360.232 163.601 359.631 164.421 358.162C165.036 357.063 165.069 355.937 165.025 355.251C169.512 356.514 175.622 357.739 182.915 357.797C191.76 357.867 199.014 356.193 203.965 354.629Z" fill="#594C9F"/>
    <path d="M92.1179 358.183C93.173 357.224 97.2577 353.126 99.352 349.559C103.601 342.322 99.6155 337.34 103.079 330.441C104.403 327.803 107.124 324.347 113.249 321.541C107.123 318.735 104.402 315.279 103.078 312.64C99.6143 305.742 103.6 300.76 99.351 293.523C97.2566 289.955 93.1718 285.858 92.1168 284.898C91.2623 284.121 90.4181 283.525 90.418 283.525C88.8182 282.395 87.87 282.146 87.897 282.041C88.025 281.542 111.094 281.102 122.917 295.244C127.438 300.652 129.065 306.699 129.737 310.659C132.469 307.304 150.126 286.362 180.57 284.843C196.741 284.036 209.775 289.744 214.13 291.802C224.674 296.784 231.277 303.071 233.182 304.949C239.325 311.009 243.157 317.149 245.459 321.542C243.148 325.918 239.31 332.078 233.183 338.132C211.722 359.337 183.294 358.374 180.571 358.238C150.127 356.72 132.47 335.777 129.738 332.423C129.067 336.383 127.439 342.429 122.918 347.837C111.095 361.979 88.0261 361.54 87.8981 361.04C87.8712 360.935 88.8193 360.686 90.4191 359.557C90.4192 359.557 91.2634 358.961 92.1179 358.183Z" fill="#756EBA"/>
    <path d="M92.1179 358.183C93.173 357.224 97.2577 353.126 99.352 349.559C103.601 342.322 99.6155 337.34 103.079 330.442C104.403 327.803 107.124 324.347 113.249 321.541C107.123 318.735 104.402 315.279 103.078 312.64C99.6143 305.742 103.6 300.76 99.351 293.523C97.2566 289.955 93.1718 285.858 92.1168 284.898C91.2623 284.121 90.4181 283.525 90.418 283.525C89.8224 283.104 89.3172 282.806 88.9189 282.591C88.1389 282.172 87.8866 282.128 87.897 282.042C87.9411 281.676 92.5872 281.723 97.4696 282.478C98.3202 282.609 99.7485 282.851 101.502 283.256C104.971 284.056 107.453 284.976 108.239 285.275C109.802 285.869 110.931 286.392 111.262 286.547C111.65 286.728 112.934 287.337 114.567 288.274C114.853 288.438 115.145 288.605 115.513 288.831C115.885 289.06 117.158 289.855 118.648 291.062C120.994 292.963 122.569 294.827 122.917 295.244C124.389 297.009 125.339 298.562 125.811 299.379C126.091 299.865 127.005 301.479 127.902 303.833C128.527 305.474 129.576 308.234 129.737 310.659C130.068 315.678 126.624 319.84 125.013 321.55C126.548 323.311 129.418 327.143 129.738 332.423C130.194 339.962 125.026 345.316 122.918 347.838C111.095 361.98 88.0261 361.54 87.8981 361.04C87.8712 360.935 88.8193 360.686 90.419 359.557C90.4192 359.557 91.2634 358.961 92.1179 358.183H92.1179Z" fill="#8A89C6"/>
    <path d="M214.129 291.802C219.005 294.038 226.166 298.03 233.18 304.949C238.031 309.733 241.431 314.56 243.801 318.58C243.828 318.557 243.846 318.532 243.875 318.51C244.623 317.933 245.472 317.98 245.821 317.999C246.331 318.028 246.977 318.063 247.274 318.526C247.584 319.009 247.32 319.658 247.224 319.896C246.831 320.864 245.916 321.3 245.424 321.48C245.434 321.499 245.447 321.522 245.457 321.542C245.445 321.564 245.43 321.591 245.418 321.613C245.602 321.642 245.81 321.681 246.055 321.756C246.567 321.911 246.844 321.995 247.046 322.265C247.236 322.52 247.338 322.912 247.213 323.26C247.044 323.735 246.534 323.903 246.187 324.017C245.738 324.165 245.37 324.14 244.887 324.103C244.546 324.077 244.29 324.056 244.076 324.018C241.709 328.094 238.232 333.141 233.181 338.132C230.884 340.402 228.822 342.078 227.902 342.811C223.366 346.422 219.11 348.846 215.898 350.434C213.12 346.377 205.91 334.696 206.328 318.353C206.656 305.535 211.517 296.132 214.129 291.802L214.129 291.802Z" fill="#8A89C6"/>
    <path d="M176.876 302.498C173.509 301.911 170.382 304.244 169.948 307.361C169.559 310.157 171.421 312.991 174.364 313.777C171.962 312.656 170.551 310.165 170.848 307.689C171.192 304.822 173.762 302.521 176.876 302.498H176.876Z" fill="#594C9F"/>
    <path d="M174.205 315.587C170.799 315.319 167.903 317.934 167.761 321.078C167.634 323.899 169.752 326.546 172.755 327.053C170.26 326.161 168.622 323.814 168.687 321.32C168.763 318.433 171.107 315.902 174.205 315.587Z" fill="#594C9F"/>
    <path d="M182.493 290.712C179.366 289.332 175.771 290.843 174.603 293.764C173.554 296.385 174.683 299.584 177.351 301.056C175.289 299.389 174.515 296.631 175.398 294.299C176.419 291.599 179.465 289.985 182.493 290.712H182.493Z" fill="#594C9F"/>
    <path d="M177.069 340.951C173.962 342.376 172.699 346.073 174.099 348.889C175.356 351.417 178.49 352.698 181.361 351.678C178.748 352.114 176.178 350.861 175.026 348.65C173.693 346.09 174.515 342.736 177.069 340.951Z" fill="#594C9F"/>
    <path d="M172.966 328.788C169.753 329.953 168.191 333.533 169.356 336.455C170.402 339.077 173.42 340.612 176.365 339.832C173.725 340.052 171.267 338.591 170.3 336.292C169.18 333.632 170.274 330.357 172.966 328.788V328.788Z" fill="#594C9F"/>
    <path d="M187.632 304.086C184.739 303.582 182.052 305.587 181.679 308.265C181.344 310.668 182.944 313.103 185.473 313.779C183.41 312.815 182.196 310.675 182.452 308.547C182.748 306.083 184.956 304.106 187.632 304.086H187.632Z" fill="#594C9F"/>
    <path d="M185.337 315.334C182.41 315.104 179.921 317.351 179.799 320.053C179.69 322.477 181.51 324.751 184.091 325.187C181.947 324.421 180.539 322.403 180.595 320.261C180.66 317.78 182.675 315.605 185.337 315.334H185.337Z" fill="#594C9F"/>
    <path d="M192.459 293.958C189.772 292.772 186.683 294.071 185.679 296.581C184.778 298.833 185.747 301.582 188.04 302.847C186.268 301.415 185.604 299.045 186.362 297.041C187.239 294.72 189.857 293.333 192.459 293.958Z" fill="#594C9F"/>
    <path d="M187.798 337.131C185.128 338.355 184.043 341.532 185.246 343.952C186.326 346.124 189.019 347.225 191.486 346.349C189.241 346.723 187.033 345.646 186.043 343.746C184.897 341.546 185.603 338.664 187.798 337.131Z" fill="#594C9F"/>
    <path d="M184.272 326.678C181.511 327.679 180.169 330.755 181.17 333.267C182.068 335.52 184.662 336.839 187.193 336.169C184.924 336.357 182.812 335.102 181.981 333.127C181.019 330.84 181.958 328.026 184.272 326.678Z" fill="#594C9F"/>
    <path d="M197.997 306.431C195.501 305.997 193.182 307.726 192.86 310.037C192.572 312.111 193.952 314.212 196.134 314.795C194.354 313.963 193.307 312.117 193.527 310.28C193.783 308.155 195.688 306.449 197.997 306.431Z" fill="#594C9F"/>
    <path d="M196.017 316.137C193.491 315.938 191.343 317.877 191.238 320.209C191.144 322.3 192.714 324.263 194.941 324.639C193.091 323.978 191.877 322.237 191.925 320.388C191.981 318.248 193.719 316.371 196.017 316.137L196.017 316.137Z" fill="#594C9F"/>
    <path d="M202.162 297.692C199.843 296.669 197.178 297.79 196.311 299.956C195.534 301.899 196.371 304.271 198.349 305.363C196.82 304.126 196.247 302.082 196.901 300.352C197.658 298.35 199.917 297.153 202.162 297.692Z" fill="#594C9F"/>
    <path d="M198.141 334.945C195.837 336.001 194.9 338.742 195.938 340.83C196.87 342.704 199.194 343.655 201.323 342.899C199.385 343.222 197.48 342.292 196.626 340.653C195.637 338.755 196.246 336.268 198.141 334.945Z" fill="#594C9F"/>
    <path d="M195.098 325.926C192.715 326.789 191.557 329.444 192.421 331.611C193.196 333.555 195.435 334.693 197.618 334.115C195.66 334.278 193.838 333.194 193.121 331.49C192.291 329.517 193.102 327.089 195.098 325.926H195.098Z" fill="#594C9F"/>
    <path d="M163.991 305.161C161.134 304.664 158.48 306.643 158.112 309.288C157.781 311.662 159.361 314.066 161.859 314.734C159.821 313.782 158.623 311.668 158.875 309.567C159.168 307.133 161.348 305.181 163.991 305.161Z" fill="#594C9F"/>
    <path d="M161.724 316.27C158.833 316.042 156.376 318.261 156.256 320.929C156.148 323.323 157.945 325.57 160.494 326C158.376 325.243 156.986 323.251 157.042 321.135C157.106 318.685 159.095 316.537 161.724 316.27H161.724Z" fill="#594C9F"/>
    <path d="M168.758 295.159C166.104 293.988 163.053 295.271 162.062 297.75C161.172 299.974 162.13 302.689 164.394 303.938C162.644 302.523 161.988 300.183 162.736 298.204C163.603 295.912 166.188 294.542 168.758 295.159L168.758 295.159Z" fill="#594C9F"/>
    <path d="M164.155 337.795C161.518 339.004 160.446 342.141 161.635 344.531C162.701 346.676 165.361 347.764 167.797 346.898C165.58 347.268 163.399 346.204 162.422 344.328C161.29 342.156 161.987 339.309 164.155 337.795V337.795Z" fill="#594C9F"/>
    <path d="M160.673 327.473C157.946 328.461 156.621 331.499 157.609 333.979C158.497 336.204 161.058 337.507 163.557 336.845C161.317 337.031 159.231 335.792 158.41 333.841C157.46 331.583 158.388 328.804 160.673 327.473L160.673 327.473Z" fill="#594C9F"/>
    <path d="M151.794 308.17C149.434 307.759 147.243 309.394 146.938 311.579C146.666 313.539 147.971 315.525 150.033 316.076C148.35 315.289 147.361 313.544 147.569 311.808C147.81 309.799 149.611 308.187 151.794 308.17Z" fill="#594C9F"/>
    <path d="M149.922 317.344C147.534 317.156 145.505 318.989 145.406 321.192C145.316 323.169 146.801 325.024 148.906 325.38C147.157 324.755 146.009 323.109 146.055 321.362C146.108 319.339 147.751 317.565 149.922 317.344V317.344Z" fill="#594C9F"/>
    <path d="M155.73 299.91C153.539 298.943 151.019 300.002 150.201 302.05C149.466 303.886 150.257 306.128 152.127 307.16C150.681 305.992 150.139 304.059 150.758 302.424C151.473 300.532 153.608 299.401 155.73 299.91H155.73Z" fill="#594C9F"/>
    <path d="M151.929 335.12C149.752 336.119 148.866 338.71 149.848 340.684C150.728 342.455 152.925 343.353 154.937 342.638C153.105 342.944 151.305 342.065 150.497 340.516C149.563 338.722 150.139 336.371 151.929 335.12V335.12Z" fill="#594C9F"/>
    <path d="M149.054 326.596C146.801 327.412 145.707 329.921 146.524 331.969C147.256 333.807 149.372 334.883 151.436 334.336C149.585 334.49 147.862 333.466 147.185 331.855C146.4 329.99 147.167 327.695 149.054 326.596H149.054Z" fill="#594C9F"/>
    <path d="M224.486 316.412C221.984 316.412 219.956 314.379 219.956 311.871C219.956 309.363 221.984 307.33 224.486 307.33C226.988 307.33 229.017 309.363 229.017 311.871C229.017 314.379 226.988 316.412 224.486 316.412Z" fill="white"/>
    <path d="M224.98 314.544C223.88 314.544 222.988 313.651 222.988 312.548C222.988 311.446 223.88 310.552 224.98 310.552C226.079 310.552 226.971 311.446 226.971 312.548C226.971 313.651 226.079 314.544 224.98 314.544Z" fill="black"/>
    <path d="M224.301 312.321C223.662 312.321 223.145 311.804 223.145 311.165C223.145 310.527 223.662 310.01 224.301 310.01C224.939 310.01 225.457 310.527 225.457 311.165C225.457 311.804 224.939 312.321 224.301 312.321Z" fill="white"/>
    <path d="M892.846 159.045C890.791 155.939 887.753 152.179 883.347 148.82C865.626 135.314 842.644 141.146 838.079 142.473C831.818 144.292 826.884 146.862 823.611 148.82C825.564 148.973 828.644 149.453 832.051 151.068C835.333 152.625 837.6 154.61 838.951 155.99C844.35 154.004 853.504 151.411 865.024 151.861C877.808 152.36 887.53 156.375 892.846 159.045H892.846Z" fill="#594C9F"/>
    <path d="M882.519 220.537C878.83 223.038 873.771 225.85 867.381 227.806C853.246 232.132 840.952 229.717 835.01 228.099C835.961 227.941 837.366 227.624 838.956 226.927C840.75 226.14 842.154 225.538 842.975 224.07C843.589 222.971 843.623 221.845 843.578 221.159C848.066 222.422 854.176 223.647 861.468 223.705C870.314 223.775 877.567 222.101 882.519 220.537Z" fill="#594C9F"/>
    <path d="M770.671 224.091C771.726 223.132 775.811 219.034 777.906 215.466C782.154 208.229 778.169 203.247 781.632 196.349C782.957 193.71 785.677 190.255 791.802 187.449C785.676 184.643 782.956 181.187 781.631 178.548C778.168 171.649 782.153 166.667 777.904 159.43C775.81 155.863 771.725 151.765 770.67 150.806C769.816 150.028 768.972 149.432 768.971 149.432C767.372 148.303 766.423 148.054 766.45 147.949C766.578 147.449 789.647 147.01 801.47 161.152C805.991 166.56 807.619 172.606 808.29 176.566C811.023 173.212 828.68 152.269 859.124 150.751C875.295 149.944 888.328 155.652 892.684 157.71C903.227 162.692 909.831 168.978 911.735 170.857C917.879 176.917 921.711 183.056 924.012 187.45C921.701 191.826 917.863 197.986 911.736 204.04C890.275 225.245 861.848 224.282 859.125 224.146C828.681 222.628 811.024 201.685 808.291 198.33C807.62 202.291 805.992 208.337 801.471 213.745C789.648 227.887 766.58 227.447 766.452 226.948C766.425 226.843 767.373 226.594 768.973 225.464C768.973 225.464 769.817 224.868 770.671 224.091Z" fill="#756EBA"/>
    <path d="M770.672 224.091C771.727 223.132 775.811 219.034 777.906 215.466C782.154 208.229 778.169 203.247 781.632 196.349C782.957 193.71 785.678 190.255 791.803 187.449C785.677 184.643 782.956 181.187 781.631 178.548C778.168 171.649 782.153 166.667 777.905 159.43C775.81 155.863 771.726 151.765 770.671 150.806C769.816 150.028 768.972 149.432 768.972 149.432C768.376 149.012 767.871 148.713 767.473 148.499C766.693 148.079 766.44 148.035 766.451 147.949C766.495 147.584 771.141 147.63 776.023 148.385C776.874 148.517 778.302 148.758 780.056 149.163C783.524 149.964 786.007 150.884 786.793 151.182C788.356 151.776 789.485 152.299 789.816 152.454C790.203 152.636 791.488 153.244 793.12 154.181C793.407 154.346 793.699 154.513 794.066 154.739C794.439 154.968 795.712 155.762 797.202 156.97C799.547 158.87 801.123 160.735 801.47 161.152C802.943 162.916 803.893 164.47 804.365 165.287C804.645 165.772 805.558 167.387 806.455 169.74C807.081 171.381 808.13 174.142 808.29 176.566C808.622 181.586 805.178 185.748 803.567 187.457C805.102 189.219 807.972 193.051 808.291 198.33C808.748 205.87 803.579 211.224 801.471 213.745C789.648 227.887 766.58 227.447 766.452 226.948C766.425 226.843 767.373 226.594 768.973 225.464C768.973 225.464 769.817 224.868 770.672 224.091H770.672Z" fill="#8A89C6"/>
    <path d="M892.682 157.709C897.559 159.946 904.719 163.938 911.734 170.856C916.584 175.641 919.985 180.467 922.354 184.488C922.381 184.465 922.4 184.44 922.429 184.418C923.177 183.841 924.025 183.888 924.374 183.907C924.884 183.935 925.53 183.971 925.827 184.434C926.137 184.917 925.874 185.566 925.777 185.803C925.385 186.772 924.47 187.208 923.977 187.387C923.988 187.407 924 187.429 924.011 187.449C923.999 187.472 923.984 187.498 923.972 187.521C924.156 187.55 924.363 187.589 924.609 187.663C925.12 187.818 925.398 187.902 925.599 188.173C925.789 188.427 925.892 188.82 925.767 189.168C925.597 189.642 925.088 189.81 924.74 189.925C924.292 190.072 923.923 190.048 923.441 190.011C923.1 189.984 922.843 189.964 922.629 189.925C920.263 194.001 916.786 199.049 911.735 204.04C909.437 206.309 907.375 207.986 906.455 208.718C901.919 212.329 897.663 214.754 894.452 216.342C891.674 212.285 884.463 200.603 884.881 184.261C885.209 171.442 890.07 162.04 892.682 157.709L892.682 157.709Z" fill="#8A89C6"/>
    <path d="M855.43 168.405C852.063 167.819 848.936 170.152 848.502 173.268C848.113 176.065 849.975 178.899 852.918 179.685C850.516 178.563 849.104 176.073 849.402 173.596C849.746 170.729 852.316 168.429 855.43 168.405H855.43Z" fill="#594C9F"/>
    <path d="M852.759 181.495C849.352 181.227 846.456 183.842 846.315 186.986C846.188 189.806 848.305 192.453 851.309 192.961C848.813 192.069 847.176 189.721 847.241 187.228C847.317 184.341 849.661 181.81 852.759 181.495Z" fill="#594C9F"/>
    <path d="M861.047 156.619C857.919 155.24 854.325 156.751 853.156 159.672C852.108 162.293 853.236 165.492 855.905 166.964C853.843 165.297 853.069 162.539 853.951 160.207C854.973 157.507 858.018 155.892 861.047 156.619H861.047Z" fill="#594C9F"/>
    <path d="M855.623 206.859C852.516 208.284 851.253 211.98 852.653 214.797C853.91 217.324 857.044 218.606 859.915 217.586C857.302 218.022 854.732 216.768 853.58 214.557C852.247 211.998 853.068 208.644 855.623 206.859Z" fill="#594C9F"/>
    <path d="M851.52 194.696C848.306 195.86 846.745 199.44 847.91 202.363C848.955 204.985 851.974 206.52 854.918 205.74C852.278 205.959 849.82 204.499 848.853 202.2C847.734 199.539 848.827 196.264 851.52 194.696V194.696Z" fill="#594C9F"/>
    <path d="M866.186 169.994C863.293 169.49 860.605 171.494 860.232 174.173C859.898 176.576 861.498 179.011 864.027 179.687C861.963 178.723 860.75 176.583 861.006 174.455C861.301 171.991 863.51 170.014 866.186 169.994H866.186Z" fill="#594C9F"/>
    <path d="M863.891 181.242C860.963 181.011 858.475 183.259 858.353 185.96C858.244 188.384 860.064 190.659 862.645 191.095C860.5 190.328 859.093 188.311 859.149 186.168C859.214 183.688 861.228 181.513 863.891 181.242H863.891Z" fill="#594C9F"/>
    <path d="M871.013 159.866C868.325 158.68 865.236 159.979 864.232 162.489C863.331 164.741 864.301 167.49 866.594 168.755C864.822 167.322 864.157 164.953 864.915 162.948C865.793 160.628 868.41 159.241 871.013 159.866Z" fill="#594C9F"/>
    <path d="M866.352 203.038C863.682 204.263 862.596 207.439 863.8 209.86C864.88 212.031 867.573 213.133 870.04 212.257C867.794 212.631 865.586 211.554 864.596 209.654C863.451 207.454 864.157 204.572 866.352 203.038Z" fill="#594C9F"/>
    <path d="M862.826 192.586C860.064 193.587 858.723 196.663 859.724 199.174C860.622 201.428 863.216 202.747 865.747 202.077C863.478 202.265 861.365 201.01 860.534 199.035C859.573 196.748 860.512 193.934 862.826 192.586Z" fill="#594C9F"/>
    <path d="M876.551 172.339C874.055 171.905 871.736 173.634 871.414 175.945C871.125 178.019 872.506 180.12 874.688 180.703C872.907 179.871 871.861 178.025 872.081 176.188C872.336 174.062 874.242 172.357 876.551 172.339Z" fill="#594C9F"/>
    <path d="M874.57 182.045C872.044 181.846 869.897 183.785 869.792 186.116C869.698 188.208 871.268 190.171 873.495 190.547C871.645 189.885 870.43 188.145 870.479 186.296C870.535 184.155 872.273 182.279 874.57 182.045L874.57 182.045Z" fill="#594C9F"/>
    <path d="M880.716 163.6C878.397 162.577 875.731 163.698 874.865 165.863C874.088 167.807 874.924 170.179 876.903 171.27C875.374 170.034 874.8 167.989 875.454 166.26C876.212 164.258 878.47 163.061 880.716 163.6Z" fill="#594C9F"/>
    <path d="M876.694 200.852C874.39 201.909 873.454 204.65 874.492 206.738C875.424 208.612 877.748 209.563 879.876 208.806C877.939 209.13 876.033 208.2 875.179 206.561C874.191 204.663 874.8 202.176 876.694 200.852Z" fill="#594C9F"/>
    <path d="M873.652 191.833C871.269 192.697 870.111 195.352 870.975 197.518C871.75 199.463 873.988 200.601 876.172 200.022C874.214 200.185 872.391 199.102 871.675 197.398C870.845 195.425 871.655 192.996 873.652 191.833H873.652Z" fill="#594C9F"/>
    <path d="M842.544 171.069C839.687 170.571 837.034 172.551 836.665 175.196C836.335 177.569 837.915 179.974 840.413 180.641C838.375 179.689 837.176 177.576 837.429 175.474C837.721 173.041 839.902 171.089 842.544 171.069Z" fill="#594C9F"/>
    <path d="M840.278 182.177C837.387 181.95 834.929 184.169 834.809 186.837C834.701 189.231 836.498 191.477 839.047 191.908C836.93 191.151 835.54 189.159 835.595 187.043C835.659 184.593 837.649 182.445 840.278 182.177H840.278Z" fill="#594C9F"/>
    <path d="M847.312 161.067C844.657 159.896 841.607 161.179 840.615 163.657C839.726 165.882 840.683 168.596 842.948 169.846C841.198 168.431 840.541 166.091 841.29 164.111C842.157 161.82 844.741 160.45 847.312 161.067L847.312 161.067Z" fill="#594C9F"/>
    <path d="M842.709 203.703C840.072 204.912 839 208.049 840.188 210.439C841.254 212.584 843.914 213.671 846.351 212.806C844.133 213.176 841.952 212.112 840.975 210.236C839.843 208.063 840.54 205.217 842.709 203.703V203.703Z" fill="#594C9F"/>
    <path d="M839.226 193.38C836.499 194.369 835.174 197.407 836.163 199.887C837.05 202.112 839.612 203.415 842.111 202.753C839.87 202.939 837.784 201.699 836.964 199.749C836.014 197.491 836.942 194.711 839.226 193.38L839.226 193.38Z" fill="#594C9F"/>
    <path d="M830.347 174.078C827.988 173.667 825.796 175.302 825.492 177.486C825.219 179.446 826.524 181.432 828.587 181.983C826.904 181.197 825.914 179.452 826.123 177.716C826.364 175.707 828.165 174.094 830.347 174.078Z" fill="#594C9F"/>
    <path d="M828.476 183.252C826.088 183.064 824.058 184.897 823.959 187.1C823.87 189.077 825.354 190.932 827.459 191.287C825.711 190.662 824.563 189.017 824.608 187.27C824.661 185.246 826.304 183.473 828.476 183.252V183.252Z" fill="#594C9F"/>
    <path d="M834.284 165.818C832.092 164.851 829.573 165.91 828.754 167.957C828.02 169.794 828.81 172.036 830.68 173.068C829.235 171.899 828.693 169.967 829.311 168.332C830.027 166.44 832.162 165.308 834.284 165.818H834.284Z" fill="#594C9F"/>
    <path d="M830.483 201.028C828.305 202.027 827.42 204.617 828.401 206.591C829.282 208.363 831.479 209.261 833.491 208.546C831.659 208.852 829.858 207.973 829.051 206.423C828.117 204.629 828.692 202.279 830.483 201.028V201.028Z" fill="#594C9F"/>
    <path d="M827.607 192.504C825.355 193.32 824.261 195.829 825.077 197.877C825.81 199.714 827.925 200.79 829.989 200.244C828.139 200.397 826.416 199.374 825.738 197.763C824.954 195.898 825.72 193.603 827.607 192.504H827.607Z" fill="#594C9F"/>
    <path d="M903.04 182.32C900.538 182.32 898.509 180.287 898.509 177.779C898.509 175.27 900.538 173.237 903.04 173.237C905.542 173.237 907.57 175.27 907.57 177.779C907.57 180.287 905.542 182.32 903.04 182.32Z" fill="white"/>
    <path d="M903.533 180.452C902.434 180.452 901.542 179.558 901.542 178.456C901.542 177.354 902.434 176.46 903.533 176.46C904.633 176.46 905.524 177.354 905.524 178.456C905.524 179.558 904.633 180.452 903.533 180.452Z" fill="black"/>
    <path d="M902.854 178.229C902.216 178.229 901.698 177.712 901.698 177.073C901.698 176.435 902.216 175.917 902.854 175.917C903.493 175.917 904.01 176.435 904.01 177.073C904.01 177.712 903.493 178.229 902.854 178.229Z" fill="white"/>
    <path d="M825.8 458.441C823.745 455.335 820.707 451.575 816.301 448.216C798.58 434.71 775.598 440.542 771.033 441.868C764.772 443.688 759.838 446.258 756.565 448.216C758.518 448.369 761.598 448.849 765.005 450.464C768.287 452.021 770.554 454.006 771.905 455.386C777.304 453.4 786.458 450.806 797.978 451.257C810.762 451.756 820.484 455.771 825.8 458.441H825.8Z" fill="#594C9F"/>
    <path d="M815.473 519.932C811.784 522.434 806.725 525.245 800.335 527.202C786.201 531.528 773.906 529.113 767.964 527.495C768.915 527.337 770.32 527.02 771.91 526.323C773.704 525.536 775.108 524.934 775.929 523.466C776.543 522.366 776.577 521.241 776.532 520.555C781.02 521.818 787.13 523.043 794.422 523.1C803.268 523.17 810.522 521.497 815.473 519.932Z" fill="#594C9F"/>
    <path d="M703.625 523.487C704.681 522.527 708.765 518.43 710.86 514.862C715.108 507.625 711.123 502.643 714.586 495.745C715.911 493.106 718.631 489.65 724.756 486.845C718.63 484.039 715.91 480.582 714.585 477.943C711.122 471.045 715.107 466.063 710.859 458.826C708.764 455.259 704.679 451.161 703.624 450.202C702.77 449.424 701.926 448.828 701.926 448.828C700.326 447.699 699.378 447.45 699.405 447.345C699.533 446.845 722.601 446.406 734.424 460.548C738.945 465.955 740.573 472.002 741.244 475.962C743.977 472.608 761.634 451.665 792.078 450.147C808.249 449.34 821.282 455.047 825.638 457.106C836.182 462.088 842.785 468.374 844.689 470.253C850.833 476.313 854.665 482.452 856.966 486.846C854.655 491.222 850.817 497.382 844.69 503.436C823.229 524.641 794.802 523.678 792.079 523.542C761.635 522.024 743.978 501.081 741.245 497.726C740.574 501.687 738.946 507.733 734.425 513.141C722.602 527.283 699.534 526.843 699.406 526.344C699.379 526.239 700.327 525.99 701.927 524.86C701.927 524.86 702.771 524.264 703.625 523.487Z" fill="#756EBA"/>
    <path d="M703.626 523.487C704.681 522.528 708.766 518.43 710.86 514.862C715.109 507.625 711.123 502.643 714.587 495.745C715.911 493.106 718.632 489.651 724.757 486.845C718.631 484.039 715.91 480.583 714.585 477.944C711.122 471.045 715.107 466.063 710.859 458.826C708.764 455.259 704.68 451.161 703.625 450.202C702.77 449.424 701.926 448.828 701.926 448.828C701.33 448.408 700.825 448.109 700.427 447.895C699.647 447.475 699.394 447.431 699.405 447.345C699.449 446.98 704.095 447.026 708.977 447.781C709.828 447.913 711.256 448.154 713.01 448.559C716.478 449.36 718.961 450.28 719.747 450.578C721.31 451.172 722.439 451.695 722.77 451.85C723.158 452.032 724.442 452.64 726.074 453.577C726.361 453.742 726.653 453.909 727.02 454.135C727.393 454.364 728.666 455.158 730.156 456.366C732.501 458.266 734.077 460.131 734.424 460.548C735.897 462.312 736.847 463.866 737.319 464.683C737.599 465.168 738.512 466.783 739.41 469.136C740.035 470.777 741.084 473.538 741.244 475.962C741.576 480.982 738.132 485.144 736.521 486.853C738.056 488.615 740.926 492.447 741.245 497.726C741.702 505.266 736.533 510.62 734.425 513.141C722.603 527.283 699.534 526.843 699.406 526.344C699.379 526.239 700.327 525.99 701.927 524.86C701.927 524.86 702.771 524.264 703.626 523.487H703.626Z" fill="#8A89C6"/>
    <path d="M825.636 457.105C830.513 459.342 837.673 463.334 844.688 470.252C849.539 475.037 852.939 479.863 855.309 483.884C855.335 483.861 855.354 483.836 855.383 483.814C856.131 483.237 856.98 483.284 857.328 483.303C857.839 483.331 858.484 483.367 858.781 483.83C859.091 484.313 858.828 484.962 858.732 485.199C858.339 486.167 857.424 486.604 856.931 486.783C856.942 486.803 856.954 486.825 856.965 486.845C856.953 486.868 856.938 486.894 856.926 486.917C857.11 486.946 857.317 486.985 857.563 487.059C858.074 487.214 858.352 487.298 858.553 487.568C858.744 487.823 858.846 488.216 858.721 488.564C858.551 489.038 858.042 489.206 857.694 489.321C857.246 489.468 856.877 489.444 856.395 489.407C856.054 489.38 855.797 489.36 855.583 489.321C853.217 493.397 849.74 498.444 844.689 503.435C842.391 505.705 840.33 507.382 839.409 508.114C834.873 511.725 830.618 514.149 827.406 515.738C824.628 511.681 817.417 499.999 817.835 483.657C818.164 470.838 823.024 461.436 825.636 457.105L825.636 457.105Z" fill="#8A89C6"/>
    <path d="M788.384 467.801C785.017 467.215 781.89 469.548 781.456 472.664C781.067 475.461 782.929 478.295 785.872 479.081C783.47 477.959 782.058 475.469 782.356 472.992C782.7 470.125 785.27 467.825 788.384 467.801H788.384Z" fill="#594C9F"/>
    <path d="M785.713 480.891C782.306 480.622 779.41 483.238 779.269 486.381C779.142 489.202 781.26 491.849 784.263 492.357C781.768 491.464 780.13 489.117 780.195 486.624C780.271 483.737 782.615 481.206 785.713 480.891Z" fill="#594C9F"/>
    <path d="M794.001 456.015C790.873 454.636 787.279 456.147 786.111 459.068C785.062 461.689 786.191 464.888 788.859 466.36C786.797 464.693 786.023 461.935 786.905 459.603C787.927 456.903 790.973 455.288 794.001 456.015H794.001Z" fill="#594C9F"/>
    <path d="M788.578 506.255C785.47 507.68 784.207 511.376 785.607 514.193C786.864 516.72 789.998 518.002 792.869 516.982C790.256 517.418 787.686 516.164 786.535 513.953C785.201 511.393 786.023 508.04 788.578 506.255Z" fill="#594C9F"/>
    <path d="M784.474 494.092C781.26 495.256 779.699 498.836 780.864 501.759C781.909 504.381 784.928 505.916 787.873 505.136C785.232 505.355 782.774 503.894 781.807 501.596C780.688 498.935 781.781 495.66 784.474 494.092V494.092Z" fill="#594C9F"/>
    <path d="M799.14 469.389C796.247 468.886 793.559 470.89 793.186 473.569C792.852 475.972 794.452 478.407 796.981 479.083C794.917 478.119 793.704 475.979 793.96 473.85C794.256 471.387 796.464 469.41 799.14 469.389H799.14Z" fill="#594C9F"/>
    <path d="M796.845 480.638C793.917 480.407 791.429 482.655 791.307 485.356C791.198 487.78 793.018 490.055 795.599 490.491C793.454 489.724 792.047 487.707 792.103 485.564C792.168 483.084 794.182 480.909 796.845 480.638H796.845Z" fill="#594C9F"/>
    <path d="M803.967 459.261C801.279 458.076 798.19 459.374 797.186 461.885C796.285 464.137 797.255 466.886 799.548 468.151C797.776 466.718 797.111 464.349 797.869 462.344C798.747 460.024 801.364 458.637 803.967 459.261Z" fill="#594C9F"/>
    <path d="M799.306 502.434C796.636 503.659 795.551 506.835 796.754 509.255C797.834 511.427 800.527 512.529 802.994 511.652C800.748 512.027 798.54 510.95 797.551 509.05C796.405 506.85 797.111 503.968 799.306 502.434Z" fill="#594C9F"/>
    <path d="M795.78 491.982C793.019 492.983 791.677 496.059 792.678 498.57C793.576 500.824 796.17 502.143 798.701 501.472C796.432 501.661 794.319 500.406 793.489 498.431C792.527 496.144 793.466 493.33 795.78 491.982Z" fill="#594C9F"/>
    <path d="M809.505 471.735C807.009 471.3 804.69 473.03 804.368 475.341C804.079 477.415 805.46 479.516 807.642 480.099C805.862 479.267 804.815 477.42 805.035 475.584C805.291 473.458 807.196 471.752 809.505 471.735Z" fill="#594C9F"/>
    <path d="M807.524 481.441C804.999 481.242 802.851 483.181 802.746 485.512C802.652 487.604 804.222 489.566 806.449 489.943C804.599 489.281 803.385 487.541 803.433 485.692C803.489 483.551 805.227 481.674 807.524 481.441L807.524 481.441Z" fill="#594C9F"/>
    <path d="M813.67 462.996C811.351 461.973 808.686 463.093 807.819 465.259C807.042 467.203 807.879 469.575 809.857 470.666C808.328 469.43 807.754 467.385 808.409 465.656C809.166 463.654 811.424 462.457 813.67 462.996Z" fill="#594C9F"/>
    <path d="M809.648 500.248C807.344 501.305 806.408 504.046 807.446 506.134C808.378 508.008 810.702 508.958 812.831 508.202C810.893 508.525 808.988 507.596 808.133 505.956C807.145 504.058 807.754 501.571 809.648 500.248Z" fill="#594C9F"/>
    <path d="M806.606 491.229C804.223 492.093 803.065 494.747 803.929 496.914C804.704 498.859 806.942 499.997 809.126 499.418C807.168 499.581 805.346 498.498 804.629 496.794C803.799 494.821 804.609 492.392 806.606 491.229H806.606Z" fill="#594C9F"/>
    <path d="M775.499 470.465C772.642 469.967 769.988 471.947 769.619 474.592C769.289 476.965 770.869 479.37 773.367 480.037C771.329 479.085 770.131 476.972 770.383 474.87C770.675 472.437 772.856 470.485 775.499 470.465Z" fill="#594C9F"/>
    <path d="M773.232 481.573C770.341 481.346 767.883 483.565 767.763 486.233C767.655 488.627 769.453 490.873 772.001 491.304C769.884 490.547 768.494 488.555 768.549 486.439C768.613 483.989 770.603 481.841 773.232 481.573H773.232Z" fill="#594C9F"/>
    <path d="M780.266 460.463C777.612 459.292 774.561 460.574 773.569 463.053C772.68 465.278 773.637 467.992 775.902 469.242C774.152 467.827 773.495 465.487 774.244 463.507C775.111 461.216 777.696 459.846 780.266 460.463L780.266 460.463Z" fill="#594C9F"/>
    <path d="M775.663 503.099C773.026 504.308 771.954 507.445 773.142 509.835C774.209 511.98 776.868 513.067 779.305 512.202C777.087 512.572 774.906 511.508 773.929 509.632C772.797 507.459 773.494 504.613 775.663 503.099V503.099Z" fill="#594C9F"/>
    <path d="M772.181 492.776C769.453 493.764 768.128 496.803 769.117 499.283C770.004 501.508 772.566 502.811 775.065 502.149C772.824 502.335 770.738 501.095 769.918 499.145C768.968 496.887 769.896 494.107 772.181 492.776L772.181 492.776Z" fill="#594C9F"/>
    <path d="M763.301 473.474C760.942 473.063 758.75 474.698 758.446 476.882C758.173 478.842 759.478 480.828 761.541 481.379C759.858 480.593 758.868 478.848 759.077 477.112C759.318 475.103 761.119 473.49 763.301 473.474Z" fill="#594C9F"/>
    <path d="M761.43 482.648C759.042 482.46 757.013 484.293 756.913 486.496C756.824 488.473 758.309 490.328 760.414 490.683C758.665 490.058 757.517 488.413 757.563 486.666C757.616 484.642 759.258 482.868 761.43 482.648V482.648Z" fill="#594C9F"/>
    <path d="M767.238 465.214C765.046 464.247 762.527 465.306 761.708 467.353C760.974 469.19 761.764 471.432 763.634 472.464C762.189 471.295 761.647 469.363 762.265 467.728C762.981 465.836 765.116 464.704 767.238 465.214H767.238Z" fill="#594C9F"/>
    <path d="M763.437 500.424C761.259 501.423 760.374 504.013 761.356 505.987C762.236 507.758 764.433 508.657 766.445 507.942C764.613 508.247 762.812 507.369 762.005 505.819C761.071 504.025 761.646 501.675 763.437 500.424V500.424Z" fill="#594C9F"/>
    <path d="M760.561 491.9C758.309 492.716 757.215 495.225 758.031 497.273C758.764 499.11 760.88 500.186 762.943 499.64C761.093 499.793 759.37 498.77 758.693 497.159C757.908 495.294 758.674 492.999 760.561 491.9H760.561Z" fill="#594C9F"/>
    <path d="M835.994 481.716C833.492 481.716 831.464 479.682 831.464 477.174C831.464 474.666 833.492 472.633 835.994 472.633C838.496 472.633 840.524 474.666 840.524 477.174C840.524 479.682 838.496 481.716 835.994 481.716Z" fill="white"/>
    <path d="M836.487 479.848C835.388 479.848 834.496 478.954 834.496 477.852C834.496 476.75 835.388 475.856 836.487 475.856C837.587 475.856 838.479 476.75 838.479 477.852C838.479 478.954 837.587 479.848 836.487 479.848Z" fill="black"/>
    <path d="M835.808 477.625C835.17 477.625 834.652 477.108 834.652 476.469C834.652 475.831 835.17 475.313 835.808 475.313C836.447 475.313 836.964 475.831 836.964 476.469C836.964 477.108 836.447 477.625 835.808 477.625Z" fill="white"/>
</svg>
