<svg width="175" height="95" viewBox="0 0 175 95" fill="none" xmlns="http://www.w3.org/2000/svg">
<path d="M161.73 46.6211C161.957 45.5995 162.071 44.5241 162.071 43.395C162.071 35.007 155.192 28.0707 146.436 27.4793C146.663 26.1888 146.777 24.8983 146.777 23.6079C146.777 10.6495 135.633 0.110718 121.931 0.110718C110.674 0.110718 101.179 7.20826 98.109 16.9405C95.6074 15.5963 92.7646 14.7897 89.6945 14.7897C80.3702 14.7897 72.8085 21.941 72.8085 30.7592C72.8085 31.6195 72.8654 32.4798 73.0359 33.3401C72.6379 33.2863 72.1831 33.2863 71.7851 33.2863C64.0528 33.2863 57.5145 38.2331 55.5246 44.9543C43.7555 45.1693 34.2607 54.3101 34.2607 65.4941C34.2607 76.8394 43.983 86.0877 56.0362 86.0877C56.6617 86.0877 57.3439 86.034 57.9693 85.9802H151.041C151.723 86.034 152.406 86.0877 153.145 86.0877C165.141 86.0877 174.92 76.8932 174.92 65.4941C174.92 57.0523 169.519 49.7397 161.73 46.6211Z" fill="#417D3B"/>
<path d="M161.844 46.6209C162.071 45.5993 162.185 44.5239 162.185 43.3948C162.185 35.0068 155.305 28.0705 146.55 27.4791C146.493 27.4791 146.436 27.5328 146.379 27.5328C147.573 28.5545 151.041 31.8881 152.008 37.2113C153.315 44.6852 148.596 50.1697 147.857 50.9762C149.563 51.6752 153.031 53.3421 154.85 56.8909C157.693 62.3753 154.396 68.3437 152.974 70.9784C146.095 83.5066 128.356 85.6574 125.513 85.98C134.098 85.98 140.182 86.0338 143.536 85.98C144.73 85.98 147.914 85.9262 152.178 86.0338C152.86 86.0338 153.145 86.0338 153.202 86.0338C165.198 86.0338 174.977 76.8392 174.977 65.4402C175.034 57.0522 169.576 49.7395 161.844 46.6209Z" fill="#326437"/>
<path d="M92.8215 54.7944C91.7982 54.7944 90.8316 54.8481 89.8651 55.0094C88.6143 47.9119 82.1328 42.4812 74.2299 42.4812C71.444 42.4812 68.8287 43.1802 66.5545 44.3631C66.1565 33.8243 57.0028 25.4363 45.7455 25.4363C34.2608 25.4363 24.9366 34.2545 24.9366 45.1159C24.9366 47.1054 25.2208 48.9873 25.8462 50.8154C24.9934 50.7079 24.0837 50.6541 23.1741 50.6541C10.4954 50.6541 0.20459 60.3864 0.20459 72.3769C0.20459 84.3674 10.4954 94.0997 23.1741 94.0997H23.2309H91.9119C92.1961 94.0997 92.4804 94.0997 92.7647 94.0997C104.249 94.0997 113.574 85.2815 113.574 74.4201C113.631 63.5587 104.306 54.7944 92.8215 54.7944Z" fill="#326437"/>
<path d="M92.7646 54.7402C92.0255 54.7402 91.2864 54.7939 91.2864 54.7939C90.7747 54.8477 90.3198 54.9015 89.8081 54.9552C88.5573 47.8577 82.0759 42.427 74.173 42.427C71.3871 42.427 68.7718 43.126 66.4976 44.3089C68.3169 44.4165 74.4573 44.9004 79.9154 49.4708C85.3166 53.9336 86.738 59.4719 87.0791 61.1925C88.2162 61.7839 93.4469 64.7412 95.1525 70.7634C96.6308 75.9253 94.584 80.173 93.7312 81.8936C89.1827 91.357 77.8117 93.7766 76.1061 94.0993C79.4605 94.153 82.5307 94.153 85.544 94.2068C85.544 94.2068 86.6243 94.2068 92.6509 94.153C92.992 94.153 93.6174 94.153 94.4134 94.0993C94.4134 94.0993 96.3465 93.938 98.0521 93.5078C101.691 92.6475 104.932 90.3892 104.932 90.3892C106.694 89.1525 110.617 86.0876 112.493 80.8183C112.721 80.173 113.517 77.7534 113.517 74.4197C113.517 71.785 113.005 69.7956 112.834 69.2041C111.072 62.9669 106.41 59.4719 105.5 58.8266C104.875 58.3427 102.942 57.0522 100.099 56.0306C100.156 56.0306 96.517 54.7402 92.7646 54.7402Z" fill="#27522C"/>
<path d="M43.585 43.879C45.312 43.879 46.7121 42.5549 46.7121 40.9217C46.7121 39.2884 45.312 37.9644 43.585 37.9644C41.858 37.9644 40.458 39.2884 40.458 40.9217C40.458 42.5549 41.858 43.879 43.585 43.879Z" fill="#B32646"/>
<path d="M44.3241 41.6204C44.2104 41.7817 43.983 41.7817 43.8125 41.6204L42.7891 40.7601C42.6185 40.6525 42.6185 40.4374 42.7891 40.2761C42.9028 40.1148 43.1302 40.1148 43.3008 40.2761L44.3241 41.1364C44.4379 41.244 44.4947 41.4591 44.3241 41.6204Z" fill="#6C1626"/>
<path d="M44.2673 40.2226C44.4379 40.3302 44.4379 40.5452 44.2673 40.7066L43.3576 41.6206C43.2439 41.7819 43.0165 41.7819 42.8459 41.6206C42.6754 41.5131 42.6754 41.298 42.8459 41.1367L43.7556 40.1689C43.9262 40.1151 44.1536 40.1151 44.2673 40.2226Z" fill="#6C1626"/>
<path d="M42.3342 39.5239C42.5048 39.4164 42.7322 39.2551 42.9596 39.0938C43.0165 39.04 43.0733 38.9862 43.1302 38.8787C43.1302 38.8787 43.187 38.7174 43.0733 38.5561C42.9596 38.4485 42.7891 38.4485 42.7322 38.5023C42.6753 38.5023 42.6185 38.5561 42.5048 38.6098C42.3911 38.7174 42.2774 38.7711 42.2205 38.7711C41.9931 38.9325 41.8794 39.04 41.7657 39.1475C41.5951 39.3088 41.4245 39.4701 41.4245 39.5239C41.3108 39.6852 41.1971 39.7928 41.0834 40.1154C40.9697 40.2767 40.9128 40.438 40.9128 40.5993C40.9128 40.7068 40.9697 40.7606 40.9697 40.7606C41.0266 40.8681 41.1971 40.8681 41.1971 40.8681C41.3108 40.8681 41.3677 40.8144 41.4245 40.8144C41.5382 40.7606 41.5382 40.6531 41.652 40.4918C41.7088 40.3305 41.7088 40.3305 41.7657 40.2229C41.7657 40.1691 41.8225 40.1154 41.9362 39.9541C41.9931 39.9003 42.1068 39.739 42.3342 39.5239Z" fill="#C8637A"/>
<path d="M48.1901 65.333C49.5403 65.333 50.6349 64.2978 50.6349 63.0209C50.6349 61.744 49.5403 60.7088 48.1901 60.7088C46.8399 60.7088 45.7454 61.744 45.7454 63.0209C45.7454 64.2978 46.8399 65.333 48.1901 65.333Z" fill="#B32646"/>
<path d="M48.7587 63.5045C48.645 63.612 48.4745 63.612 48.3607 63.5045L47.5648 62.8055C47.4511 62.698 47.4511 62.5366 47.5648 62.4291C47.6785 62.3216 47.849 62.3216 47.9628 62.4291L48.7587 63.1281C48.8724 63.2356 48.8724 63.4507 48.7587 63.5045Z" fill="#6C1626"/>
<path d="M48.7019 62.4294C48.8156 62.5369 48.8156 62.6982 48.7019 62.8058L47.9628 63.5586C47.849 63.6661 47.6785 63.6661 47.5648 63.5586C47.4511 63.451 47.4511 63.2897 47.5648 63.1822L48.3039 62.4294C48.4176 62.3756 48.5882 62.3219 48.7019 62.4294Z" fill="#6C1626"/>
<path d="M47.1666 61.8914C47.2804 61.7839 47.4509 61.6763 47.6783 61.515C47.7352 61.4612 47.7921 61.4612 47.7921 61.3537C47.7921 61.3537 47.8489 61.1924 47.7352 61.1386C47.6215 61.0311 47.5078 61.0849 47.4509 61.0849C47.3941 61.0849 47.3372 61.1386 47.2804 61.1924C47.1666 61.2462 47.1098 61.2999 47.0529 61.3537C46.8824 61.4612 46.7687 61.5688 46.7118 61.6225C46.5412 61.7839 46.4275 61.8914 46.4275 61.9452C46.3138 62.0527 46.257 62.1602 46.1433 62.3753C46.0864 62.4829 46.0295 62.5904 46.0295 62.7517C46.0295 62.8055 46.0295 62.8592 46.0864 62.913C46.1433 62.9668 46.257 62.9668 46.257 62.9668C46.3138 62.9668 46.4275 62.913 46.4275 62.913C46.4844 62.8592 46.5412 62.8055 46.5981 62.6979C46.6549 62.5904 46.655 62.5904 46.7118 62.4829C46.7118 62.4291 46.7687 62.3753 46.8255 62.2678C46.8824 62.1602 46.9961 62.0527 47.1666 61.8914Z" fill="#C8637A"/>
<path d="M76.5041 76.8393C78.3881 76.8393 79.9154 75.3949 79.9154 73.6132C79.9154 71.8314 78.3881 70.387 76.5041 70.387C74.6201 70.387 73.0928 71.8314 73.0928 73.6132C73.0928 75.3949 74.6201 76.8393 76.5041 76.8393Z" fill="#B32646"/>
<path d="M77.3568 74.3662C77.1862 74.5275 76.9588 74.5275 76.7883 74.3662L75.708 73.3984C75.5374 73.2371 75.5374 73.022 75.708 72.8607C75.8786 72.6994 76.106 72.6994 76.2766 72.8607L77.3568 73.8285C77.4705 73.9898 77.4705 74.2049 77.3568 74.3662Z" fill="#6C1626"/>
<path d="M77.2999 72.8607C77.4705 73.022 77.4705 73.237 77.2999 73.3984L76.2766 74.42C76.106 74.5813 75.8786 74.5813 75.708 74.42C75.5374 74.2587 75.5374 74.0436 75.708 73.8823L76.7314 72.8607C76.8451 72.6994 77.1294 72.6994 77.2999 72.8607Z" fill="#6C1626"/>
<path d="M75.1395 72.1079C75.3101 72.0003 75.5944 71.7852 75.8218 71.6239C75.8786 71.5702 75.9923 71.5164 75.9923 71.4089C75.9923 71.4089 76.0492 71.1938 75.9355 71.0862C75.8218 70.9787 75.5944 70.9787 75.5375 70.9787C75.4806 70.9787 75.3669 71.0325 75.2532 71.0862C75.0827 71.1938 75.0258 71.2475 74.969 71.3013C74.7415 71.4626 74.6278 71.5702 74.4573 71.6777C74.2298 71.8928 74.1161 72.0541 74.0593 72.1079C73.9456 72.2692 73.8319 72.4305 73.6613 72.7531C73.5476 72.9144 73.4907 73.0757 73.4907 73.2908C73.4907 73.3983 73.5476 73.4521 73.5476 73.5059C73.6613 73.6134 73.775 73.6134 73.8319 73.6134C73.9456 73.6134 74.0593 73.5596 74.0593 73.5596C74.173 73.5059 74.173 73.3983 74.2867 73.237C74.3435 73.0757 74.3436 73.0757 74.4004 72.9144C74.4004 72.8606 74.4573 72.8069 74.571 72.6455C74.7415 72.4842 74.9121 72.2692 75.1395 72.1079Z" fill="#C8637A"/>
<path d="M38.9795 85.9805C40.9892 85.9805 42.6183 84.4398 42.6183 82.5393C42.6183 80.6387 40.9892 79.098 38.9795 79.098C36.9699 79.098 35.3408 80.6387 35.3408 82.5393C35.3408 84.4398 36.9699 85.9805 38.9795 85.9805Z" fill="#B32646"/>
<path d="M39.8892 83.3459C39.7187 83.5072 39.4913 83.5072 39.3207 83.3459L38.1836 82.3243C38.013 82.163 38.013 81.9479 38.1836 81.7866C38.3542 81.6253 38.5816 81.6253 38.7521 81.7866L39.8892 82.8082C40.003 82.9157 40.003 83.1846 39.8892 83.3459Z" fill="#6C1626"/>
<path d="M39.7755 81.7327C39.9461 81.894 39.9461 82.1091 39.7755 82.2704L38.6953 83.3458C38.5247 83.5071 38.2973 83.5071 38.1267 83.3458C37.9561 83.1844 37.9561 82.9694 38.1267 82.8081L39.2069 81.7327C39.3775 81.5714 39.6049 81.5714 39.7755 81.7327Z" fill="#6C1626"/>
<path d="M37.5014 80.9261C37.672 80.7648 37.9562 80.6035 38.2405 80.3884C38.2974 80.3347 38.4111 80.2809 38.4679 80.1734C38.4679 80.1734 38.5248 79.9583 38.4111 79.8508C38.2974 79.6895 38.0699 79.7432 38.0131 79.7432C37.9562 79.7432 37.8425 79.797 37.7288 79.9045C37.5583 80.0121 37.4445 80.0658 37.4445 80.1196C37.2171 80.3347 37.0466 80.3885 36.9328 80.5498C36.7054 80.7648 36.5349 80.9261 36.5349 80.9799C36.4211 81.1412 36.3074 81.3025 36.1369 81.6251C36.0232 81.8402 35.9663 82.0015 35.9663 82.1628C35.9663 82.2704 36.0232 82.3241 36.0232 82.3779C36.1369 82.4854 36.2506 82.4854 36.3074 82.4854C36.4211 82.4854 36.5349 82.4317 36.5349 82.4317C36.6486 82.3779 36.7054 82.2704 36.7623 82.1091C36.8191 81.9478 36.8191 81.894 36.876 81.7864C36.876 81.7327 36.9328 81.6251 37.1034 81.5176C37.1034 81.3025 37.274 81.1412 37.5014 80.9261Z" fill="#C8637A"/>
<path d="M19.5351 66.9996C20.8853 66.9996 21.9799 65.9645 21.9799 64.6876C21.9799 63.4106 20.8853 62.3755 19.5351 62.3755C18.1849 62.3755 17.0903 63.4106 17.0903 64.6876C17.0903 65.9645 18.1849 66.9996 19.5351 66.9996Z" fill="#B32646"/>
<path d="M20.1037 65.2251C19.99 65.3326 19.8194 65.3326 19.7057 65.2251L18.9097 64.5261C18.796 64.4185 18.796 64.2572 18.9097 64.1497C19.0235 64.0421 19.194 64.0421 19.3077 64.1497L20.1037 64.8487C20.2174 64.9025 20.2174 65.1175 20.1037 65.2251Z" fill="#6C1626"/>
<path d="M20.0468 64.096C20.1606 64.2036 20.1606 64.3649 20.0468 64.4724L19.3077 65.2252C19.194 65.3327 19.0235 65.3327 18.9097 65.2252C18.796 65.1176 18.796 64.9563 18.9097 64.8488L19.6489 64.096C19.7626 64.0423 19.9331 63.9885 20.0468 64.096Z" fill="#6C1626"/>
<path d="M18.5116 63.5587C18.6253 63.4511 18.7959 63.3436 19.0233 63.1823C19.0802 63.1285 19.137 63.1285 19.137 63.021C19.137 63.021 19.1939 62.8597 19.0802 62.8059C18.9665 62.6984 18.8527 62.7521 18.7959 62.7521C18.739 62.7521 18.6822 62.8059 18.6253 62.8597C18.5116 62.9135 18.4548 62.9672 18.3979 63.021C18.2273 63.1285 18.1136 63.2361 18.0568 63.2898C17.8862 63.4511 17.7725 63.5587 17.7725 63.6125C17.6588 63.72 17.6019 63.8275 17.4882 64.0426C17.4314 64.1501 17.3745 64.2577 17.3745 64.419C17.3745 64.4728 17.3745 64.5265 17.4314 64.5803C17.4882 64.6341 17.6019 64.6341 17.6019 64.6341C17.6588 64.6341 17.7725 64.5803 17.7725 64.5803C17.8294 64.5265 17.8862 64.4728 17.9431 64.3652C17.9999 64.2577 17.9999 64.2577 18.0568 64.1501C18.0568 64.0964 18.1136 64.0426 18.1705 63.9351C18.2273 63.8275 18.341 63.72 18.5116 63.5587Z" fill="#C8637A"/>
<path d="M95.1523 38.9858C96.5025 38.9858 97.597 37.9507 97.597 36.6738C97.597 35.3968 96.5025 34.3617 95.1523 34.3617C93.8021 34.3617 92.7075 35.3968 92.7075 36.6738C92.7075 37.9507 93.8021 38.9858 95.1523 38.9858Z" fill="#B32646"/>
<path d="M95.7778 37.2113C95.6641 37.3188 95.4935 37.3188 95.3798 37.2113L94.5838 36.5123C94.4701 36.4047 94.4701 36.2434 94.5838 36.1359C94.6975 36.0284 94.8681 36.0284 94.9818 36.1359L95.7778 36.8349C95.8915 36.9424 95.8915 37.1037 95.7778 37.2113Z" fill="#6C1626"/>
<path d="M95.7209 36.1359C95.8346 36.2434 95.8346 36.4047 95.7209 36.5123L94.9818 37.2651C94.8681 37.3726 94.6975 37.3726 94.5838 37.2651C94.4701 37.1575 94.4701 36.9962 94.5838 36.8887L95.3229 36.1359C95.4366 36.0284 95.6072 36.0284 95.7209 36.1359Z" fill="#6C1626"/>
<path d="M94.1857 35.5989C94.2994 35.4913 94.47 35.3838 94.6974 35.2225C94.7542 35.1687 94.8111 35.1687 94.8111 35.0612C94.8111 35.0612 94.8679 34.8999 94.7542 34.8461C94.6405 34.7385 94.5268 34.7923 94.47 34.7923C94.4131 34.7923 94.3563 34.8461 94.2994 34.8999C94.1857 34.9536 94.1288 35.0074 94.072 35.0612C93.9014 35.1687 93.7877 35.2762 93.7309 35.33C93.5603 35.4913 93.4466 35.5989 93.4466 35.6526C93.3329 35.7602 93.276 35.8677 93.1623 36.0828C93.1054 36.1903 93.0486 36.2979 93.0486 36.4592C93.0486 36.5129 93.0486 36.5667 93.1054 36.6205C93.1623 36.6742 93.276 36.6742 93.276 36.6742C93.3329 36.6742 93.4466 36.6205 93.4466 36.6205C93.5034 36.5667 93.5603 36.5129 93.6171 36.4054C93.674 36.2979 93.674 36.2979 93.7309 36.1903C93.7309 36.1365 93.7877 36.0828 93.8446 35.9752C93.9014 35.8677 94.0151 35.7064 94.1857 35.5989Z" fill="#C8637A"/>
<path d="M123.409 50.6537C125.231 50.6537 126.707 49.2574 126.707 47.5351C126.707 45.8127 125.231 44.4164 123.409 44.4164C121.588 44.4164 120.112 45.8127 120.112 47.5351C120.112 49.2574 121.588 50.6537 123.409 50.6537Z" fill="#B32646"/>
<path d="M124.205 48.2341C124.092 48.3954 123.807 48.3954 123.694 48.2341L122.614 47.3201C122.443 47.2125 122.443 46.9437 122.614 46.8361C122.727 46.6748 123.012 46.6748 123.125 46.8361L124.205 47.7502C124.319 47.8577 124.376 48.0728 124.205 48.2341Z" fill="#6C1626"/>
<path d="M124.149 46.7825C124.319 46.8901 124.319 47.1589 124.149 47.2665L123.182 48.2881C123.068 48.4494 122.784 48.4494 122.67 48.2881C122.5 48.1805 122.5 47.9117 122.67 47.8041L123.637 46.7825C123.751 46.675 123.978 46.6212 124.149 46.7825Z" fill="#6C1626"/>
<path d="M122.102 46.0834C122.272 45.9759 122.5 45.7608 122.784 45.5995C122.841 45.5457 122.955 45.492 122.955 45.3844C122.955 45.3844 123.011 45.1694 122.898 45.0618C122.784 44.9543 122.557 44.9543 122.557 44.9543C122.5 44.9543 122.443 45.0081 122.272 45.0618C122.159 45.1694 122.045 45.2231 121.988 45.2231C121.761 45.3844 121.647 45.492 121.533 45.5995C121.306 45.8146 121.192 45.9759 121.135 46.0297C121.021 46.191 120.908 46.3523 120.737 46.6211C120.624 46.7824 120.567 46.9437 120.567 47.105C120.567 47.2126 120.624 47.2664 120.624 47.3201C120.737 47.4277 120.851 47.4277 120.908 47.4277C121.021 47.4277 121.078 47.3739 121.135 47.3739C121.249 47.3201 121.249 47.2126 121.363 47.0513C121.419 46.89 121.419 46.89 121.476 46.7824C121.476 46.7287 121.533 46.6749 121.647 46.5136C121.704 46.4061 121.874 46.2447 122.102 46.0834Z" fill="#C8637A"/>
<path d="M136.315 32.4259C137.666 32.4259 138.76 31.3908 138.76 30.1138C138.76 28.8369 137.666 27.8018 136.315 27.8018C134.965 27.8018 133.871 28.8369 133.871 30.1138C133.871 31.3908 134.965 32.4259 136.315 32.4259Z" fill="#B32646"/>
<path d="M136.941 30.6513C136.827 30.7588 136.657 30.7588 136.543 30.6513L135.747 29.9523C135.633 29.8447 135.633 29.6834 135.747 29.5759C135.861 29.4684 136.031 29.4684 136.145 29.5759L136.941 30.2749C137.055 30.3824 137.055 30.5437 136.941 30.6513Z" fill="#6C1626"/>
<path d="M136.884 29.5228C136.998 29.6303 136.998 29.7917 136.884 29.8992L136.145 30.652C136.031 30.7595 135.861 30.7595 135.747 30.652C135.633 30.5444 135.633 30.3831 135.747 30.2756L136.486 29.5228C136.6 29.469 136.77 29.469 136.884 29.5228Z" fill="#6C1626"/>
<path d="M135.349 29.0389C135.462 28.9314 135.633 28.8238 135.86 28.6625C135.917 28.6088 135.974 28.6088 135.974 28.5012C135.974 28.5012 136.031 28.3399 135.917 28.2861C135.804 28.1786 135.69 28.2324 135.633 28.2324C135.576 28.2324 135.519 28.2861 135.462 28.3399C135.349 28.3937 135.292 28.4475 135.235 28.5012C135.065 28.6088 134.951 28.7163 134.894 28.7701C134.723 28.9314 134.61 29.0389 134.61 29.0927C134.496 29.2002 134.439 29.3078 134.325 29.5228C134.269 29.6304 134.212 29.7379 134.212 29.8992C134.212 29.953 134.212 30.0068 134.269 30.0605C134.325 30.1143 134.439 30.1143 134.439 30.1143C134.496 30.1143 134.61 30.0605 134.61 30.0605C134.667 30.0068 134.723 29.953 134.78 29.8455C134.837 29.7379 134.837 29.7379 134.894 29.6304C134.894 29.5766 134.951 29.5228 135.008 29.4153C135.064 29.254 135.178 29.1465 135.349 29.0389Z" fill="#C8637A"/>
<path d="M126.707 72.699C128.057 72.699 129.152 71.6639 129.152 70.387C129.152 69.11 128.057 68.0749 126.707 68.0749C125.357 68.0749 124.262 69.11 124.262 70.387C124.262 71.6639 125.357 72.699 126.707 72.699Z" fill="#B32646"/>
<path d="M127.276 70.925C127.162 71.0326 126.991 71.0326 126.878 70.925L126.082 70.226C125.968 70.1185 125.968 69.9572 126.082 69.8496C126.195 69.7421 126.366 69.7421 126.48 69.8496L127.276 70.5486C127.389 70.6562 127.389 70.8175 127.276 70.925Z" fill="#6C1626"/>
<path d="M127.219 69.8496C127.332 69.9572 127.332 70.1185 127.219 70.226L126.48 70.9788C126.366 71.0863 126.195 71.0863 126.082 70.9788C125.968 70.8713 125.968 70.71 126.082 70.6024L126.821 69.8496C126.934 69.7421 127.105 69.7421 127.219 69.8496Z" fill="#6C1626"/>
<path d="M125.683 69.312C125.797 69.2044 125.968 69.0969 126.195 68.9356C126.252 68.8818 126.309 68.8818 126.309 68.7743C126.309 68.7743 126.366 68.613 126.252 68.5592C126.138 68.4517 126.025 68.5054 125.968 68.5054C125.911 68.5054 125.854 68.5592 125.797 68.613C125.683 68.6668 125.627 68.7205 125.57 68.7743C125.399 68.8818 125.285 68.9894 125.229 69.0431C125.058 69.2044 124.944 69.312 124.944 69.3658C124.831 69.4733 124.774 69.5808 124.66 69.7959C124.603 69.9035 124.546 70.011 124.546 70.1723C124.546 70.2261 124.546 70.2798 124.603 70.3336C124.66 70.3874 124.774 70.3874 124.774 70.3874C124.831 70.3874 124.944 70.3336 124.944 70.3336C125.001 70.2798 125.058 70.2261 125.115 70.1185C125.172 70.011 125.172 70.011 125.229 69.9035C125.229 69.8497 125.285 69.7959 125.342 69.6884C125.399 69.5808 125.513 69.4195 125.683 69.312Z" fill="#C8637A"/>
<path d="M119.032 18.4459C121.167 18.4459 122.898 16.8089 122.898 14.7895C122.898 12.7702 121.167 11.1332 119.032 11.1332C116.896 11.1332 115.166 12.7702 115.166 14.7895C115.166 16.8089 116.896 18.4459 119.032 18.4459Z" fill="#B32646"/>
<path d="M119.941 15.5964C119.771 15.7577 119.487 15.7577 119.316 15.5964L118.065 14.521C117.895 14.3597 117.895 14.0909 118.065 13.9296C118.236 13.7683 118.52 13.7683 118.691 13.9296L119.941 15.005C120.112 15.1663 120.112 15.4351 119.941 15.5964Z" fill="#6C1626"/>
<path d="M119.885 13.9296C120.055 14.0909 120.055 14.3597 119.885 14.521L118.747 15.704C118.577 15.8653 118.293 15.8653 118.122 15.704C117.951 15.5427 117.951 15.2738 118.122 15.1125L119.259 13.9296C119.43 13.7683 119.714 13.7683 119.885 13.9296Z" fill="#6C1626"/>
<path d="M117.44 13.069C117.61 12.9077 117.951 12.6926 118.236 12.5313C118.293 12.4775 118.406 12.4237 118.463 12.2624C118.463 12.2624 118.52 12.0473 118.406 11.886C118.293 11.7247 118.008 11.7785 117.951 11.7785C117.838 11.7785 117.781 11.8323 117.667 11.9398C117.497 12.0473 117.383 12.1549 117.326 12.1549C117.042 12.37 116.928 12.4775 116.757 12.585C116.53 12.8001 116.36 13.0152 116.303 13.069C116.132 13.2303 116.075 13.4453 115.848 13.768C115.734 13.983 115.62 14.1443 115.677 14.3594C115.677 14.467 115.734 14.5207 115.734 14.5745C115.848 14.682 116.018 14.682 116.018 14.682C116.132 14.682 116.246 14.6283 116.303 14.5745C116.416 14.5207 116.473 14.4132 116.53 14.1981C116.644 14.0368 116.587 13.983 116.701 13.8755C116.701 13.8217 116.757 13.7142 116.928 13.5529C117.042 13.4991 117.212 13.284 117.44 13.069Z" fill="#C8637A"/>
</svg>
