<svg width="83" height="141" viewBox="0 0 83 141" fill="none" xmlns="http://www.w3.org/2000/svg">
<path d="M45.5619 140.121L39.102 139.987C41.3253 130.395 42.0771 120.522 41.3317 110.705C40.7258 103.192 39.5298 100.222 39.1626 89.889C38.8815 81.9762 39.4862 80.739 39.1626 71.1274C38.7821 59.7986 37.9509 60.6493 38.049 53.0092C38.152 44.9086 39.1081 42.2693 38.9869 33.4259C38.9227 28.7182 38.5882 24.8782 38.3204 22.3989H40.4798C40.7221 24.923 41.0614 28.8455 41.328 33.661C41.8697 43.2848 41.6019 45.8258 42.0902 54.124C42.6246 63.1916 43.0972 62.4088 43.5565 70.8353C44.0678 80.1998 43.5286 81.9835 43.9079 89.4807C44.4241 99.6594 45.7352 102.689 46.6052 110.588C47.6482 120.433 47.297 130.375 45.5619 140.121Z" fill="#267237"/>
<path d="M45.4283 14.8594C45.1041 15.1292 44.829 15.4531 44.6152 15.8167C44.3462 16.2787 44.184 16.795 44.1402 17.3277C44.0291 17.8407 44.0275 18.3714 44.1355 18.885C44.2434 19.3987 44.4585 19.8838 44.7666 20.3087C45.1661 20.6262 45.6285 20.8553 46.1232 20.9806C46.6179 21.106 47.1336 21.1248 47.6361 21.0357C48.7919 20.9914 49.9177 20.6546 50.9078 20.0566C50.6262 20.0379 50.352 19.9583 50.1041 19.8234C49.8562 19.6885 49.6405 19.5014 49.4719 19.275C49.8414 19.3856 50.2224 19.4531 50.6073 19.4762C50.9505 19.5082 51.2965 19.4911 51.6349 19.4253C52.1925 19.2973 52.7032 19.0161 53.1096 18.6134C52.6794 18.7972 52.2138 18.8829 51.7464 18.8643C51.5421 18.8557 51.3391 18.8269 51.1405 18.7782C52.0442 18.6739 52.9337 18.4707 53.793 18.1723C54.8569 17.9036 55.8395 17.3805 56.6564 16.6479C57.3487 15.945 57.833 15.0643 58.056 14.1033C56.4039 13.2628 54.5187 12.9975 52.6988 13.3495C51.9456 13.4508 51.2225 13.7106 50.577 14.1117C50.2814 14.305 50.0079 14.5301 49.7615 14.783C49.7968 14.6566 49.8464 14.5347 49.9093 14.4195C50.1677 13.9841 50.579 13.6606 51.0629 13.5119C50.4929 13.4413 49.9172 13.4291 49.3447 13.4756C48.3848 13.559 47.4461 13.8048 46.5685 14.2026C46.1567 14.3611 45.772 14.5827 45.4283 14.8594Z" fill="#175E26"/>
<path d="M54.3905 15.2617C54.4099 15.3319 51.7464 16.0747 49.535 16.8697C49.06 17.0393 48.4092 17.2841 47.2157 17.7046C46.8 17.8512 46.7225 17.8766 46.5443 17.9469C45.8411 18.2299 45.1612 18.5678 44.511 18.9575C43.7959 19.3226 43.1185 19.7573 42.4886 20.2553C41.9564 20.7161 41.5192 21.2763 41.2017 21.9045C40.8267 22.6758 40.6485 23.528 40.6831 24.385L39.0908 22.7176C39.3623 21.7431 39.8682 20.8499 40.5643 20.116C41.3521 19.3739 42.2837 18.8014 43.3017 18.434C44.5201 17.9189 45.7729 17.4889 47.0509 17.1471C47.6834 16.9569 48.7861 16.6322 50.382 16.2129C52.0179 15.7791 54.3723 15.1962 54.3905 15.2617Z" fill="#267237"/>
<path d="M33.8648 12.4298C34.4752 11.3494 34.6943 10.0916 34.4852 8.86843C34.2292 7.40669 33.4393 6.09215 32.2689 5.17984C32.369 5.59589 32.3577 6.03098 32.2362 6.44128C32.1532 6.71353 32.0223 6.96878 31.8496 7.195C31.992 6.4669 31.9533 5.71498 31.7369 5.00535C31.5748 4.49009 31.3233 4.00734 30.9941 3.57911C30.4411 2.83357 29.7188 2.2301 28.8869 1.81842C29.0348 2.20267 29.1563 2.59661 29.2504 2.99746C29.3085 3.23982 29.3546 3.48217 29.3897 3.70028C28.8119 3.01023 28.1444 2.40056 27.4049 1.88749C25.6711 0.713813 23.6202 0.0978107 21.5266 0.121961C20.2474 0.106111 18.9822 0.389529 17.832 0.949592C17.2448 1.24393 16.6978 1.61249 16.2046 2.04623C16.3118 2.60455 16.4654 3.15296 16.6638 3.68574C17.5595 5.95181 19.1417 7.88093 21.1886 9.20288C22.3044 9.95445 23.531 10.5269 24.8238 10.8993C24.7269 10.9842 24.6227 11.0702 24.5088 11.1538C24.2408 11.3531 23.9534 11.5249 23.6508 11.6664C24.1304 12.271 24.7773 12.7211 25.5109 12.9605C26.0769 13.1235 26.67 13.1705 27.2546 13.0987C27.7829 13.0557 28.3024 12.9373 28.7972 12.7473C28.7086 12.9524 28.581 13.1384 28.4215 13.295C28.2175 13.4944 27.9679 13.6412 27.6945 13.7227C28.3769 14.1464 29.152 14.398 29.9532 14.4559C30.7514 14.5451 31.5583 14.3981 32.2737 14.0329C32.945 13.6597 33.4966 13.1039 33.8648 12.4298Z" fill="#175E26"/>
<path d="M20.5957 2.99619C20.5654 3.04829 21.919 3.86865 26.1698 6.62056C26.7837 6.98093 27.3764 7.37621 27.945 7.80445C28.0226 7.86503 28.3376 8.11344 28.7363 8.43941C29.0889 8.72659 29.3325 8.93017 29.4452 9.02347C30.1322 9.59421 30.5491 9.88988 31.0508 10.2861C31.5524 10.6824 31.5355 10.6993 33.6585 12.6018C34.7587 13.587 34.7054 13.53 34.9102 13.7251C35.7415 14.4083 36.4607 15.2174 37.0417 16.1232C37.4397 16.9232 37.7151 17.7786 37.8584 18.6606C37.9893 19.2725 38.045 19.7415 38.0753 19.9935C38.3407 22.2607 38.5891 24.5703 38.6739 25.3665L40.5982 25.2004C40.4334 23.6882 40.2819 22.4013 40.1595 21.4004C40.0694 20.4139 39.9127 19.4345 39.6906 18.4691C39.4883 17.4578 39.1197 16.4869 38.6 15.5961C38.0206 14.7989 37.3408 14.0796 36.5776 13.4561C35.2531 12.2286 34.1626 11.3707 33.2671 10.669C31.9244 9.61724 31.0738 9.03438 30.829 8.86716C30.4655 8.61875 29.9808 8.29642 29.1107 7.76203C27.5052 6.77203 26.2146 6.05103 25.3204 5.553C22.194 3.81655 20.6187 2.94529 20.5957 2.99619Z" fill="#267237"/>
<path d="M28.253 28.1523C28.276 28.1838 29.0164 27.4022 31.4399 24.9872C31.8192 24.6091 32.3245 24.1075 33.0249 23.4786C33.1703 23.3489 33.3024 23.2362 33.4332 23.115C33.661 22.9175 34.0258 22.5988 34.4681 22.2462C34.7419 22.0269 35.1333 21.7155 35.6713 21.3471C36.011 21.1051 36.3682 20.8888 36.7401 20.7C37.0333 20.5265 37.3577 20.4125 37.695 20.3643C38.0855 20.3365 38.4754 20.4259 38.8146 20.6212L38.9358 19.521C38.2815 19.4348 37.6162 19.4978 36.9897 19.7051C36.2837 19.9856 35.6345 20.3921 35.0739 20.9048C34.552 21.3234 34.0517 21.7683 33.575 22.2377C33.117 22.6703 32.774 23.0181 32.6274 23.1684C31.7925 24.0166 31.2472 24.6746 30.6656 25.358C29.0539 27.252 28.2287 28.1208 28.253 28.1523Z" fill="#267237"/>
<path d="M78.7833 72.0895C78.73 72.1404 77.368 70.7772 72.8821 66.5494C72.1805 65.889 71.2462 65.0104 69.9375 63.9029C69.0275 63.1322 68.3792 62.6208 67.2317 61.729C65.6541 60.4397 63.9946 59.2541 62.2634 58.1797C60.9194 57.2846 59.4557 56.5838 57.9157 56.0979C56.2633 55.5524 54.5061 55.4018 52.7851 55.6581C51.727 55.8606 50.7014 56.2059 49.7363 56.6844C45.4176 58.8777 43.3636 64.3839 43.0219 65.3328L42.6196 62.2852C43.0401 61.2709 45.1292 56.5257 50.0368 54.8098C51.5632 54.2914 53.1776 54.0821 54.7857 54.1943C57.1455 54.4352 59.4154 55.2285 61.4116 56.5099C62.9506 57.4264 64.4274 58.4436 65.8321 59.5551C67.1953 60.5669 68.1841 61.3727 68.8942 61.9786C69.4165 62.4185 69.969 62.902 70.5737 63.4545C71.9224 64.6869 72.8057 65.6054 74.3859 67.2473C76.481 69.4152 78.8585 72.0192 78.7833 72.0895Z" fill="#267237"/>
<path d="M13.1507 79.726C13.6774 79.6954 14.2054 79.756 14.7114 79.9053C15.3505 80.0961 15.9388 80.4273 16.4334 80.8747C16.973 81.2482 17.4279 81.7311 17.7685 82.2921C18.109 82.8531 18.3275 83.4796 18.4097 84.1307C18.3165 84.7618 18.0901 85.3658 17.7456 85.9027C17.4011 86.4396 16.9463 86.8972 16.4115 87.2449C15.3198 88.1945 14.004 88.8501 12.5884 89.1498C12.8901 88.8236 13.0992 88.4229 13.1943 87.9889C13.2487 87.7334 13.2614 87.4706 13.2319 87.211C12.9904 87.6282 12.7004 88.0155 12.3679 88.3646C12.082 88.6866 11.752 88.9665 11.3876 89.1959C10.7694 89.5552 10.063 89.7344 9.3482 89.7133C9.8958 89.5128 10.3923 89.1937 10.8023 88.779C10.9806 88.5973 11.1405 88.3984 11.2797 88.1853C10.3675 88.8626 9.38419 89.4388 8.34729 89.9035C7.14664 90.5661 5.80314 90.9275 4.4321 90.9565C3.20275 90.9067 2.01104 90.5184 0.988281 89.8345C1.77783 87.6573 3.27009 85.8052 5.22944 84.5706C6.0034 84.0202 6.88509 83.6398 7.81654 83.4545C8.25307 83.377 8.69692 83.3485 9.13978 83.3697C8.99852 83.2827 8.84766 83.2124 8.69022 83.1601C8.08233 82.9833 7.43037 83.0395 6.86167 83.3176C8.09771 81.8343 9.72048 80.7224 11.55 80.1052C12.0606 79.8965 12.6007 79.7686 13.1507 79.726Z" fill="#175E26"/>
<path d="M5.31588 87.7478C5.35829 87.829 8.42404 86.2319 11.1202 85.0674C11.6982 84.8178 12.5016 84.4845 13.9509 83.8556C14.3617 83.6751 14.6925 83.5357 14.7688 83.503C16.4495 82.7856 18.1133 82.2222 18.1133 82.2222C18.7022 82.0222 19.5407 81.7375 20.6422 81.4527C21.8322 81.1222 23.0448 80.8792 24.2702 80.7256C25.8764 80.4977 27.5081 80.5197 29.1075 80.7911C30.9238 81.0539 32.653 81.7396 34.1557 82.7929C35.1493 83.5303 36.02 84.4202 36.7356 85.4297C37.9021 86.98 38.7741 88.7314 39.3081 90.5966L39.2645 86.8402C38.5594 85.0812 37.4459 83.5153 36.0158 82.2719C34.1759 80.7421 31.9404 79.7649 29.568 79.4533C27.0553 79.0788 24.4917 79.244 22.0478 79.938C20.7186 80.2606 19.4132 80.6748 18.1411 81.1776C16.5995 81.7724 15.0907 82.4491 13.6213 83.2049C12.8809 83.5684 11.5964 84.2179 9.78242 85.197C7.92237 86.1931 5.27589 87.6727 5.31588 87.7478Z" fill="#267237"/>
<path d="M69.5315 107.137C68.9377 106.802 68.2903 106.573 67.6181 106.46C66.7664 106.319 65.8939 106.371 65.065 106.613C63.9235 106.929 61.769 107.492 60.9232 109.271C60.1622 110.871 60.8711 112.573 61.4745 114.022C62.2054 115.743 63.3617 117.25 64.8347 118.4C64.6683 117.849 64.6533 117.263 64.7911 116.704C64.8735 116.377 65.0077 116.065 65.1886 115.779C65.2328 116.401 65.3495 117.016 65.5363 117.61C65.6865 118.146 65.9109 118.658 66.2028 119.131C66.7169 119.9 67.4354 120.509 68.2773 120.891C67.7543 120.346 67.3575 119.693 67.1153 118.978C67.0115 118.666 66.9389 118.344 66.8983 118.018C67.5731 119.322 68.3881 120.549 69.3291 121.677C70.3467 123.129 71.7015 124.311 73.277 125.123C74.734 125.764 76.3395 125.99 77.9169 125.778C78.2362 122.8 77.554 119.801 75.9781 117.254C75.392 116.176 74.5842 115.234 73.6079 114.49C73.1466 114.153 72.6491 113.869 72.1247 113.642C72.3381 113.621 72.5532 113.625 72.7657 113.654C73.5702 113.796 74.2936 114.231 74.7954 114.875C74.5743 113.973 74.2612 113.096 73.8611 112.258C73.1853 110.857 72.2774 109.581 71.1759 108.482C70.7003 107.952 70.1456 107.498 69.5315 107.137Z" fill="#175E26"/>
<path d="M74.0768 120.902C73.9823 120.971 71.3285 117.375 68.859 114.494C68.3282 113.875 67.5854 113.031 66.2634 111.472C65.9083 111.054 65.7787 110.897 65.6418 110.745C65.5751 110.668 65.5206 110.612 65.5121 110.599C65.0504 110.088 63.0886 107.812 63.0122 107.722C62.0998 106.675 61.0662 105.739 59.9332 104.935C58.3852 103.669 56.4936 102.896 54.5021 102.714C53.0693 102.65 51.6446 102.961 50.3687 103.616C49.3601 104.193 48.4782 104.968 47.7755 105.893C47.0729 106.819 46.5639 107.877 46.2791 109.003L45.8174 106.474C46.632 104.744 47.9703 103.313 49.6429 102.385C51.6617 101.356 53.9776 101.069 56.1864 101.574C57.1822 101.842 58.1329 102.256 59.0074 102.803C60.4567 103.67 61.773 104.742 62.9153 105.986C64.3868 107.535 65.7553 109.179 67.0123 110.907C67.663 111.755 68.7875 113.231 70.3385 115.399C71.932 117.616 74.1665 120.836 74.0768 120.902Z" fill="#267237"/>
<path d="M16.087 46.5553C14.8522 45.8427 13.4095 45.5778 12.0021 45.8053C10.3203 46.0847 8.80258 46.9796 7.74401 48.316C8.22219 48.2043 8.72146 48.2214 9.19085 48.3657C9.50381 48.4629 9.79654 48.616 10.0548 48.8177C9.2198 48.6469 8.35561 48.6835 7.53801 48.9243C6.94472 49.1067 6.38784 49.3913 5.89245 49.7653C5.02978 50.3933 4.3287 51.2173 3.847 52.1694C4.29022 52.0005 4.74448 51.862 5.20659 51.755C5.48893 51.6908 5.75915 51.6399 6.01483 51.6023C5.21559 52.2633 4.50922 53.0292 3.91486 53.8792C2.55195 55.859 1.82683 58.2082 1.83669 60.6117C1.80478 62.083 2.11768 63.5412 2.75036 64.8699C3.08306 65.5474 3.5013 66.1794 3.99483 66.7505C4.6367 66.6316 5.26772 66.4601 5.88154 66.2379C8.49271 65.2288 10.7224 63.4275 12.2578 61.0868C13.132 59.8098 13.8005 58.4036 14.239 56.9195C14.3348 57.031 14.4317 57.1522 14.5286 57.283C14.7543 57.5929 14.9483 57.9245 15.1079 58.273C15.807 57.7278 16.3303 56.9891 16.6129 56.1488C16.8054 55.5001 16.8648 54.8192 16.7874 54.147C16.7434 53.5398 16.6128 52.942 16.3996 52.3718C16.6665 52.4904 16.9042 52.6661 17.0957 52.8866C17.2873 53.1071 17.4282 53.3669 17.5084 53.6478C18.0021 52.8682 18.299 51.9804 18.3736 51.0607C18.482 50.1458 18.3207 49.2192 17.9095 48.3948C17.4874 47.6222 16.8556 46.9846 16.087 46.5553Z" fill="#175E26"/>
<path d="M5.7833 60.9231C5.84631 60.9607 6.85934 59.3212 10.2523 54.1748C10.783 53.3702 11.4895 52.3002 12.5086 50.9213C12.7158 50.6401 12.906 50.3869 13.0951 50.1397C13.0951 50.1397 13.8875 49.0988 14.6413 48.1827C15.8772 46.5543 17.298 45.075 18.8751 43.7743C20.0722 42.7861 21.4279 42.0077 22.8848 41.472C24.8372 40.6821 26.9821 40.498 29.0406 40.9436C30.6215 41.3793 32.0755 42.186 33.2817 43.2969C35.5413 45.1811 37.2913 47.6028 38.3711 50.3396L38.5941 47.1127C37.7895 45.5843 36.7469 44.1936 35.5053 42.9927C34.0257 41.4068 32.1666 40.2237 30.1033 39.555C24.751 38.0245 19.8894 41.5713 19.3186 41.987C17.8882 43.0652 16.6071 44.3283 15.5089 45.7434C14.1887 47.3072 12.948 48.9362 11.7912 50.6244C10.7624 52.1342 10.1129 53.2321 8.95326 55.1927C7.41069 57.7895 5.69848 60.8722 5.7833 60.9231Z" fill="#267237"/>
<path d="M58.3509 97.0457C58.1813 96.2229 58.3012 95.3668 58.6902 94.6222C59.1576 93.7348 59.9386 93.0532 60.8811 92.71C60.7541 92.9145 60.6747 93.145 60.6489 93.3844C60.6231 93.6237 60.6515 93.8658 60.732 94.0927C60.7919 93.595 60.9725 93.1196 61.2579 92.7076C61.4703 92.4106 61.7322 92.1523 62.0322 91.9442C62.5428 91.5797 63.1325 91.3413 63.7529 91.2487C63.5759 91.4647 63.4139 91.6926 63.2682 91.9309C63.1798 92.0763 63.1022 92.2181 63.0331 92.3538C63.55 92.0295 64.1085 91.7768 64.6932 91.6025C66.0502 91.208 67.4952 91.2372 68.835 91.6861C69.6627 91.94 70.4193 92.3845 71.0441 92.9839C71.3602 93.2956 71.6354 93.6462 71.8632 94.0272C71.6785 94.3638 71.4661 94.6844 71.2283 94.9857C70.1809 96.2574 68.7619 97.1697 67.1701 97.5946C66.2955 97.8456 65.387 97.9585 64.4776 97.9291C64.5212 98.0026 64.5709 98.0789 64.6266 98.1581C64.7574 98.3418 64.9069 98.5116 65.0725 98.6646C64.6384 98.9538 64.1291 99.1092 63.6075 99.1118C63.2099 99.0984 62.8189 99.0057 62.4576 98.8391C62.1266 98.7014 61.817 98.5174 61.5378 98.2926C61.5547 98.4638 61.609 98.6293 61.6967 98.7773C61.7844 98.9253 61.9035 99.0523 62.0456 99.1493C61.5186 99.2786 60.9682 99.2786 60.4412 99.1493C59.9097 99.0402 59.4215 98.7782 59.0368 98.3956C58.6861 98.0188 58.4484 97.5511 58.3509 97.0457Z" fill="#175E26"/>
<path d="M68.2798 93.9532C68.2895 93.9956 67.1892 94.2574 63.6848 95.1989C63.1371 95.3455 62.4088 95.5431 61.4503 95.8557C60.7839 96.0738 60.327 96.2398 59.5273 96.5391C58.3879 96.9124 57.2808 97.3776 56.2167 97.9302C55.4902 98.3501 54.8631 98.9222 54.3785 99.6073C54.0036 100.159 53.7348 100.775 53.586 101.425L52.7378 101.495C53.1916 100.159 54.009 98.9762 55.0983 98.0793C55.9905 97.4395 56.9699 96.931 58.0065 96.5694C59.1176 96.1049 60.2579 95.7134 61.42 95.3976C62.4537 95.1032 63.1868 94.9432 64.4967 94.6597C66.2283 94.284 68.2677 93.8963 68.2798 93.9532Z" fill="#267237"/>
<path d="M21.2588 98.7239C21.2988 98.7397 21.7435 97.6964 23.2521 94.4004C23.4945 93.8854 23.8035 93.1995 24.2724 92.3065C24.3669 92.1247 24.4554 91.9599 24.5426 91.8C24.5426 91.8 24.9062 91.1262 25.2697 90.524C25.9625 89.2083 26.8452 88.0017 27.8895 86.9432C28.829 86.0921 29.9239 85.4301 31.114 84.9935C32.6971 84.4126 34.399 84.2316 36.0689 84.4664L35.463 83.7769C33.8691 83.6118 32.2587 83.8231 30.7614 84.3937C29.5188 84.8657 28.3836 85.5823 27.423 86.5009C26.6765 87.247 26.0436 88.0986 25.5448 89.0287C24.9825 89.9775 24.4614 90.8548 23.8204 92.1986C23.3575 93.168 23.0788 93.8648 22.5808 95.1068C21.9264 96.756 21.2042 98.7021 21.2588 98.7239Z" fill="#267237"/>
<path d="M59.6777 74.0005C59.6365 74.0174 59.193 72.9741 57.671 69.6842C57.4287 69.1692 57.1149 68.4845 56.6435 67.5927C56.3163 66.9735 56.0739 66.5518 55.6438 65.8138C55.0779 64.7561 54.4317 63.7433 53.711 62.7844C52.574 61.5272 51.0769 60.6513 49.4238 60.2761C48.1991 59.9769 46.9248 59.9418 45.6855 60.1731L46.0963 59.4848C47.2653 59.2912 48.4617 59.3411 49.6104 59.6314C51.0586 60.0182 52.3856 60.7643 53.4687 61.8005C54.2194 62.5419 54.8549 63.3914 55.3542 64.3209C55.9864 65.3454 56.5668 66.4009 57.093 67.4836C57.5596 68.453 57.8407 69.1474 58.3424 70.3918C59.0028 72.035 59.731 73.9786 59.6777 74.0005Z" fill="#267237"/>
<path d="M16.2817 35.91C16.4178 35.0827 16.2637 34.2338 15.8455 33.5071C15.3419 32.6415 14.5348 31.9938 13.5807 31.6894C13.741 31.9298 13.8351 32.2082 13.8534 32.4965C13.8645 32.6889 13.8411 32.8818 13.7843 33.066C13.7051 32.5708 13.5054 32.1026 13.2027 31.7028C12.9791 31.4156 12.7073 31.1696 12.3993 30.9757C11.8745 30.6317 11.2757 30.417 10.6519 30.3492C10.8367 30.5578 11.0067 30.7788 11.1609 31.0109C11.2554 31.1526 11.339 31.292 11.4129 31.4241C10.8833 31.121 10.315 30.8911 9.72371 30.7406C8.35259 30.3988 6.90979 30.4833 5.58798 30.983C4.7718 31.2713 4.0341 31.7459 3.43348 32.3692C3.13026 32.6933 2.86927 33.0545 2.65674 33.4441C2.85531 33.7731 3.08065 34.0851 3.33048 34.3771C4.42752 35.6061 5.88178 36.4608 7.48923 36.8212C8.3735 37.037 9.28609 37.113 10.1939 37.0466C10.1527 37.123 10.1054 37.2017 10.0533 37.2817C9.92977 37.4703 9.78769 37.6461 9.6292 37.8064C10.074 38.0782 10.589 38.2131 11.11 38.1942C11.5068 38.1652 11.8937 38.0568 12.2478 37.8755C12.5729 37.7253 12.8749 37.5295 13.1445 37.2938C13.1348 37.4654 13.0874 37.6327 13.0057 37.784C12.9241 37.9352 12.8101 38.0665 12.6719 38.1687C13.2033 38.279 13.7535 38.2582 14.2751 38.1081C14.8021 37.9786 15.2795 37.6971 15.648 37.2987C15.9865 36.9052 16.2063 36.4236 16.2817 35.91Z" fill="#175E26"/>
<path d="M6.23685 33.2188C6.22958 33.2612 7.34198 33.4781 10.8779 34.2791C11.4317 34.4002 12.1672 34.5711 13.1366 34.8462C13.3341 34.9019 13.5135 34.954 13.6892 35.0061C14.3338 35.2 14.8197 35.3624 15.0863 35.452C17.0251 36.1064 17.9945 36.4348 18.5314 36.6711C19.4974 37.0939 20.4229 37.6037 21.2966 38.1942C22.0736 38.7249 22.8034 39.3217 23.4778 39.9779L24.7089 39.6265C23.7765 38.8953 22.7933 38.2312 21.7667 37.6393C20.7825 37.0683 19.7593 36.5674 18.7046 36.1403C18.1763 35.9319 17.654 35.7622 16.6083 35.4217C15.1784 34.9588 14.306 34.6668 13.1499 34.3881C12.1054 34.1349 11.3674 34.0052 10.0466 33.7737C8.30048 33.4672 6.24776 33.1606 6.23685 33.2188Z" fill="#267237"/>
<path d="M63.7721 38.8982C63.3566 38.5739 62.888 38.3242 62.387 38.1603C61.7514 37.9542 61.0776 37.8938 60.4155 37.9834C59.7593 37.984 59.1106 38.123 58.5118 38.3913C57.9129 38.6596 57.3774 39.0512 56.9402 39.5405C56.659 40.1131 56.5028 40.739 56.4819 41.3766C56.461 42.0142 56.5759 42.6489 56.819 43.2388C57.1807 44.639 57.892 45.9244 58.8862 46.9746C58.8238 46.535 58.8794 46.0866 59.0474 45.6756C59.1481 45.4345 59.2868 45.2111 59.4582 45.014C59.4205 45.4944 59.4392 45.9775 59.5139 46.4535C59.5675 46.8808 59.6804 47.2984 59.8496 47.6944C60.1546 48.341 60.6338 48.8899 61.2334 49.2794C60.7408 48.5935 60.4855 47.7655 60.5064 46.9213C60.8705 47.9969 61.3512 49.0294 61.9399 50.0004C62.5516 51.2277 63.4518 52.2884 64.5633 53.0916C65.6048 53.7488 66.8073 54.1064 68.0387 54.1252C68.625 51.8836 68.4485 49.5107 67.537 47.3805C67.2129 46.4881 66.7033 45.6744 66.0417 44.9934C65.7273 44.6832 65.3794 44.4088 65.0044 44.1754C65.1686 44.1838 65.3313 44.2115 65.4891 44.2578C66.0898 44.4576 66.5944 44.8741 66.9045 45.426C66.7304 43.5032 66.0266 41.6664 64.8711 40.1197C64.5693 39.6588 64.1986 39.2469 63.7721 38.8982Z" fill="#175E26"/>
<path d="M65.6659 49.9507C65.5859 49.9931 63.9694 46.937 62.4111 44.4481C62.0767 43.9137 61.6053 43.183 60.7728 41.8379C60.5305 41.455 60.3439 41.1533 60.299 41.083C59.3296 39.538 58.2742 38.1288 58.2742 38.1288C57.9022 37.6307 57.3726 36.917 56.6298 36.0603C55.8378 35.1126 54.9771 34.2244 54.0548 33.4029C52.8627 32.3025 51.5067 31.3942 50.0354 30.7104C48.2178 29.8888 46.6692 29.1351 44.7437 29.4901C43.3614 29.7723 42.1045 30.4865 41.1545 31.5295L40.9121 29.4986C41.6553 28.8118 42.5431 28.3004 43.5101 28.0021C46.1021 27.2266 48.4129 28.4189 50.4171 29.3435C52.6981 30.4623 54.7147 32.0539 56.3329 34.0124C57.2439 35.0329 58.0833 36.1152 58.8449 37.2514C59.7762 38.6184 60.6337 40.0341 61.4139 41.4926C61.8149 42.2197 62.5044 43.4762 63.4411 45.3121C64.4033 47.1903 65.7423 49.9107 65.6659 49.9507Z" fill="#267237"/>
<path d="M22.7685 58.4924C22.8085 58.5081 23.2532 57.466 24.7752 54.1749C25.0175 53.6599 25.3302 52.9764 25.8015 52.0846C26.1287 51.4642 26.3711 51.0437 26.8025 50.3045C27.3783 49.2529 28.0236 48.2409 28.734 47.2751C29.5289 46.2657 30.9963 44.4129 33.123 44.2688C33.6232 44.237 34.1251 44.297 34.6038 44.4457L34.1348 43.5805C33.6423 43.512 33.1417 43.5267 32.654 43.6241C31.6266 43.8897 30.6929 44.435 29.9567 45.1994C29.4 45.6988 28.8931 46.2511 28.4432 46.8486C27.9466 47.4706 27.4947 48.127 27.0909 48.8128C26.4602 49.8382 25.8814 50.8945 25.3568 51.978C24.8903 52.9474 24.6104 53.6417 24.1075 54.8862C23.4422 56.5269 22.714 58.4706 22.7685 58.4924Z" fill="#267237"/>
<path d="M67.514 65.1183C67.1309 65.2937 66.7607 65.4961 66.4064 65.7241C66.2421 65.8369 66.0869 65.9625 65.9423 66.0998C65.7051 66.3359 65.4979 66.6005 65.3255 66.8874C64.918 68.0292 64.9781 69.2857 65.4927 70.3834C66.0439 72.185 67.176 73.7534 68.7124 74.8438C69.5984 75.4797 70.6086 75.9216 71.677 76.1406C72.7454 76.3596 73.8479 76.3508 74.9127 76.1148C75.9774 75.8788 76.9804 75.4208 77.8562 74.7708C78.7319 74.1209 79.4608 73.2935 79.9951 72.3428C80.565 71.4495 80.9496 70.4509 81.1262 69.4062C81.3027 68.3614 81.2675 67.2918 81.0226 66.2609C80.61 64.8192 79.7808 63.5314 78.6391 62.559C77.912 61.7863 76.9542 61.2698 75.909 61.0867C75.3405 60.9942 74.7579 61.0429 74.2126 61.2285C73.5428 61.5269 72.8931 61.8685 72.2677 62.2512C72.0705 62.3672 71.8574 62.4537 71.6352 62.5081C71.4417 62.5446 71.2463 62.5692 71.0499 62.582C70.7108 62.6206 70.3819 62.7225 70.0805 62.8826C69.8313 63.0516 69.6055 63.2529 69.4092 63.4812C68.9911 63.9089 68.9717 63.9792 68.7342 64.2155C68.3718 64.5721 67.961 64.876 67.514 65.1183Z" fill="#C80D25"/>
<path d="M80.7815 65.5424C80.6981 65.3281 80.6038 65.1182 80.4992 64.9135L80.4895 64.8941C80.3901 64.701 80.2863 64.5192 80.1781 64.3488L80.1684 64.333C80.069 64.1755 79.966 64.0301 79.8642 63.8907L79.8061 63.8132C79.7116 63.692 79.6158 63.5708 79.5225 63.4606L79.4413 63.3673C79.3626 63.2776 79.285 63.1928 79.2099 63.1152L79.1299 63.0316C79.0802 62.9807 79.0354 62.9371 78.9881 62.8922C78.867 62.7771 78.7518 62.6669 78.6367 62.5614C78.4877 62.4257 78.3265 62.2839 78.152 62.1422C77.9533 61.9822 77.7885 61.8598 77.6479 61.7677L77.5558 61.7047L77.4565 61.6417C77.1185 61.4322 76.7508 61.2749 76.3659 61.1752H76.355C76.2081 61.139 76.0592 61.1115 75.9091 61.0928C75.6754 61.0609 75.4396 61.0467 75.2038 61.0504H75.1965C75.1202 61.0504 75.0354 61.0661 74.9542 61.0746C75.2771 61.2305 75.6108 61.3629 75.9527 61.4709C77.2199 62.1252 78.2299 63.1872 78.8197 64.4857C79.3109 65.5037 79.5601 66.6215 79.5479 67.7518C79.5358 68.882 79.2625 69.9942 78.7494 71.0013C77.8169 72.7128 76.2701 74.0071 74.421 74.6233C71.3916 75.7139 68.773 74.5784 68.7148 74.845C69.8889 75.6422 71.2451 76.1303 72.6579 76.264C72.79 76.2737 72.9233 76.281 73.059 76.2846H73.139C73.7325 76.2966 74.3254 76.2397 74.9057 76.115C75.0911 76.0738 75.2692 76.0253 75.4462 75.9732C75.5031 75.9562 75.5576 75.9356 75.6134 75.9174C75.7346 75.8799 75.8436 75.8411 75.9539 75.7963C76.0169 75.772 76.0751 75.7466 76.1393 75.7211C76.2387 75.6799 76.3368 75.6375 76.4325 75.6L76.6119 75.5139C76.704 75.4679 76.7936 75.4206 76.8821 75.3734C76.9378 75.3431 76.9936 75.3128 77.0469 75.2813C77.1366 75.2292 77.2238 75.1758 77.3098 75.1213C77.3547 75.0922 77.4032 75.0631 77.4468 75.0341C77.5526 74.9638 77.6544 74.8923 77.7521 74.8196L77.8152 74.7747C77.9363 74.6863 78.0454 74.5954 78.1544 74.5057L78.2477 74.4233C78.3217 74.3591 78.3944 74.2949 78.4634 74.2307C78.501 74.1967 78.5361 74.1616 78.5725 74.1277L78.7458 73.9568L78.85 73.849C78.9021 73.7932 78.953 73.7387 79.0015 73.6842L79.0936 73.5824C79.142 73.5266 79.1881 73.4709 79.2329 73.4176L79.308 73.3267C79.3565 73.2673 79.4013 73.2055 79.445 73.151L79.4934 73.0892C79.5516 73.0129 79.6037 72.9401 79.6522 72.8711L79.691 72.8153L79.7879 72.6736L79.823 72.6202L79.8812 72.5294L79.9442 72.4312L79.9951 72.3428C80.5779 71.3863 80.975 70.3285 81.1657 69.2249C81.179 69.1449 81.1923 69.0649 81.202 68.9825C81.202 68.9571 81.2105 68.9244 81.2129 68.9014C81.2275 68.7802 81.2347 68.659 81.2432 68.5451C81.2432 68.4797 81.2517 68.413 81.2541 68.3524C81.2602 68.2131 81.2626 68.0725 81.2602 67.9295V67.8641C81.2602 67.7175 81.2469 67.5696 81.2323 67.4194C81.2323 67.3782 81.2238 67.3406 81.219 67.2982C81.2032 67.1552 81.1838 67.011 81.1584 66.8644L81.1487 66.8074C81.116 66.6257 81.0748 66.4439 81.0275 66.2573C80.9621 66.0153 80.8836 65.7771 80.7924 65.5436L80.7815 65.5424Z" fill="#9F122D"/>
<path d="M66.7638 66.6887C66.4947 66.8656 66.2895 67.1243 66.1785 67.4266C65.981 68.1836 65.9745 68.9777 66.1595 69.7379C66.3446 70.498 66.7154 71.2002 67.2388 71.7817C67.3782 71.9932 67.5633 72.1707 67.7803 72.3014C67.9973 72.432 68.2408 72.5124 68.493 72.5366C68.9105 72.4909 69.2928 72.2813 69.5557 71.9538C70.0525 71.3297 69.8514 70.5384 69.4636 69.0177C69.2447 68.1797 68.8336 67.4043 68.2628 66.7529C68.123 66.61 67.9458 66.5096 67.7514 66.4633C67.4055 66.4091 67.052 66.4898 66.7638 66.6887Z" fill="#D9766A"/>
<path d="M70.4899 65.6114C70.3065 65.2288 70.2636 64.7938 70.3687 64.3827C70.4245 64.1778 70.5187 63.9854 70.6462 63.8156C70.9233 63.7879 71.2022 63.8476 71.4436 63.9864C71.6435 64.1076 71.7162 64.2506 72.0422 64.636C72.2603 64.8941 72.4421 65.1122 72.5729 65.2697C72.5645 65.0045 72.5204 64.7416 72.4421 64.4881C72.3542 64.0943 72.1483 63.7367 71.8519 63.463C71.6534 63.3007 71.4191 63.1877 71.1685 63.1334C71.3195 62.9513 71.4888 62.7852 71.6738 62.6378C72.0421 62.36 72.4552 62.1473 72.8953 62.0089C73.2862 61.8624 73.6887 61.7489 74.0985 61.6696C73.9333 61.6403 73.7659 61.6249 73.5981 61.6235C73.0879 61.6335 72.5865 61.7577 72.1306 61.987C71.6511 62.1966 71.2042 62.4741 70.8038 62.811C70.827 62.6547 70.8651 62.5009 70.9177 62.3518C71.0342 62.032 71.2116 61.7378 71.4399 61.4854C71.6844 61.2132 71.9806 60.9924 72.3112 60.8359C72.1647 60.8471 72.0197 60.8735 71.8786 60.9146C71.5461 61.0171 71.2412 61.1936 70.9867 61.4309C70.7079 61.7122 70.4807 62.0403 70.3154 62.4003C70.2112 62.5905 70.1349 62.7541 70.084 62.8668C70.0028 62.7189 69.8962 62.5299 69.7726 62.3118C69.6427 62.0204 69.4631 61.7539 69.2418 61.5242C69.0481 61.3674 68.815 61.2668 68.5681 61.2333C68.8179 61.4775 69.0251 61.7618 69.1812 62.0743C69.3372 62.3868 69.4389 62.7237 69.4817 63.0704C69.2289 62.9832 68.9678 62.9223 68.7026 62.8886C68.3108 62.8417 67.9144 62.8494 67.5247 62.9116C67.1917 62.9543 66.8634 63.0286 66.5444 63.1334C67.0158 63.1661 67.3999 63.1746 67.6702 63.1758C68.0748 63.1468 68.4815 63.1878 68.8722 63.297C69.0367 63.3515 69.1948 63.4239 69.3436 63.5127C68.9461 63.6774 68.6027 63.9503 68.3524 64.3003C68.1528 64.5794 68.022 64.9016 67.9704 65.2408C67.9188 65.58 67.948 65.9266 68.0555 66.2524C68.1175 65.8025 68.267 65.369 68.4954 64.9765C68.6139 64.7625 68.7675 64.57 68.9498 64.4069C69.0784 64.299 69.2154 64.2014 69.3594 64.1149C69.5447 63.9937 69.7047 63.9125 69.821 63.8544C69.7413 64.0906 69.7226 64.3432 69.7665 64.5887C69.8117 64.7992 69.8992 64.9983 70.0235 65.1741C70.1478 65.3499 70.3065 65.4987 70.4899 65.6114Z" fill="#267237"/>
<path d="M27.3188 90.3483C27.1011 90.2784 26.8914 90.1854 26.6935 90.0708C26.0089 89.6964 26.0719 89.5534 25.6938 89.4031C25.2587 89.2701 24.7972 89.2476 24.3512 89.3377C23.9416 89.3777 23.8907 89.4298 23.5296 89.4746C23.0226 89.5097 22.5132 89.4869 22.0113 89.4068C21.1999 89.4812 20.4444 89.8522 19.8895 90.4489C19.139 91.1058 18.5776 91.9512 18.2633 92.8978C17.7297 94.4515 17.7131 96.1362 18.2161 97.7C18.4968 98.9696 19.1494 100.127 20.0907 101.024C20.7026 101.564 21.4182 101.973 22.1937 102.226C22.9692 102.48 23.7883 102.572 24.6008 102.499C26.1908 102.213 27.6235 101.361 28.6336 100.101C29.9995 98.919 30.885 97.2777 31.1225 95.4874C31.1882 94.7502 31.1077 94.0073 30.8857 93.3014C30.6636 92.5954 30.3043 91.9402 29.8284 91.3734C29.5483 91.0931 29.2199 90.8657 28.859 90.7021C28.6115 90.6076 28.356 90.5358 28.0955 90.4877C27.8344 90.4544 27.5752 90.4079 27.3188 90.3483Z" fill="#C80D25"/>
<path d="M31.1223 95.4873C31.1905 94.5925 31.055 93.6939 30.726 92.859C30.6028 92.5408 30.4498 92.2349 30.2692 91.9454C30.1443 91.7403 29.9977 91.5493 29.8317 91.3758C29.5519 91.0952 29.2235 90.8677 28.8623 90.7045C29.6572 91.8424 30.1231 93.1774 30.2086 94.5628C30.2304 97.1596 27.6797 99.062 27.2265 99.3989C25.9856 100.474 24.3722 101.02 22.7333 100.918C19.9717 100.511 18.543 97.4698 18.2158 97.7024C18.4966 98.972 19.1492 100.129 20.0904 101.026C20.7024 101.566 21.418 101.975 22.1935 102.229C22.969 102.482 23.788 102.575 24.6006 102.501C26.1906 102.216 27.6233 101.364 28.6333 100.103C28.849 99.8836 29.101 99.6267 29.3604 99.3298C29.6421 99.0108 29.9005 98.6718 30.1335 98.3156C30.6957 97.471 31.0358 96.4983 31.1223 95.4873Z" fill="#9F122D"/>
<path d="M21.895 90.4173C21.6259 90.352 21.3428 90.3767 21.0891 90.4876C20.9275 90.5764 20.7721 90.676 20.6238 90.7857C19.6832 91.5247 19.0733 92.606 18.9274 93.7933C18.8731 94.0081 18.8668 94.2322 18.9086 94.4497C18.9505 94.6673 19.0396 94.873 19.1697 95.0523C19.3028 95.1707 19.4585 95.261 19.6274 95.3176C19.7963 95.3743 19.9749 95.3961 20.1524 95.3819C20.8359 95.3237 21.2236 94.7178 21.9701 93.5521C22.3777 92.906 22.6341 92.1761 22.7202 91.417C22.7303 91.2424 22.6922 91.0684 22.6099 90.9141C22.5293 90.7884 22.4246 90.6797 22.3019 90.5945C22.1793 90.5092 22.041 90.449 21.895 90.4173Z" fill="#D9766A"/>
<path d="M23.8616 91.9817C23.9879 91.522 24.2713 91.1211 24.6626 90.8488C24.8615 90.7165 25.0834 90.6228 25.3169 90.5725C25.5719 90.7515 25.7646 91.0057 25.8683 91.2995C25.929 91.6273 25.9384 91.9625 25.8961 92.2932C25.8961 92.6725 25.8852 92.9911 25.8804 93.2214C26.068 92.9899 26.2244 92.7349 26.3457 92.4628C26.5613 92.0634 26.6501 91.6077 26.6002 91.1565C26.5535 90.8716 26.4402 90.6017 26.2694 90.3689C26.5315 90.3251 26.7975 90.3089 27.0631 90.3204C27.58 90.3565 28.0871 90.4794 28.5632 90.684C29.0032 90.8508 29.4287 91.0534 29.8356 91.2898C29.7168 91.143 29.5858 91.0064 29.4442 90.8815C29.0042 90.5134 28.4875 90.2484 27.9319 90.1059C27.3708 89.9296 26.7871 89.8357 26.1991 89.8272C26.3338 89.7109 26.4795 89.6078 26.6341 89.5195C26.9691 89.3348 27.3364 89.2163 27.7162 89.1705C28.1241 89.1198 28.5381 89.1507 28.934 89.2613C28.8019 89.1627 28.6597 89.0782 28.5099 89.0093C28.1519 88.8515 27.763 88.7766 27.3721 88.79C26.9282 88.8237 26.4935 88.9344 26.0876 89.1172C25.8586 89.202 25.6744 89.2832 25.5484 89.3425C25.5871 89.1559 25.6368 88.9184 25.6913 88.6409C25.797 88.2984 25.8413 87.9398 25.8222 87.5819C25.7736 87.3057 25.65 87.0483 25.4647 86.8378C25.5325 87.6264 25.3285 88.4144 24.8867 89.0711C24.7361 88.8115 24.5595 88.5679 24.3596 88.3441C24.062 88.0147 23.7193 87.7292 23.3417 87.4958C23.0239 87.2877 22.6861 87.1115 22.3336 86.9699C22.7092 87.3443 23.0291 87.6352 23.2581 87.8363C23.6246 88.1071 23.9412 88.4397 24.1936 88.8191C24.2936 88.9866 24.3748 89.1646 24.436 89.3498C23.9769 89.1966 23.4842 89.1748 23.0134 89.2868C22.6375 89.3765 22.2881 89.5535 21.9934 89.8034C21.6986 90.0533 21.4669 90.3691 21.3169 90.7252C21.7016 90.3892 22.1482 90.1315 22.6317 89.9666C22.8898 89.873 23.1617 89.823 23.4363 89.8188C23.6257 89.8214 23.8145 89.8396 24.0009 89.8733C24.1976 89.9037 24.3925 89.9441 24.585 89.9945C24.3428 90.1366 24.1403 90.3375 23.9961 90.5785C23.8799 90.7911 23.808 91.0251 23.7849 91.2663C23.7618 91.5075 23.7879 91.7509 23.8616 91.9817Z" fill="#267237"/>
<path d="M23.6836 51.0897C23.3386 51.0898 22.9941 51.1141 22.6524 51.1624C22.4918 51.1911 22.3334 51.2316 22.1786 51.2836C21.9219 51.3792 21.6777 51.5058 21.4516 51.6604C20.7595 52.3709 20.3758 53.3259 20.384 54.3178C20.1794 55.8462 20.4866 57.3993 21.2577 58.7347C21.7004 59.5094 22.3013 60.1821 23.0213 60.7091C23.7413 61.236 24.5642 61.6054 25.4365 61.7931C26.3087 61.9808 27.2108 61.9827 28.0838 61.7985C28.9568 61.6144 29.7813 61.2484 30.5034 60.7244C31.232 60.2541 31.8588 59.6422 32.3465 58.9251C32.8342 58.2081 33.1729 57.4003 33.3426 56.5499C33.5275 55.3364 33.35 54.0954 32.8324 52.9825C32.5555 52.1594 32.0188 51.4484 31.3032 50.9564C30.9122 50.6933 30.4622 50.531 29.9933 50.4838C29.3932 50.4761 28.7932 50.5085 28.1974 50.5807C28.011 50.5989 27.823 50.5907 27.6388 50.5565C27.4824 50.5175 27.3286 50.4685 27.1784 50.4099C26.9123 50.3236 26.6325 50.2874 26.3532 50.3033C26.1099 50.3438 25.8731 50.4168 25.6491 50.5202C25.1923 50.6947 25.1535 50.7395 24.8966 50.8352C24.5062 50.9763 24.0979 51.062 23.6836 51.0897Z" fill="#C80D25"/>
<path d="M33.4116 55.9331C33.4212 55.745 33.4212 55.5565 33.4116 55.3684V55.3502C33.4043 55.1733 33.3885 55.0024 33.3667 54.8388V54.8243C33.3461 54.6728 33.3195 54.5286 33.2904 54.3905L33.2746 54.3129C33.2455 54.1918 33.2152 54.0706 33.1837 53.9494L33.1547 53.8525C33.1268 53.758 33.0977 53.6695 33.0686 53.5859C33.0577 53.5556 33.048 53.5253 33.0371 53.4962C33.0177 53.4417 32.9996 53.3932 32.9802 53.3448C32.9305 53.2175 32.8808 53.0963 32.8311 52.9812C32.7657 52.8298 32.6954 52.6686 32.6154 52.505C32.5233 52.3184 32.4397 52.1706 32.3731 52.0542C32.3573 52.0288 32.3416 52.0021 32.3246 51.9767C32.3076 51.9512 32.2895 51.9197 32.2725 51.8967C32.0922 51.6224 31.8711 51.3773 31.6169 51.1696H31.6097C31.5128 51.0924 31.4112 51.0211 31.3055 50.9564C31.143 50.8521 30.9724 50.7609 30.7954 50.6837C30.7384 50.6595 30.6742 50.6401 30.6075 50.6195C30.7943 50.8452 30.9968 51.0573 31.2134 51.2545C31.9333 52.1738 32.3226 53.3089 32.3185 54.4765C32.3366 55.4014 32.1407 56.318 31.7459 57.1546C31.3511 57.9912 30.7683 58.7253 30.0429 59.2993C28.7646 60.256 27.1708 60.6916 25.5836 60.5184C22.9601 60.2918 21.3982 58.5589 21.2637 58.7371C21.8645 59.7309 22.707 60.5567 23.7126 61.1376C23.8084 61.1897 23.9053 61.2406 24.0047 61.2903L24.0628 61.3193C24.501 61.5313 24.9626 61.6907 25.4382 61.7943C25.5909 61.8271 25.7399 61.8525 25.8877 61.8731C25.9362 61.8804 25.9847 61.884 26.0319 61.8901C26.1313 61.901 26.2295 61.9119 26.3252 61.9179L26.4888 61.9252C26.5772 61.9252 26.6645 61.9313 26.7505 61.9313C26.805 61.9313 26.8596 61.9313 26.9129 61.9313C26.9977 61.9313 27.0801 61.9252 27.1625 61.9192L27.3164 61.907C27.4012 61.8986 27.4836 61.8889 27.566 61.8767L27.6981 61.8598C27.8011 61.8428 27.9005 61.8246 27.9986 61.804L28.0604 61.7919C28.1816 61.7665 28.2931 61.7374 28.4046 61.7071C28.4373 61.6986 28.4688 61.6877 28.5015 61.678C28.5791 61.6562 28.6554 61.6332 28.7293 61.6089L28.8444 61.569C28.9087 61.5471 28.9717 61.5241 29.0323 61.5011L29.1462 61.4563L29.3158 61.386L29.4188 61.3411L29.5788 61.266L29.6648 61.2248L29.8272 61.1412L29.8841 61.1109C29.9532 61.0733 30.0174 61.0382 30.0768 61.0031L30.1241 60.974L30.2452 60.9025L30.2888 60.8746L30.364 60.8274L30.444 60.774L30.5094 60.7304C31.2709 60.218 31.9287 59.5664 32.4482 58.8098C32.4846 58.7553 32.5221 58.6995 32.5573 58.6413L32.5936 58.5856C32.6433 58.5032 32.6906 58.4172 32.7366 58.3299C32.762 58.2827 32.7887 58.2354 32.8105 58.1906C32.8626 58.0888 32.9123 57.9858 32.9596 57.8779L32.9802 57.8295C33.0262 57.7188 33.0698 57.6049 33.111 57.4878C33.1219 57.4575 33.1316 57.4272 33.1413 57.3969C33.1789 57.2842 33.2128 57.1703 33.2443 57.0539L33.2564 57.0079C33.294 56.8613 33.3255 56.711 33.3522 56.5559C33.3859 56.3553 33.4086 56.1531 33.42 55.95L33.4116 55.9331Z" fill="#9F122D"/>
<path d="M22.5915 52.0021C22.331 52.0427 22.0903 52.1654 21.9044 52.3523C21.7945 52.4864 21.6937 52.6277 21.6027 52.7752C21.3264 53.2512 21.1488 53.778 21.0808 54.3241C21.0127 54.8702 21.0554 55.4245 21.2064 55.9537C21.2385 56.1586 21.3159 56.3537 21.4328 56.525C21.5498 56.6962 21.7034 56.8393 21.8826 56.9437C22.2091 57.0516 22.565 57.0259 22.8726 56.8722C23.4542 56.5765 23.5742 55.9198 23.8057 54.6571C23.9284 53.9588 23.887 53.2415 23.6845 52.562C23.6291 52.4082 23.5317 52.273 23.4034 52.1718C23.1643 52.0136 22.8738 51.9529 22.5915 52.0021Z" fill="#D9766A"/>
<path d="M25.7314 52.4699C25.7254 52.1228 25.8412 51.7845 26.0586 51.5139C26.1704 51.3809 26.306 51.2699 26.4585 51.1867C26.6745 51.2606 26.8618 51.4005 26.9941 51.5866C27.1041 51.8024 27.1793 52.0343 27.217 52.2736C27.2922 52.5402 27.3528 52.7644 27.3964 52.9256C27.48 52.7254 27.537 52.5152 27.566 52.3003C27.6357 51.9756 27.6044 51.6373 27.4764 51.3309C27.3857 51.1405 27.2511 50.9744 27.0838 50.8462C27.258 50.7625 27.4403 50.6968 27.6278 50.6499C27.9967 50.5696 28.3765 50.5524 28.7511 50.599C29.0922 50.6235 29.4307 50.6766 29.763 50.7577C29.6498 50.6792 29.5302 50.6103 29.4055 50.5517C29.0239 50.385 28.6099 50.3059 28.1937 50.3203C27.7653 50.3124 27.338 50.3663 26.925 50.4802C26.9958 50.3716 27.0769 50.2702 27.1674 50.1773C27.3637 49.9795 27.5961 49.8211 27.852 49.7108C28.1264 49.5919 28.4218 49.5289 28.7208 49.5254C28.6087 49.4848 28.4925 49.4564 28.3743 49.4406C28.0919 49.4036 27.8048 49.431 27.5345 49.5205C27.2313 49.635 26.9505 49.8015 26.7045 50.0125C26.5627 50.1179 26.45 50.2137 26.3737 50.2803C26.3628 50.1422 26.3482 49.9652 26.33 49.7617C26.3354 49.5008 26.2944 49.2411 26.2089 48.9946C26.1188 48.8115 25.98 48.6568 25.8078 48.5475C26.0157 49.085 26.0345 49.6773 25.8611 50.227C25.7029 50.075 25.529 49.9401 25.3425 49.8247C25.0673 49.6561 24.77 49.5268 24.4591 49.4406C24.1939 49.3608 23.9216 49.3069 23.646 49.2794C23.9853 49.4648 24.2688 49.6029 24.47 49.695C24.7814 49.8102 25.0707 49.9778 25.3255 50.1906C25.4285 50.2878 25.5211 50.3954 25.6018 50.5117C25.2505 50.4973 24.9022 50.5812 24.596 50.7541C24.3522 50.8936 24.1448 51.0886 23.9907 51.3234C23.8366 51.5582 23.74 51.8261 23.709 52.1052C23.9083 51.7913 24.1672 51.5196 24.4712 51.3054C24.6322 51.1869 24.812 51.0964 25.0032 51.0376C25.136 51.0003 25.2718 50.9743 25.4091 50.9601C25.5522 50.9406 25.6962 50.9285 25.8405 50.9237C25.7008 51.0722 25.6007 51.2535 25.5497 51.4509C25.5087 51.6241 25.5037 51.804 25.535 51.9792C25.5662 52.1545 25.6331 52.3215 25.7314 52.4699Z" fill="#267237"/>
<path d="M58.0938 65.6017C57.8651 65.5954 57.6376 65.565 57.4152 65.5109C56.653 65.3436 56.6724 65.1897 56.2677 65.1473C55.8129 65.1414 55.3639 65.2492 54.9614 65.4612C54.5797 65.6151 54.5458 65.6805 54.2114 65.8247C53.7347 66.0014 53.2396 66.1234 52.7354 66.1882C51.978 66.4882 51.3576 67.0568 50.9929 67.7853C50.458 68.6271 50.1573 69.5963 50.1217 70.593C50.0468 72.2343 50.5055 73.8558 51.4292 75.2146C52.0547 76.3556 53.0066 77.2838 54.1629 77.8805C54.9022 78.2253 55.704 78.4159 56.5195 78.4407C57.3349 78.4655 58.1468 78.3239 58.9057 78.0247C60.3511 77.3039 61.486 76.0833 62.0999 74.5894C63.0784 73.07 63.4664 71.2448 63.1905 69.4588C63.0462 68.7337 62.7604 68.0442 62.3493 67.4298C61.9382 66.8153 61.41 66.288 60.7948 65.878C60.447 65.6878 60.0677 65.5617 59.6752 65.506C59.4113 65.4859 59.1461 65.4887 58.8827 65.5145C58.6215 65.5577 58.3581 65.5868 58.0938 65.6017Z" fill="#C80D25"/>
<path d="M63.1891 69.4587C63.0028 68.5811 62.62 67.757 62.0695 67.0486C61.8608 66.7783 61.6276 66.528 61.3727 66.3009C61.1977 66.1367 61.0032 65.9947 60.7935 65.878C60.6476 65.8005 60.4946 65.7372 60.3366 65.689L60.2676 65.6962C60.4954 65.9557 60.7082 66.2279 60.9049 66.5117C61.4224 67.2095 61.811 67.9942 62.0525 68.8286C62.2003 69.7379 62.1617 70.6677 61.9391 71.5616C61.7164 72.4554 61.3142 73.2947 60.7571 74.0283C60.6687 74.1495 60.5972 74.25 60.5523 74.3094C59.6655 75.6891 58.2735 76.6665 56.6747 77.0322C53.9095 77.4188 51.6823 74.9032 51.4351 75.2146C52.061 76.3552 53.0128 77.2834 54.1688 77.8805C54.9081 78.2252 55.7099 78.4158 56.5254 78.4406C57.3408 78.4654 58.1527 78.3239 58.9116 78.0247C60.357 77.3038 61.4919 76.0833 62.1058 74.5893C62.2512 74.3179 62.4209 74.0004 62.5905 73.6417C62.7718 73.2568 62.9244 72.8591 63.0473 72.4518C63.3461 71.482 63.3948 70.4524 63.1891 69.4587Z" fill="#9F122D"/>
<path d="M52.9085 67.194C52.6315 67.2073 52.3664 67.3107 52.1536 67.4884C52.0234 67.6197 51.9019 67.7593 51.79 67.9065C51.095 68.8798 50.8139 70.089 51.0085 71.2691C51.0169 71.4906 51.074 71.7076 51.1755 71.9046C51.2771 72.1016 51.4207 72.2739 51.5962 72.4094C51.7574 72.4849 51.9322 72.5274 52.1101 72.5342C52.2881 72.5411 52.4656 72.5122 52.6322 72.4494C53.2708 72.1997 53.472 71.5103 53.8585 70.1822C54.0684 69.4472 54.1099 68.6743 53.9797 67.921C53.9415 67.7515 53.8577 67.5956 53.7373 67.4703C53.6241 67.372 53.4926 67.2971 53.3504 67.2497C53.2082 67.2023 53.058 67.1833 52.9085 67.194Z" fill="#D9766A"/>
<path d="M55.2354 68.1428C55.2276 67.6657 55.3871 67.201 55.6861 66.8292C55.8394 66.6459 56.0261 66.4933 56.2363 66.3797C56.5324 66.4814 56.7892 66.6734 56.9706 66.9286C57.1215 67.2253 57.225 67.5438 57.2772 67.8725C57.3802 68.2361 57.4638 68.5463 57.5195 68.768C57.6347 68.4936 57.7129 68.2051 57.7522 67.9101C57.8472 67.4662 57.8049 67.0038 57.631 66.5844C57.5063 66.3239 57.3219 66.0965 57.093 65.9204C57.3319 65.8041 57.5826 65.7135 57.8406 65.6502C58.3471 65.5397 58.8687 65.5155 59.3832 65.5787C59.8517 65.6135 60.3165 65.6864 60.7731 65.7968C60.6175 65.6898 60.4533 65.5958 60.2823 65.5157C59.7569 65.2862 59.1868 65.1769 58.6137 65.1958C58.0253 65.1859 57.4385 65.2606 56.8712 65.4175C56.9684 65.268 57.0796 65.128 57.2033 64.9995C57.4729 64.728 57.7921 64.5108 58.1436 64.3597C58.5208 64.1968 58.9264 64.1099 59.3372 64.104C59.182 64.0478 59.0217 64.0073 58.8585 63.9828C58.471 63.9327 58.0771 63.9703 57.7061 64.0931C57.2894 64.2501 56.9031 64.4785 56.5647 64.768C56.3696 64.9134 56.2157 65.0443 56.1115 65.1315C56.0957 64.9413 56.0763 64.7002 56.0509 64.419C56.0564 64.0601 55.9977 63.7031 55.8776 63.3648C55.7542 63.1133 55.5633 62.901 55.3262 62.7516C55.6118 63.4884 55.6379 64.3004 55.4002 65.054C55.1825 64.8459 54.9437 64.6611 54.6876 64.5026C54.3105 64.2706 53.9026 64.0928 53.4759 63.9743C53.1118 63.8652 52.7381 63.7914 52.3599 63.7538C52.8264 64.0082 53.2154 64.1973 53.4904 64.3245C53.9187 64.4818 54.3164 64.7123 54.6658 65.0055C54.8085 65.1381 54.9361 65.2861 55.0463 65.4466C54.5627 65.4284 54.0836 65.5464 53.6637 65.7871C53.3294 65.9791 53.0449 66.247 52.8333 66.5693C52.6218 66.8916 52.489 67.2592 52.4459 67.6423C52.72 67.2116 53.0757 66.8387 53.4929 66.5444C53.7136 66.3841 53.9592 66.2613 54.2199 66.1809C54.4021 66.1305 54.5881 66.0948 54.7761 66.0743C54.9731 66.0478 55.1712 66.0312 55.3699 66.0246C55.1771 66.2291 55.0394 66.4793 54.97 66.7517C54.9178 66.9894 54.9144 67.2353 54.96 67.4744C55.0056 67.7136 55.0993 67.9409 55.2354 68.1428Z" fill="#267237"/>
<path d="M53.1205 110.44C52.8485 109.841 52.6213 109.223 52.4407 108.59C52.391 108.453 52.1644 107.834 51.8918 107.165C51.798 106.936 51.6946 106.689 51.5815 106.425C51.5004 106.237 51.4252 106.061 51.3501 105.899C51.2107 105.588 50.9648 105.042 50.7248 104.572C50.447 104.028 50.1367 103.502 49.7954 102.997L50.3371 102.65C50.3904 102.746 50.4655 102.892 50.5552 103.056C50.657 103.25 51.0459 104.006 51.5355 105.132C51.6954 105.495 51.8602 105.9 52.0335 106.343C52.4668 107.307 52.8073 108.31 53.0502 109.339C53.1432 109.698 53.1671 110.072 53.1205 110.44Z" fill="#267237"/>
<path d="M48.1393 44.9473C48.1058 44.2903 48.1216 43.6317 48.1865 42.977C48.1865 42.8316 48.2071 42.1724 48.1998 41.4502C48.1998 41.203 48.1946 40.9356 48.1841 40.648C48.1623 39.9464 48.1296 39.4617 48.0629 38.6098C48.019 37.4121 47.8837 36.2195 47.6582 35.0424C47.1919 33.4126 46.2343 31.9663 44.916 30.9006C43.9475 30.0931 42.8181 29.5011 41.603 29.1642L42.2756 28.7267C43.4118 29.0669 44.4655 29.6383 45.3704 30.405C46.5012 31.3899 47.3655 32.644 47.8836 34.0512C48.2323 35.0473 48.4296 36.0902 48.4689 37.1448C48.5849 38.3429 48.6403 39.5461 48.6349 40.7498C48.6841 41.8058 48.6318 42.8641 48.4785 43.9101C48.4317 44.2741 48.3166 44.626 48.1393 44.9473Z" fill="#267237"/>
<path d="M50.7974 108.791C50.5634 108.842 50.3334 108.909 50.1091 108.992C50.0046 109.035 49.9037 109.085 49.8074 109.144C49.6468 109.247 49.4994 109.369 49.3687 109.507C49.0049 110.09 48.8852 110.793 49.0355 111.463C49.1214 112.528 49.5573 113.534 50.2751 114.325C50.6885 114.785 51.194 115.152 51.7588 115.403C52.3235 115.655 52.9349 115.784 53.553 115.783C54.1711 115.782 54.7821 115.651 55.3462 115.399C55.9103 115.146 56.4149 114.778 56.8271 114.317C57.2515 113.892 57.5862 113.386 57.8112 112.829C58.0363 112.271 58.147 111.675 58.137 111.074C58.0846 110.226 57.7827 109.412 57.2694 108.734C56.9608 108.218 56.4931 107.814 55.9364 107.586C55.633 107.465 55.3047 107.422 54.9804 107.458C54.5727 107.541 54.1711 107.65 53.7783 107.787C53.6549 107.827 53.5263 107.849 53.3966 107.852C53.285 107.849 53.1737 107.839 53.0634 107.822C52.8706 107.801 52.6758 107.817 52.489 107.869C52.3304 107.933 52.1809 108.017 52.0443 108.12C51.7607 108.305 51.7413 108.342 51.5814 108.443C51.3375 108.595 51.0736 108.712 50.7974 108.791Z" fill="#90B53C"/>
<path d="M58.0936 110.644C58.0734 110.515 58.0467 110.387 58.0136 110.261V110.249C57.9821 110.128 57.9458 110.016 57.907 109.908V109.899C57.8719 109.799 57.8331 109.706 57.7931 109.616L57.7701 109.567C57.7325 109.486 57.695 109.409 57.6562 109.338L57.6222 109.276C57.5895 109.217 57.5568 109.155 57.5253 109.107L57.4914 109.052L57.4296 108.957C57.3775 108.878 57.3266 108.805 57.2757 108.732C57.209 108.639 57.1375 108.539 57.06 108.441C56.9824 108.343 56.8916 108.24 56.8261 108.172L56.7825 108.126L56.7292 108.079C56.5665 107.921 56.3811 107.789 56.179 107.686C56.1003 107.648 56.0194 107.614 55.9367 107.586C55.8111 107.54 55.6823 107.503 55.5514 107.476C55.5089 107.468 55.4593 107.466 55.4144 107.461C55.5741 107.586 55.7426 107.7 55.9185 107.801C56.5402 108.318 56.9699 109.029 57.1388 109.82C57.2865 110.444 57.2882 111.093 57.1438 111.717C56.9994 112.342 56.7128 112.925 56.3063 113.42C55.5779 114.255 54.5597 114.783 53.4574 114.896C52.3661 114.939 51.2785 114.743 50.2705 114.323C50.8232 114.908 51.5147 115.343 52.2808 115.589C52.3523 115.611 52.4262 115.632 52.5014 115.65L52.545 115.661C52.8722 115.741 53.2078 115.781 53.5447 115.782C53.6525 115.782 53.758 115.782 53.8609 115.77C53.8949 115.77 53.9276 115.762 53.9615 115.759C54.0294 115.759 54.0972 115.745 54.1639 115.736L54.2754 115.716L54.4535 115.682L54.5638 115.656C54.6195 115.642 54.6753 115.627 54.7298 115.611L54.8328 115.581L54.9976 115.524L55.0848 115.492L55.2799 115.411L55.3199 115.393C55.3963 115.359 55.469 115.323 55.5404 115.285L55.6022 115.252C55.6507 115.226 55.6992 115.199 55.7452 115.171L55.8179 115.127L55.9391 115.054L56.0094 115.006L56.1136 114.935L56.1766 114.889L56.2736 114.815L56.3257 114.774C56.3608 114.747 56.3923 114.719 56.4238 114.694L56.459 114.665L56.5729 114.564L56.6007 114.537L56.6722 114.471L56.6977 114.445L56.7413 114.402L56.7873 114.356L56.8261 114.316C57.2649 113.856 57.6138 113.319 57.8549 112.732C57.8719 112.688 57.8888 112.646 57.9046 112.601L57.9203 112.559C57.9422 112.496 57.9615 112.43 57.9797 112.365C57.9906 112.328 58.0015 112.292 58.01 112.259C58.0294 112.183 58.0488 112.105 58.0645 112.025V111.989C58.0803 111.908 58.0936 111.824 58.1045 111.739L58.1106 111.673C58.1203 111.592 58.1263 111.509 58.13 111.43V111.398C58.13 111.293 58.13 111.187 58.13 111.078C58.1236 110.936 58.1094 110.794 58.0876 110.654L58.0936 110.644Z" fill="#679A4F"/>
<path d="M50.1857 109.569C50.0152 109.634 49.8702 109.753 49.7725 109.907C49.7181 110.014 49.6704 110.124 49.6295 110.237C49.5126 110.601 49.4705 110.985 49.5057 111.365C49.5409 111.746 49.6527 112.116 49.8343 112.452C49.9821 112.708 50.1372 112.967 50.4402 113.023C50.5574 113.035 50.676 113.025 50.7891 112.991C50.9022 112.958 51.0076 112.903 51.0994 112.829C51.4508 112.544 51.4362 112.081 51.4071 111.192C51.3878 110.701 51.2547 110.221 51.0182 109.791C50.9593 109.696 50.8755 109.619 50.7758 109.569C50.5868 109.491 50.3747 109.491 50.1857 109.569Z" fill="#B1C84A"/>
<path d="M52.3863 109.423C52.3319 109.188 52.361 108.942 52.4687 108.727C52.5244 108.62 52.6001 108.525 52.6917 108.447C52.8485 108.465 52.9957 108.532 53.1121 108.639C53.2179 108.769 53.3029 108.915 53.3642 109.071C53.4538 109.241 53.5278 109.384 53.5811 109.487C53.6081 109.339 53.6158 109.188 53.6041 109.038C53.6025 108.81 53.532 108.587 53.4017 108.399C53.3123 108.284 53.1968 108.191 53.0649 108.13C53.1708 108.047 53.2849 107.976 53.4054 107.916C53.6429 107.807 53.8975 107.74 54.1579 107.718C54.3922 107.684 54.6289 107.67 54.8656 107.676C54.7777 107.64 54.6869 107.61 54.5941 107.589C54.3105 107.533 54.0178 107.54 53.7374 107.611C53.4465 107.669 53.1653 107.768 52.9025 107.905C52.9352 107.821 52.9758 107.74 53.0237 107.663C53.1277 107.501 53.2618 107.36 53.4187 107.247C53.5873 107.127 53.7779 107.041 53.9798 106.994C53.8995 106.983 53.8183 106.98 53.7374 106.984C53.5409 107.001 53.3508 107.062 53.1812 107.163C52.9924 107.284 52.8263 107.438 52.6904 107.617C52.6105 107.709 52.5475 107.79 52.5063 107.846C52.4784 107.754 52.4432 107.638 52.4008 107.502C52.3645 107.324 52.2977 107.155 52.2033 107C52.1143 106.891 51.9976 106.807 51.8652 106.758C52.0848 107.091 52.1843 107.49 52.1476 107.887C52.018 107.808 51.8808 107.742 51.738 107.691C51.527 107.617 51.3067 107.574 51.0836 107.561C50.8923 107.546 50.7 107.549 50.5093 107.571C50.7662 107.646 50.9782 107.698 51.1273 107.732C51.3552 107.763 51.5759 107.834 51.7792 107.942C51.8638 107.992 51.9426 108.051 52.0143 108.119C51.7742 108.161 51.5509 108.271 51.3696 108.434C51.2441 108.548 51.1427 108.687 51.0715 108.841C50.9815 109.041 50.9456 109.26 50.9673 109.478C51.0565 109.237 51.192 109.016 51.366 108.826C51.4575 108.722 51.5661 108.634 51.6871 108.566C51.7716 108.522 51.8595 108.484 51.9501 108.454C52.0442 108.42 52.1401 108.391 52.2372 108.366C52.1638 108.487 52.1221 108.624 52.1161 108.766C52.1146 108.888 52.1378 109.009 52.1843 109.122C52.2307 109.235 52.2994 109.337 52.3863 109.423Z" fill="#267237"/>
<path d="M34.3662 23.8918C34.2014 23.8179 34.045 23.7265 33.8996 23.6192C33.3956 23.2666 33.4574 23.1599 33.1726 23.0133C32.8427 22.8706 32.4824 22.8127 32.1244 22.8449C31.7997 22.8449 31.7548 22.8776 31.4676 22.8812C31.0666 22.8636 30.6687 22.8014 30.2813 22.6958C29.6383 22.6832 29.0133 22.909 28.5267 23.3296C27.8824 23.7792 27.3696 24.3924 27.0411 25.106C26.4871 26.279 26.3281 27.6 26.5879 28.8709C26.6977 29.8915 27.109 30.8563 27.7694 31.6422C28.2032 32.1182 28.7293 32.501 29.3157 32.7672C29.9021 33.0334 30.5366 33.1776 31.1805 33.1909C32.4531 33.1047 33.6515 32.5606 34.554 31.6592C35.7287 30.8499 36.566 29.638 36.9072 28.2529C37.023 27.6806 37.0246 27.0911 36.9119 26.5182C36.7992 25.9453 36.5744 25.4003 36.2505 24.9145C36.0548 24.6722 35.8171 24.4669 35.5488 24.3087C35.3627 24.2133 35.1685 24.1346 34.9684 24.0736C34.7646 24.0235 34.5636 23.9629 34.3662 23.8918Z" fill="#90B53C"/>
<path d="M36.9048 28.2529C37.0362 27.5564 37.008 26.8393 36.8224 26.1553C36.7525 25.8954 36.6593 25.6423 36.5437 25.3992C36.3325 24.9414 35.9845 24.5603 35.5476 24.3086C36.0724 25.2706 36.3219 26.3586 36.2686 27.4531C36.0602 29.4925 33.8936 30.7636 33.5082 30.989C32.4411 31.7247 31.1282 32.0127 29.8511 31.7912C27.7184 31.2314 26.8617 28.7218 26.5854 28.8757C26.6952 29.8963 27.1066 30.8611 27.7669 31.647C28.2007 32.123 28.7268 32.5058 29.3133 32.772C29.8997 33.0382 30.5341 33.1824 31.178 33.1956C32.4523 33.1093 33.6519 32.5633 34.554 31.6591C34.743 31.5052 34.9635 31.3259 35.1938 31.115C35.4428 30.8901 35.6749 30.6471 35.8881 30.388C36.401 29.773 36.7507 29.0387 36.9048 28.2529Z" fill="#679A4F"/>
<path d="M30.1042 23.475C29.8987 23.4001 29.6743 23.3949 29.4656 23.4604C29.3307 23.5157 29.1999 23.5805 29.0742 23.6543C28.2725 24.1523 27.7005 24.9473 27.4832 25.8658C27.4215 26.0295 27.3966 26.2049 27.4105 26.3794C27.4243 26.5539 27.4764 26.7231 27.5632 26.8752C27.6572 26.9798 27.7716 27.0643 27.8993 27.1234C28.027 27.1826 28.1653 27.2152 28.306 27.2193C28.8464 27.2326 29.2039 26.7916 29.8897 25.9421C30.2654 25.4699 30.5297 24.919 30.6628 24.3305C30.6864 24.1945 30.6713 24.0547 30.6192 23.927C30.514 23.7141 30.3289 23.5516 30.1042 23.475Z" fill="#B1C84A"/>
<path d="M31.5114 24.8733C31.6501 24.5234 31.9075 24.2334 32.2385 24.0541C32.4061 23.9675 32.5887 23.9132 32.7765 23.8942C32.9594 24.059 33.0865 24.2767 33.14 24.517C33.1593 24.7793 33.1376 25.043 33.0758 25.2986C33.0394 25.5967 33.0067 25.8451 32.9825 26.0257C33.1501 25.8605 33.2952 25.6739 33.4139 25.4707C33.6176 25.1762 33.7271 24.8267 33.7277 24.4686C33.7155 24.2408 33.6499 24.0192 33.5363 23.8215C33.7456 23.8101 33.9556 23.8207 34.1627 23.853C34.5653 23.926 34.9526 24.0669 35.3078 24.2698C35.6386 24.4376 35.9551 24.6322 36.2542 24.8515C36.1739 24.7261 36.0831 24.6077 35.9828 24.4976C35.67 24.1704 35.2878 23.9174 34.8643 23.7573C34.4396 23.5732 33.9908 23.4508 33.5314 23.3937C33.646 23.315 33.7677 23.2473 33.8949 23.1914C34.1739 23.0755 34.4726 23.0142 34.7747 23.0108C35.0991 23.0063 35.4213 23.0664 35.7223 23.1877C35.6268 23.0989 35.5224 23.0201 35.4108 22.9527C35.1438 22.7976 34.8451 22.7052 34.5372 22.6824C34.1861 22.6701 33.8355 22.7189 33.5011 22.8266C33.3145 22.8739 33.1618 22.9224 33.0588 22.9575C33.1049 22.8145 33.1642 22.6328 33.2321 22.4195C33.3442 22.1595 33.4098 21.8818 33.426 21.5991C33.4124 21.3783 33.3377 21.1656 33.2103 20.9848C33.1936 21.6094 32.965 22.2097 32.562 22.6873C32.4671 22.4693 32.3497 22.2617 32.2118 22.0681C32.0058 21.7841 31.7611 21.5304 31.4847 21.3144C31.2531 21.1238 31.0035 20.9562 30.7395 20.8139C31.0013 21.1411 31.2242 21.3968 31.389 21.5749C31.6532 21.8177 31.873 22.1048 32.0385 22.4231C32.1017 22.5634 32.1496 22.7101 32.1815 22.8606C31.8346 22.6999 31.4496 22.6399 31.0703 22.6873C30.7679 22.7251 30.4785 22.8336 30.2259 23.0042C29.9732 23.1747 29.7644 23.4024 29.6162 23.6688C29.9467 23.4374 30.3193 23.2728 30.7129 23.1841C30.9276 23.134 31.1493 23.1209 31.3684 23.1453C31.5169 23.1637 31.6637 23.1945 31.8071 23.2374C31.9585 23.2777 32.1078 23.3258 32.2542 23.3816C32.0521 23.4714 31.8762 23.6111 31.7428 23.7876C31.6331 23.9436 31.556 24.1202 31.5162 24.3068C31.4765 24.4934 31.4748 24.6861 31.5114 24.8733Z" fill="#267237"/>
<path d="M49.5059 36.3632C49.3433 36.3664 49.1809 36.3525 49.0212 36.322C48.4771 36.2299 48.4856 36.1197 48.1972 36.1075C47.8752 36.1191 47.5612 36.2107 47.2835 36.3741C47.0181 36.4953 46.9963 36.5438 46.7649 36.6577C46.4336 36.7989 46.0872 36.9017 45.7325 36.9643C45.2066 37.2026 44.7869 37.6262 44.5534 38.1542C44.2033 38.7683 44.0238 39.4649 44.0336 40.1718C44.036 41.3359 44.4162 42.4678 45.1169 43.3975C45.5989 44.1828 46.3044 44.8064 47.143 45.1885C47.6778 45.4076 48.2518 45.5154 48.8298 45.5052C49.4077 45.495 49.9776 45.367 50.5044 45.1291C51.5038 44.5687 52.2655 43.6644 52.648 42.5844C53.2885 41.4753 53.5002 40.1699 53.243 38.9152C53.1162 38.4069 52.8904 37.9286 52.5785 37.5078C52.2666 37.0869 51.8747 36.7317 51.4253 36.4626C51.1728 36.3399 50.9002 36.2636 50.6207 36.2372C50.4331 36.2325 50.2454 36.2438 50.0597 36.2711C49.8768 36.3116 49.692 36.3423 49.5059 36.3632Z" fill="#90B53C"/>
<path d="M53.2442 38.9188C53.0825 38.304 52.7834 37.7339 52.3693 37.2515C52.2128 37.0674 52.0396 36.8983 51.8519 36.7462C51.721 36.6372 51.5784 36.5434 51.4266 36.4662C51.1741 36.3434 50.9015 36.2671 50.622 36.2408C51.4181 36.8185 52.0398 37.6041 52.419 38.5117C52.567 39.1911 52.5655 39.8947 52.4144 40.5735C52.2633 41.2523 51.9663 41.8901 51.5441 42.4426C50.963 43.4509 50.0092 44.1907 48.8879 44.5026C46.9491 44.8661 45.283 43.1697 45.1182 43.3975C45.6002 44.1828 46.3057 44.8065 47.1442 45.1885C47.6791 45.4076 48.2531 45.5154 48.8311 45.5052C49.409 45.495 49.9788 45.367 50.5056 45.1291C51.505 44.5688 52.2668 43.6644 52.6492 42.5844C52.7425 42.3869 52.8528 42.1566 52.9582 41.8973C53.0726 41.6184 53.1669 41.3317 53.2406 41.0394C53.4199 40.3441 53.4212 39.6148 53.2442 38.9188Z" fill="#679A4F"/>
<path d="M45.8899 37.667C45.6945 37.6864 45.5107 37.7689 45.3664 37.9021C45.2791 37.9994 45.1981 38.1022 45.1241 38.2099C44.6653 38.9225 44.508 39.788 44.6866 40.6165C44.7001 40.7729 44.7477 40.9244 44.826 41.0605C44.9043 41.1965 45.0114 41.3138 45.1398 41.4041C45.2566 41.4523 45.382 41.4765 45.5083 41.4753C45.6347 41.474 45.7595 41.4474 45.8754 41.3968C46.3189 41.1981 46.4376 40.7037 46.6654 39.7501C46.7881 39.2225 46.7902 38.6741 46.6715 38.1457C46.6379 38.0267 46.572 37.9194 46.4812 37.8355C46.3138 37.7041 46.1015 37.6436 45.8899 37.667Z" fill="#B1C84A"/>
<path d="M47.5708 38.2596C47.5481 37.9224 47.6446 37.5878 47.8434 37.3145C47.9465 37.1802 48.0735 37.066 48.2179 36.9776C48.4312 37.0394 48.6198 37.1665 48.7571 37.3411C48.8735 37.5464 48.9577 37.7683 49.0067 37.9991C49.0916 38.2548 49.1606 38.4693 49.2103 38.6244C49.2831 38.4263 49.3288 38.2192 49.346 38.0088C49.3973 37.6934 49.3521 37.3699 49.2164 37.0806C49.1189 36.9008 48.9802 36.7468 48.8116 36.631C48.9772 36.5407 49.1519 36.468 49.3327 36.4141C49.6877 36.3178 50.0565 36.283 50.4233 36.3111C50.7557 36.3192 51.0868 36.3549 51.4133 36.4178C51.3 36.3467 51.1808 36.2855 51.057 36.2348C50.677 36.0908 50.2697 36.0333 49.8647 36.0664C49.4481 36.0794 49.0355 36.152 48.6396 36.282C48.7034 36.1732 48.7772 36.0706 48.8601 35.9755C49.0413 35.7739 49.2598 35.6093 49.5036 35.4908C49.7647 35.3618 50.049 35.2864 50.3397 35.269C50.2283 35.233 50.1133 35.2094 49.9967 35.1987C49.7204 35.1767 49.4427 35.2181 49.1849 35.3199C48.8953 35.4448 48.63 35.6195 48.4008 35.8361C48.2663 35.9464 48.1585 36.0433 48.0919 36.1124C48.0749 35.9779 48.0519 35.8082 48.0252 35.6095C48.0157 35.3558 47.962 35.1056 47.8665 34.8703C47.7699 34.6966 47.6274 34.5528 47.4545 34.4547C47.6826 34.9672 47.7287 35.5422 47.5853 36.0845C47.4241 35.9459 47.2491 35.8241 47.0631 35.721C46.7877 35.5696 46.4924 35.4578 46.1858 35.389C45.9241 35.3227 45.6567 35.2821 45.3872 35.2678C45.7265 35.4314 46.0088 35.5526 46.2076 35.6313C46.516 35.728 46.8054 35.8772 47.0631 36.0724C47.1679 36.1619 47.2629 36.2622 47.3466 36.3717C47.0028 36.3748 46.6668 36.4747 46.3772 36.6601C46.1467 36.8071 45.9542 37.0064 45.8152 37.2418C45.6763 37.4772 45.5948 37.7421 45.5775 38.0149C45.7572 37.7011 45.9964 37.4254 46.2815 37.203C46.4328 37.0798 46.6036 36.9828 46.7868 36.9158C46.9142 36.8744 47.0447 36.8432 47.177 36.8225C47.3153 36.7969 47.4548 36.7783 47.595 36.7667C47.4658 36.9178 47.377 37.0992 47.3369 37.2939C47.3087 37.4623 47.3149 37.6347 47.3551 37.8007C47.3953 37.9667 47.4686 38.1228 47.5708 38.2596Z" fill="#267237"/>
</svg>
