<svg viewBox="0 0 450 473" fill="none" xmlns="http://www.w3.org/2000/svg">
    <path d="M0.462287 162.07L77.7145 128.039L86.8578 44.2247L169.344 61.9639L225.798 0L281.932 62.7901L364.539 45.7081L373.076 129.227L450 164.204L407.37 237.062L449.175 309.976L371.923 344.008L362.782 427.824L280.564 409.722L223.84 472.048L167.706 409.257L85.1012 426.338L76.8331 342.459L0 308.114L42.2705 234.985L0.462287 162.07Z" fill="#DD6400"/>
    <path d="M154.795 22.5422L222.945 61.019L290.258 21.2875L322.869 92.3862L400.217 99.9142L384.747 176.45L443.282 228.31L386.002 281.006L402.725 357.542L324.961 366.325L294.021 437.84L225.871 399.364L158.558 439.098L126.365 367.998L48.5988 360.469L64.0686 283.934L5.53516 232.074L63.2324 179.377L46.0903 103.26L123.856 94.0591L154.795 22.5422Z" fill="#EF790A"/>
    <path d="M224.605 29.089L273.969 83.982L345.843 68.5802L353.742 142.034L421.271 172.048L384.151 236.024L421.271 299.605L353.742 330.013L345.843 403.072L273.969 388.066L224.605 442.564L175.241 388.066L102.972 403.072L95.0733 330.013L27.938 299.605L64.6649 236.024L27.938 172.048L95.0733 142.034L102.972 68.5802L175.241 83.982L224.605 29.089Z" fill="#F28C1C"/>
    <path d="M163.463 55.6037L222.866 88.8003L280.985 53.9688L309.743 115.702L377.588 121.783L364.247 188.646L415.56 233.066L365.693 279.697L380.549 345.785L313.38 354.086L286.534 416.327L227.249 383.477L168.664 418.079L140.029 356.69L72.4074 350.145L85.5225 283.745L34.4365 238.864L84.0732 192.694L69.102 126.262L136.735 118.186L163.463 55.6037Z" fill="#F5AA3C"/>
    <path d="M224.999 395.569C256.554 395.569 287.4 386.212 313.637 368.681C339.875 351.15 360.324 326.232 372.399 297.079C384.475 267.926 387.635 235.847 381.478 204.898C375.322 173.949 360.127 145.521 337.814 123.208C315.502 100.895 287.073 85.7002 256.125 79.5441C225.176 73.388 193.097 76.5475 163.944 88.6231C134.79 100.699 109.873 121.148 92.3418 147.385C74.8108 173.622 65.4536 204.469 65.4536 236.024C65.4538 278.338 82.2631 318.919 112.184 348.839C142.104 378.759 182.685 395.569 224.999 395.569Z" fill="#FAC63E"/>
    <path d="M142.464 285.783C169.318 286.178 196.567 286.178 224.211 286.178C251.855 286.178 279.104 285.783 306.353 285.388C305.987 294.832 303.703 304.103 299.639 312.637C281.079 349.758 233.294 353.314 230.135 353.314C202.491 354.893 166.949 343.835 151.152 315.007C145.892 306.13 142.908 296.091 142.464 285.783Z" fill="#AD5D7E"/>
    <path d="M243.166 209.17C245.848 218.363 248.912 229.468 258.485 238.658C271.122 250.529 286.824 251.295 297.546 251.69C310.183 252.456 327.029 253.222 339.284 241.734C348.856 232.924 350.388 221.052 351.923 208.798C353.838 195.766 355.752 181.229 347.713 170.492C337.369 156.705 316.691 157.46 297.929 158.249C282.61 159.015 249.295 160.165 241.255 179.31C237.44 188.097 240.121 197.287 243.166 209.17Z" fill="#20282F"/>
    <path d="M205.48 178.647C197.44 159.501 164.125 158.352 148.806 157.586C130.044 156.82 109.366 156.054 99.0233 169.828C90.9827 180.55 92.8982 195.103 94.8135 208.135C96.3457 220.377 97.8779 232.26 107.451 241.067C119.693 252.555 136.552 251.789 149.189 251.023C159.911 250.628 175.613 249.873 188.25 237.99C197.823 228.801 200.887 217.696 203.569 208.506C206.629 196.647 209.311 187.449 205.48 178.647Z" fill="#20282F"/>
    <path d="M246.973 216.771L301.077 159.608L299.679 158.225C294.608 157.286 289.735 156.745 285.766 156.342L243.826 200.655C241.306 203.321 245.382 218.454 246.973 216.771Z" fill="#83B6E3"/>
    <path d="M318.16 161.733L316.335 159.932C314.398 159.144 312.421 158.459 310.411 157.878L247.446 224.402L251.498 228.402C252.243 228.9 253.004 229.358 253.781 229.776L318.16 161.733Z" fill="#83B6E3"/>
    <path d="M165.988 161.733L164.164 159.932C162.219 159.143 160.234 158.458 158.217 157.878L95.2754 224.402L99.327 228.402C100.073 228.9 100.836 229.358 101.606 229.776L165.988 161.733Z" fill="#83B6E3"/>
    <path d="M94.8014 216.771L148.905 159.608L147.511 158.225C142.44 157.286 137.567 156.745 133.598 156.342L91.654 200.655C89.1502 203.321 93.2101 218.454 94.8014 216.771Z" fill="#83B6E3"/>
    <path d="M372.613 159.762C370.641 158.45 368.43 157.539 366.106 157.081C365.005 156.644 363.841 156.386 362.659 156.315L359.599 155.548C348.489 153.25 321.291 153.633 321.291 153.633C306.739 154.028 309.803 153.633 302.525 154.028C283.379 154.794 274.19 155.177 265.383 157.476C262.702 158.242 256.19 160.157 247 162.068C242.786 162.834 240.492 163.601 239.726 163.601C235.522 163.987 231.292 163.987 227.089 163.601H207.568C205.094 163.361 202.654 162.847 200.294 162.068C191.104 160.157 184.975 158.242 181.914 157.476C173.104 155.177 163.914 154.794 144.769 154.028C137.491 153.633 140.555 154.028 126.003 153.633C126.003 153.633 98.8165 152.867 88.0909 155.548L85.0261 156.315C83.9133 156.712 82.7552 156.97 81.5787 157.081C77.7521 158.23 75.8366 158.613 75.0706 159.762C72.7721 161.673 73.1551 165.121 73.1551 169.335C72.9652 172.026 73.6361 174.708 75.0706 176.992C76.6028 179.29 77.7521 179.29 80.8124 181.972C82.7276 183.934 84.3996 186.119 85.7924 188.48C87.5988 192.431 88.2623 196.809 87.7076 201.117C88.1572 206.773 88.9233 212.399 90.0023 217.968C91.0484 226.239 94.3629 234.059 99.579 240.561C104.64 246.675 111.457 251.086 119.107 253.198C123.852 254.479 128.746 255.124 133.66 255.114C147.446 255.509 157.019 255.876 168.89 252.433C178.429 250.611 187.299 246.244 194.559 239.795C200.221 234.049 204.538 227.117 207.197 219.501L213.709 199.968C214.169 198.123 214.81 196.328 215.624 194.609C216.196 193.024 217.112 191.585 218.306 190.395C219.08 189.606 219.986 188.957 220.983 188.48C221.378 188.085 222.132 188.085 222.899 187.714H225.963C226.729 187.714 227.112 188.109 227.878 188.48C228.877 188.958 229.784 189.606 230.56 190.395C231.577 191.717 232.473 193.127 233.237 194.609C234.051 196.328 234.693 198.123 235.153 199.968C235.153 199.968 236.685 205.714 241.665 219.501C244.326 227.116 248.642 234.047 254.302 239.795C261.563 246.244 270.432 250.611 279.972 252.433C291.843 255.876 301.415 255.493 315.202 255.114C320.119 255.161 325.018 254.516 329.755 253.198C337.364 250.995 344.156 246.6 349.284 240.561C354.343 233.966 357.638 226.191 358.858 217.968C359.937 212.399 360.703 206.773 361.153 201.117C360.79 196.813 361.446 192.484 363.068 188.48C364.341 186.04 366.027 183.838 368.05 181.972C370.73 179.29 372.259 179.29 373.791 176.992C375.051 174.637 375.709 172.006 375.706 169.335C374.528 165.121 374.528 161.673 372.613 159.762ZM199.144 213.372C195.855 221.67 190.752 229.127 184.209 235.199C177.091 241.021 168.704 245.088 159.724 247.07C149.823 249.513 139.527 249.904 129.47 248.219C123.263 247.315 117.358 244.953 112.24 241.327C106.49 236.726 102.118 230.631 99.6026 223.71C96.5381 216.053 96.1548 208.775 95.3889 193.46C94.9938 183.121 95.7837 178.907 97.6871 175.077C99.7831 171.081 102.97 167.761 106.877 165.504C110.999 163.285 115.599 162.102 120.28 162.056C130.72 161.134 141.208 160.878 151.68 161.29C161.635 162.056 168.531 163.206 171.212 163.589C183.083 165.504 189.208 166.653 194.571 171.25C199.142 174.714 202.495 179.54 204.144 185.033C207.185 195.375 203.358 204.182 199.144 213.372ZM351.553 193.843C350.787 209.158 350.787 216.436 347.343 224.093C344.874 231.039 340.493 237.146 334.705 241.711C329.652 245.458 323.715 247.832 317.473 248.602C307.447 250.704 297.059 250.309 287.222 247.453C278.282 245.757 269.94 241.757 263.021 235.846C256.103 229.936 250.848 222.32 247.778 213.755C243.564 204.182 239.737 195.375 242.798 185.415C244.447 179.922 247.801 175.095 252.375 171.633C257.734 167.419 263.863 166.27 275.734 163.972C278.412 163.577 285.307 162.44 295.263 161.673C305.732 161.044 316.236 161.301 326.662 162.44C331.337 162.535 335.926 163.715 340.067 165.887C343.974 168.143 347.16 171.463 349.255 175.46C351.17 179.29 351.936 183.105 351.553 193.843Z" fill="#0B65AF"/>
    <path d="M142.464 285.783C169.318 286.178 196.567 286.178 224.211 286.178C251.855 286.178 279.104 285.783 306.353 285.388C306.243 287.56 306.057 289.392 305.887 290.783C305.694 292.386 305.464 293.717 305.006 296.378C304.611 298.688 304.398 299.696 304.122 300.778C304.122 300.778 303.77 302.14 303.332 303.459C301.397 309.261 148.308 310.445 145.896 303.823C145.252 302.061 144.735 300.189 144.735 300.189C144.28 298.558 144.04 297.354 143.724 295.77C143.232 293.484 142.873 291.171 142.65 288.843C142.531 287.568 142.484 286.509 142.464 285.783Z" fill="white"/>
</svg>
