<svg width="138" height="144" viewBox="0 0 138 144" fill="none" xmlns="http://www.w3.org/2000/svg">
<path d="M0.301427 49.3991L23.8479 39.0264L26.6348 13.4797L51.7767 18.8866L68.9837 0L86.0935 19.1384L111.272 13.9318L113.874 39.3885L137.321 50.0495L124.327 72.2564L137.069 94.4808L113.523 104.854L110.737 130.401L85.6766 124.883L68.387 143.88L51.2775 124.742L26.0994 129.948L23.5792 104.381L0.160522 93.9131L13.0446 71.6235L0.301427 49.3991Z" fill="#DD6400"/>
<path d="M47.342 6.87095L68.1139 18.5987L88.6311 6.48853L98.571 28.1594L122.146 30.4539L117.431 53.782L135.273 69.5889L117.814 85.6508L122.911 108.979L99.2086 111.656L89.778 133.454L69.006 121.726L48.4889 133.837L38.6764 112.166L14.9733 109.871L19.6885 86.5432L1.84753 70.7362L19.4337 54.6743L14.2087 31.4737L37.9117 28.6693L47.342 6.87095Z" fill="#EF790A"/>
<path d="M68.6203 8.86633L83.6664 25.5977L105.574 20.9033L107.981 43.292L128.564 52.4402L117.25 71.94L128.564 91.3196L107.981 100.588L105.574 122.856L83.6664 118.282L68.6203 134.893L53.5741 118.282L31.5464 122.856L29.139 100.588L8.67615 91.3196L19.8705 71.94L8.67615 52.4402L29.139 43.292L31.5464 20.9033L53.5741 25.5977L68.6203 8.86633Z" fill="#F28C1C"/>
<path d="M49.9838 16.9481L68.0899 27.0664L85.8046 16.4497L94.57 35.2659L115.249 37.1196L111.183 57.4994L126.823 71.0386L111.624 85.2518L116.152 105.395L95.6785 107.925L87.4958 126.896L69.426 116.884L51.5691 127.43L42.8411 108.719L22.2301 106.724L26.2276 86.4857L10.6566 72.8057L25.7859 58.7332L21.2226 38.4846L41.8372 36.023L49.9838 16.9481Z" fill="#F5AA3C"/>
<path d="M68.7401 120.569C78.3581 120.569 87.7601 117.717 95.7572 112.374C103.754 107.03 109.987 99.4354 113.668 90.5496C117.348 81.6637 118.311 71.886 116.435 62.4528C114.559 53.0196 109.927 44.3547 103.126 37.5538C96.3253 30.7528 87.6604 26.1213 78.2272 24.245C68.794 22.3686 59.0163 23.3316 50.1304 27.0123C41.2446 30.6929 33.6497 36.9259 28.3062 44.9229C22.9628 52.92 20.1107 62.322 20.1107 71.94C20.1108 84.8372 25.2343 97.2063 34.354 106.326C43.4738 115.446 55.8428 120.569 68.7401 120.569Z" fill="#FAC63E"/>
<path d="M43.5834 87.1065C51.7685 87.227 60.074 87.227 68.4999 87.227C76.9258 87.227 85.2313 87.1065 93.5368 86.9862C93.4252 89.8649 92.729 92.6907 91.4905 95.2917C85.8332 106.606 71.2684 107.69 70.3054 107.69C61.8795 108.171 51.0463 104.801 46.2315 96.014C44.6283 93.3084 43.7186 90.2485 43.5834 87.1065Z" fill="#AD5D7E"/>
<path d="M74.2774 63.7548C75.0948 66.5571 76.0288 69.9418 78.9465 72.7428C82.7984 76.3612 87.5843 76.5947 90.8524 76.7151C94.7041 76.9485 99.8389 77.1821 103.574 73.6805C106.492 70.995 106.959 67.3767 107.426 63.6417C108.01 59.6695 108.594 55.2387 106.143 51.9658C102.991 47.7638 96.6879 47.9936 90.9691 48.2344C86.2999 48.4678 76.1455 48.8181 73.6948 54.6537C72.5321 57.3319 73.3493 60.1329 74.2774 63.7548Z" fill="#20282F"/>
<path d="M62.791 54.4515C60.3404 48.616 50.186 48.2657 45.5168 48.0323C39.7981 47.7987 33.4955 47.5652 30.343 51.7637C27.8922 55.0318 28.4761 59.4674 29.0598 63.4396C29.5269 67.171 29.9939 70.7929 32.9117 73.4772C36.6431 76.9787 41.7818 76.7453 45.6336 76.5117C48.9016 76.3914 53.6875 76.1614 57.5394 72.5395C60.4571 69.7385 61.3911 66.3537 62.2085 63.5527C63.1413 59.938 63.9587 57.1346 62.791 54.4515Z" fill="#20282F"/>
<path d="M75.4377 66.072L91.9284 48.6485L91.5023 48.2272C89.9568 47.9407 88.4714 47.7758 87.2616 47.6531L74.4783 61.1597C73.7104 61.9723 74.9527 66.5848 75.4377 66.072Z" fill="#83B6E3"/>
<path d="M97.1354 49.2961L96.5792 48.7473C95.9887 48.5072 95.386 48.2983 94.7737 48.1213L75.5819 68.3976L76.8169 69.617C77.044 69.7687 77.2759 69.9083 77.5126 70.0359L97.1354 49.2961Z" fill="#83B6E3"/>
<path d="M50.7539 49.2961L50.1978 48.7473C49.605 48.5068 48.9999 48.2979 48.385 48.1213L29.2006 68.3976L30.4355 69.617C30.663 69.7687 30.8953 69.9083 31.13 70.0359L50.7539 49.2961Z" fill="#83B6E3"/>
<path d="M29.0559 66.072L45.5466 48.6485L45.1217 48.2272C43.5761 47.9407 42.0907 47.7758 40.881 47.6531L28.0965 61.1597C27.3334 61.9723 28.5708 66.5848 29.0559 66.072Z" fill="#83B6E3"/>
<path d="M113.733 48.6954C113.132 48.2954 112.458 48.0177 111.75 47.8781C111.414 47.7451 111.059 47.6663 110.699 47.6446L109.766 47.411C106.38 46.7104 98.0902 46.8273 98.0902 46.8273C93.6545 46.9476 94.5886 46.8273 92.3701 46.9476C86.5346 47.1812 83.7336 47.2979 81.0494 47.9985C80.2321 48.232 78.2471 48.8157 75.4462 49.3983C74.1618 49.6319 73.4625 49.8654 73.2289 49.8654C71.9477 49.9831 70.6584 49.9831 69.3772 49.8654H63.4273C62.6732 49.7923 61.9295 49.6356 61.21 49.3983C58.4091 48.8157 56.5409 48.232 55.6081 47.9985C52.9226 47.2979 50.1216 47.1812 44.2861 46.9476C42.0677 46.8273 43.0017 46.9476 38.5661 46.8273C38.5661 46.8273 30.2798 46.5937 27.0107 47.411L26.0765 47.6446C25.7373 47.7658 25.3843 47.8442 25.0257 47.8781C23.8594 48.2284 23.2755 48.3451 23.0421 48.6954C22.3415 49.278 22.4582 50.3288 22.4582 51.6132C22.4004 52.4334 22.6048 53.2508 23.0421 53.9471C23.5091 54.6476 23.8594 54.6476 24.7922 55.4649C25.3759 56.0629 25.8855 56.7289 26.3101 57.4487C26.8607 58.6529 27.0629 59.9872 26.8938 61.3005C27.0309 63.0242 27.2644 64.739 27.5932 66.4367C27.9121 68.9575 28.9224 71.3409 30.5122 73.3231C32.0549 75.1864 34.1326 76.531 36.4645 77.1748C37.9106 77.5653 39.4022 77.7616 40.9001 77.7587C45.1022 77.879 48.0199 77.991 51.6382 76.9414C54.5458 76.3861 57.2492 75.0552 59.4623 73.0895C61.1881 71.3379 62.5036 69.2252 63.3141 66.9037L65.2991 60.9503C65.4392 60.3878 65.6347 59.8407 65.8828 59.3168C66.057 58.8336 66.3361 58.3949 66.7001 58.0325C66.936 57.7917 67.2122 57.5942 67.5162 57.4487C67.6366 57.3283 67.8665 57.3283 68.1 57.2151H69.0341C69.2677 57.2151 69.3844 57.3355 69.6179 57.4487C69.9221 57.5943 70.1987 57.7919 70.4352 58.0325C70.7451 58.4353 71.0183 58.8651 71.2513 59.3168C71.4994 59.8407 71.6949 60.3878 71.8351 60.9503C71.8351 60.9503 72.3021 62.7016 73.82 66.9037C74.631 69.225 75.9465 71.3376 77.6719 73.0895C79.885 75.0552 82.5883 76.3861 85.4959 76.9414C89.1142 77.991 92.0319 77.8742 96.234 77.7587C97.7327 77.773 99.2259 77.5765 100.67 77.1748C102.989 76.5033 105.059 75.1636 106.622 73.3231C108.164 71.3128 109.169 68.9428 109.54 66.4367C109.869 64.739 110.103 63.0242 110.24 61.3005C110.129 59.9885 110.329 58.669 110.824 57.4487C111.212 56.7049 111.725 56.0338 112.342 55.4649C113.159 54.6476 113.625 54.6476 114.092 53.9471C114.476 53.2292 114.677 52.4274 114.676 51.6132C114.317 50.3288 114.317 49.278 113.733 48.6954ZM60.8598 65.0356C59.8572 67.5648 58.3018 69.8379 56.3074 71.6884C54.138 73.4631 51.5815 74.7026 48.8445 75.3067C45.8267 76.0515 42.6885 76.1707 39.6229 75.657C37.731 75.3815 35.9313 74.6617 34.3713 73.5565C32.6188 72.1541 31.2861 70.2964 30.5194 68.1869C29.5854 65.8529 29.4685 63.6345 29.2351 58.9665C29.1147 55.8152 29.3554 54.5309 29.9356 53.3633C30.5744 52.1453 31.5457 51.1336 32.7366 50.4456C33.9931 49.7693 35.3951 49.4087 36.822 49.3947C40.0039 49.1135 43.2006 49.0355 46.3925 49.1612C49.427 49.3947 51.5287 49.745 52.346 49.8617C55.9643 50.4456 57.8312 50.7959 59.4659 52.1969C60.8591 53.2526 61.8809 54.7237 62.3837 56.3978C63.3105 59.5504 62.1441 62.2346 60.8598 65.0356ZM107.314 59.0833C107.08 63.7512 107.08 65.9696 106.031 68.3036C105.278 70.4206 103.943 72.282 102.179 73.6733C100.639 74.8154 98.829 75.5391 96.9262 75.7737C93.8705 76.4144 90.7041 76.2941 87.7058 75.4234C84.9809 74.9068 82.4381 73.6873 80.3294 71.8858C78.2207 70.0843 76.6191 67.7632 75.6833 65.1523C74.399 62.2346 73.2325 59.5504 74.1654 56.5146C74.668 54.84 75.6903 53.3688 77.0844 52.3137C78.7178 51.0293 80.5859 50.679 84.2042 49.9786C85.0204 49.8581 87.122 49.5115 90.1566 49.278C93.3477 49.0862 96.5493 49.1644 99.7272 49.5115C101.152 49.5406 102.551 49.9003 103.813 50.5623C105.004 51.25 105.975 52.2619 106.613 53.4801C107.197 54.6476 107.431 55.8105 107.314 59.0833Z" fill="#0B65AF"/>
<path d="M43.5834 87.1065C51.7685 87.227 60.074 87.227 68.4999 87.227C76.9258 87.227 85.2313 87.1065 93.5368 86.9862C93.5031 87.6483 93.4465 88.2067 93.3948 88.6305C93.3358 89.1192 93.266 89.5248 93.1264 90.3361C93.0059 91.0402 92.941 91.3472 92.8567 91.677C92.8567 91.677 92.7496 92.0922 92.616 92.4943C92.0262 94.2626 45.3648 94.6237 44.6294 92.6051C44.4332 92.0682 44.2755 91.4977 44.2755 91.4977C44.1371 91.0005 44.0636 90.6334 43.9673 90.1507C43.8175 89.4539 43.7082 88.7489 43.64 88.0394C43.6038 87.6506 43.5894 87.328 43.5834 87.1065Z" fill="white"/>
</svg>
