<?xml version="1.0" encoding="UTF-8" standalone="no"?>
<svg viewBox="0 0 649 370" fill="none" xmlns="http://www.w3.org/2000/svg">
<path d="M599.239 183.128C600.083 179.116 600.504 174.892 600.504 170.458C600.504 137.518 574.991 110.279 542.52 107.956C543.364 102.888 543.785 97.8207 543.785 92.753C543.785 41.8645 502.458 0.478088 451.643 0.478088C409.895 0.478088 374.683 28.3506 363.297 66.5697C354.019 61.2908 343.477 58.1235 332.091 58.1235C297.511 58.1235 269.468 86.2072 269.468 120.837C269.468 124.215 269.679 127.594 270.311 130.972C268.835 130.761 267.148 130.761 265.673 130.761C236.997 130.761 212.749 150.187 205.369 176.582C161.723 177.426 126.511 213.323 126.511 257.243C126.511 301.797 162.566 338.116 207.267 338.116C209.586 338.116 212.116 337.904 214.436 337.693H559.599C562.129 337.904 564.66 338.116 567.401 338.116C611.89 338.116 648.157 302.008 648.157 257.243C648.157 224.092 628.126 195.375 599.239 183.128Z" fill="#417D3B"/>
<path d="M599.661 183.127C600.504 179.116 600.926 174.892 600.926 170.458C600.926 137.518 575.413 110.279 542.942 107.956C542.731 107.956 542.52 108.167 542.309 108.167C546.737 112.179 559.599 125.271 563.183 146.175C568.033 175.526 550.532 197.064 547.791 200.231C554.117 202.976 566.979 209.522 573.726 223.458C584.269 244.996 572.039 268.434 566.768 278.781C541.255 327.98 475.469 336.426 464.927 337.693C496.765 337.693 519.326 337.904 531.767 337.693C536.194 337.693 548.002 337.482 563.816 337.904C566.346 337.904 567.4 337.904 567.611 337.904C612.101 337.904 648.367 301.797 648.367 257.032C648.578 224.092 628.336 195.375 599.661 183.127Z" fill="#326437"/>
<path d="M343.688 215.223C339.892 215.223 336.308 215.434 332.723 216.068C328.085 188.195 304.048 166.869 274.739 166.869C264.408 166.869 254.708 169.614 246.274 174.259C244.798 132.872 210.851 99.9323 169.103 99.9323C126.511 99.9323 91.9312 134.562 91.9312 177.215C91.9312 185.028 92.9855 192.418 95.3048 199.598C92.1421 199.175 88.7684 198.964 85.3948 198.964C38.375 198.964 0.210938 237.183 0.210938 284.271C0.210938 331.359 38.375 369.578 85.3948 369.578H85.6057H340.314C341.368 369.578 342.422 369.578 343.477 369.578C386.069 369.578 420.648 334.948 420.648 292.295C420.859 249.641 386.28 215.223 343.688 215.223Z" fill="#326437"/>
<path d="M343.477 215.012C340.736 215.012 337.995 215.223 337.995 215.223C336.097 215.434 334.41 215.645 332.512 215.857C327.874 187.984 303.837 166.657 274.528 166.657C264.197 166.657 254.498 169.402 246.063 174.048C252.811 174.47 275.583 176.37 295.824 194.319C315.855 211.845 321.127 233.594 322.392 240.351C326.609 242.673 346.007 254.287 352.333 277.936C357.815 298.207 350.224 314.888 347.061 321.645C330.193 358.809 288.023 368.311 281.697 369.578C294.138 369.789 305.524 369.789 316.699 370C316.699 370 320.705 370 343.055 369.789C344.32 369.789 346.64 369.789 349.591 369.578C349.591 369.578 356.76 368.944 363.086 367.255C376.58 363.876 388.599 355.008 388.599 355.008C395.135 350.151 409.684 338.116 416.642 317.422C417.486 314.888 420.437 305.386 420.437 292.295C420.437 281.948 418.54 274.135 417.907 271.813C411.371 247.319 394.081 233.594 390.707 231.06C388.388 229.159 381.219 224.092 370.677 220.08C370.887 220.08 357.393 215.012 343.477 215.012Z" fill="#27522C"/>
<path d="M161.09 172.359C167.495 172.359 172.687 167.159 172.687 160.745C172.687 154.331 167.495 149.131 161.09 149.131C154.686 149.131 149.494 154.331 149.494 160.745C149.494 167.159 154.686 172.359 161.09 172.359Z" fill="#761F36"/>
<path d="M163.831 163.49C163.41 164.124 162.566 164.124 161.934 163.49L158.138 160.112C157.506 159.689 157.506 158.845 158.138 158.211C158.56 157.578 159.404 157.578 160.036 158.211L163.831 161.59C164.253 162.012 164.464 162.857 163.831 163.49Z" fill="#49131F"/>
<path d="M163.621 158C164.253 158.422 164.253 159.267 163.621 159.9L160.247 163.49C159.825 164.124 158.982 164.124 158.349 163.49C157.717 163.068 157.717 162.223 158.349 161.59L161.723 157.789C162.356 157.578 163.199 157.578 163.621 158Z" fill="#49131F"/>
<path d="M156.452 155.255C157.084 154.833 157.928 154.199 158.771 153.566C158.982 153.355 159.193 153.143 159.404 152.721C159.404 152.721 159.615 152.088 159.193 151.454C158.771 151.032 158.139 151.032 157.928 151.243C157.717 151.243 157.506 151.454 157.085 151.665C156.663 152.088 156.241 152.299 156.03 152.299C155.187 152.932 154.765 153.355 154.343 153.777C153.711 154.41 153.078 155.044 153.078 155.255C152.657 155.888 152.235 156.311 151.813 157.578C151.392 158.211 151.181 158.845 151.181 159.478C151.181 159.9 151.392 160.112 151.392 160.112C151.602 160.534 152.235 160.534 152.235 160.534C152.657 160.534 152.867 160.323 153.078 160.323C153.5 160.112 153.5 159.689 153.922 159.056C154.133 158.422 154.133 158.422 154.343 158C154.343 157.789 154.554 157.578 154.976 156.944C155.187 156.733 155.609 156.1 156.452 155.255Z" fill="#A05062"/>
<path d="M178.169 256.61C183.176 256.61 187.236 252.544 187.236 247.53C187.236 242.515 183.176 238.45 178.169 238.45C173.162 238.45 169.103 242.515 169.103 247.53C169.103 252.544 173.162 256.61 178.169 256.61Z" fill="#761F36"/>
<path d="M180.278 249.43C179.856 249.853 179.224 249.853 178.802 249.43L175.85 246.685C175.428 246.263 175.428 245.629 175.85 245.207C176.272 244.785 176.904 244.785 177.326 245.207L180.278 247.952C180.7 248.374 180.7 249.219 180.278 249.43Z" fill="#49131F"/>
<path d="M180.067 245.207C180.489 245.629 180.489 246.263 180.067 246.685L177.326 249.641C176.904 250.064 176.272 250.064 175.85 249.641C175.428 249.219 175.428 248.586 175.85 248.163L178.591 245.207C179.013 244.996 179.645 244.785 180.067 245.207Z" fill="#49131F"/>
<path d="M174.374 243.096C174.795 242.673 175.428 242.251 176.271 241.618C176.482 241.406 176.693 241.406 176.693 240.984C176.693 240.984 176.904 240.351 176.482 240.139C176.061 239.717 175.639 239.928 175.428 239.928C175.217 239.928 175.006 240.139 174.795 240.351C174.374 240.562 174.163 240.773 173.952 240.984C173.32 241.406 172.898 241.829 172.687 242.04C172.054 242.673 171.633 243.096 171.633 243.307C171.211 243.729 171 244.151 170.578 244.996C170.368 245.418 170.157 245.841 170.157 246.474C170.157 246.685 170.157 246.896 170.368 247.108C170.578 247.319 171 247.319 171 247.319C171.211 247.319 171.633 247.108 171.633 247.108C171.844 246.896 172.054 246.685 172.265 246.263C172.476 245.841 172.476 245.841 172.687 245.418C172.687 245.207 172.898 244.996 173.109 244.574C173.32 244.151 173.741 243.729 174.374 243.096Z" fill="#A05062"/>
<path d="M283.173 301.797C290.16 301.797 295.824 296.125 295.824 289.127C295.824 282.13 290.16 276.458 283.173 276.458C276.186 276.458 270.522 282.13 270.522 289.127C270.522 296.125 276.186 301.797 283.173 301.797Z" fill="#761F36"/>
<path d="M286.336 292.084C285.703 292.717 284.86 292.717 284.227 292.084L280.221 288.283C279.588 287.649 279.588 286.805 280.221 286.171C280.854 285.538 281.697 285.538 282.33 286.171L286.336 289.972C286.757 290.606 286.757 291.45 286.336 292.084Z" fill="#49131F"/>
<path d="M286.125 286.171C286.757 286.805 286.757 287.649 286.125 288.283L282.33 292.295C281.697 292.928 280.854 292.928 280.221 292.295C279.588 291.661 279.588 290.817 280.221 290.183L284.016 286.171C284.438 285.538 285.492 285.538 286.125 286.171Z" fill="#49131F"/>
<path d="M278.113 283.215C278.745 282.793 279.8 281.948 280.643 281.315C280.854 281.104 281.275 280.892 281.275 280.47C281.275 280.47 281.486 279.625 281.065 279.203C280.643 278.781 279.8 278.781 279.589 278.781C279.378 278.781 278.956 278.992 278.534 279.203C277.902 279.625 277.691 279.837 277.48 280.048C276.637 280.681 276.215 281.104 275.583 281.526C274.739 282.371 274.317 283.004 274.107 283.215C273.685 283.849 273.263 284.482 272.631 285.749C272.209 286.382 271.998 287.016 271.998 287.861C271.998 288.283 272.209 288.494 272.209 288.705C272.631 289.127 273.052 289.127 273.263 289.127C273.685 289.127 274.107 288.916 274.107 288.916C274.528 288.705 274.528 288.283 274.95 287.649C275.161 287.016 275.161 287.016 275.372 286.382C275.372 286.171 275.583 285.96 276.004 285.327C276.637 284.693 277.269 283.849 278.113 283.215Z" fill="#A05062"/>
<path d="M144.012 337.693C151.464 337.693 157.506 331.643 157.506 324.179C157.506 316.716 151.464 310.665 144.012 310.665C136.559 310.665 130.517 316.716 130.517 324.179C130.517 331.643 136.559 337.693 144.012 337.693Z" fill="#761F36"/>
<path d="M147.385 327.347C146.753 327.98 145.909 327.98 145.277 327.347L141.06 323.335C140.427 322.701 140.427 321.857 141.06 321.223C141.692 320.59 142.536 320.59 143.168 321.223L147.385 325.235C147.807 325.657 147.807 326.713 147.385 327.347Z" fill="#49131F"/>
<path d="M146.964 321.012C147.596 321.645 147.596 322.49 146.964 323.124L142.957 327.347C142.325 327.98 141.481 327.98 140.849 327.347C140.216 326.713 140.216 325.869 140.849 325.235L144.855 321.012C145.488 320.378 146.331 320.378 146.964 321.012Z" fill="#49131F"/>
<path d="M138.529 317.844C139.162 317.211 140.216 316.578 141.27 315.733C141.481 315.522 141.903 315.311 142.114 314.888C142.114 314.888 142.325 314.044 141.903 313.621C141.481 312.988 140.638 313.199 140.427 313.199C140.216 313.199 139.795 313.41 139.373 313.833C138.74 314.255 138.319 314.466 138.319 314.677C137.475 315.522 136.843 315.733 136.421 316.366C135.577 317.211 134.945 317.845 134.945 318.056C134.523 318.689 134.102 319.323 133.469 320.59C133.047 321.434 132.836 322.068 132.836 322.701C132.836 323.123 133.047 323.335 133.047 323.546C133.469 323.968 133.891 323.968 134.102 323.968C134.523 323.968 134.945 323.757 134.945 323.757C135.367 323.546 135.577 323.123 135.788 322.49C135.999 321.856 135.999 321.645 136.21 321.223C136.21 321.012 136.421 320.59 137.053 320.167C137.053 319.323 137.686 318.689 138.529 317.844Z" fill="#A05062"/>
<path d="M71.9001 263.155C76.9074 263.155 80.9667 259.09 80.9667 254.076C80.9667 249.061 76.9074 244.996 71.9001 244.996C66.8927 244.996 62.8335 249.061 62.8335 254.076C62.8335 259.09 66.8927 263.155 71.9001 263.155Z" fill="#761F36"/>
<path d="M74.0088 256.187C73.5871 256.61 72.9545 256.61 72.5328 256.187L69.5809 253.442C69.1592 253.02 69.1592 252.387 69.5809 251.964C70.0026 251.542 70.6352 251.542 71.0569 251.964L74.0088 254.709C74.4305 254.92 74.4305 255.765 74.0088 256.187Z" fill="#49131F"/>
<path d="M73.798 251.753C74.2197 252.175 74.2197 252.809 73.798 253.231L71.0569 256.187C70.6352 256.61 70.0026 256.61 69.5809 256.187C69.1592 255.765 69.1592 255.132 69.5809 254.709L72.322 251.753C72.7437 251.542 73.3762 251.331 73.798 251.753Z" fill="#49131F"/>
<path d="M68.1047 249.642C68.5264 249.219 69.159 248.797 70.0024 248.163C70.2132 247.952 70.4241 247.952 70.4241 247.53C70.4241 247.53 70.6349 246.896 70.2132 246.685C69.7915 246.263 69.3698 246.474 69.159 246.474C68.9481 246.474 68.7373 246.685 68.5264 246.896C68.1047 247.108 67.8939 247.319 67.683 247.53C67.0505 247.952 66.6288 248.375 66.4179 248.586C65.7854 249.219 65.3637 249.642 65.3637 249.853C64.942 250.275 64.7311 250.697 64.3094 251.542C64.0985 251.964 63.8877 252.387 63.8877 253.02C63.8877 253.231 63.8877 253.442 64.0985 253.653C64.3094 253.865 64.7311 253.865 64.7311 253.865C64.942 253.865 65.3637 253.653 65.3637 253.653C65.5745 253.442 65.7854 253.231 65.9962 252.809C66.2071 252.387 66.2071 252.387 66.4179 251.964C66.4179 251.753 66.6288 251.542 66.8396 251.12C67.0505 250.697 67.4722 250.275 68.1047 249.642Z" fill="#A05062"/>
<path d="M352.332 153.143C357.34 153.143 361.399 149.078 361.399 144.064C361.399 139.049 357.34 134.984 352.332 134.984C347.325 134.984 343.266 139.049 343.266 144.064C343.266 149.078 347.325 153.143 352.332 153.143Z" fill="#761F36"/>
<path d="M354.651 146.175C354.23 146.598 353.597 146.598 353.175 146.175L350.224 143.43C349.802 143.008 349.802 142.374 350.224 141.952C350.645 141.53 351.278 141.53 351.699 141.952L354.651 144.697C354.862 145.12 355.073 145.753 354.651 146.175Z" fill="#49131F"/>
<path d="M354.441 141.952C354.862 142.374 354.862 143.008 354.441 143.43L351.699 146.386C351.278 146.809 350.645 146.809 350.224 146.386C349.802 145.964 349.802 145.331 350.224 144.908L352.965 141.952C353.386 141.53 354.019 141.53 354.441 141.952Z" fill="#49131F"/>
<path d="M348.748 139.841C349.169 139.418 349.802 138.996 350.645 138.363C350.856 138.151 351.067 138.151 351.067 137.729C351.067 137.729 351.278 137.096 350.856 136.884C350.435 136.462 350.013 136.673 349.802 136.673C349.591 136.673 349.38 136.884 349.17 137.096C348.748 137.307 348.537 137.518 348.326 137.729C347.694 138.151 347.272 138.574 347.061 138.785C346.428 139.418 346.007 139.841 346.007 140.052C345.585 140.474 345.374 140.896 344.952 141.741C344.742 142.163 344.531 142.586 344.531 143.219C344.531 143.43 344.531 143.641 344.742 143.853C344.952 144.064 345.374 144.064 345.374 144.064C345.585 144.064 346.007 143.853 346.007 143.853C346.218 143.641 346.428 143.43 346.639 143.008C346.85 142.586 346.85 142.586 347.061 142.163C347.061 141.952 347.272 141.741 347.483 141.319C347.694 140.896 348.115 140.263 348.748 139.841Z" fill="#A05062"/>
<path d="M457.125 198.964C463.879 198.964 469.355 193.481 469.355 186.717C469.355 179.953 463.879 174.47 457.125 174.47C450.371 174.47 444.896 179.953 444.896 186.717C444.896 193.481 450.371 198.964 457.125 198.964Z" fill="#761F36"/>
<path d="M460.077 189.462C459.656 190.096 458.601 190.096 458.18 189.462L454.174 185.873C453.541 185.45 453.541 184.394 454.174 183.972C454.595 183.339 455.65 183.339 456.071 183.972L460.077 187.562C460.499 187.984 460.71 188.829 460.077 189.462Z" fill="#49131F"/>
<path d="M459.867 183.761C460.499 184.183 460.499 185.239 459.867 185.661L456.282 189.673C455.861 190.307 454.806 190.307 454.385 189.673C453.752 189.251 453.752 188.195 454.385 187.773L457.969 183.761C458.391 183.339 459.234 183.127 459.867 183.761Z" fill="#49131F"/>
<path d="M452.276 181.016C452.909 180.594 453.752 179.749 454.806 179.116C455.017 178.904 455.439 178.693 455.439 178.271C455.439 178.271 455.65 177.426 455.228 177.004C454.806 176.582 453.963 176.582 453.963 176.582C453.752 176.582 453.541 176.793 452.909 177.004C452.487 177.426 452.065 177.637 451.854 177.637C451.011 178.271 450.589 178.693 450.167 179.116C449.324 179.96 448.902 180.594 448.692 180.805C448.27 181.438 447.848 182.072 447.216 183.127C446.794 183.761 446.583 184.394 446.583 185.028C446.583 185.45 446.794 185.661 446.794 185.873C447.216 186.295 447.637 186.295 447.848 186.295C448.27 186.295 448.481 186.084 448.692 186.084C449.113 185.873 449.113 185.45 449.535 184.817C449.746 184.183 449.746 184.183 449.957 183.761C449.957 183.55 450.167 183.339 450.589 182.705C450.8 182.283 451.433 181.649 452.276 181.016Z" fill="#A05062"/>
<path d="M504.989 127.383C509.996 127.383 514.055 123.317 514.055 118.303C514.055 113.288 509.996 109.223 504.989 109.223C499.981 109.223 495.922 113.288 495.922 118.303C495.922 123.317 499.981 127.383 504.989 127.383Z" fill="#761F36"/>
<path d="M507.308 120.414C506.886 120.837 506.253 120.837 505.832 120.414L502.88 117.669C502.458 117.247 502.458 116.614 502.88 116.191C503.301 115.769 503.934 115.769 504.356 116.191L507.308 118.936C507.729 119.359 507.729 119.992 507.308 120.414Z" fill="#49131F"/>
<path d="M507.097 115.98C507.519 116.402 507.519 117.036 507.097 117.458L504.356 120.414C503.934 120.837 503.301 120.837 502.88 120.414C502.458 119.992 502.458 119.359 502.88 118.936L505.621 115.98C506.043 115.769 506.675 115.769 507.097 115.98Z" fill="#49131F"/>
<path d="M501.404 114.08C501.826 113.657 502.458 113.235 503.302 112.602C503.513 112.39 503.723 112.39 503.723 111.968C503.723 111.968 503.934 111.335 503.513 111.124C503.091 110.701 502.669 110.912 502.458 110.912C502.247 110.912 502.037 111.124 501.826 111.335C501.404 111.546 501.193 111.757 500.982 111.968C500.35 112.39 499.928 112.813 499.717 113.024C499.085 113.657 498.663 114.08 498.663 114.291C498.241 114.713 498.03 115.136 497.609 115.98C497.398 116.402 497.187 116.825 497.187 117.458C497.187 117.669 497.187 117.881 497.398 118.092C497.609 118.303 498.03 118.303 498.03 118.303C498.241 118.303 498.663 118.092 498.663 118.092C498.874 117.881 499.085 117.669 499.296 117.247C499.506 116.825 499.506 116.825 499.717 116.402C499.717 116.191 499.928 115.98 500.139 115.558C500.35 114.924 500.771 114.502 501.404 114.08Z" fill="#A05062"/>
<path d="M469.355 285.538C474.362 285.538 478.421 281.473 478.421 276.458C478.421 271.444 474.362 267.378 469.355 267.378C464.347 267.378 460.288 271.444 460.288 276.458C460.288 281.473 464.347 285.538 469.355 285.538Z" fill="#761F36"/>
<path d="M471.463 278.57C471.042 278.992 470.409 278.992 469.987 278.57L467.036 275.825C466.614 275.402 466.614 274.769 467.036 274.347C467.457 273.924 468.09 273.924 468.511 274.347L471.463 277.092C471.885 277.514 471.885 278.147 471.463 278.57Z" fill="#49131F"/>
<path d="M471.253 274.347C471.674 274.769 471.674 275.402 471.253 275.825L468.511 278.781C468.09 279.203 467.457 279.203 467.036 278.781C466.614 278.358 466.614 277.725 467.036 277.303L469.777 274.347C470.198 273.924 470.831 273.924 471.253 274.347Z" fill="#49131F"/>
<path d="M465.559 272.235C465.981 271.813 466.614 271.39 467.457 270.757C467.668 270.546 467.879 270.546 467.879 270.123C467.879 270.123 468.09 269.49 467.668 269.279C467.246 268.857 466.824 269.068 466.614 269.068C466.403 269.068 466.192 269.279 465.981 269.49C465.559 269.701 465.348 269.912 465.138 270.123C464.505 270.546 464.083 270.968 463.872 271.179C463.24 271.813 462.818 272.235 462.818 272.446C462.397 272.868 462.186 273.291 461.764 274.135C461.553 274.558 461.342 274.98 461.342 275.613C461.342 275.825 461.342 276.036 461.553 276.247C461.764 276.458 462.186 276.458 462.186 276.458C462.397 276.458 462.818 276.247 462.818 276.247C463.029 276.036 463.24 275.825 463.451 275.402C463.662 274.98 463.662 274.98 463.872 274.558C463.872 274.347 464.083 274.135 464.294 273.713C464.505 273.291 464.927 272.657 465.559 272.235Z" fill="#A05062"/>
<path d="M440.89 72.4821C448.808 72.4821 455.227 66.0535 455.227 58.1235C455.227 50.1935 448.808 43.765 440.89 43.765C432.971 43.765 426.552 50.1935 426.552 58.1235C426.552 66.0535 432.971 72.4821 440.89 72.4821Z" fill="#761F36"/>
<path d="M444.263 61.2908C443.63 61.9243 442.576 61.9243 441.944 61.2908L437.305 57.0677C436.672 56.4342 436.672 55.3785 437.305 54.745C437.938 54.1115 438.992 54.1115 439.624 54.745L444.263 58.9681C444.896 59.6016 444.896 60.6574 444.263 61.2908Z" fill="#49131F"/>
<path d="M444.052 54.745C444.685 55.3785 444.685 56.4342 444.052 57.0677L439.835 61.7131C439.203 62.3466 438.148 62.3466 437.516 61.7131C436.883 61.0797 436.883 60.0239 437.516 59.3904L441.733 54.745C442.365 54.1115 443.42 54.1115 444.052 54.745Z" fill="#49131F"/>
<path d="M434.986 51.3665C435.619 50.7331 436.884 49.8884 437.938 49.255C438.149 49.0438 438.571 48.8327 438.781 48.1992C438.781 48.1992 438.992 47.3546 438.571 46.7211C438.149 46.0876 437.095 46.2988 436.884 46.2988C436.462 46.2988 436.251 46.51 435.829 46.9323C435.197 47.3546 434.775 47.7769 434.564 47.7769C433.51 48.6215 433.088 49.0438 432.456 49.4661C431.612 50.3108 430.98 51.1554 430.769 51.3665C430.136 52 429.926 52.8446 429.082 54.1116C428.66 54.9562 428.239 55.5896 428.45 56.4343C428.45 56.8566 428.661 57.0677 428.661 57.2789C429.082 57.7012 429.715 57.7012 429.715 57.7012C430.136 57.7012 430.558 57.49 430.769 57.2789C431.191 57.0677 431.402 56.6454 431.612 55.8008C432.034 55.1673 431.823 54.9562 432.245 54.5339C432.245 54.3227 432.456 53.9004 433.088 53.2669C433.51 53.0558 434.143 52.2111 434.986 51.3665Z" fill="#A05062"/>
<path d="M121.029 228.315C128.016 228.315 133.68 222.642 133.68 215.645C133.68 208.648 128.016 202.976 121.029 202.976C114.042 202.976 108.377 208.648 108.377 215.645C108.377 222.642 114.042 228.315 121.029 228.315Z" fill="#B32646"/>
<path d="M123.98 218.39C123.348 219.024 122.504 219.024 121.872 218.39L117.866 214.59C117.233 213.956 117.233 213.111 117.866 212.478C118.498 211.845 119.341 211.845 119.974 212.478L123.98 216.279C124.613 216.912 124.613 217.968 123.98 218.39Z" fill="#6C1626"/>
<path d="M123.769 212.478C124.402 213.111 124.402 213.956 123.769 214.59L120.185 218.602C119.552 219.235 118.709 219.235 118.076 218.602C117.444 217.968 117.444 217.123 118.076 216.49L121.872 212.478C122.293 212.056 123.137 212.056 123.769 212.478Z" fill="#6C1626"/>
<path d="M115.968 209.733C116.601 209.311 117.655 208.466 118.498 207.833C118.709 207.622 119.131 207.41 119.131 206.988C119.131 206.988 119.342 206.143 118.92 205.721C118.498 205.299 117.655 205.299 117.444 205.299C117.233 205.299 116.812 205.51 116.39 205.721C115.757 206.143 115.547 206.355 115.336 206.566C114.492 207.199 114.071 207.622 113.438 208.044C112.595 208.888 112.173 209.522 111.962 209.733C111.54 210.367 111.119 211 110.486 212.267C110.064 212.9 109.854 213.534 109.854 214.379C109.854 214.801 110.064 215.012 110.064 215.223C110.486 215.645 110.908 215.645 111.119 215.645C111.54 215.645 111.962 215.434 111.962 215.434C112.384 215.223 112.384 214.801 112.805 214.167C113.016 213.534 113.016 213.534 113.227 212.9C113.227 212.689 113.438 212.478 113.86 211.845C114.492 211 115.125 210.367 115.968 209.733Z" fill="#C8637A"/>
<path d="M215.912 305.386C220.919 305.386 224.978 301.321 224.978 296.307C224.978 291.292 220.919 287.227 215.912 287.227C210.904 287.227 206.845 291.292 206.845 296.307C206.845 301.321 210.904 305.386 215.912 305.386Z" fill="#B32646"/>
<path d="M218.021 298.418C217.599 298.841 216.966 298.841 216.545 298.418L213.593 295.673C213.171 295.251 213.171 294.617 213.593 294.195C214.014 293.773 214.647 293.773 215.069 294.195L218.021 296.94C218.442 297.362 218.442 297.996 218.021 298.418Z" fill="#6C1626"/>
<path d="M218.021 294.195C218.442 294.617 218.442 295.251 218.021 295.673L215.28 298.629C214.858 299.052 214.225 299.052 213.804 298.629C213.382 298.207 213.382 297.574 213.804 297.151L216.545 294.195C216.755 293.773 217.599 293.773 218.021 294.195Z" fill="#6C1626"/>
<path d="M212.116 292.084C212.538 291.661 213.171 291.239 214.014 290.606C214.225 290.394 214.436 290.394 214.436 289.972C214.436 289.972 214.647 289.339 214.225 289.127C213.803 288.705 213.382 288.916 213.171 288.916C212.96 288.916 212.749 289.127 212.538 289.339C212.116 289.55 211.906 289.761 211.695 289.972C211.062 290.394 210.64 290.817 210.43 291.028C209.797 291.661 209.375 292.084 209.375 292.295C208.954 292.717 208.743 293.139 208.321 293.984C208.11 294.406 207.899 294.829 207.899 295.462C207.899 295.673 207.899 295.884 208.11 296.096C208.321 296.307 208.743 296.307 208.743 296.307C208.954 296.307 209.375 296.096 209.375 296.096C209.586 295.884 209.797 295.673 210.008 295.251C210.219 294.829 210.219 294.829 210.43 294.406C210.43 294.195 210.64 293.984 210.851 293.562C211.273 293.139 211.273 292.717 212.116 292.084Z" fill="#C8637A"/>
<path d="M100.365 355.853C105.373 355.853 109.432 351.787 109.432 346.773C109.432 341.758 105.373 337.693 100.365 337.693C95.3581 337.693 91.2988 341.758 91.2988 346.773C91.2988 351.787 95.3581 355.853 100.365 355.853Z" fill="#B32646"/>
<path d="M102.685 348.884C102.263 349.307 101.63 349.307 101.209 348.884L98.2567 346.139C97.835 345.717 97.835 345.084 98.2567 344.661C98.6784 344.239 99.311 344.239 99.7327 344.661L102.685 347.406C102.895 347.829 103.106 348.462 102.685 348.884Z" fill="#6C1626"/>
<path d="M102.474 344.661C102.895 345.084 102.895 345.717 102.474 346.139L99.7327 349.096C99.311 349.518 98.6784 349.518 98.2567 349.096C97.835 348.673 97.835 348.04 98.2567 347.618L100.998 344.661C101.419 344.239 102.052 344.239 102.474 344.661Z" fill="#6C1626"/>
<path d="M96.781 342.55C97.2027 342.128 97.8352 341.705 98.6786 341.072C98.8895 340.861 99.1004 340.861 99.1004 340.438C99.1004 340.438 99.3112 339.805 98.8895 339.594C98.4678 339.171 98.0461 339.382 97.8352 339.382C97.6244 339.382 97.4135 339.594 97.2027 339.805C96.781 340.016 96.5701 340.227 96.3593 340.438C95.7267 340.861 95.305 341.283 95.0942 341.494C94.4616 342.128 94.0399 342.55 94.0399 342.761C93.6182 343.183 93.4074 343.606 92.9857 344.45C92.7748 344.873 92.564 345.295 92.564 345.928C92.564 346.139 92.564 346.351 92.7748 346.562C92.9857 346.773 93.4074 346.773 93.4074 346.773C93.6182 346.773 94.0399 346.562 94.0399 346.562C94.2508 346.351 94.4616 346.139 94.6725 345.717C94.8833 345.295 94.8833 345.295 95.0942 344.873C95.0942 344.661 95.305 344.45 95.5159 344.028C95.7267 343.606 96.1484 342.972 96.781 342.55Z" fill="#C8637A"/>
<path d="M395.557 220.502C400.564 220.502 404.623 216.437 404.623 211.422C404.623 206.408 400.564 202.343 395.557 202.343C390.549 202.343 386.49 206.408 386.49 211.422C386.49 216.437 390.549 220.502 395.557 220.502Z" fill="#B32646"/>
<path d="M397.666 213.534C397.244 213.956 396.611 213.956 396.19 213.534L393.238 210.789C392.816 210.367 392.816 209.733 393.238 209.311C393.659 208.888 394.292 208.888 394.714 209.311L397.666 212.056C398.087 212.478 398.087 213.112 397.666 213.534Z" fill="#6C1626"/>
<path d="M397.455 209.311C397.876 209.733 397.876 210.367 397.455 210.789L394.714 213.745C394.292 214.167 393.659 214.167 393.238 213.745C392.816 213.323 392.816 212.689 393.238 212.267L395.979 209.311C396.4 208.888 397.033 208.888 397.455 209.311Z" fill="#6C1626"/>
<path d="M391.761 207.199C392.183 206.777 392.816 206.355 393.659 205.721C393.87 205.51 394.081 205.51 394.081 205.088C394.081 205.088 394.292 204.454 393.87 204.243C393.448 203.821 393.027 204.032 392.816 204.032C392.605 204.032 392.394 204.243 392.183 204.454C391.761 204.665 391.551 204.877 391.34 205.088C390.707 205.51 390.286 205.932 390.075 206.143C389.442 206.777 389.02 207.199 389.02 207.41C388.599 207.833 388.388 208.255 387.966 209.1C387.755 209.522 387.544 209.944 387.544 210.578C387.544 210.789 387.544 211 387.755 211.211C387.966 211.422 388.388 211.422 388.388 211.422C388.599 211.422 389.02 211.211 389.02 211.211C389.231 211 389.442 210.789 389.653 210.367C389.864 209.944 389.864 209.944 390.075 209.522C390.075 209.311 390.285 209.1 390.496 208.677C390.707 208.255 391.129 207.622 391.761 207.199Z" fill="#C8637A"/>
<path d="M315.222 109.012C322.792 109.012 328.928 102.867 328.928 95.2869C328.928 87.7067 322.792 81.5618 315.222 81.5618C307.653 81.5618 301.517 87.7067 301.517 95.2869C301.517 102.867 307.653 109.012 315.222 109.012Z" fill="#B32646"/>
<path d="M318.596 98.4542C317.964 99.0876 316.909 99.0876 316.277 98.4542L311.849 94.4422C311.216 93.8088 311.216 92.753 311.849 92.1195C312.481 91.486 313.536 91.486 314.168 92.1195L318.596 96.1315C319.018 96.9761 319.229 97.8207 318.596 98.4542Z" fill="#6C1626"/>
<path d="M318.174 92.1195C318.807 92.753 318.807 93.8088 318.174 94.4422L314.168 98.8765C313.536 99.51 312.481 99.51 311.849 98.8765C311.216 98.243 311.216 97.1872 311.849 96.5538L315.855 92.1195C316.699 91.486 317.542 91.486 318.174 92.1195Z" fill="#6C1626"/>
<path d="M309.529 88.9522C310.162 88.3187 311.216 87.6853 312.27 86.8406C312.481 86.6295 312.903 86.4183 313.114 85.996C313.114 85.996 313.325 85.1514 312.903 84.5179C312.481 83.8845 311.638 84.0956 311.427 84.0956C311.005 84.0956 310.794 84.3068 310.373 84.7291C309.74 85.1514 309.318 85.3625 309.318 85.5737C308.264 86.4183 307.842 86.8406 307.421 87.2629C306.577 88.1076 305.945 88.9522 305.734 89.1633C305.312 89.7968 304.89 90.4303 304.047 91.9084C303.625 92.753 303.204 93.3864 303.414 94.0199C303.414 94.4422 303.625 94.6534 303.625 94.8645C304.047 95.2868 304.68 95.2868 304.68 95.2868C305.101 95.2868 305.523 95.0757 305.523 95.0757C305.945 94.8645 306.156 94.4422 306.366 93.5976C306.577 92.9641 306.577 92.753 306.999 92.3307C306.999 92.1195 307.21 91.6972 307.842 91.0637C308.053 90.4303 308.686 89.7968 309.529 88.9522Z" fill="#C8637A"/>
<path d="M258.082 353.108C265.069 353.108 270.733 347.435 270.733 340.438C270.733 333.441 265.069 327.769 258.082 327.769C251.095 327.769 245.431 333.441 245.431 340.438C245.431 347.435 251.095 353.108 258.082 353.108Z" fill="#B32646"/>
<path d="M261.033 343.183C260.401 343.817 259.557 343.817 258.925 343.183L254.919 339.382C254.286 338.749 254.286 337.904 254.919 337.271C255.551 336.637 256.395 336.637 257.027 337.271L261.033 341.072C261.666 341.705 261.666 342.761 261.033 343.183Z" fill="#6C1626"/>
<path d="M260.823 337.271C261.455 337.904 261.455 338.749 260.823 339.382L257.238 343.394C256.606 344.028 255.762 344.028 255.13 343.394C254.497 342.761 254.497 341.916 255.13 341.283L258.925 337.271C259.347 336.849 260.19 336.849 260.823 337.271Z" fill="#6C1626"/>
<path d="M253.021 334.526C253.654 334.104 254.708 333.259 255.552 332.626C255.762 332.414 256.184 332.203 256.184 331.781C256.184 331.781 256.395 330.936 255.973 330.514C255.552 330.092 254.708 330.092 254.497 330.092C254.287 330.092 253.865 330.303 253.443 330.514C252.811 330.936 252.6 331.147 252.389 331.359C251.545 331.992 251.124 332.414 250.491 332.837C249.648 333.681 249.226 334.315 249.015 334.526C248.594 335.159 248.172 335.793 247.539 337.06C247.118 337.693 246.907 338.327 246.907 339.171C246.907 339.594 247.118 339.805 247.118 340.016C247.539 340.438 247.961 340.438 248.172 340.438C248.594 340.438 249.015 340.227 249.015 340.227C249.437 340.016 249.437 339.594 249.859 338.96C250.07 338.327 250.07 338.327 250.28 337.693C250.28 337.482 250.491 337.271 250.913 336.637C251.545 335.793 252.178 335.159 253.021 334.526Z" fill="#C8637A"/>
<path d="M44.4895 318.056C51.4764 318.056 57.1405 312.384 57.1405 305.387C57.1405 298.389 51.4764 292.717 44.4895 292.717C37.5025 292.717 31.8384 298.389 31.8384 305.387C31.8384 312.384 37.5025 318.056 44.4895 318.056Z" fill="#B32646"/>
<path d="M47.4412 308.131C46.8086 308.765 45.9652 308.765 45.3326 308.131L41.3265 304.331C40.6939 303.697 40.6939 302.853 41.3265 302.219C41.959 301.586 42.8024 301.586 43.435 302.219L47.4412 306.02C48.0737 306.653 48.0737 307.709 47.4412 308.131Z" fill="#6C1626"/>
<path d="M47.2304 302.219C47.8629 302.853 47.8629 303.697 47.2304 304.331L43.6459 308.343C43.0134 308.976 42.17 308.976 41.5374 308.343C40.9048 307.709 40.9048 306.864 41.5374 306.231L45.3327 302.219C45.7544 301.797 46.5978 301.797 47.2304 302.219Z" fill="#6C1626"/>
<path d="M39.4291 299.474C40.0617 299.052 41.1159 298.207 41.9594 297.574C42.1702 297.363 42.5919 297.151 42.5919 296.729C42.5919 296.729 42.8028 295.884 42.3811 295.462C41.9594 295.04 41.1159 295.04 40.9051 295.04C40.6942 295.04 40.2725 295.251 39.8508 295.462C39.2183 295.884 39.0074 296.096 38.7966 296.307C37.9532 296.94 37.5315 297.363 36.8989 297.785C36.0555 298.629 35.6338 299.263 35.423 299.474C35.0013 300.108 34.5796 300.741 33.947 302.008C33.5253 302.641 33.3145 303.275 33.3145 304.119C33.3145 304.542 33.5253 304.753 33.5253 304.964C33.947 305.386 34.3687 305.386 34.5796 305.386C35.0013 305.386 35.423 305.175 35.423 305.175C35.8447 304.964 35.8447 304.542 36.2664 303.908C36.4772 303.275 36.4772 303.275 36.6881 302.641C36.6881 302.43 36.8989 302.219 37.3206 301.586C37.9532 300.741 38.5857 300.108 39.4291 299.474Z" fill="#C8637A"/>
<path d="M298.144 243.94C303.151 243.94 307.21 239.875 307.21 234.861C307.21 229.846 303.151 225.781 298.144 225.781C293.136 225.781 289.077 229.846 289.077 234.861C289.077 239.875 293.136 243.94 298.144 243.94Z" fill="#B32646"/>
<path d="M300.252 236.972C299.831 237.394 299.198 237.394 298.776 236.972L295.825 234.227C295.403 233.805 295.403 233.171 295.825 232.749C296.246 232.327 296.879 232.327 297.301 232.749L300.252 235.494C300.885 235.916 300.885 236.55 300.252 236.972Z" fill="#6C1626"/>
<path d="M300.253 232.749C300.674 233.171 300.674 233.805 300.253 234.227L297.512 237.183C297.09 237.606 296.457 237.606 296.036 237.183C295.614 236.761 295.614 236.127 296.036 235.705L298.777 232.749C299.198 232.327 299.831 232.327 300.253 232.749Z" fill="#6C1626"/>
<path d="M294.559 230.637C294.981 230.215 295.614 229.793 296.457 229.159C296.668 228.948 296.879 228.948 296.879 228.526C296.879 228.526 297.089 227.892 296.668 227.681C296.246 227.259 295.824 227.47 295.614 227.47C295.403 227.47 295.192 227.681 294.981 227.892C294.559 228.104 294.348 228.315 294.138 228.526C293.505 228.948 293.083 229.371 292.872 229.582C292.24 230.215 291.818 230.637 291.818 230.849C291.397 231.271 291.186 231.693 290.764 232.538C290.553 232.96 290.342 233.383 290.342 234.016C290.342 234.227 290.342 234.438 290.553 234.649C290.764 234.861 291.186 234.861 291.186 234.861C291.397 234.861 291.818 234.649 291.818 234.649C292.029 234.438 292.24 234.227 292.451 233.805C292.662 233.382 292.662 233.383 292.872 232.96C292.872 232.749 293.083 232.538 293.294 232.116C293.505 231.693 293.927 231.271 294.559 230.637Z" fill="#C8637A"/>
<path d="M529.237 247.53C534.244 247.53 538.303 243.465 538.303 238.45C538.303 233.436 534.244 229.37 529.237 229.37C524.229 229.37 520.17 233.436 520.17 238.45C520.17 243.465 524.229 247.53 529.237 247.53Z" fill="#B32646"/>
<path d="M531.345 240.562C530.924 240.984 530.291 240.984 529.869 240.562L526.917 237.817C526.496 237.394 526.496 236.761 526.917 236.339C527.339 235.916 527.972 235.916 528.393 236.339L531.345 239.084C531.767 239.506 531.767 240.139 531.345 240.562Z" fill="#6C1626"/>
<path d="M531.345 236.339C531.767 236.761 531.767 237.394 531.345 237.817L528.604 240.773C528.183 241.195 527.55 241.195 527.128 240.773C526.707 240.351 526.707 239.717 527.128 239.295L529.869 236.339C530.08 235.916 530.924 235.916 531.345 236.339Z" fill="#6C1626"/>
<path d="M525.441 234.227C525.863 233.805 526.495 233.382 527.339 232.749C527.55 232.538 527.761 232.538 527.761 232.116C527.761 232.116 527.971 231.482 527.55 231.271C527.128 230.849 526.706 231.06 526.495 231.06C526.285 231.06 526.074 231.271 525.863 231.482C525.441 231.693 525.23 231.904 525.019 232.116C524.387 232.538 523.965 232.96 523.754 233.171C523.122 233.805 522.7 234.227 522.7 234.438C522.278 234.861 522.068 235.283 521.646 236.127C521.435 236.55 521.224 236.972 521.224 237.606C521.224 237.817 521.224 238.028 521.435 238.239C521.646 238.45 522.068 238.45 522.068 238.45C522.278 238.45 522.7 238.239 522.7 238.239C522.911 238.028 523.122 237.817 523.333 237.394C523.543 236.972 523.543 236.972 523.754 236.55C523.754 236.339 523.965 236.127 524.176 235.705C524.598 235.283 524.809 234.861 525.441 234.227Z" fill="#C8637A"/>
<path d="M298.144 155.677C303.151 155.677 307.21 151.612 307.21 146.598C307.21 141.583 303.151 137.518 298.144 137.518C293.136 137.518 289.077 141.583 289.077 146.598C289.077 151.612 293.136 155.677 298.144 155.677Z" fill="#B32646"/>
<path d="M300.252 148.709C299.831 149.131 299.198 149.131 298.776 148.709L295.825 145.964C295.403 145.542 295.403 144.908 295.825 144.486C296.246 144.064 296.879 144.064 297.301 144.486L300.252 147.231C300.674 147.653 300.674 148.287 300.252 148.709Z" fill="#6C1626"/>
<path d="M300.253 144.486C300.674 144.908 300.674 145.542 300.253 145.964L297.512 148.92C297.09 149.343 296.457 149.343 296.036 148.92C295.614 148.498 295.614 147.865 296.036 147.442L298.777 144.486C298.987 144.064 299.831 144.064 300.253 144.486Z" fill="#6C1626"/>
<path d="M294.348 142.375C294.77 141.952 295.403 141.53 296.246 140.896C296.457 140.685 296.668 140.685 296.668 140.263C296.668 140.263 296.879 139.63 296.457 139.418C296.035 138.996 295.613 139.207 295.403 139.207C295.192 139.207 294.981 139.418 294.77 139.63C294.348 139.841 294.137 140.052 293.927 140.263C293.294 140.685 292.872 141.108 292.662 141.319C292.029 141.952 291.607 142.375 291.607 142.586C291.186 143.008 290.975 143.43 290.553 144.275C290.342 144.697 290.131 145.12 290.131 145.753C290.131 145.964 290.131 146.175 290.342 146.386C290.553 146.598 290.975 146.598 290.975 146.598C291.186 146.598 291.607 146.386 291.607 146.386C291.818 146.175 292.029 145.964 292.24 145.542C292.451 145.12 292.451 145.12 292.662 144.697C292.662 144.486 292.872 144.275 293.083 143.853C293.505 143.43 293.716 143.008 294.348 142.375Z" fill="#C8637A"/>
<path d="M521.224 183.55C527.396 183.55 532.399 178.539 532.399 172.359C532.399 166.178 527.396 161.167 521.224 161.167C515.052 161.167 510.049 166.178 510.049 172.359C510.049 178.539 515.052 183.55 521.224 183.55Z" fill="#B32646"/>
<path d="M523.754 174.892C523.333 175.315 522.489 175.526 521.857 174.892L518.272 171.514C517.851 171.092 517.64 170.247 518.272 169.614C518.694 169.191 519.537 168.98 520.17 169.614L523.754 172.992C524.387 173.625 524.387 174.259 523.754 174.892Z" fill="#6C1626"/>
<path d="M523.544 169.614C523.965 170.036 524.176 170.88 523.544 171.514L520.17 175.104C519.748 175.526 518.905 175.737 518.272 175.104C517.851 174.681 517.64 173.837 518.272 173.203L521.646 169.614C522.278 169.191 523.122 169.191 523.544 169.614Z" fill="#6C1626"/>
<path d="M516.585 167.08C517.007 166.657 518.061 166.024 518.905 165.39C519.116 165.179 519.326 164.968 519.537 164.546C519.537 164.546 519.748 163.912 519.326 163.49C518.905 163.068 518.272 163.068 518.061 163.279C517.85 163.279 517.64 163.49 517.218 163.701C516.796 163.912 516.374 164.335 516.374 164.335C515.531 164.968 515.109 165.39 514.688 165.813C514.055 166.446 513.633 167.08 513.423 167.291C513.001 167.924 512.79 168.347 512.157 169.402C511.736 170.036 511.525 170.458 511.525 171.092C511.525 171.514 511.736 171.725 511.736 171.725C511.947 172.147 512.579 172.147 512.579 172.147C513.001 172.147 513.212 171.936 513.423 171.936C513.633 171.725 513.844 171.514 514.055 170.88C514.266 170.247 514.266 170.247 514.477 169.825C514.477 169.614 514.688 169.402 515.109 168.769C515.531 168.347 515.953 167.713 516.585 167.08Z" fill="#C8637A"/>
<path d="M413.268 163.912C419.207 163.912 424.021 159.091 424.021 153.143C424.021 147.196 419.207 142.375 413.268 142.375C407.329 142.375 402.515 147.196 402.515 153.143C402.515 159.091 407.329 163.912 413.268 163.912Z" fill="#761F36"/>
<path d="M415.798 155.466C415.377 156.1 414.533 156.1 414.112 155.466L410.527 152.299C409.895 151.876 409.895 151.032 410.527 150.61C410.949 149.976 411.792 149.976 412.214 150.61L415.798 153.777C416.009 154.199 416.22 155.044 415.798 155.466Z" fill="#49131F"/>
<path d="M415.588 150.61C416.22 151.032 416.22 151.876 415.588 152.299L412.425 155.888C412.003 156.522 411.16 156.522 410.738 155.888C410.106 155.466 410.106 154.622 410.738 154.199L413.901 150.61C414.323 150.187 414.955 149.976 415.588 150.61Z" fill="#49131F"/>
<path d="M408.84 148.076C409.473 147.653 410.105 147.02 410.949 146.386C411.16 146.175 411.581 145.964 411.581 145.753C411.581 145.753 411.792 145.12 411.371 144.697C410.949 144.275 410.316 144.275 410.316 144.275C410.105 144.275 409.895 144.486 409.473 144.697C409.051 145.12 408.84 145.331 408.629 145.331C407.997 145.964 407.575 146.175 407.153 146.598C406.521 147.231 406.099 147.865 405.888 148.076C405.467 148.709 405.256 149.131 404.623 150.187C404.202 150.821 403.991 151.243 403.991 151.876C403.991 152.299 404.202 152.51 404.202 152.51C404.623 152.932 404.834 152.932 405.045 152.932C405.467 152.932 405.678 152.721 405.678 152.721C406.099 152.51 406.099 152.088 406.31 151.665C406.521 151.032 406.521 151.032 406.732 150.821C406.732 150.61 406.943 150.398 407.364 149.976C407.575 149.343 408.208 148.709 408.84 148.076Z" fill="#A05062"/>
<path d="M126.511 287.861C131.518 287.861 135.578 283.795 135.578 278.781C135.578 273.766 131.518 269.701 126.511 269.701C121.504 269.701 117.444 273.766 117.444 278.781C117.444 283.795 121.504 287.861 126.511 287.861Z" fill="#761F36"/>
<path d="M128.62 280.681C128.198 281.104 127.565 281.104 127.144 280.681L124.192 277.936C123.77 277.514 123.77 276.88 124.192 276.458C124.613 276.036 125.246 276.036 125.668 276.458L128.62 279.203C129.041 279.625 129.041 280.47 128.62 280.681Z" fill="#49131F"/>
<path d="M128.409 276.458C128.83 276.88 128.83 277.514 128.409 277.936L125.668 280.892C125.246 281.315 124.613 281.315 124.192 280.892C123.77 280.47 123.77 279.837 124.192 279.414L126.933 276.458C127.355 276.247 127.987 276.036 128.409 276.458Z" fill="#49131F"/>
<path d="M122.716 274.347C123.137 273.924 123.77 273.502 124.613 272.869C124.824 272.657 125.035 272.657 125.035 272.235C125.035 272.235 125.246 271.602 124.824 271.39C124.402 270.968 123.981 271.179 123.77 271.179C123.559 271.179 123.348 271.39 123.137 271.602C122.716 271.813 122.505 272.024 122.294 272.235C121.661 272.657 121.24 273.08 121.029 273.291C120.396 273.924 119.974 274.347 119.974 274.558C119.553 274.98 119.342 275.402 118.92 276.247C118.709 276.669 118.499 277.092 118.499 277.725C118.499 277.936 118.499 278.147 118.709 278.359C118.92 278.57 119.342 278.57 119.342 278.57C119.553 278.57 119.974 278.359 119.974 278.359C120.185 278.147 120.396 277.936 120.607 277.514C120.818 277.092 120.818 277.092 121.029 276.669C121.029 276.458 121.24 276.247 121.45 275.825C121.661 275.402 122.083 274.98 122.716 274.347Z" fill="#A05062"/>
<path d="M242.057 225.359C248.346 225.359 253.443 220.254 253.443 213.956C253.443 207.659 248.346 202.554 242.057 202.554C235.769 202.554 230.671 207.659 230.671 213.956C230.671 220.254 235.769 225.359 242.057 225.359Z" fill="#761F36"/>
<path d="M245.009 216.49C244.377 217.124 243.744 217.124 243.112 216.49L239.527 213.112C238.895 212.478 238.895 211.845 239.527 211.211C240.16 210.578 240.792 210.578 241.425 211.211L245.009 214.59C245.431 215.223 245.431 215.857 245.009 216.49Z" fill="#49131F"/>
<path d="M244.798 211.211C245.431 211.845 245.431 212.478 244.798 213.112L241.425 216.701C240.792 217.335 240.16 217.335 239.527 216.701C238.895 216.068 238.895 215.434 239.527 214.801L242.901 211.211C243.322 210.578 244.166 210.578 244.798 211.211Z" fill="#49131F"/>
<path d="M237.63 208.466C238.262 208.044 239.106 207.41 239.949 206.777C240.16 206.566 240.582 206.355 240.582 205.932C240.582 205.932 240.792 205.088 240.371 204.877C239.949 204.454 239.316 204.454 239.106 204.454C238.895 204.454 238.473 204.665 238.051 204.877C237.419 205.299 237.208 205.51 236.997 205.721C236.154 206.355 235.943 206.777 235.31 206.988C234.467 207.833 234.256 208.255 234.045 208.466C233.623 209.1 233.202 209.522 232.78 210.789C232.358 211.422 232.147 211.845 232.147 212.689C232.147 213.112 232.358 213.323 232.358 213.534C232.78 213.956 233.202 213.956 233.413 213.956C233.834 213.956 234.256 213.745 234.256 213.745C234.678 213.534 234.678 213.112 235.099 212.689C235.31 212.056 235.31 212.056 235.521 211.633C235.521 211.422 235.732 211.211 236.154 210.578C236.154 209.733 236.786 209.1 237.63 208.466Z" fill="#A05062"/>
<path d="M446.583 119.992C451.59 119.992 455.649 115.927 455.649 110.912C455.649 105.898 451.59 101.833 446.583 101.833C441.575 101.833 437.516 105.898 437.516 110.912C437.516 115.927 441.575 119.992 446.583 119.992Z" fill="#B32646"/>
<path d="M448.691 113.024C448.27 113.446 447.637 113.446 447.215 113.024L444.264 110.279C443.842 109.857 443.842 109.223 444.264 108.801C444.685 108.378 445.318 108.378 445.739 108.801L448.691 111.546C449.113 111.968 449.113 112.602 448.691 113.024Z" fill="#6C1626"/>
<path d="M448.481 108.801C448.902 109.223 448.902 109.857 448.481 110.279L445.739 113.235C445.318 113.657 444.685 113.657 444.264 113.235C443.842 112.813 443.842 112.179 444.264 111.757L447.005 108.801C447.426 108.378 448.059 108.378 448.481 108.801Z" fill="#6C1626"/>
<path d="M442.787 106.689C443.209 106.267 443.842 105.845 444.685 105.211C444.896 105 445.107 105 445.107 104.578C445.107 104.578 445.318 103.944 444.896 103.733C444.474 103.311 444.052 103.522 443.842 103.522C443.631 103.522 443.42 103.733 443.209 103.944C442.787 104.155 442.577 104.367 442.366 104.578C441.733 105 441.311 105.422 441.101 105.633C440.468 106.267 440.046 106.689 440.046 106.9C439.625 107.323 439.414 107.745 438.992 108.59C438.781 109.012 438.57 109.434 438.57 110.068C438.57 110.279 438.57 110.49 438.781 110.701C438.992 110.912 439.414 110.912 439.414 110.912C439.625 110.912 440.046 110.701 440.046 110.701C440.257 110.49 440.468 110.279 440.679 109.857C440.89 109.434 440.89 109.434 441.101 109.012C441.101 108.801 441.311 108.59 441.522 108.167C441.733 107.745 442.155 107.112 442.787 106.689Z" fill="#C8637A"/>
<path d="M386.49 112.602C391.498 112.602 395.557 108.537 395.557 103.522C395.557 98.5074 391.498 94.4423 386.49 94.4423C381.483 94.4423 377.424 98.5074 377.424 103.522C377.424 108.537 381.483 112.602 386.49 112.602Z" fill="#B32646"/>
<path d="M388.599 105.633C388.177 106.056 387.545 106.056 387.123 105.633L384.171 102.888C383.75 102.466 383.75 101.833 384.171 101.41C384.593 100.988 385.226 100.988 385.647 101.41L388.599 104.155C389.021 104.578 389.021 105.211 388.599 105.633Z" fill="#6C1626"/>
<path d="M388.388 101.41C388.81 101.833 388.81 102.466 388.388 102.888L385.647 105.845C385.226 106.267 384.593 106.267 384.171 105.845C383.75 105.422 383.75 104.789 384.171 104.367L386.912 101.41C387.334 100.988 387.967 100.988 388.388 101.41Z" fill="#6C1626"/>
<path d="M382.695 99.2989C383.117 98.8765 383.749 98.4542 384.593 97.8208C384.804 97.6096 385.014 97.6096 385.014 97.1873C385.014 97.1873 385.225 96.5538 384.804 96.3427C384.382 95.9204 383.96 96.1315 383.749 96.1315C383.538 96.1315 383.328 96.3427 383.117 96.5538C382.695 96.765 382.484 96.9761 382.273 97.1873C381.641 97.6096 381.219 98.0319 381.008 98.2431C380.376 98.8765 379.954 99.2989 379.954 99.51C379.532 99.9323 379.321 100.355 378.9 101.199C378.689 101.622 378.478 102.044 378.478 102.677C378.478 102.889 378.478 103.1 378.689 103.311C378.9 103.522 379.321 103.522 379.321 103.522C379.532 103.522 379.954 103.311 379.954 103.311C380.165 103.1 380.376 102.889 380.587 102.466C380.797 102.044 380.797 102.044 381.008 101.622C381.008 101.41 381.219 101.199 381.43 100.777C381.641 100.355 382.063 99.7212 382.695 99.2989Z" fill="#C8637A"/>
<path d="M504.989 70.7929C509.996 70.7929 514.055 66.7277 514.055 61.7132C514.055 56.6986 509.996 52.6335 504.989 52.6335C499.981 52.6335 495.922 56.6986 495.922 61.7132C495.922 66.7277 499.981 70.7929 504.989 70.7929Z" fill="#761F36"/>
<path d="M507.308 63.8248C506.886 64.2471 506.253 64.2471 505.832 63.8248L502.88 61.0797C502.458 60.6574 502.458 60.024 502.88 59.6016C503.301 59.1793 503.934 59.1793 504.356 59.6016L507.308 62.3467C507.729 62.769 507.729 63.4024 507.308 63.8248Z" fill="#49131F"/>
<path d="M507.097 59.3905C507.519 59.8128 507.519 60.4463 507.097 60.8686L504.356 63.8247C503.934 64.2471 503.301 64.2471 502.88 63.8247C502.458 63.4024 502.458 62.769 502.88 62.3467L505.621 59.3905C506.043 59.1793 506.675 59.1793 507.097 59.3905Z" fill="#49131F"/>
<path d="M501.404 57.4901C501.826 57.0678 502.458 56.6455 503.302 56.012C503.513 55.8008 503.723 55.8008 503.723 55.3785C503.723 55.3785 503.934 54.7451 503.513 54.5339C503.091 54.1116 502.669 54.3227 502.458 54.3227C502.247 54.3227 502.037 54.5339 501.826 54.7451C501.404 54.9562 501.193 55.1674 500.982 55.3785C500.35 55.8008 499.928 56.2231 499.717 56.4343C499.085 57.0678 498.663 57.4901 498.663 57.7012C498.241 58.1235 498.03 58.5459 497.609 59.3905C497.398 59.8128 497.187 60.2351 497.187 60.8686C497.187 61.0797 497.187 61.2909 497.398 61.502C497.609 61.7132 498.03 61.7132 498.03 61.7132C498.241 61.7132 498.663 61.502 498.663 61.502C498.874 61.2909 499.085 61.0797 499.296 60.6574C499.506 60.2351 499.506 60.2351 499.717 59.8128C499.717 59.6016 499.928 59.3905 500.139 58.9682C500.35 58.3347 500.771 57.9124 501.404 57.4901Z" fill="#A05062"/>
<path d="M473.782 236.339C478.79 236.339 482.849 232.274 482.849 227.259C482.849 222.244 478.79 218.179 473.782 218.179C468.775 218.179 464.716 222.244 464.716 227.259C464.716 232.274 468.775 236.339 473.782 236.339Z" fill="#B32646"/>
<path d="M475.891 229.371C475.469 229.793 474.837 229.793 474.415 229.371L471.463 226.626C471.042 226.203 471.042 225.57 471.463 225.147C471.885 224.725 472.518 224.725 472.939 225.147L475.891 227.892C476.313 228.315 476.313 228.948 475.891 229.371Z" fill="#6C1626"/>
<path d="M475.891 225.147C476.313 225.57 476.313 226.203 475.891 226.626L473.15 229.582C472.728 230.004 472.096 230.004 471.674 229.582C471.252 229.159 471.252 228.526 471.674 228.104L474.415 225.147C474.626 224.725 475.469 224.725 475.891 225.147Z" fill="#6C1626"/>
<path d="M469.987 223.036C470.409 222.614 471.041 222.191 471.885 221.558C472.096 221.347 472.306 221.347 472.306 220.924C472.306 220.924 472.517 220.291 472.096 220.08C471.674 219.657 471.252 219.869 471.041 219.869C470.83 219.869 470.62 220.08 470.409 220.291C469.987 220.502 469.776 220.713 469.565 220.924C468.933 221.347 468.511 221.769 468.3 221.98C467.668 222.614 467.246 223.036 467.246 223.247C466.824 223.669 466.613 224.092 466.192 224.936C465.981 225.359 465.77 225.781 465.77 226.414C465.77 226.626 465.77 226.837 465.981 227.048C466.192 227.259 466.613 227.259 466.613 227.259C466.824 227.259 467.246 227.048 467.246 227.048C467.457 226.837 467.668 226.626 467.879 226.203C468.089 225.781 468.089 225.781 468.3 225.359C468.3 225.147 468.511 224.936 468.722 224.514C469.144 224.092 469.354 223.669 469.987 223.036Z" fill="#C8637A"/>
<path d="M527.76 298.418C532.768 298.418 536.827 294.353 536.827 289.339C536.827 284.324 532.768 280.259 527.76 280.259C522.753 280.259 518.694 284.324 518.694 289.339C518.694 294.353 522.753 298.418 527.76 298.418Z" fill="#761F36"/>
<path d="M529.869 291.45C529.448 291.873 528.815 291.873 528.393 291.45L525.441 288.705C525.02 288.283 525.02 287.649 525.441 287.227C525.863 286.805 526.496 286.805 526.917 287.227L529.869 289.972C530.291 290.394 530.291 291.028 529.869 291.45Z" fill="#49131F"/>
<path d="M529.658 287.227C530.08 287.649 530.08 288.283 529.658 288.705L526.917 291.661C526.496 292.084 525.863 292.084 525.441 291.661C525.02 291.239 525.02 290.606 525.441 290.183L528.182 287.227C528.604 286.805 529.237 286.805 529.658 287.227Z" fill="#49131F"/>
<path d="M523.965 285.116C524.387 284.693 525.019 284.271 525.863 283.638C526.074 283.426 526.284 283.426 526.284 283.004C526.284 283.004 526.495 282.371 526.074 282.159C525.652 281.737 525.23 281.948 525.019 281.948C524.808 281.948 524.598 282.159 524.387 282.371C523.965 282.582 523.754 282.793 523.543 283.004C522.911 283.426 522.489 283.849 522.278 284.06C521.646 284.693 521.224 285.116 521.224 285.327C520.802 285.749 520.591 286.171 520.17 287.016C519.959 287.438 519.748 287.861 519.748 288.494C519.748 288.705 519.748 288.916 519.959 289.128C520.17 289.339 520.591 289.339 520.591 289.339C520.802 289.339 521.224 289.128 521.224 289.128C521.435 288.916 521.646 288.705 521.857 288.283C522.067 287.861 522.067 287.861 522.278 287.438C522.278 287.227 522.489 287.016 522.7 286.594C522.911 286.171 523.333 285.538 523.965 285.116Z" fill="#A05062"/>
<path d="M191.242 208.044C196.249 208.044 200.309 203.979 200.309 198.964C200.309 193.95 196.249 189.884 191.242 189.884C186.235 189.884 182.175 193.95 182.175 198.964C182.175 203.979 186.235 208.044 191.242 208.044Z" fill="#B32646"/>
<path d="M193.351 201.076C192.929 201.498 192.296 201.498 191.875 201.076L188.923 198.331C188.501 197.908 188.501 197.275 188.923 196.853C189.344 196.43 189.977 196.43 190.399 196.853L193.351 199.598C193.772 200.02 193.772 200.653 193.351 201.076Z" fill="#6C1626"/>
<path d="M193.351 196.853C193.772 197.275 193.772 197.908 193.351 198.331L190.61 201.287C190.188 201.709 189.555 201.709 189.134 201.287C188.712 200.865 188.712 200.231 189.134 199.809L191.875 196.853C192.086 196.43 192.929 196.43 193.351 196.853Z" fill="#6C1626"/>
<path d="M187.447 194.741C187.868 194.319 188.501 193.896 189.344 193.263C189.555 193.052 189.766 193.052 189.766 192.629C189.766 192.629 189.977 191.996 189.555 191.785C189.133 191.363 188.712 191.574 188.501 191.574C188.29 191.574 188.079 191.785 187.868 191.996C187.447 192.207 187.236 192.418 187.025 192.629C186.392 193.052 185.971 193.474 185.76 193.685C185.127 194.319 184.705 194.741 184.705 194.952C184.284 195.375 184.073 195.797 183.651 196.641C183.44 197.064 183.229 197.486 183.229 198.12C183.229 198.331 183.229 198.542 183.44 198.753C183.651 198.964 184.073 198.964 184.073 198.964C184.284 198.964 184.705 198.753 184.705 198.753C184.916 198.542 185.127 198.331 185.338 197.908C185.549 197.486 185.549 197.486 185.76 197.064C185.76 196.853 185.971 196.641 186.181 196.219C186.603 195.797 186.814 195.375 187.447 194.741Z" fill="#C8637A"/>
<path d="M205.58 149.343C212.567 149.343 218.231 143.67 218.231 136.673C218.231 129.676 212.567 124.004 205.58 124.004C198.593 124.004 192.929 129.676 192.929 136.673C192.929 143.67 198.593 149.343 205.58 149.343Z" fill="#B32646"/>
<path d="M208.531 139.418C207.899 140.052 207.056 140.052 206.423 139.418L202.417 135.618C201.784 134.984 201.784 134.139 202.417 133.506C203.049 132.873 203.893 132.873 204.525 133.506L208.531 137.307C209.164 137.94 209.164 138.996 208.531 139.418Z" fill="#6C1626"/>
<path d="M208.321 133.506C208.953 134.139 208.953 134.984 208.321 135.617L204.736 139.629C204.104 140.263 203.26 140.263 202.628 139.629C201.995 138.996 201.995 138.151 202.628 137.518L206.423 133.506C206.845 133.084 207.688 133.084 208.321 133.506Z" fill="#6C1626"/>
<path d="M200.519 130.761C201.152 130.339 202.206 129.494 203.05 128.861C203.261 128.649 203.682 128.438 203.682 128.016C203.682 128.016 203.893 127.171 203.471 126.749C203.05 126.327 202.206 126.327 201.995 126.327C201.785 126.327 201.363 126.538 200.941 126.749C200.309 127.171 200.098 127.382 199.887 127.594C199.044 128.227 198.622 128.649 197.989 129.072C197.146 129.916 196.724 130.55 196.513 130.761C196.092 131.394 195.67 132.028 195.037 133.295C194.616 133.928 194.405 134.562 194.405 135.406C194.405 135.829 194.616 136.04 194.616 136.251C195.037 136.673 195.459 136.673 195.67 136.673C196.092 136.673 196.513 136.462 196.513 136.462C196.935 136.251 196.935 135.829 197.357 135.195C197.568 134.562 197.568 134.562 197.778 133.928C197.778 133.717 197.989 133.506 198.411 132.872C199.044 132.028 199.676 131.394 200.519 130.761Z" fill="#C8637A"/>
<path d="M324.5 328.825C329.508 328.825 333.567 324.76 333.567 319.745C333.567 314.73 329.508 310.665 324.5 310.665C319.493 310.665 315.434 314.73 315.434 319.745C315.434 324.76 319.493 328.825 324.5 328.825Z" fill="#B32646"/>
<path d="M326.819 321.856C326.398 322.279 325.765 322.279 325.343 321.856L322.391 319.111C321.97 318.689 321.97 318.056 322.391 317.633C322.813 317.211 323.446 317.211 323.867 317.633L326.819 320.378C327.03 320.801 327.241 321.434 326.819 321.856Z" fill="#6C1626"/>
<path d="M326.608 317.633C327.03 318.056 327.03 318.689 326.608 319.111L323.867 322.068C323.446 322.49 322.813 322.49 322.391 322.068C321.97 321.645 321.97 321.012 322.391 320.59L325.133 317.633C325.554 317.211 326.187 317.211 326.608 317.633Z" fill="#6C1626"/>
<path d="M320.916 315.522C321.337 315.1 321.97 314.677 322.813 314.044C323.024 313.833 323.235 313.833 323.235 313.41C323.235 313.41 323.446 312.777 323.024 312.566C322.603 312.143 322.181 312.355 321.97 312.355C321.759 312.355 321.548 312.566 321.337 312.777C320.916 312.988 320.705 313.199 320.494 313.41C319.862 313.833 319.44 314.255 319.229 314.466C318.596 315.1 318.175 315.522 318.175 315.733C317.753 316.155 317.542 316.578 317.12 317.422C316.91 317.845 316.699 318.267 316.699 318.9C316.699 319.112 316.699 319.323 316.91 319.534C317.12 319.745 317.542 319.745 317.542 319.745C317.753 319.745 318.175 319.534 318.175 319.534C318.386 319.323 318.596 319.111 318.807 318.689C319.018 318.267 319.018 318.267 319.229 317.845C319.229 317.633 319.44 317.422 319.651 317C319.862 316.578 320.283 315.944 320.916 315.522Z" fill="#C8637A"/>
<path d="M26.5671 259.144C31.5744 259.144 35.6337 255.078 35.6337 250.064C35.6337 245.049 31.5744 240.984 26.5671 240.984C21.5597 240.984 17.5005 245.049 17.5005 250.064C17.5005 255.078 21.5597 259.144 26.5671 259.144Z" fill="#B32646"/>
<path d="M28.8862 252.175C28.4645 252.598 27.832 252.598 27.4103 252.175L24.4584 249.43C24.0367 249.008 24.0367 248.375 24.4584 247.952C24.8801 247.53 25.5126 247.53 25.9343 247.952L28.8862 250.697C29.0971 251.12 29.3079 251.753 28.8862 252.175Z" fill="#6C1626"/>
<path d="M28.6754 247.952C29.0971 248.375 29.0971 249.008 28.6754 249.43L25.9343 252.386C25.5126 252.809 24.8801 252.809 24.4584 252.386C24.0367 251.964 24.0367 251.331 24.4584 250.908L27.1994 247.952C27.6211 247.53 28.2537 247.53 28.6754 247.952Z" fill="#6C1626"/>
<path d="M22.9826 245.841C23.4044 245.418 24.0369 244.996 24.8803 244.363C25.0912 244.151 25.302 244.151 25.302 243.729C25.302 243.729 25.5129 243.096 25.0912 242.885C24.6695 242.462 24.2478 242.673 24.0369 242.673C23.8261 242.673 23.6152 242.885 23.4044 243.096C22.9827 243.307 22.7718 243.518 22.5609 243.729C21.9284 244.151 21.5067 244.574 21.2958 244.785C20.6633 245.418 20.2416 245.841 20.2416 246.052C19.8199 246.474 19.609 246.897 19.1873 247.741C18.9765 248.163 18.7656 248.586 18.7656 249.219C18.7656 249.43 18.7656 249.642 18.9765 249.853C19.1873 250.064 19.609 250.064 19.609 250.064C19.8199 250.064 20.2416 249.853 20.2416 249.853C20.4524 249.642 20.6633 249.43 20.8741 249.008C21.085 248.586 21.085 248.586 21.2958 248.163C21.2958 247.952 21.5067 247.741 21.7175 247.319C21.9284 246.897 22.3501 246.263 22.9826 245.841Z" fill="#C8637A"/>
</svg>
