<svg width="167" height="79" viewBox="0 0 167 79" fill="none" xmlns="http://www.w3.org/2000/svg">
<path d="M74.9682 27.056C85.3897 27.056 93.8804 35.5355 94.0363 46.0192H120.461C120.461 34.0254 115.668 22.5228 107.137 14.0419C98.6051 5.56104 87.0339 0.796524 74.9685 0.796524C62.9031 0.796524 51.3319 5.56104 42.8004 14.0419C34.2689 22.5228 29.4759 34.0254 29.4759 46.0192H55.9008C56.0563 35.5365 64.5473 27.056 74.9682 27.056Z" fill="#C70C0F"/>
<path d="M74.9687 27.056C85.3902 27.056 93.8809 35.5355 94.0367 46.0192H116.059C116.059 23.4965 97.6259 5.17308 74.9687 5.17308C52.3115 5.17308 33.8794 23.4965 33.8794 46.0192H55.9013C56.0568 35.5364 64.5478 27.056 74.9687 27.056Z" fill="#D06103"/>
<path d="M74.9683 27.056C85.3898 27.056 93.8805 35.5355 94.0364 46.0192H111.655C111.669 41.23 110.734 36.485 108.903 32.0551C107.073 27.6251 104.382 23.597 100.985 20.2007C97.5884 16.8044 93.5519 14.1065 89.1062 12.2609C84.6605 10.4153 79.8926 9.45829 75.0749 9.4444C65.3449 9.41635 56.0023 13.2317 49.1023 20.0512C42.2022 26.8706 38.31 36.1355 38.2817 45.8077C38.2817 45.8781 38.2817 45.9488 38.2817 46.0192H55.9009C56.0564 35.5365 64.5474 27.056 74.9683 27.056Z" fill="#E3C600"/>
<path d="M74.9686 27.0561C85.3901 27.0561 93.8808 35.5356 94.0367 46.0192H107.253C107.254 41.8048 106.419 37.6315 104.797 33.7376C103.176 29.8437 100.798 26.3055 97.801 23.3249C94.8037 20.3444 91.2451 17.9799 87.3285 16.3664C83.412 14.7529 79.2141 13.9221 74.9745 13.9214C70.7349 13.9207 66.5367 14.7501 62.6195 16.3622C58.7024 17.9743 55.1431 20.3376 52.1447 23.3171C49.1464 26.2967 46.7677 29.8341 45.1446 33.7274C43.5216 37.6208 42.6858 41.7938 42.6851 46.0082V46.0192H55.9012C56.0567 35.5365 64.5477 27.0561 74.9686 27.0561Z" fill="#008536"/>
<path d="M74.9691 27.0561C85.3906 27.0561 93.8813 35.5356 94.0372 46.0192H102.85C102.851 38.6686 99.9142 31.6188 94.686 26.4207C89.4578 21.2226 82.3665 18.3019 74.972 18.3012C71.3107 18.3009 67.6851 19.0174 64.3023 20.4099C60.9195 21.8024 57.8457 23.8437 55.2565 26.417C50.0274 31.6142 47.0893 38.6634 47.0886 46.014V46.0192H55.9017C56.0572 35.5365 64.5482 27.0561 74.9691 27.0561Z" fill="#008DC5"/>
<path d="M74.9687 27.056C85.3903 27.056 93.881 35.5355 94.0368 46.0192H98.4469C98.4669 39.831 96.0137 33.8882 91.6269 29.4975C87.24 25.1069 81.2786 22.6279 75.0534 22.6056C68.8282 22.5833 62.849 25.0196 58.4304 29.3787C54.0119 33.7378 51.5158 39.6629 51.4909 45.8511C51.4909 45.9071 51.4909 45.9631 51.4909 46.0192H55.9013C56.0568 35.5365 64.5478 27.056 74.9687 27.056Z" fill="#4F2074"/>
<path d="M62.0513 54.015C62.0513 47.9174 56.9594 42.9497 50.6357 42.9497C48.4207 42.9488 46.2516 43.5778 44.3844 44.7626C42.4425 39.4184 37.1609 35.5808 30.9795 35.5808C28.0769 35.56 25.2378 36.4246 22.8449 38.058C20.4521 39.6914 18.6208 42.0151 17.598 44.7154C15.7463 43.5583 13.6029 42.9457 11.4157 42.9485C5.11573 42.9485 0.000122265 47.8939 0.000122265 54.015C-0.000199723 55.708 0.398026 57.3775 1.16295 58.8901C1.92787 60.4027 3.03825 61.7163 4.4053 62.726C7.10537 65.5983 17.9762 67.7408 30.9786 67.7408C43.46 67.7408 53.9754 65.7633 57.1965 63.0572C58.6906 62.0623 59.9151 60.7169 60.7619 59.1398C61.6086 57.5628 62.0515 55.8027 62.0513 54.015Z" fill="#86B9DC"/>
<path d="M166.82 57.7815C166.82 48.6705 159.211 41.248 149.763 41.248C146.452 41.2462 143.211 42.186 140.42 43.9566C137.519 35.9715 129.627 30.2372 120.391 30.2372C111.155 30.2372 103.334 35.9363 100.397 43.8862C97.6304 42.1582 94.4284 41.2436 91.1609 41.248C81.7479 41.248 74.1044 48.6353 74.1044 57.7815C74.1039 60.3111 74.6989 62.8056 75.8418 65.0657C76.9848 67.3257 78.6438 69.2885 80.6864 70.7971C84.7205 75.0886 100.963 78.29 120.391 78.29C139.04 78.29 154.752 75.335 159.565 71.2897C161.797 69.8036 163.627 67.7937 164.892 65.4378C166.158 63.0818 166.82 60.4522 166.82 57.7815Z" fill="#86B9DC"/>
<path d="M36.5095 34.9916C34.9578 35.7521 33.6343 36.9047 32.6719 38.3338C31.7095 39.7629 31.1419 41.4185 31.0259 43.1344C30.7413 41.094 29.9019 39.1696 28.598 37.5685C27.7442 36.5332 26.709 35.6599 25.5426 34.9907C26.8706 34.3004 28.0316 33.3312 28.9451 32.1502C30.1226 30.6098 30.8433 28.7728 31.0259 26.8467C31.2945 28.517 31.9237 30.1097 32.8703 31.5153C33.8169 32.9209 35.0584 34.1061 36.5095 34.9895V34.9916Z" fill="#E3C600"/>
<path d="M99.4314 41.3873C97.8941 42.1403 96.5831 43.2819 95.6298 44.6977C94.6765 46.1134 94.1145 47.7534 94.0002 49.4532C93.7178 47.4323 92.8863 45.5263 91.5951 43.9403C90.7495 42.9148 89.7241 42.0498 88.5686 41.3873C89.8841 40.7036 91.0341 39.7436 91.9388 38.5737C93.105 37.0481 93.819 35.2287 94.0002 33.321C94.266 34.9756 94.8892 36.5533 95.8267 37.9457C96.7643 39.3381 97.994 40.5122 99.4314 41.3873Z" fill="#E3C600"/>
<path d="M55.3534 6.7784C54.0615 7.41134 52.9598 8.37081 52.1587 9.56059C51.3575 10.7504 50.8852 12.1286 50.789 13.5571C50.5519 11.8588 49.8531 10.257 48.7679 8.92429C48.0572 8.06251 47.1955 7.33553 46.2246 6.7784C47.3305 6.20417 48.2972 5.39743 49.0577 4.41424C50.0374 3.13199 50.6371 1.60306 50.789 0C51.0332 1.50416 51.6263 2.93118 52.5212 4.16812C53.2825 5.21567 54.2451 6.10286 55.3534 6.7784Z" fill="#E3C600"/>
<path d="M91.6212 32.7407C90.5986 33.2418 89.7264 34.0013 89.0922 34.9432C88.458 35.8851 88.084 36.9761 88.0078 38.107C87.82 36.7626 87.2669 35.4945 86.408 34.4393C85.8454 33.757 85.1632 33.1815 84.3943 32.7407C85.2694 32.2859 86.0345 31.6472 86.6365 30.8691C87.4123 29.854 87.8873 28.6436 88.0078 27.3744C88.1848 28.4751 88.5994 29.5247 89.2231 30.4511C89.8469 31.3774 90.665 32.1585 91.6212 32.7407Z" fill="#DDA218"/>
<path d="M107.859 12.1449C106.837 12.646 105.965 13.4053 105.331 14.347C104.697 15.2886 104.322 16.3794 104.246 17.51C104.058 16.1653 103.504 14.8971 102.645 13.8421C102.082 13.1599 101.4 12.5845 100.631 12.1437C101.506 11.6887 102.271 11.05 102.873 10.2718C103.649 9.25681 104.124 8.04636 104.245 6.77713C104.422 7.87788 104.836 8.9275 105.46 9.85388C106.084 10.7803 106.902 11.5614 107.858 12.1437L107.859 12.1449Z" fill="#E3C600"/>
<path d="M48.0038 13.5571C46.9811 14.0582 46.109 14.8178 45.4748 15.7596C44.8406 16.7015 44.4666 17.7926 44.3904 18.9234C44.2025 17.579 43.6494 16.311 42.7906 15.2558C42.228 14.5734 41.5458 13.9979 40.7769 13.5571C41.652 13.1023 42.4171 12.4637 43.0191 11.6855C43.7949 10.6704 44.2698 9.46002 44.3904 8.19086C44.5673 9.29158 44.9819 10.3412 45.6057 11.2675C46.2294 12.1938 47.0476 12.9749 48.0038 13.5571Z" fill="#E3C600"/>
<path d="M61.4163 38.107C60.3936 38.6081 59.5215 39.3676 58.8873 40.3095C58.253 41.2513 57.8791 42.3424 57.8028 43.4732C57.6147 42.1286 57.061 40.8606 56.2015 39.8056C55.639 39.1233 54.9569 38.5478 54.1882 38.107C55.0632 37.6522 55.8282 37.0135 56.43 36.2353C57.2061 35.2204 57.6811 34.0099 57.8016 32.7407C57.9784 33.8415 58.393 34.8911 59.0167 35.8175C59.6405 36.7438 60.4587 37.5249 61.4151 38.107H61.4163Z" fill="#E3C600"/>
<path d="M122.11 30.6624C120.573 31.4154 119.262 32.557 118.309 33.9727C117.356 35.3885 116.794 37.0285 116.679 38.7283C116.397 36.7075 115.565 34.8015 114.274 33.2154C113.428 32.19 112.403 31.3251 111.248 30.6624C112.563 29.9787 113.713 29.0186 114.618 27.8489C115.784 26.3232 116.498 24.5038 116.679 22.5962C116.945 24.2508 117.568 25.8285 118.506 27.2209C119.443 28.6133 120.673 29.7874 122.11 30.6624Z" fill="#DDA218"/>
<path d="M55.1044 43.4732C54.0817 43.9742 53.2095 44.7338 52.5753 45.6756C51.9411 46.6175 51.5672 47.7086 51.491 48.8394C51.3032 47.495 50.7501 46.227 49.8912 45.1718C49.3285 44.4896 48.6463 43.9141 47.8776 43.4732C48.7526 43.0183 49.5177 42.3796 50.1197 41.6016C50.8954 40.5864 51.3703 39.376 51.491 38.1069C51.6679 39.2076 52.0825 40.2573 52.7063 41.1836C53.33 42.1099 54.1482 42.891 55.1044 43.4732Z" fill="#DDA218"/>
<path d="M38.2526 45.3749C37.2299 45.8759 36.3577 46.6355 35.7235 47.5773C35.0892 48.5192 34.7153 49.6103 34.6391 50.7411C34.4513 49.3967 33.8982 48.1287 33.0394 47.0735C32.4768 46.3912 31.7945 45.8157 31.0257 45.3749C31.9008 44.92 32.6659 44.2814 33.2679 43.5033C34.0437 42.4882 34.5186 41.2778 34.6391 40.0086C34.8161 41.1093 35.2307 42.1589 35.8545 43.0852C36.4782 44.0116 37.2963 44.7927 38.2526 45.3749Z" fill="#DDA218"/>
<path d="M125.724 40.0098C124.702 40.5108 123.83 41.2702 123.195 42.2118C122.561 43.1534 122.187 44.2442 122.111 45.3748C121.923 44.0301 121.369 42.762 120.51 41.7069C119.947 41.0254 119.266 40.4505 118.498 40.0098C119.373 39.5549 120.138 38.9161 120.74 38.1378C121.516 37.1229 121.991 35.9124 122.111 34.6432C122.288 35.7438 122.702 36.7933 123.326 37.7197C123.949 38.6461 124.767 39.4273 125.723 40.0098H125.724Z" fill="#E3C600"/>
</svg>
