<?xml version="1.0" encoding="UTF-8" standalone="no"?>
<svg width="18" height="26" viewBox="0 0 36 77" fill="none" xmlns="http://www.w3.org/2000/svg">
<g clip-path="url(#clip0_101_158)">
<path d="M20.1371 26.8033H18.876V76.0861H20.1371V26.8033Z" fill="#006633"/>
<path d="M15.4528 14.15C14.358 12.3484 13.2493 10.4912 12.7642 8.35695C12.487 7.09578 12.2514 4.7536 13.5403 2.71632C15.4944 -0.40196 19.4027 0.0138106 19.5967 0.0276697C20.3035 0.110824 22.8813 0.568172 24.3088 3.03508C25.4036 4.94763 25.1819 6.95719 25.0433 8.16292C24.78 10.3249 23.9069 12.3622 22.4932 14.0253" fill="#DA3A3A"/>
<path d="M21.9941 13.9422C23.186 12.3068 24.4056 10.6438 26.0826 9.57662C27.0666 8.95296 29.0068 8.0937 31.1688 8.92524C34.4673 10.2003 35.3681 14.455 35.4097 14.6629C35.5621 15.4529 36.0056 18.3078 34.3564 20.456C33.0814 22.1191 31.2797 22.4101 30.1987 22.5764C27.5378 22.9922 25.3203 21.9389 24.3502 21.3984" fill="#DA3A3A"/>
<path d="M24.9742 20.3035C26.956 21.1904 28.9933 22.1051 30.6979 23.6296C31.6958 24.5305 33.3173 26.3876 33.5252 28.8545C33.8439 32.638 30.4346 34.5644 30.2683 34.6614C29.6308 35.0079 27.2748 36.1305 24.6138 34.8832C22.5488 33.913 21.5094 32.0698 20.8719 30.9749C19.7632 29.0069 19.2227 26.7756 19.3335 24.5166" fill="#DA3A3A"/>
<path d="M13.3322 21.6756C11.1702 22.2438 8.95273 22.8259 6.66599 22.6457C5.32167 22.5349 2.9102 22.0359 1.30255 20.0402C-1.1505 17.0051 0.568019 13.0691 0.651173 12.8751C0.969931 12.1544 2.28654 9.60439 5.2108 8.91144C7.48368 8.37093 9.41008 9.24405 10.5604 9.7707C13.4153 11.0734 14.9398 13.2632 15.5496 14.2887" fill="#DA3A3A"/>
<path d="M19.7074 24.6275C19.5965 26.5955 19.4857 28.605 18.7096 30.4621C18.2522 31.557 17.1573 33.4003 15.0231 34.1209C11.7662 35.2297 8.86965 32.5964 8.7172 32.4578C8.19055 31.9728 6.37502 30.1018 6.5829 27.4547C6.73535 25.4036 8.02424 24.0731 8.78649 23.2693C10.6852 21.3013 12.9719 20.7054 14.0113 20.5114" fill="#DA3A3A"/>
<path d="M19.3057 24.7245C22.5817 24.7245 25.2374 22.0688 25.2374 18.7929C25.2374 15.5169 22.5817 12.8612 19.3057 12.8612C16.0297 12.8612 13.374 15.5169 13.374 18.7929C13.374 22.0688 16.0297 24.7245 19.3057 24.7245Z" fill="#F6A124"/>
<path d="M18.9316 11.6139C18.7791 11.6416 18.4881 9.60436 18.3911 7.76111C18.2941 6.00101 18.3218 3.94987 18.4742 3.92215C18.6267 3.89443 18.89 5.94557 19.0009 7.67795C19.0979 9.45191 19.084 11.5862 18.9316 11.6139Z" fill="#9F2D28"/>
<path d="M20.151 12.3623C20.0124 12.293 20.4282 10.7269 20.9271 9.42417C21.3983 8.17686 22.0913 6.81868 22.2299 6.90183C22.3685 6.98498 21.925 8.52334 21.4538 9.75679C20.9826 10.9902 20.2896 12.4316 20.151 12.3623Z" fill="#9F2D28"/>
<path d="M14.8704 7.60855C14.9813 7.48382 15.8544 8.70342 16.5196 9.90915C17.1433 11.0456 17.7531 12.4869 17.6422 12.5978C17.5313 12.7087 16.6721 11.4752 16.0484 10.3526C15.4248 9.23006 14.7457 7.73328 14.8704 7.60855Z" fill="#9F2D28"/>
<path d="M26.4572 16.5338C26.4018 16.3952 27.7323 15.8824 28.9657 15.5775C30.1437 15.2865 31.5435 15.0924 31.5989 15.231C31.6544 15.3696 30.3101 15.8685 29.1459 16.1596C27.9817 16.4506 26.5127 16.6724 26.4572 16.5338Z" fill="#9F2D28"/>
<path d="M25.9578 18.0998C25.9994 17.9474 27.8842 18.1414 29.5057 18.4602C31.044 18.7651 32.7764 19.264 32.721 19.4164C32.6656 19.5689 30.7946 19.3471 29.2562 19.0422C27.7179 18.7374 25.9023 18.2523 25.9578 18.0998Z" fill="#9F2D28"/>
<path d="M29.6306 11.794C29.7691 11.8771 28.7297 12.972 27.6903 13.8451C26.6925 14.6767 25.3897 15.5359 25.2511 15.4528C25.1125 15.3696 26.1658 14.2886 27.1637 13.4571C28.1615 12.6255 29.492 11.697 29.6306 11.794Z" fill="#9F2D28"/>
<path d="M23.9207 24.7245C24.0316 24.6136 25.459 26.5261 26.5955 28.3139C27.6903 30.0186 28.8268 32.0836 28.7021 32.1945C28.5773 32.3053 27.1776 30.3651 26.0966 28.6881C25.0156 26.9696 23.8098 24.8215 23.9207 24.7245Z" fill="#9F2D28"/>
<path d="M22.2714 25.0987C22.4239 25.0849 22.8951 26.5678 23.1584 27.8705C23.4079 29.1179 23.5464 30.573 23.394 30.5869C23.2415 30.6008 22.7842 29.1179 22.5347 27.8705C22.2853 26.6232 22.1051 25.1126 22.2714 25.0987Z" fill="#9F2D28"/>
<path d="M29.7135 25.8886C29.6858 26.055 28.2722 25.5422 27.0526 24.9324C25.8884 24.3503 24.5718 23.5188 24.5996 23.3525C24.6273 23.1862 26.0409 23.7267 27.1912 24.2949C28.3415 24.8631 29.7413 25.7223 29.7135 25.8886Z" fill="#9F2D28"/>
<path d="M14.7321 24.9601C14.8706 25.0294 13.9282 26.637 12.972 27.9813C12.0573 29.2702 10.8654 30.67 10.7407 30.6007C10.6159 30.5314 11.5583 28.9237 12.473 27.6626C13.3877 26.4014 14.5935 24.8908 14.7321 24.9601Z" fill="#9F2D28"/>
<path d="M14.2474 23.6158C14.3028 23.7544 12.8892 24.78 11.5726 25.5284C10.3114 26.2491 8.80077 26.9281 8.7592 26.7896C8.71762 26.651 10.1312 25.6531 11.3786 24.9325C12.6259 24.2118 14.1919 23.4773 14.2474 23.6158Z" fill="#9F2D28"/>
<path d="M15.3144 31.6402C15.1481 31.6679 15.259 29.9078 15.5085 28.314C15.7441 26.8033 16.2014 25.0155 16.3539 25.0017C16.5063 24.9878 16.3816 26.7479 16.1598 28.2447C15.9381 29.7415 15.4807 31.6124 15.3144 31.6402Z" fill="#9F2D28"/>
<path d="M12.0989 16.7555C12.085 16.9079 9.8676 16.5338 7.92733 16.0487C6.07022 15.5913 3.93593 14.8984 3.96365 14.7459C3.99136 14.5935 6.19495 14.9954 8.0382 15.4389C9.88145 15.9101 12.1128 16.5892 12.0989 16.7555Z" fill="#9F2D28"/>
<path d="M12.9303 15.3281C12.8195 15.4389 11.4474 14.5797 10.3526 13.7065C9.29928 12.875 8.21828 11.8217 8.32915 11.7108C8.44002 11.6 9.79821 12.5008 10.8376 13.3046C11.8771 14.1085 13.0412 15.2172 12.9303 15.3281Z" fill="#9F2D28"/>
<path d="M5.70983 19.8462C5.61282 19.7076 7.40064 19.1255 9.06372 18.7513C10.6437 18.391 12.5701 18.1276 12.6532 18.2662C12.7364 18.4048 10.9485 18.973 9.38248 19.3195C7.81641 19.666 5.80685 19.9847 5.70983 19.8462Z" fill="#9F2D28"/>
<path d="M19.7217 51.722C19.7217 51.722 19.985 49.8372 21.4125 46.8713C22.341 44.9449 22.8261 43.9748 23.6438 43.0185C24.7802 41.688 25.196 41.8266 26.4295 40.4407C28.2727 38.3896 28.9795 36.8928 28.9795 36.8928C28.9795 36.8928 29.5893 40.0527 29.0627 42.5889C28.7439 44.1411 28.3836 45.8042 27.0393 47.4811C26.0137 48.77 24.9188 49.4491 23.7962 50.1421C22.6459 50.8627 19.7217 51.722 19.7217 51.722Z" fill="#006633"/>
<path d="M20.2761 50.5439C20.2206 50.4746 22.1609 49.5184 23.9626 47.3702C25.7227 45.2637 26.277 43.3095 26.3463 43.3511C26.4156 43.3927 25.9583 45.6379 24.1982 47.7028C22.4935 49.7124 20.3315 50.6132 20.2761 50.5439Z" fill="#004620"/>
<path d="M19.0976 60.065C19.0976 60.065 18.7789 57.7228 17.0049 54.0363C15.8546 51.6526 15.2587 50.433 14.2608 49.255C12.8472 47.6057 12.3483 47.7721 10.8238 46.0535C8.55091 43.5035 7.67779 41.6464 7.67779 41.6464C7.67779 41.6464 6.9294 45.5685 7.58078 48.7283C7.98269 50.6686 8.42618 52.7197 10.0754 54.7986C11.3366 56.3924 12.7086 57.2378 14.0668 58.097C15.4943 58.9979 19.0976 60.065 19.0976 60.065Z" fill="#006633"/>
<path d="M18.419 58.6098C18.4883 58.5267 16.0906 57.3348 13.8732 54.66C11.6973 52.0407 11.0182 49.6153 10.9212 49.6569C10.8242 49.6985 11.4063 52.498 13.5683 55.0619C15.6887 57.5704 18.3497 58.693 18.419 58.6098Z" fill="#004620"/>
<path d="M19.001 42.7412C19.001 42.7412 18.8624 41.8127 18.0863 40.3575C17.5874 39.415 17.324 38.93 16.8806 38.4726C16.2708 37.8212 16.049 37.8905 15.3699 37.2114C14.3721 36.1997 13.9979 35.4652 13.9979 35.4652C13.9979 35.4652 13.6653 37.0174 13.9563 38.2647C14.1226 39.027 14.3305 39.8447 15.0512 40.6623C15.6055 41.286 16.2015 41.6325 16.7974 41.9651C17.4211 42.3116 19.001 42.7412 19.001 42.7412Z" fill="#006633"/>
<path d="M18.7096 42.1591C18.7373 42.1314 17.6979 41.6602 16.7278 40.6069C15.7576 39.5536 15.4805 38.6112 15.4389 38.625C15.3973 38.6389 15.6468 39.7476 16.5892 40.7593C17.5177 41.7572 18.6819 42.2007 18.7096 42.1591Z" fill="#004620"/>
</g>
<defs>
<clipPath id="clip0_101_158">
<rect width="35.59" height="76.0861" fill="white"/>
</clipPath>
</defs>
</svg>
