<svg width="870" height="540" viewBox="0 0 870 540" fill="none" xmlns="http://www.w3.org/2000/svg">
<rect x="2.5" y="2.5" width="865" height="534.4" rx="77.5" fill="#F3F3F3" stroke="#83C1CA" stroke-width="5"/>
<path d="M279 148.541C279.001 157.693 276.288 166.641 271.204 174.251C266.12 181.861 258.894 187.793 250.438 191.296C241.983 194.799 232.679 195.717 223.702 193.932C214.726 192.147 206.48 187.74 200.008 181.269C193.536 174.797 189.128 166.552 187.343 157.576C185.557 148.599 186.473 139.295 189.975 130.839C193.478 122.384 199.409 115.156 207.019 110.072C214.628 104.987 223.575 102.273 232.728 102.273C237.887 102.279 243.006 103.183 247.855 104.946C256.801 108.279 264.547 114.211 270.097 121.979C275.646 129.747 278.747 138.997 279 148.541Z" fill="#9F1827"/>
<path d="M224.049 194.003C223.053 193.808 222.243 193.623 221.677 193.487C221.042 193.334 220.906 193.29 219.66 192.982C218.414 192.675 218.4 192.677 217.893 192.547C217.348 192.408 216.603 192.203 215.743 191.907C215.743 191.907 214.465 191.47 213.147 190.871C208.794 188.767 204.751 186.072 201.134 182.862C196.694 178.845 193.068 174.01 190.456 168.622C187.569 162.184 186.052 155.216 186.003 148.161C185.938 142.994 186.845 137.861 188.676 133.029C191.048 126.018 195.185 119.736 200.689 114.788C204.522 111.313 208.876 108.46 213.593 106.334C216.067 105.315 218.591 104.423 221.156 103.661C221.792 103.485 222.482 103.318 223.225 103.175C223.984 103.027 224.7 102.922 225.369 102.847C224.447 103.677 223.097 104.917 221.49 106.442C218.743 109.048 214.893 112.659 213.147 114.784C208.813 120.062 205.494 126.097 203.359 132.584C201.192 138.717 200.283 145.224 200.686 151.716C201.174 159.522 204.162 164.867 207.805 171.738C212.146 179.886 217.615 187.382 224.049 194.003Z" fill="#7B141B"/>
<path d="M232.725 84.4729C234.006 83.4473 235.619 82.9264 237.259 83.0084C238.898 83.0904 240.451 83.7697 241.624 84.9181C242.513 86.6979 240.288 88.4776 238.064 95.1487C235.839 100.933 235.839 103.602 234.949 103.602C234.058 103.602 233.169 98.263 232.276 93.3717C231.389 86.2509 232.28 84.9163 232.725 84.4729Z" fill="#503A23"/>
<path d="M160 227.541C160.001 236.693 157.288 245.641 152.204 253.251C147.12 260.861 139.894 266.793 131.438 270.296C122.983 273.799 113.679 274.717 104.702 272.932C95.7256 271.147 87.4799 266.74 81.008 260.269C74.536 253.797 70.1284 245.552 68.3426 236.576C66.5568 227.599 67.4729 218.295 70.9752 209.839C74.4775 201.384 80.4087 194.156 88.0186 189.072C95.6284 183.987 104.575 181.273 113.728 181.273C118.887 181.279 124.006 182.183 128.855 183.946C137.801 187.279 145.547 193.211 151.097 200.979C156.646 208.747 159.747 217.997 160 227.541Z" fill="#9F1827"/>
<path d="M105.049 273.003C104.053 272.808 103.243 272.623 102.677 272.487C102.042 272.334 101.906 272.29 100.66 271.982C99.4139 271.675 99.4001 271.677 98.8931 271.547C98.3475 271.408 97.6028 271.203 96.7429 270.907C96.7429 270.907 95.4654 270.47 94.1475 269.871C89.7938 267.767 85.7514 265.072 82.1344 261.862C77.6936 257.845 74.0681 253.01 71.4559 247.622C68.5687 241.184 67.0524 234.216 67.0033 227.161C66.9381 221.994 67.8448 216.861 69.6761 212.029C72.0478 205.018 76.185 198.736 81.6892 193.788C85.522 190.313 89.876 187.46 94.5926 185.334C97.0666 184.315 99.591 183.423 102.156 182.661C102.792 182.485 103.482 182.318 104.225 182.175C104.984 182.027 105.7 181.922 106.369 181.847C105.447 182.677 104.097 183.917 102.49 185.442C99.7429 188.048 95.8931 191.659 94.1475 193.784C89.8131 199.062 86.4943 205.097 84.3593 211.584C82.1916 217.717 81.2825 224.224 81.6864 230.716C82.174 238.522 85.1621 243.867 88.8054 250.738C93.1463 258.886 98.6147 266.382 105.049 273.003Z" fill="#7B141B"/>
<path d="M113.725 163.473C115.006 162.447 116.619 161.926 118.259 162.008C119.898 162.09 121.451 162.77 122.624 163.918C123.513 165.698 121.288 167.478 119.064 174.149C116.839 179.933 116.839 182.602 115.949 182.602C115.058 182.602 114.169 177.263 113.276 172.372C112.389 165.251 113.28 163.916 113.725 163.473Z" fill="#503A23"/>
<path d="M318 346.541C318.001 355.693 315.288 364.641 310.204 372.251C305.12 379.861 297.894 385.793 289.438 389.296C280.983 392.799 271.679 393.717 262.702 391.932C253.726 390.147 245.48 385.74 239.008 379.269C232.536 372.797 228.128 364.552 226.343 355.576C224.557 346.599 225.473 337.295 228.975 328.839C232.478 320.384 238.409 313.156 246.019 308.072C253.628 302.987 262.575 300.273 271.728 300.273C276.887 300.279 282.006 301.183 286.855 302.946C295.801 306.279 303.547 312.211 309.097 319.979C314.646 327.747 317.747 336.997 318 346.541Z" fill="#9F1827"/>
<path d="M263.049 392.003C262.053 391.808 261.243 391.623 260.677 391.487C260.042 391.334 259.906 391.29 258.66 390.982C257.414 390.675 257.4 390.677 256.893 390.547C256.348 390.408 255.603 390.203 254.743 389.907C254.743 389.907 253.465 389.47 252.147 388.871C247.794 386.767 243.751 384.072 240.134 380.862C235.694 376.845 232.068 372.01 229.456 366.622C226.569 360.184 225.052 353.216 225.003 346.161C224.938 340.994 225.845 335.861 227.676 331.029C230.048 324.018 234.185 317.736 239.689 312.788C243.522 309.313 247.876 306.46 252.593 304.334C255.067 303.315 257.591 302.423 260.156 301.661C260.792 301.485 261.482 301.318 262.225 301.175C262.984 301.027 263.7 300.922 264.369 300.847C263.447 301.677 262.097 302.917 260.49 304.442C257.743 307.048 253.893 310.659 252.147 312.784C247.813 318.062 244.494 324.097 242.359 330.584C240.192 336.717 239.283 343.224 239.686 349.716C240.174 357.522 243.162 362.867 246.805 369.738C251.146 377.886 256.615 385.382 263.049 392.003Z" fill="#7B141B"/>
<path d="M271.725 282.473C273.006 281.447 274.619 280.926 276.259 281.008C277.898 281.09 279.451 281.77 280.624 282.918C281.513 284.698 279.288 286.478 277.064 293.149C274.839 298.933 274.839 301.602 273.949 301.602C273.058 301.602 272.169 296.263 271.276 291.372C270.389 284.251 271.28 282.916 271.725 282.473Z" fill="#503A23"/>
<path d="M796 450.541C796.001 459.693 793.288 468.641 788.204 476.251C783.12 483.861 775.894 489.793 767.438 493.296C758.983 496.799 749.679 497.717 740.702 495.932C731.726 494.147 723.48 489.74 717.008 483.269C710.536 476.797 706.128 468.552 704.343 459.576C702.557 450.599 703.473 441.295 706.975 432.839C710.478 424.384 716.409 417.156 724.019 412.072C731.628 406.987 740.575 404.273 749.728 404.273C754.887 404.279 760.006 405.183 764.855 406.946C773.801 410.279 781.547 416.211 787.097 423.979C792.646 431.747 795.747 440.997 796 450.541Z" fill="#9F1827"/>
<path d="M741.049 496.003C740.053 495.808 739.243 495.623 738.677 495.487C738.042 495.334 737.906 495.29 736.66 494.982C735.414 494.675 735.4 494.677 734.893 494.547C734.348 494.408 733.603 494.203 732.743 493.907C732.743 493.907 731.465 493.47 730.147 492.871C725.794 490.767 721.751 488.072 718.134 484.862C713.694 480.845 710.068 476.01 707.456 470.622C704.569 464.184 703.052 457.216 703.003 450.161C702.938 444.994 703.845 439.861 705.676 435.029C708.048 428.018 712.185 421.736 717.689 416.788C721.522 413.313 725.876 410.46 730.593 408.334C733.067 407.315 735.591 406.423 738.156 405.661C738.792 405.485 739.482 405.318 740.225 405.175C740.984 405.027 741.7 404.922 742.369 404.847C741.447 405.677 740.097 406.917 738.49 408.442C735.743 411.048 731.893 414.659 730.147 416.784C725.813 422.062 722.494 428.097 720.359 434.584C718.192 440.717 717.283 447.224 717.686 453.716C718.174 461.522 721.162 466.867 724.805 473.738C729.146 481.886 734.615 489.382 741.049 496.003Z" fill="#7B141B"/>
<path d="M749.725 386.473C751.006 385.447 752.619 384.926 754.259 385.008C755.898 385.09 757.451 385.77 758.624 386.918C759.513 388.698 757.288 390.478 755.064 397.149C752.839 402.933 752.839 405.602 751.949 405.602C751.058 405.602 750.169 400.263 749.276 395.372C748.389 388.251 749.28 386.916 749.725 386.473Z" fill="#503A23"/>
<path d="M723 330.541C723.001 339.693 720.288 348.641 715.204 356.251C710.12 363.861 702.894 369.793 694.438 373.296C685.983 376.799 676.679 377.717 667.702 375.932C658.726 374.147 650.48 369.74 644.008 363.269C637.536 356.797 633.128 348.552 631.343 339.576C629.557 330.599 630.473 321.295 633.975 312.839C637.478 304.384 643.409 297.156 651.019 292.072C658.628 286.987 667.575 284.273 676.728 284.273C681.887 284.279 687.006 285.183 691.855 286.946C700.801 290.279 708.547 296.211 714.097 303.979C719.646 311.747 722.747 320.997 723 330.541Z" fill="#9F1827"/>
<path d="M668.049 376.003C667.053 375.808 666.243 375.623 665.677 375.487C665.042 375.334 664.906 375.29 663.66 374.982C662.414 374.675 662.4 374.677 661.893 374.547C661.348 374.408 660.603 374.203 659.743 373.907C659.743 373.907 658.465 373.47 657.147 372.871C652.794 370.767 648.751 368.072 645.134 364.862C640.694 360.845 637.068 356.01 634.456 350.622C631.569 344.184 630.052 337.216 630.003 330.161C629.938 324.994 630.845 319.861 632.676 315.029C635.048 308.018 639.185 301.736 644.689 296.788C648.522 293.313 652.876 290.46 657.593 288.334C660.067 287.315 662.591 286.423 665.156 285.661C665.792 285.485 666.482 285.318 667.225 285.175C667.984 285.027 668.7 284.922 669.369 284.847C668.447 285.677 667.097 286.917 665.49 288.442C662.743 291.048 658.893 294.659 657.147 296.784C652.813 302.062 649.494 308.097 647.359 314.584C645.192 320.717 644.283 327.224 644.686 333.716C645.174 341.522 648.162 346.867 651.805 353.738C656.146 361.886 661.615 369.382 668.049 376.003Z" fill="#7B141B"/>
<path d="M676.725 266.473C678.006 265.447 679.619 264.926 681.259 265.008C682.898 265.09 684.451 265.77 685.624 266.918C686.513 268.698 684.288 270.478 682.064 277.149C679.839 282.933 679.839 285.602 678.949 285.602C678.058 285.602 677.169 280.263 676.276 275.372C675.389 268.251 676.28 266.916 676.725 266.473Z" fill="#503A23"/>
<path d="M592 284.541C592.001 293.693 589.288 302.641 584.204 310.251C579.12 317.861 571.894 323.793 563.438 327.296C554.983 330.799 545.679 331.717 536.702 329.932C527.726 328.147 519.48 323.74 513.008 317.269C506.536 310.797 502.128 302.552 500.343 293.576C498.557 284.599 499.473 275.295 502.975 266.839C506.478 258.384 512.409 251.156 520.019 246.072C527.628 240.987 536.575 238.273 545.728 238.273C550.887 238.279 556.006 239.183 560.855 240.946C569.801 244.279 577.547 250.211 583.097 257.979C588.646 265.747 591.747 274.997 592 284.541Z" fill="#9F1827"/>
<path d="M537.049 330.003C536.053 329.808 535.243 329.623 534.677 329.487C534.042 329.334 533.906 329.29 532.66 328.982C531.414 328.675 531.4 328.677 530.893 328.547C530.348 328.408 529.603 328.203 528.743 327.907C528.743 327.907 527.465 327.47 526.147 326.871C521.794 324.767 517.751 322.072 514.134 318.862C509.694 314.845 506.068 310.01 503.456 304.622C500.569 298.184 499.052 291.216 499.003 284.161C498.938 278.994 499.845 273.861 501.676 269.029C504.048 262.018 508.185 255.736 513.689 250.788C517.522 247.313 521.876 244.46 526.593 242.334C529.067 241.315 531.591 240.423 534.156 239.661C534.792 239.485 535.482 239.318 536.225 239.175C536.984 239.027 537.7 238.922 538.369 238.847C537.447 239.677 536.097 240.917 534.49 242.442C531.743 245.048 527.893 248.659 526.147 250.784C521.813 256.062 518.494 262.097 516.359 268.584C514.192 274.717 513.283 281.224 513.686 287.716C514.174 295.522 517.162 300.867 520.805 307.738C525.146 315.886 530.615 323.382 537.049 330.003Z" fill="#7B141B"/>
<path d="M545.725 220.473C547.006 219.447 548.619 218.926 550.259 219.008C551.898 219.09 553.451 219.77 554.624 220.918C555.513 222.698 553.288 224.478 551.064 231.149C548.839 236.933 548.839 239.602 547.949 239.602C547.058 239.602 546.169 234.263 545.276 229.372C544.389 222.251 545.28 220.916 545.725 220.473Z" fill="#503A23"/>
</svg>
