<svg width="870" height="540" viewBox="0 0 870 540" fill="none" xmlns="http://www.w3.org/2000/svg">
<rect x="2.5" y="2.5" width="865" height="534.4" rx="77.5" fill="#F3F3F3" stroke="#83C1CA" stroke-width="5"/>
<path d="M528.104 289.104C528.92 288.021 526.744 285.99 525.52 282.334C524.908 280.507 524.772 279.153 524.568 276.445C524.296 273.06 523.82 266.154 526.812 258.166C527.356 256.609 529.464 251.329 534.359 245.845C537.419 242.392 544.967 233.862 556.934 232.576C569.65 231.222 579.169 238.94 583.249 242.325C585.289 243.949 596.441 253.427 598.685 268.727C600.248 279.559 596.645 289.172 596.373 289.51C596.373 289.51 596.237 289.713 596.237 289.917C596.237 290.187 596.509 290.39 596.645 290.458C597.121 290.797 598.889 291.338 600.656 290.39C600.792 290.323 601.608 289.849 602.288 288.901C603.036 287.818 603.172 286.735 603.24 286.396C603.988 280.574 605.416 276.919 605.348 272.044C605.212 265.477 602.22 249.975 589.097 238.534C585.561 235.419 576.517 227.499 562.918 227.025C544.491 226.348 532.523 239.684 530.211 242.392C527.696 245.236 520.488 253.495 519.128 266.493C517.836 278.882 522.936 288.766 523.072 288.969C523.072 288.969 523.208 289.172 523.276 289.443C523.344 289.646 523.344 289.713 523.344 289.713C523.548 290.187 525.452 289.917 525.452 289.917C527.016 289.51 527.9 289.375 528.104 289.104Z" fill="#AB6F26"/>
<path d="M522.596 292.015C522.732 293.234 522.324 304.742 525.656 315.777C527.56 322.276 529.532 324.307 530.347 325.12C531.367 326.067 533.067 327.354 537.011 328.843C540.207 329.994 543.947 330.874 556.798 331.551C562.782 331.822 565.842 332.025 570.194 331.822C575.702 331.619 579.101 331.483 583.453 330.332C587.533 329.249 592.225 327.963 595.557 323.901C596.781 322.412 597.325 321.193 598.413 318.756C598.413 318.756 602.832 308.534 602.356 292.218C602.356 291.203 602.22 289.917 602.22 289.917C602.22 289.646 602.152 289.51 602.152 289.443C601.676 288.156 561.218 297.431 534.835 291.88C531.231 291.135 522.528 291 522.528 291.474C522.596 291.744 522.596 291.812 522.596 292.015Z" fill="#AB6F26"/>
<path d="M543.335 289.781C539.663 289.24 537.351 288.901 537.351 288.901C532.319 288.156 532.455 288.156 531.503 288.021C528.987 287.75 527.831 287.818 525.384 287.344C524.024 287.073 523.344 286.938 522.8 286.802C520.692 286.193 519.672 285.448 518.04 285.719C517.564 285.787 517.156 285.922 516.816 286.193C516.272 286.599 516 287.276 516 287.953C516.068 288.698 516.544 289.307 517.156 289.849C520.08 292.218 523.548 292.624 523.548 292.624C529.939 293.369 536.263 294.385 542.655 294.994C547.415 295.468 546.939 295.535 550.475 295.874C558.362 296.551 560.878 296.077 583.453 295.129C588.281 294.926 592.973 293.775 597.8 293.505C597.8 293.505 599.568 293.369 605.008 291.541C605.416 291.406 606.708 290.932 607.388 289.849C607.728 289.24 607.796 288.766 607.796 288.63C607.796 288.495 607.796 287.818 607.388 287.276C606.912 286.667 606.096 286.599 605.552 286.532C602.628 286.329 600.384 287.073 600.384 287.073C597.936 287.886 595.285 287.818 592.769 288.359C586.037 289.781 574.477 290.255 569.854 290.458C559.178 290.797 548.571 290.526 543.335 289.781Z" fill="#CE8F31"/>
<path d="M594.129 297.296C592.973 297.837 591.681 297.905 590.457 298.311C587.261 299.327 581.141 300.004 580.053 300.139C571.894 301.019 563.258 300.613 554.215 300.139C549.863 299.936 547.007 299.665 541.363 299.123C536.671 298.65 535.651 298.446 534.699 298.243C533.475 297.905 532.184 297.905 530.96 297.499C530.552 297.363 529.396 296.889 528.444 297.296C527.9 297.499 527.764 297.77 527.696 297.905C527.696 297.905 527.56 298.311 527.696 298.853C528.172 300.613 532.795 301.019 532.795 301.019C539.187 301.561 545.511 302.847 551.903 302.915C561.354 303.05 566.454 303.592 575.362 303.456C576.722 303.456 579.849 303.388 583.929 302.779C585.969 302.508 587.533 302.238 589.573 301.628C593.109 300.545 596.781 298.785 596.781 298.785C596.781 298.785 597.121 298.311 597.121 297.905C597.121 297.499 596.781 297.025 596.509 296.889C595.897 296.416 595.081 296.889 594.129 297.296Z" fill="#CE8F31"/>
<path d="M571.009 320.448C577.333 320.448 578.285 320.922 584.813 320.448C586.581 320.313 588.893 320.11 591.545 319.771C592.021 319.568 592.293 319.23 592.293 318.824C592.293 318.282 591.681 318.011 591.477 317.876C590.729 317.47 589.845 317.605 589.709 317.605C586.173 318.011 582.501 317.267 578.965 317.537C576.109 317.741 572.029 318.011 566.658 318.079C565.706 318.485 565.638 318.824 565.638 318.959C565.706 319.501 567.134 319.839 568.018 320.042C569.718 320.448 571.009 320.448 571.009 320.448Z" fill="#CE8F31"/>
<path d="M549.251 316.996C548.027 316.996 546.055 316.928 543.471 316.86C543.267 316.928 542.383 317.131 542.315 317.673C542.247 318.282 543.335 318.824 543.675 319.027C545.239 319.839 546.599 319.771 550.543 319.771C551.223 319.771 551.903 319.771 552.651 319.771C554.623 319.771 557.41 319.771 561.082 319.771C561.422 319.568 561.898 319.23 561.83 318.891C561.762 318.418 560.606 318.214 559.994 318.079C553.195 317.064 549.251 316.996 549.251 316.996Z" fill="#CE8F31"/>
<path d="M585.969 310.768C585.493 310.768 584.473 310.768 582.433 310.903C581.345 310.971 579.849 311.038 577.945 311.174C577.877 311.174 577.061 311.309 576.653 310.903C576.381 310.565 576.449 310.023 576.585 309.752C576.993 308.669 579.441 308.669 582.909 308.669C584.269 308.669 586.717 308.669 590.185 308.669C590.253 308.669 590.797 308.534 591.069 308.872C591.341 309.211 591.137 309.82 590.865 310.091C590.525 310.565 589.913 310.565 589.029 310.632C587.261 310.7 586.309 310.768 585.969 310.768Z" fill="#CE8F31"/>
<path d="M559.11 308.872C554.758 309.007 550.406 308.466 546.055 308.33C543.471 308.263 539.595 308.06 534.835 307.857C534.767 307.857 534.155 307.992 533.951 308.466C533.679 308.94 533.883 309.684 534.495 310.091C538.303 310.294 541.363 310.632 543.539 310.835C549.251 311.445 551.086 311.918 555.506 311.986C558.566 312.054 560.946 311.918 562.306 311.783C564.482 311.58 566.454 311.309 567.95 311.106C568.086 311.106 568.562 311.106 568.834 310.768C568.834 310.768 569.038 310.429 568.766 309.82C568.154 308.398 561.558 308.737 559.11 308.872Z" fill="#CE8F31"/>
<path d="M565.366 325.323C564.89 325.323 563.87 325.323 561.83 325.187C560.742 325.12 559.246 325.052 557.342 324.917C557.274 324.917 556.458 324.781 556.05 325.187C555.778 325.526 555.846 326.067 555.982 326.338C556.39 327.421 558.838 327.421 562.306 327.421C563.666 327.421 566.114 327.421 569.582 327.421C569.65 327.421 570.194 327.557 570.466 327.218C570.738 326.88 570.534 326.271 570.262 326C569.922 325.526 569.31 325.526 568.426 325.458C566.59 325.39 565.706 325.323 565.366 325.323Z" fill="#CE8F31"/>
</svg>
