<svg width="666" height="359" viewBox="0 0 666 359" fill="none" xmlns="http://www.w3.org/2000/svg">
<path d="M615.518 177.449C616.384 173.551 616.818 169.448 616.818 165.14C616.818 133.138 590.602 106.674 557.238 104.418C558.104 99.4943 558.537 94.5709 558.537 89.6474C558.537 40.208 516.073 0 463.859 0C420.961 0 384.78 27.0789 373.08 64.2097C363.548 59.0811 352.715 56.004 341.015 56.004C305.484 56.004 276.669 83.288 276.669 116.931C276.669 120.214 276.885 123.496 277.535 126.778C276.019 126.573 274.286 126.573 272.769 126.573C243.304 126.573 218.389 145.446 210.806 171.089C165.958 171.91 129.776 206.784 129.776 249.454C129.776 292.739 166.825 328.023 212.755 328.023C215.139 328.023 217.739 327.818 220.122 327.613H574.787C577.386 327.818 579.986 328.023 582.803 328.023C628.517 328.023 665.782 292.944 665.782 249.454C665.782 217.246 645.2 189.347 615.518 177.449Z" fill="#417D3B"/>
<path d="M615.951 177.449C616.818 173.551 617.251 169.448 617.251 165.14C617.251 133.138 591.036 106.674 557.671 104.418C557.454 104.418 557.237 104.623 557.021 104.623C561.57 108.521 574.786 121.239 578.47 141.549C583.453 170.063 565.47 190.988 562.654 194.065C569.153 196.732 582.369 203.091 589.302 216.631C600.135 237.555 587.569 260.326 582.153 270.378C555.937 318.177 488.341 326.382 477.508 327.613C510.223 327.613 533.405 327.818 546.188 327.613C550.738 327.613 562.87 327.408 579.119 327.818C581.719 327.818 582.803 327.818 583.019 327.818C628.734 327.818 665.998 292.739 665.998 249.249C666.215 217.246 645.416 189.347 615.951 177.449Z" fill="#326437"/>
<path d="M352.932 208.631C349.032 208.631 345.349 208.836 341.666 209.451C336.899 182.372 312.2 161.653 282.085 161.653C271.469 161.653 261.503 164.32 252.837 168.833C251.32 128.625 216.439 96.6226 173.541 96.6226C129.777 96.6226 94.2451 130.266 94.2451 171.705C94.2451 179.295 95.3284 186.475 97.7116 193.45C94.4618 193.04 90.9953 192.835 87.5288 192.835C39.2146 192.835 0 229.965 0 275.712C0 321.459 39.2146 358.59 87.5288 358.59H87.7454H349.465C350.548 358.59 351.632 358.59 352.715 358.59C396.479 358.59 432.011 324.947 432.011 283.508C432.228 242.069 396.696 208.631 352.932 208.631Z" fill="#326437"/>
<path d="M352.715 208.425C349.899 208.425 347.082 208.63 347.082 208.63C345.132 208.835 343.399 209.04 341.449 209.246C336.683 182.167 311.984 161.447 281.869 161.447C271.253 161.447 261.286 164.114 252.62 168.627C259.553 169.038 282.952 170.884 303.751 188.321C324.333 205.348 329.75 226.478 331.049 233.042C335.383 235.299 355.315 246.582 361.815 269.558C367.448 289.251 359.648 305.458 356.398 312.022C339.066 348.127 295.735 357.359 289.235 358.59C302.018 358.795 313.717 358.795 325.2 359C325.2 359 329.316 359 352.282 358.795C353.582 358.795 355.965 358.795 358.998 358.59C358.998 358.59 366.364 357.974 372.864 356.333C386.73 353.051 399.079 344.435 399.079 344.435C405.796 339.716 420.745 328.023 427.894 307.919C428.761 305.458 431.794 296.226 431.794 283.507C431.794 273.455 429.844 265.865 429.194 263.608C422.478 239.812 404.712 226.478 401.246 224.016C398.863 222.17 391.496 217.246 380.664 213.348C380.88 213.348 367.014 208.425 352.715 208.425Z" fill="#27522C"/>
<path d="M165.308 166.986C171.889 166.986 177.224 161.935 177.224 155.704C177.224 149.472 171.889 144.421 165.308 144.421C158.727 144.421 153.392 149.472 153.392 155.704C153.392 161.935 158.727 166.986 165.308 166.986Z" fill="#761F36"/>
<path d="M168.125 158.37C167.691 158.986 166.825 158.986 166.175 158.37L162.275 155.088C161.625 154.678 161.625 153.857 162.275 153.242C162.708 152.626 163.575 152.626 164.225 153.242L168.125 156.524C168.558 156.934 168.775 157.755 168.125 158.37Z" fill="#49131F"/>
<path d="M167.908 153.037C168.558 153.447 168.558 154.268 167.908 154.883L164.441 158.371C164.008 158.986 163.142 158.986 162.492 158.371C161.842 157.96 161.842 157.14 162.492 156.524L165.958 152.832C166.608 152.627 167.475 152.627 167.908 153.037Z" fill="#49131F"/>
<path d="M160.542 150.368C161.192 149.958 162.058 149.342 162.925 148.727C163.142 148.522 163.358 148.317 163.575 147.906C163.575 147.906 163.791 147.291 163.358 146.676C162.925 146.265 162.275 146.265 162.058 146.47C161.842 146.47 161.625 146.676 161.192 146.881C160.758 147.291 160.325 147.496 160.108 147.496C159.242 148.112 158.808 148.522 158.375 148.932C157.725 149.548 157.075 150.163 157.075 150.368C156.642 150.984 156.209 151.394 155.775 152.625C155.342 153.24 155.125 153.856 155.125 154.471C155.125 154.881 155.342 155.086 155.342 155.086C155.559 155.497 156.209 155.497 156.209 155.497C156.642 155.497 156.859 155.292 157.075 155.292C157.508 155.086 157.508 154.676 157.942 154.061C158.158 153.445 158.158 153.445 158.375 153.035C158.375 152.83 158.592 152.625 159.025 152.009C159.242 151.804 159.675 151.189 160.542 150.368Z" fill="#A05062"/>
<path d="M182.857 248.839C188.002 248.839 192.173 244.89 192.173 240.018C192.173 235.146 188.002 231.197 182.857 231.197C177.712 231.197 173.541 235.146 173.541 240.018C173.541 244.89 177.712 248.839 182.857 248.839Z" fill="#761F36"/>
<path d="M185.023 241.863C184.59 242.274 183.94 242.274 183.507 241.863L180.474 239.197C180.04 238.786 180.04 238.171 180.474 237.761C180.907 237.35 181.557 237.35 181.99 237.761L185.023 240.427C185.457 240.838 185.457 241.658 185.023 241.863Z" fill="#49131F"/>
<path d="M184.807 237.761C185.24 238.172 185.24 238.787 184.807 239.197L181.99 242.069C181.557 242.48 180.907 242.48 180.474 242.069C180.04 241.659 180.04 241.044 180.474 240.633L183.29 237.761C183.724 237.556 184.374 237.351 184.807 237.761Z" fill="#49131F"/>
<path d="M178.957 235.709C179.39 235.299 180.04 234.889 180.907 234.273C181.124 234.068 181.34 234.068 181.34 233.658C181.34 233.658 181.557 233.043 181.124 232.837C180.69 232.427 180.257 232.632 180.04 232.632C179.824 232.632 179.607 232.837 179.39 233.043C178.957 233.248 178.741 233.453 178.524 233.658C177.874 234.068 177.441 234.479 177.224 234.684C176.574 235.299 176.141 235.709 176.141 235.915C175.707 236.325 175.491 236.735 175.057 237.556C174.841 237.966 174.624 238.376 174.624 238.992C174.624 239.197 174.624 239.402 174.841 239.607C175.057 239.812 175.491 239.812 175.491 239.812C175.707 239.812 176.141 239.607 176.141 239.607C176.357 239.402 176.574 239.197 176.791 238.787C177.007 238.376 177.007 238.376 177.224 237.966C177.224 237.761 177.441 237.556 177.657 237.145C177.874 236.735 178.307 236.325 178.957 235.709Z" fill="#A05062"/>
<path d="M290.751 292.738C297.931 292.738 303.751 287.228 303.751 280.43C303.751 273.632 297.931 268.121 290.751 268.121C283.572 268.121 277.752 273.632 277.752 280.43C277.752 287.228 283.572 292.738 290.751 292.738Z" fill="#761F36"/>
<path d="M294.001 283.303C293.351 283.918 292.484 283.918 291.835 283.303L287.718 279.61C287.068 278.995 287.068 278.174 287.718 277.559C288.368 276.943 289.235 276.943 289.885 277.559L294.001 281.251C294.434 281.867 294.434 282.687 294.001 283.303Z" fill="#49131F"/>
<path d="M293.784 277.559C294.434 278.174 294.434 278.995 293.784 279.61L289.885 283.508C289.235 284.123 288.368 284.123 287.718 283.508C287.068 282.892 287.068 282.072 287.718 281.456L291.618 277.559C292.051 276.943 293.134 276.943 293.784 277.559Z" fill="#49131F"/>
<path d="M285.551 274.688C286.201 274.278 287.285 273.457 288.151 272.842C288.368 272.636 288.801 272.431 288.801 272.021C288.801 272.021 289.018 271.2 288.585 270.79C288.151 270.38 287.285 270.38 287.068 270.38C286.851 270.38 286.418 270.585 285.985 270.79C285.335 271.2 285.118 271.406 284.902 271.611C284.035 272.226 283.602 272.636 282.952 273.047C282.085 273.867 281.652 274.483 281.435 274.688C281.002 275.303 280.568 275.919 279.918 277.15C279.485 277.765 279.268 278.38 279.268 279.201C279.268 279.611 279.485 279.816 279.485 280.022C279.918 280.432 280.352 280.432 280.568 280.432C281.002 280.432 281.435 280.227 281.435 280.227C281.868 280.022 281.868 279.611 282.302 278.996C282.518 278.38 282.518 278.38 282.735 277.765C282.735 277.56 282.952 277.355 283.385 276.739C284.035 276.124 284.685 275.303 285.551 274.688Z" fill="#A05062"/>
<path d="M147.759 327.614C155.417 327.614 161.625 321.736 161.625 314.485C161.625 307.234 155.417 301.356 147.759 301.356C140.101 301.356 133.893 307.234 133.893 314.485C133.893 321.736 140.101 327.614 147.759 327.614Z" fill="#761F36"/>
<path d="M151.226 317.562C150.576 318.177 149.709 318.177 149.059 317.562L144.726 313.664C144.076 313.049 144.076 312.228 144.726 311.613C145.376 310.998 146.242 310.998 146.892 311.613L151.226 315.511C151.659 315.921 151.659 316.947 151.226 317.562Z" fill="#49131F"/>
<path d="M150.792 311.407C151.442 312.022 151.442 312.843 150.792 313.458L146.676 317.561C146.026 318.177 145.159 318.177 144.509 317.561C143.859 316.946 143.859 316.125 144.509 315.51L148.626 311.407C149.276 310.791 150.142 310.791 150.792 311.407Z" fill="#49131F"/>
<path d="M142.126 308.33C142.776 307.714 143.859 307.099 144.943 306.278C145.159 306.073 145.592 305.868 145.809 305.458C145.809 305.458 146.026 304.637 145.592 304.227C145.159 303.611 144.293 303.817 144.076 303.817C143.859 303.817 143.426 304.022 142.993 304.432C142.343 304.842 141.909 305.047 141.909 305.253C141.043 306.073 140.393 306.278 139.959 306.894C139.093 307.714 138.443 308.33 138.443 308.535C138.01 309.15 137.576 309.766 136.926 310.997C136.493 311.817 136.276 312.433 136.276 313.048C136.276 313.458 136.493 313.663 136.493 313.868C136.926 314.279 137.36 314.279 137.576 314.279C138.01 314.279 138.443 314.074 138.443 314.074C138.876 313.869 139.093 313.458 139.309 312.843C139.526 312.227 139.526 312.022 139.743 311.612C139.743 311.407 139.959 310.997 140.609 310.586C140.609 309.766 141.259 309.15 142.126 308.33Z" fill="#A05062"/>
<path d="M73.6626 255.198C78.8077 255.198 82.9787 251.249 82.9787 246.377C82.9787 241.505 78.8077 237.556 73.6626 237.556C68.5174 237.556 64.3464 241.505 64.3464 246.377C64.3464 251.249 68.5174 255.198 73.6626 255.198Z" fill="#761F36"/>
<path d="M75.8291 248.428C75.3958 248.838 74.7458 248.838 74.3125 248.428L71.2793 245.761C70.846 245.351 70.846 244.736 71.2793 244.325C71.7126 243.915 72.3626 243.915 72.7959 244.325L75.8291 246.992C76.2624 247.197 76.2624 248.018 75.8291 248.428Z" fill="#49131F"/>
<path d="M75.6124 244.12C76.0457 244.531 76.0457 245.146 75.6124 245.556L72.7959 248.428C72.3626 248.839 71.7126 248.839 71.2793 248.428C70.846 248.018 70.846 247.403 71.2793 246.992L74.0958 244.12C74.5292 243.915 75.1791 243.71 75.6124 244.12Z" fill="#49131F"/>
<path d="M69.7628 242.069C70.1961 241.658 70.846 241.248 71.7127 240.633C71.9293 240.427 72.146 240.427 72.146 240.017C72.146 240.017 72.3626 239.402 71.9293 239.197C71.496 238.786 71.0627 238.991 70.846 238.991C70.6294 238.991 70.4127 239.197 70.1961 239.402C69.7628 239.607 69.5461 239.812 69.3294 240.017C68.6795 240.427 68.2462 240.838 68.0295 241.043C67.3796 241.658 66.9462 242.069 66.9462 242.274C66.5129 242.684 66.2963 243.094 65.863 243.915C65.6463 244.325 65.4297 244.735 65.4297 245.351C65.4297 245.556 65.4297 245.761 65.6463 245.966C65.863 246.171 66.2963 246.171 66.2963 246.171C66.5129 246.171 66.9462 245.966 66.9462 245.966C67.1629 245.761 67.3796 245.556 67.5962 245.146C67.8129 244.735 67.8129 244.735 68.0295 244.325C68.0295 244.12 68.2462 243.915 68.4628 243.505C68.6795 243.094 69.1128 242.684 69.7628 242.069Z" fill="#A05062"/>
<path d="M361.814 148.32C366.959 148.32 371.13 144.37 371.13 139.498C371.13 134.627 366.959 130.677 361.814 130.677C356.669 130.677 352.498 134.627 352.498 139.498C352.498 144.37 356.669 148.32 361.814 148.32Z" fill="#761F36"/>
<path d="M364.197 141.55C363.764 141.96 363.114 141.96 362.681 141.55L359.648 138.883C359.214 138.473 359.214 137.857 359.648 137.447C360.081 137.037 360.731 137.037 361.164 137.447L364.197 140.114C364.414 140.524 364.631 141.139 364.197 141.55Z" fill="#49131F"/>
<path d="M363.981 137.447C364.414 137.857 364.414 138.473 363.981 138.883L361.164 141.755C360.731 142.165 360.081 142.165 359.648 141.755C359.214 141.345 359.214 140.729 359.648 140.319L362.464 137.447C362.898 137.037 363.548 137.037 363.981 137.447Z" fill="#49131F"/>
<path d="M358.131 135.394C358.564 134.984 359.214 134.574 360.081 133.958C360.298 133.753 360.514 133.753 360.514 133.343C360.514 133.343 360.731 132.727 360.298 132.522C359.864 132.112 359.431 132.317 359.214 132.317C358.998 132.317 358.781 132.522 358.564 132.727C358.131 132.933 357.914 133.138 357.698 133.343C357.048 133.753 356.615 134.163 356.398 134.369C355.748 134.984 355.315 135.394 355.315 135.599C354.881 136.01 354.665 136.42 354.231 137.241C354.015 137.651 353.798 138.061 353.798 138.677C353.798 138.882 353.798 139.087 354.015 139.292C354.231 139.497 354.665 139.497 354.665 139.497C354.881 139.497 355.315 139.292 355.315 139.292C355.531 139.087 355.748 138.882 355.965 138.471C356.181 138.061 356.181 138.061 356.398 137.651C356.398 137.446 356.615 137.241 356.831 136.83C357.048 136.42 357.481 135.805 358.131 135.394Z" fill="#A05062"/>
<path d="M469.492 192.835C476.432 192.835 482.058 187.508 482.058 180.937C482.058 174.365 476.432 169.038 469.492 169.038C462.552 169.038 456.926 174.365 456.926 180.937C456.926 187.508 462.552 192.835 469.492 192.835Z" fill="#761F36"/>
<path d="M472.525 183.603C472.092 184.219 471.009 184.219 470.575 183.603L466.459 180.116C465.809 179.706 465.809 178.68 466.459 178.27C466.892 177.654 467.975 177.654 468.409 178.27L472.525 181.757C472.958 182.167 473.175 182.988 472.525 183.603Z" fill="#49131F"/>
<path d="M472.309 178.065C472.958 178.475 472.958 179.501 472.309 179.911L468.625 183.809C468.192 184.424 467.109 184.424 466.675 183.809C466.025 183.398 466.025 182.373 466.675 181.962L470.359 178.065C470.792 177.654 471.659 177.449 472.309 178.065Z" fill="#49131F"/>
<path d="M464.509 175.397C465.159 174.987 466.026 174.166 467.109 173.551C467.326 173.346 467.759 173.141 467.759 172.73C467.759 172.73 467.976 171.91 467.542 171.499C467.109 171.089 466.242 171.089 466.242 171.089C466.026 171.089 465.809 171.294 465.159 171.499C464.726 171.91 464.292 172.115 464.076 172.115C463.209 172.73 462.776 173.141 462.342 173.551C461.476 174.371 461.043 174.987 460.826 175.192C460.393 175.807 459.959 176.423 459.309 177.449C458.876 178.064 458.659 178.679 458.659 179.295C458.659 179.705 458.876 179.91 458.876 180.115C459.309 180.526 459.743 180.526 459.959 180.526C460.393 180.526 460.609 180.321 460.826 180.321C461.259 180.115 461.259 179.705 461.692 179.09C461.909 178.474 461.909 178.474 462.126 178.064C462.126 177.859 462.342 177.654 462.776 177.038C462.992 176.628 463.642 176.013 464.509 175.397Z" fill="#A05062"/>
<path d="M518.673 123.291C523.818 123.291 527.989 119.342 527.989 114.47C527.989 109.598 523.818 105.649 518.673 105.649C513.527 105.649 509.356 109.598 509.356 114.47C509.356 119.342 513.527 123.291 518.673 123.291Z" fill="#761F36"/>
<path d="M521.056 116.522C520.623 116.932 519.973 116.932 519.539 116.522L516.506 113.855C516.073 113.445 516.073 112.83 516.506 112.419C516.939 112.009 517.589 112.009 518.023 112.419L521.056 115.086C521.489 115.496 521.489 116.112 521.056 116.522Z" fill="#49131F"/>
<path d="M520.839 112.214C521.273 112.624 521.273 113.24 520.839 113.65L518.023 116.522C517.589 116.932 516.939 116.932 516.506 116.522C516.073 116.112 516.073 115.496 516.506 115.086L519.323 112.214C519.756 112.009 520.406 112.009 520.839 112.214Z" fill="#49131F"/>
<path d="M514.99 110.367C515.423 109.956 516.073 109.546 516.939 108.931C517.156 108.726 517.373 108.726 517.373 108.315C517.373 108.315 517.589 107.7 517.156 107.495C516.723 107.084 516.29 107.29 516.073 107.29C515.856 107.29 515.64 107.495 515.423 107.7C514.99 107.905 514.773 108.11 514.556 108.315C513.906 108.726 513.473 109.136 513.256 109.341C512.606 109.956 512.173 110.367 512.173 110.572C511.74 110.982 511.523 111.392 511.09 112.213C510.873 112.623 510.656 113.034 510.656 113.649C510.656 113.854 510.656 114.059 510.873 114.264C511.09 114.47 511.523 114.47 511.523 114.47C511.74 114.47 512.173 114.264 512.173 114.264C512.39 114.059 512.606 113.854 512.823 113.444C513.04 113.034 513.04 113.034 513.256 112.623C513.256 112.418 513.473 112.213 513.69 111.803C513.906 111.187 514.34 110.777 514.99 110.367Z" fill="#A05062"/>
<path d="M482.058 276.943C487.203 276.943 491.374 272.993 491.374 268.121C491.374 263.25 487.203 259.3 482.058 259.3C476.913 259.3 472.742 263.25 472.742 268.121C472.742 272.993 476.913 276.943 482.058 276.943Z" fill="#761F36"/>
<path d="M484.225 270.173C483.791 270.584 483.141 270.584 482.708 270.173L479.675 267.506C479.242 267.096 479.242 266.481 479.675 266.07C480.108 265.66 480.758 265.66 481.191 266.07L484.225 268.737C484.658 269.148 484.658 269.763 484.225 270.173Z" fill="#49131F"/>
<path d="M484.008 266.07C484.441 266.481 484.441 267.096 484.008 267.506L481.191 270.378C480.758 270.789 480.108 270.789 479.675 270.378C479.242 269.968 479.242 269.353 479.675 268.942L482.491 266.07C482.925 265.66 483.575 265.66 484.008 266.07Z" fill="#49131F"/>
<path d="M478.158 264.02C478.592 263.609 479.242 263.199 480.108 262.584C480.325 262.379 480.541 262.379 480.541 261.968C480.541 261.968 480.758 261.353 480.325 261.148C479.892 260.737 479.458 260.943 479.242 260.943C479.025 260.943 478.808 261.148 478.592 261.353C478.158 261.558 477.942 261.763 477.725 261.968C477.075 262.379 476.642 262.789 476.425 262.994C475.775 263.609 475.342 264.02 475.342 264.225C474.908 264.635 474.692 265.045 474.259 265.866C474.042 266.276 473.825 266.687 473.825 267.302C473.825 267.507 473.825 267.712 474.042 267.917C474.259 268.123 474.692 268.123 474.692 268.123C474.908 268.123 475.342 267.917 475.342 267.917C475.558 267.712 475.775 267.507 475.992 267.097C476.208 266.687 476.208 266.687 476.425 266.276C476.425 266.071 476.642 265.866 476.858 265.456C477.075 265.046 477.508 264.43 478.158 264.02Z" fill="#A05062"/>
<path d="M452.809 69.9551C460.946 69.9551 467.542 63.7096 467.542 56.0054C467.542 48.3012 460.946 42.0557 452.809 42.0557C444.673 42.0557 438.077 48.3012 438.077 56.0054C438.077 63.7096 444.673 69.9551 452.809 69.9551Z" fill="#761F36"/>
<path d="M456.276 59.082C455.626 59.6974 454.543 59.6974 453.893 59.082L449.126 54.9791C448.476 54.3637 448.476 53.338 449.126 52.7226C449.776 52.1071 450.859 52.1071 451.509 52.7226L456.276 56.8254C456.926 57.4408 456.926 58.4666 456.276 59.082Z" fill="#49131F"/>
<path d="M456.059 52.7223C456.709 53.3377 456.709 54.3635 456.059 54.9789L451.726 59.492C451.076 60.1075 449.993 60.1075 449.343 59.492C448.693 58.8766 448.693 57.8509 449.343 57.2355L453.676 52.7223C454.326 52.1069 455.409 52.1069 456.059 52.7223Z" fill="#49131F"/>
<path d="M446.743 49.4396C447.393 48.8242 448.693 48.0036 449.776 47.3882C449.993 47.1831 450.426 46.9779 450.643 46.3625C450.643 46.3625 450.859 45.5419 450.426 44.9265C449.993 44.3111 448.91 44.5162 448.693 44.5162C448.26 44.5162 448.043 44.7214 447.61 45.1317C446.96 45.5419 446.526 45.9522 446.31 45.9522C445.226 46.7728 444.793 47.1831 444.143 47.5934C443.276 48.4139 442.627 49.2345 442.41 49.4396C441.76 50.0551 441.543 50.8757 440.677 52.1065C440.243 52.9271 439.81 53.5425 440.027 54.3631C440.027 54.7734 440.243 54.9785 440.243 55.1837C440.677 55.5939 441.327 55.5939 441.327 55.5939C441.76 55.5939 442.193 55.3888 442.41 55.1837C442.843 54.9785 443.06 54.5682 443.276 53.7477C443.71 53.1322 443.493 52.9271 443.926 52.5168C443.926 52.3117 444.143 51.9014 444.793 51.2859C445.226 51.0808 445.876 50.2602 446.743 49.4396Z" fill="#A05062"/>
<path d="M124.143 221.349C131.323 221.349 137.143 215.839 137.143 209.041C137.143 202.243 131.323 196.732 124.143 196.732C116.964 196.732 111.144 202.243 111.144 209.041C111.144 215.839 116.964 221.349 124.143 221.349Z" fill="#B32646"/>
<path d="M127.176 211.707C126.527 212.323 125.66 212.323 125.01 211.707L120.893 208.015C120.244 207.399 120.244 206.579 120.893 205.963C121.543 205.348 122.41 205.348 123.06 205.963L127.176 209.656C127.826 210.271 127.826 211.297 127.176 211.707Z" fill="#6C1626"/>
<path d="M126.96 205.964C127.61 206.58 127.61 207.4 126.96 208.016L123.277 211.914C122.627 212.529 121.76 212.529 121.11 211.914C120.46 211.298 120.46 210.478 121.11 209.862L125.01 205.964C125.443 205.554 126.31 205.554 126.96 205.964Z" fill="#6C1626"/>
<path d="M118.944 203.296C119.594 202.886 120.677 202.065 121.544 201.45C121.76 201.245 122.193 201.04 122.193 200.629C122.193 200.629 122.41 199.809 121.977 199.399C121.544 198.988 120.677 198.988 120.46 198.988C120.244 198.988 119.81 199.193 119.377 199.399C118.727 199.809 118.51 200.014 118.294 200.219C117.427 200.835 116.994 201.245 116.344 201.655C115.477 202.476 115.044 203.091 114.827 203.296C114.394 203.912 113.961 204.527 113.311 205.758C112.877 206.373 112.661 206.989 112.661 207.809C112.661 208.22 112.877 208.425 112.877 208.63C113.311 209.04 113.744 209.04 113.961 209.04C114.394 209.04 114.827 208.835 114.827 208.835C115.261 208.63 115.261 208.22 115.694 207.604C115.91 206.989 115.91 206.989 116.127 206.373C116.127 206.168 116.344 205.963 116.777 205.348C117.427 204.527 118.077 203.912 118.944 203.296Z" fill="#C8637A"/>
<path d="M221.639 296.227C226.784 296.227 230.955 292.278 230.955 287.406C230.955 282.534 226.784 278.585 221.639 278.585C216.493 278.585 212.322 282.534 212.322 287.406C212.322 292.278 216.493 296.227 221.639 296.227Z" fill="#B32646"/>
<path d="M223.805 289.457C223.372 289.867 222.722 289.867 222.289 289.457L219.255 286.79C218.822 286.38 218.822 285.764 219.255 285.354C219.689 284.944 220.339 284.944 220.772 285.354L223.805 288.021C224.238 288.431 224.238 289.047 223.805 289.457Z" fill="#6C1626"/>
<path d="M223.805 285.354C224.238 285.765 224.238 286.38 223.805 286.79L220.989 289.662C220.555 290.073 219.905 290.073 219.472 289.662C219.039 289.252 219.039 288.637 219.472 288.226L222.288 285.354C222.505 284.944 223.372 284.944 223.805 285.354Z" fill="#6C1626"/>
<path d="M217.739 283.302C218.172 282.891 218.822 282.481 219.689 281.866C219.905 281.661 220.122 281.661 220.122 281.25C220.122 281.25 220.339 280.635 219.905 280.43C219.472 280.019 219.039 280.225 218.822 280.225C218.605 280.225 218.389 280.43 218.172 280.635C217.739 280.84 217.522 281.045 217.305 281.25C216.655 281.661 216.222 282.071 216.005 282.276C215.356 282.891 214.922 283.302 214.922 283.507C214.489 283.917 214.272 284.327 213.839 285.148C213.622 285.558 213.406 285.969 213.406 286.584C213.406 286.789 213.406 286.994 213.622 287.199C213.839 287.405 214.272 287.405 214.272 287.405C214.489 287.405 214.922 287.199 214.922 287.199C215.139 286.994 215.355 286.789 215.572 286.379C215.789 285.969 215.789 285.969 216.005 285.558C216.005 285.353 216.222 285.148 216.439 284.738C216.872 284.327 216.872 283.917 217.739 283.302Z" fill="#C8637A"/>
<path d="M102.911 345.256C108.057 345.256 112.228 341.306 112.228 336.434C112.228 331.563 108.057 327.613 102.911 327.613C97.7663 327.613 93.5953 331.563 93.5953 336.434C93.5953 341.306 97.7663 345.256 102.911 345.256Z" fill="#B32646"/>
<path d="M105.295 338.486C104.861 338.896 104.211 338.896 103.778 338.486L100.745 335.819C100.312 335.409 100.312 334.793 100.745 334.383C101.178 333.973 101.828 333.973 102.262 334.383L105.295 337.05C105.511 337.46 105.728 338.075 105.295 338.486Z" fill="#6C1626"/>
<path d="M105.078 334.383C105.511 334.793 105.511 335.409 105.078 335.819L102.262 338.691C101.828 339.101 101.178 339.101 100.745 338.691C100.312 338.281 100.312 337.665 100.745 337.255L103.561 334.383C103.995 333.973 104.645 333.973 105.078 334.383Z" fill="#6C1626"/>
<path d="M99.2284 332.332C99.6617 331.922 100.312 331.512 101.178 330.896C101.395 330.691 101.612 330.691 101.612 330.281C101.612 330.281 101.828 329.665 101.395 329.46C100.962 329.05 100.528 329.255 100.312 329.255C100.095 329.255 99.8784 329.46 99.6617 329.665C99.2284 329.871 99.0117 330.076 98.7951 330.281C98.1451 330.691 97.7118 331.101 97.4952 331.307C96.8452 331.922 96.4119 332.332 96.4119 332.537C95.9786 332.948 95.7619 333.358 95.3286 334.179C95.1119 334.589 94.8953 334.999 94.8953 335.615C94.8953 335.82 94.8953 336.025 95.1119 336.23C95.3286 336.435 95.7619 336.435 95.7619 336.435C95.9786 336.435 96.4119 336.23 96.4119 336.23C96.6285 336.025 96.8452 335.82 97.0618 335.409C97.2785 334.999 97.2785 334.999 97.4952 334.589C97.4952 334.384 97.7118 334.179 97.9285 333.768C98.1451 333.358 98.5784 332.743 99.2284 332.332Z" fill="#C8637A"/>
<path d="M406.229 213.76C411.374 213.76 415.545 209.811 415.545 204.939C415.545 200.067 411.374 196.118 406.229 196.118C401.084 196.118 396.913 200.067 396.913 204.939C396.913 209.811 401.084 213.76 406.229 213.76Z" fill="#B32646"/>
<path d="M408.395 206.99C407.962 207.401 407.312 207.401 406.879 206.99L403.845 204.324C403.412 203.913 403.412 203.298 403.845 202.888C404.279 202.477 404.929 202.477 405.362 202.888L408.395 205.554C408.829 205.965 408.829 206.58 408.395 206.99Z" fill="#6C1626"/>
<path d="M408.179 202.888C408.612 203.298 408.612 203.913 408.179 204.324L405.362 207.196C404.929 207.606 404.279 207.606 403.845 207.196C403.412 206.785 403.412 206.17 403.845 205.76L406.662 202.888C407.095 202.477 407.745 202.477 408.179 202.888Z" fill="#6C1626"/>
<path d="M402.329 200.835C402.762 200.425 403.412 200.014 404.279 199.399C404.495 199.194 404.712 199.194 404.712 198.784C404.712 198.784 404.929 198.168 404.495 197.963C404.062 197.553 403.629 197.758 403.412 197.758C403.195 197.758 402.979 197.963 402.762 198.168C402.329 198.373 402.112 198.578 401.896 198.784C401.246 199.194 400.812 199.604 400.596 199.809C399.946 200.425 399.512 200.835 399.512 201.04C399.079 201.45 398.862 201.861 398.429 202.681C398.212 203.092 397.996 203.502 397.996 204.117C397.996 204.322 397.996 204.528 398.212 204.733C398.429 204.938 398.862 204.938 398.862 204.938C399.079 204.938 399.512 204.733 399.512 204.733C399.729 204.528 399.946 204.322 400.162 203.912C400.379 203.502 400.379 203.502 400.596 203.092C400.596 202.886 400.812 202.681 401.029 202.271C401.246 201.861 401.679 201.245 402.329 200.835Z" fill="#C8637A"/>
<path d="M323.683 105.443C331.46 105.443 337.765 99.4733 337.765 92.1089C337.765 84.7446 331.46 78.7747 323.683 78.7747C315.905 78.7747 309.6 84.7446 309.6 92.1089C309.6 99.4733 315.905 105.443 323.683 105.443Z" fill="#B32646"/>
<path d="M327.149 95.1867C326.499 95.8021 325.416 95.8021 324.766 95.1867L320.216 91.289C319.566 90.6735 319.566 89.6478 320.216 89.0324C320.866 88.4169 321.95 88.4169 322.6 89.0324L327.149 92.9301C327.583 93.7507 327.799 94.5712 327.149 95.1867Z" fill="#6C1626"/>
<path d="M326.716 89.0324C327.366 89.6478 327.366 90.6735 326.716 91.289L322.6 95.597C321.95 96.2124 320.866 96.2124 320.216 95.597C319.566 94.9815 319.566 93.9558 320.216 93.3404L324.333 89.0324C325.199 88.4169 326.066 88.4169 326.716 89.0324Z" fill="#6C1626"/>
<path d="M317.833 85.9562C318.483 85.3408 319.566 84.7253 320.65 83.9048C320.866 83.6996 321.3 83.4945 321.516 83.0842C321.516 83.0842 321.733 82.2636 321.3 81.6482C320.866 81.0328 320 81.2379 319.783 81.2379C319.35 81.2379 319.133 81.443 318.7 81.8533C318.05 82.2636 317.617 82.4688 317.617 82.6739C316.533 83.4945 316.1 83.9048 315.667 84.315C314.8 85.1356 314.15 85.9562 313.933 86.1613C313.5 86.7768 313.067 87.3922 312.2 88.8282C311.767 89.6488 311.333 90.2642 311.55 90.8796C311.55 91.2899 311.767 91.495 311.767 91.7002C312.2 92.1105 312.85 92.1105 312.85 92.1105C313.283 92.1105 313.717 91.9053 313.717 91.9053C314.15 91.7002 314.367 91.2899 314.583 90.4693C314.8 89.8539 314.8 89.6488 315.233 89.2385C315.233 89.0333 315.45 88.623 316.1 88.0076C316.317 87.3922 316.967 86.7768 317.833 85.9562Z" fill="#C8637A"/>
<path d="M264.969 342.589C272.149 342.589 277.969 337.078 277.969 330.28C277.969 323.482 272.149 317.972 264.969 317.972C257.79 317.972 251.97 323.482 251.97 330.28C251.97 337.078 257.79 342.589 264.969 342.589Z" fill="#B32646"/>
<path d="M268.002 332.947C267.352 333.562 266.486 333.562 265.836 332.947L261.719 329.254C261.069 328.639 261.069 327.818 261.719 327.203C262.369 326.588 263.236 326.588 263.886 327.203L268.002 330.896C268.652 331.511 268.652 332.537 268.002 332.947Z" fill="#6C1626"/>
<path d="M267.786 327.204C268.436 327.819 268.436 328.64 267.786 329.255L264.103 333.153C263.453 333.768 262.586 333.768 261.936 333.153C261.286 332.537 261.286 331.717 261.936 331.101L265.836 327.204C266.269 326.793 267.136 326.793 267.786 327.204Z" fill="#6C1626"/>
<path d="M259.769 324.536C260.419 324.126 261.503 323.305 262.369 322.69C262.586 322.485 263.019 322.279 263.019 321.869C263.019 321.869 263.236 321.049 262.803 320.638C262.369 320.228 261.503 320.228 261.286 320.228C261.069 320.228 260.636 320.433 260.203 320.638C259.553 321.049 259.336 321.254 259.12 321.459C258.253 322.074 257.82 322.485 257.17 322.895C256.303 323.715 255.87 324.331 255.653 324.536C255.22 325.151 254.786 325.767 254.136 326.998C253.703 327.613 253.486 328.229 253.486 329.049C253.486 329.459 253.703 329.665 253.703 329.87C254.136 330.28 254.57 330.28 254.786 330.28C255.22 330.28 255.653 330.075 255.653 330.075C256.086 329.87 256.086 329.459 256.52 328.844C256.736 328.229 256.736 328.229 256.953 327.613C256.953 327.408 257.17 327.203 257.603 326.587C258.253 325.767 258.903 325.151 259.769 324.536Z" fill="#C8637A"/>
<path d="M45.4974 308.534C52.6768 308.534 58.4967 303.024 58.4967 296.226C58.4967 289.428 52.6768 283.917 45.4974 283.917C38.3181 283.917 32.4981 289.428 32.4981 296.226C32.4981 303.024 38.3181 308.534 45.4974 308.534Z" fill="#B32646"/>
<path d="M48.5306 298.893C47.8806 299.508 47.014 299.508 46.364 298.893L42.2476 295.2C41.5976 294.585 41.5976 293.764 42.2476 293.149C42.8975 292.533 43.7642 292.533 44.4141 293.149L48.5306 296.841C49.1805 297.457 49.1805 298.483 48.5306 298.893Z" fill="#6C1626"/>
<path d="M48.3139 293.15C48.9638 293.765 48.9638 294.586 48.3139 295.201L44.6307 299.099C43.9808 299.714 43.1142 299.714 42.4642 299.099C41.8142 298.483 41.8142 297.663 42.4642 297.047L46.364 293.15C46.7973 292.739 47.6639 292.739 48.3139 293.15Z" fill="#6C1626"/>
<path d="M40.2977 290.483C40.9477 290.073 42.031 289.252 42.8976 288.637C43.1143 288.432 43.5476 288.227 43.5476 287.816C43.5476 287.816 43.7642 286.996 43.3309 286.586C42.8976 286.175 42.031 286.175 41.8143 286.175C41.5977 286.175 41.1644 286.38 40.7311 286.586C40.0811 286.996 39.8644 287.201 39.6478 287.406C38.7812 288.022 38.3478 288.432 37.6979 288.842C36.8313 289.663 36.3979 290.278 36.1813 290.483C35.748 291.099 35.3147 291.714 34.6647 292.945C34.2314 293.56 34.0147 294.176 34.0147 294.996C34.0147 295.407 34.2314 295.612 34.2314 295.817C34.6647 296.227 35.098 296.227 35.3147 296.227C35.748 296.227 36.1813 296.022 36.1813 296.022C36.6146 295.817 36.6146 295.407 37.0479 294.791C37.2646 294.176 37.2646 294.176 37.4812 293.56C37.4812 293.355 37.6979 293.15 38.1312 292.535C38.7812 291.714 39.4311 291.099 40.2977 290.483Z" fill="#C8637A"/>
<path d="M306.134 236.529C311.279 236.529 315.45 232.58 315.45 227.708C315.45 222.837 311.279 218.887 306.134 218.887C300.989 218.887 296.818 222.837 296.818 227.708C296.818 232.58 300.989 236.529 306.134 236.529Z" fill="#B32646"/>
<path d="M308.301 229.761C307.867 230.171 307.217 230.171 306.784 229.761L303.751 227.094C303.318 226.684 303.318 226.069 303.751 225.658C304.184 225.248 304.834 225.248 305.267 225.658L308.301 228.325C308.951 228.735 308.951 229.351 308.301 229.761Z" fill="#6C1626"/>
<path d="M308.301 225.658C308.734 226.068 308.734 226.684 308.301 227.094L305.484 229.966C305.051 230.376 304.401 230.376 303.968 229.966C303.534 229.556 303.534 228.94 303.968 228.53L306.784 225.658C307.217 225.248 307.867 225.248 308.301 225.658Z" fill="#6C1626"/>
<path d="M302.451 223.606C302.884 223.196 303.534 222.785 304.401 222.17C304.618 221.965 304.834 221.965 304.834 221.555C304.834 221.555 305.051 220.939 304.618 220.734C304.184 220.324 303.751 220.529 303.534 220.529C303.318 220.529 303.101 220.734 302.884 220.939C302.451 221.144 302.234 221.349 302.018 221.555C301.368 221.965 300.934 222.375 300.718 222.58C300.068 223.196 299.634 223.606 299.634 223.811C299.201 224.221 298.984 224.632 298.551 225.452C298.335 225.863 298.118 226.273 298.118 226.888C298.118 227.093 298.118 227.299 298.335 227.504C298.551 227.709 298.985 227.709 298.985 227.709C299.201 227.709 299.634 227.504 299.634 227.504C299.851 227.299 300.068 227.093 300.284 226.683C300.501 226.273 300.501 226.273 300.718 225.863C300.718 225.657 300.934 225.452 301.151 225.042C301.368 224.632 301.801 224.221 302.451 223.606Z" fill="#C8637A"/>
<path d="M543.588 240.018C548.733 240.018 552.904 236.068 552.904 231.196C552.904 226.325 548.733 222.375 543.588 222.375C538.443 222.375 534.272 226.325 534.272 231.196C534.272 236.068 538.443 240.018 543.588 240.018Z" fill="#B32646"/>
<path d="M545.755 233.247C545.321 233.658 544.671 233.658 544.238 233.247L541.205 230.581C540.772 230.17 540.772 229.555 541.205 229.145C541.638 228.734 542.288 228.734 542.722 229.145L545.755 231.811C546.188 232.222 546.188 232.837 545.755 233.247Z" fill="#6C1626"/>
<path d="M545.755 229.144C546.188 229.555 546.188 230.17 545.755 230.58L542.938 233.452C542.505 233.863 541.855 233.863 541.422 233.452C540.988 233.042 540.988 232.427 541.422 232.016L544.238 229.144C544.455 228.734 545.321 228.734 545.755 229.144Z" fill="#6C1626"/>
<path d="M539.688 227.094C540.122 226.684 540.772 226.274 541.638 225.658C541.855 225.453 542.072 225.453 542.072 225.043C542.072 225.043 542.288 224.427 541.855 224.222C541.422 223.812 540.988 224.017 540.772 224.017C540.555 224.017 540.338 224.222 540.122 224.427C539.688 224.633 539.472 224.838 539.255 225.043C538.605 225.453 538.172 225.863 537.955 226.069C537.305 226.684 536.872 227.094 536.872 227.299C536.439 227.71 536.222 228.12 535.789 228.941C535.572 229.351 535.355 229.761 535.355 230.377C535.355 230.582 535.355 230.787 535.572 230.992C535.789 231.197 536.222 231.197 536.222 231.197C536.439 231.197 536.872 230.992 536.872 230.992C537.089 230.787 537.305 230.582 537.522 230.171C537.739 229.761 537.738 229.761 537.955 229.351C537.955 229.146 538.172 228.941 538.388 228.53C538.822 228.12 539.038 227.71 539.688 227.094Z" fill="#C8637A"/>
<path d="M306.134 150.78C311.279 150.78 315.45 146.831 315.45 141.959C315.45 137.087 311.279 133.138 306.134 133.138C300.989 133.138 296.818 137.087 296.818 141.959C296.818 146.831 300.989 150.78 306.134 150.78Z" fill="#B32646"/>
<path d="M308.301 144.01C307.867 144.42 307.217 144.42 306.784 144.01L303.751 141.343C303.318 140.933 303.318 140.318 303.751 139.907C304.184 139.497 304.834 139.497 305.267 139.907L308.301 142.574C308.734 142.984 308.734 143.6 308.301 144.01Z" fill="#6C1626"/>
<path d="M308.301 139.908C308.734 140.318 308.734 140.933 308.301 141.344L305.484 144.216C305.051 144.626 304.401 144.626 303.968 144.216C303.534 143.805 303.534 143.19 303.968 142.78L306.784 139.908C307.001 139.497 307.867 139.497 308.301 139.908Z" fill="#6C1626"/>
<path d="M302.234 137.857C302.668 137.447 303.318 137.037 304.184 136.421C304.401 136.216 304.617 136.216 304.617 135.806C304.617 135.806 304.834 135.19 304.401 134.985C303.968 134.575 303.534 134.78 303.318 134.78C303.101 134.78 302.884 134.985 302.668 135.19C302.234 135.395 302.018 135.601 301.801 135.806C301.151 136.216 300.718 136.626 300.501 136.831C299.851 137.447 299.418 137.857 299.418 138.062C298.984 138.473 298.768 138.883 298.334 139.703C298.118 140.114 297.901 140.524 297.901 141.139C297.901 141.345 297.901 141.55 298.118 141.755C298.334 141.96 298.768 141.96 298.768 141.96C298.984 141.96 299.418 141.755 299.418 141.755C299.634 141.55 299.851 141.345 300.068 140.934C300.284 140.524 300.284 140.524 300.501 140.114C300.501 139.909 300.718 139.703 300.934 139.293C301.368 138.883 301.584 138.473 302.234 137.857Z" fill="#C8637A"/>
<path d="M535.355 177.86C541.697 177.86 546.838 172.992 546.838 166.987C546.838 160.983 541.697 156.115 535.355 156.115C529.013 156.115 523.872 160.983 523.872 166.987C523.872 172.992 529.013 177.86 535.355 177.86Z" fill="#B32646"/>
<path d="M537.955 169.448C537.522 169.858 536.655 170.064 536.005 169.448L532.322 166.166C531.889 165.756 531.672 164.935 532.322 164.32C532.755 163.909 533.622 163.704 534.272 164.32L537.955 167.602C538.605 168.217 538.605 168.833 537.955 169.448Z" fill="#6C1626"/>
<path d="M537.738 164.321C538.172 164.731 538.388 165.552 537.738 166.167L534.272 169.655C533.839 170.065 532.972 170.27 532.322 169.655C531.889 169.244 531.672 168.424 532.322 167.808L535.789 164.321C536.438 163.911 537.305 163.911 537.738 164.321Z" fill="#6C1626"/>
<path d="M530.589 161.858C531.022 161.447 532.105 160.832 532.972 160.216C533.189 160.011 533.405 159.806 533.622 159.396C533.622 159.396 533.839 158.78 533.405 158.37C532.972 157.96 532.322 157.96 532.105 158.165C531.889 158.165 531.672 158.37 531.239 158.575C530.805 158.78 530.372 159.191 530.372 159.191C529.505 159.806 529.072 160.216 528.639 160.627C527.989 161.242 527.556 161.858 527.339 162.063C526.906 162.678 526.689 163.088 526.039 164.114C525.606 164.73 525.389 165.14 525.389 165.755C525.389 166.166 525.606 166.371 525.606 166.371C525.822 166.781 526.472 166.781 526.472 166.781C526.906 166.781 527.122 166.576 527.339 166.576C527.556 166.371 527.772 166.166 527.989 165.55C528.206 164.935 528.206 164.935 528.422 164.524C528.422 164.319 528.639 164.114 529.072 163.499C529.505 163.088 529.939 162.473 530.589 161.858Z" fill="#C8637A"/>
<path d="M424.428 158.781C430.53 158.781 435.477 154.097 435.477 148.318C435.477 142.54 430.53 137.856 424.428 137.856C418.325 137.856 413.378 142.54 413.378 148.318C413.378 154.097 418.325 158.781 424.428 158.781Z" fill="#761F36"/>
<path d="M427.027 150.576C426.594 151.192 425.727 151.192 425.294 150.576L421.611 147.499C420.961 147.089 420.961 146.268 421.611 145.858C422.044 145.242 422.911 145.242 423.344 145.858L427.027 148.935C427.244 149.345 427.461 150.166 427.027 150.576Z" fill="#49131F"/>
<path d="M426.811 145.857C427.461 146.267 427.461 147.088 426.811 147.498L423.561 150.985C423.127 151.601 422.261 151.601 421.828 150.985C421.178 150.575 421.178 149.754 421.828 149.344L425.077 145.857C425.511 145.446 426.161 145.241 426.811 145.857Z" fill="#49131F"/>
<path d="M419.878 143.395C420.528 142.985 421.178 142.369 422.044 141.754C422.261 141.549 422.694 141.344 422.694 141.139C422.694 141.139 422.911 140.523 422.478 140.113C422.044 139.703 421.394 139.703 421.394 139.703C421.178 139.703 420.961 139.908 420.528 140.113C420.094 140.523 419.878 140.728 419.661 140.728C419.011 141.344 418.578 141.549 418.144 141.959C417.494 142.575 417.061 143.19 416.845 143.395C416.411 144.011 416.195 144.421 415.545 145.447C415.111 146.062 414.895 146.472 414.895 147.088C414.895 147.498 415.111 147.703 415.111 147.703C415.545 148.113 415.761 148.113 415.978 148.113C416.411 148.113 416.628 147.908 416.628 147.908C417.061 147.703 417.061 147.293 417.278 146.883C417.494 146.267 417.494 146.267 417.711 146.062C417.711 145.857 417.928 145.652 418.361 145.241C418.578 144.626 419.228 144.011 419.878 143.395Z" fill="#A05062"/>
<path d="M129.777 279.201C134.922 279.201 139.093 275.251 139.093 270.38C139.093 265.508 134.922 261.558 129.777 261.558C124.631 261.558 120.46 265.508 120.46 270.38C120.46 275.251 124.631 279.201 129.777 279.201Z" fill="#761F36"/>
<path d="M131.943 272.225C131.51 272.635 130.86 272.635 130.427 272.225L127.394 269.558C126.96 269.148 126.96 268.532 127.394 268.122C127.827 267.712 128.477 267.712 128.91 268.122L131.943 270.789C132.377 271.199 132.377 272.02 131.943 272.225Z" fill="#49131F"/>
<path d="M131.727 268.123C132.16 268.534 132.16 269.149 131.727 269.559L128.91 272.431C128.477 272.842 127.827 272.842 127.394 272.431C126.96 272.021 126.96 271.406 127.394 270.995L130.21 268.123C130.643 267.918 131.293 267.713 131.727 268.123Z" fill="#49131F"/>
<path d="M125.877 266.072C126.31 265.662 126.96 265.251 127.827 264.636C128.043 264.431 128.26 264.431 128.26 264.02C128.26 264.02 128.477 263.405 128.043 263.2C127.61 262.79 127.177 262.995 126.96 262.995C126.743 262.995 126.527 263.2 126.31 263.405C125.877 263.61 125.66 263.815 125.444 264.02C124.794 264.431 124.36 264.841 124.144 265.046C123.494 265.662 123.06 266.072 123.06 266.277C122.627 266.687 122.41 267.098 121.977 267.918C121.76 268.328 121.544 268.739 121.544 269.354C121.544 269.559 121.544 269.764 121.76 269.97C121.977 270.175 122.41 270.175 122.41 270.175C122.627 270.175 123.06 269.97 123.06 269.97C123.277 269.764 123.494 269.559 123.71 269.149C123.927 268.739 123.927 268.739 124.144 268.328C124.144 268.123 124.36 267.918 124.577 267.508C124.794 267.098 125.227 266.687 125.877 266.072Z" fill="#A05062"/>
<path d="M248.504 218.477C254.965 218.477 260.203 213.518 260.203 207.399C260.203 201.281 254.965 196.322 248.504 196.322C242.042 196.322 236.804 201.281 236.804 207.399C236.804 213.518 242.042 218.477 248.504 218.477Z" fill="#761F36"/>
<path d="M251.537 209.861C250.887 210.477 250.237 210.477 249.587 209.861L245.904 206.579C245.254 205.964 245.254 205.348 245.904 204.733C246.554 204.117 247.204 204.117 247.854 204.733L251.537 208.015C251.97 208.631 251.97 209.246 251.537 209.861Z" fill="#49131F"/>
<path d="M251.32 204.733C251.97 205.348 251.97 205.964 251.32 206.579L247.854 210.067C247.204 210.682 246.554 210.682 245.904 210.067C245.254 209.451 245.254 208.836 245.904 208.22L249.37 204.733C249.804 204.117 250.67 204.117 251.32 204.733Z" fill="#49131F"/>
<path d="M243.954 202.066C244.604 201.655 245.471 201.04 246.337 200.425C246.554 200.219 246.987 200.014 246.987 199.604C246.987 199.604 247.204 198.783 246.771 198.578C246.337 198.168 245.687 198.168 245.471 198.168C245.254 198.168 244.821 198.373 244.387 198.578C243.737 198.989 243.521 199.194 243.304 199.399C242.438 200.014 242.221 200.425 241.571 200.63C240.704 201.45 240.488 201.861 240.271 202.066C239.838 202.681 239.404 203.091 238.971 204.322C238.538 204.938 238.321 205.348 238.321 206.169C238.321 206.579 238.538 206.784 238.538 206.989C238.971 207.399 239.404 207.399 239.621 207.399C240.054 207.399 240.488 207.194 240.488 207.194C240.921 206.989 240.921 206.579 241.354 206.169C241.571 205.553 241.571 205.553 241.788 205.143C241.788 204.938 242.004 204.733 242.438 204.117C242.438 203.297 243.087 202.681 243.954 202.066Z" fill="#A05062"/>
<path d="M458.659 116.112C463.804 116.112 467.975 112.162 467.975 107.29C467.975 102.419 463.804 98.4692 458.659 98.4692C453.514 98.4692 449.343 102.419 449.343 107.29C449.343 112.162 453.514 116.112 458.659 116.112Z" fill="#B32646"/>
<path d="M460.826 109.341C460.393 109.752 459.743 109.752 459.309 109.341L456.276 106.675C455.843 106.264 455.843 105.649 456.276 105.239C456.709 104.828 457.359 104.828 457.793 105.239L460.826 107.905C461.259 108.316 461.259 108.931 460.826 109.341Z" fill="#6C1626"/>
<path d="M460.609 105.239C461.042 105.649 461.042 106.264 460.609 106.675L457.793 109.547C457.359 109.957 456.709 109.957 456.276 109.547C455.843 109.136 455.843 108.521 456.276 108.111L459.093 105.239C459.526 104.828 460.176 104.828 460.609 105.239Z" fill="#6C1626"/>
<path d="M454.759 103.188C455.193 102.778 455.843 102.368 456.709 101.752C456.926 101.547 457.143 101.547 457.143 101.137C457.143 101.137 457.359 100.521 456.926 100.316C456.493 99.906 456.059 100.111 455.843 100.111C455.626 100.111 455.409 100.316 455.193 100.521C454.759 100.727 454.543 100.932 454.326 101.137C453.676 101.547 453.243 101.957 453.026 102.163C452.376 102.778 451.943 103.188 451.943 103.393C451.509 103.804 451.293 104.214 450.859 105.035C450.643 105.445 450.426 105.855 450.426 106.471C450.426 106.676 450.426 106.881 450.643 107.086C450.86 107.291 451.293 107.291 451.293 107.291C451.509 107.291 451.943 107.086 451.943 107.086C452.159 106.881 452.376 106.676 452.593 106.265C452.809 105.855 452.809 105.855 453.026 105.445C453.026 105.24 453.243 105.035 453.459 104.624C453.676 104.214 454.109 103.599 454.759 103.188Z" fill="#C8637A"/>
<path d="M396.913 108.93C402.058 108.93 406.229 104.981 406.229 100.109C406.229 95.2374 402.058 91.2881 396.913 91.2881C391.768 91.2881 387.597 95.2374 387.597 100.109C387.597 104.981 391.768 108.93 396.913 108.93Z" fill="#B32646"/>
<path d="M399.079 102.163C398.646 102.573 397.996 102.573 397.563 102.163L394.529 99.4959C394.096 99.0856 394.096 98.4702 394.529 98.0599C394.963 97.6496 395.613 97.6496 396.046 98.0599L399.079 100.727C399.513 101.137 399.513 101.752 399.079 102.163Z" fill="#6C1626"/>
<path d="M398.863 98.0599C399.296 98.4702 399.296 99.0856 398.863 99.4959L396.046 102.368C395.613 102.778 394.963 102.778 394.529 102.368C394.096 101.958 394.096 101.342 394.529 100.932L397.346 98.0599C397.779 97.6496 398.429 97.6496 398.863 98.0599Z" fill="#6C1626"/>
<path d="M393.013 96.0076C393.446 95.5973 394.096 95.187 394.963 94.5716C395.179 94.3664 395.396 94.3664 395.396 93.9562C395.396 93.9562 395.613 93.3407 395.179 93.1356C394.746 92.7253 394.313 92.9304 394.096 92.9304C393.879 92.9304 393.663 93.1356 393.446 93.3407C393.013 93.5459 392.796 93.751 392.58 93.9562C391.93 94.3664 391.496 94.7767 391.28 94.9819C390.63 95.5973 390.196 96.0076 390.196 96.2127C389.763 96.623 389.546 97.0333 389.113 97.8539C388.896 98.2642 388.68 98.6744 388.68 99.2899C388.68 99.495 388.68 99.7002 388.896 99.9053C389.113 100.11 389.546 100.11 389.546 100.11C389.763 100.11 390.196 99.9053 390.196 99.9053C390.413 99.7002 390.63 99.495 390.846 99.0847C391.063 98.6744 391.063 98.6744 391.28 98.2642C391.28 98.059 391.496 97.8539 391.713 97.4436C391.93 97.0333 392.363 96.4179 393.013 96.0076Z" fill="#C8637A"/>
<path d="M518.673 68.313C523.818 68.313 527.989 64.3636 527.989 59.4918C527.989 54.62 523.818 50.6707 518.673 50.6707C513.527 50.6707 509.356 54.62 509.356 59.4918C509.356 64.3636 513.527 68.313 518.673 68.313Z" fill="#761F36"/>
<path d="M521.056 61.5436C520.623 61.9539 519.973 61.9539 519.539 61.5436L516.506 58.8768C516.073 58.4665 516.073 57.8511 516.506 57.4408C516.939 57.0305 517.589 57.0305 518.023 57.4408L521.056 60.1076C521.489 60.5179 521.489 61.1333 521.056 61.5436Z" fill="#49131F"/>
<path d="M520.839 57.2352C521.273 57.6454 521.273 58.2609 520.839 58.6712L518.023 61.5432C517.589 61.9534 516.939 61.9534 516.506 61.5432C516.073 61.1329 516.073 60.5174 516.506 60.1072L519.323 57.2352C519.756 57.03 520.406 57.03 520.839 57.2352Z" fill="#49131F"/>
<path d="M514.99 55.3899C515.423 54.9796 516.073 54.5693 516.939 53.9539C517.156 53.7488 517.373 53.7488 517.373 53.3385C517.373 53.3385 517.589 52.723 517.156 52.5179C516.723 52.1076 516.29 52.3128 516.073 52.3128C515.856 52.3128 515.64 52.5179 515.423 52.723C514.99 52.9282 514.773 53.1333 514.556 53.3385C513.906 53.7488 513.473 54.159 513.256 54.3642C512.606 54.9796 512.173 55.3899 512.173 55.595C511.74 56.0053 511.523 56.4156 511.09 57.2362C510.873 57.6465 510.656 58.0568 510.656 58.6722C510.656 58.8773 510.656 59.0825 510.873 59.2876C511.09 59.4928 511.523 59.4928 511.523 59.4928C511.74 59.4928 512.173 59.2876 512.173 59.2876C512.39 59.0825 512.606 58.8773 512.823 58.467C513.04 58.0568 513.04 58.0568 513.256 57.6465C513.256 57.4413 513.473 57.2362 513.69 56.8259C513.906 56.2105 514.34 55.8002 514.99 55.3899Z" fill="#A05062"/>
<path d="M486.608 229.144C491.753 229.144 495.924 225.195 495.924 220.323C495.924 215.451 491.753 211.502 486.608 211.502C481.462 211.502 477.291 215.451 477.291 220.323C477.291 225.195 481.462 229.144 486.608 229.144Z" fill="#B32646"/>
<path d="M488.774 222.375C488.341 222.785 487.691 222.785 487.258 222.375L484.224 219.708C483.791 219.298 483.791 218.682 484.224 218.272C484.658 217.862 485.308 217.862 485.741 218.272L488.774 220.939C489.207 221.349 489.207 221.964 488.774 222.375Z" fill="#6C1626"/>
<path d="M488.774 218.272C489.207 218.682 489.207 219.298 488.774 219.708L485.958 222.58C485.524 222.99 484.874 222.99 484.441 222.58C484.008 222.17 484.008 221.554 484.441 221.144L487.258 218.272C487.474 217.862 488.341 217.862 488.774 218.272Z" fill="#6C1626"/>
<path d="M482.708 216.221C483.141 215.81 483.791 215.4 484.658 214.785C484.874 214.58 485.091 214.58 485.091 214.169C485.091 214.169 485.308 213.554 484.874 213.349C484.441 212.938 484.008 213.144 483.791 213.144C483.574 213.144 483.358 213.349 483.141 213.554C482.708 213.759 482.491 213.964 482.274 214.169C481.624 214.58 481.191 214.99 480.975 215.195C480.325 215.81 479.891 216.221 479.891 216.426C479.458 216.836 479.241 217.246 478.808 218.067C478.591 218.477 478.375 218.888 478.375 219.503C478.375 219.708 478.375 219.913 478.591 220.118C478.808 220.324 479.241 220.324 479.241 220.324C479.458 220.324 479.891 220.118 479.891 220.118C480.108 219.913 480.325 219.708 480.541 219.298C480.758 218.888 480.758 218.888 480.975 218.477C480.975 218.272 481.191 218.067 481.408 217.657C481.841 217.246 482.058 216.836 482.708 216.221Z" fill="#C8637A"/>
<path d="M542.072 289.456C547.217 289.456 551.388 285.507 551.388 280.635C551.388 275.763 547.217 271.814 542.072 271.814C536.926 271.814 532.755 275.763 532.755 280.635C532.755 285.507 536.926 289.456 542.072 289.456Z" fill="#761F36"/>
<path d="M544.238 282.688C543.805 283.099 543.155 283.099 542.721 282.688L539.688 280.022C539.255 279.611 539.255 278.996 539.688 278.586C540.122 278.175 540.771 278.175 541.205 278.586L544.238 281.252C544.671 281.663 544.671 282.278 544.238 282.688Z" fill="#49131F"/>
<path d="M544.021 278.586C544.455 278.996 544.455 279.611 544.021 280.022L541.205 282.894C540.771 283.304 540.122 283.304 539.688 282.894C539.255 282.483 539.255 281.868 539.688 281.458L542.505 278.586C542.938 278.175 543.588 278.175 544.021 278.586Z" fill="#49131F"/>
<path d="M538.172 276.533C538.605 276.123 539.255 275.713 540.122 275.097C540.338 274.892 540.555 274.892 540.555 274.482C540.555 274.482 540.772 273.866 540.338 273.661C539.905 273.251 539.472 273.456 539.255 273.456C539.038 273.456 538.822 273.661 538.605 273.866C538.172 274.071 537.955 274.277 537.738 274.482C537.088 274.892 536.655 275.302 536.438 275.507C535.788 276.123 535.355 276.533 535.355 276.738C534.922 277.149 534.705 277.559 534.272 278.379C534.055 278.79 533.839 279.2 533.839 279.815C533.839 280.021 533.839 280.226 534.055 280.431C534.272 280.636 534.705 280.636 534.705 280.636C534.922 280.636 535.355 280.431 535.355 280.431C535.572 280.226 535.788 280.021 536.005 279.61C536.222 279.2 536.222 279.2 536.438 278.79C536.438 278.585 536.655 278.379 536.872 277.969C537.088 277.559 537.522 276.943 538.172 276.533Z" fill="#A05062"/>
<path d="M196.289 201.656C201.435 201.656 205.606 197.707 205.606 192.835C205.606 187.964 201.435 184.014 196.289 184.014C191.144 184.014 186.973 187.964 186.973 192.835C186.973 197.707 191.144 201.656 196.289 201.656Z" fill="#B32646"/>
<path d="M198.456 194.887C198.023 195.297 197.373 195.297 196.94 194.887L193.906 192.22C193.473 191.81 193.473 191.194 193.906 190.784C194.34 190.374 194.99 190.374 195.423 190.784L198.456 193.451C198.889 193.861 198.889 194.476 198.456 194.887Z" fill="#6C1626"/>
<path d="M198.456 190.784C198.889 191.194 198.889 191.809 198.456 192.22L195.64 195.092C195.206 195.502 194.556 195.502 194.123 195.092C193.69 194.681 193.69 194.066 194.123 193.656L196.939 190.784C197.156 190.373 198.023 190.373 198.456 190.784Z" fill="#6C1626"/>
<path d="M192.39 188.731C192.823 188.321 193.473 187.911 194.34 187.295C194.556 187.09 194.773 187.09 194.773 186.68C194.773 186.68 194.99 186.064 194.556 185.859C194.123 185.449 193.69 185.654 193.473 185.654C193.256 185.654 193.04 185.859 192.823 186.064C192.39 186.269 192.173 186.475 191.956 186.68C191.306 187.09 190.873 187.5 190.656 187.705C190.006 188.321 189.573 188.731 189.573 188.936C189.14 189.347 188.923 189.757 188.49 190.577C188.273 190.988 188.057 191.398 188.057 192.013C188.057 192.219 188.057 192.424 188.273 192.629C188.49 192.834 188.923 192.834 188.923 192.834C189.14 192.834 189.573 192.629 189.573 192.629C189.79 192.424 190.006 192.219 190.223 191.808C190.44 191.398 190.44 191.398 190.656 190.988C190.656 190.783 190.873 190.577 191.09 190.167C191.523 189.757 191.74 189.347 192.39 188.731Z" fill="#C8637A"/>
<path d="M211.022 144.627C218.201 144.627 224.021 139.116 224.021 132.318C224.021 125.52 218.201 120.01 211.022 120.01C203.843 120.01 198.023 125.52 198.023 132.318C198.023 139.116 203.843 144.627 211.022 144.627Z" fill="#B32646"/>
<path d="M214.055 134.985C213.405 135.6 212.539 135.6 211.889 134.985L207.772 131.292C207.122 130.677 207.122 129.856 207.772 129.241C208.422 128.625 209.289 128.625 209.939 129.241L214.055 132.933C214.705 133.549 214.705 134.574 214.055 134.985Z" fill="#6C1626"/>
<path d="M213.839 129.239C214.488 129.855 214.488 130.675 213.839 131.291L210.155 135.188C209.505 135.804 208.639 135.804 207.989 135.188C207.339 134.573 207.339 133.752 207.989 133.137L211.889 129.239C212.322 128.829 213.189 128.829 213.839 129.239Z" fill="#6C1626"/>
<path d="M205.822 126.574C206.472 126.164 207.556 125.343 208.422 124.728C208.639 124.523 209.072 124.318 209.072 123.907C209.072 123.907 209.289 123.087 208.856 122.676C208.422 122.266 207.556 122.266 207.339 122.266C207.122 122.266 206.689 122.471 206.256 122.676C205.606 123.087 205.389 123.292 205.172 123.497C204.306 124.112 203.873 124.523 203.223 124.933C202.356 125.754 201.923 126.369 201.706 126.574C201.273 127.19 200.839 127.805 200.189 129.036C199.756 129.651 199.539 130.267 199.539 131.087C199.539 131.498 199.756 131.703 199.756 131.908C200.189 132.318 200.623 132.318 200.839 132.318C201.273 132.318 201.706 132.113 201.706 132.113C202.139 131.908 202.139 131.498 202.573 130.882C202.789 130.267 202.789 130.267 203.006 129.651C203.006 129.446 203.223 129.241 203.656 128.626C204.306 127.805 204.956 127.19 205.822 126.574Z" fill="#C8637A"/>
<path d="M333.216 318.998C338.361 318.998 342.532 315.049 342.532 310.177C342.532 305.305 338.361 301.356 333.216 301.356C328.071 301.356 323.9 305.305 323.9 310.177C323.9 315.049 328.071 318.998 333.216 318.998Z" fill="#B32646"/>
<path d="M335.599 312.228C335.166 312.638 334.516 312.638 334.083 312.228L331.049 309.561C330.616 309.151 330.616 308.535 331.049 308.125C331.483 307.715 332.133 307.715 332.566 308.125L335.599 310.792C335.816 311.202 336.033 311.818 335.599 312.228Z" fill="#6C1626"/>
<path d="M335.383 308.125C335.816 308.535 335.816 309.151 335.383 309.561L332.566 312.433C332.133 312.843 331.483 312.843 331.049 312.433C330.616 312.023 330.616 311.407 331.049 310.997L333.866 308.125C334.299 307.715 334.949 307.715 335.383 308.125Z" fill="#6C1626"/>
<path d="M329.533 306.073C329.966 305.662 330.616 305.252 331.483 304.637C331.699 304.432 331.916 304.432 331.916 304.021C331.916 304.021 332.133 303.406 331.699 303.201C331.266 302.79 330.833 302.996 330.616 302.996C330.4 302.996 330.183 303.201 329.966 303.406C329.533 303.611 329.316 303.816 329.1 304.021C328.45 304.432 328.016 304.842 327.8 305.047C327.15 305.662 326.716 306.073 326.716 306.278C326.283 306.688 326.066 307.098 325.633 307.919C325.416 308.329 325.2 308.74 325.2 309.355C325.2 309.56 325.2 309.765 325.416 309.97C325.633 310.176 326.066 310.176 326.066 310.176C326.283 310.176 326.716 309.97 326.716 309.97C326.933 309.765 327.15 309.56 327.366 309.15C327.583 308.74 327.583 308.74 327.8 308.329C327.8 308.124 328.016 307.919 328.233 307.509C328.45 307.098 328.883 306.483 329.533 306.073Z" fill="#C8637A"/>
<path d="M27.0816 251.301C32.2268 251.301 36.3978 247.352 36.3978 242.48C36.3978 237.608 32.2268 233.659 27.0816 233.659C21.9364 233.659 17.7654 237.608 17.7654 242.48C17.7654 247.352 21.9364 251.301 27.0816 251.301Z" fill="#B32646"/>
<path d="M29.4649 244.531C29.0316 244.941 28.3816 244.941 27.9483 244.531L24.9151 241.864C24.4818 241.454 24.4818 240.839 24.9151 240.428C25.3484 240.018 25.9984 240.018 26.4317 240.428L29.4649 243.095C29.6815 243.505 29.8982 244.121 29.4649 244.531Z" fill="#6C1626"/>
<path d="M29.2482 240.428C29.6815 240.839 29.6815 241.454 29.2482 241.864L26.4317 244.736C25.9984 245.147 25.3484 245.147 24.9151 244.736C24.4818 244.326 24.4818 243.711 24.9151 243.3L27.7316 240.428C28.1649 240.018 28.8149 240.018 29.2482 240.428Z" fill="#6C1626"/>
<path d="M23.3986 238.376C23.8319 237.966 24.4818 237.556 25.3485 236.94C25.5651 236.735 25.7818 236.735 25.7818 236.325C25.7818 236.325 25.9984 235.709 25.5651 235.504C25.1318 235.094 24.6985 235.299 24.4818 235.299C24.2652 235.299 24.0485 235.504 23.8319 235.709C23.3986 235.915 23.1819 236.12 22.9653 236.325C22.3153 236.735 21.882 237.145 21.6653 237.351C21.0154 237.966 20.582 238.376 20.582 238.581C20.1487 238.992 19.9321 239.402 19.4988 240.223C19.2821 240.633 19.0655 241.043 19.0655 241.659C19.0655 241.864 19.0655 242.069 19.2821 242.274C19.4988 242.479 19.9321 242.479 19.9321 242.479C20.1487 242.479 20.582 242.274 20.582 242.274C20.7987 242.069 21.0154 241.864 21.232 241.453C21.4487 241.043 21.4487 241.043 21.6653 240.633C21.6653 240.428 21.882 240.223 22.0986 239.812C22.3153 239.402 22.7486 238.787 23.3986 238.376Z" fill="#C8637A"/>
</svg>
