<svg width="107" height="137" viewBox="0 0 107 137" fill="none" xmlns="http://www.w3.org/2000/svg">
<path d="M65.3136 135.124C65.0295 133.365 64.5185 131.649 63.7934 130.021C63.1312 128.176 62.6062 126.284 62.2226 124.362C61.8788 122.693 61.6251 121.006 61.4625 119.31C61.0065 114.56 61.2598 103.142 61.2598 103.091C61.2092 95.1591 61.6652 89.4499 62.1213 88.6415C62.2902 88.377 62.4764 88.1238 62.6787 87.8836C62.9956 87.5243 63.3526 87.2023 63.7428 86.9237C65.0602 85.8627 67.6952 84.0943 68.5059 83.2859C69.4276 82.4123 70.138 81.3411 70.5835 80.1534C71.4956 77.8293 71.2422 75.2526 70.9888 75.2021C70.7355 75.1515 70.7355 77.4251 69.2153 79.3451C68.5059 80.2545 67.7458 80.7092 66.3777 81.4671C65.4429 82.0531 64.3852 82.4162 63.2867 82.5281C62.6787 82.5786 61.5639 82.6291 61.2092 81.8713C61.0572 81.5681 61.1078 81.1134 61.2092 80.3555C61.3204 79.6192 61.4898 78.8927 61.7159 78.183C61.7159 78.183 62.0199 77.122 62.4253 75.3536C62.7397 73.9097 62.8927 72.4355 62.8813 70.958C62.932 68.4318 62.7293 65.754 62.476 65.754C62.324 65.754 62.2733 66.8656 61.8172 69.9981C61.3612 73.3327 61.2092 74.1411 60.9051 75.101C60.6011 76.061 60.0944 77.4757 60.0437 77.5767C59.8549 78.1276 59.635 78.6674 59.385 79.1935C59.2147 79.5045 59.0625 79.825 58.9289 80.1534C58.4495 81.13 57.9079 82.0751 57.3074 82.9828C56.6487 83.9428 56.294 84.3469 55.7873 84.549C55.389 84.692 54.9605 84.7299 54.5432 84.6591C54.1259 84.5883 53.7341 84.4111 53.4057 84.1449C53.0001 83.7827 52.6576 83.3558 52.3923 82.8818C51.9641 82.1968 51.575 81.4883 51.2268 80.7597C50.755 79.6906 50.3489 78.5939 50.0107 77.4757C49.7942 76.7976 49.6248 76.1055 49.504 75.4042C49.4533 75 49.352 74.5452 49.1999 72.8274C48.9973 70.5538 49.0479 70.1496 48.8452 70.0486C48.4399 69.897 47.6291 71.1096 47.2237 72.4738C47.0211 73.1811 46.9197 73.9895 47.2744 76.9704C47.4109 78.6141 47.6308 80.2498 47.9331 81.8713C48.0345 82.2249 48.3385 83.8922 48.6426 86.0648C48.8436 86.866 48.8084 87.7081 48.5412 88.4899C48.4264 88.7632 48.2538 89.0085 48.0352 89.209C47.8165 89.4096 47.557 89.5607 47.2744 89.652C47.0717 89.7025 46.565 89.753 45.3489 89.0457C44.2526 88.3675 43.2908 87.494 42.5113 86.469C41.5992 85.4585 41.0418 84.7006 41.0418 84.7006C40.729 84.2602 40.3906 83.8384 40.0283 83.4375C39.623 83.0333 38.7615 82.1239 38.4575 82.3765C38.1028 82.6797 38.7109 84.2964 38.8629 84.8522C39.2269 85.8121 39.6675 86.7413 40.1804 87.631C40.5857 88.3889 40.6364 88.4394 41.4471 89.8036C41.9539 90.713 42.2579 91.2183 42.5113 91.673V91.7235C43.322 93.2897 43.8794 93.9466 44.6901 95.4623C44.8016 95.6592 44.9031 95.8615 44.9942 96.0686C45.3449 96.8828 45.6164 97.7288 45.8049 98.5948C45.8049 98.5948 45.9063 103.142 45.9569 106.679C46.109 117.036 45.8049 114.055 45.9569 118.906C46.0076 121.078 46.109 123.15 45.5009 125.676C45.2395 126.82 44.9181 127.95 44.5381 129.061C44.0821 130.375 43.7781 130.981 43.4234 132.345C42.8153 134.72 43.17 135.326 43.322 135.579C43.4115 135.701 43.5249 135.805 43.6555 135.883C43.7861 135.961 43.9312 136.012 44.0821 136.033C45.6116 136.44 47.2236 136.423 48.7439 135.983C52.6456 134.568 59.4863 134.518 62.7293 135.781C63.1854 135.983 64.7562 136.64 65.2629 135.932C65.3516 135.672 65.3691 135.393 65.3136 135.124Z" fill="#6A4527"/>
<path d="M0.9366 45.7122C0.926231 42.2716 2.07184 38.9276 4.18895 36.2187C6.30605 33.5098 9.27147 31.5936 12.6077 30.7787C12.5053 29.9558 12.4547 29.1274 12.4561 28.2982C12.4529 24.864 13.3657 21.4914 15.1001 18.5294C16.8345 15.5674 19.3275 13.1236 22.321 11.451C25.3145 9.77845 28.6998 8.93782 32.1264 9.01617C35.553 9.09451 38.8964 10.089 41.8107 11.8966C43.3579 8.16787 46.033 5.01896 49.4595 2.8929C52.886 0.766844 56.8916 -0.229357 60.9127 0.0444508C64.9338 0.318258 68.768 1.84829 71.876 4.4193C74.9839 6.99031 77.2092 10.4729 78.2386 14.3771C83.2648 14.4961 88.045 16.5805 91.5572 20.1847C95.0695 23.7889 97.0351 28.6269 97.0336 33.6641C97.035 35.0603 96.8826 36.4525 96.5789 37.8151C99.6528 38.8719 102.312 40.8799 104.173 43.5492C106.034 46.2185 107.001 49.4112 106.933 52.6666C106.866 55.922 105.768 59.0718 103.798 61.6614C101.828 64.251 99.0876 66.1466 95.9726 67.0747C96.0232 67.6822 96.0737 68.3403 96.0737 68.9983C96.0722 72.9004 94.6784 76.6735 92.1441 79.6363C89.6097 82.5992 86.1017 84.5568 82.2533 85.1556C78.4049 85.7545 74.4696 84.9552 71.1577 82.902C67.8458 80.8489 65.3756 77.6771 64.1929 73.9593C61.686 76.2021 58.5122 77.556 55.1611 77.8122C51.8101 78.0683 48.468 77.2125 45.6505 75.3767C44.8533 77.976 43.5164 80.377 41.7275 82.4219C39.9386 84.4669 37.7383 86.1097 35.2709 87.2423C32.8036 88.375 30.125 88.9719 27.4111 88.994C24.6972 89.0161 22.0093 88.4628 19.5239 87.3704C17.0385 86.278 14.8118 84.6713 12.9901 82.6557C11.1683 80.6401 9.79265 78.2612 8.95341 75.6752C8.11417 73.0892 7.83033 70.3546 8.12053 67.6509C8.41073 64.9473 9.2684 62.3357 10.6372 59.9876C7.77895 58.8558 5.32593 56.8897 3.59623 54.3443C1.86654 51.7989 0.939949 48.7916 0.9366 45.7122Z" fill="#00742C"/>
<path d="M10.3748 60.1719C10.831 59.5651 12.0475 57.947 12.8078 58.1999C13.7202 58.5538 12.6557 61.5372 12.9599 64.9251C13.2253 67.3957 14.0528 69.7733 15.3793 71.8764C16.7057 73.9796 18.4961 75.7528 20.6139 77.0608C23.6865 78.8559 27.2749 79.5682 30.8023 79.0835C33.4888 78.0721 36.7329 76.3529 39.1153 73.2178C42.0045 69.4254 42.4607 65.2285 44.4883 65.1273C45.7555 65.0768 46.161 66.796 48.4927 68.2118C50.3975 69.3001 52.5921 69.7768 54.7781 69.5771C56.7517 69.3623 58.628 68.6101 60.2018 67.4028C62.5334 65.5824 62.5334 63.8632 63.902 63.6609C66.183 63.3575 66.8927 68.0602 71.404 70.3862C71.8095 70.5884 75.8646 72.6111 80.021 70.8918C85.1406 68.8186 86.3064 63.1553 86.4078 62.7002C88.5159 61.6952 90.3121 60.1399 91.606 58.1993C92.9 56.2586 93.6435 54.0048 93.7577 51.6769C94.0618 44.6483 88.334 40.7042 88.0299 40.5019C89.0943 35.9004 89.4998 30.1865 86.864 24.8771C83.5186 18.1519 77.0811 15.7247 77.7401 14.5617C78.399 13.3482 86.053 14.9157 91.1726 19.9217C94.8774 23.5926 96.9889 28.568 97.0525 33.7767C97.0416 35.1706 96.8887 36.5599 96.5963 37.923C99.6724 38.99 102.33 41.0026 104.187 43.6714C106.045 46.3402 107.006 49.5278 106.933 52.7758C106.859 56.0239 105.756 59.1651 103.78 61.7479C101.804 64.3307 99.0584 66.222 95.9373 67.15C95.988 67.7568 96.0387 68.4141 96.0387 69.0715C96.0371 72.9692 94.6389 76.738 92.0963 79.6976C89.5537 82.6572 86.0343 84.6125 82.1733 85.2107C78.3124 85.8089 74.3642 85.0105 71.0416 82.9596C67.7189 80.9088 65.2406 77.7406 64.0541 74.0269C61.5391 76.2672 58.3549 77.6196 54.9929 77.8755C51.6309 78.1314 48.278 77.2765 45.4513 75.4427C44.0183 80.0568 40.9088 83.9702 36.7329 86.4155C33.5401 88.2417 29.8946 89.1301 26.2173 88.978C22.54 88.8259 18.9808 87.6395 15.9505 85.5558C12.9555 83.3703 10.6086 80.4176 9.15822 77.0103C8.72654 75.911 8.38744 74.7778 8.14445 73.6224C7.86751 72.3431 7.73154 71.0375 7.73895 69.7288C7.73895 67.8579 7.73895 63.6609 10.3748 60.1719Z" fill="#03622A"/>
<path d="M65.2352 135.142C65.2352 135.091 65.2352 135.091 65.1842 134.99C65.1816 134.92 65.1642 134.851 65.1332 134.788C65.1028 134.515 65.0516 134.245 64.9802 133.98C64.8967 133.732 64.8286 133.479 64.7763 133.223C64.6535 132.742 64.5003 132.27 64.3174 131.808C64.0114 130.899 63.7055 130.192 63.6545 130.091C62.967 128.253 62.4382 126.361 62.0738 124.435C61.7279 122.766 61.4725 121.08 61.3089 119.384C60.85 114.637 61.105 103.223 61.105 103.172C61.054 95.243 61.5129 89.536 61.9718 88.7279C62.1418 88.4635 62.3292 88.2104 62.5327 87.9703C62.8516 87.6112 63.2109 87.2892 63.6035 87.0107H63.6545C62.7969 87.0923 61.9454 87.2272 61.105 87.4148C58.3005 88.3239 58.1985 95.8996 58.1985 96.0006C58.1985 96.0006 57.7906 132.819 62.0228 135.546C62.2778 135.697 62.5837 135.849 62.5837 135.849C63.0321 136.075 63.5141 136.228 64.0114 136.303C64.1628 136.334 64.3189 136.334 64.4703 136.303C64.5742 136.301 64.6772 136.284 64.7763 136.253C64.8149 136.248 64.8508 136.23 64.8783 136.202C64.9057 136.175 64.9416 136.157 64.9802 136.152C65.0312 136.101 65.0822 136.101 65.1332 136C65.1369 135.962 65.1551 135.926 65.1842 135.899C65.2292 135.752 65.2465 135.598 65.2352 135.445V135.293C65.2862 135.293 65.2862 135.243 65.2352 135.142Z" fill="#503A23"/>
<path d="M70.9999 54.3593C70.9999 55.3869 71.3049 56.3915 71.8763 57.2459C72.4476 58.1004 73.2597 58.7664 74.2098 59.1596C75.1599 59.5529 76.2054 59.6558 77.2141 59.4553C78.2227 59.2548 79.1492 58.76 79.8764 58.0333C80.6036 57.3067 81.0989 56.3808 81.2995 55.3729C81.5001 54.3651 81.3972 53.3203 81.0036 52.3709C80.61 51.4215 79.9436 50.61 79.0885 50.0391C78.2334 49.4682 77.2281 49.1635 76.1997 49.1635C75.6199 49.164 75.0446 49.2654 74.4996 49.4633C73.4942 49.8376 72.6237 50.5038 72.0001 51.3762C71.3765 52.2487 71.0282 53.2875 70.9999 54.3593Z" fill="#9F1827"/>
<path d="M77.1742 59.4638C77.2863 59.4421 77.3763 59.4214 77.4409 59.4062C77.5122 59.3891 77.5273 59.384 77.6678 59.3492L77.8658 59.2987C77.9274 59.2831 78.0108 59.2598 78.1078 59.2265C78.1078 59.2265 78.2513 59.176 78.3993 59.1104C78.8886 58.8742 79.3428 58.5716 79.7493 58.2113C80.2482 57.7602 80.6556 57.2174 80.9492 56.6124C81.2734 55.8893 81.4438 55.1068 81.4493 54.3144C81.4566 53.7344 81.3548 53.1581 81.1492 52.6156C80.8821 51.8293 80.4173 51.1247 79.7993 50.5695C79.3685 50.1794 78.8792 49.8592 78.3493 49.6204C78.0714 49.5063 77.7875 49.4063 77.4995 49.3205C77.4278 49.3008 77.348 49.2821 77.2671 49.266C77.1863 49.2498 77.1009 49.2377 77.0261 49.2291C77.1272 49.323 77.2813 49.4619 77.4621 49.633C77.7708 49.9258 78.2033 50.3312 78.3993 50.5695C78.8863 51.1621 79.2592 51.8398 79.4992 52.5682C79.7427 53.2568 79.8448 53.9873 79.7993 54.7163C79.7103 55.5173 79.4366 56.2869 78.9995 56.9643C78.5117 57.8791 77.8972 58.7205 77.1742 59.4638Z" fill="#7B141B"/>
<path d="M76.1997 47.1654C76.0557 47.0501 75.8744 46.9917 75.6902 47.001C75.5059 47.0103 75.3315 47.0867 75.1998 47.2158C75.0988 47.4153 75.3514 47.6152 75.5995 48.3649C75.8495 49.0141 75.8495 49.314 75.9496 49.314C76.0496 49.314 76.1517 48.7142 76.2497 48.1649C76.3497 47.3648 76.2497 47.2153 76.1997 47.1654Z" fill="#503A23"/>
<path d="M38.9999 28.3593C38.9999 29.3869 39.3049 30.3915 39.8763 31.2459C40.4476 32.1004 41.2597 32.7664 42.2098 33.1596C43.1599 33.5529 44.2054 33.6558 45.2141 33.4553C46.2227 33.2548 47.1492 32.76 47.8764 32.0333C48.6036 31.3067 49.0989 30.3808 49.2995 29.3729C49.5001 28.3651 49.3972 27.3203 49.0036 26.3709C48.61 25.4215 47.9436 24.61 47.0885 24.0391C46.2334 23.4682 45.2281 23.1635 44.1997 23.1635C43.6199 23.164 43.0446 23.2654 42.4996 23.4633C41.4942 23.8376 40.6237 24.5038 40.0001 25.3762C39.3765 26.2487 39.0282 27.2875 38.9999 28.3593Z" fill="#9F1827"/>
<path d="M45.1742 33.4638C45.2863 33.4421 45.3763 33.4214 45.4409 33.4062C45.5122 33.3891 45.5273 33.384 45.6678 33.3492L45.8658 33.2987C45.9274 33.2831 46.0108 33.2598 46.1078 33.2265C46.1078 33.2265 46.2513 33.176 46.3993 33.1104C46.8886 32.8742 47.3428 32.5716 47.7493 32.2113C48.2482 31.7602 48.6556 31.2174 48.9492 30.6124C49.2734 29.8893 49.4438 29.1068 49.4493 28.3144C49.4566 27.7344 49.3548 27.1581 49.1492 26.6156C48.8821 25.8293 48.4173 25.1247 47.7993 24.5695C47.3685 24.1794 46.8792 23.8592 46.3493 23.6204C46.0714 23.5063 45.7875 23.4063 45.4995 23.3205C45.4278 23.3008 45.348 23.2821 45.2671 23.266C45.1863 23.2498 45.1009 23.2377 45.0261 23.2291C45.1272 23.323 45.2813 23.4619 45.4621 23.633C45.7708 23.9258 46.2033 24.3312 46.3993 24.5695C46.8863 25.1621 47.2592 25.8398 47.4992 26.5682C47.7427 27.2568 47.8448 27.9873 47.7993 28.7163C47.7103 29.5173 47.4366 30.2869 46.9995 30.9643C46.5117 31.8791 45.8972 32.7205 45.1742 33.4638Z" fill="#7B141B"/>
<path d="M44.1997 21.1654C44.0557 21.0501 43.8744 20.9917 43.6902 21.001C43.5059 21.0103 43.3315 21.0867 43.1998 21.2158C43.0988 21.4153 43.3514 21.6152 43.5995 22.3649C43.8495 23.0141 43.8495 23.314 43.9496 23.314C44.0496 23.314 44.1517 22.7142 44.2497 22.1649C44.3497 21.3648 44.2497 21.2153 44.1997 21.1654Z" fill="#503A23"/>
<path d="M19.9999 66.3592C19.9999 67.3868 20.3049 68.3914 20.8763 69.2458C21.4476 70.1003 22.2597 70.7662 23.2098 71.1595C24.1599 71.5528 25.2054 71.6557 26.2141 71.4552C27.2227 71.2547 28.1492 70.7598 28.8764 70.0332C29.6036 69.3065 30.0989 68.3807 30.2995 67.3728C30.5001 66.3649 30.3972 65.3202 30.0036 64.3708C29.6101 63.4214 28.9436 62.6099 28.0885 62.039C27.2334 61.4681 26.2281 61.1633 25.1997 61.1633C24.6199 61.1638 24.0446 61.2653 23.4996 61.4632C22.4942 61.8375 21.6237 62.5037 21.0001 63.3761C20.3765 64.2485 20.0282 65.2874 19.9999 66.3592Z" fill="#9F1827"/>
<path d="M26.1742 71.4641C26.2863 71.4419 26.3763 71.4212 26.4409 71.406C26.5056 71.3909 26.5273 71.3838 26.6673 71.3495C26.8072 71.3152 26.8092 71.3152 26.8658 71.299C26.9224 71.2829 27.0108 71.2601 27.1078 71.2273C27.1078 71.2273 27.2513 71.1769 27.3993 71.1107C27.8886 70.8745 28.3428 70.5719 28.7493 70.2116C29.2483 69.7606 29.6557 69.2178 29.9492 68.6128C30.2735 67.8897 30.4439 67.1071 30.4494 66.3147C30.4565 65.7347 30.3547 65.1584 30.1492 64.6159C29.8826 63.8288 29.4177 63.1234 28.7993 62.5678C28.3687 62.1775 27.8794 61.8572 27.3493 61.6187C27.0714 61.5042 26.7878 61.4041 26.4995 61.3188C26.4278 61.2991 26.3505 61.2804 26.2671 61.2638C26.1838 61.2471 26.1009 61.2355 26.0261 61.2274C26.1272 61.3208 26.2787 61.4596 26.4616 61.6313C26.7708 61.9241 27.2033 62.3295 27.3993 62.5683C27.8863 63.1608 28.2592 63.8382 28.4992 64.5664C28.7427 65.2552 28.8448 65.986 28.7993 66.7151C28.7103 67.5161 28.4366 68.2857 27.9995 68.9631C27.5117 69.8783 26.8972 70.7203 26.1742 71.4641Z" fill="#7B141B"/>
<path d="M25.1997 59.1652C25.0556 59.0501 24.8744 58.9917 24.6902 59.001C24.506 59.0103 24.3315 59.0866 24.1998 59.2157C24.0988 59.4176 24.3514 59.6155 24.5995 60.3647C24.8521 61.0144 24.8521 61.3138 24.9496 61.3138C25.0471 61.3138 25.1517 60.7145 25.2497 60.1648C25.3497 59.3651 25.2497 59.2152 25.1997 59.1652Z" fill="#503A23"/>
<path d="M48.9999 58.3593C48.9999 59.3869 49.3049 60.3915 49.8763 61.2459C50.4476 62.1004 51.2597 62.7664 52.2098 63.1596C53.1599 63.5529 54.2054 63.6558 55.2141 63.4553C56.2227 63.2548 57.1492 62.76 57.8764 62.0333C58.6036 61.3067 59.0989 60.3808 59.2995 59.3729C59.5001 58.3651 59.3972 57.3203 59.0036 56.3709C58.61 55.4215 57.9436 54.61 57.0885 54.0391C56.2334 53.4682 55.2281 53.1635 54.1997 53.1635C53.6199 53.164 53.0446 53.2654 52.4996 53.4633C51.4942 53.8376 50.6237 54.5038 50.0001 55.3762C49.3765 56.2487 49.0282 57.2875 48.9999 58.3593Z" fill="#9F1827"/>
<path d="M55.1742 63.4638C55.2863 63.4421 55.3763 63.4214 55.4409 63.4062C55.5122 63.3891 55.5273 63.384 55.6678 63.3492L55.8658 63.2987C55.9274 63.2831 56.0108 63.2598 56.1078 63.2265C56.1078 63.2265 56.2513 63.176 56.3993 63.1104C56.8886 62.8742 57.3428 62.5716 57.7493 62.2113C58.2482 61.7602 58.6556 61.2174 58.9492 60.6124C59.2734 59.8893 59.4438 59.1068 59.4493 58.3144C59.4566 57.7344 59.3548 57.1581 59.1492 56.6156C58.8821 55.8293 58.4173 55.1247 57.7993 54.5695C57.3685 54.1794 56.8792 53.8592 56.3493 53.6204C56.0714 53.5063 55.7875 53.4063 55.4995 53.3205C55.4278 53.3008 55.348 53.2821 55.2671 53.266C55.1863 53.2498 55.1009 53.2377 55.0261 53.2291C55.1272 53.323 55.2813 53.4619 55.4621 53.633C55.7708 53.9258 56.2033 54.3312 56.3993 54.5695C56.8863 55.1621 57.2592 55.8398 57.4992 56.5682C57.7427 57.2568 57.8448 57.9873 57.7993 58.7163C57.7103 59.5173 57.4366 60.2869 56.9995 60.9643C56.5117 61.8791 55.8972 62.7205 55.1742 63.4638Z" fill="#7B141B"/>
<path d="M54.1997 51.1654C54.0557 51.0501 53.8744 50.9917 53.6902 51.001C53.5059 51.0103 53.3315 51.0867 53.1998 51.2158C53.0988 51.4153 53.3514 51.6152 53.5995 52.3649C53.8495 53.0141 53.8495 53.314 53.9496 53.314C54.0496 53.314 54.1517 52.7142 54.2497 52.1649C54.3497 51.3648 54.2497 51.2153 54.1997 51.1654Z" fill="#503A23"/>
<path d="M57.9999 12.3593C57.9999 13.3869 58.3049 14.3915 58.8763 15.2459C59.4476 16.1004 60.2597 16.7664 61.2098 17.1596C62.1599 17.5529 63.2054 17.6558 64.2141 17.4553C65.2227 17.2548 66.1492 16.76 66.8764 16.0333C67.6036 15.3067 68.0989 14.3808 68.2995 13.3729C68.5001 12.3651 68.3972 11.3203 68.0036 10.3709C67.61 9.42151 66.9436 8.61003 66.0885 8.03911C65.2334 7.46818 64.2281 7.16345 63.1997 7.16345C62.6199 7.16396 62.0446 7.26543 61.4996 7.46333C60.4942 7.83762 59.6237 8.50379 59.0001 9.37623C58.3765 10.2487 58.0282 11.2875 57.9999 12.3593Z" fill="#9F1827"/>
<path d="M64.1742 17.4638C64.2863 17.4421 64.3763 17.4214 64.4409 17.4062C64.5122 17.3891 64.5273 17.384 64.6678 17.3492L64.8658 17.2987C64.9274 17.2831 65.0108 17.2598 65.1078 17.2265C65.1078 17.2265 65.2513 17.176 65.3993 17.1104C65.8886 16.8742 66.3428 16.5716 66.7493 16.2113C67.2482 15.7602 67.6556 15.2174 67.9492 14.6124C68.2734 13.8893 68.4438 13.1068 68.4493 12.3144C68.4566 11.7344 68.3548 11.1581 68.1492 10.6156C67.8821 9.82926 67.4173 9.12469 66.7993 8.56948C66.3685 8.17944 65.8792 7.8592 65.3493 7.62038C65.0714 7.50629 64.7875 7.40633 64.4995 7.3205C64.4278 7.30081 64.348 7.28213 64.2671 7.26598C64.1863 7.24982 64.1009 7.23771 64.0261 7.22913C64.1272 7.32303 64.2813 7.46186 64.4621 7.633C64.7708 7.92581 65.2033 8.3312 65.3993 8.56948C65.8863 9.16213 66.2592 9.83978 66.4992 10.5682C66.7427 11.2568 66.8448 11.9873 66.7993 12.7163C66.7103 13.5173 66.4366 14.2869 65.9995 14.9643C65.5117 15.8791 64.8972 16.7205 64.1742 17.4638Z" fill="#7B141B"/>
<path d="M63.1997 5.16535C63.0557 5.05014 62.8744 4.99166 62.6902 5.00096C62.5059 5.01026 62.3315 5.08671 62.1998 5.21584C62.0988 5.41525 62.3514 5.61517 62.5995 6.36486C62.8495 7.01409 62.8495 7.31396 62.9496 7.31396C63.0496 7.31396 63.1517 6.71421 63.2497 6.16494C63.3497 5.36476 63.2497 5.21533 63.1997 5.16535Z" fill="#503A23"/>
<path d="M10.9999 43.3593C10.9999 44.3869 11.3049 45.3915 11.8763 46.2459C12.4476 47.1004 13.2597 47.7664 14.2098 48.1596C15.1599 48.5529 16.2054 48.6558 17.2141 48.4553C18.2227 48.2548 19.1492 47.76 19.8764 47.0333C20.6036 46.3067 21.0989 45.3808 21.2995 44.3729C21.5001 43.3651 21.3972 42.3203 21.0036 41.3709C20.61 40.4215 19.9436 39.61 19.0885 39.0391C18.2334 38.4682 17.2281 38.1635 16.1997 38.1635C15.6199 38.164 15.0446 38.2654 14.4996 38.4633C13.4942 38.8376 12.6237 39.5038 12.0001 40.3762C11.3765 41.2487 11.0282 42.2875 10.9999 43.3593Z" fill="#9F1827"/>
<path d="M17.1742 48.4638C17.2863 48.4421 17.3763 48.4214 17.4409 48.4062C17.5122 48.3891 17.5273 48.384 17.6678 48.3492L17.8658 48.2987C17.9274 48.2831 18.0108 48.2598 18.1078 48.2265C18.1078 48.2265 18.2513 48.176 18.3993 48.1104C18.8886 47.8742 19.3428 47.5716 19.7493 47.2113C20.2482 46.7602 20.6556 46.2174 20.9492 45.6124C21.2734 44.8893 21.4438 44.1068 21.4493 43.3144C21.4566 42.7344 21.3548 42.1581 21.1492 41.6156C20.8821 40.8293 20.4173 40.1247 19.7993 39.5695C19.3685 39.1794 18.8792 38.8592 18.3493 38.6204C18.0714 38.5063 17.7875 38.4063 17.4995 38.3205C17.4278 38.3008 17.348 38.2821 17.2671 38.266C17.1863 38.2498 17.1009 38.2377 17.0261 38.2291C17.1272 38.323 17.2813 38.4619 17.4621 38.633C17.7708 38.9258 18.2033 39.3312 18.3993 39.5695C18.8863 40.1621 19.2592 40.8398 19.4992 41.5682C19.7427 42.2568 19.8448 42.9873 19.7993 43.7163C19.7103 44.5173 19.4366 45.2869 18.9995 45.9643C18.5117 46.8791 17.8972 47.7205 17.1742 48.4638Z" fill="#7B141B"/>
<path d="M16.1997 36.1654C16.0557 36.0501 15.8744 35.9917 15.6902 36.001C15.5059 36.0103 15.3315 36.0867 15.1998 36.2158C15.0988 36.4153 15.3514 36.6152 15.5995 37.3649C15.8495 38.0141 15.8495 38.314 15.9496 38.314C16.0496 38.314 16.1517 37.7142 16.2497 37.1649C16.3497 36.3648 16.2497 36.2153 16.1997 36.1654Z" fill="#503A23"/>
<path d="M57.9999 37.3593C57.9999 38.3869 58.3049 39.3915 58.8763 40.2459C59.4476 41.1004 60.2597 41.7664 61.2098 42.1596C62.1599 42.5529 63.2054 42.6558 64.2141 42.4553C65.2227 42.2548 66.1492 41.76 66.8764 41.0333C67.6036 40.3067 68.0989 39.3808 68.2995 38.3729C68.5001 37.3651 68.3972 36.3203 68.0036 35.3709C67.61 34.4215 66.9436 33.61 66.0885 33.0391C65.2334 32.4682 64.2281 32.1635 63.1997 32.1635C62.6199 32.164 62.0446 32.2654 61.4996 32.4633C60.4942 32.8376 59.6237 33.5038 59.0001 34.3762C58.3765 35.2487 58.0282 36.2875 57.9999 37.3593Z" fill="#62B22F"/>
<path d="M64.1742 42.4638C64.2863 42.4421 64.3763 42.4214 64.4409 42.4062C64.5122 42.3891 64.5273 42.384 64.6678 42.3492L64.8658 42.2987C64.9274 42.2831 65.0108 42.2598 65.1078 42.2265C65.1078 42.2265 65.2513 42.176 65.3993 42.1104C65.8886 41.8742 66.3428 41.5716 66.7493 41.2113C67.2482 40.7602 67.6556 40.2174 67.9492 39.6124C68.2734 38.8893 68.4438 38.1068 68.4493 37.3144C68.4566 36.7344 68.3548 36.1581 68.1492 35.6156C67.8821 34.8293 67.4173 34.1247 66.7993 33.5695C66.3685 33.1794 65.8792 32.8592 65.3493 32.6204C65.0714 32.5063 64.7875 32.4063 64.4995 32.3205C64.4278 32.3008 64.348 32.2821 64.2671 32.266C64.1863 32.2498 64.1009 32.2377 64.0261 32.2291C64.1272 32.323 64.2813 32.4619 64.4621 32.633C64.7708 32.9258 65.2033 33.3312 65.3993 33.5695C65.8863 34.1621 66.2592 34.8398 66.4992 35.5682C66.7427 36.2568 66.8448 36.9873 66.7993 37.7163C66.7103 38.5173 66.4366 39.2869 65.9995 39.9643C65.5117 40.8791 64.8972 41.7205 64.1742 42.4638Z" fill="#468123"/>
<path d="M63.1997 30.1654C63.0557 30.0501 62.8744 29.9917 62.6902 30.001C62.5059 30.0103 62.3315 30.0867 62.1998 30.2158C62.0988 30.4153 62.3514 30.6152 62.5995 31.3649C62.8495 32.0141 62.8495 32.314 62.9496 32.314C63.0496 32.314 63.1517 31.7142 63.2497 31.1649C63.3497 30.3648 63.2497 30.2153 63.1997 30.1654Z" fill="#503A23"/>
<path d="M74.9999 29.3593C74.9999 30.3869 75.3049 31.3915 75.8763 32.2459C76.4476 33.1004 77.2597 33.7664 78.2098 34.1596C79.1599 34.5529 80.2054 34.6558 81.2141 34.4553C82.2227 34.2548 83.1492 33.76 83.8764 33.0333C84.6036 32.3067 85.0989 31.3808 85.2995 30.3729C85.5001 29.3651 85.3972 28.3203 85.0036 27.3709C84.61 26.4215 83.9436 25.61 83.0885 25.0391C82.2334 24.4682 81.2281 24.1635 80.1997 24.1635C79.6199 24.164 79.0446 24.2654 78.4996 24.4633C77.4942 24.8376 76.6237 25.5038 76.0001 26.3762C75.3765 27.2487 75.0282 28.2875 74.9999 29.3593Z" fill="#62B22F"/>
<path d="M81.1742 34.4638C81.2863 34.4421 81.3763 34.4214 81.4409 34.4062C81.5122 34.3891 81.5273 34.384 81.6678 34.3492L81.8658 34.2987C81.9274 34.2831 82.0108 34.2598 82.1078 34.2265C82.1078 34.2265 82.2513 34.176 82.3993 34.1104C82.8886 33.8742 83.3428 33.5716 83.7493 33.2113C84.2482 32.7602 84.6556 32.2174 84.9492 31.6124C85.2734 30.8893 85.4438 30.1068 85.4493 29.3144C85.4566 28.7344 85.3548 28.1581 85.1492 27.6156C84.8821 26.8293 84.4173 26.1247 83.7993 25.5695C83.3685 25.1794 82.8792 24.8592 82.3493 24.6204C82.0714 24.5063 81.7875 24.4063 81.4995 24.3205C81.4278 24.3008 81.348 24.2821 81.2671 24.266C81.1863 24.2498 81.1009 24.2377 81.0261 24.2291C81.1272 24.323 81.2813 24.4619 81.4621 24.633C81.7708 24.9258 82.2033 25.3312 82.3993 25.5695C82.8863 26.1621 83.2592 26.8398 83.4992 27.5682C83.7427 28.2568 83.8448 28.9873 83.7993 29.7163C83.7103 30.5173 83.4366 31.2869 82.9995 31.9643C82.5117 32.8791 81.8972 33.7205 81.1742 34.4638Z" fill="#468123"/>
<path d="M80.1997 22.1654C80.0557 22.0501 79.8744 21.9917 79.6902 22.001C79.5059 22.0103 79.3315 22.0867 79.1998 22.2158C79.0988 22.4153 79.3514 22.6152 79.5995 23.3649C79.8495 24.0141 79.8495 24.314 79.9496 24.314C80.0496 24.314 80.1517 23.7142 80.2497 23.1649C80.3497 22.3648 80.2497 22.2153 80.1997 22.1654Z" fill="#503A23"/>
<path d="M30.9999 49.3593C30.9999 50.3869 31.3049 51.3915 31.8763 52.2459C32.4476 53.1004 33.2597 53.7664 34.2098 54.1596C35.1599 54.5529 36.2054 54.6558 37.2141 54.4553C38.2227 54.2548 39.1492 53.76 39.8764 53.0333C40.6036 52.3067 41.0989 51.3808 41.2995 50.3729C41.5001 49.3651 41.3972 48.3203 41.0036 47.3709C40.61 46.4215 39.9436 45.61 39.0885 45.0391C38.2334 44.4682 37.2281 44.1635 36.1997 44.1635C35.6199 44.164 35.0446 44.2654 34.4996 44.4633C33.4942 44.8376 32.6237 45.5038 32.0001 46.3762C31.3765 47.2487 31.0282 48.2875 30.9999 49.3593Z" fill="#62B22F"/>
<path d="M37.1742 54.4638C37.2863 54.4421 37.3763 54.4214 37.4409 54.4062C37.5122 54.3891 37.5273 54.384 37.6678 54.3492L37.8658 54.2987C37.9274 54.2831 38.0108 54.2598 38.1078 54.2265C38.1078 54.2265 38.2513 54.176 38.3993 54.1104C38.8886 53.8742 39.3428 53.5716 39.7493 53.2113C40.2482 52.7602 40.6556 52.2174 40.9492 51.6124C41.2734 50.8893 41.4438 50.1068 41.4493 49.3144C41.4566 48.7344 41.3548 48.1581 41.1492 47.6156C40.8821 46.8293 40.4173 46.1247 39.7993 45.5695C39.3685 45.1794 38.8792 44.8592 38.3493 44.6204C38.0714 44.5063 37.7875 44.4063 37.4995 44.3205C37.4278 44.3008 37.348 44.2821 37.2671 44.266C37.1863 44.2498 37.1009 44.2377 37.0261 44.2291C37.1272 44.323 37.2813 44.4619 37.4621 44.633C37.7708 44.9258 38.2033 45.3312 38.3993 45.5695C38.8863 46.1621 39.2592 46.8398 39.4992 47.5682C39.7427 48.2568 39.8448 48.9873 39.7993 49.7163C39.7103 50.5173 39.4366 51.2869 38.9995 51.9643C38.5117 52.8791 37.8972 53.7205 37.1742 54.4638Z" fill="#468123"/>
<path d="M36.1997 42.1654C36.0557 42.0501 35.8744 41.9917 35.6902 42.001C35.5059 42.0103 35.3315 42.0867 35.1998 42.2158C35.0988 42.4153 35.3514 42.6152 35.5995 43.3649C35.8495 44.0141 35.8495 44.314 35.9496 44.314C36.0496 44.314 36.1517 43.7142 36.2497 43.1649C36.3497 42.3648 36.2497 42.2153 36.1997 42.1654Z" fill="#503A23"/>
<path d="M21.9999 23.3593C21.9999 24.3869 22.3049 25.3915 22.8763 26.2459C23.4476 27.1004 24.2597 27.7664 25.2098 28.1596C26.1599 28.5529 27.2054 28.6558 28.2141 28.4553C29.2227 28.2548 30.1492 27.76 30.8764 27.0333C31.6036 26.3067 32.0989 25.3808 32.2995 24.3729C32.5001 23.3651 32.3972 22.3203 32.0036 21.3709C31.61 20.4215 30.9436 19.61 30.0885 19.0391C29.2334 18.4682 28.2281 18.1635 27.1997 18.1635C26.6199 18.164 26.0446 18.2654 25.4996 18.4633C24.4942 18.8376 23.6237 19.5038 23.0001 20.3762C22.3765 21.2487 22.0282 22.2875 21.9999 23.3593Z" fill="#62B22F"/>
<path d="M28.1742 28.4638C28.2863 28.4421 28.3763 28.4214 28.4409 28.4062C28.5122 28.3891 28.5273 28.384 28.6678 28.3492L28.8658 28.2987C28.9274 28.2831 29.0108 28.2598 29.1078 28.2265C29.1078 28.2265 29.2513 28.176 29.3993 28.1104C29.8886 27.8742 30.3428 27.5716 30.7493 27.2113C31.2482 26.7602 31.6556 26.2174 31.9492 25.6124C32.2734 24.8893 32.4438 24.1068 32.4493 23.3144C32.4566 22.7344 32.3548 22.1581 32.1492 21.6156C31.8821 20.8293 31.4173 20.1247 30.7993 19.5695C30.3685 19.1794 29.8792 18.8592 29.3493 18.6204C29.0714 18.5063 28.7875 18.4063 28.4995 18.3205C28.4278 18.3008 28.348 18.2821 28.2671 18.266C28.1863 18.2498 28.1009 18.2377 28.0261 18.2291C28.1272 18.323 28.2813 18.4619 28.4621 18.633C28.7708 18.9258 29.2033 19.3312 29.3993 19.5695C29.8863 20.1621 30.2592 20.8398 30.4992 21.5682C30.7427 22.2568 30.8448 22.9873 30.7993 23.7163C30.7103 24.5173 30.4366 25.2869 29.9995 25.9643C29.5117 26.8791 28.8972 27.7205 28.1742 28.4638Z" fill="#468123"/>
<path d="M27.1997 16.1654C27.0557 16.0501 26.8744 15.9917 26.6902 16.001C26.5059 16.0103 26.3315 16.0867 26.1998 16.2158C26.0988 16.4153 26.3514 16.6152 26.5995 17.3649C26.8495 18.0141 26.8495 18.314 26.9496 18.314C27.0496 18.314 27.1517 17.7142 27.2497 17.1649C27.3497 16.3648 27.2497 16.2153 27.1997 16.1654Z" fill="#503A23"/>
</svg>
