<?xml version="1.0" encoding="UTF-8" standalone="no"?>
<svg width="1920" height="1080" viewBox="0 0 1920 1080" fill="none" xmlns="http://www.w3.org/2000/svg">
<rect width="1920" height="1000" fill="#ADE3EA"/>
<circle cx="204.5" cy="204.5" r="240.5" fill="#85CDD8"/>
<circle cx="257.5" cy="934.5" r="348.5" fill="#85CDD8"/>
<circle cx="1418.5" cy="165.5" r="348.5" fill="#85CDD8"/>
<circle cx="1767.44" cy="902.445" r="258.412" transform="rotate(-1.81 1767.44 902.445)" fill="#85CDD8"/>
<circle cx="1750.5" cy="435.5" r="37.5" fill="#85CDD8"/>
<circle cx="970.5" cy="128.5" r="37.5" fill="#85CDD8"/>
<circle cx="1908.5" cy="617.5" r="37.5" fill="#85CDD8"/>
<circle cx="1355.5" cy="1052.5" r="37.5" fill="#85CDD8"/>
<circle cx="1115.5" cy="869.5" r="37.5" fill="#85CDD8"/>
<circle cx="721.5" cy="834.5" r="37.5" fill="#85CDD8"/>
<circle cx="547.5" cy="93.5" r="37.5" fill="#85CDD8"/>
<circle cx="14.5" cy="461.5" r="37.5" fill="#85CDD8"/>
<path d="M1151.5 659C1172.21 659 1189 642.211 1189 621.5C1189 600.789 1172.21 584 1151.5 584C1130.79 584 1114 600.789 1114 621.5C1114 642.211 1130.79 659 1151.5 659Z" fill="#85CDD8"/>
<circle cx="1615" cy="600" r="15" fill="#85CDD8"/>
<circle cx="1780.5" cy="80.5" r="13.5" fill="#85CDD8"/>
<circle cx="939" cy="1026" r="51" fill="#85CDD8"/>
<circle cx="131" cy="540" r="51" fill="#85CDD8"/>
<circle cx="1280.5" cy="1029.5" r="13.5" fill="#85CDD8"/>
<circle cx="1007.5" cy="878.5" r="13.5" fill="#85CDD8"/>
<circle cx="670.5" cy="107.5" r="13.5" fill="#85CDD8"/>
<circle cx="1042.5" cy="90.5" r="13.5" fill="#85CDD8"/>
<circle cx="1121.5" cy="1043.5" r="13.5" fill="#85CDD8"/>
<circle cx="742.5" cy="907.5" r="13.5" fill="#85CDD8"/>
<circle cx="257.5" cy="475.5" r="13.5" fill="#85CDD8"/>
<circle cx="52.5" cy="590.5" r="13.5" fill="#85CDD8"/>
<circle cx="308.5" cy="566.5" r="13.5" fill="#85CDD8"/>
<circle cx="679.5" cy="1033.5" r="13.5" fill="#85CDD8"/>
<circle cx="636.5" cy="1056.5" r="13.5" fill="#85CDD8"/>
<circle cx="1787.5" cy="352.5" r="13.5" fill="#85CDD8"/>
<circle cx="1844.5" cy="165.5" r="13.5" fill="#85CDD8"/>
<circle cx="1375.5" cy="864.5" r="13.5" fill="#85CDD8"/>
<circle cx="1909" cy="234" r="51" fill="#85CDD8"/>
</svg>
