<svg viewBox="0 0 938 908" fill="none" xmlns="http://www.w3.org/2000/svg">
<path d="M786.16 2H151.84C69.0855 2 2 69.0855 2 151.84V611.348C2 694.102 69.0855 761.187 151.84 761.187H786.16C868.914 761.187 936 694.102 936 611.348V151.84C936 69.0855 868.914 2 786.16 2Z" fill="#EDEDED" stroke="#844EA5" stroke-width="4"/>
<path d="M490.092 126.88C492.402 115.874 495.998 98.744 486.641 80.3646C481.563 69.4292 472.878 60.5644 462.035 55.2515C450.531 50.2137 437.559 49.6318 425.649 53.6193C431.532 52.0722 437.671 51.7383 443.688 52.638C449.706 53.5376 455.477 55.6521 460.648 58.852C468.946 64.6168 475.115 72.944 478.204 82.5512C478.439 83.3005 478.604 83.8863 478.71 84.2668C481.711 95.4689 480.537 107.376 475.409 117.781C476.952 106.164 474.361 94.3735 468.088 84.4663C464.118 77.6642 458.185 72.2132 451.065 68.8243C444.387 65.9006 436.996 64.9963 429.807 66.2234C436.417 66.5282 442.825 68.5926 448.366 72.201C454.58 76.3556 459.411 82.2644 462.241 89.1733C465.806 97.6296 466.503 107.017 464.226 115.906C461.682 104.567 455.505 94.3645 446.631 86.8418C439.887 80.3726 431.106 76.4339 421.781 75.6952C415.433 75.4999 409.145 76.9657 403.541 79.9471C409.354 78.3156 415.484 78.1564 421.375 79.4835C429.353 81.5616 436.464 86.111 441.686 92.478C457.914 110.338 455.097 136.182 454.484 141.042C456.381 141.869 474.004 149.285 483.866 140.794C485.775 139.15 488.117 136.289 490.092 126.88Z" fill="#3A1919"/>
<path d="M197.936 743.663C221.111 701.805 248.441 637.706 247.653 559.309C246.815 475.924 215.017 457.164 218.684 379.366C219.535 361.32 227.441 235.724 328.089 165.962C369.761 137.862 419.011 123.067 469.305 123.541C519.599 124.014 568.561 139.733 609.695 168.612C710.609 241.081 714.117 366.843 714.667 386.53C716.059 436.48 703.142 447.886 697.628 505.588C689.039 595.488 710.497 671.399 731.104 723.11C645.604 742.192 558.578 753.659 471.046 757.364C379.78 761.227 288.352 756.639 197.936 743.663Z" fill="#603A33"/>
<path d="M325.192 757.749C326.184 740.715 331.481 670.933 369.338 619.264C392.916 587.09 421.557 572.305 429.676 569.373C453.889 560.88 480.396 561.615 504.096 571.453C529.308 582.407 544.595 601.595 553.102 612.633C590.761 661.487 595.819 726.094 596.797 747.309C554.209 752.235 508.233 755.987 459.227 757.818C411.703 759.591 366.898 759.348 325.192 757.749Z" fill="#936F6A"/>
<path d="M530.778 295.116H530.778C522.16 295.116 515.174 302.087 515.174 310.686V319.3C515.174 327.899 522.16 334.87 530.778 334.87H530.778C539.396 334.87 546.383 327.899 546.383 319.3V310.686C546.383 302.087 539.396 295.116 530.778 295.116Z" fill="#3A1919"/>
<path d="M397.644 295.116C389.026 295.116 382.04 302.087 382.04 310.686V319.3C382.04 327.899 389.026 334.87 397.644 334.87C406.263 334.87 413.249 327.899 413.249 319.3V310.686C413.249 302.087 406.263 295.116 397.644 295.116Z" fill="#3A1919"/>
<path d="M324.286 433.824C340.595 433.824 353.817 424.633 353.817 413.296C353.817 401.959 340.595 392.769 324.286 392.769C307.976 392.769 294.755 401.959 294.755 413.296C294.755 424.633 307.976 433.824 324.286 433.824Z" fill="#893838"/>
<path d="M598.211 433.824C614.521 433.824 627.744 424.633 627.744 413.296C627.744 401.959 614.521 392.769 598.211 392.769C581.902 392.769 568.681 401.959 568.681 413.296C568.681 424.633 581.902 433.824 598.211 433.824Z" fill="#893838"/>
<path d="M583.312 373.344C571.101 375.903 559.56 380.977 549.428 388.241C544.273 392.04 539.575 396.421 535.428 401.297C535.367 401.357 535.31 401.421 535.257 401.489L535.153 401.608L535.179 401.628C534.912 402.011 534.782 402.473 534.81 402.94C534.84 403.356 534.993 403.754 535.25 404.084C535.506 404.414 535.853 404.662 536.25 404.797C536.645 404.93 537.073 404.945 537.477 404.839C537.882 404.732 538.246 404.509 538.525 404.197L538.531 404.203L538.549 404.178C538.571 404.153 538.586 404.123 538.608 404.096C542.523 398.518 547.229 393.536 552.579 389.306C561.655 382.382 572.169 377.571 583.35 375.227C600.658 371.061 618.579 370.055 636.246 372.257C618.734 368.753 600.664 369.124 583.312 373.344Z" fill="#3A1919"/>
<path d="M592.971 405.277C581.333 404.361 569.632 405.878 558.615 409.733C552.982 411.786 547.607 414.482 542.595 417.769C542.524 417.807 542.457 417.849 542.392 417.896L542.266 417.975L542.284 418C541.943 418.275 541.705 418.655 541.606 419.08C541.523 419.462 541.556 419.86 541.698 420.224C541.84 420.588 542.087 420.902 542.407 421.127C542.728 421.352 543.107 421.477 543.499 421.488C543.89 421.499 544.276 421.394 544.608 421.188L544.613 421.194L544.635 421.177L544.71 421.119C549.7 417.141 555.242 413.907 561.162 411.518C571.141 407.691 581.851 406.14 592.508 406.978C609.147 407.793 625.504 411.607 640.781 418.235C625.985 410.48 609.665 406.057 592.971 405.277Z" fill="#3A1919"/>
<path d="M344.076 375.493C356.287 378.051 367.827 383.125 377.959 390.389C383.115 394.188 387.813 398.569 391.96 403.445C392.02 403.506 392.077 403.57 392.13 403.637L392.235 403.756L392.209 403.776C392.475 404.16 392.605 404.622 392.578 405.088C392.547 405.504 392.394 405.903 392.138 406.233C391.882 406.563 391.534 406.811 391.138 406.945C390.742 407.079 390.315 407.094 389.91 406.988C389.506 406.881 389.142 406.658 388.863 406.346L388.856 406.351L388.839 406.327C388.816 406.301 388.801 406.272 388.78 406.245C384.865 400.666 380.158 395.684 374.809 391.455C365.732 384.53 355.219 379.72 344.038 377.375C326.729 373.209 308.808 372.203 291.141 374.406C308.653 370.902 326.723 371.273 344.076 375.493Z" fill="#3A1919"/>
<path d="M333.672 405.277C345.31 404.361 357.011 405.878 368.028 409.733C373.661 411.786 379.036 414.482 384.048 417.769C384.118 417.807 384.186 417.849 384.251 417.896L384.377 417.975L384.358 418C384.699 418.275 384.938 418.655 385.037 419.08C385.119 419.462 385.087 419.86 384.945 420.224C384.802 420.588 384.555 420.902 384.235 421.127C383.915 421.352 383.536 421.477 383.144 421.488C382.752 421.499 382.367 421.394 382.034 421.188L382.03 421.194L382.007 421.177L381.933 421.119C376.943 417.141 371.402 413.907 365.481 411.518C355.502 407.691 344.792 406.14 334.135 406.978C317.495 407.793 301.141 411.607 285.863 418.235C300.658 410.48 316.978 406.057 333.672 405.277Z" fill="#3A1919"/>
<path d="M514.886 146.775C534.743 155.354 551.87 169.186 564.418 186.776C556.813 179.634 548.381 172.24 539.082 164.791C530.772 158.134 522.663 152.149 514.886 146.775Z" fill="#965050"/>
<path d="M531.694 174.876C546.844 183.742 559.276 196.571 567.647 211.978C562.226 205.475 556.163 198.688 549.407 191.772C543.371 185.591 537.428 179.97 531.694 174.876Z" fill="#965050"/>
<path d="M560.447 170.834C575.746 179.441 588.395 192.059 597.026 207.32C591.495 200.911 585.318 194.228 578.446 187.427C572.304 181.35 566.267 175.83 560.447 170.834Z" fill="#965050"/>
<path d="M566.888 759.417C563.75 741.567 561.669 723.549 560.655 705.451C559.071 677.299 560.436 655.629 557.608 655.29C553.763 654.825 555.897 692.412 531.33 719.511C523.252 728.571 513.238 735.704 502.027 740.387C490.815 745.071 478.693 747.177 466.556 746.558C454.418 745.938 442.575 742.605 431.902 736.805C421.228 731.005 411.996 722.887 404.888 713.05C387.57 689.671 389.089 663.09 382.894 663.27C378.417 663.397 376.397 677.315 371.184 693.767C364.683 714.135 354.977 733.344 342.429 750.675C344.122 751.881 345.901 753.246 347.727 754.786C349.575 756.342 351.241 757.882 352.732 759.364C363.708 759.343 381.404 759.311 403.387 759.295C420.623 759.279 437.277 759.268 458.69 759.29C476.168 759.305 485.442 759.348 513.217 759.385C535.503 759.417 553.964 759.422 566.888 759.417Z" fill="#7F5B58"/>
<path d="M248.358 596.387C227.257 643.627 212.405 682.352 202.465 709.948C198.91 719.14 195.941 728.549 193.576 738.117C184.108 777.683 171.427 830.675 212.392 853.223C227.459 861.515 249.235 863.669 296.411 862.664C321.857 862.124 341.624 859.039 354.615 846.529C363.561 837.914 369.378 817.773 370.952 804.227C372.019 795.04 372.227 790.664 373.795 782.414C377.307 767.158 379.667 751.658 380.854 736.053C382.494 720.453 385.069 695.576 386.566 662.116C387.84 633.662 388.348 598.689 386.566 558.524C379.08 570.563 370.094 584.74 359.716 600.583C335.677 637.277 327.435 647.389 313.227 657.094C310.222 659.147 279.604 680.314 263.154 674.367C247.488 668.704 238.215 636.133 248.358 596.387Z" fill="#603A33"/>
<path d="M689.029 607.02C710.133 654.259 724.982 692.985 734.925 720.581C738.476 729.773 741.444 739.182 743.81 748.749C753.282 788.316 765.961 841.313 724.998 863.856C709.932 872.148 688.151 874.302 640.975 873.302C615.53 872.762 595.765 869.672 582.773 857.162C573.827 848.547 568.01 828.406 566.436 814.859C565.368 805.673 565.161 801.297 563.593 793.047C560.081 777.79 557.721 762.291 556.535 746.686C554.894 731.085 552.319 706.209 550.822 672.749C549.548 644.295 549.04 609.322 550.822 569.157C558.308 581.196 567.294 595.373 577.672 611.216C601.71 647.909 609.953 658.027 624.163 667.727C627.163 669.78 657.781 690.947 674.234 684.999C689.897 679.337 699.174 646.766 689.029 607.02Z" fill="#603A33"/>
<path d="M463.699 489.148C503.044 489.148 534.939 458.856 534.939 421.49C534.939 384.123 503.044 353.831 463.699 353.831C424.354 353.831 392.458 384.123 392.458 421.49C392.458 458.856 424.354 489.148 463.699 489.148Z" fill="#C48686"/>
<path d="M463.696 489.148C476.27 489.265 488.655 486.086 499.612 479.929C510.568 473.773 519.713 464.853 526.131 454.064C517.27 455.202 508.275 453.505 500.441 449.218C494.542 445.962 489.611 441.206 486.149 435.433C482.592 428.755 480.79 421.287 480.909 413.725C480.466 406.435 481.108 399.12 482.815 392.018C471.751 392.969 460.688 393.919 449.625 394.869C450.427 401.932 450.321 409.067 449.308 416.102C448.858 422.954 446.731 429.591 443.115 435.433C440.86 438.777 438.007 441.678 434.698 443.989C429.66 447.133 423.945 449.034 418.024 449.535C412.017 450.479 405.965 451.118 399.892 451.449C406.064 462.946 415.273 472.538 426.521 479.184C437.768 485.83 450.625 489.276 463.696 489.148Z" fill="#AF7474"/>
<path d="M489.361 386.918C491.253 391.3 487.184 396.181 483.393 400.728C479.409 405.507 473.585 412.494 465.262 412.4C457.46 412.313 452.194 406.057 447.469 400.443C443.232 395.409 439.515 390.992 441.184 386.918C444.183 379.599 462.001 379.65 465.431 379.659C469.559 379.671 486.253 379.719 489.361 386.918Z" fill="#562929"/>
<path d="M289.933 223.303C270.908 241.135 257.131 263.817 250.091 288.896C255.799 277.689 262.342 265.86 269.846 253.615C276.552 242.672 283.306 232.573 289.933 223.303Z" fill="#492A26"/>
<path d="M296.459 238.882C278.738 258.005 266.594 281.597 261.339 307.109C266.243 295.529 271.936 283.27 278.558 270.529C284.477 259.142 290.502 248.594 296.459 238.882Z" fill="#492A26"/>
<path d="M256.921 290.84C247.467 309.811 243.391 331 245.133 352.116C246.308 341.957 247.945 331.088 250.196 319.629C252.208 309.39 254.495 299.78 256.921 290.84Z" fill="#492A26"/>
<path d="M514.886 146.775C534.742 155.354 551.87 169.186 564.418 186.776C556.812 179.634 548.381 172.24 539.082 164.791C530.772 158.134 522.662 152.149 514.886 146.775Z" fill="#492A26"/>
<path d="M531.694 174.876C546.844 183.742 559.277 196.571 567.647 211.978C562.226 205.475 556.164 198.688 549.408 191.772C543.371 185.591 537.428 179.97 531.694 174.876Z" fill="#492A26"/>
<path d="M560.447 170.834C575.746 179.441 588.395 192.059 597.026 207.32C591.495 200.911 585.318 194.228 578.446 187.427C572.304 181.35 566.267 175.831 560.447 170.834Z" fill="#492A26"/>
<path d="M258.716 558.524C259.634 569.796 259.754 581.115 259.075 592.402C258.153 607.95 255.712 623.364 251.789 638.435C258.785 624.391 262.651 608.997 263.121 593.323C263.57 581.559 262.082 569.806 258.716 558.524Z" fill="#492A26"/>
<path d="M269.788 606.828C269.313 616.078 268.184 625.291 266.41 634.383C263.976 646.908 260.325 659.164 255.505 670.98C262.709 660.328 267.516 648.247 269.596 635.568C271.235 626.064 271.299 616.354 269.788 606.828Z" fill="#492A26"/>
<path d="M276.167 569.157C277.452 576.111 278.245 583.143 278.539 590.213C278.951 599.939 278.41 609.682 276.925 619.302C282.973 603.083 282.702 585.191 276.167 569.157Z" fill="#492A26"/>
<path d="M369.989 695.18C369.895 704.446 369.146 713.69 367.747 722.85C365.832 735.466 362.688 747.865 358.359 759.866C370.215 740.52 374.365 717.437 369.989 695.18Z" fill="#492A26"/>
<path d="M361.886 670.726C363.603 686.326 362.685 702.106 359.174 717.405C365.902 702.73 366.87 686.077 361.886 670.726Z" fill="#492A26"/>
<path d="M583.134 744.154C583.36 766.21 587.292 788.076 594.763 808.841C582.907 789.489 578.758 766.406 583.134 744.154Z" fill="#492A26"/>
<path d="M569.66 724.454C567.944 740.059 568.861 755.834 572.372 771.133C565.644 756.458 564.676 739.805 569.66 724.454Z" fill="#492A26"/>
<path d="M591.238 705.89C589.522 721.49 590.439 737.265 593.951 752.563C587.222 737.894 586.254 721.236 591.238 705.89Z" fill="#492A26"/>
<path d="M729.015 861.42C765.089 837.681 752.96 786.96 743.816 748.748C743.694 748.235 743.572 747.732 743.445 747.229C743.297 746.626 743.122 745.922 742.906 745.086L742.805 744.705C742.689 744.255 742.562 743.774 742.424 743.271C741.022 738.112 739.074 732.084 734.931 720.58C734.121 718.527 733.042 715.584 731.629 711.52C725.543 694.973 717.913 675.113 708.53 652.395C696.767 604.399 693.084 554.789 697.629 505.587C701.646 463.585 709.557 446.073 713.044 420.411C713.483 416.647 713.758 414.259 713.827 413.65V413.614C713.875 413.142 713.933 412.689 713.975 412.209C714.06 411.311 714.113 410.671 714.113 410.658C714.229 409.241 714.309 407.741 714.393 406.257C714.452 405.266 714.526 404.315 714.568 403.291C714.642 401.556 714.674 399.711 714.706 397.874C714.722 397.003 714.759 396.184 714.764 395.286C714.78 392.496 714.753 389.589 714.669 386.529C714.653 386.008 714.637 385.374 714.616 384.708L714.595 384.044L714.573 383.512C714.558 383.078 714.547 382.639 714.526 382.16C714.515 381.925 714.51 381.697 714.499 381.449C714.462 380.592 714.42 379.659 714.372 378.672C714.161 374.397 713.864 370.186 713.483 366.041L713.473 365.905L713.462 365.766C713.436 365.453 713.404 365.159 713.377 364.846C709.758 326.276 695.534 249.502 636.911 191.615C628.688 183.801 620.04 176.451 611 169.599L610.862 169.494C610.465 169.205 610.097 168.9 609.696 168.612C606.579 166.373 603.448 164.315 600.316 162.291C583.591 151.767 565.712 143.191 547.03 136.729C546.856 136.671 546.681 136.61 546.508 136.553C544.261 135.791 541.962 135.061 539.635 134.354C538.368 133.973 537.119 133.623 535.866 133.268C533.991 132.734 532.128 132.19 530.209 131.7L530.203 131.699C527.992 131.127 525.823 130.609 523.672 130.114C522.32 129.805 520.962 129.49 519.632 129.209C518.587 128.986 517.577 128.795 516.55 128.589C507.485 126.788 498.966 125.57 491.279 124.788L490.797 124.742C488.962 124.559 487.174 124.397 485.434 124.258L485.232 124.245L485.113 124.237C511.782 132.148 537.004 144.281 559.817 160.173C606.373 193.358 641.14 240.463 659.084 294.672C666.36 316.485 686.564 380.079 662.407 454.347C652.707 483.938 637.372 511.383 617.254 535.177C633.234 554.095 646.606 575.067 657.01 597.525C665.921 616.814 706.419 704.456 667.672 771C661.317 781.917 646.976 806.55 622.544 809.196C599.087 811.731 573.671 793.199 558.333 762.496C559.496 772.773 561.254 782.975 563.599 793.045C565.167 801.295 565.375 805.672 566.443 814.858C567.618 824.357 570.052 833.654 573.681 842.513C575.407 846.63 577.594 850.535 580.201 854.155C580.988 855.218 581.849 856.224 582.779 857.161C594.133 868.093 610.663 871.829 631.635 872.956L631.884 872.967C634.832 873.126 637.864 873.237 640.981 873.3C688.157 874.3 709.938 872.147 725.003 863.855C726.252 862.907 727.596 862.092 729.015 861.42Z" fill="#492A26"/>
<path d="M332.05 809.191C319.32 821.759 303.591 830.882 286.348 835.697C278.186 837.787 245.325 846.185 216.082 826.008C200.918 815.16 189.958 799.433 185.047 781.472L185.034 781.499C181.699 810.26 185.385 838.359 212.394 853.223C227.46 861.516 249.237 863.669 296.413 862.664C321.858 862.124 341.625 859.039 354.615 846.529C363.562 837.914 369.379 817.774 370.953 804.227C372.021 795.04 372.228 790.664 373.796 782.414C374.849 776.879 375.788 772.852 376.081 771.608C379.387 755.336 381.454 738.842 382.264 722.263C377.226 743.118 364.761 780.007 332.05 809.191Z" fill="#492A26"/>
<path d="M225.878 889.245C223.41 889.112 221.775 885.043 220.378 881.561C219.003 877.994 218.124 874.258 217.765 870.448C217.568 864.58 217.89 858.701 218.728 852.885C218.695 851.186 219.174 849.514 220.102 848.085C221.399 846.884 222.95 845.99 224.64 845.466C226.33 844.947 228.116 844.81 229.866 845.069C232.086 845.095 238.834 845.18 240.867 849.181C241.488 850.71 241.585 852.398 241.141 853.986C240.173 859.833 238.653 865.575 236.604 871.136C235.47 875.179 233.902 879.09 231.928 882.799C229.964 886.218 228.107 889.366 225.878 889.245Z" fill="#B78D8D"/>
<path d="M274.511 896.568C272.203 896.494 270.593 891.832 269.269 887.995C267.852 883.407 266.925 878.682 266.503 873.903C264.689 861.34 263.749 856.964 266.503 854.292C267.372 853.514 268.354 852.879 269.415 852.403C271.925 851.276 274.68 850.799 277.423 851.022C279.971 850.699 282.551 851.291 284.703 852.694C285.537 853.387 286.208 854.255 286.669 855.234C288.714 859.372 286.941 864.473 284.385 874.443C283.457 879.01 282.151 883.497 280.48 887.847C278.671 892.165 276.797 896.637 274.511 896.568Z" fill="#B78D8D"/>
<path d="M326.458 891.778C328.926 891.646 330.561 887.571 331.958 884.095C333.332 880.528 334.211 876.787 334.57 872.982C334.767 867.108 334.445 861.234 333.608 855.419C333.64 853.715 333.161 852.043 332.233 850.614C330.936 849.418 329.386 848.523 327.695 848C326.006 847.476 324.22 847.338 322.47 847.597C320.25 847.624 313.502 847.714 311.469 851.714C310.847 853.238 310.751 854.926 311.194 856.514C312.162 862.361 313.682 868.103 315.732 873.665C316.866 877.713 318.433 881.624 320.407 885.328C322.372 888.752 324.228 891.9 326.458 891.778Z" fill="#B78D8D"/>
<path d="M610.939 902.41C608.471 902.278 606.836 898.204 605.439 894.727C604.065 891.16 603.186 887.419 602.827 883.614C602.63 877.746 602.952 871.866 603.789 866.051C603.757 864.352 604.236 862.675 605.164 861.251C606.461 860.05 608.012 859.156 609.702 858.632C611.391 858.108 613.177 857.97 614.927 858.229C617.147 858.261 623.895 858.346 625.927 862.346C626.552 863.876 626.647 865.564 626.202 867.151C625.234 872.994 623.715 878.74 621.667 884.302C620.531 888.345 618.964 892.256 616.99 895.965C615.026 899.384 613.169 902.532 610.939 902.41Z" fill="#B78D8D"/>
<path d="M662.88 907.2C665.187 907.125 666.796 902.463 668.119 898.627C669.537 894.039 670.463 889.319 670.886 884.535C672.701 871.972 673.638 867.601 670.886 864.924C670.018 864.151 669.034 863.511 667.976 863.034C665.462 861.907 662.711 861.431 659.969 861.653C657.419 861.331 654.836 861.923 652.688 863.326C651.852 864.019 651.18 864.887 650.719 865.866C648.677 870.009 650.449 875.11 653.005 885.075C653.931 889.641 655.239 894.129 656.911 898.484C658.721 902.802 660.594 907.268 662.88 907.2Z" fill="#B78D8D"/>
<path d="M711.517 899.882C713.988 899.744 715.624 895.675 717.021 892.198C718.391 888.626 719.27 884.89 719.63 881.08C719.825 875.212 719.508 869.332 718.666 863.522C718.698 861.818 718.222 860.146 717.296 858.717C715.994 857.516 714.444 856.622 712.755 856.098C711.067 855.579 709.279 855.442 707.533 855.701C705.31 855.727 698.563 855.817 696.531 859.818C695.906 861.342 695.811 863.03 696.256 864.617C697.224 870.465 698.743 876.206 700.791 881.768C701.929 885.811 703.495 889.722 705.469 893.431C707.432 896.85 709.289 899.998 711.517 899.882Z" fill="#B78D8D"/>
</svg>
